<?xml version="1.0" standalone="no"?><!DOCTYPE svg PUBLIC "-//W3C//DTD SVG 1.1//EN" "http://www.w3.org/Graphics/SVG/1.1/DTD/svg11.dtd"><svg xmlns:xlink="http://www.w3.org/1999/xlink" version="1.1" class="highcharts-root" style="font-family:Arial;font-size:12px;" xmlns="http://www.w3.org/2000/svg" viewBox="0 0 485 415"><desc>Created with Highcharts 8.2.0</desc><defs><clipPath id="highcharts-4h14bsy-43-"><rect x="0" y="0" width="438" height="250" fill="none"></rect></clipPath><clipPath id="highcharts-4h14bsy-50-"><rect x="0" y="0" width="438" height="250" fill="none"></rect></clipPath><clipPath id="highcharts-4h14bsy-81-"><rect x="37" y="116" width="438" height="250" fill="none"></rect></clipPath></defs><rect fill="#fbfbfb" class="highcharts-background" x="0" y="0" width="485" height="428" rx="0" ry="0"></rect><rect fill="none" class="highcharts-plot-background" x="37" y="116" width="438" height="250"></rect><g class="highcharts-pane-group" data-z-index="0"></g><g class="highcharts-grid highcharts-xaxis-grid" data-z-index="1"><path fill="none" data-z-index="1" class="highcharts-grid-line" d="M 109.5 116 L 109.5 366" opacity="1"></path><path fill="none" data-z-index="1" class="highcharts-grid-line" d="M 182.5 116 L 182.5 366" opacity="1"></path><path fill="none" data-z-index="1" class="highcharts-grid-line" d="M 255.5 116 L 255.5 366" opacity="1"></path><path fill="none" data-z-index="1" class="highcharts-grid-line" d="M 328.5 116 L 328.5 366" opacity="1"></path><path fill="none" data-z-index="1" class="highcharts-grid-line" d="M 401.5 116 L 401.5 366" opacity="1"></path><path fill="none" data-z-index="1" class="highcharts-grid-line" d="M 474.5 116 L 474.5 366" opacity="1"></path><path fill="none" data-z-index="1" class="highcharts-grid-line" d="M 36.5 116 L 36.5 366" opacity="1"></path></g><g class="highcharts-grid highcharts-yaxis-grid" data-z-index="1"><path fill="none" stroke="#B9CFD7" stroke-width="0.5" data-z-index="1" class="highcharts-grid-line" d="M 37 366.25 L 475 366.25" opacity="1"></path><path fill="none" stroke="#B9CFD7" stroke-width="0.5" data-z-index="1" class="highcharts-grid-line" d="M 37 316.25 L 475 316.25" opacity="1"></path><path fill="none" stroke="#B9CFD7" stroke-width="0.5" data-z-index="1" class="highcharts-grid-line" d="M 37 266.25 L 475 266.25" opacity="1"></path><path fill="none" stroke="#B9CFD7" stroke-width="0.5" data-z-index="1" class="highcharts-grid-line" d="M 37 216.25 L 475 216.25" opacity="1"></path><path fill="none" stroke="#B9CFD7" stroke-width="0.5" data-z-index="1" class="highcharts-grid-line" d="M 37 166.25 L 475 166.25" opacity="1"></path><path fill="none" stroke="#B9CFD7" stroke-width="0.5" data-z-index="1" class="highcharts-grid-line" d="M 37 115.75 L 475 115.75" opacity="1"></path></g><rect fill="none" class="highcharts-plot-border" data-z-index="1" x="37" y="116" width="438" height="250"></rect><g class="highcharts-axis highcharts-xaxis" data-z-index="2"><path fill="none" class="highcharts-axis-line" stroke="#B9CFD7" stroke-width="0.5" data-z-index="7" d="M 37 366.25 L 475 366.25"></path></g><g class="highcharts-axis highcharts-yaxis" data-z-index="2"><path fill="none" class="highcharts-axis-line" data-z-index="7" d="M 37 116 L 37 366"></path></g><g class="highcharts-series-group" data-z-index="3"><g class="highcharts-series highcharts-series-0 highcharts-column-series" data-z-index="0.1" opacity="1" transform="translate(37,116) scale(1 1)" clip-path="url(#highcharts-4h14bsy-50-)"><rect x="15" y="163" width="14" height="88" fill="#008AC3" opacity="1" class="highcharts-point"></rect><rect x="88" y="166" width="14" height="85" fill="#008AC3" opacity="1" class="highcharts-point"></rect><rect x="161" y="168" width="14" height="83" fill="#008AC3" opacity="1" class="highcharts-point"></rect><rect x="234" y="158" width="14" height="93" fill="#008AC3" opacity="1" class="highcharts-point"></rect><rect x="307" y="170" width="14" height="81" fill="#008AC3" opacity="1" class="highcharts-point"></rect><rect x="380" y="157" width="14" height="94" fill="#008AC3" opacity="1" class="highcharts-point"></rect></g><g class="highcharts-markers highcharts-series-0 highcharts-column-series" data-z-index="0.1" opacity="1" transform="translate(37,116) scale(1 1)" clip-path="none"></g><g class="highcharts-series highcharts-series-1 highcharts-errorbar-series" data-z-index="0.1" opacity="1" transform="translate(37,116) scale(1 1)" clip-path="url(#highcharts-4h14bsy-50-)"><g class="highcharts-point"><path fill="none" class="highcharts-boxplot-stem" stroke="#000000" stroke-width="1" d="M 22.5 169 L 22.5 155 M 22.5 169 L 22.5 169"></path><path fill="none" class="highcharts-boxplot-whisker" stroke="#000000" stroke-width="1" d="M 19 155.5 L 26 155.5 M 19 169.5 L 26 169.5"></path><path fill="none" class="highcharts-boxplot-median" stroke="#000000" stroke-width="2" d="M 0 0"></path></g><g class="highcharts-point"><path fill="none" class="highcharts-boxplot-stem" stroke="#000000" stroke-width="1" d="M 95.5 172 L 95.5 157 M 95.5 172 L 95.5 172"></path><path fill="none" class="highcharts-boxplot-whisker" stroke="#000000" stroke-width="1" d="M 92 157.5 L 99 157.5 M 92 172.5 L 99 172.5"></path><path fill="none" class="highcharts-boxplot-median" stroke="#000000" stroke-width="2" d="M 0 0"></path></g><g class="highcharts-point"><path fill="none" class="highcharts-boxplot-stem" stroke="#000000" stroke-width="1" d="M 168.5 181 L 168.5 152 M 168.5 181 L 168.5 181"></path><path fill="none" class="highcharts-boxplot-whisker" stroke="#000000" stroke-width="1" d="M 165 152.5 L 172 152.5 M 165 181.5 L 172 181.5"></path><path fill="none" class="highcharts-boxplot-median" stroke="#000000" stroke-width="2" d="M 0 0"></path></g><g class="highcharts-point"><path fill="none" class="highcharts-boxplot-stem" stroke="#000000" stroke-width="1" d="M 241.5 171 L 241.5 143 M 241.5 171 L 241.5 171"></path><path fill="none" class="highcharts-boxplot-whisker" stroke="#000000" stroke-width="1" d="M 238 143.5 L 245 143.5 M 238 171.5 L 245 171.5"></path><path fill="none" class="highcharts-boxplot-median" stroke="#000000" stroke-width="2" d="M 0 0"></path></g><g class="highcharts-point"><path fill="none" class="highcharts-boxplot-stem" stroke="#000000" stroke-width="1" d="M 314.5 182 L 314.5 156 M 314.5 182 L 314.5 182"></path><path fill="none" class="highcharts-boxplot-whisker" stroke="#000000" stroke-width="1" d="M 311 156.5 L 318 156.5 M 311 182.5 L 318 182.5"></path><path fill="none" class="highcharts-boxplot-median" stroke="#000000" stroke-width="2" d="M 0 0"></path></g><g class="highcharts-point"><path fill="none" class="highcharts-boxplot-stem" stroke="#000000" stroke-width="1" d="M 387.5 169 L 387.5 143 M 387.5 169 L 387.5 169"></path><path fill="none" class="highcharts-boxplot-whisker" stroke="#000000" stroke-width="1" d="M 384 143.5 L 391 143.5 M 384 169.5 L 391 169.5"></path><path fill="none" class="highcharts-boxplot-median" stroke="#000000" stroke-width="2" d="M 0 0"></path></g></g><g class="highcharts-markers highcharts-series-1 highcharts-errorbar-series" data-z-index="0.1" opacity="1" transform="translate(37,116) scale(1 1)" clip-path="none"></g><g class="highcharts-series highcharts-series-2 highcharts-column-series" data-z-index="0.1" opacity="1" transform="translate(37,116) scale(1 1)" clip-path="url(#highcharts-4h14bsy-50-)"><rect x="29" y="118" width="15" height="133" fill="#DC440E" opacity="1" class="highcharts-point"></rect><rect x="102" y="109" width="15" height="142" fill="#DC440E" opacity="1" class="highcharts-point"></rect><rect x="175" y="117" width="15" height="134" fill="#DC440E" opacity="1" class="highcharts-point"></rect><rect x="248" y="117" width="15" height="134" fill="#DC440E" opacity="1" class="highcharts-point"></rect><rect x="321" y="122" width="15" height="129" fill="#DC440E" opacity="1" class="highcharts-point"></rect><rect x="394" y="110" width="15" height="141" fill="#DC440E" opacity="1" class="highcharts-point"></rect></g><g class="highcharts-markers highcharts-series-2 highcharts-column-series" data-z-index="0.1" opacity="1" transform="translate(37,116) scale(1 1)" clip-path="none"></g><g class="highcharts-series highcharts-series-3 highcharts-errorbar-series" data-z-index="0.1" opacity="1" transform="translate(37,116) scale(1 1)" clip-path="url(#highcharts-4h14bsy-50-)"><g class="highcharts-point"><path fill="none" class="highcharts-boxplot-stem" stroke="#000000" stroke-width="1" d="M 37.5 126 L 37.5 108 M 37.5 126 L 37.5 126"></path><path fill="none" class="highcharts-boxplot-whisker" stroke="#000000" stroke-width="1" d="M 33.5 108.5 L 41.5 108.5 M 33.5 126.5 L 41.5 126.5"></path><path fill="none" class="highcharts-boxplot-median" stroke="#000000" stroke-width="2" d="M 0 0"></path></g><g class="highcharts-point"><path fill="none" class="highcharts-boxplot-stem" stroke="#000000" stroke-width="1" d="M 110.5 117 L 110.5 99 M 110.5 117 L 110.5 117"></path><path fill="none" class="highcharts-boxplot-whisker" stroke="#000000" stroke-width="1" d="M 106.5 99.5 L 114.5 99.5 M 106.5 117.5 L 114.5 117.5"></path><path fill="none" class="highcharts-boxplot-median" stroke="#000000" stroke-width="2" d="M 0 0"></path></g><g class="highcharts-point"><path fill="none" class="highcharts-boxplot-stem" stroke="#000000" stroke-width="1" d="M 183.5 134 L 183.5 98 M 183.5 134 L 183.5 134"></path><path fill="none" class="highcharts-boxplot-whisker" stroke="#000000" stroke-width="1" d="M 179.5 98.5 L 187.5 98.5 M 179.5 134.5 L 187.5 134.5"></path><path fill="none" class="highcharts-boxplot-median" stroke="#000000" stroke-width="2" d="M 0 0"></path></g><g class="highcharts-point"><path fill="none" class="highcharts-boxplot-stem" stroke="#000000" stroke-width="1" d="M 256.5 140 L 256.5 90 M 256.5 140 L 256.5 140"></path><path fill="none" class="highcharts-boxplot-whisker" stroke="#000000" stroke-width="1" d="M 252.5 90.5 L 260.5 90.5 M 252.5 140.5 L 260.5 140.5"></path><path fill="none" class="highcharts-boxplot-median" stroke="#000000" stroke-width="2" d="M 0 0"></path></g><g class="highcharts-point"><path fill="none" class="highcharts-boxplot-stem" stroke="#000000" stroke-width="1" d="M 329.5 139 L 329.5 103 M 329.5 139 L 329.5 139"></path><path fill="none" class="highcharts-boxplot-whisker" stroke="#000000" stroke-width="1" d="M 325.5 103.5 L 333.5 103.5 M 325.5 139.5 L 333.5 139.5"></path><path fill="none" class="highcharts-boxplot-median" stroke="#000000" stroke-width="2" d="M 0 0"></path></g><g class="highcharts-point"><path fill="none" class="highcharts-boxplot-stem" stroke="#000000" stroke-width="1" d="M 402.5 125 L 402.5 91 M 402.5 125 L 402.5 125"></path><path fill="none" class="highcharts-boxplot-whisker" stroke="#000000" stroke-width="1" d="M 398.5 91.5 L 406.5 91.5 M 398.5 125.5 L 406.5 125.5"></path><path fill="none" class="highcharts-boxplot-median" stroke="#000000" stroke-width="2" d="M 0 0"></path></g></g><g class="highcharts-markers highcharts-series-3 highcharts-errorbar-series" data-z-index="0.1" opacity="1" transform="translate(37,116) scale(1 1)" clip-path="none"></g><g class="highcharts-series highcharts-series-4 highcharts-column-series" data-z-index="0.1" opacity="1" transform="translate(37,116) scale(1 1)" clip-path="url(#highcharts-4h14bsy-50-)"><rect x="44" y="139" width="14" height="112" fill="#3c3c3c" opacity="1" class="highcharts-point"></rect><rect x="117" y="136" width="14" height="115" fill="#3c3c3c" opacity="1" class="highcharts-point"></rect><rect x="190" y="140" width="14" height="111" fill="#3c3c3c" opacity="1" class="highcharts-point"></rect><rect x="263" y="137" width="14" height="114" fill="#3c3c3c" opacity="1" class="highcharts-point"></rect><rect x="336" y="146" width="14" height="105" fill="#3c3c3c" opacity="1" class="highcharts-point"></rect><rect x="409" y="134" width="14" height="117" fill="#3c3c3c" opacity="1" class="highcharts-point"></rect></g><g class="highcharts-markers highcharts-series-4 highcharts-column-series" data-z-index="0.1" opacity="1" transform="translate(37,116) scale(1 1)" clip-path="none"></g><g class="highcharts-series highcharts-series-5 highcharts-errorbar-series" data-z-index="0.1" opacity="1" transform="translate(37,116) scale(1 1)" clip-path="url(#highcharts-4h14bsy-50-)"><g class="highcharts-point"><path fill="none" class="highcharts-boxplot-stem" stroke="#000000" stroke-width="1" d="M 51.5 144 L 51.5 132 M 51.5 144 L 51.5 144"></path><path fill="none" class="highcharts-boxplot-whisker" stroke="#000000" stroke-width="1" d="M 48 132.5 L 55 132.5 M 48 144.5 L 55 144.5"></path><path fill="none" class="highcharts-boxplot-median" stroke="#000000" stroke-width="2" d="M 0 0"></path></g><g class="highcharts-point"><path fill="none" class="highcharts-boxplot-stem" stroke="#000000" stroke-width="1" d="M 124.5 140 L 124.5 128 M 124.5 140 L 124.5 140"></path><path fill="none" class="highcharts-boxplot-whisker" stroke="#000000" stroke-width="1" d="M 121 128.5 L 128 128.5 M 121 140.5 L 128 140.5"></path><path fill="none" class="highcharts-boxplot-median" stroke="#000000" stroke-width="2" d="M 0 0"></path></g><g class="highcharts-point"><path fill="none" class="highcharts-boxplot-stem" stroke="#000000" stroke-width="1" d="M 197.5 151 L 197.5 126 M 197.5 151 L 197.5 151"></path><path fill="none" class="highcharts-boxplot-whisker" stroke="#000000" stroke-width="1" d="M 194 126.5 L 201 126.5 M 194 151.5 L 201 151.5"></path><path fill="none" class="highcharts-boxplot-median" stroke="#000000" stroke-width="2" d="M 0 0"></path></g><g class="highcharts-point"><path fill="none" class="highcharts-boxplot-stem" stroke="#000000" stroke-width="1" d="M 270.5 150 L 270.5 121 M 270.5 150 L 270.5 150"></path><path fill="none" class="highcharts-boxplot-whisker" stroke="#000000" stroke-width="1" d="M 267 121.5 L 274 121.5 M 267 150.5 L 274 150.5"></path><path fill="none" class="highcharts-boxplot-median" stroke="#000000" stroke-width="2" d="M 0 0"></path></g><g class="highcharts-point"><path fill="none" class="highcharts-boxplot-stem" stroke="#000000" stroke-width="1" d="M 343.5 156 L 343.5 132 M 343.5 156 L 343.5 156"></path><path fill="none" class="highcharts-boxplot-whisker" stroke="#000000" stroke-width="1" d="M 340 132.5 L 347 132.5 M 340 156.5 L 347 156.5"></path><path fill="none" class="highcharts-boxplot-median" stroke="#000000" stroke-width="2" d="M 0 0"></path></g><g class="highcharts-point"><path fill="none" class="highcharts-boxplot-stem" stroke="#000000" stroke-width="1" d="M 416.5 144 L 416.5 122 M 416.5 144 L 416.5 144"></path><path fill="none" class="highcharts-boxplot-whisker" stroke="#000000" stroke-width="1" d="M 413 122.5 L 420 122.5 M 413 144.5 L 420 144.5"></path><path fill="none" class="highcharts-boxplot-median" stroke="#000000" stroke-width="2" d="M 0 0"></path></g></g><g class="highcharts-markers highcharts-series-5 highcharts-errorbar-series" data-z-index="0.1" opacity="1" transform="translate(37,116) scale(1 1)" clip-path="none"></g></g><text x="10" text-anchor="start" class="highcharts-title" data-z-index="4" style="color:#000000;font-size:14px;font-weight:bold;fill:#000000;" y="21"><tspan>Durchschnittlicher Zeitaufwand für Haus- und</tspan><tspan dy="17" x="10">Familienarbeit</tspan></text><text x="10" text-anchor="start" class="highcharts-subtitle" data-z-index="4" style="color:#000000;font-size:12px;font-weight:normal;fill:#000000;" y="57"><tspan>in Stunden pro Woche, Basel-Stadt</tspan></text><text x="10" text-anchor="start" class="highcharts-caption" data-z-index="4" style="color:#666666;fill:#666666;" y="400"></text><g class="highcharts-legend" data-z-index="7" transform="translate(29,73)"><rect fill="none" class="highcharts-legend-box" rx="0" ry="0" x="0" y="0" width="226" height="31" visibility="visible"></rect><g data-z-index="1"><g><g class="highcharts-legend-item highcharts-column-series highcharts-color-undefined highcharts-series-0" data-z-index="1" transform="translate(8,3)"><text x="21" style="color:#333333;cursor:pointer;font-size:12px;font-weight:normal;fill:#333333;" text-anchor="start" data-z-index="2" y="15"><tspan>Männer</tspan></text><rect x="2" y="4" width="12" height="12" fill="#008AC3" class="highcharts-point" data-z-index="3"></rect></g><g class="highcharts-legend-item highcharts-column-series highcharts-color-undefined highcharts-series-2" data-z-index="1" transform="translate(90,3)"><text x="21" y="15" style="color:#333333;cursor:pointer;font-size:12px;font-weight:normal;fill:#333333;" text-anchor="start" data-z-index="2"><tspan>Frauen</tspan></text><rect x="2" y="4" width="12" height="12" fill="#DC440E" class="highcharts-point" data-z-index="3"></rect></g><g class="highcharts-legend-item highcharts-column-series highcharts-color-undefined highcharts-series-4" data-z-index="1" transform="translate(170,3)"><text x="21" y="15" style="color:#333333;cursor:pointer;font-size:12px;font-weight:normal;fill:#333333;" text-anchor="start" data-z-index="2"><tspan>Total</tspan></text><rect x="2" y="4" width="12" height="12" fill="#3c3c3c" class="highcharts-point" data-z-index="3"></rect></g></g></g></g><g class="highcharts-axis-labels highcharts-xaxis-labels" data-z-index="7"><text x="73.5" style="color:#000000;cursor:default;font-size:11px;fill:#000000;" text-anchor="middle" transform="translate(0,0)" y="385" opacity="1">2004</text><text x="146.5" style="color:#000000;cursor:default;font-size:11px;fill:#000000;" text-anchor="middle" transform="translate(0,0)" y="385" opacity="1">2007</text><text x="219.5" style="color:#000000;cursor:default;font-size:11px;fill:#000000;" text-anchor="middle" transform="translate(0,0)" y="385" opacity="1">2010</text><text x="292.5" style="color:#000000;cursor:default;font-size:11px;fill:#000000;" text-anchor="middle" transform="translate(0,0)" y="385" opacity="1">2013</text><text x="365.5" style="color:#000000;cursor:default;font-size:11px;fill:#000000;" text-anchor="middle" transform="translate(0,0)" y="385" opacity="1">2016</text><text x="438.5" style="color:#000000;cursor:default;font-size:11px;fill:#000000;" text-anchor="middle" transform="translate(0,0)" y="385" opacity="1">2020</text></g><g class="highcharts-axis-labels highcharts-yaxis-labels" data-z-index="7"><text x="22" style="color:#000000;cursor:default;font-size:11px;fill:#000000;" text-anchor="end" transform="translate(0,0)" y="370" opacity="1">0</text><text x="22" style="color:#000000;cursor:default;font-size:11px;fill:#000000;" text-anchor="end" transform="translate(0,0)" y="320" opacity="1">10</text><text x="22" style="color:#000000;cursor:default;font-size:11px;fill:#000000;" text-anchor="end" transform="translate(0,0)" y="270" opacity="1">20</text><text x="22" style="color:#000000;cursor:default;font-size:11px;fill:#000000;" text-anchor="end" transform="translate(0,0)" y="220" opacity="1">30</text><text x="22" style="color:#000000;cursor:default;font-size:11px;fill:#000000;" text-anchor="end" transform="translate(0,0)" y="170" opacity="1">40</text><text x="22" style="color:#000000;cursor:default;font-size:11px;fill:#000000;" text-anchor="end" transform="translate(0,0)" y="120" opacity="1">50</text></g><text x="10" class="highcharts-credits" text-anchor="start" data-z-index="8" style="cursor:default;color:#000000;font-size:10px;fill:#000000;" y="403"><tspan>Quelle: Bundesamt für Statistik (BFS), Schweizerische Arbeitskräfteerhebung (SAKE), Modul 'Unbezahlte Arbeit'.</tspan><tspan x="10" dy="13">Zuletzt geändert: 27.2.2024</tspan></text><g class="highcharts-control-points" data-z-index="99" clip-path="url(#highcharts-4h14bsy-81-)"></g></svg>