<?xml version="1.0" standalone="no"?><!DOCTYPE svg PUBLIC "-//W3C//DTD SVG 1.1//EN" "http://www.w3.org/Graphics/SVG/1.1/DTD/svg11.dtd"><svg xmlns:xlink="http://www.w3.org/1999/xlink" version="1.1" class="highcharts-root" style="font-family:Arial;font-size:12px;" xmlns="http://www.w3.org/2000/svg" viewBox="0 0 485 415"><desc>Created with Highcharts 8.2.0</desc><defs><clipPath id="highcharts-y6fvfqn-87-"><rect x="0" y="0" width="386" height="200" fill="none"></rect></clipPath><clipPath id="highcharts-y6fvfqn-94-"><rect x="0" y="0" width="386" height="200" fill="none"></rect></clipPath><clipPath id="highcharts-y6fvfqn-167-"><rect x="0" y="0" width="386" height="200" fill="none"></rect></clipPath><clipPath id="highcharts-y6fvfqn-168-"><rect x="53" y="141" width="386" height="200" fill="none"></rect></clipPath></defs><rect fill="#fbfbfb" class="highcharts-background" x="0" y="0" width="485" height="428" rx="0" ry="0"></rect><rect fill="none" class="highcharts-plot-background" x="53" y="141" width="386" height="200"></rect><g class="highcharts-pane-group" data-z-index="0"></g><g class="highcharts-grid highcharts-xaxis-grid" data-z-index="1"><path fill="none" data-z-index="1" class="highcharts-grid-line" d="M 87.5 141 L 87.5 341" opacity="1"></path><path fill="none" data-z-index="1" class="highcharts-grid-line" d="M 150.5 141 L 150.5 341" opacity="1"></path><path fill="none" data-z-index="1" class="highcharts-grid-line" d="M 213.5 141 L 213.5 341" opacity="1"></path><path fill="none" data-z-index="1" class="highcharts-grid-line" d="M 277.5 141 L 277.5 341" opacity="1"></path><path fill="none" data-z-index="1" class="highcharts-grid-line" d="M 340.5 141 L 340.5 341" opacity="1"></path><path fill="none" data-z-index="1" class="highcharts-grid-line" d="M 403.5 141 L 403.5 341" opacity="1"></path></g><g class="highcharts-grid highcharts-yaxis-grid" data-z-index="1"><path fill="none" stroke="#e6e6e6" stroke-width="1" data-z-index="1" class="highcharts-grid-line" d="M 53 341.5 L 439 341.5" opacity="1"></path><path fill="none" stroke="#e6e6e6" stroke-width="1" data-z-index="1" class="highcharts-grid-line" d="M 53 291.5 L 439 291.5" opacity="1"></path><path fill="none" stroke="#e6e6e6" stroke-width="1" data-z-index="1" class="highcharts-grid-line" d="M 53 241.5 L 439 241.5" opacity="1"></path><path fill="none" stroke="#e6e6e6" stroke-width="1" data-z-index="1" class="highcharts-grid-line" d="M 53 191.5 L 439 191.5" opacity="1"></path><path fill="none" stroke="#e6e6e6" stroke-width="1" data-z-index="1" class="highcharts-grid-line" d="M 53 140.5 L 439 140.5" opacity="1"></path></g><g class="highcharts-grid highcharts-yaxis-grid" data-z-index="1"><path fill="none" stroke="#e6e6e6" stroke-width="1" data-z-index="1" class="highcharts-grid-line" d="M 53 341.5 L 439 341.5" opacity="1"></path><path fill="none" stroke="#e6e6e6" stroke-width="1" data-z-index="1" class="highcharts-grid-line" d="M 53 291.5 L 439 291.5" opacity="1"></path><path fill="none" stroke="#e6e6e6" stroke-width="1" data-z-index="1" class="highcharts-grid-line" d="M 53 241.5 L 439 241.5" opacity="1"></path><path fill="none" stroke="#e6e6e6" stroke-width="1" data-z-index="1" class="highcharts-grid-line" d="M 53 191.5 L 439 191.5" opacity="1"></path><path fill="none" stroke="#e6e6e6" stroke-width="1" data-z-index="1" class="highcharts-grid-line" d="M 53 140.5 L 439 140.5" opacity="1"></path></g><rect fill="none" class="highcharts-plot-border" data-z-index="1" x="53" y="141" width="386" height="200"></rect><g class="highcharts-axis highcharts-xaxis" data-z-index="2"><path fill="none" class="highcharts-axis-line" stroke="#B9CFD7" stroke-width="0.5" data-z-index="7" d="M 53 341.25 L 439 341.25"></path></g><g class="highcharts-axis highcharts-yaxis" data-z-index="2"><path fill="none" class="highcharts-axis-line" data-z-index="7" d="M 53 141 L 53 341"></path></g><g class="highcharts-axis highcharts-yaxis" data-z-index="2"><path fill="none" class="highcharts-axis-line" data-z-index="7" d="M 439 141 L 439 341"></path></g><g class="highcharts-series-group" data-z-index="3"><g class="highcharts-series highcharts-series-0 highcharts-column-series" data-z-index="0.1" opacity="1" transform="translate(53,141) scale(1 1)" clip-path="url(#highcharts-y6fvfqn-94-)"><rect x="20" y="0" width="31" height="5" fill="#2e1435" opacity="1" class="highcharts-point"></rect><rect x="83" y="0" width="31" height="5" fill="#2e1435" opacity="1" class="highcharts-point"></rect><rect x="146" y="0" width="31" height="4" fill="#2e1435" opacity="1" class="highcharts-point"></rect><rect x="209" y="0" width="31" height="5" fill="#2e1435" opacity="1" class="highcharts-point"></rect><rect x="273" y="0" width="31" height="6" fill="#2e1435" opacity="1" class="highcharts-point"></rect><rect x="336" y="0" width="31" height="6" fill="#2e1435" opacity="1" class="highcharts-point"></rect></g><g class="highcharts-markers highcharts-series-0 highcharts-column-series" data-z-index="0.1" opacity="1" transform="translate(53,141) scale(1 1)" clip-path="none"></g><g class="highcharts-series highcharts-series-1 highcharts-column-series" data-z-index="0.1" opacity="1" transform="translate(53,141) scale(1 1)" clip-path="url(#highcharts-y6fvfqn-94-)"><rect x="20" y="5" width="31" height="3" fill="#662673" opacity="1" class="highcharts-point"></rect><rect x="83" y="5" width="31" height="3" fill="#662673" opacity="1" class="highcharts-point"></rect><rect x="146" y="4" width="31" height="3" fill="#662673" opacity="1" class="highcharts-point"></rect><rect x="209" y="5" width="31" height="5" fill="#662673" opacity="1" class="highcharts-point"></rect><rect x="273" y="6" width="31" height="4" fill="#662673" opacity="1" class="highcharts-point"></rect><rect x="336" y="6" width="31" height="5" fill="#662673" opacity="1" class="highcharts-point"></rect></g><g class="highcharts-markers highcharts-series-1 highcharts-column-series" data-z-index="0.1" opacity="1" transform="translate(53,141) scale(1 1)" clip-path="none"></g><g class="highcharts-series highcharts-series-2 highcharts-column-series" data-z-index="0.1" opacity="1" transform="translate(53,141) scale(1 1)" clip-path="url(#highcharts-y6fvfqn-94-)"><rect x="20" y="8" width="31" height="20" fill="#923f8d" opacity="1" class="highcharts-point"></rect><rect x="83" y="8" width="31" height="19" fill="#923f8d" opacity="1" class="highcharts-point"></rect><rect x="146" y="7" width="31" height="23" fill="#923f8d" opacity="1" class="highcharts-point"></rect><rect x="209" y="10" width="31" height="23" fill="#923f8d" opacity="1" class="highcharts-point"></rect><rect x="273" y="10" width="31" height="26" fill="#923f8d" opacity="1" class="highcharts-point"></rect><rect x="336" y="11" width="31" height="25" fill="#923f8d" opacity="1" class="highcharts-point"></rect></g><g class="highcharts-markers highcharts-series-2 highcharts-column-series" data-z-index="0.1" opacity="1" transform="translate(53,141) scale(1 1)" clip-path="none"></g><g class="highcharts-series highcharts-series-3 highcharts-column-series" data-z-index="0.1" opacity="1" transform="translate(53,141) scale(1 1)" clip-path="url(#highcharts-y6fvfqn-94-)"><rect x="20" y="28" width="31" height="9" fill="#b375ab" opacity="1" class="highcharts-point"></rect><rect x="83" y="27" width="31" height="9" fill="#b375ab" opacity="1" class="highcharts-point"></rect><rect x="146" y="30" width="31" height="10" fill="#b375ab" opacity="1" class="highcharts-point"></rect><rect x="209" y="33" width="31" height="9" fill="#b375ab" opacity="1" class="highcharts-point"></rect><rect x="273" y="36" width="31" height="10" fill="#b375ab" opacity="1" class="highcharts-point"></rect><rect x="336" y="36" width="31" height="11" fill="#b375ab" opacity="1" class="highcharts-point"></rect></g><g class="highcharts-markers highcharts-series-3 highcharts-column-series" data-z-index="0.1" opacity="1" transform="translate(53,141) scale(1 1)" clip-path="none"></g><g class="highcharts-series highcharts-series-4 highcharts-column-series" data-z-index="0.1" opacity="1" transform="translate(53,141) scale(1 1)" clip-path="url(#highcharts-y6fvfqn-94-)"><rect x="20" y="37" width="31" height="32" fill="#e7cee2" opacity="1" class="highcharts-point"></rect><rect x="83" y="36" width="31" height="33" fill="#e7cee2" opacity="1" class="highcharts-point"></rect><rect x="146" y="40" width="31" height="32" fill="#e7cee2" opacity="1" class="highcharts-point"></rect><rect x="209" y="42" width="31" height="34" fill="#e7cee2" opacity="1" class="highcharts-point"></rect><rect x="273" y="46" width="31" height="33" fill="#e7cee2" opacity="1" class="highcharts-point"></rect><rect x="336" y="47" width="31" height="33" fill="#e7cee2" opacity="1" class="highcharts-point"></rect></g><g class="highcharts-markers highcharts-series-4 highcharts-column-series" data-z-index="0.1" opacity="1" transform="translate(53,141) scale(1 1)" clip-path="none"></g><g class="highcharts-series highcharts-series-5 highcharts-column-series" data-z-index="0.1" opacity="1" transform="translate(53,141) scale(1 1)" clip-path="url(#highcharts-y6fvfqn-94-)"><rect x="20" y="69" width="31" height="16" fill="#45381d" opacity="1" class="highcharts-point"></rect><rect x="83" y="69" width="31" height="14" fill="#45381d" opacity="1" class="highcharts-point"></rect><rect x="146" y="72" width="31" height="14" fill="#45381d" opacity="1" class="highcharts-point"></rect><rect x="209" y="76" width="31" height="12" fill="#45381d" opacity="1" class="highcharts-point"></rect><rect x="273" y="79" width="31" height="13" fill="#45381d" opacity="1" class="highcharts-point"></rect><rect x="336" y="80" width="31" height="13" fill="#45381d" opacity="1" class="highcharts-point"></rect></g><g class="highcharts-markers highcharts-series-5 highcharts-column-series" data-z-index="0.1" opacity="1" transform="translate(53,141) scale(1 1)" clip-path="none"></g><g class="highcharts-series highcharts-series-6 highcharts-column-series" data-z-index="0.1" opacity="1" transform="translate(53,141) scale(1 1)" clip-path="url(#highcharts-y6fvfqn-94-)"><rect x="20" y="85" width="31" height="36" fill="#7f5f1a" opacity="1" class="highcharts-point"></rect><rect x="83" y="83" width="31" height="40" fill="#7f5f1a" opacity="1" class="highcharts-point"></rect><rect x="146" y="86" width="31" height="40" fill="#7f5f1a" opacity="1" class="highcharts-point"></rect><rect x="209" y="88" width="31" height="40" fill="#7f5f1a" opacity="1" class="highcharts-point"></rect><rect x="273" y="92" width="31" height="39" fill="#7f5f1a" opacity="1" class="highcharts-point"></rect><rect x="336" y="93" width="31" height="40" fill="#7f5f1a" opacity="1" class="highcharts-point"></rect></g><g class="highcharts-markers highcharts-series-6 highcharts-column-series" data-z-index="0.1" opacity="1" transform="translate(53,141) scale(1 1)" clip-path="none"></g><g class="highcharts-series highcharts-series-7 highcharts-column-series" data-z-index="0.1" opacity="1" transform="translate(53,141) scale(1 1)" clip-path="url(#highcharts-y6fvfqn-94-)"><rect x="20" y="121" width="31" height="14" fill="#cd9c00" opacity="1" class="highcharts-point"></rect><rect x="83" y="123" width="31" height="12" fill="#cd9c00" opacity="1" class="highcharts-point"></rect><rect x="146" y="126" width="31" height="14" fill="#cd9c00" opacity="1" class="highcharts-point"></rect><rect x="209" y="128" width="31" height="14" fill="#cd9c00" opacity="1" class="highcharts-point"></rect><rect x="273" y="131" width="31" height="13" fill="#cd9c00" opacity="1" class="highcharts-point"></rect><rect x="336" y="133" width="31" height="12" fill="#cd9c00" opacity="1" class="highcharts-point"></rect></g><g class="highcharts-markers highcharts-series-7 highcharts-column-series" data-z-index="0.1" opacity="1" transform="translate(53,141) scale(1 1)" clip-path="none"></g><g class="highcharts-series highcharts-series-8 highcharts-column-series" data-z-index="0.1" opacity="1" transform="translate(53,141) scale(1 1)" clip-path="url(#highcharts-y6fvfqn-94-)"><rect x="20" y="135" width="31" height="18" fill="#fabd24" opacity="1" class="highcharts-point"></rect><rect x="83" y="135" width="31" height="18" fill="#fabd24" opacity="1" class="highcharts-point"></rect><rect x="146" y="140" width="31" height="17" fill="#fabd24" opacity="1" class="highcharts-point"></rect><rect x="209" y="142" width="31" height="18" fill="#fabd24" opacity="1" class="highcharts-point"></rect><rect x="273" y="144" width="31" height="19" fill="#fabd24" opacity="1" class="highcharts-point"></rect><rect x="336" y="145" width="31" height="22" fill="#fabd24" opacity="1" class="highcharts-point"></rect></g><g class="highcharts-markers highcharts-series-8 highcharts-column-series" data-z-index="0.1" opacity="1" transform="translate(53,141) scale(1 1)" clip-path="none"></g><g class="highcharts-series highcharts-series-9 highcharts-column-series" data-z-index="0.1" opacity="1" transform="translate(53,141) scale(1 1)" clip-path="url(#highcharts-y6fvfqn-94-)"><rect x="20" y="153" width="31" height="13" fill="#ffda80" opacity="1" class="highcharts-point"></rect><rect x="83" y="153" width="31" height="14" fill="#ffda80" opacity="1" class="highcharts-point"></rect><rect x="146" y="157" width="31" height="14" fill="#ffda80" opacity="1" class="highcharts-point"></rect><rect x="209" y="160" width="31" height="13" fill="#ffda80" opacity="1" class="highcharts-point"></rect><rect x="273" y="163" width="31" height="14" fill="#ffda80" opacity="1" class="highcharts-point"></rect><rect x="336" y="167" width="31" height="11" fill="#ffda80" opacity="1" class="highcharts-point"></rect></g><g class="highcharts-markers highcharts-series-9 highcharts-column-series" data-z-index="0.1" opacity="1" transform="translate(53,141) scale(1 1)" clip-path="none"></g><g class="highcharts-series highcharts-series-10 highcharts-column-series" data-z-index="0.1" opacity="1" transform="translate(53,141) scale(1 1)" clip-path="url(#highcharts-y6fvfqn-94-)"><rect x="20" y="166" width="31" height="29" fill="#007a2f" opacity="1" class="highcharts-point"></rect><rect x="83" y="167" width="31" height="27" fill="#007a2f" opacity="1" class="highcharts-point"></rect><rect x="146" y="171" width="31" height="24" fill="#007a2f" opacity="1" class="highcharts-point"></rect><rect x="209" y="173" width="31" height="23" fill="#007a2f" opacity="1" class="highcharts-point"></rect><rect x="273" y="177" width="31" height="20" fill="#007a2f" opacity="1" class="highcharts-point"></rect><rect x="336" y="178" width="31" height="20" fill="#007a2f" opacity="1" class="highcharts-point"></rect></g><g class="highcharts-markers highcharts-series-10 highcharts-column-series" data-z-index="0.1" opacity="1" transform="translate(53,141) scale(1 1)" clip-path="none"></g><g class="highcharts-series highcharts-series-11 highcharts-column-series" data-z-index="0.1" opacity="1" transform="translate(53,141) scale(1 1)" clip-path="url(#highcharts-y6fvfqn-94-)"><rect x="20" y="195" width="31" height="6" fill="#68ab2b" opacity="1" class="highcharts-point"></rect><rect x="83" y="194" width="31" height="7" fill="#68ab2b" opacity="1" class="highcharts-point"></rect><rect x="146" y="195" width="31" height="6" fill="#68ab2b" opacity="1" class="highcharts-point"></rect><rect x="209" y="196" width="31" height="5" fill="#68ab2b" opacity="1" class="highcharts-point"></rect><rect x="273" y="197" width="31" height="4" fill="#68ab2b" opacity="1" class="highcharts-point"></rect><rect x="336" y="198" width="31" height="3" fill="#68ab2b" opacity="1" class="highcharts-point"></rect></g><g class="highcharts-markers highcharts-series-11 highcharts-column-series" data-z-index="0.1" opacity="1" transform="translate(53,141) scale(1 1)" clip-path="none"></g><g class="highcharts-series highcharts-series-12 highcharts-line-series" data-z-index="0.1" opacity="1" transform="translate(53,141) scale(1 1)" clip-path="url(#highcharts-y6fvfqn-167-)"><path fill="none" d="M 34.803278688522 102.735 L 98.081967213113 101.07499999999999 L 161.3606557377 98.55666666666666 L 224.6393442623 96.60166666666666 L 287.91803278689 94.16833333333332 L 351.19672131148 93.16666666666666" class="highcharts-graph" data-z-index="1" stroke="#010101" stroke-width="3" stroke-linejoin="round" stroke-linecap="round"></path></g><g class="highcharts-markers highcharts-series-12 highcharts-line-series" data-z-index="0.1" opacity="1" transform="translate(53,141) scale(1 1)" clip-path="none"></g></g><text x="10" text-anchor="start" class="highcharts-title" data-z-index="4" style="color:#000000;font-size:14px;font-weight:bold;fill:#000000;" y="21"><tspan>Pflegetage nach Pflegestufen in Pflegeheimen und</tspan><tspan dy="17" x="10">Pflegestufen-Durchschnitt</tspan></text><text x="10" text-anchor="start" class="highcharts-subtitle" data-z-index="4" style="color:#000000;font-size:12px;font-weight:normal;fill:#000000;" y="57"><tspan>Basel-Stadt</tspan></text><text x="10" text-anchor="start" class="highcharts-caption" data-z-index="4" style="color:#666666;fill:#666666;" y="375"></text><g class="highcharts-legend" data-z-index="7" transform="translate(45,73)"><rect fill="none" class="highcharts-legend-box" rx="0" ry="0" x="0" y="0" width="381" height="56" visibility="visible"></rect><g data-z-index="1"><g><g class="highcharts-legend-item highcharts-column-series highcharts-color-undefined highcharts-series-11" data-z-index="1" transform="translate(8,3)"><text x="21" style="color:#333333;cursor:pointer;font-size:12px;font-weight:normal;white-space:nowrap;fill:#333333;" text-anchor="start" data-z-index="2" y="15"><tspan>Stufe 1</tspan></text><rect x="2" y="4" width="12" height="12" fill="#68ab2b" class="highcharts-point" data-z-index="3"></rect></g><g class="highcharts-legend-item highcharts-column-series highcharts-color-undefined highcharts-series-10" data-z-index="1" transform="translate(83,3)"><text x="21" y="15" style="color:#333333;cursor:pointer;font-size:12px;font-weight:normal;white-space:nowrap;fill:#333333;" text-anchor="start" data-z-index="2"><tspan>Stufe 2</tspan></text><rect x="2" y="4" width="12" height="12" fill="#007a2f" class="highcharts-point" data-z-index="3"></rect></g><g class="highcharts-legend-item highcharts-column-series highcharts-color-undefined highcharts-series-9" data-z-index="1" transform="translate(158,3)"><text x="21" y="15" style="color:#333333;cursor:pointer;font-size:12px;font-weight:normal;white-space:nowrap;fill:#333333;" text-anchor="start" data-z-index="2"><tspan>Stufe 3</tspan></text><rect x="2" y="4" width="12" height="12" fill="#ffda80" class="highcharts-point" data-z-index="3"></rect></g><g class="highcharts-legend-item highcharts-column-series highcharts-color-undefined highcharts-series-8" data-z-index="1" transform="translate(233,3)"><text x="21" y="15" style="color:#333333;cursor:pointer;font-size:12px;font-weight:normal;white-space:nowrap;fill:#333333;" text-anchor="start" data-z-index="2"><tspan>Stufe 4</tspan></text><rect x="2" y="4" width="12" height="12" fill="#fabd24" class="highcharts-point" data-z-index="3"></rect></g><g class="highcharts-legend-item highcharts-column-series highcharts-color-undefined highcharts-series-7" data-z-index="1" transform="translate(308,3)"><text x="21" y="15" style="color:#333333;cursor:pointer;font-size:12px;font-weight:normal;white-space:nowrap;fill:#333333;" text-anchor="start" data-z-index="2"><tspan>Stufe 5</tspan></text><rect x="2" y="4" width="12" height="12" fill="#cd9c00" class="highcharts-point" data-z-index="3"></rect></g><g class="highcharts-legend-item highcharts-column-series highcharts-color-undefined highcharts-series-6" data-z-index="1" transform="translate(8,18)"><text x="21" y="15" style="color:#333333;cursor:pointer;font-size:12px;font-weight:normal;white-space:nowrap;fill:#333333;" text-anchor="start" data-z-index="2"><tspan>Stufe 6</tspan></text><rect x="2" y="4" width="12" height="12" fill="#7f5f1a" class="highcharts-point" data-z-index="3"></rect></g><g class="highcharts-legend-item highcharts-column-series highcharts-color-undefined highcharts-series-5" data-z-index="1" transform="translate(83,18)"><text x="21" y="15" style="color:#333333;cursor:pointer;font-size:12px;font-weight:normal;white-space:nowrap;fill:#333333;" text-anchor="start" data-z-index="2"><tspan>Stufe 7</tspan></text><rect x="2" y="4" width="12" height="12" fill="#45381d" class="highcharts-point" data-z-index="3"></rect></g><g class="highcharts-legend-item highcharts-column-series highcharts-color-undefined highcharts-series-4" data-z-index="1" transform="translate(158,18)"><text x="21" y="15" style="color:#333333;cursor:pointer;font-size:12px;font-weight:normal;white-space:nowrap;fill:#333333;" text-anchor="start" data-z-index="2"><tspan>Stufe 8</tspan></text><rect x="2" y="4" width="12" height="12" fill="#e7cee2" class="highcharts-point" data-z-index="3"></rect></g><g class="highcharts-legend-item highcharts-column-series highcharts-color-undefined highcharts-series-3" data-z-index="1" transform="translate(233,18)"><text x="21" y="15" style="color:#333333;cursor:pointer;font-size:12px;font-weight:normal;white-space:nowrap;fill:#333333;" text-anchor="start" data-z-index="2"><tspan>Stufe 9</tspan></text><rect x="2" y="4" width="12" height="12" fill="#b375ab" class="highcharts-point" data-z-index="3"></rect></g><g class="highcharts-legend-item highcharts-column-series highcharts-color-undefined highcharts-series-2" data-z-index="1" transform="translate(308,18)"><text x="21" y="15" style="color:#333333;cursor:pointer;font-size:12px;font-weight:normal;white-space:nowrap;fill:#333333;" text-anchor="start" data-z-index="2"><tspan>Stufe 10</tspan></text><rect x="2" y="4" width="12" height="12" fill="#923f8d" class="highcharts-point" data-z-index="3"></rect></g><g class="highcharts-legend-item highcharts-column-series highcharts-color-undefined highcharts-series-1" data-z-index="1" transform="translate(8,33)"><text x="21" y="15" style="color:#333333;cursor:pointer;font-size:12px;font-weight:normal;white-space:nowrap;fill:#333333;" text-anchor="start" data-z-index="2"><tspan>Stufe 11</tspan></text><rect x="2" y="4" width="12" height="12" fill="#662673" class="highcharts-point" data-z-index="3"></rect></g><g class="highcharts-legend-item highcharts-column-series highcharts-color-undefined highcharts-series-0" data-z-index="1" transform="translate(83,33)"><text x="21" y="15" style="color:#333333;cursor:pointer;font-size:12px;font-weight:normal;white-space:nowrap;fill:#333333;" text-anchor="start" data-z-index="2"><tspan>Stufe 12</tspan></text><rect x="2" y="4" width="12" height="12" fill="#2e1435" class="highcharts-point" data-z-index="3"></rect></g><g class="highcharts-legend-item highcharts-line-series highcharts-color-undefined highcharts-series-12" data-z-index="1" transform="translate(158,33)"><path fill="none" d="M 0 11 L 16 11" class="highcharts-graph" stroke="#010101" stroke-width="3"></path><text x="21" y="15" style="color:#333333;cursor:pointer;font-size:12px;font-weight:normal;white-space:nowrap;fill:#333333;" text-anchor="start" data-z-index="2"><tspan>Durchschnittl. Pflegestufe (rechte Skala)</tspan></text></g></g></g></g><g class="highcharts-axis-labels highcharts-xaxis-labels" data-z-index="7"><text x="87.803278688522" style="color:#000000;cursor:default;font-size:11px;fill:#000000;" text-anchor="middle" transform="translate(0,0)" y="360" opacity="1">2017</text><text x="151.08196721311" style="color:#000000;cursor:default;font-size:11px;fill:#000000;" text-anchor="middle" transform="translate(0,0)" y="360" opacity="1">2018</text><text x="214.3606557377" style="color:#000000;cursor:default;font-size:11px;fill:#000000;" text-anchor="middle" transform="translate(0,0)" y="360" opacity="1">2019</text><text x="277.6393442623" style="color:#000000;cursor:default;font-size:11px;fill:#000000;" text-anchor="middle" transform="translate(0,0)" y="360" opacity="1">2020</text><text x="340.91803278689" style="color:#000000;cursor:default;font-size:11px;fill:#000000;" text-anchor="middle" transform="translate(0,0)" y="360" opacity="1">2021</text><text x="404.19672131148" style="color:#000000;cursor:default;font-size:11px;fill:#000000;" text-anchor="middle" transform="translate(0,0)" y="360" opacity="1">2022</text></g><g class="highcharts-axis-labels highcharts-yaxis-labels" data-z-index="7"><text x="38" style="color:black;cursor:default;font-size:11px;fill:black;" text-anchor="end" transform="translate(0,0)" y="345" opacity="1">0%</text><text x="38" style="color:black;cursor:default;font-size:11px;fill:black;" text-anchor="end" transform="translate(0,0)" y="295" opacity="1">25%</text><text x="38" style="color:black;cursor:default;font-size:11px;fill:black;" text-anchor="end" transform="translate(0,0)" y="245" opacity="1">50%</text><text x="38" style="color:black;cursor:default;font-size:11px;fill:black;" text-anchor="end" transform="translate(0,0)" y="195" opacity="1">75%</text><text x="38" style="color:black;cursor:default;font-size:11px;fill:black;" text-anchor="end" transform="translate(0,0)" y="145" opacity="1">100%</text></g><g class="highcharts-axis-labels highcharts-yaxis-labels" data-z-index="7"><text x="454" style="color:black;cursor:default;font-size:11px;fill:black;" text-anchor="start" transform="translate(0,0)" y="345" opacity="1">0.0</text><text x="454" style="color:black;cursor:default;font-size:11px;fill:black;" text-anchor="start" transform="translate(0,0)" y="295" opacity="1">3.0</text><text x="454" style="color:black;cursor:default;font-size:11px;fill:black;" text-anchor="start" transform="translate(0,0)" y="245" opacity="1">6.0</text><text x="454" style="color:black;cursor:default;font-size:11px;fill:black;" text-anchor="start" transform="translate(0,0)" y="195" opacity="1">9.0</text><text x="454" style="color:black;cursor:default;font-size:11px;fill:black;" text-anchor="start" transform="translate(0,0)" y="145" opacity="1">12.0</text></g><text x="10" class="highcharts-credits" text-anchor="start" data-z-index="8" style="cursor:default;color:#000000;font-size:10px;fill:#000000;" y="393"><tspan>Quelle: Gesundheitsdepartement Basel-Stadt;</tspan><tspan x="10" dy="13">Bundesamt für Statistik (BFS), Statistik der sozialmedizinischen Institutionen (SOMED).</tspan><tspan x="10" dy="13">Zuletzt geändert: 18.12.2023</tspan></text><g class="highcharts-control-points" data-z-index="99" clip-path="url(#highcharts-y6fvfqn-168-)"></g></svg>