<?xml version="1.0" standalone="no"?><!DOCTYPE svg PUBLIC "-//W3C//DTD SVG 1.1//EN" "http://www.w3.org/Graphics/SVG/1.1/DTD/svg11.dtd"><svg xmlns:xlink="http://www.w3.org/1999/xlink" version="1.1" class="highcharts-root" style="font-family:Arial;font-size:12px;" xmlns="http://www.w3.org/2000/svg" viewBox="0 0 485 415"><desc>Created with Highcharts 8.2.0</desc><defs><clipPath id="highcharts-rs3mbg2-75-"><rect x="0" y="0" width="438" height="244" fill="none"></rect></clipPath><clipPath id="highcharts-rs3mbg2-110-"><rect x="0" y="0" width="438" height="244" fill="none"></rect></clipPath><clipPath id="highcharts-rs3mbg2-145-"><rect x="37" y="109" width="438" height="244" fill="none"></rect></clipPath></defs><rect fill="#fbfbfb" class="highcharts-background" x="0" y="0" width="485" height="428" rx="0" ry="0"></rect><rect fill="none" class="highcharts-plot-background" x="37" y="109" width="438" height="244"></rect><g class="highcharts-pane-group" data-z-index="0"></g><g class="highcharts-grid highcharts-xaxis-grid" data-z-index="1"><path fill="none" data-z-index="1" class="highcharts-grid-line" d="M 59.5 109 L 59.5 353" opacity="1"></path><path fill="none" data-z-index="1" class="highcharts-grid-line" d="M 84.5 109 L 84.5 353" opacity="1"></path><path fill="none" data-z-index="1" class="highcharts-grid-line" d="M 110.5 109 L 110.5 353" opacity="1"></path><path fill="none" data-z-index="1" class="highcharts-grid-line" d="M 135.5 109 L 135.5 353" opacity="1"></path><path fill="none" data-z-index="1" class="highcharts-grid-line" d="M 160.5 109 L 160.5 353" opacity="1"></path><path fill="none" data-z-index="1" class="highcharts-grid-line" d="M 185.5 109 L 185.5 353" opacity="1"></path><path fill="none" data-z-index="1" class="highcharts-grid-line" d="M 211.5 109 L 211.5 353" opacity="1"></path><path fill="none" data-z-index="1" class="highcharts-grid-line" d="M 236.5 109 L 236.5 353" opacity="1"></path><path fill="none" data-z-index="1" class="highcharts-grid-line" d="M 261.5 109 L 261.5 353" opacity="1"></path><path fill="none" data-z-index="1" class="highcharts-grid-line" d="M 287.5 109 L 287.5 353" opacity="1"></path><path fill="none" data-z-index="1" class="highcharts-grid-line" d="M 312.5 109 L 312.5 353" opacity="1"></path><path fill="none" data-z-index="1" class="highcharts-grid-line" d="M 337.5 109 L 337.5 353" opacity="1"></path><path fill="none" data-z-index="1" class="highcharts-grid-line" d="M 362.5 109 L 362.5 353" opacity="1"></path><path fill="none" data-z-index="1" class="highcharts-grid-line" d="M 388.5 109 L 388.5 353" opacity="1"></path><path fill="none" data-z-index="1" class="highcharts-grid-line" d="M 413.5 109 L 413.5 353" opacity="1"></path><path fill="none" data-z-index="1" class="highcharts-grid-line" d="M 438.5 109 L 438.5 353" opacity="1"></path><path fill="none" data-z-index="1" class="highcharts-grid-line" d="M 464.5 109 L 464.5 353" opacity="1"></path></g><g class="highcharts-grid highcharts-yaxis-grid" data-z-index="1"><path fill="none" stroke="#B9CFD7" stroke-width="0.5" data-z-index="1" class="highcharts-grid-line" d="M 37 353.25 L 475 353.25" opacity="1"></path><path fill="none" stroke="#B9CFD7" stroke-width="0.5" data-z-index="1" class="highcharts-grid-line" d="M 37 304.25 L 475 304.25" opacity="1"></path><path fill="none" stroke="#B9CFD7" stroke-width="0.5" data-z-index="1" class="highcharts-grid-line" d="M 37 255.25 L 475 255.25" opacity="1"></path><path fill="none" stroke="#B9CFD7" stroke-width="0.5" data-z-index="1" class="highcharts-grid-line" d="M 37 207.25 L 475 207.25" opacity="1"></path><path fill="none" stroke="#B9CFD7" stroke-width="0.5" data-z-index="1" class="highcharts-grid-line" d="M 37 158.25 L 475 158.25" opacity="1"></path><path fill="none" stroke="#B9CFD7" stroke-width="0.5" data-z-index="1" class="highcharts-grid-line" d="M 37 108.75 L 475 108.75" opacity="1"></path></g><rect fill="none" class="highcharts-plot-border" data-z-index="1" x="37" y="109" width="438" height="244"></rect><g class="highcharts-axis highcharts-xaxis" data-z-index="2"><path fill="none" class="highcharts-axis-line" stroke="#B9CFD7" stroke-width="0.5" data-z-index="7" d="M 37 353.25 L 475 353.25"></path></g><g class="highcharts-axis highcharts-yaxis" data-z-index="2"><path fill="none" class="highcharts-axis-line" data-z-index="7" d="M 37 109 L 37 353"></path></g><g class="highcharts-series-group" data-z-index="3"><g class="highcharts-series highcharts-series-0 highcharts-column-series" data-z-index="0.1" opacity="1" transform="translate(37,109) scale(1 1)" clip-path="url(#highcharts-rs3mbg2-110-)"><rect x="7" y="30" width="7" height="83" fill="#68ab2b" opacity="1" class="highcharts-point"></rect><rect x="20" y="31" width="7" height="79" fill="#68ab2b" opacity="1" class="highcharts-point"></rect><rect x="33" y="52" width="7" height="71" fill="#68ab2b" opacity="1" class="highcharts-point"></rect><rect x="45" y="47" width="7" height="72" fill="#68ab2b" opacity="1" class="highcharts-point"></rect><rect x="58" y="50" width="7" height="71" fill="#68ab2b" opacity="1" class="highcharts-point"></rect><rect x="71" y="53" width="7" height="65" fill="#68ab2b" opacity="1" class="highcharts-point"></rect><rect x="83" y="52" width="7" height="63" fill="#68ab2b" opacity="1" class="highcharts-point"></rect><rect x="96" y="69" width="7" height="59" fill="#68ab2b" opacity="1" class="highcharts-point"></rect><rect x="109" y="79" width="7" height="61" fill="#68ab2b" opacity="1" class="highcharts-point"></rect><rect x="121" y="99" width="7" height="61" fill="#68ab2b" opacity="1" class="highcharts-point"></rect><rect x="134" y="82" width="7" height="58" fill="#68ab2b" opacity="1" class="highcharts-point"></rect><rect x="146" y="89" width="7" height="54" fill="#68ab2b" opacity="1" class="highcharts-point"></rect><rect x="159" y="101" width="7" height="53" fill="#68ab2b" opacity="1" class="highcharts-point"></rect><rect x="172" y="94" width="7" height="56" fill="#68ab2b" opacity="1" class="highcharts-point"></rect><rect x="184" y="101" width="7" height="52" fill="#68ab2b" opacity="1" class="highcharts-point"></rect><rect x="197" y="109" width="7" height="51" fill="#68ab2b" opacity="1" class="highcharts-point"></rect><rect x="210" y="119" width="7" height="41" fill="#68ab2b" opacity="1" class="highcharts-point"></rect><rect x="222" y="97" width="7" height="42" fill="#68ab2b" opacity="1" class="highcharts-point"></rect><rect x="235" y="103" width="7" height="41" fill="#68ab2b" opacity="1" class="highcharts-point"></rect><rect x="248" y="110" width="7" height="46" fill="#68ab2b" opacity="1" class="highcharts-point"></rect><rect x="260" y="91" width="7" height="51" fill="#68ab2b" opacity="1" class="highcharts-point"></rect><rect x="273" y="101" width="7" height="57" fill="#68ab2b" opacity="1" class="highcharts-point"></rect><rect x="285" y="98" width="7" height="53" fill="#68ab2b" opacity="1" class="highcharts-point"></rect><rect x="298" y="106" width="7" height="53" fill="#68ab2b" opacity="1" class="highcharts-point"></rect><rect x="311" y="99" width="7" height="50" fill="#68ab2b" opacity="1" class="highcharts-point"></rect><rect x="323" y="105" width="7" height="48" fill="#68ab2b" opacity="1" class="highcharts-point"></rect><rect x="336" y="67" width="7" height="82" fill="#68ab2b" opacity="1" class="highcharts-point"></rect><rect x="349" y="63" width="7" height="76" fill="#68ab2b" opacity="1" class="highcharts-point"></rect><rect x="361" y="60" width="7" height="77" fill="#68ab2b" opacity="1" class="highcharts-point"></rect><rect x="374" y="54" width="7" height="82" fill="#68ab2b" opacity="1" class="highcharts-point"></rect><rect x="387" y="60" width="7" height="82" fill="#68ab2b" opacity="1" class="highcharts-point"></rect><rect x="399" y="47" width="7" height="82" fill="#68ab2b" opacity="1" class="highcharts-point"></rect><rect x="412" y="60" width="7" height="74" fill="#68ab2b" opacity="1" class="highcharts-point"></rect><rect x="424" y="41" width="7" height="83" fill="#68ab2b" opacity="1" class="highcharts-point"></rect></g><g class="highcharts-markers highcharts-series-0 highcharts-column-series" data-z-index="0.1" opacity="1" transform="translate(37,109) scale(1 1)" clip-path="none"></g><g class="highcharts-series highcharts-series-1 highcharts-column-series" data-z-index="0.1" opacity="1" transform="translate(37,109) scale(1 1)" clip-path="url(#highcharts-rs3mbg2-110-)"><rect x="7" y="113" width="7" height="132" fill="#246370" opacity="1" class="highcharts-point"></rect><rect x="20" y="110" width="7" height="135" fill="#246370" opacity="1" class="highcharts-point"></rect><rect x="33" y="123" width="7" height="122" fill="#246370" opacity="1" class="highcharts-point"></rect><rect x="45" y="119" width="7" height="126" fill="#246370" opacity="1" class="highcharts-point"></rect><rect x="58" y="121" width="7" height="124" fill="#246370" opacity="1" class="highcharts-point"></rect><rect x="71" y="118" width="7" height="127" fill="#246370" opacity="1" class="highcharts-point"></rect><rect x="83" y="115" width="7" height="130" fill="#246370" opacity="1" class="highcharts-point"></rect><rect x="96" y="128" width="7" height="117" fill="#246370" opacity="1" class="highcharts-point"></rect><rect x="109" y="140" width="7" height="105" fill="#246370" opacity="1" class="highcharts-point"></rect><rect x="121" y="160" width="7" height="85" fill="#246370" opacity="1" class="highcharts-point"></rect><rect x="134" y="140" width="7" height="105" fill="#246370" opacity="1" class="highcharts-point"></rect><rect x="146" y="143" width="7" height="102" fill="#246370" opacity="1" class="highcharts-point"></rect><rect x="159" y="154" width="7" height="91" fill="#246370" opacity="1" class="highcharts-point"></rect><rect x="172" y="150" width="7" height="95" fill="#246370" opacity="1" class="highcharts-point"></rect><rect x="184" y="153" width="7" height="92" fill="#246370" opacity="1" class="highcharts-point"></rect><rect x="197" y="160" width="7" height="85" fill="#246370" opacity="1" class="highcharts-point"></rect><rect x="210" y="160" width="7" height="85" fill="#246370" opacity="1" class="highcharts-point"></rect><rect x="222" y="139" width="7" height="106" fill="#246370" opacity="1" class="highcharts-point"></rect><rect x="235" y="144" width="7" height="101" fill="#246370" opacity="1" class="highcharts-point"></rect><rect x="248" y="156" width="7" height="89" fill="#246370" opacity="1" class="highcharts-point"></rect><rect x="260" y="142" width="7" height="103" fill="#246370" opacity="1" class="highcharts-point"></rect><rect x="273" y="158" width="7" height="87" fill="#246370" opacity="1" class="highcharts-point"></rect><rect x="285" y="151" width="7" height="94" fill="#246370" opacity="1" class="highcharts-point"></rect><rect x="298" y="159" width="7" height="86" fill="#246370" opacity="1" class="highcharts-point"></rect><rect x="311" y="149" width="7" height="96" fill="#246370" opacity="1" class="highcharts-point"></rect><rect x="323" y="153" width="7" height="92" fill="#246370" opacity="1" class="highcharts-point"></rect><rect x="336" y="149" width="7" height="96" fill="#246370" opacity="1" class="highcharts-point"></rect><rect x="349" y="139" width="7" height="106" fill="#246370" opacity="1" class="highcharts-point"></rect><rect x="361" y="137" width="7" height="108" fill="#246370" opacity="1" class="highcharts-point"></rect><rect x="374" y="136" width="7" height="109" fill="#246370" opacity="1" class="highcharts-point"></rect><rect x="387" y="142" width="7" height="103" fill="#246370" opacity="1" class="highcharts-point"></rect><rect x="399" y="129" width="7" height="116" fill="#246370" opacity="1" class="highcharts-point"></rect><rect x="412" y="134" width="7" height="111" fill="#246370" opacity="1" class="highcharts-point"></rect><rect x="424" y="124" width="7" height="121" fill="#246370" opacity="1" class="highcharts-point"></rect></g><g class="highcharts-markers highcharts-series-1 highcharts-column-series" data-z-index="0.1" opacity="1" transform="translate(37,109) scale(1 1)" clip-path="none"></g></g><text x="10" text-anchor="start" class="highcharts-title" data-z-index="4" style="color:#000000;font-size:14px;font-weight:bold;fill:#000000;" y="21"><tspan>Wasserverbrauch Gewerbe und Industrie</tspan></text><text x="10" text-anchor="start" class="highcharts-subtitle" data-z-index="4" style="color:#000000;font-size:12px;font-weight:normal;fill:#000000;" y="40"><tspan>in Mio. m3, Basel-Stadt</tspan></text><text x="10" text-anchor="start" class="highcharts-caption" data-z-index="4" style="color:#666666;fill:#666666;" y="400"></text><g class="highcharts-legend" data-z-index="7" transform="translate(29,56)"><rect fill="none" class="highcharts-legend-box" rx="0" ry="0" x="0" y="0" width="231" height="41" visibility="visible"></rect><g data-z-index="1"><g><g class="highcharts-legend-item highcharts-column-series highcharts-color-undefined highcharts-series-0" data-z-index="1" transform="translate(8,3)"><text x="21" style="color:#333333;cursor:pointer;font-size:12px;font-weight:normal;fill:#333333;" text-anchor="start" data-z-index="2" y="15"><tspan>Trinkwasserbezug öffentliches Netz</tspan></text><rect x="2" y="4" width="12" height="12" fill="#68ab2b" class="highcharts-point" data-z-index="3"></rect></g><g class="highcharts-legend-item highcharts-column-series highcharts-color-undefined highcharts-series-1" data-z-index="1" transform="translate(8,18)"><text x="21" y="15" style="color:#333333;cursor:pointer;font-size:12px;font-weight:normal;fill:#333333;" text-anchor="start" data-z-index="2"><tspan>Private Grundwasserförderungen</tspan></text><rect x="2" y="4" width="12" height="12" fill="#246370" class="highcharts-point" data-z-index="3"></rect></g></g></g></g><g class="highcharts-axis-labels highcharts-xaxis-labels" data-z-index="7"><text x="62.71851828616167" style="color:#000000;cursor:default;font-size:11px;fill:#000000;" text-anchor="end" transform="translate(0,0) rotate(-45 62.71851828616167 369)" y="369" opacity="1">1990</text><text x="87.99260945754067" style="color:#000000;cursor:default;font-size:11px;fill:#000000;" text-anchor="end" transform="translate(0,0) rotate(-45 87.99260945754067 369)" y="369" opacity="1">1992</text><text x="113.26670062892067" style="color:#000000;cursor:default;font-size:11px;fill:#000000;" text-anchor="end" transform="translate(0,0) rotate(-45 113.26670062892067 369)" y="369" opacity="1">1994</text><text x="138.5407918003007" style="color:#000000;cursor:default;font-size:11px;fill:#000000;" text-anchor="end" transform="translate(0,0) rotate(-45 138.5407918003007 369)" y="369" opacity="1">1996</text><text x="163.81488297168067" style="color:#000000;cursor:default;font-size:11px;fill:#000000;" text-anchor="end" transform="translate(0,0) rotate(-45 163.81488297168067 369)" y="369" opacity="1">1998</text><text x="189.08897414306068" style="color:#000000;cursor:default;font-size:11px;fill:#000000;" text-anchor="end" transform="translate(0,0) rotate(-45 189.08897414306068 369)" y="369" opacity="1">2000</text><text x="214.3630653144407" style="color:#000000;cursor:default;font-size:11px;fill:#000000;" text-anchor="end" transform="translate(0,0) rotate(-45 214.3630653144407 369)" y="369" opacity="1">2002</text><text x="239.6371564858207" style="color:#000000;cursor:default;font-size:11px;fill:#000000;" text-anchor="end" transform="translate(0,0) rotate(-45 239.6371564858207 369)" y="369" opacity="1">2004</text><text x="264.91124765719064" style="color:#000000;cursor:default;font-size:11px;fill:#000000;" text-anchor="end" transform="translate(0,0) rotate(-45 264.91124765719064 369)" y="369" opacity="1">2006</text><text x="290.18533882857065" style="color:#000000;cursor:default;font-size:11px;fill:#000000;" text-anchor="end" transform="translate(0,0) rotate(-45 290.18533882857065 369)" y="369" opacity="1">2008</text><text x="315.45942999995066" style="color:#000000;cursor:default;font-size:11px;fill:#000000;" text-anchor="end" transform="translate(0,0) rotate(-45 315.45942999995066 369)" y="369" opacity="1">2010</text><text x="340.73352117133066" style="color:#000000;cursor:default;font-size:11px;fill:#000000;" text-anchor="end" transform="translate(0,0) rotate(-45 340.73352117133066 369)" y="369" opacity="1">2012</text><text x="366.0076123427107" style="color:#000000;cursor:default;font-size:11px;fill:#000000;" text-anchor="end" transform="translate(0,0) rotate(-45 366.0076123427107 369)" y="369" opacity="1">2014</text><text x="391.2817035140907" style="color:#000000;cursor:default;font-size:11px;fill:#000000;" text-anchor="end" transform="translate(0,0) rotate(-45 391.2817035140907 369)" y="369" opacity="1">2016</text><text x="416.55579468547063" style="color:#000000;cursor:default;font-size:11px;fill:#000000;" text-anchor="end" transform="translate(0,0) rotate(-45 416.55579468547063 369)" y="369" opacity="1">2018</text><text x="441.82988585685064" style="color:#000000;cursor:default;font-size:11px;fill:#000000;" text-anchor="end" transform="translate(0,0) rotate(-45 441.82988585685064 369)" y="369" opacity="1">2020</text><text x="467.10397702823064" style="color:#000000;cursor:default;font-size:11px;fill:#000000;" text-anchor="end" transform="translate(0,0) rotate(-45 467.10397702823064 369)" y="369" opacity="1">2022</text></g><g class="highcharts-axis-labels highcharts-yaxis-labels" data-z-index="7"><text x="22" style="color:#000000;cursor:default;font-size:11px;fill:#000000;" text-anchor="end" transform="translate(0,0)" y="357" opacity="1">0</text><text x="22" style="color:#000000;cursor:default;font-size:11px;fill:#000000;" text-anchor="end" transform="translate(0,0)" y="308" opacity="1">5</text><text x="22" style="color:#000000;cursor:default;font-size:11px;fill:#000000;" text-anchor="end" transform="translate(0,0)" y="259" opacity="1">10</text><text x="22" style="color:#000000;cursor:default;font-size:11px;fill:#000000;" text-anchor="end" transform="translate(0,0)" y="211" opacity="1">15</text><text x="22" style="color:#000000;cursor:default;font-size:11px;fill:#000000;" text-anchor="end" transform="translate(0,0)" y="162" opacity="1">20</text><text x="22" style="color:#000000;cursor:default;font-size:11px;fill:#000000;" text-anchor="end" transform="translate(0,0)" y="113" opacity="1">25</text></g><text x="10" class="highcharts-credits" text-anchor="start" data-z-index="8" style="cursor:default;color:#000000;font-size:10px;fill:#000000;" y="403"><tspan>Quelle: Amt für Umwelt und Energie Basel-Stadt; Industrielle Werke Basel-Stadt (IWB).</tspan><tspan x="10" dy="13">Zuletzt geändert: 26.3.2024</tspan></text><g class="highcharts-control-points" data-z-index="99" clip-path="url(#highcharts-rs3mbg2-145-)"></g></svg>