<svg version="1.1" class="highcharts-root" style="font-family: Inter, &quot;Helvetica Neue&quot;, Helvetica, Arial, sans-serif; font-size: 1rem;" xmlns="http://www.w3.org/2000/svg" width="600" height="400" viewBox="0 0 600 400" role="img" aria-label="Wohnbevölkerung nach Alter und Geschlecht"><desc>Created with Highcharts 12.5.0</desc><defs><filter id="highcharts-drop-shadow-0"><feDropShadow dx="1" dy="1" flood-color="#000000" flood-opacity="0.75" stdDeviation="2.5"></feDropShadow></filter><clipPath id="highcharts-lhgqnro-27-"><rect x="0" y="0" width="218" height="516" fill="none"></rect></clipPath><filter id="highcharts-drop-shadow-0-offsetx--1-offsety--1"><feDropShadow dx="-1" dy="-1" flood-color="#000000" flood-opacity="0.75" stdDeviation="2.5"></feDropShadow></filter></defs><rect fill="#ffffff" class="highcharts-background" filter="none" x="0" y="0" width="600" height="400" rx="0" ry="0"></rect><rect fill="none" class="highcharts-plot-background" x="68" y="112" width="517" height="218" filter="none"></rect><g class="highcharts-pane-group" data-z-index="0"></g><g class="highcharts-grid highcharts-yaxis-grid" data-z-index="1"><path fill="none" stroke="#e6e6e6" stroke-width="1" stroke-dasharray="none" data-z-index="1" class="highcharts-grid-line" d="M 68.5 112 L 68.5 330" opacity="1"></path><path fill="none" stroke="#e6e6e6" stroke-width="1" stroke-dasharray="none" data-z-index="1" class="highcharts-grid-line" d="M 132.5 112 L 132.5 330" opacity="1"></path><path fill="none" stroke="#e6e6e6" stroke-width="1" stroke-dasharray="none" data-z-index="1" class="highcharts-grid-line" d="M 197.5 112 L 197.5 330" opacity="1"></path><path fill="none" stroke="#e6e6e6" stroke-width="1" stroke-dasharray="none" data-z-index="1" class="highcharts-grid-line" d="M 261.5 112 L 261.5 330" opacity="1"></path><path fill="none" stroke="#e6e6e6" stroke-width="1" stroke-dasharray="none" data-z-index="1" class="highcharts-grid-line" d="M 326.5 112 L 326.5 330" opacity="1"></path><path fill="none" stroke="#e6e6e6" stroke-width="1" stroke-dasharray="none" data-z-index="1" class="highcharts-grid-line" d="M 391.5 112 L 391.5 330" opacity="1"></path><path fill="none" stroke="#e6e6e6" stroke-width="1" stroke-dasharray="none" data-z-index="1" class="highcharts-grid-line" d="M 455.5 112 L 455.5 330" opacity="1"></path><path fill="none" stroke="#e6e6e6" stroke-width="1" stroke-dasharray="none" data-z-index="1" class="highcharts-grid-line" d="M 520.5 112 L 520.5 330" opacity="1"></path><path fill="none" stroke="#e6e6e6" stroke-width="1" stroke-dasharray="none" data-z-index="1" class="highcharts-grid-line" d="M 585.5 112 L 585.5 330" opacity="1"></path></g><g class="highcharts-grid highcharts-xaxis-grid" data-z-index="1"><path fill="none" stroke="#e6e6e6" stroke-width="0" stroke-dasharray="none" data-z-index="1" class="highcharts-grid-line" d="M 68 319.5 L 585 319.5" opacity="1"></path><path fill="none" stroke="#e6e6e6" stroke-width="0" stroke-dasharray="none" data-z-index="1" class="highcharts-grid-line" d="M 68 308.5 L 585 308.5" opacity="1"></path><path fill="none" stroke="#e6e6e6" stroke-width="0" stroke-dasharray="none" data-z-index="1" class="highcharts-grid-line" d="M 68 297.5 L 585 297.5" opacity="1"></path><path fill="none" stroke="#e6e6e6" stroke-width="0" stroke-dasharray="none" data-z-index="1" class="highcharts-grid-line" d="M 68 286.5 L 585 286.5" opacity="1"></path><path fill="none" stroke="#e6e6e6" stroke-width="0" stroke-dasharray="none" data-z-index="1" class="highcharts-grid-line" d="M 68 275.5 L 585 275.5" opacity="1"></path><path fill="none" stroke="#e6e6e6" stroke-width="0" stroke-dasharray="none" data-z-index="1" class="highcharts-grid-line" d="M 68 264.5 L 585 264.5" opacity="1"></path><path fill="none" stroke="#e6e6e6" stroke-width="0" stroke-dasharray="none" data-z-index="1" class="highcharts-grid-line" d="M 68 253.5 L 585 253.5" opacity="1"></path><path fill="none" stroke="#e6e6e6" stroke-width="0" stroke-dasharray="none" data-z-index="1" class="highcharts-grid-line" d="M 68 242.5 L 585 242.5" opacity="1"></path><path fill="none" stroke="#e6e6e6" stroke-width="0" stroke-dasharray="none" data-z-index="1" class="highcharts-grid-line" d="M 68 231.5 L 585 231.5" opacity="1"></path><path fill="none" stroke="#e6e6e6" stroke-width="0" stroke-dasharray="none" data-z-index="1" class="highcharts-grid-line" d="M 68 221.5 L 585 221.5" opacity="1"></path><path fill="none" stroke="#e6e6e6" stroke-width="0" stroke-dasharray="none" data-z-index="1" class="highcharts-grid-line" d="M 68 210.5 L 585 210.5" opacity="1"></path><path fill="none" stroke="#e6e6e6" stroke-width="0" stroke-dasharray="none" data-z-index="1" class="highcharts-grid-line" d="M 68 199.5 L 585 199.5" opacity="1"></path><path fill="none" stroke="#e6e6e6" stroke-width="0" stroke-dasharray="none" data-z-index="1" class="highcharts-grid-line" d="M 68 188.5 L 585 188.5" opacity="1"></path><path fill="none" stroke="#e6e6e6" stroke-width="0" stroke-dasharray="none" data-z-index="1" class="highcharts-grid-line" d="M 68 177.5 L 585 177.5" opacity="1"></path><path fill="none" stroke="#e6e6e6" stroke-width="0" stroke-dasharray="none" data-z-index="1" class="highcharts-grid-line" d="M 68 166.5 L 585 166.5" opacity="1"></path><path fill="none" stroke="#e6e6e6" stroke-width="0" stroke-dasharray="none" data-z-index="1" class="highcharts-grid-line" d="M 68 155.5 L 585 155.5" opacity="1"></path><path fill="none" stroke="#e6e6e6" stroke-width="0" stroke-dasharray="none" data-z-index="1" class="highcharts-grid-line" d="M 68 144.5 L 585 144.5" opacity="1"></path><path fill="none" stroke="#e6e6e6" stroke-width="0" stroke-dasharray="none" data-z-index="1" class="highcharts-grid-line" d="M 68 133.5 L 585 133.5" opacity="1"></path><path fill="none" stroke="#e6e6e6" stroke-width="0" stroke-dasharray="none" data-z-index="1" class="highcharts-grid-line" d="M 68 122.5 L 585 122.5" opacity="1"></path><path fill="none" stroke="#e6e6e6" stroke-width="0" stroke-dasharray="none" data-z-index="1" class="highcharts-grid-line" d="M 68 112.5 L 585 112.5" opacity="1"></path><path fill="none" stroke="#e6e6e6" stroke-width="0" stroke-dasharray="none" data-z-index="1" class="highcharts-grid-line" d="M 68 330.5 L 585 330.5" opacity="1"></path></g><rect fill="none" class="highcharts-plot-border" data-z-index="1" stroke="#cccccc" stroke-width="0" x="68" y="112" width="517" height="218"></rect><g class="highcharts-axis highcharts-yaxis" data-z-index="2"><path fill="none" class="highcharts-axis-line" stroke="#333333" stroke-width="0" data-z-index="7" d="M 68 330 L 585 330"></path></g><g class="highcharts-axis highcharts-xaxis" data-z-index="2"><path fill="none" class="highcharts-axis-line" stroke="#333333" stroke-width="1" data-z-index="7" d="M 68.5 112 L 68.5 330"></path></g><g class="highcharts-series-group" data-z-index="3" filter="none"><g class="highcharts-series highcharts-series-0 highcharts-bar-series highcharts-tracker" data-z-index="0.1" opacity="1" transform="translate(68,112) rotate(90 149.5 367.5) scale(-1 1)" clip-path="url(#highcharts-lhgqnro-27-)"><path fill="#008ac3" d="M 0 517 L 11 517 A 0 0 0 0 1 11 517 L 11 546 A 3 3 0 0 1 8 549 L 3 549 A 3 3 0 0 1 0 546 L 0 517 A 0 0 0 0 1 0 517 Z" stroke="#ffffff" stroke-width="0" opacity="1" filter="none" class="highcharts-point highcharts-negative"></path><path fill="#008ac3" d="M 11 517 L 22 517 A 0 0 0 0 1 22 517 L 22 546 A 3 3 0 0 1 19 549 L 14 549 A 3 3 0 0 1 11 546 L 11 517 A 0 0 0 0 1 11 517 Z" stroke="#ffffff" stroke-width="0" opacity="1" filter="none" class="highcharts-point highcharts-negative"></path><path fill="#008ac3" d="M 22 517 L 33 517 A 0 0 0 0 1 33 517 L 33 552 A 3 3 0 0 1 30 555 L 25 555 A 3 3 0 0 1 22 552 L 22 517 A 0 0 0 0 1 22 517 Z" stroke="#ffffff" stroke-width="0" opacity="1" filter="none" class="highcharts-point highcharts-negative"></path><path fill="#008ac3" d="M 33 517 L 44 517 A 0 0 0 0 1 44 517 L 44 543 A 3 3 0 0 1 41 546 L 36 546 A 3 3 0 0 1 33 543 L 33 517 A 0 0 0 0 1 33 517 Z" stroke="#ffffff" stroke-width="0" opacity="1" filter="none" class="highcharts-point highcharts-negative"></path><path fill="#008ac3" d="M 44 517 L 54 517 A 0 0 0 0 1 54 517 L 54 539 A 3 3 0 0 1 51 542 L 47 542 A 3 3 0 0 1 44 539 L 44 517 A 0 0 0 0 1 44 517 Z" stroke="#ffffff" stroke-width="0" opacity="1" filter="none" class="highcharts-point highcharts-negative"></path><path fill="#008ac3" d="M 55 517 L 65 517 A 0 0 0 0 1 65 517 L 65 548 A 3 3 0 0 1 62 551 L 58 551 A 3 3 0 0 1 55 548 L 55 517 A 0 0 0 0 1 55 517 Z" stroke="#ffffff" stroke-width="0" opacity="1" filter="none" class="highcharts-point highcharts-negative"></path><path fill="#008ac3" d="M 65 517 L 76 517 A 0 0 0 0 1 76 517 L 76 550 A 3 3 0 0 1 73 553 L 68 553 A 3 3 0 0 1 65 550 L 65 517 A 0 0 0 0 1 65 517 Z" stroke="#ffffff" stroke-width="0" opacity="1" filter="none" class="highcharts-point highcharts-negative"></path><path fill="#008ac3" d="M 76 517 L 87 517 A 0 0 0 0 1 87 517 L 87 547 A 3 3 0 0 1 84 550 L 79 550 A 3 3 0 0 1 76 547 L 76 517 A 0 0 0 0 1 76 517 Z" stroke="#ffffff" stroke-width="0" opacity="1" filter="none" class="highcharts-point highcharts-negative"></path><path fill="#008ac3" d="M 87 517 L 98 517 A 0 0 0 0 1 98 517 L 98 553 A 3 3 0 0 1 95 556 L 90 556 A 3 3 0 0 1 87 553 L 87 517 A 0 0 0 0 1 87 517 Z" stroke="#ffffff" stroke-width="0" opacity="1" filter="none" class="highcharts-point highcharts-negative"></path><path fill="#008ac3" d="M 98 517 L 109 517 A 0 0 0 0 1 109 517 L 109 550 A 3 3 0 0 1 106 553 L 101 553 A 3 3 0 0 1 98 550 L 98 517 A 0 0 0 0 1 98 517 Z" stroke="#ffffff" stroke-width="0" opacity="1" filter="none" class="highcharts-point highcharts-negative"></path><path fill="#008ac3" d="M 109 517 L 120 517 A 0 0 0 0 1 120 517 L 120 544 A 3 3 0 0 1 117 547 L 112 547 A 3 3 0 0 1 109 544 L 109 517 A 0 0 0 0 1 109 517 Z" stroke="#ffffff" stroke-width="0" opacity="1" filter="none" class="highcharts-point highcharts-negative"></path><path fill="#008ac3" d="M 120 517 L 131 517 A 0 0 0 0 1 131 517 L 131 542 A 3 3 0 0 1 128 545 L 123 545 A 3 3 0 0 1 120 542 L 120 517 A 0 0 0 0 1 120 517 Z" stroke="#ffffff" stroke-width="0" opacity="1" filter="none" class="highcharts-point highcharts-negative"></path><path fill="#008ac3" d="M 131 517 L 142 517 A 0 0 0 0 1 142 517 L 142 542 A 3 3 0 0 1 139 545 L 134 545 A 3 3 0 0 1 131 542 L 131 517 A 0 0 0 0 1 131 517 Z" stroke="#ffffff" stroke-width="0" opacity="1" filter="none" class="highcharts-point highcharts-negative"></path><path fill="#008ac3" d="M 142 517 L 153 517 A 0 0 0 0 1 153 517 L 153 539 A 3 3 0 0 1 150 542 L 145 542 A 3 3 0 0 1 142 539 L 142 517 A 0 0 0 0 1 142 517 Z" stroke="#ffffff" stroke-width="0" opacity="1" filter="none" class="highcharts-point highcharts-negative"></path><path fill="#008ac3" d="M 153 517 L 164 517 A 0 0 0 0 1 164 517 L 164 537 A 3 3 0 0 1 161 540 L 156 540 A 3 3 0 0 1 153 537 L 153 517 A 0 0 0 0 1 153 517 Z" stroke="#ffffff" stroke-width="0" opacity="1" filter="none" class="highcharts-point highcharts-negative"></path><path fill="#008ac3" d="M 164 517 L 174 517 A 0 0 0 0 1 174 517 L 174 532 A 3 3 0 0 1 171 535 L 167 535 A 3 3 0 0 1 164 532 L 164 517 A 0 0 0 0 1 164 517 Z" stroke="#ffffff" stroke-width="0" opacity="1" filter="none" class="highcharts-point highcharts-negative"></path><path fill="#008ac3" d="M 174 517 L 185 517 A 0 0 0 0 1 185 517 L 185 532 A 3 3 0 0 1 182 535 L 177 535 A 3 3 0 0 1 174 532 L 174 517 A 0 0 0 0 1 174 517 Z" stroke="#ffffff" stroke-width="0" opacity="1" filter="none" class="highcharts-point highcharts-negative"></path><path fill="#008ac3" d="M 185 517 L 196 517 A 0 0 0 0 1 196 517 L 196 524 A 3 3 0 0 1 193 527 L 188 527 A 3 3 0 0 1 185 524 L 185 517 A 0 0 0 0 1 185 517 Z" stroke="#ffffff" stroke-width="0" opacity="1" filter="none" class="highcharts-point highcharts-negative"></path><path fill="#008ac3" d="M 196 517 L 207 517 A 0 0 0 0 1 207 517 L 207 521 A 3 3 0 0 1 204 524 L 199 524 A 3 3 0 0 1 196 521 L 196 517 A 0 0 0 0 1 196 517 Z" stroke="#ffffff" stroke-width="0" opacity="1" filter="none" class="highcharts-point highcharts-negative"></path><path fill="#008ac3" d="M 217.82842712474618 517 L 217.82842712474618 517 A 0 0 0 0 1 217.82842712474618 517 L 217.82842712474618 517 A 3 3 0 0 1 215 519 L 210 519 A 3 3 0 0 1 207.17157287525382 517 L 207.17157287525382 517 A 0 0 0 0 1 217.82842712474618 517 Z" stroke="#ffffff" stroke-width="0" opacity="1" filter="none" class="highcharts-point highcharts-negative"></path></g><g class="highcharts-markers highcharts-series-0 highcharts-bar-series" data-z-index="0.1" opacity="1" transform="translate(68,112) scale(1 1)" clip-path="none"></g><g class="highcharts-series highcharts-series-1 highcharts-bar-series highcharts-tracker" data-z-index="0.1" opacity="1" transform="translate(68,112) rotate(90 149.5 367.5) scale(-1 1)" clip-path="url(#highcharts-lhgqnro-27-)"><path fill="#b00000" d="M 3 492 L 8 492 A 3 3 0 0 1 11 495 L 11 517 A 0 0 0 0 1 11 517 L 0 517 A 0 0 0 0 1 0 517 L 0 495 A 3 3 0 0 1 3 492 Z" stroke="#ffffff" stroke-width="0" opacity="1" filter="none" class="highcharts-point"></path><path fill="#b00000" d="M 14 483 L 19 483 A 3 3 0 0 1 22 486 L 22 517 A 0 0 0 0 1 22 517 L 11 517 A 0 0 0 0 1 11 517 L 11 486 A 3 3 0 0 1 14 483 Z" stroke="#ffffff" stroke-width="0" opacity="1" filter="none" class="highcharts-point"></path><path fill="#b00000" d="M 25 490 L 30 490 A 3 3 0 0 1 33 493 L 33 517 A 0 0 0 0 1 33 517 L 22 517 A 0 0 0 0 1 22 517 L 22 493 A 3 3 0 0 1 25 490 Z" stroke="#ffffff" stroke-width="0" opacity="1" filter="none" class="highcharts-point"></path><path fill="#b00000" d="M 36 483 L 41 483 A 3 3 0 0 1 44 486 L 44 517 A 0 0 0 0 1 44 517 L 33 517 A 0 0 0 0 1 33 517 L 33 486 A 3 3 0 0 1 36 483 Z" stroke="#ffffff" stroke-width="0" opacity="1" filter="none" class="highcharts-point"></path><path fill="#b00000" d="M 47 480 L 51 480 A 3 3 0 0 1 54 483 L 54 517 A 0 0 0 0 1 54 517 L 44 517 A 0 0 0 0 1 44 517 L 44 483 A 3 3 0 0 1 47 480 Z" stroke="#ffffff" stroke-width="0" opacity="1" filter="none" class="highcharts-point"></path><path fill="#b00000" d="M 58 482 L 62 482 A 3 3 0 0 1 65 485 L 65 517 A 0 0 0 0 1 65 517 L 55 517 A 0 0 0 0 1 55 517 L 55 485 A 3 3 0 0 1 58 482 Z" stroke="#ffffff" stroke-width="0" opacity="1" filter="none" class="highcharts-point"></path><path fill="#b00000" d="M 68 477 L 73 477 A 3 3 0 0 1 76 480 L 76 517 A 0 0 0 0 1 76 517 L 65 517 A 0 0 0 0 1 65 517 L 65 480 A 3 3 0 0 1 68 477 Z" stroke="#ffffff" stroke-width="0" opacity="1" filter="none" class="highcharts-point"></path><path fill="#b00000" d="M 79 481 L 84 481 A 3 3 0 0 1 87 484 L 87 517 A 0 0 0 0 1 87 517 L 76 517 A 0 0 0 0 1 76 517 L 76 484 A 3 3 0 0 1 79 481 Z" stroke="#ffffff" stroke-width="0" opacity="1" filter="none" class="highcharts-point"></path><path fill="#b00000" d="M 90 475 L 95 475 A 3 3 0 0 1 98 478 L 98 517 A 0 0 0 0 1 98 517 L 87 517 A 0 0 0 0 1 87 517 L 87 478 A 3 3 0 0 1 90 475 Z" stroke="#ffffff" stroke-width="0" opacity="1" filter="none" class="highcharts-point"></path><path fill="#b00000" d="M 101 483 L 106 483 A 3 3 0 0 1 109 486 L 109 517 A 0 0 0 0 1 109 517 L 98 517 A 0 0 0 0 1 98 517 L 98 486 A 3 3 0 0 1 101 483 Z" stroke="#ffffff" stroke-width="0" opacity="1" filter="none" class="highcharts-point"></path><path fill="#b00000" d="M 112 484 L 117 484 A 3 3 0 0 1 120 487 L 120 517 A 0 0 0 0 1 120 517 L 109 517 A 0 0 0 0 1 109 517 L 109 487 A 3 3 0 0 1 112 484 Z" stroke="#ffffff" stroke-width="0" opacity="1" filter="none" class="highcharts-point"></path><path fill="#b00000" d="M 123 484 L 128 484 A 3 3 0 0 1 131 487 L 131 517 A 0 0 0 0 1 131 517 L 120 517 A 0 0 0 0 1 120 517 L 120 487 A 3 3 0 0 1 123 484 Z" stroke="#ffffff" stroke-width="0" opacity="1" filter="none" class="highcharts-point"></path><path fill="#b00000" d="M 134 481 L 139 481 A 3 3 0 0 1 142 484 L 142 517 A 0 0 0 0 1 142 517 L 131 517 A 0 0 0 0 1 131 517 L 131 484 A 3 3 0 0 1 134 481 Z" stroke="#ffffff" stroke-width="0" opacity="1" filter="none" class="highcharts-point"></path><path fill="#b00000" d="M 145 485 L 150 485 A 3 3 0 0 1 153 488 L 153 517 A 0 0 0 0 1 153 517 L 142 517 A 0 0 0 0 1 142 517 L 142 488 A 3 3 0 0 1 145 485 Z" stroke="#ffffff" stroke-width="0" opacity="1" filter="none" class="highcharts-point"></path><path fill="#b00000" d="M 156 494 L 161 494 A 3 3 0 0 1 164 497 L 164 517 A 0 0 0 0 1 164 517 L 153 517 A 0 0 0 0 1 153 517 L 153 497 A 3 3 0 0 1 156 494 Z" stroke="#ffffff" stroke-width="0" opacity="1" filter="none" class="highcharts-point"></path><path fill="#b00000" d="M 167 492 L 171 492 A 3 3 0 0 1 174 495 L 174 517 A 0 0 0 0 1 174 517 L 164 517 A 0 0 0 0 1 164 517 L 164 495 A 3 3 0 0 1 167 492 Z" stroke="#ffffff" stroke-width="0" opacity="1" filter="none" class="highcharts-point"></path><path fill="#b00000" d="M 177 489 L 182 489 A 3 3 0 0 1 185 492 L 185 517 A 0 0 0 0 1 185 517 L 174 517 A 0 0 0 0 1 174 517 L 174 492 A 3 3 0 0 1 177 489 Z" stroke="#ffffff" stroke-width="0" opacity="1" filter="none" class="highcharts-point"></path><path fill="#b00000" d="M 188 496 L 193 496 A 3 3 0 0 1 196 499 L 196 517 A 0 0 0 0 1 196 517 L 185 517 A 0 0 0 0 1 185 517 L 185 499 A 3 3 0 0 1 188 496 Z" stroke="#ffffff" stroke-width="0" opacity="1" filter="none" class="highcharts-point"></path><path fill="#b00000" d="M 199 497 L 204 497 A 3 3 0 0 1 207 500 L 207 517 A 0 0 0 0 1 207 517 L 196 517 A 0 0 0 0 1 196 517 L 196 500 A 3 3 0 0 1 199 497 Z" stroke="#ffffff" stroke-width="0" opacity="1" filter="none" class="highcharts-point"></path><path fill="#b00000" d="M 210 509 L 215 509 A 3 3 0 0 1 218 512 L 218 517 A 0 0 0 0 1 218 517 L 207 517 A 0 0 0 0 1 207 517 L 207 512 A 3 3 0 0 1 210 509 Z" stroke="#ffffff" stroke-width="0" opacity="1" filter="none" class="highcharts-point"></path></g><g class="highcharts-markers highcharts-series-1 highcharts-bar-series" data-z-index="0.1" opacity="1" transform="translate(68,112) scale(1 1)" clip-path="none"></g></g><text x="10" text-anchor="start" class="highcharts-caption" data-z-index="4" style="font-size: 0.8em; fill: rgb(102, 102, 102);" text-align="left" y="372" transform-origin="10 15" transform="translate(0,0) scale(1 1)"></text><g class="highcharts-plot-lines-4" data-z-index="4"><path fill="none" class="highcharts-plot-line " stroke="white" stroke-width="1" d="M 68.5 112 L 68.5 330"></path></g><g class="highcharts-legend highcharts-no-tooltip" data-z-index="7" text-align="left" transform="translate(10,55)"><rect fill="none" class="highcharts-legend-box" rx="0" ry="0" stroke="#999999" stroke-width="0" filter="none" x="0" y="0" width="286" height="45"></rect><g data-z-index="1"><g><g class="highcharts-legend-item highcharts-bar-series highcharts-color-undefined highcharts-series-0" data-z-index="1" transform="translate(8,3)"><text x="21" text-anchor="start" data-z-index="2" style="cursor: pointer; font-size: 0.8em; text-decoration: none; font-weight: normal; fill: rgb(51, 51, 51);" y="17">Männer<tspan dy="15" x="21">​</tspan>Friedmattviertel</text><rect x="2" y="6" rx="0" ry="0" width="12" height="12" fill="#008ac3" class="highcharts-point" data-z-index="3"></rect></g><g class="highcharts-legend-item highcharts-bar-series highcharts-color-undefined highcharts-series-1" data-z-index="1" transform="translate(153,3)"><text x="21" y="17" text-anchor="start" data-z-index="2" style="cursor: pointer; font-size: 0.8em; text-decoration: none; font-weight: normal; fill: rgb(51, 51, 51);">Frauen<tspan dy="15" x="21">​</tspan>Friedmattviertel</text><rect x="2" y="6" rx="0" ry="0" width="12" height="12" fill="#b00000" class="highcharts-point" data-z-index="3"></rect></g></g></g></g><g class="highcharts-axis-labels highcharts-yaxis-labels" data-z-index="7"><text x="68" text-anchor="middle" transform="translate(0,0)" style="cursor: default; font-size: 0.8em; fill: rgb(0, 0, 0);" y="357" opacity="1">0</text><text x="132.625" text-anchor="middle" transform="translate(0,0)" style="cursor: default; font-size: 0.8em; fill: rgb(0, 0, 0);" y="357" opacity="1">250</text><text x="197.25" text-anchor="middle" transform="translate(0,0)" style="cursor: default; font-size: 0.8em; fill: rgb(0, 0, 0);" y="357" opacity="1">500</text><text x="261.875" text-anchor="middle" transform="translate(0,0)" style="cursor: default; font-size: 0.8em; fill: rgb(0, 0, 0);" y="357" opacity="1">750</text><text x="326.5" text-anchor="middle" transform="translate(0,0)" style="cursor: default; font-size: 0.8em; fill: rgb(0, 0, 0);" y="357" opacity="1">1 000</text><text x="391.125" text-anchor="middle" transform="translate(0,0)" style="cursor: default; font-size: 0.8em; fill: rgb(0, 0, 0);" y="357" opacity="1">1 250</text><text x="455.75" text-anchor="middle" transform="translate(0,0)" style="cursor: default; font-size: 0.8em; fill: rgb(0, 0, 0);" y="357" opacity="1">1 500</text><text x="520.375" text-anchor="middle" transform="translate(0,0)" style="cursor: default; font-size: 0.8em; fill: rgb(0, 0, 0);" y="357" opacity="1">1 750</text><text x="585" text-anchor="middle" transform="translate(0,0)" style="cursor: default; font-size: 0.8em; fill: rgb(0, 0, 0);" y="357" opacity="1">2 000</text></g><g class="highcharts-axis-labels highcharts-xaxis-labels" data-z-index="7"><text x="53" text-anchor="end" transform="translate(0,0)" style="cursor: default; font-size: 0.8em; fill: rgb(0, 0, 0);" y="329" opacity="1">0-4</text><text x="53" text-anchor="end" transform="translate(0,0)" style="cursor: default; font-size: 0.8em; fill: rgb(0, 0, 0);" y="318" opacity="1">5-9</text><text x="53" text-anchor="end" transform="translate(0,0)" style="cursor: default; font-size: 0.8em; fill: rgb(0, 0, 0);" y="307" opacity="1">10-14</text><text x="53" text-anchor="end" transform="translate(0,0)" style="cursor: default; font-size: 0.8em; fill: rgb(0, 0, 0);" y="296" opacity="1">15-19</text><text x="53" text-anchor="end" transform="translate(0,0)" style="cursor: default; font-size: 0.8em; fill: rgb(0, 0, 0);" y="285" opacity="1">20-24</text><text x="53" text-anchor="end" transform="translate(0,0)" style="cursor: default; font-size: 0.8em; fill: rgb(0, 0, 0);" y="275" opacity="1">25-29</text><text x="53" text-anchor="end" transform="translate(0,0)" style="cursor: default; font-size: 0.8em; fill: rgb(0, 0, 0);" y="264" opacity="1">30-34</text><text x="53" text-anchor="end" transform="translate(0,0)" style="cursor: default; font-size: 0.8em; fill: rgb(0, 0, 0);" y="253" opacity="1">35-39</text><text x="53" text-anchor="end" transform="translate(0,0)" style="cursor: default; font-size: 0.8em; fill: rgb(0, 0, 0);" y="242" opacity="1">40-44</text><text x="53" text-anchor="end" transform="translate(0,0)" style="cursor: default; font-size: 0.8em; fill: rgb(0, 0, 0);" y="231" opacity="1">45-49</text><text x="53" text-anchor="end" transform="translate(0,0)" style="cursor: default; font-size: 0.8em; fill: rgb(0, 0, 0);" y="220" opacity="1">50-54</text><text x="53" text-anchor="end" transform="translate(0,0)" style="cursor: default; font-size: 0.8em; fill: rgb(0, 0, 0);" y="209" opacity="1">55-59</text><text x="53" text-anchor="end" transform="translate(0,0)" style="cursor: default; font-size: 0.8em; fill: rgb(0, 0, 0);" y="198" opacity="1">60-64</text><text x="53" text-anchor="end" transform="translate(0,0)" style="cursor: default; font-size: 0.8em; fill: rgb(0, 0, 0);" y="187" opacity="1">65-69</text><text x="53" text-anchor="end" transform="translate(0,0)" style="cursor: default; font-size: 0.8em; fill: rgb(0, 0, 0);" y="176" opacity="1">70-74</text><text x="53" text-anchor="end" transform="translate(0,0)" style="cursor: default; font-size: 0.8em; fill: rgb(0, 0, 0);" y="166" opacity="1">75-79</text><text x="53" text-anchor="end" transform="translate(0,0)" style="cursor: default; font-size: 0.8em; fill: rgb(0, 0, 0);" y="155" opacity="1">80-84</text><text x="53" text-anchor="end" transform="translate(0,0)" style="cursor: default; font-size: 0.8em; fill: rgb(0, 0, 0);" y="144" opacity="1">85-89</text><text x="53" text-anchor="end" transform="translate(0,0)" style="cursor: default; font-size: 0.8em; fill: rgb(0, 0, 0);" y="133" opacity="1">90-94</text><text x="53" text-anchor="end" transform="translate(0,0)" style="cursor: default; font-size: 0.8em; fill: rgb(0, 0, 0);" y="122" opacity="1">95 u.m.</text></g></svg>