<?xml version="1.0" standalone="no"?><!DOCTYPE svg PUBLIC "-//W3C//DTD SVG 1.1//EN" "http://www.w3.org/Graphics/SVG/1.1/DTD/svg11.dtd"><svg xmlns:xlink="http://www.w3.org/1999/xlink" version="1.1" class="highcharts-root" style="font-family:Arial;font-size:12px;" xmlns="http://www.w3.org/2000/svg" viewBox="0 0 485 415"><desc>Created with Highstock 6.1.1</desc><defs><clipPath id="highcharts-9lidff0-6"><rect x="0" y="0" width="416" height="217" fill="none"></rect></clipPath><clipPath id="highcharts-9lidff0-7"><rect x="0" y="0" width="416" height="217" fill="none"></rect></clipPath></defs><rect fill="#fbfbfb" class="highcharts-background" x="0" y="0" width="485" height="428" rx="0" ry="0"></rect><rect fill="none" class="highcharts-plot-background" x="59" y="135" width="416" height="217"></rect><g class="highcharts-pane-group" data-z-index="0"></g><g class="highcharts-grid highcharts-xaxis-grid " data-z-index="1"><path fill="none" data-z-index="1" class="highcharts-grid-line" d="M 63.5 135 L 63.5 352" opacity="1"></path><path fill="none" data-z-index="1" class="highcharts-grid-line" d="M 105.5 135 L 105.5 352" opacity="1"></path><path fill="none" data-z-index="1" class="highcharts-grid-line" d="M 146.5 135 L 146.5 352" opacity="1"></path><path fill="none" data-z-index="1" class="highcharts-grid-line" d="M 188.5 135 L 188.5 352" opacity="1"></path><path fill="none" data-z-index="1" class="highcharts-grid-line" d="M 230.5 135 L 230.5 352" opacity="1"></path><path fill="none" data-z-index="1" class="highcharts-grid-line" d="M 271.5 135 L 271.5 352" opacity="1"></path><path fill="none" data-z-index="1" class="highcharts-grid-line" d="M 313.5 135 L 313.5 352" opacity="1"></path><path fill="none" data-z-index="1" class="highcharts-grid-line" d="M 354.5 135 L 354.5 352" opacity="1"></path><path fill="none" data-z-index="1" class="highcharts-grid-line" d="M 396.5 135 L 396.5 352" opacity="1"></path><path fill="none" data-z-index="1" class="highcharts-grid-line" d="M 438.5 135 L 438.5 352" opacity="1"></path></g><g class="highcharts-grid highcharts-yaxis-grid " data-z-index="1"><path fill="none" stroke="#B9CFD7" stroke-width="0.5" data-z-index="1" class="highcharts-grid-line" d="M 59 352.25 L 475 352.25" opacity="1"></path><path fill="none" stroke="#B9CFD7" stroke-width="0.5" data-z-index="1" class="highcharts-grid-line" d="M 59 298.25 L 475 298.25" opacity="1"></path><path fill="none" stroke="#B9CFD7" stroke-width="0.5" data-z-index="1" class="highcharts-grid-line" d="M 59 244.25 L 475 244.25" opacity="1"></path><path fill="none" stroke="#B9CFD7" stroke-width="0.5" data-z-index="1" class="highcharts-grid-line" d="M 59 189.25 L 475 189.25" opacity="1"></path><path fill="none" stroke="#B9CFD7" stroke-width="0.5" data-z-index="1" class="highcharts-grid-line" d="M 59 134.75 L 475 134.75" opacity="1"></path></g><rect fill="none" class="highcharts-plot-border" data-z-index="1" x="59" y="135" width="416" height="217"></rect><g class="highcharts-axis highcharts-xaxis " data-z-index="2"><path fill="none" class="highcharts-axis-line" stroke="#B9CFD7" stroke-width="0.5" data-z-index="7" d="M 59 352.25 L 475 352.25"></path></g><g class="highcharts-axis highcharts-yaxis " data-z-index="2"><path fill="none" class="highcharts-axis-line" data-z-index="7" d="M 59 135 L 59 352"></path></g><g class="highcharts-series-group" data-z-index="3"><g data-z-index="0.1" class="highcharts-series highcharts-series-0 highcharts-line-series " transform="translate(59,135) scale(1 1)" clip-path="url(#highcharts-9lidff0-7)"><path fill="none" d="M 5.2 157.9109 L 15.6 158.2581 L 26 159.45159999999998 L 36.4 157.8892 L 46.8 158.4534 L 57.2 159.1695 L 67.6 160.7102 L 78 160.7319 L 88.4 161.5999 L 98.8 160.7319 L 109.2 161.3178 L 119.6 163.5312 L 130 165.3106 L 140.4 165.8097 L 150.8 165.9616 L 161.2 165.5059 L 171.6 165.0719 L 182 164.703 L 192.4 164.2256 L 202.8 164.59449999999998 L 213.2 163.9218 L 223.6 162.3594 L 234 163.33589999999998 L 244.4 163.0538 L 254.8 162.0556 L 265.2 162.099 L 275.6 161.83859999999999 L 286 161.83859999999999 L 296.4 162.1858 L 306.8 162.2943 L 317.2 162.4462 L 327.6 162.7717 L 338 161.3612 L 348.4 161.4914 L 358.8 160.6885 L 369.2 160.5366 L 379.6 160.1894 L 390 161.3178 L 400.4 161.5565 L 410.8 161.90370000000001" class="highcharts-graph" data-z-index="1" stroke="#E7CEE2" stroke-width="2" stroke-linejoin="round" stroke-linecap="round"></path></g><g data-z-index="0.1" class="highcharts-markers highcharts-series-0 highcharts-line-series " transform="translate(59,135) scale(1 1)" clip-path="none"></g><g data-z-index="0.1" class="highcharts-series highcharts-series-1 highcharts-line-series " transform="translate(59,135) scale(1 1)" clip-path="url(#highcharts-9lidff0-7)"><path fill="none" d="M 5.2 67.4219 L 15.6 69.7004 L 26 71.6968 L 36.4 75.299 L 46.8 73.25919999999999 L 57.2 71.67509999999999 L 67.6 70.28629999999998 L 78 69.3966 L 88.4 65.20849999999999 L 98.8 63.4725 L 109.2 63.429100000000005 L 119.6 64.7311 L 130 62.95169999999999 L 140.4 62.192199999999985 L 150.8 61.1506 L 161.2 60.1524 L 171.6 57.982399999999984 L 182 58.2645 L 192.4 59.826899999999995 L 202.8 60.00049999999999 L 213.2 59.805199999999985 L 223.6 59.761799999999994 L 234 58.91550000000001 L 244.4 59.69669999999999 L 254.8 59.7184 L 265.2 59.06739999999999 L 275.6 58.22110000000001 L 286 58.87209999999999 L 296.4 59.11079999999998 L 306.8 61.12889999999999 L 317.2 63.385699999999986 L 327.6 63.798 L 338 62.235600000000005 L 348.4 60.32599999999999 L 358.8 60.89019999999999 L 369.2 60.89019999999999 L 379.6 60.955299999999994 L 390 61.30250000000001 L 400.4 65.70759999999999 L 410.8 67.5521" class="highcharts-graph" data-z-index="1" stroke="#B375AB" stroke-width="2" stroke-linejoin="round" stroke-linecap="round"></path></g><g data-z-index="0.1" class="highcharts-markers highcharts-series-1 highcharts-line-series " transform="translate(59,135) scale(1 1)" clip-path="none"></g><g data-z-index="0.1" class="highcharts-series highcharts-series-2 highcharts-line-series " transform="translate(59,135) scale(1 1)" clip-path="url(#highcharts-9lidff0-7)"><path fill="none" d="M 5.2 167.11169999999998 L 15.6 160.9055 L 26 156.2834 L 36.4 167.1551 L 46.8 168.7175 L 57.2 169.6506 L 67.6 170.4752 L 78 170.5403 L 88.4 169.6506 L 98.8 169.23829999999998 L 109.2 169.26 L 119.6 170.3016 L 130 170.2582 L 140.4 169.9544 L 150.8 169.56380000000001 L 161.2 170.128 L 171.6 171.1479 L 182 171.95080000000002 L 192.4 171.8206 L 202.8 171.0611 L 213.2 171.7989 L 223.6 172.1678 L 234 171.1045 L 244.4 172.0159 L 254.8 171.5602 L 265.2 170.7573 L 275.6 170.4752 L 286 170.3884 L 296.4 169.8242 L 306.8 169.26 L 317.2 170.9743 L 327.6 171.4734 L 338 174.468 L 348.4 174.902 L 358.8 174.9888 L 369.2 175.0322 L 379.6 175.27089999999998 L 390 176.0738 L 400.4 176.6163 L 410.8 176.9635" class="highcharts-graph" data-z-index="1" stroke="#662673" stroke-width="2" stroke-linejoin="round" stroke-linecap="round"></path></g><g data-z-index="0.1" class="highcharts-markers highcharts-series-2 highcharts-line-series " transform="translate(59,135) scale(1 1)" clip-path="none"></g></g><text x="10" text-anchor="start" class="highcharts-title" data-z-index="4" style="color:#000000;font-size:14px;font-weight:bold;fill:#000000;" y="21"><tspan>Grenzg채nger in Industrie und Baugewerbe</tspan></text><text x="10" text-anchor="start" class="highcharts-subtitle" data-z-index="4" style="color:#000000;font-size:12px;font-weight:normal;font-family:Arial;fill:#000000;" y="40"><tspan>Bestand Ende Quartal, Basel-Stadt</tspan></text><g class="highcharts-legend" data-z-index="7" transform="translate(51,55)"><rect fill="none" class="highcharts-legend-box" rx="0" ry="0" x="0" y="0" width="296" height="68" visibility="visible"></rect><g data-z-index="1"><g><g class="highcharts-legend-item highcharts-line-series highcharts-color-undefined highcharts-series-0" data-z-index="1" transform="translate(8,3)"><path fill="none" d="M 0 11 L 16 11" class="highcharts-graph" stroke="#E7CEE2" stroke-width="2"></path><text x="21" style="color:#333333;font-size:12px;font-weight:normal;cursor:pointer;fill:#333333;" text-anchor="start" data-z-index="2" y="15"><tspan>Industrie (exkl. Chemie, Pharma)</tspan></text></g><g class="highcharts-legend-item highcharts-line-series highcharts-color-undefined highcharts-series-1" data-z-index="1" transform="translate(8,22)"><path fill="none" d="M 0 11 L 16 11" class="highcharts-graph" stroke="#B375AB" stroke-width="2"></path><text x="21" y="15" style="color:#333333;font-size:12px;font-weight:normal;cursor:pointer;fill:#333333;" text-anchor="start" data-z-index="2"><tspan>Chemie, Pharma</tspan></text></g><g class="highcharts-legend-item highcharts-line-series highcharts-color-undefined highcharts-series-2" data-z-index="1" transform="translate(8,41)"><path fill="none" d="M 0 11 L 16 11" class="highcharts-graph" stroke="#662673" stroke-width="2"></path><text x="21" y="15" style="color:#333333;font-size:12px;font-weight:normal;cursor:pointer;fill:#333333;" text-anchor="start" data-z-index="2"><tspan>Baugewerbe</tspan></text></g></g></g></g><g class="highcharts-axis-labels highcharts-xaxis-labels " data-z-index="7"><text x="64.2" style="color:#000000;cursor:default;font-size:11px;fill:#000000;" text-anchor="middle" transform="translate(0,0)" y="371" opacity="1">2008</text><text x="105.8" style="color:#000000;cursor:default;font-size:11px;fill:#000000;" text-anchor="middle" transform="translate(0,0)" y="371" opacity="1">2009</text><text x="147.4" style="color:#000000;cursor:default;font-size:11px;fill:#000000;" text-anchor="middle" transform="translate(0,0)" y="371" opacity="1">2010</text><text x="189" style="color:#000000;cursor:default;font-size:11px;fill:#000000;" text-anchor="middle" transform="translate(0,0)" y="371" opacity="1">2011</text><text x="230.6" style="color:#000000;cursor:default;font-size:11px;fill:#000000;" text-anchor="middle" transform="translate(0,0)" y="371" opacity="1">2012</text><text x="272.2" style="color:#000000;cursor:default;font-size:11px;fill:#000000;" text-anchor="middle" transform="translate(0,0)" y="371" opacity="1">2013</text><text x="313.8" style="color:#000000;cursor:default;font-size:11px;fill:#000000;" text-anchor="middle" transform="translate(0,0)" y="371" opacity="1">2014</text><text x="355.4" style="color:#000000;cursor:default;font-size:11px;fill:#000000;" text-anchor="middle" transform="translate(0,0)" y="371" opacity="1">2015</text><text x="397" style="color:#000000;cursor:default;font-size:11px;fill:#000000;" text-anchor="middle" transform="translate(0,0)" y="371" opacity="1">2016</text><text x="438.6" style="color:#000000;cursor:default;font-size:11px;fill:#000000;" text-anchor="middle" transform="translate(0,0)" y="371" opacity="1">2017</text></g><g class="highcharts-axis-labels highcharts-yaxis-labels " data-z-index="7"><text x="44" style="color:#000000;cursor:default;font-size:11px;fill:#000000;" text-anchor="end" transform="translate(0,0)" y="357" opacity="1">0</text><text x="44" style="color:#000000;cursor:default;font-size:11px;fill:#000000;" text-anchor="end" transform="translate(0,0)" y="302" opacity="1"><tspan>2 500</tspan></text><text x="44" style="color:#000000;cursor:default;font-size:11px;fill:#000000;" text-anchor="end" transform="translate(0,0)" y="248" opacity="1"><tspan>5 000</tspan></text><text x="44" style="color:#000000;cursor:default;font-size:11px;fill:#000000;" text-anchor="end" transform="translate(0,0)" y="194" opacity="1"><tspan>7 500</tspan></text><text x="44" style="color:#000000;cursor:default;font-size:11px;fill:#000000;" text-anchor="end" transform="translate(0,0)" y="140" opacity="1"><tspan>10 000</tspan></text></g><text x="10" class="highcharts-credits" text-anchor="start" data-z-index="8" style="cursor:default;color:#000000;font-size:10px;fill:#000000;" y="403"><tspan>Quelle: Bundesamt f체r Statistik (BFS), Grenzg채ngerstatistik (GGS).</tspan><tspan x="10" dy="13">Zuletzt ge채ndert: 2018-3-14</tspan></text></svg>