<?xml version="1.0" standalone="no"?><!DOCTYPE svg PUBLIC "-//W3C//DTD SVG 1.1//EN" "http://www.w3.org/Graphics/SVG/1.1/DTD/svg11.dtd"><svg xmlns:xlink="http://www.w3.org/1999/xlink" version="1.1" class="highcharts-root" style="font-family:Arial;font-size:12px;" xmlns="http://www.w3.org/2000/svg" viewBox="0 0 485 415"><desc>Created with Highcharts 8.2.2</desc><defs><clipPath id="highcharts-4uugbfy-124-"><rect x="0" y="0" width="423" height="212" fill="none"></rect></clipPath><clipPath id="highcharts-4uugbfy-164-"><rect x="0" y="0" width="423" height="212" fill="none"></rect></clipPath><clipPath id="highcharts-4uugbfy-243-"><rect x="52" y="139" width="423" height="212" fill="none"></rect></clipPath></defs><rect fill="#fbfbfb" class="highcharts-background" x="0" y="0" width="485" height="428" rx="0" ry="0"></rect><rect fill="none" class="highcharts-plot-background" x="52" y="139" width="423" height="212"></rect><g class="highcharts-pane-group" data-z-index="0"></g><g class="highcharts-grid highcharts-xaxis-grid" data-z-index="1"><path fill="none" data-z-index="1" class="highcharts-grid-line" d="M 56.5 139 L 56.5 351" opacity="1"></path><path fill="none" data-z-index="1" class="highcharts-grid-line" d="M 100.5 139 L 100.5 351" opacity="1"></path><path fill="none" data-z-index="1" class="highcharts-grid-line" d="M 143.5 139 L 143.5 351" opacity="1"></path><path fill="none" data-z-index="1" class="highcharts-grid-line" d="M 187.5 139 L 187.5 351" opacity="1"></path><path fill="none" data-z-index="1" class="highcharts-grid-line" d="M 230.5 139 L 230.5 351" opacity="1"></path><path fill="none" data-z-index="1" class="highcharts-grid-line" d="M 273.5 139 L 273.5 351" opacity="1"></path><path fill="none" data-z-index="1" class="highcharts-grid-line" d="M 317.5 139 L 317.5 351" opacity="1"></path><path fill="none" data-z-index="1" class="highcharts-grid-line" d="M 360.5 139 L 360.5 351" opacity="1"></path><path fill="none" data-z-index="1" class="highcharts-grid-line" d="M 404.5 139 L 404.5 351" opacity="1"></path><path fill="none" data-z-index="1" class="highcharts-grid-line" d="M 447.5 139 L 447.5 351" opacity="1"></path></g><g class="highcharts-grid highcharts-yaxis-grid" data-z-index="1"><path fill="none" stroke="#B9CFD7" stroke-width="0.5" data-z-index="1" class="highcharts-grid-line" d="M 52 351.25 L 475 351.25" opacity="1"></path><path fill="none" stroke="#B9CFD7" stroke-width="0.5" data-z-index="1" class="highcharts-grid-line" d="M 52 298.25 L 475 298.25" opacity="1"></path><path fill="none" stroke="#B9CFD7" stroke-width="0.5" data-z-index="1" class="highcharts-grid-line" d="M 52 245.25 L 475 245.25" opacity="1"></path><path fill="none" stroke="#B9CFD7" stroke-width="0.5" data-z-index="1" class="highcharts-grid-line" d="M 52 192.25 L 475 192.25" opacity="1"></path><path fill="none" stroke="#B9CFD7" stroke-width="0.5" data-z-index="1" class="highcharts-grid-line" d="M 52 138.75 L 475 138.75" opacity="1"></path></g><rect fill="none" class="highcharts-plot-border" data-z-index="1" x="52" y="139" width="423" height="212"></rect><g class="highcharts-axis highcharts-xaxis" data-z-index="2"><path fill="none" class="highcharts-axis-line" stroke="#B9CFD7" stroke-width="0.5" data-z-index="7" d="M 52 351.25 L 475 351.25"></path></g><g class="highcharts-axis highcharts-yaxis" data-z-index="2"><path fill="none" class="highcharts-axis-line" data-z-index="7" d="M 52 139 L 52 351"></path></g><g class="highcharts-series-group" data-z-index="3"><g class="highcharts-series highcharts-series-0 highcharts-line-series" data-z-index="0.1" opacity="1" transform="translate(52,139) scale(1 1)" clip-path="url(#highcharts-4uugbfy-164-)"><path fill="none" d="M 5.4230769230769 144.7695 L 16.269230769231 144.7165 L 27.115384615385 143.9745 L 37.961538461538 144.054 L 48.807692307692 144.21300000000002 L 59.653846153846 145.35250000000002 L 70.5 145.9885 L 81.346153846154 146.46550000000002 L 92.192307692308 148.4 L 103.03846153846 148.9035 L 113.88461538462 149.83100000000002 L 124.73076923077 150.679 L 135.57692307692 150.732 L 146.42307692308 150.732 L 157.26923076923 150.5465 L 168.11538461538 150.255 L 178.96153846154 150.1225 L 189.80769230769 149.4335 L 200.65384615385 149.089 L 211.5 149.1155 L 222.34615384615 151.0765 L 233.19230769231 150.94400000000002 L 244.03846153846 151.421 L 254.88461538462 151.2355 L 265.73076923077 151.209 L 276.57692307692 151.1825 L 287.42307692308 152.08350000000002 L 298.26923076923 152.4545 L 309.11538461538 153.647 L 319.96153846154 153.4085 L 330.80769230769 154.25650000000002 L 341.65384615385 157.09199999999998 L 352.5 157.3305 L 363.34615384615 157.675 L 374.19230769231 157.2775 L 385.03846153846 158.0195 L 395.88461538462 159.5565 L 406.73076923077 158.258 L 417.57692307692 158.47" class="highcharts-graph" data-z-index="1" stroke="#E7CEE2" stroke-width="2" stroke-linejoin="round" stroke-linecap="round"></path></g><g class="highcharts-markers highcharts-series-0 highcharts-line-series" data-z-index="0.1" opacity="1" transform="translate(52,139) scale(1 1)" clip-path="none"></g><g class="highcharts-series highcharts-series-1 highcharts-line-series" data-z-index="0.1" opacity="1" transform="translate(52,139) scale(1 1)" clip-path="url(#highcharts-4uugbfy-164-)"><path fill="none" d="M 5.4230769230769 23.214 L 16.269230769231 20.882000000000005 L 27.115384615385 22.286500000000018 L 37.961538461538 22.578000000000003 L 48.807692307692 23.638000000000005 L 59.653846153846 23.505500000000012 L 70.5 28.1695 L 81.346153846154 30.71350000000001 L 92.192307692308 32.807000000000016 L 103.03846153846 33.920000000000016 L 113.88461538462 37.0205 L 124.73076923077 39.7765 L 135.57692307692 40.942499999999995 L 146.42307692308 42.028999999999996 L 157.26923076923 42.0025 L 168.11538461538 42.506 L 178.96153846154 42.18800000000002 L 189.80769230769 43.46000000000001 L 200.65384615385 43.566 L 211.5 43.6455 L 222.34615384615 42.63849999999999 L 233.19230769231 43.0625 L 244.03846153846 44.997000000000014 L 254.88461538462 45.182500000000005 L 265.73076923077 45.02350000000001 L 276.57692307692 46.852000000000004 L 287.42307692308 47.70000000000002 L 298.26923076923 46.58700000000002 L 309.11538461538 47.4615 L 319.96153846154 48.548 L 330.80769230769 49.87299999999999 L 341.65384615385 51.807500000000005 L 352.5 53.87450000000001 L 363.34615384615 54.7225 L 374.19230769231 55.1465 L 385.03846153846 55.35849999999999 L 395.88461538462 55.756 L 406.73076923077 58.432500000000005 L 417.57692307692 56.974999999999994" class="highcharts-graph" data-z-index="1" stroke="#B375AB" stroke-width="2" stroke-linejoin="round" stroke-linecap="round"></path></g><g class="highcharts-markers highcharts-series-1 highcharts-line-series" data-z-index="0.1" opacity="1" transform="translate(52,139) scale(1 1)" clip-path="none"></g><g class="highcharts-series highcharts-series-2 highcharts-line-series" data-z-index="0.1" opacity="1" transform="translate(52,139) scale(1 1)" clip-path="url(#highcharts-4uugbfy-164-)"><path fill="none" d="M 5.4230769230769 156.244 L 16.269230769231 156.9595 L 27.115384615385 157.6485 L 37.961538461538 157.9135 L 48.807692307692 158.65550000000002 L 59.653846153846 158.947 L 70.5 159.583 L 81.346153846154 160.0865 L 92.192307692308 161.65 L 103.03846153846 161.756 L 113.88461538462 162.3655 L 124.73076923077 163.028 L 135.57692307692 164.0615 L 146.42307692308 164.4325 L 157.26923076923 164.9625 L 168.11538461538 164.565 L 178.96153846154 164.5915 L 189.80769230769 164.22050000000002 L 200.65384615385 163.9025 L 211.5 169.335 L 222.34615384615 170.34199999999998 L 233.19230769231 170.2095 L 244.03846153846 170.2625 L 254.88461538462 170.448 L 265.73076923077 170.34199999999998 L 276.57692307692 170.766 L 287.42307692308 171.296 L 298.26923076923 171.8525 L 309.11538461538 172.886 L 319.96153846154 172.833 L 330.80769230769 172.8065 L 341.65384615385 173.3365 L 352.5 176.49 L 363.34615384615 176.808 L 374.19230769231 176.8345 L 385.03846153846 176.5695 L 395.88461538462 176.278 L 406.73076923077 176.437 L 417.57692307692 176.278" class="highcharts-graph" data-z-index="1" stroke="#662673" stroke-width="2" stroke-linejoin="round" stroke-linecap="round"></path></g><g class="highcharts-markers highcharts-series-2 highcharts-line-series" data-z-index="0.1" opacity="1" transform="translate(52,139) scale(1 1)" clip-path="none"></g></g><text x="10" text-anchor="start" class="highcharts-title" data-z-index="4" style="color:#000000;font-size:14px;font-weight:bold;fill:#000000;" y="21"><tspan>Grenzgänger in Industrie und Baugewerbe</tspan></text><text x="10" text-anchor="start" class="highcharts-subtitle" data-z-index="4" style="color:#000000;font-size:12px;font-weight:normal;fill:#000000;" y="40"><tspan>Basel-Stadt</tspan></text><text x="10" text-anchor="start" class="highcharts-caption" data-z-index="4" style="color:#666666;fill:#666666;" y="385"></text><g class="highcharts-legend" data-z-index="7" transform="translate(44,56)"><rect fill="none" class="highcharts-legend-box" rx="0" ry="0" x="0" y="0" width="296" height="71" visibility="visible"></rect><g data-z-index="1"><g><g class="highcharts-legend-item highcharts-line-series highcharts-color-undefined highcharts-series-0" data-z-index="1" transform="translate(8,3)"><path fill="none" d="M 0 11 L 16 11" class="highcharts-graph" stroke="#E7CEE2" stroke-width="2"></path><text x="21" style="color:#333333;cursor:pointer;font-size:12px;font-weight:normal;fill:#333333;" text-anchor="start" data-z-index="2" y="15"><tspan>Industrie (exkl. Chemie, Pharma)</tspan></text></g><g class="highcharts-legend-item highcharts-line-series highcharts-color-undefined highcharts-series-1" data-z-index="1" transform="translate(8,23)"><path fill="none" d="M 0 11 L 16 11" class="highcharts-graph" stroke="#B375AB" stroke-width="2"></path><text x="21" y="15" style="color:#333333;cursor:pointer;font-size:12px;font-weight:normal;fill:#333333;" text-anchor="start" data-z-index="2"><tspan>Chemie, Pharma</tspan></text></g><g class="highcharts-legend-item highcharts-line-series highcharts-color-undefined highcharts-series-2" data-z-index="1" transform="translate(8,43)"><path fill="none" d="M 0 11 L 16 11" class="highcharts-graph" stroke="#662673" stroke-width="2"></path><text x="21" y="15" style="color:#333333;cursor:pointer;font-size:12px;font-weight:normal;fill:#333333;" text-anchor="start" data-z-index="2"><tspan>Baugewerbe</tspan></text></g></g></g></g><g class="highcharts-axis-labels highcharts-xaxis-labels" data-z-index="7"><text x="57.423076923077" style="color:#000000;cursor:default;font-size:11px;fill:#000000;" text-anchor="middle" transform="translate(0,0)" y="370" opacity="1">2016</text><text x="100.80769230769" style="color:#000000;cursor:default;font-size:11px;fill:#000000;" text-anchor="middle" transform="translate(0,0)" y="370" opacity="1">2017</text><text x="144.19230769231" style="color:#000000;cursor:default;font-size:11px;fill:#000000;" text-anchor="middle" transform="translate(0,0)" y="370" opacity="1">2018</text><text x="187.57692307692" style="color:#000000;cursor:default;font-size:11px;fill:#000000;" text-anchor="middle" transform="translate(0,0)" y="370" opacity="1">2019</text><text x="230.96153846154" style="color:#000000;cursor:default;font-size:11px;fill:#000000;" text-anchor="middle" transform="translate(0,0)" y="370" opacity="1">2020</text><text x="274.34615384615" style="color:#000000;cursor:default;font-size:11px;fill:#000000;" text-anchor="middle" transform="translate(0,0)" y="370" opacity="1">2021</text><text x="317.73076923077" style="color:#000000;cursor:default;font-size:11px;fill:#000000;" text-anchor="middle" transform="translate(0,0)" y="370" opacity="1">2022</text><text x="361.11538461538" style="color:#000000;cursor:default;font-size:11px;fill:#000000;" text-anchor="middle" transform="translate(0,0)" y="370" opacity="1">2023</text><text x="404.5" style="color:#000000;cursor:default;font-size:11px;fill:#000000;" text-anchor="middle" transform="translate(0,0)" y="370" opacity="1">2024</text><text x="447.88461538462" style="color:#000000;cursor:default;font-size:11px;fill:#000000;" text-anchor="middle" transform="translate(0,0)" y="370" opacity="1">2025</text></g><g class="highcharts-axis-labels highcharts-yaxis-labels" data-z-index="7"><text x="37" style="color:#000000;cursor:default;font-size:11px;fill:#000000;" text-anchor="end" transform="translate(0,0)" y="355" opacity="1">0</text><text x="37" style="color:#000000;cursor:default;font-size:11px;fill:#000000;" text-anchor="end" transform="translate(0,0)" y="302" opacity="1"><tspan>2 000</tspan></text><text x="37" style="color:#000000;cursor:default;font-size:11px;fill:#000000;" text-anchor="end" transform="translate(0,0)" y="249" opacity="1"><tspan>4 000</tspan></text><text x="37" style="color:#000000;cursor:default;font-size:11px;fill:#000000;" text-anchor="end" transform="translate(0,0)" y="196" opacity="1"><tspan>6 000</tspan></text><text x="37" style="color:#000000;cursor:default;font-size:11px;fill:#000000;" text-anchor="end" transform="translate(0,0)" y="143" opacity="1"><tspan>8 000</tspan></text></g><text x="10" class="highcharts-credits" text-anchor="start" data-z-index="8" style="cursor:default;color:#000000;font-size:10px;fill:#000000;" y="403"><tspan>Quelle: Bundesamt für Statistik (BFS), Grenzgängerstatistik (GGS).</tspan><tspan x="10" dy="13">Zuletzt geändert: 5.3.2026</tspan></text><g class="highcharts-control-points" data-z-index="99" clip-path="url(#highcharts-4uugbfy-243-)"></g></svg>