<svg version="1.1" class="highcharts-root" style="font-family: Inter, &quot;Helvetica Neue&quot;, Helvetica, Arial, sans-serif; font-size: 1rem;" xmlns="http://www.w3.org/2000/svg" viewBox="0 0 485 415"><desc>Created with Highcharts 12.5.0</desc><defs><filter id="highcharts-drop-shadow-0"><feDropShadow dx="1" dy="1" flood-color="#000000" flood-opacity="0.75" stdDeviation="2.5"></feDropShadow></filter><clipPath id="highcharts-054q2t3-25-"><rect x="0" y="0" width="544" height="255" fill="none"></rect></clipPath></defs><rect fill="#ffffff" class="highcharts-background" filter="none" x="0" y="0" width="600" height="400" rx="0" ry="0"></rect><rect fill="none" class="highcharts-plot-background" x="46" y="55" width="544" height="255" filter="none"></rect><g class="highcharts-pane-group" data-z-index="0"></g><g class="highcharts-grid highcharts-xaxis-grid" data-z-index="1"><path fill="none" stroke="#e6e6e6" stroke-width="0" stroke-dasharray="none" data-z-index="1" class="highcharts-grid-line" d="M 70.5 55 L 70.5 310" opacity="1"></path><path fill="none" stroke="#e6e6e6" stroke-width="0" stroke-dasharray="none" data-z-index="1" class="highcharts-grid-line" d="M 119.5 55 L 119.5 310" opacity="1"></path><path fill="none" stroke="#e6e6e6" stroke-width="0" stroke-dasharray="none" data-z-index="1" class="highcharts-grid-line" d="M 168.5 55 L 168.5 310" opacity="1"></path><path fill="none" stroke="#e6e6e6" stroke-width="0" stroke-dasharray="none" data-z-index="1" class="highcharts-grid-line" d="M 217.5 55 L 217.5 310" opacity="1"></path><path fill="none" stroke="#e6e6e6" stroke-width="0" stroke-dasharray="none" data-z-index="1" class="highcharts-grid-line" d="M 266.5 55 L 266.5 310" opacity="1"></path><path fill="none" stroke="#e6e6e6" stroke-width="0" stroke-dasharray="none" data-z-index="1" class="highcharts-grid-line" d="M 315.5 55 L 315.5 310" opacity="1"></path><path fill="none" stroke="#e6e6e6" stroke-width="0" stroke-dasharray="none" data-z-index="1" class="highcharts-grid-line" d="M 364.5 55 L 364.5 310" opacity="1"></path><path fill="none" stroke="#e6e6e6" stroke-width="0" stroke-dasharray="none" data-z-index="1" class="highcharts-grid-line" d="M 413.5 55 L 413.5 310" opacity="1"></path><path fill="none" stroke="#e6e6e6" stroke-width="0" stroke-dasharray="none" data-z-index="1" class="highcharts-grid-line" d="M 462.5 55 L 462.5 310" opacity="1"></path><path fill="none" stroke="#e6e6e6" stroke-width="0" stroke-dasharray="none" data-z-index="1" class="highcharts-grid-line" d="M 511.5 55 L 511.5 310" opacity="1"></path><path fill="none" stroke="#e6e6e6" stroke-width="0" stroke-dasharray="none" data-z-index="1" class="highcharts-grid-line" d="M 560.5 55 L 560.5 310" opacity="1"></path></g><g class="highcharts-grid highcharts-yaxis-grid" data-z-index="1"><path fill="none" stroke="#B9CFD7" stroke-width="0.5" stroke-dasharray="none" data-z-index="1" class="highcharts-grid-line" d="M 46 310.25 L 590 310.25" opacity="1"></path><path fill="none" stroke="#B9CFD7" stroke-width="0.5" stroke-dasharray="none" data-z-index="1" class="highcharts-grid-line" d="M 46 246.25 L 590 246.25" opacity="1"></path><path fill="none" stroke="#B9CFD7" stroke-width="0.5" stroke-dasharray="none" data-z-index="1" class="highcharts-grid-line" d="M 46 182.25 L 590 182.25" opacity="1"></path><path fill="none" stroke="#B9CFD7" stroke-width="0.5" stroke-dasharray="none" data-z-index="1" class="highcharts-grid-line" d="M 46 119.25 L 590 119.25" opacity="1"></path><path fill="none" stroke="#B9CFD7" stroke-width="0.5" stroke-dasharray="none" data-z-index="1" class="highcharts-grid-line" d="M 46 55.25 L 590 55.25" opacity="1"></path></g><rect fill="none" class="highcharts-plot-border" data-z-index="1" stroke="#cccccc" stroke-width="0" x="46" y="55" width="544" height="255"></rect><g class="highcharts-axis highcharts-xaxis" data-z-index="2"><path fill="none" class="highcharts-axis-line" stroke="#B9CFD7" stroke-width="0.5" data-z-index="7" d="M 46 310.25 L 590 310.25"></path></g><g class="highcharts-axis highcharts-yaxis" data-z-index="2"><path fill="none" class="highcharts-axis-line" stroke="#B9CFD7" stroke-width="0" data-z-index="7" d="M 46 55 L 46 310"></path></g><g class="highcharts-series-group" data-z-index="3" filter="none"><g class="highcharts-series highcharts-series-0 highcharts-column-series highcharts-tracker" data-z-index="0.1" opacity="1" transform="translate(46,55) scale(1 1)" clip-path="url(#highcharts-054q2t3-25-)"><path fill="#A0BEC8" d="M -477 237 L -454 237 A 3 3 0 0 1 -451 240 L -451 255 A 0 0 0 0 1 -451 255 L -480 255 A 0 0 0 0 1 -480 255 L -480 240 A 3 3 0 0 1 -477 237 Z" stroke="#ffffff" stroke-width="0" opacity="1" filter="none" class="highcharts-point"></path><path fill="#A0BEC8" d="M -428 84 L -405 84 A 3 3 0 0 1 -402 87 L -402 255 A 0 0 0 0 1 -402 255 L -431 255 A 0 0 0 0 1 -431 255 L -431 87 A 3 3 0 0 1 -428 84 Z" stroke="#ffffff" stroke-width="0" opacity="1" filter="none" class="highcharts-point"></path><path fill="#A0BEC8" d="M -379 119 L -356 119 A 3 3 0 0 1 -353 122 L -353 255 A 0 0 0 0 1 -353 255 L -382 255 A 0 0 0 0 1 -382 255 L -382 122 A 3 3 0 0 1 -379 119 Z" stroke="#ffffff" stroke-width="0" opacity="1" filter="none" class="highcharts-point"></path><path fill="#A0BEC8" d="M -330 96 L -307 96 A 3 3 0 0 1 -304 99 L -304 255 A 0 0 0 0 1 -304 255 L -333 255 A 0 0 0 0 1 -333 255 L -333 99 A 3 3 0 0 1 -330 96 Z" stroke="#ffffff" stroke-width="0" opacity="1" filter="none" class="highcharts-point"></path><path fill="#A0BEC8" d="M -281 64 L -258 64 A 3 3 0 0 1 -255 67 L -255 255 A 0 0 0 0 1 -255 255 L -284 255 A 0 0 0 0 1 -284 255 L -284 67 A 3 3 0 0 1 -281 64 Z" stroke="#ffffff" stroke-width="0" opacity="1" filter="none" class="highcharts-point"></path><path fill="#A0BEC8" d="M -232 69 L -209 69 A 3 3 0 0 1 -206 72 L -206 255 A 0 0 0 0 1 -206 255 L -235 255 A 0 0 0 0 1 -235 255 L -235 72 A 3 3 0 0 1 -232 69 Z" stroke="#ffffff" stroke-width="0" opacity="1" filter="none" class="highcharts-point"></path><path fill="#A0BEC8" d="M -183 181 L -160 181 A 3 3 0 0 1 -157 184 L -157 255 A 0 0 0 0 1 -157 255 L -186 255 A 0 0 0 0 1 -186 255 L -186 184 A 3 3 0 0 1 -183 181 Z" stroke="#ffffff" stroke-width="0" opacity="1" filter="none" class="highcharts-point"></path><path fill="#A0BEC8" d="M -134 222 L -111 222 A 3 3 0 0 1 -108 225 L -108 255 A 0 0 0 0 1 -108 255 L -137 255 A 0 0 0 0 1 -137 255 L -137 225 A 3 3 0 0 1 -134 222 Z" stroke="#ffffff" stroke-width="0" opacity="1" filter="none" class="highcharts-point"></path><path fill="#A0BEC8" d="M -85 203 L -62 203 A 3 3 0 0 1 -59 206 L -59 255 A 0 0 0 0 1 -59 255 L -88 255 A 0 0 0 0 1 -88 255 L -88 206 A 3 3 0 0 1 -85 203 Z" stroke="#ffffff" stroke-width="0" opacity="1" filter="none" class="highcharts-point"></path><path fill="#A0BEC8" d="M -36 187 L -13 187 A 3 3 0 0 1 -10 190 L -10 255 A 0 0 0 0 1 -10 255 L -39 255 A 0 0 0 0 1 -39 255 L -39 190 A 3 3 0 0 1 -36 187 Z" stroke="#ffffff" stroke-width="0" opacity="1" filter="none" class="highcharts-point"></path><path fill="#A0BEC8" d="M 13 28 L 36 28 A 3 3 0 0 1 39 31 L 39 255 A 0 0 0 0 1 39 255 L 10 255 A 0 0 0 0 1 10 255 L 10 31 A 3 3 0 0 1 13 28 Z" stroke="#ffffff" stroke-width="0" opacity="1" filter="none" class="highcharts-point"></path><path fill="#A0BEC8" d="M 62 159 L 85 159 A 3 3 0 0 1 88 162 L 88 255 A 0 0 0 0 1 88 255 L 59 255 A 0 0 0 0 1 59 255 L 59 162 A 3 3 0 0 1 62 159 Z" stroke="#ffffff" stroke-width="0" opacity="1" filter="none" class="highcharts-point"></path><path fill="#A0BEC8" d="M 111 180 L 134 180 A 3 3 0 0 1 137 183 L 137 255 A 0 0 0 0 1 137 255 L 108 255 A 0 0 0 0 1 108 255 L 108 183 A 3 3 0 0 1 111 180 Z" stroke="#ffffff" stroke-width="0" opacity="1" filter="none" class="highcharts-point"></path><path fill="#A0BEC8" d="M 160 110 L 183 110 A 3 3 0 0 1 186 113 L 186 255 A 0 0 0 0 1 186 255 L 157 255 A 0 0 0 0 1 157 255 L 157 113 A 3 3 0 0 1 160 110 Z" stroke="#ffffff" stroke-width="0" opacity="1" filter="none" class="highcharts-point"></path><path fill="#A0BEC8" d="M 209 18 L 232 18 A 3 3 0 0 1 235 21 L 235 255 A 0 0 0 0 1 235 255 L 206 255 A 0 0 0 0 1 206 255 L 206 21 A 3 3 0 0 1 209 18 Z" stroke="#ffffff" stroke-width="0" opacity="1" filter="none" class="highcharts-point"></path><path fill="#A0BEC8" d="M 258 59 L 281 59 A 3 3 0 0 1 284 62 L 284 255 A 0 0 0 0 1 284 255 L 255 255 A 0 0 0 0 1 255 255 L 255 62 A 3 3 0 0 1 258 59 Z" stroke="#ffffff" stroke-width="0" opacity="1" filter="none" class="highcharts-point"></path><path fill="#A0BEC8" d="M 307 133 L 330 133 A 3 3 0 0 1 333 136 L 333 255 A 0 0 0 0 1 333 255 L 304 255 A 0 0 0 0 1 304 255 L 304 136 A 3 3 0 0 1 307 133 Z" stroke="#ffffff" stroke-width="0" opacity="1" filter="none" class="highcharts-point"></path><path fill="#A0BEC8" d="M 356 79 L 379 79 A 3 3 0 0 1 382 82 L 382 255 A 0 0 0 0 1 382 255 L 353 255 A 0 0 0 0 1 353 255 L 353 82 A 3 3 0 0 1 356 79 Z" stroke="#ffffff" stroke-width="0" opacity="1" filter="none" class="highcharts-point"></path><path fill="#A0BEC8" d="M 405 187 L 428 187 A 3 3 0 0 1 431 190 L 431 255 A 0 0 0 0 1 431 255 L 402 255 A 0 0 0 0 1 402 255 L 402 190 A 3 3 0 0 1 405 187 Z" stroke="#ffffff" stroke-width="0" opacity="1" filter="none" class="highcharts-point"></path><path fill="#A0BEC8" d="M 454 157 L 477 157 A 3 3 0 0 1 480 160 L 480 255 A 0 0 0 0 1 480 255 L 451 255 A 0 0 0 0 1 451 255 L 451 160 A 3 3 0 0 1 454 157 Z" stroke="#ffffff" stroke-width="0" opacity="1" filter="none" class="highcharts-point"></path><path fill="#A0BEC8" d="M 503 212 L 526 212 A 3 3 0 0 1 529 215 L 529 255 A 0 0 0 0 1 529 255 L 500 255 A 0 0 0 0 1 500 255 L 500 215 A 3 3 0 0 1 503 212 Z" stroke="#ffffff" stroke-width="0" opacity="1" filter="none" class="highcharts-point"></path></g><g class="highcharts-markers highcharts-series-0 highcharts-column-series" data-z-index="0.1" opacity="1" transform="translate(46,55) scale(1 1)" clip-path="none"></g></g><text x="10" text-anchor="start" class="highcharts-caption" data-z-index="4" style="font-size: 0.8em; fill: rgb(102, 102, 102);" text-align="left" y="352" transform-origin="10 15" transform="translate(0,0) scale(1 1)"></text><g class="highcharts-axis-labels highcharts-xaxis-labels" data-z-index="7"><text x="70.504504504505" text-anchor="middle" transform="translate(0,0)" style="cursor: default; font-size: 0.8em; fill: rgb(0, 0, 0);" y="337" opacity="1">2015</text><text x="119.51351351351" text-anchor="middle" transform="translate(0,0)" style="cursor: default; font-size: 0.8em; fill: rgb(0, 0, 0);" y="337" opacity="1">2016</text><text x="168.52252252252" text-anchor="middle" transform="translate(0,0)" style="cursor: default; font-size: 0.8em; fill: rgb(0, 0, 0);" y="337" opacity="1">2017</text><text x="217.53153153153" text-anchor="middle" transform="translate(0,0)" style="cursor: default; font-size: 0.8em; fill: rgb(0, 0, 0);" y="337" opacity="1">2018</text><text x="266.54054054054" text-anchor="middle" transform="translate(0,0)" style="cursor: default; font-size: 0.8em; fill: rgb(0, 0, 0);" y="337" opacity="1">2019</text><text x="315.54954954955" text-anchor="middle" transform="translate(0,0)" style="cursor: default; font-size: 0.8em; fill: rgb(0, 0, 0);" y="337" opacity="1">2020</text><text x="364.55855855856" text-anchor="middle" transform="translate(0,0)" style="cursor: default; font-size: 0.8em; fill: rgb(0, 0, 0);" y="337" opacity="1">2021</text><text x="413.56756756757" text-anchor="middle" transform="translate(0,0)" style="cursor: default; font-size: 0.8em; fill: rgb(0, 0, 0);" y="337" opacity="1">2022</text><text x="462.57657657658" text-anchor="middle" transform="translate(0,0)" style="cursor: default; font-size: 0.8em; fill: rgb(0, 0, 0);" y="337" opacity="1">2023</text><text x="511.58558558559" text-anchor="middle" transform="translate(0,0)" style="cursor: default; font-size: 0.8em; fill: rgb(0, 0, 0);" y="337" opacity="1">2024</text><text x="560.5945945946" text-anchor="middle" transform="translate(0,0)" style="cursor: default; font-size: 0.8em; fill: rgb(0, 0, 0);" y="337" opacity="1">2025</text></g><g class="highcharts-axis-labels highcharts-yaxis-labels" data-z-index="7"><text x="31" text-anchor="end" transform="translate(0,0)" style="cursor: default; font-size: 0.8em; fill: rgb(0, 0, 0);" y="315" opacity="1">0</text><text x="31" text-anchor="end" transform="translate(0,0)" style="cursor: default; font-size: 0.8em; fill: rgb(0, 0, 0);" y="251" opacity="1">50</text><text x="31" text-anchor="end" transform="translate(0,0)" style="cursor: default; font-size: 0.8em; fill: rgb(0, 0, 0);" y="187" opacity="1">100</text><text x="31" text-anchor="end" transform="translate(0,0)" style="cursor: default; font-size: 0.8em; fill: rgb(0, 0, 0);" y="123" opacity="1">150</text><text x="31" text-anchor="end" transform="translate(0,0)" style="cursor: default; font-size: 0.8em; fill: rgb(0, 0, 0);" y="60" opacity="1">200</text></g></svg>