<?xml version="1.0" standalone="no"?><!DOCTYPE svg PUBLIC "-//W3C//DTD SVG 1.1//EN" "http://www.w3.org/Graphics/SVG/1.1/DTD/svg11.dtd"><svg xmlns:xlink="http://www.w3.org/1999/xlink" version="1.1" class="highcharts-root" style="font-family:Arial;font-size:12px;" xmlns="http://www.w3.org/2000/svg" viewBox="0 0 485 415"><desc>Created with Highcharts 8.2.2</desc><defs><clipPath id="highcharts-6erdr4i-62-"><rect x="0" y="0" width="328" height="310" fill="none"></rect></clipPath><clipPath id="highcharts-6erdr4i-74-"><rect x="0" y="0" width="328" height="310" fill="none"></rect></clipPath><clipPath id="highcharts-6erdr4i-119-"><rect x="53" y="56" width="328" height="310" fill="none"></rect></clipPath></defs><rect fill="#fbfbfb" class="highcharts-background" x="0" y="0" width="485" height="428" rx="0" ry="0"></rect><rect fill="none" class="highcharts-plot-background" x="53" y="56" width="328" height="310"></rect><g class="highcharts-pane-group" data-z-index="0"></g><g class="highcharts-grid highcharts-xaxis-grid" data-z-index="1"><path fill="none" data-z-index="1" class="highcharts-grid-line" d="M 161.5 56 L 161.5 366" opacity="1"></path><path fill="none" data-z-index="1" class="highcharts-grid-line" d="M 271.5 56 L 271.5 366" opacity="1"></path><path fill="none" data-z-index="1" class="highcharts-grid-line" d="M 380.5 56 L 380.5 366" opacity="1"></path></g><g class="highcharts-grid highcharts-yaxis-grid" data-z-index="1"><path fill="none" stroke="#B9CFD7" stroke-width="0.5" data-z-index="1" class="highcharts-grid-line" d="M 53 366.25 L 381 366.25" opacity="1"></path><path fill="none" stroke="#B9CFD7" stroke-width="0.5" data-z-index="1" class="highcharts-grid-line" d="M 53 289.25 L 381 289.25" opacity="1"></path><path fill="none" stroke="#B9CFD7" stroke-width="0.5" data-z-index="1" class="highcharts-grid-line" d="M 53 211.25 L 381 211.25" opacity="1"></path><path fill="none" stroke="#B9CFD7" stroke-width="0.5" data-z-index="1" class="highcharts-grid-line" d="M 53 134.25 L 381 134.25" opacity="1"></path><path fill="none" stroke="#B9CFD7" stroke-width="0.5" data-z-index="1" class="highcharts-grid-line" d="M 53 55.75 L 381 55.75" opacity="1"></path></g><rect fill="none" class="highcharts-plot-border" data-z-index="1" x="53" y="56" width="328" height="310"></rect><g class="highcharts-axis highcharts-xaxis" data-z-index="2"><path fill="none" class="highcharts-axis-line" stroke="#B9CFD7" stroke-width="0.5" data-z-index="7" d="M 53 366.25 L 381 366.25"></path></g><g class="highcharts-axis highcharts-yaxis" data-z-index="2"><path fill="none" class="highcharts-axis-line" data-z-index="7" d="M 53 56 L 53 366"></path></g><g class="highcharts-series-group" data-z-index="3"><g class="highcharts-series highcharts-series-0 highcharts-column-series" data-z-index="0.1" opacity="1" transform="translate(53,56) scale(1 1)" clip-path="url(#highcharts-6erdr4i-74-)"><rect x="-846" y="0" width="53" height="4" fill="#999999" opacity="1" class="highcharts-point"></rect><rect x="-737" y="0" width="53" height="4" fill="#999999" opacity="1" class="highcharts-point"></rect><rect x="-628" y="0" width="53" height="4" fill="#999999" opacity="1" class="highcharts-point"></rect><rect x="-409" y="0" width="53" height="5" fill="#999999" opacity="1" class="highcharts-point"></rect><rect x="-300" y="0" width="53" height="5" fill="#999999" opacity="1" class="highcharts-point"></rect><rect x="-190" y="0" width="53" height="4" fill="#999999" opacity="1" class="highcharts-point"></rect><rect x="28" y="0" width="53" height="7" fill="#999999" opacity="1" class="highcharts-point"></rect><rect x="138" y="0" width="53" height="4" fill="#999999" opacity="1" class="highcharts-point"></rect><rect x="247" y="0" width="53" height="4" fill="#999999" opacity="1" class="highcharts-point"></rect></g><g class="highcharts-markers highcharts-series-0 highcharts-column-series" data-z-index="0.1" opacity="1" transform="translate(53,56) scale(1 1)" clip-path="none"></g><g class="highcharts-series highcharts-series-1 highcharts-column-series" data-z-index="0.1" opacity="1" transform="translate(53,56) scale(1 1)" clip-path="url(#highcharts-6erdr4i-74-)"><rect x="-846" y="4" width="53" height="66" fill="#d7e9d2" opacity="1" class="highcharts-point"></rect><rect x="-737" y="4" width="53" height="70" fill="#d7e9d2" opacity="1" class="highcharts-point"></rect><rect x="-628" y="4" width="53" height="52" fill="#d7e9d2" opacity="1" class="highcharts-point"></rect><rect x="-409" y="5" width="53" height="69" fill="#d7e9d2" opacity="1" class="highcharts-point"></rect><rect x="-300" y="5" width="53" height="72" fill="#d7e9d2" opacity="1" class="highcharts-point"></rect><rect x="-190" y="4" width="53" height="47" fill="#d7e9d2" opacity="1" class="highcharts-point"></rect><rect x="28" y="7" width="53" height="125" fill="#d7e9d2" opacity="1" class="highcharts-point"></rect><rect x="138" y="4" width="53" height="132" fill="#d7e9d2" opacity="1" class="highcharts-point"></rect><rect x="247" y="4" width="53" height="97" fill="#d7e9d2" opacity="1" class="highcharts-point"></rect></g><g class="highcharts-markers highcharts-series-1 highcharts-column-series" data-z-index="0.1" opacity="1" transform="translate(53,56) scale(1 1)" clip-path="none"></g><g class="highcharts-series highcharts-series-2 highcharts-column-series" data-z-index="0.1" opacity="1" transform="translate(53,56) scale(1 1)" clip-path="url(#highcharts-6erdr4i-74-)"><rect x="-846" y="70" width="53" height="40" fill="#73ba7c" opacity="1" class="highcharts-point"></rect><rect x="-737" y="74" width="53" height="45" fill="#73ba7c" opacity="1" class="highcharts-point"></rect><rect x="-628" y="56" width="53" height="47" fill="#73ba7c" opacity="1" class="highcharts-point"></rect><rect x="-409" y="74" width="53" height="59" fill="#73ba7c" opacity="1" class="highcharts-point"></rect><rect x="-300" y="77" width="53" height="70" fill="#73ba7c" opacity="1" class="highcharts-point"></rect><rect x="-190" y="51" width="53" height="60" fill="#73ba7c" opacity="1" class="highcharts-point"></rect><rect x="28" y="132" width="53" height="126" fill="#73ba7c" opacity="1" class="highcharts-point"></rect><rect x="138" y="136" width="53" height="132" fill="#73ba7c" opacity="1" class="highcharts-point"></rect><rect x="247" y="101" width="53" height="142" fill="#73ba7c" opacity="1" class="highcharts-point"></rect></g><g class="highcharts-markers highcharts-series-2 highcharts-column-series" data-z-index="0.1" opacity="1" transform="translate(53,56) scale(1 1)" clip-path="none"></g><g class="highcharts-series highcharts-series-3 highcharts-column-series" data-z-index="0.1" opacity="1" transform="translate(53,56) scale(1 1)" clip-path="url(#highcharts-6erdr4i-74-)"><rect x="-846" y="110" width="53" height="32" fill="#44ab2b" opacity="1" class="highcharts-point"></rect><rect x="-737" y="119" width="53" height="34" fill="#44ab2b" opacity="1" class="highcharts-point"></rect><rect x="-628" y="103" width="53" height="45" fill="#44ab2b" opacity="1" class="highcharts-point"></rect><rect x="-409" y="133" width="53" height="32" fill="#44ab2b" opacity="1" class="highcharts-point"></rect><rect x="-300" y="147" width="53" height="37" fill="#44ab2b" opacity="1" class="highcharts-point"></rect><rect x="-190" y="111" width="53" height="46" fill="#44ab2b" opacity="1" class="highcharts-point"></rect><rect x="28" y="258" width="53" height="22" fill="#44ab2b" opacity="1" class="highcharts-point"></rect><rect x="138" y="268" width="53" height="19" fill="#44ab2b" opacity="1" class="highcharts-point"></rect><rect x="247" y="243" width="53" height="34" fill="#44ab2b" opacity="1" class="highcharts-point"></rect></g><g class="highcharts-markers highcharts-series-3 highcharts-column-series" data-z-index="0.1" opacity="1" transform="translate(53,56) scale(1 1)" clip-path="none"></g><g class="highcharts-series highcharts-series-4 highcharts-column-series" data-z-index="0.1" opacity="1" transform="translate(53,56) scale(1 1)" clip-path="url(#highcharts-6erdr4i-74-)"><rect x="-846" y="142" width="53" height="169" fill="#007a2f" opacity="1" class="highcharts-point"></rect><rect x="-737" y="153" width="53" height="158" fill="#007a2f" opacity="1" class="highcharts-point"></rect><rect x="-628" y="148" width="53" height="163" fill="#007a2f" opacity="1" class="highcharts-point"></rect><rect x="-409" y="165" width="53" height="146" fill="#007a2f" opacity="1" class="highcharts-point"></rect><rect x="-300" y="184" width="53" height="127" fill="#007a2f" opacity="1" class="highcharts-point"></rect><rect x="-190" y="157" width="53" height="154" fill="#007a2f" opacity="1" class="highcharts-point"></rect><rect x="28" y="280" width="53" height="31" fill="#007a2f" opacity="1" class="highcharts-point"></rect><rect x="138" y="287" width="53" height="24" fill="#007a2f" opacity="1" class="highcharts-point"></rect><rect x="247" y="277" width="53" height="34" fill="#007a2f" opacity="1" class="highcharts-point"></rect></g><g class="highcharts-markers highcharts-series-4 highcharts-column-series" data-z-index="0.1" opacity="1" transform="translate(53,56) scale(1 1)" clip-path="none"></g></g><text x="10" text-anchor="start" class="highcharts-title" data-z-index="4" style="color:#000000;font-size:14px;font-weight:bold;fill:#000000;" y="21"><tspan>Anteile der Verkehrsmittel (Modal Split), Tagesdistanz</tspan></text><text x="10" text-anchor="start" class="highcharts-subtitle" data-z-index="4" style="color:#000000;font-size:12px;fill:#000000;" y="40"><tspan>in km</tspan></text><text x="10" text-anchor="start" class="highcharts-caption" data-z-index="4" style="color:#666666;fill:#666666;" y="400"></text><g class="highcharts-legend" data-z-index="7" transform="translate(393,144)"><rect fill="none" class="highcharts-legend-box" rx="0" ry="0" x="0" y="0" width="82" height="111" visibility="visible"></rect><g data-z-index="1"><g><g class="highcharts-legend-item highcharts-column-series highcharts-color-undefined highcharts-series-0" data-z-index="1" transform="translate(8,3)"><text x="21" style="color:#333333;cursor:pointer;font-size:12px;font-weight:normal;fill:#333333;" text-anchor="start" data-z-index="2" y="15"><tspan>Übrige</tspan></text><rect x="2" y="4" width="12" height="12" fill="#999999" class="highcharts-point" data-z-index="3"></rect></g><g class="highcharts-legend-item highcharts-column-series highcharts-color-undefined highcharts-series-1" data-z-index="1" transform="translate(8,23)"><text x="21" y="15" style="color:#333333;cursor:pointer;font-size:12px;font-weight:normal;fill:#333333;" text-anchor="start" data-z-index="2"><tspan>ÖV</tspan></text><rect x="2" y="4" width="12" height="12" fill="#d7e9d2" class="highcharts-point" data-z-index="3"></rect></g><g class="highcharts-legend-item highcharts-column-series highcharts-color-undefined highcharts-series-2" data-z-index="1" transform="translate(8,43)"><text x="21" y="15" style="color:#333333;cursor:pointer;font-size:12px;font-weight:normal;fill:#333333;" text-anchor="start" data-z-index="2"><tspan>MIV</tspan></text><rect x="2" y="4" width="12" height="12" fill="#73ba7c" class="highcharts-point" data-z-index="3"></rect></g><g class="highcharts-legend-item highcharts-column-series highcharts-color-undefined highcharts-series-3" data-z-index="1" transform="translate(8,63)"><text x="21" y="15" style="color:#333333;cursor:pointer;font-size:12px;font-weight:normal;fill:#333333;" text-anchor="start" data-z-index="2"><tspan>Velo</tspan></text><rect x="2" y="4" width="12" height="12" fill="#44ab2b" class="highcharts-point" data-z-index="3"></rect></g><g class="highcharts-legend-item highcharts-column-series highcharts-color-undefined highcharts-series-4" data-z-index="1" transform="translate(8,83)"><text x="21" y="15" style="color:#333333;cursor:pointer;font-size:12px;font-weight:normal;fill:#333333;" text-anchor="start" data-z-index="2"><tspan>Zu Fuss</tspan></text><rect x="2" y="4" width="12" height="12" fill="#007a2f" class="highcharts-point" data-z-index="3"></rect></g></g></g></g><g class="highcharts-axis-labels highcharts-xaxis-labels" data-z-index="7"><text x="107.66666666666333" style="color:#000000;cursor:default;font-size:11px;white-space:nowrap;fill:#000000;" text-anchor="middle" transform="translate(0,0)" y="385" opacity="1"><tspan>2010</tspan></text><text x="217.00000000000333" style="color:#000000;cursor:default;font-size:11px;white-space:nowrap;fill:#000000;" text-anchor="middle" transform="translate(0,0)" y="385" opacity="1"><tspan>2015</tspan></text><text x="326.3333333333333" style="color:#000000;cursor:default;font-size:11px;white-space:nowrap;fill:#000000;" text-anchor="middle" transform="translate(0,0)" y="385" opacity="1"><tspan>2021</tspan></text></g><g class="highcharts-axis-labels highcharts-yaxis-labels" data-z-index="7"><text x="38" style="color:#000000;cursor:default;font-size:11px;white-space:nowrap;fill:#000000;" text-anchor="end" transform="translate(0,0)" y="370" opacity="1">0%</text><text x="38" style="color:#000000;cursor:default;font-size:11px;white-space:nowrap;fill:#000000;" text-anchor="end" transform="translate(0,0)" y="293" opacity="1">25%</text><text x="38" style="color:#000000;cursor:default;font-size:11px;white-space:nowrap;fill:#000000;" text-anchor="end" transform="translate(0,0)" y="215" opacity="1">50%</text><text x="38" style="color:#000000;cursor:default;font-size:11px;white-space:nowrap;fill:#000000;" text-anchor="end" transform="translate(0,0)" y="138" opacity="1">75%</text><text x="38" style="color:#000000;cursor:default;font-size:11px;white-space:nowrap;fill:#000000;" text-anchor="end" transform="translate(0,0)" y="60" opacity="1">100%</text></g><text x="10" class="highcharts-credits" text-anchor="start" data-z-index="8" style="cursor:default;color:#000000;font-size:10px;fill:#000000;" y="403"><tspan>Quelle: Bundesamt für Statistik und Bundesamt für Raumentwicklung, Mikrozensus Mobilität und Verkehr.</tspan><tspan x="10" dy="13">Zuletzt geändert: 26.3.2026</tspan></text><g class="highcharts-control-points" data-z-index="99" clip-path="url(#highcharts-6erdr4i-119-)"></g></svg>