<?xml version="1.0" standalone="no"?><!DOCTYPE svg PUBLIC "-//W3C//DTD SVG 1.1//EN" "http://www.w3.org/Graphics/SVG/1.1/DTD/svg11.dtd"><svg xmlns:xlink="http://www.w3.org/1999/xlink" version="1.1" class="highcharts-root" style="font-family:Arial;font-size:12px;" xmlns="http://www.w3.org/2000/svg" viewBox="0 0 485 415"><desc>Created with Highcharts 8.2.0</desc><defs><clipPath id="highcharts-41y1jxy-57-"><rect x="0" y="0" width="403" height="252" fill="none"></rect></clipPath><clipPath id="highcharts-41y1jxy-68-"><rect x="0" y="0" width="403" height="252" fill="none"></rect></clipPath><clipPath id="highcharts-41y1jxy-109-"><rect x="64" y="99" width="403" height="252" fill="none"></rect></clipPath></defs><rect fill="#fbfbfb" class="highcharts-background" x="0" y="0" width="485" height="428" rx="0" ry="0"></rect><rect fill="none" class="highcharts-plot-background" x="64" y="99" width="403" height="252"></rect><g class="highcharts-pane-group" data-z-index="0"></g><g class="highcharts-grid highcharts-xaxis-grid" data-z-index="1"><path fill="none" data-z-index="1" class="highcharts-grid-line" d="M 67.5 99 L 67.5 351" opacity="1"></path><path fill="none" data-z-index="1" class="highcharts-grid-line" d="M 111.5 99 L 111.5 351" opacity="1"></path><path fill="none" data-z-index="1" class="highcharts-grid-line" d="M 155.5 99 L 155.5 351" opacity="1"></path><path fill="none" data-z-index="1" class="highcharts-grid-line" d="M 199.5 99 L 199.5 351" opacity="1"></path><path fill="none" data-z-index="1" class="highcharts-grid-line" d="M 243.5 99 L 243.5 351" opacity="1"></path><path fill="none" data-z-index="1" class="highcharts-grid-line" d="M 286.5 99 L 286.5 351" opacity="1"></path><path fill="none" data-z-index="1" class="highcharts-grid-line" d="M 330.5 99 L 330.5 351" opacity="1"></path><path fill="none" data-z-index="1" class="highcharts-grid-line" d="M 374.5 99 L 374.5 351" opacity="1"></path><path fill="none" data-z-index="1" class="highcharts-grid-line" d="M 418.5 99 L 418.5 351" opacity="1"></path><path fill="none" data-z-index="1" class="highcharts-grid-line" d="M 462.5 99 L 462.5 351" opacity="1"></path></g><g class="highcharts-grid highcharts-yaxis-grid" data-z-index="1"><path fill="none" stroke="#B9CFD7" stroke-width="0.5" data-z-index="1" class="highcharts-grid-line" d="M 64 351.25 L 467 351.25" opacity="1"></path><path fill="none" stroke="#B9CFD7" stroke-width="0.5" data-z-index="1" class="highcharts-grid-line" d="M 64 326.25 L 467 326.25" opacity="1"></path><path fill="none" stroke="#B9CFD7" stroke-width="0.5" data-z-index="1" class="highcharts-grid-line" d="M 64 301.25 L 467 301.25" opacity="1"></path><path fill="none" stroke="#B9CFD7" stroke-width="0.5" data-z-index="1" class="highcharts-grid-line" d="M 64 275.25 L 467 275.25" opacity="1"></path><path fill="none" stroke="#B9CFD7" stroke-width="0.5" data-z-index="1" class="highcharts-grid-line" d="M 64 250.25 L 467 250.25" opacity="1"></path><path fill="none" stroke="#B9CFD7" stroke-width="0.5" data-z-index="1" class="highcharts-grid-line" d="M 64 225.25 L 467 225.25" opacity="1"></path><path fill="none" stroke="#B9CFD7" stroke-width="0.5" data-z-index="1" class="highcharts-grid-line" d="M 64 200.25 L 467 200.25" opacity="1"></path><path fill="none" stroke="#B9CFD7" stroke-width="0.5" data-z-index="1" class="highcharts-grid-line" d="M 64 175.25 L 467 175.25" opacity="1"></path><path fill="none" stroke="#B9CFD7" stroke-width="0.5" data-z-index="1" class="highcharts-grid-line" d="M 64 149.25 L 467 149.25" opacity="1"></path><path fill="none" stroke="#B9CFD7" stroke-width="0.5" data-z-index="1" class="highcharts-grid-line" d="M 64 124.25 L 467 124.25" opacity="1"></path><path fill="none" stroke="#B9CFD7" stroke-width="0.5" data-z-index="1" class="highcharts-grid-line" d="M 64 98.75 L 467 98.75" opacity="1"></path></g><rect fill="none" class="highcharts-plot-border" data-z-index="1" x="64" y="99" width="403" height="252"></rect><g class="highcharts-axis highcharts-xaxis" data-z-index="2"><path fill="none" class="highcharts-axis-line" stroke="#B9CFD7" stroke-width="0.5" data-z-index="7" d="M 64 351.25 L 467 351.25"></path></g><g class="highcharts-axis highcharts-yaxis" data-z-index="2"><path fill="none" class="highcharts-axis-line" data-z-index="7" d="M 64 99 L 64 351"></path></g><g class="highcharts-series-group" data-z-index="3"><g class="highcharts-series highcharts-series-0 highcharts-line-series" data-z-index="0.1" opacity="1" transform="translate(64,99) scale(1 1)" clip-path="url(#highcharts-41y1jxy-68-)"><path fill="none" d="M 3.9509803921533 84.015792 L 47.85076252723 81.12081599999999 L 91.750544662307 78.705648 L 135.65032679738 67.00175999999999 L 179.55010893246 59.47300799999999 L 223.44989106754 53.88969599999999 L 267.34967320262 53.69515200000001 L 311.24945533769 57.93177600000001 L 355.14923747277 46.663343999999995 L 399.04901960785 31.832639999999998" class="highcharts-graph" data-z-index="1" stroke="#6F6F6F" stroke-width="2" stroke-linejoin="round" stroke-linecap="round"></path></g><g class="highcharts-markers highcharts-series-0 highcharts-line-series" data-z-index="0.1" opacity="1" transform="translate(64,99) scale(1 1)" clip-path="none"></g><g class="highcharts-series highcharts-series-1 highcharts-line-series" data-z-index="0.1" opacity="1" transform="translate(64,99) scale(1 1)" clip-path="url(#highcharts-41y1jxy-68-)"><path fill="none" d="M 3.9509803921533 181.53575999999998 L 47.85076252723 179.839296 L 91.750544662307 179.160912 L 135.65032679738 179.270784 L 179.55010893246 178.84540800000002 L 223.44989106754 178.883712 L 267.34967320262 179.17704 L 311.24945533769 180.73944 L 355.14923747277 177.18523199999998 L 399.04901960785 173.870928" class="highcharts-graph" data-z-index="1" stroke="#FF8028" stroke-width="2" stroke-linejoin="round" stroke-linecap="round"></path></g><g class="highcharts-markers highcharts-series-1 highcharts-line-series" data-z-index="0.1" opacity="1" transform="translate(64,99) scale(1 1)" clip-path="none"></g><g class="highcharts-series highcharts-series-2 highcharts-line-series" data-z-index="0.1" opacity="1" transform="translate(64,99) scale(1 1)" clip-path="url(#highcharts-41y1jxy-68-)"><path fill="none" d="M 3.9509803921533 185.753232 L 47.85076252723 185.697792 L 91.750544662307 187.027344 L 135.65032679738 187.030368 L 179.55010893246 187.037424 L 223.44989106754 186.370128 L 267.34967320262 185.84697599999998 L 311.24945533769 187.17350399999998 L 355.14923747277 186.71788800000002 L 399.04901960785 183.87936000000002" class="highcharts-graph" data-z-index="1" stroke="#A8C3CA" stroke-width="2" stroke-linejoin="round" stroke-linecap="round"></path></g><g class="highcharts-markers highcharts-series-2 highcharts-line-series" data-z-index="0.1" opacity="1" transform="translate(64,99) scale(1 1)" clip-path="none"></g><g class="highcharts-series highcharts-series-3 highcharts-line-series" data-z-index="0.1" opacity="1" transform="translate(64,99) scale(1 1)" clip-path="url(#highcharts-41y1jxy-68-)"><path fill="none" d="M 3.9509803921533 150.582096 L 47.85076252723 149.83315199999998 L 91.750544662307 151.19495999999998 L 135.65032679738 151.447968 L 179.55010893246 151.258464 L 223.44989106754 146.87971199999998 L 267.34967320262 149.0832 L 311.24945533769 154.290528 L 355.14923747277 153.013392 L 399.04901960785 146.824272" class="highcharts-graph" data-z-index="1" stroke="#008AC3" stroke-width="2" stroke-linejoin="round" stroke-linecap="round"></path></g><g class="highcharts-markers highcharts-series-3 highcharts-line-series" data-z-index="0.1" opacity="1" transform="translate(64,99) scale(1 1)" clip-path="none"></g><g class="highcharts-series highcharts-series-4 highcharts-line-series" data-z-index="0.1" opacity="1" transform="translate(64,99) scale(1 1)" clip-path="url(#highcharts-41y1jxy-68-)"><path fill="none" d="M 3.9509803921533 169.919568 L 47.85076252723 169.57080000000002 L 91.750544662307 170.259264 L 135.65032679738 169.94678399999998 L 179.55010893246 170.043552 L 223.44989106754 167.701968 L 267.34967320262 167.42980799999998 L 311.24945533769 170.406432 L 355.14923747277 165.58113600000001 L 399.04901960785 161.860608" class="highcharts-graph" data-z-index="1" stroke="#B00000" stroke-width="2" stroke-linejoin="round" stroke-linecap="round"></path></g><g class="highcharts-markers highcharts-series-4 highcharts-line-series" data-z-index="0.1" opacity="1" transform="translate(64,99) scale(1 1)" clip-path="none"></g></g><text x="10" text-anchor="start" class="highcharts-title" data-z-index="4" style="color:#000000;font-size:14px;font-weight:bold;fill:#000000;" y="21"><tspan>Nominales Bruttoinlandprodukt pro Kopf nach Kanton</tspan></text><text x="10" text-anchor="start" class="highcharts-subtitle" data-z-index="4" style="color:#000000;font-size:12px;font-weight:normal;fill:#000000;" y="40"><tspan>in Franken</tspan></text><text x="10" text-anchor="start" class="highcharts-caption" data-z-index="4" style="color:#666666;fill:#666666;" y="385"></text><g class="highcharts-legend" data-z-index="7" transform="translate(55,56)"><rect fill="none" class="highcharts-legend-box" rx="0" ry="0" x="0" y="0" width="282" height="31" visibility="visible"></rect><g data-z-index="1"><g><g class="highcharts-legend-item highcharts-line-series highcharts-color-undefined highcharts-series-0" data-z-index="1" transform="translate(8,3)"><path fill="none" d="M 0 11 L 16 11" class="highcharts-graph" stroke="#6F6F6F" stroke-width="2"></path><text x="21" style="color:#333333;cursor:pointer;font-size:12px;font-weight:normal;fill:#333333;" text-anchor="start" data-z-index="2" y="15"><tspan>BS</tspan></text></g><g class="highcharts-legend-item highcharts-line-series highcharts-color-undefined highcharts-series-1" data-z-index="1" transform="translate(65,3)"><path fill="none" d="M 0 11 L 16 11" class="highcharts-graph" stroke="#FF8028" stroke-width="2"></path><text x="21" y="15" style="color:#333333;cursor:pointer;font-size:12px;font-weight:normal;fill:#333333;" text-anchor="start" data-z-index="2"><tspan>BL</tspan></text></g><g class="highcharts-legend-item highcharts-line-series highcharts-color-undefined highcharts-series-2" data-z-index="1" transform="translate(121,3)"><path fill="none" d="M 0 11 L 16 11" class="highcharts-graph" stroke="#A8C3CA" stroke-width="2"></path><text x="21" y="15" style="color:#333333;cursor:pointer;font-size:12px;font-weight:normal;fill:#333333;" text-anchor="start" data-z-index="2"><tspan>AG</tspan></text></g><g class="highcharts-legend-item highcharts-line-series highcharts-color-undefined highcharts-series-3" data-z-index="1" transform="translate(178,3)"><path fill="none" d="M 0 11 L 16 11" class="highcharts-graph" stroke="#008AC3" stroke-width="2"></path><text x="21" y="15" style="color:#333333;cursor:pointer;font-size:12px;font-weight:normal;fill:#333333;" text-anchor="start" data-z-index="2"><tspan>ZH</tspan></text></g><g class="highcharts-legend-item highcharts-line-series highcharts-color-undefined highcharts-series-4" data-z-index="1" transform="translate(235,3)"><path fill="none" d="M 0 11 L 16 11" class="highcharts-graph" stroke="#B00000" stroke-width="2"></path><text x="21" y="15" style="color:#333333;cursor:pointer;font-size:12px;font-weight:normal;fill:#333333;" text-anchor="start" data-z-index="2"><tspan>CH</tspan></text></g></g></g></g><g class="highcharts-axis-labels highcharts-xaxis-labels" data-z-index="7"><text x="67.950980392153" style="color:#000000;cursor:default;font-size:11px;fill:#000000;" text-anchor="middle" transform="translate(0,0)" y="370" opacity="1">2013</text><text x="111.85076252723" style="color:#000000;cursor:default;font-size:11px;fill:#000000;" text-anchor="middle" transform="translate(0,0)" y="370" opacity="1">2014</text><text x="155.75054466231" style="color:#000000;cursor:default;font-size:11px;fill:#000000;" text-anchor="middle" transform="translate(0,0)" y="370" opacity="1">2015</text><text x="199.65032679738" style="color:#000000;cursor:default;font-size:11px;fill:#000000;" text-anchor="middle" transform="translate(0,0)" y="370" opacity="1">2016</text><text x="243.55010893246" style="color:#000000;cursor:default;font-size:11px;fill:#000000;" text-anchor="middle" transform="translate(0,0)" y="370" opacity="1">2017</text><text x="287.44989106754" style="color:#000000;cursor:default;font-size:11px;fill:#000000;" text-anchor="middle" transform="translate(0,0)" y="370" opacity="1">2018</text><text x="331.34967320262" style="color:#000000;cursor:default;font-size:11px;fill:#000000;" text-anchor="middle" transform="translate(0,0)" y="370" opacity="1">2019</text><text x="375.24945533769" style="color:#000000;cursor:default;font-size:11px;fill:#000000;" text-anchor="middle" transform="translate(0,0)" y="370" opacity="1">2020</text><text x="419.14923747277" style="color:#000000;cursor:default;font-size:11px;fill:#000000;" text-anchor="middle" transform="translate(0,0)" y="370" opacity="1">2021</text><text x="463" style="color:#000000;cursor:default;font-size:11px;fill:#000000;" text-anchor="middle" transform="translate(0,0)" y="370" opacity="1">2022</text></g><g class="highcharts-axis-labels highcharts-yaxis-labels" data-z-index="7"><text x="49" style="color:#000000;cursor:default;font-size:11px;fill:#000000;" text-anchor="end" transform="translate(0,0)" y="355" opacity="1">0</text><text x="49" style="color:#000000;cursor:default;font-size:11px;fill:#000000;" text-anchor="end" transform="translate(0,0)" y="330" opacity="1"><tspan>25 000</tspan></text><text x="49" style="color:#000000;cursor:default;font-size:11px;fill:#000000;" text-anchor="end" transform="translate(0,0)" y="305" opacity="1"><tspan>50 000</tspan></text><text x="49" style="color:#000000;cursor:default;font-size:11px;fill:#000000;" text-anchor="end" transform="translate(0,0)" y="279" opacity="1"><tspan>75 000</tspan></text><text x="49" style="color:#000000;cursor:default;font-size:11px;fill:#000000;" text-anchor="end" transform="translate(0,0)" y="254" opacity="1"><tspan>100 000</tspan></text><text x="49" style="color:#000000;cursor:default;font-size:11px;fill:#000000;" text-anchor="end" transform="translate(0,0)" y="229" opacity="1"><tspan>125 000</tspan></text><text x="49" style="color:#000000;cursor:default;font-size:11px;fill:#000000;" text-anchor="end" transform="translate(0,0)" y="204" opacity="1"><tspan>150 000</tspan></text><text x="49" style="color:#000000;cursor:default;font-size:11px;fill:#000000;" text-anchor="end" transform="translate(0,0)" y="179" opacity="1"><tspan>175 000</tspan></text><text x="49" style="color:#000000;cursor:default;font-size:11px;fill:#000000;" text-anchor="end" transform="translate(0,0)" y="153" opacity="1"><tspan>200 000</tspan></text><text x="49" style="color:#000000;cursor:default;font-size:11px;fill:#000000;" text-anchor="end" transform="translate(0,0)" y="128" opacity="1"><tspan>225 000</tspan></text><text x="49" style="color:#000000;cursor:default;font-size:11px;fill:#000000;" text-anchor="end" transform="translate(0,0)" y="103" opacity="1"><tspan>250 000</tspan></text></g><text x="10" class="highcharts-credits" text-anchor="start" data-z-index="8" style="cursor:default;color:#000000;font-size:10px;fill:#000000;" y="403"><tspan>Quelle: BAK Economics.</tspan><tspan x="10" dy="13">Zuletzt geändert: 19.3.2024</tspan></text><g class="highcharts-control-points" data-z-index="99" clip-path="url(#highcharts-41y1jxy-109-)"></g></svg>