<?xml version="1.0" standalone="no"?><!DOCTYPE svg PUBLIC "-//W3C//DTD SVG 1.1//EN" "http://www.w3.org/Graphics/SVG/1.1/DTD/svg11.dtd"><svg xmlns:xlink="http://www.w3.org/1999/xlink" version="1.1" class="highcharts-root" style="font-family:Arial;font-size:12px;" xmlns="http://www.w3.org/2000/svg" viewBox="0 0 485 415"><desc>Created with Highstock 6.1.1</desc><defs><clipPath id="highcharts-zp6iic2-6"><rect x="0" y="0" width="423" height="255" fill="none"></rect></clipPath><clipPath id="highcharts-zp6iic2-7"><rect x="0" y="0" width="423" height="255" fill="none"></rect></clipPath></defs><rect fill="#fbfbfb" class="highcharts-background" x="0" y="0" width="485" height="428" rx="0" ry="0"></rect><rect fill="none" class="highcharts-plot-background" x="52" y="97" width="423" height="255"></rect><g class="highcharts-pane-group" data-z-index="0"></g><g class="highcharts-grid highcharts-xaxis-grid " data-z-index="1"><path fill="none" data-z-index="1" class="highcharts-grid-line" d="M 53.5 97 L 53.5 352" opacity="1"></path><path fill="none" data-z-index="1" class="highcharts-grid-line" d="M 95.5 97 L 95.5 352" opacity="1"></path><path fill="none" data-z-index="1" class="highcharts-grid-line" d="M 137.5 97 L 137.5 352" opacity="1"></path><path fill="none" data-z-index="1" class="highcharts-grid-line" d="M 180.5 97 L 180.5 352" opacity="1"></path><path fill="none" data-z-index="1" class="highcharts-grid-line" d="M 222.5 97 L 222.5 352" opacity="1"></path><path fill="none" data-z-index="1" class="highcharts-grid-line" d="M 264.5 97 L 264.5 352" opacity="1"></path><path fill="none" data-z-index="1" class="highcharts-grid-line" d="M 307.5 97 L 307.5 352" opacity="1"></path><path fill="none" data-z-index="1" class="highcharts-grid-line" d="M 349.5 97 L 349.5 352" opacity="1"></path><path fill="none" data-z-index="1" class="highcharts-grid-line" d="M 391.5 97 L 391.5 352" opacity="1"></path><path fill="none" data-z-index="1" class="highcharts-grid-line" d="M 433.5 97 L 433.5 352" opacity="1"></path></g><g class="highcharts-grid highcharts-yaxis-grid " data-z-index="1"><path fill="none" stroke="#B9CFD7" stroke-width="0.5" data-z-index="1" class="highcharts-grid-line" d="M 52 352.25 L 475 352.25" opacity="1"></path><path fill="none" stroke="#B9CFD7" stroke-width="0.5" data-z-index="1" class="highcharts-grid-line" d="M 52 301.25 L 475 301.25" opacity="1"></path><path fill="none" stroke="#B9CFD7" stroke-width="0.5" data-z-index="1" class="highcharts-grid-line" d="M 52 250.25 L 475 250.25" opacity="1"></path><path fill="none" stroke="#B9CFD7" stroke-width="0.5" data-z-index="1" class="highcharts-grid-line" d="M 52 199.25 L 475 199.25" opacity="1"></path><path fill="none" stroke="#B9CFD7" stroke-width="0.5" data-z-index="1" class="highcharts-grid-line" d="M 52 148.25 L 475 148.25" opacity="1"></path><path fill="none" stroke="#B9CFD7" stroke-width="0.5" data-z-index="1" class="highcharts-grid-line" d="M 52 96.75 L 475 96.75" opacity="1"></path></g><rect fill="none" class="highcharts-plot-border" data-z-index="1" x="52" y="97" width="423" height="255"></rect><g class="highcharts-axis highcharts-xaxis " data-z-index="2"><path fill="none" class="highcharts-axis-line" stroke="#B9CFD7" stroke-width="0.5" data-z-index="7" d="M 52 352.25 L 475 352.25"></path></g><g class="highcharts-axis highcharts-yaxis " data-z-index="2"><path fill="none" class="highcharts-axis-line" data-z-index="7" d="M 52 97 L 52 352"></path></g><g class="highcharts-series-group" data-z-index="3"><g data-z-index="0.1" class="highcharts-series highcharts-series-0 highcharts-line-series " transform="translate(52,97) scale(1 1)" clip-path="url(#highcharts-zp6iic2-7)"><path fill="none" d="M 1.7625 82.21200000000002 L 5.2875 82.62 L 8.8125 72.828 L 12.3375 70.17600000000002 L 15.8625 72.42000000000002 L 19.3875 64.566 L 22.9125 53.346000000000004 L 26.4375 58.650000000000006 L 29.9625 52.73400000000001 L 33.4875 44.268 L 37.0125 43.860000000000014 L 40.5375 35.80200000000002 L 44.0625 31.31400000000002 L 47.5875 39.78 L 51.1125 43.146000000000015 L 54.6375 49.164000000000016 L 58.1625 51.61200000000002 L 61.6875 57.426000000000016 L 65.2125 52.428000000000026 L 68.7375 50.286 L 72.2625 49.878000000000014 L 75.7875 54.774 L 79.3125 60.58800000000002 L 82.8375 58.446000000000026 L 86.3625 54.46800000000002 L 89.8875 56.610000000000014 L 93.4125 61.404000000000025 L 96.9375 83.13000000000002 L 100.4625 84.66000000000003 L 103.9875 87.72 L 107.5125 85.06800000000001 L 111.0375 83.74200000000002 L 114.5625 82.518 L 118.0875 84.864 L 121.6125 84.15 L 125.1375 81.60000000000002 L 128.6625 73.95000000000002 L 132.1875 73.84800000000001 L 135.7125 77.214 L 139.2375 79.86600000000001 L 142.7625 78.744 L 146.2875 85.98600000000002 L 149.8125 81.19200000000001 L 153.3375 80.58000000000001 L 156.8625 76.70400000000001 L 160.3875 76.29600000000002 L 163.9125 77.11200000000002 L 167.4375 69.768 L 170.9625 62.322 L 174.4875 65.382 L 178.0125 72.93 L 181.5375 76.19400000000002 L 185.0625 81.702 L 188.5875 90.47400000000002 L 192.1125 83.436 L 195.6375 83.13000000000002 L 199.1625 81.09 L 202.6875 83.334 L 206.2125 82.518 L 209.7375 76.5 L 213.2625 79.05000000000001 L 216.7875 79.86600000000001 L 220.3125 83.334 L 223.8375 86.19 L 227.3625 93.024 L 230.8875 96.186 L 234.4125 95.982 L 237.9375 95.982 L 241.4625 94.75800000000001 L 244.9875 95.166 L 248.5125 88.84200000000001 L 252.0375 87.006 L 255.5625 75.48000000000002 L 259.0875 80.07000000000002 L 262.6125 79.35600000000002 L 266.1375 83.334 L 269.6625 88.536 L 273.1875 87.41400000000002 L 276.7125 87.31200000000001 L 280.2375 77.316 L 283.7625 74.358 L 287.2875 77.72400000000002 L 290.8125 79.458 L 294.3375 80.88600000000002 L 297.8625 75.48000000000002 L 301.3875 69.36000000000001 L 304.9125 73.644 L 308.4375 70.482 L 311.9625 73.23600000000002 L 315.4875 78.43800000000002 L 319.0125 83.334 L 322.5375 74.86800000000002 L 326.0625 75.072 L 329.5875 73.644 L 333.1125 72.42000000000002 L 336.6375 72.52200000000002 L 340.1625 66.40200000000002 L 343.6875 71.60400000000001 L 347.2125 70.07400000000001 L 350.7375 69.156 L 354.2625 80.47800000000001 L 357.7875 85.476 L 361.3125 86.394 L 364.8375 74.97 L 368.3625 84.15 L 371.8875 83.02800000000002 L 375.4125 83.74200000000002 L 378.9375 83.84400000000002 L 382.4625 82.11000000000001 L 385.9875 86.19 L 389.5125 89.76000000000002 L 393.0375 94.86000000000001 L 396.5625 98.63400000000001 L 400.0875 99.45000000000002 L 403.6125 97.20600000000002 L 407.1375 96.28800000000001 L 410.6625 104.85600000000002 L 414.1875 108.32400000000001 L 417.7125 109.14000000000001 L 421.2375 105.162" class="highcharts-graph" data-z-index="1" stroke="#B00000" stroke-width="2" stroke-linejoin="round" stroke-linecap="round"></path></g><g data-z-index="0.1" class="highcharts-markers highcharts-series-0 highcharts-line-series " transform="translate(52,97) scale(1 1)" clip-path="none"></g><g data-z-index="0.1" class="highcharts-series highcharts-series-1 highcharts-line-series " transform="translate(52,97) scale(1 1)" clip-path="url(#highcharts-zp6iic2-7)"><path fill="none" d="M 1.7625 182.478 L 5.2875 178.90800000000002 L 8.8125 180.132 L 12.3375 183.39600000000002 L 15.8625 184.11 L 19.3875 183.804 L 22.9125 182.07 L 26.4375 181.356 L 29.9625 178.19400000000002 L 33.4875 175.746 L 37.0125 173.094 L 40.5375 161.67000000000002 L 44.0625 157.488 L 47.5875 159.63 L 51.1125 165.64800000000002 L 54.6375 172.99200000000002 L 58.1625 173.91000000000003 L 61.6875 178.09199999999998 L 65.2125 177.888 L 68.7375 177.68400000000003 L 72.2625 175.644 L 75.7875 179.01 L 79.3125 175.236 L 82.8375 165.036 L 86.3625 163.812 L 89.8875 167.07600000000002 L 93.4125 167.382 L 96.9375 174.828 L 100.4625 180.642 L 103.9875 182.88600000000002 L 107.5125 183.192 L 111.0375 182.88600000000002 L 114.5625 182.274 L 118.0875 181.662 L 121.6125 180.948 L 125.1375 173.502 L 128.6625 168.3 L 132.1875 167.178 L 135.7125 171.36 L 139.2375 171.666 L 142.7625 175.44 L 146.2875 180.336 L 149.8125 183.906 L 153.3375 184.926 L 156.8625 184.008 L 160.3875 175.746 L 163.9125 172.38 L 167.4375 162.894 L 170.9625 157.59 L 174.4875 158.406 L 178.0125 160.752 L 181.5375 168.402 L 185.0625 173.91000000000003 L 188.5875 175.33800000000002 L 192.1125 175.848 L 195.6375 175.746 L 199.1625 177.582 L 202.6875 174.42000000000002 L 206.2125 168.912 L 209.7375 157.18200000000002 L 213.2625 154.428 L 216.7875 156.46800000000002 L 220.3125 162.282 L 223.8375 169.014 L 227.3625 175.542 L 230.8875 180.744 L 234.4125 180.438 L 237.9375 180.54000000000002 L 241.4625 179.01 L 244.9875 170.85000000000002 L 248.5125 160.85399999999998 L 252.0375 149.12400000000002 L 255.5625 144.942 L 259.0875 147.288 L 262.6125 151.26600000000002 L 266.1375 155.55 L 269.6625 159.732 L 273.1875 165.852 L 276.7125 169.93200000000002 L 280.2375 170.442 L 283.7625 164.322 L 287.2875 162.69 L 290.8125 156.264 L 294.3375 151.572 L 297.8625 142.188 L 301.3875 141.168 L 304.9125 144.942 L 308.4375 145.758 L 311.9625 151.368 L 315.4875 154.32600000000002 L 319.0125 159.426 L 322.5375 160.44600000000003 L 326.0625 160.85399999999998 L 329.5875 160.95600000000002 L 333.1125 148.308 L 336.6375 137.292 L 340.1625 130.45800000000003 L 343.6875 137.598 L 347.2125 143.514 L 350.7375 150.348 L 354.2625 157.794 L 357.7875 161.67000000000002 L 361.3125 163.506 L 364.8375 163.506 L 368.3625 166.056 L 371.8875 162.894 L 375.4125 159.324 L 378.9375 148.512 L 382.4625 144.534 L 385.9875 150.45 L 389.5125 150.858 L 393.0375 158.81400000000002 L 396.5625 162.69 L 400.0875 166.566 L 403.6125 167.382 L 407.1375 167.688 L 410.6625 165.64800000000002 L 414.1875 165.138 L 417.7125 158.508 L 421.2375 145.554" class="highcharts-graph" data-z-index="1" stroke="#008AC3" stroke-width="2" stroke-linejoin="round" stroke-linecap="round"></path></g><g data-z-index="0.1" class="highcharts-markers highcharts-series-1 highcharts-line-series " transform="translate(52,97) scale(1 1)" clip-path="none"></g><g data-z-index="0.1" class="highcharts-series highcharts-series-2 highcharts-line-series " transform="translate(52,97) scale(1 1)" clip-path="url(#highcharts-zp6iic2-7)"><path fill="none" d="M 1.7625 251.532 L 5.2875 252.144 L 8.8125 250.92 L 12.3375 250.716 L 15.8625 250.512 L 19.3875 249.696 L 22.9125 249.594 L 26.4375 249.492 L 29.9625 249.696 L 33.4875 249.288 L 37.0125 249.288 L 40.5375 248.88 L 44.0625 249.084 L 47.5875 249.492 L 51.1125 250.002 L 54.6375 250.002 L 58.1625 250.716 L 61.6875 250.614 L 65.2125 250.512 L 68.7375 250.614 L 72.2625 250.614 L 75.7875 249.798 L 79.3125 250.308 L 82.8375 249.696 L 86.3625 248.982 L 89.8875 249.186 L 93.4125 249.798 L 96.9375 249.696 L 100.4625 249.594 L 103.9875 250.104 L 107.5125 250.206 L 111.0375 249.9 L 114.5625 249.798 L 118.0875 249.39 L 121.6125 248.778 L 125.1375 248.472 L 128.6625 248.37 L 132.1875 248.676 L 135.7125 248.574 L 139.2375 248.88 L 142.7625 248.676 L 146.2875 249.084 L 149.8125 248.574 L 153.3375 248.268 L 156.8625 248.064 L 160.3875 248.37 L 163.9125 247.962 L 167.4375 246.432 L 170.9625 246.33 L 174.4875 247.14600000000002 L 178.0125 246.636 L 181.5375 246.738 L 185.0625 246.636 L 188.5875 246.228 L 192.1125 245.922 L 195.6375 246.228 L 199.1625 246.024 L 202.6875 245.922 L 206.2125 245.82 L 209.7375 245.208 L 213.2625 243.882 L 216.7875 244.188 L 220.3125 243.984 L 223.8375 243.78 L 227.3625 245.514 L 230.8875 245.922 L 234.4125 245.004 L 237.9375 246.024 L 241.4625 245.106 L 244.9875 245.616 L 248.5125 245.004 L 252.0375 243.984 L 255.5625 243.066 L 259.0875 242.556 L 262.6125 242.148 L 266.1375 242.556 L 269.6625 243.066 L 273.1875 242.148 L 276.7125 243.066 L 280.2375 243.27 L 283.7625 242.76 L 287.2875 242.148 L 290.8125 241.536 L 294.3375 239.7 L 297.8625 239.802 L 301.3875 238.068 L 304.9125 238.272 L 308.4375 236.13 L 311.9625 236.028 L 315.4875 237.354 L 319.0125 237.354 L 322.5375 238.17000000000002 L 326.0625 237.66 L 329.5875 236.946 L 333.1125 236.334 L 336.6375 234.09 L 340.1625 234.804 L 343.6875 234.804 L 347.2125 234.804 L 350.7375 236.844 L 354.2625 237.864 L 357.7875 236.742 L 361.3125 238.374 L 364.8375 238.782 L 368.3625 239.496 L 371.8875 239.7 L 375.4125 240.414 L 378.9375 239.394 L 382.4625 239.496 L 385.9875 239.802 L 389.5125 239.7 L 393.0375 239.598 L 396.5625 239.904 L 400.0875 242.556 L 403.6125 242.65800000000002 L 407.1375 243.168 L 410.6625 243.678 L 414.1875 241.23 L 417.7125 240.822 L 421.2375 238.476" class="highcharts-graph" data-z-index="1" stroke="#083038" stroke-width="2" stroke-linejoin="round" stroke-linecap="round"></path></g><g data-z-index="0.1" class="highcharts-markers highcharts-series-2 highcharts-line-series " transform="translate(52,97) scale(1 1)" clip-path="none"></g><g data-z-index="0.1" class="highcharts-series highcharts-series-3 highcharts-line-series " transform="translate(52,97) scale(1 1)" clip-path="url(#highcharts-zp6iic2-7)"><path fill="none" d="M 1.7625 156.774 L 5.2875 157.998 L 8.8125 158.304 L 12.3375 160.24200000000002 L 15.8625 156.36599999999999 L 19.3875 151.776 L 22.9125 154.53 L 26.4375 154.02 L 29.9625 149.226 L 33.4875 143.514 L 37.0125 140.454 L 40.5375 132.804 L 44.0625 131.68200000000002 L 47.5875 134.538 L 51.1125 138.618 L 54.6375 141.066 L 58.1625 148.308 L 61.6875 153 L 65.2125 156.876 L 68.7375 155.142 L 72.2625 158.61 L 75.7875 156.978 L 79.3125 153.51 L 82.8375 146.268 L 86.3625 142.086 L 89.8875 146.98200000000003 L 93.4125 150.654 L 96.9375 170.952 L 100.4625 173.298 L 103.9875 174.012 L 107.5125 175.236 L 111.0375 174.828 L 114.5625 174.012 L 118.0875 172.89 L 121.6125 170.64600000000002 L 125.1375 165.75 L 128.6625 162.282 L 132.1875 160.44600000000003 L 135.7125 163.2 L 139.2375 166.26 L 142.7625 168.198 L 146.2875 174.522 L 149.8125 177.072 L 153.3375 175.848 L 156.8625 173.91000000000003 L 160.3875 172.686 L 163.9125 168.81 L 167.4375 163.30200000000002 L 170.9625 160.752 L 174.4875 162.486 L 178.0125 163.608 L 181.5375 168.096 L 185.0625 171.972 L 188.5875 173.70600000000002 L 192.1125 176.05200000000002 L 195.6375 176.76600000000002 L 199.1625 173.808 L 202.6875 172.38 L 206.2125 169.626 L 209.7375 164.322 L 213.2625 163.812 L 216.7875 167.79000000000002 L 220.3125 168.198 L 223.8375 173.60399999999998 L 227.3625 178.90800000000002 L 230.8875 181.96800000000002 L 234.4125 181.662 L 237.9375 180.642 L 241.4625 177.48000000000002 L 244.9875 177.174 L 248.5125 174.93 L 252.0375 165.64800000000002 L 255.5625 163.506 L 259.0875 165.954 L 262.6125 166.464 L 266.1375 169.21800000000002 L 269.6625 169.83 L 273.1875 171.156 L 276.7125 175.746 L 280.2375 176.256 L 283.7625 172.074 L 287.2875 170.13600000000002 L 290.8125 167.586 L 294.3375 162.18 L 297.8625 159.936 L 301.3875 157.08 L 304.9125 161.772 L 308.4375 161.262 L 311.9625 166.056 L 315.4875 170.238 L 319.0125 172.788 L 322.5375 172.686 L 326.0625 174.216 L 329.5875 173.4 L 333.1125 169.42200000000003 L 336.6375 164.832 L 340.1625 161.87400000000002 L 343.6875 160.344 L 347.2125 164.424 L 350.7375 169.626 L 354.2625 171.36 L 357.7875 170.85000000000002 L 361.3125 173.298 L 364.8375 172.89 L 368.3625 177.888 L 371.8875 176.154 L 375.4125 175.032 L 378.9375 169.21800000000002 L 382.4625 167.28 L 385.9875 170.952 L 389.5125 171.156 L 393.0375 175.33800000000002 L 396.5625 179.724 L 400.0875 183.498 L 403.6125 186.252 L 407.1375 187.06799999999998 L 410.6625 186.762 L 414.1875 185.946 L 417.7125 184.008 L 421.2375 180.336" class="highcharts-graph" data-z-index="1" stroke="#FF8028" stroke-width="2" stroke-linejoin="round" stroke-linecap="round"></path></g><g data-z-index="0.1" class="highcharts-markers highcharts-series-3 highcharts-line-series " transform="translate(52,97) scale(1 1)" clip-path="none"></g></g><text x="10" text-anchor="start" class="highcharts-title" data-z-index="4" style="color:#000000;font-size:14px;font-weight:bold;fill:#000000;" y="21"><tspan>Arbeitslose nach Ländergruppe</tspan></text><text x="10" text-anchor="start" class="highcharts-subtitle" data-z-index="4" style="color:#000000;font-size:12px;font-weight:normal;font-family:Arial;fill:#000000;" y="40"><tspan>Basel-Stadt</tspan></text><g class="highcharts-legend" data-z-index="7" transform="translate(44,55)"><rect fill="none" class="highcharts-legend-box" rx="0" ry="0" x="0" y="0" width="368" height="30" visibility="visible"></rect><g data-z-index="1"><g><g class="highcharts-legend-item highcharts-line-series highcharts-color-undefined highcharts-series-0" data-z-index="1" transform="translate(8,3)"><path fill="none" d="M 0 11 L 16 11" class="highcharts-graph" stroke="#B00000" stroke-width="2"></path><text x="21" style="color:#333333;font-size:12px;font-weight:normal;cursor:pointer;fill:#333333;" text-anchor="start" data-z-index="2" y="15"><tspan>Schweiz</tspan></text></g><g class="highcharts-legend-item highcharts-line-series highcharts-color-undefined highcharts-series-1" data-z-index="1" transform="translate(83.65625,3)"><path fill="none" d="M 0 11 L 16 11" class="highcharts-graph" stroke="#008AC3" stroke-width="2"></path><text x="21" y="15" style="color:#333333;font-size:12px;font-weight:normal;cursor:pointer;fill:#333333;" text-anchor="start" data-z-index="2"><tspan>EU15/EFTA</tspan></text></g><g class="highcharts-legend-item highcharts-line-series highcharts-color-undefined highcharts-series-2" data-z-index="1" transform="translate(178.640625,3)"><path fill="none" d="M 0 11 L 16 11" class="highcharts-graph" stroke="#083038" stroke-width="2"></path><text x="21" y="15" style="color:#333333;font-size:12px;font-weight:normal;cursor:pointer;fill:#333333;" text-anchor="start" data-z-index="2"><tspan>EU seit 2004</tspan></text></g><g class="highcharts-legend-item highcharts-line-series highcharts-color-undefined highcharts-series-3" data-z-index="1" transform="translate(278.296875,3)"><path fill="none" d="M 0 11 L 16 11" class="highcharts-graph" stroke="#FF8028" stroke-width="2"></path><text x="21" y="15" style="color:#333333;font-size:12px;font-weight:normal;cursor:pointer;fill:#333333;" text-anchor="start" data-z-index="2"><tspan>Drittstaaten</tspan></text></g></g></g></g><g class="highcharts-axis-labels highcharts-xaxis-labels " data-z-index="7"><text x="53.7625" style="color:#000000;cursor:default;font-size:11px;fill:#000000;" text-anchor="middle" transform="translate(0,0)" y="371" opacity="1">2009</text><text x="96.0625" style="color:#000000;cursor:default;font-size:11px;fill:#000000;" text-anchor="middle" transform="translate(0,0)" y="371" opacity="1">2010</text><text x="138.3625" style="color:#000000;cursor:default;font-size:11px;fill:#000000;" text-anchor="middle" transform="translate(0,0)" y="371" opacity="1">2011</text><text x="180.6625" style="color:#000000;cursor:default;font-size:11px;fill:#000000;" text-anchor="middle" transform="translate(0,0)" y="371" opacity="1">2012</text><text x="222.9625" style="color:#000000;cursor:default;font-size:11px;fill:#000000;" text-anchor="middle" transform="translate(0,0)" y="371" opacity="1">2013</text><text x="265.2625" style="color:#000000;cursor:default;font-size:11px;fill:#000000;" text-anchor="middle" transform="translate(0,0)" y="371" opacity="1">2014</text><text x="307.5625" style="color:#000000;cursor:default;font-size:11px;fill:#000000;" text-anchor="middle" transform="translate(0,0)" y="371" opacity="1">2015</text><text x="349.8625" style="color:#000000;cursor:default;font-size:11px;fill:#000000;" text-anchor="middle" transform="translate(0,0)" y="371" opacity="1">2016</text><text x="392.1625" style="color:#000000;cursor:default;font-size:11px;fill:#000000;" text-anchor="middle" transform="translate(0,0)" y="371" opacity="1">2017</text><text x="434.4625" style="color:#000000;cursor:default;font-size:11px;fill:#000000;" text-anchor="middle" transform="translate(0,0)" y="371" opacity="1">2018</text></g><g class="highcharts-axis-labels highcharts-yaxis-labels " data-z-index="7"><text x="37" style="color:#000000;cursor:default;font-size:11px;fill:#000000;" text-anchor="end" transform="translate(0,0)" y="357" opacity="1">0</text><text x="37" style="color:#000000;cursor:default;font-size:11px;fill:#000000;" text-anchor="end" transform="translate(0,0)" y="306" opacity="1">500</text><text x="37" style="color:#000000;cursor:default;font-size:11px;fill:#000000;" text-anchor="end" transform="translate(0,0)" y="255" opacity="1"><tspan>1 000</tspan></text><text x="37" style="color:#000000;cursor:default;font-size:11px;fill:#000000;" text-anchor="end" transform="translate(0,0)" y="204" opacity="1"><tspan>1 500</tspan></text><text x="37" style="color:#000000;cursor:default;font-size:11px;fill:#000000;" text-anchor="end" transform="translate(0,0)" y="153" opacity="1"><tspan>2 000</tspan></text><text x="37" style="color:#000000;cursor:default;font-size:11px;fill:#000000;" text-anchor="end" transform="translate(0,0)" y="102" opacity="1"><tspan>2 500</tspan></text></g><text x="10" class="highcharts-credits" text-anchor="start" data-z-index="8" style="cursor:default;color:#000000;font-size:10px;fill:#000000;" y="403"><tspan>Quelle: Staatssekretariat für Wirtschaft SECO, Arbeitslosenstatistik.</tspan><tspan x="10" dy="13">Zuletzt geändert: 2019-3-25</tspan></text></svg>