<?xml version="1.0" standalone="no"?><!DOCTYPE svg PUBLIC "-//W3C//DTD SVG 1.1//EN" "http://www.w3.org/Graphics/SVG/1.1/DTD/svg11.dtd"><svg xmlns:xlink="http://www.w3.org/1999/xlink" version="1.1" class="highcharts-root" style="font-family:Arial;font-size:12px;" xmlns="http://www.w3.org/2000/svg" viewBox="0 0 485 415"><desc>Created with Highstock 6.1.1</desc><defs><clipPath id="highcharts-47a5ykk-6"><rect x="0" y="0" width="432" height="236" fill="none"></rect></clipPath><clipPath id="highcharts-47a5ykk-7"><rect x="0" y="0" width="432" height="236" fill="none"></rect></clipPath></defs><rect fill="#fbfbfb" class="highcharts-background" x="0" y="0" width="485" height="428" rx="0" ry="0"></rect><rect fill="none" class="highcharts-plot-background" x="43" y="116" width="432" height="236"></rect><g class="highcharts-pane-group" data-z-index="0"></g><g class="highcharts-grid highcharts-xaxis-grid " data-z-index="1"><path fill="none" data-z-index="1" class="highcharts-grid-line" d="M 44.5 116 L 44.5 352" opacity="1"></path><path fill="none" data-z-index="1" class="highcharts-grid-line" d="M 87.5 116 L 87.5 352" opacity="1"></path><path fill="none" data-z-index="1" class="highcharts-grid-line" d="M 130.5 116 L 130.5 352" opacity="1"></path><path fill="none" data-z-index="1" class="highcharts-grid-line" d="M 173.5 116 L 173.5 352" opacity="1"></path><path fill="none" data-z-index="1" class="highcharts-grid-line" d="M 217.5 116 L 217.5 352" opacity="1"></path><path fill="none" data-z-index="1" class="highcharts-grid-line" d="M 260.5 116 L 260.5 352" opacity="1"></path><path fill="none" data-z-index="1" class="highcharts-grid-line" d="M 303.5 116 L 303.5 352" opacity="1"></path><path fill="none" data-z-index="1" class="highcharts-grid-line" d="M 346.5 116 L 346.5 352" opacity="1"></path><path fill="none" data-z-index="1" class="highcharts-grid-line" d="M 389.5 116 L 389.5 352" opacity="1"></path><path fill="none" data-z-index="1" class="highcharts-grid-line" d="M 433.5 116 L 433.5 352" opacity="1"></path></g><g class="highcharts-grid highcharts-yaxis-grid " data-z-index="1"><path fill="none" stroke="#B9CFD7" stroke-width="0.5" data-z-index="1" class="highcharts-grid-line" d="M 43 352.25 L 475 352.25" opacity="1"></path><path fill="none" stroke="#B9CFD7" stroke-width="0.5" data-z-index="1" class="highcharts-grid-line" d="M 43 293.25 L 475 293.25" opacity="1"></path><path fill="none" stroke="#B9CFD7" stroke-width="0.5" data-z-index="1" class="highcharts-grid-line" d="M 43 234.25 L 475 234.25" opacity="1"></path><path fill="none" stroke="#B9CFD7" stroke-width="0.5" data-z-index="1" class="highcharts-grid-line" d="M 43 175.25 L 475 175.25" opacity="1"></path><path fill="none" stroke="#B9CFD7" stroke-width="0.5" data-z-index="1" class="highcharts-grid-line" d="M 43 115.75 L 475 115.75" opacity="1"></path></g><rect fill="none" class="highcharts-plot-border" data-z-index="1" x="43" y="116" width="432" height="236"></rect><g class="highcharts-axis highcharts-xaxis " data-z-index="2"><path fill="none" class="highcharts-axis-line" stroke="#B9CFD7" stroke-width="0.5" data-z-index="7" d="M 43 352.25 L 475 352.25"></path></g><g class="highcharts-axis highcharts-yaxis " data-z-index="2"><path fill="none" class="highcharts-axis-line" data-z-index="7" d="M 43 116 L 43 352"></path></g><g class="highcharts-series-group" data-z-index="3"><g data-z-index="0.1" class="highcharts-series highcharts-series-0 highcharts-line-series " transform="translate(43,116) scale(1 1)" clip-path="url(#highcharts-47a5ykk-7)"><path fill="none" d="M 1.8 86.73000000000002 L 5.4 87.61500000000001 L 9 93.51500000000001 L 12.6 96.76000000000002 L 16.2 99.12 L 19.8 94.99000000000001 L 23.4 93.51500000000001 L 27 93.51500000000001 L 30.6 89.09 L 34.2 84.37 L 37.8 78.76500000000001 L 41.4 73.45500000000001 L 45 66.67000000000002 L 48.6 59.295000000000016 L 52.2 58.41 L 55.8 55.46000000000001 L 59.4 52.215 L 63 57.23000000000002 L 66.6 62.83500000000001 L 70.2 65.49000000000001 L 73.8 76.995 L 77.4 81.125 L 81 85.845 L 84.6 86.14000000000001 L 88.2 85.255 L 91.8 93.81 L 95.4 98.23500000000001 L 99 103.25 L 102.6 113.28 L 106.2 114.165 L 109.8 117.11500000000001 L 113.4 115.64 L 117 120.655 L 120.6 125.965 L 124.2 133.34 L 127.8 135.7 L 131.4 131.57 L 135 136.88 L 138.6 139.82999999999998 L 142.2 151.335 L 145.8 148.385 L 149.4 145.14 L 153 139.53500000000003 L 156.6 137.175 L 160.2 137.765 L 163.8 135.7 L 167.4 133.34 L 171 132.455 L 174.6 127.14500000000001 L 178.2 122.42500000000001 L 181.8 130.98000000000002 L 185.4 128.91500000000002 L 189 130.39 L 192.6 133.34 L 196.2 130.095 L 199.8 123.605 L 203.4 118.59 L 207 119.18 L 210.6 120.655 L 214.2 116.82000000000001 L 217.8 109.15 L 221.4 111.215 L 225 113.87 L 228.6 114.165 L 232.2 120.655 L 235.8 122.13000000000001 L 239.4 117.41000000000001 L 243 118.59 L 246.6 120.655 L 250.2 125.67 L 253.8 126.26 L 257.4 121.245 L 261 119.77000000000001 L 264.6 123.31 L 268.2 125.375 L 271.8 127.735 L 275.4 133.635 L 279 133.635 L 282.6 135.7 L 286.2 138.65 L 289.8 129.21 L 293.4 130.685 L 297 128.325 L 300.6 127.735 L 304.2 122.42500000000001 L 307.8 130.095 L 311.4 130.39 L 315 130.39 L 318.6 129.21 L 322.2 129.21 L 325.8 130.98000000000002 L 329.4 130.39 L 333 128.325 L 336.6 128.91500000000002 L 340.2 130.39 L 343.8 132.455 L 347.4 129.21 L 351 121.83500000000001 L 354.6 121.83500000000001 L 358.2 123.31 L 361.8 124.49000000000001 L 365.4 128.03 L 369 129.21 L 372.6 126.26 L 376.2 126.555 L 379.8 130.98000000000002 L 383.4 128.03 L 387 127.735 L 390.6 121.245 L 394.2 121.245 L 397.8 116.23 L 401.4 116.82000000000001 L 405 120.06500000000001 L 408.6 126.26 L 412.2 125.67 L 415.8 114.165 L 419.4 114.75500000000001 L 423 122.13000000000001 L 426.6 128.03 L 430.2 129.21" class="highcharts-graph" data-z-index="1" stroke="#D7E8D2" stroke-width="2" stroke-linejoin="round" stroke-linecap="round"></path></g><g data-z-index="0.1" class="highcharts-markers highcharts-series-0 highcharts-line-series " transform="translate(43,116) scale(1 1)" clip-path="none"></g><g data-z-index="0.1" class="highcharts-series highcharts-series-1 highcharts-line-series " transform="translate(43,116) scale(1 1)" clip-path="url(#highcharts-47a5ykk-7)"><path fill="none" d="M 1.8 182.60500000000002 L 5.4 180.835 L 9 178.18 L 12.6 182.60500000000002 L 16.2 182.60500000000002 L 19.8 183.785 L 23.4 182.9 L 27 188.8 L 30.6 190.275 L 34.2 182.9 L 37.8 176.705 L 41.4 173.46 L 45 166.97 L 48.6 160.48000000000002 L 52.2 151.63 L 55.8 146.91000000000003 L 59.4 147.79500000000002 L 63 149.27 L 66.6 152.81 L 70.2 150.745 L 73.8 148.385 L 77.4 149.565 L 81 153.99 L 84.6 155.76 L 88.2 156.055 L 91.8 158.71 L 95.4 163.72500000000002 L 99 166.97 L 102.6 170.51 L 106.2 173.755 L 109.8 180.245 L 113.4 184.08 L 117 185.555 L 120.6 189.685 L 124.2 192.635 L 127.8 198.83 L 131.4 196.47 L 135 193.815 L 138.6 195.88 L 142.2 197.945 L 145.8 199.42000000000002 L 149.4 196.47 L 153 195.29 L 156.6 193.225 L 160.2 193.815 L 163.8 191.75 L 167.4 190.57 L 171 188.8 L 174.6 186.44 L 178.2 186.44 L 181.8 182.60500000000002 L 185.4 182.015 L 189 180.245 L 192.6 185.555 L 196.2 186.735 L 199.8 186.44 L 203.4 182.9 L 207 181.13 L 210.6 180.835 L 214.2 174.345 L 217.8 174.64 L 221.4 175.82 L 225 176.115 L 228.6 174.64 L 232.2 178.18 L 235.8 177.885 L 239.4 180.245 L 243 181.72 L 246.6 177.59 L 250.2 177.885 L 253.8 178.18 L 257.4 177.885 L 261 176.705 L 264.6 176.115 L 268.2 178.18 L 271.8 177.885 L 275.4 181.13 L 279 182.31 L 282.6 186.735 L 286.2 188.8 L 289.8 185.555 L 293.4 182.9 L 297 180.245 L 300.6 178.77 L 304.2 175.525 L 307.8 179.36 L 311.4 181.425 L 315 182.9 L 318.6 181.425 L 322.2 180.54000000000002 L 325.8 186.735 L 329.4 188.21 L 333 191.16 L 336.6 192.04500000000002 L 340.2 188.8 L 343.8 187.62 L 347.4 185.85 L 351 186.735 L 354.6 187.325 L 358.2 185.26 L 361.8 186.145 L 365.4 184.375 L 369 189.095 L 372.6 185.26 L 376.2 187.915 L 379.8 184.67000000000002 L 383.4 180.54000000000002 L 387 179.95 L 390.6 180.835 L 394.2 180.54000000000002 L 397.8 177.59 L 401.4 175.23000000000002 L 405 173.755 L 408.6 174.64 L 412.2 180.54000000000002 L 415.8 180.54000000000002 L 419.4 183.195 L 423 184.375 L 426.6 187.62 L 430.2 186.735" class="highcharts-graph" data-z-index="1" stroke="#73B97C" stroke-width="2" stroke-linejoin="round" stroke-linecap="round"></path></g><g data-z-index="0.1" class="highcharts-markers highcharts-series-1 highcharts-line-series " transform="translate(43,116) scale(1 1)" clip-path="none"></g><g data-z-index="0.1" class="highcharts-series highcharts-series-2 highcharts-line-series " transform="translate(43,116) scale(1 1)" clip-path="url(#highcharts-47a5ykk-7)"><path fill="none" d="M 1.8 105.61000000000001 L 5.4 108.56 L 9 112.985 L 12.6 121.245 L 16.2 118.885 L 19.8 119.18 L 23.4 120.06500000000001 L 27 120.36 L 30.6 116.82000000000001 L 34.2 116.23 L 37.8 115.05000000000001 L 41.4 107.38 L 45 109.74000000000001 L 48.6 114.165 L 52.2 107.97 L 55.8 100.005 L 59.4 94.69500000000002 L 63 92.92500000000001 L 66.6 87.32000000000002 L 70.2 94.69500000000002 L 73.8 97.94 L 77.4 94.10500000000002 L 81 97.94 L 84.6 93.81 L 88.2 99.41500000000002 L 91.8 106.495 L 95.4 106.20000000000002 L 99 111.51 L 102.6 113.28 L 106.2 123.605 L 109.8 119.18 L 113.4 119.47500000000001 L 117 118.295 L 120.6 117.70500000000001 L 124.2 123.015 L 127.8 125.08000000000001 L 131.4 123.605 L 135 125.375 L 138.6 129.8 L 142.2 140.125 L 145.8 138.35500000000002 L 149.4 136.88 L 153 138.35500000000002 L 156.6 133.34 L 160.2 130.98000000000002 L 163.8 127.735 L 167.4 126.555 L 171 130.39 L 174.6 132.16000000000003 L 178.2 131.865 L 181.8 132.455 L 185.4 132.75 L 189 129.8 L 192.6 135.7 L 196.2 135.995 L 199.8 136.29000000000002 L 203.4 130.685 L 207 124.78500000000001 L 210.6 121.54 L 214.2 127.14500000000001 L 217.8 121.83500000000001 L 221.4 118.59 L 225 122.13000000000001 L 228.6 132.455 L 232.2 134.52 L 235.8 134.52 L 239.4 134.52 L 243 137.175 L 246.6 138.35500000000002 L 250.2 139.82999999999998 L 253.8 138.945 L 257.4 140.125 L 261 137.47 L 264.6 136.29000000000002 L 268.2 135.995 L 271.8 140.125 L 275.4 147.5 L 279 152.22 L 282.6 154.57999999999998 L 286.2 155.17000000000002 L 289.8 158.41500000000002 L 293.4 152.81 L 297 153.4 L 300.6 147.5 L 304.2 140.42000000000002 L 307.8 139.24 L 311.4 141.01 L 315 139.82999999999998 L 318.6 144.55 L 322.2 146.025 L 325.8 151.63 L 329.4 152.515 L 333 149.27 L 336.6 150.45 L 340.2 151.63 L 343.8 153.10500000000002 L 347.4 151.63 L 351 147.5 L 354.6 149.27 L 358.2 148.09 L 361.8 151.04000000000002 L 365.4 159.89 L 369 158.41500000000002 L 372.6 161.66000000000003 L 376.2 159.595 L 379.8 155.76 L 383.4 150.155 L 387 154.28500000000003 L 390.6 150.155 L 394.2 147.20499999999998 L 397.8 150.155 L 401.4 152.81 L 405 150.745 L 408.6 150.745 L 412.2 151.63 L 415.8 149.86 L 419.4 154.57999999999998 L 423 156.94 L 426.6 153.4 L 430.2 150.745" class="highcharts-graph" data-z-index="1" stroke="#007A2F" stroke-width="2" stroke-linejoin="round" stroke-linecap="round"></path></g><g data-z-index="0.1" class="highcharts-markers highcharts-series-2 highcharts-line-series " transform="translate(43,116) scale(1 1)" clip-path="none"></g><g data-z-index="0.1" class="highcharts-series highcharts-series-3 highcharts-line-series " transform="translate(43,116) scale(1 1)" clip-path="url(#highcharts-47a5ykk-7)"><path fill="none" d="M 1.8 212.695 L 5.4 214.76 L 9 216.825 L 12.6 218.3 L 16.2 218.005 L 19.8 218.3 L 23.4 217.71 L 27 218.005 L 30.6 217.415 L 34.2 220.955 L 37.8 219.775 L 41.4 217.415 L 45 215.94 L 48.6 214.465 L 52.2 215.94 L 55.8 215.94 L 59.4 214.76 L 63 213.58 L 66.6 209.745 L 70.2 208.565 L 73.8 207.09 L 77.4 209.155 L 81 209.745 L 84.6 210.335 L 88.2 213.58 L 91.8 214.17000000000002 L 95.4 214.17000000000002 L 99 214.17000000000002 L 102.6 212.695 L 106.2 213.875 L 109.8 214.17000000000002 L 113.4 214.17000000000002 L 117 214.76 L 120.6 214.76 L 124.2 212.99 L 127.8 213.58 L 131.4 215.055 L 135 215.055 L 138.6 215.35 L 142.2 218.005 L 145.8 218.595 L 149.4 216.53 L 153 217.71 L 156.6 217.71 L 160.2 215.35 L 163.8 214.465 L 167.4 214.465 L 171 214.465 L 174.6 215.645 L 178.2 215.94 L 181.8 214.465 L 185.4 212.105 L 189 211.515 L 192.6 211.515 L 196.2 211.515 L 199.8 212.105 L 203.4 214.17000000000002 L 207 215.94 L 210.6 216.235 L 214.2 216.825 L 217.8 213.58 L 221.4 213.285 L 225 214.17000000000002 L 228.6 215.35 L 232.2 210.925 L 235.8 212.4 L 239.4 212.4 L 243 212.4 L 246.6 213.285 L 250.2 211.515 L 253.8 212.695 L 257.4 212.4 L 261 215.055 L 264.6 216.825 L 268.2 214.17000000000002 L 271.8 213.875 L 275.4 212.99 L 279 212.4 L 282.6 210.63 L 286.2 211.515 L 289.8 212.105 L 293.4 213.875 L 297 213.285 L 300.6 212.695 L 304.2 210.63 L 307.8 211.515 L 311.4 210.63 L 315 209.155 L 318.6 208.565 L 322.2 207.975 L 325.8 209.745 L 329.4 208.565 L 333 208.565 L 336.6 207.68 L 340.2 208.86 L 343.8 209.45 L 347.4 210.04 L 351 207.975 L 354.6 208.565 L 358.2 207.385 L 361.8 208.27 L 365.4 206.79500000000002 L 369 208.27 L 372.6 209.155 L 376.2 210.63 L 379.8 209.745 L 383.4 206.79500000000002 L 387 208.86 L 390.6 207.385 L 394.2 208.86 L 397.8 208.565 L 401.4 210.04 L 405 208.27 L 408.6 207.68 L 412.2 207.385 L 415.8 207.975 L 419.4 212.105 L 423 213.58 L 426.6 213.285 L 430.2 213.285" class="highcharts-graph" data-z-index="1" stroke="#0A3B19" stroke-width="2" stroke-linejoin="round" stroke-linecap="round"></path></g><g data-z-index="0.1" class="highcharts-markers highcharts-series-3 highcharts-line-series " transform="translate(43,116) scale(1 1)" clip-path="none"></g></g><text x="10" text-anchor="start" class="highcharts-title" data-z-index="4" style="color:#000000;font-size:14px;font-weight:bold;fill:#000000;" y="21"><tspan>Arbeitslose im Dienstleistungssektor (I)</tspan></text><text x="10" text-anchor="start" class="highcharts-subtitle" data-z-index="4" style="color:#000000;font-size:12px;font-weight:normal;font-family:Arial;fill:#000000;" y="40"><tspan>Basel-Stadt</tspan></text><g class="highcharts-legend" data-z-index="7" transform="translate(35,55)"><rect fill="none" class="highcharts-legend-box" rx="0" ry="0" x="0" y="0" width="376" height="49" visibility="visible"></rect><g data-z-index="1"><g><g class="highcharts-legend-item highcharts-line-series highcharts-color-undefined highcharts-series-0" data-z-index="1" transform="translate(8,3)"><path fill="none" d="M 0 11 L 16 11" class="highcharts-graph" stroke="#D7E8D2" stroke-width="2"></path><text x="21" style="color:#333333;font-size:12px;font-weight:normal;cursor:pointer;fill:#333333;" text-anchor="start" data-z-index="2" y="15"><tspan>Handel, Reparatur</tspan></text></g><g class="highcharts-legend-item highcharts-line-series highcharts-color-undefined highcharts-series-1" data-z-index="1" transform="translate(198.265625,3)"><path fill="none" d="M 0 11 L 16 11" class="highcharts-graph" stroke="#73B97C" stroke-width="2"></path><text x="21" y="15" style="color:#333333;font-size:12px;font-weight:normal;cursor:pointer;fill:#333333;" text-anchor="start" data-z-index="2"><tspan>Verkehr, Lagerei</tspan></text></g><g class="highcharts-legend-item highcharts-line-series highcharts-color-undefined highcharts-series-2" data-z-index="1" transform="translate(8,22)"><path fill="none" d="M 0 11 L 16 11" class="highcharts-graph" stroke="#007A2F" stroke-width="2"></path><text x="21" y="15" style="color:#333333;font-size:12px;font-weight:normal;cursor:pointer;fill:#333333;" text-anchor="start" data-z-index="2"><tspan>Gastgewerbe</tspan></text></g><g class="highcharts-legend-item highcharts-line-series highcharts-color-undefined highcharts-series-3" data-z-index="1" transform="translate(198.265625,22)"><path fill="none" d="M 0 11 L 16 11" class="highcharts-graph" stroke="#0A3B19" stroke-width="2"></path><text x="21" y="15" style="color:#333333;font-size:12px;font-weight:normal;cursor:pointer;fill:#333333;" text-anchor="start" data-z-index="2"><tspan>Information, Kommunikation</tspan></text></g></g></g></g><g class="highcharts-axis-labels highcharts-xaxis-labels " data-z-index="7"><text x="44.8" style="color:#000000;cursor:default;font-size:11px;fill:#000000;" text-anchor="middle" transform="translate(0,0)" y="371" opacity="1">2008</text><text x="88" style="color:#000000;cursor:default;font-size:11px;fill:#000000;" text-anchor="middle" transform="translate(0,0)" y="371" opacity="1">2009</text><text x="131.2" style="color:#000000;cursor:default;font-size:11px;fill:#000000;" text-anchor="middle" transform="translate(0,0)" y="371" opacity="1">2010</text><text x="174.4" style="color:#000000;cursor:default;font-size:11px;fill:#000000;" text-anchor="middle" transform="translate(0,0)" y="371" opacity="1">2011</text><text x="217.6" style="color:#000000;cursor:default;font-size:11px;fill:#000000;" text-anchor="middle" transform="translate(0,0)" y="371" opacity="1">2012</text><text x="260.8" style="color:#000000;cursor:default;font-size:11px;fill:#000000;" text-anchor="middle" transform="translate(0,0)" y="371" opacity="1">2013</text><text x="304" style="color:#000000;cursor:default;font-size:11px;fill:#000000;" text-anchor="middle" transform="translate(0,0)" y="371" opacity="1">2014</text><text x="347.2" style="color:#000000;cursor:default;font-size:11px;fill:#000000;" text-anchor="middle" transform="translate(0,0)" y="371" opacity="1">2015</text><text x="390.4" style="color:#000000;cursor:default;font-size:11px;fill:#000000;" text-anchor="middle" transform="translate(0,0)" y="371" opacity="1">2016</text><text x="433.6" style="color:#000000;cursor:default;font-size:11px;fill:#000000;" text-anchor="middle" transform="translate(0,0)" y="371" opacity="1">2017</text></g><g class="highcharts-axis-labels highcharts-yaxis-labels " data-z-index="7"><text x="28" style="color:#000000;cursor:default;font-size:11px;fill:#000000;" text-anchor="end" transform="translate(0,0)" y="357" opacity="1">0</text><text x="28" style="color:#000000;cursor:default;font-size:11px;fill:#000000;" text-anchor="end" transform="translate(0,0)" y="298" opacity="1">200</text><text x="28" style="color:#000000;cursor:default;font-size:11px;fill:#000000;" text-anchor="end" transform="translate(0,0)" y="239" opacity="1">400</text><text x="28" style="color:#000000;cursor:default;font-size:11px;fill:#000000;" text-anchor="end" transform="translate(0,0)" y="180" opacity="1">600</text><text x="28" style="color:#000000;cursor:default;font-size:11px;fill:#000000;" text-anchor="end" transform="translate(0,0)" y="121" opacity="1">800</text></g><text x="10" class="highcharts-credits" text-anchor="start" data-z-index="8" style="cursor:default;color:#000000;font-size:10px;fill:#000000;" y="403"><tspan>Quelle: Staatssekretariat für Wirtschaft SECO, Arbeitslosenstatistik.</tspan><tspan x="10" dy="13">Zuletzt geändert: 2018-3-14</tspan></text></svg>