<?xml version="1.0" standalone="no"?><!DOCTYPE svg PUBLIC "-//W3C//DTD SVG 1.1//EN" "http://www.w3.org/Graphics/SVG/1.1/DTD/svg11.dtd"><svg xmlns:xlink="http://www.w3.org/1999/xlink" version="1.1" class="highcharts-root" style="font-family:Arial;font-size:12px;" xmlns="http://www.w3.org/2000/svg" viewBox="0 0 485 415"><desc>Created with Highcharts 8.2.2</desc><defs><clipPath id="highcharts-zmaq5wg-87-"><rect x="0" y="0" width="423" height="252" fill="none"></rect></clipPath><clipPath id="highcharts-zmaq5wg-128-"><rect x="0" y="0" width="423" height="252" fill="none"></rect></clipPath><clipPath id="highcharts-zmaq5wg-169-"><rect x="52" y="99" width="423" height="252" fill="none"></rect></clipPath></defs><rect fill="#fbfbfb" class="highcharts-background" x="0" y="0" width="485" height="428" rx="0" ry="0"></rect><rect fill="none" class="highcharts-plot-background" x="52" y="99" width="423" height="252"></rect><g class="highcharts-pane-group" data-z-index="0"></g><g class="highcharts-grid highcharts-xaxis-grid" data-z-index="1"><path fill="none" data-z-index="1" class="highcharts-grid-line" d="M 56.5 99 L 56.5 351" opacity="1"></path><path fill="none" data-z-index="1" class="highcharts-grid-line" d="M 99.5 99 L 99.5 351" opacity="1"></path><path fill="none" data-z-index="1" class="highcharts-grid-line" d="M 141.5 99 L 141.5 351" opacity="1"></path><path fill="none" data-z-index="1" class="highcharts-grid-line" d="M 183.5 99 L 183.5 351" opacity="1"></path><path fill="none" data-z-index="1" class="highcharts-grid-line" d="M 225.5 99 L 225.5 351" opacity="1"></path><path fill="none" data-z-index="1" class="highcharts-grid-line" d="M 268.5 99 L 268.5 351" opacity="1"></path><path fill="none" data-z-index="1" class="highcharts-grid-line" d="M 310.5 99 L 310.5 351" opacity="1"></path><path fill="none" data-z-index="1" class="highcharts-grid-line" d="M 352.5 99 L 352.5 351" opacity="1"></path><path fill="none" data-z-index="1" class="highcharts-grid-line" d="M 395.5 99 L 395.5 351" opacity="1"></path><path fill="none" data-z-index="1" class="highcharts-grid-line" d="M 437.5 99 L 437.5 351" opacity="1"></path></g><g class="highcharts-grid highcharts-yaxis-grid" data-z-index="1"><path fill="none" stroke="#B9CFD7" stroke-width="0.5" data-z-index="1" class="highcharts-grid-line" d="M 52 351.25 L 475 351.25" opacity="1"></path><path fill="none" stroke="#B9CFD7" stroke-width="0.5" data-z-index="1" class="highcharts-grid-line" d="M 52 288.25 L 475 288.25" opacity="1"></path><path fill="none" stroke="#B9CFD7" stroke-width="0.5" data-z-index="1" class="highcharts-grid-line" d="M 52 225.25 L 475 225.25" opacity="1"></path><path fill="none" stroke="#B9CFD7" stroke-width="0.5" data-z-index="1" class="highcharts-grid-line" d="M 52 162.25 L 475 162.25" opacity="1"></path><path fill="none" stroke="#B9CFD7" stroke-width="0.5" data-z-index="1" class="highcharts-grid-line" d="M 52 98.75 L 475 98.75" opacity="1"></path></g><rect fill="none" class="highcharts-plot-border" data-z-index="1" x="52" y="99" width="423" height="252"></rect><g class="highcharts-axis highcharts-xaxis" data-z-index="2"><path fill="none" class="highcharts-axis-line" stroke="#B9CFD7" stroke-width="0.5" data-z-index="7" d="M 52 351.25 L 475 351.25"></path></g><g class="highcharts-axis highcharts-yaxis" data-z-index="2"><path fill="none" class="highcharts-axis-line" data-z-index="7" d="M 52 99 L 52 351"></path></g><g class="highcharts-series-group" data-z-index="3"><g class="highcharts-series highcharts-series-0 highcharts-line-series" data-z-index="0.1" opacity="1" transform="translate(52,99) scale(1 1)" clip-path="url(#highcharts-zmaq5wg-128-)"><path fill="none" d="M 5.2875 158.13 L 15.8625 175.014 L 26.4375 149.94 L 37.0125 175.76999999999998 L 47.5875 165.06 L 58.1625 175.89600000000002 L 68.7375 152.208 L 79.3125 178.92000000000002 L 89.8875 157.5 L 100.4625 167.076 L 111.0375 162.918 L 121.6125 179.55 L 132.1875 153.216 L 142.7625 170.352 L 153.3375 160.272 L 163.9125 174.636 L 174.4875 150.066 L 185.0625 173.124 L 195.6375 158.76 L 206.2125 160.902 L 216.7875 139.608 L 227.3625 211.93200000000002 L 237.9375 186.606 L 248.5125 176.652 L 259.0875 194.67000000000002 L 269.6625 205.254 L 280.2375 185.976 L 290.8125 169.848 L 301.3875 171.36 L 311.9625 174.006 L 322.5375 171.108 L 333.1125 173.25 L 343.6875 126.504 L 354.2625 160.524 L 364.8375 156.114 L 375.4125 167.076 L 385.9875 154.98000000000002 L 396.5625 158.50799999999998 L 407.1375 169.21800000000002 L 417.7125 166.06799999999998" class="highcharts-graph" data-z-index="1" stroke="#DC440E" stroke-width="2" stroke-linejoin="round" stroke-linecap="round"></path></g><g class="highcharts-markers highcharts-series-0 highcharts-line-series" data-z-index="0.1" opacity="1" transform="translate(52,99) scale(1 1)" clip-path="none"></g><g class="highcharts-series highcharts-series-1 highcharts-line-series" data-z-index="0.1" opacity="1" transform="translate(52,99) scale(1 1)" clip-path="url(#highcharts-zmaq5wg-128-)"><path fill="none" d="M 5.2875 101.68199999999999 L 15.8625 107.72999999999999 L 26.4375 90.46799999999999 L 37.0125 116.298 L 47.5875 105.84 L 58.1625 106.84800000000001 L 68.7375 100.80000000000001 L 79.3125 137.59199999999998 L 89.8875 81.52199999999999 L 100.4625 114.28200000000001 L 111.0375 112.518 L 121.6125 134.946 L 132.1875 85.554 L 142.7625 111.38399999999999 L 153.3375 75.47399999999999 L 163.9125 124.992 L 174.4875 51.66 L 185.0625 126.882 L 195.6375 105.46199999999999 L 206.2125 116.80199999999999 L 216.7875 59.47200000000001 L 227.3625 184.84199999999998 L 237.9375 133.812 L 248.5125 141.498 L 259.0875 149.43599999999998 L 269.6625 170.226 L 280.2375 123.102 L 290.8125 130.41 L 301.3875 101.05199999999999 L 311.9625 140.238 L 322.5375 123.47999999999999 L 333.1125 115.28999999999999 L 343.6875 29.232 L 354.2625 101.55600000000001 L 364.8375 110.75399999999999 L 375.4125 125.118 L 385.9875 89.71199999999999 L 396.5625 115.91999999999999 L 407.1375 131.54399999999998 L 417.7125 121.71600000000001" class="highcharts-graph" data-z-index="1" stroke="#008AC3" stroke-width="2" stroke-linejoin="round" stroke-linecap="round"></path></g><g class="highcharts-markers highcharts-series-1 highcharts-line-series" data-z-index="0.1" opacity="1" transform="translate(52,99) scale(1 1)" clip-path="none"></g></g><text x="10" text-anchor="start" class="highcharts-title" data-z-index="4" style="color:#000000;font-size:14px;font-weight:bold;fill:#000000;" y="21"><tspan>Zuwanderung von Erwerbst채tigen nach Geschlecht</tspan></text><text x="10" text-anchor="start" class="highcharts-subtitle" data-z-index="4" style="color:#000000;font-size:12px;font-weight:normal;fill:#000000;" y="40"><tspan>Basel-Stadt</tspan></text><text x="10" text-anchor="start" class="highcharts-caption" data-z-index="4" style="color:#666666;fill:#666666;" y="385"></text><g class="highcharts-legend" data-z-index="7" transform="translate(44,56)"><rect fill="none" class="highcharts-legend-box" rx="0" ry="0" x="0" y="0" width="158" height="31" visibility="visible"></rect><g data-z-index="1"><g><g class="highcharts-legend-item highcharts-line-series highcharts-color-undefined highcharts-series-0" data-z-index="1" transform="translate(8,3)"><path fill="none" d="M 0 11 L 16 11" class="highcharts-graph" stroke="#DC440E" stroke-width="2"></path><text x="21" style="color:#333333;cursor:pointer;font-size:12px;font-weight:normal;fill:#333333;" text-anchor="start" data-z-index="2" y="15"><tspan>Frauen</tspan></text></g><g class="highcharts-legend-item highcharts-line-series highcharts-color-undefined highcharts-series-1" data-z-index="1" transform="translate(88,3)"><path fill="none" d="M 0 11 L 16 11" class="highcharts-graph" stroke="#008AC3" stroke-width="2"></path><text x="21" y="15" style="color:#333333;cursor:pointer;font-size:12px;font-weight:normal;fill:#333333;" text-anchor="start" data-z-index="2"><tspan>M채nner</tspan></text></g></g></g></g><g class="highcharts-axis-labels highcharts-xaxis-labels" data-z-index="7"><text x="72.2875" style="color:#000000;cursor:default;font-size:11px;fill:#000000;" text-anchor="middle" transform="translate(0,0)" y="370" opacity="1">2015</text><text x="114.5875" style="color:#000000;cursor:default;font-size:11px;fill:#000000;" text-anchor="middle" transform="translate(0,0)" y="370" opacity="1">2016</text><text x="156.8875" style="color:#000000;cursor:default;font-size:11px;fill:#000000;" text-anchor="middle" transform="translate(0,0)" y="370" opacity="1">2017</text><text x="199.1875" style="color:#000000;cursor:default;font-size:11px;fill:#000000;" text-anchor="middle" transform="translate(0,0)" y="370" opacity="1">2018</text><text x="241.4875" style="color:#000000;cursor:default;font-size:11px;fill:#000000;" text-anchor="middle" transform="translate(0,0)" y="370" opacity="1">2019</text><text x="283.7875" style="color:#000000;cursor:default;font-size:11px;fill:#000000;" text-anchor="middle" transform="translate(0,0)" y="370" opacity="1">2020</text><text x="326.0875" style="color:#000000;cursor:default;font-size:11px;fill:#000000;" text-anchor="middle" transform="translate(0,0)" y="370" opacity="1">2021</text><text x="368.3875" style="color:#000000;cursor:default;font-size:11px;fill:#000000;" text-anchor="middle" transform="translate(0,0)" y="370" opacity="1">2022</text><text x="410.6875" style="color:#000000;cursor:default;font-size:11px;fill:#000000;" text-anchor="middle" transform="translate(0,0)" y="370" opacity="1">2023</text><text x="452.9875" style="color:#000000;cursor:default;font-size:11px;fill:#000000;" text-anchor="middle" transform="translate(0,0)" y="370" opacity="1">2024</text></g><g class="highcharts-axis-labels highcharts-yaxis-labels" data-z-index="7"><text x="37" style="color:#000000;cursor:default;font-size:11px;fill:#000000;" text-anchor="end" transform="translate(0,0)" y="355" opacity="1">0</text><text x="37" style="color:#000000;cursor:default;font-size:11px;fill:#000000;" text-anchor="end" transform="translate(0,0)" y="292" opacity="1">500</text><text x="37" style="color:#000000;cursor:default;font-size:11px;fill:#000000;" text-anchor="end" transform="translate(0,0)" y="229" opacity="1"><tspan>1 000</tspan></text><text x="37" style="color:#000000;cursor:default;font-size:11px;fill:#000000;" text-anchor="end" transform="translate(0,0)" y="166" opacity="1"><tspan>1 500</tspan></text><text x="37" style="color:#000000;cursor:default;font-size:11px;fill:#000000;" text-anchor="end" transform="translate(0,0)" y="103" opacity="1"><tspan>2 000</tspan></text></g><text x="10" class="highcharts-credits" text-anchor="start" data-z-index="8" style="cursor:default;color:#000000;font-size:10px;fill:#000000;" y="403"><tspan>Quelle: Staatssekretariat f체r Migration (SEM), Zentrales Migrationssystem (ZEMIS).</tspan><tspan x="10" dy="13">Zuletzt ge채ndert: 17.3.2025</tspan></text><g class="highcharts-control-points" data-z-index="99" clip-path="url(#highcharts-zmaq5wg-169-)"></g></svg>