<?xml version="1.0" standalone="no"?><!DOCTYPE svg PUBLIC "-//W3C//DTD SVG 1.1//EN" "http://www.w3.org/Graphics/SVG/1.1/DTD/svg11.dtd"><svg xmlns:xlink="http://www.w3.org/1999/xlink" version="1.1" class="highcharts-root" style="font-family:Arial;font-size:12px;" xmlns="http://www.w3.org/2000/svg" width="485" height="428"><desc>Created with Highcharts 8.2.0</desc><defs><clipPath id="highcharts-u8qgup6-23-"><rect x="0" y="0" width="417" height="282" fill="none"></rect></clipPath><clipPath id="highcharts-u8qgup6-40-"><rect x="0" y="0" width="417" height="282" fill="none"></rect></clipPath><clipPath id="highcharts-u8qgup6-41-"><rect x="58" y="56" width="417" height="282" fill="none"></rect></clipPath></defs><rect fill="#fbfbfb" class="highcharts-background" x="0" y="0" width="485" height="428" rx="0" ry="0"></rect><rect fill="none" class="highcharts-plot-background" x="58" y="56" width="417" height="282"></rect><g class="highcharts-pane-group" data-z-index="0"></g><g class="highcharts-grid highcharts-xaxis-grid" data-z-index="1"><path fill="none" data-z-index="1" class="highcharts-grid-line" d="M 61.5 56 L 61.5 338" opacity="1"></path><path fill="none" data-z-index="1" class="highcharts-grid-line" d="M 88.5 56 L 88.5 338" opacity="1"></path><path fill="none" data-z-index="1" class="highcharts-grid-line" d="M 116.5 56 L 116.5 338" opacity="1"></path><path fill="none" data-z-index="1" class="highcharts-grid-line" d="M 143.5 56 L 143.5 338" opacity="1"></path><path fill="none" data-z-index="1" class="highcharts-grid-line" d="M 170.5 56 L 170.5 338" opacity="1"></path><path fill="none" data-z-index="1" class="highcharts-grid-line" d="M 197.5 56 L 197.5 338" opacity="1"></path><path fill="none" data-z-index="1" class="highcharts-grid-line" d="M 225.5 56 L 225.5 338" opacity="1"></path><path fill="none" data-z-index="1" class="highcharts-grid-line" d="M 252.5 56 L 252.5 338" opacity="1"></path><path fill="none" data-z-index="1" class="highcharts-grid-line" d="M 279.5 56 L 279.5 338" opacity="1"></path><path fill="none" data-z-index="1" class="highcharts-grid-line" d="M 306.5 56 L 306.5 338" opacity="1"></path><path fill="none" data-z-index="1" class="highcharts-grid-line" d="M 334.5 56 L 334.5 338" opacity="1"></path><path fill="none" data-z-index="1" class="highcharts-grid-line" d="M 361.5 56 L 361.5 338" opacity="1"></path><path fill="none" data-z-index="1" class="highcharts-grid-line" d="M 388.5 56 L 388.5 338" opacity="1"></path><path fill="none" data-z-index="1" class="highcharts-grid-line" d="M 415.5 56 L 415.5 338" opacity="1"></path><path fill="none" data-z-index="1" class="highcharts-grid-line" d="M 443.5 56 L 443.5 338" opacity="1"></path><path fill="none" data-z-index="1" class="highcharts-grid-line" d="M 470.5 56 L 470.5 338" opacity="1"></path></g><g class="highcharts-grid highcharts-yaxis-grid" data-z-index="1"><path fill="none" stroke="#B9CFD7" stroke-width="0.5" data-z-index="1" class="highcharts-grid-line" d="M 58 338.25 L 475 338.25" opacity="1"></path><path fill="none" stroke="#B9CFD7" stroke-width="0.5" data-z-index="1" class="highcharts-grid-line" d="M 58 291.25 L 475 291.25" opacity="1"></path><path fill="none" stroke="#B9CFD7" stroke-width="0.5" data-z-index="1" class="highcharts-grid-line" d="M 58 244.25 L 475 244.25" opacity="1"></path><path fill="none" stroke="#B9CFD7" stroke-width="0.5" data-z-index="1" class="highcharts-grid-line" d="M 58 197.25 L 475 197.25" opacity="1"></path><path fill="none" stroke="#B9CFD7" stroke-width="0.5" data-z-index="1" class="highcharts-grid-line" d="M 58 150.25 L 475 150.25" opacity="1"></path><path fill="none" stroke="#B9CFD7" stroke-width="0.5" data-z-index="1" class="highcharts-grid-line" d="M 58 103.25 L 475 103.25" opacity="1"></path><path fill="none" stroke="#B9CFD7" stroke-width="0.5" data-z-index="1" class="highcharts-grid-line" d="M 58 55.75 L 475 55.75" opacity="1"></path></g><rect fill="none" class="highcharts-plot-border" data-z-index="1" x="58" y="56" width="417" height="282"></rect><g class="highcharts-axis highcharts-xaxis" data-z-index="2"><path fill="none" class="highcharts-axis-line" stroke="#B9CFD7" stroke-width="0.5" data-z-index="7" d="M 58 338.25 L 475 338.25"></path></g><g class="highcharts-axis highcharts-yaxis" data-z-index="2"><path fill="none" class="highcharts-axis-line" data-z-index="7" d="M 58 56 L 58 338"></path></g><g class="highcharts-series-group" data-z-index="3"><g class="highcharts-series highcharts-series-0 highcharts-line-series" data-z-index="0.1" opacity="1" transform="translate(58,56) scale(1 1)" clip-path="url(#highcharts-u8qgup6-40-)"><path fill="none" d="M 4.0882352941201 36.768100000000004 L 31.343137254904 44.518399999999986 L 58.598039215688 48.48519999999999 L 85.852941176472 37.99949999999998 L 113.10784313726 40.0205 L 140.36274509804 35.997299999999996 L 167.61764705882 31.005899999999997 L 194.87254901961 26.81819999999999 L 222.12745098039 45.580600000000004 L 249.38235294118 44.0249 L 276.63725490196 41.22369999999998 L 303.89215686274 38.1311 L 331.14705882353 42.36579999999998 L 358.40196078431 32.4864 L 385.6568627451 31.447699999999998 L 412.91176470588 33.280699999999996" class="highcharts-graph" data-z-index="1" stroke="#8b2223" stroke-width="2" stroke-linejoin="round" stroke-linecap="round"></path></g><g class="highcharts-markers highcharts-series-0 highcharts-line-series" data-z-index="0.1" opacity="1" transform="translate(58,56) scale(1 1)" clip-path="none"></g></g><text x="10" text-anchor="start" class="highcharts-title" data-z-index="4" style="color:#000000;font-size:14px;font-weight:bold;fill:#000000;" y="21"><tspan>Bezügerinnen und Bezüger von Prämienverbilligungen</tspan></text><text x="10" text-anchor="start" class="highcharts-subtitle" data-z-index="4" style="color:#000000;font-size:12px;font-weight:normal;fill:#000000;" y="40"><tspan>Basel-Stadt</tspan></text><text x="10" text-anchor="start" class="highcharts-caption" data-z-index="4" style="color:#666666;fill:#666666;" y="385"></text><g class="highcharts-axis-labels highcharts-xaxis-labels" data-z-index="7"><text x="64.68096015847067" style="color:#000000;cursor:default;font-size:11px;fill:#000000;" text-anchor="end" transform="translate(0,0) rotate(-45 64.68096015847067 354)" y="354" opacity="1">2006</text><text x="91.93586211925467" style="color:#000000;cursor:default;font-size:11px;fill:#000000;" text-anchor="end" transform="translate(0,0) rotate(-45 91.93586211925467 354)" y="354" opacity="1">2007</text><text x="119.19076408004067" style="color:#000000;cursor:default;font-size:11px;fill:#000000;" text-anchor="end" transform="translate(0,0) rotate(-45 119.19076408004067 354)" y="354" opacity="1">2008</text><text x="146.4456660408207" style="color:#000000;cursor:default;font-size:11px;fill:#000000;" text-anchor="end" transform="translate(0,0) rotate(-45 146.4456660408207 354)" y="354" opacity="1">2009</text><text x="173.7005680016107" style="color:#000000;cursor:default;font-size:11px;fill:#000000;" text-anchor="end" transform="translate(0,0) rotate(-45 173.7005680016107 354)" y="354" opacity="1">2010</text><text x="200.95546996239068" style="color:#000000;cursor:default;font-size:11px;fill:#000000;" text-anchor="end" transform="translate(0,0) rotate(-45 200.95546996239068 354)" y="354" opacity="1">2011</text><text x="228.2103719231707" style="color:#000000;cursor:default;font-size:11px;fill:#000000;" text-anchor="end" transform="translate(0,0) rotate(-45 228.2103719231707 354)" y="354" opacity="1">2012</text><text x="255.4652738839607" style="color:#000000;cursor:default;font-size:11px;fill:#000000;" text-anchor="end" transform="translate(0,0) rotate(-45 255.4652738839607 354)" y="354" opacity="1">2013</text><text x="282.72017584474065" style="color:#000000;cursor:default;font-size:11px;fill:#000000;" text-anchor="end" transform="translate(0,0) rotate(-45 282.72017584474065 354)" y="354" opacity="1">2014</text><text x="309.97507780553065" style="color:#000000;cursor:default;font-size:11px;fill:#000000;" text-anchor="end" transform="translate(0,0) rotate(-45 309.97507780553065 354)" y="354" opacity="1">2015</text><text x="337.22997976631063" style="color:#000000;cursor:default;font-size:11px;fill:#000000;" text-anchor="end" transform="translate(0,0) rotate(-45 337.22997976631063 354)" y="354" opacity="1">2016</text><text x="364.4848817270907" style="color:#000000;cursor:default;font-size:11px;fill:#000000;" text-anchor="end" transform="translate(0,0) rotate(-45 364.4848817270907 354)" y="354" opacity="1">2017</text><text x="391.7397836878807" style="color:#000000;cursor:default;font-size:11px;fill:#000000;" text-anchor="end" transform="translate(0,0) rotate(-45 391.7397836878807 354)" y="354" opacity="1">2018</text><text x="418.99468564866066" style="color:#000000;cursor:default;font-size:11px;fill:#000000;" text-anchor="end" transform="translate(0,0) rotate(-45 418.99468564866066 354)" y="354" opacity="1">2019</text><text x="446.24958760945066" style="color:#000000;cursor:default;font-size:11px;fill:#000000;" text-anchor="end" transform="translate(0,0) rotate(-45 446.24958760945066 354)" y="354" opacity="1">2020</text><text x="473.50448957023065" style="color:#000000;cursor:default;font-size:11px;fill:#000000;" text-anchor="end" transform="translate(0,0) rotate(-45 473.50448957023065 354)" y="354" opacity="1">2021</text></g><g class="highcharts-axis-labels highcharts-yaxis-labels" data-z-index="7"><text x="43" style="color:#000000;cursor:default;font-size:11px;fill:#000000;" text-anchor="end" transform="translate(0,0)" y="342" opacity="1">0</text><text x="43" style="color:#000000;cursor:default;font-size:11px;fill:#000000;" text-anchor="end" transform="translate(0,0)" y="295" opacity="1"><tspan>10 000</tspan></text><text x="43" style="color:#000000;cursor:default;font-size:11px;fill:#000000;" text-anchor="end" transform="translate(0,0)" y="248" opacity="1"><tspan>20 000</tspan></text><text x="43" style="color:#000000;cursor:default;font-size:11px;fill:#000000;" text-anchor="end" transform="translate(0,0)" y="201" opacity="1"><tspan>30 000</tspan></text><text x="43" style="color:#000000;cursor:default;font-size:11px;fill:#000000;" text-anchor="end" transform="translate(0,0)" y="154" opacity="1"><tspan>40 000</tspan></text><text x="43" style="color:#000000;cursor:default;font-size:11px;fill:#000000;" text-anchor="end" transform="translate(0,0)" y="107" opacity="1"><tspan>50 000</tspan></text><text x="43" style="color:#000000;cursor:default;font-size:11px;fill:#000000;" text-anchor="end" transform="translate(0,0)" y="60" opacity="1"><tspan>60 000</tspan></text></g><text x="10" class="highcharts-credits" text-anchor="start" data-z-index="8" style="cursor:default;color:#000000;font-size:10px;fill:#000000;" y="403"><tspan>Quelle: Amt für Sozialbeiträge Basel-Stadt, Abteilung Prämienverbilligungen und Familienmietzinsbeiträge.</tspan><tspan x="10" dy="13">Zuletzt geändert: 26.7.2022</tspan></text><g class="highcharts-control-points" data-z-index="99" clip-path="url(#highcharts-u8qgup6-41-)"></g></svg>