<?xml version="1.0" standalone="no"?><!DOCTYPE svg PUBLIC "-//W3C//DTD SVG 1.1//EN" "http://www.w3.org/Graphics/SVG/1.1/DTD/svg11.dtd"><svg xmlns:xlink="http://www.w3.org/1999/xlink" version="1.1" class="highcharts-root" style="font-family:Arial;font-size:12px;" xmlns="http://www.w3.org/2000/svg" viewBox="0 0 485 415"><desc>Created with Highstock 6.1.0</desc><defs><clipPath id="highcharts-b9n3ih5-6"><rect x="0" y="0" width="410" height="269" fill="none"></rect></clipPath><clipPath id="highcharts-b9n3ih5-7"><rect x="0" y="0" width="410" height="269" fill="none"></rect></clipPath></defs><rect fill="#fbfbfb" class="highcharts-background" x="0" y="0" width="485" height="428" rx="0" ry="0"></rect><rect fill="none" class="highcharts-plot-background" x="65" y="83" width="410" height="269"></rect><g class="highcharts-pane-group"></g><g class="highcharts-grid highcharts-xaxis-grid "><path fill="none" class="highcharts-grid-line" d="M 70.5 83 L 70.5 352" opacity="1"></path><path fill="none" class="highcharts-grid-line" d="M 115.5 83 L 115.5 352" opacity="1"></path><path fill="none" class="highcharts-grid-line" d="M 161.5 83 L 161.5 352" opacity="1"></path><path fill="none" class="highcharts-grid-line" d="M 206.5 83 L 206.5 352" opacity="1"></path><path fill="none" class="highcharts-grid-line" d="M 252.5 83 L 252.5 352" opacity="1"></path><path fill="none" class="highcharts-grid-line" d="M 297.5 83 L 297.5 352" opacity="1"></path><path fill="none" class="highcharts-grid-line" d="M 343.5 83 L 343.5 352" opacity="1"></path><path fill="none" class="highcharts-grid-line" d="M 389.5 83 L 389.5 352" opacity="1"></path><path fill="none" class="highcharts-grid-line" d="M 434.5 83 L 434.5 352" opacity="1"></path></g><g class="highcharts-grid highcharts-yaxis-grid "><path fill="none" stroke="#B9CFD7" stroke-width="0.5" class="highcharts-grid-line" d="M 65 352.25 L 475 352.25" opacity="1"></path><path fill="none" stroke="#B9CFD7" stroke-width="0.5" class="highcharts-grid-line" d="M 65 298.25 L 475 298.25" opacity="1"></path><path fill="none" stroke="#B9CFD7" stroke-width="0.5" class="highcharts-grid-line" d="M 65 244.25 L 475 244.25" opacity="1"></path><path fill="none" stroke="#B9CFD7" stroke-width="0.5" class="highcharts-grid-line" d="M 65 191.25 L 475 191.25" opacity="1"></path><path fill="none" stroke="#B9CFD7" stroke-width="0.5" class="highcharts-grid-line" d="M 65 137.25 L 475 137.25" opacity="1"></path><path fill="none" stroke="#B9CFD7" stroke-width="0.5" class="highcharts-grid-line" d="M 65 82.75 L 475 82.75" opacity="1"></path></g><rect fill="none" class="highcharts-plot-border" x="65" y="83" width="410" height="269"></rect><g class="highcharts-axis highcharts-xaxis "><path fill="none" class="highcharts-axis-line" stroke="#B9CFD7" stroke-width="0.5" d="M 65 352.25 L 475 352.25"></path></g><g class="highcharts-axis highcharts-yaxis "><path fill="none" class="highcharts-axis-line" d="M 65 83 L 65 352"></path></g><g class="highcharts-series-group"><g class="highcharts-series highcharts-series-0 highcharts-line-series " transform="translate(65,83) scale(1 1)" clip-path="url(#highcharts-b9n3ih5-7)"><path fill="none" d="M 5.6944444444444 235.560072 L 17.083333333333 231.91566 L 28.472222222222 215.090248 L 39.861111111111 245.520066 L 51.25 235.599884 L 62.638888888889 238.10804000000002 L 74.027777777778 224.900678 L 85.416666666667 218.743268 L 96.805555555556 227.447032 L 108.19444444444 233.16113 L 119.58333333333 219.14892 L 130.97222222222 220.914098 L 142.36111111111 218.41939200000002 L 153.75 226.846086 L 165.13888888889 204.04995000000002 L 176.52777777778 216.20606 L 187.91666666667 220.62573 L 199.30555555556 191.84273000000002 L 210.69444444444 202.060964 L 222.08333333333 218.022886 L 233.47222222222 177.723996 L 244.86111111111 197.872634 L 256.25 197.20981799999998 L 267.63888888889 221.778126 L 279.02777777778 171.32825200000002 L 290.41666666667 210.229418 L 301.80555555556 202.631244 L 313.19444444444 224.521388 L 324.58333333333 172.656574 L 335.97222222222 211.798226 L 347.36111111111 209.420804 L 358.75 225.042172 L 370.13888888889 189.27378 L 381.52777777778 206.489242 L 392.91666666667 202.07387599999998 L 404.30555555556 220.029088" class="highcharts-graph" stroke="#6F6F6F" stroke-width="2" stroke-linejoin="round" stroke-linecap="round"></path></g><g class="highcharts-markers highcharts-series-0 highcharts-line-series " transform="translate(65,83) scale(1 1)" clip-path="none"><path fill="#6F6F6F" d="M 9 236 A 4 4 0 1 1 8.999998000000167 235.99600000066667 Z" class="highcharts-point"></path><path fill="#6F6F6F" d="M 21 232 A 4 4 0 1 1 20.99999800000017 231.99600000066667 Z" class="highcharts-point"></path><path fill="#6F6F6F" d="M 32 215 A 4 4 0 1 1 31.99999800000017 214.99600000066667 Z" class="highcharts-point"></path><path fill="#6F6F6F" d="M 43 246 A 4 4 0 1 1 42.99999800000017 245.99600000066667 Z" class="highcharts-point"></path><path fill="#6F6F6F" d="M 55 236 A 4 4 0 1 1 54.99999800000017 235.99600000066667 Z" class="highcharts-point"></path><path fill="#6F6F6F" d="M 66 238 A 4 4 0 1 1 65.99999800000016 237.99600000066667 Z" class="highcharts-point"></path><path fill="#6F6F6F" d="M 78 225 A 4 4 0 1 1 77.99999800000016 224.99600000066667 Z" class="highcharts-point"></path><path fill="#6F6F6F" d="M 89 219 A 4 4 0 1 1 88.99999800000016 218.99600000066667 Z" class="highcharts-point"></path><path fill="#6F6F6F" d="M 100 227 A 4 4 0 1 1 99.99999800000016 226.99600000066667 Z" class="highcharts-point"></path><path fill="#6F6F6F" d="M 112 233 A 4 4 0 1 1 111.99999800000016 232.99600000066667 Z" class="highcharts-point"></path><path fill="#6F6F6F" d="M 123 219 A 4 4 0 1 1 122.99999800000016 218.99600000066667 Z" class="highcharts-point"></path><path fill="#6F6F6F" d="M 134 221 A 4 4 0 1 1 133.99999800000018 220.99600000066667 Z" class="highcharts-point"></path><path fill="#6F6F6F" d="M 146 218 A 4 4 0 1 1 145.99999800000018 217.99600000066667 Z" class="highcharts-point"></path><path fill="#6F6F6F" d="M 157 227 A 4 4 0 1 1 156.99999800000018 226.99600000066667 Z" class="highcharts-point"></path><path fill="#6F6F6F" d="M 169 204 A 4 4 0 1 1 168.99999800000018 203.99600000066667 Z" class="highcharts-point"></path><path fill="#6F6F6F" d="M 180 216 A 4 4 0 1 1 179.99999800000018 215.99600000066667 Z" class="highcharts-point"></path><path fill="#6F6F6F" d="M 191 221 A 4 4 0 1 1 190.99999800000018 220.99600000066667 Z" class="highcharts-point"></path><path fill="#6F6F6F" d="M 203 192 A 4 4 0 1 1 202.99999800000018 191.99600000066667 Z" class="highcharts-point"></path><path fill="#6F6F6F" d="M 214 202 A 4 4 0 1 1 213.99999800000018 201.99600000066667 Z" class="highcharts-point"></path><path fill="#6F6F6F" d="M 226 218 A 4 4 0 1 1 225.99999800000018 217.99600000066667 Z" class="highcharts-point"></path><path fill="#6F6F6F" d="M 237 178 A 4 4 0 1 1 236.99999800000018 177.99600000066667 Z" class="highcharts-point"></path><path fill="#6F6F6F" d="M 248 198 A 4 4 0 1 1 247.99999800000018 197.99600000066667 Z" class="highcharts-point"></path><path fill="#6F6F6F" d="M 260 197 A 4 4 0 1 1 259.9999980000002 196.99600000066667 Z" class="highcharts-point"></path><path fill="#6F6F6F" d="M 271 222 A 4 4 0 1 1 270.9999980000002 221.99600000066667 Z" class="highcharts-point"></path><path fill="#6F6F6F" d="M 283 171 A 4 4 0 1 1 282.9999980000002 170.99600000066667 Z" class="highcharts-point"></path><path fill="#6F6F6F" d="M 294 210 A 4 4 0 1 1 293.9999980000002 209.99600000066667 Z" class="highcharts-point"></path><path fill="#6F6F6F" d="M 305 203 A 4 4 0 1 1 304.9999980000002 202.99600000066667 Z" class="highcharts-point"></path><path fill="#6F6F6F" d="M 317 225 A 4 4 0 1 1 316.9999980000002 224.99600000066667 Z" class="highcharts-point"></path><path fill="#6F6F6F" d="M 328 173 A 4 4 0 1 1 327.9999980000002 172.99600000066667 Z" class="highcharts-point"></path><path fill="#6F6F6F" d="M 339 212 A 4 4 0 1 1 338.9999980000002 211.99600000066667 Z" class="highcharts-point"></path><path fill="#6F6F6F" d="M 351 209 A 4 4 0 1 1 350.9999980000002 208.99600000066667 Z" class="highcharts-point"></path><path fill="#6F6F6F" d="M 362 225 A 4 4 0 1 1 361.9999980000002 224.99600000066667 Z" class="highcharts-point"></path><path fill="#6F6F6F" d="M 374 189 A 4 4 0 1 1 373.9999980000002 188.99600000066667 Z" class="highcharts-point"></path><path fill="#6F6F6F" d="M 385 206 A 4 4 0 1 1 384.9999980000002 205.99600000066667 Z" class="highcharts-point"></path><path fill="#6F6F6F" d="M 396 202 A 4 4 0 1 1 395.9999980000002 201.99600000066667 Z" class="highcharts-point"></path><path fill="#6F6F6F" d="M 408 220 A 4 4 0 1 1 407.9999980000002 219.99600000066667 Z" class="highcharts-point"></path></g><g class="highcharts-series highcharts-series-1 highcharts-line-series " transform="translate(65,83) scale(1 1)" clip-path="url(#highcharts-b9n3ih5-7)"><path fill="none" d="M 5.6944444444444 246.779524 L 17.083333333333 248.28538600000002 L 28.472222222222 239.21901 L 39.861111111111 252.61252 L 51.25 254.153352 L 62.638888888889 246.098954 L 74.027777777778 236.59626 L 85.416666666667 236.77810399999998 L 96.805555555556 249.47598 L 108.19444444444 247.357874 L 119.58333333333 239.927018 L 130.97222222222 243.840968 L 142.36111111111 248.907314 L 153.75 245.722892 L 165.13888888889 229.001852 L 176.52777777778 243.867868 L 187.91666666667 249.892392 L 199.30555555556 240.193328 L 210.69444444444 220.088268 L 222.08333333333 234.098326 L 233.47222222222 242.494892 L 244.86111111111 239.4369 L 256.25 223.542228 L 267.63888888889 241.57545 L 279.02777777778 245.783686 L 290.41666666667 243.203976 L 301.80555555556 228.646234 L 313.19444444444 245.523832 L 324.58333333333 251.31863 L 335.97222222222 244.196586 L 347.36111111111 231.384116 L 358.75 244.757182 L 370.13888888889 247.750076 L 381.52777777778 241.02938 L 392.91666666667 231.864012 L 404.30555555556 243.448228" class="highcharts-graph" stroke="#FF8028" stroke-width="2" stroke-linejoin="round" stroke-linecap="round"></path></g><g class="highcharts-markers highcharts-series-1 highcharts-line-series " transform="translate(65,83) scale(1 1)" clip-path="none"></g><g class="highcharts-series highcharts-series-2 highcharts-line-series " transform="translate(65,83) scale(1 1)" clip-path="url(#highcharts-b9n3ih5-7)"><path fill="none" d="M 5.6944444444444 240.508058 L 17.083333333333 236.400966 L 28.472222222222 209.414886 L 39.861111111111 242.593884 L 51.25 244.76579 L 62.638888888889 233.295092 L 74.027777777778 209.11522000000002 L 85.416666666667 218.060546 L 96.805555555556 236.304664 L 108.19444444444 227.805878 L 119.58333333333 203.472676 L 130.97222222222 213.558562 L 142.36111111111 227.174804 L 153.75 209.56714 L 165.13888888889 178.494412 L 176.52777777778 216.321192 L 187.91666666667 225.05616 L 199.30555555556 206.077672 L 210.69444444444 181.888654 L 222.08333333333 207.940766 L 233.47222222222 215.81601 L 244.86111111111 205.66556400000002 L 256.25 175.27824800000002 L 267.63888888889 214.0971 L 279.02777777778 219.87575800000002 L 290.41666666667 204.000992 L 301.80555555556 176.22728 L 313.19444444444 209.714552 L 324.58333333333 212.742954 L 335.97222222222 201.144212 L 347.36111111111 184.249936 L 358.75 211.202122 L 370.13888888889 211.8913 L 381.52777777778 202.87764800000002 L 392.91666666667 181.597058 L 404.30555555556 199.50923" class="highcharts-graph" stroke="#A8C3CA" stroke-width="2" stroke-linejoin="round" stroke-linecap="round"></path></g><g class="highcharts-markers highcharts-series-2 highcharts-line-series " transform="translate(65,83) scale(1 1)" clip-path="none"></g><g class="highcharts-series highcharts-series-3 highcharts-line-series " transform="translate(65,83) scale(1 1)" clip-path="url(#highcharts-b9n3ih5-7)"><path fill="none" d="M 5.6944444444444 198.800146 L 17.083333333333 173.09934800000002 L 28.472222222222 153.33 L 39.861111111111 180.739486 L 51.25 183.20514 L 62.638888888889 166.77354400000002 L 74.027777777778 148.55256000000003 L 85.416666666667 130.26056 L 96.805555555556 167.243218 L 108.19444444444 141.191644 L 119.58333333333 116.51950200000002 L 130.97222222222 42.801128000000006 L 142.36111111111 123.43925800000002 L 153.75 110.09416800000002 L 165.13888888889 55.949310000000025 L 176.52777777778 93.006212 L 187.91666666667 118.90983600000001 L 199.30555555556 77.00770600000001 L 210.69444444444 43.29178400000001 L 222.08333333333 80.495022 L 233.47222222222 116.13806000000002 L 244.86111111111 108.39139800000001 L 256.25 71.143506 L 267.63888888889 107.61076 L 279.02777777778 123.69911200000001 L 290.41666666667 109.245742 L 301.80555555556 79.469594 L 313.19444444444 119.06747000000001 L 324.58333333333 133.888294 L 335.97222222222 108.10572000000002 L 347.36111111111 87.58317200000002 L 358.75 120.56687600000001 L 370.13888888889 124.93167000000003 L 381.52777777778 118.98999800000001 L 392.91666666667 81.94385600000001 L 404.30555555556 122.13191800000001" class="highcharts-graph" stroke="#008AC3" stroke-width="2" stroke-linejoin="round" stroke-linecap="round"></path></g><g class="highcharts-markers highcharts-series-3 highcharts-line-series " transform="translate(65,83) scale(1 1)" clip-path="none"></g></g><text x="10" text-anchor="start" class="highcharts-title" style="color:#000000;font-size:14px;font-weight:bold;fill:#000000;" y="21"><tspan>Arbeitstage von Meldepflichtigen nach Einsatzkanton</tspan></text><text x="10" text-anchor="start" class="highcharts-subtitle" style="color:#000000;font-size:12px;font-weight:normal;font-family:Arial;fill:#000000;" y="40"></text><g class="highcharts-legend" transform="translate(57,41)"><rect fill="none" class="highcharts-legend-box" rx="0" ry="0" x="0" y="0" width="223" height="30" visibility="visible"></rect><g><g><g class="highcharts-legend-item highcharts-line-series highcharts-color-undefined highcharts-series-0" transform="translate(8,3)"><path fill="none" d="M 0 11 L 16 11" class="highcharts-graph" stroke="#6F6F6F" stroke-width="2"></path><path fill="#6F6F6F" d="M 12 11 A 4 4 0 1 1 11.999998000000167 10.996000000666664 Z" class="highcharts-point"></path><text x="21" style="color:#333333;font-size:12px;font-weight:normal;cursor:pointer;fill:#333333;" text-anchor="start" y="15"><tspan>BS</tspan></text></g><g class="highcharts-legend-item highcharts-line-series highcharts-color-undefined highcharts-series-1" transform="translate(65,3)"><path fill="none" d="M 0 11 L 16 11" class="highcharts-graph" stroke="#FF8028" stroke-width="2"></path><text x="21" y="15" style="color:#333333;font-size:12px;font-weight:normal;cursor:pointer;fill:#333333;" text-anchor="start"><tspan>BL</tspan></text></g><g class="highcharts-legend-item highcharts-line-series highcharts-color-undefined highcharts-series-2" transform="translate(120.671875,3)"><path fill="none" d="M 0 11 L 16 11" class="highcharts-graph" stroke="#A8C3CA" stroke-width="2"></path><text x="21" y="15" style="color:#333333;font-size:12px;font-weight:normal;cursor:pointer;fill:#333333;" text-anchor="start"><tspan>AG</tspan></text></g><g class="highcharts-legend-item highcharts-line-series highcharts-color-undefined highcharts-series-3" transform="translate(179,3)"><path fill="none" d="M 0 11 L 16 11" class="highcharts-graph" stroke="#008AC3" stroke-width="2"></path><text x="21" y="15" style="color:#333333;font-size:12px;font-weight:normal;cursor:pointer;fill:#333333;" text-anchor="start"><tspan>ZH</tspan></text></g></g></g></g><g class="highcharts-axis-labels highcharts-xaxis-labels "><text x="70.694444444444" style="color:#000000;cursor:default;font-size:11px;fill:#000000;" text-anchor="middle" transform="translate(0,0)" y="371" opacity="1">2009</text><text x="116.25" style="color:#000000;cursor:default;font-size:11px;fill:#000000;" text-anchor="middle" transform="translate(0,0)" y="371" opacity="1">2010</text><text x="161.80555555556" style="color:#000000;cursor:default;font-size:11px;fill:#000000;" text-anchor="middle" transform="translate(0,0)" y="371" opacity="1">2011</text><text x="207.36111111111" style="color:#000000;cursor:default;font-size:11px;fill:#000000;" text-anchor="middle" transform="translate(0,0)" y="371" opacity="1">2012</text><text x="252.91666666667" style="color:#000000;cursor:default;font-size:11px;fill:#000000;" text-anchor="middle" transform="translate(0,0)" y="371" opacity="1">2013</text><text x="298.47222222222" style="color:#000000;cursor:default;font-size:11px;fill:#000000;" text-anchor="middle" transform="translate(0,0)" y="371" opacity="1">2014</text><text x="344.02777777778" style="color:#000000;cursor:default;font-size:11px;fill:#000000;" text-anchor="middle" transform="translate(0,0)" y="371" opacity="1">2015</text><text x="389.58333333333" style="color:#000000;cursor:default;font-size:11px;fill:#000000;" text-anchor="middle" transform="translate(0,0)" y="371" opacity="1">2016</text><text x="435.13888888889" style="color:#000000;cursor:default;font-size:11px;fill:#000000;" text-anchor="middle" transform="translate(0,0)" y="371" opacity="1">2017</text></g><g class="highcharts-axis-labels highcharts-yaxis-labels "><text x="50" style="color:#000000;cursor:default;font-size:11px;fill:#000000;" text-anchor="end" transform="translate(0,0)" y="357" opacity="1">0</text><text x="50" style="color:#000000;cursor:default;font-size:11px;fill:#000000;" text-anchor="end" transform="translate(0,0)" y="303" opacity="1"><tspan>100 000</tspan></text><text x="50" style="color:#000000;cursor:default;font-size:11px;fill:#000000;" text-anchor="end" transform="translate(0,0)" y="249" opacity="1"><tspan>200 000</tspan></text><text x="50" style="color:#000000;cursor:default;font-size:11px;fill:#000000;" text-anchor="end" transform="translate(0,0)" y="195" opacity="1"><tspan>300 000</tspan></text><text x="50" style="color:#000000;cursor:default;font-size:11px;fill:#000000;" text-anchor="end" transform="translate(0,0)" y="141" opacity="1"><tspan>400 000</tspan></text><text x="50" style="color:#000000;cursor:default;font-size:11px;fill:#000000;" text-anchor="end" transform="translate(0,0)" y="88" opacity="1"><tspan>500 000</tspan></text></g><text x="10" class="highcharts-credits" text-anchor="start" style="cursor:default;color:#000000;font-size:10px;fill:#000000;" y="403"><tspan>Quelle: Staatssekretariat für Migration (SEM), Zentrales Migrationssystem (ZEMIS)</tspan><tspan x="10" dy="13">Zuletzt geändert: 2018-3-14</tspan></text></svg>