<?xml version="1.0" standalone="no"?><!DOCTYPE svg PUBLIC "-//W3C//DTD SVG 1.1//EN" "http://www.w3.org/Graphics/SVG/1.1/DTD/svg11.dtd"><svg xmlns:xlink="http://www.w3.org/1999/xlink" version="1.1" class="highcharts-root" style="font-family:Arial;font-size:12px;" xmlns="http://www.w3.org/2000/svg" viewBox="0 0 485 415"><desc>Created with Highcharts 8.2.0</desc><defs><clipPath id="highcharts-wyti5u5-167-"><rect x="0" y="0" width="417" height="252" fill="none"></rect></clipPath><clipPath id="highcharts-wyti5u5-208-"><rect x="0" y="0" width="417" height="252" fill="none"></rect></clipPath><clipPath id="highcharts-wyti5u5-329-"><rect x="58" y="99" width="417" height="252" fill="none"></rect></clipPath></defs><rect fill="#fbfbfb" class="highcharts-background" x="0" y="0" width="485" height="428" rx="0" ry="0"></rect><rect fill="none" class="highcharts-plot-background" x="58" y="99" width="417" height="252"></rect><g class="highcharts-pane-group" data-z-index="0"></g><g class="highcharts-grid highcharts-xaxis-grid" data-z-index="1"><path fill="none" data-z-index="1" class="highcharts-grid-line" d="M 62.5 99 L 62.5 351" opacity="1"></path><path fill="none" data-z-index="1" class="highcharts-grid-line" d="M 104.5 99 L 104.5 351" opacity="1"></path><path fill="none" data-z-index="1" class="highcharts-grid-line" d="M 146.5 99 L 146.5 351" opacity="1"></path><path fill="none" data-z-index="1" class="highcharts-grid-line" d="M 187.5 99 L 187.5 351" opacity="1"></path><path fill="none" data-z-index="1" class="highcharts-grid-line" d="M 229.5 99 L 229.5 351" opacity="1"></path><path fill="none" data-z-index="1" class="highcharts-grid-line" d="M 271.5 99 L 271.5 351" opacity="1"></path><path fill="none" data-z-index="1" class="highcharts-grid-line" d="M 312.5 99 L 312.5 351" opacity="1"></path><path fill="none" data-z-index="1" class="highcharts-grid-line" d="M 354.5 99 L 354.5 351" opacity="1"></path><path fill="none" data-z-index="1" class="highcharts-grid-line" d="M 396.5 99 L 396.5 351" opacity="1"></path><path fill="none" data-z-index="1" class="highcharts-grid-line" d="M 438.5 99 L 438.5 351" opacity="1"></path></g><g class="highcharts-grid highcharts-yaxis-grid" data-z-index="1"><path fill="none" stroke="#B9CFD7" stroke-width="0.5" data-z-index="1" class="highcharts-grid-line" d="M 58 351.25 L 475 351.25" opacity="1"></path><path fill="none" stroke="#B9CFD7" stroke-width="0.5" data-z-index="1" class="highcharts-grid-line" d="M 58 288.25 L 475 288.25" opacity="1"></path><path fill="none" stroke="#B9CFD7" stroke-width="0.5" data-z-index="1" class="highcharts-grid-line" d="M 58 225.25 L 475 225.25" opacity="1"></path><path fill="none" stroke="#B9CFD7" stroke-width="0.5" data-z-index="1" class="highcharts-grid-line" d="M 58 162.25 L 475 162.25" opacity="1"></path><path fill="none" stroke="#B9CFD7" stroke-width="0.5" data-z-index="1" class="highcharts-grid-line" d="M 58 98.75 L 475 98.75" opacity="1"></path></g><rect fill="none" class="highcharts-plot-border" data-z-index="1" x="58" y="99" width="417" height="252"></rect><g class="highcharts-axis highcharts-xaxis" data-z-index="2"><path fill="none" class="highcharts-axis-line" stroke="#B9CFD7" stroke-width="0.5" data-z-index="7" d="M 58 351.25 L 475 351.25"></path></g><g class="highcharts-axis highcharts-yaxis" data-z-index="2"><path fill="none" class="highcharts-axis-line" data-z-index="7" d="M 58 99 L 58 351"></path></g><g class="highcharts-series-group" data-z-index="3"><g class="highcharts-series highcharts-series-0 highcharts-line-series" data-z-index="0.1" opacity="1" transform="translate(58,99) scale(1 1)" clip-path="url(#highcharts-wyti5u5-208-)"><path fill="none" d="M 5.2125 146.538 L 15.6375 204.0444 L 26.0625 203.112 L 36.4875 220.2858 L 46.9125 147.5712 L 57.3375 209.9412 L 67.7625 205.0776 L 78.1875 215.4096 L 88.6125 137.85660000000001 L 99.0375 202.59539999999998 L 109.4625 204.95159999999998 L 119.8875 218.0556 L 130.3125 151.79219999999998 L 140.7375 200.9196 L 151.1625 204.5358 L 161.5875 213.1164 L 172.0125 154.161 L 182.4375 203.3136 L 192.8625 206.5896 L 203.2875 217.2366 L 213.7125 180.0036 L 224.1375 200.2896 L 234.5625 204.246 L 244.9875 212.6754 L 255.4125 185.2452 L 265.8375 230.5296 L 276.2625 216.5688 L 286.6875 230.5422 L 297.1125 223.9146 L 307.5375 218.673 L 317.9625 209.57580000000002 L 328.3875 223.9524 L 338.8125 205.0398 L 349.2375 210.47039999999998 L 359.6625 211.9068 L 370.0875 222.4404 L 380.5125 202.5324 L 390.9375 201.348 L 401.3625 208.2024 L 411.7875 215.62380000000002" class="highcharts-graph" data-z-index="1" stroke="#6F6F6F" stroke-width="2" stroke-linejoin="round" stroke-linecap="round"></path></g><g class="highcharts-markers highcharts-series-0 highcharts-line-series" data-z-index="0.1" opacity="1" transform="translate(58,99) scale(1 1)" clip-path="none"></g><g class="highcharts-series highcharts-series-1 highcharts-line-series" data-z-index="0.1" opacity="1" transform="translate(58,99) scale(1 1)" clip-path="url(#highcharts-wyti5u5-208-)"><path fill="none" d="M 5.2125 218.1438 L 15.6375 227.5938 L 26.0625 223.81380000000001 L 36.4875 235.1412 L 46.9125 222.6294 L 57.3375 227.8584 L 67.7625 224.5572 L 78.1875 234.8514 L 88.6125 224.4438 L 99.0375 227.9214 L 109.4625 224.65800000000002 L 119.8875 234.6876 L 130.3125 220.9914 L 140.7375 226.0818 L 151.1625 224.4942 L 161.5875 233.4906 L 172.0125 222.9318 L 182.4375 225.9054 L 192.8625 226.3086 L 203.2875 234.7884 L 213.7125 222.957 L 224.1375 227.1528 L 234.5625 221.9742 L 244.9875 233.856 L 255.4125 222.2766 L 265.8375 231.9786 L 276.2625 226.611 L 286.6875 236.3508 L 297.1125 224.65800000000002 L 307.5375 228.0726 L 317.9625 223.2594 L 328.3875 234.8262 L 338.8125 222.516 L 349.2375 225.7038 L 359.6625 220.626 L 370.0875 232.1802 L 380.5125 219.4668 L 390.9375 223.7634 L 401.3625 223.5744 L 411.7875 232.6716" class="highcharts-graph" data-z-index="1" stroke="#FF8028" stroke-width="2" stroke-linejoin="round" stroke-linecap="round"></path></g><g class="highcharts-markers highcharts-series-1 highcharts-line-series" data-z-index="0.1" opacity="1" transform="translate(58,99) scale(1 1)" clip-path="none"></g><g class="highcharts-series highcharts-series-2 highcharts-line-series" data-z-index="0.1" opacity="1" transform="translate(58,99) scale(1 1)" clip-path="url(#highcharts-wyti5u5-208-)"><path fill="none" d="M 5.2125 178.5546 L 15.6375 197.8326 L 26.0625 185.724 L 36.4875 215.4096 L 46.9125 182.66219999999998 L 57.3375 197.4798 L 67.7625 185.7366 L 78.1875 212.562 L 88.6125 176.337 L 99.0375 190.7514 L 109.4625 186.2154 L 119.8875 210.8106 L 130.3125 173.439 L 140.7375 193.41 L 151.1625 181.46519999999998 L 161.5875 209.1222 L 172.0125 168.07139999999998 L 182.4375 186.8832 L 192.8625 188.1558 L 203.2875 211.7178 L 213.7125 176.75279999999998 L 224.1375 183.897 L 234.5625 189.126 L 244.9875 211.2138 L 255.4125 175.4928 L 265.8375 208.1772 L 276.2625 189.126 L 286.6875 216.9846 L 297.1125 200.9826 L 307.5375 192.3264 L 317.9625 192.3012 L 328.3875 214.6158 L 338.8125 178.2774 L 349.2375 186.83280000000002 L 359.6625 191.9106 L 370.0875 210.987 L 380.5125 168.23520000000002 L 390.9375 182.952 L 401.3625 186.2658 L 411.7875 209.6136" class="highcharts-graph" data-z-index="1" stroke="#A8C3CA" stroke-width="2" stroke-linejoin="round" stroke-linecap="round"></path></g><g class="highcharts-markers highcharts-series-2 highcharts-line-series" data-z-index="0.1" opacity="1" transform="translate(58,99) scale(1 1)" clip-path="none"></g><g class="highcharts-series highcharts-series-3 highcharts-line-series" data-z-index="0.1" opacity="1" transform="translate(58,99) scale(1 1)" clip-path="url(#highcharts-wyti5u5-208-)"><path fill="none" d="M 5.2125 85.5918 L 15.6375 138.73860000000002 L 26.0625 129.04919999999998 L 36.4875 169.5582 L 46.9125 83.4246 L 57.3375 134.20260000000002 L 67.7625 132.21179999999998 L 78.1875 173.72879999999998 L 88.6125 84.0546 L 99.0375 127.26 L 109.4625 129.5532 L 119.8875 161.4312 L 130.3125 74.2644 L 140.7375 131.6952 L 151.1625 123.1524 L 161.5875 162.18720000000002 L 172.0125 74.529 L 182.4375 115.44120000000001 L 192.8625 122.9382 L 203.2875 158.571 L 213.7125 64.09620000000001 L 224.1375 115.8066 L 234.5625 114.19380000000001 L 244.9875 149.5116 L 255.4125 62.117999999999995 L 265.8375 170.6796 L 276.2625 139.72140000000002 L 286.6875 185.9382 L 297.1125 157.31099999999998 L 307.5375 148.9572 L 317.9625 122.6232 L 328.3875 159.51600000000002 L 338.8125 88.77959999999999 L 349.2375 109.06559999999999 L 359.6625 112.203 L 370.0875 150.63299999999998 L 380.5125 61.51320000000001 L 390.9375 106.3692 L 401.3625 110.93039999999999 L 411.7875 145.3158" class="highcharts-graph" data-z-index="1" stroke="#008AC3" stroke-width="2" stroke-linejoin="round" stroke-linecap="round"></path></g><g class="highcharts-markers highcharts-series-3 highcharts-line-series" data-z-index="0.1" opacity="1" transform="translate(58,99) scale(1 1)" clip-path="none"></g></g><text x="10" text-anchor="start" class="highcharts-title" data-z-index="4" style="color:#000000;font-size:14px;font-weight:bold;fill:#000000;" y="21"><tspan>Meldepflichtige nach Einsatzkanton</tspan></text><text x="10" text-anchor="start" class="highcharts-subtitle" data-z-index="4" style="color:#000000;font-size:12px;font-weight:normal;fill:#000000;" y="40"><tspan>Anzahl Personen</tspan></text><text x="10" text-anchor="start" class="highcharts-caption" data-z-index="4" style="color:#666666;fill:#666666;" y="385"></text><g class="highcharts-legend" data-z-index="7" transform="translate(50,56)"><rect fill="none" class="highcharts-legend-box" rx="0" ry="0" x="0" y="0" width="223" height="31" visibility="visible"></rect><g data-z-index="1"><g><g class="highcharts-legend-item highcharts-line-series highcharts-color-undefined highcharts-series-0" data-z-index="1" transform="translate(8,3)"><path fill="none" d="M 0 11 L 16 11" class="highcharts-graph" stroke="#6F6F6F" stroke-width="2"></path><text x="21" style="color:#333333;cursor:pointer;font-size:12px;font-weight:normal;fill:#333333;" text-anchor="start" data-z-index="2" y="15"><tspan>BS</tspan></text></g><g class="highcharts-legend-item highcharts-line-series highcharts-color-undefined highcharts-series-1" data-z-index="1" transform="translate(65,3)"><path fill="none" d="M 0 11 L 16 11" class="highcharts-graph" stroke="#FF8028" stroke-width="2"></path><text x="21" y="15" style="color:#333333;cursor:pointer;font-size:12px;font-weight:normal;fill:#333333;" text-anchor="start" data-z-index="2"><tspan>BL</tspan></text></g><g class="highcharts-legend-item highcharts-line-series highcharts-color-undefined highcharts-series-2" data-z-index="1" transform="translate(121,3)"><path fill="none" d="M 0 11 L 16 11" class="highcharts-graph" stroke="#A8C3CA" stroke-width="2"></path><text x="21" y="15" style="color:#333333;cursor:pointer;font-size:12px;font-weight:normal;fill:#333333;" text-anchor="start" data-z-index="2"><tspan>AG</tspan></text></g><g class="highcharts-legend-item highcharts-line-series highcharts-color-undefined highcharts-series-3" data-z-index="1" transform="translate(178,3)"><path fill="none" d="M 0 11 L 16 11" class="highcharts-graph" stroke="#008AC3" stroke-width="2"></path><text x="21" y="15" style="color:#333333;cursor:pointer;font-size:12px;font-weight:normal;fill:#333333;" text-anchor="start" data-z-index="2"><tspan>ZH</tspan></text></g></g></g></g><g class="highcharts-axis-labels highcharts-xaxis-labels" data-z-index="7"><text x="78.2125" style="color:#000000;cursor:default;font-size:11px;fill:#000000;" text-anchor="middle" transform="translate(0,0)" y="370" opacity="1">2014</text><text x="119.9125" style="color:#000000;cursor:default;font-size:11px;fill:#000000;" text-anchor="middle" transform="translate(0,0)" y="370" opacity="1">2015</text><text x="161.6125" style="color:#000000;cursor:default;font-size:11px;fill:#000000;" text-anchor="middle" transform="translate(0,0)" y="370" opacity="1">2016</text><text x="203.3125" style="color:#000000;cursor:default;font-size:11px;fill:#000000;" text-anchor="middle" transform="translate(0,0)" y="370" opacity="1">2017</text><text x="245.0125" style="color:#000000;cursor:default;font-size:11px;fill:#000000;" text-anchor="middle" transform="translate(0,0)" y="370" opacity="1">2018</text><text x="286.7125" style="color:#000000;cursor:default;font-size:11px;fill:#000000;" text-anchor="middle" transform="translate(0,0)" y="370" opacity="1">2019</text><text x="328.4125" style="color:#000000;cursor:default;font-size:11px;fill:#000000;" text-anchor="middle" transform="translate(0,0)" y="370" opacity="1">2020</text><text x="370.1125" style="color:#000000;cursor:default;font-size:11px;fill:#000000;" text-anchor="middle" transform="translate(0,0)" y="370" opacity="1">2021</text><text x="411.8125" style="color:#000000;cursor:default;font-size:11px;fill:#000000;" text-anchor="middle" transform="translate(0,0)" y="370" opacity="1">2022</text><text x="453.5125" style="color:#000000;cursor:default;font-size:11px;fill:#000000;" text-anchor="middle" transform="translate(0,0)" y="370" opacity="1">2023</text></g><g class="highcharts-axis-labels highcharts-yaxis-labels" data-z-index="7"><text x="43" style="color:#000000;cursor:default;font-size:11px;fill:#000000;" text-anchor="end" transform="translate(0,0)" y="355" opacity="1">0</text><text x="43" style="color:#000000;cursor:default;font-size:11px;fill:#000000;" text-anchor="end" transform="translate(0,0)" y="292" opacity="1"><tspan>5 000</tspan></text><text x="43" style="color:#000000;cursor:default;font-size:11px;fill:#000000;" text-anchor="end" transform="translate(0,0)" y="229" opacity="1"><tspan>10 000</tspan></text><text x="43" style="color:#000000;cursor:default;font-size:11px;fill:#000000;" text-anchor="end" transform="translate(0,0)" y="166" opacity="1"><tspan>15 000</tspan></text><text x="43" style="color:#000000;cursor:default;font-size:11px;fill:#000000;" text-anchor="end" transform="translate(0,0)" y="103" opacity="1"><tspan>20 000</tspan></text></g><text x="10" class="highcharts-credits" text-anchor="start" data-z-index="8" style="cursor:default;color:#000000;font-size:10px;fill:#000000;" y="403"><tspan>Quelle: Staatssekretariat für Migration (SEM), Zentrales Migrationssystem (ZEMIS).</tspan><tspan x="10" dy="13">Zuletzt geändert: 19.3.2024</tspan></text><g class="highcharts-control-points" data-z-index="99" clip-path="url(#highcharts-wyti5u5-329-)"></g></svg>