<?xml version="1.0" standalone="no"?><!DOCTYPE svg PUBLIC "-//W3C//DTD SVG 1.1//EN" "http://www.w3.org/Graphics/SVG/1.1/DTD/svg11.dtd"><svg xmlns:xlink="http://www.w3.org/1999/xlink" version="1.1" class="highcharts-root" style="font-family:Arial;font-size:12px;" xmlns="http://www.w3.org/2000/svg" viewBox="0 0 485 415"><desc>Created with Highstock 6.1.1</desc><defs><clipPath id="highcharts-7dwf8m8-6"><rect x="0" y="0" width="438" height="297" fill="none"></rect></clipPath><clipPath id="highcharts-7dwf8m8-7"><rect x="0" y="0" width="438" height="297" fill="none"></rect></clipPath></defs><rect fill="#fbfbfb" class="highcharts-background" x="0" y="0" width="485" height="428" rx="0" ry="0"></rect><rect fill="none" class="highcharts-plot-background" x="37" y="55" width="438" height="297"></rect><g class="highcharts-pane-group" data-z-index="0"></g><g class="highcharts-grid highcharts-xaxis-grid " data-z-index="1"><path fill="none" data-z-index="1" class="highcharts-grid-line" d="M 85.5 55 L 85.5 352" opacity="1"></path><path fill="none" data-z-index="1" class="highcharts-grid-line" d="M 133.5 55 L 133.5 352" opacity="1"></path><path fill="none" data-z-index="1" class="highcharts-grid-line" d="M 182.5 55 L 182.5 352" opacity="1"></path><path fill="none" data-z-index="1" class="highcharts-grid-line" d="M 231.5 55 L 231.5 352" opacity="1"></path><path fill="none" data-z-index="1" class="highcharts-grid-line" d="M 279.5 55 L 279.5 352" opacity="1"></path><path fill="none" data-z-index="1" class="highcharts-grid-line" d="M 328.5 55 L 328.5 352" opacity="1"></path><path fill="none" data-z-index="1" class="highcharts-grid-line" d="M 377.5 55 L 377.5 352" opacity="1"></path><path fill="none" data-z-index="1" class="highcharts-grid-line" d="M 425.5 55 L 425.5 352" opacity="1"></path><path fill="none" data-z-index="1" class="highcharts-grid-line" d="M 474.5 55 L 474.5 352" opacity="1"></path><path fill="none" data-z-index="1" class="highcharts-grid-line" d="M 36.5 55 L 36.5 352" opacity="1"></path></g><g class="highcharts-grid highcharts-yaxis-grid " data-z-index="1"><path fill="none" stroke="#B9CFD7" stroke-width="0.5" data-z-index="1" class="highcharts-grid-line" d="M 37 352.25 L 475 352.25" opacity="1"></path><path fill="none" stroke="#B9CFD7" stroke-width="0.5" data-z-index="1" class="highcharts-grid-line" d="M 37 278.25 L 475 278.25" opacity="1"></path><path fill="none" stroke="#B9CFD7" stroke-width="0.5" data-z-index="1" class="highcharts-grid-line" d="M 37 204.25 L 475 204.25" opacity="1"></path><path fill="none" stroke="#B9CFD7" stroke-width="0.5" data-z-index="1" class="highcharts-grid-line" d="M 37 129.25 L 475 129.25" opacity="1"></path><path fill="none" stroke="#B9CFD7" stroke-width="0.5" data-z-index="1" class="highcharts-grid-line" d="M 37 54.75 L 475 54.75" opacity="1"></path></g><rect fill="none" class="highcharts-plot-border" data-z-index="1" x="37" y="55" width="438" height="297"></rect><g class="highcharts-axis highcharts-xaxis " data-z-index="2"><path fill="none" class="highcharts-axis-line" stroke="#B9CFD7" stroke-width="0.5" data-z-index="7" d="M 37 352.25 L 475 352.25"></path></g><g class="highcharts-axis highcharts-yaxis " data-z-index="2"><path fill="none" class="highcharts-axis-line" data-z-index="7" d="M 37 55 L 37 352"></path></g><g class="highcharts-series-group" data-z-index="3"><g data-z-index="0.1" class="highcharts-series highcharts-series-0 highcharts-column-series " transform="translate(37,55) scale(1 1)" clip-path="url(#highcharts-7dwf8m8-7)"><rect x="4" y="105" width="40" height="193" fill="#CD9C00" class="highcharts-point"></rect><rect x="53" y="112" width="40" height="186" fill="#CD9C00" class="highcharts-point"></rect><rect x="102" y="164" width="40" height="134" fill="#CD9C00" class="highcharts-point"></rect><rect x="150" y="164" width="40" height="134" fill="#CD9C00" class="highcharts-point"></rect><rect x="199" y="83" width="40" height="215" fill="#CD9C00" class="highcharts-point"></rect><rect x="248" y="120" width="40" height="178" fill="#CD9C00" class="highcharts-point"></rect><rect x="296" y="127" width="40" height="171" fill="#CD9C00" class="highcharts-point"></rect><rect x="345" y="142" width="40" height="156" fill="#CD9C00" class="highcharts-point"></rect><rect x="394" y="68" width="40" height="230" fill="#CD9C00" class="highcharts-point"></rect></g><g data-z-index="0.1" class="highcharts-markers highcharts-series-0 highcharts-column-series " transform="translate(37,55) scale(1 1)" clip-path="none"></g></g><text x="10" text-anchor="start" class="highcharts-title" data-z-index="4" style="color:#000000;font-size:14px;font-weight:bold;fill:#000000;" y="21"><tspan>Durch BaselArea unterstützte internationale Ansiedlungen</tspan></text><text x="10" text-anchor="start" class="highcharts-subtitle" data-z-index="4" style="color:#000000;font-size:12px;font-weight:normal;font-family:Arial;fill:#000000;" y="40"><tspan>in BS, BL, JU</tspan></text><g class="highcharts-axis-labels highcharts-xaxis-labels " data-z-index="7"><text x="61.33333333333367" style="color:#000000;cursor:default;font-size:11px;fill:#000000;" text-anchor="middle" transform="translate(0,0)" y="371" opacity="1">2008</text><text x="109.99999999999666" style="color:#000000;cursor:default;font-size:11px;fill:#000000;" text-anchor="middle" transform="translate(0,0)" y="371" opacity="1">2009</text><text x="158.66666666666666" style="color:#000000;cursor:default;font-size:11px;fill:#000000;" text-anchor="middle" transform="translate(0,0)" y="371" opacity="1">2010</text><text x="207.33333333333667" style="color:#000000;cursor:default;font-size:11px;fill:#000000;" text-anchor="middle" transform="translate(0,0)" y="371" opacity="1">2011</text><text x="255.99999999999667" style="color:#000000;cursor:default;font-size:11px;fill:#000000;" text-anchor="middle" transform="translate(0,0)" y="371" opacity="1">2012</text><text x="304.6666666666667" style="color:#000000;cursor:default;font-size:11px;fill:#000000;" text-anchor="middle" transform="translate(0,0)" y="371" opacity="1">2013</text><text x="353.33333333333667" style="color:#000000;cursor:default;font-size:11px;fill:#000000;" text-anchor="middle" transform="translate(0,0)" y="371" opacity="1">2014</text><text x="401.9999999999967" style="color:#000000;cursor:default;font-size:11px;fill:#000000;" text-anchor="middle" transform="translate(0,0)" y="371" opacity="1">2015</text><text x="450.6666666666667" style="color:#000000;cursor:default;font-size:11px;fill:#000000;" text-anchor="middle" transform="translate(0,0)" y="371" opacity="1">2016</text></g><g class="highcharts-axis-labels highcharts-yaxis-labels " data-z-index="7"><text x="22" style="color:#000000;cursor:default;font-size:11px;fill:#000000;" text-anchor="end" transform="translate(0,0)" y="357" opacity="1">0</text><text x="22" style="color:#000000;cursor:default;font-size:11px;fill:#000000;" text-anchor="end" transform="translate(0,0)" y="282" opacity="1">10</text><text x="22" style="color:#000000;cursor:default;font-size:11px;fill:#000000;" text-anchor="end" transform="translate(0,0)" y="208" opacity="1">20</text><text x="22" style="color:#000000;cursor:default;font-size:11px;fill:#000000;" text-anchor="end" transform="translate(0,0)" y="134" opacity="1">30</text><text x="22" style="color:#000000;cursor:default;font-size:11px;fill:#000000;" text-anchor="end" transform="translate(0,0)" y="60" opacity="1">40</text></g><text x="10" class="highcharts-credits" text-anchor="start" data-z-index="8" style="cursor:default;color:#000000;font-size:10px;fill:#000000;" y="403"><tspan>Quelle: BaselArea</tspan><tspan x="10" dy="13">Zuletzt geändert: 2017-11-29</tspan></text></svg>