<?xml version="1.0" standalone="no"?><!DOCTYPE svg PUBLIC "-//W3C//DTD SVG 1.1//EN" "http://www.w3.org/Graphics/SVG/1.1/DTD/svg11.dtd"><svg xmlns:xlink="http://www.w3.org/1999/xlink" version="1.1" class="highcharts-root" style="font-family:Arial;font-size:12px;" xmlns="http://www.w3.org/2000/svg" viewBox="0 0 485 415"><desc>Created with Highstock 6.1.1</desc><defs><clipPath id="highcharts-xkmsxiz-6"><rect x="0" y="0" width="432" height="208" fill="none"></rect></clipPath><clipPath id="highcharts-xkmsxiz-7"><rect x="0" y="0" width="432" height="208" fill="none"></rect></clipPath></defs><rect fill="#fbfbfb" class="highcharts-background" x="0" y="0" width="485" height="428" rx="0" ry="0"></rect><rect fill="none" class="highcharts-plot-background" x="43" y="154" width="432" height="208"></rect><g class="highcharts-pane-group" data-z-index="0"></g><g class="highcharts-grid highcharts-xaxis-grid " data-z-index="1"><path fill="none" data-z-index="1" class="highcharts-grid-line" d="M 46.5 154 L 46.5 362" opacity="1"></path><path fill="none" data-z-index="1" class="highcharts-grid-line" d="M 99.5 154 L 99.5 362" opacity="1"></path><path fill="none" data-z-index="1" class="highcharts-grid-line" d="M 152.5 154 L 152.5 362" opacity="1"></path><path fill="none" data-z-index="1" class="highcharts-grid-line" d="M 205.5 154 L 205.5 362" opacity="1"></path><path fill="none" data-z-index="1" class="highcharts-grid-line" d="M 258.5 154 L 258.5 362" opacity="1"></path><path fill="none" data-z-index="1" class="highcharts-grid-line" d="M 311.5 154 L 311.5 362" opacity="1"></path><path fill="none" data-z-index="1" class="highcharts-grid-line" d="M 364.5 154 L 364.5 362" opacity="1"></path><path fill="none" data-z-index="1" class="highcharts-grid-line" d="M 417.5 154 L 417.5 362" opacity="1"></path><path fill="none" data-z-index="1" class="highcharts-grid-line" d="M 470.5 154 L 470.5 362" opacity="1"></path></g><g class="highcharts-grid highcharts-yaxis-grid " data-z-index="1"><path fill="none" stroke="#B9CFD7" stroke-width="0.5" data-z-index="1" class="highcharts-grid-line" d="M 43 362.25 L 475 362.25" opacity="1"></path><path fill="none" stroke="#B9CFD7" stroke-width="0.5" data-z-index="1" class="highcharts-grid-line" d="M 43 320.25 L 475 320.25" opacity="1"></path><path fill="none" stroke="#B9CFD7" stroke-width="0.5" data-z-index="1" class="highcharts-grid-line" d="M 43 279.25 L 475 279.25" opacity="1"></path><path fill="none" stroke="#B9CFD7" stroke-width="0.5" data-z-index="1" class="highcharts-grid-line" d="M 43 237.25 L 475 237.25" opacity="1"></path><path fill="none" stroke="#B9CFD7" stroke-width="0.5" data-z-index="1" class="highcharts-grid-line" d="M 43 196.25 L 475 196.25" opacity="1"></path><path fill="none" stroke="#B9CFD7" stroke-width="0.5" data-z-index="1" class="highcharts-grid-line" d="M 43 153.75 L 475 153.75" opacity="1"></path></g><rect fill="none" class="highcharts-plot-border" data-z-index="1" x="43" y="154" width="432" height="208"></rect><g class="highcharts-axis highcharts-xaxis " data-z-index="2"><path fill="none" class="highcharts-axis-line" stroke="#B9CFD7" stroke-width="0.5" data-z-index="7" d="M 43 362.25 L 475 362.25"></path></g><g class="highcharts-axis highcharts-yaxis " data-z-index="2"><path fill="none" class="highcharts-axis-line" data-z-index="7" d="M 43 154 L 43 362"></path></g><g class="highcharts-series-group" data-z-index="3"><g data-z-index="0.1" class="highcharts-series highcharts-series-0 highcharts-line-series " transform="translate(43,154) scale(1 1)" clip-path="url(#highcharts-xkmsxiz-7)"><path fill="none" d="M 4.2352941176492 51.62559999999999 L 57.176470588237 54.74559999999997 L 83.647058823531 62.982399999999984 L 110.11764705882 55.952 L 163.05882352941 55.619200000000006 L 216 53.12319999999997 L 268.94117647059 50.502399999999994 L 321.88235294118 47.50720000000001 L 374.82352941176 50.04480000000001 L 427.76470588235 47.38239999999999" class="highcharts-graph" data-z-index="1" stroke="#6F6F6F" stroke-width="2" stroke-linejoin="round" stroke-linecap="round"></path></g><g data-z-index="0.1" class="highcharts-markers highcharts-series-0 highcharts-line-series " transform="translate(43,154) scale(1 1)" clip-path="none"></g><g data-z-index="0.1" class="highcharts-series highcharts-series-1 highcharts-line-series " transform="translate(43,154) scale(1 1)" clip-path="url(#highcharts-xkmsxiz-7)"><path fill="none" d="M 4.2352941176492 61.65119999999996 L 57.176470588237 66.64319999999998 L 83.647058823531 75.21279999999999 L 110.11764705882 67.6 L 163.05882352941 65.02079999999998 L 216 60.23680000000002 L 268.94117647059 56.908800000000014 L 321.88235294118 54.204800000000006 L 374.82352941176 57.449600000000004 L 427.76470588235 53.45599999999996" class="highcharts-graph" data-z-index="1" stroke="#007A2F" stroke-width="2" stroke-linejoin="round" stroke-linecap="round"></path></g><g data-z-index="0.1" class="highcharts-markers highcharts-series-1 highcharts-line-series " transform="translate(43,154) scale(1 1)" clip-path="none"></g><g data-z-index="0.1" class="highcharts-series highcharts-series-2 highcharts-line-series " transform="translate(43,154) scale(1 1)" clip-path="url(#highcharts-xkmsxiz-7)"><path fill="none" d="M 4.2352941176492 54.12160000000003 L 57.176470588237 55.91039999999998 L 83.647058823531 60.31999999999999 L 110.11764705882 50.71039999999999 L 163.05882352941 51.12640000000002 L 216 52.956800000000015 L 268.94117647059 50.21119999999996 L 321.88235294118 48.672 L 374.82352941176 47.9648 L 427.76470588235 49.54559999999998" class="highcharts-graph" data-z-index="1" stroke="#2B0099" stroke-width="2" stroke-linejoin="round" stroke-linecap="round"></path></g><g data-z-index="0.1" class="highcharts-markers highcharts-series-2 highcharts-line-series " transform="translate(43,154) scale(1 1)" clip-path="none"></g><g data-z-index="0.1" class="highcharts-series highcharts-series-3 highcharts-line-series " transform="translate(43,154) scale(1 1)" clip-path="url(#highcharts-xkmsxiz-7)"><path fill="none" d="M 4.2352941176492 26.582400000000007 L 57.176470588237 30.950399999999973 L 83.647058823531 41.14240000000001 L 110.11764705882 32.988800000000026 L 163.05882352941 35.98400000000001 L 216 35.77599999999998 L 268.94117647059 30.99200000000002 L 321.88235294118 27.45599999999996 L 374.82352941176 30.82559999999998 L 427.76470588235 26.9152" class="highcharts-graph" data-z-index="1" stroke="#B00000" stroke-width="2" stroke-linejoin="round" stroke-linecap="round"></path></g><g data-z-index="0.1" class="highcharts-markers highcharts-series-3 highcharts-line-series " transform="translate(43,154) scale(1 1)" clip-path="none"></g><g data-z-index="0.1" class="highcharts-series highcharts-series-4 highcharts-line-series " visibility="hidden" transform="translate(43,154) scale(1 1)" clip-path="url(#highcharts-xkmsxiz-7)"><path fill="none" d="M 4.2352941176492 -27.497600000000006 L 57.176470588237 -20.384000000000043 L 83.647058823531 8.777599999999978 L 110.11764705882 4.07680000000002 L 163.05882352941 11.814400000000006 L 216 -58.94719999999995 L 268.94117647059 -61.900800000000004 L 321.88235294118 -59.23840000000007 L 374.82352941176 -56.659200000000055 L 427.76470588235 -57.15840000000003" class="highcharts-graph" data-z-index="1" stroke="#C8C8C8" stroke-width="2" stroke-linejoin="round" stroke-linecap="round"></path></g><g data-z-index="0.1" class="highcharts-markers highcharts-series-4 highcharts-line-series " visibility="hidden" transform="translate(43,154) scale(1 1)" clip-path="none"></g><g data-z-index="0.1" class="highcharts-series highcharts-series-5 highcharts-line-series " visibility="hidden" transform="translate(43,154) scale(1 1)" clip-path="url(#highcharts-xkmsxiz-7)"><path fill="none" d="M 4.2352941176492 47.9648 L 57.176470588237 65.0624 L 83.647058823531 82.24319999999997 L 110.11764705882 78.24960000000002 L 163.05882352941 63.06559999999999 L 216 8.1952 L 268.94117647059 -0.33279999999999177 L 321.88235294118 -14.601600000000019 L 374.82352941176 2.495999999999981 L 427.76470588235 5.865599999999972" class="highcharts-graph" data-z-index="1" stroke="#73B97C" stroke-width="2" stroke-linejoin="round" stroke-linecap="round"></path></g><g data-z-index="0.1" class="highcharts-markers highcharts-series-5 highcharts-line-series " visibility="hidden" transform="translate(43,154) scale(1 1)" clip-path="none"></g><g data-z-index="0.1" class="highcharts-series highcharts-series-6 highcharts-line-series " visibility="hidden" transform="translate(43,154) scale(1 1)" clip-path="url(#highcharts-xkmsxiz-7)"><path fill="none" d="M 4.2352941176492 -20.633599999999973 L 57.176470588237 -30.367999999999995 L 83.647058823531 -13.353599999999972 L 110.11764705882 -10.774400000000014 L 163.05882352941 -9.318399999999997 L 216 -65.81119999999999 L 268.94117647059 -62.275199999999984 L 321.88235294118 -68.76480000000004 L 374.82352941176 -69.76320000000004 L 427.76470588235 -64.68800000000005" class="highcharts-graph" data-z-index="1" stroke="#008AC3" stroke-width="2" stroke-linejoin="round" stroke-linecap="round"></path></g><g data-z-index="0.1" class="highcharts-markers highcharts-series-6 highcharts-line-series " visibility="hidden" transform="translate(43,154) scale(1 1)" clip-path="none"></g><g data-z-index="0.1" class="highcharts-series highcharts-series-7 highcharts-line-series " visibility="hidden" transform="translate(43,154) scale(1 1)" clip-path="url(#highcharts-xkmsxiz-7)"><path fill="none" d="M 4.2352941176492 -91.31199999999995 L 57.176470588237 -71.30239999999998 L 83.647058823531 -52.91520000000003 L 110.11764705882 -50.294399999999996 L 163.05882352941 -42.88960000000003 L 216 -112.56960000000004 L 268.94117647059 -115.27360000000004 L 321.88235294118 -114.60800000000006 L 374.82352941176 -111.11360000000002 L 427.76470588235 -108.16000000000003" class="highcharts-graph" data-z-index="1" stroke="#FF8028" stroke-width="2" stroke-linejoin="round" stroke-linecap="round"></path></g><g data-z-index="0.1" class="highcharts-markers highcharts-series-7 highcharts-line-series " visibility="hidden" transform="translate(43,154) scale(1 1)" clip-path="none"></g></g><text x="10" text-anchor="start" class="highcharts-title" data-z-index="4" style="color:#000000;font-size:14px;font-weight:bold;fill:#000000;" y="21"><tspan>Globale und kontinentale Erreichbarkeit</tspan></text><text x="10" text-anchor="start" class="highcharts-subtitle" data-z-index="4" style="color:#000000;font-size:12px;font-weight:normal;font-family:Arial;fill:#000000;" y="40"><tspan>Stadt Basel im Vergleich mit ausgewählten Schweizer Städten</tspan></text><g class="highcharts-legend" data-z-index="7" transform="translate(35,55)"><rect fill="none" class="highcharts-legend-box" rx="0" ry="0" x="0" y="0" width="396" height="87" visibility="visible"></rect><g data-z-index="1"><g><g class="highcharts-legend-item highcharts-line-series highcharts-color-undefined highcharts-series-0" data-z-index="1" transform="translate(8,3)"><path fill="none" d="M 0 11 L 16 11" class="highcharts-graph" stroke="#6F6F6F" stroke-width="2"></path><text x="21" style="color:#333333;font-size:12px;font-weight:normal;cursor:pointer;fill:#333333;" text-anchor="start" data-z-index="2" y="15"><tspan>Basel global</tspan></text></g><g class="highcharts-legend-item highcharts-line-series highcharts-color-undefined highcharts-series-4 highcharts-legend-item-hidden" data-z-index="1" transform="translate(208,3)"><path fill="none" d="M 0 11 L 16 11" class="highcharts-graph" stroke="#cccccc" stroke-width="2"></path><text x="21" y="15" style="color:#cccccc;font-size:12px;font-weight:normal;cursor:pointer;fill:#cccccc;" text-anchor="start" data-z-index="2"><tspan>Basel kontinental</tspan></text></g><g class="highcharts-legend-item highcharts-line-series highcharts-color-undefined highcharts-series-1" data-z-index="1" transform="translate(8,22)"><path fill="none" d="M 0 11 L 16 11" class="highcharts-graph" stroke="#007A2F" stroke-width="2"></path><text x="21" y="15" style="color:#333333;font-size:12px;font-weight:normal;cursor:pointer;fill:#333333;" text-anchor="start" data-z-index="2"><tspan>Bern global</tspan></text></g><g class="highcharts-legend-item highcharts-line-series highcharts-color-undefined highcharts-series-5 highcharts-legend-item-hidden" data-z-index="1" transform="translate(208,22)"><path fill="none" d="M 0 11 L 16 11" class="highcharts-graph" stroke="#cccccc" stroke-width="2"></path><text x="21" y="15" style="color:#cccccc;font-size:12px;font-weight:normal;cursor:pointer;fill:#cccccc;" text-anchor="start" data-z-index="2"><tspan>Bern kontinental</tspan></text></g><g class="highcharts-legend-item highcharts-line-series highcharts-color-undefined highcharts-series-2" data-z-index="1" transform="translate(8,41)"><path fill="none" d="M 0 11 L 16 11" class="highcharts-graph" stroke="#2B0099" stroke-width="2"></path><text x="21" y="15" style="color:#333333;font-size:12px;font-weight:normal;cursor:pointer;fill:#333333;" text-anchor="start" data-z-index="2"><tspan>Genf global</tspan></text></g><g class="highcharts-legend-item highcharts-line-series highcharts-color-undefined highcharts-series-6 highcharts-legend-item-hidden" data-z-index="1" transform="translate(208,41)"><path fill="none" d="M 0 11 L 16 11" class="highcharts-graph" stroke="#cccccc" stroke-width="2"></path><text x="21" y="15" style="color:#cccccc;font-size:12px;font-weight:normal;cursor:pointer;fill:#cccccc;" text-anchor="start" data-z-index="2"><tspan>Genf kontinental</tspan></text></g><g class="highcharts-legend-item highcharts-line-series highcharts-color-undefined highcharts-series-3" data-z-index="1" transform="translate(8,60)"><path fill="none" d="M 0 11 L 16 11" class="highcharts-graph" stroke="#B00000" stroke-width="2"></path><text x="21" y="15" style="color:#333333;font-size:12px;font-weight:normal;cursor:pointer;fill:#333333;" text-anchor="start" data-z-index="2"><tspan>Zürich global</tspan></text></g><g class="highcharts-legend-item highcharts-line-series highcharts-color-undefined highcharts-series-7 highcharts-legend-item-hidden" data-z-index="1" transform="translate(208,60)"><path fill="none" d="M 0 11 L 16 11" class="highcharts-graph" stroke="#cccccc" stroke-width="2"></path><text x="21" y="15" style="color:#cccccc;font-size:12px;font-weight:normal;cursor:pointer;fill:#cccccc;" text-anchor="start" data-z-index="2"><tspan>Zürich kontinental</tspan></text></g></g></g></g><g class="highcharts-axis-labels highcharts-xaxis-labels " data-z-index="7"><text x="47.235294117649" style="color:#000000;cursor:default;font-size:11px;fill:#000000;" text-anchor="middle" transform="translate(0,0)" y="381" opacity="1">2000</text><text x="100.17647058824" style="color:#000000;cursor:default;font-size:11px;fill:#000000;" text-anchor="middle" transform="translate(0,0)" y="381" opacity="1">2002</text><text x="153.11764705882" style="color:#000000;cursor:default;font-size:11px;fill:#000000;" text-anchor="middle" transform="translate(0,0)" y="381" opacity="1">2004</text><text x="206.05882352941" style="color:#000000;cursor:default;font-size:11px;fill:#000000;" text-anchor="middle" transform="translate(0,0)" y="381" opacity="1">2006</text><text x="259" style="color:#000000;cursor:default;font-size:11px;fill:#000000;" text-anchor="middle" transform="translate(0,0)" y="381" opacity="1">2008</text><text x="311.94117647059" style="color:#000000;cursor:default;font-size:11px;fill:#000000;" text-anchor="middle" transform="translate(0,0)" y="381" opacity="1">2010</text><text x="364.88235294118" style="color:#000000;cursor:default;font-size:11px;fill:#000000;" text-anchor="middle" transform="translate(0,0)" y="381" opacity="1">2012</text><text x="417.82352941176" style="color:#000000;cursor:default;font-size:11px;fill:#000000;" text-anchor="middle" transform="translate(0,0)" y="381" opacity="1">2014</text><text x="462.78125" style="color:#000000;cursor:default;font-size:11px;fill:#000000;" text-anchor="middle" transform="translate(0,0)" y="381" opacity="1">2016</text></g><g class="highcharts-axis-labels highcharts-yaxis-labels " data-z-index="7"><text x="28" style="color:#000000;cursor:default;font-size:11px;fill:#000000;" text-anchor="end" transform="translate(0,0)" y="367" opacity="1">70</text><text x="28" style="color:#000000;cursor:default;font-size:11px;fill:#000000;" text-anchor="end" transform="translate(0,0)" y="325" opacity="1">80</text><text x="28" style="color:#000000;cursor:default;font-size:11px;fill:#000000;" text-anchor="end" transform="translate(0,0)" y="283" opacity="1">90</text><text x="28" style="color:#000000;cursor:default;font-size:11px;fill:#000000;" text-anchor="end" transform="translate(0,0)" y="242" opacity="1">100</text><text x="28" style="color:#000000;cursor:default;font-size:11px;fill:#000000;" text-anchor="end" transform="translate(0,0)" y="200" opacity="1">110</text><text x="28" style="color:#000000;cursor:default;font-size:11px;fill:#000000;" text-anchor="end" transform="translate(0,0)" y="159" opacity="1">120</text></g><text x="10" class="highcharts-credits" text-anchor="start" data-z-index="8" style="cursor:default;color:#000000;font-size:10px;fill:#000000;" y="423"><tspan>Quelle: BAK Economics.</tspan><tspan x="10" dy="13">Zuletzt geändert: 2018-10-24</tspan></text></svg>