<?xml version="1.0" standalone="no"?><!DOCTYPE svg PUBLIC "-//W3C//DTD SVG 1.1//EN" "http://www.w3.org/Graphics/SVG/1.1/DTD/svg11.dtd"><svg xmlns:xlink="http://www.w3.org/1999/xlink" version="1.1" class="highcharts-root" style="font-family:Arial;font-size:12px;" xmlns="http://www.w3.org/2000/svg" viewBox="0 0 485 415"><desc>Created with Highcharts 8.2.0</desc><defs><clipPath id="highcharts-noahd6o-196-"><rect x="0" y="0" width="411" height="153" fill="none"></rect></clipPath><clipPath id="highcharts-noahd6o-249-"><rect x="0" y="0" width="411" height="153" fill="none"></rect></clipPath><clipPath id="highcharts-noahd6o-384-"><rect x="0" y="0" width="383" height="30" fill="none"></rect></clipPath><clipPath id="highcharts-noahd6o-385-"><rect x="64" y="70" width="411" height="153" fill="none"></rect></clipPath></defs><rect fill="#fbfbfb" class="highcharts-background" x="0" y="0" width="485" height="428" rx="0" ry="0"></rect><rect fill="none" class="highcharts-plot-background" x="64" y="70" width="411" height="153"></rect><g class="highcharts-pane-group" data-z-index="0"></g><g class="highcharts-grid highcharts-xaxis-grid" data-z-index="1"><path fill="none" data-z-index="1" class="highcharts-grid-line" d="M 112.5 70 L 112.5 223" opacity="1"></path><path fill="none" data-z-index="1" class="highcharts-grid-line" d="M 195.5 70 L 195.5 223" opacity="1"></path><path fill="none" data-z-index="1" class="highcharts-grid-line" d="M 277.5 70 L 277.5 223" opacity="1"></path><path fill="none" data-z-index="1" class="highcharts-grid-line" d="M 359.5 70 L 359.5 223" opacity="1"></path><path fill="none" data-z-index="1" class="highcharts-grid-line" d="M 441.5 70 L 441.5 223" opacity="1"></path></g><g class="highcharts-grid highcharts-xaxis-grid highcharts-navigator-xaxis" data-z-index="1"><path fill="none" stroke="#e6e6e6" stroke-width="1" data-z-index="1" class="highcharts-grid-line" d="M 115.5 309 L 115.5 339" opacity="1"></path><path fill="none" stroke="#e6e6e6" stroke-width="1" data-z-index="1" class="highcharts-grid-line" d="M 269.5 309 L 269.5 339" opacity="1"></path><path fill="none" stroke="#e6e6e6" stroke-width="1" data-z-index="1" class="highcharts-grid-line" d="M 423.5 309 L 423.5 339" opacity="1"></path></g><g class="highcharts-grid highcharts-yaxis-grid" data-z-index="1"><path fill="none" stroke="#B9CFD7" stroke-width="0.5" data-z-index="1" class="highcharts-grid-line" d="M 64 223.25 L 475 223.25" opacity="1"></path><path fill="none" stroke="#B9CFD7" stroke-width="0.5" data-z-index="1" class="highcharts-grid-line" d="M 64 172.25 L 475 172.25" opacity="1"></path><path fill="none" stroke="#B9CFD7" stroke-width="0.5" data-z-index="1" class="highcharts-grid-line" d="M 64 121.25 L 475 121.25" opacity="1"></path><path fill="none" stroke="#B9CFD7" stroke-width="0.5" data-z-index="1" class="highcharts-grid-line" d="M 64 69.75 L 475 69.75" opacity="1"></path></g><g class="highcharts-grid highcharts-yaxis-grid highcharts-navigator-yaxis" data-z-index="1"><path fill="none" data-z-index="1" class="highcharts-grid-line" d="M 78 339.5 L 461 339.5" opacity="1"></path><path fill="none" data-z-index="1" class="highcharts-grid-line" d="M 78 310.5 L 461 310.5" opacity="1"></path></g><rect fill="none" class="highcharts-plot-border" data-z-index="1" x="64" y="70" width="411" height="153"></rect><g class="highcharts-axis highcharts-xaxis" data-z-index="2"><path fill="none" class="highcharts-axis-line" stroke="#B9CFD7" stroke-width="0.5" data-z-index="7" d="M 64 223.25 L 475 223.25"></path></g><g class="highcharts-axis highcharts-xaxis highcharts-navigator-xaxis" data-z-index="2"><path fill="none" class="highcharts-axis-line" data-z-index="7" d="M 78 339 L 461 339"></path></g><g class="highcharts-axis highcharts-yaxis" data-z-index="2"><path fill="none" class="highcharts-axis-line" data-z-index="7" d="M 64 70 L 64 223"></path></g><g class="highcharts-axis highcharts-yaxis highcharts-navigator-yaxis" data-z-index="2"><path fill="none" class="highcharts-axis-line" data-z-index="7" d="M 64 309 L 64 339"></path></g><g class="highcharts-scrollbar" data-z-index="3" transform="translate(64,340)"><rect fill="#f2f2f2" class="highcharts-scrollbar-track" x="0" rx="0" ry="0" height="14" width="411" stroke="#f2f2f2" stroke-width="1" y="-0.5"></rect><g transform="translate(321,-0.5)"><rect fill="#cccccc" class="highcharts-scrollbar-thumb" height="14" width="76" rx="0" ry="0" stroke="#cccccc" stroke-width="1"></rect><path fill="none" d="M -3 3.5 L -3 9.333333333333334 M 0 3.5 L 0 9.333333333333334 M 3 3.5 L 3 9.333333333333334" class="highcharts-scrollbar-rifles" stroke="#333333" stroke-width="1" transform="translate(37.5,0)"></path></g><g><rect fill="#e6e6e6" class="highcharts-scrollbar-button" stroke="#cccccc" stroke-width="1" x="-0.5" y="-0.5" width="14" height="14" rx="0" ry="0"></rect><path fill="#333333" d="M 8 4 L 8 10 L 5 7" class="highcharts-scrollbar-arrow"></path></g><g transform="translate(397,0)"><rect fill="#e6e6e6" class="highcharts-scrollbar-button" stroke="#cccccc" stroke-width="1" x="-0.5" y="-0.5" width="14" height="14" rx="0" ry="0"></rect><path fill="#333333" d="M 6 4 L 6 10 L 9 7" class="highcharts-scrollbar-arrow"></path></g></g><g class="highcharts-series-group" data-z-index="3"><g class="highcharts-series highcharts-series-0 highcharts-area-series highcharts-color-0" data-z-index="0.1" opacity="1" transform="translate(64,70) scale(1 1)" clip-path="url(#highcharts-noahd6o-249-)"><path fill="rgb(124,181,236)" fill-opacity="0.75" d="M -8.2145986200854 35.71733999999999 L 0 37.055069999999986 L 8.2145986200854 38.84312999999999 L 16.429197240171 40.62965999999999 L 24.6663016099 42.837959999999995 L 32.880900229986 44.65253999999999 L 41.095498850071 45.88368 L 49.310097470157 46.87970999999999 L 57.547201839886 47.66816999999999 L 65.761800459972 48.44694 L 73.976399080057 49.05230999999999 L 82.190997700142 49.41695999999999 L 90.428102069872 49.833119999999994 L 98.642700689957 50.02946999999999 L 106.85729931004 51.23052 L 115.07189793013 51.91596 L 123.30900229986 52.83345 L 131.52360091994 53.111909999999995 L 139.73819954003 52.82630999999999 L 147.95279816011 51.97206 L 156.18990252984 51.78743999999999 L 164.40450114993 51.415139999999994 L 172.61909977001 51.64820999999999 L 180.8336983901 52.12097999999999 L 189.07080275983 52.79060999999999 L 197.28540137991 53.93096999999999 L 205.5 55.01828999999999 L 213.71459862009 56.02808999999999 L 221.95170298981 56.82369 L 230.1663016099 57.395909999999986 L 238.38090022999 57.11234999999999 L 246.59549885007 57.01137 L 254.8326032198 56.876729999999995 L 263.04720183989 57.160799999999995 L 271.26180045997 57.226079999999996 L 279.47639908006 57.11999999999999 L 287.71350344979 56.32643999999999 L 295.92810206987 55.684349999999995 L 304.14270068996 55.69251 L 312.35729931004 54.92496 L 320.59440367977 54.33591 L 328.80900229986 53.31590999999999 L 337.02360091994 52.79978999999999 L 345.23819954003 52.42595999999999 L 353.47530390976 51.91493999999999 L 361.68990252984 51.51611999999999 L 369.90450114993 50.86944 L 378.11909977001 50.792429999999996 L 386.35620413974 49.994789999999995 L 394.57080275983 50.079449999999994 L 402.78540137991 48.67949999999999 L 411 47.78291999999999 L 411 153 L 402.78540137991 153 L 394.57080275983 153 L 386.35620413974 153 L 378.11909977001 153 L 369.90450114993 153 L 361.68990252984 153 L 353.47530390976 153 L 345.23819954003 153 L 337.02360091994 153 L 328.80900229986 153 L 320.59440367977 153 L 312.35729931004 153 L 304.14270068996 153 L 295.92810206987 153 L 287.71350344979 153 L 279.47639908006 153 L 271.26180045997 153 L 263.04720183989 153 L 254.8326032198 153 L 246.59549885007 153 L 238.38090022999 153 L 230.1663016099 153 L 221.95170298981 153 L 213.71459862009 153 L 205.5 153 L 197.28540137991 153 L 189.07080275983 153 L 180.8336983901 153 L 172.61909977001 153 L 164.40450114993 153 L 156.18990252984 153 L 147.95279816011 153 L 139.73819954003 153 L 131.52360091994 153 L 123.30900229986 153 L 115.07189793013 153 L 106.85729931004 153 L 98.642700689957 153 L 90.428102069872 153 L 82.190997700142 153 L 73.976399080057 153 L 65.761800459972 153 L 57.547201839886 153 L 49.310097470157 153 L 41.095498850071 153 L 32.880900229986 153 L 24.6663016099 153 L 16.429197240171 153 L 8.2145986200854 153 L 0 153 L -8.2145986200854 153" class="highcharts-area" data-z-index="0"></path><path fill="none" d="M -8.2145986200854 35.71733999999999 L 0 37.055069999999986 L 8.2145986200854 38.84312999999999 L 16.429197240171 40.62965999999999 L 24.6663016099 42.837959999999995 L 32.880900229986 44.65253999999999 L 41.095498850071 45.88368 L 49.310097470157 46.87970999999999 L 57.547201839886 47.66816999999999 L 65.761800459972 48.44694 L 73.976399080057 49.05230999999999 L 82.190997700142 49.41695999999999 L 90.428102069872 49.833119999999994 L 98.642700689957 50.02946999999999 L 106.85729931004 51.23052 L 115.07189793013 51.91596 L 123.30900229986 52.83345 L 131.52360091994 53.111909999999995 L 139.73819954003 52.82630999999999 L 147.95279816011 51.97206 L 156.18990252984 51.78743999999999 L 164.40450114993 51.415139999999994 L 172.61909977001 51.64820999999999 L 180.8336983901 52.12097999999999 L 189.07080275983 52.79060999999999 L 197.28540137991 53.93096999999999 L 205.5 55.01828999999999 L 213.71459862009 56.02808999999999 L 221.95170298981 56.82369 L 230.1663016099 57.395909999999986 L 238.38090022999 57.11234999999999 L 246.59549885007 57.01137 L 254.8326032198 56.876729999999995 L 263.04720183989 57.160799999999995 L 271.26180045997 57.226079999999996 L 279.47639908006 57.11999999999999 L 287.71350344979 56.32643999999999 L 295.92810206987 55.684349999999995 L 304.14270068996 55.69251 L 312.35729931004 54.92496 L 320.59440367977 54.33591 L 328.80900229986 53.31590999999999 L 337.02360091994 52.79978999999999 L 345.23819954003 52.42595999999999 L 353.47530390976 51.91493999999999 L 361.68990252984 51.51611999999999 L 369.90450114993 50.86944 L 378.11909977001 50.792429999999996 L 386.35620413974 49.994789999999995 L 394.57080275983 50.079449999999994 L 402.78540137991 48.67949999999999 L 411 47.78291999999999" class="highcharts-graph" data-z-index="1" stroke="#7cb5ec" stroke-width="2" stroke-linejoin="round" stroke-linecap="round"></path></g><g class="highcharts-markers highcharts-series-0 highcharts-area-series highcharts-color-0" data-z-index="0.1" opacity="1" transform="translate(64,70) scale(1 1)" clip-path="none"></g><g class="highcharts-series highcharts-series-1 highcharts-areaspline-series highcharts-navigator-series" data-z-index="0.1" opacity="1" transform="translate(78,309) scale(1 1)" clip-path="url(#highcharts-noahd6o-384-)"><path fill="rgb(124,181,236)" fill-opacity="0.05" d="M 0 28.056384149409514 C 0 28.056384149409514 37.836331848919805 28.056384149409514 63.060553081533 27.865926994135222 C 75.3660783990326 27.67546983886093 81.5188410577824 27.549257444376227 93.824366375282 27.297809219799642 C 95.0557611743364 27.272647186648996 95.6714585738636 27.21171262559315 96.902853372918 27.174401349817153 C 103.05477376436279 26.987998095187983 106.1307339600852 26.925826779908796 112.28265435153 26.738522893786726 C 114.128904282806 26.682311212738075 115.052029248444 26.70091471074383 116.89827917972 26.565612431890358 C 123.051884105776 26.11464598603983 126.128686568804 25.67926953617594 132.28229149486 25.272851082026726 C 138.434211886304 24.866543883956055 141.51017208202603 25.08050630528738 147.66209247347 24.53379830134064 C 153.81569739952602 23.986940596406775 156.892499862554 23.228683895534612 163.04610478861 22.538936809825216 C 167.96831491561 21.98721466790287 170.42941997911004 22.323060412539892 175.35163010611 21.430125232261283 C 182.733260762002 20.091028052253986 186.42407608994802 18.69192580362345 193.80570674584 16.958855909110454 C 194.42056187806003 16.81449933414598 194.72798944417 16.838655249307966 195.34284457639 16.736559058567607 C 195.95769970861403 16.63446286782658 196.265127274726 16.560394905183944 196.87998240695 16.448374955406997 C 197.494837539174 16.33635500563005 197.802265105286 16.29157525786749 198.41712023751 16.17645930968287 C 199.033659904342 16.061027975338998 199.341929737758 15.98767080789442 199.95846940459 15.87200674908577 C 200.57332453681002 15.756658712296316 200.88075210291998 15.723266566808922 201.49560723514 15.598929070687609 C 202.110462367364 15.47459157456549 202.417889933476 15.376980829946978 203.0327450657 15.25031926847719 C 203.64760019792396 15.123657707007409 203.955027764036 15.056599996581658 204.56988289626 14.965621263338681 C 205.186422563088 14.87439327329301 205.494692396502 14.883237756728416 206.11123206333 14.794802460255577 C 206.72608719555402 14.706608790275137 207.033514761666 14.647712364376265 207.64836989389 14.524048847205485 C 208.26322502611396 14.400385330034712 208.570652592226 14.293989618400088 209.18550772445 14.176484874401698 C 209.800362856674 14.058980130403302 210.107790422786 14.060181936070306 210.72264555501 13.936525127213525 C 211.339185221838 13.812529532580024 211.64745505525198 13.691123887814392 212.26399472208 13.557353865675996 C 212.878849854304 13.423949335400328 213.18627742041605 13.268588746178363 213.80113255264 13.268588746178363 C 214.415987684864 13.268588746178363 214.723415250976 13.463136256465255 215.3382703832 13.562699215976554 C 215.953125515424 13.662262175487848 216.260553081536 13.748159630752497 216.87540821376 13.766403543734842 C 217.49194788058804 13.784647456717188 217.80021771400203 13.773569772211644 218.41675738083 13.784647456717188 C 219.031612513054 13.795694874325264 219.33904007916598 13.784647456717188 219.95389521139 13.821716299018895 C 220.568750343614 13.858785141320602 220.87617790972598 14.01298687716501 221.49103304195 14.01298687716501 C 222.10588817417403 14.01298687716501 222.413315740286 13.913224702969053 223.02817087251 13.83566069110731 C 223.64471053933798 13.757884175104092 223.95298037275202 13.624635557502604 224.56952003958 13.624635557502604 C 225.184375171804 13.624635557502604 225.49180273791598 13.662401619408733 226.10665787014 13.662401619408733 C 226.72151300236402 13.662401619408733 227.028940568476 13.6445063162286 227.6437957007 13.615223092842925 C 228.25865083292402 13.585939869457249 228.566078399036 13.553839153990385 229.18093353126 13.515985502480358 C 229.79747319808797 13.478028142336356 230.10574303150196 13.474777153250287 230.72228269833 13.425695563707858 C 231.337137830554 13.376748076868713 231.644565396666 13.366362175371645 232.25942052889 13.270912811526433 C 232.874275661114 13.175463447681217 233.181703227226 13.04394458963428 233.79655835945 12.948448744481798 C 234.41141349167 12.852952899329932 234.71884105778 12.881418376000738 235.33369619 12.793433585765563 C 235.95023585683202 12.705207741310112 236.258505690248 12.631173034103044 236.87504535708 12.507922157755232 C 237.489900489304 12.385008032435529 237.797328055416 12.284021702122223 238.41218318764 12.178021081596771 C 239.027038319864 12.072020461071325 239.33446588597604 12.110042170166167 239.9493210182 11.977919055127991 C 240.56417615042 11.845795940090671 240.87160371653 11.704004744997004 241.48645884875 11.517405506408029 C 242.10299851558202 11.330295037027435 242.41126834899802 11.187631411330186 243.02780801583 11.04364478520407 C 243.642663148054 10.90005156516007 243.95009071416604 10.89220868712386 244.56494584639 10.79845589098274 C 245.179800978614 10.704703094841618 245.48722854472598 10.651272832489752 246.10208367695 10.57488080449846 C 246.71693880917002 10.498488776507665 247.02436637527998 10.451240527981163 247.6392215075 10.416495751027526 C 248.255761174332 10.381750974073888 248.564031007748 10.381750974073888 249.18057067458 10.381750974073888 C 249.795425806804 10.381750974073888 250.10285337291597 10.385237072095993 250.71770850514 10.385237072095993 C 251.332563637364 10.385237072095993 251.63999120347597 10.309821151551233 252.2548463357 10.280305521630655 C 252.86970146792 10.25078989171027 253.17712903402997 10.23765892249358 253.79198416625 10.23765892249358 C 254.40852383308197 10.23765892249358 254.716793666498 10.346425180783232 255.33333333333 10.346425180783232 C 255.94818846555398 10.346425180783232 256.25561603166597 10.289741226943816 256.87047116389 10.249976468838348 C 257.485326296114 10.21021171073288 257.792753862226 10.192757979969027 258.40760899445 10.14760139025589 C 259.02246412667 10.102444800543047 259.32989169278 10.095816063841259 259.944746825 10.024193520273403 C 260.561286491832 9.952374750558413 260.86955632524797 9.902800370141822 261.48609599208 9.788998107048773 C 262.100951124304 9.675506779100632 262.408378690416 9.634145632906915 263.02323382264 9.45595954267042 C 263.638088954864 9.277773452433943 263.94551652097596 9.123385791362407 264.5603716532 8.898067655866345 C 265.17522678542 8.67274952037174 265.48265435152996 8.542379787055648 266.09750948375 8.32936886519375 C 266.714049150582 8.115774351764019 267.022318983998 7.991435774682119 267.63885865083 7.831554067637274 C 268.25371378305397 7.6721091958573755 268.56114134916595 7.659945082335825 269.17599648139 7.5310524181318925 C 269.790851613614 7.40215975392796 270.098279179726 7.3295094711477775 270.71313431195 7.1870907466176135 C 271.32798944417 7.044672022088385 271.63541701028 6.944008135970653 272.2502721425 6.818958795483411 C 272.86681180933203 6.693566854062688 273.17508164274807 6.674929439619394 273.79162130958 6.560987541847702 C 274.406476441804 6.447356960736432 274.713904007916 6.359444594863111 275.32875914014 6.250027598276006 C 275.943614272364 6.14061060168889 276.251041838476 6.113976812800349 276.8658969707 6.01390255891215 C 277.48075210292 5.913828305024609 277.78817966903 5.862961985900255 278.40303480125 5.749656328836654 C 279.019574468082 5.636040245314754 279.327844301498 5.597799291971003 279.94438396833 5.446598207448396 C 280.559239100554 5.295810240642858 280.866666666666 5.159645858922269 281.48152179889 4.9946837005162905 C 282.096376931114 4.829721542110328 282.40380449722596 4.7358990240091305 283.01865962945 4.621787415418545 C 283.63351476166997 4.5076758068287095 283.94094232777996 4.519142732538282 284.55579746 4.424125657565238 C 285.172337126832 4.328848261838356 285.480606960248 4.262762557566822 286.09714662708 4.146051238668729 C 286.712001759304 4.029658803155455 287.01942932541596 3.973977440297664 287.63428445764 3.8413662715368204 C 288.249139589864 3.7087551027759766 288.556567155976 3.61054010116698 289.1714222882 3.48299539486451 C 289.78627742042 3.355450688562877 290.09370498653 3.287542770810037 290.70856011875 3.203642740026563 C 291.325099785582 3.1195128461446155 291.63336961899796 3.062920583200956 292.24990928583 3.062920583200956 C 292.864764418054 3.062920583200956 293.172191984166 3.068265933501518 293.78704711639 3.068265933501518 C 294.40190224861396 3.068265933501518 294.709329814726 3.0302674650605823 295.32418494695 3.0302674650605823 C 295.93904007917 3.0302674650605823 296.24646764528 3.12857542928392 296.8613227775 3.12857542928392 C 297.477862444332 3.12857542928392 297.786132277748 2.9898287280041735 298.40267194458 2.969144546406355 C 299.01752707680396 2.948460364808536 299.324954642916 2.969144546406355 299.93980977514 2.948460364808536 C 300.554664907364 2.9277761832107174 300.862092473476 2.5505803772190454 301.4769476057 2.5505803772190454 C 302.09180273792 2.5505803772190454 302.39923030402997 2.8516759192104577 303.01408543625 2.9968009240483795 C 303.630625103082 3.142323531640024 303.93889493649806 3.159999368019628 304.55543460333 3.2771994082929616 C 305.170289735554 3.394079229877184 305.477717301666 3.4395586135090994 306.09257243389 3.58200057869227 C 306.707427566114 3.7244425438754534 307.014855132226 3.826515493962124 307.62971026445 3.9894092342088463 C 308.24456539667 4.1523029744545 308.55199296278 4.214674275462089 309.166848095 4.39646927992321 C 309.783387761832 4.578762352890649 310.09165759524797 4.716056370259188 310.70819726208 4.899629427780248 C 311.323052394304 5.082700919570626 311.630479960416 5.17428747061509 312.24533509264 5.313080653201805 C 312.86019022486397 5.451873835788507 313.16761779097595 5.492103406963264 313.7824729232 5.59359534071379 C 314.39732805541996 5.69508727446365 314.70475562152996 5.73933251898973 315.31961075375 5.82054032195277 C 315.936150420582 5.901970612047631 316.244420253998 5.928674345447506 316.86095992083 6.000190573358541 C 317.47581505305396 6.071511401739856 317.78324261916606 6.1145578291370395 318.39809775139 6.177632962683642 C 319.01295288361405 6.24070809623025 319.32038044972603 6.271362518171142 319.93523558195 6.315566241091567 C 320.55009071417 6.359769964011704 320.85751828028003 6.36311881182737 321.4723734125 6.398651577285047 C 322.088913079332 6.434281692785257 322.397182912748 6.465523235311488 323.01372257958 6.493473443486284 C 323.62857771180404 6.521347284972117 323.936005277916 6.493473443486284 324.55086041014 6.5382117014366194 C 325.16571554236 6.582949959386955 325.47314310847 6.725903218946987 326.08799824069 6.811870396171798 C 326.702853372914 6.897837573397166 327.010280939026 6.895102138944274 327.62513607125 6.968047587562065 C 328.241675738082 7.041192886723921 328.549945571498 7.122523378718413 329.16648523833 7.177097265620912 C 329.78134037055395 7.2315220435428715 330.088767936666 7.240544249623209 330.70362306889 7.240544249623209 C 331.31847820111 7.240544249623209 331.62590576722 7.227413280406446 332.24076089944 7.175470419877264 C 332.855616031664 7.123527559347742 333.163043597776 7.022895529776509 333.77789873 6.980829946976449 C 334.394438396832 6.938764364176389 334.70270823024805 6.964177875689193 335.31924789708 6.938764364176389 C 335.93410302930397 6.913420288487356 336.241530595416 6.853935978971855 336.85638572764 6.853935978971855 C 337.47124085985996 6.853935978971855 337.77866842596995 6.874875807758062 338.39352355819 6.907040872175241 C 339.00837869041396 6.939205936592626 339.31580625652606 6.962773453491015 339.93066138875 7.014761301058261 C 340.54720105558204 7.06689158108453 340.855470888998 7.084742278742411 341.47201055583 7.167336191159023 C 342.08686568805405 7.249704437148381 342.394293254166 7.325651522669179 343.00914838639 7.427166697073186 C 343.62400351861 7.528681871476527 343.93143108472003 7.579346496065089 344.54628621694 7.674912063177391 C 345.16114134916404 7.770477630290322 345.46856891527597 7.822835166391599 346.0834240475 7.904994532636266 C 346.699963714332 7.987378993034916 347.008233547748 8.023854928432808 347.62477321458 8.086271629785685 C 348.23962834680395 8.148517793703252 348.54705591291605 8.21665169581238 349.16191104514 8.21665169581238 C 349.77676617736 8.21665169581238 350.08419374346994 8.16956613186044 350.69904887569 8.152042679136052 C 351.31390400791395 8.134519226411554 351.621331574026 8.139756925750909 352.23618670625 8.129034432190164 C 352.85272637308196 8.118282561934747 353.160996206498 8.098356769595647 353.77753587333 8.098356769595647 C 354.39239100555403 8.098356769595647 354.69981857166596 8.148207971311738 355.31467370389 8.163081989539382 C 355.92952883610997 8.177956007767026 356.23695640222 8.177956007767026 356.85181153444 8.177956007767026 C 357.46666666666397 8.177956007767026 357.774094232776 8.177956007767026 358.388949365 8.153785728147103 C 359.005489031832 8.12961544852718 359.3137588652479 8.03848538079674 359.93029853208 7.9729734440673 C 360.54515366430394 7.907640501700431 360.852581230416 7.826673530406328 361.46743636264 7.826673530406328 C 362.08229149486 7.826673530406328 362.38971906097004 7.828532782684782 363.00457419319 7.828532782684782 C 363.61942932541405 7.828532782684782 363.926856891526 7.715382434228663 364.54171202375 7.653646865242557 C 365.158251690582 7.5917421577113675 365.46652152399804 7.592856659910676 366.08306119083 7.519432091391543 C 366.697916323054 7.446208136447493 367.00534388916606 7.357026404868675 367.62019902139 7.287025556584599 C 368.23505415361006 7.217024708300969 368.54248171972 7.209982790295963 369.15733685194 7.169427849972283 C 369.77219198416395 7.128872909648341 370.07961955027605 7.124518227969633 370.6944746825 7.084250854965539 C 371.311014349332 7.043873160391623 371.619284182748 7.009333225476747 372.23582384958 6.967815181027259 C 372.85067898180404 6.9264105738576305 373.15810654791596 6.924587565553324 373.77296168014 6.876944225917743 C 374.38781681236 6.829300886282476 374.69524437847 6.747145176228063 375.31009951069 6.72959848285014 C 375.92495464291403 6.712051789472216 376.23238220902596 6.72959848285014 376.84723734125 6.712051789472216 C 377.463777008082 6.694505096094293 377.77204684149797 6.530309879253185 378.38858650833 6.530309879253185 C 379.00344164055394 6.530309879253185 379.31086920666604 6.549599621642159 379.92572433889 6.549599621642159 C 380.54057947111 6.549599621642159 380.84800703721993 6.335274315242862 381.46286216944 6.230621652619629 C 382.07771730166394 6.1259689899957275 383 6.026336308524321 383 6.026336308524321 L 383 30 C 383 30 382.07771730166394 30 381.46286216944 30 C 380.84800703721993 30 380.54057947111 30 379.92572433889 30 C 379.31086920666604 30 379.00344164055394 30 378.38858650833 30 C 377.77204684149797 30 377.463777008082 30 376.84723734125 30 C 376.23238220902596 30 375.92495464291403 30 375.31009951069 30 C 374.69524437847 30 374.38781681236 30 373.77296168014 30 C 373.15810654791596 30 372.85067898180404 30 372.23582384958 30 C 371.619284182748 30 371.311014349332 30 370.6944746825 30 C 370.07961955027605 30 369.77219198416395 30 369.15733685194 30 C 368.54248171972 30 368.23505415361006 30 367.62019902139 30 C 367.00534388916606 30 366.697916323054 30 366.08306119083 30 C 365.46652152399804 30 365.158251690582 30 364.54171202375 30 C 363.926856891526 30 363.61942932541405 30 363.00457419319 30 C 362.38971906097004 30 362.08229149486 30 361.46743636264 30 C 360.852581230416 30 360.54515366430394 30 359.93029853208 30 C 359.3137588652479 30 359.005489031832 30 358.388949365 30 C 357.774094232776 30 357.46666666666397 30 356.85181153444 30 C 356.23695640222 30 355.92952883610997 30 355.31467370389 30 C 354.69981857166596 30 354.39239100555403 30 353.77753587333 30 C 353.160996206498 30 352.85272637308196 30 352.23618670625 30 C 351.621331574026 30 351.31390400791395 30 350.69904887569 30 C 350.08419374346994 30 349.77676617736 30 349.16191104514 30 C 348.54705591291605 30 348.23962834680395 30 347.62477321458 30 C 347.008233547748 30 346.699963714332 30 346.0834240475 30 C 345.46856891527597 30 345.16114134916404 30 344.54628621694 30 C 343.93143108472003 30 343.62400351861 30 343.00914838639 30 C 342.394293254166 30 342.08686568805405 30 341.47201055583 30 C 340.855470888998 30 340.54720105558204 30 339.93066138875 30 C 339.31580625652606 30 339.00837869041396 30 338.39352355819 30 C 337.77866842596995 30 337.47124085985996 30 336.85638572764 30 C 336.241530595416 30 335.93410302930397 30 335.31924789708 30 C 334.70270823024805 30 334.394438396832 30 333.77789873 30 C 333.163043597776 30 332.855616031664 30 332.24076089944 30 C 331.62590576722 30 331.31847820111 30 330.70362306889 30 C 330.088767936666 30 329.78134037055395 30 329.16648523833 30 C 328.549945571498 30 328.241675738082 30 327.62513607125 30 C 327.010280939026 30 326.702853372914 30 326.08799824069 30 C 325.47314310847 30 325.16571554236 30 324.55086041014 30 C 323.936005277916 30 323.62857771180404 30 323.01372257958 30 C 322.397182912748 30 322.088913079332 30 321.4723734125 30 C 320.85751828028003 30 320.55009071417 30 319.93523558195 30 C 319.32038044972603 30 319.01295288361405 30 318.39809775139 30 C 317.78324261916606 30 317.47581505305396 30 316.86095992083 30 C 316.244420253998 30 315.936150420582 30 315.31961075375 30 C 314.70475562152996 30 314.39732805541996 30 313.7824729232 30 C 313.16761779097595 30 312.86019022486397 30 312.24533509264 30 C 311.630479960416 30 311.323052394304 30 310.70819726208 30 C 310.09165759524797 30 309.783387761832 30 309.166848095 30 C 308.55199296278 30 308.24456539667 30 307.62971026445 30 C 307.014855132226 30 306.707427566114 30 306.09257243389 30 C 305.477717301666 30 305.170289735554 30 304.55543460333 30 C 303.93889493649806 30 303.630625103082 30 303.01408543625 30 C 302.39923030402997 30 302.09180273792 30 301.4769476057 30 C 300.862092473476 30 300.554664907364 30 299.93980977514 30 C 299.324954642916 30 299.01752707680396 30 298.40267194458 30 C 297.786132277748 30 297.477862444332 30 296.8613227775 30 C 296.24646764528 30 295.93904007917 30 295.32418494695 30 C 294.709329814726 30 294.40190224861396 30 293.78704711639 30 C 293.172191984166 30 292.864764418054 30 292.24990928583 30 C 291.63336961899796 30 291.325099785582 30 290.70856011875 30 C 290.09370498653 30 289.78627742042 30 289.1714222882 30 C 288.556567155976 30 288.249139589864 30 287.63428445764 30 C 287.01942932541596 30 286.712001759304 30 286.09714662708 30 C 285.480606960248 30 285.172337126832 30 284.55579746 30 C 283.94094232777996 30 283.63351476166997 30 283.01865962945 30 C 282.40380449722596 30 282.096376931114 30 281.48152179889 30 C 280.866666666666 30 280.559239100554 30 279.94438396833 30 C 279.327844301498 30 279.019574468082 30 278.40303480125 30 C 277.78817966903 30 277.48075210292 30 276.8658969707 30 C 276.251041838476 30 275.943614272364 30 275.32875914014 30 C 274.713904007916 30 274.406476441804 30 273.79162130958 30 C 273.17508164274807 30 272.86681180933203 30 272.2502721425 30 C 271.63541701028 30 271.32798944417 30 270.71313431195 30 C 270.098279179726 30 269.790851613614 30 269.17599648139 30 C 268.56114134916595 30 268.25371378305397 30 267.63885865083 30 C 267.022318983998 30 266.714049150582 30 266.09750948375 30 C 265.48265435152996 30 265.17522678542 30 264.5603716532 30 C 263.94551652097596 30 263.638088954864 30 263.02323382264 30 C 262.408378690416 30 262.100951124304 30 261.48609599208 30 C 260.86955632524797 30 260.561286491832 30 259.944746825 30 C 259.32989169278 30 259.02246412667 30 258.40760899445 30 C 257.792753862226 30 257.485326296114 30 256.87047116389 30 C 256.25561603166597 30 255.94818846555398 30 255.33333333333 30 C 254.716793666498 30 254.40852383308197 30 253.79198416625 30 C 253.17712903402997 30 252.86970146792 30 252.2548463357 30 C 251.63999120347597 30 251.332563637364 30 250.71770850514 30 C 250.10285337291597 30 249.795425806804 30 249.18057067458 30 C 248.564031007748 30 248.255761174332 30 247.6392215075 30 C 247.02436637527998 30 246.71693880917002 30 246.10208367695 30 C 245.48722854472598 30 245.179800978614 30 244.56494584639 30 C 243.95009071416604 30 243.642663148054 30 243.02780801583 30 C 242.41126834899802 30 242.10299851558202 30 241.48645884875 30 C 240.87160371653 30 240.56417615042 30 239.9493210182 30 C 239.33446588597604 30 239.027038319864 30 238.41218318764 30 C 237.797328055416 30 237.489900489304 30 236.87504535708 30 C 236.258505690248 30 235.95023585683202 30 235.33369619 30 C 234.71884105778 30 234.41141349167 30 233.79655835945 30 C 233.181703227226 30 232.874275661114 30 232.25942052889 30 C 231.644565396666 30 231.337137830554 30 230.72228269833 30 C 230.10574303150196 30 229.79747319808797 30 229.18093353126 30 C 228.566078399036 30 228.25865083292402 30 227.6437957007 30 C 227.028940568476 30 226.72151300236402 30 226.10665787014 30 C 225.49180273791598 30 225.184375171804 30 224.56952003958 30 C 223.95298037275202 30 223.64471053933798 30 223.02817087251 30 C 222.413315740286 30 222.10588817417403 30 221.49103304195 30 C 220.87617790972598 30 220.568750343614 30 219.95389521139 30 C 219.33904007916598 30 219.031612513054 30 218.41675738083 30 C 217.80021771400203 30 217.49194788058804 30 216.87540821376 30 C 216.260553081536 30 215.953125515424 30 215.3382703832 30 C 214.723415250976 30 214.415987684864 30 213.80113255264 30 C 213.18627742041605 30 212.878849854304 30 212.26399472208 30 C 211.64745505525198 30 211.339185221838 30 210.72264555501 30 C 210.107790422786 30 209.800362856674 30 209.18550772445 30 C 208.570652592226 30 208.26322502611396 30 207.64836989389 30 C 207.033514761666 30 206.72608719555402 30 206.11123206333 30 C 205.494692396502 30 205.186422563088 30 204.56988289626 30 C 203.955027764036 30 203.64760019792396 30 203.0327450657 30 C 202.417889933476 30 202.110462367364 30 201.49560723514 30 C 200.88075210291998 30 200.57332453681002 30 199.95846940459 30 C 199.341929737758 30 199.033659904342 30 198.41712023751 30 C 197.802265105286 30 197.494837539174 30 196.87998240695 30 C 196.265127274726 30 195.95769970861403 30 195.34284457639 30 C 194.72798944417 30 194.42056187806003 30 193.80570674584 30 C 186.42407608994802 30 182.733260762002 30 175.35163010611 30 C 170.42941997911004 30 167.96831491561 30 163.04610478861 30 C 156.892499862554 30 153.81569739952602 30 147.66209247347 30 C 141.51017208202603 30 138.434211886304 30 132.28229149486 30 C 126.128686568804 30 123.051884105776 30 116.89827917972 30 C 115.052029248444 30 114.128904282806 30 112.28265435153 30 C 106.1307339600852 30 103.05477376436279 30 96.902853372918 30 C 95.6714585738636 30 95.0557611743364 30 93.824366375282 30 C 81.5188410577824 30 75.3660783990326 30 63.060553081533 30 C 37.836331848919805 30 0 30 0 30" class="highcharts-area" data-z-index="0"></path><path fill="none" d="M 0 28.056384149409514 C 0 28.056384149409514 37.836331848919805 28.056384149409514 63.060553081533 27.865926994135222 C 75.3660783990326 27.67546983886093 81.5188410577824 27.549257444376227 93.824366375282 27.297809219799642 C 95.0557611743364 27.272647186648996 95.6714585738636 27.21171262559315 96.902853372918 27.174401349817153 C 103.05477376436279 26.987998095187983 106.1307339600852 26.925826779908796 112.28265435153 26.738522893786726 C 114.128904282806 26.682311212738075 115.052029248444 26.70091471074383 116.89827917972 26.565612431890358 C 123.051884105776 26.11464598603983 126.128686568804 25.67926953617594 132.28229149486 25.272851082026726 C 138.434211886304 24.866543883956055 141.51017208202603 25.08050630528738 147.66209247347 24.53379830134064 C 153.81569739952602 23.986940596406775 156.892499862554 23.228683895534612 163.04610478861 22.538936809825216 C 167.96831491561 21.98721466790287 170.42941997911004 22.323060412539892 175.35163010611 21.430125232261283 C 182.733260762002 20.091028052253986 186.42407608994802 18.69192580362345 193.80570674584 16.958855909110454 C 194.42056187806003 16.81449933414598 194.72798944417 16.838655249307966 195.34284457639 16.736559058567607 C 195.95769970861403 16.63446286782658 196.265127274726 16.560394905183944 196.87998240695 16.448374955406997 C 197.494837539174 16.33635500563005 197.802265105286 16.29157525786749 198.41712023751 16.17645930968287 C 199.033659904342 16.061027975338998 199.341929737758 15.98767080789442 199.95846940459 15.87200674908577 C 200.57332453681002 15.756658712296316 200.88075210291998 15.723266566808922 201.49560723514 15.598929070687609 C 202.110462367364 15.47459157456549 202.417889933476 15.376980829946978 203.0327450657 15.25031926847719 C 203.64760019792396 15.123657707007409 203.955027764036 15.056599996581658 204.56988289626 14.965621263338681 C 205.186422563088 14.87439327329301 205.494692396502 14.883237756728416 206.11123206333 14.794802460255577 C 206.72608719555402 14.706608790275137 207.033514761666 14.647712364376265 207.64836989389 14.524048847205485 C 208.26322502611396 14.400385330034712 208.570652592226 14.293989618400088 209.18550772445 14.176484874401698 C 209.800362856674 14.058980130403302 210.107790422786 14.060181936070306 210.72264555501 13.936525127213525 C 211.339185221838 13.812529532580024 211.64745505525198 13.691123887814392 212.26399472208 13.557353865675996 C 212.878849854304 13.423949335400328 213.18627742041605 13.268588746178363 213.80113255264 13.268588746178363 C 214.415987684864 13.268588746178363 214.723415250976 13.463136256465255 215.3382703832 13.562699215976554 C 215.953125515424 13.662262175487848 216.260553081536 13.748159630752497 216.87540821376 13.766403543734842 C 217.49194788058804 13.784647456717188 217.80021771400203 13.773569772211644 218.41675738083 13.784647456717188 C 219.031612513054 13.795694874325264 219.33904007916598 13.784647456717188 219.95389521139 13.821716299018895 C 220.568750343614 13.858785141320602 220.87617790972598 14.01298687716501 221.49103304195 14.01298687716501 C 222.10588817417403 14.01298687716501 222.413315740286 13.913224702969053 223.02817087251 13.83566069110731 C 223.64471053933798 13.757884175104092 223.95298037275202 13.624635557502604 224.56952003958 13.624635557502604 C 225.184375171804 13.624635557502604 225.49180273791598 13.662401619408733 226.10665787014 13.662401619408733 C 226.72151300236402 13.662401619408733 227.028940568476 13.6445063162286 227.6437957007 13.615223092842925 C 228.25865083292402 13.585939869457249 228.566078399036 13.553839153990385 229.18093353126 13.515985502480358 C 229.79747319808797 13.478028142336356 230.10574303150196 13.474777153250287 230.72228269833 13.425695563707858 C 231.337137830554 13.376748076868713 231.644565396666 13.366362175371645 232.25942052889 13.270912811526433 C 232.874275661114 13.175463447681217 233.181703227226 13.04394458963428 233.79655835945 12.948448744481798 C 234.41141349167 12.852952899329932 234.71884105778 12.881418376000738 235.33369619 12.793433585765563 C 235.95023585683202 12.705207741310112 236.258505690248 12.631173034103044 236.87504535708 12.507922157755232 C 237.489900489304 12.385008032435529 237.797328055416 12.284021702122223 238.41218318764 12.178021081596771 C 239.027038319864 12.072020461071325 239.33446588597604 12.110042170166167 239.9493210182 11.977919055127991 C 240.56417615042 11.845795940090671 240.87160371653 11.704004744997004 241.48645884875 11.517405506408029 C 242.10299851558202 11.330295037027435 242.41126834899802 11.187631411330186 243.02780801583 11.04364478520407 C 243.642663148054 10.90005156516007 243.95009071416604 10.89220868712386 244.56494584639 10.79845589098274 C 245.179800978614 10.704703094841618 245.48722854472598 10.651272832489752 246.10208367695 10.57488080449846 C 246.71693880917002 10.498488776507665 247.02436637527998 10.451240527981163 247.6392215075 10.416495751027526 C 248.255761174332 10.381750974073888 248.564031007748 10.381750974073888 249.18057067458 10.381750974073888 C 249.795425806804 10.381750974073888 250.10285337291597 10.385237072095993 250.71770850514 10.385237072095993 C 251.332563637364 10.385237072095993 251.63999120347597 10.309821151551233 252.2548463357 10.280305521630655 C 252.86970146792 10.25078989171027 253.17712903402997 10.23765892249358 253.79198416625 10.23765892249358 C 254.40852383308197 10.23765892249358 254.716793666498 10.346425180783232 255.33333333333 10.346425180783232 C 255.94818846555398 10.346425180783232 256.25561603166597 10.289741226943816 256.87047116389 10.249976468838348 C 257.485326296114 10.21021171073288 257.792753862226 10.192757979969027 258.40760899445 10.14760139025589 C 259.02246412667 10.102444800543047 259.32989169278 10.095816063841259 259.944746825 10.024193520273403 C 260.561286491832 9.952374750558413 260.86955632524797 9.902800370141822 261.48609599208 9.788998107048773 C 262.100951124304 9.675506779100632 262.408378690416 9.634145632906915 263.02323382264 9.45595954267042 C 263.638088954864 9.277773452433943 263.94551652097596 9.123385791362407 264.5603716532 8.898067655866345 C 265.17522678542 8.67274952037174 265.48265435152996 8.542379787055648 266.09750948375 8.32936886519375 C 266.714049150582 8.115774351764019 267.022318983998 7.991435774682119 267.63885865083 7.831554067637274 C 268.25371378305397 7.6721091958573755 268.56114134916595 7.659945082335825 269.17599648139 7.5310524181318925 C 269.790851613614 7.40215975392796 270.098279179726 7.3295094711477775 270.71313431195 7.1870907466176135 C 271.32798944417 7.044672022088385 271.63541701028 6.944008135970653 272.2502721425 6.818958795483411 C 272.86681180933203 6.693566854062688 273.17508164274807 6.674929439619394 273.79162130958 6.560987541847702 C 274.406476441804 6.447356960736432 274.713904007916 6.359444594863111 275.32875914014 6.250027598276006 C 275.943614272364 6.14061060168889 276.251041838476 6.113976812800349 276.8658969707 6.01390255891215 C 277.48075210292 5.913828305024609 277.78817966903 5.862961985900255 278.40303480125 5.749656328836654 C 279.019574468082 5.636040245314754 279.327844301498 5.597799291971003 279.94438396833 5.446598207448396 C 280.559239100554 5.295810240642858 280.866666666666 5.159645858922269 281.48152179889 4.9946837005162905 C 282.096376931114 4.829721542110328 282.40380449722596 4.7358990240091305 283.01865962945 4.621787415418545 C 283.63351476166997 4.5076758068287095 283.94094232777996 4.519142732538282 284.55579746 4.424125657565238 C 285.172337126832 4.328848261838356 285.480606960248 4.262762557566822 286.09714662708 4.146051238668729 C 286.712001759304 4.029658803155455 287.01942932541596 3.973977440297664 287.63428445764 3.8413662715368204 C 288.249139589864 3.7087551027759766 288.556567155976 3.61054010116698 289.1714222882 3.48299539486451 C 289.78627742042 3.355450688562877 290.09370498653 3.287542770810037 290.70856011875 3.203642740026563 C 291.325099785582 3.1195128461446155 291.63336961899796 3.062920583200956 292.24990928583 3.062920583200956 C 292.864764418054 3.062920583200956 293.172191984166 3.068265933501518 293.78704711639 3.068265933501518 C 294.40190224861396 3.068265933501518 294.709329814726 3.0302674650605823 295.32418494695 3.0302674650605823 C 295.93904007917 3.0302674650605823 296.24646764528 3.12857542928392 296.8613227775 3.12857542928392 C 297.477862444332 3.12857542928392 297.786132277748 2.9898287280041735 298.40267194458 2.969144546406355 C 299.01752707680396 2.948460364808536 299.324954642916 2.969144546406355 299.93980977514 2.948460364808536 C 300.554664907364 2.9277761832107174 300.862092473476 2.5505803772190454 301.4769476057 2.5505803772190454 C 302.09180273792 2.5505803772190454 302.39923030402997 2.8516759192104577 303.01408543625 2.9968009240483795 C 303.630625103082 3.142323531640024 303.93889493649806 3.159999368019628 304.55543460333 3.2771994082929616 C 305.170289735554 3.394079229877184 305.477717301666 3.4395586135090994 306.09257243389 3.58200057869227 C 306.707427566114 3.7244425438754534 307.014855132226 3.826515493962124 307.62971026445 3.9894092342088463 C 308.24456539667 4.1523029744545 308.55199296278 4.214674275462089 309.166848095 4.39646927992321 C 309.783387761832 4.578762352890649 310.09165759524797 4.716056370259188 310.70819726208 4.899629427780248 C 311.323052394304 5.082700919570626 311.630479960416 5.17428747061509 312.24533509264 5.313080653201805 C 312.86019022486397 5.451873835788507 313.16761779097595 5.492103406963264 313.7824729232 5.59359534071379 C 314.39732805541996 5.69508727446365 314.70475562152996 5.73933251898973 315.31961075375 5.82054032195277 C 315.936150420582 5.901970612047631 316.244420253998 5.928674345447506 316.86095992083 6.000190573358541 C 317.47581505305396 6.071511401739856 317.78324261916606 6.1145578291370395 318.39809775139 6.177632962683642 C 319.01295288361405 6.24070809623025 319.32038044972603 6.271362518171142 319.93523558195 6.315566241091567 C 320.55009071417 6.359769964011704 320.85751828028003 6.36311881182737 321.4723734125 6.398651577285047 C 322.088913079332 6.434281692785257 322.397182912748 6.465523235311488 323.01372257958 6.493473443486284 C 323.62857771180404 6.521347284972117 323.936005277916 6.493473443486284 324.55086041014 6.5382117014366194 C 325.16571554236 6.582949959386955 325.47314310847 6.725903218946987 326.08799824069 6.811870396171798 C 326.702853372914 6.897837573397166 327.010280939026 6.895102138944274 327.62513607125 6.968047587562065 C 328.241675738082 7.041192886723921 328.549945571498 7.122523378718413 329.16648523833 7.177097265620912 C 329.78134037055395 7.2315220435428715 330.088767936666 7.240544249623209 330.70362306889 7.240544249623209 C 331.31847820111 7.240544249623209 331.62590576722 7.227413280406446 332.24076089944 7.175470419877264 C 332.855616031664 7.123527559347742 333.163043597776 7.022895529776509 333.77789873 6.980829946976449 C 334.394438396832 6.938764364176389 334.70270823024805 6.964177875689193 335.31924789708 6.938764364176389 C 335.93410302930397 6.913420288487356 336.241530595416 6.853935978971855 336.85638572764 6.853935978971855 C 337.47124085985996 6.853935978971855 337.77866842596995 6.874875807758062 338.39352355819 6.907040872175241 C 339.00837869041396 6.939205936592626 339.31580625652606 6.962773453491015 339.93066138875 7.014761301058261 C 340.54720105558204 7.06689158108453 340.855470888998 7.084742278742411 341.47201055583 7.167336191159023 C 342.08686568805405 7.249704437148381 342.394293254166 7.325651522669179 343.00914838639 7.427166697073186 C 343.62400351861 7.528681871476527 343.93143108472003 7.579346496065089 344.54628621694 7.674912063177391 C 345.16114134916404 7.770477630290322 345.46856891527597 7.822835166391599 346.0834240475 7.904994532636266 C 346.699963714332 7.987378993034916 347.008233547748 8.023854928432808 347.62477321458 8.086271629785685 C 348.23962834680395 8.148517793703252 348.54705591291605 8.21665169581238 349.16191104514 8.21665169581238 C 349.77676617736 8.21665169581238 350.08419374346994 8.16956613186044 350.69904887569 8.152042679136052 C 351.31390400791395 8.134519226411554 351.621331574026 8.139756925750909 352.23618670625 8.129034432190164 C 352.85272637308196 8.118282561934747 353.160996206498 8.098356769595647 353.77753587333 8.098356769595647 C 354.39239100555403 8.098356769595647 354.69981857166596 8.148207971311738 355.31467370389 8.163081989539382 C 355.92952883610997 8.177956007767026 356.23695640222 8.177956007767026 356.85181153444 8.177956007767026 C 357.46666666666397 8.177956007767026 357.774094232776 8.177956007767026 358.388949365 8.153785728147103 C 359.005489031832 8.12961544852718 359.3137588652479 8.03848538079674 359.93029853208 7.9729734440673 C 360.54515366430394 7.907640501700431 360.852581230416 7.826673530406328 361.46743636264 7.826673530406328 C 362.08229149486 7.826673530406328 362.38971906097004 7.828532782684782 363.00457419319 7.828532782684782 C 363.61942932541405 7.828532782684782 363.926856891526 7.715382434228663 364.54171202375 7.653646865242557 C 365.158251690582 7.5917421577113675 365.46652152399804 7.592856659910676 366.08306119083 7.519432091391543 C 366.697916323054 7.446208136447493 367.00534388916606 7.357026404868675 367.62019902139 7.287025556584599 C 368.23505415361006 7.217024708300969 368.54248171972 7.209982790295963 369.15733685194 7.169427849972283 C 369.77219198416395 7.128872909648341 370.07961955027605 7.124518227969633 370.6944746825 7.084250854965539 C 371.311014349332 7.043873160391623 371.619284182748 7.009333225476747 372.23582384958 6.967815181027259 C 372.85067898180404 6.9264105738576305 373.15810654791596 6.924587565553324 373.77296168014 6.876944225917743 C 374.38781681236 6.829300886282476 374.69524437847 6.747145176228063 375.31009951069 6.72959848285014 C 375.92495464291403 6.712051789472216 376.23238220902596 6.72959848285014 376.84723734125 6.712051789472216 C 377.463777008082 6.694505096094293 377.77204684149797 6.530309879253185 378.38858650833 6.530309879253185 C 379.00344164055394 6.530309879253185 379.31086920666604 6.549599621642159 379.92572433889 6.549599621642159 C 380.54057947111 6.549599621642159 380.84800703721993 6.335274315242862 381.46286216944 6.230621652619629 C 382.07771730166394 6.1259689899957275 383 6.026336308524321 383 6.026336308524321" class="highcharts-graph" data-z-index="1" stroke="#7cb5ec" stroke-width="1" stroke-linejoin="round" stroke-linecap="round"></path></g><g class="highcharts-markers highcharts-series-1 highcharts-areaspline-series highcharts-navigator-series" data-z-index="0.1" opacity="1" transform="translate(78,309) scale(1 1)" clip-path="none"></g></g><text x="10" text-anchor="start" class="highcharts-title" data-z-index="4" style="color:#000000;font-size:14px;font-weight:bold;fill:#000000;" y="21"><tspan>Bevölkerungsbestand am Jahresende</tspan></text><text x="10" text-anchor="start" class="highcharts-subtitle" data-z-index="4" style="color:#000000;font-size:12px;font-weight:normal;font-family:Arial;fill:#000000;" y="40"><tspan>Basel-Stadt</tspan></text><text x="10" text-anchor="start" class="highcharts-caption" data-z-index="4" style="color:#666666;fill:#666666;" y="400"></text><g class="highcharts-axis-labels highcharts-xaxis-labels" data-z-index="7"><text x="116.3326032198" style="color:#000000;cursor:default;font-size:11px;fill:#000000;" text-anchor="start" transform="translate(0,0)" y="242" opacity="1">1980</text><text x="198.54610666959" style="color:#000000;cursor:default;font-size:11px;fill:#000000;" text-anchor="start" transform="translate(0,0)" y="242" opacity="1">1990</text><text x="280.73710436973" style="color:#000000;cursor:default;font-size:11px;fill:#000000;" text-anchor="start" transform="translate(0,0)" y="242" opacity="1">2000</text><text x="362.95060781952" style="color:#000000;cursor:default;font-size:11px;fill:#000000;" text-anchor="start" transform="translate(0,0)" y="242" opacity="1">2010</text><text x="445.14160551966" style="color:#000000;cursor:default;font-size:11px;fill:#000000;" text-anchor="start" transform="translate(0,0)" y="242" opacity="1">2020</text></g><g class="highcharts-axis-labels highcharts-xaxis-labels highcharts-navigator-xaxis" data-z-index="7"><text x="119.45792511958" style="color:#999999;cursor:default;font-size:11px;fill:#999999;" text-anchor="start" transform="translate(0,0)" y="335" opacity="1">1800</text><text x="273.2727802518" style="color:#999999;cursor:default;font-size:11px;fill:#999999;" text-anchor="start" transform="translate(0,0)" y="335" opacity="1">1900</text><text x="427.08763538402" style="color:#999999;cursor:default;font-size:11px;fill:#999999;" text-anchor="start" transform="translate(0,0)" y="335" opacity="1">2000</text></g><g class="highcharts-axis-labels highcharts-yaxis-labels" data-z-index="7"><text x="49" style="color:#000000;cursor:default;font-size:11px;fill:#000000;" text-anchor="end" transform="translate(0,0)" y="221" opacity="1">0</text><text x="49" style="color:#000000;cursor:default;font-size:11px;fill:#000000;" text-anchor="end" transform="translate(0,0)" y="170" opacity="1"><tspan>100 000</tspan></text><text x="49" style="color:#000000;cursor:default;font-size:11px;fill:#000000;" text-anchor="end" transform="translate(0,0)" y="119" opacity="1"><tspan>200 000</tspan></text><text x="49" style="color:#000000;cursor:default;font-size:11px;fill:#000000;" text-anchor="end" transform="translate(0,0)" y="68" opacity="1"><tspan>300 000</tspan></text></g><g class="highcharts-axis-labels highcharts-yaxis-labels highcharts-navigator-yaxis" data-z-index="7"></g><g class="highcharts-range-selector-group" data-z-index="7" transform="translate(0,356)"><g class="highcharts-range-selector-buttons" transform="translate(0,10)"><text x="64" y="15" style="color:#666666;fill:#666666;">Zoom</text><g class="highcharts-button highcharts-button-normal" data-z-index="7" transform="translate(101,0)"><rect fill="#f7f7f7" class="highcharts-button-box" x="0" y="0" width="32" height="22" rx="2" ry="2"></rect><text x="4.5" data-z-index="1" y="14" style="color:#333333;cursor:pointer;font-weight:normal;fill:#333333;"><tspan>10 J</tspan></text></g><g class="highcharts-button highcharts-button-normal" data-z-index="7" transform="translate(148,0)"><rect fill="#f7f7f7" class="highcharts-button-box" x="0" y="0" width="32" height="22" rx="2" ry="2"></rect><text x="4.5" data-z-index="1" y="14" style="color:#333333;cursor:pointer;font-weight:normal;fill:#333333;"><tspan>20 J</tspan></text></g><g class="highcharts-button highcharts-button-pressed" data-z-index="7" transform="translate(195,0)"><rect fill="#e6ebf5" class="highcharts-button-box" x="0" y="0" width="32" height="22" rx="2" ry="2"></rect><text x="4" data-z-index="1" y="14" style="color:#000000;cursor:pointer;font-weight:bold;fill:#000000;"><tspan>50 J</tspan></text></g><g class="highcharts-button highcharts-button-normal" data-z-index="7" transform="translate(242,0)"><rect fill="#f7f7f7" class="highcharts-button-box" x="0" y="0" width="32" height="22" rx="2" ry="2"></rect><text x="1" data-z-index="1" y="14" style="color:#333333;cursor:pointer;font-weight:normal;fill:#333333;"><tspan>100 J</tspan></text></g><g class="highcharts-button highcharts-button-normal" data-z-index="7" transform="translate(289,0)"><rect fill="#f7f7f7" class="highcharts-button-box" x="0" y="0" width="32" height="22" rx="2" ry="2"></rect><text x="1.5" data-z-index="1" y="14" style="color:#333333;cursor:pointer;font-weight:normal;fill:#333333;"><tspan>Alle J</tspan></text></g></g></g><g class="highcharts-navigator" data-z-index="8" visibility="visible"><rect fill="rgb(0,0,0)" fill-opacity="0" class="highcharts-navigator-mask-outside" x="78" y="309" width="306" height="30"></rect><rect fill="rgb(102,133,194)" fill-opacity="0.3" class="highcharts-navigator-mask-inside" style="cursor:ew-resize;" x="384" y="309" width="77" height="30"></rect><rect fill="rgb(0,0,0)" fill-opacity="0" class="highcharts-navigator-mask-outside" x="461" y="309" width="0" height="30"></rect><path fill="none" class="highcharts-navigator-outline" stroke="#B9CFD7" stroke-width="1" d="M 64 309.5 L 383.5 309.5 L 383.5 353.5 L 460.5 353.5 L 460.5 309.5 L 475 309.5 M 383 309.5 L 461 309.5"></path><path fill="#f2f2f2" d="M -4.5 0.5 L 3.5 0.5 L 3.5 15.5 L -4.5 15.5 L -4.5 0.5 M -1.5 4 L -1.5 12 M 0.5 4 L 0.5 12" data-z-index="6" class="highcharts-navigator-handle highcharts-navigator-handle-right" stroke="#999999" stroke-width="1" style="cursor:ew-resize;" transform="translate(461,316)"></path><path fill="#f2f2f2" d="M -4.5 0.5 L 3.5 0.5 L 3.5 15.5 L -4.5 15.5 L -4.5 0.5 M -1.5 4 L -1.5 12 M 0.5 4 L 0.5 12" data-z-index="7" class="highcharts-navigator-handle highcharts-navigator-handle-left" stroke="#999999" stroke-width="1" style="cursor:ew-resize;" transform="translate(384,316)"></path></g><text x="10" class="highcharts-credits" text-anchor="start" data-z-index="8" style="cursor:default;color:#000000;font-size:10px;fill:#000000;" y="403"><tspan>Quelle: Statistisches Amt Basel-Stadt, Bevölkerungsstatistik.</tspan><tspan x="10" dy="13">Zuletzt geändert: 11.4.2024</tspan></text><g class="highcharts-control-points" data-z-index="99" clip-path="url(#highcharts-noahd6o-385-)"></g></svg>