<?xml version="1.0" standalone="no"?><!DOCTYPE svg PUBLIC "-//W3C//DTD SVG 1.1//EN" "http://www.w3.org/Graphics/SVG/1.1/DTD/svg11.dtd"><svg xmlns:xlink="http://www.w3.org/1999/xlink" version="1.1" class="highcharts-root" style="font-family:Arial;font-size:12px;" xmlns="http://www.w3.org/2000/svg" viewBox="0 0 485 415"><desc>Created with Highstock 6.1.0</desc><defs><clipPath id="highcharts-bephy0w-8"><rect x="0" y="0" width="383" height="220" fill="none"></rect></clipPath><clipPath id="highcharts-bephy0w-9"><rect x="0" y="0" width="383" height="220" fill="none"></rect></clipPath><clipPath id="highcharts-bephy0w-10"><rect x="0" y="0" width="383" height="220" fill="none"></rect></clipPath></defs><rect fill="#fbfbfb" class="highcharts-background" x="0" y="0" width="485" height="415" rx="0" ry="0"></rect><rect fill="none" class="highcharts-plot-background" x="52" y="146" width="383" height="220"></rect><g class="highcharts-pane-group"></g><g class="highcharts-grid highcharts-xaxis-grid "><path fill="none" class="highcharts-grid-line" d="M 70.5 146 L 70.5 366" opacity="1"></path><path fill="none" class="highcharts-grid-line" d="M 101.5 146 L 101.5 366" opacity="1"></path><path fill="none" class="highcharts-grid-line" d="M 133.5 146 L 133.5 366" opacity="1"></path><path fill="none" class="highcharts-grid-line" d="M 164.5 146 L 164.5 366" opacity="1"></path><path fill="none" class="highcharts-grid-line" d="M 195.5 146 L 195.5 366" opacity="1"></path><path fill="none" class="highcharts-grid-line" d="M 227.5 146 L 227.5 366" opacity="1"></path><path fill="none" class="highcharts-grid-line" d="M 258.5 146 L 258.5 366" opacity="1"></path><path fill="none" class="highcharts-grid-line" d="M 290.5 146 L 290.5 366" opacity="1"></path><path fill="none" class="highcharts-grid-line" d="M 321.5 146 L 321.5 366" opacity="1"></path><path fill="none" class="highcharts-grid-line" d="M 352.5 146 L 352.5 366" opacity="1"></path><path fill="none" class="highcharts-grid-line" d="M 384.5 146 L 384.5 366" opacity="1"></path><path fill="none" class="highcharts-grid-line" d="M 415.5 146 L 415.5 366" opacity="1"></path></g><g class="highcharts-grid highcharts-yaxis-grid "><path fill="none" stroke="#B9CFD7" stroke-width="0.5" class="highcharts-grid-line" d="M 52 366.25 L 435 366.25" opacity="1"></path><path fill="none" stroke="#B9CFD7" stroke-width="0.5" class="highcharts-grid-line" d="M 52 311.25 L 435 311.25" opacity="1"></path><path fill="none" stroke="#B9CFD7" stroke-width="0.5" class="highcharts-grid-line" d="M 52 256.25 L 435 256.25" opacity="1"></path><path fill="none" stroke="#B9CFD7" stroke-width="0.5" class="highcharts-grid-line" d="M 52 201.25 L 435 201.25" opacity="1"></path><path fill="none" stroke="#B9CFD7" stroke-width="0.5" class="highcharts-grid-line" d="M 52 145.75 L 435 145.75" opacity="1"></path></g><g class="highcharts-grid highcharts-yaxis-grid "><path fill="none" stroke="#B9CFD7" stroke-width="0.5" class="highcharts-grid-line" d="M 52 366.25 L 435 366.25" opacity="1"></path><path fill="none" stroke="#B9CFD7" stroke-width="0.5" class="highcharts-grid-line" d="M 52 311.25 L 435 311.25" opacity="1"></path><path fill="none" stroke="#B9CFD7" stroke-width="0.5" class="highcharts-grid-line" d="M 52 256.25 L 435 256.25" opacity="1"></path><path fill="none" stroke="#B9CFD7" stroke-width="0.5" class="highcharts-grid-line" d="M 52 201.25 L 435 201.25" opacity="1"></path><path fill="none" stroke="#B9CFD7" stroke-width="0.5" class="highcharts-grid-line" d="M 52 145.75 L 435 145.75" opacity="1"></path></g><rect fill="none" class="highcharts-plot-border" x="52" y="146" width="383" height="220"></rect><g class="highcharts-axis highcharts-xaxis "><path fill="none" class="highcharts-axis-line" stroke="#B9CFD7" stroke-width="0.5" d="M 52 366.25 L 435 366.25"></path></g><g class="highcharts-axis highcharts-yaxis "><path fill="none" class="highcharts-axis-line" d="M 52 146 L 52 366"></path></g><g class="highcharts-axis highcharts-yaxis "><path fill="none" class="highcharts-axis-line" d="M 435 146 L 435 366"></path></g><g class="highcharts-series-group"><g class="highcharts-series highcharts-series-0 highcharts-column-series " transform="translate(52,146) scale(1 1)" clip-path="url(#highcharts-bephy0w-9)"><rect x="7" y="19" width="25" height="202" fill="#8A8A8A" class="highcharts-point"></rect><rect x="38" y="19" width="25" height="202" fill="#8A8A8A" class="highcharts-point"></rect><rect x="69" y="43" width="25" height="178" fill="#8A8A8A" class="highcharts-point"></rect><rect x="101" y="88" width="25" height="133" fill="#8A8A8A" class="highcharts-point"></rect><rect x="132" y="113" width="25" height="108" fill="#8A8A8A" class="highcharts-point"></rect><rect x="163" y="149" width="25" height="72" fill="#8A8A8A" class="highcharts-point"></rect><rect x="195" y="152" width="25" height="69" fill="#8A8A8A" class="highcharts-point"></rect><rect x="226" y="171" width="25" height="50" fill="#8A8A8A" class="highcharts-point"></rect><rect x="257" y="187" width="25" height="34" fill="#8A8A8A" class="highcharts-point"></rect><rect x="289" y="171" width="25" height="50" fill="#8A8A8A" class="highcharts-point"></rect><rect x="320" y="159" width="25" height="62" fill="#8A8A8A" class="highcharts-point"></rect><rect x="351" y="146" width="25" height="75" fill="#8A8A8A" class="highcharts-point"></rect></g><g class="highcharts-markers highcharts-series-0 highcharts-column-series " transform="translate(52,146) scale(1 1)" clip-path="none"></g><g class="highcharts-series highcharts-series-1 highcharts-column-series " visibility="hidden" transform="translate(52,146) scale(1 1)" clip-path="url(#highcharts-bephy0w-9)"></g><g class="highcharts-markers highcharts-series-1 highcharts-column-series " visibility="hidden" transform="translate(52,146) scale(1 1)" clip-path="none"></g><g class="highcharts-series highcharts-series-2 highcharts-column-series " visibility="hidden" transform="translate(52,146) scale(1 1)" clip-path="url(#highcharts-bephy0w-9)"></g><g class="highcharts-markers highcharts-series-2 highcharts-column-series " visibility="hidden" transform="translate(52,146) scale(1 1)" clip-path="none"></g><g class="highcharts-series highcharts-series-3 highcharts-column-series " visibility="hidden" transform="translate(52,146) scale(1 1)" clip-path="url(#highcharts-bephy0w-9)"></g><g class="highcharts-markers highcharts-series-3 highcharts-column-series " visibility="hidden" transform="translate(52,146) scale(1 1)" clip-path="none"></g><g class="highcharts-series highcharts-series-4 highcharts-column-series " visibility="hidden" transform="translate(52,146) scale(1 1)" clip-path="url(#highcharts-bephy0w-9)"></g><g class="highcharts-markers highcharts-series-4 highcharts-column-series " visibility="hidden" transform="translate(52,146) scale(1 1)" clip-path="none"></g><g class="highcharts-series highcharts-series-5 highcharts-column-series " visibility="hidden" transform="translate(52,146) scale(1 1)" clip-path="url(#highcharts-bephy0w-9)"></g><g class="highcharts-markers highcharts-series-5 highcharts-column-series " visibility="hidden" transform="translate(52,146) scale(1 1)" clip-path="none"></g><g class="highcharts-series highcharts-series-6 highcharts-line-series " transform="translate(52,146) scale(1 1)" clip-path="url(#highcharts-bephy0w-10)"><path fill="none" d="M 19.118657937804 26.684157204649978 L 50.460720130931 27.288384793175 L 81.802782324057 50.13184651970002 L 113.14484451718 92.8625546289375 L 144.48690671031 117.5403985611625 L 175.82896890344 151.8155909791125 L 207.17103109656 154.99678529568752 L 238.51309328969 173.1372437950375 L 269.85515548282 188.5955998881625 L 301.19721767594 173.7265777944125 L 332.53927986907 162.6940702424125 L 363.8813420622 151.19959677432502" class="highcharts-graph" stroke="#000000" stroke-width="5" stroke-linejoin="round" stroke-linecap="round"  stroke-opacity="0.049999999999999996" transform="translate(1, 1)"></path><path fill="none" d="M 19.118657937804 26.684157204649978 L 50.460720130931 27.288384793175 L 81.802782324057 50.13184651970002 L 113.14484451718 92.8625546289375 L 144.48690671031 117.5403985611625 L 175.82896890344 151.8155909791125 L 207.17103109656 154.99678529568752 L 238.51309328969 173.1372437950375 L 269.85515548282 188.5955998881625 L 301.19721767594 173.7265777944125 L 332.53927986907 162.6940702424125 L 363.8813420622 151.19959677432502" class="highcharts-graph" stroke="#000000" stroke-width="3" stroke-linejoin="round" stroke-linecap="round"  stroke-opacity="0.09999999999999999" transform="translate(1, 1)"></path><path fill="none" d="M 19.118657937804 26.684157204649978 L 50.460720130931 27.288384793175 L 81.802782324057 50.13184651970002 L 113.14484451718 92.8625546289375 L 144.48690671031 117.5403985611625 L 175.82896890344 151.8155909791125 L 207.17103109656 154.99678529568752 L 238.51309328969 173.1372437950375 L 269.85515548282 188.5955998881625 L 301.19721767594 173.7265777944125 L 332.53927986907 162.6940702424125 L 363.8813420622 151.19959677432502" class="highcharts-graph" stroke="#000000" stroke-width="1" stroke-linejoin="round" stroke-linecap="round"  stroke-opacity="0.15" transform="translate(1, 1)"></path><path fill="none" d="M 19.118657937804 26.684157204649978 L 50.460720130931 27.288384793175 L 81.802782324057 50.13184651970002 L 113.14484451718 92.8625546289375 L 144.48690671031 117.5403985611625 L 175.82896890344 151.8155909791125 L 207.17103109656 154.99678529568752 L 238.51309328969 173.1372437950375 L 269.85515548282 188.5955998881625 L 301.19721767594 173.7265777944125 L 332.53927986907 162.6940702424125 L 363.8813420622 151.19959677432502" class="highcharts-graph" stroke="#000000" stroke-width="2" stroke-linejoin="round" stroke-linecap="round"></path></g><g class="highcharts-markers highcharts-series-6 highcharts-line-series " transform="translate(52,146) scale(1 1)" clip-path="none"></g><g class="highcharts-series highcharts-series-7 highcharts-line-series " visibility="hidden" transform="translate(52,146) scale(1 1)" clip-path="url(#highcharts-bephy0w-10)"><path fill="none" d="M 19.118657937804 -14.629566112149973 L 50.460720130931 -6.960110041224993 L 81.802782324057 34.28571428576248 L 113.14484451718 48.87293298525 L 144.48690671031 71.648829722525 L 175.82896890344 107.1573249520125 L 207.17103109656 77.2207678884125 L 238.51309328969 150.4161940494125 L 269.85515548282 187.8317424669125 L 301.19721767594 153.09002433092502 L 332.53927986907 142.937339213625 L 363.8813420622 135.52222623788748" class="highcharts-graph" stroke="#000000" stroke-width="5" stroke-linejoin="round" stroke-linecap="round"  stroke-opacity="0.049999999999999996" transform="translate(1, 1)"></path><path fill="none" d="M 19.118657937804 -14.629566112149973 L 50.460720130931 -6.960110041224993 L 81.802782324057 34.28571428576248 L 113.14484451718 48.87293298525 L 144.48690671031 71.648829722525 L 175.82896890344 107.1573249520125 L 207.17103109656 77.2207678884125 L 238.51309328969 150.4161940494125 L 269.85515548282 187.8317424669125 L 301.19721767594 153.09002433092502 L 332.53927986907 142.937339213625 L 363.8813420622 135.52222623788748" class="highcharts-graph" stroke="#000000" stroke-width="3" stroke-linejoin="round" stroke-linecap="round"  stroke-opacity="0.09999999999999999" transform="translate(1, 1)"></path><path fill="none" d="M 19.118657937804 -14.629566112149973 L 50.460720130931 -6.960110041224993 L 81.802782324057 34.28571428576248 L 113.14484451718 48.87293298525 L 144.48690671031 71.648829722525 L 175.82896890344 107.1573249520125 L 207.17103109656 77.2207678884125 L 238.51309328969 150.4161940494125 L 269.85515548282 187.8317424669125 L 301.19721767594 153.09002433092502 L 332.53927986907 142.937339213625 L 363.8813420622 135.52222623788748" class="highcharts-graph" stroke="#000000" stroke-width="1" stroke-linejoin="round" stroke-linecap="round"  stroke-opacity="0.15" transform="translate(1, 1)"></path><path fill="none" d="M 19.118657937804 -14.629566112149973 L 50.460720130931 -6.960110041224993 L 81.802782324057 34.28571428576248 L 113.14484451718 48.87293298525 L 144.48690671031 71.648829722525 L 175.82896890344 107.1573249520125 L 207.17103109656 77.2207678884125 L 238.51309328969 150.4161940494125 L 269.85515548282 187.8317424669125 L 301.19721767594 153.09002433092502 L 332.53927986907 142.937339213625 L 363.8813420622 135.52222623788748" class="highcharts-graph" stroke="#B00000" stroke-width="2" stroke-linejoin="round" stroke-linecap="round"></path></g><g class="highcharts-markers highcharts-series-7 highcharts-line-series " visibility="hidden" transform="translate(52,146) scale(1 1)" clip-path="none"></g><g class="highcharts-series highcharts-series-8 highcharts-line-series " visibility="hidden" transform="translate(52,146) scale(1 1)" clip-path="url(#highcharts-bephy0w-10)"><path fill="none" d="M 19.118657937804 18.88799839712499 L 50.460720130931 37.485217811112506 L 81.802782324057 78.38482975895002 L 113.14484451718 108.1299332119875 L 144.48690671031 132.11569579298748 L 175.82896890344 156.0335760517875 L 207.17103109656 163.7402222311625 L 238.51309328969 169.871800008075 L 269.85515548282 191.7078189301 L 301.19721767594 173.40111353193748 L 332.53927986907 161.69803843875 L 363.8813420622 131.3217192969" class="highcharts-graph" stroke="#000000" stroke-width="5" stroke-linejoin="round" stroke-linecap="round"  stroke-opacity="0.049999999999999996" transform="translate(1, 1)"></path><path fill="none" d="M 19.118657937804 18.88799839712499 L 50.460720130931 37.485217811112506 L 81.802782324057 78.38482975895002 L 113.14484451718 108.1299332119875 L 144.48690671031 132.11569579298748 L 175.82896890344 156.0335760517875 L 207.17103109656 163.7402222311625 L 238.51309328969 169.871800008075 L 269.85515548282 191.7078189301 L 301.19721767594 173.40111353193748 L 332.53927986907 161.69803843875 L 363.8813420622 131.3217192969" class="highcharts-graph" stroke="#000000" stroke-width="3" stroke-linejoin="round" stroke-linecap="round"  stroke-opacity="0.09999999999999999" transform="translate(1, 1)"></path><path fill="none" d="M 19.118657937804 18.88799839712499 L 50.460720130931 37.485217811112506 L 81.802782324057 78.38482975895002 L 113.14484451718 108.1299332119875 L 144.48690671031 132.11569579298748 L 175.82896890344 156.0335760517875 L 207.17103109656 163.7402222311625 L 238.51309328969 169.871800008075 L 269.85515548282 191.7078189301 L 301.19721767594 173.40111353193748 L 332.53927986907 161.69803843875 L 363.8813420622 131.3217192969" class="highcharts-graph" stroke="#000000" stroke-width="1" stroke-linejoin="round" stroke-linecap="round"  stroke-opacity="0.15" transform="translate(1, 1)"></path><path fill="none" d="M 19.118657937804 18.88799839712499 L 50.460720130931 37.485217811112506 L 81.802782324057 78.38482975895002 L 113.14484451718 108.1299332119875 L 144.48690671031 132.11569579298748 L 175.82896890344 156.0335760517875 L 207.17103109656 163.7402222311625 L 238.51309328969 169.871800008075 L 269.85515548282 191.7078189301 L 301.19721767594 173.40111353193748 L 332.53927986907 161.69803843875 L 363.8813420622 131.3217192969" class="highcharts-graph" stroke="#ffbb58" stroke-width="2" stroke-linejoin="round" stroke-linecap="round"></path></g><g class="highcharts-markers highcharts-series-8 highcharts-line-series " visibility="hidden" transform="translate(52,146) scale(1 1)" clip-path="none"></g><g class="highcharts-series highcharts-series-9 highcharts-line-series " visibility="hidden" transform="translate(52,146) scale(1 1)" clip-path="url(#highcharts-bephy0w-10)"><path fill="none" d="M 19.118657937804 27.19843858352499 L 50.460720130931 18.219508440787507 L 81.802782324057 32.290295315437476 L 113.14484451718 89.5832800715875 L 144.48690671031 108.90941992053749 L 175.82896890344 160.1808884141125 L 207.17103109656 164.5957932084125 L 238.51309328969 172.6606247785375 L 269.85515548282 188.1252804228875 L 301.19721767594 183.3269355402375 L 332.53927986907 164.639990119825 L 363.8813420622 151.6627300463" class="highcharts-graph" stroke="#000000" stroke-width="5" stroke-linejoin="round" stroke-linecap="round"  stroke-opacity="0.049999999999999996" transform="translate(1, 1)"></path><path fill="none" d="M 19.118657937804 27.19843858352499 L 50.460720130931 18.219508440787507 L 81.802782324057 32.290295315437476 L 113.14484451718 89.5832800715875 L 144.48690671031 108.90941992053749 L 175.82896890344 160.1808884141125 L 207.17103109656 164.5957932084125 L 238.51309328969 172.6606247785375 L 269.85515548282 188.1252804228875 L 301.19721767594 183.3269355402375 L 332.53927986907 164.639990119825 L 363.8813420622 151.6627300463" class="highcharts-graph" stroke="#000000" stroke-width="3" stroke-linejoin="round" stroke-linecap="round"  stroke-opacity="0.09999999999999999" transform="translate(1, 1)"></path><path fill="none" d="M 19.118657937804 27.19843858352499 L 50.460720130931 18.219508440787507 L 81.802782324057 32.290295315437476 L 113.14484451718 89.5832800715875 L 144.48690671031 108.90941992053749 L 175.82896890344 160.1808884141125 L 207.17103109656 164.5957932084125 L 238.51309328969 172.6606247785375 L 269.85515548282 188.1252804228875 L 301.19721767594 183.3269355402375 L 332.53927986907 164.639990119825 L 363.8813420622 151.6627300463" class="highcharts-graph" stroke="#000000" stroke-width="1" stroke-linejoin="round" stroke-linecap="round"  stroke-opacity="0.15" transform="translate(1, 1)"></path><path fill="none" d="M 19.118657937804 27.19843858352499 L 50.460720130931 18.219508440787507 L 81.802782324057 32.290295315437476 L 113.14484451718 89.5832800715875 L 144.48690671031 108.90941992053749 L 175.82896890344 160.1808884141125 L 207.17103109656 164.5957932084125 L 238.51309328969 172.6606247785375 L 269.85515548282 188.1252804228875 L 301.19721767594 183.3269355402375 L 332.53927986907 164.639990119825 L 363.8813420622 151.6627300463" class="highcharts-graph" stroke="#007a2f" stroke-width="2" stroke-linejoin="round" stroke-linecap="round"></path></g><g class="highcharts-markers highcharts-series-9 highcharts-line-series " visibility="hidden" transform="translate(52,146) scale(1 1)" clip-path="none"></g><g class="highcharts-series highcharts-series-10 highcharts-line-series " visibility="hidden" transform="translate(52,146) scale(1 1)" clip-path="url(#highcharts-bephy0w-10)"><path fill="none" d="M 19.118657937804 3.507958319112504 L 50.460720130931 7.015945330350007 L 81.802782324057 13.297594735700017 L 113.14484451718 64.6766450155375 L 144.48690671031 105.9432799013875 L 175.82896890344 149.4989689573875 L 207.17103109656 154.48753462615 L 238.51309328969 178.1928243684875 L 269.85515548282 185.0034466303375 L 301.19721767594 162.4015059123875 L 332.53927986907 164.3085582032125 L 363.8813420622 159.5888906324625" class="highcharts-graph" stroke="#000000" stroke-width="5" stroke-linejoin="round" stroke-linecap="round"  stroke-opacity="0.049999999999999996" transform="translate(1, 1)"></path><path fill="none" d="M 19.118657937804 3.507958319112504 L 50.460720130931 7.015945330350007 L 81.802782324057 13.297594735700017 L 113.14484451718 64.6766450155375 L 144.48690671031 105.9432799013875 L 175.82896890344 149.4989689573875 L 207.17103109656 154.48753462615 L 238.51309328969 178.1928243684875 L 269.85515548282 185.0034466303375 L 301.19721767594 162.4015059123875 L 332.53927986907 164.3085582032125 L 363.8813420622 159.5888906324625" class="highcharts-graph" stroke="#000000" stroke-width="3" stroke-linejoin="round" stroke-linecap="round"  stroke-opacity="0.09999999999999999" transform="translate(1, 1)"></path><path fill="none" d="M 19.118657937804 3.507958319112504 L 50.460720130931 7.015945330350007 L 81.802782324057 13.297594735700017 L 113.14484451718 64.6766450155375 L 144.48690671031 105.9432799013875 L 175.82896890344 149.4989689573875 L 207.17103109656 154.48753462615 L 238.51309328969 178.1928243684875 L 269.85515548282 185.0034466303375 L 301.19721767594 162.4015059123875 L 332.53927986907 164.3085582032125 L 363.8813420622 159.5888906324625" class="highcharts-graph" stroke="#000000" stroke-width="1" stroke-linejoin="round" stroke-linecap="round"  stroke-opacity="0.15" transform="translate(1, 1)"></path><path fill="none" d="M 19.118657937804 3.507958319112504 L 50.460720130931 7.015945330350007 L 81.802782324057 13.297594735700017 L 113.14484451718 64.6766450155375 L 144.48690671031 105.9432799013875 L 175.82896890344 149.4989689573875 L 207.17103109656 154.48753462615 L 238.51309328969 178.1928243684875 L 269.85515548282 185.0034466303375 L 301.19721767594 162.4015059123875 L 332.53927986907 164.3085582032125 L 363.8813420622 159.5888906324625" class="highcharts-graph" stroke="#923f8d" stroke-width="2" stroke-linejoin="round" stroke-linecap="round"></path></g><g class="highcharts-markers highcharts-series-10 highcharts-line-series " visibility="hidden" transform="translate(52,146) scale(1 1)" clip-path="none"></g><g class="highcharts-series highcharts-series-11 highcharts-line-series " visibility="hidden" transform="translate(52,146) scale(1 1)" clip-path="url(#highcharts-bephy0w-10)"><path fill="none" d="M 19.118657937804 118.11304497685 L 50.460720130931 100.2407992487 L 81.802782324057 120.64184306735 L 113.14484451718 156.985487566875 L 144.48690671031 178.0045813184375 L 175.82896890344 161.9488305329125 L 207.17103109656 180.59839865154999 L 238.51309328969 195.7515955660375 L 269.85515548282 189.9711410966875 L 301.19721767594 178.1740893846375 L 332.53927986907 172.87427948285 L 363.8813420622 190.06220839815" class="highcharts-graph" stroke="#000000" stroke-width="5" stroke-linejoin="round" stroke-linecap="round"  stroke-opacity="0.049999999999999996" transform="translate(1, 1)"></path><path fill="none" d="M 19.118657937804 118.11304497685 L 50.460720130931 100.2407992487 L 81.802782324057 120.64184306735 L 113.14484451718 156.985487566875 L 144.48690671031 178.0045813184375 L 175.82896890344 161.9488305329125 L 207.17103109656 180.59839865154999 L 238.51309328969 195.7515955660375 L 269.85515548282 189.9711410966875 L 301.19721767594 178.1740893846375 L 332.53927986907 172.87427948285 L 363.8813420622 190.06220839815" class="highcharts-graph" stroke="#000000" stroke-width="3" stroke-linejoin="round" stroke-linecap="round"  stroke-opacity="0.09999999999999999" transform="translate(1, 1)"></path><path fill="none" d="M 19.118657937804 118.11304497685 L 50.460720130931 100.2407992487 L 81.802782324057 120.64184306735 L 113.14484451718 156.985487566875 L 144.48690671031 178.0045813184375 L 175.82896890344 161.9488305329125 L 207.17103109656 180.59839865154999 L 238.51309328969 195.7515955660375 L 269.85515548282 189.9711410966875 L 301.19721767594 178.1740893846375 L 332.53927986907 172.87427948285 L 363.8813420622 190.06220839815" class="highcharts-graph" stroke="#000000" stroke-width="1" stroke-linejoin="round" stroke-linecap="round"  stroke-opacity="0.15" transform="translate(1, 1)"></path><path fill="none" d="M 19.118657937804 118.11304497685 L 50.460720130931 100.2407992487 L 81.802782324057 120.64184306735 L 113.14484451718 156.985487566875 L 144.48690671031 178.0045813184375 L 175.82896890344 161.9488305329125 L 207.17103109656 180.59839865154999 L 238.51309328969 195.7515955660375 L 269.85515548282 189.9711410966875 L 301.19721767594 178.1740893846375 L 332.53927986907 172.87427948285 L 363.8813420622 190.06220839815" class="highcharts-graph" stroke="#2B0099" stroke-width="2" stroke-linejoin="round" stroke-linecap="round"></path></g><g class="highcharts-markers highcharts-series-11 highcharts-line-series " visibility="hidden" transform="translate(52,146) scale(1 1)" clip-path="none"></g></g><text x="10" text-anchor="start" class="highcharts-title" style="color:#000000;font-size:14px;font-weight:bold;fill:#000000;" y="21"><tspan>Anzahl Leerwohnungen und Leerwohnungsquote</tspan></text><text x="10" text-anchor="start" class="highcharts-subtitle" style="color:#000000;font-size:12px;font-weight:normal;font-family:Arial;fill:#000000;" y="40"><tspan>nach Zimmerzahl</tspan></text><g class="highcharts-legend" transform="translate(52,55)"><rect fill="none" class="highcharts-legend-box" rx="0" ry="0" x="0" y="0" width="418" height="79" visibility="visible"></rect><g><g><g class="highcharts-legend-item highcharts-column-series highcharts-color-undefined highcharts-series-0" transform="translate(0,-5)"><text x="19" style="color:#333333;font-size:12px;font-weight:normal;cursor:pointer;whitespace:nowrap;fill:#333333;" text-anchor="start" y="15"><tspan>Anzahl leere Wohnungen</tspan></text><rect x="2" y="4" width="12" height="12" fill="#8A8A8A" class="highcharts-point"></rect></g><g class="highcharts-legend-item highcharts-line-series highcharts-color-undefined highcharts-series-6" transform="translate(204.265625,-5)"><path fill="none" d="M 0 11 L 16 11" class="highcharts-graph" stroke="#000000" stroke-width="2"></path><text x="19" y="15" style="color:#333333;font-size:12px;font-weight:normal;cursor:pointer;whitespace:nowrap;fill:#333333;" text-anchor="start"><tspan>LWQ alle Wohnungen (rechte Skala)</tspan></text></g><g class="highcharts-legend-item highcharts-column-series highcharts-color-undefined highcharts-series-1 highcharts-legend-item-hidden" transform="translate(0,9)"><text x="19" y="15" style="color:#cccccc;font-size:12px;font-weight:normal;cursor:pointer;whitespace:nowrap;fill:#cccccc;" text-anchor="start"><tspan>1-Zimmer</tspan></text><rect x="2" y="4" width="12" height="12" fill="#cccccc" class="highcharts-point"></rect></g><g class="highcharts-legend-item highcharts-line-series highcharts-color-undefined highcharts-series-7 highcharts-legend-item-hidden" transform="translate(204.265625,9)"><path fill="none" d="M 0 11 L 16 11" class="highcharts-graph" stroke="#cccccc" stroke-width="2"></path><text x="19" y="15" style="color:#cccccc;font-size:12px;font-weight:normal;cursor:pointer;whitespace:nowrap;fill:#cccccc;" text-anchor="start"><tspan>LWQ 1-Zimmer</tspan></text></g><g class="highcharts-legend-item highcharts-column-series highcharts-color-undefined highcharts-series-2 highcharts-legend-item-hidden" transform="translate(0,23)"><text x="19" y="15" style="color:#cccccc;font-size:12px;font-weight:normal;cursor:pointer;whitespace:nowrap;fill:#cccccc;" text-anchor="start"><tspan>2-Zimmer</tspan></text><rect x="2" y="4" width="12" height="12" fill="#cccccc" class="highcharts-point"></rect></g><g class="highcharts-legend-item highcharts-line-series highcharts-color-undefined highcharts-series-8 highcharts-legend-item-hidden" transform="translate(204.265625,23)"><path fill="none" d="M 0 11 L 16 11" class="highcharts-graph" stroke="#cccccc" stroke-width="2"></path><text x="19" y="15" style="color:#cccccc;font-size:12px;font-weight:normal;cursor:pointer;whitespace:nowrap;fill:#cccccc;" text-anchor="start"><tspan>LWQ 2-Zimmer</tspan></text></g><g class="highcharts-legend-item highcharts-column-series highcharts-color-undefined highcharts-series-3 highcharts-legend-item-hidden" transform="translate(0,37)"><text x="19" y="15" style="color:#cccccc;font-size:12px;font-weight:normal;cursor:pointer;whitespace:nowrap;fill:#cccccc;" text-anchor="start"><tspan>3-Zimmer</tspan></text><rect x="2" y="4" width="12" height="12" fill="#cccccc" class="highcharts-point"></rect></g><g class="highcharts-legend-item highcharts-line-series highcharts-color-undefined highcharts-series-9 highcharts-legend-item-hidden" transform="translate(204.265625,37)"><path fill="none" d="M 0 11 L 16 11" class="highcharts-graph" stroke="#cccccc" stroke-width="2"></path><text x="19" y="15" style="color:#cccccc;font-size:12px;font-weight:normal;cursor:pointer;whitespace:nowrap;fill:#cccccc;" text-anchor="start"><tspan>LWQ 3-Zimmer</tspan></text></g><g class="highcharts-legend-item highcharts-column-series highcharts-color-undefined highcharts-series-4 highcharts-legend-item-hidden" transform="translate(0,51)"><text x="19" y="15" style="color:#cccccc;font-size:12px;font-weight:normal;cursor:pointer;whitespace:nowrap;fill:#cccccc;" text-anchor="start"><tspan>4-Zimmer</tspan></text><rect x="2" y="4" width="12" height="12" fill="#cccccc" class="highcharts-point"></rect></g><g class="highcharts-legend-item highcharts-line-series highcharts-color-undefined highcharts-series-10 highcharts-legend-item-hidden" transform="translate(204.265625,51)"><path fill="none" d="M 0 11 L 16 11" class="highcharts-graph" stroke="#cccccc" stroke-width="2"></path><text x="19" y="15" style="color:#cccccc;font-size:12px;font-weight:normal;cursor:pointer;whitespace:nowrap;fill:#cccccc;" text-anchor="start"><tspan>LWQ 4-Zimmer</tspan></text></g><g class="highcharts-legend-item highcharts-column-series highcharts-color-undefined highcharts-series-5 highcharts-legend-item-hidden" transform="translate(0,65)"><text x="19" y="15" style="color:#cccccc;font-size:12px;font-weight:normal;cursor:pointer;whitespace:nowrap;fill:#cccccc;" text-anchor="start"><tspan>5+-Zimmer</tspan></text><rect x="2" y="4" width="12" height="12" fill="#cccccc" class="highcharts-point"></rect></g><g class="highcharts-legend-item highcharts-line-series highcharts-color-undefined highcharts-series-11 highcharts-legend-item-hidden" transform="translate(204.265625,65)"><path fill="none" d="M 0 11 L 16 11" class="highcharts-graph" stroke="#cccccc" stroke-width="2"></path><text x="19" y="15" style="color:#cccccc;font-size:12px;font-weight:normal;cursor:pointer;whitespace:nowrap;fill:#cccccc;" text-anchor="start"><tspan>LWQ 5+-Zimmer</tspan></text></g></g></g></g><g class="highcharts-axis-labels highcharts-xaxis-labels "><text x="71.118657937804" style="color:#000000;cursor:default;font-size:11px;fill:#000000;" text-anchor="middle" transform="translate(0,0)" y="385" opacity="1">2006</text><text x="102.46072013093" style="color:#000000;cursor:default;font-size:11px;fill:#000000;" text-anchor="middle" transform="translate(0,0)" y="385" opacity="1">2007</text><text x="133.80278232406" style="color:#000000;cursor:default;font-size:11px;fill:#000000;" text-anchor="middle" transform="translate(0,0)" y="385" opacity="1">2008</text><text x="165.14484451718" style="color:#000000;cursor:default;font-size:11px;fill:#000000;" text-anchor="middle" transform="translate(0,0)" y="385" opacity="1">2009</text><text x="196.48690671031" style="color:#000000;cursor:default;font-size:11px;fill:#000000;" text-anchor="middle" transform="translate(0,0)" y="385" opacity="1">2010</text><text x="227.82896890344" style="color:#000000;cursor:default;font-size:11px;fill:#000000;" text-anchor="middle" transform="translate(0,0)" y="385" opacity="1">2011</text><text x="259.17103109656" style="color:#000000;cursor:default;font-size:11px;fill:#000000;" text-anchor="middle" transform="translate(0,0)" y="385" opacity="1">2012</text><text x="290.51309328969" style="color:#000000;cursor:default;font-size:11px;fill:#000000;" text-anchor="middle" transform="translate(0,0)" y="385" opacity="1">2013</text><text x="321.85515548282" style="color:#000000;cursor:default;font-size:11px;fill:#000000;" text-anchor="middle" transform="translate(0,0)" y="385" opacity="1">2014</text><text x="353.19721767594" style="color:#000000;cursor:default;font-size:11px;fill:#000000;" text-anchor="middle" transform="translate(0,0)" y="385" opacity="1">2015</text><text x="384.53927986907" style="color:#000000;cursor:default;font-size:11px;fill:#000000;" text-anchor="middle" transform="translate(0,0)" y="385" opacity="1">2016</text><text x="415.8813420622" style="color:#000000;cursor:default;font-size:11px;fill:#000000;" text-anchor="middle" transform="translate(0,0)" y="385" opacity="1">2017</text></g><g class="highcharts-axis-labels highcharts-yaxis-labels "><text x="37" style="color:#000000;cursor:default;font-size:11px;fill:#000000;" text-anchor="end" transform="translate(0,0)" y="371" opacity="1">0</text><text x="37" style="color:#000000;cursor:default;font-size:11px;fill:#000000;" text-anchor="end" transform="translate(0,0)" y="316" opacity="1">400</text><text x="37" style="color:#000000;cursor:default;font-size:11px;fill:#000000;" text-anchor="end" transform="translate(0,0)" y="261" opacity="1">800</text><text x="37" style="color:#000000;cursor:default;font-size:11px;fill:#000000;" text-anchor="end" transform="translate(0,0)" y="206" opacity="1"><tspan>1 200</tspan></text><text x="37" style="color:#000000;cursor:default;font-size:11px;fill:#000000;" text-anchor="end" transform="translate(0,0)" y="151" opacity="1"><tspan>1 600</tspan></text></g><g class="highcharts-axis-labels highcharts-yaxis-labels "><text x="450" style="color:#000000;cursor:default;font-size:11px;fill:#000000;" text-anchor="start" transform="translate(0,0)" y="371" opacity="1">0.0%</text><text x="450" style="color:#000000;cursor:default;font-size:11px;fill:#000000;" text-anchor="start" transform="translate(0,0)" y="316" opacity="1">0.4%</text><text x="450" style="color:#000000;cursor:default;font-size:11px;fill:#000000;" text-anchor="start" transform="translate(0,0)" y="261" opacity="1">0.8%</text><text x="450" style="color:#000000;cursor:default;font-size:11px;fill:#000000;" text-anchor="start" transform="translate(0,0)" y="206" opacity="1">1.2%</text><text x="450" style="color:#000000;cursor:default;font-size:11px;fill:#000000;" text-anchor="start" transform="translate(0,0)" y="151" opacity="1">1.6%</text></g><text x="10" class="highcharts-credits" text-anchor="start" style="cursor:default;color:#000000;font-size:10px;fill:#000000;" y="400"><tspan>Quelle: Statistisches Amt Basel-Stadt, Leerstandserhebung</tspan></text></svg>