<?xml version="1.0" standalone="no"?><!DOCTYPE svg PUBLIC "-//W3C//DTD SVG 1.1//EN" "http://www.w3.org/Graphics/SVG/1.1/DTD/svg11.dtd"><svg xmlns:xlink="http://www.w3.org/1999/xlink" version="1.1" class="highcharts-root" style="font-family:Arial;font-size:12px;" xmlns="http://www.w3.org/2000/svg" viewBox="0 0 485 415"><desc>Created with Highstock 6.1.0</desc><defs><clipPath id="highcharts-ws54gxw-6"><rect x="0" y="0" width="438" height="281" fill="none"></rect></clipPath><clipPath id="highcharts-ws54gxw-7"><rect x="0" y="0" width="438" height="281" fill="none"></rect></clipPath></defs><rect fill="#fbfbfb" class="highcharts-background" x="0" y="0" width="485" height="415" rx="0" ry="0"></rect><rect fill="none" class="highcharts-plot-background" x="37" y="55" width="438" height="281"></rect><g class="highcharts-pane-group"></g><g class="highcharts-grid highcharts-xaxis-grid "><path fill="none" class="highcharts-grid-line" d="M 40.5 55 L 40.5 336" opacity="1"></path><path fill="none" class="highcharts-grid-line" d="M 64.5 55 L 64.5 336" opacity="1"></path><path fill="none" class="highcharts-grid-line" d="M 87.5 55 L 87.5 336" opacity="1"></path><path fill="none" class="highcharts-grid-line" d="M 110.5 55 L 110.5 336" opacity="1"></path><path fill="none" class="highcharts-grid-line" d="M 133.5 55 L 133.5 336" opacity="1"></path><path fill="none" class="highcharts-grid-line" d="M 156.5 55 L 156.5 336" opacity="1"></path><path fill="none" class="highcharts-grid-line" d="M 180.5 55 L 180.5 336" opacity="1"></path><path fill="none" class="highcharts-grid-line" d="M 203.5 55 L 203.5 336" opacity="1"></path><path fill="none" class="highcharts-grid-line" d="M 226.5 55 L 226.5 336" opacity="1"></path><path fill="none" class="highcharts-grid-line" d="M 249.5 55 L 249.5 336" opacity="1"></path><path fill="none" class="highcharts-grid-line" d="M 272.5 55 L 272.5 336" opacity="1"></path><path fill="none" class="highcharts-grid-line" d="M 296.5 55 L 296.5 336" opacity="1"></path><path fill="none" class="highcharts-grid-line" d="M 319.5 55 L 319.5 336" opacity="1"></path><path fill="none" class="highcharts-grid-line" d="M 342.5 55 L 342.5 336" opacity="1"></path><path fill="none" class="highcharts-grid-line" d="M 365.5 55 L 365.5 336" opacity="1"></path><path fill="none" class="highcharts-grid-line" d="M 388.5 55 L 388.5 336" opacity="1"></path><path fill="none" class="highcharts-grid-line" d="M 412.5 55 L 412.5 336" opacity="1"></path><path fill="none" class="highcharts-grid-line" d="M 435.5 55 L 435.5 336" opacity="1"></path><path fill="none" class="highcharts-grid-line" d="M 458.5 55 L 458.5 336" opacity="1"></path></g><g class="highcharts-grid highcharts-yaxis-grid "><path fill="none" stroke="#B9CFD7" stroke-width="0.5" class="highcharts-grid-line" d="M 37 336.25 L 475 336.25" opacity="1"></path><path fill="none" stroke="#B9CFD7" stroke-width="0.5" class="highcharts-grid-line" d="M 37 280.25 L 475 280.25" opacity="1"></path><path fill="none" stroke="#B9CFD7" stroke-width="0.5" class="highcharts-grid-line" d="M 37 224.25 L 475 224.25" opacity="1"></path><path fill="none" stroke="#B9CFD7" stroke-width="0.5" class="highcharts-grid-line" d="M 37 167.25 L 475 167.25" opacity="1"></path><path fill="none" stroke="#B9CFD7" stroke-width="0.5" class="highcharts-grid-line" d="M 37 111.25 L 475 111.25" opacity="1"></path><path fill="none" stroke="#B9CFD7" stroke-width="0.5" class="highcharts-grid-line" d="M 37 54.75 L 475 54.75" opacity="1"></path></g><rect fill="none" class="highcharts-plot-border" x="37" y="55" width="438" height="281"></rect><g class="highcharts-axis highcharts-xaxis "><path fill="none" class="highcharts-axis-line" stroke="#B9CFD7" stroke-width="0.5" d="M 37 336.25 L 475 336.25"></path></g><g class="highcharts-axis highcharts-yaxis "><path fill="none" class="highcharts-axis-line" d="M 37 55 L 37 336"></path></g><g class="highcharts-series-group"><g class="highcharts-series highcharts-series-0 highcharts-line-series " transform="translate(37,55) scale(1 1)" clip-path="url(#highcharts-ws54gxw-7)"><path fill="none" d="M 4.2941176470576 78.68 L 120.35135135135 60.231670404203214 L 201.59141494436 55.07599999999999 L 213.19713831479 53.389999999999986 L 224.80286168521 51.141999999999996 L 236.40858505564 49.971899836301134 L 352.46581875994 44.21983458137953 L 364.07154213037 44.794197758257496 L 375.6772655008 45.020831790709764 L 387.28298887123 44.9353580650116 L 398.88871224165 46.64599999999999 L 410.49443561208 48.0238454968013 L 422.10015898251 49.01134644194906 L 433.70588235294 50.22288433739104" class="highcharts-graph" stroke="#008AC3" stroke-width="2" stroke-linejoin="round" stroke-linecap="round"></path></g><g class="highcharts-markers highcharts-series-0 highcharts-line-series " transform="translate(37,55) scale(1 1)" clip-path="none"><path fill="#008AC3" d="M 8 79 A 4 4 0 1 1 7.999998000000167 78.99600000066667 Z" class="highcharts-point"></path><path fill="#008AC3" d="M 124 60 A 4 4 0 1 1 123.99999800000016 59.99600000066666 Z" class="highcharts-point"></path><path fill="#008AC3" d="M 205 55 A 4 4 0 1 1 204.99999800000018 54.99600000066666 Z" class="highcharts-point"></path><path fill="#008AC3" d="M 217 53 A 4 4 0 1 1 216.99999800000018 52.99600000066666 Z" class="highcharts-point"></path><path fill="#008AC3" d="M 228 51 A 4 4 0 1 1 227.99999800000018 50.99600000066666 Z" class="highcharts-point"></path><path fill="#008AC3" d="M 240 50 A 4 4 0 1 1 239.99999800000018 49.99600000066666 Z" class="highcharts-point"></path><path fill="#008AC3" d="M 356 44 A 4 4 0 1 1 355.9999980000002 43.99600000066666 Z" class="highcharts-point"></path><path fill="#008AC3" d="M 368 45 A 4 4 0 1 1 367.9999980000002 44.99600000066666 Z" class="highcharts-point"></path><path fill="#008AC3" d="M 379 45 A 4 4 0 1 1 378.9999980000002 44.99600000066666 Z" class="highcharts-point"></path><path fill="#008AC3" d="M 391 45 A 4 4 0 1 1 390.9999980000002 44.99600000066666 Z" class="highcharts-point"></path><path fill="#008AC3" d="M 402 47 A 4 4 0 1 1 401.9999980000002 46.99600000066666 Z" class="highcharts-point"></path><path fill="#008AC3" d="M 414 48 A 4 4 0 1 1 413.9999980000002 47.99600000066666 Z" class="highcharts-point"></path><path fill="#008AC3" d="M 426 49 A 4 4 0 1 1 425.9999980000002 48.99600000066666 Z" class="highcharts-point"></path><path fill="#008AC3" d="M 437 50 A 4 4 0 1 1 436.9999980000002 49.99600000066666 Z" class="highcharts-point"></path></g></g><text x="10" text-anchor="start" class="highcharts-title" style="color:#000000;font-size:14px;font-weight:bold;fill:#000000;" y="21"><tspan>Mittlere Wohnfläche pro Person</tspan></text><text x="10" text-anchor="start" class="highcharts-subtitle" style="color:#000000;font-size:12px;font-weight:normal;font-family:Arial;fill:#000000;" y="40"><tspan>in m²</tspan></text><g class="highcharts-data-labels highcharts-series-0 highcharts-line-series " visibility="visible" transform="translate(37,55) scale(1 1)"><g class="highcharts-label highcharts-data-label highcharts-data-label-color-undefined " transform="translate(-5,86)"><text x="5" style="font-size:11px;font-weight:bold;color:#000000;fill:#000000;" y="16"><tspan x="5" y="16" class="highcharts-text-outline" fill="#FFFFFF" stroke="#FFFFFF" stroke-width="2px" stroke-linejoin="round" style="">36,0 m²</tspan><tspan x="5" y="16">36,0 m²</tspan></text></g><g class="highcharts-label highcharts-data-label highcharts-data-label-color-undefined " transform="translate(115,80)"><text x="5" style="font-size:11px;font-weight:bold;color:#000000;fill:#000000;" y="16"></text></g><g class="highcharts-label highcharts-data-label highcharts-data-label-color-undefined " transform="translate(197,75)"><text x="5" style="font-size:11px;font-weight:bold;color:#000000;fill:#000000;" y="16"></text></g><g class="highcharts-label highcharts-data-label highcharts-data-label-color-undefined " transform="translate(208,73)"><text x="5" style="font-size:11px;font-weight:bold;color:#000000;fill:#000000;" y="16"></text></g><g class="highcharts-label highcharts-data-label highcharts-data-label-color-undefined " transform="translate(220,71)"><text x="5" style="font-size:11px;font-weight:bold;color:#000000;fill:#000000;" y="16"></text></g><g class="highcharts-label highcharts-data-label highcharts-data-label-color-undefined " transform="translate(231,70)"><text x="5" style="font-size:11px;font-weight:bold;color:#000000;fill:#000000;" y="16"></text></g><g class="highcharts-label highcharts-data-label highcharts-data-label-color-undefined " transform="translate(347,64)"><text x="5" style="font-size:11px;font-weight:bold;color:#000000;fill:#000000;" y="16"></text></g><g class="highcharts-label highcharts-data-label highcharts-data-label-color-undefined " transform="translate(359,65)"><text x="5" style="font-size:11px;font-weight:bold;color:#000000;fill:#000000;" y="16"></text></g><g class="highcharts-label highcharts-data-label highcharts-data-label-color-undefined " transform="translate(371,65)"><text x="5" style="font-size:11px;font-weight:bold;color:#000000;fill:#000000;" y="16"></text></g><g class="highcharts-label highcharts-data-label highcharts-data-label-color-undefined " transform="translate(382,65)"><text x="5" style="font-size:11px;font-weight:bold;color:#000000;fill:#000000;" y="16"></text></g><g class="highcharts-label highcharts-data-label highcharts-data-label-color-undefined " transform="translate(394,67)"><text x="5" style="font-size:11px;font-weight:bold;color:#000000;fill:#000000;" y="16"></text></g><g class="highcharts-label highcharts-data-label highcharts-data-label-color-undefined " transform="translate(405,68)"><text x="5" style="font-size:11px;font-weight:bold;color:#000000;fill:#000000;" y="16"></text></g><g class="highcharts-label highcharts-data-label highcharts-data-label-color-undefined " transform="translate(417,69)"><text x="5" style="font-size:11px;font-weight:bold;color:#000000;fill:#000000;" y="16"></text></g><g class="highcharts-label highcharts-data-label highcharts-data-label-color-undefined " transform="translate(395,57)"><text x="5" style="font-size:11px;font-weight:bold;color:#000000;fill:#000000;" y="16"><tspan x="5" y="16" class="highcharts-text-outline" fill="#FFFFFF" stroke="#FFFFFF" stroke-width="2px" stroke-linejoin="round">41,1 m²</tspan><tspan x="5" y="16">41,1 m²</tspan></text></g></g><g class="highcharts-axis-labels highcharts-xaxis-labels "><text x="43.88684251140867" style="color:#000000;cursor:default;font-size:11px;fill:#000000;" text-anchor="end" transform="translate(0,0) rotate(-45 43.88684251140867 352)" y="352" opacity="1">1980</text><text x="67.09828925226667" style="color:#000000;cursor:default;font-size:11px;fill:#000000;" text-anchor="end" transform="translate(0,0) rotate(-45 67.09828925226667 352)" y="352" opacity="1">1982</text><text x="90.30973599312567" style="color:#000000;cursor:default;font-size:11px;fill:#000000;" text-anchor="end" transform="translate(0,0) rotate(-45 90.30973599312567 352)" y="352" opacity="1">1984</text><text x="113.52118273398067" style="color:#000000;cursor:default;font-size:11px;fill:#000000;" text-anchor="end" transform="translate(0,0) rotate(-45 113.52118273398067 352)" y="352" opacity="1">1986</text><text x="136.73262947484068" style="color:#000000;cursor:default;font-size:11px;fill:#000000;" text-anchor="end" transform="translate(0,0) rotate(-45 136.73262947484068 352)" y="352" opacity="1">1988</text><text x="159.94407621570068" style="color:#000000;cursor:default;font-size:11px;fill:#000000;" text-anchor="end" transform="translate(0,0) rotate(-45 159.94407621570068 352)" y="352" opacity="1">1990</text><text x="183.15552295656067" style="color:#000000;cursor:default;font-size:11px;fill:#000000;" text-anchor="end" transform="translate(0,0) rotate(-45 183.15552295656067 352)" y="352" opacity="1">1992</text><text x="206.36696969742067" style="color:#000000;cursor:default;font-size:11px;fill:#000000;" text-anchor="end" transform="translate(0,0) rotate(-45 206.36696969742067 352)" y="352" opacity="1">1994</text><text x="229.5784164382807" style="color:#000000;cursor:default;font-size:11px;fill:#000000;" text-anchor="end" transform="translate(0,0) rotate(-45 229.5784164382807 352)" y="352" opacity="1">1996</text><text x="252.7898631791407" style="color:#000000;cursor:default;font-size:11px;fill:#000000;" text-anchor="end" transform="translate(0,0) rotate(-45 252.7898631791407 352)" y="352" opacity="1">1998</text><text x="276.00130991999066" style="color:#000000;cursor:default;font-size:11px;fill:#000000;" text-anchor="end" transform="translate(0,0) rotate(-45 276.00130991999066 352)" y="352" opacity="1">2000</text><text x="299.21275666085063" style="color:#000000;cursor:default;font-size:11px;fill:#000000;" text-anchor="end" transform="translate(0,0) rotate(-45 299.21275666085063 352)" y="352" opacity="1">2002</text><text x="322.42420340171066" style="color:#000000;cursor:default;font-size:11px;fill:#000000;" text-anchor="end" transform="translate(0,0) rotate(-45 322.42420340171066 352)" y="352" opacity="1">2004</text><text x="345.6356501425707" style="color:#000000;cursor:default;font-size:11px;fill:#000000;" text-anchor="end" transform="translate(0,0) rotate(-45 345.6356501425707 352)" y="352" opacity="1">2006</text><text x="368.84709688343065" style="color:#000000;cursor:default;font-size:11px;fill:#000000;" text-anchor="end" transform="translate(0,0) rotate(-45 368.84709688343065 352)" y="352" opacity="1">2008</text><text x="392.0585436242907" style="color:#000000;cursor:default;font-size:11px;fill:#000000;" text-anchor="end" transform="translate(0,0) rotate(-45 392.0585436242907 352)" y="352" opacity="1">2010</text><text x="415.26999036515065" style="color:#000000;cursor:default;font-size:11px;fill:#000000;" text-anchor="end" transform="translate(0,0) rotate(-45 415.26999036515065 352)" y="352" opacity="1">2012</text><text x="438.48143710600067" style="color:#000000;cursor:default;font-size:11px;fill:#000000;" text-anchor="end" transform="translate(0,0) rotate(-45 438.48143710600067 352)" y="352" opacity="1">2014</text><text x="461.69288384686064" style="color:#000000;cursor:default;font-size:11px;fill:#000000;" text-anchor="end" transform="translate(0,0) rotate(-45 461.69288384686064 352)" y="352" opacity="1">2016</text></g><g class="highcharts-axis-labels highcharts-yaxis-labels "><text x="22" style="color:#000000;cursor:default;font-size:11px;fill:#000000;" text-anchor="end" transform="translate(0,0)" y="341" opacity="1">0</text><text x="22" style="color:#000000;cursor:default;font-size:11px;fill:#000000;" text-anchor="end" transform="translate(0,0)" y="284" opacity="1">10</text><text x="22" style="color:#000000;cursor:default;font-size:11px;fill:#000000;" text-anchor="end" transform="translate(0,0)" y="228" opacity="1">20</text><text x="22" style="color:#000000;cursor:default;font-size:11px;fill:#000000;" text-anchor="end" transform="translate(0,0)" y="172" opacity="1">30</text><text x="22" style="color:#000000;cursor:default;font-size:11px;fill:#000000;" text-anchor="end" transform="translate(0,0)" y="116" opacity="1">40</text><text x="22" style="color:#000000;cursor:default;font-size:11px;fill:#000000;" text-anchor="end" transform="translate(0,0)" y="60" opacity="1">50</text></g><text x="10" class="highcharts-credits" text-anchor="start" style="cursor:default;color:#000000;font-size:10px;fill:#000000;" y="390"><tspan>Quelle: Statistisches Amt Basel-Stadt, Bevölkerungsstatistik;</tspan><tspan x="10" dy="13">Statistisches Amt Basel-Stadt, Gebäude- und Wohnungsstatistik</tspan></text></svg>