<?xml version="1.0" standalone="no"?><!DOCTYPE svg PUBLIC "-//W3C//DTD SVG 1.1//EN" "http://www.w3.org/Graphics/SVG/1.1/DTD/svg11.dtd"><svg xmlns:xlink="http://www.w3.org/1999/xlink" version="1.1" class="highcharts-root" style="font-family:Arial;font-size:12px;" xmlns="http://www.w3.org/2000/svg" viewBox="0 0 485 415"><desc>Created with Highcharts 5.0.6</desc><defs><clipPath id="highcharts-aoei75b-1"><rect x="0" y="0" width="264" height="274" fill="none"></rect></clipPath></defs><rect fill="#fbfbfb" class="highcharts-background" x="0" y="0" width="485" height="415" rx="0" ry="0"></rect><rect fill="none" class="highcharts-plot-background" x="56" y="75" width="264" height="274"></rect><g class="highcharts-grid highcharts-xaxis-grid "><path fill="none" class="highcharts-grid-line" d="M 108.5 75 L 108.5 349" opacity="1"></path><path fill="none" class="highcharts-grid-line" d="M 161.5 75 L 161.5 349" opacity="1"></path><path fill="none" class="highcharts-grid-line" d="M 213.5 75 L 213.5 349" opacity="1"></path><path fill="none" class="highcharts-grid-line" d="M 266.5 75 L 266.5 349" opacity="1"></path><path fill="none" class="highcharts-grid-line" d="M 319.5 75 L 319.5 349" opacity="1"></path><path fill="none" class="highcharts-grid-line" d="M 55.5 75 L 55.5 349" opacity="1"></path></g><g class="highcharts-grid highcharts-yaxis-grid "><path fill="none" stroke="#e6e6e6" stroke-width="1" class="highcharts-grid-line" d="M 56 349.5 L 320 349.5" opacity="1"></path><path fill="none" stroke="#e6e6e6" stroke-width="1" class="highcharts-grid-line" d="M 56 322.5 L 320 322.5" opacity="1"></path><path fill="none" stroke="#e6e6e6" stroke-width="1" class="highcharts-grid-line" d="M 56 294.5 L 320 294.5" opacity="1"></path><path fill="none" stroke="#e6e6e6" stroke-width="1" class="highcharts-grid-line" d="M 56 267.5 L 320 267.5" opacity="1"></path><path fill="none" stroke="#e6e6e6" stroke-width="1" class="highcharts-grid-line" d="M 56 239.5 L 320 239.5" opacity="1"></path><path fill="none" stroke="#e6e6e6" stroke-width="1" class="highcharts-grid-line" d="M 56 212.5 L 320 212.5" opacity="1"></path><path fill="none" stroke="#e6e6e6" stroke-width="1" class="highcharts-grid-line" d="M 56 185.5 L 320 185.5" opacity="1"></path><path fill="none" stroke="#e6e6e6" stroke-width="1" class="highcharts-grid-line" d="M 56 157.5 L 320 157.5" opacity="1"></path><path fill="none" stroke="#e6e6e6" stroke-width="1" class="highcharts-grid-line" d="M 56 130.5 L 320 130.5" opacity="1"></path><path fill="none" stroke="#e6e6e6" stroke-width="1" class="highcharts-grid-line" d="M 56 102.5 L 320 102.5" opacity="1"></path><path fill="none" stroke="#e6e6e6" stroke-width="1" class="highcharts-grid-line" d="M 56 74.5 L 320 74.5" opacity="1"></path></g><rect fill="none" class="highcharts-plot-border" x="56" y="75" width="264" height="274"></rect><g class="highcharts-axis highcharts-xaxis "><path fill="none" class="highcharts-tick" stroke="#FFFFFF" stroke-width="1" d="M 108.5 349 L 108.5 359" opacity="1"></path><path fill="none" class="highcharts-tick" stroke="#FFFFFF" stroke-width="1" d="M 161.5 349 L 161.5 359" opacity="1"></path><path fill="none" class="highcharts-tick" stroke="#FFFFFF" stroke-width="1" d="M 213.5 349 L 213.5 359" opacity="1"></path><path fill="none" class="highcharts-tick" stroke="#FFFFFF" stroke-width="1" d="M 266.5 349 L 266.5 359" opacity="1"></path><path fill="none" class="highcharts-tick" stroke="#FFFFFF" stroke-width="1" d="M 320.5 349 L 320.5 359" opacity="1"></path><path fill="none" class="highcharts-tick" stroke="#FFFFFF" stroke-width="1" d="M 55.5 349 L 55.5 359" opacity="1"></path><path fill="none" class="highcharts-axis-line" stroke="#ccd6eb" stroke-width="1" d="M 56 349.5 L 320 349.5"></path></g><g class="highcharts-axis highcharts-yaxis "><path fill="none" class="highcharts-axis-line" d="M 56 75 L 56 349"></path></g><g class="highcharts-series-group"><g class="highcharts-series highcharts-series-0 highcharts-column-series highcharts-color-undefined highcharts-tracker" transform="translate(56,75) scale(1 1)" width="274" height="264" clip-path="url(#highcharts-aoei75b-1)"><rect x="13.5" y="-0.5" width="26" height="20" fill="#dc440e" class="highcharts-point" stroke="#ffffff" stroke-width="1"></rect><rect x="66.5" y="-0.5" width="26" height="10" fill="#dc440e" class="highcharts-point" stroke="#ffffff" stroke-width="1"></rect><rect x="118.5" y="-0.5" width="26" height="10" fill="#dc440e" class="highcharts-point" stroke="#ffffff" stroke-width="1"></rect><rect x="171.5" y="-0.5" width="26" height="10" fill="#dc440e" class="highcharts-point" stroke="#ffffff" stroke-width="1"></rect><rect x="224.5" y="-0.5" width="26" height="19" fill="#dc440e" class="highcharts-point" stroke="#ffffff" stroke-width="1"></rect></g><g class="highcharts-markers highcharts-series-0 highcharts-column-series highcharts-color-undefined " transform="translate(56,75) scale(1 1)" width="274" height="264" clip-path="none"></g><g class="highcharts-series highcharts-series-1 highcharts-column-series highcharts-color-undefined highcharts-tracker" transform="translate(56,75) scale(1 1)" width="274" height="264" clip-path="url(#highcharts-aoei75b-1)"><rect x="13.5" y="19.5" width="26" height="84" fill="#ffbb58" class="highcharts-point" stroke="#ffffff" stroke-width="1"></rect><rect x="66.5" y="9.5" width="26" height="85" fill="#ffbb58" class="highcharts-point" stroke="#ffffff" stroke-width="1"></rect><rect x="118.5" y="9.5" width="26" height="72" fill="#ffbb58" class="highcharts-point" stroke="#ffffff" stroke-width="1"></rect><rect x="171.5" y="9.5" width="26" height="70" fill="#ffbb58" class="highcharts-point" stroke="#ffffff" stroke-width="1"></rect><rect x="224.5" y="18.5" width="26" height="108" fill="#ffbb58" class="highcharts-point" stroke="#ffffff" stroke-width="1"></rect></g><g class="highcharts-markers highcharts-series-1 highcharts-column-series highcharts-color-undefined " transform="translate(56,75) scale(1 1)" width="274" height="264" clip-path="none"></g><g class="highcharts-series highcharts-series-2 highcharts-column-series highcharts-color-undefined highcharts-tracker" transform="translate(56,75) scale(1 1)" width="274" height="264" clip-path="url(#highcharts-aoei75b-1)"><rect x="13.5" y="103.5" width="26" height="38" fill="#999999" class="highcharts-point" stroke="#ffffff" stroke-width="1"></rect><rect x="66.5" y="94.5" width="26" height="30" fill="#999999" class="highcharts-point" stroke="#ffffff" stroke-width="1"></rect><rect x="118.5" y="81.5" width="26" height="30" fill="#999999" class="highcharts-point" stroke="#ffffff" stroke-width="1"></rect><rect x="171.5" y="79.5" width="26" height="31" fill="#999999" class="highcharts-point" stroke="#ffffff" stroke-width="1"></rect><rect x="224.5" y="126.5" width="26" height="19" fill="#999999" class="highcharts-point" stroke="#ffffff" stroke-width="1"></rect></g><g class="highcharts-markers highcharts-series-2 highcharts-column-series highcharts-color-undefined " transform="translate(56,75) scale(1 1)" width="274" height="264" clip-path="none"></g><g class="highcharts-series highcharts-series-3 highcharts-column-series highcharts-color-undefined highcharts-tracker" transform="translate(56,75) scale(1 1)" width="274" height="264" clip-path="url(#highcharts-aoei75b-1)"><rect x="13.5" y="141.5" width="26" height="107" fill="#68ab2b" class="highcharts-point" stroke="#ffffff" stroke-width="1"></rect><rect x="66.5" y="124.5" width="26" height="124" fill="#68ab2b" class="highcharts-point" stroke="#ffffff" stroke-width="1"></rect><rect x="118.5" y="111.5" width="26" height="137" fill="#68ab2b" class="highcharts-point" stroke="#ffffff" stroke-width="1"></rect><rect x="171.5" y="110.5" width="26" height="116" fill="#68ab2b" class="highcharts-point" stroke="#ffffff" stroke-width="1"></rect><rect x="224.5" y="145.5" width="26" height="102" fill="#68ab2b" class="highcharts-point" stroke="#ffffff" stroke-width="1"></rect></g><g class="highcharts-markers highcharts-series-3 highcharts-column-series highcharts-color-undefined " transform="translate(56,75) scale(1 1)" width="274" height="264" clip-path="none"></g><g class="highcharts-series highcharts-series-4 highcharts-column-series highcharts-color-undefined highcharts-tracker" transform="translate(56,75) scale(1 1)" width="274" height="264" clip-path="url(#highcharts-aoei75b-1)"><rect x="13.5" y="248.5" width="26" height="26" fill="#007a2f" class="highcharts-point" stroke="#ffffff" stroke-width="1"></rect><rect x="66.5" y="248.5" width="26" height="26" fill="#007a2f" class="highcharts-point" stroke="#ffffff" stroke-width="1"></rect><rect x="118.5" y="248.5" width="26" height="26" fill="#007a2f" class="highcharts-point" stroke="#ffffff" stroke-width="1"></rect><rect x="171.5" y="226.5" width="26" height="48" fill="#007a2f" class="highcharts-point" stroke="#ffffff" stroke-width="1"></rect><rect x="224.5" y="247.5" width="26" height="27" fill="#007a2f" class="highcharts-point" stroke="#ffffff" stroke-width="1"></rect></g><g class="highcharts-markers highcharts-series-4 highcharts-column-series highcharts-color-undefined " transform="translate(56,75) scale(1 1)" width="274" height="264" clip-path="none"></g></g><text x="10" text-anchor="start" class="highcharts-title" style="color:#000000;font-size:14px;font-weight:bold;fill:#000000;width:421px;" y="21"><tspan>I.50.1.0006 Zufriedenheit mit dem</tspan><tspan dy="17" x="10">Wohnungsangebot – nur Familien</tspan><title>I.50.1.0006 Zufriedenheit mit dem Wohnungsangebot – nur Familien</title></text><text x="10" text-anchor="start" class="highcharts-subtitle" style="color:#000000;font-size:12px;fill:#000000;width:421px;" y="59"><tspan>«Wie zufrieden sind sie mit dem Wohnungsangebot?»</tspan></text><g class="highcharts-legend" transform="translate(332,135)"><rect fill="none" class="highcharts-legend-box" rx="0" ry="0" x="0" y="0" width="143" height="126" visibility="visible"></rect><g><g><g class="highcharts-legend-item highcharts-column-series highcharts-color-undefined highcharts-series-0" transform="translate(8,3)"><text x="21" style="color:#333333;font-size:12px;font-weight:normal;cursor:pointer;fill:#333333;" text-anchor="start" y="15"><tspan>Sehr unzufrieden</tspan></text><rect x="2" y="4" width="12" height="12" fill="#dc440e" class="highcharts-point"></rect></g><g class="highcharts-legend-item highcharts-column-series highcharts-color-undefined highcharts-series-1" transform="translate(8,23)"><text x="21" y="15" style="color:#333333;font-size:12px;font-weight:normal;cursor:pointer;fill:#333333;" text-anchor="start"><tspan>Eher unzufrieden</tspan></text><rect x="2" y="4" width="12" height="12" fill="#ffbb58" class="highcharts-point"></rect></g><g class="highcharts-legend-item highcharts-column-series highcharts-color-undefined highcharts-series-2" transform="translate(8,43)"><text x="21" y="15" style="color:#333333;font-size:12px;font-weight:normal;cursor:pointer;fill:#333333;" text-anchor="start"><tspan>Weiss nicht /</tspan><tspan x="21" dy="15">keine Angabe</tspan></text><rect x="2" y="4" width="12" height="12" fill="#999999" class="highcharts-point"></rect></g><g class="highcharts-legend-item highcharts-column-series highcharts-color-undefined highcharts-series-3" transform="translate(8,78)"><text x="21" y="15" style="color:#333333;font-size:12px;font-weight:normal;cursor:pointer;fill:#333333;" text-anchor="start"><tspan>Eher zufrieden</tspan></text><rect x="2" y="4" width="12" height="12" fill="#68ab2b" class="highcharts-point"></rect></g><g class="highcharts-legend-item highcharts-column-series highcharts-color-undefined highcharts-series-4" transform="translate(8,98)"><text x="21" y="15" style="color:#333333;font-size:12px;font-weight:normal;cursor:pointer;fill:#333333;" text-anchor="start"><tspan>Sehr zufrieden</tspan></text><rect x="2" y="4" width="12" height="12" fill="#007a2f" class="highcharts-point"></rect></g></g></g></g><g class="highcharts-axis-labels highcharts-xaxis-labels "><text x="82.4" style="color:#000000;cursor:default;font-size:11px;fill:#000000;" text-anchor="middle" transform="translate(0,0)" y="368" opacity="1"><tspan>2003</tspan><tspan x="82.4" dy="14">(N=347)</tspan></text><text x="135.2" style="color:#000000;cursor:default;font-size:11px;fill:#000000;" text-anchor="middle" transform="translate(0,0)" y="368" opacity="1"><tspan>2005</tspan><tspan x="135.2" dy="14">(N=366)</tspan></text><text x="188" style="color:#000000;cursor:default;font-size:11px;fill:#000000;" text-anchor="middle" transform="translate(0,0)" y="368" opacity="1"><tspan>2007</tspan><tspan x="188" dy="14">(N=280)</tspan></text><text x="240.79999999999998" style="color:#000000;cursor:default;font-size:11px;fill:#000000;" text-anchor="middle" transform="translate(0,0)" y="368" opacity="1"><tspan>2011</tspan><tspan x="240.79999999999998" dy="14">(N=331)</tspan></text><text x="293.6" style="color:#000000;cursor:default;font-size:11px;fill:#000000;" text-anchor="middle" transform="translate(0,0)" y="368" opacity="1"><tspan>2015</tspan><tspan x="293.6" dy="14">(N=237)</tspan></text></g><g class="highcharts-axis-labels highcharts-yaxis-labels "><text x="41" style="color:#000000;cursor:default;font-size:11px;fill:#000000;width:150px;text-overflow:clip;" text-anchor="end" transform="translate(0,0)" y="353" opacity="1"><tspan>0%</tspan></text><text x="41" style="color:#000000;cursor:default;font-size:11px;fill:#000000;width:150px;text-overflow:clip;" text-anchor="end" transform="translate(0,0)" y="326" opacity="1"><tspan>10%</tspan></text><text x="41" style="color:#000000;cursor:default;font-size:11px;fill:#000000;width:150px;text-overflow:clip;" text-anchor="end" transform="translate(0,0)" y="298" opacity="1"><tspan>20%</tspan></text><text x="41" style="color:#000000;cursor:default;font-size:11px;fill:#000000;width:150px;text-overflow:clip;" text-anchor="end" transform="translate(0,0)" y="271" opacity="1"><tspan>30%</tspan></text><text x="41" style="color:#000000;cursor:default;font-size:11px;fill:#000000;width:150px;text-overflow:clip;" text-anchor="end" transform="translate(0,0)" y="243" opacity="1"><tspan>40%</tspan></text><text x="41" style="color:#000000;cursor:default;font-size:11px;fill:#000000;width:150px;text-overflow:clip;" text-anchor="end" transform="translate(0,0)" y="216" opacity="1"><tspan>50%</tspan></text><text x="41" style="color:#000000;cursor:default;font-size:11px;fill:#000000;width:150px;text-overflow:clip;" text-anchor="end" transform="translate(0,0)" y="189" opacity="1"><tspan>60%</tspan></text><text x="41" style="color:#000000;cursor:default;font-size:11px;fill:#000000;width:150px;text-overflow:clip;" text-anchor="end" transform="translate(0,0)" y="161" opacity="1"><tspan>70%</tspan></text><text x="41" style="color:#000000;cursor:default;font-size:11px;fill:#000000;width:150px;text-overflow:clip;" text-anchor="end" transform="translate(0,0)" y="134" opacity="1"><tspan>80%</tspan></text><text x="41" style="color:#000000;cursor:default;font-size:11px;fill:#000000;width:150px;text-overflow:clip;" text-anchor="end" transform="translate(0,0)" y="106" opacity="1"><tspan>90%</tspan></text><text x="41" style="color:#000000;cursor:default;font-size:11px;fill:#000000;width:150px;text-overflow:clip;" text-anchor="end" transform="translate(0,0)" y="79" opacity="1"><tspan>100%</tspan></text></g><text x="10" class="highcharts-credits" text-anchor="start" style="cursor:default;color:#000000;font-size:10px;fill:#000000;" y="400"><tspan>Quelle: Statistisches Amt Basel-Stadt, kantonale Bevölkerungsbefragung: F6_9</tspan></text></svg>