<?xml version="1.0" standalone="no"?><!DOCTYPE svg PUBLIC "-//W3C//DTD SVG 1.1//EN" "http://www.w3.org/Graphics/SVG/1.1/DTD/svg11.dtd"><svg xmlns:xlink="http://www.w3.org/1999/xlink" version="1.1" class="highcharts-root" style="font-family:Arial;font-size:12px;" xmlns="http://www.w3.org/2000/svg" viewBox="0 0 485 415"><desc>Created with Highstock 6.1.1</desc><defs><clipPath id="highcharts-5fspyiy-6"><rect x="0" y="0" width="434" height="312" fill="none"></rect></clipPath><clipPath id="highcharts-5fspyiy-7"><rect x="0" y="0" width="434" height="312" fill="none"></rect></clipPath></defs><rect fill="#fbfbfb" class="highcharts-background" x="0" y="0" width="485" height="428" rx="0" ry="0"></rect><rect fill="none" class="highcharts-plot-background" x="41" y="55" width="434" height="312"></rect><g class="highcharts-pane-group" data-z-index="0"></g><g class="highcharts-grid highcharts-xaxis-grid " data-z-index="1"><path fill="none" data-z-index="1" class="highcharts-grid-line" d="M 60.5 55 L 60.5 367" opacity="1"></path><path fill="none" data-z-index="1" class="highcharts-grid-line" d="M 93.5 55 L 93.5 367" opacity="1"></path><path fill="none" data-z-index="1" class="highcharts-grid-line" d="M 126.5 55 L 126.5 367" opacity="1"></path><path fill="none" data-z-index="1" class="highcharts-grid-line" d="M 159.5 55 L 159.5 367" opacity="1"></path><path fill="none" data-z-index="1" class="highcharts-grid-line" d="M 191.5 55 L 191.5 367" opacity="1"></path><path fill="none" data-z-index="1" class="highcharts-grid-line" d="M 224.5 55 L 224.5 367" opacity="1"></path><path fill="none" data-z-index="1" class="highcharts-grid-line" d="M 257.5 55 L 257.5 367" opacity="1"></path><path fill="none" data-z-index="1" class="highcharts-grid-line" d="M 290.5 55 L 290.5 367" opacity="1"></path><path fill="none" data-z-index="1" class="highcharts-grid-line" d="M 323.5 55 L 323.5 367" opacity="1"></path><path fill="none" data-z-index="1" class="highcharts-grid-line" d="M 355.5 55 L 355.5 367" opacity="1"></path><path fill="none" data-z-index="1" class="highcharts-grid-line" d="M 388.5 55 L 388.5 367" opacity="1"></path><path fill="none" data-z-index="1" class="highcharts-grid-line" d="M 421.5 55 L 421.5 367" opacity="1"></path><path fill="none" data-z-index="1" class="highcharts-grid-line" d="M 454.5 55 L 454.5 367" opacity="1"></path></g><g class="highcharts-grid highcharts-yaxis-grid " data-z-index="1"><path fill="none" stroke="#B9CFD7" stroke-width="0.5" data-z-index="1" class="highcharts-grid-line" d="M 41 367.25 L 475 367.25" opacity="1"></path><path fill="none" stroke="#B9CFD7" stroke-width="0.5" data-z-index="1" class="highcharts-grid-line" d="M 41 315.25 L 475 315.25" opacity="1"></path><path fill="none" stroke="#B9CFD7" stroke-width="0.5" data-z-index="1" class="highcharts-grid-line" d="M 41 263.25 L 475 263.25" opacity="1"></path><path fill="none" stroke="#B9CFD7" stroke-width="0.5" data-z-index="1" class="highcharts-grid-line" d="M 41 211.25 L 475 211.25" opacity="1"></path><path fill="none" stroke="#B9CFD7" stroke-width="0.5" data-z-index="1" class="highcharts-grid-line" d="M 41 159.25 L 475 159.25" opacity="1"></path><path fill="none" stroke="#B9CFD7" stroke-width="0.5" data-z-index="1" class="highcharts-grid-line" d="M 41 107.25 L 475 107.25" opacity="1"></path><path fill="none" stroke="#B9CFD7" stroke-width="0.5" data-z-index="1" class="highcharts-grid-line" d="M 41 54.75 L 475 54.75" opacity="1"></path></g><rect fill="none" class="highcharts-plot-border" data-z-index="1" x="41" y="55" width="434" height="312"></rect><g class="highcharts-axis highcharts-xaxis " data-z-index="2"><path fill="none" class="highcharts-axis-line" stroke="#B9CFD7" stroke-width="0.5" data-z-index="7" d="M 41 367.25 L 475 367.25"></path></g><g class="highcharts-axis highcharts-yaxis " data-z-index="2"><path fill="none" class="highcharts-axis-line" data-z-index="7" d="M 41 55 L 41 367"></path></g><g class="highcharts-series-group" data-z-index="3"><g data-z-index="0.1" class="highcharts-series highcharts-series-0 highcharts-column-series " transform="translate(41,55) scale(1 1)" clip-path="url(#highcharts-5fspyiy-7)"><rect x="12" y="157" width="16" height="101" fill="#008AC3" class="highcharts-point highcharts-negative"></rect><rect x="45" y="157" width="16" height="129" fill="#008AC3" class="highcharts-point highcharts-negative"></rect><rect x="78" y="157" width="16" height="135" fill="#008AC3" class="highcharts-point highcharts-negative"></rect><rect x="111" y="157" width="16" height="136" fill="#008AC3" class="highcharts-point highcharts-negative"></rect><rect x="144" y="157" width="16" height="45" fill="#008AC3" class="highcharts-point highcharts-negative"></rect><rect x="176" y="157" width="16" height="11" fill="#008AC3" class="highcharts-point highcharts-negative"></rect><rect x="209" y="157" width="16" height="26" fill="#008AC3" class="highcharts-point highcharts-negative"></rect><rect x="242" y="109" width="16" height="48" fill="#008AC3" class="highcharts-point"></rect><rect x="275" y="46" width="16" height="111" fill="#008AC3" class="highcharts-point"></rect><rect x="307" y="107" width="16" height="50" fill="#008AC3" class="highcharts-point"></rect><rect x="340" y="20" width="16" height="137" fill="#008AC3" class="highcharts-point"></rect><rect x="373" y="31" width="16" height="126" fill="#008AC3" class="highcharts-point"></rect><rect x="406" y="114" width="16" height="43" fill="#008AC3" class="highcharts-point"></rect></g><g data-z-index="0.1" class="highcharts-markers highcharts-series-0 highcharts-column-series " transform="translate(41,55) scale(1 1)" clip-path="none"></g></g><text x="10" text-anchor="start" class="highcharts-title" data-z-index="4" style="color:#000000;font-size:14px;font-weight:bold;fill:#000000;" y="21"><tspan>Saldo des Steuerertrages von Zu- und Wegzügern</tspan></text><text x="10" text-anchor="start" class="highcharts-subtitle" data-z-index="4" style="color:#000000;font-size:12px;font-weight:normal;font-family:Arial;fill:#000000;" y="40"><tspan>Basel-Stadt, in Mio. Franken</tspan></text><g class="highcharts-axis-labels highcharts-xaxis-labels " data-z-index="7"><text x="61.323262839876" style="color:#000000;cursor:default;font-size:11px;fill:#000000;" text-anchor="middle" transform="translate(0,0)" y="386" opacity="1">2002</text><text x="94.10271903323" style="color:#000000;cursor:default;font-size:11px;fill:#000000;" text-anchor="middle" transform="translate(0,0)" y="386" opacity="1">2003</text><text x="126.88217522658" style="color:#000000;cursor:default;font-size:11px;fill:#000000;" text-anchor="middle" transform="translate(0,0)" y="386" opacity="1">2004</text><text x="159.66163141994" style="color:#000000;cursor:default;font-size:11px;fill:#000000;" text-anchor="middle" transform="translate(0,0)" y="386" opacity="1">2005</text><text x="192.44108761329" style="color:#000000;cursor:default;font-size:11px;fill:#000000;" text-anchor="middle" transform="translate(0,0)" y="386" opacity="1">2006</text><text x="225.22054380665" style="color:#000000;cursor:default;font-size:11px;fill:#000000;" text-anchor="middle" transform="translate(0,0)" y="386" opacity="1">2007</text><text x="258" style="color:#000000;cursor:default;font-size:11px;fill:#000000;" text-anchor="middle" transform="translate(0,0)" y="386" opacity="1">2008</text><text x="290.77945619335" style="color:#000000;cursor:default;font-size:11px;fill:#000000;" text-anchor="middle" transform="translate(0,0)" y="386" opacity="1">2009</text><text x="323.55891238671" style="color:#000000;cursor:default;font-size:11px;fill:#000000;" text-anchor="middle" transform="translate(0,0)" y="386" opacity="1">2010</text><text x="356.33836858006" style="color:#000000;cursor:default;font-size:11px;fill:#000000;" text-anchor="middle" transform="translate(0,0)" y="386" opacity="1">2011</text><text x="389.11782477342" style="color:#000000;cursor:default;font-size:11px;fill:#000000;" text-anchor="middle" transform="translate(0,0)" y="386" opacity="1">2012</text><text x="421.89728096677" style="color:#000000;cursor:default;font-size:11px;fill:#000000;" text-anchor="middle" transform="translate(0,0)" y="386" opacity="1">2013</text><text x="454.67673716012" style="color:#000000;cursor:default;font-size:11px;fill:#000000;" text-anchor="middle" transform="translate(0,0)" y="386" opacity="1">2014</text></g><g class="highcharts-axis-labels highcharts-yaxis-labels " data-z-index="7"><text x="26" style="color:#000000;cursor:default;font-size:11px;fill:#000000;" text-anchor="end" transform="translate(0,0)" y="372" opacity="1">-15</text><text x="26" style="color:#000000;cursor:default;font-size:11px;fill:#000000;" text-anchor="end" transform="translate(0,0)" y="320" opacity="1">-10</text><text x="26" style="color:#000000;cursor:default;font-size:11px;fill:#000000;" text-anchor="end" transform="translate(0,0)" y="268" opacity="1">-5</text><text x="26" style="color:#000000;cursor:default;font-size:11px;fill:#000000;" text-anchor="end" transform="translate(0,0)" y="216" opacity="1">0</text><text x="26" style="color:#000000;cursor:default;font-size:11px;fill:#000000;" text-anchor="end" transform="translate(0,0)" y="164" opacity="1">5</text><text x="26" style="color:#000000;cursor:default;font-size:11px;fill:#000000;" text-anchor="end" transform="translate(0,0)" y="112" opacity="1">10</text><text x="26" style="color:#000000;cursor:default;font-size:11px;fill:#000000;" text-anchor="end" transform="translate(0,0)" y="60" opacity="1">15</text></g><text x="10" class="highcharts-credits" text-anchor="start" data-z-index="8" style="cursor:default;color:#000000;font-size:10px;fill:#000000;" y="403"><tspan>Quelle: Statistisches Amt Basel-Stadt, Steuerstatistik.</tspan><tspan x="10" dy="13">Zuletzt geändert: 2018-1-10</tspan></text></svg>