<?xml version="1.0" standalone="no"?><!DOCTYPE svg PUBLIC "-//W3C//DTD SVG 1.1//EN" "http://www.w3.org/Graphics/SVG/1.1/DTD/svg11.dtd"><svg xmlns:xlink="http://www.w3.org/1999/xlink" version="1.1" class="highcharts-root" style="font-family:Arial;font-size:12px;" xmlns="http://www.w3.org/2000/svg" viewBox="0 0 485 415"><desc>Created with Highcharts 8.2.2</desc><defs><clipPath id="highcharts-i7nru30-22-"><rect x="0" y="0" width="411" height="297" fill="none"></rect></clipPath><clipPath id="highcharts-i7nru30-38-"><rect x="0" y="0" width="411" height="297" fill="none"></rect></clipPath><clipPath id="highcharts-i7nru30-39-"><rect x="64" y="41" width="411" height="297" fill="none"></rect></clipPath></defs><rect fill="#fbfbfb" class="highcharts-background" x="0" y="0" width="485" height="428" rx="0" ry="0"></rect><rect fill="none" class="highcharts-plot-background" x="64" y="41" width="411" height="297"></rect><g class="highcharts-pane-group" data-z-index="0"></g><g class="highcharts-grid highcharts-xaxis-grid" data-z-index="1"><path fill="none" data-z-index="1" class="highcharts-grid-line" d="M 67.5 41 L 67.5 338" opacity="1"></path><path fill="none" data-z-index="1" class="highcharts-grid-line" d="M 96.5 41 L 96.5 338" opacity="1"></path><path fill="none" data-z-index="1" class="highcharts-grid-line" d="M 125.5 41 L 125.5 338" opacity="1"></path><path fill="none" data-z-index="1" class="highcharts-grid-line" d="M 153.5 41 L 153.5 338" opacity="1"></path><path fill="none" data-z-index="1" class="highcharts-grid-line" d="M 182.5 41 L 182.5 338" opacity="1"></path><path fill="none" data-z-index="1" class="highcharts-grid-line" d="M 211.5 41 L 211.5 338" opacity="1"></path><path fill="none" data-z-index="1" class="highcharts-grid-line" d="M 240.5 41 L 240.5 338" opacity="1"></path><path fill="none" data-z-index="1" class="highcharts-grid-line" d="M 269.5 41 L 269.5 338" opacity="1"></path><path fill="none" data-z-index="1" class="highcharts-grid-line" d="M 297.5 41 L 297.5 338" opacity="1"></path><path fill="none" data-z-index="1" class="highcharts-grid-line" d="M 326.5 41 L 326.5 338" opacity="1"></path><path fill="none" data-z-index="1" class="highcharts-grid-line" d="M 355.5 41 L 355.5 338" opacity="1"></path><path fill="none" data-z-index="1" class="highcharts-grid-line" d="M 384.5 41 L 384.5 338" opacity="1"></path><path fill="none" data-z-index="1" class="highcharts-grid-line" d="M 412.5 41 L 412.5 338" opacity="1"></path><path fill="none" data-z-index="1" class="highcharts-grid-line" d="M 441.5 41 L 441.5 338" opacity="1"></path><path fill="none" data-z-index="1" class="highcharts-grid-line" d="M 470.5 41 L 470.5 338" opacity="1"></path></g><g class="highcharts-grid highcharts-yaxis-grid" data-z-index="1"><path fill="none" stroke="#B9CFD7" stroke-width="0.5" data-z-index="1" class="highcharts-grid-line" d="M 64 338.25 L 475 338.25" opacity="1"></path><path fill="none" stroke="#B9CFD7" stroke-width="0.5" data-z-index="1" class="highcharts-grid-line" d="M 64 264.25 L 475 264.25" opacity="1"></path><path fill="none" stroke="#B9CFD7" stroke-width="0.5" data-z-index="1" class="highcharts-grid-line" d="M 64 190.25 L 475 190.25" opacity="1"></path><path fill="none" stroke="#B9CFD7" stroke-width="0.5" data-z-index="1" class="highcharts-grid-line" d="M 64 115.25 L 475 115.25" opacity="1"></path><path fill="none" stroke="#B9CFD7" stroke-width="0.5" data-z-index="1" class="highcharts-grid-line" d="M 64 40.75 L 475 40.75" opacity="1"></path></g><rect fill="none" class="highcharts-plot-border" data-z-index="1" x="64" y="41" width="411" height="297"></rect><g class="highcharts-axis highcharts-xaxis" data-z-index="2"><path fill="none" class="highcharts-axis-line" stroke="#B9CFD7" stroke-width="0.5" data-z-index="7" d="M 64 338.25 L 475 338.25"></path></g><g class="highcharts-axis highcharts-yaxis" data-z-index="2"><path fill="none" class="highcharts-axis-line" data-z-index="7" d="M 64 41 L 64 338"></path></g><g class="highcharts-series-group" data-z-index="3"><g class="highcharts-series highcharts-series-0 highcharts-line-series" data-z-index="0.1" opacity="1" transform="translate(64,41) scale(1 1)" clip-path="url(#highcharts-i7nru30-38-)"><path fill="none" d="M 4.0294117647087 58.936679999999996 L 32.81092436975 56.973510000000005 L 61.592436974792 55.438019999999995 L 90.373949579834 53.134784999999994 L 119.15546218488 51.73740000000001 L 147.93697478992 50.79293999999999 L 176.71848739496 50.12765999999999 L 205.5 49.446045 L 234.28151260504 48.40060500000001 L 263.06302521008 47.35665 L 291.84453781512 48.06648000000001 L 320.62605042017 49.10301000000001 L 349.40756302521 45.524159999999995 L 378.18907563025 43.25210999999999 L 406.97058823529 42.89571000000001" class="highcharts-graph" data-z-index="1" stroke="#B375AB" stroke-width="2" stroke-linejoin="round" stroke-linecap="round"></path></g><g class="highcharts-markers highcharts-series-0 highcharts-line-series" data-z-index="0.1" opacity="1" transform="translate(64,41) scale(1 1)" clip-path="none"></g></g><text x="10" text-anchor="start" class="highcharts-title" data-z-index="4" style="color:#000000;font-size:14px;font-weight:bold;fill:#000000;" y="21"><tspan>Erwachsene Einwohner mit Hauptwohnsitz in Basel-Stadt</tspan></text><text x="10" text-anchor="start" class="highcharts-subtitle" data-z-index="4" style="color:#000000;font-size:12px;font-weight:normal;fill:#000000;" y="40"></text><text x="10" text-anchor="start" class="highcharts-caption" data-z-index="4" style="color:#666666;fill:#666666;" y="385"></text><g class="highcharts-axis-labels highcharts-xaxis-labels" data-z-index="7"><text x="70.62213662905967" style="color:#000000;cursor:default;font-size:11px;fill:#000000;" text-anchor="end" transform="translate(0,0) rotate(-45 70.62213662905967 354)" y="354" opacity="1">2010</text><text x="99.40364923410067" style="color:#000000;cursor:default;font-size:11px;fill:#000000;" text-anchor="end" transform="translate(0,0) rotate(-45 99.40364923410067 354)" y="354" opacity="1">2011</text><text x="128.18516183914068" style="color:#000000;cursor:default;font-size:11px;fill:#000000;" text-anchor="end" transform="translate(0,0) rotate(-45 128.18516183914068 354)" y="354" opacity="1">2012</text><text x="156.96667444418068" style="color:#000000;cursor:default;font-size:11px;fill:#000000;" text-anchor="end" transform="translate(0,0) rotate(-45 156.96667444418068 354)" y="354" opacity="1">2013</text><text x="185.7481870492307" style="color:#000000;cursor:default;font-size:11px;fill:#000000;" text-anchor="end" transform="translate(0,0) rotate(-45 185.7481870492307 354)" y="354" opacity="1">2014</text><text x="214.52969965427067" style="color:#000000;cursor:default;font-size:11px;fill:#000000;" text-anchor="end" transform="translate(0,0) rotate(-45 214.52969965427067 354)" y="354" opacity="1">2015</text><text x="243.31121225931068" style="color:#000000;cursor:default;font-size:11px;fill:#000000;" text-anchor="end" transform="translate(0,0) rotate(-45 243.31121225931068 354)" y="354" opacity="1">2016</text><text x="272.09272486435066" style="color:#000000;cursor:default;font-size:11px;fill:#000000;" text-anchor="end" transform="translate(0,0) rotate(-45 272.09272486435066 354)" y="354" opacity="1">2017</text><text x="300.87423746939066" style="color:#000000;cursor:default;font-size:11px;fill:#000000;" text-anchor="end" transform="translate(0,0) rotate(-45 300.87423746939066 354)" y="354" opacity="1">2018</text><text x="329.65575007443067" style="color:#000000;cursor:default;font-size:11px;fill:#000000;" text-anchor="end" transform="translate(0,0) rotate(-45 329.65575007443067 354)" y="354" opacity="1">2019</text><text x="358.4372626794707" style="color:#000000;cursor:default;font-size:11px;fill:#000000;" text-anchor="end" transform="translate(0,0) rotate(-45 358.4372626794707 354)" y="354" opacity="1">2020</text><text x="387.21877528452063" style="color:#000000;cursor:default;font-size:11px;fill:#000000;" text-anchor="end" transform="translate(0,0) rotate(-45 387.21877528452063 354)" y="354" opacity="1">2021</text><text x="416.00028788956064" style="color:#000000;cursor:default;font-size:11px;fill:#000000;" text-anchor="end" transform="translate(0,0) rotate(-45 416.00028788956064 354)" y="354" opacity="1">2022</text><text x="444.78180049460065" style="color:#000000;cursor:default;font-size:11px;fill:#000000;" text-anchor="end" transform="translate(0,0) rotate(-45 444.78180049460065 354)" y="354" opacity="1">2023</text><text x="473.56331309964065" style="color:#000000;cursor:default;font-size:11px;fill:#000000;" text-anchor="end" transform="translate(0,0) rotate(-45 473.56331309964065 354)" y="354" opacity="1">2024</text></g><g class="highcharts-axis-labels highcharts-yaxis-labels" data-z-index="7"><text x="49" style="color:#000000;cursor:default;font-size:11px;fill:#000000;" text-anchor="end" transform="translate(0,0)" y="342" opacity="1">0</text><text x="49" style="color:#000000;cursor:default;font-size:11px;fill:#000000;" text-anchor="end" transform="translate(0,0)" y="268" opacity="1"><tspan>50 000</tspan></text><text x="49" style="color:#000000;cursor:default;font-size:11px;fill:#000000;" text-anchor="end" transform="translate(0,0)" y="194" opacity="1"><tspan>100 000</tspan></text><text x="49" style="color:#000000;cursor:default;font-size:11px;fill:#000000;" text-anchor="end" transform="translate(0,0)" y="119" opacity="1"><tspan>150 000</tspan></text><text x="49" style="color:#000000;cursor:default;font-size:11px;fill:#000000;" text-anchor="end" transform="translate(0,0)" y="45" opacity="1"><tspan>200 000</tspan></text></g><text x="10" class="highcharts-credits" text-anchor="start" data-z-index="8" style="cursor:default;color:#000000;font-size:10px;fill:#000000;" y="403"><tspan>Quelle: Bundesamt für Statistik (BFS), Statistik der Bevölkerung und der Haushalte (STATPOP).</tspan><tspan x="10" dy="13">Zuletzt geändert: 23.4.2026</tspan></text><g class="highcharts-control-points" data-z-index="99" clip-path="url(#highcharts-i7nru30-39-)"></g></svg>