<?xml version="1.0" standalone="no"?><!DOCTYPE svg PUBLIC "-//W3C//DTD SVG 1.1//EN" "http://www.w3.org/Graphics/SVG/1.1/DTD/svg11.dtd"><svg xmlns:xlink="http://www.w3.org/1999/xlink" version="1.1" class="highcharts-root" style="font-family:&quot;Lucida Grande&quot;, &quot;Lucida Sans Unicode&quot;, Arial, Helvetica, sans-serif;font-size:12px;" xmlns="http://www.w3.org/2000/svg" viewBox="0 0 485 415"><desc>Created with Highstock 6.1.1</desc><defs><clipPath id="highcharts-up68j4a-7"><rect x="0" y="0" width="432" height="220" fill="none"></rect></clipPath><clipPath id="highcharts-up68j4a-8"><rect x="0" y="0" width="432" height="220" fill="none"></rect></clipPath></defs><rect fill="#fbfbfb" class="highcharts-background" x="0" y="0" width="485" height="415" rx="0" ry="0"></rect><rect fill="none" class="highcharts-plot-background" x="43" y="124" width="432" height="220"></rect><g class="highcharts-label" style="cursor:pointer;" transform="translate(10,451)"><text x="0" data-z-index="1" y="0"><tspan>&gt; Indikator-Details</tspan></text></g><g class="highcharts-label" style="cursor:pointer;" transform="translate(10,451)"><text x="0" data-z-index="1" y="0"><tspan>&gt; Indikator-Details</tspan></text></g><g class="highcharts-pane-group" data-z-index="0"></g><g class="highcharts-grid highcharts-xaxis-grid " data-z-index="1"><path fill="none" data-z-index="1" class="highcharts-grid-line" d="M 74.5 124 L 74.5 344" opacity="1"></path><path fill="none" data-z-index="1" class="highcharts-grid-line" d="M 118.5 124 L 118.5 344" opacity="1"></path><path fill="none" data-z-index="1" class="highcharts-grid-line" d="M 161.5 124 L 161.5 344" opacity="1"></path><path fill="none" data-z-index="1" class="highcharts-grid-line" d="M 204.5 124 L 204.5 344" opacity="1"></path><path fill="none" data-z-index="1" class="highcharts-grid-line" d="M 247.5 124 L 247.5 344" opacity="1"></path><path fill="none" data-z-index="1" class="highcharts-grid-line" d="M 290.5 124 L 290.5 344" opacity="1"></path><path fill="none" data-z-index="1" class="highcharts-grid-line" d="M 334.5 124 L 334.5 344" opacity="1"></path><path fill="none" data-z-index="1" class="highcharts-grid-line" d="M 377.5 124 L 377.5 344" opacity="1"></path><path fill="none" data-z-index="1" class="highcharts-grid-line" d="M 420.5 124 L 420.5 344" opacity="1"></path><path fill="none" data-z-index="1" class="highcharts-grid-line" d="M 463.5 124 L 463.5 344" opacity="1"></path></g><g class="highcharts-grid highcharts-yaxis-grid " data-z-index="1"><path fill="none" stroke="#e6e6e6" stroke-width="1" data-z-index="1" class="highcharts-grid-line" d="M 43 344.5 L 475 344.5" opacity="1"></path><path fill="none" stroke="#e6e6e6" stroke-width="1" data-z-index="1" class="highcharts-grid-line" d="M 43 289.5 L 475 289.5" opacity="1"></path><path fill="none" stroke="#e6e6e6" stroke-width="1" data-z-index="1" class="highcharts-grid-line" d="M 43 234.5 L 475 234.5" opacity="1"></path><path fill="none" stroke="#e6e6e6" stroke-width="1" data-z-index="1" class="highcharts-grid-line" d="M 43 179.5 L 475 179.5" opacity="1"></path><path fill="none" stroke="#e6e6e6" stroke-width="1" data-z-index="1" class="highcharts-grid-line" d="M 43 123.5 L 475 123.5" opacity="1"></path></g><g class="highcharts-grid highcharts-yaxis-grid " data-z-index="1"></g><rect fill="none" class="highcharts-plot-border" data-z-index="1" x="43" y="124" width="432" height="220"></rect><g class="highcharts-axis highcharts-xaxis " data-z-index="2"><path fill="none" class="highcharts-axis-line" stroke="#ccd6eb" stroke-width="1" data-z-index="7" d="M 43 344.5 L 475 344.5"></path></g><g class="highcharts-axis highcharts-yaxis " data-z-index="2"><path fill="none" class="highcharts-axis-line" data-z-index="7" d="M 43 124 L 43 344"></path></g><g class="highcharts-axis highcharts-yaxis " data-z-index="2"><path fill="none" class="highcharts-axis-line" data-z-index="7" d="M 475 124 L 475 344"></path></g><g class="highcharts-series-group" data-z-index="3"><g data-z-index="0.1" class="highcharts-series highcharts-series-0 highcharts-line-series " transform="translate(43,124) scale(1 1)" clip-path="url(#highcharts-up68j4a-8)"><path fill="none" d="M 10.8 165 L 118.8 151.35999999999999 L 205.2 123.74999999999999 L 334.8 71.71999999999997 L 378 49.28 L 421.2 28.379999999999995" class="highcharts-graph" data-z-index="1" stroke="#FF8028" stroke-width="2" stroke-linejoin="round" stroke-linecap="round"></path></g><g data-z-index="0.1" class="highcharts-markers highcharts-series-0 highcharts-line-series " transform="translate(43,124) scale(1 1)" clip-path="none"><path fill="#FF8028" d="M 13 165 A 3 3 0 1 1 12.999998500000125 164.9970000005 Z" class="highcharts-point"></path><path fill="#FF8028" d="M 121 151.35999999999999 A 3 3 0 1 1 120.99999850000013 151.3570000005 Z" class="highcharts-point"></path><path fill="#FF8028" d="M 208 123.74999999999999 A 3 3 0 1 1 207.99999850000012 123.74700000049998 Z" class="highcharts-point"></path><path fill="#FF8028" d="M 337 71.71999999999997 A 3 3 0 1 1 336.9999985000001 71.71700000049997 Z" class="highcharts-point"></path><path fill="#FF8028" d="M 381 49.28 A 3 3 0 1 1 380.9999985000001 49.2770000005 Z" class="highcharts-point"></path><path fill="#FF8028" d="M 424 28.379999999999995 A 3 3 0 1 1 423.9999985000001 28.377000000499994 Z" class="highcharts-point"></path></g><g data-z-index="0.1" class="highcharts-series highcharts-series-1 highcharts-line-series " transform="translate(43,124) scale(1 1)" clip-path="url(#highcharts-up68j4a-8)"><path fill="none" d="M 10.8 165 L 118.8 161.15 L 205.2 161.26 L 334.8 174.24 L 378 181.60999999999999 L 421.2 191.29" class="highcharts-graph" data-z-index="1" stroke="#DC440E" stroke-width="2" stroke-linejoin="round" stroke-linecap="round"></path></g><g data-z-index="0.1" class="highcharts-markers highcharts-series-1 highcharts-line-series " transform="translate(43,124) scale(1 1)" clip-path="none"><path fill="#DC440E" d="M 10 162 L 13 165 10 168 7 165 Z" class="highcharts-point"></path><path fill="#DC440E" d="M 118 158.15 L 121 161.15 118 164.15 115 161.15 Z" class="highcharts-point"></path><path fill="#DC440E" d="M 205 158.26 L 208 161.26 205 164.26 202 161.26 Z" class="highcharts-point"></path><path fill="#DC440E" d="M 334 171.24 L 337 174.24 334 177.24 331 174.24 Z" class="highcharts-point"></path><path fill="#DC440E" d="M 378 178.60999999999999 L 381 181.60999999999999 378 184.60999999999999 375 181.60999999999999 Z" class="highcharts-point"></path><path fill="#DC440E" d="M 421 188.29 L 424 191.29 421 194.29 418 191.29 Z" class="highcharts-point"></path></g></g><text x="10" text-anchor="start" class="highcharts-title" data-z-index="4" style="color:#000000;font-size:1.1666em;font-weight:bold;fill:#000000;" y="21"><tspan>Energieeffizienz</tspan></text><text x="10" text-anchor="start" class="highcharts-subtitle" data-z-index="4" style="color:#000000;font-size:1em;fill:#000000;" y="40"><tspan>Indexwert (Basis 1995 = 100), Basel-Stadt</tspan></text><g class="highcharts-axis-labels highcharts-xaxis-labels " data-z-index="7"><text x="75.4" style="color:#000000;cursor:default;font-size:0.91666em;fill:#000000;" text-anchor="middle" transform="translate(0,0)" y="363" opacity="1">1996</text><text x="118.6" style="color:#000000;cursor:default;font-size:0.91666em;fill:#000000;" text-anchor="middle" transform="translate(0,0)" y="363" opacity="1">1998</text><text x="161.8" style="color:#000000;cursor:default;font-size:0.91666em;fill:#000000;" text-anchor="middle" transform="translate(0,0)" y="363" opacity="1">2000</text><text x="205" style="color:#000000;cursor:default;font-size:0.91666em;fill:#000000;" text-anchor="middle" transform="translate(0,0)" y="363" opacity="1">2002</text><text x="248.2" style="color:#000000;cursor:default;font-size:0.91666em;fill:#000000;" text-anchor="middle" transform="translate(0,0)" y="363" opacity="1">2004</text><text x="291.4" style="color:#000000;cursor:default;font-size:0.91666em;fill:#000000;" text-anchor="middle" transform="translate(0,0)" y="363" opacity="1">2006</text><text x="334.6" style="color:#000000;cursor:default;font-size:0.91666em;fill:#000000;" text-anchor="middle" transform="translate(0,0)" y="363" opacity="1">2008</text><text x="377.8" style="color:#000000;cursor:default;font-size:0.91666em;fill:#000000;" text-anchor="middle" transform="translate(0,0)" y="363" opacity="1">2010</text><text x="421" style="color:#000000;cursor:default;font-size:0.91666em;fill:#000000;" text-anchor="middle" transform="translate(0,0)" y="363" opacity="1">2012</text><text x="462.78125" style="color:#000000;cursor:default;font-size:0.91666em;fill:#000000;" text-anchor="middle" transform="translate(0,0)" y="363" opacity="1">2014</text></g><g class="highcharts-axis-labels highcharts-yaxis-labels " data-z-index="7"><text x="28" style="color:#000000;cursor:default;font-size:0.91666em;fill:#000000;" text-anchor="end" transform="translate(0,0)" y="349" opacity="1">50</text><text x="28" style="color:#000000;cursor:default;font-size:0.91666em;fill:#000000;" text-anchor="end" transform="translate(0,0)" y="294" opacity="1">100</text><text x="28" style="color:#000000;cursor:default;font-size:0.91666em;fill:#000000;" text-anchor="end" transform="translate(0,0)" y="239" opacity="1">150</text><text x="28" style="color:#000000;cursor:default;font-size:0.91666em;fill:#000000;" text-anchor="end" transform="translate(0,0)" y="184" opacity="1">200</text><text x="28" style="color:#000000;cursor:default;font-size:0.91666em;fill:#000000;" text-anchor="end" transform="translate(0,0)" y="129" opacity="1">250</text></g><g class="highcharts-axis-labels highcharts-yaxis-labels " data-z-index="7"></g><g class="highcharts-legend" data-z-index="7" transform="translate(31,55)"><rect fill="none" class="highcharts-legend-box" rx="0" ry="0" x="0" y="0" width="289" height="57" visibility="visible"></rect><g data-z-index="1"><g><g class="highcharts-legend-item highcharts-line-series highcharts-color-undefined highcharts-series-0" data-z-index="1" transform="translate(12,7)"><path fill="none" d="M 0 11 L 16 11" class="highcharts-graph" stroke="#FF8028" stroke-width="2"></path><path fill="#FF8028" d="M 11 11 A 3 3 0 1 1 10.999998500000125 10.997000000499998 Z" class="highcharts-point"></path><text x="21" y="15" style="color:#333333;font-size:1em;font-weight:normal;cursor:pointer;fill:#333333;" text-anchor="start" data-z-index="2"><tspan>Energieeffizienz (BIP/Bruttoenergieverbrauch)</tspan></text></g><g class="highcharts-legend-item highcharts-line-series highcharts-color-undefined highcharts-series-1" data-z-index="1" transform="translate(12,26)"><path fill="none" d="M 0 11 L 16 11" class="highcharts-graph" stroke="#DC440E" stroke-width="2"></path><path fill="#DC440E" d="M 8 8 L 11 11 8 14 5 11 Z" class="highcharts-point"></path><text x="21" y="15" style="color:#333333;font-size:1em;font-weight:normal;cursor:pointer;fill:#333333;" text-anchor="start" data-z-index="2"><tspan>Energieverbrauch pro Einwohner</tspan></text></g></g></g></g><text x="10" class="highcharts-credits" text-anchor="start" data-z-index="8" style="cursor:default;color:#000000;font-size:0.8333em;fill:#000000;" y="400"><tspan>Quelle: Statistisches Amt Basel-Stadt, Energiestatistik und Bevölkerungsstatistik; BAK Economics AG;</tspan><tspan x="10" dy="12.999600000000001">Bundesamt für Statistik, Volkswirtschaftliche Gesamtrechnung</tspan></text></svg>