<?xml version="1.0" standalone="no"?><!DOCTYPE svg PUBLIC "-//W3C//DTD SVG 1.1//EN" "http://www.w3.org/Graphics/SVG/1.1/DTD/svg11.dtd"><svg xmlns:xlink="http://www.w3.org/1999/xlink" version="1.1" class="highcharts-root" style="font-family:&quot;Lucida Grande&quot;, &quot;Lucida Sans Unicode&quot;, Arial, Helvetica, sans-serif;font-size:12px;" xmlns="http://www.w3.org/2000/svg" viewBox="0 0 485 415"><desc>Created with Highcharts 8.2.2</desc><defs><clipPath id="highcharts-v5163o9-73-"><rect x="0" y="0" width="429" height="96" fill="none"></rect></clipPath><clipPath id="highcharts-v5163o9-105-"><rect x="0" y="0" width="429" height="96" fill="none"></rect></clipPath><clipPath id="highcharts-v5163o9-137-"><rect x="0" y="0" width="401" height="40" fill="none"></rect></clipPath><clipPath id="highcharts-v5163o9-138-"><rect x="46" y="73" width="429" height="96" fill="none"></rect></clipPath></defs><rect fill="#fbfbfb" class="highcharts-background" x="0" y="0" width="485" height="415" rx="0" ry="0"></rect><rect fill="none" class="highcharts-plot-background" x="46" y="73" width="429" height="96"></rect><g class="highcharts-label" transform="translate(10,449)"><text x="0" data-z-index="1" style="cursor:pointer;" y="0"><tspan>&gt; Indikator-Details</tspan></text></g><g class="highcharts-label" transform="translate(10,449)"><text x="0" data-z-index="1" style="cursor:pointer;" y="0"><tspan>&gt; Indikator-Details</tspan></text></g><g class="highcharts-pane-group" data-z-index="0"></g><g class="highcharts-plot-lines-0" data-z-index="0"><path fill="none" class="highcharts-plot-line "></path><path fill="none" class="highcharts-plot-line "></path><path fill="none" class="highcharts-plot-line "></path><path fill="none" class="highcharts-plot-line "></path><path fill="none" class="highcharts-plot-line "></path><path fill="none" class="highcharts-plot-line "></path><path fill="none" class="highcharts-plot-line "></path><path fill="none" class="highcharts-plot-line "></path><path fill="none" class="highcharts-plot-line "></path><path fill="none" class="highcharts-plot-line "></path><path fill="none" class="highcharts-plot-line "></path></g><g class="highcharts-grid highcharts-xaxis-grid" data-z-index="1"><path fill="none" data-z-index="1" class="highcharts-grid-line" d="M 52.5 73 L 52.5 169" opacity="1"></path><path fill="none" data-z-index="1" class="highcharts-grid-line" d="M 80.5 73 L 80.5 169" opacity="1"></path><path fill="none" data-z-index="1" class="highcharts-grid-line" d="M 107.5 73 L 107.5 169" opacity="1"></path><path fill="none" data-z-index="1" class="highcharts-grid-line" d="M 135.5 73 L 135.5 169" opacity="1"></path><path fill="none" data-z-index="1" class="highcharts-grid-line" d="M 163.5 73 L 163.5 169" opacity="1"></path><path fill="none" data-z-index="1" class="highcharts-grid-line" d="M 190.5 73 L 190.5 169" opacity="1"></path><path fill="none" data-z-index="1" class="highcharts-grid-line" d="M 218.5 73 L 218.5 169" opacity="1"></path><path fill="none" data-z-index="1" class="highcharts-grid-line" d="M 246.5 73 L 246.5 169" opacity="1"></path><path fill="none" data-z-index="1" class="highcharts-grid-line" d="M 273.5 73 L 273.5 169" opacity="1"></path><path fill="none" data-z-index="1" class="highcharts-grid-line" d="M 301.5 73 L 301.5 169" opacity="1"></path><path fill="none" data-z-index="1" class="highcharts-grid-line" d="M 329.5 73 L 329.5 169" opacity="1"></path><path fill="none" data-z-index="1" class="highcharts-grid-line" d="M 356.5 73 L 356.5 169" opacity="1"></path><path fill="none" data-z-index="1" class="highcharts-grid-line" d="M 384.5 73 L 384.5 169" opacity="1"></path><path fill="none" data-z-index="1" class="highcharts-grid-line" d="M 412.5 73 L 412.5 169" opacity="1"></path><path fill="none" data-z-index="1" class="highcharts-grid-line" d="M 439.5 73 L 439.5 169" opacity="1"></path><path fill="none" data-z-index="1" class="highcharts-grid-line" d="M 467.5 73 L 467.5 169" opacity="1"></path></g><g class="highcharts-grid highcharts-xaxis-grid highcharts-navigator-xaxis" data-z-index="1"><path fill="none" data-z-index="1" class="highcharts-grid-line" d="M 65.5 311 L 65.5 351" opacity="1"></path><path fill="none" data-z-index="1" class="highcharts-grid-line" d="M 195.5 311 L 195.5 351" opacity="1"></path><path fill="none" data-z-index="1" class="highcharts-grid-line" d="M 324.5 311 L 324.5 351" opacity="1"></path><path fill="none" data-z-index="1" class="highcharts-grid-line" d="M 454.5 311 L 454.5 351" opacity="1"></path></g><g class="highcharts-grid highcharts-yaxis-grid" data-z-index="1"><path fill="none" stroke="#e6e6e6" stroke-width="1" data-z-index="1" class="highcharts-grid-line" d="M 46 169.5 L 475 169.5" opacity="1"></path><path fill="none" stroke="#e6e6e6" stroke-width="1" data-z-index="1" class="highcharts-grid-line" d="M 46 121.5 L 475 121.5" opacity="1"></path><path fill="none" stroke="#e6e6e6" stroke-width="1" data-z-index="1" class="highcharts-grid-line" d="M 46 72.5 L 475 72.5" opacity="1"></path></g><g class="highcharts-grid highcharts-yaxis-grid" data-z-index="1"></g><g class="highcharts-grid highcharts-yaxis-grid highcharts-navigator-yaxis" data-z-index="1"><path fill="none" data-z-index="1" class="highcharts-grid-line" d="M 60 325.5 L 461 325.5" opacity="1"></path></g><rect fill="none" class="highcharts-plot-border" data-z-index="1" x="46" y="73" width="429" height="96"></rect><g class="highcharts-axis highcharts-xaxis" data-z-index="2"><path fill="none" class="highcharts-axis-line" stroke="#ccd6eb" stroke-width="1" data-z-index="7" d="M 46 169.5 L 475 169.5"></path></g><g class="highcharts-axis highcharts-xaxis highcharts-navigator-xaxis" data-z-index="2"><path fill="none" class="highcharts-axis-line" data-z-index="7" d="M 60 351 L 461 351"></path></g><g class="highcharts-axis highcharts-yaxis" data-z-index="2"><path fill="none" class="highcharts-axis-line" data-z-index="7" d="M 46 73 L 46 169"></path></g><g class="highcharts-axis highcharts-yaxis" data-z-index="2"><path fill="none" class="highcharts-axis-line" data-z-index="7" d="M 475 73 L 475 169"></path></g><g class="highcharts-axis highcharts-yaxis highcharts-navigator-yaxis" data-z-index="2"><path fill="none" class="highcharts-axis-line" data-z-index="7" d="M 46 311 L 46 351"></path></g><g class="highcharts-scrollbar" data-z-index="3" transform="translate(46,352)"><rect fill="#f2f2f2" class="highcharts-scrollbar-track" x="0" rx="0" ry="0" height="14" width="429" stroke="#f2f2f2" stroke-width="1" y="-0.5"></rect><g transform="translate(14,-0.5)"><rect fill="#cccccc" class="highcharts-scrollbar-thumb" height="14" width="401" rx="0" ry="0" stroke="#cccccc" stroke-width="1"></rect><path fill="none" d="M -3 3.5 L -3 9.333333333333334 M 0 3.5 L 0 9.333333333333334 M 3 3.5 L 3 9.333333333333334" class="highcharts-scrollbar-rifles" stroke="#333333" stroke-width="1" transform="translate(200,0)"></path></g><g><rect fill="#e6e6e6" class="highcharts-scrollbar-button" stroke="#cccccc" stroke-width="1" x="-0.5" y="-0.5" width="14" height="14" rx="0" ry="0"></rect><path fill="#333333" d="M 8 4 L 8 10 L 5 7" class="highcharts-scrollbar-arrow"></path></g><g transform="translate(415,0)"><rect fill="#e6e6e6" class="highcharts-scrollbar-button" stroke="#cccccc" stroke-width="1" x="-0.5" y="-0.5" width="14" height="14" rx="0" ry="0"></rect><path fill="#333333" d="M 6 4 L 6 10 L 9 7" class="highcharts-scrollbar-arrow"></path></g></g><g class="highcharts-series-group" data-z-index="3"><g class="highcharts-series highcharts-series-0 highcharts-column-series" data-z-index="0.1" opacity="1" transform="translate(46,73) scale(1 1)" clip-path="url(#highcharts-v5163o9-105-)"><rect x="4" y="41" width="7" height="56" fill="#FF8028" opacity="1" class="highcharts-point"></rect><rect x="17" y="47" width="7" height="50" fill="#FF8028" opacity="1" class="highcharts-point"></rect><rect x="31" y="42" width="7" height="55" fill="#FF8028" opacity="1" class="highcharts-point"></rect><rect x="45" y="45" width="7" height="52" fill="#FF8028" opacity="1" class="highcharts-point"></rect><rect x="59" y="51" width="7" height="46" fill="#FF8028" opacity="1" class="highcharts-point"></rect><rect x="73" y="42" width="7" height="55" fill="#FF8028" opacity="1" class="highcharts-point"></rect><rect x="87" y="65" width="7" height="32" fill="#FF8028" opacity="1" class="highcharts-point"></rect><rect x="100" y="36" width="7" height="61" fill="#FF8028" opacity="1" class="highcharts-point"></rect><rect x="114" y="34" width="7" height="63" fill="#FF8028" opacity="1" class="highcharts-point"></rect><rect x="128" y="36" width="7" height="61" fill="#FF8028" opacity="1" class="highcharts-point"></rect><rect x="142" y="40" width="7" height="57" fill="#FF8028" opacity="1" class="highcharts-point"></rect><rect x="156" y="54" width="7" height="43" fill="#FF8028" opacity="1" class="highcharts-point"></rect><rect x="170" y="47" width="7" height="50" fill="#FF8028" opacity="1" class="highcharts-point"></rect><rect x="184" y="55" width="7" height="42" fill="#FF8028" opacity="1" class="highcharts-point"></rect><rect x="197" y="59" width="7" height="38" fill="#FF8028" opacity="1" class="highcharts-point"></rect><rect x="211" y="59" width="7" height="38" fill="#FF8028" opacity="1" class="highcharts-point"></rect><rect x="225" y="57" width="7" height="40" fill="#FF8028" opacity="1" class="highcharts-point"></rect><rect x="239" y="65" width="7" height="32" fill="#FF8028" opacity="1" class="highcharts-point"></rect><rect x="253" y="57" width="7" height="40" fill="#FF8028" opacity="1" class="highcharts-point"></rect><rect x="267" y="65" width="7" height="32" fill="#FF8028" opacity="1" class="highcharts-point"></rect><rect x="280" y="57" width="7" height="40" fill="#FF8028" opacity="1" class="highcharts-point"></rect><rect x="294" y="66" width="7" height="31" fill="#FF8028" opacity="1" class="highcharts-point"></rect><rect x="308" y="69" width="7" height="28" fill="#FF8028" opacity="1" class="highcharts-point"></rect><rect x="322" y="62" width="7" height="35" fill="#FF8028" opacity="1" class="highcharts-point"></rect><rect x="336" y="79" width="7" height="18" fill="#FF8028" opacity="1" class="highcharts-point"></rect><rect x="350" y="75" width="7" height="22" fill="#FF8028" opacity="1" class="highcharts-point"></rect><rect x="363" y="80" width="7" height="17" fill="#FF8028" opacity="1" class="highcharts-point"></rect><rect x="377" y="77" width="7" height="20" fill="#FF8028" opacity="1" class="highcharts-point"></rect><rect x="391" y="73" width="7" height="24" fill="#FF8028" opacity="1" class="highcharts-point"></rect><rect x="405" y="77" width="7" height="20" fill="#FF8028" opacity="1" class="highcharts-point"></rect><rect x="419" y="76" width="7" height="21" fill="#FF8028" opacity="1" class="highcharts-point"></rect></g><g class="highcharts-markers highcharts-series-0 highcharts-column-series" data-z-index="0.1" opacity="1" transform="translate(46,73) scale(1 1)" clip-path="none"></g><g class="highcharts-series highcharts-series-1 highcharts-column-series highcharts-navigator-series" data-z-index="0.1" opacity="1" transform="translate(60,311) scale(1 1)" clip-path="url(#highcharts-v5163o9-137-)"><rect x="3" y="10" width="7" height="31" fill="#FF8028" opacity="1" class="highcharts-point"></rect><rect x="16" y="13" width="7" height="28" fill="#FF8028" opacity="1" class="highcharts-point"></rect><rect x="29" y="10" width="7" height="31" fill="#FF8028" opacity="1" class="highcharts-point"></rect><rect x="42" y="12" width="7" height="29" fill="#FF8028" opacity="1" class="highcharts-point"></rect><rect x="55" y="17" width="7" height="24" fill="#FF8028" opacity="1" class="highcharts-point"></rect><rect x="68" y="10" width="7" height="31" fill="#FF8028" opacity="1" class="highcharts-point"></rect><rect x="81" y="27" width="7" height="14" fill="#FF8028" opacity="1" class="highcharts-point"></rect><rect x="94" y="5" width="7" height="36" fill="#FF8028" opacity="1" class="highcharts-point"></rect><rect x="107" y="4" width="7" height="37" fill="#FF8028" opacity="1" class="highcharts-point"></rect><rect x="120" y="5" width="7" height="36" fill="#FF8028" opacity="1" class="highcharts-point"></rect><rect x="133" y="9" width="7" height="32" fill="#FF8028" opacity="1" class="highcharts-point"></rect><rect x="146" y="19" width="7" height="22" fill="#FF8028" opacity="1" class="highcharts-point"></rect><rect x="159" y="14" width="7" height="27" fill="#FF8028" opacity="1" class="highcharts-point"></rect><rect x="172" y="20" width="7" height="21" fill="#FF8028" opacity="1" class="highcharts-point"></rect><rect x="184" y="22" width="7" height="19" fill="#FF8028" opacity="1" class="highcharts-point"></rect><rect x="197" y="23" width="7" height="18" fill="#FF8028" opacity="1" class="highcharts-point"></rect><rect x="210" y="21" width="7" height="20" fill="#FF8028" opacity="1" class="highcharts-point"></rect><rect x="223" y="27" width="7" height="14" fill="#FF8028" opacity="1" class="highcharts-point"></rect><rect x="236" y="21" width="7" height="20" fill="#FF8028" opacity="1" class="highcharts-point"></rect><rect x="249" y="27" width="7" height="14" fill="#FF8028" opacity="1" class="highcharts-point"></rect><rect x="262" y="21" width="7" height="20" fill="#FF8028" opacity="1" class="highcharts-point"></rect><rect x="275" y="28" width="7" height="13" fill="#FF8028" opacity="1" class="highcharts-point"></rect><rect x="288" y="30" width="7" height="11" fill="#FF8028" opacity="1" class="highcharts-point"></rect><rect x="301" y="25" width="7" height="16" fill="#FF8028" opacity="1" class="highcharts-point"></rect><rect x="314" y="37" width="7" height="4" fill="#FF8028" opacity="1" class="highcharts-point"></rect><rect x="327" y="34" width="7" height="7" fill="#FF8028" opacity="1" class="highcharts-point"></rect><rect x="340" y="38" width="7" height="3" fill="#FF8028" opacity="1" class="highcharts-point"></rect><rect x="353" y="36" width="7" height="5" fill="#FF8028" opacity="1" class="highcharts-point"></rect><rect x="366" y="33" width="7" height="8" fill="#FF8028" opacity="1" class="highcharts-point"></rect><rect x="378" y="36" width="7" height="5" fill="#FF8028" opacity="1" class="highcharts-point"></rect><rect x="391" y="35" width="7" height="6" fill="#FF8028" opacity="1" class="highcharts-point"></rect></g><g class="highcharts-markers highcharts-series-1 highcharts-column-series highcharts-navigator-series" data-z-index="0.1" opacity="1" transform="translate(60,311) scale(1 1)" clip-path="none"></g></g><text x="10" text-anchor="start" class="highcharts-title" data-z-index="4" style="color:#000000;font-size:1.1666em;font-weight:bold;fill:#000000;" y="21"><tspan>Nitrat im Grundwasser</tspan></text><text x="10" text-anchor="start" class="highcharts-subtitle" data-z-index="4" style="color:#000000;font-size:1em;fill:#000000;" y="41"><tspan>Prozent (Anteil der Messstellen mit Grenzwertüberschreitung), Basel-</tspan><tspan dy="15" x="0">Stadt</tspan></text><text x="10" text-anchor="start" class="highcharts-caption" data-z-index="4" style="color:#666666;fill:#666666;" y="377"></text><g class="highcharts-axis-labels highcharts-xaxis-labels" data-z-index="7"><text x="55.51207970306067" style="color:#000000;cursor:default;font-size:0.91666em;fill:#000000;" text-anchor="end" transform="translate(0,0) rotate(-45 55.51207970306067 185)" y="185" opacity="1">1993</text><text x="83.18949905789867" style="color:#000000;cursor:default;font-size:0.91666em;fill:#000000;" text-anchor="end" transform="translate(0,0) rotate(-45 83.18949905789867 185)" y="185" opacity="1">1995</text><text x="110.86691841274067" style="color:#000000;cursor:default;font-size:0.91666em;fill:#000000;" text-anchor="end" transform="translate(0,0) rotate(-45 110.86691841274067 185)" y="185" opacity="1">1997</text><text x="138.54433776758069" style="color:#000000;cursor:default;font-size:0.91666em;fill:#000000;" text-anchor="end" transform="translate(0,0) rotate(-45 138.54433776758069 185)" y="185" opacity="1">1999</text><text x="166.22175712241068" style="color:#000000;cursor:default;font-size:0.91666em;fill:#000000;" text-anchor="end" transform="translate(0,0) rotate(-45 166.22175712241068 185)" y="185" opacity="1">2001</text><text x="193.89917647725068" style="color:#000000;cursor:default;font-size:0.91666em;fill:#000000;" text-anchor="end" transform="translate(0,0) rotate(-45 193.89917647725068 185)" y="185" opacity="1">2003</text><text x="221.57659583209067" style="color:#000000;cursor:default;font-size:0.91666em;fill:#000000;" text-anchor="end" transform="translate(0,0) rotate(-45 221.57659583209067 185)" y="185" opacity="1">2005</text><text x="249.25401518693067" style="color:#000000;cursor:default;font-size:0.91666em;fill:#000000;" text-anchor="end" transform="translate(0,0) rotate(-45 249.25401518693067 185)" y="185" opacity="1">2007</text><text x="276.93143454177067" style="color:#000000;cursor:default;font-size:0.91666em;fill:#000000;" text-anchor="end" transform="translate(0,0) rotate(-45 276.93143454177067 185)" y="185" opacity="1">2009</text><text x="304.60885389661064" style="color:#000000;cursor:default;font-size:0.91666em;fill:#000000;" text-anchor="end" transform="translate(0,0) rotate(-45 304.60885389661064 185)" y="185" opacity="1">2011</text><text x="332.28627325145067" style="color:#000000;cursor:default;font-size:0.91666em;fill:#000000;" text-anchor="end" transform="translate(0,0) rotate(-45 332.28627325145067 185)" y="185" opacity="1">2013</text><text x="359.96369260629064" style="color:#000000;cursor:default;font-size:0.91666em;fill:#000000;" text-anchor="end" transform="translate(0,0) rotate(-45 359.96369260629064 185)" y="185" opacity="1">2015</text><text x="387.64111196112066" style="color:#000000;cursor:default;font-size:0.91666em;fill:#000000;" text-anchor="end" transform="translate(0,0) rotate(-45 387.64111196112066 185)" y="185" opacity="1">2017</text><text x="415.3185313159607" style="color:#000000;cursor:default;font-size:0.91666em;fill:#000000;" text-anchor="end" transform="translate(0,0) rotate(-45 415.3185313159607 185)" y="185" opacity="1">2019</text><text x="442.99595067080065" style="color:#000000;cursor:default;font-size:0.91666em;fill:#000000;" text-anchor="end" transform="translate(0,0) rotate(-45 442.99595067080065 185)" y="185" opacity="1">2021</text><text x="470.6733700256407" style="color:#000000;cursor:default;font-size:0.91666em;fill:#000000;" text-anchor="end" transform="translate(0,0) rotate(-45 470.6733700256407 185)" y="185" opacity="1">2023</text></g><g class="highcharts-axis-labels highcharts-xaxis-labels highcharts-navigator-xaxis" data-z-index="7"></g><g class="highcharts-axis-labels highcharts-yaxis-labels" data-z-index="7"><text x="31" style="color:#000000;cursor:default;font-size:0.91666em;fill:#000000;" text-anchor="end" transform="translate(0,0)" y="173" opacity="1">0</text><text x="31" style="color:#000000;cursor:default;font-size:0.91666em;fill:#000000;" text-anchor="end" transform="translate(0,0)" y="125" opacity="1">50</text><text x="31" style="color:#000000;cursor:default;font-size:0.91666em;fill:#000000;" text-anchor="end" transform="translate(0,0)" y="77" opacity="1">100</text></g><g class="highcharts-axis-labels highcharts-yaxis-labels" data-z-index="7"></g><g class="highcharts-axis-labels highcharts-yaxis-labels highcharts-navigator-yaxis" data-z-index="7"></g><g class="highcharts-legend" data-z-index="7"><rect fill="none" class="highcharts-legend-box" rx="0" ry="0" x="0" y="0" width="12" height="12" visibility="hidden"></rect><g data-z-index="1"><g></g></g></g><g class="highcharts-navigator" data-z-index="8" visibility="visible"><rect fill="rgb(0,0,0)" fill-opacity="0" class="highcharts-navigator-mask-outside" x="60" y="311" width="0" height="40"></rect><rect fill="rgb(102,133,194)" fill-opacity="0.3" class="highcharts-navigator-mask-inside" style="cursor:ew-resize;" x="60" y="311" width="401" height="40"></rect><rect fill="rgb(0,0,0)" fill-opacity="0" class="highcharts-navigator-mask-outside" x="461" y="311" width="0" height="40"></rect><path fill="none" class="highcharts-navigator-outline" stroke="#cccccc" stroke-width="1" d="M 46 311.5 L 59.5 311.5 L 59.5 365.5 L 460.5 365.5 L 460.5 311.5 L 475 311.5 M 59 311.5 L 461 311.5"></path><path fill="#f2f2f2" d="M -4.5 0.5 L 3.5 0.5 L 3.5 15.5 L -4.5 15.5 L -4.5 0.5 M -1.5 4 L -1.5 12 M 0.5 4 L 0.5 12" data-z-index="6" class="highcharts-navigator-handle highcharts-navigator-handle-right" stroke="#999999" stroke-width="1" style="cursor:ew-resize;" transform="translate(461,323)"></path><path fill="#f2f2f2" d="M -4.5 0.5 L 3.5 0.5 L 3.5 15.5 L -4.5 15.5 L -4.5 0.5 M -1.5 4 L -1.5 12 M 0.5 4 L 0.5 12" data-z-index="7" class="highcharts-navigator-handle highcharts-navigator-handle-left" stroke="#999999" stroke-width="1" style="cursor:ew-resize;" transform="translate(60,323)"></path></g><text x="10" class="highcharts-credits" text-anchor="start" data-z-index="8" style="cursor:default;color:#000000;font-size:0.8333em;fill:#000000;" y="400"><tspan>Quelle: Amt für Umwelt und Energie Basel-Stadt</tspan></text><g class="highcharts-control-points" data-z-index="99" clip-path="url(#highcharts-v5163o9-138-)"></g></svg>