<?xml version="1.0" standalone="no"?><!DOCTYPE svg PUBLIC "-//W3C//DTD SVG 1.1//EN" "http://www.w3.org/Graphics/SVG/1.1/DTD/svg11.dtd"><svg xmlns:xlink="http://www.w3.org/1999/xlink" version="1.1" class="highcharts-root" style="font-family:Arial;font-size:9pt;" xmlns="http://www.w3.org/2000/svg" viewBox="0 0 600 400"><desc>Created with Highstock 5.0.7</desc><defs><clipPath id="highcharts-4xc9m21-1"><rect x="0" y="0" width="543" height="239" fill="none"></rect></clipPath><clipPath id="highcharts-4xc9m21-2"><rect x="0" y="0" width="543" height="239" fill="none"></rect></clipPath></defs><rect fill="#fbfbfb" class="highcharts-background" x="0" y="0" width="600" height="400" rx="0" ry="0"></rect><rect fill="none" class="highcharts-plot-background" x="47" y="90" width="543" height="239"></rect><g class="highcharts-label" style="cursor:pointer;" transform="translate(10,436)"><text x="0" y="0"><tspan>&gt; Indikator-Details</tspan></text></g><g class="highcharts-grid highcharts-xaxis-grid "><path fill="none" class="highcharts-grid-line" d="M 57.5 90 L 57.5 329 M 57.5 90 L 57.5 329" opacity="1"></path><path fill="none" class="highcharts-grid-line" d="M 103.5 90 L 103.5 329 M 103.5 90 L 103.5 329" opacity="1"></path><path fill="none" class="highcharts-grid-line" d="M 148.5 90 L 148.5 329 M 148.5 90 L 148.5 329" opacity="1"></path><path fill="none" class="highcharts-grid-line" d="M 193.5 90 L 193.5 329 M 193.5 90 L 193.5 329" opacity="1"></path><path fill="none" class="highcharts-grid-line" d="M 238.5 90 L 238.5 329 M 238.5 90 L 238.5 329" opacity="1"></path><path fill="none" class="highcharts-grid-line" d="M 284.5 90 L 284.5 329 M 284.5 90 L 284.5 329" opacity="1"></path><path fill="none" class="highcharts-grid-line" d="M 329.5 90 L 329.5 329 M 329.5 90 L 329.5 329" opacity="1"></path><path fill="none" class="highcharts-grid-line" d="M 374.5 90 L 374.5 329 M 374.5 90 L 374.5 329" opacity="1"></path><path fill="none" class="highcharts-grid-line" d="M 419.5 90 L 419.5 329 M 419.5 90 L 419.5 329" opacity="1"></path><path fill="none" class="highcharts-grid-line" d="M 465.5 90 L 465.5 329 M 465.5 90 L 465.5 329" opacity="1"></path><path fill="none" class="highcharts-grid-line" d="M 510.5 90 L 510.5 329 M 510.5 90 L 510.5 329" opacity="1"></path><path fill="none" class="highcharts-grid-line" d="M 555.5 90 L 555.5 329 M 555.5 90 L 555.5 329" opacity="1"></path></g><g class="highcharts-grid highcharts-yaxis-grid "><path fill="none" stroke="#e6e6e6" stroke-width="1" class="highcharts-grid-line" d="M 47 329.5 L 590 329.5" opacity="1"></path><path fill="none" stroke="#e6e6e6" stroke-width="1" class="highcharts-grid-line" d="M 47 269.5 L 590 269.5" opacity="1"></path><path fill="none" stroke="#e6e6e6" stroke-width="1" class="highcharts-grid-line" d="M 47 210.5 L 590 210.5" opacity="1"></path><path fill="none" stroke="#e6e6e6" stroke-width="1" class="highcharts-grid-line" d="M 47 150.5 L 590 150.5" opacity="1"></path><path fill="none" stroke="#e6e6e6" stroke-width="1" class="highcharts-grid-line" d="M 47 89.5 L 590 89.5" opacity="1"></path></g><g class="highcharts-grid highcharts-yaxis-grid "></g><rect fill="none" class="highcharts-plot-border" x="47" y="90" width="543" height="239"></rect><g class="highcharts-axis highcharts-xaxis "><path fill="none" class="highcharts-axis-line" stroke="#ccd6eb" stroke-width="1" d="M 47 329.5 L 590 329.5"></path></g><g class="highcharts-axis highcharts-yaxis "><path fill="none" class="highcharts-axis-line" d="M 47 90 L 47 329"></path></g><g class="highcharts-axis highcharts-yaxis "><path fill="none" class="highcharts-axis-line" d="M 590 90 L 590 329"></path></g><g class="highcharts-series-group"><g class="highcharts-series highcharts-series-0 highcharts-line-series highcharts-color-undefined " transform="translate(47,90) scale(1 1)" clip-path="url(#highcharts-4xc9m21-2)"><path fill="none" d="M 11.3125 66.02375 L 33.9375 82.45500000000001 L 56.5625 68.41375 L 79.1875 76.18125 L 101.8125 96.79500000000002 L 124.4375 68.41375 L 147.0625 139.51625 L 169.6875 48.995000000000005 L 192.3125 44.215 L 214.9375 48.995000000000005 L 237.5625 62.43875 L 260.1875 104.5625 L 282.8125 83.05250000000001 L 305.4375 109.04375000000002 L 328.0625 119.5 L 350.6875 122.18875 L 373.3125 114.42125 L 395.9375 139.51625 L 418.5625 114.42125 L 441.1875 139.51625 L 463.8125 114.42125 L 486.4375 143.4 L 509.0625 151.765 L 531.6875 130.255" class="highcharts-graph" stroke="#FF8028" stroke-width="2" stroke-linejoin="round" stroke-linecap="round"></path><path fill="none" d="M 1.3125 66.02375 L 11.3125 66.02375 L 33.9375 82.45500000000001 L 56.5625 68.41375 L 79.1875 76.18125 L 101.8125 96.79500000000002 L 124.4375 68.41375 L 147.0625 139.51625 L 169.6875 48.995000000000005 L 192.3125 44.215 L 214.9375 48.995000000000005 L 237.5625 62.43875 L 260.1875 104.5625 L 282.8125 83.05250000000001 L 305.4375 109.04375000000002 L 328.0625 119.5 L 350.6875 122.18875 L 373.3125 114.42125 L 395.9375 139.51625 L 418.5625 114.42125 L 441.1875 139.51625 L 463.8125 114.42125 L 486.4375 143.4 L 509.0625 151.765 L 531.6875 130.255 L 541.6875 130.255" stroke-linejoin="round" visibility="visible" stroke="rgba(192,192,192,0.0001)" stroke-width="22" class="highcharts-tracker"></path></g><g class="highcharts-markers highcharts-series-0 highcharts-line-series highcharts-color-undefined highcharts-tracker" transform="translate(47,90) scale(1 1)" clip-path="none"></g><g class="highcharts-series highcharts-series-1 highcharts-line-series highcharts-color-undefined " transform="translate(47,90) scale(1 1)" clip-path="url(#highcharts-4xc9m21-2)"><path fill="none" d="M 11.3125 193.88875000000002 L 33.9375 191.49875 L 56.5625 187.91375 L 79.1875 190.60250000000002 L 101.8125 190.30375 L 124.4375 192.69375 L 147.0625 193.59 L 169.6875 196.27875 L 192.3125 187.31625 L 214.9375 200.1625 L 237.5625 198.66875 L 260.1875 189.4075 L 282.8125 194.1875 L 305.4375 183.4325 L 328.0625 186.71875 L 350.6875 185.225 L 373.3125 190.005 L 395.9375 185.8225 L 418.5625 189.10875000000001 L 441.1875 201.05875 L 463.8125 202.85125 L 486.4375 207.03375 L 509.0625 204.9425 L 531.6875 211.51500000000001" class="highcharts-graph" stroke="#B375AB" stroke-width="2" stroke-linejoin="round" stroke-linecap="round"></path><path fill="none" d="M 1.3125 193.88875000000002 L 11.3125 193.88875000000002 L 33.9375 191.49875 L 56.5625 187.91375 L 79.1875 190.60250000000002 L 101.8125 190.30375 L 124.4375 192.69375 L 147.0625 193.59 L 169.6875 196.27875 L 192.3125 187.31625 L 214.9375 200.1625 L 237.5625 198.66875 L 260.1875 189.4075 L 282.8125 194.1875 L 305.4375 183.4325 L 328.0625 186.71875 L 350.6875 185.225 L 373.3125 190.005 L 395.9375 185.8225 L 418.5625 189.10875000000001 L 441.1875 201.05875 L 463.8125 202.85125 L 486.4375 207.03375 L 509.0625 204.9425 L 531.6875 211.51500000000001 L 541.6875 211.51500000000001" stroke-linejoin="round" visibility="visible" stroke="rgba(192,192,192,0.0001)" stroke-width="22" class="highcharts-tracker"></path></g><g class="highcharts-markers highcharts-series-1 highcharts-line-series highcharts-color-undefined highcharts-tracker" transform="translate(47,90) scale(1 1)" clip-path="none"></g></g><text x="10" text-anchor="start" class="highcharts-title" style="color:#000000;font-size:1.1em;font-weight:bold;fill:#000000;" y="20"><tspan>Nitrat im Grundwasser</tspan></text><text x="10" text-anchor="start" class="highcharts-subtitle" style="color:#000000;font-size:0.9em;fill:#000000;" y="38"><tspan>Prozent (Anteil der Messstellen mit Grenzwertüberschreitung)</tspan></text><g class="highcharts-legend" transform="translate(10,40)"><rect fill="none" class="highcharts-legend-box" rx="0" ry="0" x="0" y="0" width="323" height="38" visibility="visible"></rect><g><g><g class="highcharts-legend-item highcharts-line-series highcharts-color-undefined highcharts-series-0" transform="translate(12,7)"><path fill="none" d="M 0 11 L 16 11" class="highcharts-graph" stroke="#FF8028" stroke-width="2"></path><text x="21" style="color:#333333;font-size:1em;font-weight:normal;cursor:pointer;fill:#333333;" text-anchor="start" y="15"><tspan>Kanton Basel-Stadt</tspan></text></g><g class="highcharts-legend-item highcharts-line-series highcharts-color-undefined highcharts-series-1" transform="translate(156.328125,7)"><path fill="none" d="M 0 11 L 16 11" class="highcharts-graph" stroke="#B375AB" stroke-width="2"></path><text x="21" y="15" style="color:#333333;font-size:1em;font-weight:normal;cursor:pointer;fill:#333333;" text-anchor="start"><tspan>Kanton Basel-Landschaft</tspan></text></g></g></g></g><g class="highcharts-axis-labels highcharts-xaxis-labels "><text x="58.3125" style="color:#000000;cursor:default;font-size:0.9em;fill:#000000;" text-anchor="middle" transform="translate(0,0)" y="348" opacity="1">1993</text><text x="103.5625" style="color:#000000;cursor:default;font-size:0.9em;fill:#000000;" text-anchor="middle" transform="translate(0,0)" y="348" opacity="1">1995</text><text x="148.8125" style="color:#000000;cursor:default;font-size:0.9em;fill:#000000;" text-anchor="middle" transform="translate(0,0)" y="348" opacity="1">1997</text><text x="194.0625" style="color:#000000;cursor:default;font-size:0.9em;fill:#000000;" text-anchor="middle" transform="translate(0,0)" y="348" opacity="1">1999</text><text x="239.3125" style="color:#000000;cursor:default;font-size:0.9em;fill:#000000;" text-anchor="middle" transform="translate(0,0)" y="348" opacity="1">2001</text><text x="284.5625" style="color:#000000;cursor:default;font-size:0.9em;fill:#000000;" text-anchor="middle" transform="translate(0,0)" y="348" opacity="1">2003</text><text x="329.8125" style="color:#000000;cursor:default;font-size:0.9em;fill:#000000;" text-anchor="middle" transform="translate(0,0)" y="348" opacity="1">2005</text><text x="375.0625" style="color:#000000;cursor:default;font-size:0.9em;fill:#000000;" text-anchor="middle" transform="translate(0,0)" y="348" opacity="1">2007</text><text x="420.3125" style="color:#000000;cursor:default;font-size:0.9em;fill:#000000;" text-anchor="middle" transform="translate(0,0)" y="348" opacity="1">2009</text><text x="465.5625" style="color:#000000;cursor:default;font-size:0.9em;fill:#000000;" text-anchor="middle" transform="translate(0,0)" y="348" opacity="1">2011</text><text x="510.8125" style="color:#000000;cursor:default;font-size:0.9em;fill:#000000;" text-anchor="middle" transform="translate(0,0)" y="348" opacity="1">2013</text><text x="556.0625" style="color:#000000;cursor:default;font-size:0.9em;fill:#000000;" text-anchor="middle" transform="translate(0,0)" y="348" opacity="1">2015</text></g><g class="highcharts-axis-labels highcharts-yaxis-labels "><text x="32" style="color:#000000;cursor:default;font-size:0.9em;fill:#000000;" text-anchor="end" transform="translate(0,0)" y="334" opacity="1"><tspan>0%</tspan></text><text x="32" style="color:#000000;cursor:default;font-size:0.9em;fill:#000000;" text-anchor="end" transform="translate(0,0)" y="274" opacity="1"><tspan>20%</tspan></text><text x="32" style="color:#000000;cursor:default;font-size:0.9em;fill:#000000;" text-anchor="end" transform="translate(0,0)" y="214" opacity="1"><tspan>40%</tspan></text><text x="32" style="color:#000000;cursor:default;font-size:0.9em;fill:#000000;" text-anchor="end" transform="translate(0,0)" y="154" opacity="1"><tspan>60%</tspan></text><text x="32" style="color:#000000;cursor:default;font-size:0.9em;fill:#000000;" text-anchor="end" transform="translate(0,0)" y="95" opacity="1"><tspan>80%</tspan></text></g><g class="highcharts-axis-labels highcharts-yaxis-labels "></g><text x="10" class="highcharts-credits" text-anchor="start" style="cursor:default;color:#000000;font-size:0.8em;fill:#000000;" y="373"><tspan>Quelle: Amt für</tspan><tspan dy="12.600000000000001" x="10">Umwelt und</tspan><tspan dy="12.600000000000001" x="10">Energie Basel-</tspan><tspan dy="12.600000000000001" x="10">Stadt; Amt für</tspan><tspan dy="12.600000000000001" x="10">Umweltschutz</tspan><tspan dy="12.600000000000001" x="10">und Energie</tspan><tspan dy="12.600000000000001" x="10">Basel-Landschaft</tspan><title>Quelle: Amt für Umwelt und Energie Basel-Stadt; Amt für Umweltschutz und Energie Basel-Landschaft</title></text></svg>