<?xml version="1.0" standalone="no"?><!DOCTYPE svg PUBLIC "-//W3C//DTD SVG 1.1//EN" "http://www.w3.org/Graphics/SVG/1.1/DTD/svg11.dtd"><svg xmlns:xlink="http://www.w3.org/1999/xlink" version="1.1" class="highcharts-root" style="font-family:&quot;Lucida Grande&quot;, &quot;Lucida Sans Unicode&quot;, Arial, Helvetica, sans-serif;font-size:12px;" xmlns="http://www.w3.org/2000/svg" viewBox="0 0 485 415"><desc>Created with Highcharts 8.2.0</desc><defs><clipPath id="highcharts-zzfz7pu-77-"><rect x="0" y="0" width="436" height="111" fill="none"></rect></clipPath><clipPath id="highcharts-zzfz7pu-111-"><rect x="0" y="0" width="436" height="111" fill="none"></rect></clipPath><clipPath id="highcharts-zzfz7pu-145-"><rect x="0" y="0" width="408" height="40" fill="none"></rect></clipPath><clipPath id="highcharts-zzfz7pu-146-"><rect x="39" y="58" width="436" height="111" fill="none"></rect></clipPath></defs><rect fill="#fbfbfb" class="highcharts-background" x="0" y="0" width="485" height="415" rx="0" ry="0"></rect><rect fill="none" class="highcharts-plot-background" x="39" y="58" width="436" height="111"></rect><g class="highcharts-label" transform="translate(10,449)"><text x="0" data-z-index="1" style="cursor:pointer;" y="0"><tspan>&gt; Indikator-Details</tspan></text></g><g class="highcharts-label" transform="translate(10,449)"><text x="0" data-z-index="1" style="cursor:pointer;" y="0"><tspan>&gt; Indikator-Details</tspan></text></g><g class="highcharts-pane-group" data-z-index="0"></g><g class="highcharts-grid highcharts-xaxis-grid" data-z-index="1"><path fill="none" data-z-index="1" class="highcharts-grid-line" d="M 45.5 58 L 45.5 169" opacity="1"></path><path fill="none" data-z-index="1" class="highcharts-grid-line" d="M 71.5 58 L 71.5 169" opacity="1"></path><path fill="none" data-z-index="1" class="highcharts-grid-line" d="M 97.5 58 L 97.5 169" opacity="1"></path><path fill="none" data-z-index="1" class="highcharts-grid-line" d="M 124.5 58 L 124.5 169" opacity="1"></path><path fill="none" data-z-index="1" class="highcharts-grid-line" d="M 150.5 58 L 150.5 169" opacity="1"></path><path fill="none" data-z-index="1" class="highcharts-grid-line" d="M 177.5 58 L 177.5 169" opacity="1"></path><path fill="none" data-z-index="1" class="highcharts-grid-line" d="M 203.5 58 L 203.5 169" opacity="1"></path><path fill="none" data-z-index="1" class="highcharts-grid-line" d="M 230.5 58 L 230.5 169" opacity="1"></path><path fill="none" data-z-index="1" class="highcharts-grid-line" d="M 256.5 58 L 256.5 169" opacity="1"></path><path fill="none" data-z-index="1" class="highcharts-grid-line" d="M 282.5 58 L 282.5 169" opacity="1"></path><path fill="none" data-z-index="1" class="highcharts-grid-line" d="M 309.5 58 L 309.5 169" opacity="1"></path><path fill="none" data-z-index="1" class="highcharts-grid-line" d="M 335.5 58 L 335.5 169" opacity="1"></path><path fill="none" data-z-index="1" class="highcharts-grid-line" d="M 362.5 58 L 362.5 169" opacity="1"></path><path fill="none" data-z-index="1" class="highcharts-grid-line" d="M 388.5 58 L 388.5 169" opacity="1"></path><path fill="none" data-z-index="1" class="highcharts-grid-line" d="M 415.5 58 L 415.5 169" opacity="1"></path><path fill="none" data-z-index="1" class="highcharts-grid-line" d="M 441.5 58 L 441.5 169" opacity="1"></path><path fill="none" data-z-index="1" class="highcharts-grid-line" d="M 467.5 58 L 467.5 169" opacity="1"></path></g><g class="highcharts-grid highcharts-xaxis-grid highcharts-navigator-xaxis" data-z-index="1"><path fill="none" data-z-index="1" class="highcharts-grid-line" d="M 52.5 311 L 52.5 351" opacity="1"></path><path fill="none" data-z-index="1" class="highcharts-grid-line" d="M 180.5 311 L 180.5 351" opacity="1"></path><path fill="none" data-z-index="1" class="highcharts-grid-line" d="M 307.5 311 L 307.5 351" opacity="1"></path><path fill="none" data-z-index="1" class="highcharts-grid-line" d="M 435.5 311 L 435.5 351" opacity="1"></path></g><g class="highcharts-grid highcharts-yaxis-grid" data-z-index="1"><path fill="none" stroke="#e6e6e6" stroke-width="1" data-z-index="1" class="highcharts-grid-line" d="M 39 169.5 L 475 169.5" opacity="1"></path><path fill="none" stroke="#e6e6e6" stroke-width="1" data-z-index="1" class="highcharts-grid-line" d="M 39 132.5 L 475 132.5" opacity="1"></path><path fill="none" stroke="#e6e6e6" stroke-width="1" data-z-index="1" class="highcharts-grid-line" d="M 39 95.5 L 475 95.5" opacity="1"></path><path fill="none" stroke="#e6e6e6" stroke-width="1" data-z-index="1" class="highcharts-grid-line" d="M 39 57.5 L 475 57.5" opacity="1"></path></g><g class="highcharts-grid highcharts-yaxis-grid" data-z-index="1"></g><g class="highcharts-grid highcharts-yaxis-grid highcharts-navigator-yaxis" data-z-index="1"><path fill="none" data-z-index="1" class="highcharts-grid-line" d="M 53 316.5 L 461 316.5" opacity="1"></path></g><rect fill="none" class="highcharts-plot-border" data-z-index="1" x="39" y="58" width="436" height="111"></rect><g class="highcharts-axis highcharts-xaxis" data-z-index="2"><path fill="none" class="highcharts-axis-line" stroke="#ccd6eb" stroke-width="1" data-z-index="7" d="M 39 169.5 L 475 169.5"></path></g><g class="highcharts-axis highcharts-xaxis highcharts-navigator-xaxis" data-z-index="2"><path fill="none" class="highcharts-axis-line" data-z-index="7" d="M 53 351 L 461 351"></path></g><g class="highcharts-axis highcharts-yaxis" data-z-index="2"><path fill="none" class="highcharts-axis-line" data-z-index="7" d="M 39 58 L 39 169"></path></g><g class="highcharts-axis highcharts-yaxis" data-z-index="2"><path fill="none" class="highcharts-axis-line" data-z-index="7" d="M 475 58 L 475 169"></path></g><g class="highcharts-axis highcharts-yaxis highcharts-navigator-yaxis" data-z-index="2"><path fill="none" class="highcharts-axis-line" data-z-index="7" d="M 39 311 L 39 351"></path></g><g class="highcharts-scrollbar" data-z-index="3" transform="translate(39,352)"><rect fill="#f2f2f2" class="highcharts-scrollbar-track" x="0" rx="0" ry="0" height="14" width="436" stroke="#f2f2f2" stroke-width="1" y="-0.5"></rect><g transform="translate(14,-0.5)"><rect fill="#cccccc" class="highcharts-scrollbar-thumb" height="14" width="408" rx="0" ry="0" stroke="#cccccc" stroke-width="1"></rect><path fill="none" d="M -3 3.5 L -3 9.333333333333334 M 0 3.5 L 0 9.333333333333334 M 3 3.5 L 3 9.333333333333334" class="highcharts-scrollbar-rifles" stroke="#333333" stroke-width="1" transform="translate(203.5,0)"></path></g><g><rect fill="#e6e6e6" class="highcharts-scrollbar-button" stroke="#cccccc" stroke-width="1" x="-0.5" y="-0.5" width="14" height="14" rx="0" ry="0"></rect><path fill="#333333" d="M 8 4 L 8 10 L 5 7" class="highcharts-scrollbar-arrow"></path></g><g transform="translate(422,0)"><rect fill="#e6e6e6" class="highcharts-scrollbar-button" stroke="#cccccc" stroke-width="1" x="-0.5" y="-0.5" width="14" height="14" rx="0" ry="0"></rect><path fill="#333333" d="M 6 4 L 6 10 L 9 7" class="highcharts-scrollbar-arrow"></path></g></g><g class="highcharts-series-group" data-z-index="3"><g class="highcharts-series highcharts-series-0 highcharts-line-series" data-z-index="0.1" opacity="1" transform="translate(39,58) scale(1 1)" clip-path="url(#highcharts-zzfz7pu-111-)"><path fill="none" d="M 6.6060606060606 38.849999999999994 L 19.818181818182 35.519999999999996 L 33.030303030303 41.07000000000001 L 46.242424242424 38.11 L 59.454545454545 42.17999999999999 L 72.666666666667 46.25 L 85.878787878788 45.510000000000005 L 99.090909090909 47.36 L 112.30303030303 51.06 L 125.51515151515 49.57999999999999 L 138.72727272727 52.169999999999995 L 151.93939393939 52.91 L 165.15151515152 55.129999999999995 L 178.36363636364 58.089999999999996 L 191.57575757576 49.949999999999996 L 204.78787878788 52.169999999999995 L 218 48.839999999999996 L 231.21212121212 53.65 L 244.42424242424 54.38999999999999 L 257.63636363636 53.65 L 270.84848484848 54.76 L 284.06060606061 55.129999999999995 L 297.27272727273 52.53999999999999 L 310.48484848485 51.8 L 323.69696969697 54.76 L 336.90909090909 54.38999999999999 L 350.12121212121 63.269999999999996 L 363.33333333333 63.63999999999999 L 376.54545454545 63.63999999999999 L 389.75757575758 63.63999999999999 L 402.9696969697 64.00999999999999 L 416.18181818182 63.269999999999996 L 429.39393939394 66.97" class="highcharts-graph" data-z-index="1" stroke="#FF8028" stroke-width="2" stroke-linejoin="round" stroke-linecap="round"></path></g><g class="highcharts-markers highcharts-series-0 highcharts-line-series" data-z-index="0.1" opacity="1" transform="translate(39,58) scale(1 1)" clip-path="none"></g><g class="highcharts-series highcharts-series-1 highcharts-line-series highcharts-navigator-series" data-z-index="0.1" opacity="1" transform="translate(53,311) scale(1 1)" clip-path="url(#highcharts-zzfz7pu-145-)"><path fill="none" d="M 0 6.862745098039213 L 12.75 3.3333333333333357 L 25.5 9.21568627450981 L 38.25 6.078431372549019 L 51 10.392156862745093 L 63.75 14.705882352941178 L 76.5 13.921568627450984 L 89.25 15.882352941176475 L 102 19.803921568627455 L 114.75 18.235294117647054 L 127.5 20.980392156862745 L 140.25 21.764705882352946 L 153 24.117647058823533 L 165.75 27.254901960784313 L 178.5 18.627450980392158 L 191.25 20.980392156862745 L 204 17.45098039215686 L 216.75 22.54901960784314 L 229.5 23.333333333333332 L 242.25 22.54901960784314 L 255 23.725490196078436 L 267.75 24.117647058823533 L 280.5 21.372549019607842 L 293.25 20.58823529411765 L 306 23.725490196078436 L 318.75 23.333333333333332 L 331.5 32.74509803921569 L 344.25 33.13725490196079 L 357 33.13725490196079 L 369.75 33.13725490196079 L 382.5 33.529411764705884 L 395.25 32.74509803921569 L 408 36.66666666666667" class="highcharts-graph" data-z-index="1" stroke="#FF8028" stroke-width="1" stroke-linejoin="round" stroke-linecap="round"></path></g><g class="highcharts-markers highcharts-series-1 highcharts-line-series highcharts-navigator-series" data-z-index="0.1" opacity="1" transform="translate(53,311) scale(1 1)" clip-path="none"></g></g><text x="10" text-anchor="start" class="highcharts-title" data-z-index="4" style="color:#000000;font-size:1.1666em;font-weight:bold;fill:#000000;" y="21"><tspan>Wasserverbrauch Haushalte und Kleingewerbe</tspan></text><text x="10" text-anchor="start" class="highcharts-subtitle" data-z-index="4" style="color:#000000;font-size:1em;fill:#000000;" y="41"><tspan>Millionen Kubikmeter, Basel-Stadt</tspan></text><text x="10" text-anchor="start" class="highcharts-caption" data-z-index="4" style="color:#666666;fill:#666666;" y="377"></text><g class="highcharts-axis-labels highcharts-xaxis-labels" data-z-index="7"><text x="48.19878547041167" style="color:#000000;cursor:default;font-size:0.91666em;fill:#000000;" text-anchor="end" transform="translate(0,0) rotate(-45 48.19878547041167 185)" y="185" opacity="1">1989</text><text x="74.62302789465367" style="color:#000000;cursor:default;font-size:0.91666em;fill:#000000;" text-anchor="end" transform="translate(0,0) rotate(-45 74.62302789465367 185)" y="185" opacity="1">1991</text><text x="101.04727031889567" style="color:#000000;cursor:default;font-size:0.91666em;fill:#000000;" text-anchor="end" transform="translate(0,0) rotate(-45 101.04727031889567 185)" y="185" opacity="1">1993</text><text x="127.47151274314068" style="color:#000000;cursor:default;font-size:0.91666em;fill:#000000;" text-anchor="end" transform="translate(0,0) rotate(-45 127.47151274314068 185)" y="185" opacity="1">1995</text><text x="153.89575516738068" style="color:#000000;cursor:default;font-size:0.91666em;fill:#000000;" text-anchor="end" transform="translate(0,0) rotate(-45 153.89575516738068 185)" y="185" opacity="1">1997</text><text x="180.31999759162068" style="color:#000000;cursor:default;font-size:0.91666em;fill:#000000;" text-anchor="end" transform="translate(0,0) rotate(-45 180.31999759162068 185)" y="185" opacity="1">1999</text><text x="206.74424001587067" style="color:#000000;cursor:default;font-size:0.91666em;fill:#000000;" text-anchor="end" transform="translate(0,0) rotate(-45 206.74424001587067 185)" y="185" opacity="1">2001</text><text x="233.1684824401107" style="color:#000000;cursor:default;font-size:0.91666em;fill:#000000;" text-anchor="end" transform="translate(0,0) rotate(-45 233.1684824401107 185)" y="185" opacity="1">2003</text><text x="259.59272486435066" style="color:#000000;cursor:default;font-size:0.91666em;fill:#000000;" text-anchor="end" transform="translate(0,0) rotate(-45 259.59272486435066 185)" y="185" opacity="1">2005</text><text x="286.01696728859065" style="color:#000000;cursor:default;font-size:0.91666em;fill:#000000;" text-anchor="end" transform="translate(0,0) rotate(-45 286.01696728859065 185)" y="185" opacity="1">2007</text><text x="312.44120971283064" style="color:#000000;cursor:default;font-size:0.91666em;fill:#000000;" text-anchor="end" transform="translate(0,0) rotate(-45 312.44120971283064 185)" y="185" opacity="1">2009</text><text x="338.86545213708064" style="color:#000000;cursor:default;font-size:0.91666em;fill:#000000;" text-anchor="end" transform="translate(0,0) rotate(-45 338.86545213708064 185)" y="185" opacity="1">2011</text><text x="365.28969456132063" style="color:#000000;cursor:default;font-size:0.91666em;fill:#000000;" text-anchor="end" transform="translate(0,0) rotate(-45 365.28969456132063 185)" y="185" opacity="1">2013</text><text x="391.7139369855607" style="color:#000000;cursor:default;font-size:0.91666em;fill:#000000;" text-anchor="end" transform="translate(0,0) rotate(-45 391.7139369855607 185)" y="185" opacity="1">2015</text><text x="418.13817940980067" style="color:#000000;cursor:default;font-size:0.91666em;fill:#000000;" text-anchor="end" transform="translate(0,0) rotate(-45 418.13817940980067 185)" y="185" opacity="1">2017</text><text x="444.56242183405067" style="color:#000000;cursor:default;font-size:0.91666em;fill:#000000;" text-anchor="end" transform="translate(0,0) rotate(-45 444.56242183405067 185)" y="185" opacity="1">2019</text><text x="470.98666425829066" style="color:#000000;cursor:default;font-size:0.91666em;fill:#000000;" text-anchor="end" transform="translate(0,0) rotate(-45 470.98666425829066 185)" y="185" opacity="1">2021</text></g><g class="highcharts-axis-labels highcharts-xaxis-labels highcharts-navigator-xaxis" data-z-index="7"></g><g class="highcharts-axis-labels highcharts-yaxis-labels" data-z-index="7"><text x="24" style="color:#000000;cursor:default;font-size:0.91666em;fill:#000000;" text-anchor="end" transform="translate(0,0)" y="173" opacity="1">0</text><text x="24" style="color:#000000;cursor:default;font-size:0.91666em;fill:#000000;" text-anchor="end" transform="translate(0,0)" y="136" opacity="1">10</text><text x="24" style="color:#000000;cursor:default;font-size:0.91666em;fill:#000000;" text-anchor="end" transform="translate(0,0)" y="99" opacity="1">20</text><text x="24" style="color:#000000;cursor:default;font-size:0.91666em;fill:#000000;" text-anchor="end" transform="translate(0,0)" y="62" opacity="1">30</text></g><g class="highcharts-axis-labels highcharts-yaxis-labels" data-z-index="7"></g><g class="highcharts-axis-labels highcharts-yaxis-labels highcharts-navigator-yaxis" data-z-index="7"></g><g class="highcharts-legend" data-z-index="7"><rect fill="none" class="highcharts-legend-box" rx="0" ry="0" x="0" y="0" width="12" height="12" visibility="hidden"></rect><g data-z-index="1"><g></g></g></g><g class="highcharts-navigator" data-z-index="8" visibility="visible"><rect fill="rgb(0,0,0)" fill-opacity="0" class="highcharts-navigator-mask-outside" x="53" y="311" width="0" height="40"></rect><rect fill="rgb(102,133,194)" fill-opacity="0.3" class="highcharts-navigator-mask-inside" style="cursor:ew-resize;" x="53" y="311" width="408" height="40"></rect><rect fill="rgb(0,0,0)" fill-opacity="0" class="highcharts-navigator-mask-outside" x="461" y="311" width="0" height="40"></rect><path fill="none" class="highcharts-navigator-outline" stroke="#cccccc" stroke-width="1" d="M 39 311.5 L 52.5 311.5 L 52.5 365.5 L 460.5 365.5 L 460.5 311.5 L 475 311.5 M 52 311.5 L 461 311.5"></path><path fill="#f2f2f2" d="M -4.5 0.5 L 3.5 0.5 L 3.5 15.5 L -4.5 15.5 L -4.5 0.5 M -1.5 4 L -1.5 12 M 0.5 4 L 0.5 12" data-z-index="6" class="highcharts-navigator-handle highcharts-navigator-handle-right" stroke="#999999" stroke-width="1" style="cursor:ew-resize;" transform="translate(461,323)"></path><path fill="#f2f2f2" d="M -4.5 0.5 L 3.5 0.5 L 3.5 15.5 L -4.5 15.5 L -4.5 0.5 M -1.5 4 L -1.5 12 M 0.5 4 L 0.5 12" data-z-index="7" class="highcharts-navigator-handle highcharts-navigator-handle-left" stroke="#999999" stroke-width="1" style="cursor:ew-resize;" transform="translate(53,323)"></path></g><text x="10" class="highcharts-credits" text-anchor="start" data-z-index="8" style="cursor:default;color:#000000;font-size:0.8333em;fill:#000000;" y="400"><tspan>Quelle: Industrielle Werke Basel (IWB)</tspan></text><g class="highcharts-control-points" data-z-index="99" clip-path="url(#highcharts-zzfz7pu-146-)"></g></svg>