<?xml version="1.0" standalone="no"?><!DOCTYPE svg PUBLIC "-//W3C//DTD SVG 1.1//EN" "http://www.w3.org/Graphics/SVG/1.1/DTD/svg11.dtd"><svg xmlns:xlink="http://www.w3.org/1999/xlink" version="1.1" class="highcharts-root" style="font-family:&quot;Lucida Grande&quot;, &quot;Lucida Sans Unicode&quot;, Arial, Helvetica, sans-serif;font-size:12px;" xmlns="http://www.w3.org/2000/svg" viewBox="0 0 485 415"><desc>Created with Highcharts 8.2.0</desc><defs><clipPath id="highcharts-5a7022n-38-"><rect x="0" y="0" width="436" height="217" fill="none"></rect></clipPath><clipPath id="highcharts-5a7022n-54-"><rect x="0" y="0" width="436" height="217" fill="none"></rect></clipPath><clipPath id="highcharts-5a7022n-70-"><rect x="39" y="110" width="436" height="217" fill="none"></rect></clipPath></defs><rect fill="#fbfbfb" class="highcharts-background" x="0" y="0" width="485" height="415" rx="0" ry="0"></rect><rect fill="none" class="highcharts-plot-background" x="39" y="110" width="436" height="217"></rect><g class="highcharts-label" transform="translate(10,449)"><text x="0" data-z-index="1" style="cursor:pointer;" y="0"><tspan>&gt; Indikator-Details</tspan></text></g><g class="highcharts-label" transform="translate(10,449)"><text x="0" data-z-index="1" style="cursor:pointer;" y="0"><tspan>&gt; Indikator-Details</tspan></text></g><g class="highcharts-pane-group" data-z-index="0"></g><g class="highcharts-grid highcharts-xaxis-grid" data-z-index="1"><path fill="none" data-z-index="1" class="highcharts-grid-line" d="M 67.5 110 L 67.5 327" opacity="1"></path><path fill="none" data-z-index="1" class="highcharts-grid-line" d="M 96.5 110 L 96.5 327" opacity="1"></path><path fill="none" data-z-index="1" class="highcharts-grid-line" d="M 125.5 110 L 125.5 327" opacity="1"></path><path fill="none" data-z-index="1" class="highcharts-grid-line" d="M 154.5 110 L 154.5 327" opacity="1"></path><path fill="none" data-z-index="1" class="highcharts-grid-line" d="M 183.5 110 L 183.5 327" opacity="1"></path><path fill="none" data-z-index="1" class="highcharts-grid-line" d="M 212.5 110 L 212.5 327" opacity="1"></path><path fill="none" data-z-index="1" class="highcharts-grid-line" d="M 241.5 110 L 241.5 327" opacity="1"></path><path fill="none" data-z-index="1" class="highcharts-grid-line" d="M 271.5 110 L 271.5 327" opacity="1"></path><path fill="none" data-z-index="1" class="highcharts-grid-line" d="M 300.5 110 L 300.5 327" opacity="1"></path><path fill="none" data-z-index="1" class="highcharts-grid-line" d="M 329.5 110 L 329.5 327" opacity="1"></path><path fill="none" data-z-index="1" class="highcharts-grid-line" d="M 358.5 110 L 358.5 327" opacity="1"></path><path fill="none" data-z-index="1" class="highcharts-grid-line" d="M 387.5 110 L 387.5 327" opacity="1"></path><path fill="none" data-z-index="1" class="highcharts-grid-line" d="M 416.5 110 L 416.5 327" opacity="1"></path><path fill="none" data-z-index="1" class="highcharts-grid-line" d="M 445.5 110 L 445.5 327" opacity="1"></path><path fill="none" data-z-index="1" class="highcharts-grid-line" d="M 474.5 110 L 474.5 327" opacity="1"></path><path fill="none" data-z-index="1" class="highcharts-grid-line" d="M 38.5 110 L 38.5 327" opacity="1"></path></g><g class="highcharts-grid highcharts-yaxis-grid" data-z-index="1"><path fill="none" stroke="#e6e6e6" stroke-width="1" data-z-index="1" class="highcharts-grid-line" d="M 39 327.5 L 475 327.5" opacity="1"></path><path fill="none" stroke="#e6e6e6" stroke-width="1" data-z-index="1" class="highcharts-grid-line" d="M 39 255.5 L 475 255.5" opacity="1"></path><path fill="none" stroke="#e6e6e6" stroke-width="1" data-z-index="1" class="highcharts-grid-line" d="M 39 182.5 L 475 182.5" opacity="1"></path><path fill="none" stroke="#e6e6e6" stroke-width="1" data-z-index="1" class="highcharts-grid-line" d="M 39 109.5 L 475 109.5" opacity="1"></path></g><g class="highcharts-grid highcharts-yaxis-grid" data-z-index="1"></g><rect fill="none" class="highcharts-plot-border" data-z-index="1" x="39" y="110" width="436" height="217"></rect><g class="highcharts-axis highcharts-xaxis" data-z-index="2"><path fill="none" class="highcharts-axis-line" stroke="#ccd6eb" stroke-width="1" data-z-index="7" d="M 39 327.5 L 475 327.5"></path></g><g class="highcharts-axis highcharts-yaxis" data-z-index="2"><path fill="none" class="highcharts-axis-line" data-z-index="7" d="M 39 110 L 39 327"></path></g><g class="highcharts-axis highcharts-yaxis" data-z-index="2"><path fill="none" class="highcharts-axis-line" data-z-index="7" d="M 475 110 L 475 327"></path></g><g class="highcharts-series-group" data-z-index="3"><g class="highcharts-series highcharts-series-0 highcharts-column-series" data-z-index="0.1" opacity="1" transform="translate(39,110) scale(1 1)" clip-path="url(#highcharts-5a7022n-54-)"><rect x="8" y="88" width="14" height="130" fill="#FF8028" opacity="1" class="highcharts-point"></rect><rect x="37" y="88" width="14" height="130" fill="#FF8028" opacity="1" class="highcharts-point"></rect><rect x="66" y="73" width="14" height="145" fill="#FF8028" opacity="1" class="highcharts-point"></rect><rect x="95" y="73" width="14" height="145" fill="#FF8028" opacity="1" class="highcharts-point"></rect><rect x="124" y="73" width="14" height="145" fill="#FF8028" opacity="1" class="highcharts-point"></rect><rect x="153" y="73" width="14" height="145" fill="#FF8028" opacity="1" class="highcharts-point"></rect><rect x="182" y="88" width="14" height="130" fill="#FF8028" opacity="1" class="highcharts-point"></rect><rect x="211" y="88" width="14" height="130" fill="#FF8028" opacity="1" class="highcharts-point"></rect><rect x="240" y="102" width="14" height="116" fill="#FF8028" opacity="1" class="highcharts-point"></rect><rect x="269" y="88" width="14" height="130" fill="#FF8028" opacity="1" class="highcharts-point"></rect><rect x="298" y="73" width="14" height="145" fill="#FF8028" opacity="1" class="highcharts-point"></rect><rect x="327" y="73" width="14" height="145" fill="#FF8028" opacity="1" class="highcharts-point"></rect><rect x="356" y="30" width="14" height="188" fill="#FF8028" opacity="1" class="highcharts-point"></rect><rect x="385" y="88" width="14" height="130" fill="#FF8028" opacity="1" class="highcharts-point"></rect><rect x="414" y="73" width="14" height="145" fill="#FF8028" opacity="1" class="highcharts-point"></rect></g><g class="highcharts-markers highcharts-series-0 highcharts-column-series" data-z-index="0.1" opacity="1" transform="translate(39,110) scale(1 1)" clip-path="none"></g><g class="highcharts-series highcharts-series-1 highcharts-line-series" data-z-index="0.1" opacity="1" transform="translate(39,110) scale(1 1)" clip-path="url(#highcharts-5a7022n-54-)"><path fill="none" d="M 14.533333333333 72.33333333333334 L 43.6 72.33333333333334 L 72.666666666667 72.33333333333334 L 101.73333333333 72.33333333333334 L 130.8 72.33333333333334 L 159.86666666667 72.33333333333334 L 188.93333333333 72.33333333333334 L 218 72.33333333333334 L 247.06666666667 72.33333333333334 L 276.13333333333 72.33333333333334 L 305.2 72.33333333333334 L 334.26666666667 72.33333333333334 L 363.33333333333 72.33333333333334 L 392.4 72.33333333333334 L 421.46666666667 72.33333333333334" class="highcharts-graph" data-z-index="1" stroke="#444444" stroke-width="2" stroke-dasharray="6,2"></path></g><g class="highcharts-markers highcharts-series-1 highcharts-line-series" data-z-index="0.1" opacity="1" transform="translate(39,110) scale(1 1)" clip-path="none"></g></g><text x="10" text-anchor="start" class="highcharts-title" data-z-index="4" style="color:#000000;font-size:1.1666em;font-weight:bold;fill:#000000;" y="21"><tspan>Gelöster Organischer Kohlenstoff (DOC)</tspan></text><text x="10" text-anchor="start" class="highcharts-subtitle" data-z-index="4" style="color:#000000;font-size:1em;fill:#000000;" y="41"><tspan>Milligramm pro Liter, Basel-Stadt und Basel-Stadt und Basel-Landschaft</tspan></text><text x="10" text-anchor="start" class="highcharts-caption" data-z-index="4" style="color:#666666;fill:#666666;" y="377"></text><g class="highcharts-axis-labels highcharts-xaxis-labels" data-z-index="7"><text x="56.36176045807986" style="color:#000000;cursor:default;font-size:0.91666em;fill:#000000;" text-anchor="end" transform="translate(0,0) rotate(-45 56.36176045807986 343)" y="343" opacity="1">2007</text><text x="85.42842712474585" style="color:#000000;cursor:default;font-size:0.91666em;fill:#000000;" text-anchor="end" transform="translate(0,0) rotate(-45 85.42842712474585 343)" y="343" opacity="1">2008</text><text x="114.49509379141287" style="color:#000000;cursor:default;font-size:0.91666em;fill:#000000;" text-anchor="end" transform="translate(0,0) rotate(-45 114.49509379141287 343)" y="343" opacity="1">2009</text><text x="143.56176045808286" style="color:#000000;cursor:default;font-size:0.91666em;fill:#000000;" text-anchor="end" transform="translate(0,0) rotate(-45 143.56176045808286 343)" y="343" opacity="1">2010</text><text x="172.62842712474284" style="color:#000000;cursor:default;font-size:0.91666em;fill:#000000;" text-anchor="end" transform="translate(0,0) rotate(-45 172.62842712474284 343)" y="343" opacity="1">2011</text><text x="201.69509379141286" style="color:#000000;cursor:default;font-size:0.91666em;fill:#000000;" text-anchor="end" transform="translate(0,0) rotate(-45 201.69509379141286 343)" y="343" opacity="1">2012</text><text x="230.76176045808285" style="color:#000000;cursor:default;font-size:0.91666em;fill:#000000;" text-anchor="end" transform="translate(0,0) rotate(-45 230.76176045808285 343)" y="343" opacity="1">2013</text><text x="259.82842712474286" style="color:#000000;cursor:default;font-size:0.91666em;fill:#000000;" text-anchor="end" transform="translate(0,0) rotate(-45 259.82842712474286 343)" y="343" opacity="1">2014</text><text x="288.8950937914129" style="color:#000000;cursor:default;font-size:0.91666em;fill:#000000;" text-anchor="end" transform="translate(0,0) rotate(-45 288.8950937914129 343)" y="343" opacity="1">2015</text><text x="317.96176045808284" style="color:#000000;cursor:default;font-size:0.91666em;fill:#000000;" text-anchor="end" transform="translate(0,0) rotate(-45 317.96176045808284 343)" y="343" opacity="1">2016</text><text x="347.02842712474285" style="color:#000000;cursor:default;font-size:0.91666em;fill:#000000;" text-anchor="end" transform="translate(0,0) rotate(-45 347.02842712474285 343)" y="343" opacity="1">2017</text><text x="376.09509379141286" style="color:#000000;cursor:default;font-size:0.91666em;fill:#000000;" text-anchor="end" transform="translate(0,0) rotate(-45 376.09509379141286 343)" y="343" opacity="1">2018</text><text x="405.1617604580829" style="color:#000000;cursor:default;font-size:0.91666em;fill:#000000;" text-anchor="end" transform="translate(0,0) rotate(-45 405.1617604580829 343)" y="343" opacity="1">2019</text><text x="434.22842712474284" style="color:#000000;cursor:default;font-size:0.91666em;fill:#000000;" text-anchor="end" transform="translate(0,0) rotate(-45 434.22842712474284 343)" y="343" opacity="1">2020</text><text x="463.29509379141285" style="color:#000000;cursor:default;font-size:0.91666em;fill:#000000;" text-anchor="end" transform="translate(0,0) rotate(-45 463.29509379141285 343)" y="343" opacity="1">2021</text></g><g class="highcharts-axis-labels highcharts-yaxis-labels" data-z-index="7"><text x="24" style="color:#000000;cursor:default;font-size:0.91666em;fill:#000000;" text-anchor="end" transform="translate(0,0)" y="331" opacity="1">0</text><text x="24" style="color:#000000;cursor:default;font-size:0.91666em;fill:#000000;" text-anchor="end" transform="translate(0,0)" y="258" opacity="1">5</text><text x="24" style="color:#000000;cursor:default;font-size:0.91666em;fill:#000000;" text-anchor="end" transform="translate(0,0)" y="186" opacity="1">10</text><text x="24" style="color:#000000;cursor:default;font-size:0.91666em;fill:#000000;" text-anchor="end" transform="translate(0,0)" y="114" opacity="1">15</text></g><g class="highcharts-axis-labels highcharts-yaxis-labels" data-z-index="7"></g><g class="highcharts-legend" data-z-index="7" transform="translate(27,58)"><rect fill="none" class="highcharts-legend-box" rx="0" ry="0" x="0" y="0" width="105" height="40" visibility="visible"></rect><g data-z-index="1"><g><g class="highcharts-legend-item highcharts-line-series highcharts-color-undefined highcharts-series-1" data-z-index="1" transform="translate(12,7)"><path fill="none" d="M 0 11 L 16 11" class="highcharts-graph" stroke-dasharray="6,2" stroke="#444444" stroke-width="2"></path><text x="21" style="color:#333333;cursor:pointer;font-size:1em;font-weight:normal;fill:#333333;" text-anchor="start" data-z-index="2" y="15"><tspan>Grenzwert</tspan></text></g></g></g></g><text x="10" class="highcharts-credits" text-anchor="start" data-z-index="8" style="cursor:default;color:#000000;font-size:0.8333em;fill:#000000;" y="400"><tspan>Quelle: ProRheno AG</tspan></text><g class="highcharts-control-points" data-z-index="99" clip-path="url(#highcharts-5a7022n-70-)"></g></svg>