<?xml version="1.0" standalone="no"?><!DOCTYPE svg PUBLIC "-//W3C//DTD SVG 1.1//EN" "http://www.w3.org/Graphics/SVG/1.1/DTD/svg11.dtd"><svg xmlns:xlink="http://www.w3.org/1999/xlink" version="1.1" class="highcharts-root" style="font-family:&quot;Lucida Grande&quot;, &quot;Lucida Sans Unicode&quot;, Arial, Helvetica, sans-serif;font-size:12px;" xmlns="http://www.w3.org/2000/svg" viewBox="0 0 485 415"><desc>Created with Highcharts 8.2.0</desc><defs><clipPath id="highcharts-osfh136-112-"><rect x="0" y="0" width="429" height="196" fill="none"></rect></clipPath><clipPath id="highcharts-osfh136-139-"><rect x="0" y="0" width="429" height="196" fill="none"></rect></clipPath><clipPath id="highcharts-osfh136-218-"><rect x="46" y="131" width="429" height="196" fill="none"></rect></clipPath></defs><rect fill="#fbfbfb" class="highcharts-background" x="0" y="0" width="485" height="415" rx="0" ry="0"></rect><rect fill="none" class="highcharts-plot-background" x="46" y="131" width="429" height="196"></rect><g class="highcharts-label" transform="translate(10,449)"><text x="0" data-z-index="1" style="cursor:pointer;" y="0"><tspan>&gt; Indikator-Details</tspan></text></g><g class="highcharts-label" transform="translate(10,449)"><text x="0" data-z-index="1" style="cursor:pointer;" y="0"><tspan>&gt; Indikator-Details</tspan></text></g><g class="highcharts-pane-group" data-z-index="0"></g><g class="highcharts-plot-lines-0" data-z-index="0"><path fill="none" class="highcharts-plot-line "></path><path fill="none" class="highcharts-plot-line "></path><path fill="none" class="highcharts-plot-line "></path><path fill="none" class="highcharts-plot-line "></path><path fill="none" class="highcharts-plot-line "></path><path fill="none" class="highcharts-plot-line "></path><path fill="none" class="highcharts-plot-line "></path><path fill="none" class="highcharts-plot-line "></path><path fill="none" class="highcharts-plot-line "></path><path fill="none" class="highcharts-plot-line "></path><path fill="none" class="highcharts-plot-line "></path></g><g class="highcharts-plot-lines-0" data-z-index="0"><path fill="none" class="highcharts-plot-line "></path><path fill="none" class="highcharts-plot-line "></path><path fill="none" class="highcharts-plot-line "></path><path fill="none" class="highcharts-plot-line "></path><path fill="none" class="highcharts-plot-line "></path><path fill="none" class="highcharts-plot-line "></path><path fill="none" class="highcharts-plot-line "></path><path fill="none" class="highcharts-plot-line "></path><path fill="none" class="highcharts-plot-line "></path><path fill="none" class="highcharts-plot-line "></path><path fill="none" class="highcharts-plot-line "></path></g><g class="highcharts-grid highcharts-xaxis-grid" data-z-index="1"><path fill="none" data-z-index="1" class="highcharts-grid-line" d="M 53.5 131 L 53.5 327" opacity="1"></path><path fill="none" data-z-index="1" class="highcharts-grid-line" d="M 86.5 131 L 86.5 327" opacity="1"></path><path fill="none" data-z-index="1" class="highcharts-grid-line" d="M 119.5 131 L 119.5 327" opacity="1"></path><path fill="none" data-z-index="1" class="highcharts-grid-line" d="M 152.5 131 L 152.5 327" opacity="1"></path><path fill="none" data-z-index="1" class="highcharts-grid-line" d="M 185.5 131 L 185.5 327" opacity="1"></path><path fill="none" data-z-index="1" class="highcharts-grid-line" d="M 218.5 131 L 218.5 327" opacity="1"></path><path fill="none" data-z-index="1" class="highcharts-grid-line" d="M 251.5 131 L 251.5 327" opacity="1"></path><path fill="none" data-z-index="1" class="highcharts-grid-line" d="M 284.5 131 L 284.5 327" opacity="1"></path><path fill="none" data-z-index="1" class="highcharts-grid-line" d="M 317.5 131 L 317.5 327" opacity="1"></path><path fill="none" data-z-index="1" class="highcharts-grid-line" d="M 350.5 131 L 350.5 327" opacity="1"></path><path fill="none" data-z-index="1" class="highcharts-grid-line" d="M 383.5 131 L 383.5 327" opacity="1"></path><path fill="none" data-z-index="1" class="highcharts-grid-line" d="M 416.5 131 L 416.5 327" opacity="1"></path><path fill="none" data-z-index="1" class="highcharts-grid-line" d="M 449.5 131 L 449.5 327" opacity="1"></path></g><g class="highcharts-grid highcharts-yaxis-grid" data-z-index="1"><path fill="none" stroke="#e6e6e6" stroke-width="1" data-z-index="1" class="highcharts-grid-line" d="M 46 327.5 L 475 327.5" opacity="1"></path><path fill="none" stroke="#e6e6e6" stroke-width="1" data-z-index="1" class="highcharts-grid-line" d="M 46 262.5 L 475 262.5" opacity="1"></path><path fill="none" stroke="#e6e6e6" stroke-width="1" data-z-index="1" class="highcharts-grid-line" d="M 46 196.5 L 475 196.5" opacity="1"></path><path fill="none" stroke="#e6e6e6" stroke-width="1" data-z-index="1" class="highcharts-grid-line" d="M 46 130.5 L 475 130.5" opacity="1"></path></g><g class="highcharts-grid highcharts-yaxis-grid" data-z-index="1"></g><rect fill="none" class="highcharts-plot-border" data-z-index="1" x="46" y="131" width="429" height="196"></rect><g class="highcharts-axis highcharts-xaxis" data-z-index="2"><path fill="none" class="highcharts-axis-line" stroke="#ccd6eb" stroke-width="1" data-z-index="7" d="M 46 327.5 L 475 327.5"></path></g><g class="highcharts-axis highcharts-yaxis" data-z-index="2"><path fill="none" class="highcharts-axis-line" data-z-index="7" d="M 46 131 L 46 327"></path></g><g class="highcharts-axis highcharts-yaxis" data-z-index="2"><path fill="none" class="highcharts-axis-line" data-z-index="7" d="M 475 131 L 475 327"></path></g><g class="highcharts-series-group" data-z-index="3"><g class="highcharts-series highcharts-series-0 highcharts-column-series" data-z-index="0.1" opacity="1" transform="translate(46,131) scale(1 1)" clip-path="url(#highcharts-osfh136-139-)"><rect x="4" y="41" width="8" height="72" fill="#FF8028" opacity="1" class="highcharts-point"></rect><rect x="21" y="43" width="8" height="64" fill="#FF8028" opacity="1" class="highcharts-point"></rect><rect x="37" y="40" width="8" height="62" fill="#FF8028" opacity="1" class="highcharts-point"></rect><rect x="54" y="14" width="8" height="82" fill="#FF8028" opacity="1" class="highcharts-point"></rect><rect x="70" y="13" width="8" height="81" fill="#FF8028" opacity="1" class="highcharts-point"></rect><rect x="87" y="42" width="8" height="57" fill="#FF8028" opacity="1" class="highcharts-point"></rect><rect x="103" y="32" width="8" height="56" fill="#FF8028" opacity="1" class="highcharts-point"></rect><rect x="120" y="43" width="8" height="51" fill="#FF8028" opacity="1" class="highcharts-point"></rect><rect x="136" y="45" width="8" height="51" fill="#FF8028" opacity="1" class="highcharts-point"></rect><rect x="153" y="46" width="8" height="53" fill="#FF8028" opacity="1" class="highcharts-point"></rect><rect x="169" y="47" width="8" height="53" fill="#FF8028" opacity="1" class="highcharts-point"></rect><rect x="186" y="62" width="8" height="54" fill="#FF8028" opacity="1" class="highcharts-point"></rect><rect x="202" y="46" width="8" height="57" fill="#FF8028" opacity="1" class="highcharts-point"></rect><rect x="219" y="46" width="8" height="51" fill="#FF8028" opacity="1" class="highcharts-point"></rect><rect x="235" y="43" width="8" height="48" fill="#FF8028" opacity="1" class="highcharts-point"></rect><rect x="252" y="60" width="8" height="44" fill="#FF8028" opacity="1" class="highcharts-point"></rect><rect x="268" y="60" width="8" height="44" fill="#FF8028" opacity="1" class="highcharts-point"></rect><rect x="285" y="58" width="8" height="45" fill="#FF8028" opacity="1" class="highcharts-point"></rect><rect x="301" y="60" width="8" height="45" fill="#FF8028" opacity="1" class="highcharts-point"></rect><rect x="318" y="57" width="8" height="47" fill="#FF8028" opacity="1" class="highcharts-point"></rect><rect x="334" y="56" width="8" height="45" fill="#FF8028" opacity="1" class="highcharts-point"></rect><rect x="351" y="57" width="8" height="41" fill="#FF8028" opacity="1" class="highcharts-point"></rect><rect x="367" y="58" width="8" height="43" fill="#FF8028" opacity="1" class="highcharts-point"></rect><rect x="384" y="59" width="8" height="38" fill="#FF8028" opacity="1" class="highcharts-point"></rect><rect x="400" y="59" width="8" height="37" fill="#FF8028" opacity="1" class="highcharts-point"></rect><rect x="417" y="59" width="8" height="38" fill="#FF8028" opacity="1" class="highcharts-point"></rect></g><g class="highcharts-markers highcharts-series-0 highcharts-column-series" data-z-index="0.1" opacity="1" transform="translate(46,131) scale(1 1)" clip-path="none"></g><g class="highcharts-series highcharts-series-1 highcharts-column-series" data-z-index="0.1" opacity="1" transform="translate(46,131) scale(1 1)" clip-path="url(#highcharts-osfh136-139-)"><rect x="4" y="113" width="8" height="80" fill="#DC440E" opacity="1" class="highcharts-point"></rect><rect x="21" y="107" width="8" height="85" fill="#DC440E" opacity="1" class="highcharts-point"></rect><rect x="37" y="102" width="8" height="90" fill="#DC440E" opacity="1" class="highcharts-point"></rect><rect x="54" y="96" width="8" height="92" fill="#DC440E" opacity="1" class="highcharts-point"></rect><rect x="70" y="94" width="8" height="89" fill="#DC440E" opacity="1" class="highcharts-point"></rect><rect x="87" y="99" width="8" height="92" fill="#DC440E" opacity="1" class="highcharts-point"></rect><rect x="103" y="88" width="8" height="97" fill="#DC440E" opacity="1" class="highcharts-point"></rect><rect x="120" y="94" width="8" height="98" fill="#DC440E" opacity="1" class="highcharts-point"></rect><rect x="136" y="96" width="8" height="96" fill="#DC440E" opacity="1" class="highcharts-point"></rect><rect x="153" y="99" width="8" height="94" fill="#DC440E" opacity="1" class="highcharts-point"></rect><rect x="169" y="100" width="8" height="94" fill="#DC440E" opacity="1" class="highcharts-point"></rect><rect x="186" y="116" width="8" height="78" fill="#DC440E" opacity="1" class="highcharts-point"></rect><rect x="202" y="103" width="8" height="91" fill="#DC440E" opacity="1" class="highcharts-point"></rect><rect x="219" y="97" width="8" height="97" fill="#DC440E" opacity="1" class="highcharts-point"></rect><rect x="235" y="91" width="8" height="102" fill="#DC440E" opacity="1" class="highcharts-point"></rect><rect x="252" y="104" width="8" height="88" fill="#DC440E" opacity="1" class="highcharts-point"></rect><rect x="268" y="104" width="8" height="89" fill="#DC440E" opacity="1" class="highcharts-point"></rect><rect x="285" y="103" width="8" height="87" fill="#DC440E" opacity="1" class="highcharts-point"></rect><rect x="301" y="105" width="8" height="87" fill="#DC440E" opacity="1" class="highcharts-point"></rect><rect x="318" y="104" width="8" height="88" fill="#DC440E" opacity="1" class="highcharts-point"></rect><rect x="334" y="101" width="8" height="91" fill="#DC440E" opacity="1" class="highcharts-point"></rect><rect x="351" y="98" width="8" height="94" fill="#DC440E" opacity="1" class="highcharts-point"></rect><rect x="367" y="101" width="8" height="91" fill="#DC440E" opacity="1" class="highcharts-point"></rect><rect x="384" y="97" width="8" height="96" fill="#DC440E" opacity="1" class="highcharts-point"></rect><rect x="400" y="96" width="8" height="95" fill="#DC440E" opacity="1" class="highcharts-point"></rect><rect x="417" y="97" width="8" height="94" fill="#DC440E" opacity="1" class="highcharts-point"></rect></g><g class="highcharts-markers highcharts-series-1 highcharts-column-series" data-z-index="0.1" opacity="1" transform="translate(46,131) scale(1 1)" clip-path="none"></g><g class="highcharts-series highcharts-series-2 highcharts-column-series" data-z-index="0.1" opacity="1" transform="translate(46,131) scale(1 1)" clip-path="url(#highcharts-osfh136-139-)"><rect x="4" y="193" width="8" height="3" fill="#B00000" opacity="1" class="highcharts-point"></rect><rect x="21" y="192" width="8" height="4" fill="#B00000" opacity="1" class="highcharts-point"></rect><rect x="37" y="192" width="8" height="3" fill="#B00000" opacity="1" class="highcharts-point"></rect><rect x="54" y="188" width="8" height="8" fill="#B00000" opacity="1" class="highcharts-point"></rect><rect x="70" y="183" width="8" height="13" fill="#B00000" opacity="1" class="highcharts-point"></rect><rect x="87" y="191" width="8" height="5" fill="#B00000" opacity="1" class="highcharts-point"></rect><rect x="103" y="185" width="8" height="11" fill="#B00000" opacity="1" class="highcharts-point"></rect><rect x="120" y="192" width="8" height="4" fill="#B00000" opacity="1" class="highcharts-point"></rect><rect x="136" y="192" width="8" height="4" fill="#B00000" opacity="1" class="highcharts-point"></rect><rect x="153" y="193" width="8" height="3" fill="#B00000" opacity="1" class="highcharts-point"></rect><rect x="169" y="194" width="8" height="2" fill="#B00000" opacity="1" class="highcharts-point"></rect><rect x="186" y="194" width="8" height="2" fill="#B00000" opacity="1" class="highcharts-point"></rect><rect x="202" y="194" width="8" height="2" fill="#B00000" opacity="1" class="highcharts-point"></rect><rect x="219" y="194" width="8" height="2" fill="#B00000" opacity="1" class="highcharts-point"></rect><rect x="235" y="193" width="8" height="3" fill="#B00000" opacity="1" class="highcharts-point"></rect><rect x="252" y="192" width="8" height="3" fill="#B00000" opacity="1" class="highcharts-point"></rect><rect x="268" y="193" width="8" height="3" fill="#B00000" opacity="1" class="highcharts-point"></rect><rect x="285" y="190" width="8" height="3" fill="#B00000" opacity="1" class="highcharts-point"></rect><rect x="301" y="192" width="8" height="3" fill="#B00000" opacity="1" class="highcharts-point"></rect><rect x="318" y="192" width="8" height="3" fill="#B00000" opacity="1" class="highcharts-point"></rect><rect x="334" y="192" width="8" height="4" fill="#B00000" opacity="1" class="highcharts-point"></rect><rect x="351" y="192" width="8" height="4" fill="#B00000" opacity="1" class="highcharts-point"></rect><rect x="367" y="192" width="8" height="4" fill="#B00000" opacity="1" class="highcharts-point"></rect><rect x="384" y="193" width="8" height="3" fill="#B00000" opacity="1" class="highcharts-point"></rect><rect x="400" y="191" width="8" height="5" fill="#B00000" opacity="1" class="highcharts-point"></rect><rect x="417" y="191" width="8" height="5" fill="#B00000" opacity="1" class="highcharts-point"></rect></g><g class="highcharts-markers highcharts-series-2 highcharts-column-series" data-z-index="0.1" opacity="1" transform="translate(46,131) scale(1 1)" clip-path="none"></g><g class="highcharts-series highcharts-series-3 highcharts-column-series" data-z-index="0.1" opacity="1" transform="translate(46,131) scale(1 1)" clip-path="url(#highcharts-osfh136-139-)"><rect x="4" y="195" width="8" height="2" fill="#661200" opacity="1" class="highcharts-point"></rect><rect x="21" y="195" width="8" height="2" fill="#661200" opacity="1" class="highcharts-point"></rect><rect x="37" y="195" width="8" height="2" fill="#661200" opacity="1" class="highcharts-point"></rect><rect x="54" y="195" width="8" height="2" fill="#661200" opacity="1" class="highcharts-point"></rect><rect x="70" y="195" width="8" height="2" fill="#661200" opacity="1" class="highcharts-point"></rect><rect x="87" y="195" width="8" height="2" fill="#661200" opacity="1" class="highcharts-point"></rect><rect x="103" y="195" width="8" height="2" fill="#661200" opacity="1" class="highcharts-point"></rect><rect x="120" y="195" width="8" height="2" fill="#661200" opacity="1" class="highcharts-point"></rect><rect x="136" y="195" width="8" height="2" fill="#661200" opacity="1" class="highcharts-point"></rect><rect x="153" y="195" width="8" height="2" fill="#661200" opacity="1" class="highcharts-point"></rect><rect x="169" y="195" width="8" height="2" fill="#661200" opacity="1" class="highcharts-point"></rect><rect x="186" y="195" width="8" height="2" fill="#661200" opacity="1" class="highcharts-point"></rect><rect x="202" y="195" width="8" height="2" fill="#661200" opacity="1" class="highcharts-point"></rect><rect x="219" y="195" width="8" height="2" fill="#661200" opacity="1" class="highcharts-point"></rect><rect x="235" y="195" width="8" height="2" fill="#661200" opacity="1" class="highcharts-point"></rect><rect x="252" y="195" width="8" height="2" fill="#661200" opacity="1" class="highcharts-point"></rect><rect x="268" y="195" width="8" height="2" fill="#661200" opacity="1" class="highcharts-point"></rect><rect x="285" y="193" width="8" height="4" fill="#661200" opacity="1" class="highcharts-point"></rect><rect x="301" y="195" width="8" height="2" fill="#661200" opacity="1" class="highcharts-point"></rect><rect x="318" y="195" width="8" height="2" fill="#661200" opacity="1" class="highcharts-point"></rect><rect x="334" y="195" width="8" height="2" fill="#661200" opacity="1" class="highcharts-point"></rect><rect x="351" y="195" width="8" height="2" fill="#661200" opacity="1" class="highcharts-point"></rect><rect x="367" y="195" width="8" height="2" fill="#661200" opacity="1" class="highcharts-point"></rect><rect x="384" y="195" width="8" height="2" fill="#661200" opacity="1" class="highcharts-point"></rect><rect x="400" y="195" width="8" height="2" fill="#661200" opacity="1" class="highcharts-point"></rect><rect x="417" y="195" width="8" height="2" fill="#661200" opacity="1" class="highcharts-point"></rect></g><g class="highcharts-markers highcharts-series-3 highcharts-column-series" data-z-index="0.1" opacity="1" transform="translate(46,131) scale(1 1)" clip-path="none"></g></g><text x="10" text-anchor="start" class="highcharts-title" data-z-index="4" style="color:#000000;font-size:1.1666em;font-weight:bold;fill:#000000;" y="21"><tspan>Landwirtschaftliche Nutzfläche</tspan></text><text x="10" text-anchor="start" class="highcharts-subtitle" data-z-index="4" style="color:#000000;font-size:1em;fill:#000000;" y="41"><tspan>Hektaren, Basel-Stadt</tspan></text><text x="10" text-anchor="start" class="highcharts-caption" data-z-index="4" style="color:#666666;fill:#666666;" y="377"></text><g class="highcharts-axis-labels highcharts-xaxis-labels" data-z-index="7"><text x="56.84272486435067" style="color:#000000;cursor:default;font-size:0.91666em;fill:#000000;" text-anchor="end" transform="translate(0,0) rotate(-45 56.84272486435067 343)" y="343" opacity="1">1996</text><text x="89.84272486435067" style="color:#000000;cursor:default;font-size:0.91666em;fill:#000000;" text-anchor="end" transform="translate(0,0) rotate(-45 89.84272486435067 343)" y="343" opacity="1">1998</text><text x="122.84272486435067" style="color:#000000;cursor:default;font-size:0.91666em;fill:#000000;" text-anchor="end" transform="translate(0,0) rotate(-45 122.84272486435067 343)" y="343" opacity="1">2000</text><text x="155.84272486435069" style="color:#000000;cursor:default;font-size:0.91666em;fill:#000000;" text-anchor="end" transform="translate(0,0) rotate(-45 155.84272486435069 343)" y="343" opacity="1">2002</text><text x="188.84272486435069" style="color:#000000;cursor:default;font-size:0.91666em;fill:#000000;" text-anchor="end" transform="translate(0,0) rotate(-45 188.84272486435069 343)" y="343" opacity="1">2004</text><text x="221.84272486435069" style="color:#000000;cursor:default;font-size:0.91666em;fill:#000000;" text-anchor="end" transform="translate(0,0) rotate(-45 221.84272486435069 343)" y="343" opacity="1">2006</text><text x="254.84272486435069" style="color:#000000;cursor:default;font-size:0.91666em;fill:#000000;" text-anchor="end" transform="translate(0,0) rotate(-45 254.84272486435069 343)" y="343" opacity="1">2008</text><text x="287.84272486435066" style="color:#000000;cursor:default;font-size:0.91666em;fill:#000000;" text-anchor="end" transform="translate(0,0) rotate(-45 287.84272486435066 343)" y="343" opacity="1">2010</text><text x="320.84272486435066" style="color:#000000;cursor:default;font-size:0.91666em;fill:#000000;" text-anchor="end" transform="translate(0,0) rotate(-45 320.84272486435066 343)" y="343" opacity="1">2012</text><text x="353.84272486435066" style="color:#000000;cursor:default;font-size:0.91666em;fill:#000000;" text-anchor="end" transform="translate(0,0) rotate(-45 353.84272486435066 343)" y="343" opacity="1">2014</text><text x="386.84272486435066" style="color:#000000;cursor:default;font-size:0.91666em;fill:#000000;" text-anchor="end" transform="translate(0,0) rotate(-45 386.84272486435066 343)" y="343" opacity="1">2016</text><text x="419.84272486435066" style="color:#000000;cursor:default;font-size:0.91666em;fill:#000000;" text-anchor="end" transform="translate(0,0) rotate(-45 419.84272486435066 343)" y="343" opacity="1">2018</text><text x="452.84272486435066" style="color:#000000;cursor:default;font-size:0.91666em;fill:#000000;" text-anchor="end" transform="translate(0,0) rotate(-45 452.84272486435066 343)" y="343" opacity="1">2020</text></g><g class="highcharts-axis-labels highcharts-yaxis-labels" data-z-index="7"><text x="31" style="color:#000000;cursor:default;font-size:0.91666em;fill:#000000;" text-anchor="end" transform="translate(0,0)" y="331" opacity="1">0</text><text x="31" style="color:#000000;cursor:default;font-size:0.91666em;fill:#000000;" text-anchor="end" transform="translate(0,0)" y="265" opacity="1">200</text><text x="31" style="color:#000000;cursor:default;font-size:0.91666em;fill:#000000;" text-anchor="end" transform="translate(0,0)" y="200" opacity="1">400</text><text x="31" style="color:#000000;cursor:default;font-size:0.91666em;fill:#000000;" text-anchor="end" transform="translate(0,0)" y="135" opacity="1">600</text></g><g class="highcharts-axis-labels highcharts-yaxis-labels" data-z-index="7"></g><g class="highcharts-legend" data-z-index="7" transform="translate(34,58)"><rect fill="none" class="highcharts-legend-box" rx="0" ry="0" x="0" y="0" width="380" height="61" visibility="visible"></rect><g data-z-index="1"><g><g class="highcharts-legend-item highcharts-column-series highcharts-color-undefined highcharts-series-0" data-z-index="1" transform="translate(12,7)"><text x="21" style="color:#333333;cursor:pointer;font-size:1em;font-weight:normal;fill:#333333;" text-anchor="start" data-z-index="2" y="15"><tspan>Offene Ackerfläche</tspan></text><rect x="2" y="4" width="12" height="12" fill="#FF8028" class="highcharts-point" data-z-index="3"></rect></g><g class="highcharts-legend-item highcharts-column-series highcharts-color-undefined highcharts-series-1" data-z-index="1" transform="translate(162,7)"><text x="21" y="15" style="color:#333333;cursor:pointer;font-size:1em;font-weight:normal;fill:#333333;" text-anchor="start" data-z-index="2"><tspan>Grünfläche</tspan></text><rect x="2" y="4" width="12" height="12" fill="#DC440E" class="highcharts-point" data-z-index="3"></rect></g><g class="highcharts-legend-item highcharts-column-series highcharts-color-undefined highcharts-series-2" data-z-index="1" transform="translate(265,7)"><text x="21" y="15" style="color:#333333;cursor:pointer;font-size:1em;font-weight:normal;fill:#333333;" text-anchor="start" data-z-index="2"><tspan>Dauerkulturen</tspan></text><rect x="2" y="4" width="12" height="12" fill="#B00000" class="highcharts-point" data-z-index="3"></rect></g><g class="highcharts-legend-item highcharts-column-series highcharts-color-undefined highcharts-series-3" data-z-index="1" transform="translate(12,28)"><text x="21" y="15" style="color:#333333;cursor:pointer;font-size:1em;font-weight:normal;fill:#333333;" text-anchor="start" data-z-index="2"><tspan>Übrige landwirtschaftliche Nutzfläche</tspan></text><rect x="2" y="4" width="12" height="12" fill="#661200" class="highcharts-point" data-z-index="3"></rect></g></g></g></g><text x="10" class="highcharts-credits" text-anchor="start" data-z-index="8" style="cursor:default;color:#000000;font-size:0.8333em;fill:#000000;" y="400"><tspan>Quelle: Bundesamt für Statistik, Landwirtschaftliche Strukturerhebung</tspan></text><g class="highcharts-control-points" data-z-index="99" clip-path="url(#highcharts-osfh136-218-)"></g></svg>