<?xml version="1.0" standalone="no"?><!DOCTYPE svg PUBLIC "-//W3C//DTD SVG 1.1//EN" "http://www.w3.org/Graphics/SVG/1.1/DTD/svg11.dtd"><svg xmlns:xlink="http://www.w3.org/1999/xlink" version="1.1" class="highcharts-root" style="font-family:&quot;Lucida Grande&quot;, &quot;Lucida Sans Unicode&quot;, Arial, Helvetica, sans-serif;font-size:12px;" xmlns="http://www.w3.org/2000/svg" viewBox="0 0 485 415"><desc>Created with Highcharts 8.2.0</desc><defs><clipPath id="highcharts-fcl8jf7-21-"><rect x="0" y="0" width="420" height="269" fill="none"></rect></clipPath><clipPath id="highcharts-fcl8jf7-36-"><rect x="0" y="0" width="420" height="269" fill="none"></rect></clipPath></defs><rect fill="#fbfbfb" class="highcharts-background" x="0" y="0" width="485" height="415" rx="0" ry="0"></rect><rect fill="none" class="highcharts-plot-background" x="55" y="58" width="420" height="269"></rect><g class="highcharts-label" transform="translate(10,449)"><text x="0" data-z-index="1" style="cursor:pointer;" y="0"><tspan>&gt; Indikator-Details</tspan></text></g><g class="highcharts-label" transform="translate(10,449)"><text x="0" data-z-index="1" style="cursor:pointer;" y="0"><tspan>&gt; Indikator-Details</tspan></text></g><g class="highcharts-pane-group" data-z-index="0"></g><g class="highcharts-grid highcharts-xaxis-grid" data-z-index="1"><path fill="none" data-z-index="1" class="highcharts-grid-line" d="M 79.5 58 L 79.5 327" opacity="1"></path><path fill="none" data-z-index="1" class="highcharts-grid-line" d="M 113.5 58 L 113.5 327" opacity="1"></path><path fill="none" data-z-index="1" class="highcharts-grid-line" d="M 146.5 58 L 146.5 327" opacity="1"></path><path fill="none" data-z-index="1" class="highcharts-grid-line" d="M 180.5 58 L 180.5 327" opacity="1"></path><path fill="none" data-z-index="1" class="highcharts-grid-line" d="M 214.5 58 L 214.5 327" opacity="1"></path><path fill="none" data-z-index="1" class="highcharts-grid-line" d="M 247.5 58 L 247.5 327" opacity="1"></path><path fill="none" data-z-index="1" class="highcharts-grid-line" d="M 281.5 58 L 281.5 327" opacity="1"></path><path fill="none" data-z-index="1" class="highcharts-grid-line" d="M 314.5 58 L 314.5 327" opacity="1"></path><path fill="none" data-z-index="1" class="highcharts-grid-line" d="M 348.5 58 L 348.5 327" opacity="1"></path><path fill="none" data-z-index="1" class="highcharts-grid-line" d="M 382.5 58 L 382.5 327" opacity="1"></path><path fill="none" data-z-index="1" class="highcharts-grid-line" d="M 415.5 58 L 415.5 327" opacity="1"></path><path fill="none" data-z-index="1" class="highcharts-grid-line" d="M 449.5 58 L 449.5 327" opacity="1"></path></g><g class="highcharts-grid highcharts-yaxis-grid" data-z-index="1"><path fill="none" stroke="#e6e6e6" stroke-width="1" data-z-index="1" class="highcharts-grid-line" d="M 55 327.5 L 475 327.5" opacity="1"></path><path fill="none" stroke="#e6e6e6" stroke-width="1" data-z-index="1" class="highcharts-grid-line" d="M 55 282.5 L 475 282.5" opacity="1"></path><path fill="none" stroke="#e6e6e6" stroke-width="1" data-z-index="1" class="highcharts-grid-line" d="M 55 237.5 L 475 237.5" opacity="1"></path><path fill="none" stroke="#e6e6e6" stroke-width="1" data-z-index="1" class="highcharts-grid-line" d="M 55 193.5 L 475 193.5" opacity="1"></path><path fill="none" stroke="#e6e6e6" stroke-width="1" data-z-index="1" class="highcharts-grid-line" d="M 55 148.5 L 475 148.5" opacity="1"></path><path fill="none" stroke="#e6e6e6" stroke-width="1" data-z-index="1" class="highcharts-grid-line" d="M 55 103.5 L 475 103.5" opacity="1"></path><path fill="none" stroke="#e6e6e6" stroke-width="1" data-z-index="1" class="highcharts-grid-line" d="M 55 57.5 L 475 57.5" opacity="1"></path></g><g class="highcharts-grid highcharts-yaxis-grid" data-z-index="1"></g><rect fill="none" class="highcharts-plot-border" data-z-index="1" x="55" y="58" width="420" height="269"></rect><g class="highcharts-axis highcharts-xaxis" data-z-index="2"><path fill="none" class="highcharts-axis-line" stroke="#ccd6eb" stroke-width="1" data-z-index="7" d="M 55 327.5 L 475 327.5"></path></g><g class="highcharts-axis highcharts-yaxis" data-z-index="2"><path fill="none" class="highcharts-axis-line" data-z-index="7" d="M 55 58 L 55 327"></path></g><g class="highcharts-axis highcharts-yaxis" data-z-index="2"><path fill="none" class="highcharts-axis-line" data-z-index="7" d="M 475 58 L 475 327"></path></g><g class="highcharts-series-group" data-z-index="3"><g class="highcharts-series highcharts-series-0 highcharts-column-series" data-z-index="0.1" opacity="1" transform="translate(55,58) scale(1 1)" clip-path="url(#highcharts-fcl8jf7-36-)"><rect x="4" y="262" width="9" height="8" fill="#FF8028" opacity="1" class="highcharts-point"></rect><rect x="72" y="240" width="9" height="30" fill="#FF8028" opacity="1" class="highcharts-point"></rect><rect x="156" y="222" width="9" height="48" fill="#FF8028" opacity="1" class="highcharts-point"></rect><rect x="240" y="180" width="9" height="90" fill="#FF8028" opacity="1" class="highcharts-point"></rect><rect x="256" y="156" width="9" height="114" fill="#FF8028" opacity="1" class="highcharts-point"></rect><rect x="273" y="126" width="9" height="144" fill="#FF8028" opacity="1" class="highcharts-point"></rect><rect x="290" y="102" width="9" height="168" fill="#FF8028" opacity="1" class="highcharts-point"></rect><rect x="307" y="89" width="9" height="181" fill="#FF8028" opacity="1" class="highcharts-point"></rect><rect x="324" y="80" width="9" height="190" fill="#FF8028" opacity="1" class="highcharts-point"></rect><rect x="340" y="76" width="9" height="194" fill="#FF8028" opacity="1" class="highcharts-point"></rect><rect x="357" y="68" width="9" height="202" fill="#FF8028" opacity="1" class="highcharts-point"></rect><rect x="374" y="65" width="9" height="205" fill="#FF8028" opacity="1" class="highcharts-point"></rect><rect x="391" y="43" width="9" height="227" fill="#FF8028" opacity="1" class="highcharts-point"></rect><rect x="408" y="38" width="9" height="232" fill="#FF8028" opacity="1" class="highcharts-point"></rect></g><g class="highcharts-markers highcharts-series-0 highcharts-column-series" data-z-index="0.1" opacity="1" transform="translate(55,58) scale(1 1)" clip-path="none"></g></g><text x="10" text-anchor="start" class="highcharts-title" data-z-index="4" style="color:#000000;font-size:1.1666em;font-weight:bold;fill:#000000;" y="21"><tspan>Eingebaute Schallschutzfenster</tspan></text><text x="10" text-anchor="start" class="highcharts-subtitle" data-z-index="4" style="color:#000000;font-size:1em;fill:#000000;" y="41"><tspan>Anzahl Fenster (kumuliert), Basel-Stadt</tspan></text><text x="10" text-anchor="start" class="highcharts-caption" data-z-index="4" style="color:#666666;fill:#666666;" y="377"></text><g class="highcharts-axis-labels highcharts-xaxis-labels" data-z-index="7"><text x="82.79272486435067" style="color:#000000;cursor:default;font-size:0.91666em;fill:#000000;" text-anchor="end" transform="translate(0,0) rotate(-45 82.79272486435067 343)" y="343" opacity="1">1996</text><text x="116.39272486435067" style="color:#000000;cursor:default;font-size:0.91666em;fill:#000000;" text-anchor="end" transform="translate(0,0) rotate(-45 116.39272486435067 343)" y="343" opacity="1">1998</text><text x="149.9927248643507" style="color:#000000;cursor:default;font-size:0.91666em;fill:#000000;" text-anchor="end" transform="translate(0,0) rotate(-45 149.9927248643507 343)" y="343" opacity="1">2000</text><text x="183.59272486435069" style="color:#000000;cursor:default;font-size:0.91666em;fill:#000000;" text-anchor="end" transform="translate(0,0) rotate(-45 183.59272486435069 343)" y="343" opacity="1">2002</text><text x="217.19272486435068" style="color:#000000;cursor:default;font-size:0.91666em;fill:#000000;" text-anchor="end" transform="translate(0,0) rotate(-45 217.19272486435068 343)" y="343" opacity="1">2004</text><text x="250.79272486435067" style="color:#000000;cursor:default;font-size:0.91666em;fill:#000000;" text-anchor="end" transform="translate(0,0) rotate(-45 250.79272486435067 343)" y="343" opacity="1">2006</text><text x="284.39272486435067" style="color:#000000;cursor:default;font-size:0.91666em;fill:#000000;" text-anchor="end" transform="translate(0,0) rotate(-45 284.39272486435067 343)" y="343" opacity="1">2008</text><text x="317.99272486435063" style="color:#000000;cursor:default;font-size:0.91666em;fill:#000000;" text-anchor="end" transform="translate(0,0) rotate(-45 317.99272486435063 343)" y="343" opacity="1">2010</text><text x="351.59272486435066" style="color:#000000;cursor:default;font-size:0.91666em;fill:#000000;" text-anchor="end" transform="translate(0,0) rotate(-45 351.59272486435066 343)" y="343" opacity="1">2012</text><text x="385.1927248643507" style="color:#000000;cursor:default;font-size:0.91666em;fill:#000000;" text-anchor="end" transform="translate(0,0) rotate(-45 385.1927248643507 343)" y="343" opacity="1">2014</text><text x="418.79272486435065" style="color:#000000;cursor:default;font-size:0.91666em;fill:#000000;" text-anchor="end" transform="translate(0,0) rotate(-45 418.79272486435065 343)" y="343" opacity="1">2016</text><text x="452.39272486435067" style="color:#000000;cursor:default;font-size:0.91666em;fill:#000000;" text-anchor="end" transform="translate(0,0) rotate(-45 452.39272486435067 343)" y="343" opacity="1">2018</text></g><g class="highcharts-axis-labels highcharts-yaxis-labels" data-z-index="7"><text x="40" style="color:#000000;cursor:default;font-size:0.91666em;fill:#000000;" text-anchor="end" transform="translate(0,0)" y="331" opacity="1">0</text><text x="40" style="color:#000000;cursor:default;font-size:0.91666em;fill:#000000;" text-anchor="end" transform="translate(0,0)" y="286" opacity="1">2.5k</text><text x="40" style="color:#000000;cursor:default;font-size:0.91666em;fill:#000000;" text-anchor="end" transform="translate(0,0)" y="241" opacity="1">5k</text><text x="40" style="color:#000000;cursor:default;font-size:0.91666em;fill:#000000;" text-anchor="end" transform="translate(0,0)" y="196" opacity="1">7.5k</text><text x="40" style="color:#000000;cursor:default;font-size:0.91666em;fill:#000000;" text-anchor="end" transform="translate(0,0)" y="151" opacity="1">10k</text><text x="40" style="color:#000000;cursor:default;font-size:0.91666em;fill:#000000;" text-anchor="end" transform="translate(0,0)" y="106" opacity="1">12.5k</text><text x="40" style="color:#000000;cursor:default;font-size:0.91666em;fill:#000000;" text-anchor="end" transform="translate(0,0)" y="62" opacity="1">15k</text></g><g class="highcharts-axis-labels highcharts-yaxis-labels" data-z-index="7"></g><g class="highcharts-legend" data-z-index="7"><rect fill="none" class="highcharts-legend-box" rx="0" ry="0" x="0" y="0" width="12" height="12" visibility="hidden"></rect><g data-z-index="1"><g></g></g></g><text x="10" class="highcharts-credits" text-anchor="start" data-z-index="8" style="cursor:default;color:#000000;font-size:0.8333em;fill:#000000;" y="400"><tspan>Quelle: Amt für Umwelt und Energie Basel-Stadt</tspan></text></svg>