<?xml version="1.0" standalone="no"?><!DOCTYPE svg PUBLIC "-//W3C//DTD SVG 1.1//EN" "http://www.w3.org/Graphics/SVG/1.1/DTD/svg11.dtd"><svg xmlns:xlink="http://www.w3.org/1999/xlink" version="1.1" class="highcharts-root" style="font-family:&quot;Lucida Grande&quot;, &quot;Lucida Sans Unicode&quot;, Arial, Helvetica, sans-serif;font-size:12px;" xmlns="http://www.w3.org/2000/svg" viewBox="0 0 485 415"><desc>Created with Highcharts 8.2.0</desc><defs><clipPath id="highcharts-i6lchb7-91-"><rect x="0" y="0" width="436" height="196" fill="none"></rect></clipPath><clipPath id="highcharts-i6lchb7-113-"><rect x="0" y="0" width="436" height="196" fill="none"></rect></clipPath></defs><rect fill="#fbfbfb" class="highcharts-background" x="0" y="0" width="485" height="415" rx="0" ry="0"></rect><rect fill="none" class="highcharts-plot-background" x="39" y="131" width="436" height="196"></rect><g class="highcharts-label" transform="translate(10,449)"><text x="0" data-z-index="1" style="cursor:pointer;" y="0"><tspan>&gt; Indikator-Details</tspan></text></g><g class="highcharts-label" transform="translate(10,449)"><text x="0" data-z-index="1" style="cursor:pointer;" y="0"><tspan>&gt; Indikator-Details</tspan></text></g><g class="highcharts-pane-group" data-z-index="0"></g><g class="highcharts-grid highcharts-xaxis-grid" data-z-index="1"><path fill="none" data-z-index="1" class="highcharts-grid-line" d="M 59.5 131 L 59.5 327" opacity="1"></path><path fill="none" data-z-index="1" class="highcharts-grid-line" d="M 80.5 131 L 80.5 327" opacity="1"></path><path fill="none" data-z-index="1" class="highcharts-grid-line" d="M 100.5 131 L 100.5 327" opacity="1"></path><path fill="none" data-z-index="1" class="highcharts-grid-line" d="M 121.5 131 L 121.5 327" opacity="1"></path><path fill="none" data-z-index="1" class="highcharts-grid-line" d="M 142.5 131 L 142.5 327" opacity="1"></path><path fill="none" data-z-index="1" class="highcharts-grid-line" d="M 163.5 131 L 163.5 327" opacity="1"></path><path fill="none" data-z-index="1" class="highcharts-grid-line" d="M 183.5 131 L 183.5 327" opacity="1"></path><path fill="none" data-z-index="1" class="highcharts-grid-line" d="M 204.5 131 L 204.5 327" opacity="1"></path><path fill="none" data-z-index="1" class="highcharts-grid-line" d="M 225.5 131 L 225.5 327" opacity="1"></path><path fill="none" data-z-index="1" class="highcharts-grid-line" d="M 246.5 131 L 246.5 327" opacity="1"></path><path fill="none" data-z-index="1" class="highcharts-grid-line" d="M 266.5 131 L 266.5 327" opacity="1"></path><path fill="none" data-z-index="1" class="highcharts-grid-line" d="M 287.5 131 L 287.5 327" opacity="1"></path><path fill="none" data-z-index="1" class="highcharts-grid-line" d="M 308.5 131 L 308.5 327" opacity="1"></path><path fill="none" data-z-index="1" class="highcharts-grid-line" d="M 329.5 131 L 329.5 327" opacity="1"></path><path fill="none" data-z-index="1" class="highcharts-grid-line" d="M 349.5 131 L 349.5 327" opacity="1"></path><path fill="none" data-z-index="1" class="highcharts-grid-line" d="M 370.5 131 L 370.5 327" opacity="1"></path><path fill="none" data-z-index="1" class="highcharts-grid-line" d="M 391.5 131 L 391.5 327" opacity="1"></path><path fill="none" data-z-index="1" class="highcharts-grid-line" d="M 412.5 131 L 412.5 327" opacity="1"></path><path fill="none" data-z-index="1" class="highcharts-grid-line" d="M 432.5 131 L 432.5 327" opacity="1"></path><path fill="none" data-z-index="1" class="highcharts-grid-line" d="M 453.5 131 L 453.5 327" opacity="1"></path><path fill="none" data-z-index="1" class="highcharts-grid-line" d="M 474.5 131 L 474.5 327" opacity="1"></path><path fill="none" data-z-index="1" class="highcharts-grid-line" d="M 38.5 131 L 38.5 327" opacity="1"></path></g><g class="highcharts-grid highcharts-yaxis-grid" data-z-index="1"><path fill="none" stroke="#e6e6e6" stroke-width="1" data-z-index="1" class="highcharts-grid-line" d="M 39 327.5 L 475 327.5" opacity="1"></path><path fill="none" stroke="#e6e6e6" stroke-width="1" data-z-index="1" class="highcharts-grid-line" d="M 39 278.5 L 475 278.5" opacity="1"></path><path fill="none" stroke="#e6e6e6" stroke-width="1" data-z-index="1" class="highcharts-grid-line" d="M 39 229.5 L 475 229.5" opacity="1"></path><path fill="none" stroke="#e6e6e6" stroke-width="1" data-z-index="1" class="highcharts-grid-line" d="M 39 180.5 L 475 180.5" opacity="1"></path><path fill="none" stroke="#e6e6e6" stroke-width="1" data-z-index="1" class="highcharts-grid-line" d="M 39 130.5 L 475 130.5" opacity="1"></path></g><g class="highcharts-grid highcharts-yaxis-grid" data-z-index="1"></g><rect fill="none" class="highcharts-plot-border" data-z-index="1" x="39" y="131" width="436" height="196"></rect><g class="highcharts-axis highcharts-xaxis" data-z-index="2"><path fill="none" class="highcharts-axis-line" stroke="#ccd6eb" stroke-width="1" data-z-index="7" d="M 39 327.5 L 475 327.5"></path></g><g class="highcharts-axis highcharts-yaxis" data-z-index="2"><path fill="none" class="highcharts-axis-line" data-z-index="7" d="M 39 131 L 39 327"></path></g><g class="highcharts-axis highcharts-yaxis" data-z-index="2"><path fill="none" class="highcharts-axis-line" data-z-index="7" d="M 475 131 L 475 327"></path></g><g class="highcharts-series-group" data-z-index="3"><g class="highcharts-series highcharts-series-0 highcharts-line-series" data-z-index="0.1" opacity="1" transform="translate(39,131) scale(1 1)" clip-path="url(#highcharts-i6lchb7-113-)"><path fill="none" d="M 134.95238095238 42.629999999999995 L 155.71428571429 53.89999999999998 L 176.47619047619 55.370000000000005 L 197.2380952381 51.44999999999999 L 218 72.02999999999999 L 238.7619047619 79.86999999999999 L 259.52380952381 70.07 L 280.28571428571 71.05 L 301.04761904762 73.49999999999999 L 321.80952380952 85.25999999999999 L 342.57142857143 83.78999999999999 L 363.33333333333 103.88 L 384.09523809524 92.11999999999999 L 404.85714285714 104.36999999999999 L 425.61904761905 102.40999999999998" class="highcharts-graph" data-z-index="1" stroke="#73B97C" stroke-width="2" stroke-linejoin="round" stroke-linecap="round"></path></g><g class="highcharts-markers highcharts-series-0 highcharts-line-series" data-z-index="0.1" opacity="1" transform="translate(39,131) scale(1 1)" clip-path="none"></g><g class="highcharts-series highcharts-series-1 highcharts-line-series" data-z-index="0.1" opacity="1" transform="translate(39,131) scale(1 1)" clip-path="url(#highcharts-i6lchb7-113-)"><path fill="none" d="M 10.380952380952 55.859999999999985 L 31.142857142857 76.92999999999999 L 51.904761904762 94.57 L 72.666666666667 94.07999999999998 L 93.428571428571 97.50999999999999 L 114.19047619048 89.17999999999999 L 134.95238095238 74.97 L 155.71428571429 102.89999999999999 L 176.47619047619 92.11999999999999 L 197.2380952381 79.86999999999999 L 218 85.74999999999999 L 238.7619047619 94.57 L 259.52380952381 88.19999999999999 L 280.28571428571 91.14 L 301.04761904762 86.72999999999999 L 321.80952380952 102.40999999999998 L 342.57142857143 102.40999999999998 L 363.33333333333 113.19 L 384.09523809524 106.32999999999998 L 404.85714285714 117.10999999999999 L 425.61904761905 116.62" class="highcharts-graph" data-z-index="1" stroke="#68AB2B" stroke-width="2" stroke-linejoin="round" stroke-linecap="round"></path></g><g class="highcharts-markers highcharts-series-1 highcharts-line-series" data-z-index="0.1" opacity="1" transform="translate(39,131) scale(1 1)" clip-path="none"></g><g class="highcharts-series highcharts-series-2 highcharts-line-series" data-z-index="0.1" opacity="1" transform="translate(39,131) scale(1 1)" clip-path="url(#highcharts-i6lchb7-113-)"><path fill="none" d="M 10.380952380952 49 L 31.142857142857 77.90999999999998 L 51.904761904762 82.80999999999999 L 72.666666666667 95.55 L 93.428571428571 87.22 L 114.19047619048 82.80999999999999 L 134.95238095238 71.05 L 155.71428571429 92.11999999999999 L 176.47619047619 92.60999999999999 L 197.2380952381 80.85 L 218 97.50999999999999 L 238.7619047619 106.82 L 259.52380952381 106.82 L 280.28571428571 108.29 L 301.04761904762 109.27 L 321.80952380952 121.52 L 342.57142857143 117.6 L 363.33333333333 131.81 L 384.09523809524 117.10999999999999 L 404.85714285714 132.79 L 425.61904761905 129.36" class="highcharts-graph" data-z-index="1" stroke="#007A2F" stroke-width="2" stroke-linejoin="round" stroke-linecap="round"></path></g><g class="highcharts-markers highcharts-series-2 highcharts-line-series" data-z-index="0.1" opacity="1" transform="translate(39,131) scale(1 1)" clip-path="none"></g><g class="highcharts-series highcharts-series-3 highcharts-line-series" data-z-index="0.1" opacity="1" transform="translate(39,131) scale(1 1)" clip-path="url(#highcharts-i6lchb7-113-)"><path fill="none" d="M 10.380952380952 98 L 31.142857142857 98 L 51.904761904762 98 L 72.666666666667 98 L 93.428571428571 98 L 114.19047619048 98 L 134.95238095238 98 L 155.71428571429 98 L 176.47619047619 98 L 197.2380952381 98 L 218 98 L 238.7619047619 98 L 259.52380952381 98 L 280.28571428571 98 L 301.04761904762 98 L 321.80952380952 98 L 342.57142857143 98 L 363.33333333333 98 L 384.09523809524 98 L 404.85714285714 98 L 425.61904761905 98" class="highcharts-graph" data-z-index="1" stroke="#444444" stroke-width="2" stroke-dasharray="6,2"></path></g><g class="highcharts-markers highcharts-series-3 highcharts-line-series" data-z-index="0.1" opacity="1" transform="translate(39,131) scale(1 1)" clip-path="none"></g></g><text x="10" text-anchor="start" class="highcharts-title" data-z-index="4" style="color:#000000;font-size:1.1666em;font-weight:bold;fill:#000000;" y="21"><tspan>Feinstaub-Immissionen</tspan></text><text x="10" text-anchor="start" class="highcharts-subtitle" data-z-index="4" style="color:#000000;font-size:1em;fill:#000000;" y="41"><tspan>Mikrogramm pro Kubikmeter, Basel-Stadt und Basel-Landschaft</tspan></text><text x="10" text-anchor="start" class="highcharts-caption" data-z-index="4" style="color:#666666;fill:#666666;" y="377"></text><g class="highcharts-axis-labels highcharts-xaxis-labels" data-z-index="7"><text x="52.20937950569881" style="color:#000000;cursor:default;font-size:0.91666em;fill:#000000;" text-anchor="end" transform="translate(0,0) rotate(-45 52.20937950569881 343)" y="343" opacity="1">1997</text><text x="72.9712842676038" style="color:#000000;cursor:default;font-size:0.91666em;fill:#000000;" text-anchor="end" transform="translate(0,0) rotate(-45 72.9712842676038 343)" y="343" opacity="1">1998</text><text x="93.7331890295038" style="color:#000000;cursor:default;font-size:0.91666em;fill:#000000;" text-anchor="end" transform="translate(0,0) rotate(-45 93.7331890295038 343)" y="343" opacity="1">1999</text><text x="114.49509379141381" style="color:#000000;cursor:default;font-size:0.91666em;fill:#000000;" text-anchor="end" transform="translate(0,0) rotate(-45 114.49509379141381 343)" y="343" opacity="1">2000</text><text x="135.2569985533138" style="color:#000000;cursor:default;font-size:0.91666em;fill:#000000;" text-anchor="end" transform="translate(0,0) rotate(-45 135.2569985533138 343)" y="343" opacity="1">2001</text><text x="156.0189033152238" style="color:#000000;cursor:default;font-size:0.91666em;fill:#000000;" text-anchor="end" transform="translate(0,0) rotate(-45 156.0189033152238 343)" y="343" opacity="1">2002</text><text x="176.7808080771238" style="color:#000000;cursor:default;font-size:0.91666em;fill:#000000;" text-anchor="end" transform="translate(0,0) rotate(-45 176.7808080771238 343)" y="343" opacity="1">2003</text><text x="197.5427128390338" style="color:#000000;cursor:default;font-size:0.91666em;fill:#000000;" text-anchor="end" transform="translate(0,0) rotate(-45 197.5427128390338 343)" y="343" opacity="1">2004</text><text x="218.3046176009338" style="color:#000000;cursor:default;font-size:0.91666em;fill:#000000;" text-anchor="end" transform="translate(0,0) rotate(-45 218.3046176009338 343)" y="343" opacity="1">2005</text><text x="239.0665223628438" style="color:#000000;cursor:default;font-size:0.91666em;fill:#000000;" text-anchor="end" transform="translate(0,0) rotate(-45 239.0665223628438 343)" y="343" opacity="1">2006</text><text x="259.8284271247438" style="color:#000000;cursor:default;font-size:0.91666em;fill:#000000;" text-anchor="end" transform="translate(0,0) rotate(-45 259.8284271247438 343)" y="343" opacity="1">2007</text><text x="280.5903318866538" style="color:#000000;cursor:default;font-size:0.91666em;fill:#000000;" text-anchor="end" transform="translate(0,0) rotate(-45 280.5903318866538 343)" y="343" opacity="1">2008</text><text x="301.3522366485538" style="color:#000000;cursor:default;font-size:0.91666em;fill:#000000;" text-anchor="end" transform="translate(0,0) rotate(-45 301.3522366485538 343)" y="343" opacity="1">2009</text><text x="322.1141414104638" style="color:#000000;cursor:default;font-size:0.91666em;fill:#000000;" text-anchor="end" transform="translate(0,0) rotate(-45 322.1141414104638 343)" y="343" opacity="1">2010</text><text x="342.87604617236383" style="color:#000000;cursor:default;font-size:0.91666em;fill:#000000;" text-anchor="end" transform="translate(0,0) rotate(-45 342.87604617236383 343)" y="343" opacity="1">2011</text><text x="363.6379509342738" style="color:#000000;cursor:default;font-size:0.91666em;fill:#000000;" text-anchor="end" transform="translate(0,0) rotate(-45 363.6379509342738 343)" y="343" opacity="1">2012</text><text x="384.3998556961738" style="color:#000000;cursor:default;font-size:0.91666em;fill:#000000;" text-anchor="end" transform="translate(0,0) rotate(-45 384.3998556961738 343)" y="343" opacity="1">2013</text><text x="405.1617604580838" style="color:#000000;cursor:default;font-size:0.91666em;fill:#000000;" text-anchor="end" transform="translate(0,0) rotate(-45 405.1617604580838 343)" y="343" opacity="1">2014</text><text x="425.92366521998383" style="color:#000000;cursor:default;font-size:0.91666em;fill:#000000;" text-anchor="end" transform="translate(0,0) rotate(-45 425.92366521998383 343)" y="343" opacity="1">2015</text><text x="446.6855699818938" style="color:#000000;cursor:default;font-size:0.91666em;fill:#000000;" text-anchor="end" transform="translate(0,0) rotate(-45 446.6855699818938 343)" y="343" opacity="1">2016</text><text x="467.4474747437938" style="color:#000000;cursor:default;font-size:0.91666em;fill:#000000;" text-anchor="end" transform="translate(0,0) rotate(-45 467.4474747437938 343)" y="343" opacity="1">2017</text></g><g class="highcharts-axis-labels highcharts-yaxis-labels" data-z-index="7"><text x="24" style="color:#000000;cursor:default;font-size:0.91666em;fill:#000000;" text-anchor="end" transform="translate(0,0)" y="331" opacity="1">0</text><text x="24" style="color:#000000;cursor:default;font-size:0.91666em;fill:#000000;" text-anchor="end" transform="translate(0,0)" y="282" opacity="1">10</text><text x="24" style="color:#000000;cursor:default;font-size:0.91666em;fill:#000000;" text-anchor="end" transform="translate(0,0)" y="233" opacity="1">20</text><text x="24" style="color:#000000;cursor:default;font-size:0.91666em;fill:#000000;" text-anchor="end" transform="translate(0,0)" y="184" opacity="1">30</text><text x="24" style="color:#000000;cursor:default;font-size:0.91666em;fill:#000000;" text-anchor="end" transform="translate(0,0)" y="135" opacity="1">40</text></g><g class="highcharts-axis-labels highcharts-yaxis-labels" data-z-index="7"></g><g class="highcharts-legend" data-z-index="7" transform="translate(27,58)"><rect fill="none" class="highcharts-legend-box" rx="0" ry="0" x="0" y="0" width="362" height="61" visibility="visible"></rect><g data-z-index="1"><g><g class="highcharts-legend-item highcharts-line-series highcharts-color-undefined highcharts-series-0" data-z-index="1" transform="translate(12,7)"><path fill="none" d="M 0 11 L 16 11" class="highcharts-graph" stroke="#73B97C" stroke-width="2"></path><text x="21" style="color:#333333;cursor:pointer;font-size:1em;font-weight:normal;fill:#333333;" text-anchor="start" data-z-index="2" y="15"><tspan>Stark verkehrsexponiert</tspan></text></g><g class="highcharts-legend-item highcharts-line-series highcharts-color-undefined highcharts-series-1" data-z-index="1" transform="translate(191,7)"><path fill="none" d="M 0 11 L 16 11" class="highcharts-graph" stroke="#68AB2B" stroke-width="2"></path><text x="21" y="15" style="color:#333333;cursor:pointer;font-size:1em;font-weight:normal;fill:#333333;" text-anchor="start" data-z-index="2"><tspan>Stadt Basel</tspan></text></g><g class="highcharts-legend-item highcharts-line-series highcharts-color-undefined highcharts-series-2" data-z-index="1" transform="translate(12,28)"><path fill="none" d="M 0 11 L 16 11" class="highcharts-graph" stroke="#007A2F" stroke-width="2"></path><text x="21" y="15" style="color:#333333;cursor:pointer;font-size:1em;font-weight:normal;fill:#333333;" text-anchor="start" data-z-index="2"><tspan>Agglomeration</tspan></text></g><g class="highcharts-legend-item highcharts-line-series highcharts-color-undefined highcharts-series-3" data-z-index="1" transform="translate(191,28)"><path fill="none" d="M 0 11 L 16 11" class="highcharts-graph" stroke-dasharray="6,2" stroke="#444444" stroke-width="2"></path><text x="21" y="15" style="color:#333333;cursor:pointer;font-size:1em;font-weight:normal;fill:#333333;" text-anchor="start" data-z-index="2"><tspan>Grenzwert</tspan></text></g></g></g></g><text x="10" class="highcharts-credits" text-anchor="start" data-z-index="8" style="cursor:default;color:#000000;font-size:0.8333em;fill:#000000;" y="400"><tspan>Quelle: Lufthygieneamt beider Basel</tspan></text></svg>