<?xml version="1.0" standalone="no"?><!DOCTYPE svg PUBLIC "-//W3C//DTD SVG 1.1//EN" "http://www.w3.org/Graphics/SVG/1.1/DTD/svg11.dtd"><svg xmlns:xlink="http://www.w3.org/1999/xlink" version="1.1" class="highcharts-root" style="font-family:&quot;Lucida Grande&quot;, &quot;Lucida Sans Unicode&quot;, Arial, Helvetica, sans-serif;font-size:12px;" xmlns="http://www.w3.org/2000/svg" viewBox="0 0 485 415"><desc>Created with Highstock 6.1.0</desc><defs><clipPath id="highcharts-5v4g27n-7"><rect x="0" y="0" width="438" height="203" fill="none"></rect></clipPath><clipPath id="highcharts-5v4g27n-8"><rect x="0" y="0" width="438" height="203" fill="none"></rect></clipPath></defs><rect fill="#fbfbfb" class="highcharts-background" x="0" y="0" width="485" height="415" rx="0" ry="0"></rect><rect fill="none" class="highcharts-plot-background" x="37" y="141" width="438" height="203"></rect><g class="highcharts-label" style="cursor:pointer;" transform="translate(10,451)"><text x="0" y="0"><tspan>&gt; Indikator-Details</tspan></text></g><g class="highcharts-label" style="cursor:pointer;" transform="translate(10,451)"><text x="0" y="0"><tspan>&gt; Indikator-Details</tspan></text></g><g class="highcharts-pane-group"></g><g class="highcharts-grid highcharts-xaxis-grid "><path fill="none" class="highcharts-grid-line" d="M 44.5 141 L 44.5 344" opacity="1"></path><path fill="none" class="highcharts-grid-line" d="M 78.5 141 L 78.5 344" opacity="1"></path><path fill="none" class="highcharts-grid-line" d="M 112.5 141 L 112.5 344" opacity="1"></path><path fill="none" class="highcharts-grid-line" d="M 146.5 141 L 146.5 344" opacity="1"></path><path fill="none" class="highcharts-grid-line" d="M 179.5 141 L 179.5 344" opacity="1"></path><path fill="none" class="highcharts-grid-line" d="M 213.5 141 L 213.5 344" opacity="1"></path><path fill="none" class="highcharts-grid-line" d="M 247.5 141 L 247.5 344" opacity="1"></path><path fill="none" class="highcharts-grid-line" d="M 280.5 141 L 280.5 344" opacity="1"></path><path fill="none" class="highcharts-grid-line" d="M 314.5 141 L 314.5 344" opacity="1"></path><path fill="none" class="highcharts-grid-line" d="M 348.5 141 L 348.5 344" opacity="1"></path><path fill="none" class="highcharts-grid-line" d="M 381.5 141 L 381.5 344" opacity="1"></path><path fill="none" class="highcharts-grid-line" d="M 415.5 141 L 415.5 344" opacity="1"></path><path fill="none" class="highcharts-grid-line" d="M 449.5 141 L 449.5 344" opacity="1"></path></g><g class="highcharts-grid highcharts-yaxis-grid "><path fill="none" stroke="#e6e6e6" stroke-width="1" class="highcharts-grid-line" d="M 37 344.5 L 475 344.5" opacity="1"></path><path fill="none" stroke="#e6e6e6" stroke-width="1" class="highcharts-grid-line" d="M 37 276.5 L 475 276.5" opacity="1"></path><path fill="none" stroke="#e6e6e6" stroke-width="1" class="highcharts-grid-line" d="M 37 209.5 L 475 209.5" opacity="1"></path><path fill="none" stroke="#e6e6e6" stroke-width="1" class="highcharts-grid-line" d="M 37 140.5 L 475 140.5" opacity="1"></path></g><g class="highcharts-grid highcharts-yaxis-grid "></g><rect fill="none" class="highcharts-plot-border" x="37" y="141" width="438" height="203"></rect><g class="highcharts-axis highcharts-xaxis "><path fill="none" class="highcharts-axis-line" stroke="#ccd6eb" stroke-width="1" d="M 37 344.5 L 475 344.5"></path></g><g class="highcharts-axis highcharts-yaxis "><path fill="none" class="highcharts-axis-line" d="M 37 141 L 37 344"></path></g><g class="highcharts-axis highcharts-yaxis "><path fill="none" class="highcharts-axis-line" d="M 475 141 L 475 344"></path></g><g class="highcharts-series-group"><g class="highcharts-series highcharts-series-0 highcharts-line-series " transform="translate(37,141) scale(1 1)" clip-path="url(#highcharts-5v4g27n-8)"><path fill="none" d="M 25.269230769231 24.630666666666656 L 42.115384615385 43.30666666666667 L 58.961538461538 62.524 L 75.807692307692 64.14800000000002 L 92.653846153846 66.85466666666667 L 109.5 65.23066666666668 L 126.34615384615 68.74933333333334 L 143.19230769231 63.33600000000001 L 160.03846153846 63.877333333333354 L 176.88461538462 64.68933333333334 L 193.73076923077 65.23066666666668 L 210.57692307692 48.44933333333333 L 227.42307692308 64.41866666666667 L 244.26923076923 56.56933333333333 L 261.11538461538 51.156000000000006 L 277.96153846154 60.358666666666664 L 294.80769230769 58.464 L 311.65384615385 59.00533333333334 L 328.5 54.94533333333334 L 345.34615384615 64.41866666666667 L 362.19230769231 66.584 L 379.03846153846 68.20800000000003 L 395.88461538462 71.99733333333333 L 412.73076923077 70.10266666666666 L 429.57692307692 82.55333333333334" class="highcharts-graph" stroke="#73B97C" stroke-width="2" stroke-linejoin="round" stroke-linecap="round"></path></g><g class="highcharts-markers highcharts-series-0 highcharts-line-series " transform="translate(37,141) scale(1 1)" clip-path="none"></g><g class="highcharts-series highcharts-series-1 highcharts-line-series " transform="translate(37,141) scale(1 1)" clip-path="url(#highcharts-5v4g27n-8)"><path fill="none" d="M 8.4230769230769 60.08800000000002 L 25.269230769231 67.93733333333336 L 42.115384615385 75.24533333333333 L 58.961538461538 87.42533333333333 L 75.807692307692 94.192 L 92.653846153846 86.34266666666667 L 109.5 91.48533333333333 L 126.34615384615 105.56 L 143.19230769231 105.56 L 160.03846153846 111.51466666666668 L 176.88461538462 113.68 L 193.73076923077 114.49199999999999 L 210.57692307692 108.808 L 227.42307692308 112.86800000000001 L 244.26923076923 114.49199999999999 L 261.11538461538 111.51466666666668 L 277.96153846154 117.74000000000001 L 294.80769230769 115.304 L 311.65384615385 114.49199999999999 L 328.5 115.304 L 345.34615384615 113.13866666666667 L 362.19230769231 116.928 L 379.03846153846 119.09333333333333 L 395.88461538462 116.65733333333334 L 412.73076923077 117.74000000000001 L 429.57692307692 127.75466666666667" class="highcharts-graph" stroke="#68AB2B" stroke-width="2" stroke-linejoin="round" stroke-linecap="round"></path></g><g class="highcharts-markers highcharts-series-1 highcharts-line-series " transform="translate(37,141) scale(1 1)" clip-path="none"></g><g class="highcharts-series highcharts-series-2 highcharts-line-series " transform="translate(37,141) scale(1 1)" clip-path="url(#highcharts-5v4g27n-8)"><path fill="none" d="M 8.4230769230769 102.04133333333334 L 25.269230769231 115.84533333333333 L 42.115384615385 117.19866666666667 L 58.961538461538 132.356 L 75.807692307692 126.40133333333334 L 92.653846153846 121.8 L 109.5 124.50666666666667 L 126.34615384615 132.62666666666667 L 143.19230769231 133.98000000000002 L 160.03846153846 141.01733333333334 L 176.88461538462 143.45333333333332 L 193.73076923077 142.64133333333334 L 210.57692307692 138.04000000000002 L 227.42307692308 143.724 L 244.26923076923 145.88933333333333 L 261.11538461538 144.536 L 277.96153846154 151.30266666666665 L 294.80769230769 148.05466666666666 L 311.65384615385 149.13733333333334 L 328.5 146.43066666666667 L 345.34615384615 149.94933333333333 L 362.19230769231 152.656 L 379.03846153846 151.032 L 395.88461538462 153.46800000000002 L 412.73076923077 153.46800000000002 L 429.57692307692 157.79866666666666" class="highcharts-graph" stroke="#007A2F" stroke-width="2" stroke-linejoin="round" stroke-linecap="round"></path></g><g class="highcharts-markers highcharts-series-2 highcharts-line-series " transform="translate(37,141) scale(1 1)" clip-path="none"></g><g class="highcharts-series highcharts-series-3 highcharts-line-series " transform="translate(37,141) scale(1 1)" clip-path="url(#highcharts-5v4g27n-8)"><path fill="none" d="M 8.4230769230769 130.46133333333333 L 25.269230769231 143.45333333333332 L 42.115384615385 135.06266666666667 L 58.961538461538 152.92666666666668 L 75.807692307692 152.656 L 92.653846153846 149.6786666666667 L 109.5 151.032 L 126.34615384615 154.55066666666667 L 143.19230769231 152.656 L 160.03846153846 162.4 L 176.88461538462 161.588 L 193.73076923077 165.91866666666667 L 210.57692307692 159.69333333333333 L 227.42307692308 165.37733333333333 L 244.26923076923 167.54266666666666 L 261.11538461538 167.00133333333332 L 277.96153846154 169.16666666666669 L 294.80769230769 167.272 L 311.65384615385 167.81333333333333 L 328.5 165.37733333333333 L 345.34615384615 170.79066666666665 L 362.19230769231 173.22666666666666 L 379.03846153846 169.708 L 395.88461538462 181.888 L 412.73076923077 173.768" class="highcharts-graph" stroke="#0A3B19" stroke-width="2" stroke-linejoin="round" stroke-linecap="round"></path></g><g class="highcharts-markers highcharts-series-3 highcharts-line-series " transform="translate(37,141) scale(1 1)" clip-path="none"></g><g class="highcharts-series highcharts-series-4 highcharts-line-series " transform="translate(37,141) scale(1 1)" clip-path="url(#highcharts-5v4g27n-8)"><path fill="none" d="M 8.4230769230769 121.8 L 25.269230769231 121.8 L 42.115384615385 121.8 L 58.961538461538 121.8 L 75.807692307692 121.8 L 92.653846153846 121.8 L 109.5 121.8 L 126.34615384615 121.8 L 143.19230769231 121.8 L 160.03846153846 121.8 L 176.88461538462 121.8 L 193.73076923077 121.8 L 210.57692307692 121.8 L 227.42307692308 121.8 L 244.26923076923 121.8 L 261.11538461538 121.8 L 277.96153846154 121.8 L 294.80769230769 121.8 L 311.65384615385 121.8 L 328.5 121.8 L 345.34615384615 121.8 L 362.19230769231 121.8 L 379.03846153846 121.8 L 395.88461538462 121.8 L 412.73076923077 121.8 L 429.57692307692 121.8" class="highcharts-graph" stroke="#444444" stroke-width="2" stroke-dasharray="6,2"></path></g><g class="highcharts-markers highcharts-series-4 highcharts-line-series " transform="translate(37,141) scale(1 1)" clip-path="none"></g></g><text x="10" text-anchor="start" class="highcharts-title" style="color:#000000;font-size:1.1em;font-weight:bold;fill:#000000;" y="20"><tspan>Stickstoffdioxid-Immissionen</tspan></text><text x="10" text-anchor="start" class="highcharts-subtitle" style="color:#000000;font-size:0.9em;fill:#000000;" y="38"><tspan>Mikrogramm pro Kubikmeter</tspan></text><g class="highcharts-legend" transform="translate(10,53)"><rect fill="none" class="highcharts-legend-box" rx="0" ry="0" x="0" y="0" width="339" height="76" visibility="visible"></rect><g><g><g class="highcharts-legend-item highcharts-line-series highcharts-color-undefined highcharts-series-0" transform="translate(12,7)"><path fill="none" d="M 0 11 L 16 11" class="highcharts-graph" stroke="#73B97C" stroke-width="2"></path><text x="21" style="color:#333333;font-size:1em;font-weight:normal;cursor:pointer;fill:#333333;" text-anchor="start" y="15"><tspan>Stark verkehrsexponiert</tspan></text></g><g class="highcharts-legend-item highcharts-line-series highcharts-color-undefined highcharts-series-1" transform="translate(179.625,7)"><path fill="none" d="M 0 11 L 16 11" class="highcharts-graph" stroke="#68AB2B" stroke-width="2"></path><text x="21" y="15" style="color:#333333;font-size:1em;font-weight:normal;cursor:pointer;fill:#333333;" text-anchor="start"><tspan>Stadt Basel</tspan></text></g><g class="highcharts-legend-item highcharts-line-series highcharts-color-undefined highcharts-series-2" transform="translate(12,26)"><path fill="none" d="M 0 11 L 16 11" class="highcharts-graph" stroke="#007A2F" stroke-width="2"></path><text x="21" y="15" style="color:#333333;font-size:1em;font-weight:normal;cursor:pointer;fill:#333333;" text-anchor="start"><tspan>Agglomeration</tspan></text></g><g class="highcharts-legend-item highcharts-line-series highcharts-color-undefined highcharts-series-3" transform="translate(179.625,26)"><path fill="none" d="M 0 11 L 16 11" class="highcharts-graph" stroke="#0A3B19" stroke-width="2"></path><text x="21" y="15" style="color:#333333;font-size:1em;font-weight:normal;cursor:pointer;fill:#333333;" text-anchor="start"><tspan>Ländlich</tspan></text></g><g class="highcharts-legend-item highcharts-line-series highcharts-color-undefined highcharts-series-4" transform="translate(12,45)"><path fill="none" d="M 0 11 L 16 11" class="highcharts-graph" stroke-dasharray="6,2" stroke="#444444" stroke-width="2"></path><text x="21" y="15" style="color:#333333;font-size:1em;font-weight:normal;cursor:pointer;fill:#333333;" text-anchor="start"><tspan>Grenzwert</tspan></text></g></g></g></g><g class="highcharts-axis-labels highcharts-xaxis-labels "><text x="45.423076923077" style="color:#000000;cursor:default;font-size:0.9em;fill:#000000;" text-anchor="middle" transform="translate(0,0)" y="363" opacity="1">1991</text><text x="79.115384615385" style="color:#000000;cursor:default;font-size:0.9em;fill:#000000;" text-anchor="middle" transform="translate(0,0)" y="363" opacity="1">1993</text><text x="112.80769230769" style="color:#000000;cursor:default;font-size:0.9em;fill:#000000;" text-anchor="middle" transform="translate(0,0)" y="363" opacity="1">1995</text><text x="146.5" style="color:#000000;cursor:default;font-size:0.9em;fill:#000000;" text-anchor="middle" transform="translate(0,0)" y="363" opacity="1">1997</text><text x="180.19230769231" style="color:#000000;cursor:default;font-size:0.9em;fill:#000000;" text-anchor="middle" transform="translate(0,0)" y="363" opacity="1">1999</text><text x="213.88461538462" style="color:#000000;cursor:default;font-size:0.9em;fill:#000000;" text-anchor="middle" transform="translate(0,0)" y="363" opacity="1">2001</text><text x="247.57692307692" style="color:#000000;cursor:default;font-size:0.9em;fill:#000000;" text-anchor="middle" transform="translate(0,0)" y="363" opacity="1">2003</text><text x="281.26923076923" style="color:#000000;cursor:default;font-size:0.9em;fill:#000000;" text-anchor="middle" transform="translate(0,0)" y="363" opacity="1">2005</text><text x="314.96153846154" style="color:#000000;cursor:default;font-size:0.9em;fill:#000000;" text-anchor="middle" transform="translate(0,0)" y="363" opacity="1">2007</text><text x="348.65384615385" style="color:#000000;cursor:default;font-size:0.9em;fill:#000000;" text-anchor="middle" transform="translate(0,0)" y="363" opacity="1">2009</text><text x="382.34615384615" style="color:#000000;cursor:default;font-size:0.9em;fill:#000000;" text-anchor="middle" transform="translate(0,0)" y="363" opacity="1">2011</text><text x="416.03846153846" style="color:#000000;cursor:default;font-size:0.9em;fill:#000000;" text-anchor="middle" transform="translate(0,0)" y="363" opacity="1">2013</text><text x="449.73076923077" style="color:#000000;cursor:default;font-size:0.9em;fill:#000000;" text-anchor="middle" transform="translate(0,0)" y="363" opacity="1">2015</text></g><g class="highcharts-axis-labels highcharts-yaxis-labels "><text x="22" style="color:#000000;cursor:default;font-size:0.9em;fill:#000000;" text-anchor="end" transform="translate(0,0)" y="349" opacity="1">0</text><text x="22" style="color:#000000;cursor:default;font-size:0.9em;fill:#000000;" text-anchor="end" transform="translate(0,0)" y="281" opacity="1">25</text><text x="22" style="color:#000000;cursor:default;font-size:0.9em;fill:#000000;" text-anchor="end" transform="translate(0,0)" y="213" opacity="1">50</text><text x="22" style="color:#000000;cursor:default;font-size:0.9em;fill:#000000;" text-anchor="end" transform="translate(0,0)" y="146" opacity="1">75</text></g><g class="highcharts-axis-labels highcharts-yaxis-labels "></g><text x="10" class="highcharts-credits" text-anchor="start" style="cursor:default;color:#000000;font-size:0.8em;fill:#000000;" y="400"><tspan>Quelle: Lufthygieneamt beider Basel</tspan></text></svg>