<?xml version="1.0" standalone="no"?><!DOCTYPE svg PUBLIC "-//W3C//DTD SVG 1.1//EN" "http://www.w3.org/Graphics/SVG/1.1/DTD/svg11.dtd"><svg xmlns:xlink="http://www.w3.org/1999/xlink" version="1.1" class="highcharts-root" style="font-family:&quot;Lucida Grande&quot;, &quot;Lucida Sans Unicode&quot;, Arial, Helvetica, sans-serif;font-size:12px;" xmlns="http://www.w3.org/2000/svg" viewBox="0 0 485 415"><desc>Created with Highstock 6.1.1</desc><defs><clipPath id="highcharts-mtjxjyf-7"><rect x="0" y="0" width="438" height="239" fill="none"></rect></clipPath><clipPath id="highcharts-mtjxjyf-8"><rect x="0" y="0" width="438" height="239" fill="none"></rect></clipPath></defs><rect fill="#fbfbfb" class="highcharts-background" x="0" y="0" width="485" height="415" rx="0" ry="0"></rect><rect fill="none" class="highcharts-plot-background" x="37" y="105" width="438" height="239"></rect><g class="highcharts-label" style="cursor:pointer;" transform="translate(10,451)"><text x="0" data-z-index="1" y="0"><tspan>&gt; Indikator-Details</tspan></text></g><g class="highcharts-label" style="cursor:pointer;" transform="translate(10,451)"><text x="0" data-z-index="1" y="0"><tspan>&gt; Indikator-Details</tspan></text></g><g class="highcharts-pane-group" data-z-index="0"></g><g class="highcharts-grid highcharts-xaxis-grid " data-z-index="1"><path fill="none" data-z-index="1" class="highcharts-grid-line" d="M 91.5 105 L 91.5 344" opacity="1"></path><path fill="none" data-z-index="1" class="highcharts-grid-line" d="M 146.5 105 L 146.5 344" opacity="1"></path><path fill="none" data-z-index="1" class="highcharts-grid-line" d="M 200.5 105 L 200.5 344" opacity="1"></path><path fill="none" data-z-index="1" class="highcharts-grid-line" d="M 255.5 105 L 255.5 344" opacity="1"></path><path fill="none" data-z-index="1" class="highcharts-grid-line" d="M 310.5 105 L 310.5 344" opacity="1"></path><path fill="none" data-z-index="1" class="highcharts-grid-line" d="M 365.5 105 L 365.5 344" opacity="1"></path><path fill="none" data-z-index="1" class="highcharts-grid-line" d="M 419.5 105 L 419.5 344" opacity="1"></path><path fill="none" data-z-index="1" class="highcharts-grid-line" d="M 474.5 105 L 474.5 344" opacity="1"></path><path fill="none" data-z-index="1" class="highcharts-grid-line" d="M 36.5 105 L 36.5 344" opacity="1"></path></g><g class="highcharts-grid highcharts-yaxis-grid " data-z-index="1"><path fill="none" stroke="#e6e6e6" stroke-width="1" data-z-index="1" class="highcharts-grid-line" d="M 37 344.5 L 475 344.5" opacity="1"></path><path fill="none" stroke="#e6e6e6" stroke-width="1" data-z-index="1" class="highcharts-grid-line" d="M 37 284.5 L 475 284.5" opacity="1"></path><path fill="none" stroke="#e6e6e6" stroke-width="1" data-z-index="1" class="highcharts-grid-line" d="M 37 225.5 L 475 225.5" opacity="1"></path><path fill="none" stroke="#e6e6e6" stroke-width="1" data-z-index="1" class="highcharts-grid-line" d="M 37 165.5 L 475 165.5" opacity="1"></path><path fill="none" stroke="#e6e6e6" stroke-width="1" data-z-index="1" class="highcharts-grid-line" d="M 37 104.5 L 475 104.5" opacity="1"></path></g><g class="highcharts-grid highcharts-yaxis-grid " data-z-index="1"></g><rect fill="none" class="highcharts-plot-border" data-z-index="1" x="37" y="105" width="438" height="239"></rect><g class="highcharts-axis highcharts-xaxis " data-z-index="2"><path fill="none" class="highcharts-axis-line" stroke="#ccd6eb" stroke-width="1" data-z-index="7" d="M 37 344.5 L 475 344.5"></path></g><g class="highcharts-axis highcharts-yaxis " data-z-index="2"><path fill="none" class="highcharts-axis-line" data-z-index="7" d="M 37 105 L 37 344"></path></g><g class="highcharts-axis highcharts-yaxis " data-z-index="2"><path fill="none" class="highcharts-axis-line" data-z-index="7" d="M 475 105 L 475 344"></path></g><g class="highcharts-series-group" data-z-index="3"><g data-z-index="0.1" class="highcharts-series highcharts-series-0 highcharts-column-series " transform="translate(37,105) scale(1 1)" clip-path="url(#highcharts-mtjxjyf-8)"><rect x="14" y="109" width="27" height="83" fill="#73B97C" class="highcharts-point"></rect><rect x="69" y="31" width="27" height="137" fill="#73B97C" class="highcharts-point"></rect><rect x="124" y="67" width="27" height="119" fill="#73B97C" class="highcharts-point"></rect><rect x="178" y="61" width="27" height="119" fill="#73B97C" class="highcharts-point"></rect><rect x="233" y="19" width="27" height="155" fill="#73B97C" class="highcharts-point"></rect><rect x="288" y="73" width="27" height="137" fill="#73B97C" class="highcharts-point"></rect><rect x="343" y="43" width="27" height="119" fill="#73B97C" class="highcharts-point"></rect><rect x="397" y="85" width="27" height="89" fill="#73B97C" class="highcharts-point"></rect></g><g data-z-index="0.1" class="highcharts-markers highcharts-series-0 highcharts-column-series " transform="translate(37,105) scale(1 1)" clip-path="none"></g><g data-z-index="0.1" class="highcharts-series highcharts-series-1 highcharts-column-series " transform="translate(37,105) scale(1 1)" clip-path="url(#highcharts-mtjxjyf-8)"><rect x="14" y="192" width="27" height="48" fill="#68AB2B" class="highcharts-point"></rect><rect x="69" y="168" width="27" height="72" fill="#68AB2B" class="highcharts-point"></rect><rect x="124" y="186" width="27" height="54" fill="#68AB2B" class="highcharts-point"></rect><rect x="178" y="180" width="27" height="60" fill="#68AB2B" class="highcharts-point"></rect><rect x="233" y="174" width="27" height="66" fill="#68AB2B" class="highcharts-point"></rect><rect x="288" y="210" width="27" height="30" fill="#68AB2B" class="highcharts-point"></rect><rect x="343" y="162" width="27" height="78" fill="#68AB2B" class="highcharts-point"></rect><rect x="397" y="174" width="27" height="66" fill="#68AB2B" class="highcharts-point"></rect></g><g data-z-index="0.1" class="highcharts-markers highcharts-series-1 highcharts-column-series " transform="translate(37,105) scale(1 1)" clip-path="none"></g></g><text x="10" text-anchor="start" class="highcharts-title" data-z-index="4" style="color:#000000;font-size:1.1666em;font-weight:bold;fill:#000000;" y="21"><tspan>Nutzungsdruck</tspan></text><text x="10" text-anchor="start" class="highcharts-subtitle" data-z-index="4" style="color:#000000;font-size:1em;fill:#000000;" y="40"><tspan>Anzahl bewilligte Gesuche, Basel-Stadt und Basel-Landschaft</tspan></text><g class="highcharts-axis-labels highcharts-xaxis-labels " data-z-index="7"><text x="64.375" style="color:#000000;cursor:default;font-size:0.91666em;fill:#000000;" text-anchor="middle" transform="translate(0,0)" y="363" opacity="1">2008</text><text x="119.125" style="color:#000000;cursor:default;font-size:0.91666em;fill:#000000;" text-anchor="middle" transform="translate(0,0)" y="363" opacity="1">2009</text><text x="173.875" style="color:#000000;cursor:default;font-size:0.91666em;fill:#000000;" text-anchor="middle" transform="translate(0,0)" y="363" opacity="1">2010</text><text x="228.625" style="color:#000000;cursor:default;font-size:0.91666em;fill:#000000;" text-anchor="middle" transform="translate(0,0)" y="363" opacity="1">2011</text><text x="283.375" style="color:#000000;cursor:default;font-size:0.91666em;fill:#000000;" text-anchor="middle" transform="translate(0,0)" y="363" opacity="1">2012</text><text x="338.125" style="color:#000000;cursor:default;font-size:0.91666em;fill:#000000;" text-anchor="middle" transform="translate(0,0)" y="363" opacity="1">2013</text><text x="392.875" style="color:#000000;cursor:default;font-size:0.91666em;fill:#000000;" text-anchor="middle" transform="translate(0,0)" y="363" opacity="1">2014</text><text x="447.625" style="color:#000000;cursor:default;font-size:0.91666em;fill:#000000;" text-anchor="middle" transform="translate(0,0)" y="363" opacity="1">2015</text></g><g class="highcharts-axis-labels highcharts-yaxis-labels " data-z-index="7"><text x="22" style="color:#000000;cursor:default;font-size:0.91666em;fill:#000000;" text-anchor="end" transform="translate(0,0)" y="349" opacity="1">0</text><text x="22" style="color:#000000;cursor:default;font-size:0.91666em;fill:#000000;" text-anchor="end" transform="translate(0,0)" y="289" opacity="1">10</text><text x="22" style="color:#000000;cursor:default;font-size:0.91666em;fill:#000000;" text-anchor="end" transform="translate(0,0)" y="229" opacity="1">20</text><text x="22" style="color:#000000;cursor:default;font-size:0.91666em;fill:#000000;" text-anchor="end" transform="translate(0,0)" y="169" opacity="1">30</text><text x="22" style="color:#000000;cursor:default;font-size:0.91666em;fill:#000000;" text-anchor="end" transform="translate(0,0)" y="110" opacity="1">40</text></g><g class="highcharts-axis-labels highcharts-yaxis-labels " data-z-index="7"></g><g class="highcharts-legend" data-z-index="7" transform="translate(25,55)"><rect fill="none" class="highcharts-legend-box" rx="0" ry="0" x="0" y="0" width="374" height="38" visibility="visible"></rect><g data-z-index="1"><g><g class="highcharts-legend-item highcharts-column-series highcharts-color-undefined highcharts-series-0" data-z-index="1" transform="translate(12,7)"><text x="21" y="15" style="color:#333333;font-size:1em;font-weight:normal;cursor:pointer;fill:#333333;" text-anchor="start" data-z-index="2"><tspan>Bewilligte Veranstaltungen</tspan></text><rect x="2" y="4" width="12" height="12" fill="#73B97C" class="highcharts-point" data-z-index="3"></rect></g><g class="highcharts-legend-item highcharts-column-series highcharts-color-undefined highcharts-series-1" data-z-index="1" transform="translate(194.296875,7)"><text x="21" y="15" style="color:#333333;font-size:1em;font-weight:normal;cursor:pointer;fill:#333333;" text-anchor="start" data-z-index="2"><tspan>Bewilligte Rodungsgesuche</tspan></text><rect x="2" y="4" width="12" height="12" fill="#68AB2B" class="highcharts-point" data-z-index="3"></rect></g></g></g></g><text x="10" class="highcharts-credits" text-anchor="start" data-z-index="8" style="cursor:default;color:#000000;font-size:0.8333em;fill:#000000;" y="400"><tspan>Quelle: Amt für Wald beider Basel</tspan></text></svg>