<?xml version="1.0" standalone="no"?><!DOCTYPE svg PUBLIC "-//W3C//DTD SVG 1.1//EN" "http://www.w3.org/Graphics/SVG/1.1/DTD/svg11.dtd"><svg xmlns:xlink="http://www.w3.org/1999/xlink" version="1.1" class="highcharts-root" style="font-family:&quot;Lucida Grande&quot;, &quot;Lucida Sans Unicode&quot;, Arial, Helvetica, sans-serif;font-size:12px;" xmlns="http://www.w3.org/2000/svg" viewBox="0 0 485 415"><desc>Created with Highstock 6.1.1</desc><defs><clipPath id="highcharts-0bse6cn-7"><rect x="0" y="0" width="438" height="241" fill="none"></rect></clipPath><clipPath id="highcharts-0bse6cn-8"><rect x="0" y="0" width="438" height="241" fill="none"></rect></clipPath></defs><rect fill="#fbfbfb" class="highcharts-background" x="0" y="0" width="485" height="415" rx="0" ry="0"></rect><rect fill="none" class="highcharts-plot-background" x="37" y="103" width="438" height="241"></rect><g class="highcharts-label" style="cursor:pointer;" transform="translate(10,451)"><text x="0" data-z-index="1" y="0"><tspan>&gt; Indikator-Details</tspan></text></g><g class="highcharts-label" style="cursor:pointer;" transform="translate(10,451)"><text x="0" data-z-index="1" y="0"><tspan>&gt; Indikator-Details</tspan></text></g><g class="highcharts-pane-group" data-z-index="0"></g><g class="highcharts-grid highcharts-xaxis-grid " data-z-index="1"><path fill="none" data-z-index="1" class="highcharts-grid-line" d="M 91.5 103 L 91.5 344" opacity="1"></path><path fill="none" data-z-index="1" class="highcharts-grid-line" d="M 146.5 103 L 146.5 344" opacity="1"></path><path fill="none" data-z-index="1" class="highcharts-grid-line" d="M 200.5 103 L 200.5 344" opacity="1"></path><path fill="none" data-z-index="1" class="highcharts-grid-line" d="M 255.5 103 L 255.5 344" opacity="1"></path><path fill="none" data-z-index="1" class="highcharts-grid-line" d="M 310.5 103 L 310.5 344" opacity="1"></path><path fill="none" data-z-index="1" class="highcharts-grid-line" d="M 365.5 103 L 365.5 344" opacity="1"></path><path fill="none" data-z-index="1" class="highcharts-grid-line" d="M 419.5 103 L 419.5 344" opacity="1"></path><path fill="none" data-z-index="1" class="highcharts-grid-line" d="M 474.5 103 L 474.5 344" opacity="1"></path><path fill="none" data-z-index="1" class="highcharts-grid-line" d="M 36.5 103 L 36.5 344" opacity="1"></path></g><g class="highcharts-grid highcharts-yaxis-grid " data-z-index="1"><path fill="none" stroke="#e6e6e6" stroke-width="1" data-z-index="1" class="highcharts-grid-line" d="M 37 344.5 L 475 344.5" opacity="1"></path><path fill="none" stroke="#e6e6e6" stroke-width="1" data-z-index="1" class="highcharts-grid-line" d="M 37 296.5 L 475 296.5" opacity="1"></path><path fill="none" stroke="#e6e6e6" stroke-width="1" data-z-index="1" class="highcharts-grid-line" d="M 37 248.5 L 475 248.5" opacity="1"></path><path fill="none" stroke="#e6e6e6" stroke-width="1" data-z-index="1" class="highcharts-grid-line" d="M 37 199.5 L 475 199.5" opacity="1"></path><path fill="none" stroke="#e6e6e6" stroke-width="1" data-z-index="1" class="highcharts-grid-line" d="M 37 151.5 L 475 151.5" opacity="1"></path><path fill="none" stroke="#e6e6e6" stroke-width="1" data-z-index="1" class="highcharts-grid-line" d="M 37 102.5 L 475 102.5" opacity="1"></path></g><g class="highcharts-grid highcharts-yaxis-grid " data-z-index="1"></g><rect fill="none" class="highcharts-plot-border" data-z-index="1" x="37" y="103" width="438" height="241"></rect><g class="highcharts-axis highcharts-xaxis " data-z-index="2"><path fill="none" class="highcharts-axis-line" stroke="#ccd6eb" stroke-width="1" data-z-index="7" d="M 37 344.5 L 475 344.5"></path></g><g class="highcharts-axis highcharts-yaxis " data-z-index="2"><path fill="none" class="highcharts-axis-line" data-z-index="7" d="M 37 103 L 37 344"></path></g><g class="highcharts-axis highcharts-yaxis " data-z-index="2"><path fill="none" class="highcharts-axis-line" data-z-index="7" d="M 475 103 L 475 344"></path></g><g class="highcharts-series-group" data-z-index="3"><g data-z-index="0.1" class="highcharts-series highcharts-series-0 highcharts-column-series " transform="translate(37,103) scale(1 1)" clip-path="url(#highcharts-0bse6cn-8)"><rect x="13" y="218" width="14" height="24" fill="#FF8028" class="highcharts-point"></rect><rect x="67" y="218" width="14" height="24" fill="#FF8028" class="highcharts-point"></rect><rect x="122" y="208" width="14" height="34" fill="#FF8028" class="highcharts-point"></rect><rect x="177" y="208" width="14" height="34" fill="#FF8028" class="highcharts-point"></rect><rect x="232" y="203" width="14" height="39" fill="#FF8028" class="highcharts-point"></rect><rect x="286" y="194" width="14" height="48" fill="#FF8028" class="highcharts-point"></rect><rect x="341" y="189" width="14" height="53" fill="#FF8028" class="highcharts-point"></rect><rect x="396" y="189" width="14" height="53" fill="#FF8028" class="highcharts-point"></rect></g><g data-z-index="0.1" class="highcharts-markers highcharts-series-0 highcharts-column-series " transform="translate(37,103) scale(1 1)" clip-path="none"></g><g data-z-index="0.1" class="highcharts-series highcharts-series-1 highcharts-column-series " transform="translate(37,103) scale(1 1)" clip-path="url(#highcharts-0bse6cn-8)"><rect x="29" y="218" width="14" height="24" fill="#DC440E" class="highcharts-point"></rect><rect x="84" y="155" width="14" height="87" fill="#DC440E" class="highcharts-point"></rect><rect x="139" y="131" width="14" height="111" fill="#DC440E" class="highcharts-point"></rect><rect x="193" y="112" width="14" height="130" fill="#DC440E" class="highcharts-point"></rect><rect x="248" y="83" width="14" height="159" fill="#DC440E" class="highcharts-point"></rect><rect x="303" y="97" width="14" height="145" fill="#DC440E" class="highcharts-point"></rect><rect x="358" y="25" width="14" height="217" fill="#DC440E" class="highcharts-point"></rect><rect x="412" y="117" width="14" height="125" fill="#DC440E" class="highcharts-point"></rect></g><g data-z-index="0.1" class="highcharts-markers highcharts-series-1 highcharts-column-series " transform="translate(37,103) scale(1 1)" clip-path="none"></g></g><text x="10" text-anchor="start" class="highcharts-title" data-z-index="4" style="color:#000000;font-size:1.1em;font-weight:bold;fill:#000000;" y="20"><tspan>Erdbebenertüchtigung von Bauwerken</tspan></text><text x="10" text-anchor="start" class="highcharts-subtitle" data-z-index="4" style="color:#000000;font-size:0.9em;fill:#000000;" y="38"><tspan>Anzahl Bauwerke</tspan></text><g class="highcharts-legend" data-z-index="7" transform="translate(10,53)"><rect fill="none" class="highcharts-legend-box" rx="0" ry="0" x="0" y="0" width="301" height="38" visibility="visible"></rect><g data-z-index="1"><g><g class="highcharts-legend-item highcharts-column-series highcharts-color-undefined highcharts-series-0" data-z-index="1" transform="translate(12,7)"><text x="21" style="color:#333333;font-size:1em;font-weight:normal;cursor:pointer;fill:#333333;" text-anchor="start" data-z-index="2" y="15"><tspan>Lifeline-Bauwerke (kumulativ)</tspan></text><rect x="2" y="4" width="12" height="12" fill="#FF8028" class="highcharts-point" data-z-index="3"></rect></g><g class="highcharts-legend-item highcharts-column-series highcharts-color-undefined highcharts-series-1" data-z-index="1" transform="translate(210.234375,7)"><text x="21" y="15" style="color:#333333;font-size:1em;font-weight:normal;cursor:pointer;fill:#333333;" text-anchor="start" data-z-index="2"><tspan>Neubauten</tspan></text><rect x="2" y="4" width="12" height="12" fill="#DC440E" class="highcharts-point" data-z-index="3"></rect></g></g></g></g><g class="highcharts-axis-labels highcharts-xaxis-labels " data-z-index="7"><text x="64.375" style="color:#000000;cursor:default;font-size:0.9em;fill:#000000;" text-anchor="middle" transform="translate(0,0)" y="363" opacity="1">2009</text><text x="119.125" style="color:#000000;cursor:default;font-size:0.9em;fill:#000000;" text-anchor="middle" transform="translate(0,0)" y="363" opacity="1">2010</text><text x="173.875" style="color:#000000;cursor:default;font-size:0.9em;fill:#000000;" text-anchor="middle" transform="translate(0,0)" y="363" opacity="1">2011</text><text x="228.625" style="color:#000000;cursor:default;font-size:0.9em;fill:#000000;" text-anchor="middle" transform="translate(0,0)" y="363" opacity="1">2012</text><text x="283.375" style="color:#000000;cursor:default;font-size:0.9em;fill:#000000;" text-anchor="middle" transform="translate(0,0)" y="363" opacity="1">2013</text><text x="338.125" style="color:#000000;cursor:default;font-size:0.9em;fill:#000000;" text-anchor="middle" transform="translate(0,0)" y="363" opacity="1">2014</text><text x="392.875" style="color:#000000;cursor:default;font-size:0.9em;fill:#000000;" text-anchor="middle" transform="translate(0,0)" y="363" opacity="1">2015</text><text x="447.625" style="color:#000000;cursor:default;font-size:0.9em;fill:#000000;" text-anchor="middle" transform="translate(0,0)" y="363" opacity="1">2016</text></g><g class="highcharts-axis-labels highcharts-yaxis-labels " data-z-index="7"><text x="22" style="color:#000000;cursor:default;font-size:0.9em;fill:#000000;" text-anchor="end" transform="translate(0,0)" y="349" opacity="1">0</text><text x="22" style="color:#000000;cursor:default;font-size:0.9em;fill:#000000;" text-anchor="end" transform="translate(0,0)" y="300" opacity="1">10</text><text x="22" style="color:#000000;cursor:default;font-size:0.9em;fill:#000000;" text-anchor="end" transform="translate(0,0)" y="252" opacity="1">20</text><text x="22" style="color:#000000;cursor:default;font-size:0.9em;fill:#000000;" text-anchor="end" transform="translate(0,0)" y="204" opacity="1">30</text><text x="22" style="color:#000000;cursor:default;font-size:0.9em;fill:#000000;" text-anchor="end" transform="translate(0,0)" y="156" opacity="1">40</text><text x="22" style="color:#000000;cursor:default;font-size:0.9em;fill:#000000;" text-anchor="end" transform="translate(0,0)" y="108" opacity="1">50</text></g><g class="highcharts-axis-labels highcharts-yaxis-labels " data-z-index="7"></g><text x="10" class="highcharts-credits" text-anchor="start" data-z-index="8" style="cursor:default;color:#000000;font-size:0.8em;fill:#000000;" y="400"><tspan>Quelle: Bau- und Gastgewerbeinspektorat Basel-Stadt</tspan></text></svg>