<?xml version="1.0" standalone="no"?><!DOCTYPE svg PUBLIC "-//W3C//DTD SVG 1.1//EN" "http://www.w3.org/Graphics/SVG/1.1/DTD/svg11.dtd"><svg xmlns:xlink="http://www.w3.org/1999/xlink" version="1.1" class="highcharts-root" style="font-family:&quot;Lucida Grande&quot;, &quot;Lucida Sans Unicode&quot;, Arial, Helvetica, sans-serif;font-size:12px;" xmlns="http://www.w3.org/2000/svg" viewBox="0 0 485 415"><desc>Created with Highstock 6.1.1</desc><defs><clipPath id="highcharts-u1snmen-7"><rect x="0" y="0" width="432" height="239" fill="none"></rect></clipPath><clipPath id="highcharts-u1snmen-8"><rect x="0" y="0" width="432" height="239" fill="none"></rect></clipPath></defs><rect fill="#fbfbfb" class="highcharts-background" x="0" y="0" width="485" height="415" rx="0" ry="0"></rect><rect fill="none" class="highcharts-plot-background" x="43" y="105" width="432" height="239"></rect><g class="highcharts-label" style="cursor:pointer;" transform="translate(10,451)"><text x="0" data-z-index="1" y="0"><tspan>&gt; Indikator-Details</tspan></text></g><g class="highcharts-label" style="cursor:pointer;" transform="translate(10,451)"><text x="0" data-z-index="1" y="0"><tspan>&gt; Indikator-Details</tspan></text></g><g class="highcharts-pane-group" data-z-index="0"></g><g class="highcharts-grid highcharts-xaxis-grid " data-z-index="1"><path fill="none" data-z-index="1" class="highcharts-grid-line" d="M 78.5 105 L 78.5 344" opacity="1"></path><path fill="none" data-z-index="1" class="highcharts-grid-line" d="M 114.5 105 L 114.5 344" opacity="1"></path><path fill="none" data-z-index="1" class="highcharts-grid-line" d="M 150.5 105 L 150.5 344" opacity="1"></path><path fill="none" data-z-index="1" class="highcharts-grid-line" d="M 186.5 105 L 186.5 344" opacity="1"></path><path fill="none" data-z-index="1" class="highcharts-grid-line" d="M 222.5 105 L 222.5 344" opacity="1"></path><path fill="none" data-z-index="1" class="highcharts-grid-line" d="M 258.5 105 L 258.5 344" opacity="1"></path><path fill="none" data-z-index="1" class="highcharts-grid-line" d="M 294.5 105 L 294.5 344" opacity="1"></path><path fill="none" data-z-index="1" class="highcharts-grid-line" d="M 330.5 105 L 330.5 344" opacity="1"></path><path fill="none" data-z-index="1" class="highcharts-grid-line" d="M 366.5 105 L 366.5 344" opacity="1"></path><path fill="none" data-z-index="1" class="highcharts-grid-line" d="M 402.5 105 L 402.5 344" opacity="1"></path><path fill="none" data-z-index="1" class="highcharts-grid-line" d="M 438.5 105 L 438.5 344" opacity="1"></path><path fill="none" data-z-index="1" class="highcharts-grid-line" d="M 474.5 105 L 474.5 344" opacity="1"></path><path fill="none" data-z-index="1" class="highcharts-grid-line" d="M 42.5 105 L 42.5 344" opacity="1"></path></g><g class="highcharts-grid highcharts-yaxis-grid " data-z-index="1"><path fill="none" stroke="#e6e6e6" stroke-width="1" data-z-index="1" class="highcharts-grid-line" d="M 43 344.5 L 475 344.5" opacity="1"></path><path fill="none" stroke="#e6e6e6" stroke-width="1" data-z-index="1" class="highcharts-grid-line" d="M 43 284.5 L 475 284.5" opacity="1"></path><path fill="none" stroke="#e6e6e6" stroke-width="1" data-z-index="1" class="highcharts-grid-line" d="M 43 225.5 L 475 225.5" opacity="1"></path><path fill="none" stroke="#e6e6e6" stroke-width="1" data-z-index="1" class="highcharts-grid-line" d="M 43 165.5 L 475 165.5" opacity="1"></path><path fill="none" stroke="#e6e6e6" stroke-width="1" data-z-index="1" class="highcharts-grid-line" d="M 43 104.5 L 475 104.5" opacity="1"></path></g><g class="highcharts-grid highcharts-yaxis-grid " data-z-index="1"></g><rect fill="none" class="highcharts-plot-border" data-z-index="1" x="43" y="105" width="432" height="239"></rect><g class="highcharts-axis highcharts-xaxis " data-z-index="2"><path fill="none" class="highcharts-axis-line" stroke="#ccd6eb" stroke-width="1" data-z-index="7" d="M 43 344.5 L 475 344.5"></path></g><g class="highcharts-axis highcharts-yaxis " data-z-index="2"><path fill="none" class="highcharts-axis-line" data-z-index="7" d="M 43 105 L 43 344"></path></g><g class="highcharts-axis highcharts-yaxis " data-z-index="2"><path fill="none" class="highcharts-axis-line" data-z-index="7" d="M 475 105 L 475 344"></path></g><g class="highcharts-series-group" data-z-index="3"><g data-z-index="0.1" class="highcharts-series highcharts-series-0 highcharts-column-series " transform="translate(43,105) scale(1 1)" clip-path="url(#highcharts-u1snmen-8)"><rect x="9" y="71" width="18" height="144" fill="#73B97C" class="highcharts-point"></rect><rect x="45" y="66" width="18" height="148" fill="#73B97C" class="highcharts-point"></rect><rect x="81" y="58" width="18" height="155" fill="#73B97C" class="highcharts-point"></rect><rect x="117" y="60" width="18" height="154" fill="#73B97C" class="highcharts-point"></rect><rect x="153" y="62" width="18" height="151" fill="#73B97C" class="highcharts-point"></rect><rect x="189" y="61" width="18" height="151" fill="#73B97C" class="highcharts-point"></rect><rect x="225" y="55" width="18" height="155" fill="#73B97C" class="highcharts-point"></rect><rect x="261" y="62" width="18" height="150" fill="#73B97C" class="highcharts-point"></rect><rect x="297" y="54" width="18" height="157" fill="#73B97C" class="highcharts-point"></rect><rect x="333" y="55" width="18" height="157" fill="#73B97C" class="highcharts-point"></rect><rect x="369" y="42" width="18" height="173" fill="#73B97C" class="highcharts-point"></rect><rect x="405" y="55" width="18" height="161" fill="#73B97C" class="highcharts-point"></rect></g><g data-z-index="0.1" class="highcharts-markers highcharts-series-0 highcharts-column-series " transform="translate(43,105) scale(1 1)" clip-path="none"></g><g data-z-index="0.1" class="highcharts-series highcharts-series-1 highcharts-column-series " transform="translate(43,105) scale(1 1)" clip-path="url(#highcharts-u1snmen-8)"><rect x="9" y="215" width="18" height="25" fill="#68AB2B" class="highcharts-point"></rect><rect x="45" y="214" width="18" height="26" fill="#68AB2B" class="highcharts-point"></rect><rect x="81" y="213" width="18" height="27" fill="#68AB2B" class="highcharts-point"></rect><rect x="117" y="214" width="18" height="26" fill="#68AB2B" class="highcharts-point"></rect><rect x="153" y="213" width="18" height="27" fill="#68AB2B" class="highcharts-point"></rect><rect x="189" y="212" width="18" height="28" fill="#68AB2B" class="highcharts-point"></rect><rect x="225" y="210" width="18" height="30" fill="#68AB2B" class="highcharts-point"></rect><rect x="261" y="212" width="18" height="28" fill="#68AB2B" class="highcharts-point"></rect><rect x="297" y="211" width="18" height="29" fill="#68AB2B" class="highcharts-point"></rect><rect x="333" y="212" width="18" height="28" fill="#68AB2B" class="highcharts-point"></rect><rect x="369" y="215" width="18" height="25" fill="#68AB2B" class="highcharts-point"></rect><rect x="405" y="216" width="18" height="24" fill="#68AB2B" class="highcharts-point"></rect></g><g data-z-index="0.1" class="highcharts-markers highcharts-series-1 highcharts-column-series " transform="translate(43,105) scale(1 1)" clip-path="none"></g></g><text x="10" text-anchor="start" class="highcharts-title" data-z-index="4" style="color:#000000;font-size:1.1666em;font-weight:bold;fill:#000000;" y="21"><tspan>Verbrennungsrückstände</tspan></text><text x="10" text-anchor="start" class="highcharts-subtitle" data-z-index="4" style="color:#000000;font-size:1em;fill:#000000;" y="40"><tspan>Tonnen, Basel-Stadt und Basel-Landschaft</tspan></text><g class="highcharts-axis-labels highcharts-xaxis-labels " data-z-index="7"><text x="61" style="color:#000000;cursor:default;font-size:0.91666em;fill:#000000;" text-anchor="middle" transform="translate(0,0)" y="363" opacity="1">2006</text><text x="97" style="color:#000000;cursor:default;font-size:0.91666em;fill:#000000;" text-anchor="middle" transform="translate(0,0)" y="363" opacity="1">2007</text><text x="133" style="color:#000000;cursor:default;font-size:0.91666em;fill:#000000;" text-anchor="middle" transform="translate(0,0)" y="363" opacity="1">2008</text><text x="169" style="color:#000000;cursor:default;font-size:0.91666em;fill:#000000;" text-anchor="middle" transform="translate(0,0)" y="363" opacity="1">2009</text><text x="205" style="color:#000000;cursor:default;font-size:0.91666em;fill:#000000;" text-anchor="middle" transform="translate(0,0)" y="363" opacity="1">2010</text><text x="241" style="color:#000000;cursor:default;font-size:0.91666em;fill:#000000;" text-anchor="middle" transform="translate(0,0)" y="363" opacity="1">2011</text><text x="277" style="color:#000000;cursor:default;font-size:0.91666em;fill:#000000;" text-anchor="middle" transform="translate(0,0)" y="363" opacity="1">2012</text><text x="313" style="color:#000000;cursor:default;font-size:0.91666em;fill:#000000;" text-anchor="middle" transform="translate(0,0)" y="363" opacity="1">2013</text><text x="349" style="color:#000000;cursor:default;font-size:0.91666em;fill:#000000;" text-anchor="middle" transform="translate(0,0)" y="363" opacity="1">2014</text><text x="385" style="color:#000000;cursor:default;font-size:0.91666em;fill:#000000;" text-anchor="middle" transform="translate(0,0)" y="363" opacity="1">2015</text><text x="421" style="color:#000000;cursor:default;font-size:0.91666em;fill:#000000;" text-anchor="middle" transform="translate(0,0)" y="363" opacity="1">2016</text><text x="457" style="color:#000000;cursor:default;font-size:0.91666em;fill:#000000;" text-anchor="middle" transform="translate(0,0)" y="363" opacity="1">2017</text></g><g class="highcharts-axis-labels highcharts-yaxis-labels " data-z-index="7"><text x="28" style="color:#000000;cursor:default;font-size:0.91666em;fill:#000000;" text-anchor="end" transform="translate(0,0)" y="349" opacity="1">0</text><text x="28" style="color:#000000;cursor:default;font-size:0.91666em;fill:#000000;" text-anchor="end" transform="translate(0,0)" y="289" opacity="1">10k</text><text x="28" style="color:#000000;cursor:default;font-size:0.91666em;fill:#000000;" text-anchor="end" transform="translate(0,0)" y="229" opacity="1">20k</text><text x="28" style="color:#000000;cursor:default;font-size:0.91666em;fill:#000000;" text-anchor="end" transform="translate(0,0)" y="169" opacity="1">30k</text><text x="28" style="color:#000000;cursor:default;font-size:0.91666em;fill:#000000;" text-anchor="end" transform="translate(0,0)" y="110" opacity="1">40k</text></g><g class="highcharts-axis-labels highcharts-yaxis-labels " data-z-index="7"></g><g class="highcharts-legend" data-z-index="7" transform="translate(31,55)"><rect fill="none" class="highcharts-legend-box" rx="0" ry="0" x="0" y="0" width="271" height="38" visibility="visible"></rect><g data-z-index="1"><g><g class="highcharts-legend-item highcharts-column-series highcharts-color-undefined highcharts-series-0" data-z-index="1" transform="translate(12,7)"><text x="21" y="15" style="color:#333333;font-size:1em;font-weight:normal;cursor:pointer;fill:#333333;" text-anchor="start" data-z-index="2"><tspan>Schlacke</tspan></text><rect x="2" y="4" width="12" height="12" fill="#73B97C" class="highcharts-point" data-z-index="3"></rect></g><g class="highcharts-legend-item highcharts-column-series highcharts-color-undefined highcharts-series-1" data-z-index="1" transform="translate(101.671875,7)"><text x="21" y="15" style="color:#333333;font-size:1em;font-weight:normal;cursor:pointer;fill:#333333;" text-anchor="start" data-z-index="2"><tspan>E-Filterstaub/Filterkuchen</tspan></text><rect x="2" y="4" width="12" height="12" fill="#68AB2B" class="highcharts-point" data-z-index="3"></rect></g></g></g></g><text x="10" class="highcharts-credits" text-anchor="start" data-z-index="8" style="cursor:default;color:#000000;font-size:0.8333em;fill:#000000;" y="400"><tspan>Quelle: Industrielle Werke Basel (IWB)</tspan></text></svg>