<?xml version="1.0" standalone="no"?><!DOCTYPE svg PUBLIC "-//W3C//DTD SVG 1.1//EN" "http://www.w3.org/Graphics/SVG/1.1/DTD/svg11.dtd"><svg xmlns:xlink="http://www.w3.org/1999/xlink" version="1.1" class="highcharts-root" style="font-family:Arial;font-size:12px;" xmlns="http://www.w3.org/2000/svg" viewBox="0 0 485 415"><desc>Created with Highstock 6.1.1</desc><defs><clipPath id="highcharts-zciv4ts-6"><rect x="0" y="0" width="410" height="208" fill="none"></rect></clipPath><clipPath id="highcharts-zciv4ts-7"><rect x="0" y="0" width="410" height="208" fill="none"></rect></clipPath></defs><rect fill="#fbfbfb" class="highcharts-background" x="0" y="0" width="485" height="428" rx="0" ry="0"></rect><rect fill="none" class="highcharts-plot-background" x="65" y="160" width="410" height="208"></rect><g class="highcharts-pane-group" data-z-index="0"></g><g class="highcharts-grid highcharts-xaxis-grid " data-z-index="1"><path fill="none" data-z-index="1" class="highcharts-grid-line" d="M 123.5 160 L 123.5 368" opacity="1"></path><path fill="none" data-z-index="1" class="highcharts-grid-line" d="M 181.5 160 L 181.5 368" opacity="1"></path><path fill="none" data-z-index="1" class="highcharts-grid-line" d="M 240.5 160 L 240.5 368" opacity="1"></path><path fill="none" data-z-index="1" class="highcharts-grid-line" d="M 298.5 160 L 298.5 368" opacity="1"></path><path fill="none" data-z-index="1" class="highcharts-grid-line" d="M 357.5 160 L 357.5 368" opacity="1"></path><path fill="none" data-z-index="1" class="highcharts-grid-line" d="M 415.5 160 L 415.5 368" opacity="1"></path><path fill="none" data-z-index="1" class="highcharts-grid-line" d="M 474.5 160 L 474.5 368" opacity="1"></path><path fill="none" data-z-index="1" class="highcharts-grid-line" d="M 64.5 160 L 64.5 368" opacity="1"></path></g><g class="highcharts-grid highcharts-yaxis-grid " data-z-index="1"><path fill="none" stroke="#B9CFD7" stroke-width="0.5" data-z-index="1" class="highcharts-grid-line" d="M 65 368.25 L 475 368.25" opacity="1"></path><path fill="none" stroke="#B9CFD7" stroke-width="0.5" data-z-index="1" class="highcharts-grid-line" d="M 65 316.25 L 475 316.25" opacity="1"></path><path fill="none" stroke="#B9CFD7" stroke-width="0.5" data-z-index="1" class="highcharts-grid-line" d="M 65 264.25 L 475 264.25" opacity="1"></path><path fill="none" stroke="#B9CFD7" stroke-width="0.5" data-z-index="1" class="highcharts-grid-line" d="M 65 212.25 L 475 212.25" opacity="1"></path><path fill="none" stroke="#B9CFD7" stroke-width="0.5" data-z-index="1" class="highcharts-grid-line" d="M 65 159.75 L 475 159.75" opacity="1"></path></g><rect fill="none" class="highcharts-plot-border" data-z-index="1" x="65" y="160" width="410" height="208"></rect><g class="highcharts-axis highcharts-xaxis " data-z-index="2"><path fill="none" class="highcharts-axis-line" stroke="#B9CFD7" stroke-width="0.5" data-z-index="7" d="M 65 368.25 L 475 368.25"></path></g><g class="highcharts-axis highcharts-yaxis " data-z-index="2"><path fill="none" class="highcharts-axis-line" data-z-index="7" d="M 65 160 L 65 368"></path></g><g class="highcharts-series-group" data-z-index="3"><g data-z-index="0.1" class="highcharts-series highcharts-series-0 highcharts-column-series " transform="translate(65,160) scale(1 1)" clip-path="url(#highcharts-zciv4ts-7)"><rect x="15" y="129" width="29" height="80" fill="#933F8D" class="highcharts-point"></rect><rect x="74" y="128" width="29" height="81" fill="#933F8D" class="highcharts-point"></rect><rect x="132" y="130" width="29" height="79" fill="#933F8D" class="highcharts-point"></rect><rect x="191" y="127" width="29" height="82" fill="#933F8D" class="highcharts-point"></rect><rect x="250" y="129" width="29" height="80" fill="#933F8D" class="highcharts-point"></rect><rect x="308" y="127" width="29" height="82" fill="#933F8D" class="highcharts-point"></rect><rect x="367" y="128" width="29" height="81" fill="#933F8D" class="highcharts-point"></rect></g><g data-z-index="0.1" class="highcharts-markers highcharts-series-0 highcharts-column-series " transform="translate(65,160) scale(1 1)" clip-path="none"></g><g data-z-index="0.1" class="highcharts-series highcharts-series-1 highcharts-column-series " transform="translate(65,160) scale(1 1)" clip-path="url(#highcharts-zciv4ts-7)"><rect x="15" y="105" width="29" height="24" fill="#B475AB" class="highcharts-point"></rect><rect x="74" y="102" width="29" height="26" fill="#B475AB" class="highcharts-point"></rect><rect x="132" y="103" width="29" height="27" fill="#B475AB" class="highcharts-point"></rect><rect x="191" y="100" width="29" height="27" fill="#B475AB" class="highcharts-point"></rect><rect x="250" y="100" width="29" height="29" fill="#B475AB" class="highcharts-point"></rect><rect x="308" y="100" width="29" height="27" fill="#B475AB" class="highcharts-point"></rect><rect x="367" y="100" width="29" height="28" fill="#B475AB" class="highcharts-point"></rect></g><g data-z-index="0.1" class="highcharts-markers highcharts-series-1 highcharts-column-series " transform="translate(65,160) scale(1 1)" clip-path="none"></g><g data-z-index="0.1" class="highcharts-series highcharts-series-2 highcharts-column-series " transform="translate(65,160) scale(1 1)" clip-path="url(#highcharts-zciv4ts-7)"><rect x="15" y="59" width="29" height="46" fill="#FABD24" class="highcharts-point"></rect><rect x="74" y="53" width="29" height="49" fill="#FABD24" class="highcharts-point"></rect><rect x="132" y="53" width="29" height="50" fill="#FABD24" class="highcharts-point"></rect><rect x="191" y="49" width="29" height="51" fill="#FABD24" class="highcharts-point"></rect><rect x="250" y="47" width="29" height="53" fill="#FABD24" class="highcharts-point"></rect><rect x="308" y="47" width="29" height="53" fill="#FABD24" class="highcharts-point"></rect><rect x="367" y="45" width="29" height="55" fill="#FABD24" class="highcharts-point"></rect></g><g data-z-index="0.1" class="highcharts-markers highcharts-series-2 highcharts-column-series " transform="translate(65,160) scale(1 1)" clip-path="none"></g><g data-z-index="0.1" class="highcharts-series highcharts-series-3 highcharts-column-series " transform="translate(65,160) scale(1 1)" clip-path="url(#highcharts-zciv4ts-7)"><rect x="15" y="55" width="29" height="4" fill="#FFDA80" class="highcharts-point"></rect><rect x="74" y="48" width="29" height="5" fill="#FFDA80" class="highcharts-point"></rect><rect x="132" y="48" width="29" height="5" fill="#FFDA80" class="highcharts-point"></rect><rect x="191" y="44" width="29" height="5" fill="#FFDA80" class="highcharts-point"></rect><rect x="250" y="42" width="29" height="5" fill="#FFDA80" class="highcharts-point"></rect><rect x="308" y="42" width="29" height="5" fill="#FFDA80" class="highcharts-point"></rect><rect x="367" y="41" width="29" height="4" fill="#FFDA80" class="highcharts-point"></rect></g><g data-z-index="0.1" class="highcharts-markers highcharts-series-3 highcharts-column-series " transform="translate(65,160) scale(1 1)" clip-path="none"></g><g data-z-index="0.1" class="highcharts-series highcharts-series-4 highcharts-column-series " transform="translate(65,160) scale(1 1)" clip-path="url(#highcharts-zciv4ts-7)"><rect x="132" y="48" width="29" height="0" fill="#4BACC6" class="highcharts-point"></rect><rect x="191" y="44" width="29" height="0" fill="#4BACC6" class="highcharts-point"></rect><rect x="250" y="42" width="29" height="0" fill="#4BACC6" class="highcharts-point"></rect><rect x="308" y="42" width="29" height="0" fill="#4BACC6" class="highcharts-point"></rect><rect x="367" y="41" width="29" height="0" fill="#4BACC6" class="highcharts-point"></rect></g><g data-z-index="0.1" class="highcharts-markers highcharts-series-4 highcharts-column-series " transform="translate(65,160) scale(1 1)" clip-path="none"></g></g><text x="10" text-anchor="start" class="highcharts-title" data-z-index="4" style="color:#000000;font-size:14px;font-weight:bold;fill:#000000;" y="21"><tspan>Personen mit und ohne Migrationshintergrund</tspan></text><text x="10" text-anchor="start" class="highcharts-subtitle" data-z-index="4" style="color:#000000;font-size:12px;font-weight:normal;font-family:Arial;fill:#000000;" y="40"><tspan>nach Staatsangehörigkeit, Basel-Stadt</tspan></text><g class="highcharts-legend" data-z-index="7" transform="translate(65,55)"><rect fill="none" class="highcharts-legend-box" rx="0" ry="0" x="0" y="0" width="308" height="90" visibility="visible"></rect><g data-z-index="1"><g><g class="highcharts-legend-item highcharts-column-series highcharts-color-undefined highcharts-series-4" data-z-index="1" transform="translate(0,-5)"><text x="21" style="color:#333333;font-size:12px;font-weight:normal;cursor:pointer;fill:#333333;" text-anchor="start" data-z-index="2" y="15"><tspan>Ausländer ohne Migrationshintergrund (3. Generation)</tspan></text><rect x="2" y="4" width="12" height="12" fill="#4BACC6" class="highcharts-point" data-z-index="3"></rect></g><g class="highcharts-legend-item highcharts-column-series highcharts-color-undefined highcharts-series-3" data-z-index="1" transform="translate(0,14)"><text x="21" y="15" style="color:#333333;font-size:12px;font-weight:normal;cursor:pointer;fill:#333333;" text-anchor="start" data-z-index="2"><tspan>Ausländer mit Migrationshintergrund (2. Generation)</tspan></text><rect x="2" y="4" width="12" height="12" fill="#FFDA80" class="highcharts-point" data-z-index="3"></rect></g><g class="highcharts-legend-item highcharts-column-series highcharts-color-undefined highcharts-series-2" data-z-index="1" transform="translate(0,33)"><text x="21" y="15" style="color:#333333;font-size:12px;font-weight:normal;cursor:pointer;fill:#333333;" text-anchor="start" data-z-index="2"><tspan>Ausländer mit Migrationshintergrund (1. Generation)</tspan></text><rect x="2" y="4" width="12" height="12" fill="#FABD24" class="highcharts-point" data-z-index="3"></rect></g><g class="highcharts-legend-item highcharts-column-series highcharts-color-undefined highcharts-series-1" data-z-index="1" transform="translate(0,52)"><text x="21" y="15" style="color:#333333;font-size:12px;font-weight:normal;cursor:pointer;fill:#333333;" text-anchor="start" data-z-index="2"><tspan>Schweizer mit Migrationshintergrund</tspan></text><rect x="2" y="4" width="12" height="12" fill="#B475AB" class="highcharts-point" data-z-index="3"></rect></g><g class="highcharts-legend-item highcharts-column-series highcharts-color-undefined highcharts-series-0" data-z-index="1" transform="translate(0,71)"><text x="21" y="15" style="color:#333333;font-size:12px;font-weight:normal;cursor:pointer;fill:#333333;" text-anchor="start" data-z-index="2"><tspan>Schweizer ohne Migrationshintergrund</tspan></text><rect x="2" y="4" width="12" height="12" fill="#933F8D" class="highcharts-point" data-z-index="3"></rect></g></g></g></g><g class="highcharts-axis-labels highcharts-xaxis-labels " data-z-index="7"><text x="94.28571428571573" style="color:#000000;cursor:default;font-size:11px;fill:#000000;" text-anchor="middle" transform="translate(0,0)" y="387" opacity="1">2010</text><text x="152.85714285714573" style="color:#000000;cursor:default;font-size:11px;fill:#000000;" text-anchor="middle" transform="translate(0,0)" y="387" opacity="1">2011</text><text x="211.42857142857574" style="color:#000000;cursor:default;font-size:11px;fill:#000000;" text-anchor="middle" transform="translate(0,0)" y="387" opacity="1">2012</text><text x="269.99999999999574" style="color:#000000;cursor:default;font-size:11px;fill:#000000;" text-anchor="middle" transform="translate(0,0)" y="387" opacity="1">2013</text><text x="328.5714285714257" style="color:#000000;cursor:default;font-size:11px;fill:#000000;" text-anchor="middle" transform="translate(0,0)" y="387" opacity="1">2014</text><text x="387.14285714285575" style="color:#000000;cursor:default;font-size:11px;fill:#000000;" text-anchor="middle" transform="translate(0,0)" y="387" opacity="1">2015</text><text x="445.7142857142857" style="color:#000000;cursor:default;font-size:11px;fill:#000000;" text-anchor="middle" transform="translate(0,0)" y="387" opacity="1">2016</text></g><g class="highcharts-axis-labels highcharts-yaxis-labels " data-z-index="7"><text x="50" style="color:#000000;cursor:default;font-size:11px;fill:#000000;" text-anchor="end" transform="translate(0,0)" y="373" opacity="1">0</text><text x="50" style="color:#000000;cursor:default;font-size:11px;fill:#000000;" text-anchor="end" transform="translate(0,0)" y="321" opacity="1"><tspan>50 000</tspan></text><text x="50" style="color:#000000;cursor:default;font-size:11px;fill:#000000;" text-anchor="end" transform="translate(0,0)" y="269" opacity="1"><tspan>100 000</tspan></text><text x="50" style="color:#000000;cursor:default;font-size:11px;fill:#000000;" text-anchor="end" transform="translate(0,0)" y="217" opacity="1"><tspan>150 000</tspan></text><text x="50" style="color:#000000;cursor:default;font-size:11px;fill:#000000;" text-anchor="end" transform="translate(0,0)" y="165" opacity="1"><tspan>200 000</tspan></text></g><text x="10" class="highcharts-credits" text-anchor="start" data-z-index="8" style="cursor:default;color:#000000;font-size:10px;fill:#000000;" y="403"><tspan>Quelle: Bundesamt für Statistik (BFS), Strukturerhebung (SE).</tspan><tspan x="10" dy="13">Zuletzt geändert: 2018-9-14</tspan></text></svg>