<?xml version="1.0" standalone="no"?><!DOCTYPE svg PUBLIC "-//W3C//DTD SVG 1.1//EN" "http://www.w3.org/Graphics/SVG/1.1/DTD/svg11.dtd"><svg xmlns:xlink="http://www.w3.org/1999/xlink" version="1.1" class="highcharts-root" style="font-family:Arial;font-size:12px;" xmlns="http://www.w3.org/2000/svg" viewBox="0 0 485 415"><desc>Created with Highcharts 5.0.6</desc><defs><clipPath id="highcharts-o1kp8th-1"><rect x="0" y="0" width="200" height="300" fill="none"></rect></clipPath></defs><rect fill="#fbfbfb" class="highcharts-background" x="0" y="0" width="485" height="415" rx="0" ry="0"></rect><rect fill="none" class="highcharts-plot-background" x="175" y="163" width="300" height="200"></rect><g class="highcharts-grid highcharts-xaxis-grid "><path fill="none" class="highcharts-grid-line" d="M 175 188.5 L 475 188.5" opacity="1"></path><path fill="none" class="highcharts-grid-line" d="M 175 213.5 L 475 213.5" opacity="1"></path><path fill="none" class="highcharts-grid-line" d="M 175 238.5 L 475 238.5" opacity="1"></path><path fill="none" class="highcharts-grid-line" d="M 175 263.5 L 475 263.5" opacity="1"></path><path fill="none" class="highcharts-grid-line" d="M 175 288.5 L 475 288.5" opacity="1"></path><path fill="none" class="highcharts-grid-line" d="M 175 313.5 L 475 313.5" opacity="1"></path><path fill="none" class="highcharts-grid-line" d="M 175 338.5 L 475 338.5" opacity="1"></path><path fill="none" class="highcharts-grid-line" d="M 175 363.5 L 475 363.5" opacity="1"></path><path fill="none" class="highcharts-grid-line" d="M 175 163.5 L 475 163.5" opacity="1"></path></g><g class="highcharts-grid highcharts-yaxis-grid "><path fill="none" stroke="#e6e6e6" stroke-width="1" class="highcharts-grid-line" d="M 174.5 163 L 174.5 363" opacity="1"></path><path fill="none" stroke="#e6e6e6" stroke-width="1" class="highcharts-grid-line" d="M 234.5 163 L 234.5 363" opacity="1"></path><path fill="none" stroke="#e6e6e6" stroke-width="1" class="highcharts-grid-line" d="M 294.5 163 L 294.5 363" opacity="1"></path><path fill="none" stroke="#e6e6e6" stroke-width="1" class="highcharts-grid-line" d="M 354.5 163 L 354.5 363" opacity="1"></path><path fill="none" stroke="#e6e6e6" stroke-width="1" class="highcharts-grid-line" d="M 414.5 163 L 414.5 363" opacity="1"></path><path fill="none" stroke="#e6e6e6" stroke-width="1" class="highcharts-grid-line" d="M 475.5 163 L 475.5 363" opacity="1"></path></g><rect fill="none" class="highcharts-plot-border" x="175" y="163" width="300" height="200"></rect><g class="highcharts-axis highcharts-xaxis "><path fill="none" class="highcharts-tick" stroke="#FFFFFF" stroke-width="1" d="M 175 188.5 L 165 188.5" opacity="1"></path><path fill="none" class="highcharts-tick" stroke="#FFFFFF" stroke-width="1" d="M 175 213.5 L 165 213.5" opacity="1"></path><path fill="none" class="highcharts-tick" stroke="#FFFFFF" stroke-width="1" d="M 175 238.5 L 165 238.5" opacity="1"></path><path fill="none" class="highcharts-tick" stroke="#FFFFFF" stroke-width="1" d="M 175 263.5 L 165 263.5" opacity="1"></path><path fill="none" class="highcharts-tick" stroke="#FFFFFF" stroke-width="1" d="M 175 288.5 L 165 288.5" opacity="1"></path><path fill="none" class="highcharts-tick" stroke="#FFFFFF" stroke-width="1" d="M 175 313.5 L 165 313.5" opacity="1"></path><path fill="none" class="highcharts-tick" stroke="#FFFFFF" stroke-width="1" d="M 175 338.5 L 165 338.5" opacity="1"></path><path fill="none" class="highcharts-tick" stroke="#FFFFFF" stroke-width="1" d="M 175 363.5 L 165 363.5" opacity="1"></path><path fill="none" class="highcharts-tick" stroke="#FFFFFF" stroke-width="1" d="M 175 162.5 L 165 162.5" opacity="1"></path><path fill="none" class="highcharts-axis-line" stroke="#ccd6eb" stroke-width="1" d="M 174.5 163 L 174.5 363"></path></g><g class="highcharts-axis highcharts-yaxis "><path fill="none" class="highcharts-axis-line" d="M 175 363 L 475 363"></path></g><g class="highcharts-series-group"><g class="highcharts-series highcharts-series-0 highcharts-column-series highcharts-color-undefined highcharts-tracker" transform="translate(475,363) rotate(90) scale(-1,1) scale(1 1)" width="300" height="200" clip-path="url(#highcharts-o1kp8th-1)"><rect x="181.5" y="299.5" width="12" height="1" fill="#256370" class="highcharts-point" stroke="#ffffff" stroke-width="1"></rect><rect x="156.5" y="299.5" width="12" height="1" fill="#256370" class="highcharts-point" stroke="#ffffff" stroke-width="1"></rect><rect x="106.5" y="296.5" width="12" height="4" fill="#256370" class="highcharts-point" stroke="#ffffff" stroke-width="1"></rect><rect x="81.5" y="292.5" width="12" height="8" fill="#256370" class="highcharts-point" stroke="#ffffff" stroke-width="1"></rect><rect x="31.5" y="291.5" width="12" height="9" fill="#256370" class="highcharts-point" stroke="#ffffff" stroke-width="1"></rect><rect x="6.5" y="289.5" width="12" height="11" fill="#256370" class="highcharts-point" stroke="#ffffff" stroke-width="1"></rect></g><g class="highcharts-markers highcharts-series-0 highcharts-column-series highcharts-color-undefined " transform="translate(475,363) rotate(90) scale(-1,1) scale(1 1)" width="300" height="200" clip-path="none"></g><g class="highcharts-series highcharts-series-1 highcharts-column-series highcharts-color-undefined highcharts-tracker" transform="translate(475,363) rotate(90) scale(-1,1) scale(1 1)" width="300" height="200" clip-path="url(#highcharts-o1kp8th-1)"><rect x="181.5" y="290.5" width="12" height="9" fill="#71A3B5" class="highcharts-point" stroke="#ffffff" stroke-width="1"></rect><rect x="156.5" y="289.5" width="12" height="10" fill="#71A3B5" class="highcharts-point" stroke="#ffffff" stroke-width="1"></rect><rect x="106.5" y="264.5" width="12" height="32" fill="#71A3B5" class="highcharts-point" stroke="#ffffff" stroke-width="1"></rect><rect x="81.5" y="256.5" width="12" height="36" fill="#71A3B5" class="highcharts-point" stroke="#ffffff" stroke-width="1"></rect><rect x="31.5" y="241.5" width="12" height="50" fill="#71A3B5" class="highcharts-point" stroke="#ffffff" stroke-width="1"></rect><rect x="6.5" y="232.5" width="12" height="57" fill="#71A3B5" class="highcharts-point" stroke="#ffffff" stroke-width="1"></rect></g><g class="highcharts-markers highcharts-series-1 highcharts-column-series highcharts-color-undefined " transform="translate(475,363) rotate(90) scale(-1,1) scale(1 1)" width="300" height="200" clip-path="none"></g><g class="highcharts-series highcharts-series-2 highcharts-column-series highcharts-color-undefined highcharts-tracker" transform="translate(475,363) rotate(90) scale(-1,1) scale(1 1)" width="300" height="200" clip-path="url(#highcharts-o1kp8th-1)"><rect x="181.5" y="264.5" width="12" height="26" fill="#FFBB58" class="highcharts-point" stroke="#ffffff" stroke-width="1"></rect><rect x="156.5" y="260.5" width="12" height="29" fill="#FFBB58" class="highcharts-point" stroke="#ffffff" stroke-width="1"></rect><rect x="106.5" y="215.5" width="12" height="49" fill="#FFBB58" class="highcharts-point" stroke="#ffffff" stroke-width="1"></rect><rect x="81.5" y="198.5" width="12" height="58" fill="#FFBB58" class="highcharts-point" stroke="#ffffff" stroke-width="1"></rect><rect x="31.5" y="181.5" width="12" height="60" fill="#FFBB58" class="highcharts-point" stroke="#ffffff" stroke-width="1"></rect><rect x="6.5" y="162.5" width="12" height="70" fill="#FFBB58" class="highcharts-point" stroke="#ffffff" stroke-width="1"></rect></g><g class="highcharts-markers highcharts-series-2 highcharts-column-series highcharts-color-undefined " transform="translate(475,363) rotate(90) scale(-1,1) scale(1 1)" width="300" height="200" clip-path="none"></g><g class="highcharts-series highcharts-series-3 highcharts-column-series highcharts-color-undefined highcharts-tracker" transform="translate(475,363) rotate(90) scale(-1,1) scale(1 1)" width="300" height="200" clip-path="url(#highcharts-o1kp8th-1)"><rect x="181.5" y="53.5" width="12" height="211" fill="#FF8028" class="highcharts-point" stroke="#ffffff" stroke-width="1"></rect><rect x="156.5" y="44.5" width="12" height="216" fill="#FF8028" class="highcharts-point" stroke="#ffffff" stroke-width="1"></rect><rect x="106.5" y="43.5" width="12" height="172" fill="#FF8028" class="highcharts-point" stroke="#ffffff" stroke-width="1"></rect><rect x="81.5" y="35.5" width="12" height="163" fill="#FF8028" class="highcharts-point" stroke="#ffffff" stroke-width="1"></rect><rect x="31.5" y="41.5" width="12" height="140" fill="#FF8028" class="highcharts-point" stroke="#ffffff" stroke-width="1"></rect><rect x="6.5" y="32.5" width="12" height="130" fill="#FF8028" class="highcharts-point" stroke="#ffffff" stroke-width="1"></rect></g><g class="highcharts-markers highcharts-series-3 highcharts-column-series highcharts-color-undefined " transform="translate(475,363) rotate(90) scale(-1,1) scale(1 1)" width="300" height="200" clip-path="none"></g><g class="highcharts-series highcharts-series-4 highcharts-column-series highcharts-color-undefined highcharts-tracker" transform="translate(475,363) rotate(90) scale(-1,1) scale(1 1)" width="300" height="200" clip-path="url(#highcharts-o1kp8th-1)"><rect x="181.5" y="44.5" width="12" height="9" fill="#C8C8C8" class="highcharts-point" stroke="#ffffff" stroke-width="1"></rect><rect x="156.5" y="37.5" width="12" height="7" fill="#C8C8C8" class="highcharts-point" stroke="#ffffff" stroke-width="1"></rect><rect x="106.5" y="38.5" width="12" height="5" fill="#C8C8C8" class="highcharts-point" stroke="#ffffff" stroke-width="1"></rect><rect x="81.5" y="31.5" width="12" height="4" fill="#C8C8C8" class="highcharts-point" stroke="#ffffff" stroke-width="1"></rect><rect x="31.5" y="35.5" width="12" height="6" fill="#C8C8C8" class="highcharts-point" stroke="#ffffff" stroke-width="1"></rect><rect x="6.5" y="28.5" width="12" height="4" fill="#C8C8C8" class="highcharts-point" stroke="#ffffff" stroke-width="1"></rect></g><g class="highcharts-markers highcharts-series-4 highcharts-column-series highcharts-color-undefined " transform="translate(475,363) rotate(90) scale(-1,1) scale(1 1)" width="300" height="200" clip-path="none"></g><g class="highcharts-series highcharts-series-5 highcharts-column-series highcharts-color-undefined highcharts-tracker" transform="translate(475,363) rotate(90) scale(-1,1) scale(1 1)" width="300" height="200" clip-path="url(#highcharts-o1kp8th-1)"><rect x="181.5" y="-0.5" width="12" height="45" fill="#8A8A8A" class="highcharts-point" stroke="#ffffff" stroke-width="1"></rect><rect x="156.5" y="-0.5" width="12" height="38" fill="#8A8A8A" class="highcharts-point" stroke="#ffffff" stroke-width="1"></rect><rect x="106.5" y="-0.5" width="12" height="39" fill="#8A8A8A" class="highcharts-point" stroke="#ffffff" stroke-width="1"></rect><rect x="81.5" y="-0.5" width="12" height="32" fill="#8A8A8A" class="highcharts-point" stroke="#ffffff" stroke-width="1"></rect><rect x="31.5" y="-0.5" width="12" height="36" fill="#8A8A8A" class="highcharts-point" stroke="#ffffff" stroke-width="1"></rect><rect x="6.5" y="-0.5" width="12" height="29" fill="#8A8A8A" class="highcharts-point" stroke="#ffffff" stroke-width="1"></rect></g><g class="highcharts-markers highcharts-series-5 highcharts-column-series highcharts-color-undefined " transform="translate(475,363) rotate(90) scale(-1,1) scale(1 1)" width="300" height="200" clip-path="none"></g></g><text x="10" text-anchor="start" class="highcharts-title" style="color:#000000;font-size:14px;font-weight:bold;fill:#000000;width:421px;" y="21"><tspan>I.50.2.0001 Materielle oder finanzielle</tspan><tspan dy="17" x="10">Hilfeleistungen durch Arbeitskollegen, Freunde und</tspan><tspan dy="17" x="10">Bekannte oder Nachbarn</tspan><title>I.50.2.0001 Materielle oder finanzielle Hilfeleistungen durch Arbeitskollegen, Freunde und Bekannte oder Nachbarn</title></text><text x="10" text-anchor="start" class="highcharts-subtitle" style="color:#000000;font-size:12px;fill:#000000;width:421px;" y="76"><tspan>«Erhalten Sie oder ein anderes Haushaltsmitglied (finanzielle oder</tspan><tspan dy="15" x="10">materielle) Hilfeleistungen von Arbeitskollegen,</tspan><tspan dy="15" x="10">Freunden/Bekannten oder Nachbarn?»</tspan><title>«Erhalten Sie oder ein anderes Haushaltsmitglied (finanzielle oder materielle) Hilfeleistungen von Arbeitskollegen, Freunden/Bekannten oder Nachbarn?»</title></text><g class="highcharts-legend" transform="translate(155,80)"><rect fill="none" class="highcharts-legend-box" rx="0" ry="0" x="0" y="0" width="296" height="71" visibility="visible"></rect><g><g><g class="highcharts-legend-item highcharts-column-series highcharts-color-undefined highcharts-series-0" transform="translate(8,3)"><text x="21" style="color:#333333;font-size:12px;font-weight:normal;cursor:pointer;fill:#333333;" text-anchor="start" y="15"><tspan>Ja, regelmässig</tspan></text><rect x="2" y="4" width="12" height="12" fill="#256370" class="highcharts-point"></rect></g><g class="highcharts-legend-item highcharts-column-series highcharts-color-undefined highcharts-series-1" transform="translate(158,3)"><text x="21" y="15" style="color:#333333;font-size:12px;font-weight:normal;cursor:pointer;fill:#333333;" text-anchor="start"><tspan>Ja, hin und wieder</tspan></text><rect x="2" y="4" width="12" height="12" fill="#71A3B5" class="highcharts-point"></rect></g><g class="highcharts-legend-item highcharts-column-series highcharts-color-undefined highcharts-series-2" transform="translate(8,23)"><text x="21" y="15" style="color:#333333;font-size:12px;font-weight:normal;cursor:pointer;fill:#333333;" text-anchor="start"><tspan>Ja, selten</tspan></text><rect x="2" y="4" width="12" height="12" fill="#FFBB58" class="highcharts-point"></rect></g><g class="highcharts-legend-item highcharts-column-series highcharts-color-undefined highcharts-series-3" transform="translate(158,23)"><text x="21" y="15" style="color:#333333;font-size:12px;font-weight:normal;cursor:pointer;fill:#333333;" text-anchor="start"><tspan>Nein, nie</tspan></text><rect x="2" y="4" width="12" height="12" fill="#FF8028" class="highcharts-point"></rect></g><g class="highcharts-legend-item highcharts-column-series highcharts-color-undefined highcharts-series-4" transform="translate(8,43)"><text x="21" y="15" style="color:#333333;font-size:12px;font-weight:normal;cursor:pointer;fill:#333333;" text-anchor="start"><tspan>Nein, nicht möglich</tspan></text><rect x="2" y="4" width="12" height="12" fill="#C8C8C8" class="highcharts-point"></rect></g><g class="highcharts-legend-item highcharts-column-series highcharts-color-undefined highcharts-series-5" transform="translate(158,43)"><text x="21" y="15" style="color:#333333;font-size:12px;font-weight:normal;cursor:pointer;fill:#333333;" text-anchor="start"><tspan>Keine Angabe</tspan></text><rect x="2" y="4" width="12" height="12" fill="#8A8A8A" class="highcharts-point"></rect></g></g></g></g><g class="highcharts-axis-labels highcharts-xaxis-labels "><text x="160" style="color:#000000;cursor:default;font-size:11px;fill:#000000;width:150px;text-overflow:clip;" text-anchor="end" transform="translate(0,0)" y="180" opacity="1"><tspan>Arbeitskollegen 2013</tspan></text><text x="160" style="color:#000000;cursor:default;font-size:11px;fill:#000000;width:150px;text-overflow:clip;" text-anchor="end" transform="translate(0,0)" y="205" opacity="1"><tspan>Arbeitskollegen 2009</tspan></text><text x="160" style="color:#000000;cursor:default;font-size:11px;fill:#000000;width:150px;text-overflow:clip;" text-anchor="end" transform="translate(0,0)" y="237" opacity="1"></text><text x="160" style="color:#000000;cursor:default;font-size:11px;fill:#000000;width:150px;text-overflow:clip;" text-anchor="end" transform="translate(0,0)" y="255" opacity="1"><tspan>Nachbarn 2013</tspan></text><text x="160" style="color:#000000;cursor:default;font-size:11px;fill:#000000;width:150px;text-overflow:clip;" text-anchor="end" transform="translate(0,0)" y="280" opacity="1"><tspan>Nachbarn 2009</tspan></text><text x="160" style="color:#000000;cursor:default;font-size:11px;fill:#000000;width:150px;text-overflow:clip;" text-anchor="end" transform="translate(0,0)" y="312" opacity="1"></text><text x="160" style="color:#000000;cursor:default;font-size:11px;fill:#000000;width:150px;text-overflow:ellipsis;" text-anchor="end" transform="translate(0,0)" y="330" opacity="1"><tspan>Freunde und Bekannte 2…</tspan><title>Freunde und Bekannte 2013</title></text><text x="160" style="color:#000000;cursor:default;font-size:11px;fill:#000000;width:150px;text-overflow:ellipsis;" text-anchor="end" transform="translate(0,0)" y="355" opacity="1"><tspan>Freunde und Bekannte 2…</tspan><title>Freunde und Bekannte 2009</title></text></g><g class="highcharts-axis-labels highcharts-yaxis-labels "><text x="175" style="color:#000000;cursor:default;font-size:11px;fill:#000000;width:60;text-overflow:ellipsis;" text-anchor="middle" transform="translate(0,0)" y="382" opacity="1"><tspan>0%</tspan></text><text x="235" style="color:#000000;cursor:default;font-size:11px;fill:#000000;width:60;text-overflow:ellipsis;" text-anchor="middle" transform="translate(0,0)" y="382" opacity="1"><tspan>20%</tspan></text><text x="295" style="color:#000000;cursor:default;font-size:11px;fill:#000000;width:60;text-overflow:ellipsis;" text-anchor="middle" transform="translate(0,0)" y="382" opacity="1"><tspan>40%</tspan></text><text x="355" style="color:#000000;cursor:default;font-size:11px;fill:#000000;width:60;text-overflow:ellipsis;" text-anchor="middle" transform="translate(0,0)" y="382" opacity="1"><tspan>60%</tspan></text><text x="415" style="color:#000000;cursor:default;font-size:11px;fill:#000000;width:60;text-overflow:ellipsis;" text-anchor="middle" transform="translate(0,0)" y="382" opacity="1"><tspan>80%</tspan></text><text x="460" style="color:#000000;cursor:default;font-size:11px;fill:#000000;width:30;text-overflow:ellipsis;" text-anchor="middle" transform="translate(0,0)" y="382" opacity="1"><tspan>10…</tspan><title>100%</title></text></g><text x="10" class="highcharts-credits" text-anchor="start" style="cursor:default;color:#000000;font-size:10px;fill:#000000;" y="400"><tspan>Quelle: Statistisches Amt Basel-Stadt, kantonale Familienbefragung: F74c-e</tspan></text></svg>