<svg class="highcharts-root" xmlns="http://www.w3.org/2000/svg" viewBox="0 0 485 415" font-family="Arial" font-size="12">
    <defs>
        <clipPath id="a">
            <path fill="none" d="M0 0h264v263H0z"/>
        </clipPath>
    </defs>
    <rect fill="#fbfbfb" class="highcharts-background" width="485" height="415" rx="0" ry="0"/>
    <path fill="none" class="highcharts-plot-background" d="M53 87h264v263H53z"/>
    <g class="highcharts-grid highcharts-xaxis-grid">
        <path fill="none" class="highcharts-grid-line" d="M105.5 87v263m53-263v263m52-263v263m53-263v263m53-263v263M52.5 87v263"/>
    </g>
    <g class="highcharts-grid highcharts-yaxis-grid">
        <path fill="none" stroke="#e6e6e6" class="highcharts-grid-line" d="M53 350.5h264m-264-26h264m-264-27h264m-264-26h264m-264-26h264m-264-26h264m-264-27h264m-264-26h264m-264-26h264m-264-27h264m-264-27h264"/>
    </g>
    <path fill="none" class="highcharts-plot-border" d="M53 87h264v263H53z"/>
    <g class="highcharts-axis highcharts-xaxis">
        <path fill="none" class="highcharts-tick" stroke="#FFF" d="M105.5 350v10m53-10v10m52-10v10m53-10v10m54-10v10m-265-10v10"/>
        <path fill="none" class="highcharts-axis-line" stroke="#ccd6eb" d="M53 350.5h264"/>
    </g>
    <g class="highcharts-axis highcharts-yaxis">
        <path fill="none" class="highcharts-axis-line" d="M53 87v263"/>
    </g>
    <g class="highcharts-series-group">
        <g class="highcharts-series highcharts-series-0 highcharts-column-series highcharts-color-undefined highcharts-tracker" transform="translate(53 87)" clip-path="url(#a)">
            <path fill="#007A2F" class="highcharts-point" stroke="#fff" d="M13.5 204.5h26v59h-26zm53-2h26v61h-26zm52 10h26v51h-26zm53-17h26v68h-26zm53 6h26v62h-26z"/>
        </g>
        <g class="highcharts-series highcharts-series-1 highcharts-column-series highcharts-color-undefined highcharts-tracker" transform="translate(53 87)" clip-path="url(#a)">
            <path fill="#73BA7C" class="highcharts-point" stroke="#fff" d="M13.5 83.5h26v121h-26zm53-5h26v124h-26zm52 4h26v130h-26zm53-9h26v122h-26zm53-10h26v138h-26z"/>
        </g>
        <g class="highcharts-series highcharts-series-2 highcharts-column-series highcharts-color-undefined highcharts-tracker" transform="translate(53 87)" clip-path="url(#a)">
            <path fill="#C8C8C8" class="highcharts-point" stroke="#fff" d="M13.5 72.5h26v11h-26zm53-4h26v10h-26zm52-1h26v15h-26zm53-1h26v7h-26zm53-12h26v9h-26z"/>
        </g>
        <g class="highcharts-series highcharts-series-3 highcharts-column-series highcharts-color-undefined highcharts-tracker" transform="translate(53 87)" clip-path="url(#a)">
            <path fill="#FFBB58" class="highcharts-point" stroke="#fff" d="M13.5 16.5h26v56h-26zm53-2h26v54h-26zm52 0h26v53h-26zm53 0h26v52h-26zm53-5h26v45h-26z"/>
        </g>
        <g class="highcharts-series highcharts-series-4 highcharts-column-series highcharts-color-undefined highcharts-tracker" transform="translate(53 87)" clip-path="url(#a)">
            <path fill="#FF8028" class="highcharts-point" stroke="#fff" d="M13.5-.5h26v17h-26zm53 0h26v15h-26zm52 0h26v15h-26zm53 0h26v15h-26zm53 0h26v10h-26z"/>
        </g>
    </g>
    <text x="10" class="highcharts-title" style="width:421px" y="21" color="#000" font-size="14" font-weight="700">
        <tspan>I.50.1.0013 Menschen aus verschiedenen Ländern sind eine</tspan><tspan dy="17" x="10">Bereicherung für den Kanton</tspan><title>I.50.1.0013 Menschen aus verschiedenen Ländern sind eine Bereicherung für den Kanton</title>
    </text>
    <text x="10" class="highcharts-subtitle" style="width:421px" y="57" color="#000">
        <tspan>«Im Kanton Basel-Stadt gibt es Menschen aus den verschiedensten Ländern.</tspan><tspan dy="15" x="10">Ist das eine Bereicherung für den Kanton?»</tspan><title>«Im Kanton Basel-Stadt gibt es Menschen aus den verschiedensten Ländern. Ist das eine Bereicherung für den Kanton?»</title>
    </text>
    <g class="highcharts-legend" transform="translate(329 107)">
        <rect fill="none" class="highcharts-legend-box" rx="0" ry="0" width="146" height="181"/>
        <g class="highcharts-legend-item highcharts-column-series highcharts-color-undefined highcharts-series-4">
            <text x="21" y="15" color="#333" font-weight="400" cursor="pointer" fill="#333" transform="translate(8 3)">
                <tspan>Gar keine</tspan><tspan x="21" dy="15">Bereicherung</tspan>
            </text>
            <path fill="#FF8028" class="highcharts-point" d="M10 7h12v12H10z"/>
        </g>
        <g class="highcharts-legend-item highcharts-column-series highcharts-color-undefined highcharts-series-3">
            <text x="21" y="15" color="#333" font-weight="400" cursor="pointer" fill="#333" transform="translate(8 37)">
                <tspan>Eher nicht so grosse</tspan><tspan x="21" dy="15">Bereicherung</tspan>
            </text>
            <path fill="#FFBB58" class="highcharts-point" d="M10 41h12v12H10z"/>
        </g>
        <g class="highcharts-legend-item highcharts-column-series highcharts-color-undefined highcharts-series-2">
            <text x="21" y="15" color="#333" font-weight="400" cursor="pointer" fill="#333" transform="translate(8 71)">
                <tspan>Weiss nicht /</tspan><tspan x="21" dy="15">keine Angabe</tspan>
            </text>
            <path fill="#C8C8C8" class="highcharts-point" d="M10 75h12v12H10z"/>
        </g>
        <g class="highcharts-legend-item highcharts-column-series highcharts-color-undefined highcharts-series-1">
            <text x="21" y="15" color="#333" font-weight="400" cursor="pointer" fill="#333" transform="translate(8 105)">
                <tspan>Eher grosse</tspan><tspan x="21" dy="15">Bereicherung</tspan>
            </text>
            <path fill="#73BA7C" class="highcharts-point" d="M10 109h12v12H10z"/>
        </g>
        <g class="highcharts-legend-item highcharts-column-series highcharts-color-undefined highcharts-series-0">
            <text x="21" y="15" color="#333" font-weight="400" cursor="pointer" fill="#333" transform="translate(8 139)">
                <tspan>Sehr grosse</tspan><tspan x="21" dy="15">Bereicherung</tspan>
            </text>
            <path fill="#007A2F" class="highcharts-point" d="M10 143h12v12H10z"/>
        </g>
    </g>
    <g class="highcharts-axis-labels highcharts-xaxis-labels" text-anchor="middle" color="#000" cursor="default" font-size="11">
        <text x="79.4" y="369">
            <tspan>2003</tspan><tspan x="79.4" dy="14">(N=1497)</tspan>
        </text>
        <text x="132.2" y="369">
            <tspan>2005</tspan><tspan x="132.2" dy="14">(N=1510)</tspan>
        </text>
        <text x="185" y="369">
            <tspan>2007</tspan><tspan x="185" dy="14">(N=1509)</tspan>
        </text>
        <text x="237.8" y="369">
            <tspan>2011</tspan><tspan x="237.8" dy="14">(N=1516)</tspan>
        </text>
        <text x="290.6" y="369">
            <tspan>2015</tspan><tspan x="290.6" dy="14">(N=1506)</tspan>
        </text>
    </g>
    <g class="highcharts-axis-labels highcharts-yaxis-labels" text-anchor="end" color="#000" cursor="default" font-size="11">
        <text x="38" style="width:150px" y="355">
            <tspan>0%</tspan>
        </text>
        <text x="38" style="width:150px" y="328">
            <tspan>10%</tspan>
        </text>
        <text x="38" style="width:150px" y="302">
            <tspan>20%</tspan>
        </text>
        <text x="38" style="width:150px" y="276">
            <tspan>30%</tspan>
        </text>
        <text x="38" style="width:150px" y="249">
            <tspan>40%</tspan>
        </text>
        <text x="38" style="width:150px" y="223">
            <tspan>50%</tspan>
        </text>
        <text x="38" style="width:150px" y="197">
            <tspan>60%</tspan>
        </text>
        <text x="38" style="width:150px" y="170">
            <tspan>70%</tspan>
        </text>
        <text x="38" style="width:150px" y="144">
            <tspan>80%</tspan>
        </text>
        <text x="38" style="width:150px" y="118">
            <tspan>90%</tspan>
        </text>
        <text x="38" style="width:150px" y="92">
            <tspan>100%</tspan>
        </text>
    </g>
    <text x="10" class="highcharts-credits" y="400" cursor="default" color="#000" font-size="10">
        <tspan>Quelle: Statistisches Amt Basel-Stadt, kantonale Bevölkerungsbefragung: F18a</tspan>
    </text>
</svg>
