<?xml version="1.0" standalone="no"?><!DOCTYPE svg PUBLIC "-//W3C//DTD SVG 1.1//EN" "http://www.w3.org/Graphics/SVG/1.1/DTD/svg11.dtd"><svg xmlns:xlink="http://www.w3.org/1999/xlink" version="1.1" class="highcharts-root" style="font-family:Arial;font-size:12px;" xmlns="http://www.w3.org/2000/svg" viewBox="0 0 485 415"><desc>Created with Highcharts 8.2.0</desc><defs><clipPath id="highcharts-1kevv03-49-"><rect x="0" y="0" width="422" height="203" fill="none"></rect></clipPath><clipPath id="highcharts-1kevv03-57-"><rect x="0" y="0" width="422" height="203" fill="none"></rect></clipPath><clipPath id="highcharts-1kevv03-93-"><rect x="53" y="149" width="422" height="203" fill="none"></rect></clipPath></defs><rect fill="#fbfbfb" class="highcharts-background" x="0" y="0" width="485" height="428" rx="0" ry="0"></rect><rect fill="none" class="highcharts-plot-background" x="53" y="149" width="422" height="203"></rect><g class="highcharts-pane-group" data-z-index="0"></g><g class="highcharts-grid highcharts-xaxis-grid" data-z-index="1"><path fill="none" data-z-index="1" class="highcharts-grid-line" d="M 112.5 149 L 112.5 352" opacity="1"></path><path fill="none" data-z-index="1" class="highcharts-grid-line" d="M 173.5 149 L 173.5 352" opacity="1"></path><path fill="none" data-z-index="1" class="highcharts-grid-line" d="M 233.5 149 L 233.5 352" opacity="1"></path><path fill="none" data-z-index="1" class="highcharts-grid-line" d="M 293.5 149 L 293.5 352" opacity="1"></path><path fill="none" data-z-index="1" class="highcharts-grid-line" d="M 353.5 149 L 353.5 352" opacity="1"></path><path fill="none" data-z-index="1" class="highcharts-grid-line" d="M 414.5 149 L 414.5 352" opacity="1"></path><path fill="none" data-z-index="1" class="highcharts-grid-line" d="M 474.5 149 L 474.5 352" opacity="1"></path><path fill="none" data-z-index="1" class="highcharts-grid-line" d="M 52.5 149 L 52.5 352" opacity="1"></path></g><g class="highcharts-grid highcharts-yaxis-grid" data-z-index="1"><path fill="none" stroke="#B9CFD7" stroke-width="0.5" data-z-index="1" class="highcharts-grid-line" d="M 53 352.25 L 475 352.25" opacity="1"></path><path fill="none" stroke="#B9CFD7" stroke-width="0.5" data-z-index="1" class="highcharts-grid-line" d="M 53 332.25 L 475 332.25" opacity="1"></path><path fill="none" stroke="#B9CFD7" stroke-width="0.5" data-z-index="1" class="highcharts-grid-line" d="M 53 311.25 L 475 311.25" opacity="1"></path><path fill="none" stroke="#B9CFD7" stroke-width="0.5" data-z-index="1" class="highcharts-grid-line" d="M 53 291.25 L 475 291.25" opacity="1"></path><path fill="none" stroke="#B9CFD7" stroke-width="0.5" data-z-index="1" class="highcharts-grid-line" d="M 53 271.25 L 475 271.25" opacity="1"></path><path fill="none" stroke="#B9CFD7" stroke-width="0.5" data-z-index="1" class="highcharts-grid-line" d="M 53 251.25 L 475 251.25" opacity="1"></path><path fill="none" stroke="#B9CFD7" stroke-width="0.5" data-z-index="1" class="highcharts-grid-line" d="M 53 230.25 L 475 230.25" opacity="1"></path><path fill="none" stroke="#B9CFD7" stroke-width="0.5" data-z-index="1" class="highcharts-grid-line" d="M 53 210.25 L 475 210.25" opacity="1"></path><path fill="none" stroke="#B9CFD7" stroke-width="0.5" data-z-index="1" class="highcharts-grid-line" d="M 53 190.25 L 475 190.25" opacity="1"></path><path fill="none" stroke="#B9CFD7" stroke-width="0.5" data-z-index="1" class="highcharts-grid-line" d="M 53 169.25 L 475 169.25" opacity="1"></path><path fill="none" stroke="#B9CFD7" stroke-width="0.5" data-z-index="1" class="highcharts-grid-line" d="M 53 148.75 L 475 148.75" opacity="1"></path></g><rect fill="none" class="highcharts-plot-border" data-z-index="1" x="53" y="149" width="422" height="203"></rect><g class="highcharts-axis highcharts-xaxis" data-z-index="2"><path fill="none" class="highcharts-axis-line" stroke="#B9CFD7" stroke-width="0.5" data-z-index="7" d="M 53 352.25 L 475 352.25"></path></g><g class="highcharts-axis highcharts-yaxis" data-z-index="2"><path fill="none" class="highcharts-axis-line" data-z-index="7" d="M 53 149 L 53 352"></path></g><g class="highcharts-series-group" data-z-index="3"><g class="highcharts-series highcharts-series-0 highcharts-column-series" data-z-index="0.1" opacity="1" transform="translate(53,149) scale(1 1)" clip-path="url(#highcharts-1kevv03-57-)"><rect x="16" y="191" width="29" height="13" fill="#007a2f" opacity="1" class="highcharts-point"></rect><rect x="76" y="192" width="29" height="12" fill="#007a2f" opacity="1" class="highcharts-point"></rect><rect x="136" y="196" width="29" height="8" fill="#007a2f" opacity="1" class="highcharts-point"></rect><rect x="197" y="186" width="29" height="18" fill="#007a2f" opacity="1" class="highcharts-point"></rect><rect x="257" y="185" width="29" height="19" fill="#007a2f" opacity="1" class="highcharts-point"></rect><rect x="317" y="198" width="29" height="6" fill="#007a2f" opacity="1" class="highcharts-point"></rect><rect x="377" y="198" width="29" height="6" fill="#007a2f" opacity="1" class="highcharts-point"></rect></g><g class="highcharts-markers highcharts-series-0 highcharts-column-series" data-z-index="0.1" opacity="1" transform="translate(53,149) scale(1 1)" clip-path="none"></g><g class="highcharts-series highcharts-series-1 highcharts-column-series" data-z-index="0.1" opacity="1" transform="translate(53,149) scale(1 1)" clip-path="url(#highcharts-1kevv03-57-)"><rect x="16" y="85" width="29" height="106" fill="#68ab2b" opacity="1" class="highcharts-point"></rect><rect x="76" y="78" width="29" height="114" fill="#68ab2b" opacity="1" class="highcharts-point"></rect><rect x="136" y="97" width="29" height="99" fill="#68ab2b" opacity="1" class="highcharts-point"></rect><rect x="197" y="59" width="29" height="127" fill="#68ab2b" opacity="1" class="highcharts-point"></rect><rect x="257" y="60" width="29" height="125" fill="#68ab2b" opacity="1" class="highcharts-point"></rect><rect x="317" y="107" width="29" height="91" fill="#68ab2b" opacity="1" class="highcharts-point"></rect><rect x="377" y="127" width="29" height="71" fill="#68ab2b" opacity="1" class="highcharts-point"></rect></g><g class="highcharts-markers highcharts-series-1 highcharts-column-series" data-z-index="0.1" opacity="1" transform="translate(53,149) scale(1 1)" clip-path="none"></g><g class="highcharts-series highcharts-series-2 highcharts-column-series" data-z-index="0.1" opacity="1" transform="translate(53,149) scale(1 1)" clip-path="url(#highcharts-1kevv03-57-)"><rect x="16" y="46" width="29" height="39" fill="#ffbb58" opacity="1" class="highcharts-point"></rect><rect x="76" y="39" width="29" height="39" fill="#ffbb58" opacity="1" class="highcharts-point"></rect><rect x="136" y="44" width="29" height="53" fill="#ffbb58" opacity="1" class="highcharts-point"></rect><rect x="197" y="24" width="29" height="35" fill="#ffbb58" opacity="1" class="highcharts-point"></rect><rect x="257" y="22" width="29" height="38" fill="#ffbb58" opacity="1" class="highcharts-point"></rect><rect x="317" y="71" width="29" height="36" fill="#ffbb58" opacity="1" class="highcharts-point"></rect><rect x="377" y="95" width="29" height="32" fill="#ffbb58" opacity="1" class="highcharts-point"></rect></g><g class="highcharts-markers highcharts-series-2 highcharts-column-series" data-z-index="0.1" opacity="1" transform="translate(53,149) scale(1 1)" clip-path="none"></g><g class="highcharts-series highcharts-series-3 highcharts-column-series" data-z-index="0.1" opacity="1" transform="translate(53,149) scale(1 1)" clip-path="url(#highcharts-1kevv03-57-)"><rect x="16" y="41" width="29" height="5" fill="#dc440e" opacity="1" class="highcharts-point"></rect><rect x="76" y="34" width="29" height="5" fill="#dc440e" opacity="1" class="highcharts-point"></rect><rect x="136" y="38" width="29" height="6" fill="#dc440e" opacity="1" class="highcharts-point"></rect><rect x="197" y="19" width="29" height="5" fill="#dc440e" opacity="1" class="highcharts-point"></rect><rect x="257" y="18" width="29" height="4" fill="#dc440e" opacity="1" class="highcharts-point"></rect><rect x="317" y="59" width="29" height="12" fill="#dc440e" opacity="1" class="highcharts-point"></rect><rect x="377" y="88" width="29" height="7" fill="#dc440e" opacity="1" class="highcharts-point"></rect></g><g class="highcharts-markers highcharts-series-3 highcharts-column-series" data-z-index="0.1" opacity="1" transform="translate(53,149) scale(1 1)" clip-path="none"></g><g class="highcharts-series highcharts-series-4 highcharts-column-series" data-z-index="0.1" opacity="1" transform="translate(53,149) scale(1 1)" clip-path="url(#highcharts-1kevv03-57-)"><rect x="16" y="0" width="29" height="41" fill="#C8C8C8" opacity="1" class="highcharts-point"></rect><rect x="76" y="0" width="29" height="34" fill="#C8C8C8" opacity="1" class="highcharts-point"></rect><rect x="136" y="0" width="29" height="38" fill="#C8C8C8" opacity="1" class="highcharts-point"></rect><rect x="197" y="0" width="29" height="19" fill="#C8C8C8" opacity="1" class="highcharts-point"></rect><rect x="257" y="0" width="29" height="18" fill="#C8C8C8" opacity="1" class="highcharts-point"></rect><rect x="317" y="5" width="29" height="54" fill="#C8C8C8" opacity="1" class="highcharts-point"></rect><rect x="377" y="31" width="29" height="57" fill="#C8C8C8" opacity="1" class="highcharts-point"></rect></g><g class="highcharts-markers highcharts-series-4 highcharts-column-series" data-z-index="0.1" opacity="1" transform="translate(53,149) scale(1 1)" clip-path="none"></g><g class="highcharts-series highcharts-series-5 highcharts-column-series" data-z-index="0.1" opacity="1" transform="translate(53,149) scale(1 1)" clip-path="url(#highcharts-1kevv03-57-)"><rect x="16" y="1" width="29" height="0" fill="#6F6F6F" opacity="1" class="highcharts-point"></rect><rect x="76" y="1" width="29" height="0" fill="#6F6F6F" opacity="1" class="highcharts-point"></rect><rect x="136" y="1" width="29" height="0" fill="#6F6F6F" opacity="1" class="highcharts-point"></rect><rect x="197" y="1" width="29" height="0" fill="#6F6F6F" opacity="1" class="highcharts-point"></rect><rect x="257" y="1" width="29" height="0" fill="#6F6F6F" opacity="1" class="highcharts-point"></rect><rect x="317" y="0" width="29" height="5" fill="#6F6F6F" opacity="1" class="highcharts-point"></rect><rect x="377" y="0" width="29" height="31" fill="#6F6F6F" opacity="1" class="highcharts-point"></rect></g><g class="highcharts-markers highcharts-series-5 highcharts-column-series" data-z-index="0.1" opacity="1" transform="translate(53,149) scale(1 1)" clip-path="none"></g></g><text x="10" text-anchor="start" class="highcharts-title" data-z-index="4" style="color:#000000;font-size:14px;font-weight:bold;fill:#000000;" y="21"><tspan>Vertretung der Anliegen der Bevölkerung durch Parlament</tspan><tspan dy="17" x="10">und Regierung</tspan></text><text x="10" text-anchor="start" class="highcharts-subtitle" data-z-index="4" style="color:#000000;font-size:12px;fill:#000000;" y="57"><tspan>«Wie gut vertreten Ihrer Meinung nach die Behörden, also der Regierungsrat</tspan><tspan dy="15" x="10">und der Grosse Rat, die Anliegen der Bevölkerung?», Basel-Stadt</tspan></text><text x="10" text-anchor="start" class="highcharts-caption" data-z-index="4" style="color:#666666;fill:#666666;" y="400"></text><g class="highcharts-legend" data-z-index="7" transform="translate(45,88)"><rect fill="none" class="highcharts-legend-box" rx="0" ry="0" x="0" y="0" width="350" height="49" visibility="visible"></rect><g data-z-index="1"><g><g class="highcharts-legend-item highcharts-column-series highcharts-color-undefined highcharts-series-0" data-z-index="1" transform="translate(8,3)"><text x="21" style="color:#333333;cursor:pointer;font-size:12px;font-weight:normal;fill:#333333;" text-anchor="start" data-z-index="2" y="15"><tspan>Sehr gut</tspan></text><rect x="2" y="4" width="12" height="12" fill="#007a2f" class="highcharts-point" data-z-index="3"></rect></g><g class="highcharts-legend-item highcharts-column-series highcharts-color-undefined highcharts-series-1" data-z-index="1" transform="translate(126,3)"><text x="21" y="15" style="color:#333333;cursor:pointer;font-size:12px;font-weight:normal;fill:#333333;" text-anchor="start" data-z-index="2"><tspan>Eher gut</tspan></text><rect x="2" y="4" width="12" height="12" fill="#68ab2b" class="highcharts-point" data-z-index="3"></rect></g><g class="highcharts-legend-item highcharts-column-series highcharts-color-undefined highcharts-series-2" data-z-index="1" transform="translate(244,3)"><text x="21" y="15" style="color:#333333;cursor:pointer;font-size:12px;font-weight:normal;fill:#333333;" text-anchor="start" data-z-index="2"><tspan>Eher nicht gut</tspan></text><rect x="2" y="4" width="12" height="12" fill="#ffbb58" class="highcharts-point" data-z-index="3"></rect></g><g class="highcharts-legend-item highcharts-column-series highcharts-color-undefined highcharts-series-3" data-z-index="1" transform="translate(8,22)"><text x="21" y="15" style="color:#333333;cursor:pointer;font-size:12px;font-weight:normal;fill:#333333;" text-anchor="start" data-z-index="2"><tspan>Gar nicht gut</tspan></text><rect x="2" y="4" width="12" height="12" fill="#dc440e" class="highcharts-point" data-z-index="3"></rect></g><g class="highcharts-legend-item highcharts-column-series highcharts-color-undefined highcharts-series-4" data-z-index="1" transform="translate(126,22)"><text x="21" y="15" style="color:#333333;cursor:pointer;font-size:12px;font-weight:normal;fill:#333333;" text-anchor="start" data-z-index="2"><tspan>Weiss nicht</tspan></text><rect x="2" y="4" width="12" height="12" fill="#C8C8C8" class="highcharts-point" data-z-index="3"></rect></g><g class="highcharts-legend-item highcharts-column-series highcharts-color-undefined highcharts-series-5" data-z-index="1" transform="translate(244,22)"><text x="21" y="15" style="color:#333333;cursor:pointer;font-size:12px;font-weight:normal;fill:#333333;" text-anchor="start" data-z-index="2"><tspan>Keine Angabe</tspan></text><rect x="2" y="4" width="12" height="12" fill="#6F6F6F" class="highcharts-point" data-z-index="3"></rect></g></g></g></g><g class="highcharts-axis-labels highcharts-xaxis-labels" data-z-index="7"><text x="83.14285714285286" style="color:#000000;cursor:default;font-size:11px;white-space:nowrap;fill:#000000;" text-anchor="middle" transform="translate(0,0)" y="371" opacity="1"><tspan>2003</tspan><tspan x="83.14285714285286" dy="14">(N=1497)</tspan></text><text x="143.42857142857287" style="color:#000000;cursor:default;font-size:11px;white-space:nowrap;fill:#000000;" text-anchor="middle" transform="translate(0,0)" y="371" opacity="1"><tspan>2005</tspan><tspan x="143.42857142857287" dy="14">(N=1510)</tspan></text><text x="203.71428571428285" style="color:#000000;cursor:default;font-size:11px;white-space:nowrap;fill:#000000;" text-anchor="middle" transform="translate(0,0)" y="371" opacity="1"><tspan>2007</tspan><tspan x="203.71428571428285" dy="14">(N=1509)</tspan></text><text x="264.00000000000284" style="color:#000000;cursor:default;font-size:11px;white-space:nowrap;fill:#000000;" text-anchor="middle" transform="translate(0,0)" y="371" opacity="1"><tspan>2011</tspan><tspan x="264.00000000000284" dy="14">(N=1516)</tspan></text><text x="324.28571428571286" style="color:#000000;cursor:default;font-size:11px;white-space:nowrap;fill:#000000;" text-anchor="middle" transform="translate(0,0)" y="371" opacity="1"><tspan>2015</tspan><tspan x="324.28571428571286" dy="14">(N=1506)</tspan></text><text x="384.5714285714328" style="color:#000000;cursor:default;font-size:11px;white-space:nowrap;fill:#000000;" text-anchor="middle" transform="translate(0,0)" y="371" opacity="1"><tspan>2019</tspan><tspan x="384.5714285714328" dy="14">(N=2108)</tspan></text><text x="444.85714285714283" style="color:#000000;cursor:default;font-size:11px;white-space:nowrap;fill:#000000;" text-anchor="middle" transform="translate(0,0)" y="371" opacity="1"><tspan>2023</tspan><tspan x="444.85714285714283" dy="14">(N=2054)</tspan></text></g><g class="highcharts-axis-labels highcharts-yaxis-labels" data-z-index="7"><text x="38" style="color:#000000;cursor:default;font-size:11px;white-space:nowrap;fill:#000000;" text-anchor="end" transform="translate(0,0)" y="356" opacity="1">0%</text><text x="38" style="color:#000000;cursor:default;font-size:11px;white-space:nowrap;fill:#000000;" text-anchor="end" transform="translate(0,0)" y="336" opacity="1">10%</text><text x="38" style="color:#000000;cursor:default;font-size:11px;white-space:nowrap;fill:#000000;" text-anchor="end" transform="translate(0,0)" y="315" opacity="1">20%</text><text x="38" style="color:#000000;cursor:default;font-size:11px;white-space:nowrap;fill:#000000;" text-anchor="end" transform="translate(0,0)" y="295" opacity="1">30%</text><text x="38" style="color:#000000;cursor:default;font-size:11px;white-space:nowrap;fill:#000000;" text-anchor="end" transform="translate(0,0)" y="275" opacity="1">40%</text><text x="38" style="color:#000000;cursor:default;font-size:11px;white-space:nowrap;fill:#000000;" text-anchor="end" transform="translate(0,0)" y="255" opacity="1">50%</text><text x="38" style="color:#000000;cursor:default;font-size:11px;white-space:nowrap;fill:#000000;" text-anchor="end" transform="translate(0,0)" y="234" opacity="1">60%</text><text x="38" style="color:#000000;cursor:default;font-size:11px;white-space:nowrap;fill:#000000;" text-anchor="end" transform="translate(0,0)" y="214" opacity="1">70%</text><text x="38" style="color:#000000;cursor:default;font-size:11px;white-space:nowrap;fill:#000000;" text-anchor="end" transform="translate(0,0)" y="194" opacity="1">80%</text><text x="38" style="color:#000000;cursor:default;font-size:11px;white-space:nowrap;fill:#000000;" text-anchor="end" transform="translate(0,0)" y="173" opacity="1">90%</text><text x="38" style="color:#000000;cursor:default;font-size:11px;white-space:nowrap;fill:#000000;" text-anchor="end" transform="translate(0,0)" y="153" opacity="1">100%</text></g><text x="10" class="highcharts-credits" text-anchor="start" data-z-index="8" style="cursor:default;color:#000000;font-size:10px;fill:#000000;" y="403"><tspan>Quelle: Statistisches Amt Basel-Stadt, kantonale Bevölkerungsbefragung.</tspan><tspan x="10" dy="13">Zuletzt geändert: 10.4.2024</tspan></text><g class="highcharts-control-points" data-z-index="99" clip-path="url(#highcharts-1kevv03-93-)"></g></svg>