<?xml version="1.0" standalone="no"?><!DOCTYPE svg PUBLIC "-//W3C//DTD SVG 1.1//EN" "http://www.w3.org/Graphics/SVG/1.1/DTD/svg11.dtd"><svg xmlns:xlink="http://www.w3.org/1999/xlink" version="1.1" class="highcharts-root" style="font-family:Arial;font-size:12px;" xmlns="http://www.w3.org/2000/svg" viewBox="0 0 485 415"><desc>Created with Highcharts 5.0.6</desc><defs><clipPath id="highcharts-ymhdz9r-1"><rect x="0" y="0" width="422" height="228" fill="none"></rect></clipPath></defs><rect fill="#fbfbfb" class="highcharts-background" x="0" y="0" width="485" height="415" rx="0" ry="0"></rect><rect fill="none" class="highcharts-plot-background" x="53" y="120" width="422" height="228"></rect><g class="highcharts-grid highcharts-xaxis-grid "><path fill="none" class="highcharts-grid-line" d="M 56.5 120 L 56.5 348" opacity="1"></path><path fill="none" class="highcharts-grid-line" d="M 102.5 120 L 102.5 348" opacity="1"></path><path fill="none" class="highcharts-grid-line" d="M 148.5 120 L 148.5 348" opacity="1"></path><path fill="none" class="highcharts-grid-line" d="M 194.5 120 L 194.5 348" opacity="1"></path><path fill="none" class="highcharts-grid-line" d="M 240.5 120 L 240.5 348" opacity="1"></path><path fill="none" class="highcharts-grid-line" d="M 286.5 120 L 286.5 348" opacity="1"></path><path fill="none" class="highcharts-grid-line" d="M 332.5 120 L 332.5 348" opacity="1"></path><path fill="none" class="highcharts-grid-line" d="M 378.5 120 L 378.5 348" opacity="1"></path><path fill="none" class="highcharts-grid-line" d="M 424.5 120 L 424.5 348" opacity="1"></path><path fill="none" class="highcharts-grid-line" d="M 470.5 120 L 470.5 348" opacity="1"></path></g><g class="highcharts-grid highcharts-yaxis-grid "><path fill="none" stroke="#e6e6e6" stroke-width="1" class="highcharts-grid-line" d="M 53 348.5 L 475 348.5" opacity="1"></path><path fill="none" stroke="#e6e6e6" stroke-width="1" class="highcharts-grid-line" d="M 53 291.5 L 475 291.5" opacity="1"></path><path fill="none" stroke="#e6e6e6" stroke-width="1" class="highcharts-grid-line" d="M 53 234.5 L 475 234.5" opacity="1"></path><path fill="none" stroke="#e6e6e6" stroke-width="1" class="highcharts-grid-line" d="M 53 177.5 L 475 177.5" opacity="1"></path><path fill="none" stroke="#e6e6e6" stroke-width="1" class="highcharts-grid-line" d="M 53 120.5 L 475 120.5" opacity="1"></path></g><rect fill="none" class="highcharts-plot-border" x="53" y="120" width="422" height="228"></rect><g class="highcharts-axis highcharts-xaxis "><path fill="none" class="highcharts-axis-line" stroke="#ccd6eb" stroke-width="1" d="M 53 348.5 L 475 348.5"></path></g><g class="highcharts-axis highcharts-yaxis "><path fill="none" class="highcharts-axis-line" d="M 53 120 L 53 348"></path></g><g class="highcharts-series-group"><g class="highcharts-series highcharts-series-0 highcharts-line-series highcharts-color-undefined " transform="translate(53,120) scale(1 1)" width="228" height="422" clip-path="url(#highcharts-ymhdz9r-1)"><path fill="none" d="M 4.1372549019571 123.804 L 50.106753812633 124.03200000000001 L 96.076252723309 122.89200000000001 L 142.04575163399 120.15600000000002 L 188.01525054466 118.56 L 233.98474945534 117.64800000000001 L 279.95424836601 121.06800000000001 L 325.92374727669 123.12 L 371.89324618737 121.98 L 417.86274509804 121.29600000000002" class="highcharts-graph" stroke="#B00000" stroke-width="2" stroke-linejoin="round" stroke-linecap="round"></path><path fill="none" d="M -5.8627450980429 123.804 L 4.1372549019571 123.804 L 50.106753812633 124.03200000000001 L 96.076252723309 122.89200000000001 L 142.04575163399 120.15600000000002 L 188.01525054466 118.56 L 233.98474945534 117.64800000000001 L 279.95424836601 121.06800000000001 L 325.92374727669 123.12 L 371.89324618737 121.98 L 417.86274509804 121.29600000000002 L 427.86274509804 121.29600000000002" stroke-linejoin="round" visibility="visible" stroke="rgba(192,192,192,0.0001)" stroke-width="22" class="highcharts-tracker"></path></g><g class="highcharts-markers highcharts-series-0 highcharts-line-series highcharts-color-undefined highcharts-tracker" transform="translate(53,120) scale(1 1)" width="228" height="422" clip-path="none"></g><g class="highcharts-series highcharts-series-1 highcharts-line-series highcharts-color-undefined " transform="translate(53,120) scale(1 1)" width="228" height="422" clip-path="url(#highcharts-ymhdz9r-1)"><path fill="none" d="M 4.1372549019571 193.11599999999999 L 50.106753812633 186.276 L 96.076252723309 181.032 L 142.04575163399 181.26 L 188.01525054466 172.14000000000001 L 233.98474945534 175.788 L 279.95424836601 180.804 L 325.92374727669 179.436 L 371.89324618737 171.912 L 417.86274509804 175.332" class="highcharts-graph" stroke="#71A3B5" stroke-width="2" stroke-linejoin="round" stroke-linecap="round"></path><path fill="none" d="M -5.8627450980429 193.11599999999999 L 4.1372549019571 193.11599999999999 L 50.106753812633 186.276 L 96.076252723309 181.032 L 142.04575163399 181.26 L 188.01525054466 172.14000000000001 L 233.98474945534 175.788 L 279.95424836601 180.804 L 325.92374727669 179.436 L 371.89324618737 171.912 L 417.86274509804 175.332 L 427.86274509804 175.332" stroke-linejoin="round" visibility="visible" stroke="rgba(192,192,192,0.0001)" stroke-width="22" class="highcharts-tracker"></path></g><g class="highcharts-markers highcharts-series-1 highcharts-line-series highcharts-color-undefined highcharts-tracker" transform="translate(53,120) scale(1 1)" width="228" height="422" clip-path="none"><path fill="#71A3B5" d="M 417 171 C 422.328 171 422.328 179 417 179 C 411.672 179 411.672 171 417 171 Z" class="highcharts-point"></path><path fill="#71A3B5" d="M 371 168 C 376.328 168 376.328 176 371 176 C 365.672 176 365.672 168 371 168 Z" class="highcharts-point"></path><path fill="#71A3B5" d="M 325 175 C 330.328 175 330.328 183 325 183 C 319.672 183 319.672 175 325 175 Z" class="highcharts-point"></path><path fill="#71A3B5" d="M 279 177 C 284.328 177 284.328 185 279 185 C 273.672 185 273.672 177 279 177 Z" class="highcharts-point"></path><path fill="#71A3B5" d="M 233 172 C 238.328 172 238.328 180 233 180 C 227.672 180 227.672 172 233 172 Z" class="highcharts-point"></path><path fill="#71A3B5" d="M 188 168 C 193.328 168 193.328 176 188 176 C 182.672 176 182.672 168 188 168 Z" class="highcharts-point"></path><path fill="#71A3B5" d="M 142 177 C 147.328 177 147.328 185 142 185 C 136.672 185 136.672 177 142 177 Z" class="highcharts-point"></path><path fill="#71A3B5" d="M 96 177 C 101.328 177 101.328 185 96 185 C 90.672 185 90.672 177 96 177 Z" class="highcharts-point"></path><path fill="#71A3B5" d="M 50 182 C 55.328 182 55.328 190 50 190 C 44.672 190 44.672 182 50 182 Z" class="highcharts-point"></path><path fill="#71A3B5" d="M 4 189 C 9.328 189 9.328 197 4 197 C -1.328 197 -1.328 189 4 189 Z" class="highcharts-point"></path></g><g class="highcharts-series highcharts-series-2 highcharts-line-series highcharts-color-undefined " transform="translate(53,120) scale(1 1)" width="228" height="422" clip-path="url(#highcharts-ymhdz9r-1)"><path fill="none" d="M 4.1372549019571 85.04400000000001 L 50.106753812633 78.66000000000003 L 96.076252723309 66.57600000000002 L 142.04575163399 64.06800000000001 L 188.01525054466 68.85600000000002 L 233.98474945534 74.10000000000002 L 279.95424836601 77.74799999999999 L 325.92374727669 81.39600000000002 L 371.89324618737 101.91600000000001 L 417.86274509804 100.77600000000001" class="highcharts-graph" stroke="#672773" stroke-width="2" stroke-linejoin="round" stroke-linecap="round"></path><path fill="none" d="M -5.8627450980429 85.04400000000001 L 4.1372549019571 85.04400000000001 L 50.106753812633 78.66000000000003 L 96.076252723309 66.57600000000002 L 142.04575163399 64.06800000000001 L 188.01525054466 68.85600000000002 L 233.98474945534 74.10000000000002 L 279.95424836601 77.74799999999999 L 325.92374727669 81.39600000000002 L 371.89324618737 101.91600000000001 L 417.86274509804 100.77600000000001 L 427.86274509804 100.77600000000001" stroke-linejoin="round" visibility="visible" stroke="rgba(192,192,192,0.0001)" stroke-width="22" class="highcharts-tracker"></path></g><g class="highcharts-markers highcharts-series-2 highcharts-line-series highcharts-color-undefined highcharts-tracker" transform="translate(53,120) scale(1 1)" width="228" height="422" clip-path="none"></g><g class="highcharts-series highcharts-series-3 highcharts-line-series highcharts-color-undefined " transform="translate(53,120) scale(1 1)" width="228" height="422" clip-path="url(#highcharts-ymhdz9r-1)"><path fill="none" d="M 4.1372549019571 197.22 L 50.106753812633 202.92000000000002 L 96.076252723309 193.572 L 142.04575163399 186.732 L 188.01525054466 176.7 L 233.98474945534 191.52 L 279.95424836601 199.5 L 325.92374727669 203.376 L 371.89324618737 185.59199999999998 L 417.86274509804 181.488" class="highcharts-graph" stroke="#007A2F" stroke-width="2" stroke-linejoin="round" stroke-linecap="round"></path><path fill="none" d="M -5.8627450980429 197.22 L 4.1372549019571 197.22 L 50.106753812633 202.92000000000002 L 96.076252723309 193.572 L 142.04575163399 186.732 L 188.01525054466 176.7 L 233.98474945534 191.52 L 279.95424836601 199.5 L 325.92374727669 203.376 L 371.89324618737 185.59199999999998 L 417.86274509804 181.488 L 427.86274509804 181.488" stroke-linejoin="round" visibility="visible" stroke="rgba(192,192,192,0.0001)" stroke-width="22" class="highcharts-tracker"></path></g><g class="highcharts-markers highcharts-series-3 highcharts-line-series highcharts-color-undefined highcharts-tracker" transform="translate(53,120) scale(1 1)" width="228" height="422" clip-path="none"></g><g class="highcharts-series highcharts-series-4 highcharts-line-series highcharts-color-undefined " transform="translate(53,120) scale(1 1)" width="228" height="422" clip-path="url(#highcharts-ymhdz9r-1)"><path fill="none" d="M 4.1372549019571 191.52 L 50.106753812633 182.4 L 96.076252723309 191.06400000000002 L 142.04575163399 222.528 L 188.01525054466 183.54000000000002 L 233.98474945534 179.66400000000002 L 279.95424836601 173.964 L 325.92374727669 178.068 L 371.89324618737 165.3 L 417.86274509804 205.656" class="highcharts-graph" stroke="#73BA7C" stroke-width="2" stroke-linejoin="round" stroke-linecap="round"></path><path fill="none" d="M -5.8627450980429 191.52 L 4.1372549019571 191.52 L 50.106753812633 182.4 L 96.076252723309 191.06400000000002 L 142.04575163399 222.528 L 188.01525054466 183.54000000000002 L 233.98474945534 179.66400000000002 L 279.95424836601 173.964 L 325.92374727669 178.068 L 371.89324618737 165.3 L 417.86274509804 205.656 L 427.86274509804 205.656" stroke-linejoin="round" visibility="visible" stroke="rgba(192,192,192,0.0001)" stroke-width="22" class="highcharts-tracker"></path></g><g class="highcharts-markers highcharts-series-4 highcharts-line-series highcharts-color-undefined highcharts-tracker" transform="translate(53,120) scale(1 1)" width="228" height="422" clip-path="none"></g><g class="highcharts-series highcharts-series-5 highcharts-line-series highcharts-color-undefined " transform="translate(53,120) scale(1 1)" width="228" height="422" clip-path="url(#highcharts-ymhdz9r-1)"><path fill="none" d="M 4.1372549019571 212.496 L 50.106753812633 200.184 L 96.076252723309 202.008 L 142.04575163399 199.956 L 188.01525054466 197.22 L 233.98474945534 206.568 L 279.95424836601 205.88400000000001 L 325.92374727669 207.936 L 371.89324618737 201.78 L 417.86274509804 202.008" class="highcharts-graph" stroke="#FABD24" stroke-width="2" stroke-linejoin="round" stroke-linecap="round"></path><path fill="none" d="M -5.8627450980429 212.496 L 4.1372549019571 212.496 L 50.106753812633 200.184 L 96.076252723309 202.008 L 142.04575163399 199.956 L 188.01525054466 197.22 L 233.98474945534 206.568 L 279.95424836601 205.88400000000001 L 325.92374727669 207.936 L 371.89324618737 201.78 L 417.86274509804 202.008 L 427.86274509804 202.008" stroke-linejoin="round" visibility="visible" stroke="rgba(192,192,192,0.0001)" stroke-width="22" class="highcharts-tracker"></path></g><g class="highcharts-markers highcharts-series-5 highcharts-line-series highcharts-color-undefined highcharts-tracker" transform="translate(53,120) scale(1 1)" width="228" height="422" clip-path="none"></g><g class="highcharts-series highcharts-series-6 highcharts-line-series highcharts-color-undefined " transform="translate(53,120) scale(1 1)" width="228" height="422" clip-path="url(#highcharts-ymhdz9r-1)"><path fill="none" d="M 4.1372549019571 205.428 L 50.106753812633 203.604 L 96.076252723309 197.448 L 142.04575163399 200.64 L 188.01525054466 198.588 L 233.98474945534 196.764 L 279.95424836601 207.708 L 325.92374727669 198.36 L 371.89324618737 198.132 L 417.86274509804 200.64" class="highcharts-graph" stroke="#D3E2E5" stroke-width="2" stroke-linejoin="round" stroke-linecap="round"></path><path fill="none" d="M -5.8627450980429 205.428 L 4.1372549019571 205.428 L 50.106753812633 203.604 L 96.076252723309 197.448 L 142.04575163399 200.64 L 188.01525054466 198.588 L 233.98474945534 196.764 L 279.95424836601 207.708 L 325.92374727669 198.36 L 371.89324618737 198.132 L 417.86274509804 200.64 L 427.86274509804 200.64" stroke-linejoin="round" visibility="visible" stroke="rgba(192,192,192,0.0001)" stroke-width="22" class="highcharts-tracker"></path></g><g class="highcharts-markers highcharts-series-6 highcharts-line-series highcharts-color-undefined highcharts-tracker" transform="translate(53,120) scale(1 1)" width="228" height="422" clip-path="none"></g></g><text x="10" text-anchor="start" class="highcharts-title" style="color:#000000;font-size:14px;font-weight:bold;fill:#000000;width:421px;" y="21"><tspan>I.15.6.0001 Gymnasialquote nach Staatsangehörigkeit seit</tspan><tspan dy="17" x="10">2006</tspan><title>I.15.6.0001 Gymnasialquote nach Staatsangehörigkeit seit 2006</title></text><g class="highcharts-legend" transform="translate(30,45)"><rect fill="none" class="highcharts-legend-box" rx="0" ry="0" x="0" y="0" width="366" height="51" visibility="visible"></rect><g><g><g class="highcharts-legend-item highcharts-line-series highcharts-color-undefined highcharts-series-0" transform="translate(8,3)"><path fill="none" d="M 0 11 L 16 11" class="highcharts-graph" stroke="#B00000" stroke-width="2"></path><text x="21" style="color:#333333;font-size:12px;font-weight:normal;cursor:pointer;fill:#333333;" text-anchor="start" y="15">Schweiz</text></g><g class="highcharts-legend-item highcharts-line-series highcharts-color-undefined highcharts-series-1" transform="translate(94,3)"><path fill="none" d="M 0 11 L 16 11" class="highcharts-graph" stroke="#71A3B5" stroke-width="2"></path><path fill="#71A3B5" d="M 8 7 C 13.328 7 13.328 15 8 15 C 2.6719999999999997 15 2.6719999999999997 7 8 7 Z" class="highcharts-point"></path><text x="21" y="15" style="color:#333333;font-size:12px;font-weight:normal;cursor:pointer;fill:#333333;" text-anchor="start">Ausland</text></g><g class="highcharts-legend-item highcharts-line-series highcharts-color-undefined highcharts-series-2" transform="translate(180,3)"><path fill="none" d="M 0 11 L 16 11" class="highcharts-graph" stroke="#672773" stroke-width="2"></path><text x="21" y="15" style="color:#333333;font-size:12px;font-weight:normal;cursor:pointer;fill:#333333;" text-anchor="start">Deutschland</text></g><g class="highcharts-legend-item highcharts-line-series highcharts-color-undefined highcharts-series-3" transform="translate(291,3)"><path fill="none" d="M 0 11 L 16 11" class="highcharts-graph" stroke="#007A2F" stroke-width="2"></path><text x="21" y="15" style="color:#333333;font-size:12px;font-weight:normal;cursor:pointer;fill:#333333;" text-anchor="start">Italien</text></g><g class="highcharts-legend-item highcharts-line-series highcharts-color-undefined highcharts-series-4" transform="translate(8,23)"><path fill="none" d="M 0 11 L 16 11" class="highcharts-graph" stroke="#73BA7C" stroke-width="2"></path><text x="21" y="15" style="color:#333333;font-size:12px;font-weight:normal;cursor:pointer;fill:#333333;" text-anchor="start">Spanien</text></g><g class="highcharts-legend-item highcharts-line-series highcharts-color-undefined highcharts-series-5" transform="translate(95,23)"><path fill="none" d="M 0 11 L 16 11" class="highcharts-graph" stroke="#FABD24" stroke-width="2"></path><text x="21" y="15" style="color:#333333;font-size:12px;font-weight:normal;cursor:pointer;fill:#333333;" text-anchor="start">Türkei</text></g><g class="highcharts-legend-item highcharts-line-series highcharts-color-undefined highcharts-series-6" transform="translate(170,23)"><path fill="none" d="M 0 11 L 16 11" class="highcharts-graph" stroke="#D3E2E5" stroke-width="2"></path><text x="21" y="15" style="color:#333333;font-size:12px;font-weight:normal;cursor:pointer;fill:#333333;" text-anchor="start"><tspan>Ehem. Jugoslawien ohne SLO</tspan></text></g></g></g></g><g class="highcharts-axis-labels highcharts-xaxis-labels "><text x="57.13725490195709" style="color:#000000;cursor:default;font-size:11px;fill:#000000;" text-anchor="middle" transform="translate(0,0)" y="367" opacity="1">2006</text><text x="103.10675381263329" style="color:#000000;cursor:default;font-size:11px;fill:#000000;" text-anchor="middle" transform="translate(0,0)" y="367" opacity="1">2007</text><text x="149.0762527233095" style="color:#000000;cursor:default;font-size:11px;fill:#000000;" text-anchor="middle" transform="translate(0,0)" y="367" opacity="1">2008</text><text x="195.0457516339857" style="color:#000000;cursor:default;font-size:11px;fill:#000000;" text-anchor="middle" transform="translate(0,0)" y="367" opacity="1">2009</text><text x="241.0152505446619" style="color:#000000;cursor:default;font-size:11px;fill:#000000;" text-anchor="middle" transform="translate(0,0)" y="367" opacity="1">2010</text><text x="286.9847494553381" style="color:#000000;cursor:default;font-size:11px;fill:#000000;" text-anchor="middle" transform="translate(0,0)" y="367" opacity="1">2011</text><text x="332.9542483660143" style="color:#000000;cursor:default;font-size:11px;fill:#000000;" text-anchor="middle" transform="translate(0,0)" y="367" opacity="1">2012</text><text x="378.9237472766905" style="color:#000000;cursor:default;font-size:11px;fill:#000000;" text-anchor="middle" transform="translate(0,0)" y="367" opacity="1">2013</text><text x="424.8932461873667" style="color:#000000;cursor:default;font-size:11px;fill:#000000;" text-anchor="middle" transform="translate(0,0)" y="367" opacity="1">2014</text><text x="463" style="color:#000000;cursor:default;font-size:11px;fill:#000000;" text-anchor="middle" transform="translate(0,0)" y="367" opacity="1">2015</text></g><g class="highcharts-axis-labels highcharts-yaxis-labels "><text x="38" style="color:#000000;cursor:default;font-size:11px;fill:#000000;width:150px;text-overflow:clip;" text-anchor="end" transform="translate(0,0)" y="352" opacity="1"><tspan>0%</tspan></text><text x="38" style="color:#000000;cursor:default;font-size:11px;fill:#000000;width:150px;text-overflow:clip;" text-anchor="end" transform="translate(0,0)" y="295" opacity="1"><tspan>25%</tspan></text><text x="38" style="color:#000000;cursor:default;font-size:11px;fill:#000000;width:150px;text-overflow:clip;" text-anchor="end" transform="translate(0,0)" y="238" opacity="1"><tspan>50%</tspan></text><text x="38" style="color:#000000;cursor:default;font-size:11px;fill:#000000;width:150px;text-overflow:clip;" text-anchor="end" transform="translate(0,0)" y="181" opacity="1"><tspan>75%</tspan></text><text x="38" style="color:#000000;cursor:default;font-size:11px;fill:#000000;width:150px;text-overflow:clip;" text-anchor="end" transform="translate(0,0)" y="124" opacity="1"><tspan>100%</tspan></text></g><text x="10" class="highcharts-credits" text-anchor="start" style="cursor:default;color:#000000;font-size:10px;fill:#000000;" y="400"><tspan>Quelle: Statistisches Amt Basel-Stadt, Bildungsstatistik</tspan></text></svg>