<?xml version="1.0" standalone="no"?>
<!DOCTYPE svg PUBLIC "-//W3C//DTD SVG 1.1//EN" "http://www.w3.org/Graphics/SVG/1.1/DTD/svg11.dtd">
<svg xmlns:xlink="http://www.w3.org/1999/xlink" version="1.1" class="highcharts-root" style="font-family:arial;font-size:12px;" xmlns="http://www.w3.org/2000/svg" viewBox="0 0 485 415">
  <desc>
    Created with Highstock 5.0.14
  </desc>
  <defs>
    <clipPath>
      <rect x="0" y="0" width="425" height="229" fill="none"/>
    </clipPath>
    <clipPath id="a">
      <rect x="0" y="0" width="425" height="229" fill="none"/>
    </clipPath>
  </defs>
  <rect fill="#fbfbfb" class="highcharts-background" x="0" y="0" width="485" height="415" rx="0" ry="0"/>
  <rect fill="none" class="highcharts-plot-background" x="50" y="120" width="425" height="229"/>
  <g class="highcharts-pane-group"/>
  <g class="highcharts-grid highcharts-xaxis-grid ">
    <path fill="none" class="highcharts-grid-line" d="M 53.5 120 L 53.5 349" opacity="1"/>
    <path fill="none" class="highcharts-grid-line" d="M 113.5 120 L 113.5 349" opacity="1"/>
    <path fill="none" class="highcharts-grid-line" d="M 172.5 120 L 172.5 349" opacity="1"/>
    <path fill="none" class="highcharts-grid-line" d="M 232.5 120 L 232.5 349" opacity="1"/>
    <path fill="none" class="highcharts-grid-line" d="M 291.5 120 L 291.5 349" opacity="1"/>
    <path fill="none" class="highcharts-grid-line" d="M 351.5 120 L 351.5 349" opacity="1"/>
    <path fill="none" class="highcharts-grid-line" d="M 410.5 120 L 410.5 349" opacity="1"/>
    <path fill="none" class="highcharts-grid-line" d="M 470.5 120 L 470.5 349" opacity="1"/>
  </g>
  <g class="highcharts-grid highcharts-yaxis-grid ">
    <path fill="none" stroke="#e6e6e6" stroke-width="1" class="highcharts-grid-line" d="M 50 349.5 L 475 349.5" opacity="1"/>
    <path fill="none" stroke="#e6e6e6" stroke-width="1" class="highcharts-grid-line" d="M 50 292.5 L 475 292.5" opacity="1"/>
    <path fill="none" stroke="#e6e6e6" stroke-width="1" class="highcharts-grid-line" d="M 50 235.5 L 475 235.5" opacity="1"/>
    <path fill="none" stroke="#e6e6e6" stroke-width="1" class="highcharts-grid-line" d="M 50 177.5 L 475 177.5" opacity="1"/>
    <path fill="none" stroke="#e6e6e6" stroke-width="1" class="highcharts-grid-line" d="M 50 119.5 L 475 119.5" opacity="1"/>
  </g>
  <rect fill="none" class="highcharts-plot-border" x="50" y="120" width="425" height="229"/>
  <g class="highcharts-axis highcharts-xaxis ">
    <path fill="none" class="highcharts-axis-line" stroke="#ccd6eb" stroke-width="1" d="M 50 349.5 L 475 349.5"/>
  </g>
  <g class="highcharts-axis highcharts-yaxis ">
    <path fill="none" class="highcharts-axis-line" d="M 50 120 L 50 349"/>
  </g>
  <g class="highcharts-series-group">
    <g class="highcharts-series highcharts-series-0 highcharts-line-series highcharts-color-undefined " transform="translate(50,120) scale(1 1)" clip-path="url(#a)">
      <path fill="none" d="M 4.166666666663 74.42499999999998 L 63.690476190474 62.974999999999994 L 123.21428571428 68.70000000000002 L 182.73809523809 65.8375 L 242.26190476191 62.974999999999994 L 301.78571428572 68.70000000000002 L 361.30952380953 68.70000000000002 L 420.83333333334 68.70000000000002" class="highcharts-graph" stroke="#B00000" stroke-width="2" stroke-linejoin="round" stroke-linecap="round"/>
    </g>
    <g class="highcharts-markers highcharts-series-0 highcharts-line-series highcharts-color-undefined " transform="translate(50,120) scale(1 1)" clip-path="none"/>
    <g class="highcharts-series highcharts-series-1 highcharts-line-series highcharts-color-undefined " transform="translate(50,120) scale(1 1)" clip-path="url(#a)">
      <path fill="none" d="M 4.166666666663 191.7875 L 63.690476190474 188.925 L 123.21428571428 188.925 L 182.73809523809 191.7875 L 242.26190476191 188.925 L 301.78571428572 194.65 L 361.30952380953 191.7875 L 420.83333333334 191.7875" class="highcharts-graph" stroke="#71A3B5" stroke-width="2" stroke-linejoin="round" stroke-linecap="round"/>
    </g>
    <g class="highcharts-markers highcharts-series-1 highcharts-line-series highcharts-color-undefined " transform="translate(50,120) scale(1 1)" clip-path="none">
      <path fill="#71A3B5" d="M 8 192 A 4 4 0 1 1 7.999998000000167 191.99600000066667 Z" class="highcharts-point"/>
      <path fill="#71A3B5" d="M 67 189 A 4 4 0 1 1 66.99999800000016 188.99600000066667 Z" class="highcharts-point"/>
      <path fill="#71A3B5" d="M 127 189 A 4 4 0 1 1 126.99999800000016 188.99600000066667 Z" class="highcharts-point"/>
      <path fill="#71A3B5" d="M 186 192 A 4 4 0 1 1 185.99999800000018 191.99600000066667 Z" class="highcharts-point"/>
      <path fill="#71A3B5" d="M 246 189 A 4 4 0 1 1 245.99999800000018 188.99600000066667 Z" class="highcharts-point"/>
      <path fill="#71A3B5" d="M 305 195 A 4 4 0 1 1 304.9999980000002 194.99600000066667 Z" class="highcharts-point"/>
      <path fill="#71A3B5" d="M 365 192 A 4 4 0 1 1 364.9999980000002 191.99600000066667 Z" class="highcharts-point"/>
      <path fill="#71A3B5" d="M 424 192 A 4 4 0 1 1 423.9999980000002 191.99600000066667 Z" class="highcharts-point"/>
    </g>
    <g class="highcharts-series highcharts-series-2 highcharts-line-series highcharts-color-undefined " transform="translate(50,120) scale(1 1)" clip-path="url(#a)">
      <path fill="none" d="M 4.166666666663 177.475 L 63.690476190474 171.75 L 123.21428571428 168.8875 L 182.73809523809 166.02499999999998 L 242.26190476191 160.3 L 301.78571428572 168.8875 L 361.30952380953 166.02499999999998 L 420.83333333334 163.16250000000002" class="highcharts-graph" stroke="#672773" stroke-width="2" stroke-linejoin="round" stroke-linecap="round"/>
    </g>
    <g class="highcharts-markers highcharts-series-2 highcharts-line-series highcharts-color-undefined " transform="translate(50,120) scale(1 1)" clip-path="none"/>
    <g class="highcharts-series highcharts-series-3 highcharts-line-series highcharts-color-undefined " transform="translate(50,120) scale(1 1)" clip-path="url(#a)">
      <path fill="none" d="M 4.166666666663 145.9875 L 63.690476190474 140.2625 L 123.21428571428 145.9875 L 182.73809523809 145.9875 L 242.26190476191 151.71249999999998 L 301.78571428572 160.3 L 361.30952380953 166.02499999999998 L 420.83333333334 166.02499999999998" class="highcharts-graph" stroke="#007A2F" stroke-width="2" stroke-linejoin="round" stroke-linecap="round"/>
    </g>
    <g class="highcharts-markers highcharts-series-3 highcharts-line-series highcharts-color-undefined " transform="translate(50,120) scale(1 1)" clip-path="none"/>
    <g class="highcharts-series highcharts-series-4 highcharts-line-series highcharts-color-undefined " transform="translate(50,120) scale(1 1)" clip-path="url(#a)">
      <path fill="none" d="M 4.166666666663 140.2625 L 63.690476190474 137.39999999999998 L 123.21428571428 148.85000000000002 L 182.73809523809 154.575 L 242.26190476191 163.16250000000002 L 301.78571428572 166.02499999999998 L 361.30952380953 168.8875 L 420.83333333334 180.3375" class="highcharts-graph" stroke="#73BA7C" stroke-width="2" stroke-linejoin="round" stroke-linecap="round"/>
    </g>
    <g class="highcharts-markers highcharts-series-4 highcharts-line-series highcharts-color-undefined " transform="translate(50,120) scale(1 1)" clip-path="none"/>
    <g class="highcharts-series highcharts-series-5 highcharts-line-series highcharts-color-undefined " transform="translate(50,120) scale(1 1)" clip-path="url(#a)">
      <path fill="none" d="M 4.166666666663 203.2375 L 63.690476190474 203.2375 L 123.21428571428 203.2375 L 182.73809523809 203.2375 L 242.26190476191 200.375 L 301.78571428572 203.2375 L 361.30952380953 200.375 L 420.83333333334 200.375" class="highcharts-graph" stroke="#FABD24" stroke-width="2" stroke-linejoin="round" stroke-linecap="round"/>
    </g>
    <g class="highcharts-markers highcharts-series-5 highcharts-line-series highcharts-color-undefined " transform="translate(50,120) scale(1 1)" clip-path="none"/>
    <g class="highcharts-series highcharts-series-6 highcharts-line-series highcharts-color-undefined " transform="translate(50,120) scale(1 1)" clip-path="url(#a)">
      <path fill="none" d="M 4.166666666663 208.9625 L 63.690476190474 208.9625 L 123.21428571428 211.825 L 182.73809523809 208.9625 L 242.26190476191 211.825 L 301.78571428572 208.9625 L 361.30952380953 206.1 L 420.83333333334 206.1" class="highcharts-graph" stroke="#D3E2E5" stroke-width="2" stroke-linejoin="round" stroke-linecap="round"/>
    </g>
    <g class="highcharts-markers highcharts-series-6 highcharts-line-series highcharts-color-undefined " transform="translate(50,120) scale(1 1)" clip-path="none"/>
  </g>
  <text x="10" text-anchor="start" class="highcharts-title" style="color:#000000;font-size:14px;font-weight:bold;fill:#000000;" y="21">
    <tspan>Angestellte in der kantonalen Verwaltung nach</tspan><tspan dy="17" x="10">Staatsangehörigkeit seit 2008</tspan><title>Angestellte in der kantonalen Verwaltung nach Staatsangehörigkeit seit 2008</title>
  </text>
  <g class="highcharts-legend" transform="translate(30,45)">
    <rect fill="none" class="highcharts-legend-box" rx="0" ry="0" x="0" y="0" width="357" height="49" visibility="visible"/>
    <g>
      <g>
        <g class="highcharts-legend-item highcharts-line-series highcharts-color-undefined highcharts-series-0" transform="translate(8,3)">
          <path fill="none" d="M 0 11 L 16 11" class="highcharts-graph" stroke="#B00000" stroke-width="2"/>
          <text x="21" style="color:#333333;font-size:12px;font-weight:normal;cursor:pointer;fill:#333333;" text-anchor="start" y="15">
            <tspan>Schweiz</tspan>
          </text>
        </g>
        <g class="highcharts-legend-item highcharts-line-series highcharts-color-undefined highcharts-series-1" transform="translate(93.65625,3)">
          <path fill="none" d="M 0 11 L 16 11" class="highcharts-graph" stroke="#71A3B5" stroke-width="2"/>
          <path fill="#71A3B5" d="M 12 11 A 4 4 0 1 1 11.999998000000167 10.996000000666664 Z" class="highcharts-point"/>
          <text x="21" y="15" style="color:#333333;font-size:12px;font-weight:normal;cursor:pointer;fill:#333333;" text-anchor="start">
            <tspan>Ausland</tspan>
          </text>
        </g>
        <g class="highcharts-legend-item highcharts-line-series highcharts-color-undefined highcharts-series-2" transform="translate(178,3)">
          <path fill="none" d="M 0 11 L 16 11" class="highcharts-graph" stroke="#672773" stroke-width="2"/>
          <text x="21" y="15" style="color:#333333;font-size:12px;font-weight:normal;cursor:pointer;fill:#333333;" text-anchor="start">
            <tspan>Deutschland</tspan>
          </text>
        </g>
        <g class="highcharts-legend-item highcharts-line-series highcharts-color-undefined highcharts-series-3" transform="translate(285.671875,3)">
          <path fill="none" d="M 0 11 L 16 11" class="highcharts-graph" stroke="#007A2F" stroke-width="2"/>
          <text x="21" y="15" style="color:#333333;font-size:12px;font-weight:normal;cursor:pointer;fill:#333333;" text-anchor="start">
            <tspan>Italien</tspan>
          </text>
        </g>
        <g class="highcharts-legend-item highcharts-line-series highcharts-color-undefined highcharts-series-4" transform="translate(8,22)">
          <path fill="none" d="M 0 11 L 16 11" class="highcharts-graph" stroke="#73BA7C" stroke-width="2"/>
          <text x="21" y="15" style="color:#333333;font-size:12px;font-weight:normal;cursor:pointer;fill:#333333;" text-anchor="start">
            <tspan>Spanien</tspan>
          </text>
        </g>
        <g class="highcharts-legend-item highcharts-line-series highcharts-color-undefined highcharts-series-5" transform="translate(93.015625,22)">
          <path fill="none" d="M 0 11 L 16 11" class="highcharts-graph" stroke="#FABD24" stroke-width="2"/>
          <text x="21" y="15" style="color:#333333;font-size:12px;font-weight:normal;cursor:pointer;fill:#333333;" text-anchor="start">
            <tspan>Türkei</tspan>
          </text>
        </g>
        <g class="highcharts-legend-item highcharts-line-series highcharts-color-undefined highcharts-series-6" transform="translate(167.328125,22)">
          <path fill="none" d="M 0 11 L 16 11" class="highcharts-graph" stroke="#D3E2E5" stroke-width="2"/>
          <text x="21" y="15" style="color:#333333;font-size:12px;font-weight:normal;cursor:pointer;fill:#333333;" text-anchor="start">
            <tspan>Ehem. Jugoslawien ohne SLO</tspan>
          </text>
        </g>
      </g>
    </g>
  </g>
  <g class="highcharts-axis-labels highcharts-xaxis-labels ">
    <text x="54.16666666666295" style="color:#000000;cursor:default;font-size:11px;fill:#000000;" text-anchor="middle" transform="translate(0,0)" y="368" opacity="1">
      2008
    </text>
    <text x="113.69047619047353" style="color:#000000;cursor:default;font-size:11px;fill:#000000;" text-anchor="middle" transform="translate(0,0)" y="368" opacity="1">
      2009
    </text>
    <text x="173.21428571428413" style="color:#000000;cursor:default;font-size:11px;fill:#000000;" text-anchor="middle" transform="translate(0,0)" y="368" opacity="1">
      2010
    </text>
    <text x="232.7380952380947" style="color:#000000;cursor:default;font-size:11px;fill:#000000;" text-anchor="middle" transform="translate(0,0)" y="368" opacity="1">
      2011
    </text>
    <text x="292.26190476190527" style="color:#000000;cursor:default;font-size:11px;fill:#000000;" text-anchor="middle" transform="translate(0,0)" y="368" opacity="1">
      2012
    </text>
    <text x="351.78571428571587" style="color:#000000;cursor:default;font-size:11px;fill:#000000;" text-anchor="middle" transform="translate(0,0)" y="368" opacity="1">
      2013
    </text>
    <text x="411.30952380952647" style="color:#000000;cursor:default;font-size:11px;fill:#000000;" text-anchor="middle" transform="translate(0,0)" y="368" opacity="1">
      2014
    </text>
    <text x="462.78125" style="color:#000000;cursor:default;font-size:11px;fill:#000000;" text-anchor="middle" transform="translate(0,0)" y="368" opacity="1">
      2015
    </text>
  </g>
  <g class="highcharts-axis-labels highcharts-yaxis-labels ">
    <text x="35" style="color:#000000;cursor:default;font-size:11px;fill:#000000;" text-anchor="end" transform="translate(0,0)" y="354" opacity="1">
      <tspan>0.0%</tspan>
    </text>
    <text x="35" style="color:#000000;cursor:default;font-size:11px;fill:#000000;" text-anchor="end" transform="translate(0,0)" y="296" opacity="1">
      <tspan>2.0%</tspan>
    </text>
    <text x="35" style="color:#000000;cursor:default;font-size:11px;fill:#000000;" text-anchor="end" transform="translate(0,0)" y="239" opacity="1">
      <tspan>4.0%</tspan>
    </text>
    <text x="35" style="color:#000000;cursor:default;font-size:11px;fill:#000000;" text-anchor="end" transform="translate(0,0)" y="182" opacity="1">
      <tspan>6.0%</tspan>
    </text>
    <text x="35" style="color:#000000;cursor:default;font-size:11px;fill:#000000;" text-anchor="end" transform="translate(0,0)" y="125" opacity="1">
      <tspan>8.0%</tspan>
    </text>
  </g>
  <text x="10" class="highcharts-credits" text-anchor="start" style="cursor:default;color:#000000;font-size:10px;fill:#000000;" y="400">
    <tspan>Quelle: Zentraler Personaldienst Basel-Stadt, Statistik des Staatspersonals</tspan>
  </text>
</svg>
