<?xml version="1.0" standalone="no"?><!DOCTYPE svg PUBLIC "-//W3C//DTD SVG 1.1//EN" "http://www.w3.org/Graphics/SVG/1.1/DTD/svg11.dtd"><svg xmlns:xlink="http://www.w3.org/1999/xlink" version="1.1" class="highcharts-root" style="font-family:Arial;font-size:12px;" xmlns="http://www.w3.org/2000/svg" viewBox="0 0 485 415"><desc>Created with Highcharts 5.0.6</desc><defs><clipPath id="highcharts-5ix105k-1"><rect x="0" y="0" width="422" height="228" fill="none"></rect></clipPath></defs><rect fill="#fbfbfb" class="highcharts-background" x="0" y="0" width="485" height="415" rx="0" ry="0"></rect><rect fill="none" class="highcharts-plot-background" x="53" y="120" width="422" height="228"></rect><g class="highcharts-grid highcharts-xaxis-grid "><path fill="none" class="highcharts-grid-line" d="M 56.5 120 L 56.5 348" opacity="1"></path><path fill="none" class="highcharts-grid-line" d="M 115.5 120 L 115.5 348" opacity="1"></path><path fill="none" class="highcharts-grid-line" d="M 174.5 120 L 174.5 348" opacity="1"></path><path fill="none" class="highcharts-grid-line" d="M 233.5 120 L 233.5 348" opacity="1"></path><path fill="none" class="highcharts-grid-line" d="M 293.5 120 L 293.5 348" opacity="1"></path><path fill="none" class="highcharts-grid-line" d="M 352.5 120 L 352.5 348" opacity="1"></path><path fill="none" class="highcharts-grid-line" d="M 411.5 120 L 411.5 348" opacity="1"></path><path fill="none" class="highcharts-grid-line" d="M 470.5 120 L 470.5 348" opacity="1"></path></g><g class="highcharts-grid highcharts-yaxis-grid "><path fill="none" stroke="#e6e6e6" stroke-width="1" class="highcharts-grid-line" d="M 53 348.5 L 475 348.5" opacity="1"></path><path fill="none" stroke="#e6e6e6" stroke-width="1" class="highcharts-grid-line" d="M 53 291.5 L 475 291.5" opacity="1"></path><path fill="none" stroke="#e6e6e6" stroke-width="1" class="highcharts-grid-line" d="M 53 234.5 L 475 234.5" opacity="1"></path><path fill="none" stroke="#e6e6e6" stroke-width="1" class="highcharts-grid-line" d="M 53 177.5 L 475 177.5" opacity="1"></path><path fill="none" stroke="#e6e6e6" stroke-width="1" class="highcharts-grid-line" d="M 53 119.5 L 475 119.5" opacity="1"></path></g><rect fill="none" class="highcharts-plot-border" x="53" y="120" width="422" height="228"></rect><g class="highcharts-axis highcharts-xaxis "><path fill="none" class="highcharts-axis-line" stroke="#ccd6eb" stroke-width="1" d="M 53 348.5 L 475 348.5"></path></g><g class="highcharts-axis highcharts-yaxis "><path fill="none" class="highcharts-axis-line" d="M 53 120 L 53 348"></path></g><g class="highcharts-series-group"><g class="highcharts-series highcharts-series-0 highcharts-line-series highcharts-color-undefined " transform="translate(53,120) scale(1 1)" width="228" height="422" clip-path="url(#highcharts-5ix105k-1)"><path fill="none" d="M 4.1372549019571 74.1 L 63.240896358541 62.70000000000002 L 122.34453781512 68.4 L 181.44817927171 65.54999999999998 L 240.55182072829 62.70000000000002 L 299.65546218488 68.4 L 358.75910364146 68.4 L 417.86274509804 68.4" class="highcharts-graph" stroke="#B00000" stroke-width="2" stroke-linejoin="round" stroke-linecap="round"></path><path fill="none" d="M -5.8627450980429 74.1 L 4.1372549019571 74.1 L 63.240896358541 62.70000000000002 L 122.34453781512 68.4 L 181.44817927171 65.54999999999998 L 240.55182072829 62.70000000000002 L 299.65546218488 68.4 L 358.75910364146 68.4 L 417.86274509804 68.4 L 427.86274509804 68.4" stroke-linejoin="round" visibility="visible" stroke="rgba(192,192,192,0.0001)" stroke-width="22" class="highcharts-tracker"></path></g><g class="highcharts-markers highcharts-series-0 highcharts-line-series highcharts-color-undefined highcharts-tracker" transform="translate(53,120) scale(1 1)" width="228" height="422" clip-path="none"></g><g class="highcharts-series highcharts-series-1 highcharts-line-series highcharts-color-undefined " transform="translate(53,120) scale(1 1)" width="228" height="422" clip-path="url(#highcharts-5ix105k-1)"><path fill="none" d="M 4.1372549019571 190.95 L 63.240896358541 188.1 L 122.34453781512 188.1 L 181.44817927171 190.95 L 240.55182072829 188.1 L 299.65546218488 193.8 L 358.75910364146 190.95 L 417.86274509804 190.95" class="highcharts-graph" stroke="#71A3B5" stroke-width="2" stroke-linejoin="round" stroke-linecap="round"></path><path fill="none" d="M -5.8627450980429 190.95 L 4.1372549019571 190.95 L 63.240896358541 188.1 L 122.34453781512 188.1 L 181.44817927171 190.95 L 240.55182072829 188.1 L 299.65546218488 193.8 L 358.75910364146 190.95 L 417.86274509804 190.95 L 427.86274509804 190.95" stroke-linejoin="round" visibility="visible" stroke="rgba(192,192,192,0.0001)" stroke-width="22" class="highcharts-tracker"></path></g><g class="highcharts-markers highcharts-series-1 highcharts-line-series highcharts-color-undefined highcharts-tracker" transform="translate(53,120) scale(1 1)" width="228" height="422" clip-path="none"><path fill="#71A3B5" d="M 417 187 C 422.328 187 422.328 195 417 195 C 411.672 195 411.672 187 417 187 Z" class="highcharts-point"></path><path fill="#71A3B5" d="M 358 187 C 363.328 187 363.328 195 358 195 C 352.672 195 352.672 187 358 187 Z" class="highcharts-point"></path><path fill="#71A3B5" d="M 299 190 C 304.328 190 304.328 198 299 198 C 293.672 198 293.672 190 299 190 Z" class="highcharts-point"></path><path fill="#71A3B5" d="M 240 184 C 245.328 184 245.328 192 240 192 C 234.672 192 234.672 184 240 184 Z" class="highcharts-point"></path><path fill="#71A3B5" d="M 181 187 C 186.328 187 186.328 195 181 195 C 175.672 195 175.672 187 181 187 Z" class="highcharts-point"></path><path fill="#71A3B5" d="M 122 184 C 127.328 184 127.328 192 122 192 C 116.672 192 116.672 184 122 184 Z" class="highcharts-point"></path><path fill="#71A3B5" d="M 63 184 C 68.328 184 68.328 192 63 192 C 57.672 192 57.672 184 63 184 Z" class="highcharts-point"></path><path fill="#71A3B5" d="M 4 187 C 9.328 187 9.328 195 4 195 C -1.328 195 -1.328 187 4 187 Z" class="highcharts-point"></path></g><g class="highcharts-series highcharts-series-2 highcharts-line-series highcharts-color-undefined " transform="translate(53,120) scale(1 1)" width="228" height="422" clip-path="url(#highcharts-5ix105k-1)"><path fill="none" d="M 4.1372549019571 176.7 L 63.240896358541 171 L 122.34453781512 168.15 L 181.44817927171 165.3 L 240.55182072829 159.60000000000002 L 299.65546218488 168.15 L 358.75910364146 165.3 L 417.86274509804 162.45" class="highcharts-graph" stroke="#672773" stroke-width="2" stroke-linejoin="round" stroke-linecap="round"></path><path fill="none" d="M -5.8627450980429 176.7 L 4.1372549019571 176.7 L 63.240896358541 171 L 122.34453781512 168.15 L 181.44817927171 165.3 L 240.55182072829 159.60000000000002 L 299.65546218488 168.15 L 358.75910364146 165.3 L 417.86274509804 162.45 L 427.86274509804 162.45" stroke-linejoin="round" visibility="visible" stroke="rgba(192,192,192,0.0001)" stroke-width="22" class="highcharts-tracker"></path></g><g class="highcharts-markers highcharts-series-2 highcharts-line-series highcharts-color-undefined highcharts-tracker" transform="translate(53,120) scale(1 1)" width="228" height="422" clip-path="none"></g><g class="highcharts-series highcharts-series-3 highcharts-line-series highcharts-color-undefined " transform="translate(53,120) scale(1 1)" width="228" height="422" clip-path="url(#highcharts-5ix105k-1)"><path fill="none" d="M 4.1372549019571 145.35000000000002 L 63.240896358541 139.64999999999998 L 122.34453781512 145.35000000000002 L 181.44817927171 145.35000000000002 L 240.55182072829 151.05 L 299.65546218488 159.60000000000002 L 358.75910364146 165.3 L 417.86274509804 165.3" class="highcharts-graph" stroke="#007A2F" stroke-width="2" stroke-linejoin="round" stroke-linecap="round"></path><path fill="none" d="M -5.8627450980429 145.35000000000002 L 4.1372549019571 145.35000000000002 L 63.240896358541 139.64999999999998 L 122.34453781512 145.35000000000002 L 181.44817927171 145.35000000000002 L 240.55182072829 151.05 L 299.65546218488 159.60000000000002 L 358.75910364146 165.3 L 417.86274509804 165.3 L 427.86274509804 165.3" stroke-linejoin="round" visibility="visible" stroke="rgba(192,192,192,0.0001)" stroke-width="22" class="highcharts-tracker"></path></g><g class="highcharts-markers highcharts-series-3 highcharts-line-series highcharts-color-undefined highcharts-tracker" transform="translate(53,120) scale(1 1)" width="228" height="422" clip-path="none"></g><g class="highcharts-series highcharts-series-4 highcharts-line-series highcharts-color-undefined " transform="translate(53,120) scale(1 1)" width="228" height="422" clip-path="url(#highcharts-5ix105k-1)"><path fill="none" d="M 4.1372549019571 139.64999999999998 L 63.240896358541 136.8 L 122.34453781512 148.2 L 181.44817927171 153.89999999999998 L 240.55182072829 162.45 L 299.65546218488 165.3 L 358.75910364146 168.15 L 417.86274509804 179.55" class="highcharts-graph" stroke="#73BA7C" stroke-width="2" stroke-linejoin="round" stroke-linecap="round"></path><path fill="none" d="M -5.8627450980429 139.64999999999998 L 4.1372549019571 139.64999999999998 L 63.240896358541 136.8 L 122.34453781512 148.2 L 181.44817927171 153.89999999999998 L 240.55182072829 162.45 L 299.65546218488 165.3 L 358.75910364146 168.15 L 417.86274509804 179.55 L 427.86274509804 179.55" stroke-linejoin="round" visibility="visible" stroke="rgba(192,192,192,0.0001)" stroke-width="22" class="highcharts-tracker"></path></g><g class="highcharts-markers highcharts-series-4 highcharts-line-series highcharts-color-undefined highcharts-tracker" transform="translate(53,120) scale(1 1)" width="228" height="422" clip-path="none"></g><g class="highcharts-series highcharts-series-5 highcharts-line-series highcharts-color-undefined " transform="translate(53,120) scale(1 1)" width="228" height="422" clip-path="url(#highcharts-5ix105k-1)"><path fill="none" d="M 4.1372549019571 202.35 L 63.240896358541 202.35 L 122.34453781512 202.35 L 181.44817927171 202.35 L 240.55182072829 199.5 L 299.65546218488 202.35 L 358.75910364146 199.5 L 417.86274509804 199.5" class="highcharts-graph" stroke="#FABD24" stroke-width="2" stroke-linejoin="round" stroke-linecap="round"></path><path fill="none" d="M -5.8627450980429 202.35 L 4.1372549019571 202.35 L 63.240896358541 202.35 L 122.34453781512 202.35 L 181.44817927171 202.35 L 240.55182072829 199.5 L 299.65546218488 202.35 L 358.75910364146 199.5 L 417.86274509804 199.5 L 427.86274509804 199.5" stroke-linejoin="round" visibility="visible" stroke="rgba(192,192,192,0.0001)" stroke-width="22" class="highcharts-tracker"></path></g><g class="highcharts-markers highcharts-series-5 highcharts-line-series highcharts-color-undefined highcharts-tracker" transform="translate(53,120) scale(1 1)" width="228" height="422" clip-path="none"></g><g class="highcharts-series highcharts-series-6 highcharts-line-series highcharts-color-undefined " transform="translate(53,120) scale(1 1)" width="228" height="422" clip-path="url(#highcharts-5ix105k-1)"><path fill="none" d="M 4.1372549019571 208.05 L 63.240896358541 208.05 L 122.34453781512 210.9 L 181.44817927171 208.05 L 240.55182072829 210.9 L 299.65546218488 208.05 L 358.75910364146 205.2 L 417.86274509804 205.2" class="highcharts-graph" stroke="#D3E2E5" stroke-width="2" stroke-linejoin="round" stroke-linecap="round"></path><path fill="none" d="M -5.8627450980429 208.05 L 4.1372549019571 208.05 L 63.240896358541 208.05 L 122.34453781512 210.9 L 181.44817927171 208.05 L 240.55182072829 210.9 L 299.65546218488 208.05 L 358.75910364146 205.2 L 417.86274509804 205.2 L 427.86274509804 205.2" stroke-linejoin="round" visibility="visible" stroke="rgba(192,192,192,0.0001)" stroke-width="22" class="highcharts-tracker"></path></g><g class="highcharts-markers highcharts-series-6 highcharts-line-series highcharts-color-undefined highcharts-tracker" transform="translate(53,120) scale(1 1)" width="228" height="422" clip-path="none"></g></g><text x="10" text-anchor="start" class="highcharts-title" style="color:#000000;font-size:14px;font-weight:bold;fill:#000000;width:421px;" y="21"><tspan>I.18.3.0001 Angestellte in der kantonalen</tspan><tspan dy="17" x="10">Verwaltung nach Staatsangehörigkeit seit 2008</tspan><title>I.18.3.0001 Angestellte in der kantonalen Verwaltung nach Staatsangehörigkeit seit 2008</title></text><g class="highcharts-legend" transform="translate(30,45)"><rect fill="none" class="highcharts-legend-box" rx="0" ry="0" x="0" y="0" width="387" height="51" visibility="visible"></rect><g><g><g class="highcharts-legend-item highcharts-line-series highcharts-color-undefined highcharts-series-0" transform="translate(8,3)"><path fill="none" d="M 0 11 L 16 11" class="highcharts-graph" stroke="#B00000" stroke-width="2"></path><text x="21" style="color:#333333;font-size:12px;font-weight:normal;cursor:pointer;fill:#333333;" text-anchor="start" y="15">Schweiz</text></g><g class="highcharts-legend-item highcharts-line-series highcharts-color-undefined highcharts-series-1" transform="translate(99.15625,3)"><path fill="none" d="M 0 11 L 16 11" class="highcharts-graph" stroke="#71A3B5" stroke-width="2"></path><path fill="#71A3B5" d="M 8 7 C 13.328 7 13.328 15 8 15 C 2.6719999999999997 15 2.6719999999999997 7 8 7 Z" class="highcharts-point"></path><text x="21" y="15" style="color:#333333;font-size:12px;font-weight:normal;cursor:pointer;fill:#333333;" text-anchor="start">Ausland</text></g><g class="highcharts-legend-item highcharts-line-series highcharts-color-undefined highcharts-series-2" transform="translate(189.046875,3)"><path fill="none" d="M 0 11 L 16 11" class="highcharts-graph" stroke="#672773" stroke-width="2"></path><text x="21" y="15" style="color:#333333;font-size:12px;font-weight:normal;cursor:pointer;fill:#333333;" text-anchor="start">Deutschland</text></g><g class="highcharts-legend-item highcharts-line-series highcharts-color-undefined highcharts-series-3" transform="translate(306.234375,3)"><path fill="none" d="M 0 11 L 16 11" class="highcharts-graph" stroke="#007A2F" stroke-width="2"></path><text x="21" y="15" style="color:#333333;font-size:12px;font-weight:normal;cursor:pointer;fill:#333333;" text-anchor="start">Italien</text></g><g class="highcharts-legend-item highcharts-line-series highcharts-color-undefined highcharts-series-4" transform="translate(8,23)"><path fill="none" d="M 0 11 L 16 11" class="highcharts-graph" stroke="#73BA7C" stroke-width="2"></path><text x="21" y="15" style="color:#333333;font-size:12px;font-weight:normal;cursor:pointer;fill:#333333;" text-anchor="start">Spanien</text></g><g class="highcharts-legend-item highcharts-line-series highcharts-color-undefined highcharts-series-5" transform="translate(98.390625,23)"><path fill="none" d="M 0 11 L 16 11" class="highcharts-graph" stroke="#FABD24" stroke-width="2"></path><text x="21" y="15" style="color:#333333;font-size:12px;font-weight:normal;cursor:pointer;fill:#333333;" text-anchor="start">Türkei</text></g><g class="highcharts-legend-item highcharts-line-series highcharts-color-undefined highcharts-series-6" transform="translate(179.03125,23)"><path fill="none" d="M 0 11 L 16 11" class="highcharts-graph" stroke="#D3E2E5" stroke-width="2"></path><text x="21" y="15" style="color:#333333;font-size:12px;font-weight:normal;cursor:pointer;fill:#333333;" text-anchor="start"><tspan>Ehem. Jugoslawien ohne SLO</tspan></text></g></g></g></g><g class="highcharts-axis-labels highcharts-xaxis-labels "><text x="57.13725490195709" style="color:#000000;cursor:default;font-size:11px;fill:#000000;" text-anchor="middle" transform="translate(0,0)" y="367" opacity="1">2008</text><text x="116.24089635854078" style="color:#000000;cursor:default;font-size:11px;fill:#000000;" text-anchor="middle" transform="translate(0,0)" y="367" opacity="1">2009</text><text x="175.34453781512445" style="color:#000000;cursor:default;font-size:11px;fill:#000000;" text-anchor="middle" transform="translate(0,0)" y="367" opacity="1">2010</text><text x="234.44817927170817" style="color:#000000;cursor:default;font-size:11px;fill:#000000;" text-anchor="middle" transform="translate(0,0)" y="367" opacity="1">2011</text><text x="293.5518207282919" style="color:#000000;cursor:default;font-size:11px;fill:#000000;" text-anchor="middle" transform="translate(0,0)" y="367" opacity="1">2012</text><text x="352.65546218487555" style="color:#000000;cursor:default;font-size:11px;fill:#000000;" text-anchor="middle" transform="translate(0,0)" y="367" opacity="1">2013</text><text x="411.7591036414592" style="color:#000000;cursor:default;font-size:11px;fill:#000000;" text-anchor="middle" transform="translate(0,0)" y="367" opacity="1">2014</text><text x="461.03125" style="color:#000000;cursor:default;font-size:11px;fill:#000000;" text-anchor="middle" transform="translate(0,0)" y="367" opacity="1">2015</text></g><g class="highcharts-axis-labels highcharts-yaxis-labels "><text x="38" style="color:#000000;cursor:default;font-size:11px;fill:#000000;width:150px;text-overflow:clip;" text-anchor="end" transform="translate(0,0)" y="352" opacity="1"><tspan>0.0%</tspan></text><text x="38" style="color:#000000;cursor:default;font-size:11px;fill:#000000;width:150px;text-overflow:clip;" text-anchor="end" transform="translate(0,0)" y="295" opacity="1"><tspan>2.0%</tspan></text><text x="38" style="color:#000000;cursor:default;font-size:11px;fill:#000000;width:150px;text-overflow:clip;" text-anchor="end" transform="translate(0,0)" y="238" opacity="1"><tspan>4.0%</tspan></text><text x="38" style="color:#000000;cursor:default;font-size:11px;fill:#000000;width:150px;text-overflow:clip;" text-anchor="end" transform="translate(0,0)" y="181" opacity="1"><tspan>6.0%</tspan></text><text x="38" style="color:#000000;cursor:default;font-size:11px;fill:#000000;width:150px;text-overflow:clip;" text-anchor="end" transform="translate(0,0)" y="124" opacity="1"><tspan>8.0%</tspan></text></g><text x="10" class="highcharts-credits" text-anchor="start" style="cursor:default;color:#000000;font-size:10px;fill:#000000;" y="400"><tspan>Quelle: Zentraler Personaldienst Basel-Stadt, Statistik des Staatspersonals</tspan></text></svg>