<?xml version="1.0" standalone="no"?><!DOCTYPE svg PUBLIC "-//W3C//DTD SVG 1.1//EN" "http://www.w3.org/Graphics/SVG/1.1/DTD/svg11.dtd"><svg xmlns:xlink="http://www.w3.org/1999/xlink" version="1.1" class="highcharts-root" style="font-family:Arial;font-size:12px;" xmlns="http://www.w3.org/2000/svg" viewBox="0 0 485 415"><desc>Created with Highcharts 5.0.6</desc><defs><clipPath id="highcharts-8nw5cob-1"><rect x="0" y="0" width="307" height="354" fill="none"></rect></clipPath></defs><rect fill="#fbfbfb" class="highcharts-background" x="0" y="0" width="485" height="415" rx="0" ry="0"></rect><rect fill="none" class="highcharts-plot-background" x="121" y="41" width="354" height="307"></rect><g class="highcharts-grid highcharts-xaxis-grid "><path fill="none" class="highcharts-grid-line" d="M 121 56.5 L 475 56.5" opacity="1"></path><path fill="none" class="highcharts-grid-line" d="M 121 70.5 L 475 70.5" opacity="1"></path><path fill="none" class="highcharts-grid-line" d="M 121 85.5 L 475 85.5" opacity="1"></path><path fill="none" class="highcharts-grid-line" d="M 121 99.5 L 475 99.5" opacity="1"></path><path fill="none" class="highcharts-grid-line" d="M 121 114.5 L 475 114.5" opacity="1"></path><path fill="none" class="highcharts-grid-line" d="M 121 129.5 L 475 129.5" opacity="1"></path><path fill="none" class="highcharts-grid-line" d="M 121 143.5 L 475 143.5" opacity="1"></path><path fill="none" class="highcharts-grid-line" d="M 121 158.5 L 475 158.5" opacity="1"></path><path fill="none" class="highcharts-grid-line" d="M 121 173.5 L 475 173.5" opacity="1"></path><path fill="none" class="highcharts-grid-line" d="M 121 187.5 L 475 187.5" opacity="1"></path><path fill="none" class="highcharts-grid-line" d="M 121 202.5 L 475 202.5" opacity="1"></path><path fill="none" class="highcharts-grid-line" d="M 121 216.5 L 475 216.5" opacity="1"></path><path fill="none" class="highcharts-grid-line" d="M 121 231.5 L 475 231.5" opacity="1"></path><path fill="none" class="highcharts-grid-line" d="M 121 246.5 L 475 246.5" opacity="1"></path><path fill="none" class="highcharts-grid-line" d="M 121 260.5 L 475 260.5" opacity="1"></path><path fill="none" class="highcharts-grid-line" d="M 121 275.5 L 475 275.5" opacity="1"></path><path fill="none" class="highcharts-grid-line" d="M 121 290.5 L 475 290.5" opacity="1"></path><path fill="none" class="highcharts-grid-line" d="M 121 304.5 L 475 304.5" opacity="1"></path><path fill="none" class="highcharts-grid-line" d="M 121 319.5 L 475 319.5" opacity="1"></path><path fill="none" class="highcharts-grid-line" d="M 121 333.5 L 475 333.5" opacity="1"></path><path fill="none" class="highcharts-grid-line" d="M 121 348.5 L 475 348.5" opacity="1"></path><path fill="none" class="highcharts-grid-line" d="M 121 41.5 L 475 41.5" opacity="1"></path></g><g class="highcharts-grid highcharts-yaxis-grid "><path fill="none" stroke="#e6e6e6" stroke-width="1" class="highcharts-grid-line" d="M 120.5 41 L 120.5 348" opacity="1"></path><path fill="none" stroke="#e6e6e6" stroke-width="1" class="highcharts-grid-line" d="M 191.5 41 L 191.5 348" opacity="1"></path><path fill="none" stroke="#e6e6e6" stroke-width="1" class="highcharts-grid-line" d="M 262.5 41 L 262.5 348" opacity="1"></path><path fill="none" stroke="#e6e6e6" stroke-width="1" class="highcharts-grid-line" d="M 332.5 41 L 332.5 348" opacity="1"></path><path fill="none" stroke="#e6e6e6" stroke-width="1" class="highcharts-grid-line" d="M 403.5 41 L 403.5 348" opacity="1"></path><path fill="none" stroke="#e6e6e6" stroke-width="1" class="highcharts-grid-line" d="M 475.5 41 L 475.5 348" opacity="1"></path></g><rect fill="none" class="highcharts-plot-border" x="121" y="41" width="354" height="307"></rect><g class="highcharts-axis highcharts-xaxis "><path fill="none" class="highcharts-tick" stroke="#FFFFFF" stroke-width="1" d="M 121 56.5 L 111 56.5" opacity="1"></path><path fill="none" class="highcharts-tick" stroke="#FFFFFF" stroke-width="1" d="M 121 70.5 L 111 70.5" opacity="1"></path><path fill="none" class="highcharts-tick" stroke="#FFFFFF" stroke-width="1" d="M 121 85.5 L 111 85.5" opacity="1"></path><path fill="none" class="highcharts-tick" stroke="#FFFFFF" stroke-width="1" d="M 121 99.5 L 111 99.5" opacity="1"></path><path fill="none" class="highcharts-tick" stroke="#FFFFFF" stroke-width="1" d="M 121 114.5 L 111 114.5" opacity="1"></path><path fill="none" class="highcharts-tick" stroke="#FFFFFF" stroke-width="1" d="M 121 129.5 L 111 129.5" opacity="1"></path><path fill="none" class="highcharts-tick" stroke="#FFFFFF" stroke-width="1" d="M 121 143.5 L 111 143.5" opacity="1"></path><path fill="none" class="highcharts-tick" stroke="#FFFFFF" stroke-width="1" d="M 121 158.5 L 111 158.5" opacity="1"></path><path fill="none" class="highcharts-tick" stroke="#FFFFFF" stroke-width="1" d="M 121 173.5 L 111 173.5" opacity="1"></path><path fill="none" class="highcharts-tick" stroke="#FFFFFF" stroke-width="1" d="M 121 187.5 L 111 187.5" opacity="1"></path><path fill="none" class="highcharts-tick" stroke="#FFFFFF" stroke-width="1" d="M 121 202.5 L 111 202.5" opacity="1"></path><path fill="none" class="highcharts-tick" stroke="#FFFFFF" stroke-width="1" d="M 121 216.5 L 111 216.5" opacity="1"></path><path fill="none" class="highcharts-tick" stroke="#FFFFFF" stroke-width="1" d="M 121 231.5 L 111 231.5" opacity="1"></path><path fill="none" class="highcharts-tick" stroke="#FFFFFF" stroke-width="1" d="M 121 246.5 L 111 246.5" opacity="1"></path><path fill="none" class="highcharts-tick" stroke="#FFFFFF" stroke-width="1" d="M 121 260.5 L 111 260.5" opacity="1"></path><path fill="none" class="highcharts-tick" stroke="#FFFFFF" stroke-width="1" d="M 121 275.5 L 111 275.5" opacity="1"></path><path fill="none" class="highcharts-tick" stroke="#FFFFFF" stroke-width="1" d="M 121 290.5 L 111 290.5" opacity="1"></path><path fill="none" class="highcharts-tick" stroke="#FFFFFF" stroke-width="1" d="M 121 304.5 L 111 304.5" opacity="1"></path><path fill="none" class="highcharts-tick" stroke="#FFFFFF" stroke-width="1" d="M 121 319.5 L 111 319.5" opacity="1"></path><path fill="none" class="highcharts-tick" stroke="#FFFFFF" stroke-width="1" d="M 121 333.5 L 111 333.5" opacity="1"></path><path fill="none" class="highcharts-tick" stroke="#FFFFFF" stroke-width="1" d="M 121 348.5 L 111 348.5" opacity="1"></path><path fill="none" class="highcharts-tick" stroke="#FFFFFF" stroke-width="1" d="M 121 40.5 L 111 40.5" opacity="1"></path><path fill="none" class="highcharts-axis-line" stroke="#ccd6eb" stroke-width="1" d="M 120.5 41 L 120.5 348"></path></g><g class="highcharts-axis highcharts-yaxis "><path fill="none" class="highcharts-axis-line" d="M 121 348 L 475 348"></path></g><g class="highcharts-series-group"><g class="highcharts-series highcharts-series-0 highcharts-scatter-series highcharts-color-undefined highcharts-tracker" transform="translate(475,348) rotate(90) scale(-1,1) scale(1 1)" width="354" height="307" clip-path="url(#highcharts-8nw5cob-1)"></g><g class="highcharts-markers highcharts-series-0 highcharts-scatter-series highcharts-color-undefined highcharts-tracker" transform="translate(475,348) rotate(90) scale(-1,1) scale(1 1)" width="354" height="307" clip-path="none"><path fill="#923F8D" d="M 7 79 C 12.328 79 12.328 87 7 87 C 1.672 87 1.672 79 7 79 Z" class="highcharts-point"></path><path fill="#923F8D" d="M 21 96 C 26.328 96 26.328 104 21 104 C 15.672 104 15.672 96 21 96 Z" class="highcharts-point"></path><path fill="#923F8D" d="M 36 109 C 41.328 109 41.328 117 36 117 C 30.672 117 30.672 109 36 109 Z" class="highcharts-point"></path><path fill="#923F8D" d="M 51 128 C 56.328 128 56.328 136 51 136 C 45.672 136 45.672 128 51 128 Z" class="highcharts-point"></path><path fill="#923F8D" d="M 65 128 C 70.328 128 70.328 136 65 136 C 59.672 136 59.672 128 65 128 Z" class="highcharts-point"></path><path fill="#923F8D" d="M 80 141 C 85.328 141 85.328 149 80 149 C 74.672 149 74.672 141 80 141 Z" class="highcharts-point"></path><path fill="#923F8D" d="M 95 152 C 100.328 152 100.328 160 95 160 C 89.672 160 89.672 152 95 152 Z" class="highcharts-point"></path><path fill="#923F8D" d="M 109 153 C 114.328 153 114.328 161 109 161 C 103.672 161 103.672 153 109 153 Z" class="highcharts-point"></path><path fill="#923F8D" d="M 124 165 C 129.328 165 129.328 173 124 173 C 118.672 173 118.672 165 124 165 Z" class="highcharts-point"></path><path fill="#923F8D" d="M 138 170 C 143.328 170 143.328 178 138 178 C 132.672 178 132.672 170 138 170 Z" class="highcharts-point"></path><path fill="#923F8D" d="M 153 171 C 158.328 171 158.328 179 153 179 C 147.672 179 147.672 171 153 171 Z" class="highcharts-point"></path><path fill="#923F8D" d="M 168 171 C 173.328 171 173.328 179 168 179 C 162.672 179 162.672 171 168 171 Z" class="highcharts-point"></path><path fill="#923F8D" d="M 182 190 C 187.328 190 187.328 198 182 198 C 176.672 198 176.672 190 182 190 Z" class="highcharts-point"></path><path fill="#923F8D" d="M 197 191 C 202.328 191 202.328 199 197 199 C 191.672 199 191.672 191 197 191 Z" class="highcharts-point"></path><path fill="#923F8D" d="M 211 194 C 216.328 194 216.328 202 211 202 C 205.672 202 205.672 194 211 194 Z" class="highcharts-point"></path><path fill="#923F8D" d="M 226 202 C 231.328 202 231.328 210 226 210 C 220.672 210 220.672 202 226 202 Z" class="highcharts-point"></path><path fill="#923F8D" d="M 241 206 C 246.328 206 246.328 214 241 214 C 235.672 214 235.672 206 241 206 Z" class="highcharts-point"></path><path fill="#923F8D" d="M 255 221 C 260.328 221 260.328 229 255 229 C 249.672 229 249.672 221 255 221 Z" class="highcharts-point"></path><path fill="#923F8D" d="M 270 237 C 275.328 237 275.328 245 270 245 C 264.672 245 264.672 237 270 237 Z" class="highcharts-point"></path><path fill="#923F8D" d="M 285 250 C 290.328 250 290.328 258 285 258 C 279.672 258 279.672 250 285 250 Z" class="highcharts-point"></path><path fill="#923F8D" d="M 299 265 C 304.328 265 304.328 273 299 273 C 293.672 273 293.672 265 299 265 Z" class="highcharts-point"></path></g></g><text x="10" text-anchor="start" class="highcharts-title" style="color:#000000;font-size:14px;font-weight:bold;font-family:Arial;fill:#000000;width:421px;" y="21"><tspan>I.01.1.0041 Jugendquotient</tspan></text><g class="highcharts-axis-labels highcharts-xaxis-labels "><text x="106" style="color:#000000;cursor:default;font-size:11px;fill:#000000;width:150px;text-overflow:ellipsis;" text-anchor="end" transform="translate(0,0)" y="52" opacity="1"><tspan>Altstadt Grossbasel</tspan></text><text x="106" style="color:#000000;cursor:default;font-size:11px;fill:#000000;width:150px;text-overflow:ellipsis;" text-anchor="end" transform="translate(0,0)" y="67" opacity="1"><tspan>Altstadt Kleinbasel</tspan></text><text x="106" style="color:#000000;cursor:default;font-size:11px;fill:#000000;width:150px;text-overflow:ellipsis;" text-anchor="end" transform="translate(0,0)" y="82" opacity="1"><tspan>Vorstädte</tspan></text><text x="106" style="color:#000000;cursor:default;font-size:11px;fill:#000000;width:150px;text-overflow:ellipsis;" text-anchor="end" transform="translate(0,0)" y="96" opacity="1"><tspan>Clara</tspan></text><text x="106" style="color:#000000;cursor:default;font-size:11px;fill:#000000;width:150px;text-overflow:ellipsis;" text-anchor="end" transform="translate(0,0)" y="111" opacity="1"><tspan>Gundeldingen</tspan></text><text x="106" style="color:#000000;cursor:default;font-size:11px;fill:#000000;width:150px;text-overflow:ellipsis;" text-anchor="end" transform="translate(0,0)" y="125" opacity="1"><tspan>Am Ring</tspan></text><text x="106" style="color:#000000;cursor:default;font-size:11px;fill:#000000;width:150px;text-overflow:ellipsis;" text-anchor="end" transform="translate(0,0)" y="140" opacity="1"><tspan>Wettstein</tspan></text><text x="106" style="color:#000000;cursor:default;font-size:11px;fill:#000000;width:150px;text-overflow:ellipsis;" text-anchor="end" transform="translate(0,0)" y="155" opacity="1"><tspan>Matthäus</tspan></text><text x="106" style="color:#000000;cursor:default;font-size:11px;fill:#000000;width:150px;text-overflow:ellipsis;" text-anchor="end" transform="translate(0,0)" y="169" opacity="1"><tspan>Breite</tspan></text><text x="106" style="color:#000000;cursor:default;font-size:11px;fill:#000000;width:150px;text-overflow:ellipsis;" text-anchor="end" transform="translate(0,0)" y="184" opacity="1"><tspan>St. Johann</tspan></text><text x="106" style="color:#000000;cursor:default;font-size:11px;fill:#000000;width:150px;text-overflow:ellipsis;" text-anchor="end" transform="translate(0,0)" y="199" opacity="1"><tspan>Rosental</tspan></text><text x="106" style="color:#000000;cursor:default;font-size:11px;fill:#000000;width:150px;text-overflow:ellipsis;" text-anchor="end" transform="translate(0,0)" y="213" opacity="1"><tspan>Gotthelf</tspan></text><text x="106" style="color:#000000;cursor:default;font-size:11px;fill:#000000;width:150px;text-overflow:ellipsis;" text-anchor="end" transform="translate(0,0)" y="228" opacity="1"><tspan>Iselin</tspan></text><text x="106" style="color:#000000;cursor:default;font-size:11px;fill:#000000;width:150px;text-overflow:ellipsis;" text-anchor="end" transform="translate(0,0)" y="242" opacity="1"><tspan>Klybeck</tspan></text><text x="106" style="color:#000000;cursor:default;font-size:11px;fill:#000000;width:150px;text-overflow:ellipsis;" text-anchor="end" transform="translate(0,0)" y="257" opacity="1"><tspan>St. Alban</tspan></text><text x="106" style="color:#000000;cursor:default;font-size:11px;fill:#000000;width:150px;text-overflow:ellipsis;" text-anchor="end" transform="translate(0,0)" y="272" opacity="1"><tspan>Bachletten</tspan></text><text x="106" style="color:#000000;cursor:default;font-size:11px;fill:#000000;width:150px;text-overflow:ellipsis;" text-anchor="end" transform="translate(0,0)" y="286" opacity="1"><tspan>Kleinhüningen</tspan></text><text x="106" style="color:#000000;cursor:default;font-size:11px;fill:#000000;width:150px;text-overflow:ellipsis;" text-anchor="end" transform="translate(0,0)" y="301" opacity="1"><tspan>Bettingen</tspan></text><text x="106" style="color:#000000;cursor:default;font-size:11px;fill:#000000;width:150px;text-overflow:ellipsis;" text-anchor="end" transform="translate(0,0)" y="315" opacity="1"><tspan>Hirzbrunnen</tspan></text><text x="106" style="color:#000000;cursor:default;font-size:11px;fill:#000000;width:150px;text-overflow:ellipsis;" text-anchor="end" transform="translate(0,0)" y="330" opacity="1"><tspan>Riehen</tspan></text><text x="106" style="color:#000000;cursor:default;font-size:11px;fill:#000000;width:150px;text-overflow:ellipsis;" text-anchor="end" transform="translate(0,0)" y="345" opacity="1"><tspan>Bruderholz</tspan></text></g><g class="highcharts-axis-labels highcharts-yaxis-labels "><text x="121" style="color:#000000;cursor:default;font-size:11px;fill:#000000;width:61px;text-overflow:clip;" text-anchor="middle" transform="translate(0,0)" y="367" opacity="1"><tspan>0%</tspan></text><text x="191.8" style="color:#000000;cursor:default;font-size:11px;fill:#000000;width:61px;text-overflow:clip;" text-anchor="middle" transform="translate(0,0)" y="367" opacity="1"><tspan>10%</tspan></text><text x="262.6" style="color:#000000;cursor:default;font-size:11px;fill:#000000;width:61px;text-overflow:clip;" text-anchor="middle" transform="translate(0,0)" y="367" opacity="1"><tspan>20%</tspan></text><text x="333.4" style="color:#000000;cursor:default;font-size:11px;fill:#000000;width:61px;text-overflow:clip;" text-anchor="middle" transform="translate(0,0)" y="367" opacity="1"><tspan>30%</tspan></text><text x="404.2" style="color:#000000;cursor:default;font-size:11px;fill:#000000;width:61px;text-overflow:clip;" text-anchor="middle" transform="translate(0,0)" y="367" opacity="1"><tspan>40%</tspan></text><text x="464" style="color:#000000;cursor:default;font-size:11px;fill:#000000;width:61px;text-overflow:clip;" text-anchor="middle" transform="translate(0,0)" y="367" opacity="1"><tspan>50%</tspan></text></g><text x="10" class="highcharts-credits" text-anchor="start" style="cursor:default;color:#000000;font-size:10px;fill:#000000;" y="400"><tspan>Quelle: Statistisches Amt Basel-Stadt, kantonale Bevölkerungsstatistik</tspan></text></svg>