<?xml version="1.0" standalone="no"?><!DOCTYPE svg PUBLIC "-//W3C//DTD SVG 1.1//EN" "http://www.w3.org/Graphics/SVG/1.1/DTD/svg11.dtd"><svg xmlns:xlink="http://www.w3.org/1999/xlink" version="1.1" class="highcharts-root" style="font-family:Arial;font-size:12px;" xmlns="http://www.w3.org/2000/svg" viewBox="0 0 485 415"><desc>Created with Highcharts 8.2.0</desc><defs><clipPath id="highcharts-k0v5v1a-49-"><rect x="0" y="0" width="305" height="342" fill="none"></rect></clipPath><clipPath id="highcharts-k0v5v1a-71-"><rect x="0" y="0" width="305" height="342" fill="none"></rect></clipPath><clipPath id="highcharts-k0v5v1a-93-"><rect x="113" y="56" width="342" height="305" fill="none"></rect></clipPath></defs><rect fill="#fbfbfb" class="highcharts-background" x="0" y="0" width="485" height="428" rx="0" ry="0"></rect><rect fill="none" class="highcharts-plot-background" x="113" y="56" width="342" height="305"></rect><g class="highcharts-pane-group" data-z-index="0"></g><g class="highcharts-grid highcharts-xaxis-grid" data-z-index="1"><path fill="none" data-z-index="1" class="highcharts-grid-line" d="M 113 71.5 L 455 71.5" opacity="1"></path><path fill="none" data-z-index="1" class="highcharts-grid-line" d="M 113 85.5 L 455 85.5" opacity="1"></path><path fill="none" data-z-index="1" class="highcharts-grid-line" d="M 113 100.5 L 455 100.5" opacity="1"></path><path fill="none" data-z-index="1" class="highcharts-grid-line" d="M 113 114.5 L 455 114.5" opacity="1"></path><path fill="none" data-z-index="1" class="highcharts-grid-line" d="M 113 129.5 L 455 129.5" opacity="1"></path><path fill="none" data-z-index="1" class="highcharts-grid-line" d="M 113 143.5 L 455 143.5" opacity="1"></path><path fill="none" data-z-index="1" class="highcharts-grid-line" d="M 113 158.5 L 455 158.5" opacity="1"></path><path fill="none" data-z-index="1" class="highcharts-grid-line" d="M 113 172.5 L 455 172.5" opacity="1"></path><path fill="none" data-z-index="1" class="highcharts-grid-line" d="M 113 187.5 L 455 187.5" opacity="1"></path><path fill="none" data-z-index="1" class="highcharts-grid-line" d="M 113 201.5 L 455 201.5" opacity="1"></path><path fill="none" data-z-index="1" class="highcharts-grid-line" d="M 113 216.5 L 455 216.5" opacity="1"></path><path fill="none" data-z-index="1" class="highcharts-grid-line" d="M 113 230.5 L 455 230.5" opacity="1"></path><path fill="none" data-z-index="1" class="highcharts-grid-line" d="M 113 245.5 L 455 245.5" opacity="1"></path><path fill="none" data-z-index="1" class="highcharts-grid-line" d="M 113 259.5 L 455 259.5" opacity="1"></path><path fill="none" data-z-index="1" class="highcharts-grid-line" d="M 113 274.5 L 455 274.5" opacity="1"></path><path fill="none" data-z-index="1" class="highcharts-grid-line" d="M 113 288.5 L 455 288.5" opacity="1"></path><path fill="none" data-z-index="1" class="highcharts-grid-line" d="M 113 303.5 L 455 303.5" opacity="1"></path><path fill="none" data-z-index="1" class="highcharts-grid-line" d="M 113 317.5 L 455 317.5" opacity="1"></path><path fill="none" data-z-index="1" class="highcharts-grid-line" d="M 113 332.5 L 455 332.5" opacity="1"></path><path fill="none" data-z-index="1" class="highcharts-grid-line" d="M 113 346.5 L 455 346.5" opacity="1"></path><path fill="none" data-z-index="1" class="highcharts-grid-line" d="M 113 361.5 L 455 361.5" opacity="1"></path><path fill="none" data-z-index="1" class="highcharts-grid-line" d="M 113 56.5 L 455 56.5" opacity="1"></path></g><g class="highcharts-grid highcharts-yaxis-grid" data-z-index="1"><path fill="none" stroke="#B9CFD7" stroke-width="0.5" data-z-index="1" class="highcharts-grid-line" d="M 112.75 56 L 112.75 361" opacity="1"></path><path fill="none" stroke="#B9CFD7" stroke-width="0.5" data-z-index="1" class="highcharts-grid-line" d="M 180.75 56 L 180.75 361" opacity="1"></path><path fill="none" stroke="#B9CFD7" stroke-width="0.5" data-z-index="1" class="highcharts-grid-line" d="M 249.75 56 L 249.75 361" opacity="1"></path><path fill="none" stroke="#B9CFD7" stroke-width="0.5" data-z-index="1" class="highcharts-grid-line" d="M 317.75 56 L 317.75 361" opacity="1"></path><path fill="none" stroke="#B9CFD7" stroke-width="0.5" data-z-index="1" class="highcharts-grid-line" d="M 386.75 56 L 386.75 361" opacity="1"></path><path fill="none" stroke="#B9CFD7" stroke-width="0.5" data-z-index="1" class="highcharts-grid-line" d="M 455.25 56 L 455.25 361" opacity="1"></path></g><rect fill="none" class="highcharts-plot-border" data-z-index="1" x="113" y="56" width="342" height="305"></rect><g class="highcharts-axis highcharts-xaxis" data-z-index="2"><path fill="none" class="highcharts-axis-line" stroke="#B9CFD7" stroke-width="0.5" data-z-index="7" d="M 112.75 56 L 112.75 361"></path></g><g class="highcharts-axis highcharts-yaxis" data-z-index="2"><path fill="none" class="highcharts-axis-line" data-z-index="7" d="M 113 361 L 455 361"></path></g><g class="highcharts-series-group" data-z-index="3"><g class="highcharts-series highcharts-series-0 highcharts-scatter-series" data-z-index="0.1" opacity="1" transform="translate(455,361) rotate(90) scale(-1,1) scale(1 1)" clip-path="url(#highcharts-k0v5v1a-71-)"></g><g class="highcharts-markers highcharts-series-0 highcharts-scatter-series" data-z-index="0.1" opacity="1" transform="translate(455,361) rotate(90) scale(-1,1) scale(1 1)" clip-path="none"><path fill="#689199" d="M 297 343 A 4 4 0 1 1 297.00399999933336 342.9999980000002 Z" opacity="1" class="highcharts-point"></path><path fill="#689199" d="M 283 343 A 4 4 0 1 1 283.00399999933336 342.9999980000002 Z" opacity="1" class="highcharts-point"></path><path fill="#689199" d="M 268 341 A 4 4 0 1 1 268.00399999933336 340.9999980000002 Z" opacity="1" class="highcharts-point"></path><path fill="#689199" d="M 254 339 A 4 4 0 1 1 254.00399999933333 338.9999980000002 Z" opacity="1" class="highcharts-point"></path><path fill="#689199" d="M 239 337 A 4 4 0 1 1 239.00399999933333 336.9999980000002 Z" opacity="1" class="highcharts-point"></path><path fill="#689199" d="M 225 337 A 4 4 0 1 1 225.00399999933333 336.9999980000002 Z" opacity="1" class="highcharts-point"></path><path fill="#689199" d="M 210 337 A 4 4 0 1 1 210.00399999933333 336.9999980000002 Z" opacity="1" class="highcharts-point"></path><path fill="#689199" d="M 196 336 A 4 4 0 1 1 196.00399999933333 335.9999980000002 Z" opacity="1" class="highcharts-point"></path><path fill="#689199" d="M 181 336 A 4 4 0 1 1 181.00399999933333 335.9999980000002 Z" opacity="1" class="highcharts-point"></path><path fill="#689199" d="M 167 335 A 4 4 0 1 1 167.00399999933333 334.9999980000002 Z" opacity="1" class="highcharts-point"></path><path fill="#689199" d="M 152 328 A 4 4 0 1 1 152.00399999933333 327.9999980000002 Z" opacity="1" class="highcharts-point"></path><path fill="#689199" d="M 137 314 A 4 4 0 1 1 137.00399999933333 313.9999980000002 Z" opacity="1" class="highcharts-point"></path><path fill="#689199" d="M 123 314 A 4 4 0 1 1 123.00399999933333 313.9999980000002 Z" opacity="1" class="highcharts-point"></path><path fill="#689199" d="M 108 310 A 4 4 0 1 1 108.00399999933333 309.9999980000002 Z" opacity="1" class="highcharts-point"></path><path fill="#689199" d="M 94 295 A 4 4 0 1 1 94.00399999933333 294.9999980000002 Z" opacity="1" class="highcharts-point"></path><path fill="#689199" d="M 79 281 A 4 4 0 1 1 79.00399999933333 280.9999980000002 Z" opacity="1" class="highcharts-point"></path><path fill="#689199" d="M 65 270 A 4 4 0 1 1 65.00399999933333 269.9999980000002 Z" opacity="1" class="highcharts-point"></path><path fill="#689199" d="M 50 262 A 4 4 0 1 1 50.00399999933334 261.9999980000002 Z" opacity="1" class="highcharts-point"></path><path fill="#689199" d="M 36 124 A 4 4 0 1 1 36.00399999933334 123.99999800000016 Z" opacity="1" class="highcharts-point"></path><path fill="#689199" d="M 21 117 A 4 4 0 1 1 21.003999999333335 116.99999800000016 Z" opacity="1" class="highcharts-point"></path><path fill="#689199" d="M 7 70 A 4 4 0 1 1 7.0039999993333355 69.99999800000016 Z" opacity="1" class="highcharts-point"></path></g><g class="highcharts-series highcharts-series-1 highcharts-scatter-series highcharts-color-0" visibility="hidden" data-z-index="0.1" opacity="1" transform="translate(455,361) rotate(90) scale(-1,1) scale(1 1)" clip-path="url(#highcharts-k0v5v1a-71-)"></g><g class="highcharts-markers highcharts-series-1 highcharts-scatter-series highcharts-color-0" visibility="hidden" data-z-index="0.1" opacity="1" transform="translate(455,361) rotate(90) scale(-1,1) scale(1 1)" clip-path="none"></g></g><text x="10" text-anchor="start" class="highcharts-title" data-z-index="4" style="color:#000000;font-size:14px;font-weight:bold;font-family:Arial;fill:#000000;" y="21"><tspan>Vermögenssteuer in Franken  pro Veranlagung</tspan></text><text x="10" text-anchor="start" class="highcharts-subtitle" data-z-index="4" style="color:#000000;font-size:12px;font-weight:normal;font-family:Arial;fill:#000000;" y="40"><tspan>nach Wohnviertel, Basel-Stadt, Steuerjahr 2021</tspan></text><text x="10" text-anchor="start" class="highcharts-caption" data-z-index="4" style="color:#666666;fill:#666666;" y="395"></text><g class="highcharts-axis-labels highcharts-xaxis-labels" data-z-index="7"><text x="98" style="color:#000000;cursor:default;font-size:10px;fill:#000000;" text-anchor="end" transform="translate(0,0)" y="67" opacity="1">Kleinhüningen</text><text x="98" style="color:#000000;cursor:default;font-size:10px;fill:#000000;" text-anchor="end" transform="translate(0,0)" y="81" opacity="1">Klybeck</text><text x="98" style="color:#000000;cursor:default;font-size:10px;fill:#000000;" text-anchor="end" transform="translate(0,0)" y="96" opacity="1">Rosental</text><text x="98" style="color:#000000;cursor:default;font-size:10px;fill:#000000;" text-anchor="end" transform="translate(0,0)" y="110" opacity="1">Iselin</text><text x="98" style="color:#000000;cursor:default;font-size:10px;fill:#000000;" text-anchor="end" transform="translate(0,0)" y="125" opacity="1">Breite</text><text x="98" style="color:#000000;cursor:default;font-size:10px;fill:#000000;" text-anchor="end" transform="translate(0,0)" y="139" opacity="1"><tspan>St. Johann</tspan></text><text x="98" style="color:#000000;cursor:default;font-size:10px;fill:#000000;" text-anchor="end" transform="translate(0,0)" y="154" opacity="1">Clara</text><text x="98" style="color:#000000;cursor:default;font-size:10px;fill:#000000;" text-anchor="end" transform="translate(0,0)" y="168" opacity="1">Matthäus</text><text x="98" style="color:#000000;cursor:default;font-size:10px;fill:#000000;" text-anchor="end" transform="translate(0,0)" y="183" opacity="1">Gundeldingen</text><text x="98" style="color:#000000;cursor:default;font-size:10px;fill:#000000;" text-anchor="end" transform="translate(0,0)" y="197" opacity="1">Hirzbrunnen</text><text x="98" style="color:#000000;cursor:default;font-size:10px;fill:#000000;" text-anchor="end" transform="translate(0,0)" y="212" opacity="1"><tspan>Altstadt Kleinbasel</tspan></text><text x="98" style="color:#000000;cursor:default;font-size:10px;fill:#000000;" text-anchor="end" transform="translate(0,0)" y="227" opacity="1"><tspan>Am Ring</tspan></text><text x="98" style="color:#000000;cursor:default;font-size:10px;fill:#000000;" text-anchor="end" transform="translate(0,0)" y="241" opacity="1">Wettstein</text><text x="98" style="color:#000000;cursor:default;font-size:10px;fill:#000000;" text-anchor="end" transform="translate(0,0)" y="256" opacity="1">Bachletten</text><text x="98" style="color:#000000;cursor:default;font-size:10px;fill:#000000;" text-anchor="end" transform="translate(0,0)" y="270" opacity="1">Riehen</text><text x="98" style="color:#000000;cursor:default;font-size:10px;fill:#000000;" text-anchor="end" transform="translate(0,0)" y="285" opacity="1">Gotthelf</text><text x="98" style="color:#000000;cursor:default;font-size:10px;fill:#000000;" text-anchor="end" transform="translate(0,0)" y="299" opacity="1"><tspan>St. Alban</tspan></text><text x="98" style="color:#000000;cursor:default;font-size:10px;fill:#000000;" text-anchor="end" transform="translate(0,0)" y="314" opacity="1"><tspan>Altstadt Grossbasel</tspan></text><text x="98" style="color:#000000;cursor:default;font-size:10px;fill:#000000;" text-anchor="end" transform="translate(0,0)" y="328" opacity="1">Bruderholz</text><text x="98" style="color:#000000;cursor:default;font-size:10px;fill:#000000;" text-anchor="end" transform="translate(0,0)" y="343" opacity="1">Bettingen</text><text x="98" style="color:#000000;cursor:default;font-size:10px;fill:#000000;" text-anchor="end" transform="translate(0,0)" y="357" opacity="1">Vorstädte</text></g><g class="highcharts-axis-labels highcharts-yaxis-labels" data-z-index="7"><text x="113" style="color:#000000;cursor:default;font-size:11px;fill:#000000;" text-anchor="middle" transform="translate(0,0)" y="380" opacity="1">0</text><text x="181.4" style="color:#000000;cursor:default;font-size:11px;fill:#000000;" text-anchor="middle" transform="translate(0,0)" y="380" opacity="1"><tspan>5 000</tspan></text><text x="249.8" style="color:#000000;cursor:default;font-size:11px;fill:#000000;" text-anchor="middle" transform="translate(0,0)" y="380" opacity="1"><tspan>10 000</tspan></text><text x="318.2" style="color:#000000;cursor:default;font-size:11px;fill:#000000;" text-anchor="middle" transform="translate(0,0)" y="380" opacity="1"><tspan>15 000</tspan></text><text x="386.6" style="color:#000000;cursor:default;font-size:11px;fill:#000000;" text-anchor="middle" transform="translate(0,0)" y="380" opacity="1"><tspan>20 000</tspan></text><text x="455" style="color:#000000;cursor:default;font-size:11px;fill:#000000;" text-anchor="middle" transform="translate(0,0)" y="380" opacity="1"><tspan>25 000</tspan></text></g><text x="10" class="highcharts-credits" text-anchor="start" data-z-index="8" style="cursor:default;color:#000000;font-size:10px;fill:#000000;" y="403"><tspan>Quelle: Statistisches Amt Basel-Stadt, Steuerstatistik.</tspan><tspan x="10" dy="13">Zuletzt geändert: 24.6.2024</tspan></text><g class="highcharts-control-points" data-z-index="99" clip-path="url(#highcharts-k0v5v1a-93-)"></g></svg>