<?xml version="1.0" standalone="no"?><!DOCTYPE svg PUBLIC "-//W3C//DTD SVG 1.1//EN" "http://www.w3.org/Graphics/SVG/1.1/DTD/svg11.dtd"><svg xmlns:xlink="http://www.w3.org/1999/xlink" version="1.1" class="highcharts-root" style="font-family:Arial;font-size:12px;" xmlns="http://www.w3.org/2000/svg" viewBox="0 0 485 415"><desc>Created with Highstock 6.1.0</desc><defs><clipPath id="highcharts-b2ytwe1-6"><rect x="0" y="0" width="280" height="297" fill="none"></rect></clipPath><clipPath id="highcharts-b2ytwe1-7"><rect x="0" y="0" width="280" height="297" fill="none"></rect></clipPath></defs><rect fill="#fbfbfb" class="highcharts-background" x="0" y="0" width="485" height="428" rx="0" ry="0"></rect><rect fill="none" class="highcharts-plot-background" x="53" y="70" width="280" height="297"></rect><g class="highcharts-pane-group"></g><g class="highcharts-grid highcharts-xaxis-grid "><path fill="none" class="highcharts-grid-line" d="M 145.5 70 L 145.5 367" opacity="1"></path><path fill="none" class="highcharts-grid-line" d="M 239.5 70 L 239.5 367" opacity="1"></path><path fill="none" class="highcharts-grid-line" d="M 332.5 70 L 332.5 367" opacity="1"></path><path fill="none" class="highcharts-grid-line" d="M 52.5 70 L 52.5 367" opacity="1"></path></g><g class="highcharts-grid highcharts-yaxis-grid "><path fill="none" stroke="#B9CFD7" stroke-width="0.5" class="highcharts-grid-line" d="M 53 367.25 L 333 367.25" opacity="1"></path><path fill="none" stroke="#B9CFD7" stroke-width="0.5" class="highcharts-grid-line" d="M 53 308.25 L 333 308.25" opacity="1"></path><path fill="none" stroke="#B9CFD7" stroke-width="0.5" class="highcharts-grid-line" d="M 53 248.25 L 333 248.25" opacity="1"></path><path fill="none" stroke="#B9CFD7" stroke-width="0.5" class="highcharts-grid-line" d="M 53 189.25 L 333 189.25" opacity="1"></path><path fill="none" stroke="#B9CFD7" stroke-width="0.5" class="highcharts-grid-line" d="M 53 129.25 L 333 129.25" opacity="1"></path><path fill="none" stroke="#B9CFD7" stroke-width="0.5" class="highcharts-grid-line" d="M 53 69.75 L 333 69.75" opacity="1"></path></g><rect fill="none" class="highcharts-plot-border" x="53" y="70" width="280" height="297"></rect><g class="highcharts-axis highcharts-xaxis "><path fill="none" class="highcharts-axis-line" stroke="#B9CFD7" stroke-width="0.5" d="M 53 367.25 L 333 367.25"></path></g><g class="highcharts-axis highcharts-yaxis "><path fill="none" class="highcharts-axis-line" d="M 53 70 L 53 367"></path></g><g class="highcharts-series-group"><g class="highcharts-series highcharts-series-0 highcharts-column-series " transform="translate(53,70) scale(1 1)" clip-path="url(#highcharts-b2ytwe1-7)"><rect x="12" y="0" width="70" height="164" fill="#256370" class="highcharts-point"></rect><rect x="105" y="0" width="70" height="162" fill="#256370" class="highcharts-point"></rect><rect x="198" y="0" width="70" height="168" fill="#256370" class="highcharts-point"></rect></g><g class="highcharts-markers highcharts-series-0 highcharts-column-series " transform="translate(53,70) scale(1 1)" clip-path="none"></g><g class="highcharts-series highcharts-series-1 highcharts-column-series " transform="translate(53,70) scale(1 1)" clip-path="url(#highcharts-b2ytwe1-7)"><rect x="12" y="164" width="70" height="106" fill="#71A3B5" class="highcharts-point"></rect><rect x="105" y="162" width="70" height="105" fill="#71A3B5" class="highcharts-point"></rect><rect x="198" y="168" width="70" height="104" fill="#71A3B5" class="highcharts-point"></rect></g><g class="highcharts-markers highcharts-series-1 highcharts-column-series " transform="translate(53,70) scale(1 1)" clip-path="none"></g><g class="highcharts-series highcharts-series-2 highcharts-column-series " transform="translate(53,70) scale(1 1)" clip-path="url(#highcharts-b2ytwe1-7)"><rect x="12" y="270" width="70" height="3" fill="#C8C8C8" class="highcharts-point"></rect><rect x="105" y="267" width="70" height="5" fill="#C8C8C8" class="highcharts-point"></rect><rect x="198" y="272" width="70" height="6" fill="#C8C8C8" class="highcharts-point"></rect></g><g class="highcharts-markers highcharts-series-2 highcharts-column-series " transform="translate(53,70) scale(1 1)" clip-path="none"></g><g class="highcharts-series highcharts-series-3 highcharts-column-series " transform="translate(53,70) scale(1 1)" clip-path="url(#highcharts-b2ytwe1-7)"><rect x="12" y="273" width="70" height="7" fill="#8A8A8A" class="highcharts-point"></rect><rect x="105" y="272" width="70" height="8" fill="#8A8A8A" class="highcharts-point"></rect><rect x="198" y="278" width="70" height="5" fill="#8A8A8A" class="highcharts-point"></rect></g><g class="highcharts-markers highcharts-series-3 highcharts-column-series " transform="translate(53,70) scale(1 1)" clip-path="none"></g><g class="highcharts-series highcharts-series-4 highcharts-column-series " transform="translate(53,70) scale(1 1)" clip-path="url(#highcharts-b2ytwe1-7)"><rect x="12" y="280" width="70" height="14" fill="#FFBB58" class="highcharts-point"></rect><rect x="105" y="280" width="70" height="14" fill="#FFBB58" class="highcharts-point"></rect><rect x="198" y="283" width="70" height="12" fill="#FFBB58" class="highcharts-point"></rect></g><g class="highcharts-markers highcharts-series-4 highcharts-column-series " transform="translate(53,70) scale(1 1)" clip-path="none"></g><g class="highcharts-series highcharts-series-5 highcharts-column-series " transform="translate(53,70) scale(1 1)" clip-path="url(#highcharts-b2ytwe1-7)"><rect x="12" y="294" width="70" height="4" fill="#FF8028" class="highcharts-point"></rect><rect x="105" y="294" width="70" height="4" fill="#FF8028" class="highcharts-point"></rect><rect x="198" y="295" width="70" height="3" fill="#FF8028" class="highcharts-point"></rect></g><g class="highcharts-markers highcharts-series-5 highcharts-column-series " transform="translate(53,70) scale(1 1)" clip-path="none"></g></g><text x="10" text-anchor="start" class="highcharts-title" style="color:#000000;font-size:14px;font-weight:bold;fill:#000000;" y="21"><tspan>Beurteilung des Verhältnisses zur Nachbarschaft</tspan></text><text x="10" text-anchor="start" class="highcharts-subtitle" style="color:#000000;font-size:12px;fill:#000000;" y="40"><tspan>«Ich habe ein gutes Verhältnis mit der Mehrheit meiner Nachbarinnen und</tspan><tspan dy="15" x="10">Nachbarn.»</tspan><title>«Ich habe ein gutes Verhältnis mit der Mehrheit meiner Nachbarinnen und Nachbarn.»</title></text><g class="highcharts-legend" transform="translate(345,137)"><rect fill="none" class="highcharts-legend-box" rx="0" ry="0" x="0" y="0" width="130" height="125" visibility="visible"></rect><g><g><g class="highcharts-legend-item highcharts-column-series highcharts-color-undefined highcharts-series-0" transform="translate(8,3)"><text x="21" style="color:#333333;font-size:12px;font-weight:normal;cursor:pointer;fill:#333333;" text-anchor="start" y="15"><tspan>Stimmt genau</tspan></text><rect x="2" y="4" width="12" height="12" fill="#256370" class="highcharts-point"></rect></g><g class="highcharts-legend-item highcharts-column-series highcharts-color-undefined highcharts-series-1" transform="translate(8,22)"><text x="21" y="15" style="color:#333333;font-size:12px;font-weight:normal;cursor:pointer;fill:#333333;" text-anchor="start"><tspan>Stimmt eher</tspan></text><rect x="2" y="4" width="12" height="12" fill="#71A3B5" class="highcharts-point"></rect></g><g class="highcharts-legend-item highcharts-column-series highcharts-color-undefined highcharts-series-2" transform="translate(8,41)"><text x="21" y="15" style="color:#333333;font-size:12px;font-weight:normal;cursor:pointer;fill:#333333;" text-anchor="start"><tspan>Weiss nicht</tspan></text><rect x="2" y="4" width="12" height="12" fill="#C8C8C8" class="highcharts-point"></rect></g><g class="highcharts-legend-item highcharts-column-series highcharts-color-undefined highcharts-series-3" transform="translate(8,60)"><text x="21" y="15" style="color:#333333;font-size:12px;font-weight:normal;cursor:pointer;fill:#333333;" text-anchor="start"><tspan>Keine Angabe</tspan></text><rect x="2" y="4" width="12" height="12" fill="#8A8A8A" class="highcharts-point"></rect></g><g class="highcharts-legend-item highcharts-column-series highcharts-color-undefined highcharts-series-4" transform="translate(8,79)"><text x="21" y="15" style="color:#333333;font-size:12px;font-weight:normal;cursor:pointer;fill:#333333;" text-anchor="start"><tspan>Stimmt eher nicht</tspan></text><rect x="2" y="4" width="12" height="12" fill="#FFBB58" class="highcharts-point"></rect></g><g class="highcharts-legend-item highcharts-column-series highcharts-color-undefined highcharts-series-5" transform="translate(8,98)"><text x="21" y="15" style="color:#333333;font-size:12px;font-weight:normal;cursor:pointer;fill:#333333;" text-anchor="start"><tspan>Stimmt gar nicht</tspan></text><rect x="2" y="4" width="12" height="12" fill="#FF8028" class="highcharts-point"></rect></g></g></g></g><g class="highcharts-axis-labels highcharts-xaxis-labels "><text x="99.66666666666333" style="color:#000000;cursor:default;font-size:11px;white-space:nowrap;fill:#000000;" text-anchor="middle" transform="translate(0,0)" y="386" opacity="1"><tspan>2009 (N=3119)</tspan></text><text x="193.00000000000335" style="color:#000000;cursor:default;font-size:11px;white-space:nowrap;fill:#000000;" text-anchor="middle" transform="translate(0,0)" y="386" opacity="1"><tspan>2013 (N=2231)</tspan></text><text x="286.3333333333333" style="color:#000000;cursor:default;font-size:11px;white-space:nowrap;fill:#000000;" text-anchor="middle" transform="translate(0,0)" y="386" opacity="1"><tspan>2017 (N=1665)</tspan></text></g><g class="highcharts-axis-labels highcharts-yaxis-labels "><text x="38" style="color:#000000;cursor:default;font-size:11px;white-space:nowrap;fill:#000000;" text-anchor="end" transform="translate(0,0)" y="372" opacity="1">0%</text><text x="38" style="color:#000000;cursor:default;font-size:11px;white-space:nowrap;fill:#000000;" text-anchor="end" transform="translate(0,0)" y="312" opacity="1">20%</text><text x="38" style="color:#000000;cursor:default;font-size:11px;white-space:nowrap;fill:#000000;" text-anchor="end" transform="translate(0,0)" y="253" opacity="1">40%</text><text x="38" style="color:#000000;cursor:default;font-size:11px;white-space:nowrap;fill:#000000;" text-anchor="end" transform="translate(0,0)" y="193" opacity="1">60%</text><text x="38" style="color:#000000;cursor:default;font-size:11px;white-space:nowrap;fill:#000000;" text-anchor="end" transform="translate(0,0)" y="134" opacity="1">80%</text><text x="38" style="color:#000000;cursor:default;font-size:11px;white-space:nowrap;fill:#000000;" text-anchor="end" transform="translate(0,0)" y="75" opacity="1">100%</text></g><text x="10" class="highcharts-credits" text-anchor="start" style="cursor:default;color:#000000;font-size:10px;fill:#000000;" y="403"><tspan>Quelle: Statistisches Amt Basel-Stadt, kantonale Familienbefragung: F19c.</tspan><tspan x="10" dy="13">Zuletzt geändert: 2019-1-28</tspan></text></svg>