<?xml version="1.0" standalone="no"?><!DOCTYPE svg PUBLIC "-//W3C//DTD SVG 1.1//EN" "http://www.w3.org/Graphics/SVG/1.1/DTD/svg11.dtd"><svg xmlns:xlink="http://www.w3.org/1999/xlink" version="1.1" class="highcharts-root" style="font-family:Arial;font-size:12px;" xmlns="http://www.w3.org/2000/svg" viewBox="0 0 485 415"><desc>Created with Highstock 6.1.1</desc><defs><clipPath id="highcharts-w4ai4xv-6"><rect x="0" y="0" width="246" height="278" fill="none"></rect></clipPath><clipPath id="highcharts-w4ai4xv-7"><rect x="0" y="0" width="246" height="278" fill="none"></rect></clipPath></defs><rect fill="#fbfbfb" class="highcharts-background" x="0" y="0" width="485" height="428" rx="0" ry="0"></rect><rect fill="none" class="highcharts-plot-background" x="58" y="75" width="246" height="278"></rect><g class="highcharts-pane-group" data-z-index="0"></g><g class="highcharts-grid highcharts-xaxis-grid " data-z-index="1"><path fill="none" data-z-index="1" class="highcharts-grid-line" d="M 88.5 75 L 88.5 353" opacity="1"></path><path fill="none" data-z-index="1" class="highcharts-grid-line" d="M 119.5 75 L 119.5 353" opacity="1"></path><path fill="none" data-z-index="1" class="highcharts-grid-line" d="M 149.5 75 L 149.5 353" opacity="1"></path><path fill="none" data-z-index="1" class="highcharts-grid-line" d="M 180.5 75 L 180.5 353" opacity="1"></path><path fill="none" data-z-index="1" class="highcharts-grid-line" d="M 211.5 75 L 211.5 353" opacity="1"></path><path fill="none" data-z-index="1" class="highcharts-grid-line" d="M 242.5 75 L 242.5 353" opacity="1"></path><path fill="none" data-z-index="1" class="highcharts-grid-line" d="M 272.5 75 L 272.5 353" opacity="1"></path><path fill="none" data-z-index="1" class="highcharts-grid-line" d="M 303.5 75 L 303.5 353" opacity="1"></path><path fill="none" data-z-index="1" class="highcharts-grid-line" d="M 57.5 75 L 57.5 353" opacity="1"></path></g><g class="highcharts-grid highcharts-yaxis-grid " data-z-index="1"><path fill="none" stroke="#B9CFD7" stroke-width="0.5" data-z-index="1" class="highcharts-grid-line" d="M 58 353.25 L 304 353.25" opacity="1"></path><path fill="none" stroke="#B9CFD7" stroke-width="0.5" data-z-index="1" class="highcharts-grid-line" d="M 58 313.25 L 304 313.25" opacity="1"></path><path fill="none" stroke="#B9CFD7" stroke-width="0.5" data-z-index="1" class="highcharts-grid-line" d="M 58 274.25 L 304 274.25" opacity="1"></path><path fill="none" stroke="#B9CFD7" stroke-width="0.5" data-z-index="1" class="highcharts-grid-line" d="M 58 234.25 L 304 234.25" opacity="1"></path><path fill="none" stroke="#B9CFD7" stroke-width="0.5" data-z-index="1" class="highcharts-grid-line" d="M 58 194.25 L 304 194.25" opacity="1"></path><path fill="none" stroke="#B9CFD7" stroke-width="0.5" data-z-index="1" class="highcharts-grid-line" d="M 58 154.25 L 304 154.25" opacity="1"></path><path fill="none" stroke="#B9CFD7" stroke-width="0.5" data-z-index="1" class="highcharts-grid-line" d="M 58 115.25 L 304 115.25" opacity="1"></path><path fill="none" stroke="#B9CFD7" stroke-width="0.5" data-z-index="1" class="highcharts-grid-line" d="M 58 74.75 L 304 74.75" opacity="1"></path></g><rect fill="none" class="highcharts-plot-border" data-z-index="1" x="58" y="75" width="246" height="278"></rect><g class="highcharts-axis highcharts-xaxis " data-z-index="2"><path fill="none" class="highcharts-axis-line" stroke="#B9CFD7" stroke-width="0.5" data-z-index="7" d="M 58 353.25 L 304 353.25"></path></g><g class="highcharts-axis highcharts-yaxis " data-z-index="2"><path fill="none" class="highcharts-axis-line" data-z-index="7" d="M 58 75 L 58 353"></path></g><g class="highcharts-series-group" data-z-index="3"><g data-z-index="0.1" class="highcharts-series highcharts-series-0 highcharts-column-series " transform="translate(58,75) scale(1 1)" clip-path="url(#highcharts-w4ai4xv-7)"><rect x="8" y="84" width="15" height="0" fill="#68AB2B" class="highcharts-point"></rect><rect x="39" y="79" width="15" height="0" fill="#68AB2B" class="highcharts-point"></rect><rect x="69" y="74" width="15" height="0" fill="#68AB2B" class="highcharts-point"></rect><rect x="100" y="77" width="15" height="0" fill="#68AB2B" class="highcharts-point"></rect><rect x="131" y="74" width="15" height="0" fill="#68AB2B" class="highcharts-point"></rect><rect x="162" y="70" width="15" height="0" fill="#68AB2B" class="highcharts-point"></rect><rect x="192" y="63" width="15" height="0" fill="#68AB2B" class="highcharts-point"></rect><rect x="223" y="50" width="15" height="0" fill="#68AB2B" class="highcharts-point"></rect></g><g data-z-index="0.1" class="highcharts-markers highcharts-series-0 highcharts-column-series " transform="translate(58,75) scale(1 1)" clip-path="none"></g><g data-z-index="0.1" class="highcharts-series highcharts-series-1 highcharts-column-series " transform="translate(58,75) scale(1 1)" clip-path="url(#highcharts-w4ai4xv-7)"><rect x="8" y="84" width="15" height="85" fill="#ECE1D0" class="highcharts-point"></rect><rect x="39" y="79" width="15" height="84" fill="#ECE1D0" class="highcharts-point"></rect><rect x="69" y="74" width="15" height="87" fill="#ECE1D0" class="highcharts-point"></rect><rect x="100" y="77" width="15" height="87" fill="#ECE1D0" class="highcharts-point"></rect><rect x="131" y="74" width="15" height="88" fill="#ECE1D0" class="highcharts-point"></rect><rect x="162" y="70" width="15" height="91" fill="#ECE1D0" class="highcharts-point"></rect><rect x="192" y="63" width="15" height="99" fill="#ECE1D0" class="highcharts-point"></rect><rect x="223" y="50" width="15" height="113" fill="#ECE1D0" class="highcharts-point"></rect></g><g data-z-index="0.1" class="highcharts-markers highcharts-series-1 highcharts-column-series " transform="translate(58,75) scale(1 1)" clip-path="none"></g><g data-z-index="0.1" class="highcharts-series highcharts-series-2 highcharts-column-series " transform="translate(58,75) scale(1 1)" clip-path="url(#highcharts-w4ai4xv-7)"><rect x="8" y="169" width="15" height="13" fill="#9E7C59" class="highcharts-point"></rect><rect x="39" y="163" width="15" height="13" fill="#9E7C59" class="highcharts-point"></rect><rect x="69" y="161" width="15" height="14" fill="#9E7C59" class="highcharts-point"></rect><rect x="100" y="164" width="15" height="12" fill="#9E7C59" class="highcharts-point"></rect><rect x="131" y="162" width="15" height="12" fill="#9E7C59" class="highcharts-point"></rect><rect x="162" y="161" width="15" height="13" fill="#9E7C59" class="highcharts-point"></rect><rect x="192" y="162" width="15" height="13" fill="#9E7C59" class="highcharts-point"></rect><rect x="223" y="163" width="15" height="14" fill="#9E7C59" class="highcharts-point"></rect></g><g data-z-index="0.1" class="highcharts-markers highcharts-series-2 highcharts-column-series " transform="translate(58,75) scale(1 1)" clip-path="none"></g><g data-z-index="0.1" class="highcharts-series highcharts-series-3 highcharts-column-series " transform="translate(58,75) scale(1 1)" clip-path="url(#highcharts-w4ai4xv-7)"><rect x="8" y="182" width="15" height="33" fill="#B6CFD7" class="highcharts-point"></rect><rect x="39" y="176" width="15" height="34" fill="#B6CFD7" class="highcharts-point"></rect><rect x="69" y="175" width="15" height="34" fill="#B6CFD7" class="highcharts-point"></rect><rect x="100" y="176" width="15" height="34" fill="#B6CFD7" class="highcharts-point"></rect><rect x="131" y="174" width="15" height="35" fill="#B6CFD7" class="highcharts-point"></rect><rect x="162" y="174" width="15" height="34" fill="#B6CFD7" class="highcharts-point"></rect><rect x="192" y="175" width="15" height="33" fill="#B6CFD7" class="highcharts-point"></rect><rect x="223" y="177" width="15" height="32" fill="#B6CFD7" class="highcharts-point"></rect></g><g data-z-index="0.1" class="highcharts-markers highcharts-series-3 highcharts-column-series " transform="translate(58,75) scale(1 1)" clip-path="none"></g><g data-z-index="0.1" class="highcharts-series highcharts-series-4 highcharts-column-series " transform="translate(58,75) scale(1 1)" clip-path="url(#highcharts-w4ai4xv-7)"><rect x="8" y="215" width="15" height="19" fill="#008AC3" class="highcharts-point"></rect><rect x="39" y="210" width="15" height="22" fill="#008AC3" class="highcharts-point"></rect><rect x="69" y="209" width="15" height="21" fill="#008AC3" class="highcharts-point"></rect><rect x="100" y="210" width="15" height="19" fill="#008AC3" class="highcharts-point"></rect><rect x="131" y="209" width="15" height="18" fill="#008AC3" class="highcharts-point"></rect><rect x="162" y="208" width="15" height="18" fill="#008AC3" class="highcharts-point"></rect><rect x="192" y="208" width="15" height="18" fill="#008AC3" class="highcharts-point"></rect><rect x="223" y="209" width="15" height="18" fill="#008AC3" class="highcharts-point"></rect></g><g data-z-index="0.1" class="highcharts-markers highcharts-series-4 highcharts-column-series " transform="translate(58,75) scale(1 1)" clip-path="none"></g><g data-z-index="0.1" class="highcharts-series highcharts-series-5 highcharts-column-series " transform="translate(58,75) scale(1 1)" clip-path="url(#highcharts-w4ai4xv-7)"><rect x="8" y="234" width="15" height="32" fill="#923F8D" class="highcharts-point"></rect><rect x="39" y="232" width="15" height="34" fill="#923F8D" class="highcharts-point"></rect><rect x="69" y="230" width="15" height="35" fill="#923F8D" class="highcharts-point"></rect><rect x="100" y="229" width="15" height="36" fill="#923F8D" class="highcharts-point"></rect><rect x="131" y="227" width="15" height="38" fill="#923F8D" class="highcharts-point"></rect><rect x="162" y="226" width="15" height="38" fill="#923F8D" class="highcharts-point"></rect><rect x="192" y="226" width="15" height="38" fill="#923F8D" class="highcharts-point"></rect><rect x="223" y="227" width="15" height="37" fill="#923F8D" class="highcharts-point"></rect></g><g data-z-index="0.1" class="highcharts-markers highcharts-series-5 highcharts-column-series " transform="translate(58,75) scale(1 1)" clip-path="none"></g><g data-z-index="0.1" class="highcharts-series highcharts-series-6 highcharts-column-series " transform="translate(58,75) scale(1 1)" clip-path="url(#highcharts-w4ai4xv-7)"><rect x="8" y="266" width="15" height="13" fill="#FFBB58" class="highcharts-point"></rect><rect x="39" y="266" width="15" height="13" fill="#FFBB58" class="highcharts-point"></rect><rect x="69" y="265" width="15" height="14" fill="#FFBB58" class="highcharts-point"></rect><rect x="100" y="265" width="15" height="14" fill="#FFBB58" class="highcharts-point"></rect><rect x="131" y="265" width="15" height="14" fill="#FFBB58" class="highcharts-point"></rect><rect x="162" y="264" width="15" height="15" fill="#FFBB58" class="highcharts-point"></rect><rect x="192" y="264" width="15" height="15" fill="#FFBB58" class="highcharts-point"></rect><rect x="223" y="264" width="15" height="15" fill="#FFBB58" class="highcharts-point"></rect></g><g data-z-index="0.1" class="highcharts-markers highcharts-series-6 highcharts-column-series " transform="translate(58,75) scale(1 1)" clip-path="none"></g><g data-z-index="0.1" class="highcharts-series highcharts-series-7 highcharts-column-series " transform="translate(58,75) scale(1 1)" clip-path="url(#highcharts-w4ai4xv-7)"><rect x="8" y="279" width="15" height="0" fill="#DC440E" class="highcharts-point"></rect><rect x="39" y="279" width="15" height="0" fill="#DC440E" class="highcharts-point"></rect><rect x="69" y="279" width="15" height="0" fill="#DC440E" class="highcharts-point"></rect><rect x="100" y="279" width="15" height="0" fill="#DC440E" class="highcharts-point"></rect><rect x="131" y="279" width="15" height="0" fill="#DC440E" class="highcharts-point"></rect><rect x="162" y="279" width="15" height="0" fill="#DC440E" class="highcharts-point"></rect><rect x="192" y="279" width="15" height="0" fill="#DC440E" class="highcharts-point"></rect><rect x="223" y="279" width="15" height="0" fill="#DC440E" class="highcharts-point"></rect></g><g data-z-index="0.1" class="highcharts-markers highcharts-series-7 highcharts-column-series " transform="translate(58,75) scale(1 1)" clip-path="none"></g></g><text x="10" text-anchor="start" class="highcharts-title" data-z-index="4" style="color:#000000;font-size:14px;font-weight:bold;fill:#000000;" y="21"><tspan>Bruttowertschöpfung nach Branchengruppe</tspan></text><text x="10" text-anchor="start" class="highcharts-subtitle" data-z-index="4" style="color:#000000;font-size:12px;font-weight:normal;font-family:Arial;fill:#000000;" y="40"><tspan>in Mio. Franken, Basel-Stadt</tspan></text><g class="highcharts-legend" data-z-index="7" transform="translate(316,76)"><rect fill="none" class="highcharts-legend-box" rx="0" ry="0" x="0" y="0" width="159" height="246" visibility="visible"></rect><g data-z-index="1"><g><g class="highcharts-legend-item highcharts-column-series highcharts-color-undefined highcharts-series-0" data-z-index="1" transform="translate(8,3)"><text x="21" style="color:#333333;font-size:12px;font-weight:normal;cursor:pointer;fill:#333333;" text-anchor="start" data-z-index="2" y="15"><tspan>Landwirtschaft etc.</tspan></text><rect x="2" y="4" width="12" height="12" fill="#68AB2B" class="highcharts-point" data-z-index="3"></rect></g><g class="highcharts-legend-item highcharts-column-series highcharts-color-undefined highcharts-series-1" data-z-index="1" transform="translate(8,23)"><text x="21" y="15" style="color:#333333;font-size:12px;font-weight:normal;cursor:pointer;fill:#333333;" text-anchor="start" data-z-index="2"><tspan>Bau, Herstellung von</tspan><tspan dy="15" x="21">Waren</tspan></text><rect x="2" y="4" width="12" height="12" fill="#ECE1D0" class="highcharts-point" data-z-index="3"></rect></g><g class="highcharts-legend-item highcharts-column-series highcharts-color-undefined highcharts-series-2" data-z-index="1" transform="translate(8,58)"><text x="21" y="15" style="color:#333333;font-size:12px;font-weight:normal;cursor:pointer;fill:#333333;" text-anchor="start" data-z-index="2"><tspan>Versorgung und</tspan><tspan dy="15" x="21">Bildung</tspan></text><rect x="2" y="4" width="12" height="12" fill="#9E7C59" class="highcharts-point" data-z-index="3"></rect></g><g class="highcharts-legend-item highcharts-column-series highcharts-color-undefined highcharts-series-3" data-z-index="1" transform="translate(8,93)"><text x="21" y="15" style="color:#333333;font-size:12px;font-weight:normal;cursor:pointer;fill:#333333;" text-anchor="start" data-z-index="2"><tspan>Fahrzeuge, Transport,</tspan><tspan dy="15" x="21">IT, Gastronomie</tspan></text><rect x="2" y="4" width="12" height="12" fill="#B6CFD7" class="highcharts-point" data-z-index="3"></rect></g><g class="highcharts-legend-item highcharts-column-series highcharts-color-undefined highcharts-series-4" data-z-index="1" transform="translate(8,128)"><text x="21" y="15" style="color:#333333;font-size:12px;font-weight:normal;cursor:pointer;fill:#333333;" text-anchor="start" data-z-index="2"><tspan>Finanzen und</tspan><tspan dy="15" x="21">Versicherungen</tspan></text><rect x="2" y="4" width="12" height="12" fill="#008AC3" class="highcharts-point" data-z-index="3"></rect></g><g class="highcharts-legend-item highcharts-column-series highcharts-color-undefined highcharts-series-5" data-z-index="1" transform="translate(8,163)"><text x="21" y="15" style="color:#333333;font-size:12px;font-weight:normal;cursor:pointer;fill:#333333;" text-anchor="start" data-z-index="2"><tspan>Wirtsch. Dienstl. u.</tspan><tspan dy="15" x="21">Unterhaltung</tspan></text><rect x="2" y="4" width="12" height="12" fill="#923F8D" class="highcharts-point" data-z-index="3"></rect></g><g class="highcharts-legend-item highcharts-column-series highcharts-color-undefined highcharts-series-6" data-z-index="1" transform="translate(8,198)"><text x="21" y="15" style="color:#333333;font-size:12px;font-weight:normal;cursor:pointer;fill:#333333;" text-anchor="start" data-z-index="2"><tspan>Öffentliche Verwaltung</tspan></text><rect x="2" y="4" width="12" height="12" fill="#FFBB58" class="highcharts-point" data-z-index="3"></rect></g><g class="highcharts-legend-item highcharts-column-series highcharts-color-undefined highcharts-series-7" data-z-index="1" transform="translate(8,218)"><text x="21" y="15" style="color:#333333;font-size:12px;font-weight:normal;cursor:pointer;fill:#333333;" text-anchor="start" data-z-index="2"><tspan>Private Haushalte</tspan></text><rect x="2" y="4" width="12" height="12" fill="#DC440E" class="highcharts-point" data-z-index="3"></rect></g></g></g></g><g class="highcharts-axis-labels highcharts-xaxis-labels " data-z-index="7"><text x="75.96772486435067" style="color:#000000;cursor:default;font-size:11px;fill:#000000;" text-anchor="end" transform="translate(0,0) rotate(-45 75.96772486435067 369)" y="369" opacity="1">2010</text><text x="106.71772486435067" style="color:#000000;cursor:default;font-size:11px;fill:#000000;" text-anchor="end" transform="translate(0,0) rotate(-45 106.71772486435067 369)" y="369" opacity="1">2011</text><text x="137.46772486435069" style="color:#000000;cursor:default;font-size:11px;fill:#000000;" text-anchor="end" transform="translate(0,0) rotate(-45 137.46772486435069 369)" y="369" opacity="1">2012</text><text x="168.21772486435069" style="color:#000000;cursor:default;font-size:11px;fill:#000000;" text-anchor="end" transform="translate(0,0) rotate(-45 168.21772486435069 369)" y="369" opacity="1">2013</text><text x="198.96772486435069" style="color:#000000;cursor:default;font-size:11px;fill:#000000;" text-anchor="end" transform="translate(0,0) rotate(-45 198.96772486435069 369)" y="369" opacity="1">2014</text><text x="229.71772486435069" style="color:#000000;cursor:default;font-size:11px;fill:#000000;" text-anchor="end" transform="translate(0,0) rotate(-45 229.71772486435069 369)" y="369" opacity="1">2015</text><text x="260.46772486435066" style="color:#000000;cursor:default;font-size:11px;fill:#000000;" text-anchor="end" transform="translate(0,0) rotate(-45 260.46772486435066 369)" y="369" opacity="1">2016</text><text x="291.21772486435066" style="color:#000000;cursor:default;font-size:11px;fill:#000000;" text-anchor="end" transform="translate(0,0) rotate(-45 291.21772486435066 369)" y="369" opacity="1">2017</text></g><g class="highcharts-axis-labels highcharts-yaxis-labels " data-z-index="7"><text x="43" style="color:#000000;cursor:default;font-size:11px;fill:#000000;" text-anchor="end" transform="translate(0,0)" y="357" opacity="1">0</text><text x="43" style="color:#000000;cursor:default;font-size:11px;fill:#000000;" text-anchor="end" transform="translate(0,0)" y="317" opacity="1"><tspan>6 000</tspan></text><text x="43" style="color:#000000;cursor:default;font-size:11px;fill:#000000;" text-anchor="end" transform="translate(0,0)" y="278" opacity="1"><tspan>12 000</tspan></text><text x="43" style="color:#000000;cursor:default;font-size:11px;fill:#000000;" text-anchor="end" transform="translate(0,0)" y="238" opacity="1"><tspan>18 000</tspan></text><text x="43" style="color:#000000;cursor:default;font-size:11px;fill:#000000;" text-anchor="end" transform="translate(0,0)" y="198" opacity="1"><tspan>24 000</tspan></text><text x="43" style="color:#000000;cursor:default;font-size:11px;fill:#000000;" text-anchor="end" transform="translate(0,0)" y="158" opacity="1"><tspan>30 000</tspan></text><text x="43" style="color:#000000;cursor:default;font-size:11px;fill:#000000;" text-anchor="end" transform="translate(0,0)" y="119" opacity="1"><tspan>36 000</tspan></text><text x="43" style="color:#000000;cursor:default;font-size:11px;fill:#000000;" text-anchor="end" transform="translate(0,0)" y="79" opacity="1"><tspan>42 000</tspan></text></g><text x="10" class="highcharts-credits" text-anchor="start" data-z-index="8" style="cursor:default;color:#000000;font-size:10px;fill:#000000;" y="403"><tspan>Quelle: Bundesamt für Statistik (BFS), Volkswirtschaftliche Gesamtrechnung.</tspan><tspan x="10" dy="13">Zuletzt geändert: 2019-11-15</tspan></text></svg>