<?xml version="1.0" standalone="no"?><!DOCTYPE svg PUBLIC "-//W3C//DTD SVG 1.1//EN" "http://www.w3.org/Graphics/SVG/1.1/DTD/svg11.dtd"><svg xmlns:xlink="http://www.w3.org/1999/xlink" version="1.1" class="highcharts-root" style="font-family:Arial;font-size:12px;" xmlns="http://www.w3.org/2000/svg" viewBox="0 0 485 415"><desc>Created with Highstock 6.1.1</desc><defs><clipPath id="highcharts-3cnuo6d-6"><rect x="0" y="0" width="432" height="285" fill="none"></rect></clipPath><clipPath id="highcharts-3cnuo6d-7"><rect x="0" y="0" width="432" height="285" fill="none"></rect></clipPath></defs><rect fill="#fbfbfb" class="highcharts-background" x="0" y="0" width="485" height="428" rx="0" ry="0"></rect><rect fill="none" class="highcharts-plot-background" x="43" y="56" width="432" height="285"></rect><g class="highcharts-pane-group" data-z-index="0"></g><g class="highcharts-grid highcharts-xaxis-grid " data-z-index="1"><path fill="none" data-z-index="1" class="highcharts-grid-line" d="M 78.5 56 L 78.5 341" opacity="1"></path><path fill="none" data-z-index="1" class="highcharts-grid-line" d="M 137.5 56 L 137.5 341" opacity="1"></path><path fill="none" data-z-index="1" class="highcharts-grid-line" d="M 196.5 56 L 196.5 341" opacity="1"></path><path fill="none" data-z-index="1" class="highcharts-grid-line" d="M 256.5 56 L 256.5 341" opacity="1"></path><path fill="none" data-z-index="1" class="highcharts-grid-line" d="M 315.5 56 L 315.5 341" opacity="1"></path><path fill="none" data-z-index="1" class="highcharts-grid-line" d="M 375.5 56 L 375.5 341" opacity="1"></path><path fill="none" data-z-index="1" class="highcharts-grid-line" d="M 434.5 56 L 434.5 341" opacity="1"></path></g><g class="highcharts-grid highcharts-yaxis-grid " data-z-index="1"><path fill="none" stroke="#B9CFD7" stroke-width="0.5" data-z-index="1" class="highcharts-grid-line" d="M 43 341.25 L 475 341.25" opacity="1"></path><path fill="none" stroke="#B9CFD7" stroke-width="0.5" data-z-index="1" class="highcharts-grid-line" d="M 43 270.25 L 475 270.25" opacity="1"></path><path fill="none" stroke="#B9CFD7" stroke-width="0.5" data-z-index="1" class="highcharts-grid-line" d="M 43 199.25 L 475 199.25" opacity="1"></path><path fill="none" stroke="#B9CFD7" stroke-width="0.5" data-z-index="1" class="highcharts-grid-line" d="M 43 127.25 L 475 127.25" opacity="1"></path><path fill="none" stroke="#B9CFD7" stroke-width="0.5" data-z-index="1" class="highcharts-grid-line" d="M 43 55.75 L 475 55.75" opacity="1"></path></g><rect fill="none" class="highcharts-plot-border" data-z-index="1" x="43" y="56" width="432" height="285"></rect><g class="highcharts-axis highcharts-xaxis " data-z-index="2"><path fill="none" class="highcharts-axis-line" stroke="#B9CFD7" stroke-width="0.5" data-z-index="7" d="M 43 341.25 L 475 341.25"></path></g><g class="highcharts-axis highcharts-yaxis " data-z-index="2"><path fill="none" class="highcharts-axis-line" data-z-index="7" d="M 43 56 L 43 341"></path></g><g class="highcharts-series-group" data-z-index="3"><g data-z-index="0.1" class="highcharts-series highcharts-series-0 highcharts-line-series " transform="translate(43,56) scale(1 1)" clip-path="url(#highcharts-3cnuo6d-7)"><path fill="none" d="M 0 145.92000000000002 L 11.881188118812 140.79 L 23.762376237624 136.515 L 35.643564356436 131.5275 L 47.524752475248 130.815 L 59.40594059406 128.535 L 71.287128712871 125.685 L 83.168316831683 120.4125 L 95.049504950495 111.15 L 106.93069306931 100.4625 L 118.81188118812 92.48250000000002 L 130.69306930693 85.5 L 142.57425742574 83.22 L 154.45544554455 79.9425 L 166.33663366337 77.94749999999999 L 178.21782178218 76.8075 L 190.09900990099 76.94999999999999 L 201.9801980198 75.3825 L 213.86138613861 72.5325 L 225.74257425743 70.67999999999998 L 237.62376237624 69.255 L 249.50495049505 67.97249999999997 L 261.38613861386 66.26249999999999 L 273.26732673267 63.1275 L 285.14851485149 60.704999999999984 L 297.0297029703 59.422499999999985 L 308.91089108911 53.86500000000001 L 320.79207920792 54.72 L 332.67326732673 52.724999999999994 L 344.55445544555 52.01249999999999 L 356.43564356436 53.4375 L 368.31683168317 53.86500000000001 L 380.19801980198 53.86500000000001 L 392.07920792079 56.715 L 403.96039603961 57 L 415.84158415842 55.432500000000005 L 427.72277227723 52.724999999999994" class="highcharts-graph" data-z-index="1" stroke="#000000" stroke-width="2" stroke-linejoin="round" stroke-linecap="round"></path></g><g data-z-index="0.1" class="highcharts-markers highcharts-series-0 highcharts-line-series " transform="translate(43,56) scale(1 1)" clip-path="none"></g></g><text x="10" text-anchor="start" class="highcharts-title" data-z-index="4" style="color:#000000;font-size:14px;font-weight:bold;fill:#000000;" y="21"><tspan>Jahresmittel Basler Index der Konsumentenpreise</tspan></text><text x="10" text-anchor="start" class="highcharts-subtitle" data-z-index="4" style="color:#000000;font-size:12px;font-weight:normal;font-family:Arial;fill:#000000;" y="40"><tspan>Basis Dezember 1982 = 100</tspan></text><g class="highcharts-axis-labels highcharts-xaxis-labels " data-z-index="7"><text x="78.643564356436" style="color:#000000;cursor:default;font-size:11px;fill:#000000;" text-anchor="middle" transform="translate(0,0)" y="360" opacity="1">1985</text><text x="138.0495049505" style="color:#000000;cursor:default;font-size:11px;fill:#000000;" text-anchor="middle" transform="translate(0,0)" y="360" opacity="1">1990</text><text x="197.45544554455" style="color:#000000;cursor:default;font-size:11px;fill:#000000;" text-anchor="middle" transform="translate(0,0)" y="360" opacity="1">1995</text><text x="256.86138613861" style="color:#000000;cursor:default;font-size:11px;fill:#000000;" text-anchor="middle" transform="translate(0,0)" y="360" opacity="1">2000</text><text x="316.26732673267" style="color:#000000;cursor:default;font-size:11px;fill:#000000;" text-anchor="middle" transform="translate(0,0)" y="360" opacity="1">2005</text><text x="375.67326732673" style="color:#000000;cursor:default;font-size:11px;fill:#000000;" text-anchor="middle" transform="translate(0,0)" y="360" opacity="1">2010</text><text x="435.07920792079" style="color:#000000;cursor:default;font-size:11px;fill:#000000;" text-anchor="middle" transform="translate(0,0)" y="360" opacity="1">2015</text></g><g class="highcharts-axis-labels highcharts-yaxis-labels " data-z-index="7"><text x="28" style="color:#000000;cursor:default;font-size:11px;fill:#000000;" text-anchor="end" transform="translate(0,0)" y="345" opacity="1">0</text><text x="28" style="color:#000000;cursor:default;font-size:11px;fill:#000000;" text-anchor="end" transform="translate(0,0)" y="274" opacity="1">50</text><text x="28" style="color:#000000;cursor:default;font-size:11px;fill:#000000;" text-anchor="end" transform="translate(0,0)" y="203" opacity="1">100</text><text x="28" style="color:#000000;cursor:default;font-size:11px;fill:#000000;" text-anchor="end" transform="translate(0,0)" y="131" opacity="1">150</text><text x="28" style="color:#000000;cursor:default;font-size:11px;fill:#000000;" text-anchor="end" transform="translate(0,0)" y="60" opacity="1">200</text></g><text x="10" class="highcharts-credits" text-anchor="start" data-z-index="8" style="cursor:default;color:#000000;font-size:10px;fill:#000000;" y="393"><tspan>Quelle: Statistisches Amt Basel-Stadt;</tspan><tspan x="10" dy="13">Bundesamt für Statistik (BFS).</tspan><tspan x="10" dy="13">Zuletzt geändert: 2019-2-4</tspan></text></svg>