<?xml version="1.0" standalone="no"?><!DOCTYPE svg PUBLIC "-//W3C//DTD SVG 1.1//EN" "http://www.w3.org/Graphics/SVG/1.1/DTD/svg11.dtd"><svg xmlns:xlink="http://www.w3.org/1999/xlink" version="1.1" class="highcharts-root" style="font-family:Arial;font-size:12px;" xmlns="http://www.w3.org/2000/svg" viewBox="0 0 485 415"><desc>Created with Highcharts 8.2.2</desc><defs><clipPath id="highcharts-rde7wl6-59-"><rect x="0" y="0" width="411" height="295" fill="none"></rect></clipPath><clipPath id="highcharts-rde7wl6-112-"><rect x="0" y="0" width="411" height="295" fill="none"></rect></clipPath><clipPath id="highcharts-rde7wl6-113-"><rect x="64" y="56" width="411" height="295" fill="none"></rect></clipPath></defs><rect fill="#fbfbfb" class="highcharts-background" x="0" y="0" width="485" height="428" rx="0" ry="0"></rect><rect fill="none" class="highcharts-plot-background" x="64" y="56" width="411" height="295"></rect><g class="highcharts-pane-group" data-z-index="0"></g><g class="highcharts-grid highcharts-xaxis-grid" data-z-index="1"><path fill="none" data-z-index="1" class="highcharts-grid-line" d="M 75.5 56 L 75.5 351" opacity="1"></path><path fill="none" data-z-index="1" class="highcharts-grid-line" d="M 114.5 56 L 114.5 351" opacity="1"></path><path fill="none" data-z-index="1" class="highcharts-grid-line" d="M 154.5 56 L 154.5 351" opacity="1"></path><path fill="none" data-z-index="1" class="highcharts-grid-line" d="M 193.5 56 L 193.5 351" opacity="1"></path><path fill="none" data-z-index="1" class="highcharts-grid-line" d="M 233.5 56 L 233.5 351" opacity="1"></path><path fill="none" data-z-index="1" class="highcharts-grid-line" d="M 272.5 56 L 272.5 351" opacity="1"></path><path fill="none" data-z-index="1" class="highcharts-grid-line" d="M 312.5 56 L 312.5 351" opacity="1"></path><path fill="none" data-z-index="1" class="highcharts-grid-line" d="M 351.5 56 L 351.5 351" opacity="1"></path><path fill="none" data-z-index="1" class="highcharts-grid-line" d="M 391.5 56 L 391.5 351" opacity="1"></path><path fill="none" data-z-index="1" class="highcharts-grid-line" d="M 430.5 56 L 430.5 351" opacity="1"></path><path fill="none" data-z-index="1" class="highcharts-grid-line" d="M 470.5 56 L 470.5 351" opacity="1"></path></g><g class="highcharts-grid highcharts-yaxis-grid" data-z-index="1"><path fill="none" stroke="#B9CFD7" stroke-width="0.5" data-z-index="1" class="highcharts-grid-line" d="M 64 351.25 L 475 351.25" opacity="1"></path><path fill="none" stroke="#B9CFD7" stroke-width="0.5" data-z-index="1" class="highcharts-grid-line" d="M 64 292.25 L 475 292.25" opacity="1"></path><path fill="none" stroke="#B9CFD7" stroke-width="0.5" data-z-index="1" class="highcharts-grid-line" d="M 64 233.25 L 475 233.25" opacity="1"></path><path fill="none" stroke="#B9CFD7" stroke-width="0.5" data-z-index="1" class="highcharts-grid-line" d="M 64 174.25 L 475 174.25" opacity="1"></path><path fill="none" stroke="#B9CFD7" stroke-width="0.5" data-z-index="1" class="highcharts-grid-line" d="M 64 115.25 L 475 115.25" opacity="1"></path><path fill="none" stroke="#B9CFD7" stroke-width="0.5" data-z-index="1" class="highcharts-grid-line" d="M 64 55.75 L 475 55.75" opacity="1"></path></g><rect fill="none" class="highcharts-plot-border" data-z-index="1" x="64" y="56" width="411" height="295"></rect><g class="highcharts-axis highcharts-xaxis" data-z-index="2"><path fill="none" class="highcharts-axis-line" stroke="#B9CFD7" stroke-width="0.5" data-z-index="7" d="M 64 351.25 L 475 351.25"></path></g><g class="highcharts-axis highcharts-yaxis" data-z-index="2"><path fill="none" class="highcharts-axis-line" data-z-index="7" d="M 64 56 L 64 351"></path></g><g class="highcharts-series-group" data-z-index="3"><g class="highcharts-series highcharts-series-0 highcharts-line-series" data-z-index="0.1" opacity="1" transform="translate(64,56) scale(1 1)" clip-path="url(#highcharts-rde7wl6-112-)"><path fill="none" d="M 4.0294117647058 184.18325 L 11.930219146482 184.7467 L 19.831026528258 178.74935 L 27.731833910035 158.6097 L 35.632641291811 132.72345 L 43.533448673587 152.94865000000001 L 51.434256055363 150.36445 L 59.33506343714 154.87205 L 67.235870818916 138.34615 L 75.136678200692 143.8302 L 83.037485582468 157.5949 L 90.938292964244 157.81615 L 98.839100346021 162.3621 L 106.7399077278 163.81645 L 114.64071510957 172.33605 L 122.54152249135 171.27405 L 130.44232987313 177.99415 L 138.3431372549 158.34715 L 146.24394463668 158.08755 L 154.14475201845 148.50005000000002 L 162.04555940023 153.7776 L 169.94636678201 150.84235 L 177.84717416378 154.0785 L 185.74798154556 138.88895 L 193.64878892734 146.4675 L 201.54959630911 143.47915 L 209.45040369089 130.8443 L 217.35121107266 109.76655 L 225.25201845444 104.6542 L 233.15282583622 102.90485000000001 L 241.05363321799 82.07490000000001 L 248.95444059977 83.09855000000002 L 256.85524798155 80.93915000000001 L 264.75605536332 82.9717 L 272.6568627451 90.48535000000001 L 280.55767012687 78.68535 L 288.45847750865 79.827 L 296.35928489043 81.55865 L 304.2600922722 78.23695000000001 L 312.16089965398 80.61465000000001 L 320.06170703576 66.73195000000001 L 327.96251441753 69.2542 L 335.86332179931 70.99765 L 343.76412918108 85.14585 L 351.66493656286 97.19660000000002 L 359.56574394464 93.89260000000002 L 367.46655132641 106.9257 L 375.36735870819 114.12960000000001 L 383.26816608997 126.0181 L 391.16897347174 112.48055 L 399.06978085352 95.91335000000001 L 406.97058823529 114.3715" class="highcharts-graph" data-z-index="1" stroke="#FF8028" stroke-width="2" stroke-linejoin="round" stroke-linecap="round"></path></g><g class="highcharts-markers highcharts-series-0 highcharts-line-series" data-z-index="0.1" opacity="1" transform="translate(64,56) scale(1 1)" clip-path="none"></g></g><text x="10" text-anchor="start" class="highcharts-title" data-z-index="4" style="color:#000000;font-size:14px;font-weight:bold;fill:#000000;" y="21"><tspan>Anzahl Betreibungen</tspan></text><text x="10" text-anchor="start" class="highcharts-subtitle" data-z-index="4" style="color:#000000;font-size:12px;font-weight:normal;fill:#000000;" y="40"><tspan>Basel-Stadt</tspan></text><text x="10" text-anchor="start" class="highcharts-caption" data-z-index="4" style="color:#666666;fill:#666666;" y="385"></text><g class="highcharts-axis-labels highcharts-xaxis-labels" data-z-index="7"><text x="75.930219146482" style="color:#000000;cursor:default;font-size:11px;fill:#000000;" text-anchor="middle" transform="translate(0,0)" y="370" opacity="1">1975</text><text x="115.43425605536" style="color:#000000;cursor:default;font-size:11px;fill:#000000;" text-anchor="middle" transform="translate(0,0)" y="370" opacity="1">1980</text><text x="154.93829296424" style="color:#000000;cursor:default;font-size:11px;fill:#000000;" text-anchor="middle" transform="translate(0,0)" y="370" opacity="1">1985</text><text x="194.44232987313" style="color:#000000;cursor:default;font-size:11px;fill:#000000;" text-anchor="middle" transform="translate(0,0)" y="370" opacity="1">1990</text><text x="233.94636678201" style="color:#000000;cursor:default;font-size:11px;fill:#000000;" text-anchor="middle" transform="translate(0,0)" y="370" opacity="1">1995</text><text x="273.45040369089" style="color:#000000;cursor:default;font-size:11px;fill:#000000;" text-anchor="middle" transform="translate(0,0)" y="370" opacity="1">2000</text><text x="312.95444059977" style="color:#000000;cursor:default;font-size:11px;fill:#000000;" text-anchor="middle" transform="translate(0,0)" y="370" opacity="1">2005</text><text x="352.45847750865" style="color:#000000;cursor:default;font-size:11px;fill:#000000;" text-anchor="middle" transform="translate(0,0)" y="370" opacity="1">2010</text><text x="391.96251441753" style="color:#000000;cursor:default;font-size:11px;fill:#000000;" text-anchor="middle" transform="translate(0,0)" y="370" opacity="1">2015</text><text x="431.46655132641" style="color:#000000;cursor:default;font-size:11px;fill:#000000;" text-anchor="middle" transform="translate(0,0)" y="370" opacity="1">2020</text><text x="463" style="color:#000000;cursor:default;font-size:11px;fill:#000000;" text-anchor="middle" transform="translate(0,0)" y="370" opacity="1">2025</text></g><g class="highcharts-axis-labels highcharts-yaxis-labels" data-z-index="7"><text x="49" style="color:#000000;cursor:default;font-size:11px;fill:#000000;" text-anchor="end" transform="translate(0,0)" y="355" opacity="1">0</text><text x="49" style="color:#000000;cursor:default;font-size:11px;fill:#000000;" text-anchor="end" transform="translate(0,0)" y="296" opacity="1"><tspan>20 000</tspan></text><text x="49" style="color:#000000;cursor:default;font-size:11px;fill:#000000;" text-anchor="end" transform="translate(0,0)" y="237" opacity="1"><tspan>40 000</tspan></text><text x="49" style="color:#000000;cursor:default;font-size:11px;fill:#000000;" text-anchor="end" transform="translate(0,0)" y="178" opacity="1"><tspan>60 000</tspan></text><text x="49" style="color:#000000;cursor:default;font-size:11px;fill:#000000;" text-anchor="end" transform="translate(0,0)" y="119" opacity="1"><tspan>80 000</tspan></text><text x="49" style="color:#000000;cursor:default;font-size:11px;fill:#000000;" text-anchor="end" transform="translate(0,0)" y="60" opacity="1"><tspan>100 000</tspan></text></g><text x="10" class="highcharts-credits" text-anchor="start" data-z-index="8" style="cursor:default;color:#000000;font-size:10px;fill:#000000;" y="403"><tspan>Quelle: Betreibungs- und Konkursamt Basel-Stadt.</tspan><tspan x="10" dy="13">Zuletzt geändert: 18.2.2026</tspan></text><g class="highcharts-control-points" data-z-index="99" clip-path="url(#highcharts-rde7wl6-113-)"></g></svg>