<?xml version="1.0" standalone="no"?><!DOCTYPE svg PUBLIC "-//W3C//DTD SVG 1.1//EN" "http://www.w3.org/Graphics/SVG/1.1/DTD/svg11.dtd"><svg xmlns:xlink="http://www.w3.org/1999/xlink" version="1.1" class="highcharts-root" style="font-family:Arial;font-size:12px;" xmlns="http://www.w3.org/2000/svg" viewBox="0 0 485 415"><desc>Created with Highstock 6.1.1</desc><defs><clipPath id="highcharts-d4z7f3s-6"><rect x="0" y="0" width="428" height="213" fill="none"></rect></clipPath><clipPath id="highcharts-d4z7f3s-7"><rect x="0" y="0" width="428" height="213" fill="none"></rect></clipPath></defs><rect fill="#fbfbfb" class="highcharts-background" x="0" y="0" width="485" height="428" rx="0" ry="0"></rect><rect fill="none" class="highcharts-plot-background" x="47" y="139" width="428" height="213"></rect><g class="highcharts-pane-group" data-z-index="0"></g><g class="highcharts-grid highcharts-xaxis-grid " data-z-index="1"><path fill="none" data-z-index="1" class="highcharts-grid-line" d="M 132.5 139 L 132.5 352" opacity="1"></path><path fill="none" data-z-index="1" class="highcharts-grid-line" d="M 217.5 139 L 217.5 352" opacity="1"></path><path fill="none" data-z-index="1" class="highcharts-grid-line" d="M 303.5 139 L 303.5 352" opacity="1"></path><path fill="none" data-z-index="1" class="highcharts-grid-line" d="M 388.5 139 L 388.5 352" opacity="1"></path><path fill="none" data-z-index="1" class="highcharts-grid-line" d="M 474.5 139 L 474.5 352" opacity="1"></path><path fill="none" data-z-index="1" class="highcharts-grid-line" d="M 46.5 139 L 46.5 352" opacity="1"></path></g><g class="highcharts-grid highcharts-yaxis-grid " data-z-index="1"><path fill="none" stroke="#B9CFD7" stroke-width="0.5" data-z-index="1" class="highcharts-grid-line" d="M 47 352.25 L 475 352.25" opacity="1"></path><path fill="none" stroke="#B9CFD7" stroke-width="0.5" data-z-index="1" class="highcharts-grid-line" d="M 47 322.25 L 475 322.25" opacity="1"></path><path fill="none" stroke="#B9CFD7" stroke-width="0.5" data-z-index="1" class="highcharts-grid-line" d="M 47 291.25 L 475 291.25" opacity="1"></path><path fill="none" stroke="#B9CFD7" stroke-width="0.5" data-z-index="1" class="highcharts-grid-line" d="M 47 261.25 L 475 261.25" opacity="1"></path><path fill="none" stroke="#B9CFD7" stroke-width="0.5" data-z-index="1" class="highcharts-grid-line" d="M 47 230.25 L 475 230.25" opacity="1"></path><path fill="none" stroke="#B9CFD7" stroke-width="0.5" data-z-index="1" class="highcharts-grid-line" d="M 47 200.25 L 475 200.25" opacity="1"></path><path fill="none" stroke="#B9CFD7" stroke-width="0.5" data-z-index="1" class="highcharts-grid-line" d="M 47 169.25 L 475 169.25" opacity="1"></path><path fill="none" stroke="#B9CFD7" stroke-width="0.5" data-z-index="1" class="highcharts-grid-line" d="M 47 138.75 L 475 138.75" opacity="1"></path></g><rect fill="none" class="highcharts-plot-border" data-z-index="1" x="47" y="139" width="428" height="213"></rect><g class="highcharts-axis highcharts-xaxis " data-z-index="2"><path fill="none" class="highcharts-axis-line" stroke="#B9CFD7" stroke-width="0.5" data-z-index="7" d="M 47 352.25 L 475 352.25"></path></g><g class="highcharts-axis highcharts-yaxis " data-z-index="2"><path fill="none" class="highcharts-axis-line" data-z-index="7" d="M 47 139 L 47 352"></path></g><g class="highcharts-series-group" data-z-index="3"><g data-z-index="0.1" class="highcharts-series highcharts-series-0 highcharts-column-series " transform="translate(47,139) scale(1 1)" clip-path="url(#highcharts-d4z7f3s-7)"><rect x="18" y="54" width="9" height="160" fill="#083038" class="highcharts-point"></rect><rect x="104" y="20" width="9" height="194" fill="#083038" class="highcharts-point"></rect><rect x="189" y="51" width="9" height="163" fill="#083038" class="highcharts-point"></rect><rect x="275" y="78" width="9" height="136" fill="#083038" class="highcharts-point"></rect><rect x="361" y="42" width="9" height="172" fill="#083038" class="highcharts-point"></rect></g><g data-z-index="0.1" class="highcharts-markers highcharts-series-0 highcharts-column-series " transform="translate(47,139) scale(1 1)" clip-path="none"></g><g data-z-index="0.1" class="highcharts-series highcharts-series-1 highcharts-column-series " transform="translate(47,139) scale(1 1)" clip-path="url(#highcharts-d4z7f3s-7)"><rect x="28" y="98" width="9" height="116" fill="#256370" class="highcharts-point"></rect><rect x="114" y="119" width="9" height="95" fill="#256370" class="highcharts-point"></rect><rect x="200" y="95" width="9" height="119" fill="#256370" class="highcharts-point"></rect><rect x="285" y="135" width="9" height="79" fill="#256370" class="highcharts-point"></rect><rect x="371" y="70" width="9" height="144" fill="#256370" class="highcharts-point"></rect></g><g data-z-index="0.1" class="highcharts-markers highcharts-series-1 highcharts-column-series " transform="translate(47,139) scale(1 1)" clip-path="none"></g><g data-z-index="0.1" class="highcharts-series highcharts-series-2 highcharts-column-series " transform="translate(47,139) scale(1 1)" clip-path="url(#highcharts-d4z7f3s-7)"><rect x="39" y="53" width="9" height="161" fill="#71A3B5" class="highcharts-point"></rect><rect x="124" y="59" width="9" height="155" fill="#71A3B5" class="highcharts-point"></rect><rect x="210" y="53" width="9" height="161" fill="#71A3B5" class="highcharts-point"></rect><rect x="295" y="76" width="9" height="138" fill="#71A3B5" class="highcharts-point"></rect><rect x="381" y="22" width="9" height="192" fill="#71A3B5" class="highcharts-point"></rect></g><g data-z-index="0.1" class="highcharts-markers highcharts-series-2 highcharts-column-series " transform="translate(47,139) scale(1 1)" clip-path="none"></g><g data-z-index="0.1" class="highcharts-series highcharts-series-3 highcharts-column-series " transform="translate(47,139) scale(1 1)" clip-path="url(#highcharts-d4z7f3s-7)"><rect x="49" y="150" width="9" height="64" fill="#8A8A8A" class="highcharts-point"></rect><rect x="135" y="153" width="9" height="61" fill="#8A8A8A" class="highcharts-point"></rect><rect x="220" y="150" width="9" height="64" fill="#8A8A8A" class="highcharts-point"></rect><rect x="306" y="159" width="9" height="55" fill="#8A8A8A" class="highcharts-point"></rect><rect x="391" y="102" width="9" height="112" fill="#8A8A8A" class="highcharts-point"></rect></g><g data-z-index="0.1" class="highcharts-markers highcharts-series-3 highcharts-column-series " transform="translate(47,139) scale(1 1)" clip-path="none"></g><g data-z-index="0.1" class="highcharts-series highcharts-series-4 highcharts-column-series " transform="translate(47,139) scale(1 1)" clip-path="url(#highcharts-d4z7f3s-7)"><rect x="59" y="119" width="9" height="95" fill="#C8C8C8" class="highcharts-point"></rect><rect x="145" y="118" width="9" height="96" fill="#C8C8C8" class="highcharts-point"></rect><rect x="230" y="101" width="9" height="113" fill="#C8C8C8" class="highcharts-point"></rect><rect x="316" y="114" width="9" height="100" fill="#C8C8C8" class="highcharts-point"></rect><rect x="402" y="54" width="9" height="160" fill="#C8C8C8" class="highcharts-point"></rect></g><g data-z-index="0.1" class="highcharts-markers highcharts-series-4 highcharts-column-series " transform="translate(47,139) scale(1 1)" clip-path="none"></g></g><text x="10" text-anchor="start" class="highcharts-title" data-z-index="4" style="color:#000000;font-size:14px;font-weight:bold;fill:#000000;" y="21"><tspan>Gründe für Gedanken über die Arbeitsstelle</tspan></text><text x="10" text-anchor="start" class="highcharts-subtitle" data-z-index="4" style="color:#000000;font-size:12px;fill:#000000;" y="40"><tspan>«Warum machen Sie sich manchmal Gedanken über Ihre Arbeitsstelle?»</tspan></text><g class="highcharts-legend" data-z-index="7" transform="translate(39,56)"><rect fill="none" class="highcharts-legend-box" rx="0" ry="0" x="0" y="0" width="396" height="71" visibility="visible"></rect><g data-z-index="1"><g><g class="highcharts-legend-item highcharts-column-series highcharts-color-undefined highcharts-series-0" data-z-index="1" transform="translate(8,3)"><text x="21" style="color:#333333;font-size:12px;font-weight:normal;cursor:pointer;fill:#333333;" text-anchor="start" data-z-index="2" y="15"><tspan>Sicherheit der Arbeitsstelle</tspan></text><rect x="2" y="4" width="12" height="12" fill="#083038" class="highcharts-point" data-z-index="3"></rect></g><g class="highcharts-legend-item highcharts-column-series highcharts-color-undefined highcharts-series-1" data-z-index="1" transform="translate(208,3)"><text x="21" y="15" style="color:#333333;font-size:12px;font-weight:normal;cursor:pointer;fill:#333333;" text-anchor="start" data-z-index="2"><tspan>Betriebsklima</tspan></text><rect x="2" y="4" width="12" height="12" fill="#256370" class="highcharts-point" data-z-index="3"></rect></g><g class="highcharts-legend-item highcharts-column-series highcharts-color-undefined highcharts-series-2" data-z-index="1" transform="translate(8,23)"><text x="21" y="15" style="color:#333333;font-size:12px;font-weight:normal;cursor:pointer;fill:#333333;" text-anchor="start" data-z-index="2"><tspan>Entwicklungsperspektiven</tspan></text><rect x="2" y="4" width="12" height="12" fill="#71A3B5" class="highcharts-point" data-z-index="3"></rect></g><g class="highcharts-legend-item highcharts-column-series highcharts-color-undefined highcharts-series-3" data-z-index="1" transform="translate(208,23)"><text x="21" y="15" style="color:#333333;font-size:12px;font-weight:normal;cursor:pointer;fill:#333333;" text-anchor="start" data-z-index="2"><tspan>Arbeitsumfeld</tspan></text><rect x="2" y="4" width="12" height="12" fill="#8A8A8A" class="highcharts-point" data-z-index="3"></rect></g><g class="highcharts-legend-item highcharts-column-series highcharts-color-undefined highcharts-series-4" data-z-index="1" transform="translate(8,43)"><text x="21" y="15" style="color:#333333;font-size:12px;font-weight:normal;cursor:pointer;fill:#333333;" text-anchor="start" data-z-index="2"><tspan>Lohn</tspan></text><rect x="2" y="4" width="12" height="12" fill="#C8C8C8" class="highcharts-point" data-z-index="3"></rect></g></g></g></g><g class="highcharts-axis-labels highcharts-xaxis-labels " data-z-index="7"><text x="89.8" style="color:#000000;cursor:default;font-size:11px;fill:#000000;" text-anchor="middle" transform="translate(0,0)" y="371" opacity="1"><tspan>2003</tspan><tspan x="89.8" dy="14">(N=544)</tspan></text><text x="175.39999999999998" style="color:#000000;cursor:default;font-size:11px;fill:#000000;" text-anchor="middle" transform="translate(0,0)" y="371" opacity="1"><tspan>2005</tspan><tspan x="175.39999999999998" dy="14">(N=578)</tspan></text><text x="261" style="color:#000000;cursor:default;font-size:11px;fill:#000000;" text-anchor="middle" transform="translate(0,0)" y="371" opacity="1"><tspan>2007</tspan><tspan x="261" dy="14">(N=506)</tspan></text><text x="346.59999999999997" style="color:#000000;cursor:default;font-size:11px;fill:#000000;" text-anchor="middle" transform="translate(0,0)" y="371" opacity="1"><tspan>2011</tspan><tspan x="346.59999999999997" dy="14">(N=505)</tspan></text><text x="432.2" style="color:#000000;cursor:default;font-size:11px;fill:#000000;" text-anchor="middle" transform="translate(0,0)" y="371" opacity="1"><tspan>2015</tspan><tspan x="432.2" dy="14">(N=468)</tspan></text></g><g class="highcharts-axis-labels highcharts-yaxis-labels " data-z-index="7"><text x="32" style="color:#000000;cursor:default;font-size:11px;fill:#000000;" text-anchor="end" transform="translate(0,0)" y="356" opacity="1">0%</text><text x="32" style="color:#000000;cursor:default;font-size:11px;fill:#000000;" text-anchor="end" transform="translate(0,0)" y="326" opacity="1">10%</text><text x="32" style="color:#000000;cursor:default;font-size:11px;fill:#000000;" text-anchor="end" transform="translate(0,0)" y="295" opacity="1">20%</text><text x="32" style="color:#000000;cursor:default;font-size:11px;fill:#000000;" text-anchor="end" transform="translate(0,0)" y="265" opacity="1">30%</text><text x="32" style="color:#000000;cursor:default;font-size:11px;fill:#000000;" text-anchor="end" transform="translate(0,0)" y="234" opacity="1">40%</text><text x="32" style="color:#000000;cursor:default;font-size:11px;fill:#000000;" text-anchor="end" transform="translate(0,0)" y="204" opacity="1">50%</text><text x="32" style="color:#000000;cursor:default;font-size:11px;fill:#000000;" text-anchor="end" transform="translate(0,0)" y="173" opacity="1">60%</text><text x="32" style="color:#000000;cursor:default;font-size:11px;fill:#000000;" text-anchor="end" transform="translate(0,0)" y="143" opacity="1">70%</text></g><text x="10" class="highcharts-credits" text-anchor="start" data-z-index="8" style="cursor:default;color:#000000;font-size:10px;fill:#000000;" y="403"><tspan>Quelle: Statistisches Amt Basel-Stadt, kantonale Bevölkerungsbefragung: F14f.</tspan><tspan x="10" dy="13">Zuletzt geändert: 2016-9-21</tspan></text></svg>