<?xml version="1.0" standalone="no"?><!DOCTYPE svg PUBLIC "-//W3C//DTD SVG 1.1//EN" "http://www.w3.org/Graphics/SVG/1.1/DTD/svg11.dtd"><svg xmlns:xlink="http://www.w3.org/1999/xlink" version="1.1" class="highcharts-root" style="font-family:Arial;font-size:12px;" xmlns="http://www.w3.org/2000/svg" viewBox="0 0 485 415"><desc>Created with Highcharts 5.0.6</desc><defs><clipPath id="highcharts-bgl5xde-1"><rect x="0" y="0" width="428" height="221" fill="none"></rect></clipPath></defs><rect fill="#fbfbfb" class="highcharts-background" x="0" y="0" width="485" height="415" rx="0" ry="0"></rect><rect fill="none" class="highcharts-plot-background" x="47" y="128" width="428" height="221"></rect><g class="highcharts-grid highcharts-xaxis-grid "><path fill="none" class="highcharts-grid-line" d="M 132.5 128 L 132.5 349" opacity="1"></path><path fill="none" class="highcharts-grid-line" d="M 217.5 128 L 217.5 349" opacity="1"></path><path fill="none" class="highcharts-grid-line" d="M 303.5 128 L 303.5 349" opacity="1"></path><path fill="none" class="highcharts-grid-line" d="M 388.5 128 L 388.5 349" opacity="1"></path><path fill="none" class="highcharts-grid-line" d="M 474.5 128 L 474.5 349" opacity="1"></path><path fill="none" class="highcharts-grid-line" d="M 46.5 128 L 46.5 349" opacity="1"></path></g><g class="highcharts-grid highcharts-yaxis-grid "><path fill="none" stroke="#e6e6e6" stroke-width="1" class="highcharts-grid-line" d="M 47 349.5 L 475 349.5" opacity="1"></path><path fill="none" stroke="#e6e6e6" stroke-width="1" class="highcharts-grid-line" d="M 47 317.5 L 475 317.5" opacity="1"></path><path fill="none" stroke="#e6e6e6" stroke-width="1" class="highcharts-grid-line" d="M 47 286.5 L 475 286.5" opacity="1"></path><path fill="none" stroke="#e6e6e6" stroke-width="1" class="highcharts-grid-line" d="M 47 254.5 L 475 254.5" opacity="1"></path><path fill="none" stroke="#e6e6e6" stroke-width="1" class="highcharts-grid-line" d="M 47 223.5 L 475 223.5" opacity="1"></path><path fill="none" stroke="#e6e6e6" stroke-width="1" class="highcharts-grid-line" d="M 47 191.5 L 475 191.5" opacity="1"></path><path fill="none" stroke="#e6e6e6" stroke-width="1" class="highcharts-grid-line" d="M 47 160.5 L 475 160.5" opacity="1"></path><path fill="none" stroke="#e6e6e6" stroke-width="1" class="highcharts-grid-line" d="M 47 127.5 L 475 127.5" opacity="1"></path></g><rect fill="none" class="highcharts-plot-border" x="47" y="128" width="428" height="221"></rect><g class="highcharts-axis highcharts-xaxis "><path fill="none" class="highcharts-tick" stroke="#FFFFFF" stroke-width="1" d="M 132.5 349 L 132.5 359" opacity="1"></path><path fill="none" class="highcharts-tick" stroke="#FFFFFF" stroke-width="1" d="M 217.5 349 L 217.5 359" opacity="1"></path><path fill="none" class="highcharts-tick" stroke="#FFFFFF" stroke-width="1" d="M 303.5 349 L 303.5 359" opacity="1"></path><path fill="none" class="highcharts-tick" stroke="#FFFFFF" stroke-width="1" d="M 388.5 349 L 388.5 359" opacity="1"></path><path fill="none" class="highcharts-tick" stroke="#FFFFFF" stroke-width="1" d="M 475.5 349 L 475.5 359" opacity="1"></path><path fill="none" class="highcharts-tick" stroke="#FFFFFF" stroke-width="1" d="M 46.5 349 L 46.5 359" opacity="1"></path><path fill="none" class="highcharts-axis-line" stroke="#ccd6eb" stroke-width="1" d="M 47 349.5 L 475 349.5"></path></g><g class="highcharts-axis highcharts-yaxis "><path fill="none" class="highcharts-axis-line" d="M 47 128 L 47 349"></path></g><g class="highcharts-series-group"><g class="highcharts-series highcharts-series-0 highcharts-column-series highcharts-color-undefined highcharts-tracker" transform="translate(47,128) scale(1 1)" width="221" height="428" clip-path="url(#highcharts-bgl5xde-1)"><rect x="17.5" y="55.5" width="9" height="166" fill="#083038" class="highcharts-point" stroke="#ffffff" stroke-width="1"></rect><rect x="103.5" y="20.5" width="9" height="201" fill="#083038" class="highcharts-point" stroke="#ffffff" stroke-width="1"></rect><rect x="188.5" y="52.5" width="9" height="169" fill="#083038" class="highcharts-point" stroke="#ffffff" stroke-width="1"></rect><rect x="274.5" y="80.5" width="9" height="141" fill="#083038" class="highcharts-point" stroke="#ffffff" stroke-width="1"></rect><rect x="360.5" y="43.5" width="9" height="178" fill="#083038" class="highcharts-point" stroke="#ffffff" stroke-width="1"></rect></g><g class="highcharts-markers highcharts-series-0 highcharts-column-series highcharts-color-undefined " transform="translate(47,128) scale(1 1)" width="221" height="428" clip-path="none"></g><g class="highcharts-series highcharts-series-1 highcharts-column-series highcharts-color-undefined highcharts-tracker" transform="translate(47,128) scale(1 1)" width="221" height="428" clip-path="url(#highcharts-bgl5xde-1)"><rect x="27.5" y="100.5" width="9" height="121" fill="#256370" class="highcharts-point" stroke="#ffffff" stroke-width="1"></rect><rect x="113.5" y="123.5" width="9" height="98" fill="#256370" class="highcharts-point" stroke="#ffffff" stroke-width="1"></rect><rect x="199.5" y="98.5" width="9" height="123" fill="#256370" class="highcharts-point" stroke="#ffffff" stroke-width="1"></rect><rect x="284.5" y="139.5" width="9" height="82" fill="#256370" class="highcharts-point" stroke="#ffffff" stroke-width="1"></rect><rect x="370.5" y="72.5" width="9" height="149" fill="#256370" class="highcharts-point" stroke="#ffffff" stroke-width="1"></rect></g><g class="highcharts-markers highcharts-series-1 highcharts-column-series highcharts-color-undefined " transform="translate(47,128) scale(1 1)" width="221" height="428" clip-path="none"></g><g class="highcharts-series highcharts-series-2 highcharts-column-series highcharts-color-undefined highcharts-tracker" transform="translate(47,128) scale(1 1)" width="221" height="428" clip-path="url(#highcharts-bgl5xde-1)"><rect x="38.5" y="54.5" width="9" height="167" fill="#71A3B5" class="highcharts-point" stroke="#ffffff" stroke-width="1"></rect><rect x="123.5" y="60.5" width="9" height="161" fill="#71A3B5" class="highcharts-point" stroke="#ffffff" stroke-width="1"></rect><rect x="209.5" y="54.5" width="9" height="167" fill="#71A3B5" class="highcharts-point" stroke="#ffffff" stroke-width="1"></rect><rect x="294.5" y="78.5" width="9" height="143" fill="#71A3B5" class="highcharts-point" stroke="#ffffff" stroke-width="1"></rect><rect x="380.5" y="22.5" width="9" height="199" fill="#71A3B5" class="highcharts-point" stroke="#ffffff" stroke-width="1"></rect></g><g class="highcharts-markers highcharts-series-2 highcharts-column-series highcharts-color-undefined " transform="translate(47,128) scale(1 1)" width="221" height="428" clip-path="none"></g><g class="highcharts-series highcharts-series-3 highcharts-column-series highcharts-color-undefined highcharts-tracker" transform="translate(47,128) scale(1 1)" width="221" height="428" clip-path="url(#highcharts-bgl5xde-1)"><rect x="48.5" y="155.5" width="9" height="66" fill="#8A8A8A" class="highcharts-point" stroke="#ffffff" stroke-width="1"></rect><rect x="134.5" y="158.5" width="9" height="63" fill="#8A8A8A" class="highcharts-point" stroke="#ffffff" stroke-width="1"></rect><rect x="219.5" y="154.5" width="9" height="67" fill="#8A8A8A" class="highcharts-point" stroke="#ffffff" stroke-width="1"></rect><rect x="305.5" y="164.5" width="9" height="57" fill="#8A8A8A" class="highcharts-point" stroke="#ffffff" stroke-width="1"></rect><rect x="390.5" y="105.5" width="9" height="116" fill="#8A8A8A" class="highcharts-point" stroke="#ffffff" stroke-width="1"></rect></g><g class="highcharts-markers highcharts-series-3 highcharts-column-series highcharts-color-undefined " transform="translate(47,128) scale(1 1)" width="221" height="428" clip-path="none"></g><g class="highcharts-series highcharts-series-4 highcharts-column-series highcharts-color-undefined highcharts-tracker" transform="translate(47,128) scale(1 1)" width="221" height="428" clip-path="url(#highcharts-bgl5xde-1)"><rect x="58.5" y="122.5" width="9" height="99" fill="#C8C8C8" class="highcharts-point" stroke="#ffffff" stroke-width="1"></rect><rect x="144.5" y="122.5" width="9" height="99" fill="#C8C8C8" class="highcharts-point" stroke="#ffffff" stroke-width="1"></rect><rect x="229.5" y="104.5" width="9" height="117" fill="#C8C8C8" class="highcharts-point" stroke="#ffffff" stroke-width="1"></rect><rect x="315.5" y="118.5" width="9" height="103" fill="#C8C8C8" class="highcharts-point" stroke="#ffffff" stroke-width="1"></rect><rect x="401.5" y="55.5" width="9" height="166" fill="#C8C8C8" class="highcharts-point" stroke="#ffffff" stroke-width="1"></rect></g><g class="highcharts-markers highcharts-series-4 highcharts-column-series highcharts-color-undefined " transform="translate(47,128) scale(1 1)" width="221" height="428" clip-path="none"></g></g><text x="10" text-anchor="start" class="highcharts-title" style="color:#000000;font-size:14px;font-weight:bold;fill:#000000;width:421px;" y="21"><tspan>I.50.1.0028 Gründe für Gedanken über die Arbeitsstelle</tspan></text><text x="10" text-anchor="start" class="highcharts-subtitle" style="color:#000000;font-size:12px;fill:#000000;width:421px;" y="40"><tspan>«Warum machen Sie sich manchmal Gedanken über Ihre Arbeitsstelle?»</tspan></text><g class="highcharts-legend" transform="translate(40,45)"><rect fill="none" class="highcharts-legend-box" rx="0" ry="0" x="0" y="0" width="396" height="71" visibility="visible"></rect><g><g><g class="highcharts-legend-item highcharts-column-series highcharts-color-undefined highcharts-series-0" transform="translate(8,3)"><text x="21" style="color:#333333;font-size:12px;font-weight:normal;cursor:pointer;fill:#333333;" text-anchor="start" y="15"><tspan>Sicherheit der Arbeitsstelle</tspan></text><rect x="2" y="4" width="12" height="12" fill="#083038" class="highcharts-point"></rect></g><g class="highcharts-legend-item highcharts-column-series highcharts-color-undefined highcharts-series-1" transform="translate(208,3)"><text x="21" y="15" style="color:#333333;font-size:12px;font-weight:normal;cursor:pointer;fill:#333333;" text-anchor="start">Betriebsklima</text><rect x="2" y="4" width="12" height="12" fill="#256370" class="highcharts-point"></rect></g><g class="highcharts-legend-item highcharts-column-series highcharts-color-undefined highcharts-series-2" transform="translate(8,23)"><text x="21" y="15" style="color:#333333;font-size:12px;font-weight:normal;cursor:pointer;fill:#333333;" text-anchor="start">Entwicklungsperspektiven</text><rect x="2" y="4" width="12" height="12" fill="#71A3B5" class="highcharts-point"></rect></g><g class="highcharts-legend-item highcharts-column-series highcharts-color-undefined highcharts-series-3" transform="translate(208,23)"><text x="21" y="15" style="color:#333333;font-size:12px;font-weight:normal;cursor:pointer;fill:#333333;" text-anchor="start">Arbeitsumfeld</text><rect x="2" y="4" width="12" height="12" fill="#8A8A8A" class="highcharts-point"></rect></g><g class="highcharts-legend-item highcharts-column-series highcharts-color-undefined highcharts-series-4" transform="translate(8,43)"><text x="21" y="15" style="color:#333333;font-size:12px;font-weight:normal;cursor:pointer;fill:#333333;" text-anchor="start">Lohn</text><rect x="2" y="4" width="12" height="12" fill="#C8C8C8" class="highcharts-point"></rect></g></g></g></g><g class="highcharts-axis-labels highcharts-xaxis-labels "><text x="89.8" style="color:#000000;cursor:default;font-size:11px;fill:#000000;" text-anchor="middle" transform="translate(0,0)" y="368" opacity="1"><tspan>2003</tspan><tspan x="89.8" dy="14">(N=544)</tspan></text><text x="175.39999999999998" style="color:#000000;cursor:default;font-size:11px;fill:#000000;" text-anchor="middle" transform="translate(0,0)" y="368" opacity="1"><tspan>2005</tspan><tspan x="175.39999999999998" dy="14">(N=578)</tspan></text><text x="261" style="color:#000000;cursor:default;font-size:11px;fill:#000000;" text-anchor="middle" transform="translate(0,0)" y="368" opacity="1"><tspan>2007</tspan><tspan x="261" dy="14">(N=506)</tspan></text><text x="346.59999999999997" style="color:#000000;cursor:default;font-size:11px;fill:#000000;" text-anchor="middle" transform="translate(0,0)" y="368" opacity="1"><tspan>2011</tspan><tspan x="346.59999999999997" dy="14">(N=505)</tspan></text><text x="432.2" style="color:#000000;cursor:default;font-size:11px;fill:#000000;" text-anchor="middle" transform="translate(0,0)" y="368" opacity="1"><tspan>2015</tspan><tspan x="432.2" dy="14">(N=468)</tspan></text></g><g class="highcharts-axis-labels highcharts-yaxis-labels "><text x="32" style="color:#000000;cursor:default;font-size:11px;fill:#000000;width:150px;text-overflow:clip;" text-anchor="end" transform="translate(0,0)" y="353" opacity="1"><tspan>0%</tspan></text><text x="32" style="color:#000000;cursor:default;font-size:11px;fill:#000000;width:150px;text-overflow:clip;" text-anchor="end" transform="translate(0,0)" y="321" opacity="1"><tspan>10%</tspan></text><text x="32" style="color:#000000;cursor:default;font-size:11px;fill:#000000;width:150px;text-overflow:clip;" text-anchor="end" transform="translate(0,0)" y="290" opacity="1"><tspan>20%</tspan></text><text x="32" style="color:#000000;cursor:default;font-size:11px;fill:#000000;width:150px;text-overflow:clip;" text-anchor="end" transform="translate(0,0)" y="258" opacity="1"><tspan>30%</tspan></text><text x="32" style="color:#000000;cursor:default;font-size:11px;fill:#000000;width:150px;text-overflow:clip;" text-anchor="end" transform="translate(0,0)" y="227" opacity="1"><tspan>40%</tspan></text><text x="32" style="color:#000000;cursor:default;font-size:11px;fill:#000000;width:150px;text-overflow:clip;" text-anchor="end" transform="translate(0,0)" y="195" opacity="1"><tspan>50%</tspan></text><text x="32" style="color:#000000;cursor:default;font-size:11px;fill:#000000;width:150px;text-overflow:clip;" text-anchor="end" transform="translate(0,0)" y="164" opacity="1"><tspan>60%</tspan></text><text x="32" style="color:#000000;cursor:default;font-size:11px;fill:#000000;width:150px;text-overflow:clip;" text-anchor="end" transform="translate(0,0)" y="132" opacity="1"><tspan>70%</tspan></text></g><text x="10" class="highcharts-credits" text-anchor="start" style="cursor:default;color:#000000;font-size:10px;fill:#000000;" y="400"><tspan>Quelle: Statistisches Amt Basel-Stadt, kantonale Bevölkerungsbefragung: F14f</tspan></text></svg>