<?xml version="1.0" standalone="no"?><!DOCTYPE svg PUBLIC "-//W3C//DTD SVG 1.1//EN" "http://www.w3.org/Graphics/SVG/1.1/DTD/svg11.dtd"><svg xmlns:xlink="http://www.w3.org/1999/xlink" version="1.1" class="highcharts-root" style="font-family:Arial;font-size:12px;" xmlns="http://www.w3.org/2000/svg" viewBox="0 0 485 415"><desc>Created with Highstock 6.1.1</desc><defs><clipPath id="highcharts-rpt7bps-8"><rect x="0" y="0" width="379" height="228" fill="none"></rect></clipPath><clipPath id="highcharts-rpt7bps-9"><rect x="0" y="0" width="379" height="228" fill="none"></rect></clipPath><clipPath id="highcharts-rpt7bps-10"><rect x="0" y="0" width="379" height="228" fill="none"></rect></clipPath></defs><rect fill="#fbfbfb" class="highcharts-background" x="0" y="0" width="485" height="428" rx="0" ry="0"></rect><rect fill="none" class="highcharts-plot-background" x="59" y="116" width="379" height="228"></rect><g class="highcharts-pane-group" data-z-index="0"></g><g class="highcharts-grid highcharts-xaxis-grid " data-z-index="1"><path fill="none" data-z-index="1" class="highcharts-grid-line" d="M 76.5 116 L 76.5 344" opacity="1"></path><path fill="none" data-z-index="1" class="highcharts-grid-line" d="M 104.5 116 L 104.5 344" opacity="1"></path><path fill="none" data-z-index="1" class="highcharts-grid-line" d="M 133.5 116 L 133.5 344" opacity="1"></path><path fill="none" data-z-index="1" class="highcharts-grid-line" d="M 162.5 116 L 162.5 344" opacity="1"></path><path fill="none" data-z-index="1" class="highcharts-grid-line" d="M 190.5 116 L 190.5 344" opacity="1"></path><path fill="none" data-z-index="1" class="highcharts-grid-line" d="M 219.5 116 L 219.5 344" opacity="1"></path><path fill="none" data-z-index="1" class="highcharts-grid-line" d="M 248.5 116 L 248.5 344" opacity="1"></path><path fill="none" data-z-index="1" class="highcharts-grid-line" d="M 276.5 116 L 276.5 344" opacity="1"></path><path fill="none" data-z-index="1" class="highcharts-grid-line" d="M 305.5 116 L 305.5 344" opacity="1"></path><path fill="none" data-z-index="1" class="highcharts-grid-line" d="M 333.5 116 L 333.5 344" opacity="1"></path><path fill="none" data-z-index="1" class="highcharts-grid-line" d="M 362.5 116 L 362.5 344" opacity="1"></path><path fill="none" data-z-index="1" class="highcharts-grid-line" d="M 391.5 116 L 391.5 344" opacity="1"></path><path fill="none" data-z-index="1" class="highcharts-grid-line" d="M 419.5 116 L 419.5 344" opacity="1"></path></g><g class="highcharts-grid highcharts-yaxis-grid " data-z-index="1"><path fill="none" stroke="#e6e6e6" stroke-width="1" data-z-index="1" class="highcharts-grid-line" d="M 59 344.5 L 438 344.5" opacity="1"></path><path fill="none" stroke="#e6e6e6" stroke-width="1" data-z-index="1" class="highcharts-grid-line" d="M 59 268.5 L 438 268.5" opacity="1"></path><path fill="none" stroke="#e6e6e6" stroke-width="1" data-z-index="1" class="highcharts-grid-line" d="M 59 192.5 L 438 192.5" opacity="1"></path><path fill="none" stroke="#e6e6e6" stroke-width="1" data-z-index="1" class="highcharts-grid-line" d="M 59 115.5 L 438 115.5" opacity="1"></path></g><g class="highcharts-grid highcharts-yaxis-grid " data-z-index="1"><path fill="none" data-z-index="1" class="highcharts-grid-line" d="M 59 344.5 L 438 344.5" opacity="1"></path><path fill="none" data-z-index="1" class="highcharts-grid-line" d="M 59 268.5 L 438 268.5" opacity="1"></path><path fill="none" data-z-index="1" class="highcharts-grid-line" d="M 59 192.5 L 438 192.5" opacity="1"></path><path fill="none" data-z-index="1" class="highcharts-grid-line" d="M 59 116.5 L 438 116.5" opacity="1"></path></g><rect fill="none" class="highcharts-plot-border" data-z-index="1" x="59" y="116" width="379" height="228"></rect><g class="highcharts-axis highcharts-xaxis " data-z-index="2"><path fill="none" class="highcharts-axis-line" stroke="#B9CFD7" stroke-width="0.5" data-z-index="7" d="M 59 344.25 L 438 344.25"></path></g><g class="highcharts-axis highcharts-yaxis " data-z-index="2"><path fill="none" class="highcharts-axis-line" data-z-index="7" d="M 59 116 L 59 344"></path></g><g class="highcharts-axis highcharts-yaxis " data-z-index="2"><path fill="none" class="highcharts-axis-line" data-z-index="7" d="M 438 116 L 438 344"></path></g><g class="highcharts-series-group" data-z-index="3"><g data-z-index="0.1" class="highcharts-series highcharts-series-0 highcharts-column-series " transform="translate(59,116) scale(1 1)" clip-path="url(#highcharts-rpt7bps-9)"><rect x="8" y="30" width="20" height="199" fill="#71a3b5" class="highcharts-point"></rect><rect x="36" y="31" width="20" height="198" fill="#71a3b5" class="highcharts-point"></rect><rect x="65" y="37" width="20" height="192" fill="#71a3b5" class="highcharts-point"></rect><rect x="94" y="40" width="20" height="189" fill="#71a3b5" class="highcharts-point"></rect><rect x="122" y="32" width="20" height="197" fill="#71a3b5" class="highcharts-point"></rect><rect x="151" y="33" width="20" height="196" fill="#71a3b5" class="highcharts-point"></rect><rect x="180" y="30" width="20" height="199" fill="#71a3b5" class="highcharts-point"></rect><rect x="208" y="26" width="20" height="203" fill="#71a3b5" class="highcharts-point"></rect><rect x="237" y="23" width="20" height="206" fill="#71a3b5" class="highcharts-point"></rect><rect x="265" y="38" width="20" height="191" fill="#71a3b5" class="highcharts-point"></rect><rect x="294" y="37" width="20" height="192" fill="#71a3b5" class="highcharts-point"></rect><rect x="323" y="34" width="20" height="195" fill="#71a3b5" class="highcharts-point"></rect><rect x="351" y="32" width="20" height="197" fill="#71a3b5" class="highcharts-point"></rect></g><g data-z-index="0.1" class="highcharts-markers highcharts-series-0 highcharts-column-series " transform="translate(59,116) scale(1 1)" clip-path="none"></g><g data-z-index="0.1" class="highcharts-series highcharts-series-1 highcharts-line-series " transform="translate(59,116) scale(1 1)" clip-path="url(#highcharts-rpt7bps-10)"><path fill="none" d="M 17.74773413897 15.991060025543135 L 46.373111782475 16.83807616937912 L 74.99848942598 23.737872340425184 L 103.62386706948 28.798497541623647 L 132.24924471299 21.226947567015003 L 160.8746223565 22.922405253696127 L 189.5 21.144396372410256 L 218.12537764351 18.207330752252773 L 246.75075528701 16.889536936134903 L 275.37613293051 33.419018582894836 L 304.00151057402 32.866635565201335 L 332.62688821752 31.56780319465588 L 361.25226586103 29.826642812632002" class="highcharts-graph" data-z-index="1" stroke="#7d60a0" stroke-width="2" stroke-linejoin="round" stroke-linecap="round"></path></g><g data-z-index="0.1" class="highcharts-markers highcharts-series-1 highcharts-line-series " transform="translate(59,116) scale(1 1)" clip-path="none"></g></g><text x="10" text-anchor="start" class="highcharts-title" data-z-index="4" style="color:#000000;font-size:14px;font-weight:bold;fill:#000000;" y="21"><tspan>Bezüger von Prämienverbilligungen</tspan></text><text x="10" text-anchor="start" class="highcharts-subtitle" data-z-index="4" style="color:#000000;font-size:12px;font-weight:normal;font-family:Arial;fill:#000000;" y="40"><tspan>inkl. Bezügern von Sozialhilfe und Ergänzungsleistungen, Basel-Stadt</tspan></text><g class="highcharts-legend" data-z-index="7" transform="translate(51,55)"><rect fill="none" class="highcharts-legend-box" rx="0" ry="0" x="0" y="0" width="336" height="49" visibility="visible"></rect><g data-z-index="1"><g><g class="highcharts-legend-item highcharts-column-series highcharts-color-undefined highcharts-series-0" data-z-index="1" transform="translate(8,3)"><text x="21" style="color:#333333;font-size:12px;font-weight:normal;cursor:pointer;fill:#333333;" text-anchor="start" data-z-index="2" y="15"><tspan>PV-Beziehende (inkl. SH/EL)</tspan></text><rect x="2" y="4" width="12" height="12" fill="#71a3b5" class="highcharts-point" data-z-index="3"></rect></g><g class="highcharts-legend-item highcharts-line-series highcharts-color-undefined highcharts-series-1" data-z-index="1" transform="translate(8,22)"><path fill="none" d="M 0 11 L 16 11" class="highcharts-graph" stroke="#7d60a0" stroke-width="2"></path><text x="21" y="15" style="color:#333333;font-size:12px;font-weight:normal;cursor:pointer;fill:#333333;" text-anchor="start" data-z-index="2"><tspan>Anteil PV-Beziehende an Wohnbev. In % (rechte Achse)</tspan></text></g></g></g></g><g class="highcharts-axis-labels highcharts-xaxis-labels " data-z-index="7"><text x="79.34045900332067" style="color:#000000;cursor:default;font-size:11px;fill:#000000;" text-anchor="end" transform="translate(0,0) rotate(-45 79.34045900332067 360)" y="360" opacity="1">2005</text><text x="107.96583664682068" style="color:#000000;cursor:default;font-size:11px;fill:#000000;" text-anchor="end" transform="translate(0,0) rotate(-45 107.96583664682068 360)" y="360" opacity="1">2006</text><text x="136.5912142903307" style="color:#000000;cursor:default;font-size:11px;fill:#000000;" text-anchor="end" transform="translate(0,0) rotate(-45 136.5912142903307 360)" y="360" opacity="1">2007</text><text x="165.2165919338307" style="color:#000000;cursor:default;font-size:11px;fill:#000000;" text-anchor="end" transform="translate(0,0) rotate(-45 165.2165919338307 360)" y="360" opacity="1">2008</text><text x="193.84196957734068" style="color:#000000;cursor:default;font-size:11px;fill:#000000;" text-anchor="end" transform="translate(0,0) rotate(-45 193.84196957734068 360)" y="360" opacity="1">2009</text><text x="222.46734722085068" style="color:#000000;cursor:default;font-size:11px;fill:#000000;" text-anchor="end" transform="translate(0,0) rotate(-45 222.46734722085068 360)" y="360" opacity="1">2010</text><text x="251.09272486435069" style="color:#000000;cursor:default;font-size:11px;fill:#000000;" text-anchor="end" transform="translate(0,0) rotate(-45 251.09272486435069 360)" y="360" opacity="1">2011</text><text x="279.71810250786064" style="color:#000000;cursor:default;font-size:11px;fill:#000000;" text-anchor="end" transform="translate(0,0) rotate(-45 279.71810250786064 360)" y="360" opacity="1">2012</text><text x="308.34348015136067" style="color:#000000;cursor:default;font-size:11px;fill:#000000;" text-anchor="end" transform="translate(0,0) rotate(-45 308.34348015136067 360)" y="360" opacity="1">2013</text><text x="336.96885779486064" style="color:#000000;cursor:default;font-size:11px;fill:#000000;" text-anchor="end" transform="translate(0,0) rotate(-45 336.96885779486064 360)" y="360" opacity="1">2014</text><text x="365.5942354383707" style="color:#000000;cursor:default;font-size:11px;fill:#000000;" text-anchor="end" transform="translate(0,0) rotate(-45 365.5942354383707 360)" y="360" opacity="1">2015</text><text x="394.21961308187065" style="color:#000000;cursor:default;font-size:11px;fill:#000000;" text-anchor="end" transform="translate(0,0) rotate(-45 394.21961308187065 360)" y="360" opacity="1">2016</text><text x="422.8449907253807" style="color:#000000;cursor:default;font-size:11px;fill:#000000;" text-anchor="end" transform="translate(0,0) rotate(-45 422.8449907253807 360)" y="360" opacity="1">2017</text></g><g class="highcharts-axis-labels highcharts-yaxis-labels " data-z-index="7"><text x="44" style="color:#000000;cursor:default;font-size:11px;fill:#000000;" text-anchor="end" transform="translate(0,0)" y="349" opacity="1">0</text><text x="44" style="color:#000000;cursor:default;font-size:11px;fill:#000000;" text-anchor="end" transform="translate(0,0)" y="273" opacity="1"><tspan>20 000</tspan></text><text x="44" style="color:#000000;cursor:default;font-size:11px;fill:#000000;" text-anchor="end" transform="translate(0,0)" y="197" opacity="1"><tspan>40 000</tspan></text><text x="44" style="color:#000000;cursor:default;font-size:11px;fill:#000000;" text-anchor="end" transform="translate(0,0)" y="121" opacity="1"><tspan>60 000</tspan></text></g><g class="highcharts-axis-labels highcharts-yaxis-labels " data-z-index="7"><text x="453" style="color:#000000;cursor:default;font-size:11px;fill:#000000;" text-anchor="start" transform="translate(0,0)" y="349" opacity="1">0%</text><text x="453" style="color:#000000;cursor:default;font-size:11px;fill:#000000;" text-anchor="start" transform="translate(0,0)" y="273" opacity="1">10%</text><text x="453" style="color:#000000;cursor:default;font-size:11px;fill:#000000;" text-anchor="start" transform="translate(0,0)" y="197" opacity="1">20%</text><text x="453" style="color:#000000;cursor:default;font-size:11px;fill:#000000;" text-anchor="start" transform="translate(0,0)" y="121" opacity="1">30%</text></g><text x="10" class="highcharts-credits" text-anchor="start" data-z-index="8" style="cursor:default;color:#000000;font-size:10px;fill:#000000;" y="393"><tspan>Quelle: Statistisches Amt Basel-Stadt, Bevölkerungsstatistik;</tspan><tspan x="10" dy="13">Amt für Sozialbeiträge, Abteilung Prämienverbilligungen.</tspan><tspan x="10" dy="13">Zuletzt geändert: 2018-9-5</tspan></text></svg>