<?xml version="1.0" standalone="no"?>
<!DOCTYPE svg PUBLIC "-//W3C//DTD SVG 1.1//EN" "http://www.w3.org/Graphics/SVG/1.1/DTD/svg11.dtd">
<svg xmlns:xlink="http://www.w3.org/1999/xlink" version="1.1" class="highcharts-root" style="font-family:arial;font-size:12px;" xmlns="http://www.w3.org/2000/svg" viewBox="0 0 485 415">
  <desc>
    Created with Highstock 5.0.14
  </desc>
  <defs>
    <clipPath>
      <rect x="0" y="0" width="428" height="308" fill="none"/>
    </clipPath>
    <clipPath id="a">
      <rect x="0" y="0" width="428" height="308" fill="none"/>
    </clipPath>
  </defs>
  <rect fill="#fbfbfb" class="highcharts-background" x="0" y="0" width="485" height="415" rx="0" ry="0"/>
  <rect fill="none" class="highcharts-plot-background" x="47" y="41" width="428" height="308"/>
  <g class="highcharts-pane-group"/>
  <g class="highcharts-grid highcharts-xaxis-grid ">
    <path fill="none" class="highcharts-grid-line" d="M 50.5 41 L 50.5 349" opacity="1"/>
    <path fill="none" class="highcharts-grid-line" d="M 97.5 41 L 97.5 349" opacity="1"/>
    <path fill="none" class="highcharts-grid-line" d="M 143.5 41 L 143.5 349" opacity="1"/>
    <path fill="none" class="highcharts-grid-line" d="M 190.5 41 L 190.5 349" opacity="1"/>
    <path fill="none" class="highcharts-grid-line" d="M 237.5 41 L 237.5 349" opacity="1"/>
    <path fill="none" class="highcharts-grid-line" d="M 283.5 41 L 283.5 349" opacity="1"/>
    <path fill="none" class="highcharts-grid-line" d="M 330.5 41 L 330.5 349" opacity="1"/>
    <path fill="none" class="highcharts-grid-line" d="M 377.5 41 L 377.5 349" opacity="1"/>
    <path fill="none" class="highcharts-grid-line" d="M 423.5 41 L 423.5 349" opacity="1"/>
    <path fill="none" class="highcharts-grid-line" d="M 470.5 41 L 470.5 349" opacity="1"/>
  </g>
  <g class="highcharts-grid highcharts-yaxis-grid ">
    <path fill="none" stroke="#B9CFD7" stroke-width="0.5" class="highcharts-grid-line" d="M 47 349.25 L 475 349.25" opacity="1"/>
    <path fill="none" stroke="#B9CFD7" stroke-width="0.5" class="highcharts-grid-line" d="M 47 272.25 L 475 272.25" opacity="1"/>
    <path fill="none" stroke="#B9CFD7" stroke-width="0.5" class="highcharts-grid-line" d="M 47 195.25 L 475 195.25" opacity="1"/>
    <path fill="none" stroke="#B9CFD7" stroke-width="0.5" class="highcharts-grid-line" d="M 47 118.25 L 475 118.25" opacity="1"/>
    <path fill="none" stroke="#B9CFD7" stroke-width="0.5" class="highcharts-grid-line" d="M 47 40.75 L 475 40.75" opacity="1"/>
  </g>
  <rect fill="none" class="highcharts-plot-border" x="47" y="41" width="428" height="308"/>
  <g class="highcharts-axis highcharts-xaxis ">
    <path fill="none" class="highcharts-axis-line" stroke="#B9CFD7" stroke-width="0.5" d="M 47 349.25 L 475 349.25"/>
  </g>
  <g class="highcharts-axis highcharts-yaxis ">
    <path fill="none" class="highcharts-axis-line" d="M 47 41 L 47 349"/>
  </g>
  <g class="highcharts-series-group">
    <g class="highcharts-series highcharts-series-0 highcharts-line-series highcharts-color-undefined " transform="translate(47,41) scale(1 1)" clip-path="url(#a)">
      <path fill="none" d="M 4.1960784313688 212.135 L 50.819172113287 261.03 L 97.442265795205 233.695 L 144.06535947712 184.415 L 190.68845315904 139.755 L 237.31154684096 165.165 L 283.93464052288 123.19999999999999 L 330.5577342048 145.145 L 377.18082788671 125.50999999999999 L 423.80392156863 18.480000000000018" class="highcharts-graph" stroke="#8b2223" stroke-width="2" stroke-linejoin="round" stroke-linecap="round"/>
    </g>
    <g class="highcharts-markers highcharts-series-0 highcharts-line-series highcharts-color-undefined " transform="translate(47,41) scale(1 1)" clip-path="none">
      <path fill="#8b2223" d="M 8 212 A 4 4 0 1 1 7.999998000000167 211.99600000066667 Z" class="highcharts-point highcharts-negative"/>
      <path fill="#8b2223" d="M 54 261 A 4 4 0 1 1 53.99999800000017 260.99600000066664 Z" class="highcharts-point highcharts-negative"/>
      <path fill="#8b2223" d="M 101 234 A 4 4 0 1 1 100.99999800000016 233.99600000066667 Z" class="highcharts-point highcharts-negative"/>
      <path fill="#8b2223" d="M 148 184 A 4 4 0 1 1 147.99999800000018 183.99600000066667 Z" class="highcharts-point highcharts-negative"/>
      <path fill="#8b2223" d="M 194 140 A 4 4 0 1 1 193.99999800000018 139.99600000066667 Z" class="highcharts-point highcharts-negative"/>
      <path fill="#8b2223" d="M 241 165 A 4 4 0 1 1 240.99999800000018 164.99600000066667 Z" class="highcharts-point highcharts-negative"/>
      <path fill="#8b2223" d="M 287 123 A 4 4 0 1 1 286.9999980000002 122.99600000066667 Z" class="highcharts-point highcharts-negative"/>
      <path fill="#8b2223" d="M 334 145 A 4 4 0 1 1 333.9999980000002 144.99600000066667 Z" class="highcharts-point highcharts-negative"/>
      <path fill="#8b2223" d="M 381 126 A 4 4 0 1 1 380.9999980000002 125.99600000066667 Z" class="highcharts-point highcharts-negative"/>
      <path fill="#8b2223" d="M 427 18 A 4 4 0 1 1 426.9999980000002 17.996000000666665 Z" class="highcharts-point"/>
    </g>
  </g>
  <text x="10" text-anchor="start" class="highcharts-title" style="color:#000000;font-size:14px;font-weight:bold;fill:#000000;" y="21">
    <tspan>Saldo aus Geburten und Todesfällen</tspan>
  </text>
  <g class="highcharts-data-labels highcharts-series-0 highcharts-line-series highcharts-color-undefined " visibility="visible" transform="translate(47,41) scale(1 1)">
    <g class="highcharts-label highcharts-data-label highcharts-data-label-color-undefined " transform="translate(-5,229)">
      <text x="5" style="font-size:11px;font-weight:bold;color:#000000;fill:#000000;" y="16">
        <tspan x="5" y="16" class="highcharts-text-outline" fill="#FFFFFF" stroke="#FFFFFF" stroke-width="2px" stroke-linejoin="round">-351</tspan><tspan x="5" y="16">-351</tspan>
      </text>
    </g>
    <g class="highcharts-label highcharts-data-label highcharts-data-label-color-undefined " transform="translate(46,291)">
      <text x="5" style="font-size:11px;font-weight:bold;color:#000000;fill:#000000;" y="16"/>
    </g>
    <g class="highcharts-label highcharts-data-label highcharts-data-label-color-undefined " transform="translate(92,264)">
      <text x="5" style="font-size:11px;font-weight:bold;color:#000000;fill:#000000;" y="16"/>
    </g>
    <g class="highcharts-label highcharts-data-label highcharts-data-label-color-undefined " transform="translate(139,214)">
      <text x="5" style="font-size:11px;font-weight:bold;color:#000000;fill:#000000;" y="16"/>
    </g>
    <g class="highcharts-label highcharts-data-label highcharts-data-label-color-undefined " transform="translate(186,170)">
      <text x="5" style="font-size:11px;font-weight:bold;color:#000000;fill:#000000;" y="16"/>
    </g>
    <g class="highcharts-label highcharts-data-label highcharts-data-label-color-undefined " transform="translate(232,195)">
      <text x="5" style="font-size:11px;font-weight:bold;color:#000000;fill:#000000;" y="16"/>
    </g>
    <g class="highcharts-label highcharts-data-label highcharts-data-label-color-undefined " transform="translate(279,153)">
      <text x="5" style="font-size:11px;font-weight:bold;color:#000000;fill:#000000;" y="16"/>
    </g>
    <g class="highcharts-label highcharts-data-label highcharts-data-label-color-undefined " transform="translate(326,175)">
      <text x="5" style="font-size:11px;font-weight:bold;color:#000000;fill:#000000;" y="16"/>
    </g>
    <g class="highcharts-label highcharts-data-label highcharts-data-label-color-undefined " transform="translate(372,156)">
      <text x="5" style="font-size:11px;font-weight:bold;color:#000000;fill:#000000;" y="16"/>
    </g>
    <g class="highcharts-label highcharts-data-label highcharts-data-label-color-undefined " transform="translate(404,35)">
      <text x="5" style="font-size:11px;font-weight:bold;color:#000000;fill:#000000;" y="16">
        <tspan x="5" y="16" class="highcharts-text-outline" fill="#FFFFFF" stroke="#FFFFFF" stroke-width="2px" stroke-linejoin="round">152</tspan><tspan x="5" y="16">152</tspan>
      </text>
    </g>
  </g>
  <g class="highcharts-axis-labels highcharts-xaxis-labels ">
    <text x="51.196078431368804" style="color:#000000;cursor:default;font-size:11px;fill:#000000;" text-anchor="middle" transform="translate(0,0)" y="368" opacity="1">
      2007
    </text>
    <text x="97.81917211328685" style="color:#000000;cursor:default;font-size:11px;fill:#000000;" text-anchor="middle" transform="translate(0,0)" y="368" opacity="1">
      2008
    </text>
    <text x="144.4422657952049" style="color:#000000;cursor:default;font-size:11px;fill:#000000;" text-anchor="middle" transform="translate(0,0)" y="368" opacity="1">
      2009
    </text>
    <text x="191.06535947712294" style="color:#000000;cursor:default;font-size:11px;fill:#000000;" text-anchor="middle" transform="translate(0,0)" y="368" opacity="1">
      2010
    </text>
    <text x="237.688453159041" style="color:#000000;cursor:default;font-size:11px;fill:#000000;" text-anchor="middle" transform="translate(0,0)" y="368" opacity="1">
      2011
    </text>
    <text x="284.311546840959" style="color:#000000;cursor:default;font-size:11px;fill:#000000;" text-anchor="middle" transform="translate(0,0)" y="368" opacity="1">
      2012
    </text>
    <text x="330.9346405228771" style="color:#000000;cursor:default;font-size:11px;fill:#000000;" text-anchor="middle" transform="translate(0,0)" y="368" opacity="1">
      2013
    </text>
    <text x="377.5577342047951" style="color:#000000;cursor:default;font-size:11px;fill:#000000;" text-anchor="middle" transform="translate(0,0)" y="368" opacity="1">
      2014
    </text>
    <text x="424.18082788671313" style="color:#000000;cursor:default;font-size:11px;fill:#000000;" text-anchor="middle" transform="translate(0,0)" y="368" opacity="1">
      2015
    </text>
    <text x="462.78125" style="color:#000000;cursor:default;font-size:11px;fill:#000000;" text-anchor="middle" transform="translate(0,0)" y="368" opacity="1">
      2016
    </text>
  </g>
  <g class="highcharts-axis-labels highcharts-yaxis-labels ">
    <text x="32" style="color:#000000;cursor:default;font-size:11px;fill:#000000;" text-anchor="end" transform="translate(0,0)" y="354" opacity="1">
      <tspan>-600</tspan>
    </text>
    <text x="32" style="color:#000000;cursor:default;font-size:11px;fill:#000000;" text-anchor="end" transform="translate(0,0)" y="277" opacity="1">
      <tspan>-400</tspan>
    </text>
    <text x="32" style="color:#000000;cursor:default;font-size:11px;fill:#000000;" text-anchor="end" transform="translate(0,0)" y="200" opacity="1">
      <tspan>-200</tspan>
    </text>
    <text x="32" style="color:#000000;cursor:default;font-size:11px;fill:#000000;" text-anchor="end" transform="translate(0,0)" y="123" opacity="1">
      <tspan>0</tspan>
    </text>
    <text x="32" style="color:#000000;cursor:default;font-size:11px;fill:#000000;" text-anchor="end" transform="translate(0,0)" y="46" opacity="1">
      <tspan>200</tspan>
    </text>
  </g>
  <text x="10" class="highcharts-credits" text-anchor="start" style="cursor:default;color:#000000;font-size:10px;fill:#000000;" y="400">
    <tspan>Quelle: Statistisches Amt Basel-Stadt, Bevölkerungsstatistik</tspan>
  </text>
</svg>
