<?xml version="1.0" standalone="no"?><!DOCTYPE svg PUBLIC "-//W3C//DTD SVG 1.1//EN" "http://www.w3.org/Graphics/SVG/1.1/DTD/svg11.dtd"><svg xmlns:xlink="http://www.w3.org/1999/xlink" version="1.1" class="highcharts-root" style="font-family:Arial;font-size:12px;" xmlns="http://www.w3.org/2000/svg" viewBox="0 0 485 415"><desc>Created with Highstock 6.1.1</desc><defs><clipPath id="highcharts-e5hkylg-8"><rect x="0" y="0" width="387" height="252" fill="none"></rect></clipPath><clipPath id="highcharts-e5hkylg-9"><rect x="0" y="0" width="387" height="252" fill="none"></rect></clipPath><clipPath id="highcharts-e5hkylg-10"><rect x="0" y="0" width="387" height="252" fill="none"></rect></clipPath></defs><rect fill="#fbfbfb" class="highcharts-background" x="0" y="0" width="485" height="428" rx="0" ry="0"></rect><rect fill="none" class="highcharts-plot-background" x="40" y="99" width="387" height="252"></rect><g class="highcharts-pane-group" data-z-index="0"></g><g class="highcharts-grid highcharts-xaxis-grid " data-z-index="1"><path fill="none" data-z-index="1" class="highcharts-grid-line" d="M 43.5 99 L 43.5 351" opacity="1"></path><path fill="none" data-z-index="1" class="highcharts-grid-line" d="M 85.5 99 L 85.5 351" opacity="1"></path><path fill="none" data-z-index="1" class="highcharts-grid-line" d="M 127.5 99 L 127.5 351" opacity="1"></path><path fill="none" data-z-index="1" class="highcharts-grid-line" d="M 169.5 99 L 169.5 351" opacity="1"></path><path fill="none" data-z-index="1" class="highcharts-grid-line" d="M 211.5 99 L 211.5 351" opacity="1"></path><path fill="none" data-z-index="1" class="highcharts-grid-line" d="M 254.5 99 L 254.5 351" opacity="1"></path><path fill="none" data-z-index="1" class="highcharts-grid-line" d="M 296.5 99 L 296.5 351" opacity="1"></path><path fill="none" data-z-index="1" class="highcharts-grid-line" d="M 338.5 99 L 338.5 351" opacity="1"></path><path fill="none" data-z-index="1" class="highcharts-grid-line" d="M 380.5 99 L 380.5 351" opacity="1"></path><path fill="none" data-z-index="1" class="highcharts-grid-line" d="M 422.5 99 L 422.5 351" opacity="1"></path></g><g class="highcharts-grid highcharts-yaxis-grid " data-z-index="1"><path fill="none" stroke="#e6e6e6" stroke-width="1" data-z-index="1" class="highcharts-grid-line" d="M 40 351.5 L 427 351.5" opacity="1"></path><path fill="none" stroke="#e6e6e6" stroke-width="1" data-z-index="1" class="highcharts-grid-line" d="M 40 288.5 L 427 288.5" opacity="1"></path><path fill="none" stroke="#e6e6e6" stroke-width="1" data-z-index="1" class="highcharts-grid-line" d="M 40 225.5 L 427 225.5" opacity="1"></path><path fill="none" stroke="#e6e6e6" stroke-width="1" data-z-index="1" class="highcharts-grid-line" d="M 40 162.5 L 427 162.5" opacity="1"></path><path fill="none" stroke="#e6e6e6" stroke-width="1" data-z-index="1" class="highcharts-grid-line" d="M 40 98.5 L 427 98.5" opacity="1"></path></g><g class="highcharts-grid highcharts-yaxis-grid " data-z-index="1"><path fill="none" data-z-index="1" class="highcharts-grid-line" d="M 40 351.5 L 427 351.5" opacity="1"></path><path fill="none" data-z-index="1" class="highcharts-grid-line" d="M 40 288.5 L 427 288.5" opacity="1"></path><path fill="none" data-z-index="1" class="highcharts-grid-line" d="M 40 225.5 L 427 225.5" opacity="1"></path><path fill="none" data-z-index="1" class="highcharts-grid-line" d="M 40 162.5 L 427 162.5" opacity="1"></path><path fill="none" data-z-index="1" class="highcharts-grid-line" d="M 40 99.5 L 427 99.5" opacity="1"></path></g><rect fill="none" class="highcharts-plot-border" data-z-index="1" x="40" y="99" width="387" height="252"></rect><g class="highcharts-axis highcharts-xaxis " data-z-index="2"><path fill="none" class="highcharts-axis-line" stroke="#B9CFD7" stroke-width="0.5" data-z-index="7" d="M 40 351.25 L 427 351.25"></path></g><g class="highcharts-axis highcharts-yaxis " data-z-index="2"><path fill="none" class="highcharts-axis-line" data-z-index="7" d="M 40 99 L 40 351"></path></g><g class="highcharts-axis highcharts-yaxis " data-z-index="2"><path fill="none" class="highcharts-axis-line" data-z-index="7" d="M 427 99 L 427 351"></path></g><g class="highcharts-series-group" data-z-index="3"><g data-z-index="0.1" class="highcharts-series highcharts-series-0 highcharts-line-series " transform="translate(40,99) scale(1 1)" clip-path="url(#highcharts-e5hkylg-9)"><path fill="none" d="M 3.7941176470601 35.28 L 24.872549019609 37.80000000000001 L 45.950980392158 37.80000000000001 L 67.029411764707 47.880000000000024 L 88.107843137256 57.96000000000001 L 109.1862745098 78.12 L 130.26470588235 132.74597227086065 L 151.3431372549 114.15056176419489 L 172.42156862745 123.15442320557435 L 193.5 137.25307155963313 L 214.57843137255 168.84 L 235.6568627451 176.4 L 256.73529411765 163.8 L 277.8137254902 171.36 L 298.89215686274 176.4 L 319.97058823529 178.92000000000002 L 341.04901960784 176.4 L 362.12745098039 178.92000000000002 L 383.20588235294 189" class="highcharts-graph" data-z-index="1" stroke="#008AC3" stroke-width="2" stroke-linejoin="round" stroke-linecap="round"></path></g><g data-z-index="0.1" class="highcharts-markers highcharts-series-0 highcharts-line-series " transform="translate(40,99) scale(1 1)" clip-path="none"></g><g data-z-index="0.1" class="highcharts-series highcharts-series-1 highcharts-line-series " transform="translate(40,99) scale(1 1)" clip-path="url(#highcharts-e5hkylg-10)"><path fill="none" d="M 3.7941176470601 51.1182 L 24.872549019609 48.60449999999997 L 45.950980392158 46.1412 L 67.029411764707 54.31125 L 88.107843137256 58.36109999999999 L 109.1862745098 74.88284999999999 L 130.26470588235 123.57456519281894 L 151.3431372549 95.8072463203275 L 172.42156862745 100.9067325999579 L 193.5 115.12199999999999 L 214.57843137255 152.3025 L 235.6568627451 158.382 L 256.73529411765 140.3745 L 277.8137254902 142.27499999999998 L 298.89215686274 147.588 L 319.97058823529 154.2135 L 341.04901960784 147.52499999999998 L 362.12745098039 150.74849999999998 L 383.20588235294 161.322" class="highcharts-graph" data-z-index="1" stroke="#68AB2B" stroke-width="2" stroke-linejoin="round" stroke-linecap="round"></path></g><g data-z-index="0.1" class="highcharts-markers highcharts-series-1 highcharts-line-series " transform="translate(40,99) scale(1 1)" clip-path="none"></g></g><text x="10" text-anchor="start" class="highcharts-title" data-z-index="4" style="color:#000000;font-size:14px;font-weight:bold;fill:#000000;" y="21"><tspan>Nettoschuldenquote und Nettoschulden pro Kopf</tspan></text><text x="10" text-anchor="start" class="highcharts-subtitle" data-z-index="4" style="color:#000000;font-size:12px;font-weight:normal;fill:#000000;" y="40"><tspan>in Promille des BIP der Schweiz resp. in Franken, Basel-Stadt</tspan></text><g class="highcharts-legend" data-z-index="7" transform="translate(32,56)"><rect fill="none" class="highcharts-legend-box" rx="0" ry="0" x="0" y="0" width="397" height="31" visibility="visible"></rect><g data-z-index="1"><g><g class="highcharts-legend-item highcharts-line-series highcharts-color-undefined highcharts-series-0" data-z-index="1" transform="translate(8,3)"><path fill="none" d="M 0 11 L 16 11" class="highcharts-graph" stroke="#008AC3" stroke-width="2"></path><text x="21" style="color:#333333;font-size:12px;font-weight:normal;cursor:pointer;fill:#333333;" text-anchor="start" data-z-index="2" y="15"><tspan>Nettoschuldenquote</tspan></text></g><g class="highcharts-legend-item highcharts-line-series highcharts-color-undefined highcharts-series-1" data-z-index="1" transform="translate(160,3)"><path fill="none" d="M 0 11 L 16 11" class="highcharts-graph" stroke="#68AB2B" stroke-width="2"></path><text x="21" y="15" style="color:#333333;font-size:12px;font-weight:normal;cursor:pointer;fill:#333333;" text-anchor="start" data-z-index="2"><tspan>Nettoschulden pro Kopf (rechte Skala)</tspan></text></g></g></g></g><g class="highcharts-axis-labels highcharts-xaxis-labels " data-z-index="7"><text x="43.79411764706" style="color:#000000;cursor:default;font-size:11px;fill:#000000;" text-anchor="middle" transform="translate(0,0)" y="370" opacity="1">2000</text><text x="85.950980392158" style="color:#000000;cursor:default;font-size:11px;fill:#000000;" text-anchor="middle" transform="translate(0,0)" y="370" opacity="1">2002</text><text x="128.10784313726" style="color:#000000;cursor:default;font-size:11px;fill:#000000;" text-anchor="middle" transform="translate(0,0)" y="370" opacity="1">2004</text><text x="170.26470588235" style="color:#000000;cursor:default;font-size:11px;fill:#000000;" text-anchor="middle" transform="translate(0,0)" y="370" opacity="1">2006</text><text x="212.42156862745" style="color:#000000;cursor:default;font-size:11px;fill:#000000;" text-anchor="middle" transform="translate(0,0)" y="370" opacity="1">2008</text><text x="254.57843137255" style="color:#000000;cursor:default;font-size:11px;fill:#000000;" text-anchor="middle" transform="translate(0,0)" y="370" opacity="1">2010</text><text x="296.73529411765" style="color:#000000;cursor:default;font-size:11px;fill:#000000;" text-anchor="middle" transform="translate(0,0)" y="370" opacity="1">2012</text><text x="338.89215686274" style="color:#000000;cursor:default;font-size:11px;fill:#000000;" text-anchor="middle" transform="translate(0,0)" y="370" opacity="1">2014</text><text x="381.04901960784" style="color:#000000;cursor:default;font-size:11px;fill:#000000;" text-anchor="middle" transform="translate(0,0)" y="370" opacity="1">2016</text><text x="423.20588235294" style="color:#000000;cursor:default;font-size:11px;fill:#000000;" text-anchor="middle" transform="translate(0,0)" y="370" opacity="1">2018</text></g><g class="highcharts-axis-labels highcharts-yaxis-labels " data-z-index="7"><text x="25" style="color:#000000;cursor:default;font-size:11px;fill:#000000;" text-anchor="end" transform="translate(0,0)" y="355" opacity="1">0</text><text x="25" style="color:#000000;cursor:default;font-size:11px;fill:#000000;" text-anchor="end" transform="translate(0,0)" y="292" opacity="1">2.5</text><text x="25" style="color:#000000;cursor:default;font-size:11px;fill:#000000;" text-anchor="end" transform="translate(0,0)" y="229" opacity="1">5</text><text x="25" style="color:#000000;cursor:default;font-size:11px;fill:#000000;" text-anchor="end" transform="translate(0,0)" y="166" opacity="1">7.5</text><text x="25" style="color:#000000;cursor:default;font-size:11px;fill:#000000;" text-anchor="end" transform="translate(0,0)" y="103" opacity="1">10</text></g><g class="highcharts-axis-labels highcharts-yaxis-labels " data-z-index="7"><text x="442" style="color:#000000;cursor:default;font-size:11px;fill:#000000;" text-anchor="start" transform="translate(0,0)" y="355" opacity="1">0</text><text x="442" style="color:#000000;cursor:default;font-size:11px;fill:#000000;" text-anchor="start" transform="translate(0,0)" y="292" opacity="1"><tspan>6 000</tspan></text><text x="442" style="color:#000000;cursor:default;font-size:11px;fill:#000000;" text-anchor="start" transform="translate(0,0)" y="229" opacity="1"><tspan>12 000</tspan></text><text x="442" style="color:#000000;cursor:default;font-size:11px;fill:#000000;" text-anchor="start" transform="translate(0,0)" y="166" opacity="1"><tspan>18 000</tspan></text><text x="442" style="color:#000000;cursor:default;font-size:11px;fill:#000000;" text-anchor="start" transform="translate(0,0)" y="103" opacity="1"><tspan>24 000</tspan></text></g><text x="10" class="highcharts-credits" text-anchor="start" data-z-index="8" style="cursor:default;color:#000000;font-size:10px;fill:#000000;" y="403"><tspan>Quelle: Jahresbericht des Kantons Basel-Stadt.</tspan><tspan x="10" dy="13">Zuletzt geändert: 2020-2-11</tspan></text></svg>