<?xml version="1.0" standalone="no"?><!DOCTYPE svg PUBLIC "-//W3C//DTD SVG 1.1//EN" "http://www.w3.org/Graphics/SVG/1.1/DTD/svg11.dtd"><svg xmlns:xlink="http://www.w3.org/1999/xlink" version="1.1" class="highcharts-root" style="font-family:Arial;font-size:12px;" xmlns="http://www.w3.org/2000/svg" viewBox="0 0 485 415"><desc>Created with Highstock 6.1.1</desc><defs><clipPath id="highcharts-2prho5p-8"><rect x="0" y="0" width="374" height="175" fill="none"></rect></clipPath><clipPath id="highcharts-2prho5p-9"><rect x="0" y="0" width="374" height="175" fill="none"></rect></clipPath><clipPath id="highcharts-2prho5p-10"><rect x="0" y="0" width="374" height="175" fill="none"></rect></clipPath></defs><rect fill="#fbfbfb" class="highcharts-background" x="0" y="0" width="485" height="428" rx="0" ry="0"></rect><rect fill="none" class="highcharts-plot-background" x="52" y="192" width="374" height="175"></rect><g class="highcharts-pane-group" data-z-index="0"></g><g class="highcharts-grid highcharts-xaxis-grid " data-z-index="1"><path fill="none" data-z-index="1" class="highcharts-grid-line" d="M 77.5 192 L 77.5 367" opacity="1"></path><path fill="none" data-z-index="1" class="highcharts-grid-line" d="M 123.5 192 L 123.5 367" opacity="1"></path><path fill="none" data-z-index="1" class="highcharts-grid-line" d="M 169.5 192 L 169.5 367" opacity="1"></path><path fill="none" data-z-index="1" class="highcharts-grid-line" d="M 215.5 192 L 215.5 367" opacity="1"></path><path fill="none" data-z-index="1" class="highcharts-grid-line" d="M 261.5 192 L 261.5 367" opacity="1"></path><path fill="none" data-z-index="1" class="highcharts-grid-line" d="M 307.5 192 L 307.5 367" opacity="1"></path><path fill="none" data-z-index="1" class="highcharts-grid-line" d="M 353.5 192 L 353.5 367" opacity="1"></path><path fill="none" data-z-index="1" class="highcharts-grid-line" d="M 399.5 192 L 399.5 367" opacity="1"></path></g><g class="highcharts-grid highcharts-yaxis-grid " data-z-index="1"><path fill="none" stroke="#e6e6e6" stroke-width="1" data-z-index="1" class="highcharts-grid-line" d="M 52 367.5 L 426 367.5" opacity="1"></path><path fill="none" stroke="#e6e6e6" stroke-width="1" data-z-index="1" class="highcharts-grid-line" d="M 52 309.5 L 426 309.5" opacity="1"></path><path fill="none" stroke="#e6e6e6" stroke-width="1" data-z-index="1" class="highcharts-grid-line" d="M 52 250.5 L 426 250.5" opacity="1"></path><path fill="none" stroke="#e6e6e6" stroke-width="1" data-z-index="1" class="highcharts-grid-line" d="M 52 191.5 L 426 191.5" opacity="1"></path></g><g class="highcharts-grid highcharts-yaxis-grid " data-z-index="1"><path fill="none" data-z-index="1" class="highcharts-grid-line" d="M 52 367.5 L 426 367.5" opacity="1"></path><path fill="none" data-z-index="1" class="highcharts-grid-line" d="M 52 309.5 L 426 309.5" opacity="1"></path><path fill="none" data-z-index="1" class="highcharts-grid-line" d="M 52 250.5 L 426 250.5" opacity="1"></path><path fill="none" data-z-index="1" class="highcharts-grid-line" d="M 52 192.5 L 426 192.5" opacity="1"></path></g><rect fill="none" class="highcharts-plot-border" data-z-index="1" x="52" y="192" width="374" height="175"></rect><g class="highcharts-axis highcharts-xaxis " data-z-index="2"><path fill="none" class="highcharts-axis-line" stroke="#B9CFD7" stroke-width="0.5" data-z-index="7" d="M 52 367.25 L 426 367.25"></path></g><g class="highcharts-axis highcharts-yaxis " data-z-index="2"><path fill="none" class="highcharts-axis-line" data-z-index="7" d="M 52 192 L 52 367"></path></g><g class="highcharts-axis highcharts-yaxis " data-z-index="2"><path fill="none" class="highcharts-axis-line" data-z-index="7" d="M 426 192 L 426 367"></path></g><g class="highcharts-series-group" data-z-index="3"><g data-z-index="0.1" class="highcharts-series highcharts-series-0 highcharts-column-series " transform="translate(52,192) scale(1 1)" clip-path="url(#highcharts-2prho5p-9)"><rect x="15" y="41" width="23" height="135" fill="#E6E6E6" class="highcharts-point"></rect><rect x="61" y="57" width="23" height="119" fill="#E6E6E6" class="highcharts-point"></rect><rect x="107" y="49" width="23" height="127" fill="#E6E6E6" class="highcharts-point"></rect><rect x="153" y="48" width="23" height="128" fill="#E6E6E6" class="highcharts-point"></rect><rect x="199" y="40" width="23" height="136" fill="#E6E6E6" class="highcharts-point"></rect><rect x="245" y="40" width="23" height="136" fill="#E6E6E6" class="highcharts-point"></rect><rect x="291" y="36" width="23" height="140" fill="#E6E6E6" class="highcharts-point"></rect><rect x="337" y="29" width="23" height="147" fill="#E6E6E6" class="highcharts-point"></rect></g><g data-z-index="0.1" class="highcharts-markers highcharts-series-0 highcharts-column-series " transform="translate(52,192) scale(1 1)" clip-path="none"></g><g data-z-index="0.1" class="highcharts-series highcharts-series-1 highcharts-line-series " transform="translate(52,192) scale(1 1)" clip-path="url(#highcharts-2prho5p-10)"><path fill="none" d="M 26.189189189187 147.8328312839591 L 72.135135135133 147.45146059226062 L 118.08108108108 149.05384170053338 L 164.02702702703 147.49552655769088 L 209.97297297297 147.8746291292264 L 255.91891891892 141.20038220950335 L 301.86486486487 142.9418339271506 L 347.81081081081 145.38613390200317" class="highcharts-graph" data-z-index="1" stroke="#cd9c00" stroke-width="2" stroke-linejoin="round" stroke-linecap="round"></path></g><g data-z-index="0.1" class="highcharts-markers highcharts-series-1 highcharts-line-series " transform="translate(52,192) scale(1 1)" clip-path="none"></g><g data-z-index="0.1" class="highcharts-series highcharts-series-2 highcharts-line-series " transform="translate(52,192) scale(1 1)" clip-path="url(#highcharts-2prho5p-10)"><path fill="none" d="M 26.189189189187 170.33242159772138 L 72.135135135133 166.30563173951484 L 118.08108108108 160.80482303904944 L 164.02702702703 171.50041301221506 L 209.97297297297 173.28150287660824 L 255.91891891892 173.33762495663316 L 301.86486486487 172.6605103736404 L 347.81081081081 163.36884766115196" class="highcharts-graph" data-z-index="1" stroke="#ff8028" stroke-width="2" stroke-linejoin="round" stroke-linecap="round"></path></g><g data-z-index="0.1" class="highcharts-markers highcharts-series-2 highcharts-line-series " transform="translate(52,192) scale(1 1)" clip-path="none"></g><g data-z-index="0.1" class="highcharts-series highcharts-series-3 highcharts-line-series " transform="translate(52,192) scale(1 1)" clip-path="url(#highcharts-2prho5p-10)"><path fill="none" d="M 26.189189189187 163.03019588223606 L 72.135135135133 165.6784055031582 L 118.08108108108 165.38094156788264 L 164.02702702703 165.25239233234217 L 209.97297297297 166.19032840737682 L 255.91891891892 166.44519263270095 L 301.86486486487 166.84206482834676 L 347.81081081081 165.98487581164576" class="highcharts-graph" data-z-index="1" stroke="#b00000" stroke-width="2" stroke-linejoin="round" stroke-linecap="round"></path></g><g data-z-index="0.1" class="highcharts-markers highcharts-series-3 highcharts-line-series " transform="translate(52,192) scale(1 1)" clip-path="none"></g><g data-z-index="0.1" class="highcharts-series highcharts-series-4 highcharts-line-series " transform="translate(52,192) scale(1 1)" clip-path="url(#highcharts-2prho5p-10)"><path fill="none" d="M 26.189189189187 159.45069663621814 L 72.135135135133 161.96981118855015 L 118.08108108108 162.3207613754211 L 164.02702702703 162.21535046182987 L 209.97297297297 157.0614235758984 L 255.91891891892 143.9620953957626 L 301.86486486487 149.97159337052045 L 347.81081081081 146.99650051061968" class="highcharts-graph" data-z-index="1" stroke="#672773" stroke-width="2" stroke-linejoin="round" stroke-linecap="round"></path></g><g data-z-index="0.1" class="highcharts-markers highcharts-series-4 highcharts-line-series " transform="translate(52,192) scale(1 1)" clip-path="none"></g><g data-z-index="0.1" class="highcharts-series highcharts-series-5 highcharts-line-series " transform="translate(52,192) scale(1 1)" clip-path="url(#highcharts-2prho5p-10)"><path fill="none" d="M 26.189189189187 101.26054761764239 L 72.135135135133 96.54745528712336 L 118.08108108108 94.64027569787194 L 164.02702702703 90.75909783139441 L 209.97297297297 85.81222117799061 L 255.91891891892 85.49841769622591 L 301.86486486487 79.49847250867394 L 347.81081081081 86.39488453537142" class="highcharts-graph" data-z-index="1" stroke="#007a2f" stroke-width="2" stroke-linejoin="round" stroke-linecap="round"></path></g><g data-z-index="0.1" class="highcharts-markers highcharts-series-5 highcharts-line-series " transform="translate(52,192) scale(1 1)" clip-path="none"></g><g data-z-index="0.1" class="highcharts-series highcharts-series-6 highcharts-line-series " transform="translate(52,192) scale(1 1)" clip-path="url(#highcharts-2prho5p-10)"><path fill="none" d="M 26.189189189187 114.34826901268283 L 72.135135135133 108.91948823949453 L 118.08108108108 110.83542807237191 L 164.02702702703 109.29590218903378 L 209.97297297297 85.78597233375262 L 255.91891891892 114.54925839897439 L 301.86486486487 114.76750522238439 L 347.81081081081 114.8304514652824" class="highcharts-graph" data-z-index="1" stroke="#44ab2b" stroke-width="2" stroke-linejoin="round" stroke-linecap="round"></path></g><g data-z-index="0.1" class="highcharts-markers highcharts-series-6 highcharts-line-series " transform="translate(52,192) scale(1 1)" clip-path="none"></g><g data-z-index="0.1" class="highcharts-series highcharts-series-7 highcharts-line-series " transform="translate(52,192) scale(1 1)" clip-path="url(#highcharts-2prho5p-10)"><path fill="none" d="M 26.189189189187 149.65589059857916 L 72.135135135133 152.24234847804888 L 118.08108108108 151.58309677139377 L 164.02702702703 150.52017261099564 L 209.97297297297 148.29696018194517 L 255.91891891892 149.8569098953189 L 301.86486486487 146.65252663652674 L 347.81081081081 142.33807038526464" class="highcharts-graph" data-z-index="1" stroke="#b475ab" stroke-width="2" stroke-linejoin="round" stroke-linecap="round"></path></g><g data-z-index="0.1" class="highcharts-markers highcharts-series-7 highcharts-line-series " transform="translate(52,192) scale(1 1)" clip-path="none"></g><g data-z-index="0.1" class="highcharts-series highcharts-series-8 highcharts-line-series " transform="translate(52,192) scale(1 1)" clip-path="url(#highcharts-2prho5p-10)"><path fill="none" d="M 26.189189189187 60.820546159386794 L 72.135135135133 57.24739057291721 L 118.08108108108 55.04138724780228 L 164.02702702703 51.85943897231202 L 209.97297297297 41.96460850565063 L 255.91891891892 37.573583194712256 L 301.86486486487 30.38434623233624 L 347.81081081081 23.27651231728433" class="highcharts-graph" data-z-index="1" stroke="#ffbb58" stroke-width="2" stroke-linejoin="round" stroke-linecap="round"></path></g><g data-z-index="0.1" class="highcharts-markers highcharts-series-8 highcharts-line-series " transform="translate(52,192) scale(1 1)" clip-path="none"></g><g data-z-index="0.1" class="highcharts-series highcharts-series-9 highcharts-line-series " transform="translate(52,192) scale(1 1)" clip-path="url(#highcharts-2prho5p-10)"><path fill="none" d="M 26.189189189187 138.66507108065656 L 72.135135135133 140.7427927214651 L 118.08108108108 139.88578290827175 L 164.02702702703 138.15036951534194 L 209.97297297297 136.17658719469563 L 255.91891891892 133.1356600139403 L 301.86486486487 132.7228331889145 L 347.81081081081 132.59440145034748" class="highcharts-graph" data-z-index="1" stroke="#a8c4cb" stroke-width="2" stroke-linejoin="round" stroke-linecap="round"></path></g><g data-z-index="0.1" class="highcharts-markers highcharts-series-9 highcharts-line-series " transform="translate(52,192) scale(1 1)" clip-path="none"></g><g data-z-index="0.1" class="highcharts-series highcharts-series-10 highcharts-line-series " transform="translate(52,192) scale(1 1)" clip-path="url(#highcharts-2prho5p-10)"><path fill="none" d="M 26.189189189187 93.01664198793632 L 72.135135135133 155.13135148930533 L 118.08108108108 135.9794426514506 L 164.02702702703 137.89217980253062 L 209.97297297297 153.0278646569089 L 255.91891891892 150.15104515199988 L 301.86486486487 146.66955468253298 L 347.81081081081 139.86458293676984" class="highcharts-graph" data-z-index="1" stroke="#256370" stroke-width="2" stroke-linejoin="round" stroke-linecap="round"></path></g><g data-z-index="0.1" class="highcharts-markers highcharts-series-10 highcharts-line-series " transform="translate(52,192) scale(1 1)" clip-path="none"></g></g><text x="10" text-anchor="start" class="highcharts-title" data-z-index="4" style="color:#000000;font-size:14px;font-weight:bold;fill:#000000;" y="21"><tspan>Entwicklung der Staatsausgaben nach Funktion</tspan></text><text x="10" text-anchor="start" class="highcharts-subtitle" data-z-index="4" style="color:#000000;font-size:12px;font-weight:normal;font-family:Arial;fill:#000000;" y="40"><tspan>pro Kopf in Franken</tspan></text><g class="highcharts-legend" data-z-index="7" transform="translate(44,55)"><rect fill="none" class="highcharts-legend-box" rx="0" ry="0" x="0" y="0" width="396" height="125" visibility="visible"></rect><g data-z-index="1"><g><g class="highcharts-legend-item highcharts-line-series highcharts-color-undefined highcharts-series-1" data-z-index="1" transform="translate(8,3)"><path fill="none" d="M 0 11 L 16 11" class="highcharts-graph" stroke="#cd9c00" stroke-width="2"></path><text x="21" style="color:#333333;font-size:12px;font-weight:normal;cursor:pointer;fill:#333333;" text-anchor="start" data-z-index="2" y="15"><tspan>Finanzen, Steuern</tspan></text></g><g class="highcharts-legend-item highcharts-line-series highcharts-color-undefined highcharts-series-2" data-z-index="1" transform="translate(208,3)"><path fill="none" d="M 0 11 L 16 11" class="highcharts-graph" stroke="#ff8028" stroke-width="2"></path><text x="21" y="15" style="color:#333333;font-size:12px;font-weight:normal;cursor:pointer;fill:#333333;" text-anchor="start" data-z-index="2"><tspan>Volkswirtschaft</tspan></text></g><g class="highcharts-legend-item highcharts-line-series highcharts-color-undefined highcharts-series-3" data-z-index="1" transform="translate(8,22)"><path fill="none" d="M 0 11 L 16 11" class="highcharts-graph" stroke="#b00000" stroke-width="2"></path><text x="21" y="15" style="color:#333333;font-size:12px;font-weight:normal;cursor:pointer;fill:#333333;" text-anchor="start" data-z-index="2"><tspan>Umweltschutz</tspan></text></g><g class="highcharts-legend-item highcharts-line-series highcharts-color-undefined highcharts-series-4" data-z-index="1" transform="translate(208,22)"><path fill="none" d="M 0 11 L 16 11" class="highcharts-graph" stroke="#672773" stroke-width="2"></path><text x="21" y="15" style="color:#333333;font-size:12px;font-weight:normal;cursor:pointer;fill:#333333;" text-anchor="start" data-z-index="2"><tspan>Verkehr</tspan></text></g><g class="highcharts-legend-item highcharts-line-series highcharts-color-undefined highcharts-series-5" data-z-index="1" transform="translate(8,41)"><path fill="none" d="M 0 11 L 16 11" class="highcharts-graph" stroke="#007a2f" stroke-width="2"></path><text x="21" y="15" style="color:#333333;font-size:12px;font-weight:normal;cursor:pointer;fill:#333333;" text-anchor="start" data-z-index="2"><tspan>Soziale Sicherheit</tspan></text></g><g class="highcharts-legend-item highcharts-line-series highcharts-color-undefined highcharts-series-6" data-z-index="1" transform="translate(208,41)"><path fill="none" d="M 0 11 L 16 11" class="highcharts-graph" stroke="#44ab2b" stroke-width="2"></path><text x="21" y="15" style="color:#333333;font-size:12px;font-weight:normal;cursor:pointer;fill:#333333;" text-anchor="start" data-z-index="2"><tspan>Gesundheit</tspan></text></g><g class="highcharts-legend-item highcharts-line-series highcharts-color-undefined highcharts-series-7" data-z-index="1" transform="translate(8,60)"><path fill="none" d="M 0 11 L 16 11" class="highcharts-graph" stroke="#b475ab" stroke-width="2"></path><text x="21" y="15" style="color:#333333;font-size:12px;font-weight:normal;cursor:pointer;fill:#333333;" text-anchor="start" data-z-index="2"><tspan>Kultur und Sport</tspan></text></g><g class="highcharts-legend-item highcharts-line-series highcharts-color-undefined highcharts-series-8" data-z-index="1" transform="translate(208,60)"><path fill="none" d="M 0 11 L 16 11" class="highcharts-graph" stroke="#ffbb58" stroke-width="2"></path><text x="21" y="15" style="color:#333333;font-size:12px;font-weight:normal;cursor:pointer;fill:#333333;" text-anchor="start" data-z-index="2"><tspan>Bildung</tspan></text></g><g class="highcharts-legend-item highcharts-line-series highcharts-color-undefined highcharts-series-9" data-z-index="1" transform="translate(8,79)"><path fill="none" d="M 0 11 L 16 11" class="highcharts-graph" stroke="#a8c4cb" stroke-width="2"></path><text x="21" y="15" style="color:#333333;font-size:12px;font-weight:normal;cursor:pointer;fill:#333333;" text-anchor="start" data-z-index="2"><tspan>Öff. Sicherheit</tspan></text></g><g class="highcharts-legend-item highcharts-line-series highcharts-color-undefined highcharts-series-10" data-z-index="1" transform="translate(208,79)"><path fill="none" d="M 0 11 L 16 11" class="highcharts-graph" stroke="#256370" stroke-width="2"></path><text x="21" y="15" style="color:#333333;font-size:12px;font-weight:normal;cursor:pointer;fill:#333333;" text-anchor="start" data-z-index="2"><tspan>Allg. Verwaltung</tspan></text></g><g class="highcharts-legend-item highcharts-column-series highcharts-color-undefined highcharts-series-0" data-z-index="1" transform="translate(8,98)"><text x="21" y="15" style="color:#333333;font-size:12px;font-weight:normal;cursor:pointer;fill:#333333;" text-anchor="start" data-z-index="2"><tspan>Total (rechte Skala)</tspan></text><rect x="2" y="4" width="12" height="12" fill="#E6E6E6" class="highcharts-point" data-z-index="3"></rect></g></g></g></g><g class="highcharts-axis-labels highcharts-xaxis-labels " data-z-index="7"><text x="78.189189189187" style="color:#000000;cursor:default;font-size:11px;fill:#000000;" text-anchor="middle" transform="translate(0,0)" y="386" opacity="1">2008</text><text x="124.13513513513" style="color:#000000;cursor:default;font-size:11px;fill:#000000;" text-anchor="middle" transform="translate(0,0)" y="386" opacity="1">2009</text><text x="170.08108108108" style="color:#000000;cursor:default;font-size:11px;fill:#000000;" text-anchor="middle" transform="translate(0,0)" y="386" opacity="1">2010</text><text x="216.02702702703" style="color:#000000;cursor:default;font-size:11px;fill:#000000;" text-anchor="middle" transform="translate(0,0)" y="386" opacity="1">2011</text><text x="261.97297297297" style="color:#000000;cursor:default;font-size:11px;fill:#000000;" text-anchor="middle" transform="translate(0,0)" y="386" opacity="1">2012</text><text x="307.91891891892" style="color:#000000;cursor:default;font-size:11px;fill:#000000;" text-anchor="middle" transform="translate(0,0)" y="386" opacity="1">2013</text><text x="353.86486486487" style="color:#000000;cursor:default;font-size:11px;fill:#000000;" text-anchor="middle" transform="translate(0,0)" y="386" opacity="1">2014</text><text x="399.81081081081" style="color:#000000;cursor:default;font-size:11px;fill:#000000;" text-anchor="middle" transform="translate(0,0)" y="386" opacity="1">2015</text></g><g class="highcharts-axis-labels highcharts-yaxis-labels " data-z-index="7"><text x="37" style="color:#000000;cursor:default;font-size:11px;fill:#000000;" text-anchor="end" transform="translate(0,0)" y="372" opacity="1">0</text><text x="37" style="color:#000000;cursor:default;font-size:11px;fill:#000000;" text-anchor="end" transform="translate(0,0)" y="313" opacity="1"><tspan>3 000</tspan></text><text x="37" style="color:#000000;cursor:default;font-size:11px;fill:#000000;" text-anchor="end" transform="translate(0,0)" y="255" opacity="1"><tspan>6 000</tspan></text><text x="37" style="color:#000000;cursor:default;font-size:11px;fill:#000000;" text-anchor="end" transform="translate(0,0)" y="197" opacity="1"><tspan>9 000</tspan></text></g><g class="highcharts-axis-labels highcharts-yaxis-labels " data-z-index="7"><text x="441" style="color:#000000;cursor:default;font-size:11px;fill:#000000;" text-anchor="start" transform="translate(0,0)" y="372" opacity="1">0</text><text x="441" style="color:#000000;cursor:default;font-size:11px;fill:#000000;" text-anchor="start" transform="translate(0,0)" y="313" opacity="1"><tspan>10 000</tspan></text><text x="441" style="color:#000000;cursor:default;font-size:11px;fill:#000000;" text-anchor="start" transform="translate(0,0)" y="255" opacity="1"><tspan>20 000</tspan></text><text x="441" style="color:#000000;cursor:default;font-size:11px;fill:#000000;" text-anchor="start" transform="translate(0,0)" y="197" opacity="1"><tspan>30 000</tspan></text></g><text x="10" class="highcharts-credits" text-anchor="start" data-z-index="8" style="cursor:default;color:#000000;font-size:10px;fill:#000000;" y="403"><tspan>Quelle: Eidgenössische Finanzverwaltung.</tspan><tspan x="10" dy="13">Zuletzt geändert: 2017-3-13</tspan></text></svg>