<?xml version="1.0" standalone="no"?><!DOCTYPE svg PUBLIC "-//W3C//DTD SVG 1.1//EN" "http://www.w3.org/Graphics/SVG/1.1/DTD/svg11.dtd"><svg xmlns:xlink="http://www.w3.org/1999/xlink" version="1.1" class="highcharts-root" style="font-family:Arial;font-size:12px;" xmlns="http://www.w3.org/2000/svg" viewBox="0 0 485 415"><desc>Created with Highstock 6.1.1</desc><defs><clipPath id="highcharts-p1xwp32-6"><rect x="0" y="0" width="428" height="164" fill="none"></rect></clipPath><clipPath id="highcharts-p1xwp32-7"><rect x="0" y="0" width="428" height="164" fill="none"></rect></clipPath></defs><rect fill="#fbfbfb" class="highcharts-background" x="0" y="0" width="485" height="428" rx="0" ry="0"></rect><rect fill="none" class="highcharts-plot-background" x="47" y="179" width="428" height="164"></rect><g class="highcharts-pane-group" data-z-index="0"></g><g class="highcharts-grid highcharts-xaxis-grid " data-z-index="1"><path fill="none" data-z-index="1" class="highcharts-grid-line" d="M 65.5 179 L 65.5 343" opacity="1"></path><path fill="none" data-z-index="1" class="highcharts-grid-line" d="M 85.5 179 L 85.5 343" opacity="1"></path><path fill="none" data-z-index="1" class="highcharts-grid-line" d="M 104.5 179 L 104.5 343" opacity="1"></path><path fill="none" data-z-index="1" class="highcharts-grid-line" d="M 124.5 179 L 124.5 343" opacity="1"></path><path fill="none" data-z-index="1" class="highcharts-grid-line" d="M 143.5 179 L 143.5 343" opacity="1"></path><path fill="none" data-z-index="1" class="highcharts-grid-line" d="M 163.5 179 L 163.5 343" opacity="1"></path><path fill="none" data-z-index="1" class="highcharts-grid-line" d="M 182.5 179 L 182.5 343" opacity="1"></path><path fill="none" data-z-index="1" class="highcharts-grid-line" d="M 202.5 179 L 202.5 343" opacity="1"></path><path fill="none" data-z-index="1" class="highcharts-grid-line" d="M 221.5 179 L 221.5 343" opacity="1"></path><path fill="none" data-z-index="1" class="highcharts-grid-line" d="M 241.5 179 L 241.5 343" opacity="1"></path><path fill="none" data-z-index="1" class="highcharts-grid-line" d="M 260.5 179 L 260.5 343" opacity="1"></path><path fill="none" data-z-index="1" class="highcharts-grid-line" d="M 279.5 179 L 279.5 343" opacity="1"></path><path fill="none" data-z-index="1" class="highcharts-grid-line" d="M 299.5 179 L 299.5 343" opacity="1"></path><path fill="none" data-z-index="1" class="highcharts-grid-line" d="M 318.5 179 L 318.5 343" opacity="1"></path><path fill="none" data-z-index="1" class="highcharts-grid-line" d="M 338.5 179 L 338.5 343" opacity="1"></path><path fill="none" data-z-index="1" class="highcharts-grid-line" d="M 357.5 179 L 357.5 343" opacity="1"></path><path fill="none" data-z-index="1" class="highcharts-grid-line" d="M 377.5 179 L 377.5 343" opacity="1"></path><path fill="none" data-z-index="1" class="highcharts-grid-line" d="M 396.5 179 L 396.5 343" opacity="1"></path><path fill="none" data-z-index="1" class="highcharts-grid-line" d="M 416.5 179 L 416.5 343" opacity="1"></path><path fill="none" data-z-index="1" class="highcharts-grid-line" d="M 435.5 179 L 435.5 343" opacity="1"></path><path fill="none" data-z-index="1" class="highcharts-grid-line" d="M 455.5 179 L 455.5 343" opacity="1"></path><path fill="none" data-z-index="1" class="highcharts-grid-line" d="M 474.5 179 L 474.5 343" opacity="1"></path><path fill="none" data-z-index="1" class="highcharts-grid-line" d="M 46.5 179 L 46.5 343" opacity="1"></path></g><g class="highcharts-grid highcharts-yaxis-grid " data-z-index="1"><path fill="none" stroke="#B9CFD7" stroke-width="0.5" data-z-index="1" class="highcharts-grid-line" d="M 47 343.25 L 475 343.25" opacity="1"></path><path fill="none" stroke="#B9CFD7" stroke-width="0.5" data-z-index="1" class="highcharts-grid-line" d="M 47 310.25 L 475 310.25" opacity="1"></path><path fill="none" stroke="#B9CFD7" stroke-width="0.5" data-z-index="1" class="highcharts-grid-line" d="M 47 277.25 L 475 277.25" opacity="1"></path><path fill="none" stroke="#B9CFD7" stroke-width="0.5" data-z-index="1" class="highcharts-grid-line" d="M 47 245.25 L 475 245.25" opacity="1"></path><path fill="none" stroke="#B9CFD7" stroke-width="0.5" data-z-index="1" class="highcharts-grid-line" d="M 47 212.25 L 475 212.25" opacity="1"></path><path fill="none" stroke="#B9CFD7" stroke-width="0.5" data-z-index="1" class="highcharts-grid-line" d="M 47 178.75 L 475 178.75" opacity="1"></path></g><rect fill="none" class="highcharts-plot-border" data-z-index="1" x="47" y="179" width="428" height="164"></rect><g class="highcharts-axis highcharts-xaxis " data-z-index="2"><path fill="none" class="highcharts-axis-line" stroke="#B9CFD7" stroke-width="0.5" data-z-index="7" d="M 47 343.25 L 475 343.25"></path></g><g class="highcharts-axis highcharts-yaxis " data-z-index="2"><path fill="none" class="highcharts-axis-line" data-z-index="7" d="M 47 179 L 47 343"></path></g><g class="highcharts-series-group" data-z-index="3"><g data-z-index="0.1" class="highcharts-series highcharts-series-0 highcharts-scatter-series " transform="translate(47,179) scale(1 1)" clip-path="url(#highcharts-p1xwp32-7)"></g><g data-z-index="0.1" class="highcharts-markers highcharts-series-0 highcharts-scatter-series " transform="translate(47,179) scale(1 1)" clip-path="none"></g><g data-z-index="0.1" class="highcharts-series highcharts-series-1 highcharts-scatter-series " transform="translate(47,179) scale(1 1)" clip-path="url(#highcharts-p1xwp32-7)"></g><g data-z-index="0.1" class="highcharts-markers highcharts-series-1 highcharts-scatter-series " transform="translate(47,179) scale(1 1)" clip-path="none"></g><g data-z-index="0.1" class="highcharts-series highcharts-series-2 highcharts-scatter-series " visibility="hidden" transform="translate(47,179) scale(1 1)" clip-path="url(#highcharts-p1xwp32-7)"></g><g data-z-index="0.1" class="highcharts-markers highcharts-series-2 highcharts-scatter-series " visibility="hidden" transform="translate(47,179) scale(1 1)" clip-path="none"></g><g data-z-index="0.1" class="highcharts-series highcharts-series-3 highcharts-scatter-series " visibility="hidden" transform="translate(47,179) scale(1 1)" clip-path="url(#highcharts-p1xwp32-7)"></g><g data-z-index="0.1" class="highcharts-markers highcharts-series-3 highcharts-scatter-series " visibility="hidden" transform="translate(47,179) scale(1 1)" clip-path="none"></g><g data-z-index="0.1" class="highcharts-series highcharts-series-4 highcharts-scatter-series " visibility="hidden" transform="translate(47,179) scale(1 1)" clip-path="url(#highcharts-p1xwp32-7)"></g><g data-z-index="0.1" class="highcharts-markers highcharts-series-4 highcharts-scatter-series " visibility="hidden" transform="translate(47,179) scale(1 1)" clip-path="none"></g><g data-z-index="0.1" class="highcharts-series highcharts-series-5 highcharts-scatter-series " visibility="hidden" transform="translate(47,179) scale(1 1)" clip-path="url(#highcharts-p1xwp32-7)"></g><g data-z-index="0.1" class="highcharts-markers highcharts-series-5 highcharts-scatter-series " visibility="hidden" transform="translate(47,179) scale(1 1)" clip-path="none"></g><g data-z-index="0.1" class="highcharts-series highcharts-series-6 highcharts-scatter-series " transform="translate(47,179) scale(1 1)" clip-path="url(#highcharts-p1xwp32-7)"></g><g data-z-index="0.1" class="highcharts-markers highcharts-series-6 highcharts-scatter-series " transform="translate(47,179) scale(1 1)" clip-path="none"><path fill="#68AB2B" d="M 9 130 L 13 134 9 138 5 134 Z" class="highcharts-point"></path><path fill="#68AB2B" d="M 48 124 L 52 128 48 132 44 128 Z" class="highcharts-point"></path><path fill="#68AB2B" d="M 87 108 L 91 112 87 116 83 112 Z" class="highcharts-point"></path><path fill="#68AB2B" d="M 107 94 L 111 98 107 102 103 98 Z" class="highcharts-point"></path><path fill="#68AB2B" d="M 126 98 L 130 102 126 106 122 102 Z" class="highcharts-point"></path><path fill="#68AB2B" d="M 145 101 L 149 105 145 109 141 105 Z" class="highcharts-point"></path><path fill="#68AB2B" d="M 165 94 L 169 98 165 102 161 98 Z" class="highcharts-point"></path><path fill="#68AB2B" d="M 184 88 L 188 92 184 96 180 92 Z" class="highcharts-point"></path><path fill="#68AB2B" d="M 204 88 L 208 92 204 96 200 92 Z" class="highcharts-point"></path><path fill="#68AB2B" d="M 223 111 L 227 115 223 119 219 115 Z" class="highcharts-point"></path><path fill="#68AB2B" d="M 243 101 L 247 105 243 109 239 105 Z" class="highcharts-point"></path><path fill="#68AB2B" d="M 262 108 L 266 112 262 116 258 112 Z" class="highcharts-point"></path><path fill="#68AB2B" d="M 282 94 L 286 98 282 102 278 98 Z" class="highcharts-point"></path><path fill="#68AB2B" d="M 301 98 L 305 102 301 106 297 102 Z" class="highcharts-point"></path><path fill="#68AB2B" d="M 321 98 L 325 102 321 106 317 102 Z" class="highcharts-point"></path><path fill="#68AB2B" d="M 340 91 L 344 95 340 99 336 95 Z" class="highcharts-point"></path><path fill="#68AB2B" d="M 359 91 L 363 95 359 99 355 95 Z" class="highcharts-point"></path><path fill="#68AB2B" d="M 379 101 L 383 105 379 109 375 105 Z" class="highcharts-point"></path><path fill="#68AB2B" d="M 398 94 L 402 98 398 102 394 98 Z" class="highcharts-point"></path><path fill="#68AB2B" d="M 418 101 L 422 105 418 109 414 105 Z" class="highcharts-point"></path></g><g data-z-index="0.1" class="highcharts-series highcharts-series-7 highcharts-scatter-series " transform="translate(47,179) scale(1 1)" clip-path="url(#highcharts-p1xwp32-7)"></g><g data-z-index="0.1" class="highcharts-markers highcharts-series-7 highcharts-scatter-series " transform="translate(47,179) scale(1 1)" clip-path="none"><path fill="#68AB2B" d="M 13 134 A 4 4 0 1 1 12.999998000000167 133.99600000066667 Z" class="highcharts-point"></path><path fill="#68AB2B" d="M 52 131 A 4 4 0 1 1 51.99999800000017 130.99600000066667 Z" class="highcharts-point"></path><path fill="#68AB2B" d="M 91 89 A 4 4 0 1 1 90.99999800000016 88.99600000066667 Z" class="highcharts-point"></path><path fill="#68AB2B" d="M 111 95 A 4 4 0 1 1 110.99999800000016 94.99600000066667 Z" class="highcharts-point"></path><path fill="#68AB2B" d="M 130 95 A 4 4 0 1 1 129.99999800000018 94.99600000066667 Z" class="highcharts-point"></path><path fill="#68AB2B" d="M 149 95 A 4 4 0 1 1 148.99999800000018 94.99600000066667 Z" class="highcharts-point"></path><path fill="#68AB2B" d="M 169 92 A 4 4 0 1 1 168.99999800000018 91.99600000066667 Z" class="highcharts-point"></path><path fill="#68AB2B" d="M 188 95 A 4 4 0 1 1 187.99999800000018 94.99600000066667 Z" class="highcharts-point"></path><path fill="#68AB2B" d="M 208 95 A 4 4 0 1 1 207.99999800000018 94.99600000066667 Z" class="highcharts-point"></path><path fill="#68AB2B" d="M 227 98 A 4 4 0 1 1 226.99999800000018 97.99600000066667 Z" class="highcharts-point"></path><path fill="#68AB2B" d="M 247 98 A 4 4 0 1 1 246.99999800000018 97.99600000066667 Z" class="highcharts-point"></path><path fill="#68AB2B" d="M 266 108 A 4 4 0 1 1 265.9999980000002 107.99600000066667 Z" class="highcharts-point"></path><path fill="#68AB2B" d="M 286 102 A 4 4 0 1 1 285.9999980000002 101.99600000066667 Z" class="highcharts-point"></path><path fill="#68AB2B" d="M 305 92 A 4 4 0 1 1 304.9999980000002 91.99600000066667 Z" class="highcharts-point"></path><path fill="#68AB2B" d="M 325 95 A 4 4 0 1 1 324.9999980000002 94.99600000066667 Z" class="highcharts-point"></path><path fill="#68AB2B" d="M 344 98 A 4 4 0 1 1 343.9999980000002 97.99600000066667 Z" class="highcharts-point"></path><path fill="#68AB2B" d="M 363 118 A 4 4 0 1 1 362.9999980000002 117.99600000066667 Z" class="highcharts-point"></path><path fill="#68AB2B" d="M 383 95 A 4 4 0 1 1 382.9999980000002 94.99600000066667 Z" class="highcharts-point"></path><path fill="#68AB2B" d="M 402 89 A 4 4 0 1 1 401.9999980000002 88.99600000066667 Z" class="highcharts-point"></path><path fill="#68AB2B" d="M 422 92 A 4 4 0 1 1 421.9999980000002 91.99600000066667 Z" class="highcharts-point"></path></g><g data-z-index="0.1" class="highcharts-series highcharts-series-8 highcharts-scatter-series " transform="translate(47,179) scale(1 1)" clip-path="url(#highcharts-p1xwp32-7)"></g><g data-z-index="0.1" class="highcharts-markers highcharts-series-8 highcharts-scatter-series " transform="translate(47,179) scale(1 1)" clip-path="none"><path fill="#B375AB" d="M 9 94 L 13 98 9 102 5 98 Z" class="highcharts-point"></path><path fill="#B375AB" d="M 48 91 L 52 95 48 99 44 95 Z" class="highcharts-point"></path><path fill="#B375AB" d="M 87 42 L 91 46 87 50 83 46 Z" class="highcharts-point"></path><path fill="#B375AB" d="M 107 52 L 111 56 107 60 103 56 Z" class="highcharts-point"></path><path fill="#B375AB" d="M 126 71 L 130 75 126 79 122 75 Z" class="highcharts-point"></path><path fill="#B375AB" d="M 145 55 L 149 59 145 63 141 59 Z" class="highcharts-point"></path><path fill="#B375AB" d="M 165 55 L 169 59 165 63 161 59 Z" class="highcharts-point"></path><path fill="#B375AB" d="M 184 42 L 188 46 184 50 180 46 Z" class="highcharts-point"></path><path fill="#B375AB" d="M 204 35 L 208 39 204 43 200 39 Z" class="highcharts-point"></path><path fill="#B375AB" d="M 223 48 L 227 52 223 56 219 52 Z" class="highcharts-point"></path><path fill="#B375AB" d="M 243 39 L 247 43 243 47 239 43 Z" class="highcharts-point"></path><path fill="#B375AB" d="M 262 58 L 266 62 262 66 258 62 Z" class="highcharts-point"></path><path fill="#B375AB" d="M 282 58 L 286 62 282 66 278 62 Z" class="highcharts-point"></path><path fill="#B375AB" d="M 301 52 L 305 56 301 60 297 56 Z" class="highcharts-point"></path><path fill="#B375AB" d="M 321 55 L 325 59 321 63 317 59 Z" class="highcharts-point"></path><path fill="#B375AB" d="M 340 52 L 344 56 340 60 336 56 Z" class="highcharts-point"></path><path fill="#B375AB" d="M 359 65 L 363 69 359 73 355 69 Z" class="highcharts-point"></path><path fill="#B375AB" d="M 379 58 L 383 62 379 66 375 62 Z" class="highcharts-point"></path><path fill="#B375AB" d="M 398 68 L 402 72 398 76 394 72 Z" class="highcharts-point"></path><path fill="#B375AB" d="M 418 65 L 422 69 418 73 414 69 Z" class="highcharts-point"></path></g><g data-z-index="0.1" class="highcharts-series highcharts-series-9 highcharts-scatter-series " transform="translate(47,179) scale(1 1)" clip-path="url(#highcharts-p1xwp32-7)"></g><g data-z-index="0.1" class="highcharts-markers highcharts-series-9 highcharts-scatter-series " transform="translate(47,179) scale(1 1)" clip-path="none"><path fill="#B375AB" d="M 13 102 A 4 4 0 1 1 12.999998000000167 101.99600000066667 Z" class="highcharts-point"></path><path fill="#B375AB" d="M 52 79 A 4 4 0 1 1 51.99999800000017 78.99600000066667 Z" class="highcharts-point"></path><path fill="#B375AB" d="M 91 66 A 4 4 0 1 1 90.99999800000016 65.99600000066667 Z" class="highcharts-point"></path><path fill="#B375AB" d="M 111 59 A 4 4 0 1 1 110.99999800000016 58.99600000066666 Z" class="highcharts-point"></path><path fill="#B375AB" d="M 130 49 A 4 4 0 1 1 129.99999800000018 48.99600000066666 Z" class="highcharts-point"></path><path fill="#B375AB" d="M 149 75 A 4 4 0 1 1 148.99999800000018 74.99600000066667 Z" class="highcharts-point"></path><path fill="#B375AB" d="M 169 66 A 4 4 0 1 1 168.99999800000018 65.99600000066667 Z" class="highcharts-point"></path><path fill="#B375AB" d="M 188 62 A 4 4 0 1 1 187.99999800000018 61.99600000066666 Z" class="highcharts-point"></path><path fill="#B375AB" d="M 208 72 A 4 4 0 1 1 207.99999800000018 71.99600000066667 Z" class="highcharts-point"></path><path fill="#B375AB" d="M 227 59 A 4 4 0 1 1 226.99999800000018 58.99600000066666 Z" class="highcharts-point"></path><path fill="#B375AB" d="M 247 46 A 4 4 0 1 1 246.99999800000018 45.99600000066666 Z" class="highcharts-point"></path><path fill="#B375AB" d="M 266 52 A 4 4 0 1 1 265.9999980000002 51.99600000066666 Z" class="highcharts-point"></path><path fill="#B375AB" d="M 286 72 A 4 4 0 1 1 285.9999980000002 71.99600000066667 Z" class="highcharts-point"></path><path fill="#B375AB" d="M 305 52 A 4 4 0 1 1 304.9999980000002 51.99600000066666 Z" class="highcharts-point"></path><path fill="#B375AB" d="M 325 85 A 4 4 0 1 1 324.9999980000002 84.99600000066667 Z" class="highcharts-point"></path><path fill="#B375AB" d="M 344 72 A 4 4 0 1 1 343.9999980000002 71.99600000066667 Z" class="highcharts-point"></path><path fill="#B375AB" d="M 363 82 A 4 4 0 1 1 362.9999980000002 81.99600000066667 Z" class="highcharts-point"></path><path fill="#B375AB" d="M 383 66 A 4 4 0 1 1 382.9999980000002 65.99600000066667 Z" class="highcharts-point"></path><path fill="#B375AB" d="M 402 69 A 4 4 0 1 1 401.9999980000002 68.99600000066667 Z" class="highcharts-point"></path><path fill="#B375AB" d="M 422 72 A 4 4 0 1 1 421.9999980000002 71.99600000066667 Z" class="highcharts-point"></path></g><g data-z-index="0.1" class="highcharts-series highcharts-series-10 highcharts-scatter-series " transform="translate(47,179) scale(1 1)" clip-path="url(#highcharts-p1xwp32-7)"></g><g data-z-index="0.1" class="highcharts-markers highcharts-series-10 highcharts-scatter-series " transform="translate(47,179) scale(1 1)" clip-path="none"><path fill="#FFDA80" d="M 9 137 L 13 141 9 145 5 141 Z" class="highcharts-point"></path><path fill="#FFDA80" d="M 48 117 L 52 121 48 125 44 121 Z" class="highcharts-point"></path><path fill="#FFDA80" d="M 87 101 L 91 105 87 109 83 105 Z" class="highcharts-point"></path><path fill="#FFDA80" d="M 107 98 L 111 102 107 106 103 102 Z" class="highcharts-point"></path><path fill="#FFDA80" d="M 126 94 L 130 98 126 102 122 98 Z" class="highcharts-point"></path><path fill="#FFDA80" d="M 145 98 L 149 102 145 106 141 102 Z" class="highcharts-point"></path><path fill="#FFDA80" d="M 165 85 L 169 89 165 93 161 89 Z" class="highcharts-point"></path><path fill="#FFDA80" d="M 184 94 L 188 98 184 102 180 98 Z" class="highcharts-point"></path><path fill="#FFDA80" d="M 204 81 L 208 85 204 89 200 85 Z" class="highcharts-point"></path><path fill="#FFDA80" d="M 223 108 L 227 112 223 116 219 112 Z" class="highcharts-point"></path><path fill="#FFDA80" d="M 243 81 L 247 85 243 89 239 85 Z" class="highcharts-point"></path><path fill="#FFDA80" d="M 262 81 L 266 85 262 89 258 85 Z" class="highcharts-point"></path><path fill="#FFDA80" d="M 282 81 L 286 85 282 89 278 85 Z" class="highcharts-point"></path><path fill="#FFDA80" d="M 301 68 L 305 72 301 76 297 72 Z" class="highcharts-point"></path><path fill="#FFDA80" d="M 321 81 L 325 85 321 89 317 85 Z" class="highcharts-point"></path><path fill="#FFDA80" d="M 340 71 L 344 75 340 79 336 75 Z" class="highcharts-point"></path><path fill="#FFDA80" d="M 359 78 L 363 82 359 86 355 82 Z" class="highcharts-point"></path><path fill="#FFDA80" d="M 379 85 L 383 89 379 93 375 89 Z" class="highcharts-point"></path><path fill="#FFDA80" d="M 398 81 L 402 85 398 89 394 85 Z" class="highcharts-point"></path><path fill="#FFDA80" d="M 418 101 L 422 105 418 109 414 105 Z" class="highcharts-point"></path></g><g data-z-index="0.1" class="highcharts-series highcharts-series-11 highcharts-scatter-series " transform="translate(47,179) scale(1 1)" clip-path="url(#highcharts-p1xwp32-7)"></g><g data-z-index="0.1" class="highcharts-markers highcharts-series-11 highcharts-scatter-series " transform="translate(47,179) scale(1 1)" clip-path="none"><path fill="#FFDA80" d="M 13 131 A 4 4 0 1 1 12.999998000000167 130.99600000066667 Z" class="highcharts-point"></path><path fill="#FFDA80" d="M 52 138 A 4 4 0 1 1 51.99999800000017 137.99600000066667 Z" class="highcharts-point"></path><path fill="#FFDA80" d="M 91 118 A 4 4 0 1 1 90.99999800000016 117.99600000066667 Z" class="highcharts-point"></path><path fill="#FFDA80" d="M 111 115 A 4 4 0 1 1 110.99999800000016 114.99600000066667 Z" class="highcharts-point"></path><path fill="#FFDA80" d="M 130 115 A 4 4 0 1 1 129.99999800000018 114.99600000066667 Z" class="highcharts-point"></path><path fill="#FFDA80" d="M 149 108 A 4 4 0 1 1 148.99999800000018 107.99600000066667 Z" class="highcharts-point"></path><path fill="#FFDA80" d="M 169 105 A 4 4 0 1 1 168.99999800000018 104.99600000066667 Z" class="highcharts-point"></path><path fill="#FFDA80" d="M 188 105 A 4 4 0 1 1 187.99999800000018 104.99600000066667 Z" class="highcharts-point"></path><path fill="#FFDA80" d="M 208 105 A 4 4 0 1 1 207.99999800000018 104.99600000066667 Z" class="highcharts-point"></path><path fill="#FFDA80" d="M 227 112 A 4 4 0 1 1 226.99999800000018 111.99600000066667 Z" class="highcharts-point"></path><path fill="#FFDA80" d="M 247 108 A 4 4 0 1 1 246.99999800000018 107.99600000066667 Z" class="highcharts-point"></path><path fill="#FFDA80" d="M 266 102 A 4 4 0 1 1 265.9999980000002 101.99600000066667 Z" class="highcharts-point"></path><path fill="#FFDA80" d="M 286 108 A 4 4 0 1 1 285.9999980000002 107.99600000066667 Z" class="highcharts-point"></path><path fill="#FFDA80" d="M 305 105 A 4 4 0 1 1 304.9999980000002 104.99600000066667 Z" class="highcharts-point"></path><path fill="#FFDA80" d="M 325 92 A 4 4 0 1 1 324.9999980000002 91.99600000066667 Z" class="highcharts-point"></path><path fill="#FFDA80" d="M 344 95 A 4 4 0 1 1 343.9999980000002 94.99600000066667 Z" class="highcharts-point"></path><path fill="#FFDA80" d="M 363 105 A 4 4 0 1 1 362.9999980000002 104.99600000066667 Z" class="highcharts-point"></path><path fill="#FFDA80" d="M 383 105 A 4 4 0 1 1 382.9999980000002 104.99600000066667 Z" class="highcharts-point"></path><path fill="#FFDA80" d="M 402 102 A 4 4 0 1 1 401.9999980000002 101.99600000066667 Z" class="highcharts-point"></path><path fill="#FFDA80" d="M 422 89 A 4 4 0 1 1 421.9999980000002 88.99600000066667 Z" class="highcharts-point"></path></g><g data-z-index="0.1" class="highcharts-series highcharts-series-12 highcharts-scatter-series " transform="translate(47,179) scale(1 1)" clip-path="url(#highcharts-p1xwp32-7)"></g><g data-z-index="0.1" class="highcharts-markers highcharts-series-12 highcharts-scatter-series " transform="translate(47,179) scale(1 1)" clip-path="none"><path fill="#3C3C3C" d="M 9 124 L 13 128 9 132 5 128 Z" class="highcharts-point"></path><path fill="#3C3C3C" d="M 48 91 L 52 95 48 99 44 95 Z" class="highcharts-point"></path><path fill="#3C3C3C" d="M 87 65 L 91 69 87 73 83 69 Z" class="highcharts-point"></path><path fill="#3C3C3C" d="M 107 65 L 111 69 107 73 103 69 Z" class="highcharts-point"></path><path fill="#3C3C3C" d="M 126 62 L 130 66 126 70 122 66 Z" class="highcharts-point"></path><path fill="#3C3C3C" d="M 145 55 L 149 59 145 63 141 59 Z" class="highcharts-point"></path><path fill="#3C3C3C" d="M 165 68 L 169 72 165 76 161 72 Z" class="highcharts-point"></path><path fill="#3C3C3C" d="M 184 39 L 188 43 184 47 180 43 Z" class="highcharts-point"></path><path fill="#3C3C3C" d="M 204 35 L 208 39 204 43 200 39 Z" class="highcharts-point"></path><path fill="#3C3C3C" d="M 223 48 L 227 52 223 56 219 52 Z" class="highcharts-point"></path><path fill="#3C3C3C" d="M 243 55 L 247 59 243 63 239 59 Z" class="highcharts-point"></path><path fill="#3C3C3C" d="M 262 35 L 266 39 262 43 258 39 Z" class="highcharts-point"></path><path fill="#3C3C3C" d="M 282 42 L 286 46 282 50 278 46 Z" class="highcharts-point"></path><path fill="#3C3C3C" d="M 301 32 L 305 36 301 40 297 36 Z" class="highcharts-point"></path><path fill="#3C3C3C" d="M 321 22 L 325 26 321 30 317 26 Z" class="highcharts-point"></path><path fill="#3C3C3C" d="M 340 16 L 344 20 340 24 336 20 Z" class="highcharts-point"></path><path fill="#3C3C3C" d="M 359 55 L 363 59 359 63 355 59 Z" class="highcharts-point"></path><path fill="#3C3C3C" d="M 379 52 L 383 56 379 60 375 56 Z" class="highcharts-point"></path><path fill="#3C3C3C" d="M 398 29 L 402 33 398 37 394 33 Z" class="highcharts-point"></path><path fill="#3C3C3C" d="M 418 55 L 422 59 418 63 414 59 Z" class="highcharts-point"></path></g><g data-z-index="0.1" class="highcharts-series highcharts-series-13 highcharts-scatter-series " transform="translate(47,179) scale(1 1)" clip-path="url(#highcharts-p1xwp32-7)"></g><g data-z-index="0.1" class="highcharts-markers highcharts-series-13 highcharts-scatter-series " transform="translate(47,179) scale(1 1)" clip-path="none"><path fill="#3C3C3C" d="M 13 134 A 4 4 0 1 1 12.999998000000167 133.99600000066667 Z" class="highcharts-point"></path><path fill="#3C3C3C" d="M 52 85 A 4 4 0 1 1 51.99999800000017 84.99600000066667 Z" class="highcharts-point"></path><path fill="#3C3C3C" d="M 91 85 A 4 4 0 1 1 90.99999800000016 84.99600000066667 Z" class="highcharts-point"></path><path fill="#3C3C3C" d="M 111 79 A 4 4 0 1 1 110.99999800000016 78.99600000066667 Z" class="highcharts-point"></path><path fill="#3C3C3C" d="M 130 82 A 4 4 0 1 1 129.99999800000018 81.99600000066667 Z" class="highcharts-point"></path><path fill="#3C3C3C" d="M 149 72 A 4 4 0 1 1 148.99999800000018 71.99600000066667 Z" class="highcharts-point"></path><path fill="#3C3C3C" d="M 169 85 A 4 4 0 1 1 168.99999800000018 84.99600000066667 Z" class="highcharts-point"></path><path fill="#3C3C3C" d="M 188 59 A 4 4 0 1 1 187.99999800000018 58.99600000066666 Z" class="highcharts-point"></path><path fill="#3C3C3C" d="M 208 52 A 4 4 0 1 1 207.99999800000018 51.99600000066666 Z" class="highcharts-point"></path><path fill="#3C3C3C" d="M 227 66 A 4 4 0 1 1 226.99999800000018 65.99600000066667 Z" class="highcharts-point"></path><path fill="#3C3C3C" d="M 247 79 A 4 4 0 1 1 246.99999800000018 78.99600000066667 Z" class="highcharts-point"></path><path fill="#3C3C3C" d="M 266 82 A 4 4 0 1 1 265.9999980000002 81.99600000066667 Z" class="highcharts-point"></path><path fill="#3C3C3C" d="M 286 52 A 4 4 0 1 1 285.9999980000002 51.99600000066666 Z" class="highcharts-point"></path><path fill="#3C3C3C" d="M 305 69 A 4 4 0 1 1 304.9999980000002 68.99600000066667 Z" class="highcharts-point"></path><path fill="#3C3C3C" d="M 325 92 A 4 4 0 1 1 324.9999980000002 91.99600000066667 Z" class="highcharts-point"></path><path fill="#3C3C3C" d="M 344 66 A 4 4 0 1 1 343.9999980000002 65.99600000066667 Z" class="highcharts-point"></path><path fill="#3C3C3C" d="M 363 56 A 4 4 0 1 1 362.9999980000002 55.99600000066666 Z" class="highcharts-point"></path><path fill="#3C3C3C" d="M 383 85 A 4 4 0 1 1 382.9999980000002 84.99600000066667 Z" class="highcharts-point"></path><path fill="#3C3C3C" d="M 402 62 A 4 4 0 1 1 401.9999980000002 61.99600000066666 Z" class="highcharts-point"></path><path fill="#3C3C3C" d="M 422 69 A 4 4 0 1 1 421.9999980000002 68.99600000066667 Z" class="highcharts-point"></path></g></g><text x="10" text-anchor="start" class="highcharts-title" data-z-index="4" style="color:#000000;font-size:14px;font-weight:bold;fill:#000000;" y="21"><tspan>Übergewichtige Kinder</tspan></text><text x="10" text-anchor="start" class="highcharts-subtitle" data-z-index="4" style="color:#000000;font-size:12px;font-weight:normal;font-family:Arial;fill:#000000;" y="40"><tspan>nach Schulstufe, Heimat und Geschlecht, Basel-Stadt</tspan></text><g class="highcharts-legend" data-z-index="7" transform="translate(39,46)"><rect fill="none" class="highcharts-legend-box" rx="0" ry="0" x="0" y="0" width="396" height="130" visibility="visible"></rect><g data-z-index="1"><g><g class="highcharts-legend-item highcharts-scatter-series highcharts-color-undefined highcharts-series-0" data-z-index="1" transform="translate(8,3)"><path fill="none" d="M 0 11 L 16 11" class="highcharts-graph"></path><path fill="rgb(255, 255, 255)" fill-opacity=" 0" d="M 8 7 L 12 11 8 15 4 11 Z" class="highcharts-point"></path><text x="21" style="color:#333333;font-size:12px;font-weight:bold,normal,bold;cursor:pointer;fill:#333333;" text-anchor="start" data-z-index="2" y="15"><tspan style="font-weight:bold">Knaben</tspan></text></g><g class="highcharts-legend-item highcharts-scatter-series highcharts-color-undefined highcharts-series-1" data-z-index="1" transform="translate(208,3)"><path fill="none" d="M 0 11 L 16 11" class="highcharts-graph"></path><path fill="rgb(255, 255, 255)" fill-opacity=" 0" d="M 12 11 A 4 4 0 1 1 11.999998000000167 10.996000000666664 Z" class="highcharts-point"></path><text x="21" y="15" style="color:#333333;font-size:12px;font-weight:bold,normal,bold;cursor:pointer;fill:#333333;" text-anchor="start" data-z-index="2"><tspan style="font-weight:bold">Mädchen</tspan></text></g><g class="highcharts-legend-item highcharts-scatter-series highcharts-color-undefined highcharts-series-2 highcharts-legend-item-hidden" data-z-index="1" transform="translate(8,20)"><path fill="none" d="M 0 11 L 16 11" class="highcharts-graph"></path><path fill="#cccccc" d="M 8 7 L 12 11 8 15 4 11 Z" class="highcharts-point"></path><text x="21" y="15" style="color:#cccccc;font-size:12px;font-weight:bold,normal,bold;cursor:pointer;fill:#cccccc;" text-anchor="start" data-z-index="2"><tspan>1. Stufe CH</tspan></text></g><g class="highcharts-legend-item highcharts-scatter-series highcharts-color-undefined highcharts-series-3 highcharts-legend-item-hidden" data-z-index="1" transform="translate(208,20)"><path fill="none" d="M 0 11 L 16 11" class="highcharts-graph"></path><path fill="#cccccc" d="M 12 11 A 4 4 0 1 1 11.999998000000167 10.996000000666664 Z" class="highcharts-point"></path><text x="21" y="15" style="color:#cccccc;font-size:12px;font-weight:bold,normal,bold;cursor:pointer;fill:#cccccc;" text-anchor="start" data-z-index="2"><tspan>1. Stufe CH</tspan></text></g><g class="highcharts-legend-item highcharts-scatter-series highcharts-color-undefined highcharts-series-4 highcharts-legend-item-hidden" data-z-index="1" transform="translate(8,37)"><path fill="none" d="M 0 11 L 16 11" class="highcharts-graph"></path><path fill="#cccccc" d="M 8 7 L 12 11 8 15 4 11 Z" class="highcharts-point"></path><text x="21" y="15" style="color:#cccccc;font-size:12px;font-weight:bold,normal,bold;cursor:pointer;fill:#cccccc;" text-anchor="start" data-z-index="2"><tspan>1. Stufe Ausland</tspan></text></g><g class="highcharts-legend-item highcharts-scatter-series highcharts-color-undefined highcharts-series-5 highcharts-legend-item-hidden" data-z-index="1" transform="translate(208,37)"><path fill="none" d="M 0 11 L 16 11" class="highcharts-graph"></path><path fill="#cccccc" d="M 12 11 A 4 4 0 1 1 11.999998000000167 10.996000000666664 Z" class="highcharts-point"></path><text x="21" y="15" style="color:#cccccc;font-size:12px;font-weight:bold,normal,bold;cursor:pointer;fill:#cccccc;" text-anchor="start" data-z-index="2"><tspan>1. Stufe Ausland</tspan></text></g><g class="highcharts-legend-item highcharts-scatter-series highcharts-color-undefined highcharts-series-6" data-z-index="1" transform="translate(8,54)"><path fill="none" d="M 0 11 L 16 11" class="highcharts-graph"></path><path fill="#68AB2B" d="M 8 7 L 12 11 8 15 4 11 Z" class="highcharts-point"></path><text x="21" y="15" style="color:#333333;font-size:12px;font-weight:bold,normal,bold;cursor:pointer;fill:#333333;" text-anchor="start" data-z-index="2"><tspan>5. Stufe CH</tspan></text></g><g class="highcharts-legend-item highcharts-scatter-series highcharts-color-undefined highcharts-series-7" data-z-index="1" transform="translate(208,54)"><path fill="none" d="M 0 11 L 16 11" class="highcharts-graph"></path><path fill="#68AB2B" d="M 12 11 A 4 4 0 1 1 11.999998000000167 10.996000000666664 Z" class="highcharts-point"></path><text x="21" y="15" style="color:#333333;font-size:12px;font-weight:bold,normal,bold;cursor:pointer;fill:#333333;" text-anchor="start" data-z-index="2"><tspan>5. Stufe CH</tspan></text></g><g class="highcharts-legend-item highcharts-scatter-series highcharts-color-undefined highcharts-series-8" data-z-index="1" transform="translate(8,71)"><path fill="none" d="M 0 11 L 16 11" class="highcharts-graph"></path><path fill="#B375AB" d="M 8 7 L 12 11 8 15 4 11 Z" class="highcharts-point"></path><text x="21" y="15" style="color:#333333;font-size:12px;font-weight:bold,normal,bold;cursor:pointer;fill:#333333;" text-anchor="start" data-z-index="2"><tspan>5. Stufe Ausland</tspan></text></g><g class="highcharts-legend-item highcharts-scatter-series highcharts-color-undefined highcharts-series-9" data-z-index="1" transform="translate(208,71)"><path fill="none" d="M 0 11 L 16 11" class="highcharts-graph"></path><path fill="#B375AB" d="M 12 11 A 4 4 0 1 1 11.999998000000167 10.996000000666664 Z" class="highcharts-point"></path><text x="21" y="15" style="color:#333333;font-size:12px;font-weight:bold,normal,bold;cursor:pointer;fill:#333333;" text-anchor="start" data-z-index="2"><tspan>5. Stufe Ausland</tspan></text></g><g class="highcharts-legend-item highcharts-scatter-series highcharts-color-undefined highcharts-series-10" data-z-index="1" transform="translate(8,88)"><path fill="none" d="M 0 11 L 16 11" class="highcharts-graph"></path><path fill="#FFDA80" d="M 8 7 L 12 11 8 15 4 11 Z" class="highcharts-point"></path><text x="21" y="15" style="color:#333333;font-size:12px;font-weight:bold,normal,bold;cursor:pointer;fill:#333333;" text-anchor="start" data-z-index="2"><tspan>11. Stufe CH</tspan></text></g><g class="highcharts-legend-item highcharts-scatter-series highcharts-color-undefined highcharts-series-11" data-z-index="1" transform="translate(208,88)"><path fill="none" d="M 0 11 L 16 11" class="highcharts-graph"></path><path fill="#FFDA80" d="M 12 11 A 4 4 0 1 1 11.999998000000167 10.996000000666664 Z" class="highcharts-point"></path><text x="21" y="15" style="color:#333333;font-size:12px;font-weight:bold,normal,bold;cursor:pointer;fill:#333333;" text-anchor="start" data-z-index="2"><tspan>11. Stufe CH</tspan></text></g><g class="highcharts-legend-item highcharts-scatter-series highcharts-color-undefined highcharts-series-12" data-z-index="1" transform="translate(8,105)"><path fill="none" d="M 0 11 L 16 11" class="highcharts-graph"></path><path fill="#3C3C3C" d="M 8 7 L 12 11 8 15 4 11 Z" class="highcharts-point"></path><text x="21" y="15" style="color:#333333;font-size:12px;font-weight:bold,normal,bold;cursor:pointer;fill:#333333;" text-anchor="start" data-z-index="2"><tspan>11. Stufe Ausland</tspan></text></g><g class="highcharts-legend-item highcharts-scatter-series highcharts-color-undefined highcharts-series-13" data-z-index="1" transform="translate(208,105)"><path fill="none" d="M 0 11 L 16 11" class="highcharts-graph"></path><path fill="#3C3C3C" d="M 12 11 A 4 4 0 1 1 11.999998000000167 10.996000000666664 Z" class="highcharts-point"></path><text x="21" y="15" style="color:#333333;font-size:12px;font-weight:bold,normal,bold;cursor:pointer;fill:#333333;" text-anchor="start" data-z-index="2"><tspan>11. Stufe Ausland</tspan></text></g></g></g></g><g class="highcharts-axis-labels highcharts-xaxis-labels " data-z-index="7"><text x="59.31999759162294" style="color:#000000;cursor:default;font-size:11px;fill:#000000;" text-anchor="end" transform="translate(0,0) rotate(-45 59.31999759162294 359)" y="359" opacity="1">1979/80</text><text x="78.77454304616896" style="color:#000000;cursor:default;font-size:11px;fill:#000000;" text-anchor="end" transform="translate(0,0) rotate(-45 78.77454304616896 359)" y="359" opacity="1"></text><text x="98.22908850071795" style="color:#000000;cursor:default;font-size:11px;fill:#000000;" text-anchor="end" transform="translate(0,0) rotate(-45 98.22908850071795 359)" y="359" opacity="1">1989/90</text><text x="117.68363395525793" style="color:#000000;cursor:default;font-size:11px;fill:#000000;" text-anchor="end" transform="translate(0,0) rotate(-45 117.68363395525793 359)" y="359" opacity="1"></text><text x="137.13817940980798" style="color:#000000;cursor:default;font-size:11px;fill:#000000;" text-anchor="end" transform="translate(0,0) rotate(-45 137.13817940980798 359)" y="359" opacity="1">1999/00</text><text x="156.59272486434796" style="color:#000000;cursor:default;font-size:11px;fill:#000000;" text-anchor="end" transform="translate(0,0) rotate(-45 156.59272486434796 359)" y="359" opacity="1">2000/01</text><text x="176.04727031889797" style="color:#000000;cursor:default;font-size:11px;fill:#000000;" text-anchor="end" transform="translate(0,0) rotate(-45 176.04727031889797 359)" y="359" opacity="1">2001/02</text><text x="195.50181577343795" style="color:#000000;cursor:default;font-size:11px;fill:#000000;" text-anchor="end" transform="translate(0,0) rotate(-45 195.50181577343795 359)" y="359" opacity="1">2002/03</text><text x="214.95636122798797" style="color:#000000;cursor:default;font-size:11px;fill:#000000;" text-anchor="end" transform="translate(0,0) rotate(-45 214.95636122798797 359)" y="359" opacity="1">2003/04</text><text x="234.41090668252798" style="color:#000000;cursor:default;font-size:11px;fill:#000000;" text-anchor="end" transform="translate(0,0) rotate(-45 234.41090668252798 359)" y="359" opacity="1">2004/05</text><text x="253.86545213707794" style="color:#000000;cursor:default;font-size:11px;fill:#000000;" text-anchor="end" transform="translate(0,0) rotate(-45 253.86545213707794 359)" y="359" opacity="1">2005/06</text><text x="273.3199975916279" style="color:#000000;cursor:default;font-size:11px;fill:#000000;" text-anchor="end" transform="translate(0,0) rotate(-45 273.3199975916279 359)" y="359" opacity="1">2006/07</text><text x="292.77454304616793" style="color:#000000;cursor:default;font-size:11px;fill:#000000;" text-anchor="end" transform="translate(0,0) rotate(-45 292.77454304616793 359)" y="359" opacity="1">2007/08</text><text x="312.2290885007179" style="color:#000000;cursor:default;font-size:11px;fill:#000000;" text-anchor="end" transform="translate(0,0) rotate(-45 312.2290885007179 359)" y="359" opacity="1">2008/09</text><text x="331.6836339552579" style="color:#000000;cursor:default;font-size:11px;fill:#000000;" text-anchor="end" transform="translate(0,0) rotate(-45 331.6836339552579 359)" y="359" opacity="1">2009/10</text><text x="351.1381794098079" style="color:#000000;cursor:default;font-size:11px;fill:#000000;" text-anchor="end" transform="translate(0,0) rotate(-45 351.1381794098079 359)" y="359" opacity="1">2010/11</text><text x="370.59272486434793" style="color:#000000;cursor:default;font-size:11px;fill:#000000;" text-anchor="end" transform="translate(0,0) rotate(-45 370.59272486434793 359)" y="359" opacity="1">2011/12</text><text x="390.0472703188979" style="color:#000000;cursor:default;font-size:11px;fill:#000000;" text-anchor="end" transform="translate(0,0) rotate(-45 390.0472703188979 359)" y="359" opacity="1">2012/13</text><text x="409.5018157734379" style="color:#000000;cursor:default;font-size:11px;fill:#000000;" text-anchor="end" transform="translate(0,0) rotate(-45 409.5018157734379 359)" y="359" opacity="1">2013/14</text><text x="428.9563612279879" style="color:#000000;cursor:default;font-size:11px;fill:#000000;" text-anchor="end" transform="translate(0,0) rotate(-45 428.9563612279879 359)" y="359" opacity="1">2014/15</text><text x="448.4109066825279" style="color:#000000;cursor:default;font-size:11px;fill:#000000;" text-anchor="end" transform="translate(0,0) rotate(-45 448.4109066825279 359)" y="359" opacity="1">2015/16</text><text x="467.8654521370779" style="color:#000000;cursor:default;font-size:11px;fill:#000000;" text-anchor="end" transform="translate(0,0) rotate(-45 467.8654521370779 359)" y="359" opacity="1">2016/17</text></g><g class="highcharts-axis-labels highcharts-yaxis-labels " data-z-index="7"><text x="32" style="color:#000000;cursor:default;font-size:11px;fill:#000000;" text-anchor="end" transform="translate(0,0)" y="347" opacity="1">0%</text><text x="32" style="color:#000000;cursor:default;font-size:11px;fill:#000000;" text-anchor="end" transform="translate(0,0)" y="314" opacity="1">10%</text><text x="32" style="color:#000000;cursor:default;font-size:11px;fill:#000000;" text-anchor="end" transform="translate(0,0)" y="281" opacity="1">20%</text><text x="32" style="color:#000000;cursor:default;font-size:11px;fill:#000000;" text-anchor="end" transform="translate(0,0)" y="249" opacity="1">30%</text><text x="32" style="color:#000000;cursor:default;font-size:11px;fill:#000000;" text-anchor="end" transform="translate(0,0)" y="216" opacity="1">40%</text><text x="32" style="color:#000000;cursor:default;font-size:11px;fill:#000000;" text-anchor="end" transform="translate(0,0)" y="183" opacity="1">50%</text></g><text x="10" class="highcharts-credits" text-anchor="start" data-z-index="8" style="cursor:default;color:#000000;font-size:10px;fill:#000000;" y="403"><tspan>Quelle: Gesundheitsdepartement Basel-Stadt, Kinder- und Jugendgesundheitsdienst.</tspan><tspan x="10" dy="13">Zuletzt geändert: 2019-12-2</tspan></text></svg>