<?xml version="1.0" standalone="no"?><!DOCTYPE svg PUBLIC "-//W3C//DTD SVG 1.1//EN" "http://www.w3.org/Graphics/SVG/1.1/DTD/svg11.dtd"><svg xmlns:xlink="http://www.w3.org/1999/xlink" version="1.1" class="highcharts-root" style="font-family:Arial;font-size:12px;" xmlns="http://www.w3.org/2000/svg" viewBox="0 0 485 415"><desc>Created with Highstock 6.1.1</desc><defs><clipPath id="highcharts-vbhrnd8-6"><rect x="0" y="0" width="298" height="266" fill="none"></rect></clipPath><clipPath id="highcharts-vbhrnd8-7"><rect x="0" y="0" width="298" height="266" fill="none"></rect></clipPath></defs><rect fill="#fbfbfb" class="highcharts-background" x="0" y="0" width="485" height="428" rx="0" ry="0"></rect><rect fill="none" class="highcharts-plot-background" x="53" y="87" width="298" height="266"></rect><g class="highcharts-pane-group" data-z-index="0"></g><g class="highcharts-grid highcharts-xaxis-grid " data-z-index="1"><path fill="none" data-z-index="1" class="highcharts-grid-line" d="M 112.5 87 L 112.5 353" opacity="1"></path><path fill="none" data-z-index="1" class="highcharts-grid-line" d="M 171.5 87 L 171.5 353" opacity="1"></path><path fill="none" data-z-index="1" class="highcharts-grid-line" d="M 231.5 87 L 231.5 353" opacity="1"></path><path fill="none" data-z-index="1" class="highcharts-grid-line" d="M 290.5 87 L 290.5 353" opacity="1"></path><path fill="none" data-z-index="1" class="highcharts-grid-line" d="M 350.5 87 L 350.5 353" opacity="1"></path><path fill="none" data-z-index="1" class="highcharts-grid-line" d="M 52.5 87 L 52.5 353" opacity="1"></path></g><g class="highcharts-grid highcharts-yaxis-grid " data-z-index="1"><path fill="none" stroke="#B9CFD7" stroke-width="0.5" data-z-index="1" class="highcharts-grid-line" d="M 53 353.25 L 351 353.25" opacity="1"></path><path fill="none" stroke="#B9CFD7" stroke-width="0.5" data-z-index="1" class="highcharts-grid-line" d="M 53 326.25 L 351 326.25" opacity="1"></path><path fill="none" stroke="#B9CFD7" stroke-width="0.5" data-z-index="1" class="highcharts-grid-line" d="M 53 300.25 L 351 300.25" opacity="1"></path><path fill="none" stroke="#B9CFD7" stroke-width="0.5" data-z-index="1" class="highcharts-grid-line" d="M 53 273.25 L 351 273.25" opacity="1"></path><path fill="none" stroke="#B9CFD7" stroke-width="0.5" data-z-index="1" class="highcharts-grid-line" d="M 53 247.25 L 351 247.25" opacity="1"></path><path fill="none" stroke="#B9CFD7" stroke-width="0.5" data-z-index="1" class="highcharts-grid-line" d="M 53 220.25 L 351 220.25" opacity="1"></path><path fill="none" stroke="#B9CFD7" stroke-width="0.5" data-z-index="1" class="highcharts-grid-line" d="M 53 193.25 L 351 193.25" opacity="1"></path><path fill="none" stroke="#B9CFD7" stroke-width="0.5" data-z-index="1" class="highcharts-grid-line" d="M 53 167.25 L 351 167.25" opacity="1"></path><path fill="none" stroke="#B9CFD7" stroke-width="0.5" data-z-index="1" class="highcharts-grid-line" d="M 53 140.25 L 351 140.25" opacity="1"></path><path fill="none" stroke="#B9CFD7" stroke-width="0.5" data-z-index="1" class="highcharts-grid-line" d="M 53 114.25 L 351 114.25" opacity="1"></path><path fill="none" stroke="#B9CFD7" stroke-width="0.5" data-z-index="1" class="highcharts-grid-line" d="M 53 86.75 L 351 86.75" opacity="1"></path></g><rect fill="none" class="highcharts-plot-border" data-z-index="1" x="53" y="87" width="298" height="266"></rect><g class="highcharts-axis highcharts-xaxis " data-z-index="2"><path fill="none" class="highcharts-axis-line" stroke="#B9CFD7" stroke-width="0.5" data-z-index="7" d="M 53 353.25 L 351 353.25"></path></g><g class="highcharts-axis highcharts-yaxis " data-z-index="2"><path fill="none" class="highcharts-axis-line" data-z-index="7" d="M 53 87 L 53 353"></path></g><g class="highcharts-series-group" data-z-index="3"><g data-z-index="0.1" class="highcharts-series highcharts-series-0 highcharts-column-series " transform="translate(53,87) scale(1 1)" clip-path="url(#highcharts-vbhrnd8-7)"><rect x="15" y="1" width="29" height="0" fill="#C8C8C8" class="highcharts-point"></rect><rect x="75" y="1" width="29" height="0" fill="#C8C8C8" class="highcharts-point"></rect><rect x="135" y="1" width="29" height="0" fill="#C8C8C8" class="highcharts-point"></rect><rect x="194" y="1" width="29" height="0" fill="#C8C8C8" class="highcharts-point"></rect><rect x="254" y="1" width="29" height="0" fill="#C8C8C8" class="highcharts-point"></rect></g><g data-z-index="0.1" class="highcharts-markers highcharts-series-0 highcharts-column-series " transform="translate(53,87) scale(1 1)" clip-path="none"></g><g data-z-index="0.1" class="highcharts-series highcharts-series-1 highcharts-column-series " transform="translate(53,87) scale(1 1)" clip-path="url(#highcharts-vbhrnd8-7)"><rect x="15" y="0" width="29" height="145" fill="#CD9C00" class="highcharts-point"></rect><rect x="75" y="0" width="29" height="158" fill="#CD9C00" class="highcharts-point"></rect><rect x="135" y="0" width="29" height="168" fill="#CD9C00" class="highcharts-point"></rect><rect x="194" y="0" width="29" height="169" fill="#CD9C00" class="highcharts-point"></rect><rect x="254" y="0" width="29" height="170" fill="#CD9C00" class="highcharts-point"></rect></g><g data-z-index="0.1" class="highcharts-markers highcharts-series-1 highcharts-column-series " transform="translate(53,87) scale(1 1)" clip-path="none"></g><g data-z-index="0.1" class="highcharts-series highcharts-series-2 highcharts-column-series " transform="translate(53,87) scale(1 1)" clip-path="url(#highcharts-vbhrnd8-7)"><rect x="15" y="145" width="29" height="76" fill="#7F5F1A" class="highcharts-point"></rect><rect x="75" y="158" width="29" height="52" fill="#7F5F1A" class="highcharts-point"></rect><rect x="135" y="168" width="29" height="42" fill="#7F5F1A" class="highcharts-point"></rect><rect x="194" y="169" width="29" height="44" fill="#7F5F1A" class="highcharts-point"></rect><rect x="254" y="170" width="29" height="37" fill="#7F5F1A" class="highcharts-point"></rect></g><g data-z-index="0.1" class="highcharts-markers highcharts-series-2 highcharts-column-series " transform="translate(53,87) scale(1 1)" clip-path="none"></g><g data-z-index="0.1" class="highcharts-series highcharts-series-3 highcharts-column-series " transform="translate(53,87) scale(1 1)" clip-path="url(#highcharts-vbhrnd8-7)"><rect x="15" y="221" width="29" height="46" fill="#3A2012" class="highcharts-point"></rect><rect x="75" y="210" width="29" height="57" fill="#3A2012" class="highcharts-point"></rect><rect x="135" y="210" width="29" height="57" fill="#3A2012" class="highcharts-point"></rect><rect x="194" y="213" width="29" height="54" fill="#3A2012" class="highcharts-point"></rect><rect x="254" y="207" width="29" height="60" fill="#3A2012" class="highcharts-point"></rect></g><g data-z-index="0.1" class="highcharts-markers highcharts-series-3 highcharts-column-series " transform="translate(53,87) scale(1 1)" clip-path="none"></g></g><text x="10" text-anchor="start" class="highcharts-title" data-z-index="4" style="color:#000000;font-size:14px;font-weight:bold;fill:#000000;" y="21"><tspan>Besuchte Weiterbildungen und Kurse in den letzten zwölf</tspan><tspan dy="17" x="10">Monaten</tspan></text><text x="10" text-anchor="start" class="highcharts-subtitle" data-z-index="4" style="color:#000000;font-size:12px;fill:#000000;" y="57"><tspan>«Haben Sie in den letzten 12 Monaten eine Veranstaltung oder einen Kurs</tspan><tspan dy="15" x="10">besucht oder machen Sie zurzeit eine Weiterbildung?»</tspan></text><g class="highcharts-legend" data-z-index="7" transform="translate(363,148)"><rect fill="none" class="highcharts-legend-box" rx="0" ry="0" x="0" y="0" width="112" height="102" visibility="visible"></rect><g data-z-index="1"><g><g class="highcharts-legend-item highcharts-column-series highcharts-color-undefined highcharts-series-0" data-z-index="1" transform="translate(8,3)"><text x="21" style="color:#333333;font-size:12px;font-weight:normal;cursor:pointer;fill:#333333;" text-anchor="start" data-z-index="2" y="15"><tspan>Weiss nicht/</tspan><tspan x="21" dy="15">Keine Angabe</tspan></text><rect x="2" y="4" width="12" height="12" fill="#C8C8C8" class="highcharts-point" data-z-index="3"></rect></g><g class="highcharts-legend-item highcharts-column-series highcharts-color-undefined highcharts-series-1" data-z-index="1" transform="translate(8,37)"><text x="21" y="15" style="color:#333333;font-size:12px;font-weight:normal;cursor:pointer;fill:#333333;" text-anchor="start" data-z-index="2"><tspan>Keine</tspan></text><rect x="2" y="4" width="12" height="12" fill="#CD9C00" class="highcharts-point" data-z-index="3"></rect></g><g class="highcharts-legend-item highcharts-column-series highcharts-color-undefined highcharts-series-2" data-z-index="1" transform="translate(8,56)"><text x="21" y="15" style="color:#333333;font-size:12px;font-weight:normal;cursor:pointer;fill:#333333;" text-anchor="start" data-z-index="2"><tspan>Mehrere</tspan></text><rect x="2" y="4" width="12" height="12" fill="#7F5F1A" class="highcharts-point" data-z-index="3"></rect></g><g class="highcharts-legend-item highcharts-column-series highcharts-color-undefined highcharts-series-3" data-z-index="1" transform="translate(8,75)"><text x="21" y="15" style="color:#333333;font-size:12px;font-weight:normal;cursor:pointer;fill:#333333;" text-anchor="start" data-z-index="2"><tspan>Eine(n)</tspan></text><rect x="2" y="4" width="12" height="12" fill="#3A2012" class="highcharts-point" data-z-index="3"></rect></g></g></g></g><g class="highcharts-axis-labels highcharts-xaxis-labels " data-z-index="7"><text x="82.8" style="color:#000000;cursor:default;font-size:11px;white-space:nowrap;fill:#000000;" text-anchor="middle" transform="translate(0,0)" y="372" opacity="1"><tspan>2003</tspan><tspan x="82.8" dy="14">(N=1497)</tspan></text><text x="142.39999999999998" style="color:#000000;cursor:default;font-size:11px;white-space:nowrap;fill:#000000;" text-anchor="middle" transform="translate(0,0)" y="372" opacity="1"><tspan>2005</tspan><tspan x="142.39999999999998" dy="14">(N=1510)</tspan></text><text x="202" style="color:#000000;cursor:default;font-size:11px;white-space:nowrap;fill:#000000;" text-anchor="middle" transform="translate(0,0)" y="372" opacity="1"><tspan>2007</tspan><tspan x="202" dy="14">(N=1509)</tspan></text><text x="261.59999999999997" style="color:#000000;cursor:default;font-size:11px;white-space:nowrap;fill:#000000;" text-anchor="middle" transform="translate(0,0)" y="372" opacity="1"><tspan>2011</tspan><tspan x="261.59999999999997" dy="14">(N=1516)</tspan></text><text x="321.2" style="color:#000000;cursor:default;font-size:11px;white-space:nowrap;fill:#000000;" text-anchor="middle" transform="translate(0,0)" y="372" opacity="1"><tspan>2015</tspan><tspan x="321.2" dy="14">(N=1506)</tspan></text></g><g class="highcharts-axis-labels highcharts-yaxis-labels " data-z-index="7"><text x="38" style="color:#000000;cursor:default;font-size:11px;fill:#000000;" text-anchor="end" transform="translate(0,0)" y="358" opacity="1">0%</text><text x="38" style="color:#000000;cursor:default;font-size:11px;fill:#000000;" text-anchor="end" transform="translate(0,0)" y="331" opacity="1">10%</text><text x="38" style="color:#000000;cursor:default;font-size:11px;fill:#000000;" text-anchor="end" transform="translate(0,0)" y="304" opacity="1">20%</text><text x="38" style="color:#000000;cursor:default;font-size:11px;fill:#000000;" text-anchor="end" transform="translate(0,0)" y="278" opacity="1">30%</text><text x="38" style="color:#000000;cursor:default;font-size:11px;fill:#000000;" text-anchor="end" transform="translate(0,0)" y="251" opacity="1">40%</text><text x="38" style="color:#000000;cursor:default;font-size:11px;fill:#000000;" text-anchor="end" transform="translate(0,0)" y="225" opacity="1">50%</text><text x="38" style="color:#000000;cursor:default;font-size:11px;fill:#000000;" text-anchor="end" transform="translate(0,0)" y="198" opacity="1">60%</text><text x="38" style="color:#000000;cursor:default;font-size:11px;fill:#000000;" text-anchor="end" transform="translate(0,0)" y="171" opacity="1">70%</text><text x="38" style="color:#000000;cursor:default;font-size:11px;fill:#000000;" text-anchor="end" transform="translate(0,0)" y="145" opacity="1">80%</text><text x="38" style="color:#000000;cursor:default;font-size:11px;fill:#000000;" text-anchor="end" transform="translate(0,0)" y="118" opacity="1">90%</text><text x="38" style="color:#000000;cursor:default;font-size:11px;fill:#000000;" text-anchor="end" transform="translate(0,0)" y="92" opacity="1">100%</text></g><text x="10" class="highcharts-credits" text-anchor="start" data-z-index="8" style="cursor:default;color:#000000;font-size:10px;fill:#000000;" y="403"><tspan>Quelle: Statistisches Amt des Kantons Basel-Stadt, Bevölkerungsbefragung Basel-Stadt 2015, Frage F15.</tspan><tspan x="10" dy="13">Zuletzt geändert: 2018-4-3</tspan></text></svg>