<?xml version="1.0" standalone="no"?><!DOCTYPE svg PUBLIC "-//W3C//DTD SVG 1.1//EN" "http://www.w3.org/Graphics/SVG/1.1/DTD/svg11.dtd"><svg xmlns:xlink="http://www.w3.org/1999/xlink" version="1.1" class="highcharts-root" style="font-family:Arial;font-size:12px;" xmlns="http://www.w3.org/2000/svg" viewBox="0 0 485 415"><desc>Created with Highstock 6.1.1</desc><defs><clipPath id="highcharts-gsiz162-6"><rect x="0" y="0" width="401" height="246" fill="none"></rect></clipPath><clipPath id="highcharts-gsiz162-7"><rect x="0" y="0" width="401" height="246" fill="none"></rect></clipPath></defs><rect fill="#fbfbfb" class="highcharts-background" x="0" y="0" width="485" height="428" rx="0" ry="0"></rect><rect fill="none" class="highcharts-plot-background" x="74" y="116" width="401" height="246"></rect><g class="highcharts-pane-group" data-z-index="0"></g><g class="highcharts-grid highcharts-xaxis-grid " data-z-index="1"><path fill="none" data-z-index="1" class="highcharts-grid-line" d="M 77.5 116 L 77.5 362" opacity="1"></path><path fill="none" data-z-index="1" class="highcharts-grid-line" d="M 129.5 116 L 129.5 362" opacity="1"></path><path fill="none" data-z-index="1" class="highcharts-grid-line" d="M 182.5 116 L 182.5 362" opacity="1"></path><path fill="none" data-z-index="1" class="highcharts-grid-line" d="M 234.5 116 L 234.5 362" opacity="1"></path><path fill="none" data-z-index="1" class="highcharts-grid-line" d="M 287.5 116 L 287.5 362" opacity="1"></path><path fill="none" data-z-index="1" class="highcharts-grid-line" d="M 339.5 116 L 339.5 362" opacity="1"></path><path fill="none" data-z-index="1" class="highcharts-grid-line" d="M 391.5 116 L 391.5 362" opacity="1"></path><path fill="none" data-z-index="1" class="highcharts-grid-line" d="M 444.5 116 L 444.5 362" opacity="1"></path></g><g class="highcharts-grid highcharts-yaxis-grid " data-z-index="1"><path fill="none" stroke="#B9CFD7" stroke-width="0.5" data-z-index="1" class="highcharts-grid-line" d="M 74 362.25 L 475 362.25" opacity="1"></path><path fill="none" stroke="#B9CFD7" stroke-width="0.5" data-z-index="1" class="highcharts-grid-line" d="M 74 301.25 L 475 301.25" opacity="1"></path><path fill="none" stroke="#B9CFD7" stroke-width="0.5" data-z-index="1" class="highcharts-grid-line" d="M 74 239.25 L 475 239.25" opacity="1"></path><path fill="none" stroke="#B9CFD7" stroke-width="0.5" data-z-index="1" class="highcharts-grid-line" d="M 74 178.25 L 475 178.25" opacity="1"></path><path fill="none" stroke="#B9CFD7" stroke-width="0.5" data-z-index="1" class="highcharts-grid-line" d="M 74 115.75 L 475 115.75" opacity="1"></path></g><rect fill="none" class="highcharts-plot-border" data-z-index="1" x="74" y="116" width="401" height="246"></rect><g class="highcharts-axis highcharts-xaxis " data-z-index="2"><path fill="none" class="highcharts-axis-line" stroke="#B9CFD7" stroke-width="0.5" data-z-index="7" d="M 74 362.25 L 475 362.25"></path></g><g class="highcharts-axis highcharts-yaxis " data-z-index="2"><path fill="none" class="highcharts-axis-line" data-z-index="7" d="M 74 116 L 74 362"></path></g><g class="highcharts-series-group" data-z-index="3"><g data-z-index="0.1" class="highcharts-series highcharts-series-0 highcharts-line-series " transform="translate(74,116) scale(1 1)" clip-path="url(#highcharts-gsiz162-7)"><path fill="none" d="M 3.9313725490219 224.221128 L 30.140522875819 221.872443 L 56.349673202616 222.846603 L 82.558823529413 224.132937 L 108.76797385621 226.523811 L 134.97712418301 225.681876 L 161.1862745098 224.331582 L 187.3954248366 224.017932 L 213.6045751634 224.107476 L 239.8137254902 225.748665 L 266.02287581699 225.629478 L 292.23202614379 222.77292599999998 L 318.44117647059 225.203529 L 344.65032679738 225.539319 L 370.85947712418 224.842401 L 397.06862745098 224.842401" class="highcharts-graph" data-z-index="1" stroke="#B00000" stroke-width="2" stroke-linejoin="round" stroke-linecap="round"></path></g><g data-z-index="0.1" class="highcharts-markers highcharts-series-0 highcharts-line-series " transform="translate(74,116) scale(1 1)" clip-path="none"></g><g data-z-index="0.1" class="highcharts-series highcharts-series-1 highcharts-line-series " transform="translate(74,116) scale(1 1)" clip-path="url(#highcharts-gsiz162-7)"><path fill="none" d="M 3.9313725490219 233.060646 L 30.140522875819 229.702746 L 56.349673202616 228.908166 L 82.558823529413 225.491964 L 108.76797385621 226.057764 L 134.97712418301 225.7788 L 161.1862745098 225.132804 L 187.3954248366 222.957426 L 213.6045751634 224.71312799999998 L 239.8137254902 223.73454 L 266.02287581699 224.43945300000001 L 292.23202614379 224.928009 L 318.44117647059 226.696995 L 344.65032679738 224.441544 L 370.85947712418 224.861097 L 397.06862745098 224.861097" class="highcharts-graph" data-z-index="1" stroke="#007A2F" stroke-width="2" stroke-linejoin="round" stroke-linecap="round"></path></g><g data-z-index="0.1" class="highcharts-markers highcharts-series-1 highcharts-line-series " transform="translate(74,116) scale(1 1)" clip-path="none"></g><g data-z-index="0.1" class="highcharts-series highcharts-series-2 highcharts-line-series " transform="translate(74,116) scale(1 1)" clip-path="url(#highcharts-gsiz162-7)"><path fill="none" d="M 3.9313725490219 84.69976799999998 L 30.140522875819 103.05530399999998 L 56.349673202616 95.34861599999999 L 82.558823529413 124.580058 L 108.76797385621 133.44626699999998 L 134.97712418301 142.188984 L 161.1862745098 143.310621 L 187.3954248366 138.567003 L 213.6045751634 143.45662199999998 L 239.8137254902 148.62262199999998 L 266.02287581699 142.250115 L 292.23202614379 156.45919800000001 L 318.44117647059 165.511998 L 344.65032679738 166.679391 L 370.85947712418 168.529311 L 397.06862745098 166.531422" class="highcharts-graph" data-z-index="1" stroke="#4f81bd" stroke-width="2" stroke-linejoin="round" stroke-linecap="round"></path></g><g data-z-index="0.1" class="highcharts-markers highcharts-series-2 highcharts-line-series " transform="translate(74,116) scale(1 1)" clip-path="none"></g><g data-z-index="0.1" class="highcharts-series highcharts-series-3 highcharts-line-series " transform="translate(74,116) scale(1 1)" clip-path="url(#highcharts-gsiz162-7)"><path fill="none" d="M 3.9313725490219 93.37643399999999 L 30.140522875819 98.690034 L 56.349673202616 31.347533999999996 L 82.558823529413 98.03604299999998 L 108.76797385621 81.914187 L 134.97712418301 73.82693699999999 L 161.1862745098 86.66998199999998 L 187.3954248366 43.362911999999994 L 213.6045751634 88.621746 L 239.8137254902 86.550918 L 266.02287581699 84.44589599999998 L 292.23202614379 81.63140999999999 L 318.44117647059 90.49872599999998 L 344.65032679738 80.553069 L 370.85947712418 76.89258899999999 L 397.06862745098 62.98706999999999" class="highcharts-graph" data-z-index="1" stroke="#662673" stroke-width="2" stroke-linejoin="round" stroke-linecap="round"></path></g><g data-z-index="0.1" class="highcharts-markers highcharts-series-3 highcharts-line-series " transform="translate(74,116) scale(1 1)" clip-path="none"></g><g data-z-index="0.1" class="highcharts-series highcharts-series-4 highcharts-line-series " transform="translate(74,116) scale(1 1)" clip-path="url(#highcharts-gsiz162-7)"><path fill="none" d="M 3.9313725490219 109.676763 L 30.140522875819 103.91052299999998 L 56.349673202616 97.824975 L 82.558823529413 98.216115 L 108.76797385621 96.17247 L 134.97712418301 90.10524899999999 L 161.1862745098 89.845473 L 187.3954248366 87.858408 L 213.6045751634 84.410472 L 239.8137254902 82.97666099999998 L 266.02287581699 86.73271199999999 L 292.23202614379 93.95551799999998 L 318.44117647059 102.96391499999999 L 344.65032679738 101.11522499999998 L 370.85947712418 89.77314899999999" class="highcharts-graph" data-z-index="1" stroke="#FABD24" stroke-width="2" stroke-linejoin="round" stroke-linecap="round"></path></g><g data-z-index="0.1" class="highcharts-markers highcharts-series-4 highcharts-line-series " transform="translate(74,116) scale(1 1)" clip-path="none"></g></g><text x="10" text-anchor="start" class="highcharts-title" data-z-index="4" style="color:#000000;font-size:14px;font-weight:bold;fill:#000000;" y="21"><tspan>Anzahl Besuche in Theater, Kinos und Museen</tspan></text><text x="10" text-anchor="start" class="highcharts-subtitle" data-z-index="4" style="color:#000000;font-size:12px;font-weight:normal;font-family:Arial;fill:#000000;" y="40"><tspan>Basel-Stadt</tspan></text><g class="highcharts-legend" data-z-index="7" transform="translate(66,55)"><rect fill="none" class="highcharts-legend-box" rx="0" ry="0" x="0" y="0" width="356" height="49" visibility="visible"></rect><g data-z-index="1"><g><g class="highcharts-legend-item highcharts-line-series highcharts-color-undefined highcharts-series-0" data-z-index="1" transform="translate(8,3)"><path fill="none" d="M 0 11 L 16 11" class="highcharts-graph" stroke="#B00000" stroke-width="2"></path><text x="21" style="color:#333333;font-size:12px;font-weight:normal;cursor:pointer;fill:#333333;" text-anchor="start" data-z-index="2" y="15"><tspan>Theater</tspan></text></g><g class="highcharts-legend-item highcharts-line-series highcharts-color-undefined highcharts-series-1" data-z-index="1" transform="translate(128,3)"><path fill="none" d="M 0 11 L 16 11" class="highcharts-graph" stroke="#007A2F" stroke-width="2"></path><text x="21" y="15" style="color:#333333;font-size:12px;font-weight:normal;cursor:pointer;fill:#333333;" text-anchor="start" data-z-index="2"><tspan>Kleintheater</tspan></text></g><g class="highcharts-legend-item highcharts-line-series highcharts-color-undefined highcharts-series-2" data-z-index="1" transform="translate(248,3)"><path fill="none" d="M 0 11 L 16 11" class="highcharts-graph" stroke="#4f81bd" stroke-width="2"></path><text x="21" y="15" style="color:#333333;font-size:12px;font-weight:normal;cursor:pointer;fill:#333333;" text-anchor="start" data-z-index="2"><tspan>Kinos</tspan></text></g><g class="highcharts-legend-item highcharts-line-series highcharts-color-undefined highcharts-series-3" data-z-index="1" transform="translate(8,22)"><path fill="none" d="M 0 11 L 16 11" class="highcharts-graph" stroke="#662673" stroke-width="2"></path><text x="21" y="15" style="color:#333333;font-size:12px;font-weight:normal;cursor:pointer;fill:#333333;" text-anchor="start" data-z-index="2"><tspan>Museen</tspan></text></g><g class="highcharts-legend-item highcharts-line-series highcharts-color-undefined highcharts-series-4" data-z-index="1" transform="translate(128,22)"><path fill="none" d="M 0 11 L 16 11" class="highcharts-graph" stroke="#FABD24" stroke-width="2"></path><text x="21" y="15" style="color:#333333;font-size:12px;font-weight:normal;cursor:pointer;fill:#333333;" text-anchor="start" data-z-index="2"><tspan>Stadtbibliothek</tspan></text></g></g></g></g><g class="highcharts-axis-labels highcharts-xaxis-labels " data-z-index="7"><text x="77.931372549022" style="color:#000000;cursor:default;font-size:11px;fill:#000000;" text-anchor="middle" transform="translate(0,0)" y="381" opacity="1">2002</text><text x="130.34967320262" style="color:#000000;cursor:default;font-size:11px;fill:#000000;" text-anchor="middle" transform="translate(0,0)" y="381" opacity="1">2004</text><text x="182.76797385621" style="color:#000000;cursor:default;font-size:11px;fill:#000000;" text-anchor="middle" transform="translate(0,0)" y="381" opacity="1">2006</text><text x="235.1862745098" style="color:#000000;cursor:default;font-size:11px;fill:#000000;" text-anchor="middle" transform="translate(0,0)" y="381" opacity="1">2008</text><text x="287.6045751634" style="color:#000000;cursor:default;font-size:11px;fill:#000000;" text-anchor="middle" transform="translate(0,0)" y="381" opacity="1">2010</text><text x="340.02287581699" style="color:#000000;cursor:default;font-size:11px;fill:#000000;" text-anchor="middle" transform="translate(0,0)" y="381" opacity="1">2012</text><text x="392.44117647059" style="color:#000000;cursor:default;font-size:11px;fill:#000000;" text-anchor="middle" transform="translate(0,0)" y="381" opacity="1">2014</text><text x="444.85947712418" style="color:#000000;cursor:default;font-size:11px;fill:#000000;" text-anchor="middle" transform="translate(0,0)" y="381" opacity="1">2016</text></g><g class="highcharts-axis-labels highcharts-yaxis-labels " data-z-index="7"><text x="59" style="color:#000000;cursor:default;font-size:11px;fill:#000000;" text-anchor="end" transform="translate(0,0)" y="367" opacity="1">0</text><text x="59" style="color:#000000;cursor:default;font-size:11px;fill:#000000;" text-anchor="end" transform="translate(0,0)" y="305" opacity="1"><tspan>500 000</tspan></text><text x="59" style="color:#000000;cursor:default;font-size:11px;fill:#000000;" text-anchor="end" transform="translate(0,0)" y="244" opacity="1"><tspan>1 000 000</tspan></text><text x="59" style="color:#000000;cursor:default;font-size:11px;fill:#000000;" text-anchor="end" transform="translate(0,0)" y="182" opacity="1"><tspan>1 500 000</tspan></text><text x="59" style="color:#000000;cursor:default;font-size:11px;fill:#000000;" text-anchor="end" transform="translate(0,0)" y="121" opacity="1"><tspan>2 000 000</tspan></text></g><text x="10" class="highcharts-credits" text-anchor="start" data-z-index="8" style="cursor:default;color:#000000;font-size:10px;fill:#000000;" y="423"><tspan>Quelle: Jeweilige Institutionen;</tspan><tspan x="10" dy="13">ProCinema.</tspan><tspan x="10" dy="13">Zuletzt geändert: 2018-9-5</tspan></text></svg>