<?xml version="1.0" standalone="no"?><!DOCTYPE svg PUBLIC "-//W3C//DTD SVG 1.1//EN" "http://www.w3.org/Graphics/SVG/1.1/DTD/svg11.dtd"><svg xmlns:xlink="http://www.w3.org/1999/xlink" version="1.1" class="highcharts-root" style="font-family:&quot;Lucida Grande&quot;, &quot;Lucida Sans Unicode&quot;, Arial, Helvetica, sans-serif;font-size:12px;" xmlns="http://www.w3.org/2000/svg" viewBox="0 0 485 415"><desc>Created with Highstock 6.1.0</desc><defs><clipPath id="highcharts-gygjnbb-10"><rect x="0" y="0" width="428" height="199" fill="none"></rect></clipPath><clipPath id="highcharts-gygjnbb-11"><rect x="0" y="0" width="428" height="199" fill="none"></rect></clipPath><clipPath id="highcharts-gygjnbb-12"><rect x="0" y="0" width="400" height="40" fill="none"></rect></clipPath></defs><rect fill="#fbfbfb" class="highcharts-background" x="0" y="0" width="485" height="415" rx="0" ry="0"></rect><rect fill="none" class="highcharts-plot-background" x="47" y="53" width="428" height="199"></rect><g class="highcharts-label" style="cursor:pointer;" transform="translate(10,451)"><text x="0" y="0"><tspan>&gt; Indikator-Details</tspan></text></g><g class="highcharts-label" style="cursor:pointer;" transform="translate(10,451)"><text x="0" y="0"><tspan>&gt; Indikator-Details</tspan></text></g><g class="highcharts-pane-group"></g><g class="highcharts-grid highcharts-xaxis-grid "><path fill="none" class="highcharts-grid-line" d="M 73.5 53 L 73.5 252" opacity="1"></path><path fill="none" class="highcharts-grid-line" d="M 100.5 53 L 100.5 252" opacity="1"></path><path fill="none" class="highcharts-grid-line" d="M 126.5 53 L 126.5 252" opacity="1"></path><path fill="none" class="highcharts-grid-line" d="M 153.5 53 L 153.5 252" opacity="1"></path><path fill="none" class="highcharts-grid-line" d="M 180.5 53 L 180.5 252" opacity="1"></path><path fill="none" class="highcharts-grid-line" d="M 207.5 53 L 207.5 252" opacity="1"></path><path fill="none" class="highcharts-grid-line" d="M 233.5 53 L 233.5 252" opacity="1"></path><path fill="none" class="highcharts-grid-line" d="M 260.5 53 L 260.5 252" opacity="1"></path><path fill="none" class="highcharts-grid-line" d="M 287.5 53 L 287.5 252" opacity="1"></path><path fill="none" class="highcharts-grid-line" d="M 314.5 53 L 314.5 252" opacity="1"></path><path fill="none" class="highcharts-grid-line" d="M 340.5 53 L 340.5 252" opacity="1"></path><path fill="none" class="highcharts-grid-line" d="M 367.5 53 L 367.5 252" opacity="1"></path><path fill="none" class="highcharts-grid-line" d="M 394.5 53 L 394.5 252" opacity="1"></path><path fill="none" class="highcharts-grid-line" d="M 421.5 53 L 421.5 252" opacity="1"></path><path fill="none" class="highcharts-grid-line" d="M 447.5 53 L 447.5 252" opacity="1"></path><path fill="none" class="highcharts-grid-line" d="M 474.5 53 L 474.5 252" opacity="1"></path></g><g class="highcharts-grid highcharts-xaxis-grid highcharts-navigator-xaxis"><path fill="none" class="highcharts-grid-line" d="M 60.5 311 L 60.5 351" opacity="1"></path><path fill="none" class="highcharts-grid-line" d="M 260.5 311 L 260.5 351" opacity="1"></path><path fill="none" class="highcharts-grid-line" d="M 460.5 311 L 460.5 351" opacity="1"></path></g><g class="highcharts-grid highcharts-yaxis-grid "><path fill="none" stroke="#e6e6e6" stroke-width="1" class="highcharts-grid-line" d="M 47 252.5 L 475 252.5" opacity="1"></path><path fill="none" stroke="#e6e6e6" stroke-width="1" class="highcharts-grid-line" d="M 47 186.5 L 475 186.5" opacity="1"></path><path fill="none" stroke="#e6e6e6" stroke-width="1" class="highcharts-grid-line" d="M 47 119.5 L 475 119.5" opacity="1"></path><path fill="none" stroke="#e6e6e6" stroke-width="1" class="highcharts-grid-line" d="M 47 52.5 L 475 52.5" opacity="1"></path></g><g class="highcharts-grid highcharts-yaxis-grid "></g><g class="highcharts-grid highcharts-yaxis-grid highcharts-navigator-yaxis"><path fill="none" class="highcharts-grid-line" d="M 61 329.5 L 461 329.5" opacity="1"></path></g><rect fill="none" class="highcharts-plot-border" x="47" y="53" width="428" height="199"></rect><g class="highcharts-axis highcharts-xaxis "><path fill="none" class="highcharts-axis-line" stroke="#ccd6eb" stroke-width="1" d="M 47 252.5 L 475 252.5"></path></g><g class="highcharts-axis highcharts-xaxis highcharts-navigator-xaxis"><path fill="none" class="highcharts-axis-line" d="M 61 351 L 461 351"></path></g><g class="highcharts-axis highcharts-yaxis "><path fill="none" class="highcharts-axis-line" d="M 47 53 L 47 252"></path></g><g class="highcharts-axis highcharts-yaxis "><path fill="none" class="highcharts-axis-line" d="M 475 53 L 475 252"></path></g><g class="highcharts-axis highcharts-yaxis highcharts-navigator-yaxis"><path fill="none" class="highcharts-axis-line" d="M 47 311 L 47 351"></path></g><g class="highcharts-scrollbar" transform="translate(47,352)"><rect fill="#f2f2f2" class="highcharts-scrollbar-track" x="0" rx="0" ry="0" height="14" width="428" stroke="#f2f2f2" stroke-width="1" y="-0.5"></rect><g transform="translate(114,-0.5)"><rect fill="#cccccc" class="highcharts-scrollbar-thumb" height="14" width="300" rx="0" ry="0" stroke="#cccccc" stroke-width="1"></rect><path fill="none" d="M -3 3.5 L -3 9.333333333333334 M 0 3.5 L 0 9.333333333333334 M 3 3.5 L 3 9.333333333333334" class="highcharts-scrollbar-rifles" stroke="#333333" stroke-width="1" transform="translate(149.5,0)"></path></g><g><rect fill="#e6e6e6" class="highcharts-scrollbar-button" stroke="#cccccc" stroke-width="1" x="-0.5" y="-0.5" width="14" height="14" rx="0" ry="0"></rect><path fill="#333333" d="M 8 4 L 8 10 L 5 7" class="highcharts-scrollbar-arrow"></path></g><g transform="translate(414,0)"><rect fill="#e6e6e6" class="highcharts-scrollbar-button" stroke="#cccccc" stroke-width="1" x="-0.5" y="-0.5" width="14" height="14" rx="0" ry="0"></rect><path fill="#333333" d="M 6 4 L 6 10 L 9 7" class="highcharts-scrollbar-arrow"></path></g></g><g class="highcharts-series-group"><g class="highcharts-series highcharts-series-0 highcharts-column-series " transform="translate(47,53) scale(1 1)" clip-path="url(#highcharts-gygjnbb-11)"><rect x="-127" y="108" width="13" height="92" fill="#FF8028" class="highcharts-point"></rect><rect x="-100" y="112" width="13" height="88" fill="#FF8028" class="highcharts-point"></rect><rect x="-73" y="114" width="13" height="86" fill="#FF8028" class="highcharts-point"></rect><rect x="-47" y="122" width="13" height="78" fill="#FF8028" class="highcharts-point"></rect><rect x="-20" y="127" width="13" height="73" fill="#FF8028" class="highcharts-point"></rect><rect x="7" y="106" width="13" height="94" fill="#FF8028" class="highcharts-point"></rect><rect x="34" y="112" width="13" height="88" fill="#FF8028" class="highcharts-point"></rect><rect x="60" y="106" width="13" height="94" fill="#FF8028" class="highcharts-point"></rect><rect x="87" y="105" width="13" height="95" fill="#FF8028" class="highcharts-point"></rect><rect x="114" y="72" width="13" height="128" fill="#FF8028" class="highcharts-point"></rect><rect x="141" y="70" width="13" height="130" fill="#FF8028" class="highcharts-point"></rect><rect x="167" y="75" width="13" height="125" fill="#FF8028" class="highcharts-point"></rect><rect x="194" y="84" width="13" height="116" fill="#FF8028" class="highcharts-point"></rect><rect x="221" y="84" width="13" height="116" fill="#FF8028" class="highcharts-point"></rect><rect x="248" y="87" width="13" height="113" fill="#FF8028" class="highcharts-point"></rect><rect x="274" y="58" width="13" height="142" fill="#FF8028" class="highcharts-point"></rect><rect x="301" y="54" width="13" height="146" fill="#FF8028" class="highcharts-point"></rect><rect x="328" y="44" width="13" height="156" fill="#FF8028" class="highcharts-point"></rect><rect x="355" y="54" width="13" height="146" fill="#FF8028" class="highcharts-point"></rect><rect x="381" y="20" width="13" height="180" fill="#FF8028" class="highcharts-point"></rect><rect x="408" y="20" width="13" height="180" fill="#FF8028" class="highcharts-point"></rect></g><g class="highcharts-markers highcharts-series-0 highcharts-column-series " transform="translate(47,53) scale(1 1)" clip-path="none"></g><g class="highcharts-series highcharts-series-1 highcharts-column-series highcharts-navigator-series" transform="translate(61,311) scale(1 1)" clip-path="url(#highcharts-gygjnbb-12)"><rect x="-5" y="32" width="10" height="9" fill="#FF8028" class="highcharts-point"></rect><rect x="15" y="33" width="10" height="8" fill="#FF8028" class="highcharts-point"></rect><rect x="35" y="34" width="10" height="7" fill="#FF8028" class="highcharts-point"></rect><rect x="55" y="36" width="10" height="5" fill="#FF8028" class="highcharts-point"></rect><rect x="75" y="38" width="10" height="3" fill="#FF8028" class="highcharts-point"></rect><rect x="95" y="31" width="10" height="10" fill="#FF8028" class="highcharts-point"></rect><rect x="115" y="33" width="10" height="8" fill="#FF8028" class="highcharts-point"></rect><rect x="135" y="31" width="10" height="10" fill="#FF8028" class="highcharts-point"></rect><rect x="155" y="31" width="10" height="10" fill="#FF8028" class="highcharts-point"></rect><rect x="175" y="21" width="10" height="20" fill="#FF8028" class="highcharts-point"></rect><rect x="195" y="20" width="10" height="21" fill="#FF8028" class="highcharts-point"></rect><rect x="215" y="21" width="10" height="20" fill="#FF8028" class="highcharts-point"></rect><rect x="235" y="24" width="10" height="17" fill="#FF8028" class="highcharts-point"></rect><rect x="255" y="24" width="10" height="17" fill="#FF8028" class="highcharts-point"></rect><rect x="275" y="25" width="10" height="16" fill="#FF8028" class="highcharts-point"></rect><rect x="295" y="16" width="10" height="25" fill="#FF8028" class="highcharts-point"></rect><rect x="315" y="15" width="10" height="26" fill="#FF8028" class="highcharts-point"></rect><rect x="335" y="12" width="10" height="29" fill="#FF8028" class="highcharts-point"></rect><rect x="355" y="15" width="10" height="26" fill="#FF8028" class="highcharts-point"></rect><rect x="375" y="4" width="10" height="37" fill="#FF8028" class="highcharts-point"></rect><rect x="395" y="5" width="10" height="36" fill="#FF8028" class="highcharts-point"></rect></g><g class="highcharts-markers highcharts-series-1 highcharts-column-series highcharts-navigator-series" transform="translate(61,311) scale(1 1)" clip-path="none"></g></g><text x="10" text-anchor="start" class="highcharts-title" style="color:#000000;font-size:1.1em;font-weight:bold;fill:#000000;" y="20"><tspan>Anteil biologisch bewirtschafteter Landwirtschaftsfläche</tspan></text><text x="10" text-anchor="start" class="highcharts-subtitle" style="color:#000000;font-size:0.9em;fill:#000000;" y="38"><tspan>Prozent</tspan></text><g class="highcharts-legend"><rect fill="none" class="highcharts-legend-box" rx="0" ry="0" x="0" y="0" width="12" height="12" visibility="hidden"></rect><g><g></g></g></g><g class="highcharts-axis-labels highcharts-xaxis-labels "><text x="62.96772486435067" style="color:#000000;cursor:default;font-size:0.9em;fill:#000000;" text-anchor="end" transform="translate(0,0) rotate(-45 62.96772486435067 268)" y="268" opacity="1">2001</text><text x="89.71772486435067" style="color:#000000;cursor:default;font-size:0.9em;fill:#000000;" text-anchor="end" transform="translate(0,0) rotate(-45 89.71772486435067 268)" y="268" opacity="1">2002</text><text x="116.46772486435069" style="color:#000000;cursor:default;font-size:0.9em;fill:#000000;" text-anchor="end" transform="translate(0,0) rotate(-45 116.46772486435069 268)" y="268" opacity="1">2003</text><text x="143.21772486435069" style="color:#000000;cursor:default;font-size:0.9em;fill:#000000;" text-anchor="end" transform="translate(0,0) rotate(-45 143.21772486435069 268)" y="268" opacity="1">2004</text><text x="169.96772486435069" style="color:#000000;cursor:default;font-size:0.9em;fill:#000000;" text-anchor="end" transform="translate(0,0) rotate(-45 169.96772486435069 268)" y="268" opacity="1">2005</text><text x="196.71772486435069" style="color:#000000;cursor:default;font-size:0.9em;fill:#000000;" text-anchor="end" transform="translate(0,0) rotate(-45 196.71772486435069 268)" y="268" opacity="1">2006</text><text x="223.46772486435069" style="color:#000000;cursor:default;font-size:0.9em;fill:#000000;" text-anchor="end" transform="translate(0,0) rotate(-45 223.46772486435069 268)" y="268" opacity="1">2007</text><text x="250.21772486435066" style="color:#000000;cursor:default;font-size:0.9em;fill:#000000;" text-anchor="end" transform="translate(0,0) rotate(-45 250.21772486435066 268)" y="268" opacity="1">2008</text><text x="276.96772486435066" style="color:#000000;cursor:default;font-size:0.9em;fill:#000000;" text-anchor="end" transform="translate(0,0) rotate(-45 276.96772486435066 268)" y="268" opacity="1">2009</text><text x="303.71772486435066" style="color:#000000;cursor:default;font-size:0.9em;fill:#000000;" text-anchor="end" transform="translate(0,0) rotate(-45 303.71772486435066 268)" y="268" opacity="1">2010</text><text x="330.46772486435066" style="color:#000000;cursor:default;font-size:0.9em;fill:#000000;" text-anchor="end" transform="translate(0,0) rotate(-45 330.46772486435066 268)" y="268" opacity="1">2011</text><text x="357.21772486435066" style="color:#000000;cursor:default;font-size:0.9em;fill:#000000;" text-anchor="end" transform="translate(0,0) rotate(-45 357.21772486435066 268)" y="268" opacity="1">2012</text><text x="383.96772486435066" style="color:#000000;cursor:default;font-size:0.9em;fill:#000000;" text-anchor="end" transform="translate(0,0) rotate(-45 383.96772486435066 268)" y="268" opacity="1">2013</text><text x="410.71772486435066" style="color:#000000;cursor:default;font-size:0.9em;fill:#000000;" text-anchor="end" transform="translate(0,0) rotate(-45 410.71772486435066 268)" y="268" opacity="1">2014</text><text x="437.46772486435066" style="color:#000000;cursor:default;font-size:0.9em;fill:#000000;" text-anchor="end" transform="translate(0,0) rotate(-45 437.46772486435066 268)" y="268" opacity="1">2015</text><text x="464.21772486435066" style="color:#000000;cursor:default;font-size:0.9em;fill:#000000;" text-anchor="end" transform="translate(0,0) rotate(-45 464.21772486435066 268)" y="268" opacity="1">2016</text></g><g class="highcharts-axis-labels highcharts-xaxis-labels highcharts-navigator-xaxis"></g><g class="highcharts-axis-labels highcharts-yaxis-labels "><text x="32" style="color:#000000;cursor:default;font-size:0.9em;fill:#000000;" text-anchor="end" transform="translate(0,0)" y="257" opacity="1">0%</text><text x="32" style="color:#000000;cursor:default;font-size:0.9em;fill:#000000;" text-anchor="end" transform="translate(0,0)" y="190" opacity="1">10%</text><text x="32" style="color:#000000;cursor:default;font-size:0.9em;fill:#000000;" text-anchor="end" transform="translate(0,0)" y="124" opacity="1">20%</text><text x="32" style="color:#000000;cursor:default;font-size:0.9em;fill:#000000;" text-anchor="end" transform="translate(0,0)" y="58" opacity="1">30%</text></g><g class="highcharts-axis-labels highcharts-yaxis-labels "></g><g class="highcharts-axis-labels highcharts-yaxis-labels highcharts-navigator-yaxis"></g><g class="highcharts-navigator" visibility="visible"><rect fill="rgb(0,0,0)" fill-opacity="0" class="highcharts-navigator-mask-outside" x="61" y="311" width="100" height="40"></rect><rect fill="rgb(102,133,194)" fill-opacity="0.3" class="highcharts-navigator-mask-inside" style="cursor:ew-resize;" x="161" y="311" width="300" height="40"></rect><rect fill="rgb(0,0,0)" fill-opacity="0" class="highcharts-navigator-mask-outside" x="461" y="311" width="0" height="40"></rect><path fill="none" class="highcharts-navigator-outline" stroke="#cccccc" stroke-width="1" d="M 47 311.5 L 160.5 311.5 L 160.5 365.5 L 460.5 365.5 L 460.5 311.5 L 475 311.5 M 160 311.5 L 461 311.5"></path><path fill="#f2f2f2" d="M -4.5 0.5 L 3.5 0.5 L 3.5 15.5 L -4.5 15.5 L -4.5 0.5 M -1.5 4 L -1.5 12 M 0.5 4 L 0.5 12" class="highcharts-navigator-handle highcharts-navigator-handle-right" stroke="#999999" stroke-width="1" style="cursor:ew-resize;" transform="translate(461,323)"></path><path fill="#f2f2f2" d="M -4.5 0.5 L 3.5 0.5 L 3.5 15.5 L -4.5 15.5 L -4.5 0.5 M -1.5 4 L -1.5 12 M 0.5 4 L 0.5 12" class="highcharts-navigator-handle highcharts-navigator-handle-left" stroke="#999999" stroke-width="1" style="cursor:ew-resize;" transform="translate(161,323)"></path></g><text x="10" class="highcharts-credits" text-anchor="start" style="cursor:default;color:#000000;font-size:0.8em;fill:#000000;" y="400"><tspan>Quelle: Bundesamt für Statistik, Landwirtschaftliche Strukturerhebung</tspan></text></svg>