<?xml version="1.0" standalone="no"?><!DOCTYPE svg PUBLIC "-//W3C//DTD SVG 1.1//EN" "http://www.w3.org/Graphics/SVG/1.1/DTD/svg11.dtd"><svg xmlns:xlink="http://www.w3.org/1999/xlink" version="1.1" class="highcharts-root" style="font-family:&quot;Lucida Grande&quot;, &quot;Lucida Sans Unicode&quot;, Arial, Helvetica, sans-serif;font-size:12px;" xmlns="http://www.w3.org/2000/svg" viewBox="0 0 485 415"><desc>Created with Highcharts 8.2.0</desc><defs><clipPath id="highcharts-f04uk8o-76-"><rect x="0" y="0" width="423" height="217" fill="none"></rect></clipPath><clipPath id="highcharts-f04uk8o-94-"><rect x="0" y="0" width="423" height="217" fill="none"></rect></clipPath><clipPath id="highcharts-f04uk8o-146-"><rect x="52" y="110" width="423" height="217" fill="none"></rect></clipPath></defs><rect fill="#fbfbfb" class="highcharts-background" x="0" y="0" width="485" height="415" rx="0" ry="0"></rect><rect fill="none" class="highcharts-plot-background" x="52" y="110" width="423" height="217"></rect><g class="highcharts-label" transform="translate(10,449)"><text x="0" data-z-index="1" style="cursor:pointer;" y="0"><tspan>&gt; Indikator-Details</tspan></text></g><g class="highcharts-label" transform="translate(10,449)"><text x="0" data-z-index="1" style="cursor:pointer;" y="0"><tspan>&gt; Indikator-Details</tspan></text></g><g class="highcharts-pane-group" data-z-index="0"></g><g class="highcharts-plot-lines-0" data-z-index="0"><path fill="none" class="highcharts-plot-line "></path><path fill="none" class="highcharts-plot-line "></path><path fill="none" class="highcharts-plot-line "></path><path fill="none" class="highcharts-plot-line "></path><path fill="none" class="highcharts-plot-line "></path><path fill="none" class="highcharts-plot-line "></path><path fill="none" class="highcharts-plot-line "></path><path fill="none" class="highcharts-plot-line "></path><path fill="none" class="highcharts-plot-line "></path><path fill="none" class="highcharts-plot-line "></path><path fill="none" class="highcharts-plot-line "></path></g><g class="highcharts-plot-lines-0" data-z-index="0"><path fill="none" class="highcharts-plot-line "></path><path fill="none" class="highcharts-plot-line "></path><path fill="none" class="highcharts-plot-line "></path><path fill="none" class="highcharts-plot-line "></path><path fill="none" class="highcharts-plot-line "></path><path fill="none" class="highcharts-plot-line "></path><path fill="none" class="highcharts-plot-line "></path><path fill="none" class="highcharts-plot-line "></path><path fill="none" class="highcharts-plot-line "></path><path fill="none" class="highcharts-plot-line "></path><path fill="none" class="highcharts-plot-line "></path></g><g class="highcharts-grid highcharts-xaxis-grid" data-z-index="1"><path fill="none" data-z-index="1" class="highcharts-grid-line" d="M 76.5 110 L 76.5 327" opacity="1"></path><path fill="none" data-z-index="1" class="highcharts-grid-line" d="M 101.5 110 L 101.5 327" opacity="1"></path><path fill="none" data-z-index="1" class="highcharts-grid-line" d="M 126.5 110 L 126.5 327" opacity="1"></path><path fill="none" data-z-index="1" class="highcharts-grid-line" d="M 151.5 110 L 151.5 327" opacity="1"></path><path fill="none" data-z-index="1" class="highcharts-grid-line" d="M 175.5 110 L 175.5 327" opacity="1"></path><path fill="none" data-z-index="1" class="highcharts-grid-line" d="M 200.5 110 L 200.5 327" opacity="1"></path><path fill="none" data-z-index="1" class="highcharts-grid-line" d="M 225.5 110 L 225.5 327" opacity="1"></path><path fill="none" data-z-index="1" class="highcharts-grid-line" d="M 250.5 110 L 250.5 327" opacity="1"></path><path fill="none" data-z-index="1" class="highcharts-grid-line" d="M 275.5 110 L 275.5 327" opacity="1"></path><path fill="none" data-z-index="1" class="highcharts-grid-line" d="M 300.5 110 L 300.5 327" opacity="1"></path><path fill="none" data-z-index="1" class="highcharts-grid-line" d="M 325.5 110 L 325.5 327" opacity="1"></path><path fill="none" data-z-index="1" class="highcharts-grid-line" d="M 350.5 110 L 350.5 327" opacity="1"></path><path fill="none" data-z-index="1" class="highcharts-grid-line" d="M 374.5 110 L 374.5 327" opacity="1"></path><path fill="none" data-z-index="1" class="highcharts-grid-line" d="M 399.5 110 L 399.5 327" opacity="1"></path><path fill="none" data-z-index="1" class="highcharts-grid-line" d="M 424.5 110 L 424.5 327" opacity="1"></path><path fill="none" data-z-index="1" class="highcharts-grid-line" d="M 449.5 110 L 449.5 327" opacity="1"></path><path fill="none" data-z-index="1" class="highcharts-grid-line" d="M 474.5 110 L 474.5 327" opacity="1"></path><path fill="none" data-z-index="1" class="highcharts-grid-line" d="M 51.5 110 L 51.5 327" opacity="1"></path></g><g class="highcharts-grid highcharts-yaxis-grid" data-z-index="1"><path fill="none" stroke="#e6e6e6" stroke-width="1" data-z-index="1" class="highcharts-grid-line" d="M 52 327.5 L 475 327.5" opacity="1"></path><path fill="none" stroke="#e6e6e6" stroke-width="1" data-z-index="1" class="highcharts-grid-line" d="M 52 273.5 L 475 273.5" opacity="1"></path><path fill="none" stroke="#e6e6e6" stroke-width="1" data-z-index="1" class="highcharts-grid-line" d="M 52 219.5 L 475 219.5" opacity="1"></path><path fill="none" stroke="#e6e6e6" stroke-width="1" data-z-index="1" class="highcharts-grid-line" d="M 52 164.5 L 475 164.5" opacity="1"></path><path fill="none" stroke="#e6e6e6" stroke-width="1" data-z-index="1" class="highcharts-grid-line" d="M 52 109.5 L 475 109.5" opacity="1"></path></g><g class="highcharts-grid highcharts-yaxis-grid" data-z-index="1"></g><rect fill="none" class="highcharts-plot-border" data-z-index="1" x="52" y="110" width="423" height="217"></rect><g class="highcharts-axis highcharts-xaxis" data-z-index="2"><path fill="none" class="highcharts-axis-line" stroke="#ccd6eb" stroke-width="1" data-z-index="7" d="M 52 327.5 L 475 327.5"></path></g><g class="highcharts-axis highcharts-yaxis" data-z-index="2"><path fill="none" class="highcharts-axis-line" data-z-index="7" d="M 52 110 L 52 327"></path></g><g class="highcharts-axis highcharts-yaxis" data-z-index="2"><path fill="none" class="highcharts-axis-line" data-z-index="7" d="M 475 110 L 475 327"></path></g><g class="highcharts-series-group" data-z-index="3"><g class="highcharts-series highcharts-series-0 highcharts-column-series" data-z-index="0.1" opacity="1" transform="translate(52,110) scale(1 1)" clip-path="url(#highcharts-f04uk8o-94-)"><rect x="6" y="95" width="12" height="58" fill="#73B97C" opacity="1" class="highcharts-point"></rect><rect x="31" y="89" width="12" height="55" fill="#73B97C" opacity="1" class="highcharts-point"></rect><rect x="56" y="86" width="12" height="57" fill="#73B97C" opacity="1" class="highcharts-point"></rect><rect x="81" y="77" width="12" height="62" fill="#73B97C" opacity="1" class="highcharts-point"></rect><rect x="106" y="74" width="12" height="58" fill="#73B97C" opacity="1" class="highcharts-point"></rect><rect x="131" y="71" width="12" height="48" fill="#73B97C" opacity="1" class="highcharts-point"></rect><rect x="156" y="70" width="12" height="43" fill="#73B97C" opacity="1" class="highcharts-point"></rect><rect x="181" y="65" width="12" height="46" fill="#73B97C" opacity="1" class="highcharts-point"></rect><rect x="206" y="63" width="12" height="46" fill="#73B97C" opacity="1" class="highcharts-point"></rect><rect x="230" y="77" width="12" height="32" fill="#73B97C" opacity="1" class="highcharts-point"></rect><rect x="255" y="74" width="12" height="41" fill="#73B97C" opacity="1" class="highcharts-point"></rect><rect x="280" y="84" width="12" height="39" fill="#73B97C" opacity="1" class="highcharts-point"></rect><rect x="305" y="84" width="12" height="41" fill="#73B97C" opacity="1" class="highcharts-point"></rect><rect x="330" y="80" width="12" height="40" fill="#73B97C" opacity="1" class="highcharts-point"></rect><rect x="355" y="80" width="12" height="40" fill="#73B97C" opacity="1" class="highcharts-point"></rect><rect x="380" y="79" width="12" height="37" fill="#73B97C" opacity="1" class="highcharts-point"></rect><rect x="405" y="82" width="12" height="38" fill="#73B97C" opacity="1" class="highcharts-point"></rect></g><g class="highcharts-markers highcharts-series-0 highcharts-column-series" data-z-index="0.1" opacity="1" transform="translate(52,110) scale(1 1)" clip-path="none"></g><g class="highcharts-series highcharts-series-1 highcharts-column-series" data-z-index="0.1" opacity="1" transform="translate(52,110) scale(1 1)" clip-path="url(#highcharts-f04uk8o-94-)"><rect x="6" y="153" width="12" height="20" fill="#68AB2B" opacity="1" class="highcharts-point"></rect><rect x="31" y="144" width="12" height="22" fill="#68AB2B" opacity="1" class="highcharts-point"></rect><rect x="56" y="143" width="12" height="21" fill="#68AB2B" opacity="1" class="highcharts-point"></rect><rect x="81" y="139" width="12" height="31" fill="#68AB2B" opacity="1" class="highcharts-point"></rect><rect x="106" y="132" width="12" height="27" fill="#68AB2B" opacity="1" class="highcharts-point"></rect><rect x="131" y="119" width="12" height="18" fill="#68AB2B" opacity="1" class="highcharts-point"></rect><rect x="156" y="113" width="12" height="21" fill="#68AB2B" opacity="1" class="highcharts-point"></rect><rect x="181" y="111" width="12" height="22" fill="#68AB2B" opacity="1" class="highcharts-point"></rect><rect x="206" y="109" width="12" height="19" fill="#68AB2B" opacity="1" class="highcharts-point"></rect><rect x="230" y="109" width="12" height="20" fill="#68AB2B" opacity="1" class="highcharts-point"></rect><rect x="255" y="115" width="12" height="19" fill="#68AB2B" opacity="1" class="highcharts-point"></rect><rect x="280" y="123" width="12" height="19" fill="#68AB2B" opacity="1" class="highcharts-point"></rect><rect x="305" y="125" width="12" height="14" fill="#68AB2B" opacity="1" class="highcharts-point"></rect><rect x="330" y="120" width="12" height="13" fill="#68AB2B" opacity="1" class="highcharts-point"></rect><rect x="355" y="120" width="12" height="15" fill="#68AB2B" opacity="1" class="highcharts-point"></rect><rect x="380" y="116" width="12" height="14" fill="#68AB2B" opacity="1" class="highcharts-point"></rect><rect x="405" y="120" width="12" height="16" fill="#68AB2B" opacity="1" class="highcharts-point"></rect></g><g class="highcharts-markers highcharts-series-1 highcharts-column-series" data-z-index="0.1" opacity="1" transform="translate(52,110) scale(1 1)" clip-path="none"></g><g class="highcharts-series highcharts-series-2 highcharts-column-series" data-z-index="0.1" opacity="1" transform="translate(52,110) scale(1 1)" clip-path="url(#highcharts-f04uk8o-94-)"><rect x="6" y="173" width="12" height="45" fill="#007A2F" opacity="1" class="highcharts-point"></rect><rect x="31" y="166" width="12" height="52" fill="#007A2F" opacity="1" class="highcharts-point"></rect><rect x="56" y="164" width="12" height="54" fill="#007A2F" opacity="1" class="highcharts-point"></rect><rect x="81" y="170" width="12" height="48" fill="#007A2F" opacity="1" class="highcharts-point"></rect><rect x="106" y="159" width="12" height="59" fill="#007A2F" opacity="1" class="highcharts-point"></rect><rect x="131" y="137" width="12" height="81" fill="#007A2F" opacity="1" class="highcharts-point"></rect><rect x="156" y="134" width="12" height="84" fill="#007A2F" opacity="1" class="highcharts-point"></rect><rect x="181" y="133" width="12" height="85" fill="#007A2F" opacity="1" class="highcharts-point"></rect><rect x="206" y="128" width="12" height="90" fill="#007A2F" opacity="1" class="highcharts-point"></rect><rect x="230" y="129" width="12" height="89" fill="#007A2F" opacity="1" class="highcharts-point"></rect><rect x="255" y="134" width="12" height="84" fill="#007A2F" opacity="1" class="highcharts-point"></rect><rect x="280" y="142" width="12" height="76" fill="#007A2F" opacity="1" class="highcharts-point"></rect><rect x="305" y="139" width="12" height="79" fill="#007A2F" opacity="1" class="highcharts-point"></rect><rect x="330" y="133" width="12" height="85" fill="#007A2F" opacity="1" class="highcharts-point"></rect><rect x="355" y="135" width="12" height="83" fill="#007A2F" opacity="1" class="highcharts-point"></rect><rect x="380" y="130" width="12" height="88" fill="#007A2F" opacity="1" class="highcharts-point"></rect><rect x="405" y="136" width="12" height="82" fill="#007A2F" opacity="1" class="highcharts-point"></rect></g><g class="highcharts-markers highcharts-series-2 highcharts-column-series" data-z-index="0.1" opacity="1" transform="translate(52,110) scale(1 1)" clip-path="none"></g><g class="highcharts-series highcharts-series-3 highcharts-column-series" data-z-index="0.1" opacity="1" transform="translate(52,110) scale(1 1)" clip-path="url(#highcharts-f04uk8o-94-)"><rect x="6" y="216" width="12" height="2" fill="#0A3B19" opacity="1" class="highcharts-point"></rect><rect x="31" y="216" width="12" height="2" fill="#0A3B19" opacity="1" class="highcharts-point"></rect><rect x="56" y="216" width="12" height="2" fill="#0A3B19" opacity="1" class="highcharts-point"></rect><rect x="81" y="216" width="12" height="2" fill="#0A3B19" opacity="1" class="highcharts-point"></rect><rect x="106" y="216" width="12" height="2" fill="#0A3B19" opacity="1" class="highcharts-point"></rect><rect x="131" y="216" width="12" height="2" fill="#0A3B19" opacity="1" class="highcharts-point"></rect><rect x="156" y="216" width="12" height="2" fill="#0A3B19" opacity="1" class="highcharts-point"></rect><rect x="181" y="216" width="12" height="2" fill="#0A3B19" opacity="1" class="highcharts-point"></rect><rect x="206" y="216" width="12" height="2" fill="#0A3B19" opacity="1" class="highcharts-point"></rect><rect x="230" y="216" width="12" height="2" fill="#0A3B19" opacity="1" class="highcharts-point"></rect><rect x="255" y="216" width="12" height="2" fill="#0A3B19" opacity="1" class="highcharts-point"></rect><rect x="280" y="216" width="12" height="2" fill="#0A3B19" opacity="1" class="highcharts-point"></rect><rect x="305" y="216" width="12" height="2" fill="#0A3B19" opacity="1" class="highcharts-point"></rect><rect x="330" y="216" width="12" height="2" fill="#0A3B19" opacity="1" class="highcharts-point"></rect><rect x="355" y="216" width="12" height="2" fill="#0A3B19" opacity="1" class="highcharts-point"></rect><rect x="380" y="216" width="12" height="2" fill="#0A3B19" opacity="1" class="highcharts-point"></rect><rect x="405" y="216" width="12" height="2" fill="#0A3B19" opacity="1" class="highcharts-point"></rect></g><g class="highcharts-markers highcharts-series-3 highcharts-column-series" data-z-index="0.1" opacity="1" transform="translate(52,110) scale(1 1)" clip-path="none"></g></g><text x="10" text-anchor="start" class="highcharts-title" data-z-index="4" style="color:#000000;font-size:1.1666em;font-weight:bold;fill:#000000;" y="21"><tspan>Holzernte nach Sortimenten</tspan></text><text x="10" text-anchor="start" class="highcharts-subtitle" data-z-index="4" style="color:#000000;font-size:1em;fill:#000000;" y="41"><tspan>Kubikmeter, Basel-Stadt und Basel-Landschaft</tspan></text><text x="10" text-anchor="start" class="highcharts-caption" data-z-index="4" style="color:#666666;fill:#666666;" y="377"></text><g class="highcharts-axis-labels highcharts-xaxis-labels" data-z-index="7"><text x="67.26960359533395" style="color:#000000;cursor:default;font-size:0.91666em;fill:#000000;" text-anchor="end" transform="translate(0,0) rotate(-45 67.26960359533395 343)" y="343" opacity="1">2004</text><text x="92.15195653650795" style="color:#000000;cursor:default;font-size:0.91666em;fill:#000000;" text-anchor="end" transform="translate(0,0) rotate(-45 92.15195653650795 343)" y="343" opacity="1">2005</text><text x="117.03430947768797" style="color:#000000;cursor:default;font-size:0.91666em;fill:#000000;" text-anchor="end" transform="translate(0,0) rotate(-45 117.03430947768797 343)" y="343" opacity="1">2006</text><text x="141.91666241886796" style="color:#000000;cursor:default;font-size:0.91666em;fill:#000000;" text-anchor="end" transform="translate(0,0) rotate(-45 141.91666241886796 343)" y="343" opacity="1">2007</text><text x="166.79901536003794" style="color:#000000;cursor:default;font-size:0.91666em;fill:#000000;" text-anchor="end" transform="translate(0,0) rotate(-45 166.79901536003794 343)" y="343" opacity="1">2008</text><text x="191.68136830121796" style="color:#000000;cursor:default;font-size:0.91666em;fill:#000000;" text-anchor="end" transform="translate(0,0) rotate(-45 191.68136830121796 343)" y="343" opacity="1">2009</text><text x="216.56372124239795" style="color:#000000;cursor:default;font-size:0.91666em;fill:#000000;" text-anchor="end" transform="translate(0,0) rotate(-45 216.56372124239795 343)" y="343" opacity="1">2010</text><text x="241.44607418356796" style="color:#000000;cursor:default;font-size:0.91666em;fill:#000000;" text-anchor="end" transform="translate(0,0) rotate(-45 241.44607418356796 343)" y="343" opacity="1">2011</text><text x="266.328427124748" style="color:#000000;cursor:default;font-size:0.91666em;fill:#000000;" text-anchor="end" transform="translate(0,0) rotate(-45 266.328427124748 343)" y="343" opacity="1">2012</text><text x="291.21078006591796" style="color:#000000;cursor:default;font-size:0.91666em;fill:#000000;" text-anchor="end" transform="translate(0,0) rotate(-45 291.21078006591796 343)" y="343" opacity="1">2013</text><text x="316.093133007098" style="color:#000000;cursor:default;font-size:0.91666em;fill:#000000;" text-anchor="end" transform="translate(0,0) rotate(-45 316.093133007098 343)" y="343" opacity="1">2014</text><text x="340.975485948278" style="color:#000000;cursor:default;font-size:0.91666em;fill:#000000;" text-anchor="end" transform="translate(0,0) rotate(-45 340.975485948278 343)" y="343" opacity="1">2015</text><text x="365.857838889448" style="color:#000000;cursor:default;font-size:0.91666em;fill:#000000;" text-anchor="end" transform="translate(0,0) rotate(-45 365.857838889448 343)" y="343" opacity="1">2016</text><text x="390.74019183062796" style="color:#000000;cursor:default;font-size:0.91666em;fill:#000000;" text-anchor="end" transform="translate(0,0) rotate(-45 390.74019183062796 343)" y="343" opacity="1">2017</text><text x="415.622544771808" style="color:#000000;cursor:default;font-size:0.91666em;fill:#000000;" text-anchor="end" transform="translate(0,0) rotate(-45 415.622544771808 343)" y="343" opacity="1">2018</text><text x="440.504897712978" style="color:#000000;cursor:default;font-size:0.91666em;fill:#000000;" text-anchor="end" transform="translate(0,0) rotate(-45 440.504897712978 343)" y="343" opacity="1">2019</text><text x="465.387250654158" style="color:#000000;cursor:default;font-size:0.91666em;fill:#000000;" text-anchor="end" transform="translate(0,0) rotate(-45 465.387250654158 343)" y="343" opacity="1">2020</text></g><g class="highcharts-axis-labels highcharts-yaxis-labels" data-z-index="7"><text x="37" style="color:#000000;cursor:default;font-size:0.91666em;fill:#000000;" text-anchor="end" transform="translate(0,0)" y="331" opacity="1">0</text><text x="37" style="color:#000000;cursor:default;font-size:0.91666em;fill:#000000;" text-anchor="end" transform="translate(0,0)" y="276" opacity="1">50k</text><text x="37" style="color:#000000;cursor:default;font-size:0.91666em;fill:#000000;" text-anchor="end" transform="translate(0,0)" y="222" opacity="1">100k</text><text x="37" style="color:#000000;cursor:default;font-size:0.91666em;fill:#000000;" text-anchor="end" transform="translate(0,0)" y="168" opacity="1">150k</text><text x="37" style="color:#000000;cursor:default;font-size:0.91666em;fill:#000000;" text-anchor="end" transform="translate(0,0)" y="114" opacity="1">200k</text></g><g class="highcharts-axis-labels highcharts-yaxis-labels" data-z-index="7"></g><g class="highcharts-legend" data-z-index="7" transform="translate(40,58)"><rect fill="none" class="highcharts-legend-box" rx="0" ry="0" x="0" y="0" width="410" height="40" visibility="visible"></rect><g data-z-index="1"><g><g class="highcharts-legend-item highcharts-column-series highcharts-color-undefined highcharts-series-0" data-z-index="1" transform="translate(12,7)"><text x="21" style="color:#333333;cursor:pointer;font-size:1em;font-weight:normal;fill:#333333;" text-anchor="start" data-z-index="2" y="15"><tspan>Stammholz</tspan></text><rect x="2" y="4" width="12" height="12" fill="#73B97C" class="highcharts-point" data-z-index="3"></rect></g><g class="highcharts-legend-item highcharts-column-series highcharts-color-undefined highcharts-series-1" data-z-index="1" transform="translate(116,7)"><text x="21" y="15" style="color:#333333;cursor:pointer;font-size:1em;font-weight:normal;fill:#333333;" text-anchor="start" data-z-index="2"><tspan>Industrieholz</tspan></text><rect x="2" y="4" width="12" height="12" fill="#68AB2B" class="highcharts-point" data-z-index="3"></rect></g><g class="highcharts-legend-item highcharts-column-series highcharts-color-undefined highcharts-series-2" data-z-index="1" transform="translate(231,7)"><text x="21" y="15" style="color:#333333;cursor:pointer;font-size:1em;font-weight:normal;fill:#333333;" text-anchor="start" data-z-index="2"><tspan>Energieholz</tspan></text><rect x="2" y="4" width="12" height="12" fill="#007A2F" class="highcharts-point" data-z-index="3"></rect></g><g class="highcharts-legend-item highcharts-column-series highcharts-color-undefined highcharts-series-3" data-z-index="1" transform="translate(339,7)"><text x="21" y="15" style="color:#333333;cursor:pointer;font-size:1em;font-weight:normal;fill:#333333;" text-anchor="start" data-z-index="2"><tspan>Übrige</tspan></text><rect x="2" y="4" width="12" height="12" fill="#0A3B19" class="highcharts-point" data-z-index="3"></rect></g></g></g></g><text x="10" class="highcharts-credits" text-anchor="start" data-z-index="8" style="cursor:default;color:#000000;font-size:0.8333em;fill:#000000;" y="400"><tspan>Quelle: Amt für Wald beider Basel</tspan></text><g class="highcharts-control-points" data-z-index="99" clip-path="url(#highcharts-f04uk8o-146-)"></g></svg>