<?xml version="1.0" standalone="no"?><!DOCTYPE svg PUBLIC "-//W3C//DTD SVG 1.1//EN" "http://www.w3.org/Graphics/SVG/1.1/DTD/svg11.dtd"><svg xmlns:xlink="http://www.w3.org/1999/xlink" version="1.1" class="highcharts-root" style="font-family:Arial;font-size:12px;" xmlns="http://www.w3.org/2000/svg" viewBox="0 0 485 415"><desc>Created with Highcharts 8.2.0</desc><defs><clipPath id="highcharts-386ifja-19-"><rect x="0" y="0" width="324" height="317" fill="none"></rect></clipPath><clipPath id="highcharts-386ifja-21-"><rect x="10" y="56" width="324" height="317" fill="none"></rect></clipPath></defs><rect fill="#fbfbfb" class="highcharts-background" x="0" y="0" width="485" height="428" rx="0" ry="0"></rect><rect fill="none" class="highcharts-plot-background" x="10" y="56" width="324" height="317"></rect><g class="highcharts-pane-group" data-z-index="0"></g><rect fill="none" class="highcharts-plot-border" data-z-index="1" x="10" y="56" width="324" height="317"></rect><g class="highcharts-series-group" data-z-index="3"><g class="highcharts-series highcharts-series-0 highcharts-pie-series" data-z-index="0.1" opacity="1" transform="translate(10,56) scale(1 1)"><path fill="#71A3B5" d="M 161.96975452925128 10.000003080096008 A 148.5 148.5 0 0 1 309.6024805465695 142.19792232567954 L 162 158.5 A 0 0 0 0 0 162 158.5 Z" transform="translate(0,0)" opacity="1" stroke-linejoin="round" class="highcharts-point highcharts-color-0"></path><path fill="#CD9C00" d="M 309.6187088202927 142.34553293266384 A 148.5 148.5 0 0 1 238.83218057739697 285.5789755534812 L 162 158.5 A 0 0 0 0 0 162 158.5 Z" transform="translate(0,0)" opacity="1" stroke-linejoin="round" class="highcharts-point highcharts-color-1"></path><path fill="#B00000 " d="M 238.70506320693622 285.65574418177073 A 148.5 148.5 0 0 1 191.76378508186397 303.98665608089493 L 162 158.5 A 0 0 0 0 0 162 158.5 Z" transform="translate(0,0)" opacity="1" stroke-linejoin="round" class="highcharts-point highcharts-color-2"></path><path fill="#FF8028" d="M 191.61828356813956 304.0163471176942 A 148.5 148.5 0 0 1 146.11073029566606 306.1474893395175 L 162 158.5 A 0 0 0 0 0 162 158.5 Z" transform="translate(0,0)" opacity="1" stroke-linejoin="round" class="highcharts-point highcharts-color-3"></path><path fill="#923F8D" d="M 145.96309077556865 306.1315262487229 A 148.5 148.5 0 0 1 105.78883499118828 295.9501907177729 L 162 158.5 A 0 0 0 0 0 162 158.5 Z" transform="translate(0,0)" opacity="1" stroke-linejoin="round" class="highcharts-point highcharts-color-4"></path><path fill="#999999" d="M 105.65141292895905 295.893910837043 A 148.5 148.5 0 0 1 161.79373647919635 10.000143248015263 L 162 158.5 A 0 0 0 0 0 162 158.5 Z" transform="translate(0,0)" opacity="1" stroke-linejoin="round" class="highcharts-point highcharts-color-5"></path></g><g class="highcharts-markers highcharts-series-0 highcharts-pie-series" data-z-index="0.1" opacity="1" transform="translate(10,56) scale(1 1)"></g></g><text x="10" text-anchor="start" class="highcharts-title" data-z-index="4" style="color:#000000;font-size:14px;font-weight:bold;fill:#000000;" y="21"><tspan>Aus dem Ausland Zugezogene nach Zuzugsland</tspan></text><text x="10" text-anchor="start" class="highcharts-subtitle" data-z-index="4" style="color:#000000;font-size:12px;font-weight:normal;font-family:Arial;fill:#000000;" y="40"><tspan>fünf wichtigste ausländische Zuzugsländer, Basel-Stadt, 2022</tspan></text><text x="10" text-anchor="start" class="highcharts-caption" data-z-index="4" style="color:#666666;fill:#666666;" y="385"></text><g class="highcharts-data-labels highcharts-series-0 highcharts-pie-series" data-z-index="6" opacity="1" transform="translate(10,56) scale(1 1)"><g class="highcharts-label highcharts-data-label highcharts-data-label-color-0" data-z-index="1" transform="translate(224,60)"><text x="5" data-z-index="1" y="17" style="color:white;cursor:true;font-size:12px;font-weight:normal;fill:white;"><tspan x="5" y="17" class="highcharts-text-outline" fill="white" stroke="white" stroke-width="0px" stroke-linejoin="round" style="">23%</tspan><tspan x="5" y="17">23%</tspan></text></g><g class="highcharts-label highcharts-data-label highcharts-data-label-color-1" data-z-index="1" transform="translate(251,201)"><text x="5" data-z-index="1" y="17" style="color:white;cursor:true;font-size:12px;font-weight:normal;fill:white;"><tspan x="5" y="17" class="highcharts-text-outline" fill="white" stroke="white" stroke-width="0px" stroke-linejoin="round">18%</tspan><tspan x="5" y="17">18%</tspan></text></g><g class="highcharts-label highcharts-data-label highcharts-data-label-color-2" data-z-index="1" transform="translate(191,259)"><text x="5" data-z-index="1" y="17" style="color:white;cursor:true;font-size:12px;font-weight:normal;fill:white;"><tspan x="5" y="17" class="highcharts-text-outline" fill="white" stroke="white" stroke-width="0px" stroke-linejoin="round" style="">5%</tspan><tspan x="5" y="17">5%</tspan></text></g><g class="highcharts-label highcharts-data-label highcharts-data-label-color-3" data-z-index="1" transform="translate(153,267)"><text x="5" data-z-index="1" y="17" style="color:white;cursor:true;font-size:12px;font-weight:normal;fill:white;"><tspan x="5" y="17" class="highcharts-text-outline" fill="white" stroke="white" stroke-width="0px" stroke-linejoin="round">5%</tspan><tspan x="5" y="17">5%</tspan></text></g><g class="highcharts-label highcharts-data-label highcharts-data-label-color-4" data-z-index="1" transform="translate(119,263)"><text x="5" data-z-index="1" y="17" style="color:white;cursor:true;font-size:12px;font-weight:normal;fill:white;"><tspan x="5" y="17" class="highcharts-text-outline" fill="white" stroke="white" stroke-width="0px" stroke-linejoin="round">4%</tspan><tspan x="5" y="17">4%</tspan></text></g><g class="highcharts-label highcharts-data-label highcharts-data-label-color-5" data-z-index="1" transform="translate(28,126)"><text x="5" data-z-index="1" y="17" style="color:white;cursor:true;font-size:12px;font-weight:normal;fill:white;"><tspan x="5" y="17" class="highcharts-text-outline" fill="white" stroke="white" stroke-width="0px" stroke-linejoin="round">44%</tspan><tspan x="5" y="17">44%</tspan></text></g></g><g class="highcharts-legend" data-z-index="7" transform="translate(346,126)"><rect fill="none" class="highcharts-legend-box" rx="0" ry="0" x="0" y="0" width="129" height="131" visibility="visible"></rect><g data-z-index="1"><g><g class="highcharts-legend-item highcharts-pie-series highcharts-color-0" data-z-index="1" transform="translate(8,3)"><text x="21" style="color:#333333;cursor:pointer;font-size:12px;font-weight:normal;fill:#333333;" text-anchor="start" data-z-index="2" y="15"><tspan>Deutschland</tspan></text><rect x="2" y="4" width="12" height="12" fill="#71A3B5" class="highcharts-point" data-z-index="3"></rect></g><g class="highcharts-legend-item highcharts-pie-series highcharts-color-1" data-z-index="1" transform="translate(8,23)"><text x="21" y="15" style="color:#333333;cursor:pointer;font-size:12px;font-weight:normal;fill:#333333;" text-anchor="start" data-z-index="2"><tspan>Ukraine</tspan></text><rect x="2" y="4" width="12" height="12" fill="#CD9C00" class="highcharts-point" data-z-index="3"></rect></g><g class="highcharts-legend-item highcharts-pie-series highcharts-color-2" data-z-index="1" transform="translate(8,43)"><text x="21" y="15" style="color:#333333;cursor:pointer;font-size:12px;font-weight:normal;fill:#333333;" text-anchor="start" data-z-index="2"><tspan>Italien</tspan></text><rect x="2" y="4" width="12" height="12" fill="#B00000 " class="highcharts-point" data-z-index="3"></rect></g><g class="highcharts-legend-item highcharts-pie-series highcharts-color-3" data-z-index="1" transform="translate(8,63)"><text x="21" y="15" style="color:#333333;cursor:pointer;font-size:12px;font-weight:normal;fill:#333333;" text-anchor="start" data-z-index="2"><tspan>Spanien</tspan></text><rect x="2" y="4" width="12" height="12" fill="#FF8028" class="highcharts-point" data-z-index="3"></rect></g><g class="highcharts-legend-item highcharts-pie-series highcharts-color-4" data-z-index="1" transform="translate(8,83)"><text x="21" y="15" style="color:#333333;cursor:pointer;font-size:12px;font-weight:normal;fill:#333333;" text-anchor="start" data-z-index="2"><tspan>Frankreich</tspan></text><rect x="2" y="4" width="12" height="12" fill="#923F8D" class="highcharts-point" data-z-index="3"></rect></g><g class="highcharts-legend-item highcharts-pie-series highcharts-color-5" data-z-index="1" transform="translate(8,103)"><text x="21" y="15" style="color:#333333;cursor:pointer;font-size:12px;font-weight:normal;fill:#333333;" text-anchor="start" data-z-index="2"><tspan>Übriges Ausland</tspan></text><rect x="2" y="4" width="12" height="12" fill="#999999" class="highcharts-point" data-z-index="3"></rect></g></g></g></g><text x="10" class="highcharts-credits" text-anchor="start" data-z-index="8" style="cursor:default;color:#000000;font-size:10px;fill:#000000;" y="403"><tspan>Quelle: Statistisches Amt Basel-Stadt, Bevölkerungsstatistik.</tspan><tspan x="10" dy="13">Zuletzt geändert: 7.6.2023</tspan></text><g class="highcharts-control-points" data-z-index="99" clip-path="url(#highcharts-386ifja-21-)"></g></svg>