<?xml version="1.0" standalone="no"?><!DOCTYPE svg PUBLIC "-//W3C//DTD SVG 1.1//EN" "http://www.w3.org/Graphics/SVG/1.1/DTD/svg11.dtd"><svg xmlns:xlink="http://www.w3.org/1999/xlink" version="1.1" class="highcharts-root" style="font-family:Arial;font-size:12px;" xmlns="http://www.w3.org/2000/svg" viewBox="0 0 485 415"><desc>Created with Highstock 6.1.0</desc><defs><clipPath id="highcharts-ix5leno-6"><rect x="0" y="0" width="438" height="287" fill="none"></rect></clipPath><clipPath id="highcharts-ix5leno-7"><rect x="0" y="0" width="438" height="287" fill="none"></rect></clipPath></defs><rect fill="#fbfbfb" class="highcharts-background" x="0" y="0" width="485" height="428" rx="0" ry="0"></rect><rect fill="none" class="highcharts-plot-background" x="37" y="55" width="438" height="287"></rect><g class="highcharts-pane-group"></g><g class="highcharts-grid highcharts-xaxis-grid "><path fill="none" class="highcharts-grid-line" d="M 40.5 55 L 40.5 342" opacity="1"></path><path fill="none" class="highcharts-grid-line" d="M 98.5 55 L 98.5 342" opacity="1"></path><path fill="none" class="highcharts-grid-line" d="M 156.5 55 L 156.5 342" opacity="1"></path><path fill="none" class="highcharts-grid-line" d="M 214.5 55 L 214.5 342" opacity="1"></path><path fill="none" class="highcharts-grid-line" d="M 272.5 55 L 272.5 342" opacity="1"></path><path fill="none" class="highcharts-grid-line" d="M 330.5 55 L 330.5 342" opacity="1"></path><path fill="none" class="highcharts-grid-line" d="M 388.5 55 L 388.5 342" opacity="1"></path><path fill="none" class="highcharts-grid-line" d="M 446.5 55 L 446.5 342" opacity="1"></path></g><g class="highcharts-grid highcharts-yaxis-grid "><path fill="none" stroke="#B9CFD7" stroke-width="0.5" class="highcharts-grid-line" d="M 37 342.25 L 475 342.25" opacity="1"></path><path fill="none" stroke="#B9CFD7" stroke-width="0.5" class="highcharts-grid-line" d="M 37 285.25 L 475 285.25" opacity="1"></path><path fill="none" stroke="#B9CFD7" stroke-width="0.5" class="highcharts-grid-line" d="M 37 227.25 L 475 227.25" opacity="1"></path><path fill="none" stroke="#B9CFD7" stroke-width="0.5" class="highcharts-grid-line" d="M 37 170.25 L 475 170.25" opacity="1"></path><path fill="none" stroke="#B9CFD7" stroke-width="0.5" class="highcharts-grid-line" d="M 37 112.25 L 475 112.25" opacity="1"></path><path fill="none" stroke="#B9CFD7" stroke-width="0.5" class="highcharts-grid-line" d="M 37 54.75 L 475 54.75" opacity="1"></path></g><rect fill="none" class="highcharts-plot-border" x="37" y="55" width="438" height="287"></rect><g class="highcharts-axis highcharts-xaxis "><path fill="none" class="highcharts-axis-line" stroke="#B9CFD7" stroke-width="0.5" d="M 37 342.25 L 475 342.25"></path></g><g class="highcharts-axis highcharts-yaxis "><path fill="none" class="highcharts-axis-line" d="M 37 55 L 37 342"></path></g><g class="highcharts-series-group"><g class="highcharts-series highcharts-series-0 highcharts-line-series " transform="translate(37,55) scale(1 1)" clip-path="url(#highcharts-ix5leno-7)"><path fill="none" d="M 4.2941176470576 80.35999999999999 L 120.35135135135 61.517755893260926 L 201.59141494436 56.25199999999998 L 213.19713831479 54.53 L 224.80286168521 52.23400000000001 L 236.40858505564 51.03891549116878 L 352.46581875994 45.16403033756558 L 364.07154213037 45.75065749686797 L 375.6772655008 45.982130690155515 L 387.28298887123 45.894831902698655 L 398.88871224165 47.64199999999997 L 410.49443561208 49.04926568534509 L 422.10015898251 50.0578520599266 L 433.70588235294 51.295259091926056" class="highcharts-graph" stroke="#008AC3" stroke-width="2" stroke-linejoin="round" stroke-linecap="round"></path></g><g class="highcharts-markers highcharts-series-0 highcharts-line-series " transform="translate(37,55) scale(1 1)" clip-path="none"><path fill="#008AC3" d="M 8 80 A 4 4 0 1 1 7.999998000000167 79.99600000066667 Z" class="highcharts-point"></path><path fill="#008AC3" d="M 124 62 A 4 4 0 1 1 123.99999800000016 61.99600000066666 Z" class="highcharts-point"></path><path fill="#008AC3" d="M 205 56 A 4 4 0 1 1 204.99999800000018 55.99600000066666 Z" class="highcharts-point"></path><path fill="#008AC3" d="M 217 55 A 4 4 0 1 1 216.99999800000018 54.99600000066666 Z" class="highcharts-point"></path><path fill="#008AC3" d="M 228 52 A 4 4 0 1 1 227.99999800000018 51.99600000066666 Z" class="highcharts-point"></path><path fill="#008AC3" d="M 240 51 A 4 4 0 1 1 239.99999800000018 50.99600000066666 Z" class="highcharts-point"></path><path fill="#008AC3" d="M 356 45 A 4 4 0 1 1 355.9999980000002 44.99600000066666 Z" class="highcharts-point"></path><path fill="#008AC3" d="M 368 46 A 4 4 0 1 1 367.9999980000002 45.99600000066666 Z" class="highcharts-point"></path><path fill="#008AC3" d="M 379 46 A 4 4 0 1 1 378.9999980000002 45.99600000066666 Z" class="highcharts-point"></path><path fill="#008AC3" d="M 391 46 A 4 4 0 1 1 390.9999980000002 45.99600000066666 Z" class="highcharts-point"></path><path fill="#008AC3" d="M 402 48 A 4 4 0 1 1 401.9999980000002 47.99600000066666 Z" class="highcharts-point"></path><path fill="#008AC3" d="M 414 49 A 4 4 0 1 1 413.9999980000002 48.99600000066666 Z" class="highcharts-point"></path><path fill="#008AC3" d="M 426 50 A 4 4 0 1 1 425.9999980000002 49.99600000066666 Z" class="highcharts-point"></path><path fill="#008AC3" d="M 437 51 A 4 4 0 1 1 436.9999980000002 50.99600000066666 Z" class="highcharts-point"></path></g></g><text x="10" text-anchor="start" class="highcharts-title" style="color:#000000;font-size:14px;font-weight:bold;fill:#000000;" y="21"><tspan>Mittlere Wohnfläche pro Kopf</tspan></text><text x="10" text-anchor="start" class="highcharts-subtitle" style="color:#000000;font-size:12px;font-weight:normal;font-family:Arial;fill:#000000;" y="40"><tspan>in m²</tspan></text><g class="highcharts-data-labels highcharts-series-0 highcharts-line-series " visibility="visible" transform="translate(37,55) scale(1 1)"><g class="highcharts-label highcharts-data-label highcharts-data-label-color-undefined " transform="translate(-11,57)"><text x="5" style="font-size:11px;font-weight:bold;color:#000000;fill:#000000;" y="16"><tspan x="5" y="16" class="highcharts-text-outline" fill="#FFFFFF" stroke="#FFFFFF" stroke-width="2px" stroke-linejoin="round" style="">36,0</tspan><tspan x="5" y="16">36,0</tspan></text></g><g class="highcharts-label highcharts-data-label highcharts-data-label-color-undefined " transform="translate(115,52)"><text x="5" style="font-size:11px;font-weight:bold;color:#000000;fill:#000000;" y="16"></text></g><g class="highcharts-label highcharts-data-label highcharts-data-label-color-undefined " transform="translate(197,46)"><text x="5" style="font-size:11px;font-weight:bold;color:#000000;fill:#000000;" y="16"></text></g><g class="highcharts-label highcharts-data-label highcharts-data-label-color-undefined " transform="translate(208,45)"><text x="5" style="font-size:11px;font-weight:bold;color:#000000;fill:#000000;" y="16"></text></g><g class="highcharts-label highcharts-data-label highcharts-data-label-color-undefined " transform="translate(220,42)"><text x="5" style="font-size:11px;font-weight:bold;color:#000000;fill:#000000;" y="16"></text></g><g class="highcharts-label highcharts-data-label highcharts-data-label-color-undefined " transform="translate(231,41)"><text x="5" style="font-size:11px;font-weight:bold;color:#000000;fill:#000000;" y="16"></text></g><g class="highcharts-label highcharts-data-label highcharts-data-label-color-undefined " transform="translate(347,35)"><text x="5" style="font-size:11px;font-weight:bold;color:#000000;fill:#000000;" y="16"></text></g><g class="highcharts-label highcharts-data-label highcharts-data-label-color-undefined " transform="translate(359,36)"><text x="5" style="font-size:11px;font-weight:bold;color:#000000;fill:#000000;" y="16"></text></g><g class="highcharts-label highcharts-data-label highcharts-data-label-color-undefined " transform="translate(371,36)"><text x="5" style="font-size:11px;font-weight:bold;color:#000000;fill:#000000;" y="16"></text></g><g class="highcharts-label highcharts-data-label highcharts-data-label-color-undefined " transform="translate(382,36)"><text x="5" style="font-size:11px;font-weight:bold;color:#000000;fill:#000000;" y="16"></text></g><g class="highcharts-label highcharts-data-label highcharts-data-label-color-undefined " transform="translate(394,38)"><text x="5" style="font-size:11px;font-weight:bold;color:#000000;fill:#000000;" y="16"></text></g><g class="highcharts-label highcharts-data-label highcharts-data-label-color-undefined " transform="translate(405,39)"><text x="5" style="font-size:11px;font-weight:bold;color:#000000;fill:#000000;" y="16"></text></g><g class="highcharts-label highcharts-data-label highcharts-data-label-color-undefined " transform="translate(417,40)"><text x="5" style="font-size:11px;font-weight:bold;color:#000000;fill:#000000;" y="16"></text></g><g class="highcharts-label highcharts-data-label highcharts-data-label-color-undefined " transform="translate(418,28)"><text x="5" style="font-size:11px;font-weight:bold;color:#000000;fill:#000000;" y="16"><tspan x="5" y="16" class="highcharts-text-outline" fill="#FFFFFF" stroke="#FFFFFF" stroke-width="2px" stroke-linejoin="round">41,1</tspan><tspan x="5" y="16">41,1</tspan></text></g></g><g class="highcharts-axis-labels highcharts-xaxis-labels "><text x="41.294117647058" style="color:#000000;cursor:default;font-size:11px;fill:#000000;" text-anchor="middle" transform="translate(0,0)" y="361" opacity="1">1980</text><text x="99.322734499204" style="color:#000000;cursor:default;font-size:11px;fill:#000000;" text-anchor="middle" transform="translate(0,0)" y="361" opacity="1">1985</text><text x="157.35135135135" style="color:#000000;cursor:default;font-size:11px;fill:#000000;" text-anchor="middle" transform="translate(0,0)" y="361" opacity="1">1990</text><text x="215.3799682035" style="color:#000000;cursor:default;font-size:11px;fill:#000000;" text-anchor="middle" transform="translate(0,0)" y="361" opacity="1">1995</text><text x="273.40858505564" style="color:#000000;cursor:default;font-size:11px;fill:#000000;" text-anchor="middle" transform="translate(0,0)" y="361" opacity="1">2000</text><text x="331.43720190779" style="color:#000000;cursor:default;font-size:11px;fill:#000000;" text-anchor="middle" transform="translate(0,0)" y="361" opacity="1">2005</text><text x="389.46581875994" style="color:#000000;cursor:default;font-size:11px;fill:#000000;" text-anchor="middle" transform="translate(0,0)" y="361" opacity="1">2010</text><text x="447.49443561208" style="color:#000000;cursor:default;font-size:11px;fill:#000000;" text-anchor="middle" transform="translate(0,0)" y="361" opacity="1">2015</text></g><g class="highcharts-axis-labels highcharts-yaxis-labels "><text x="22" style="color:#000000;cursor:default;font-size:11px;fill:#000000;" text-anchor="end" transform="translate(0,0)" y="347" opacity="1">0</text><text x="22" style="color:#000000;cursor:default;font-size:11px;fill:#000000;" text-anchor="end" transform="translate(0,0)" y="289" opacity="1">10</text><text x="22" style="color:#000000;cursor:default;font-size:11px;fill:#000000;" text-anchor="end" transform="translate(0,0)" y="232" opacity="1">20</text><text x="22" style="color:#000000;cursor:default;font-size:11px;fill:#000000;" text-anchor="end" transform="translate(0,0)" y="174" opacity="1">30</text><text x="22" style="color:#000000;cursor:default;font-size:11px;fill:#000000;" text-anchor="end" transform="translate(0,0)" y="117" opacity="1">40</text><text x="22" style="color:#000000;cursor:default;font-size:11px;fill:#000000;" text-anchor="end" transform="translate(0,0)" y="60" opacity="1">50</text></g><text x="10" class="highcharts-credits" text-anchor="start" style="cursor:default;color:#000000;font-size:10px;fill:#000000;" y="393"><tspan>Quelle: Statistisches Amt Basel-Stadt, Bevölkerungsstatistik;</tspan><tspan x="10" dy="13">Statistisches Amt Basel-Stadt, Gebäude- und Wohnungsstatistik</tspan><tspan x="10" dy="13">Zuletzt geändert: 2018-4-3</tspan></text></svg>