<?xml version="1.0" standalone="no"?><!DOCTYPE svg PUBLIC "-//W3C//DTD SVG 1.1//EN" "http://www.w3.org/Graphics/SVG/1.1/DTD/svg11.dtd"><svg xmlns:xlink="http://www.w3.org/1999/xlink" version="1.1" class="highcharts-root" style="font-family:Arial;font-size:12px;" xmlns="http://www.w3.org/2000/svg" viewBox="0 0 485 415"><desc>Created with Highcharts 8.2.0</desc><defs><clipPath id="highcharts-0g49ua9-67-"><rect x="0" y="0" width="435" height="252" fill="none"></rect></clipPath><clipPath id="highcharts-0g49ua9-98-"><rect x="0" y="0" width="435" height="252" fill="none"></rect></clipPath><clipPath id="highcharts-0g49ua9-129-"><rect x="40" y="99" width="435" height="252" fill="none"></rect></clipPath></defs><rect fill="#fbfbfb" class="highcharts-background" x="0" y="0" width="485" height="428" rx="0" ry="0"></rect><rect fill="none" class="highcharts-plot-background" x="40" y="99" width="435" height="252"></rect><g class="highcharts-pane-group" data-z-index="0"></g><g class="highcharts-grid highcharts-xaxis-grid" data-z-index="1"><path fill="none" data-z-index="1" class="highcharts-grid-line" d="M 73.5 99 L 73.5 351" opacity="1"></path><path fill="none" data-z-index="1" class="highcharts-grid-line" d="M 117.5 99 L 117.5 351" opacity="1"></path><path fill="none" data-z-index="1" class="highcharts-grid-line" d="M 161.5 99 L 161.5 351" opacity="1"></path><path fill="none" data-z-index="1" class="highcharts-grid-line" d="M 205.5 99 L 205.5 351" opacity="1"></path><path fill="none" data-z-index="1" class="highcharts-grid-line" d="M 249.5 99 L 249.5 351" opacity="1"></path><path fill="none" data-z-index="1" class="highcharts-grid-line" d="M 293.5 99 L 293.5 351" opacity="1"></path><path fill="none" data-z-index="1" class="highcharts-grid-line" d="M 337.5 99 L 337.5 351" opacity="1"></path><path fill="none" data-z-index="1" class="highcharts-grid-line" d="M 382.5 99 L 382.5 351" opacity="1"></path><path fill="none" data-z-index="1" class="highcharts-grid-line" d="M 426.5 99 L 426.5 351" opacity="1"></path><path fill="none" data-z-index="1" class="highcharts-grid-line" d="M 470.5 99 L 470.5 351" opacity="1"></path></g><g class="highcharts-grid highcharts-yaxis-grid" data-z-index="1"><path fill="none" stroke="#B9CFD7" stroke-width="0.5" data-z-index="1" class="highcharts-grid-line" d="M 40 351.25 L 475 351.25" opacity="1"></path><path fill="none" stroke="#B9CFD7" stroke-width="0.5" data-z-index="1" class="highcharts-grid-line" d="M 40 301.25 L 475 301.25" opacity="1"></path><path fill="none" stroke="#B9CFD7" stroke-width="0.5" data-z-index="1" class="highcharts-grid-line" d="M 40 250.25 L 475 250.25" opacity="1"></path><path fill="none" stroke="#B9CFD7" stroke-width="0.5" data-z-index="1" class="highcharts-grid-line" d="M 40 200.25 L 475 200.25" opacity="1"></path><path fill="none" stroke="#B9CFD7" stroke-width="0.5" data-z-index="1" class="highcharts-grid-line" d="M 40 149.25 L 475 149.25" opacity="1"></path><path fill="none" stroke="#B9CFD7" stroke-width="0.5" data-z-index="1" class="highcharts-grid-line" d="M 40 98.75 L 475 98.75" opacity="1"></path></g><rect fill="none" class="highcharts-plot-border" data-z-index="1" x="40" y="99" width="435" height="252"></rect><g class="highcharts-axis highcharts-xaxis" data-z-index="2"><path fill="none" class="highcharts-axis-line" stroke="#B9CFD7" stroke-width="0.5" data-z-index="7" d="M 40 351.25 L 475 351.25"></path></g><g class="highcharts-axis highcharts-yaxis" data-z-index="2"><path fill="none" class="highcharts-axis-line" data-z-index="7" d="M 40 99 L 40 351"></path></g><g class="highcharts-series-group" data-z-index="3"><g class="highcharts-series highcharts-series-0 highcharts-line-series" data-z-index="0.1" opacity="1" transform="translate(40,99) scale(1 1)" clip-path="url(#highcharts-0g49ua9-98-)"><path fill="none" d="M 4.2647058823524 143.136 L 18.970588235294 144.144 L 33.676470588235 144.144 L 48.382352941176 144.648 L 63.088235294117 143.892 L 77.794117647058 140.364 L 92.5 139.86 L 107.20588235294 137.33999999999997 L 121.91176470588 136.332 L 136.61764705882 134.56799999999998 L 151.32352941176 136.07999999999998 L 166.02941176471 138.6 L 180.73529411765 137.33999999999997 L 195.44117647059 136.332 L 210.14705882353 133.308 L 224.85294117647 132.048 L 239.55882352941 130.536 L 254.26470588235 125.496 L 268.97058823529 126 L 283.67647058824 125.244 L 298.38235294118 127.512 L 313.08823529412 127.008 L 327.79411764706 124.74 L 342.5 122.72399999999999 L 357.20588235294 122.976 L 371.91176470588 120.708 L 386.61764705882 121.96799999999999 L 401.32352941177 121.96799999999999 L 416.02941176471 118.44 L 430.73529411765 117.684" class="highcharts-graph" data-z-index="1" stroke="#008AC3" stroke-width="2" stroke-linejoin="round" stroke-linecap="round"></path></g><g class="highcharts-markers highcharts-series-0 highcharts-line-series" data-z-index="0.1" opacity="1" transform="translate(40,99) scale(1 1)" clip-path="none"></g><g class="highcharts-series highcharts-series-1 highcharts-line-series" data-z-index="0.1" opacity="1" transform="translate(40,99) scale(1 1)" clip-path="url(#highcharts-0g49ua9-98-)"><path fill="none" d="M 4.2647058823524 15.875999999999976 L 18.970588235294 33.768 L 33.676470588235 34.27199999999999 L 48.382352941176 33.012 L 63.088235294117 32.256 L 77.794117647058 27.46799999999999 L 92.5 24.948000000000008 L 107.20588235294 22.67999999999998 L 121.91176470588 22.175999999999988 M 151.32352941176 22.175999999999988 L 166.02941176471 23.687999999999988 L 180.73529411765 22.427999999999997 L 195.44117647059 21.671999999999997 L 210.14705882353 18.899999999999977 L 224.85294117647 18.143999999999977 L 239.55882352941 18.395999999999987 L 254.26470588235 19.907999999999987 L 268.97058823529 19.403999999999996 L 283.67647058824 20.411999999999978 L 298.38235294118 21.923999999999978 L 313.08823529412 21.167999999999978 L 327.79411764706 18.647999999999996 L 342.5 18.143999999999977 L 357.20588235294 20.159999999999997 L 371.91176470588 20.159999999999997 L 386.61764705882 23.183999999999997 L 401.32352941177 22.931999999999988 L 416.02941176471 19.403999999999996 L 430.73529411765 19.907999999999987" class="highcharts-graph" data-z-index="1" stroke="#007A2F" stroke-width="2" stroke-linejoin="round" stroke-linecap="round"></path></g><g class="highcharts-markers highcharts-series-1 highcharts-line-series" data-z-index="0.1" opacity="1" transform="translate(40,99) scale(1 1)" clip-path="none"></g></g><text x="10" text-anchor="start" class="highcharts-title" data-z-index="4" style="color:#000000;font-size:14px;font-weight:bold;fill:#000000;" y="21"><tspan>Gini-Koeffizienten von Reineinkommen und Reinvermögen</tspan></text><text x="10" text-anchor="start" class="highcharts-subtitle" data-z-index="4" style="color:#000000;font-size:12px;font-weight:normal;fill:#000000;" y="40"><tspan>Basel-Stadt</tspan></text><text x="10" text-anchor="start" class="highcharts-caption" data-z-index="4" style="color:#666666;fill:#666666;" y="385"></text><g class="highcharts-legend" data-z-index="7" transform="translate(32,56)"><rect fill="none" class="highcharts-legend-box" rx="0" ry="0" x="0" y="0" width="251" height="31" visibility="visible"></rect><g data-z-index="1"><g><g class="highcharts-legend-item highcharts-line-series highcharts-color-undefined highcharts-series-0" data-z-index="1" transform="translate(8,3)"><path fill="none" d="M 0 11 L 16 11" class="highcharts-graph" stroke="#008AC3" stroke-width="2"></path><text x="21" style="color:#333333;cursor:pointer;font-size:12px;font-weight:normal;fill:#333333;" text-anchor="start" data-z-index="2" y="15"><tspan>Reineinkommen</tspan></text></g><g class="highcharts-legend-item highcharts-line-series highcharts-color-undefined highcharts-series-1" data-z-index="1" transform="translate(141,3)"><path fill="none" d="M 0 11 L 16 11" class="highcharts-graph" stroke="#007A2F" stroke-width="2"></path><text x="21" y="15" style="color:#333333;cursor:pointer;font-size:12px;font-weight:normal;fill:#333333;" text-anchor="start" data-z-index="2"><tspan>Reinvermögen</tspan></text></g></g></g></g><g class="highcharts-axis-labels highcharts-xaxis-labels" data-z-index="7"><text x="63.676470588235006" style="color:#000000;cursor:default;font-size:11px;fill:#000000;" text-anchor="middle" transform="translate(0,0)" y="370" opacity="1">1993</text><text x="107.79411764706" style="color:#000000;cursor:default;font-size:11px;fill:#000000;" text-anchor="middle" transform="translate(0,0)" y="370" opacity="1">1996</text><text x="151.91176470588" style="color:#000000;cursor:default;font-size:11px;fill:#000000;" text-anchor="middle" transform="translate(0,0)" y="370" opacity="1">1999</text><text x="196.02941176471" style="color:#000000;cursor:default;font-size:11px;fill:#000000;" text-anchor="middle" transform="translate(0,0)" y="370" opacity="1">2002</text><text x="240.14705882353" style="color:#000000;cursor:default;font-size:11px;fill:#000000;" text-anchor="middle" transform="translate(0,0)" y="370" opacity="1">2005</text><text x="284.26470588235" style="color:#000000;cursor:default;font-size:11px;fill:#000000;" text-anchor="middle" transform="translate(0,0)" y="370" opacity="1">2008</text><text x="328.38235294118" style="color:#000000;cursor:default;font-size:11px;fill:#000000;" text-anchor="middle" transform="translate(0,0)" y="370" opacity="1">2011</text><text x="372.5" style="color:#000000;cursor:default;font-size:11px;fill:#000000;" text-anchor="middle" transform="translate(0,0)" y="370" opacity="1">2014</text><text x="416.61764705882" style="color:#000000;cursor:default;font-size:11px;fill:#000000;" text-anchor="middle" transform="translate(0,0)" y="370" opacity="1">2017</text><text x="460.73529411765" style="color:#000000;cursor:default;font-size:11px;fill:#000000;" text-anchor="middle" transform="translate(0,0)" y="370" opacity="1">2020</text></g><g class="highcharts-axis-labels highcharts-yaxis-labels" data-z-index="7"><text x="25" style="color:#000000;cursor:default;font-size:11px;fill:#000000;" text-anchor="end" transform="translate(0,0)" y="355" opacity="1">0.0</text><text x="25" style="color:#000000;cursor:default;font-size:11px;fill:#000000;" text-anchor="end" transform="translate(0,0)" y="305" opacity="1">0.2</text><text x="25" style="color:#000000;cursor:default;font-size:11px;fill:#000000;" text-anchor="end" transform="translate(0,0)" y="254" opacity="1">0.4</text><text x="25" style="color:#000000;cursor:default;font-size:11px;fill:#000000;" text-anchor="end" transform="translate(0,0)" y="204" opacity="1">0.6</text><text x="25" style="color:#000000;cursor:default;font-size:11px;fill:#000000;" text-anchor="end" transform="translate(0,0)" y="153" opacity="1">0.8</text><text x="25" style="color:#000000;cursor:default;font-size:11px;fill:#000000;" text-anchor="end" transform="translate(0,0)" y="103" opacity="1">1.0</text></g><text x="10" class="highcharts-credits" text-anchor="start" data-z-index="8" style="cursor:default;color:#000000;font-size:10px;fill:#000000;" y="403"><tspan>Quelle: Steuerstatistik Basel-Stadt.</tspan><tspan x="10" dy="13">Zuletzt geändert: 12.7.2023</tspan></text><g class="highcharts-control-points" data-z-index="99" clip-path="url(#highcharts-0g49ua9-129-)"></g></svg>