<?xml version="1.0" standalone="no"?><!DOCTYPE svg PUBLIC "-//W3C//DTD SVG 1.1//EN" "http://www.w3.org/Graphics/SVG/1.1/DTD/svg11.dtd"><svg xmlns:xlink="http://www.w3.org/1999/xlink" version="1.1" class="highcharts-root" style="font-family:Arial;font-size:12px;" xmlns="http://www.w3.org/2000/svg" viewBox="0 0 485 415"><desc>Created with Highstock 6.1.1</desc><defs><clipPath id="highcharts-tvgxefg-6"><rect x="0" y="0" width="410" height="260" fill="none"></rect></clipPath><clipPath id="highcharts-tvgxefg-7"><rect x="0" y="0" width="410" height="260" fill="none"></rect></clipPath></defs><rect fill="#fbfbfb" class="highcharts-background" x="0" y="0" width="485" height="428" rx="0" ry="0"></rect><rect fill="none" class="highcharts-plot-background" x="65" y="92" width="410" height="260"></rect><g class="highcharts-pane-group" data-z-index="0"></g><g class="highcharts-grid highcharts-xaxis-grid " data-z-index="1"><path fill="none" data-z-index="1" class="highcharts-grid-line" d="M 68.5 92 L 68.5 352" opacity="1"></path><path fill="none" data-z-index="1" class="highcharts-grid-line" d="M 123.5 92 L 123.5 352" opacity="1"></path><path fill="none" data-z-index="1" class="highcharts-grid-line" d="M 178.5 92 L 178.5 352" opacity="1"></path><path fill="none" data-z-index="1" class="highcharts-grid-line" d="M 232.5 92 L 232.5 352" opacity="1"></path><path fill="none" data-z-index="1" class="highcharts-grid-line" d="M 287.5 92 L 287.5 352" opacity="1"></path><path fill="none" data-z-index="1" class="highcharts-grid-line" d="M 342.5 92 L 342.5 352" opacity="1"></path><path fill="none" data-z-index="1" class="highcharts-grid-line" d="M 397.5 92 L 397.5 352" opacity="1"></path><path fill="none" data-z-index="1" class="highcharts-grid-line" d="M 452.5 92 L 452.5 352" opacity="1"></path></g><g class="highcharts-grid highcharts-yaxis-grid " data-z-index="1"><path fill="none" stroke="#B9CFD7" stroke-width="0.5" data-z-index="1" class="highcharts-grid-line" d="M 65 352.25 L 475 352.25" opacity="1"></path><path fill="none" stroke="#B9CFD7" stroke-width="0.5" data-z-index="1" class="highcharts-grid-line" d="M 65 287.25 L 475 287.25" opacity="1"></path><path fill="none" stroke="#B9CFD7" stroke-width="0.5" data-z-index="1" class="highcharts-grid-line" d="M 65 222.25 L 475 222.25" opacity="1"></path><path fill="none" stroke="#B9CFD7" stroke-width="0.5" data-z-index="1" class="highcharts-grid-line" d="M 65 157.25 L 475 157.25" opacity="1"></path><path fill="none" stroke="#B9CFD7" stroke-width="0.5" data-z-index="1" class="highcharts-grid-line" d="M 65 91.75 L 475 91.75" opacity="1"></path></g><rect fill="none" class="highcharts-plot-border" data-z-index="1" x="65" y="92" width="410" height="260"></rect><g class="highcharts-axis highcharts-xaxis " data-z-index="2"><path fill="none" class="highcharts-axis-line" stroke="#B9CFD7" stroke-width="0.5" data-z-index="7" d="M 65 352.25 L 475 352.25"></path></g><g class="highcharts-axis highcharts-yaxis " data-z-index="2"><path fill="none" class="highcharts-axis-line" data-z-index="7" d="M 65 92 L 65 352"></path></g><g class="highcharts-series-group" data-z-index="3"><g data-z-index="0.1" class="highcharts-series highcharts-series-0 highcharts-line-series " transform="translate(65,92) scale(1 1)" clip-path="url(#highcharts-tvgxefg-7)"><path fill="none" d="M 4.0196078431377 137.80798142339165 L 22.290552584671 138.91234795903102 L 40.561497326204 139.57057894716377 L 58.832442067737 134.64718732340668 L 77.103386809269 130.37210401977072 L 95.374331550802 118.55397569970239 L 113.64527629234 107.68986200857822 L 131.91622103387 100.1499958674475 L 150.1871657754 93.63444680736771 L 168.45811051693 84.68065503539202 L 186.72905525847 77.15100867456579 L 205 63.71257201688729 L 223.27094474153 50.0118134517937 L 241.54188948307 45.31326036316301 L 259.8128342246 49.58813495733503 L 278.08377896613 48.03546085683152 L 296.35472370766 39.558980773046784 L 314.6256684492 36.944605977997895 L 332.89661319073 39.42514180700164 L 351.16755793226 38.53868332055299 L 369.4385026738 39.72944149734559 L 387.70944741533 38.74250946909723 L 405.98039215686 34.62080700600731" class="highcharts-graph" data-z-index="1" stroke="#6F6F6F" stroke-width="2" stroke-linejoin="round" stroke-linecap="round"></path></g><g data-z-index="0.1" class="highcharts-markers highcharts-series-0 highcharts-line-series " transform="translate(65,92) scale(1 1)" clip-path="none"></g><g data-z-index="0.1" class="highcharts-series highcharts-series-1 highcharts-line-series " transform="translate(65,92) scale(1 1)" clip-path="url(#highcharts-tvgxefg-7)"><path fill="none" d="M 4.0196078431377 159.60300393209275 L 22.290552584671 158.60980899363705 L 40.561497326204 155.06242048903982 L 58.832442067737 152.73543679579888 L 77.103386809269 151.70527626542577 L 95.374331550802 146.8936534183972 L 113.64527629234 148.84656883413254 L 131.91622103387 150.4997703784545 L 150.1871657754 150.35951308098748 L 168.45811051693 147.41271562408042 L 186.72905525847 142.11828284487677 L 205 134.48987836468092 L 223.27094474153 125.42345750540062 L 241.54188948307 121.44662434432843 L 259.8128342246 127.66011755577469 L 278.08377896613 124.98193396576289 L 296.35472370766 126.26827556093662 L 314.6256684492 127.15735243535221 L 332.89661319073 126.3060596995912 L 351.16755793226 126.83530140485101 L 369.4385026738 131.04778426863098 L 387.70944741533 133.2798557046346 L 405.98039215686 132.7355855744334" class="highcharts-graph" data-z-index="1" stroke="#B00000" stroke-width="2" stroke-linejoin="round" stroke-linecap="round"></path></g><g data-z-index="0.1" class="highcharts-markers highcharts-series-1 highcharts-line-series " transform="translate(65,92) scale(1 1)" clip-path="none"></g><g data-z-index="0.1" class="highcharts-series highcharts-series-2 highcharts-line-series " transform="translate(65,92) scale(1 1)" clip-path="url(#highcharts-tvgxefg-7)"><path fill="none" d="M 4.0196078431377 165.86244253898917 L 22.290552584671 163.52525629424375 L 40.561497326204 159.8919603148478 L 58.832442067737 155.88069110402802 L 77.103386809269 153.45061267829684 L 95.374331550802 146.75773110408306 L 113.64527629234 147.32148911982983 L 131.91622103387 150.07408058256834 L 150.1871657754 149.62208912315626 L 168.45811051693 147.93341077057192 L 186.72905525847 145.10457354768818 L 205 138.2121787960744 L 223.27094474153 130.3078074386105 L 241.54188948307 129.40069014136031 L 259.8128342246 134.5597279871966 L 278.08377896613 134.83861876004494 L 296.35472370766 134.01625746375257 L 314.6256684492 133.99313249811036 L 332.89661319073 133.5638766137979 L 351.16755793226 133.07777220170942 L 369.4385026738 133.531821738796 L 387.70944741533 135.00861991495697 L 405.98039215686 134.38046628434535" class="highcharts-graph" data-z-index="1" stroke="#4f81bd" stroke-width="2" stroke-linejoin="round" stroke-linecap="round"></path></g><g data-z-index="0.1" class="highcharts-markers highcharts-series-2 highcharts-line-series " transform="translate(65,92) scale(1 1)" clip-path="none"></g></g><text x="10" text-anchor="start" class="highcharts-title" data-z-index="4" style="color:#000000;font-size:14px;font-weight:bold;fill:#000000;" y="21"><tspan>Bruttoinlandprodukt in Franken pro Einwohner</tspan></text><text x="10" text-anchor="start" class="highcharts-subtitle" data-z-index="4" style="color:#000000;font-size:12px;font-weight:normal;font-family:Arial;fill:#000000;" y="40"><tspan>Basel-Stadt im Vergleich mit ausgewählten Kantonen</tspan></text><g class="highcharts-legend" data-z-index="7" transform="translate(57,55)"><rect fill="none" class="highcharts-legend-box" rx="0" ry="0" x="0" y="0" width="240" height="25" visibility="visible"></rect><g data-z-index="1"><g><g class="highcharts-legend-item highcharts-line-series highcharts-color-undefined highcharts-series-0" data-z-index="1" transform="translate(8,3)"><path fill="none" d="M 0 11 L 16 11" class="highcharts-graph" stroke="#6F6F6F" stroke-width="2"></path><text x="21" style="color:#333333;font-size:12px;font-weight:normal;cursor:pointer;fill:#333333;" text-anchor="start" data-z-index="2" y="15"><tspan>Basel-Stadt</tspan></text></g><g class="highcharts-legend-item highcharts-line-series highcharts-color-undefined highcharts-series-1" data-z-index="1" transform="translate(110.984375,3)"><path fill="none" d="M 0 11 L 16 11" class="highcharts-graph" stroke="#B00000" stroke-width="2"></path><text x="21" y="15" style="color:#333333;font-size:12px;font-weight:normal;cursor:pointer;fill:#333333;" text-anchor="start" data-z-index="2"><tspan>Genf</tspan></text></g><g class="highcharts-legend-item highcharts-line-series highcharts-color-undefined highcharts-series-2" data-z-index="1" transform="translate(177.984375,3)"><path fill="none" d="M 0 11 L 16 11" class="highcharts-graph" stroke="#4f81bd" stroke-width="2"></path><text x="21" y="15" style="color:#333333;font-size:12px;font-weight:normal;cursor:pointer;fill:#333333;" text-anchor="start" data-z-index="2"><tspan>Zürich</tspan></text></g></g></g></g><g class="highcharts-axis-labels highcharts-xaxis-labels " data-z-index="7"><text x="69.019607843138" style="color:#000000;cursor:default;font-size:11px;fill:#000000;" text-anchor="middle" transform="translate(0,0)" y="371" opacity="1">1995</text><text x="123.83244206774" style="color:#000000;cursor:default;font-size:11px;fill:#000000;" text-anchor="middle" transform="translate(0,0)" y="371" opacity="1">1998</text><text x="178.64527629234" style="color:#000000;cursor:default;font-size:11px;fill:#000000;" text-anchor="middle" transform="translate(0,0)" y="371" opacity="1">2001</text><text x="233.45811051693" style="color:#000000;cursor:default;font-size:11px;fill:#000000;" text-anchor="middle" transform="translate(0,0)" y="371" opacity="1">2004</text><text x="288.27094474153" style="color:#000000;cursor:default;font-size:11px;fill:#000000;" text-anchor="middle" transform="translate(0,0)" y="371" opacity="1">2007</text><text x="343.08377896613" style="color:#000000;cursor:default;font-size:11px;fill:#000000;" text-anchor="middle" transform="translate(0,0)" y="371" opacity="1">2010</text><text x="397.89661319073" style="color:#000000;cursor:default;font-size:11px;fill:#000000;" text-anchor="middle" transform="translate(0,0)" y="371" opacity="1">2013</text><text x="452.70944741533" style="color:#000000;cursor:default;font-size:11px;fill:#000000;" text-anchor="middle" transform="translate(0,0)" y="371" opacity="1">2016</text></g><g class="highcharts-axis-labels highcharts-yaxis-labels " data-z-index="7"><text x="50" style="color:#000000;cursor:default;font-size:11px;fill:#000000;" text-anchor="end" transform="translate(0,0)" y="357" opacity="1">0</text><text x="50" style="color:#000000;cursor:default;font-size:11px;fill:#000000;" text-anchor="end" transform="translate(0,0)" y="292" opacity="1"><tspan>50 000</tspan></text><text x="50" style="color:#000000;cursor:default;font-size:11px;fill:#000000;" text-anchor="end" transform="translate(0,0)" y="227" opacity="1"><tspan>100 000</tspan></text><text x="50" style="color:#000000;cursor:default;font-size:11px;fill:#000000;" text-anchor="end" transform="translate(0,0)" y="162" opacity="1"><tspan>150 000</tspan></text><text x="50" style="color:#000000;cursor:default;font-size:11px;fill:#000000;" text-anchor="end" transform="translate(0,0)" y="97" opacity="1"><tspan>200 000</tspan></text></g><text x="10" class="highcharts-credits" text-anchor="start" data-z-index="8" style="cursor:default;color:#000000;font-size:10px;fill:#000000;" y="403"><tspan>Quelle: BAK Economics.</tspan><tspan x="10" dy="13">Zuletzt geändert: 2018-10-25</tspan></text></svg>