<?xml version="1.0" standalone="no"?><!DOCTYPE svg PUBLIC "-//W3C//DTD SVG 1.1//EN" "http://www.w3.org/Graphics/SVG/1.1/DTD/svg11.dtd"><svg xmlns:xlink="http://www.w3.org/1999/xlink" version="1.1" class="highcharts-root" style="font-family:Arial;font-size:12px;" xmlns="http://www.w3.org/2000/svg" viewBox="0 0 485 415"><desc>Created with Highstock 6.1.1</desc><defs><clipPath id="highcharts-irutdmz-6"><rect x="0" y="0" width="434" height="265" fill="none"></rect></clipPath><clipPath id="highcharts-irutdmz-7"><rect x="0" y="0" width="434" height="265" fill="none"></rect></clipPath></defs><rect fill="#fbfbfb" class="highcharts-background" x="0" y="0" width="485" height="428" rx="0" ry="0"></rect><rect fill="none" class="highcharts-plot-background" x="41" y="97" width="434" height="265"></rect><g class="highcharts-pane-group" data-z-index="0"></g><g class="highcharts-grid highcharts-xaxis-grid " data-z-index="1"><path fill="none" data-z-index="1" class="highcharts-grid-line" d="M 62.5 97 L 62.5 362" opacity="1"></path><path fill="none" data-z-index="1" class="highcharts-grid-line" d="M 97.5 97 L 97.5 362" opacity="1"></path><path fill="none" data-z-index="1" class="highcharts-grid-line" d="M 133.5 97 L 133.5 362" opacity="1"></path><path fill="none" data-z-index="1" class="highcharts-grid-line" d="M 168.5 97 L 168.5 362" opacity="1"></path><path fill="none" data-z-index="1" class="highcharts-grid-line" d="M 204.5 97 L 204.5 362" opacity="1"></path><path fill="none" data-z-index="1" class="highcharts-grid-line" d="M 239.5 97 L 239.5 362" opacity="1"></path><path fill="none" data-z-index="1" class="highcharts-grid-line" d="M 275.5 97 L 275.5 362" opacity="1"></path><path fill="none" data-z-index="1" class="highcharts-grid-line" d="M 310.5 97 L 310.5 362" opacity="1"></path><path fill="none" data-z-index="1" class="highcharts-grid-line" d="M 346.5 97 L 346.5 362" opacity="1"></path><path fill="none" data-z-index="1" class="highcharts-grid-line" d="M 381.5 97 L 381.5 362" opacity="1"></path><path fill="none" data-z-index="1" class="highcharts-grid-line" d="M 417.5 97 L 417.5 362" opacity="1"></path><path fill="none" data-z-index="1" class="highcharts-grid-line" d="M 452.5 97 L 452.5 362" opacity="1"></path></g><g class="highcharts-grid highcharts-yaxis-grid " data-z-index="1"><path fill="none" stroke="#B9CFD7" stroke-width="0.5" data-z-index="1" class="highcharts-grid-line" d="M 41 362.25 L 475 362.25" opacity="1"></path><path fill="none" stroke="#B9CFD7" stroke-width="0.5" data-z-index="1" class="highcharts-grid-line" d="M 41 296.25 L 475 296.25" opacity="1"></path><path fill="none" stroke="#B9CFD7" stroke-width="0.5" data-z-index="1" class="highcharts-grid-line" d="M 41 230.25 L 475 230.25" opacity="1"></path><path fill="none" stroke="#B9CFD7" stroke-width="0.5" data-z-index="1" class="highcharts-grid-line" d="M 41 163.25 L 475 163.25" opacity="1"></path><path fill="none" stroke="#B9CFD7" stroke-width="0.5" data-z-index="1" class="highcharts-grid-line" d="M 41 96.75 L 475 96.75" opacity="1"></path></g><rect fill="none" class="highcharts-plot-border" data-z-index="1" x="41" y="97" width="434" height="265"></rect><g class="highcharts-axis highcharts-xaxis " data-z-index="2"><path fill="none" class="highcharts-axis-line" stroke="#B9CFD7" stroke-width="0.5" data-z-index="7" d="M 41 362.25 L 475 362.25"></path></g><g class="highcharts-axis highcharts-yaxis " data-z-index="2"><path fill="none" class="highcharts-axis-line" data-z-index="7" d="M 41 97 L 41 362"></path></g><g class="highcharts-series-group" data-z-index="3"><g data-z-index="0.1" class="highcharts-series highcharts-series-0 highcharts-line-series " transform="translate(41,97) scale(1 1)" clip-path="url(#highcharts-irutdmz-7)"><path fill="none" d="M 4.2549019607845 81.24237499999998 L 21.983660130719 74.8128125 L 39.712418300654 102.12437500000001 L 57.441176470588 110.62756250000001 L 75.169934640523 102.28006250000001 L 92.898692810458 141.066125 L 110.62745098039 183.1945 L 128.35620915033 195.391125 L 146.08496732026 193.40031249999998 L 163.8137254902 165.5455 L 181.54248366013 123.841125 L 199.27124183007 113.43325000000002 L 217 130.439625 L 234.72875816993 141.3775 L 252.45751633987 157.7313125 L 270.1862745098 165.764125 L 287.91503267974 139.22106250000002 L 305.64379084967 126.6666875 L 323.37254901961 144.0241875 L 341.10130718954 144.0109375 L 358.83006535948 141.582875 L 376.55882352941 152.6168125 L 394.28758169935 144.00431250000003 L 412.01633986928 136.91225 L 429.74509803922 140.46325000000002" class="highcharts-graph" data-z-index="1" stroke="#3C3C3C" stroke-width="2" stroke-linejoin="round" stroke-linecap="round"></path></g><g data-z-index="0.1" class="highcharts-markers highcharts-series-0 highcharts-line-series " transform="translate(41,97) scale(1 1)" clip-path="none"></g><g data-z-index="0.1" class="highcharts-series highcharts-series-1 highcharts-line-series " transform="translate(41,97) scale(1 1)" clip-path="url(#highcharts-irutdmz-7)"><path fill="none" d="M 4.2549019607845 65.18337499999998 L 21.983660130719 60.959937499999995 L 39.712418300654 98.37462500000001 L 57.441176470588 107.0865 L 75.169934640523 86.3601875 L 92.898692810458 144.7860625 L 110.62745098039 183.8934375 L 128.35620915033 180.90224999999998 L 146.08496732026 175.8109375 L 163.8137254902 127.6736875 L 181.54248366013 57.12074999999999 L 199.27124183007 36.11949999999999 L 217 61.486625000000004 L 234.72875816993 88.351 L 252.45751633987 129.286875 L 270.1862745098 146.922625 L 287.91503267974 107.62643749999998 L 305.64379084967 58.83000000000001 L 323.37254901961 94.53212500000001 L 341.10130718954 115.798375 L 358.83006535948 112.10825 L 376.55882352941 117.7229375 L 394.28758169935 114.81787499999999 L 412.01633986928 116.195875 L 429.74509803922 126.299" class="highcharts-graph" data-z-index="1" stroke="#68AB2B" stroke-width="2" stroke-linejoin="round" stroke-linecap="round"></path></g><g data-z-index="0.1" class="highcharts-markers highcharts-series-1 highcharts-line-series " transform="translate(41,97) scale(1 1)" clip-path="none"></g><g data-z-index="0.1" class="highcharts-series highcharts-series-2 highcharts-line-series " transform="translate(41,97) scale(1 1)" clip-path="url(#highcharts-irutdmz-7)"><path fill="none" d="M 4.2549019607845 147.227375 L 21.983660130719 131.9468125 L 39.712418300654 151.739 L 57.441176470588 163.352625 L 75.169934640523 156.2605625 L 92.898692810458 177.02993750000002 L 110.62745098039 206.295875 L 128.35620915033 214.9249375 L 146.08496732026 216.2830625 L 163.8137254902 198.04775 L 181.54248366013 175.794375 L 199.27124183007 160.8119375 L 217 165.53225 L 234.72875816993 169.9941875 L 252.45751633987 175.60556250000002 L 270.1862745098 179.3023125 L 287.91503267974 165.24075 L 305.64379084967 163.273125 L 323.37254901961 170.77925 L 341.10130718954 171.12375 L 358.83006535948 167.5694375 L 376.55882352941 172.13075 L 394.28758169935 167.94375 L 412.01633986928 161.2293125 L 429.74509803922 163.80643750000002" class="highcharts-graph" data-z-index="1" stroke="#008AC3" stroke-width="2" stroke-linejoin="round" stroke-linecap="round"></path></g><g data-z-index="0.1" class="highcharts-markers highcharts-series-2 highcharts-line-series " transform="translate(41,97) scale(1 1)" clip-path="none"></g></g><text x="10" text-anchor="start" class="highcharts-title" data-z-index="4" style="color:#000000;font-size:14px;font-weight:bold;fill:#000000;" y="21"><tspan>Arbeitslosenquote im Jahresmittel nach Altersgruppe</tspan></text><text x="10" text-anchor="start" class="highcharts-subtitle" data-z-index="4" style="color:#000000;font-size:12px;font-weight:normal;font-family:Arial;fill:#000000;" y="40"><tspan>Basel-Stadt</tspan></text><g class="highcharts-legend" data-z-index="7" transform="translate(33,55)"><rect fill="none" class="highcharts-legend-box" rx="0" ry="0" x="0" y="0" width="310" height="30" visibility="visible"></rect><g data-z-index="1"><g><g class="highcharts-legend-item highcharts-line-series highcharts-color-undefined highcharts-series-1" data-z-index="1" transform="translate(8,3)"><path fill="none" d="M 0 11 L 16 11" class="highcharts-graph" stroke="#68AB2B" stroke-width="2"></path><text x="21" style="color:#333333;font-size:12px;font-weight:normal;cursor:pointer;fill:#333333;" text-anchor="start" data-z-index="2" y="15"><tspan>15-24 Jahre</tspan></text></g><g class="highcharts-legend-item highcharts-line-series highcharts-color-undefined highcharts-series-0" data-z-index="1" transform="translate(113,3)"><path fill="none" d="M 0 11 L 16 11" class="highcharts-graph" stroke="#3C3C3C" stroke-width="2"></path><text x="21" y="15" style="color:#333333;font-size:12px;font-weight:normal;cursor:pointer;fill:#333333;" text-anchor="start" data-z-index="2"><tspan>Total</tspan></text></g><g class="highcharts-legend-item highcharts-line-series highcharts-color-undefined highcharts-series-2" data-z-index="1" transform="translate(180.65625,3)"><path fill="none" d="M 0 11 L 16 11" class="highcharts-graph" stroke="#008AC3" stroke-width="2"></path><text x="21" y="15" style="color:#333333;font-size:12px;font-weight:normal;cursor:pointer;fill:#333333;" text-anchor="start" data-z-index="2"><tspan>50 Jahre und mehr</tspan></text></g></g></g></g><g class="highcharts-axis-labels highcharts-xaxis-labels " data-z-index="7"><text x="62.983660130719" style="color:#000000;cursor:default;font-size:11px;fill:#000000;" text-anchor="middle" transform="translate(0,0)" y="381" opacity="1">1994</text><text x="98.441176470588" style="color:#000000;cursor:default;font-size:11px;fill:#000000;" text-anchor="middle" transform="translate(0,0)" y="381" opacity="1">1996</text><text x="133.89869281046" style="color:#000000;cursor:default;font-size:11px;fill:#000000;" text-anchor="middle" transform="translate(0,0)" y="381" opacity="1">1998</text><text x="169.35620915033" style="color:#000000;cursor:default;font-size:11px;fill:#000000;" text-anchor="middle" transform="translate(0,0)" y="381" opacity="1">2000</text><text x="204.8137254902" style="color:#000000;cursor:default;font-size:11px;fill:#000000;" text-anchor="middle" transform="translate(0,0)" y="381" opacity="1">2002</text><text x="240.27124183007" style="color:#000000;cursor:default;font-size:11px;fill:#000000;" text-anchor="middle" transform="translate(0,0)" y="381" opacity="1">2004</text><text x="275.72875816993" style="color:#000000;cursor:default;font-size:11px;fill:#000000;" text-anchor="middle" transform="translate(0,0)" y="381" opacity="1">2006</text><text x="311.1862745098" style="color:#000000;cursor:default;font-size:11px;fill:#000000;" text-anchor="middle" transform="translate(0,0)" y="381" opacity="1">2008</text><text x="346.64379084967" style="color:#000000;cursor:default;font-size:11px;fill:#000000;" text-anchor="middle" transform="translate(0,0)" y="381" opacity="1">2010</text><text x="382.10130718954" style="color:#000000;cursor:default;font-size:11px;fill:#000000;" text-anchor="middle" transform="translate(0,0)" y="381" opacity="1">2012</text><text x="417.55882352941" style="color:#000000;cursor:default;font-size:11px;fill:#000000;" text-anchor="middle" transform="translate(0,0)" y="381" opacity="1">2014</text><text x="453.01633986928" style="color:#000000;cursor:default;font-size:11px;fill:#000000;" text-anchor="middle" transform="translate(0,0)" y="381" opacity="1">2016</text></g><g class="highcharts-axis-labels highcharts-yaxis-labels " data-z-index="7"><text x="26" style="color:#000000;cursor:default;font-size:11px;fill:#000000;" text-anchor="end" transform="translate(0,0)" y="367" opacity="1">0%</text><text x="26" style="color:#000000;cursor:default;font-size:11px;fill:#000000;" text-anchor="end" transform="translate(0,0)" y="300" opacity="1">2%</text><text x="26" style="color:#000000;cursor:default;font-size:11px;fill:#000000;" text-anchor="end" transform="translate(0,0)" y="234" opacity="1">4%</text><text x="26" style="color:#000000;cursor:default;font-size:11px;fill:#000000;" text-anchor="end" transform="translate(0,0)" y="168" opacity="1">6%</text><text x="26" style="color:#000000;cursor:default;font-size:11px;fill:#000000;" text-anchor="end" transform="translate(0,0)" y="102" opacity="1">8%</text></g><text x="10" class="highcharts-credits" text-anchor="start" data-z-index="8" style="cursor:default;color:#000000;font-size:10px;fill:#000000;" y="423"><tspan>Quelle: Staatssekretariat für Wirtschaft SECO, Arbeitslosenstatistik.</tspan><tspan x="10" dy="13">Zuletzt geändert: 2018-10-31</tspan></text></svg>