<?xml version="1.0" standalone="no"?>
<!DOCTYPE svg PUBLIC "-//W3C//DTD SVG 1.1//EN" "http://www.w3.org/Graphics/SVG/1.1/DTD/svg11.dtd">
<svg xmlns:xlink="http://www.w3.org/1999/xlink" version="1.1" class="highcharts-root" style="font-family:arial;font-size:12px;" xmlns="http://www.w3.org/2000/svg" viewBox="0 0 485 415">
  <desc>
    Created with Highstock 5.0.14
  </desc>
  <defs>
    <clipPath>
      <rect x="0" y="0" width="423" height="243" fill="none"/>
    </clipPath>
    <clipPath id="a">
      <rect x="0" y="0" width="423" height="243" fill="none"/>
    </clipPath>
  </defs>
  <rect fill="#fbfbfb" class="highcharts-background" x="0" y="0" width="485" height="415" rx="0" ry="0"/>
  <rect fill="none" class="highcharts-plot-background" x="52" y="106" width="423" height="243"/>
  <g class="highcharts-pane-group"/>
  <g class="highcharts-grid highcharts-xaxis-grid ">
    <path fill="none" class="highcharts-grid-line" d="M 55.5 106 L 55.5 349" opacity="1"/>
    <path fill="none" class="highcharts-grid-line" d="M 93.5 106 L 93.5 349" opacity="1"/>
    <path fill="none" class="highcharts-grid-line" d="M 131.5 106 L 131.5 349" opacity="1"/>
    <path fill="none" class="highcharts-grid-line" d="M 168.5 106 L 168.5 349" opacity="1"/>
    <path fill="none" class="highcharts-grid-line" d="M 206.5 106 L 206.5 349" opacity="1"/>
    <path fill="none" class="highcharts-grid-line" d="M 244.5 106 L 244.5 349" opacity="1"/>
    <path fill="none" class="highcharts-grid-line" d="M 281.5 106 L 281.5 349" opacity="1"/>
    <path fill="none" class="highcharts-grid-line" d="M 319.5 106 L 319.5 349" opacity="1"/>
    <path fill="none" class="highcharts-grid-line" d="M 357.5 106 L 357.5 349" opacity="1"/>
    <path fill="none" class="highcharts-grid-line" d="M 394.5 106 L 394.5 349" opacity="1"/>
    <path fill="none" class="highcharts-grid-line" d="M 432.5 106 L 432.5 349" opacity="1"/>
    <path fill="none" class="highcharts-grid-line" d="M 470.5 106 L 470.5 349" opacity="1"/>
  </g>
  <g class="highcharts-grid highcharts-yaxis-grid ">
    <path fill="none" stroke="#B9CFD7" stroke-width="0.5" class="highcharts-grid-line" d="M 52 349.25 L 475 349.25" opacity="1"/>
    <path fill="none" stroke="#B9CFD7" stroke-width="0.5" class="highcharts-grid-line" d="M 52 300.25 L 475 300.25" opacity="1"/>
    <path fill="none" stroke="#B9CFD7" stroke-width="0.5" class="highcharts-grid-line" d="M 52 252.25 L 475 252.25" opacity="1"/>
    <path fill="none" stroke="#B9CFD7" stroke-width="0.5" class="highcharts-grid-line" d="M 52 203.25 L 475 203.25" opacity="1"/>
    <path fill="none" stroke="#B9CFD7" stroke-width="0.5" class="highcharts-grid-line" d="M 52 155.25 L 475 155.25" opacity="1"/>
    <path fill="none" stroke="#B9CFD7" stroke-width="0.5" class="highcharts-grid-line" d="M 52 105.75 L 475 105.75" opacity="1"/>
  </g>
  <rect fill="none" class="highcharts-plot-border" x="52" y="106" width="423" height="243"/>
  <g class="highcharts-axis highcharts-xaxis ">
    <path fill="none" class="highcharts-axis-line" stroke="#B9CFD7" stroke-width="0.5" d="M 52 349.25 L 475 349.25"/>
  </g>
  <g class="highcharts-axis highcharts-yaxis ">
    <path fill="none" class="highcharts-axis-line" d="M 52 106 L 52 349"/>
  </g>
  <g class="highcharts-series-group">
    <g class="highcharts-series highcharts-series-0 highcharts-line-series highcharts-color-undefined " transform="translate(52,106) scale(1 1)" clip-path="url(#a)">
      <path fill="none" d="M 4.1470588235257 150.0282 L 41.847593582885 145.8972 L 79.548128342244 140.8914 L 117.2486631016 134.1846 L 154.94919786096 130.44240000000002 L 192.64973262032 100.69920000000002 L 230.35026737968 86.89680000000001 L 268.05080213904 74.9898 L 305.7513368984 69.98400000000001 L 343.45187165776 55.45260000000002 L 381.15240641712 49.23180000000002 L 418.85294117647 40.77540000000002" class="highcharts-graph" stroke="#B00000" stroke-width="2" stroke-linejoin="round" stroke-linecap="round"/>
    </g>
    <g class="highcharts-markers highcharts-series-0 highcharts-line-series highcharts-color-undefined " transform="translate(52,106) scale(1 1)" clip-path="none"/>
    <g class="highcharts-series highcharts-series-1 highcharts-line-series highcharts-color-undefined " transform="translate(52,106) scale(1 1)" clip-path="url(#a)">
      <path fill="none" d="M 4.1470588235257 220.3038 L 41.847593582885 215.2494 L 79.548128342244 206.4528 L 117.2486631016 204.1686 L 154.94919786096 203.1966 L 192.64973262032 198.774 L 230.35026737968 204.02280000000002 L 268.05080213904 206.8902 L 305.7513368984 201.6414 L 343.45187165776 198.3366 L 381.15240641712 204.9948 L 418.85294117647 202.5648" class="highcharts-graph" stroke="#662673" stroke-width="2" stroke-linejoin="round" stroke-linecap="round"/>
    </g>
    <g class="highcharts-markers highcharts-series-1 highcharts-line-series highcharts-color-undefined " transform="translate(52,106) scale(1 1)" clip-path="none"/>
    <g class="highcharts-series highcharts-series-2 highcharts-line-series highcharts-color-undefined " transform="translate(52,106) scale(1 1)" clip-path="url(#a)">
      <path fill="none" d="M 4.1470588235257 223.9488 L 41.847593582885 223.8516 L 79.548128342244 219.2832 L 117.2486631016 212.868 L 154.94919786096 203.43959999999998 L 192.64973262032 185.9922 L 230.35026737968 169.614 L 268.05080213904 135.64260000000002 L 305.7513368984 98.85240000000002 L 343.45187165776 62.88840000000002 L 381.15240641712 43.93440000000001 L 418.85294117647 35.38080000000002" class="highcharts-graph" stroke="#008AC3" stroke-width="2" stroke-linejoin="round" stroke-linecap="round"/>
    </g>
    <g class="highcharts-markers highcharts-series-2 highcharts-line-series highcharts-color-undefined " transform="translate(52,106) scale(1 1)" clip-path="none"/>
    <g class="highcharts-series highcharts-series-3 highcharts-line-series highcharts-color-undefined " transform="translate(52,106) scale(1 1)" clip-path="url(#a)">
      <path fill="none" d="M 154.94919786096 235.5642 L 192.64973262032 234.3492 L 230.35026737968 234.4464 L 268.05080213904 234.1548 L 305.7513368984 233.6202 L 343.45187165776 233.3772 L 381.15240641712 233.3772 L 418.85294117647 233.523" class="highcharts-graph" stroke="#007A2F" stroke-width="2" stroke-linejoin="round" stroke-linecap="round"/>
    </g>
    <g class="highcharts-markers highcharts-series-3 highcharts-line-series highcharts-color-undefined " transform="translate(52,106) scale(1 1)" clip-path="none"/>
  </g>
  <text x="10" text-anchor="start" class="highcharts-title" style="color:#000000;font-size:14px;font-weight:bold;fill:#000000;" y="21">
    <tspan>Angebotene Plätze für Tagesbetreuung und Tagesstrukturen</tspan>
  </text>
  <g class="highcharts-legend" transform="translate(44,45)">
    <rect fill="none" class="highcharts-legend-box" rx="0" ry="0" x="0" y="0" width="296" height="49" visibility="visible"/>
    <g>
      <g>
        <g class="highcharts-legend-item highcharts-line-series highcharts-color-undefined highcharts-series-0" transform="translate(8,3)">
          <path fill="none" d="M 0 11 L 16 11" class="highcharts-graph" stroke="#B00000" stroke-width="2"/>
          <text x="21" style="color:#333333;font-size:12px;font-weight:normal;cursor:pointer;fill:#333333;" text-anchor="start" y="15">
            <tspan>Tagesbetreuung</tspan>
          </text>
        </g>
        <g class="highcharts-legend-item highcharts-line-series highcharts-color-undefined highcharts-series-2" transform="translate(158,3)">
          <path fill="none" d="M 0 11 L 16 11" class="highcharts-graph" stroke="#008AC3" stroke-width="2"/>
          <text x="21" y="15" style="color:#333333;font-size:12px;font-weight:normal;cursor:pointer;fill:#333333;" text-anchor="start">
            <tspan>Tagesstrukturen i…</tspan><title>Tagesstrukturen in den Schulen</title>
          </text>
        </g>
        <g class="highcharts-legend-item highcharts-line-series highcharts-color-undefined highcharts-series-3" transform="translate(8,22)">
          <path fill="none" d="M 0 11 L 16 11" class="highcharts-graph" stroke="#007A2F" stroke-width="2"/>
          <text x="21" y="15" style="color:#333333;font-size:12px;font-weight:normal;cursor:pointer;fill:#333333;" text-anchor="start">
            <tspan>Tagesferien</tspan>
          </text>
        </g>
        <g class="highcharts-legend-item highcharts-line-series highcharts-color-undefined highcharts-series-1" transform="translate(158,22)">
          <path fill="none" d="M 0 11 L 16 11" class="highcharts-graph" stroke="#662673" stroke-width="2"/>
          <text x="21" y="15" style="color:#333333;font-size:12px;font-weight:normal;cursor:pointer;fill:#333333;" text-anchor="start">
            <tspan>Tagesstrukturen i…</tspan><title>Tagesstrukturen in den Quartieren</title>
          </text>
        </g>
      </g>
    </g>
  </g>
  <g class="highcharts-axis-labels highcharts-xaxis-labels ">
    <text x="56.14705882352571" style="color:#000000;cursor:default;font-size:11px;fill:#000000;" text-anchor="middle" transform="translate(0,0)" y="368" opacity="1">
      2005
    </text>
    <text x="93.84759358288467" style="color:#000000;cursor:default;font-size:11px;fill:#000000;" text-anchor="middle" transform="translate(0,0)" y="368" opacity="1">
      2006
    </text>
    <text x="131.54812834224361" style="color:#000000;cursor:default;font-size:11px;fill:#000000;" text-anchor="middle" transform="translate(0,0)" y="368" opacity="1">
      2007
    </text>
    <text x="169.24866310160257" style="color:#000000;cursor:default;font-size:11px;fill:#000000;" text-anchor="middle" transform="translate(0,0)" y="368" opacity="1">
      2008
    </text>
    <text x="206.94919786096156" style="color:#000000;cursor:default;font-size:11px;fill:#000000;" text-anchor="middle" transform="translate(0,0)" y="368" opacity="1">
      2009
    </text>
    <text x="244.64973262032052" style="color:#000000;cursor:default;font-size:11px;fill:#000000;" text-anchor="middle" transform="translate(0,0)" y="368" opacity="1">
      2010
    </text>
    <text x="282.3502673796795" style="color:#000000;cursor:default;font-size:11px;fill:#000000;" text-anchor="middle" transform="translate(0,0)" y="368" opacity="1">
      2011
    </text>
    <text x="320.0508021390384" style="color:#000000;cursor:default;font-size:11px;fill:#000000;" text-anchor="middle" transform="translate(0,0)" y="368" opacity="1">
      2012
    </text>
    <text x="357.75133689839737" style="color:#000000;cursor:default;font-size:11px;fill:#000000;" text-anchor="middle" transform="translate(0,0)" y="368" opacity="1">
      2013
    </text>
    <text x="395.4518716577563" style="color:#000000;cursor:default;font-size:11px;fill:#000000;" text-anchor="middle" transform="translate(0,0)" y="368" opacity="1">
      2014
    </text>
    <text x="433.1524064171153" style="color:#000000;cursor:default;font-size:11px;fill:#000000;" text-anchor="middle" transform="translate(0,0)" y="368" opacity="1">
      2015
    </text>
    <text x="463.31283422460075" style="color:#000000;cursor:default;font-size:11px;fill:#000000;" text-anchor="middle" transform="translate(0,0)" y="368" opacity="1">
      <tspan>2016</tspan>
    </text>
  </g>
  <g class="highcharts-axis-labels highcharts-yaxis-labels ">
    <text x="37" style="color:#000000;cursor:default;font-size:11px;fill:#000000;" text-anchor="end" transform="translate(0,0)" y="354" opacity="1">
      <tspan>0</tspan>
    </text>
    <text x="37" style="color:#000000;cursor:default;font-size:11px;fill:#000000;" text-anchor="end" transform="translate(0,0)" y="305" opacity="1">
      <tspan>1 000</tspan>
    </text>
    <text x="37" style="color:#000000;cursor:default;font-size:11px;fill:#000000;" text-anchor="end" transform="translate(0,0)" y="256" opacity="1">
      <tspan>2 000</tspan>
    </text>
    <text x="37" style="color:#000000;cursor:default;font-size:11px;fill:#000000;" text-anchor="end" transform="translate(0,0)" y="208" opacity="1">
      <tspan>3 000</tspan>
    </text>
    <text x="37" style="color:#000000;cursor:default;font-size:11px;fill:#000000;" text-anchor="end" transform="translate(0,0)" y="159" opacity="1">
      <tspan>4 000</tspan>
    </text>
    <text x="37" style="color:#000000;cursor:default;font-size:11px;fill:#000000;" text-anchor="end" transform="translate(0,0)" y="111" opacity="1">
      <tspan>5 000</tspan>
    </text>
  </g>
  <text x="10" class="highcharts-credits" text-anchor="start" style="cursor:default;color:#000000;font-size:10px;fill:#000000;" y="400">
    <tspan>Quelle: Erziehungsdepartement Basel-Stadt, Fachstelle Tagesbetreuung</tspan>
  </text>
</svg>
