<?xml version="1.0" standalone="no"?><!DOCTYPE svg PUBLIC "-//W3C//DTD SVG 1.1//EN" "http://www.w3.org/Graphics/SVG/1.1/DTD/svg11.dtd"><svg xmlns:xlink="http://www.w3.org/1999/xlink" version="1.1" class="highcharts-root" style="font-family:Arial;font-size:12px;" xmlns="http://www.w3.org/2000/svg" viewBox="0 0 485 415"><desc>Created with Highstock 6.1.1</desc><defs><clipPath id="highcharts-ltwn1ir-7"><rect x="0" y="0" width="285" height="413" fill="none"></rect></clipPath><clipPath id="highcharts-ltwn1ir-8"><rect x="0" y="0" width="285" height="413" fill="none"></rect></clipPath></defs><rect fill="#fbfbfb" class="highcharts-background" x="0" y="0" width="485" height="428" rx="0" ry="0"></rect><rect fill="none" class="highcharts-plot-background" x="62" y="92" width="413" height="285"></rect><g class="highcharts-pane-group" data-z-index="0"></g><g class="highcharts-grid highcharts-xaxis-grid " data-z-index="1"><path fill="none" data-z-index="1" class="highcharts-grid-line" d="M 62 363.5 L 475 363.5" opacity="1"></path><path fill="none" data-z-index="1" class="highcharts-grid-line" d="M 62 349.5 L 475 349.5" opacity="1"></path><path fill="none" data-z-index="1" class="highcharts-grid-line" d="M 62 334.5 L 475 334.5" opacity="1"></path><path fill="none" data-z-index="1" class="highcharts-grid-line" d="M 62 320.5 L 475 320.5" opacity="1"></path><path fill="none" data-z-index="1" class="highcharts-grid-line" d="M 62 306.5 L 475 306.5" opacity="1"></path><path fill="none" data-z-index="1" class="highcharts-grid-line" d="M 62 292.5 L 475 292.5" opacity="1"></path><path fill="none" data-z-index="1" class="highcharts-grid-line" d="M 62 277.5 L 475 277.5" opacity="1"></path><path fill="none" data-z-index="1" class="highcharts-grid-line" d="M 62 263.5 L 475 263.5" opacity="1"></path><path fill="none" data-z-index="1" class="highcharts-grid-line" d="M 62 249.5 L 475 249.5" opacity="1"></path><path fill="none" data-z-index="1" class="highcharts-grid-line" d="M 62 235.5 L 475 235.5" opacity="1"></path><path fill="none" data-z-index="1" class="highcharts-grid-line" d="M 62 220.5 L 475 220.5" opacity="1"></path><path fill="none" data-z-index="1" class="highcharts-grid-line" d="M 62 206.5 L 475 206.5" opacity="1"></path><path fill="none" data-z-index="1" class="highcharts-grid-line" d="M 62 192.5 L 475 192.5" opacity="1"></path><path fill="none" data-z-index="1" class="highcharts-grid-line" d="M 62 178.5 L 475 178.5" opacity="1"></path><path fill="none" data-z-index="1" class="highcharts-grid-line" d="M 62 163.5 L 475 163.5" opacity="1"></path><path fill="none" data-z-index="1" class="highcharts-grid-line" d="M 62 149.5 L 475 149.5" opacity="1"></path><path fill="none" data-z-index="1" class="highcharts-grid-line" d="M 62 135.5 L 475 135.5" opacity="1"></path><path fill="none" data-z-index="1" class="highcharts-grid-line" d="M 62 121.5 L 475 121.5" opacity="1"></path><path fill="none" data-z-index="1" class="highcharts-grid-line" d="M 62 106.5 L 475 106.5" opacity="1"></path><path fill="none" data-z-index="1" class="highcharts-grid-line" d="M 62 92.5 L 475 92.5" opacity="1"></path><path fill="none" data-z-index="1" class="highcharts-grid-line" d="M 62 377.5 L 475 377.5" opacity="1"></path></g><g class="highcharts-grid highcharts-yaxis-grid " data-z-index="1"><path fill="none" stroke="#e6e6e6" stroke-width="1" data-z-index="1" class="highcharts-grid-line" d="M 268.5 92 L 268.5 377" opacity="1"></path><path fill="none" stroke="#e6e6e6" stroke-width="1" data-z-index="1" class="highcharts-grid-line" d="M 309.5 92 L 309.5 377" opacity="1"></path><path fill="none" stroke="#e6e6e6" stroke-width="1" data-z-index="1" class="highcharts-grid-line" d="M 350.5 92 L 350.5 377" opacity="1"></path><path fill="none" stroke="#e6e6e6" stroke-width="1" data-z-index="1" class="highcharts-grid-line" d="M 391.5 92 L 391.5 377" opacity="1"></path><path fill="none" stroke="#e6e6e6" stroke-width="1" data-z-index="1" class="highcharts-grid-line" d="M 433.5 92 L 433.5 377" opacity="1"></path><path fill="none" stroke="#e6e6e6" stroke-width="1" data-z-index="1" class="highcharts-grid-line" d="M 475.5 92 L 475.5 377" opacity="1"></path><path fill="none" stroke="#e6e6e6" stroke-width="1" data-z-index="1" opacity="1" class="highcharts-grid-line" d="M 61.5 92 L 61.5 377"></path><path fill="none" stroke="#e6e6e6" stroke-width="1" data-z-index="1" opacity="1" class="highcharts-grid-line" d="M 102.5 92 L 102.5 377"></path><path fill="none" stroke="#e6e6e6" stroke-width="1" data-z-index="1" opacity="1" class="highcharts-grid-line" d="M 144.5 92 L 144.5 377"></path><path fill="none" stroke="#e6e6e6" stroke-width="1" data-z-index="1" opacity="1" class="highcharts-grid-line" d="M 185.5 92 L 185.5 377"></path><path fill="none" stroke="#e6e6e6" stroke-width="1" data-z-index="1" opacity="1" class="highcharts-grid-line" d="M 226.5 92 L 226.5 377"></path></g><rect fill="none" class="highcharts-plot-border" data-z-index="1" x="62" y="92" width="413" height="285"></rect><g class="highcharts-axis highcharts-xaxis " data-z-index="2"><path fill="none" class="highcharts-axis-line" stroke="#ccd6eb" stroke-width="1" data-z-index="7" d="M 61.5 92 L 61.5 377"></path></g><g class="highcharts-axis highcharts-yaxis " data-z-index="2"><path fill="none" class="highcharts-axis-line" data-z-index="7" d="M 62 377 L 475 377"></path></g><g class="highcharts-series-group" data-z-index="3"><g data-z-index="0.1" class="highcharts-series highcharts-series-0 highcharts-bar-series " transform="translate(475,377) rotate(90) scale(-1,1) scale(1 1)" clip-path="url(#highcharts-ltwn1ir-8)" width="413" height="285"><rect x="-0.5" y="206.5" width="14" height="73" fill="#661200" stroke="#ffffff" stroke-width="0.2" class="highcharts-point highcharts-negative"></rect><rect x="13.5" y="206.5" width="15" height="76" fill="#661200" stroke="#ffffff" stroke-width="0.2" class="highcharts-point highcharts-negative"></rect><rect x="28.5" y="206.5" width="14" height="75" fill="#661200" stroke="#ffffff" stroke-width="0.2" class="highcharts-point highcharts-negative"></rect><rect x="42.5" y="206.5" width="14" height="79" fill="#661200" stroke="#ffffff" stroke-width="0.2" class="highcharts-point highcharts-negative"></rect><rect x="56.5" y="206.5" width="14" height="104" fill="#661200" stroke="#ffffff" stroke-width="0.2" class="highcharts-point highcharts-negative"></rect><rect x="70.5" y="206.5" width="15" height="132" fill="#661200" stroke="#ffffff" stroke-width="0.2" class="highcharts-point highcharts-negative"></rect><rect x="85.5" y="206.5" width="14" height="153" fill="#661200" stroke="#ffffff" stroke-width="0.2" class="highcharts-point highcharts-negative"></rect><rect x="99.5" y="206.5" width="14" height="148" fill="#661200" stroke="#ffffff" stroke-width="0.2" class="highcharts-point highcharts-negative"></rect><rect x="113.5" y="206.5" width="14" height="133" fill="#661200" stroke="#ffffff" stroke-width="0.2" class="highcharts-point highcharts-negative"></rect><rect x="127.5" y="206.5" width="15" height="129" fill="#661200" stroke="#ffffff" stroke-width="0.2" class="highcharts-point highcharts-negative"></rect><rect x="142.5" y="206.5" width="14" height="129" fill="#661200" stroke="#ffffff" stroke-width="0.2" class="highcharts-point highcharts-negative"></rect><rect x="156.5" y="206.5" width="14" height="121" fill="#661200" stroke="#ffffff" stroke-width="0.2" class="highcharts-point highcharts-negative"></rect><rect x="170.5" y="206.5" width="14" height="110" fill="#661200" stroke="#ffffff" stroke-width="0.2" class="highcharts-point highcharts-negative"></rect><rect x="184.5" y="206.5" width="15" height="112" fill="#661200" stroke="#ffffff" stroke-width="0.2" class="highcharts-point highcharts-negative"></rect><rect x="199.5" y="206.5" width="14" height="104" fill="#661200" stroke="#ffffff" stroke-width="0.2" class="highcharts-point highcharts-negative"></rect><rect x="213.5" y="206.5" width="14" height="85" fill="#661200" stroke="#ffffff" stroke-width="0.2" class="highcharts-point highcharts-negative"></rect><rect x="227.5" y="206.5" width="14" height="52" fill="#661200" stroke="#ffffff" stroke-width="0.2" class="highcharts-point highcharts-negative"></rect><rect x="241.5" y="206.5" width="15" height="34" fill="#661200" stroke="#ffffff" stroke-width="0.2" class="highcharts-point highcharts-negative"></rect><rect x="256.5" y="206.5" width="14" height="11" fill="#661200" stroke="#ffffff" stroke-width="0.2" class="highcharts-point highcharts-negative"></rect><rect x="270.5" y="206.5" width="14" height="2" fill="#661200" stroke="#ffffff" stroke-width="0.2" class="highcharts-point highcharts-negative"></rect></g><g data-z-index="0.1" class="highcharts-markers highcharts-series-0 highcharts-bar-series " transform="translate(475,377) rotate(90) scale(-1,1) scale(1 1)" clip-path="none"></g><g data-z-index="0.1" class="highcharts-series highcharts-series-1 highcharts-bar-series " transform="translate(475,377) rotate(90) scale(-1,1) scale(1 1)" clip-path="url(#highcharts-ltwn1ir-8)" width="413" height="285"><rect x="-0.5" y="138.5" width="14" height="68" fill="#dc440e" stroke="#ffffff" stroke-width="0.2" class="highcharts-point"></rect><rect x="13.5" y="131.5" width="15" height="75" fill="#dc440e" stroke="#ffffff" stroke-width="0.2" class="highcharts-point"></rect><rect x="28.5" y="131.5" width="14" height="75" fill="#dc440e" stroke="#ffffff" stroke-width="0.2" class="highcharts-point"></rect><rect x="42.5" y="129.5" width="14" height="77" fill="#dc440e" stroke="#ffffff" stroke-width="0.2" class="highcharts-point"></rect><rect x="56.5" y="101.5" width="14" height="105" fill="#dc440e" stroke="#ffffff" stroke-width="0.2" class="highcharts-point"></rect><rect x="70.5" y="77.5" width="15" height="129" fill="#dc440e" stroke="#ffffff" stroke-width="0.2" class="highcharts-point"></rect><rect x="85.5" y="52.5" width="14" height="154" fill="#dc440e" stroke="#ffffff" stroke-width="0.2" class="highcharts-point"></rect><rect x="99.5" y="52.5" width="14" height="154" fill="#dc440e" stroke="#ffffff" stroke-width="0.2" class="highcharts-point"></rect><rect x="113.5" y="61.5" width="14" height="145" fill="#dc440e" stroke="#ffffff" stroke-width="0.2" class="highcharts-point"></rect><rect x="127.5" y="60.5" width="15" height="146" fill="#dc440e" stroke="#ffffff" stroke-width="0.2" class="highcharts-point"></rect><rect x="142.5" y="57.5" width="14" height="149" fill="#dc440e" stroke="#ffffff" stroke-width="0.2" class="highcharts-point"></rect><rect x="156.5" y="59.5" width="14" height="147" fill="#dc440e" stroke="#ffffff" stroke-width="0.2" class="highcharts-point"></rect><rect x="170.5" y="62.5" width="14" height="144" fill="#dc440e" stroke="#ffffff" stroke-width="0.2" class="highcharts-point"></rect><rect x="184.5" y="48.5" width="15" height="158" fill="#dc440e" stroke="#ffffff" stroke-width="0.2" class="highcharts-point"></rect><rect x="199.5" y="45.5" width="14" height="161" fill="#dc440e" stroke="#ffffff" stroke-width="0.2" class="highcharts-point"></rect><rect x="213.5" y="63.5" width="14" height="143" fill="#dc440e" stroke="#ffffff" stroke-width="0.2" class="highcharts-point"></rect><rect x="227.5" y="101.5" width="14" height="105" fill="#dc440e" stroke="#ffffff" stroke-width="0.2" class="highcharts-point"></rect><rect x="241.5" y="119.5" width="15" height="87" fill="#dc440e" stroke="#ffffff" stroke-width="0.2" class="highcharts-point"></rect><rect x="256.5" y="168.5" width="14" height="38" fill="#dc440e" stroke="#ffffff" stroke-width="0.2" class="highcharts-point"></rect><rect x="270.5" y="198.5" width="14" height="8" fill="#dc440e" stroke="#ffffff" stroke-width="0.2" class="highcharts-point"></rect></g><g data-z-index="0.1" class="highcharts-markers highcharts-series-1 highcharts-bar-series " transform="translate(475,377) rotate(90) scale(-1,1) scale(1 1)" clip-path="none"></g></g><text x="10" text-anchor="start" class="highcharts-title" data-z-index="4" style="color:#000000;font-size:14px;font-weight:bold;fill:#000000;" y="21"><tspan>Bevölkerungspyramide der Schweizerinnen und Schweizer</tspan></text><text x="10" text-anchor="start" class="highcharts-subtitle" data-z-index="4" style="color:#000000;font-size:12px;font-weight:normal;font-family:Arial;fill:#000000;" y="40"><tspan>Basel-Stadt, 1998</tspan></text><g class="highcharts-plot-lines-4" data-z-index="4"><path fill="none" class="highcharts-plot-line " stroke="white" stroke-width="1" d="M 268.5 92 L 268.5 377" visibility="visible"></path></g><g class="highcharts-legend" data-z-index="7" transform="translate(174,55)"><rect fill="none" class="highcharts-legend-box" rx="0" ry="0" x="0" y="0" width="156" height="25" visibility="visible"></rect><g data-z-index="1"><g><g class="highcharts-legend-item highcharts-bar-series highcharts-color-undefined highcharts-series-0" data-z-index="1" transform="translate(8,3)"><text x="21" style="color:#333333;font-size:12px;font-weight:normal;cursor:pointer;fill:#333333;" text-anchor="start" data-z-index="2" y="15"><tspan>Männer</tspan></text><rect x="2" y="4" width="12" height="12" fill="#661200" class="highcharts-point" data-z-index="3"></rect></g><g class="highcharts-legend-item highcharts-bar-series highcharts-color-undefined highcharts-series-1" data-z-index="1" transform="translate(89.65625,3)"><text x="21" y="15" style="color:#333333;font-size:12px;font-weight:normal;cursor:pointer;fill:#333333;" text-anchor="start" data-z-index="2"><tspan>Frauen</tspan></text><rect x="2" y="4" width="12" height="12" fill="#dc440e" class="highcharts-point" data-z-index="3"></rect></g></g></g></g><g class="highcharts-axis-labels highcharts-xaxis-labels " data-z-index="7"><text x="47" style="color:#000000;cursor:default;font-size:11px;fill:#000000;" text-anchor="end" transform="translate(0,0)" y="374" opacity="1">0-4</text><text x="47" style="color:#000000;cursor:default;font-size:11px;fill:#000000;" text-anchor="end" transform="translate(0,0)" y="360" opacity="1">5-9</text><text x="47" style="color:#000000;cursor:default;font-size:11px;fill:#000000;" text-anchor="end" transform="translate(0,0)" y="346" opacity="1">10-14</text><text x="47" style="color:#000000;cursor:default;font-size:11px;fill:#000000;" text-anchor="end" transform="translate(0,0)" y="332" opacity="1">15-19</text><text x="47" style="color:#000000;cursor:default;font-size:11px;fill:#000000;" text-anchor="end" transform="translate(0,0)" y="317" opacity="1">20-24</text><text x="47" style="color:#000000;cursor:default;font-size:11px;fill:#000000;" text-anchor="end" transform="translate(0,0)" y="303" opacity="1">25-29</text><text x="47" style="color:#000000;cursor:default;font-size:11px;fill:#000000;" text-anchor="end" transform="translate(0,0)" y="289" opacity="1">30-34</text><text x="47" style="color:#000000;cursor:default;font-size:11px;fill:#000000;" text-anchor="end" transform="translate(0,0)" y="275" opacity="1">35-39</text><text x="47" style="color:#000000;cursor:default;font-size:11px;fill:#000000;" text-anchor="end" transform="translate(0,0)" y="260" opacity="1">40-44</text><text x="47" style="color:#000000;cursor:default;font-size:11px;fill:#000000;" text-anchor="end" transform="translate(0,0)" y="246" opacity="1">45-49</text><text x="47" style="color:#000000;cursor:default;font-size:11px;fill:#000000;" text-anchor="end" transform="translate(0,0)" y="232" opacity="1">50-54</text><text x="47" style="color:#000000;cursor:default;font-size:11px;fill:#000000;" text-anchor="end" transform="translate(0,0)" y="218" opacity="1">55-59</text><text x="47" style="color:#000000;cursor:default;font-size:11px;fill:#000000;" text-anchor="end" transform="translate(0,0)" y="203" opacity="1">60-64</text><text x="47" style="color:#000000;cursor:default;font-size:11px;fill:#000000;" text-anchor="end" transform="translate(0,0)" y="189" opacity="1">65-69</text><text x="47" style="color:#000000;cursor:default;font-size:11px;fill:#000000;" text-anchor="end" transform="translate(0,0)" y="175" opacity="1">70-74</text><text x="47" style="color:#000000;cursor:default;font-size:11px;fill:#000000;" text-anchor="end" transform="translate(0,0)" y="161" opacity="1">75-79</text><text x="47" style="color:#000000;cursor:default;font-size:11px;fill:#000000;" text-anchor="end" transform="translate(0,0)" y="146" opacity="1">80-84</text><text x="47" style="color:#000000;cursor:default;font-size:11px;fill:#000000;" text-anchor="end" transform="translate(0,0)" y="132" opacity="1">85-89</text><text x="47" style="color:#000000;cursor:default;font-size:11px;fill:#000000;" text-anchor="end" transform="translate(0,0)" y="118" opacity="1">90-94</text><text x="47" style="color:#000000;cursor:default;font-size:11px;fill:#000000;" text-anchor="end" transform="translate(0,0)" y="104" opacity="1"><tspan>95 u.m.</tspan></text></g><g class="highcharts-axis-labels highcharts-yaxis-labels " data-z-index="7"><text x="268.5" style="color:#000000;cursor:default;font-size:11px;fill:#000000;" text-anchor="middle" transform="translate(0,0)" y="396" opacity="1">0%</text><text x="309.8" style="color:#000000;cursor:default;font-size:11px;fill:#000000;" text-anchor="middle" transform="translate(0,0)" y="396" opacity="1">1%</text><text x="351.1" style="color:#000000;cursor:default;font-size:11px;fill:#000000;" text-anchor="middle" transform="translate(0,0)" y="396" opacity="1">2%</text><text x="392.4" style="color:#000000;cursor:default;font-size:11px;fill:#000000;" text-anchor="middle" transform="translate(0,0)" y="396" opacity="1">3%</text><text x="433.7" style="color:#000000;cursor:default;font-size:11px;fill:#000000;" text-anchor="middle" transform="translate(0,0)" y="396" opacity="1">4%</text><text x="467.0625" style="color:#000000;cursor:default;font-size:11px;fill:#000000;" text-anchor="middle" transform="translate(0,0)" y="396" opacity="1">5%</text><text x="62" style="color:#000000;cursor:default;font-size:11px;fill:#000000;" text-anchor="middle" transform="translate(0,0)" y="396" opacity="1">5%</text><text x="103.3" style="color:#000000;cursor:default;font-size:11px;fill:#000000;" text-anchor="middle" transform="translate(0,0)" y="396" opacity="1">4%</text><text x="144.6" style="color:#000000;cursor:default;font-size:11px;fill:#000000;" text-anchor="middle" transform="translate(0,0)" y="396" opacity="1">3%</text><text x="185.9" style="color:#000000;cursor:default;font-size:11px;fill:#000000;" text-anchor="middle" transform="translate(0,0)" y="396" opacity="1">2%</text><text x="227.2" style="color:#000000;cursor:default;font-size:11px;fill:#000000;" text-anchor="middle" transform="translate(0,0)" y="396" opacity="1">1%</text></g><text x="10" class="highcharts-credits" text-anchor="start" data-z-index="8" style="cursor:default;color:#000000;font-size:10px;fill:#000000;" y="423"><tspan>Quelle: Statistisches Amt Basel-Stadt, Bevölkerungsstatistik.</tspan><tspan x="10" dy="13">Zuletzt geändert: 2018-10-3</tspan></text></svg>