<?xml version="1.0" standalone="no"?><!DOCTYPE svg PUBLIC "-//W3C//DTD SVG 1.1//EN" "http://www.w3.org/Graphics/SVG/1.1/DTD/svg11.dtd"><svg xmlns:xlink="http://www.w3.org/1999/xlink" version="1.1" class="highcharts-root" style="font-family:Arial;font-size:12px;" xmlns="http://www.w3.org/2000/svg" viewBox="0 0 485 415"><desc>Created with Highcharts 8.2.0</desc><defs><clipPath id="highcharts-me1sona-295-"><rect x="0" y="0" width="428" height="238" fill="none"></rect></clipPath><clipPath id="highcharts-me1sona-392-"><rect x="0" y="0" width="428" height="238" fill="none"></rect></clipPath><clipPath id="highcharts-me1sona-585-"><rect x="47" y="99" width="428" height="238" fill="none"></rect></clipPath></defs><rect fill="#fbfbfb" class="highcharts-background" x="0" y="0" width="485" height="428" rx="0" ry="0"></rect><rect fill="none" class="highcharts-plot-background" x="47" y="99" width="428" height="238"></rect><g class="highcharts-pane-group" data-z-index="0"></g><g class="highcharts-grid highcharts-xaxis-grid" data-z-index="1"><path fill="none" data-z-index="1" class="highcharts-grid-line" d="M 48.5 99 L 48.5 337" opacity="1"></path><path fill="none" data-z-index="1" class="highcharts-grid-line" d="M 71.5 99 L 71.5 337" opacity="1"></path><path fill="none" data-z-index="1" class="highcharts-grid-line" d="M 93.5 99 L 93.5 337" opacity="1"></path><path fill="none" data-z-index="1" class="highcharts-grid-line" d="M 115.5 99 L 115.5 337" opacity="1"></path><path fill="none" data-z-index="1" class="highcharts-grid-line" d="M 137.5 99 L 137.5 337" opacity="1"></path><path fill="none" data-z-index="1" class="highcharts-grid-line" d="M 160.5 99 L 160.5 337" opacity="1"></path><path fill="none" data-z-index="1" class="highcharts-grid-line" d="M 182.5 99 L 182.5 337" opacity="1"></path><path fill="none" data-z-index="1" class="highcharts-grid-line" d="M 204.5 99 L 204.5 337" opacity="1"></path><path fill="none" data-z-index="1" class="highcharts-grid-line" d="M 227.5 99 L 227.5 337" opacity="1"></path><path fill="none" data-z-index="1" class="highcharts-grid-line" d="M 249.5 99 L 249.5 337" opacity="1"></path><path fill="none" data-z-index="1" class="highcharts-grid-line" d="M 271.5 99 L 271.5 337" opacity="1"></path><path fill="none" data-z-index="1" class="highcharts-grid-line" d="M 293.5 99 L 293.5 337" opacity="1"></path><path fill="none" data-z-index="1" class="highcharts-grid-line" d="M 316.5 99 L 316.5 337" opacity="1"></path><path fill="none" data-z-index="1" class="highcharts-grid-line" d="M 338.5 99 L 338.5 337" opacity="1"></path><path fill="none" data-z-index="1" class="highcharts-grid-line" d="M 360.5 99 L 360.5 337" opacity="1"></path><path fill="none" data-z-index="1" class="highcharts-grid-line" d="M 383.5 99 L 383.5 337" opacity="1"></path><path fill="none" data-z-index="1" class="highcharts-grid-line" d="M 405.5 99 L 405.5 337" opacity="1"></path><path fill="none" data-z-index="1" class="highcharts-grid-line" d="M 427.5 99 L 427.5 337" opacity="1"></path><path fill="none" data-z-index="1" class="highcharts-grid-line" d="M 449.5 99 L 449.5 337" opacity="1"></path><path fill="none" data-z-index="1" class="highcharts-grid-line" d="M 472.5 99 L 472.5 337" opacity="1"></path></g><g class="highcharts-grid highcharts-yaxis-grid" data-z-index="1"><path fill="none" stroke="#B9CFD7" stroke-width="0.5" data-z-index="1" class="highcharts-grid-line" d="M 47 337.25 L 475 337.25" opacity="1"></path><path fill="none" stroke="#B9CFD7" stroke-width="0.5" data-z-index="1" class="highcharts-grid-line" d="M 47 258.25 L 475 258.25" opacity="1"></path><path fill="none" stroke="#B9CFD7" stroke-width="0.5" data-z-index="1" class="highcharts-grid-line" d="M 47 178.25 L 475 178.25" opacity="1"></path><path fill="none" stroke="#B9CFD7" stroke-width="0.5" data-z-index="1" class="highcharts-grid-line" d="M 47 98.75 L 475 98.75" opacity="1"></path></g><rect fill="none" class="highcharts-plot-border" data-z-index="1" x="47" y="99" width="428" height="238"></rect><g class="highcharts-axis highcharts-xaxis" data-z-index="2"><path fill="none" class="highcharts-axis-line" stroke="#B9CFD7" stroke-width="0.5" data-z-index="7" d="M 47 337.25 L 475 337.25"></path></g><g class="highcharts-axis highcharts-yaxis" data-z-index="2"><path fill="none" class="highcharts-axis-line" data-z-index="7" d="M 47 99 L 47 337"></path></g><g class="highcharts-series-group" data-z-index="3"><g class="highcharts-series highcharts-series-0 highcharts-line-series" data-z-index="0.1" opacity="1" transform="translate(47,99) scale(1 1)" clip-path="url(#highcharts-me1sona-392-)"><path fill="none" d="M 2.2291666666667 72.58999999999997 L 6.6875 61.879999999999995 L 11.145833333333 66.63999999999999 L 15.604166666667 64.26000000000002 L 20.0625 64.65666666666664 L 24.520833333333 69.81333333333333 L 28.979166666667 65.44999999999999 L 33.4375 87.66333333333333 L 37.895833333333 80.91999999999999 L 42.354166666667 81.71333333333334 L 46.8125 95.59666666666666 L 51.270833333333 93.21666666666667 L 55.729166666667 91.23333333333332 L 60.1875 95.99333333333334 L 64.645833333333 101.94333333333333 L 69.104166666667 106.30666666666664 L 73.5625 115.03333333333333 L 78.020833333333 104.72 L 82.479166666667 99.16666666666666 L 86.9375 106.30666666666664 L 91.395833333333 113.44666666666667 L 95.854166666667 108.28999999999999 L 100.3125 95.59666666666666 L 104.77083333333 88.06 L 109.22916666667 93.61333333333334 L 113.6875 76.16 L 118.14583333333 68.22666666666666 L 122.60416666667 61.086666666666645 L 127.0625 51.16999999999999 L 131.52083333333 43.23666666666665 L 135.97916666667 52.360000000000014 L 140.4375 53.54999999999998 L 144.89583333333 58.70666666666665 L 149.35416666667 60.68999999999997 L 153.8125 67.03666666666666 L 158.27083333333 73.78 L 162.72916666667 73.78 L 167.1875 74.57333333333332 L 171.64583333333 86.07666666666668 L 176.10416666667 91.23333333333332 L 180.5625 96.38999999999999 L 185.02083333333 91.63 L 189.47916666667 96.78666666666666 L 193.9375 104.32333333333332 L 198.39583333333 114.24 L 202.85416666667 113.05 L 207.3125 119 L 211.77083333333 113.84333333333333 L 216.22916666667 117.41333333333334 L 220.6875 124.95 L 225.14583333333 128.91666666666666 L 229.60416666667 126.14 L 234.0625 134.86666666666667 L 238.52083333333 134.86666666666667 L 242.97916666667 133.28 L 247.4375 133.28 L 251.89583333333 142.00666666666666 L 256.35416666667 144.78333333333333 L 260.8125 158.26999999999998 L 265.27083333333 151.92333333333335 L 269.72916666667 159.06333333333333 L 274.1875 155.89 L 278.64583333333 161.44333333333333 L 283.10416666667 147.95666666666665 L 287.5625 158.66666666666666 L 292.02083333333 161.44333333333333 L 296.47916666667 172.1533333333333 L 300.9375 182.86333333333334 L 305.39583333333 181.67333333333335 L 309.85416666667 187.62333333333333 L 314.3125 192.38333333333333 L 318.77083333333 199.12666666666667 L 323.22916666667 204.28333333333333 L 327.6875 206.66333333333333 L 332.14583333333 203.49 L 336.60416666667 212.21666666666667 L 341.0625 210.23333333333335 L 345.52083333333 215.39 L 349.97916666667 216.18333333333334 L 354.4375 217.77 L 358.89583333333 218.56333333333333 L 363.35416666667 226.1 L 367.8125 219.75333333333333 L 372.27083333333 221.73666666666668 L 376.72916666667 219.35666666666665 L 381.1875 228.48 L 385.64583333333 231.25666666666666 L 390.10416666667 228.08333333333334 L 394.5625 226.49666666666667 L 399.02083333333 227.29 L 403.47916666667 227.29 L 407.9375 230.06666666666666 L 412.39583333333 234.82666666666665 L 416.85416666667 225.70333333333332 L 421.3125 233.63666666666666 L 425.77083333333 226.1" class="highcharts-graph" data-z-index="1" stroke="#fabd24" stroke-width="2" stroke-linejoin="round" stroke-linecap="round"></path></g><g class="highcharts-markers highcharts-series-0 highcharts-line-series" data-z-index="0.1" opacity="1" transform="translate(47,99) scale(1 1)" clip-path="none"></g><g class="highcharts-series highcharts-series-1 highcharts-line-series" data-z-index="0.1" opacity="1" transform="translate(47,99) scale(1 1)" clip-path="url(#highcharts-me1sona-392-)"><path fill="none" d="M 2.2291666666667 68.6233333333333 L 6.6875 68.6233333333333 L 11.145833333333 63.863333333333344 L 15.604166666667 69.41666666666666 L 20.0625 76.95333333333332 L 24.520833333333 76.95333333333332 L 28.979166666667 74.17666666666668 L 33.4375 85.68 L 37.895833333333 79.72999999999999 L 42.354166666667 84.48999999999998 L 46.8125 89.64666666666668 L 51.270833333333 88.85333333333332 L 55.729166666667 95.19999999999999 L 60.1875 90.83666666666664 L 64.645833333333 103.53 L 69.104166666667 109.47999999999999 L 73.5625 111.86 L 78.020833333333 128.51999999999998 L 82.479166666667 119 L 86.9375 120.98333333333333 L 91.395833333333 129.31333333333333 L 95.854166666667 129.70999999999998 L 100.3125 126.93333333333334 L 104.77083333333 112.25666666666666 L 109.22916666667 104.72 L 113.6875 95.59666666666666 L 118.14583333333 69.81333333333333 L 122.60416666667 66.63999999999999 L 127.0625 49.18666666666667 L 131.52083333333 44.03 L 135.97916666667 37.68333333333334 L 140.4375 31.73333333333332 L 144.89583333333 19.833333333333314 L 149.35416666667 11.900000000000006 L 153.8125 17.849999999999994 L 158.27083333333 12.296666666666653 L 162.72916666667 14.280000000000001 L 167.1875 17.849999999999994 L 171.64583333333 17.45333333333332 L 176.10416666667 18.643333333333345 L 180.5625 29.75 L 185.02083333333 37.68333333333334 L 189.47916666667 50.376666666666665 L 193.9375 49.18666666666667 L 198.39583333333 62.27666666666667 L 202.85416666667 69.41666666666666 L 207.3125 73.38333333333333 L 211.77083333333 78.14333333333335 L 216.22916666667 90.83666666666664 L 220.6875 93.21666666666667 L 225.14583333333 102.73666666666665 L 229.60416666667 97.18333333333334 L 234.0625 105.11666666666667 L 238.52083333333 114.24 L 242.97916666667 122.96666666666667 L 247.4375 126.14 L 251.89583333333 128.51999999999998 L 256.35416666667 122.96666666666667 L 260.8125 129.70999999999998 L 265.27083333333 135.26333333333332 L 269.72916666667 138.83333333333331 L 274.1875 138.43666666666667 L 278.64583333333 147.95666666666665 L 283.10416666667 150.73333333333335 L 287.5625 149.14666666666668 L 292.02083333333 152.32 L 296.47916666667 159.06333333333333 L 300.9375 166.20333333333332 L 305.39583333333 175.32666666666665 L 309.85416666667 170.56666666666666 L 314.3125 173.34333333333333 L 318.77083333333 174.53333333333333 L 323.22916666667 178.5 L 327.6875 165.01333333333332 L 332.14583333333 174.13666666666666 L 336.60416666667 172.94666666666666 L 341.0625 181.27666666666667 L 345.52083333333 186.82999999999998 L 349.97916666667 186.03666666666666 L 354.4375 193.57333333333332 L 358.89583333333 197.93666666666667 L 363.35416666667 206.26666666666665 L 367.8125 209.04333333333332 L 372.27083333333 213.01 L 376.72916666667 209.83666666666667 L 381.1875 214.99333333333334 L 385.64583333333 215.78666666666666 L 390.10416666667 218.56333333333333 L 394.5625 218.56333333333333 L 399.02083333333 219.35666666666665 L 403.47916666667 224.51333333333332 L 407.9375 228.48 L 412.39583333333 221.73666666666668 L 416.85416666667 220.15 L 421.3125 228.87666666666667 L 425.77083333333 230.46333333333334" class="highcharts-graph" data-z-index="1" stroke="#672773" stroke-width="2" stroke-linejoin="round" stroke-linecap="round"></path></g><g class="highcharts-markers highcharts-series-1 highcharts-line-series" data-z-index="0.1" opacity="1" transform="translate(47,99) scale(1 1)" clip-path="none"></g><g class="highcharts-series highcharts-series-2 highcharts-line-series" data-z-index="0.1" opacity="1" transform="translate(47,99) scale(1 1)" clip-path="url(#highcharts-me1sona-392-)"><path fill="none" d="M 2.2291666666667 77.35 L 6.6875 83.69666666666666 L 11.145833333333 63.06999999999999 L 15.604166666667 78.14333333333335 L 20.0625 75.36666666666667 L 24.520833333333 70.60666666666665 L 28.979166666667 72.98666666666665 L 33.4375 67.03666666666666 L 37.895833333333 76.16 L 42.354166666667 72.19333333333333 L 46.8125 68.6233333333333 L 51.270833333333 76.16 L 55.729166666667 76.55666666666664 L 60.1875 89.25 L 64.645833333333 95.59666666666666 L 69.104166666667 102.33999999999997 L 73.5625 99.56333333333333 L 78.020833333333 105.11666666666667 L 82.479166666667 116.61999999999999 L 86.9375 111.46333333333334 L 91.395833333333 121.38 L 95.854166666667 126.14 L 100.3125 120.98333333333333 L 104.77083333333 112.65333333333332 L 109.22916666667 94.40666666666664 L 113.6875 86.86999999999998 L 118.14583333333 67.03666666666666 L 122.60416666667 68.22666666666666 L 127.0625 55.53333333333333 L 131.52083333333 51.16999999999999 L 135.97916666667 42.44333333333333 L 140.4375 40.46000000000001 L 144.89583333333 41.25333333333333 L 149.35416666667 31.336666666666645 L 153.8125 27.76666666666665 L 158.27083333333 22.610000000000014 L 162.72916666667 21.023333333333312 L 167.1875 16.659999999999997 L 171.64583333333 17.45333333333332 L 176.10416666667 26.180000000000007 L 180.5625 23.00666666666666 L 185.02083333333 29.353333333333325 L 189.47916666667 23.799999999999983 L 193.9375 21.023333333333312 L 198.39583333333 26.576666666666682 L 202.85416666667 28.560000000000002 L 207.3125 36.889999999999986 L 211.77083333333 41.650000000000006 L 216.22916666667 36.096666666666664 L 220.6875 41.650000000000006 L 225.14583333333 51.96333333333334 L 229.60416666667 63.46666666666667 L 234.0625 68.22666666666666 L 238.52083333333 66.24333333333334 L 242.97916666667 80.91999999999999 L 247.4375 79.72999999999999 L 251.89583333333 90.44 L 256.35416666667 101.54666666666668 L 260.8125 109.47999999999999 L 265.27083333333 107.49666666666667 L 269.72916666667 115.82666666666665 L 274.1875 109.08333333333334 L 278.64583333333 125.74333333333333 L 283.10416666667 130.50333333333333 L 287.5625 136.85 L 292.02083333333 146.76666666666665 L 296.47916666667 153.11333333333334 L 300.9375 145.18 L 305.39583333333 151.52666666666664 L 309.85416666667 147.56 L 314.3125 153.11333333333334 L 318.77083333333 164.61666666666667 L 323.22916666667 163.03 L 327.6875 164.22 L 332.14583333333 167.79000000000002 L 336.60416666667 166.20333333333332 L 341.0625 170.56666666666666 L 345.52083333333 175.32666666666665 L 349.97916666667 186.43333333333334 L 354.4375 182.46666666666667 L 358.89583333333 181.27666666666667 L 363.35416666667 180.08666666666667 L 367.8125 180.88 L 372.27083333333 172.94666666666666 L 376.72916666667 178.10333333333332 L 381.1875 179.29333333333332 L 385.64583333333 187.22666666666666 L 390.10416666667 194.76333333333332 L 394.5625 195.55666666666667 L 399.02083333333 200.71333333333334 L 403.47916666667 205.87 L 407.9375 215.39 L 412.39583333333 205.87 L 416.85416666667 213.40666666666667 L 421.3125 205.47333333333333 L 425.77083333333 214.59666666666666" class="highcharts-graph" data-z-index="1" stroke="#007a2f" stroke-width="2" stroke-linejoin="round" stroke-linecap="round"></path></g><g class="highcharts-markers highcharts-series-2 highcharts-line-series" data-z-index="0.1" opacity="1" transform="translate(47,99) scale(1 1)" clip-path="none"></g></g><text x="10" text-anchor="start" class="highcharts-title" data-z-index="4" style="color:#000000;font-size:14px;font-weight:bold;fill:#000000;" y="21"><tspan>Ausländeranteil nach Alter</tspan></text><text x="10" text-anchor="start" class="highcharts-subtitle" data-z-index="4" style="color:#000000;font-size:12px;font-weight:normal;fill:#000000;" y="40"><tspan>Basel-Stadt</tspan></text><text x="10" text-anchor="start" class="highcharts-caption" data-z-index="4" style="color:#666666;fill:#666666;" y="385"></text><g class="highcharts-legend" data-z-index="7" transform="translate(39,56)"><rect fill="none" class="highcharts-legend-box" rx="0" ry="0" x="0" y="0" width="296" height="31" visibility="visible"></rect><g data-z-index="1"><g><g class="highcharts-legend-item highcharts-line-series highcharts-color-undefined highcharts-series-0" data-z-index="1" transform="translate(8,3)"><path fill="none" d="M 0 11 L 16 11" class="highcharts-graph" stroke="#fabd24" stroke-width="2"></path><text x="21" style="color:#333333;cursor:pointer;font-size:12px;font-weight:normal;fill:#333333;" text-anchor="start" data-z-index="2" y="15"><tspan>2003</tspan></text></g><g class="highcharts-legend-item highcharts-line-series highcharts-color-undefined highcharts-series-1" data-z-index="1" transform="translate(108,3)"><path fill="none" d="M 0 11 L 16 11" class="highcharts-graph" stroke="#672773" stroke-width="2"></path><text x="21" y="15" style="color:#333333;cursor:pointer;font-size:12px;font-weight:normal;fill:#333333;" text-anchor="start" data-z-index="2"><tspan>2013</tspan></text></g><g class="highcharts-legend-item highcharts-line-series highcharts-color-undefined highcharts-series-2" data-z-index="1" transform="translate(208,3)"><path fill="none" d="M 0 11 L 16 11" class="highcharts-graph" stroke="#007a2f" stroke-width="2"></path><text x="21" y="15" style="color:#333333;cursor:pointer;font-size:12px;font-weight:normal;fill:#333333;" text-anchor="start" data-z-index="2"><tspan>2023</tspan></text></g></g></g></g><g class="highcharts-axis-labels highcharts-xaxis-labels" data-z-index="7"><text x="49.229166666667" style="color:#000000;cursor:default;font-size:11px;fill:#000000;" text-anchor="middle" transform="translate(0,0)" y="356" opacity="1">0</text><text x="71.520833333333" style="color:#000000;cursor:default;font-size:11px;fill:#000000;" text-anchor="middle" transform="translate(0,0)" y="356" opacity="1">5</text><text x="93.8125" style="color:#000000;cursor:default;font-size:11px;fill:#000000;" text-anchor="middle" transform="translate(0,0)" y="356" opacity="1"><tspan>10</tspan></text><text x="116.10416666667" style="color:#000000;cursor:default;font-size:11px;fill:#000000;" text-anchor="middle" transform="translate(0,0)" y="356" opacity="1"><tspan>15</tspan></text><text x="138.39583333333" style="color:#000000;cursor:default;font-size:11px;fill:#000000;" text-anchor="middle" transform="translate(0,0)" y="356" opacity="1"><tspan>20</tspan></text><text x="160.6875" style="color:#000000;cursor:default;font-size:11px;fill:#000000;" text-anchor="middle" transform="translate(0,0)" y="356" opacity="1"><tspan>25</tspan></text><text x="182.97916666667" style="color:#000000;cursor:default;font-size:11px;fill:#000000;" text-anchor="middle" transform="translate(0,0)" y="356" opacity="1"><tspan>30</tspan></text><text x="205.27083333333" style="color:#000000;cursor:default;font-size:11px;fill:#000000;" text-anchor="middle" transform="translate(0,0)" y="356" opacity="1"><tspan>35</tspan></text><text x="227.5625" style="color:#000000;cursor:default;font-size:11px;fill:#000000;" text-anchor="middle" transform="translate(0,0)" y="356" opacity="1"><tspan>40</tspan></text><text x="249.85416666667" style="color:#000000;cursor:default;font-size:11px;fill:#000000;" text-anchor="middle" transform="translate(0,0)" y="356" opacity="1"><tspan>45</tspan></text><text x="272.14583333333" style="color:#000000;cursor:default;font-size:11px;fill:#000000;" text-anchor="middle" transform="translate(0,0)" y="356" opacity="1"><tspan>50</tspan></text><text x="294.4375" style="color:#000000;cursor:default;font-size:11px;fill:#000000;" text-anchor="middle" transform="translate(0,0)" y="356" opacity="1"><tspan>55</tspan></text><text x="316.72916666667" style="color:#000000;cursor:default;font-size:11px;fill:#000000;" text-anchor="middle" transform="translate(0,0)" y="356" opacity="1"><tspan>60</tspan></text><text x="339.02083333333" style="color:#000000;cursor:default;font-size:11px;fill:#000000;" text-anchor="middle" transform="translate(0,0)" y="356" opacity="1"><tspan>65</tspan></text><text x="361.3125" style="color:#000000;cursor:default;font-size:11px;fill:#000000;" text-anchor="middle" transform="translate(0,0)" y="356" opacity="1"><tspan>70</tspan></text><text x="383.60416666667" style="color:#000000;cursor:default;font-size:11px;fill:#000000;" text-anchor="middle" transform="translate(0,0)" y="356" opacity="1"><tspan>75</tspan></text><text x="405.89583333333" style="color:#000000;cursor:default;font-size:11px;fill:#000000;" text-anchor="middle" transform="translate(0,0)" y="356" opacity="1"><tspan>80</tspan></text><text x="428.1875" style="color:#000000;cursor:default;font-size:11px;fill:#000000;" text-anchor="middle" transform="translate(0,0)" y="356" opacity="1"><tspan>85</tspan></text><text x="450.47916666667" style="color:#000000;cursor:default;font-size:11px;fill:#000000;" text-anchor="middle" transform="translate(0,0)" y="356" opacity="1"><tspan>90</tspan></text><text x="472.77083333333" style="color:#000000;cursor:default;font-size:11px;fill:#000000;" text-anchor="middle" transform="translate(0,0)" y="356" opacity="1"><tspan>95</tspan><tspan dy="14" x="472.77083333333">u.m.</tspan></text></g><g class="highcharts-axis-labels highcharts-yaxis-labels" data-z-index="7"><text x="32" style="color:#000000;cursor:default;font-size:11px;fill:#000000;" text-anchor="end" transform="translate(0,0)" y="341" opacity="1">0%</text><text x="32" style="color:#000000;cursor:default;font-size:11px;fill:#000000;" text-anchor="end" transform="translate(0,0)" y="262" opacity="1">20%</text><text x="32" style="color:#000000;cursor:default;font-size:11px;fill:#000000;" text-anchor="end" transform="translate(0,0)" y="182" opacity="1">40%</text><text x="32" style="color:#000000;cursor:default;font-size:11px;fill:#000000;" text-anchor="end" transform="translate(0,0)" y="103" opacity="1">60%</text></g><text x="10" class="highcharts-credits" text-anchor="start" data-z-index="8" style="cursor:default;color:#000000;font-size:10px;fill:#000000;" y="403"><tspan>Quelle: Statistisches Amt Basel-Stadt, Bevölkerungsstatistik.</tspan><tspan x="10" dy="13">Zuletzt geändert: 16.4.2024</tspan></text><g class="highcharts-control-points" data-z-index="99" clip-path="url(#highcharts-me1sona-585-)"></g></svg>