<?xml version="1.0" standalone="no"?><!DOCTYPE svg PUBLIC "-//W3C//DTD SVG 1.1//EN" "http://www.w3.org/Graphics/SVG/1.1/DTD/svg11.dtd"><svg xmlns:xlink="http://www.w3.org/1999/xlink" version="1.1" class="highcharts-root" style="font-family:Arial;font-size:12px;" xmlns="http://www.w3.org/2000/svg" viewBox="0 0 485 415"><desc>Created with Highstock 6.1.1</desc><defs><clipPath id="highcharts-k9x2hxo-6"><rect x="0" y="0" width="302" height="303" fill="none"></rect></clipPath><clipPath id="highcharts-k9x2hxo-7"><rect x="0" y="0" width="302" height="303" fill="none"></rect></clipPath></defs><rect fill="#fbfbfb" class="highcharts-background" x="0" y="0" width="485" height="428" rx="0" ry="0"></rect><rect fill="none" class="highcharts-plot-background" x="172" y="55" width="303" height="302"></rect><g class="highcharts-pane-group" data-z-index="0"></g><g class="highcharts-grid highcharts-xaxis-grid " data-z-index="1"><path fill="none" data-z-index="1" class="highcharts-grid-line" d="M 172 82.5 L 475 82.5" opacity="1"></path><path fill="none" data-z-index="1" class="highcharts-grid-line" d="M 172 110.5 L 475 110.5" opacity="1"></path><path fill="none" data-z-index="1" class="highcharts-grid-line" d="M 172 137.5 L 475 137.5" opacity="1"></path><path fill="none" data-z-index="1" class="highcharts-grid-line" d="M 172 165.5 L 475 165.5" opacity="1"></path><path fill="none" data-z-index="1" class="highcharts-grid-line" d="M 172 192.5 L 475 192.5" opacity="1"></path><path fill="none" data-z-index="1" class="highcharts-grid-line" d="M 172 220.5 L 475 220.5" opacity="1"></path><path fill="none" data-z-index="1" class="highcharts-grid-line" d="M 172 247.5 L 475 247.5" opacity="1"></path><path fill="none" data-z-index="1" class="highcharts-grid-line" d="M 172 275.5 L 475 275.5" opacity="1"></path><path fill="none" data-z-index="1" class="highcharts-grid-line" d="M 172 302.5 L 475 302.5" opacity="1"></path><path fill="none" data-z-index="1" class="highcharts-grid-line" d="M 172 330.5 L 475 330.5" opacity="1"></path><path fill="none" data-z-index="1" class="highcharts-grid-line" d="M 172 357.5 L 475 357.5" opacity="1"></path><path fill="none" data-z-index="1" class="highcharts-grid-line" d="M 172 55.5 L 475 55.5" opacity="1"></path></g><g class="highcharts-grid highcharts-yaxis-grid " data-z-index="1"><path fill="none" stroke="#B9CFD7" stroke-width="0.5" data-z-index="1" class="highcharts-grid-line" d="M 171.75 55 L 171.75 357" opacity="1"></path><path fill="none" stroke="#B9CFD7" stroke-width="0.5" data-z-index="1" class="highcharts-grid-line" d="M 247.75 55 L 247.75 357" opacity="1"></path><path fill="none" stroke="#B9CFD7" stroke-width="0.5" data-z-index="1" class="highcharts-grid-line" d="M 323.75 55 L 323.75 357" opacity="1"></path><path fill="none" stroke="#B9CFD7" stroke-width="0.5" data-z-index="1" class="highcharts-grid-line" d="M 398.75 55 L 398.75 357" opacity="1"></path><path fill="none" stroke="#B9CFD7" stroke-width="0.5" data-z-index="1" class="highcharts-grid-line" d="M 475.25 55 L 475.25 357" opacity="1"></path></g><rect fill="none" class="highcharts-plot-border" data-z-index="1" x="172" y="55" width="303" height="302"></rect><g class="highcharts-axis highcharts-xaxis " data-z-index="2"><path fill="none" class="highcharts-axis-line" stroke="#B9CFD7" stroke-width="0.5" data-z-index="7" d="M 171.75 55 L 171.75 357"></path></g><g class="highcharts-axis highcharts-yaxis " data-z-index="2"><path fill="none" class="highcharts-axis-line" data-z-index="7" d="M 172 357 L 475 357"></path></g><g class="highcharts-series-group" data-z-index="3"><g data-z-index="0.1" class="highcharts-series highcharts-series-0 highcharts-column-series " transform="translate(475,357) rotate(90) scale(-1,1) scale(1 1)" clip-path="url(#highcharts-k9x2hxo-7)"><rect x="282" y="218" width="14" height="86" fill="#b00000" class="highcharts-point highcharts-color-0"></rect><rect x="254" y="221" width="14" height="83" fill="#672773" class="highcharts-point highcharts-color-1"></rect><rect x="227" y="222" width="14" height="82" fill="#007a2f" class="highcharts-point highcharts-color-2"></rect><rect x="199" y="149" width="14" height="155" fill="#fabd24" class="highcharts-point highcharts-color-3"></rect><rect x="172" y="206" width="14" height="98" fill="#b475ab" class="highcharts-point highcharts-color-4"></rect><rect x="144" y="227" width="14" height="77" fill="#71a3b5" class="highcharts-point highcharts-color-5"></rect><rect x="117" y="141" width="14" height="163" fill="#b9cfd7" class="highcharts-point highcharts-color-6"></rect><rect x="90" y="184" width="14" height="120" fill="#ff8028" class="highcharts-point highcharts-color-7"></rect><rect x="62" y="49" width="14" height="255" fill="#73ba7c" class="highcharts-point highcharts-color-8"></rect><rect x="35" y="110" width="14" height="194" fill="#9f7c5a" class="highcharts-point highcharts-color-9"></rect><rect x="7" y="185" width="14" height="119" fill="#999999" class="highcharts-point highcharts-color-10"></rect></g><g data-z-index="0.1" class="highcharts-markers highcharts-series-0 highcharts-column-series " transform="translate(475,357) rotate(90) scale(-1,1) scale(1 1)" clip-path="none"></g></g><text x="10" text-anchor="start" class="highcharts-title" data-z-index="4" style="color:#000000;font-size:14px;font-weight:bold;fill:#000000;" y="21"><tspan>Zusammengefasste Geburtenziffer</tspan></text><text x="10" text-anchor="start" class="highcharts-subtitle" data-z-index="4" style="color:#000000;font-size:12px;font-weight:normal;font-family:Arial;fill:#000000;" y="40"><tspan>Arithmetisches Mittel der Jahre 2006 bis 2016 nach Staatsangehörigkeit</tspan></text><g class="highcharts-axis-labels highcharts-xaxis-labels " data-z-index="7"><text x="157" style="color:#000000;cursor:default;font-size:11px;fill:#000000;" text-anchor="end" transform="translate(0,0)" y="73" opacity="1">Schweiz</text><text x="157" style="color:#000000;cursor:default;font-size:11px;fill:#000000;" text-anchor="end" transform="translate(0,0)" y="101" opacity="1">Deutschland</text><text x="157" style="color:#000000;cursor:default;font-size:11px;fill:#000000;" text-anchor="end" transform="translate(0,0)" y="128" opacity="1">Italien</text><text x="157" style="color:#000000;cursor:default;font-size:11px;fill:#000000;" text-anchor="end" transform="translate(0,0)" y="156" opacity="1">Türkei</text><text x="157" style="color:#000000;cursor:default;font-size:11px;fill:#000000;" text-anchor="end" transform="translate(0,0)" y="183" opacity="1"><tspan>EU-17 + EFTA</tspan></text><text x="157" style="color:#000000;cursor:default;font-size:11px;fill:#000000;" text-anchor="end" transform="translate(0,0)" y="210" opacity="1">EU-Ost</text><text x="157" style="color:#000000;cursor:default;font-size:11px;fill:#000000;" text-anchor="end" transform="translate(0,0)" y="238" opacity="1">Balkan</text><text x="157" style="color:#000000;cursor:default;font-size:11px;fill:#000000;" text-anchor="end" transform="translate(0,0)" y="265" opacity="1"><tspan>Nord-, Mittel- und Südamerika</tspan></text><text x="157" style="color:#000000;cursor:default;font-size:11px;fill:#000000;" text-anchor="end" transform="translate(0,0)" y="293" opacity="1"><tspan>Arabische Länder</tspan></text><text x="157" style="color:#000000;cursor:default;font-size:11px;fill:#000000;" text-anchor="end" transform="translate(0,0)" y="320" opacity="1"><tspan>Afrikanische Länder</tspan></text><text x="157" style="color:#000000;cursor:default;font-size:11px;fill:#000000;" text-anchor="end" transform="translate(0,0)" y="348" opacity="1"><tspan>Übrige Länder</tspan></text></g><g class="highcharts-axis-labels highcharts-yaxis-labels " data-z-index="7"><text x="172" style="color:#000000;cursor:default;font-size:11px;fill:#000000;" text-anchor="middle" transform="translate(0,0)" y="376" opacity="1">0</text><text x="247.75" style="color:#000000;cursor:default;font-size:11px;fill:#000000;" text-anchor="middle" transform="translate(0,0)" y="376" opacity="1">1</text><text x="323.5" style="color:#000000;cursor:default;font-size:11px;fill:#000000;" text-anchor="middle" transform="translate(0,0)" y="376" opacity="1">2</text><text x="399.25" style="color:#000000;cursor:default;font-size:11px;fill:#000000;" text-anchor="middle" transform="translate(0,0)" y="376" opacity="1">3</text><text x="471.9453125" style="color:#000000;cursor:default;font-size:11px;fill:#000000;" text-anchor="middle" transform="translate(0,0)" y="376" opacity="1">4</text></g><text x="10" class="highcharts-credits" text-anchor="start" data-z-index="8" style="cursor:default;color:#000000;font-size:10px;fill:#000000;" y="403"><tspan>Quelle: Statistisches Amt Basel-Stadt, Bevölkerungsstatistik.</tspan><tspan x="10" dy="13">Zuletzt geändert: 2018-3-21</tspan></text></svg>