<?xml version="1.0" standalone="no"?><!DOCTYPE svg PUBLIC "-//W3C//DTD SVG 1.1//EN" "http://www.w3.org/Graphics/SVG/1.1/DTD/svg11.dtd"><svg xmlns:xlink="http://www.w3.org/1999/xlink" version="1.1" class="highcharts-root" style="font-family:Arial;font-size:12px;" xmlns="http://www.w3.org/2000/svg" viewBox="0 0 485 415"><desc>Created with Highcharts 8.2.0</desc><defs><clipPath id="highcharts-9n5clvk-227-"><rect x="0" y="0" width="438" height="210" fill="none"></rect></clipPath><clipPath id="highcharts-9n5clvk-248-"><rect x="0" y="0" width="438" height="210" fill="none"></rect></clipPath><clipPath id="highcharts-9n5clvk-449-"><rect x="37" y="141" width="438" height="210" fill="none"></rect></clipPath></defs><rect fill="#fbfbfb" class="highcharts-background" x="0" y="0" width="485" height="428" rx="0" ry="0"></rect><rect fill="none" class="highcharts-plot-background" x="37" y="141" width="438" height="210"></rect><g class="highcharts-pane-group" data-z-index="0"></g><g class="highcharts-grid highcharts-xaxis-grid" data-z-index="1"><path fill="none" data-z-index="1" class="highcharts-grid-line" d="M 63.5 141 L 63.5 351" opacity="1"></path><path fill="none" data-z-index="1" class="highcharts-grid-line" d="M 108.5 141 L 108.5 351" opacity="1"></path><path fill="none" data-z-index="1" class="highcharts-grid-line" d="M 153.5 141 L 153.5 351" opacity="1"></path><path fill="none" data-z-index="1" class="highcharts-grid-line" d="M 198.5 141 L 198.5 351" opacity="1"></path><path fill="none" data-z-index="1" class="highcharts-grid-line" d="M 244.5 141 L 244.5 351" opacity="1"></path><path fill="none" data-z-index="1" class="highcharts-grid-line" d="M 289.5 141 L 289.5 351" opacity="1"></path><path fill="none" data-z-index="1" class="highcharts-grid-line" d="M 334.5 141 L 334.5 351" opacity="1"></path><path fill="none" data-z-index="1" class="highcharts-grid-line" d="M 379.5 141 L 379.5 351" opacity="1"></path><path fill="none" data-z-index="1" class="highcharts-grid-line" d="M 425.5 141 L 425.5 351" opacity="1"></path><path fill="none" data-z-index="1" class="highcharts-grid-line" d="M 470.5 141 L 470.5 351" opacity="1"></path></g><g class="highcharts-grid highcharts-yaxis-grid" data-z-index="1"><path fill="none" stroke="#B9CFD7" stroke-width="0.5" data-z-index="1" class="highcharts-grid-line" d="M 37 351.25 L 475 351.25" opacity="1"></path><path fill="none" stroke="#B9CFD7" stroke-width="0.5" data-z-index="1" class="highcharts-grid-line" d="M 37 299.25 L 475 299.25" opacity="1"></path><path fill="none" stroke="#B9CFD7" stroke-width="0.5" data-z-index="1" class="highcharts-grid-line" d="M 37 246.25 L 475 246.25" opacity="1"></path><path fill="none" stroke="#B9CFD7" stroke-width="0.5" data-z-index="1" class="highcharts-grid-line" d="M 37 194.25 L 475 194.25" opacity="1"></path><path fill="none" stroke="#B9CFD7" stroke-width="0.5" data-z-index="1" class="highcharts-grid-line" d="M 37 140.75 L 475 140.75" opacity="1"></path></g><rect fill="none" class="highcharts-plot-border" data-z-index="1" x="37" y="141" width="438" height="210"></rect><g class="highcharts-axis highcharts-xaxis" data-z-index="2"><path fill="none" class="highcharts-axis-line" stroke="#B9CFD7" stroke-width="0.5" data-z-index="7" d="M 37 351.25 L 475 351.25"></path></g><g class="highcharts-axis highcharts-yaxis" data-z-index="2"><path fill="none" class="highcharts-axis-line" data-z-index="7" d="M 37 141 L 37 351"></path></g><g class="highcharts-series-group" data-z-index="3"><g class="highcharts-series highcharts-series-0 highcharts-line-series" data-z-index="0.1" opacity="1" transform="translate(37,141) scale(1 1)" clip-path="url(#highcharts-9n5clvk-248-)"><path fill="none" d="M 4.29411764706 63.525000000000006 L 26.894736842106 63.525000000000006 L 49.495356037153 68.25 L 72.095975232199 72.975 L 94.696594427245 77.70000000000002 L 117.29721362229 81.375 L 139.89783281734 88.725 L 162.49845201238 93.45 L 185.09907120743 96.075 L 207.69969040248 100.275 L 230.30030959752 101.325 L 252.90092879257 104.475 L 275.50154798762 107.1 L 298.10216718266 111.825 L 320.70278637771 111.825 L 343.30340557275 116.025 L 365.9040247678 118.125 L 388.50464396285 120.75 L 411.10526315789 123.9 L 433.70588235294 124.95" class="highcharts-graph" data-z-index="1" stroke="#b00000" stroke-width="2" stroke-linejoin="round" stroke-linecap="round"></path></g><g class="highcharts-markers highcharts-series-0 highcharts-line-series" data-z-index="0.1" opacity="1" transform="translate(37,141) scale(1 1)" clip-path="none"></g><g class="highcharts-series highcharts-series-1 highcharts-line-series" data-z-index="0.1" opacity="1" transform="translate(37,141) scale(1 1)" clip-path="url(#highcharts-9n5clvk-248-)"><path fill="none" d="M 4.29411764706 156.45 L 26.894736842106 158.025 L 49.495356037153 159.075 L 72.095975232199 161.7 L 94.696594427245 161.175 L 117.29721362229 162.225 L 139.89783281734 162.225 L 162.49845201238 163.275 L 185.09907120743 166.425 L 207.69969040248 167.475 L 230.30030959752 165.9 L 252.90092879257 169.05 L 275.50154798762 168 L 298.10216718266 169.05 L 320.70278637771 169.575 L 343.30340557275 170.1 L 365.9040247678 169.05 L 388.50464396285 170.1 L 411.10526315789 171.15 L 433.70588235294 168.525" class="highcharts-graph" data-z-index="1" stroke="#672773" stroke-width="2" stroke-linejoin="round" stroke-linecap="round"></path></g><g class="highcharts-markers highcharts-series-1 highcharts-line-series" data-z-index="0.1" opacity="1" transform="translate(37,141) scale(1 1)" clip-path="none"></g><g class="highcharts-series highcharts-series-2 highcharts-line-series" data-z-index="0.1" opacity="1" transform="translate(37,141) scale(1 1)" clip-path="url(#highcharts-9n5clvk-248-)"><path fill="none" d="M 4.29411764706 76.65 L 26.894736842106 81.375 L 49.495356037153 87.15 L 72.095975232199 91.875 L 94.696594427245 97.65 L 117.29721362229 99.75 L 139.89783281734 104.475 L 162.49845201238 110.775 L 185.09907120743 118.125 L 207.69969040248 121.8 L 230.30030959752 126.52499999999999 L 252.90092879257 131.25 L 275.50154798762 131.77499999999998 L 298.10216718266 133.35000000000002 L 320.70278637771 132.825 L 343.30340557275 139.125 L 365.9040247678 140.7 L 388.50464396285 141.75 L 411.10526315789 139.64999999999998 L 433.70588235294 141.22500000000002" class="highcharts-graph" data-z-index="1" stroke="#007a2f" stroke-width="2" stroke-linejoin="round" stroke-linecap="round"></path></g><g class="highcharts-markers highcharts-series-2 highcharts-line-series" data-z-index="0.1" opacity="1" transform="translate(37,141) scale(1 1)" clip-path="none"></g><g class="highcharts-series highcharts-series-3 highcharts-line-series" data-z-index="0.1" opacity="1" transform="translate(37,141) scale(1 1)" clip-path="url(#highcharts-9n5clvk-248-)"><path fill="none" d="M 4.29411764706 34.650000000000006 L 26.894736842106 29.400000000000006 L 49.495356037153 32.025000000000006 L 72.095975232199 34.125 L 94.696594427245 32.55000000000001 L 117.29721362229 34.125 L 139.89783281734 32.55000000000001 L 162.49845201238 34.125 L 185.09907120743 36.75 L 207.69969040248 37.275000000000006 L 230.30030959752 38.849999999999994 L 252.90092879257 41.474999999999994 L 275.50154798762 42 L 298.10216718266 45.150000000000006 L 320.70278637771 48.29999999999998 L 343.30340557275 50.92499999999998 L 365.9040247678 53.54999999999998 L 388.50464396285 56.70000000000002 L 411.10526315789 58.79999999999998 L 433.70588235294 61.95000000000002" class="highcharts-graph" data-z-index="1" stroke="#fabd24" stroke-width="2" stroke-linejoin="round" stroke-linecap="round"></path></g><g class="highcharts-markers highcharts-series-3 highcharts-line-series" data-z-index="0.1" opacity="1" transform="translate(37,141) scale(1 1)" clip-path="none"></g><g class="highcharts-series highcharts-series-4 highcharts-line-series" data-z-index="0.1" opacity="1" transform="translate(37,141) scale(1 1)" clip-path="url(#highcharts-9n5clvk-248-)"><path fill="none" d="M 4.29411764706 130.2 L 26.894736842106 132.825 L 49.495356037153 139.125 L 72.095975232199 138.60000000000002 L 94.696594427245 138.60000000000002 L 117.29721362229 139.125 L 139.89783281734 141.75 L 162.49845201238 139.125 L 185.09907120743 139.64999999999998 L 207.69969040248 139.125 L 230.30030959752 137.55 L 252.90092879257 138.60000000000002 L 275.50154798762 137.55 L 298.10216718266 139.125 L 320.70278637771 139.125 L 343.30340557275 138.60000000000002 L 365.9040247678 141.75 L 388.50464396285 140.175 L 411.10526315789 142.27499999999998 L 433.70588235294 143.85000000000002" class="highcharts-graph" data-z-index="1" stroke="#b475ab" stroke-width="2" stroke-linejoin="round" stroke-linecap="round"></path></g><g class="highcharts-markers highcharts-series-4 highcharts-line-series" data-z-index="0.1" opacity="1" transform="translate(37,141) scale(1 1)" clip-path="none"></g><g class="highcharts-series highcharts-series-5 highcharts-line-series" data-z-index="0.1" opacity="1" transform="translate(37,141) scale(1 1)" clip-path="url(#highcharts-9n5clvk-248-)"><path fill="none" d="M 4.29411764706 95.025 L 26.894736842106 95.025 L 49.495356037153 99.75 L 72.095975232199 105 L 94.696594427245 110.775 L 117.29721362229 112.875 L 139.89783281734 120.225 L 162.49845201238 126 L 185.09907120743 126 L 207.69969040248 133.875 L 230.30030959752 135.45 L 252.90092879257 134.925 L 275.50154798762 134.39999999999998 L 298.10216718266 132.3 L 320.70278637771 133.35000000000002 L 343.30340557275 129.14999999999998 L 365.9040247678 138.60000000000002 L 388.50464396285 141.75 L 411.10526315789 139.125 L 433.70588235294 140.175" class="highcharts-graph" data-z-index="1" stroke="#71a3b5" stroke-width="2" stroke-linejoin="round" stroke-linecap="round"></path></g><g class="highcharts-markers highcharts-series-5 highcharts-line-series" data-z-index="0.1" opacity="1" transform="translate(37,141) scale(1 1)" clip-path="none"></g><g class="highcharts-series highcharts-series-6 highcharts-line-series" data-z-index="0.1" opacity="1" transform="translate(37,141) scale(1 1)" clip-path="url(#highcharts-9n5clvk-248-)"><path fill="none" d="M 4.29411764706 3.1500000000000057 L 26.894736842106 0.5250000000000057 L 49.495356037153 4.199999999999989 L 72.095975232199 0.5250000000000057 L 94.696594427245 1.5749999999999886 L 117.29721362229 4.724999999999994 L 139.89783281734 5.775000000000006 L 162.49845201238 11.025000000000006 L 185.09907120743 8.925000000000011 L 207.69969040248 10.5 L 230.30030959752 14.175000000000011 L 252.90092879257 19.42500000000001 L 275.50154798762 24.150000000000006 L 298.10216718266 29.92500000000001 L 320.70278637771 32.55000000000001 L 343.30340557275 36.75 L 365.9040247678 36.224999999999994 L 388.50464396285 36.75 L 411.10526315789 42.525000000000006 L 433.70588235294 44.625" class="highcharts-graph" data-z-index="1" stroke="#b9cfd7" stroke-width="2" stroke-linejoin="round" stroke-linecap="round"></path></g><g class="highcharts-markers highcharts-series-6 highcharts-line-series" data-z-index="0.1" opacity="1" transform="translate(37,141) scale(1 1)" clip-path="none"></g><g class="highcharts-series highcharts-series-7 highcharts-line-series" data-z-index="0.1" opacity="1" transform="translate(37,141) scale(1 1)" clip-path="url(#highcharts-9n5clvk-248-)"><path fill="none" d="M 4.29411764706 127.05 L 26.894736842106 130.2 L 49.495356037153 129.675 L 72.095975232199 127.05 L 94.696594427245 123.9 L 117.29721362229 128.625 L 139.89783281734 125.475 L 162.49845201238 131.77499999999998 L 185.09907120743 130.72500000000002 L 207.69969040248 127.575 L 230.30030959752 135.45 L 252.90092879257 134.925 L 275.50154798762 138.60000000000002 L 298.10216718266 142.27499999999998 L 320.70278637771 137.02499999999998 L 343.30340557275 139.125 L 365.9040247678 138.075 L 388.50464396285 138.60000000000002 L 411.10526315789 145.95 L 433.70588235294 143.325" class="highcharts-graph" data-z-index="1" stroke="#ff8028" stroke-width="2" stroke-linejoin="round" stroke-linecap="round"></path></g><g class="highcharts-markers highcharts-series-7 highcharts-line-series" data-z-index="0.1" opacity="1" transform="translate(37,141) scale(1 1)" clip-path="none"></g><g class="highcharts-series highcharts-series-8 highcharts-line-series" data-z-index="0.1" opacity="1" transform="translate(37,141) scale(1 1)" clip-path="url(#highcharts-9n5clvk-248-)"><path fill="none" d="M 4.29411764706 97.65 L 26.894736842106 107.1 L 49.495356037153 96.075 L 72.095975232199 86.625 L 94.696594427245 82.425 L 117.29721362229 71.4 L 139.89783281734 62.474999999999994 L 162.49845201238 62.474999999999994 L 185.09907120743 63.525000000000006 L 207.69969040248 64.57500000000002 L 230.30030959752 55.125 L 252.90092879257 45.150000000000006 L 275.50154798762 58.79999999999998 L 298.10216718266 69.29999999999998 L 320.70278637771 59.32500000000002 L 343.30340557275 69.82500000000002 L 365.9040247678 86.1 L 388.50464396285 96.075 L 411.10526315789 95.55 L 433.70588235294 98.175" class="highcharts-graph" data-z-index="1" stroke="#73ba7c" stroke-width="2" stroke-linejoin="round" stroke-linecap="round"></path></g><g class="highcharts-markers highcharts-series-8 highcharts-line-series" data-z-index="0.1" opacity="1" transform="translate(37,141) scale(1 1)" clip-path="none"></g><g class="highcharts-series highcharts-series-9 highcharts-line-series" data-z-index="0.1" opacity="1" transform="translate(37,141) scale(1 1)" clip-path="url(#highcharts-9n5clvk-248-)"><path fill="none" d="M 4.29411764706 90.825 L 26.894736842106 83.475 L 49.495356037153 80.32500000000002 L 72.095975232199 75.07500000000002 L 94.696594427245 69.82500000000002 L 117.29721362229 59.849999999999994 L 139.89783281734 65.1 L 162.49845201238 67.20000000000002 L 185.09907120743 64.04999999999998 L 207.69969040248 64.04999999999998 L 230.30030959752 66.67499999999998 L 252.90092879257 64.04999999999998 L 275.50154798762 59.849999999999994 L 298.10216718266 66.67499999999998 L 320.70278637771 73.5 L 343.30340557275 75.6 L 365.9040247678 71.4 L 388.50464396285 77.70000000000002 L 411.10526315789 75.6 L 433.70588235294 79.275" class="highcharts-graph" data-z-index="1" stroke="#9f7c5a" stroke-width="2" stroke-linejoin="round" stroke-linecap="round"></path></g><g class="highcharts-markers highcharts-series-9 highcharts-line-series" data-z-index="0.1" opacity="1" transform="translate(37,141) scale(1 1)" clip-path="none"></g><g class="highcharts-series highcharts-series-10 highcharts-line-series" data-z-index="0.1" opacity="1" transform="translate(37,141) scale(1 1)" clip-path="url(#highcharts-9n5clvk-248-)"><path fill="none" d="M 4.29411764706 119.175 L 26.894736842106 120.225 L 49.495356037153 119.175 L 72.095975232199 116.55 L 94.696594427245 121.275 L 117.29721362229 112.875 L 139.89783281734 118.125 L 162.49845201238 106.05 L 185.09907120743 101.85 L 207.69969040248 99.225 L 230.30030959752 97.125 L 252.90092879257 99.225 L 275.50154798762 101.85 L 298.10216718266 108.675 L 320.70278637771 110.25 L 343.30340557275 117.075 L 365.9040247678 114.975 L 388.50464396285 116.025 L 411.10526315789 122.325 L 433.70588235294 121.8" class="highcharts-graph" data-z-index="1" stroke="#999999" stroke-width="2" stroke-linejoin="round" stroke-linecap="round"></path></g><g class="highcharts-markers highcharts-series-10 highcharts-line-series" data-z-index="0.1" opacity="1" transform="translate(37,141) scale(1 1)" clip-path="none"></g></g><text x="10" text-anchor="start" class="highcharts-title" data-z-index="4" style="color:#000000;font-size:14px;font-weight:bold;fill:#000000;" y="21"><tspan>Segregationsindex nach Staatsangehörigkeit</tspan></text><text x="10" text-anchor="start" class="highcharts-subtitle" data-z-index="4" style="color:#000000;font-size:12px;font-weight:normal;fill:#000000;" y="40"><tspan>Basel-Stadt</tspan></text><text x="10" text-anchor="start" class="highcharts-caption" data-z-index="4" style="color:#666666;fill:#666666;" y="385"></text><g class="highcharts-legend" data-z-index="7" transform="translate(29,46)"><rect fill="none" class="highcharts-legend-box" rx="0" ry="0" x="0" y="0" width="431" height="83" visibility="visible"></rect><g data-z-index="1"><g><g class="highcharts-legend-item highcharts-line-series highcharts-color-undefined highcharts-series-0" data-z-index="1" transform="translate(8,3)"><path fill="none" d="M 0 11 L 16 11" class="highcharts-graph" stroke="#b00000" stroke-width="2"></path><text x="21" style="color:#333333;cursor:pointer;font-size:12px;font-weight:normal;white-space:nowrap;fill:#333333;" text-anchor="start" data-z-index="2" y="15"><tspan>Schweiz</tspan></text></g><g class="highcharts-legend-item highcharts-line-series highcharts-color-undefined highcharts-series-5" data-z-index="1" transform="translate(148,3)"><path fill="none" d="M 0 11 L 16 11" class="highcharts-graph" stroke="#71a3b5" stroke-width="2"></path><text x="21" y="15" style="color:#333333;cursor:pointer;font-size:12px;font-weight:normal;white-space:nowrap;fill:#333333;" text-anchor="start" data-z-index="2"><tspan>EU-Ost</tspan></text></g><g class="highcharts-legend-item highcharts-line-series highcharts-color-undefined highcharts-series-4" data-z-index="1" transform="translate(288,3)"><path fill="none" d="M 0 11 L 16 11" class="highcharts-graph" stroke="#b475ab" stroke-width="2"></path><text x="21" y="15" style="color:#333333;cursor:pointer;font-size:12px;font-weight:normal;white-space:nowrap;fill:#333333;" text-anchor="start" data-z-index="2"><tspan>EU-West + EFTA + UK</tspan></text></g><g class="highcharts-legend-item highcharts-line-series highcharts-color-undefined highcharts-series-1" data-z-index="1" transform="translate(8,21)"><path fill="none" d="M 0 11 L 16 11" class="highcharts-graph" stroke="#672773" stroke-width="2"></path><text x="21" y="15" style="color:#333333;cursor:pointer;font-size:12px;font-weight:normal;white-space:nowrap;fill:#333333;" text-anchor="start" data-z-index="2"><tspan>Deutschland</tspan></text></g><g class="highcharts-legend-item highcharts-line-series highcharts-color-undefined highcharts-series-6" data-z-index="1" transform="translate(148,21)"><path fill="none" d="M 0 11 L 16 11" class="highcharts-graph" stroke="#b9cfd7" stroke-width="2"></path><text x="21" y="15" style="color:#333333;cursor:pointer;font-size:12px;font-weight:normal;white-space:nowrap;fill:#333333;" text-anchor="start" data-z-index="2"><tspan>Balkan</tspan></text></g><g class="highcharts-legend-item highcharts-line-series highcharts-color-undefined highcharts-series-7" data-z-index="1" transform="translate(288,21)"><path fill="none" d="M 0 11 L 16 11" class="highcharts-graph" stroke="#ff8028" stroke-width="2"></path><text x="21" y="15" style="color:#333333;cursor:pointer;font-size:12px;font-weight:normal;white-space:nowrap;fill:#333333;" text-anchor="start" data-z-index="2"><tspan>Mittel- und Südamerika</tspan></text></g><g class="highcharts-legend-item highcharts-line-series highcharts-color-undefined highcharts-series-2" data-z-index="1" transform="translate(8,39)"><path fill="none" d="M 0 11 L 16 11" class="highcharts-graph" stroke="#007a2f" stroke-width="2"></path><text x="21" y="15" style="color:#333333;cursor:pointer;font-size:12px;font-weight:normal;white-space:nowrap;fill:#333333;" text-anchor="start" data-z-index="2"><tspan>Italien</tspan></text></g><g class="highcharts-legend-item highcharts-line-series highcharts-color-undefined highcharts-series-8" data-z-index="1" transform="translate(148,39)"><path fill="none" d="M 0 11 L 16 11" class="highcharts-graph" stroke="#73ba7c" stroke-width="2"></path><text x="21" y="15" style="color:#333333;cursor:pointer;font-size:12px;font-weight:normal;white-space:nowrap;fill:#333333;" text-anchor="start" data-z-index="2"><tspan>Arabische Länder</tspan></text></g><g class="highcharts-legend-item highcharts-line-series highcharts-color-undefined highcharts-series-10" data-z-index="1" transform="translate(288,39)"><path fill="none" d="M 0 11 L 16 11" class="highcharts-graph" stroke="#999999" stroke-width="2"></path><text x="21" y="15" style="color:#333333;cursor:pointer;font-size:12px;font-weight:normal;white-space:nowrap;fill:#333333;" text-anchor="start" data-z-index="2"><tspan>Übrige Länder</tspan></text></g><g class="highcharts-legend-item highcharts-line-series highcharts-color-undefined highcharts-series-3" data-z-index="1" transform="translate(8,57)"><path fill="none" d="M 0 11 L 16 11" class="highcharts-graph" stroke="#fabd24" stroke-width="2"></path><text x="21" y="15" style="color:#333333;cursor:pointer;font-size:12px;font-weight:normal;white-space:nowrap;fill:#333333;" text-anchor="start" data-z-index="2"><tspan>Türkei</tspan></text></g><g class="highcharts-legend-item highcharts-line-series highcharts-color-undefined highcharts-series-9" data-z-index="1" transform="translate(148,57)"><path fill="none" d="M 0 11 L 16 11" class="highcharts-graph" stroke="#9f7c5a" stroke-width="2"></path><text x="21" y="15" style="color:#333333;cursor:pointer;font-size:12px;font-weight:normal;white-space:nowrap;fill:#333333;" text-anchor="start" data-z-index="2"><tspan>Afrikanische Länder</tspan></text></g></g></g></g><g class="highcharts-axis-labels highcharts-xaxis-labels" data-z-index="7"><text x="63.894736842106" style="color:#000000;cursor:default;font-size:11px;fill:#000000;" text-anchor="middle" transform="translate(0,0)" y="370" opacity="1">2002</text><text x="109.0959752322" style="color:#000000;cursor:default;font-size:11px;fill:#000000;" text-anchor="middle" transform="translate(0,0)" y="370" opacity="1">2004</text><text x="154.29721362229" style="color:#000000;cursor:default;font-size:11px;fill:#000000;" text-anchor="middle" transform="translate(0,0)" y="370" opacity="1">2006</text><text x="199.49845201238" style="color:#000000;cursor:default;font-size:11px;fill:#000000;" text-anchor="middle" transform="translate(0,0)" y="370" opacity="1">2008</text><text x="244.69969040248" style="color:#000000;cursor:default;font-size:11px;fill:#000000;" text-anchor="middle" transform="translate(0,0)" y="370" opacity="1">2010</text><text x="289.90092879257" style="color:#000000;cursor:default;font-size:11px;fill:#000000;" text-anchor="middle" transform="translate(0,0)" y="370" opacity="1">2012</text><text x="335.10216718266" style="color:#000000;cursor:default;font-size:11px;fill:#000000;" text-anchor="middle" transform="translate(0,0)" y="370" opacity="1">2014</text><text x="380.30340557275" style="color:#000000;cursor:default;font-size:11px;fill:#000000;" text-anchor="middle" transform="translate(0,0)" y="370" opacity="1">2016</text><text x="425.50464396285" style="color:#000000;cursor:default;font-size:11px;fill:#000000;" text-anchor="middle" transform="translate(0,0)" y="370" opacity="1">2018</text><text x="463" style="color:#000000;cursor:default;font-size:11px;fill:#000000;" text-anchor="middle" transform="translate(0,0)" y="370" opacity="1">2020</text></g><g class="highcharts-axis-labels highcharts-yaxis-labels" data-z-index="7"><text x="22" style="color:#000000;cursor:default;font-size:11px;fill:#000000;" text-anchor="end" transform="translate(0,0)" y="355" opacity="1">0</text><text x="22" style="color:#000000;cursor:default;font-size:11px;fill:#000000;" text-anchor="end" transform="translate(0,0)" y="303" opacity="1">10</text><text x="22" style="color:#000000;cursor:default;font-size:11px;fill:#000000;" text-anchor="end" transform="translate(0,0)" y="250" opacity="1">20</text><text x="22" style="color:#000000;cursor:default;font-size:11px;fill:#000000;" text-anchor="end" transform="translate(0,0)" y="198" opacity="1">30</text><text x="22" style="color:#000000;cursor:default;font-size:11px;fill:#000000;" text-anchor="end" transform="translate(0,0)" y="145" opacity="1">40</text></g><text x="10" class="highcharts-credits" text-anchor="start" data-z-index="8" style="cursor:default;color:#000000;font-size:10px;fill:#000000;" y="403"><tspan>Quelle: Statistisches Amt Basel-Stadt, Bevölkerungsstatistik.</tspan><tspan x="10" dy="13">Zuletzt geändert: 17.6.2022</tspan></text><g class="highcharts-control-points" data-z-index="99" clip-path="url(#highcharts-9n5clvk-449-)"></g></svg>