<?xml version="1.0" standalone="no"?><!DOCTYPE svg PUBLIC "-//W3C//DTD SVG 1.1//EN" "http://www.w3.org/Graphics/SVG/1.1/DTD/svg11.dtd"><svg xmlns:xlink="http://www.w3.org/1999/xlink" version="1.1" class="highcharts-root" style="font-family:Arial;font-size:12px;" xmlns="http://www.w3.org/2000/svg" viewBox="0 0 485 415"><desc>Created with Highstock 6.1.1</desc><defs><clipPath id="highcharts-as5s51i-6"><rect x="0" y="0" width="428" height="202" fill="none"></rect></clipPath><clipPath id="highcharts-as5s51i-7"><rect x="0" y="0" width="428" height="202" fill="none"></rect></clipPath></defs><rect fill="#fbfbfb" class="highcharts-background" x="0" y="0" width="485" height="428" rx="0" ry="0"></rect><rect fill="none" class="highcharts-plot-background" x="47" y="139" width="428" height="202"></rect><g class="highcharts-pane-group" data-z-index="0"></g><g class="highcharts-grid highcharts-xaxis-grid " data-z-index="1"><path fill="none" data-z-index="1" class="highcharts-grid-line" d="M 50.5 139 L 50.5 341" opacity="1"></path><path fill="none" data-z-index="1" class="highcharts-grid-line" d="M 103.5 139 L 103.5 341" opacity="1"></path><path fill="none" data-z-index="1" class="highcharts-grid-line" d="M 155.5 139 L 155.5 341" opacity="1"></path><path fill="none" data-z-index="1" class="highcharts-grid-line" d="M 208.5 139 L 208.5 341" opacity="1"></path><path fill="none" data-z-index="1" class="highcharts-grid-line" d="M 260.5 139 L 260.5 341" opacity="1"></path><path fill="none" data-z-index="1" class="highcharts-grid-line" d="M 312.5 139 L 312.5 341" opacity="1"></path><path fill="none" data-z-index="1" class="highcharts-grid-line" d="M 365.5 139 L 365.5 341" opacity="1"></path><path fill="none" data-z-index="1" class="highcharts-grid-line" d="M 417.5 139 L 417.5 341" opacity="1"></path><path fill="none" data-z-index="1" class="highcharts-grid-line" d="M 470.5 139 L 470.5 341" opacity="1"></path></g><g class="highcharts-grid highcharts-yaxis-grid " data-z-index="1"><path fill="none" stroke="#B9CFD7" stroke-width="0.5" data-z-index="1" class="highcharts-grid-line" d="M 47 341.25 L 475 341.25" opacity="1"></path><path fill="none" stroke="#B9CFD7" stroke-width="0.5" data-z-index="1" class="highcharts-grid-line" d="M 47 291.25 L 475 291.25" opacity="1"></path><path fill="none" stroke="#B9CFD7" stroke-width="0.5" data-z-index="1" class="highcharts-grid-line" d="M 47 240.25 L 475 240.25" opacity="1"></path><path fill="none" stroke="#B9CFD7" stroke-width="0.5" data-z-index="1" class="highcharts-grid-line" d="M 47 190.25 L 475 190.25" opacity="1"></path><path fill="none" stroke="#B9CFD7" stroke-width="0.5" data-z-index="1" class="highcharts-grid-line" d="M 47 138.75 L 475 138.75" opacity="1"></path></g><rect fill="none" class="highcharts-plot-border" data-z-index="1" x="47" y="139" width="428" height="202"></rect><g class="highcharts-axis highcharts-xaxis " data-z-index="2"><path fill="none" class="highcharts-axis-line" stroke="#B9CFD7" stroke-width="0.5" data-z-index="7" d="M 47 341.25 L 475 341.25"></path></g><g class="highcharts-axis highcharts-yaxis " data-z-index="2"><path fill="none" class="highcharts-axis-line" data-z-index="7" d="M 47 139 L 47 341"></path></g><g class="highcharts-series-group" data-z-index="3"><g data-z-index="0.1" class="highcharts-series highcharts-series-0 highcharts-line-series " transform="translate(47,139) scale(1 1)" clip-path="url(#highcharts-as5s51i-7)"><path fill="none" d="M 4.1960784313688 83.83000000000001 L 56.647058823527 82.82 L 109.09803921568 77.26500000000001 L 161.54901960784 78.78000000000002 L 214 63.125 L 266.45098039216 58.58000000000001 L 318.90196078432 60.599999999999994 L 371.35294117647 67.66999999999999 L 423.80392156863 71.20500000000001" class="highcharts-graph" data-z-index="1" stroke="#b00000" stroke-width="2" stroke-linejoin="round" stroke-linecap="round"></path></g><g data-z-index="0.1" class="highcharts-markers highcharts-series-0 highcharts-line-series " transform="translate(47,139) scale(1 1)" clip-path="none"></g><g data-z-index="0.1" class="highcharts-series highcharts-series-1 highcharts-line-series " transform="translate(47,139) scale(1 1)" clip-path="url(#highcharts-as5s51i-7)"><path fill="none" d="M 4.1960784313688 77.77 L 56.647058823527 71.20500000000001 L 109.09803921568 62.11500000000001 L 161.54901960784 64.64000000000001 L 214 49.49000000000001 L 266.45098039216 44.94499999999999 L 318.90196078432 47.974999999999994 L 371.35294117647 46.965 L 423.80392156863 53.025000000000006" class="highcharts-graph" data-z-index="1" stroke="#661200" stroke-width="2" stroke-dasharray="16,6"></path></g><g data-z-index="0.1" class="highcharts-markers highcharts-series-1 highcharts-line-series " transform="translate(47,139) scale(1 1)" clip-path="none"></g><g data-z-index="0.1" class="highcharts-series highcharts-series-2 highcharts-line-series " transform="translate(47,139) scale(1 1)" clip-path="url(#highcharts-as5s51i-7)"><path fill="none" d="M 4.1960784313688 90.395 L 56.647058823527 93.93 L 109.09803921568 91.91 L 161.54901960784 93.425 L 214 76.25500000000001 L 266.45098039216 72.215 L 318.90196078432 73.73000000000002 L 371.35294117647 88.88000000000001 L 423.80392156863 89.89" class="highcharts-graph" data-z-index="1" stroke="#dc440e" stroke-width="2" stroke-dasharray="16,6"></path></g><g data-z-index="0.1" class="highcharts-markers highcharts-series-2 highcharts-line-series " transform="translate(47,139) scale(1 1)" clip-path="none"></g><g data-z-index="0.1" class="highcharts-series highcharts-series-3 highcharts-line-series " transform="translate(47,139) scale(1 1)" clip-path="url(#highcharts-as5s51i-7)"><path fill="none" d="M 4.1960784313688 104.03000000000002 L 56.647058823527 95.95 L 109.09803921568 87.36500000000001 L 161.54901960784 74.235 L 214 49.995000000000005 L 266.45098039216 43.935 L 318.90196078432 39.89500000000001 L 371.35294117647 45.45000000000002 L 423.80392156863 29.794999999999987" class="highcharts-graph" data-z-index="1" stroke="#cd9c00" stroke-width="2" stroke-linejoin="round" stroke-linecap="round"></path></g><g data-z-index="0.1" class="highcharts-markers highcharts-series-3 highcharts-line-series " transform="translate(47,139) scale(1 1)" clip-path="none"></g><g data-z-index="0.1" class="highcharts-series highcharts-series-4 highcharts-line-series " transform="translate(47,139) scale(1 1)" clip-path="url(#highcharts-as5s51i-7)"><path fill="none" d="M 4.1960784313688 97.465 L 56.647058823527 92.92 L 109.09803921568 82.82 L 161.54901960784 67.16500000000002 L 214 41.41 L 266.45098039216 43.43000000000001 L 318.90196078432 31.31000000000003 L 371.35294117647 36.360000000000014 L 423.80392156863 19.189999999999998" class="highcharts-graph" data-z-index="1" stroke="#7f5f1a" stroke-width="2" stroke-dasharray="16,6"></path></g><g data-z-index="0.1" class="highcharts-markers highcharts-series-4 highcharts-line-series " transform="translate(47,139) scale(1 1)" clip-path="none"></g><g data-z-index="0.1" class="highcharts-series highcharts-series-5 highcharts-line-series " transform="translate(47,139) scale(1 1)" clip-path="url(#highcharts-as5s51i-7)"><path fill="none" d="M 4.1960784313688 110.09 L 56.647058823527 99.485 L 109.09803921568 91.40500000000002 L 161.54901960784 82.31500000000001 L 214 58.58000000000001 L 266.45098039216 43.935 L 318.90196078432 48.48000000000002 L 371.35294117647 54.035 L 423.80392156863 40.400000000000006" class="highcharts-graph" data-z-index="1" stroke="#ffda80" stroke-width="2" stroke-dasharray="16,6"></path></g><g data-z-index="0.1" class="highcharts-markers highcharts-series-5 highcharts-line-series " transform="translate(47,139) scale(1 1)" clip-path="none"></g></g><text x="10" text-anchor="start" class="highcharts-title" data-z-index="4" style="color:#000000;font-size:14px;font-weight:bold;fill:#000000;" y="21"><tspan>Lernendenquote nach Staatsangehörigkeit und Geschlecht</tspan></text><text x="10" text-anchor="start" class="highcharts-subtitle" data-z-index="4" style="color:#000000;font-size:12px;font-weight:normal;fill:#000000;" y="40"><tspan>Basel-Stadt</tspan></text><g class="highcharts-legend" data-z-index="7" transform="translate(39,56)"><rect fill="none" class="highcharts-legend-box" rx="0" ry="0" x="0" y="0" width="316" height="71" visibility="visible"></rect><g data-z-index="1"><g><g class="highcharts-legend-item highcharts-line-series highcharts-color-undefined highcharts-series-0" data-z-index="1" transform="translate(8,3)"><path fill="none" d="M 0 11 L 30 11" class="highcharts-graph" stroke="#b00000" stroke-width="2"></path><text x="35" style="color:#333333;font-size:12px;font-weight:normal;cursor:pointer;fill:#333333;" text-anchor="start" data-z-index="2" y="15"><tspan>Schweiz</tspan></text></g><g class="highcharts-legend-item highcharts-line-series highcharts-color-undefined highcharts-series-3" data-z-index="1" transform="translate(168,3)"><path fill="none" d="M 0 11 L 30 11" class="highcharts-graph" stroke="#cd9c00" stroke-width="2"></path><text x="35" y="15" style="color:#333333;font-size:12px;font-weight:normal;cursor:pointer;fill:#333333;" text-anchor="start" data-z-index="2"><tspan>Ausland</tspan></text></g><g class="highcharts-legend-item highcharts-line-series highcharts-color-undefined highcharts-series-1" data-z-index="1" transform="translate(8,23)"><path fill="none" d="M 0 11 L 30 11" class="highcharts-graph" stroke-dasharray="16,6" stroke="#661200" stroke-width="2"></path><text x="35" y="15" style="color:#333333;font-size:12px;font-weight:normal;cursor:pointer;fill:#333333;" text-anchor="start" data-z-index="2"><tspan>Schweizer</tspan></text></g><g class="highcharts-legend-item highcharts-line-series highcharts-color-undefined highcharts-series-4" data-z-index="1" transform="translate(168,23)"><path fill="none" d="M 0 11 L 30 11" class="highcharts-graph" stroke-dasharray="16,6" stroke="#7f5f1a" stroke-width="2"></path><text x="35" y="15" style="color:#333333;font-size:12px;font-weight:normal;cursor:pointer;fill:#333333;" text-anchor="start" data-z-index="2"><tspan>Ausländer</tspan></text></g><g class="highcharts-legend-item highcharts-line-series highcharts-color-undefined highcharts-series-2" data-z-index="1" transform="translate(8,43)"><path fill="none" d="M 0 11 L 30 11" class="highcharts-graph" stroke-dasharray="16,6" stroke="#dc440e" stroke-width="2"></path><text x="35" y="15" style="color:#333333;font-size:12px;font-weight:normal;cursor:pointer;fill:#333333;" text-anchor="start" data-z-index="2"><tspan>Schweizerinnen</tspan></text></g><g class="highcharts-legend-item highcharts-line-series highcharts-color-undefined highcharts-series-5" data-z-index="1" transform="translate(168,43)"><path fill="none" d="M 0 11 L 30 11" class="highcharts-graph" stroke-dasharray="16,6" stroke="#ffda80" stroke-width="2"></path><text x="35" y="15" style="color:#333333;font-size:12px;font-weight:normal;cursor:pointer;fill:#333333;" text-anchor="start" data-z-index="2"><tspan>Ausländerinnen</tspan></text></g></g></g></g><g class="highcharts-axis-labels highcharts-xaxis-labels " data-z-index="7"><text x="51.196078431369" style="color:#000000;cursor:default;font-size:11px;fill:#000000;" text-anchor="middle" transform="translate(0,0)" y="360" opacity="1">2011</text><text x="103.64705882353" style="color:#000000;cursor:default;font-size:11px;fill:#000000;" text-anchor="middle" transform="translate(0,0)" y="360" opacity="1">2012</text><text x="156.09803921568" style="color:#000000;cursor:default;font-size:11px;fill:#000000;" text-anchor="middle" transform="translate(0,0)" y="360" opacity="1">2013</text><text x="208.54901960784" style="color:#000000;cursor:default;font-size:11px;fill:#000000;" text-anchor="middle" transform="translate(0,0)" y="360" opacity="1">2014</text><text x="261" style="color:#000000;cursor:default;font-size:11px;fill:#000000;" text-anchor="middle" transform="translate(0,0)" y="360" opacity="1">2015</text><text x="313.45098039216" style="color:#000000;cursor:default;font-size:11px;fill:#000000;" text-anchor="middle" transform="translate(0,0)" y="360" opacity="1">2016</text><text x="365.90196078432" style="color:#000000;cursor:default;font-size:11px;fill:#000000;" text-anchor="middle" transform="translate(0,0)" y="360" opacity="1">2017</text><text x="418.35294117647" style="color:#000000;cursor:default;font-size:11px;fill:#000000;" text-anchor="middle" transform="translate(0,0)" y="360" opacity="1">2018</text><text x="463" style="color:#000000;cursor:default;font-size:11px;fill:#000000;" text-anchor="middle" transform="translate(0,0)" y="360" opacity="1">2019</text></g><g class="highcharts-axis-labels highcharts-yaxis-labels " data-z-index="7"><text x="32" style="color:#000000;cursor:default;font-size:11px;fill:#000000;" text-anchor="end" transform="translate(0,0)" y="345" opacity="1">0%</text><text x="32" style="color:#000000;cursor:default;font-size:11px;fill:#000000;" text-anchor="end" transform="translate(0,0)" y="295" opacity="1">10%</text><text x="32" style="color:#000000;cursor:default;font-size:11px;fill:#000000;" text-anchor="end" transform="translate(0,0)" y="244" opacity="1">20%</text><text x="32" style="color:#000000;cursor:default;font-size:11px;fill:#000000;" text-anchor="end" transform="translate(0,0)" y="194" opacity="1">30%</text><text x="32" style="color:#000000;cursor:default;font-size:11px;fill:#000000;" text-anchor="end" transform="translate(0,0)" y="143" opacity="1">40%</text></g><text x="10" class="highcharts-credits" text-anchor="start" data-z-index="8" style="cursor:default;color:#000000;font-size:10px;fill:#000000;" y="393"><tspan>Quelle: Statistisches Amt Basel-Stadt, Bevölkerungsstatistik;</tspan><tspan x="10" dy="13">Erziehungsdepartement Basel-Stadt, Fachstelle Lehraufsicht.</tspan><tspan x="10" dy="13">Zuletzt geändert: 2020-7-17</tspan></text></svg>