<?xml version="1.0" standalone="no"?><!DOCTYPE svg PUBLIC "-//W3C//DTD SVG 1.1//EN" "http://www.w3.org/Graphics/SVG/1.1/DTD/svg11.dtd"><svg xmlns:xlink="http://www.w3.org/1999/xlink" version="1.1" class="highcharts-root" style="font-family:Arial;font-size:12px;" xmlns="http://www.w3.org/2000/svg" viewBox="0 0 485 415"><desc>Created with Highcharts 8.2.2</desc><defs><clipPath id="highcharts-mmgd41u-40-"><rect x="0" y="0" width="252" height="342" fill="none"></rect></clipPath><clipPath id="highcharts-mmgd41u-52-"><rect x="0" y="0" width="252" height="342" fill="none"></rect></clipPath><clipPath id="highcharts-mmgd41u-75-"><rect x="133" y="114" width="342" height="252" fill="none"></rect></clipPath></defs><rect fill="#fbfbfb" class="highcharts-background" x="0" y="0" width="485" height="428" rx="0" ry="0"></rect><rect fill="none" class="highcharts-plot-background" x="133" y="114" width="342" height="252"></rect><g class="highcharts-pane-group" data-z-index="0"></g><g class="highcharts-grid highcharts-xaxis-grid" data-z-index="1"><path fill="none" data-z-index="1" class="highcharts-grid-line" d="M 133 137.5 L 475 137.5" opacity="1"></path><path fill="none" data-z-index="1" class="highcharts-grid-line" d="M 133 160.5 L 475 160.5" opacity="1"></path><path fill="none" data-z-index="1" class="highcharts-grid-line" d="M 133 183.5 L 475 183.5" opacity="1"></path><path fill="none" data-z-index="1" class="highcharts-grid-line" d="M 133 206.5 L 475 206.5" opacity="1"></path><path fill="none" data-z-index="1" class="highcharts-grid-line" d="M 133 229.5 L 475 229.5" opacity="1"></path><path fill="none" data-z-index="1" class="highcharts-grid-line" d="M 133 251.5 L 475 251.5" opacity="1"></path><path fill="none" data-z-index="1" class="highcharts-grid-line" d="M 133 274.5 L 475 274.5" opacity="1"></path><path fill="none" data-z-index="1" class="highcharts-grid-line" d="M 133 297.5 L 475 297.5" opacity="1"></path><path fill="none" data-z-index="1" class="highcharts-grid-line" d="M 133 320.5 L 475 320.5" opacity="1"></path><path fill="none" data-z-index="1" class="highcharts-grid-line" d="M 133 343.5 L 475 343.5" opacity="1"></path><path fill="none" data-z-index="1" class="highcharts-grid-line" d="M 133 366.5 L 475 366.5" opacity="1"></path><path fill="none" data-z-index="1" class="highcharts-grid-line" d="M 133 114.5 L 475 114.5" opacity="1"></path></g><g class="highcharts-grid highcharts-yaxis-grid" data-z-index="1"><path fill="none" stroke="#B9CFD7" stroke-width="0.5" data-z-index="1" class="highcharts-grid-line" d="M 132.75 114 L 132.75 366" opacity="1"></path><path fill="none" stroke="#B9CFD7" stroke-width="0.5" data-z-index="1" class="highcharts-grid-line" d="M 200.75 114 L 200.75 366" opacity="1"></path><path fill="none" stroke="#B9CFD7" stroke-width="0.5" data-z-index="1" class="highcharts-grid-line" d="M 269.75 114 L 269.75 366" opacity="1"></path><path fill="none" stroke="#B9CFD7" stroke-width="0.5" data-z-index="1" class="highcharts-grid-line" d="M 337.75 114 L 337.75 366" opacity="1"></path><path fill="none" stroke="#B9CFD7" stroke-width="0.5" data-z-index="1" class="highcharts-grid-line" d="M 406.75 114 L 406.75 366" opacity="1"></path><path fill="none" stroke="#B9CFD7" stroke-width="0.5" data-z-index="1" class="highcharts-grid-line" d="M 475.25 114 L 475.25 366" opacity="1"></path></g><rect fill="none" class="highcharts-plot-border" data-z-index="1" x="133" y="114" width="342" height="252"></rect><g class="highcharts-axis highcharts-xaxis" data-z-index="2"><path fill="none" class="highcharts-axis-line" stroke="#B9CFD7" stroke-width="0.5" data-z-index="7" d="M 132.75 114 L 132.75 366"></path></g><g class="highcharts-axis highcharts-yaxis" data-z-index="2"><path fill="none" class="highcharts-axis-line" data-z-index="7" d="M 133 366 L 475 366"></path></g><g class="highcharts-series-group" data-z-index="3"><g class="highcharts-series highcharts-series-0 highcharts-column-series" data-z-index="0.1" opacity="1" transform="translate(475,366) rotate(90) scale(-1,1) scale(1 1)" clip-path="url(#highcharts-mmgd41u-52-)"><rect x="235" y="0" width="11" height="155" fill="rgb(231,207,226)" opacity="1" class="highcharts-point"></rect><rect x="212" y="0" width="11" height="248" fill="rgb(231,207,226)" opacity="1" class="highcharts-point"></rect><rect x="189" y="0" width="11" height="116" fill="rgb(231,207,226)" opacity="1" class="highcharts-point"></rect><rect x="166" y="0" width="11" height="50" fill="rgb(231,207,226)" opacity="1" class="highcharts-point"></rect><rect x="143" y="0" width="11" height="208" fill="rgb(231,207,226)" opacity="1" class="highcharts-point"></rect><rect x="121" y="0" width="11" height="185" fill="rgb(231,207,226)" opacity="1" class="highcharts-point"></rect><rect x="98" y="0" width="11" height="48" fill="rgb(231,207,226)" opacity="1" class="highcharts-point"></rect><rect x="75" y="0" width="11" height="155" fill="rgb(231,207,226)" opacity="1" class="highcharts-point"></rect><rect x="52" y="0" width="11" height="110" fill="rgb(231,207,226)" opacity="1" class="highcharts-point"></rect><rect x="29" y="0" width="11" height="75" fill="rgb(231,207,226)" opacity="1" class="highcharts-point"></rect><rect x="6" y="0" width="11" height="232" fill="rgb(231,207,226)" opacity="1" class="highcharts-point"></rect></g><g class="highcharts-markers highcharts-series-0 highcharts-column-series" data-z-index="0.1" opacity="1" transform="translate(475,366) rotate(90) scale(-1,1) scale(1 1)" clip-path="none"></g><g class="highcharts-series highcharts-series-1 highcharts-column-series" data-z-index="0.1" opacity="1" transform="translate(475,366) rotate(90) scale(-1,1) scale(1 1)" clip-path="url(#highcharts-mmgd41u-52-)"><rect x="235" y="155" width="11" height="133" fill="rgb(180,117,171)" opacity="1" class="highcharts-point"></rect><rect x="212" y="248" width="11" height="75" fill="rgb(180,117,171)" opacity="1" class="highcharts-point"></rect><rect x="189" y="116" width="11" height="91" fill="rgb(180,117,171)" opacity="1" class="highcharts-point"></rect><rect x="166" y="50" width="11" height="84" fill="rgb(180,117,171)" opacity="1" class="highcharts-point"></rect><rect x="143" y="208" width="11" height="50" fill="rgb(180,117,171)" opacity="1" class="highcharts-point"></rect><rect x="121" y="185" width="11" height="114" fill="rgb(180,117,171)" opacity="1" class="highcharts-point"></rect><rect x="98" y="48" width="11" height="123" fill="rgb(180,117,171)" opacity="1" class="highcharts-point"></rect><rect x="75" y="155" width="11" height="74" fill="rgb(180,117,171)" opacity="1" class="highcharts-point"></rect><rect x="52" y="110" width="11" height="101" fill="rgb(180,117,171)" opacity="1" class="highcharts-point"></rect><rect x="29" y="75" width="11" height="100" fill="rgb(180,117,171)" opacity="1" class="highcharts-point"></rect><rect x="6" y="232" width="11" height="45" fill="rgb(180,117,171)" opacity="1" class="highcharts-point"></rect></g><g class="highcharts-markers highcharts-series-1 highcharts-column-series" data-z-index="0.1" opacity="1" transform="translate(475,366) rotate(90) scale(-1,1) scale(1 1)" clip-path="none"></g><g class="highcharts-series highcharts-series-2 highcharts-column-series" data-z-index="0.1" opacity="1" transform="translate(475,366) rotate(90) scale(-1,1) scale(1 1)" clip-path="url(#highcharts-mmgd41u-52-)"><rect x="235" y="288" width="11" height="55" fill="rgb(103,39,115)" opacity="1" class="highcharts-point"></rect><rect x="212" y="323" width="11" height="20" fill="rgb(103,39,115)" opacity="1" class="highcharts-point"></rect><rect x="189" y="207" width="11" height="136" fill="rgb(103,39,115)" opacity="1" class="highcharts-point"></rect><rect x="166" y="134" width="11" height="209" fill="rgb(103,39,115)" opacity="1" class="highcharts-point"></rect><rect x="143" y="258" width="11" height="85" fill="rgb(103,39,115)" opacity="1" class="highcharts-point"></rect><rect x="121" y="299" width="11" height="44" fill="rgb(103,39,115)" opacity="1" class="highcharts-point"></rect><rect x="98" y="171" width="11" height="172" fill="rgb(103,39,115)" opacity="1" class="highcharts-point"></rect><rect x="75" y="229" width="11" height="114" fill="rgb(103,39,115)" opacity="1" class="highcharts-point"></rect><rect x="52" y="211" width="11" height="132" fill="rgb(103,39,115)" opacity="1" class="highcharts-point"></rect><rect x="29" y="175" width="11" height="168" fill="rgb(103,39,115)" opacity="1" class="highcharts-point"></rect><rect x="6" y="277" width="11" height="66" fill="rgb(103,39,115)" opacity="1" class="highcharts-point"></rect></g><g class="highcharts-markers highcharts-series-2 highcharts-column-series" data-z-index="0.1" opacity="1" transform="translate(475,366) rotate(90) scale(-1,1) scale(1 1)" clip-path="none"></g></g><text x="10" text-anchor="start" class="highcharts-title" data-z-index="4" style="color:#000000;font-size:14px;font-weight:bold;fill:#000000;" y="21"><tspan>Bevölkerung nach höchster abgeschlossener Ausbildung</tspan></text><text x="10" text-anchor="start" class="highcharts-subtitle" data-z-index="4" style="color:#000000;font-size:12px;fill:#000000;" y="40"><tspan>Personen ab 15 Jahren nach Staatsangehörigkeit, Basel-Stadt,</tspan><tspan dy="15" x="0">gepoolte&amp;nbsp;Daten 2019 bis 2023</tspan></text><text x="10" text-anchor="start" class="highcharts-caption" data-z-index="4" style="color:#666666;fill:#666666;" y="400"></text><g class="highcharts-legend" data-z-index="7" transform="translate(125,71)"><rect fill="none" class="highcharts-legend-box" rx="0" ry="0" x="0" y="0" width="326" height="31" visibility="visible"></rect><g data-z-index="1"><g><g class="highcharts-legend-item highcharts-column-series highcharts-color-undefined highcharts-series-2" data-z-index="1" transform="translate(8,3)"><text x="21" style="color:#333333;cursor:pointer;font-size:12px;font-weight:normal;fill:#333333;" text-anchor="start" data-z-index="2" y="15"><tspan>Sekundarstufe I</tspan></text><rect x="2" y="4" width="12" height="12" fill="rgb(103,39,115)" class="highcharts-point" data-z-index="3"></rect></g><g class="highcharts-legend-item highcharts-column-series highcharts-color-undefined highcharts-series-1" data-z-index="1" transform="translate(120,3)"><text x="21" y="15" style="color:#333333;cursor:pointer;font-size:12px;font-weight:normal;fill:#333333;" text-anchor="start" data-z-index="2"><tspan>Sekundarstufe II</tspan></text><rect x="2" y="4" width="12" height="12" fill="rgb(180,117,171)" class="highcharts-point" data-z-index="3"></rect></g><g class="highcharts-legend-item highcharts-column-series highcharts-color-undefined highcharts-series-0" data-z-index="1" transform="translate(235,3)"><text x="21" y="15" style="color:#333333;cursor:pointer;font-size:12px;font-weight:normal;fill:#333333;" text-anchor="start" data-z-index="2"><tspan>Tertiärstufe</tspan></text><rect x="2" y="4" width="12" height="12" fill="rgb(231,207,226)" class="highcharts-point" data-z-index="3"></rect></g></g></g></g><g class="highcharts-axis-labels highcharts-xaxis-labels" data-z-index="7"><text x="118" style="color:#000000;cursor:default;font-size:11px;white-space:nowrap;fill:#000000;" text-anchor="end" transform="translate(0,0)" y="129" opacity="1"><tspan>Schweiz</tspan></text><text x="118" style="color:#000000;cursor:default;font-size:11px;white-space:nowrap;fill:#000000;" text-anchor="end" transform="translate(0,0)" y="152" opacity="1"><tspan>Deutschland</tspan></text><text x="118" style="color:#000000;cursor:default;font-size:11px;white-space:nowrap;fill:#000000;" text-anchor="end" transform="translate(0,0)" y="175" opacity="1"><tspan>Italien</tspan></text><text x="118" style="color:#000000;cursor:default;font-size:11px;white-space:nowrap;fill:#000000;" text-anchor="end" transform="translate(0,0)" y="198" opacity="1"><tspan>Türkei</tspan></text><text x="118" style="color:#000000;cursor:default;font-size:11px;white-space:nowrap;fill:#000000;" text-anchor="end" transform="translate(0,0)" y="221" opacity="1"><tspan>EU-West + EFTA + UK</tspan></text><text x="118" style="color:#000000;cursor:default;font-size:11px;white-space:nowrap;fill:#000000;" text-anchor="end" transform="translate(0,0)" y="244" opacity="1"><tspan>EU-Ost</tspan></text><text x="118" style="color:#000000;cursor:default;font-size:11px;white-space:nowrap;fill:#000000;" text-anchor="end" transform="translate(0,0)" y="267" opacity="1"><tspan>Balkan</tspan></text><text x="118" style="color:#000000;cursor:default;font-size:11px;white-space:nowrap;fill:#000000;" text-anchor="end" transform="translate(0,0)" y="290" opacity="1"><tspan>Mittel- und Südamerika</tspan></text><text x="118" style="color:#000000;cursor:default;font-size:11px;white-space:nowrap;fill:#000000;" text-anchor="end" transform="translate(0,0)" y="313" opacity="1"><tspan>Arabische Länder</tspan></text><text x="118" style="color:#000000;cursor:default;font-size:11px;white-space:nowrap;fill:#000000;" text-anchor="end" transform="translate(0,0)" y="336" opacity="1"><tspan>Afrikanische Länder</tspan></text><text x="118" style="color:#000000;cursor:default;font-size:11px;white-space:nowrap;fill:#000000;" text-anchor="end" transform="translate(0,0)" y="359" opacity="1"><tspan>Übrige Länder</tspan></text></g><g class="highcharts-axis-labels highcharts-yaxis-labels" data-z-index="7"><text x="133" style="color:#000000;cursor:default;font-size:11px;white-space:nowrap;fill:#000000;" text-anchor="middle" transform="translate(0,0)" y="385" opacity="1">0%</text><text x="201.4" style="color:#000000;cursor:default;font-size:11px;white-space:nowrap;fill:#000000;" text-anchor="middle" transform="translate(0,0)" y="385" opacity="1">20%</text><text x="269.8" style="color:#000000;cursor:default;font-size:11px;white-space:nowrap;fill:#000000;" text-anchor="middle" transform="translate(0,0)" y="385" opacity="1">40%</text><text x="338.2" style="color:#000000;cursor:default;font-size:11px;white-space:nowrap;fill:#000000;" text-anchor="middle" transform="translate(0,0)" y="385" opacity="1">60%</text><text x="406.6" style="color:#000000;cursor:default;font-size:11px;white-space:nowrap;fill:#000000;" text-anchor="middle" transform="translate(0,0)" y="385" opacity="1">80%</text><text x="461" style="color:#000000;cursor:default;font-size:11px;white-space:nowrap;fill:#000000;" text-anchor="middle" transform="translate(0,0)" y="385" opacity="1">100%</text></g><text x="10" class="highcharts-credits" text-anchor="start" data-z-index="8" style="cursor:default;color:#000000;font-size:10px;fill:#000000;" y="403"><tspan>Quelle: Bundesamt für Statistik (BFS), Strukturerhebung (SE).</tspan><tspan x="10" dy="13">Zuletzt geändert: 3.11.2025</tspan></text><g class="highcharts-control-points" data-z-index="99" clip-path="url(#highcharts-mmgd41u-75-)"></g></svg>