<?xml version="1.0" standalone="no"?><!DOCTYPE svg PUBLIC "-//W3C//DTD SVG 1.1//EN" "http://www.w3.org/Graphics/SVG/1.1/DTD/svg11.dtd"><svg xmlns:xlink="http://www.w3.org/1999/xlink" version="1.1" class="highcharts-root" style="font-family:Arial;font-size:12px;" xmlns="http://www.w3.org/2000/svg" viewBox="0 0 485 415"><desc>Created with Highcharts 8.2.0</desc><defs><clipPath id="highcharts-khamdim-82-"><rect x="0" y="0" width="417" height="222" fill="none"></rect></clipPath><clipPath id="highcharts-khamdim-98-"><rect x="0" y="0" width="417" height="222" fill="none"></rect></clipPath><clipPath id="highcharts-khamdim-159-"><rect x="58" y="116" width="417" height="222" fill="none"></rect></clipPath></defs><rect fill="#fbfbfb" class="highcharts-background" x="0" y="0" width="485" height="428" rx="0" ry="0"></rect><rect fill="none" class="highcharts-plot-background" x="58" y="116" width="417" height="222"></rect><g class="highcharts-pane-group" data-z-index="0"></g><g class="highcharts-grid highcharts-xaxis-grid" data-z-index="1"><path fill="none" data-z-index="1" class="highcharts-grid-line" d="M 61.5 116 L 61.5 338" opacity="1"></path><path fill="none" data-z-index="1" class="highcharts-grid-line" d="M 90.5 116 L 90.5 338" opacity="1"></path><path fill="none" data-z-index="1" class="highcharts-grid-line" d="M 119.5 116 L 119.5 338" opacity="1"></path><path fill="none" data-z-index="1" class="highcharts-grid-line" d="M 149.5 116 L 149.5 338" opacity="1"></path><path fill="none" data-z-index="1" class="highcharts-grid-line" d="M 178.5 116 L 178.5 338" opacity="1"></path><path fill="none" data-z-index="1" class="highcharts-grid-line" d="M 207.5 116 L 207.5 338" opacity="1"></path><path fill="none" data-z-index="1" class="highcharts-grid-line" d="M 236.5 116 L 236.5 338" opacity="1"></path><path fill="none" data-z-index="1" class="highcharts-grid-line" d="M 266.5 116 L 266.5 338" opacity="1"></path><path fill="none" data-z-index="1" class="highcharts-grid-line" d="M 295.5 116 L 295.5 338" opacity="1"></path><path fill="none" data-z-index="1" class="highcharts-grid-line" d="M 324.5 116 L 324.5 338" opacity="1"></path><path fill="none" data-z-index="1" class="highcharts-grid-line" d="M 353.5 116 L 353.5 338" opacity="1"></path><path fill="none" data-z-index="1" class="highcharts-grid-line" d="M 382.5 116 L 382.5 338" opacity="1"></path><path fill="none" data-z-index="1" class="highcharts-grid-line" d="M 412.5 116 L 412.5 338" opacity="1"></path><path fill="none" data-z-index="1" class="highcharts-grid-line" d="M 441.5 116 L 441.5 338" opacity="1"></path><path fill="none" data-z-index="1" class="highcharts-grid-line" d="M 470.5 116 L 470.5 338" opacity="1"></path></g><g class="highcharts-grid highcharts-yaxis-grid" data-z-index="1"><path fill="none" stroke="#B9CFD7" stroke-width="0.5" data-z-index="1" class="highcharts-grid-line" d="M 58 338.25 L 475 338.25" opacity="1"></path><path fill="none" stroke="#B9CFD7" stroke-width="0.5" data-z-index="1" class="highcharts-grid-line" d="M 58 294.25 L 475 294.25" opacity="1"></path><path fill="none" stroke="#B9CFD7" stroke-width="0.5" data-z-index="1" class="highcharts-grid-line" d="M 58 249.25 L 475 249.25" opacity="1"></path><path fill="none" stroke="#B9CFD7" stroke-width="0.5" data-z-index="1" class="highcharts-grid-line" d="M 58 205.25 L 475 205.25" opacity="1"></path><path fill="none" stroke="#B9CFD7" stroke-width="0.5" data-z-index="1" class="highcharts-grid-line" d="M 58 160.25 L 475 160.25" opacity="1"></path><path fill="none" stroke="#B9CFD7" stroke-width="0.5" data-z-index="1" class="highcharts-grid-line" d="M 58 115.75 L 475 115.75" opacity="1"></path></g><rect fill="none" class="highcharts-plot-border" data-z-index="1" x="58" y="116" width="417" height="222"></rect><g class="highcharts-axis highcharts-xaxis" data-z-index="2"><path fill="none" class="highcharts-axis-line" stroke="#B9CFD7" stroke-width="0.5" data-z-index="7" d="M 58 338.25 L 475 338.25"></path></g><g class="highcharts-axis highcharts-yaxis" data-z-index="2"><path fill="none" class="highcharts-axis-line" data-z-index="7" d="M 58 116 L 58 338"></path></g><g class="highcharts-series-group" data-z-index="3"><g class="highcharts-series highcharts-series-0 highcharts-line-series" data-z-index="0.1" opacity="1" transform="translate(58,116) scale(1 1)" clip-path="url(#highcharts-khamdim-98-)"><path fill="none" d="M 4.0882352941205 67.88759999999999 L 33.289915966389 67.88759999999999 L 62.491596638658 62.72832 L 91.693277310926 62.72832 L 120.89495798319 62.72832 L 150.09663865546 62.72832 L 179.29831932773 62.72832 L 208.5 62.72832 L 237.70168067227 62.72832 L 266.90336134454 62.72832 L 296.10504201681 62.72832 L 325.30672268907 62.72832 L 354.50840336134 62.72832 L 383.71008403361 165.10584 L 412.91176470588 165.10584" class="highcharts-graph" data-z-index="1" stroke="#6F6F6F" stroke-width="2" stroke-linejoin="round" stroke-linecap="round"></path></g><g class="highcharts-markers highcharts-series-0 highcharts-line-series" data-z-index="0.1" opacity="1" transform="translate(58,116) scale(1 1)" clip-path="none"></g><g class="highcharts-series highcharts-series-1 highcharts-line-series" data-z-index="0.1" opacity="1" transform="translate(58,116) scale(1 1)" clip-path="url(#highcharts-khamdim-98-)"><path fill="none" d="M 4.0882352941205 121.07879999999999 L 33.289915966389 121.07879999999999 L 62.491596638658 122.8548 L 91.693277310926 121.07879999999999 L 120.89495798319 121.22975999999998 L 150.09663865546 142.71048 L 179.29831932773 142.71048 L 208.5 142.71048 L 237.70168067227 142.71048 L 266.90336134454 142.71048 L 296.10504201681 142.71048 L 325.30672268907 142.71048 L 354.50840336134 142.71048 L 383.71008403361 142.76376 L 412.91176470588 142.76376" class="highcharts-graph" data-z-index="1" stroke="#007a2f" stroke-width="2" stroke-linejoin="round" stroke-linecap="round"></path></g><g class="highcharts-markers highcharts-series-1 highcharts-line-series" data-z-index="0.1" opacity="1" transform="translate(58,116) scale(1 1)" clip-path="none"></g><g class="highcharts-series highcharts-series-2 highcharts-line-series" data-z-index="0.1" opacity="1" transform="translate(58,116) scale(1 1)" clip-path="url(#highcharts-khamdim-98-)"><path fill="none" d="M 4.0882352941205 36.745439999999974 L 33.289915966389 36.745439999999974 L 62.491596638658 36.745439999999974 L 91.693277310926 83.34768 L 120.89495798319 83.48087999999998 L 150.09663865546 84.19127999999998 L 179.29831932773 84.19127999999998 L 208.5 84.19127999999998 L 237.70168067227 84.19127999999998 L 266.90336134454 84.15575999999999 L 296.10504201681 84.15575999999999 L 325.30672268907 84.15575999999999 L 354.50840336134 84.15575999999999 L 383.71008403361 84.28895999999997 L 412.91176470588 148.66008" class="highcharts-graph" data-z-index="1" stroke="#FABD24" stroke-width="2" stroke-linejoin="round" stroke-linecap="round"></path></g><g class="highcharts-markers highcharts-series-2 highcharts-line-series" data-z-index="0.1" opacity="1" transform="translate(58,116) scale(1 1)" clip-path="none"></g><g class="highcharts-series highcharts-series-3 highcharts-line-series" data-z-index="0.1" opacity="1" transform="translate(58,116) scale(1 1)" clip-path="url(#highcharts-khamdim-98-)"><path fill="none" d="M 4.0882352941205 66.73319999999998 L 33.289915966389 66.73319999999998 L 62.491596638658 53.35991999999999 L 91.693277310926 81.78479999999999 L 120.89495798319 141.192 L 150.09663865546 110.74247999999999 L 179.29831932773 110.74247999999999 L 208.5 110.74247999999999 L 237.70168067227 110.74247999999999 L 266.90336134454 110.74247999999999 L 296.10504201681 110.74247999999999 L 325.30672268907 110.74247999999999 L 354.50840336134 110.74247999999999 L 383.71008403361 110.74247999999999 L 412.91176470588 129.26616" class="highcharts-graph" data-z-index="1" stroke="#b00000" stroke-width="2" stroke-linejoin="round" stroke-linecap="round"></path></g><g class="highcharts-markers highcharts-series-3 highcharts-line-series" data-z-index="0.1" opacity="1" transform="translate(58,116) scale(1 1)" clip-path="none"></g><g class="highcharts-series highcharts-series-4 highcharts-line-series" data-z-index="0.1" opacity="1" transform="translate(58,116) scale(1 1)" clip-path="url(#highcharts-khamdim-98-)"><path fill="none" d="M 4.0882352941205 91.58831999999998 L 33.289915966389 91.57943999999998 L 62.491596638658 92.93807999999999 L 91.693277310926 92.93807999999999 L 120.89495798319 92.93807999999999 L 150.09663865546 92.93807999999999 L 179.29831932773 93.09791999999999 L 208.5 93.23111999999998 L 237.70168067227 93.23111999999998 L 266.90336134454 93.23111999999998 L 296.10504201681 93.23999999999998 L 325.30672268907 93.23111999999998 L 354.50840336134 93.23111999999998 L 383.71008403361 93.23111999999998 L 412.91176470588 93.23111999999998" class="highcharts-graph" data-z-index="1" stroke="#a0bec8" stroke-width="2" stroke-linejoin="round" stroke-linecap="round"></path></g><g class="highcharts-markers highcharts-series-4 highcharts-line-series" data-z-index="0.1" opacity="1" transform="translate(58,116) scale(1 1)" clip-path="none"></g></g><text x="10" text-anchor="start" class="highcharts-title" data-z-index="4" style="color:#000000;font-size:14px;font-weight:bold;fill:#000000;" y="21"><tspan>Steuerbelastung von Aktiengesellschaften durch</tspan><tspan dy="17" x="10">Reingewinn- und Kapitalsteuern</tspan></text><text x="10" text-anchor="start" class="highcharts-subtitle" data-z-index="4" style="color:#000000;font-size:12px;font-weight:normal;fill:#000000;" y="57"><tspan>in Franken; Kapital und Reserven: 2 Mio. Fr.; Reingewinn: 80 000 Fr.</tspan></text><text x="10" text-anchor="start" class="highcharts-caption" data-z-index="4" style="color:#666666;fill:#666666;" y="385"></text><g class="highcharts-legend" data-z-index="7" transform="translate(55,73)"><rect fill="none" class="highcharts-legend-box" rx="0" ry="0" x="0" y="0" width="356" height="31" visibility="visible"></rect><g data-z-index="1"><g><g class="highcharts-legend-item highcharts-line-series highcharts-color-undefined highcharts-series-0" data-z-index="1" transform="translate(8,3)"><path fill="none" d="M 0 11 L 16 11" class="highcharts-graph" stroke="#6F6F6F" stroke-width="2"></path><text x="21" style="color:#333333;cursor:pointer;font-size:12px;font-weight:normal;fill:#333333;" text-anchor="start" data-z-index="2" y="15"><tspan>Basel</tspan></text></g><g class="highcharts-legend-item highcharts-line-series highcharts-color-undefined highcharts-series-1" data-z-index="1" transform="translate(81,3)"><path fill="none" d="M 0 11 L 16 11" class="highcharts-graph" stroke="#007a2f" stroke-width="2"></path><text x="21" y="15" style="color:#333333;cursor:pointer;font-size:12px;font-weight:normal;fill:#333333;" text-anchor="start" data-z-index="2"><tspan>Bern</tspan></text></g><g class="highcharts-legend-item highcharts-line-series highcharts-color-undefined highcharts-series-2" data-z-index="1" transform="translate(148,3)"><path fill="none" d="M 0 11 L 16 11" class="highcharts-graph" stroke="#FABD24" stroke-width="2"></path><text x="21" y="15" style="color:#333333;cursor:pointer;font-size:12px;font-weight:normal;fill:#333333;" text-anchor="start" data-z-index="2"><tspan>Genf</tspan></text></g><g class="highcharts-legend-item highcharts-line-series highcharts-color-undefined highcharts-series-3" data-z-index="1" transform="translate(215,3)"><path fill="none" d="M 0 11 L 16 11" class="highcharts-graph" stroke="#b00000" stroke-width="2"></path><text x="21" y="15" style="color:#333333;cursor:pointer;font-size:12px;font-weight:normal;fill:#333333;" text-anchor="start" data-z-index="2"><tspan>Liestal</tspan></text></g><g class="highcharts-legend-item highcharts-line-series highcharts-color-undefined highcharts-series-4" data-z-index="1" transform="translate(293,3)"><path fill="none" d="M 0 11 L 16 11" class="highcharts-graph" stroke="#a0bec8" stroke-width="2"></path><text x="21" y="15" style="color:#333333;cursor:pointer;font-size:12px;font-weight:normal;fill:#333333;" text-anchor="start" data-z-index="2"><tspan>Zürich</tspan></text></g></g></g></g><g class="highcharts-axis-labels highcharts-xaxis-labels" data-z-index="7"><text x="64.68096015847168" style="color:#000000;cursor:default;font-size:11px;fill:#000000;" text-anchor="end" transform="translate(0,0) rotate(-45 64.68096015847168 354)" y="354" opacity="1">2006</text><text x="93.88264083073967" style="color:#000000;cursor:default;font-size:11px;fill:#000000;" text-anchor="end" transform="translate(0,0) rotate(-45 93.88264083073967 354)" y="354" opacity="1">2007</text><text x="123.08432150301067" style="color:#000000;cursor:default;font-size:11px;fill:#000000;" text-anchor="end" transform="translate(0,0) rotate(-45 123.08432150301067 354)" y="354" opacity="1">2008</text><text x="152.2860021752807" style="color:#000000;cursor:default;font-size:11px;fill:#000000;" text-anchor="end" transform="translate(0,0) rotate(-45 152.2860021752807 354)" y="354" opacity="1">2009</text><text x="181.4876828475407" style="color:#000000;cursor:default;font-size:11px;fill:#000000;" text-anchor="end" transform="translate(0,0) rotate(-45 181.4876828475407 354)" y="354" opacity="1">2010</text><text x="210.68936351981068" style="color:#000000;cursor:default;font-size:11px;fill:#000000;" text-anchor="end" transform="translate(0,0) rotate(-45 210.68936351981068 354)" y="354" opacity="1">2011</text><text x="239.8910441920807" style="color:#000000;cursor:default;font-size:11px;fill:#000000;" text-anchor="end" transform="translate(0,0) rotate(-45 239.8910441920807 354)" y="354" opacity="1">2012</text><text x="269.09272486435066" style="color:#000000;cursor:default;font-size:11px;fill:#000000;" text-anchor="end" transform="translate(0,0) rotate(-45 269.09272486435066 354)" y="354" opacity="1">2013</text><text x="298.2944055366207" style="color:#000000;cursor:default;font-size:11px;fill:#000000;" text-anchor="end" transform="translate(0,0) rotate(-45 298.2944055366207 354)" y="354" opacity="1">2014</text><text x="327.49608620889063" style="color:#000000;cursor:default;font-size:11px;fill:#000000;" text-anchor="end" transform="translate(0,0) rotate(-45 327.49608620889063 354)" y="354" opacity="1">2015</text><text x="356.69776688116065" style="color:#000000;cursor:default;font-size:11px;fill:#000000;" text-anchor="end" transform="translate(0,0) rotate(-45 356.69776688116065 354)" y="354" opacity="1">2016</text><text x="385.89944755342066" style="color:#000000;cursor:default;font-size:11px;fill:#000000;" text-anchor="end" transform="translate(0,0) rotate(-45 385.89944755342066 354)" y="354" opacity="1">2017</text><text x="415.1011282256907" style="color:#000000;cursor:default;font-size:11px;fill:#000000;" text-anchor="end" transform="translate(0,0) rotate(-45 415.1011282256907 354)" y="354" opacity="1">2018</text><text x="444.30280889796063" style="color:#000000;cursor:default;font-size:11px;fill:#000000;" text-anchor="end" transform="translate(0,0) rotate(-45 444.30280889796063 354)" y="354" opacity="1">2019</text><text x="473.50448957023065" style="color:#000000;cursor:default;font-size:11px;fill:#000000;" text-anchor="end" transform="translate(0,0) rotate(-45 473.50448957023065 354)" y="354" opacity="1">2020</text></g><g class="highcharts-axis-labels highcharts-yaxis-labels" data-z-index="7"><text x="43" style="color:#000000;cursor:default;font-size:11px;fill:#000000;" text-anchor="end" transform="translate(0,0)" y="342" opacity="1">0</text><text x="43" style="color:#000000;cursor:default;font-size:11px;fill:#000000;" text-anchor="end" transform="translate(0,0)" y="298" opacity="1"><tspan>5 000</tspan></text><text x="43" style="color:#000000;cursor:default;font-size:11px;fill:#000000;" text-anchor="end" transform="translate(0,0)" y="253" opacity="1"><tspan>10 000</tspan></text><text x="43" style="color:#000000;cursor:default;font-size:11px;fill:#000000;" text-anchor="end" transform="translate(0,0)" y="209" opacity="1"><tspan>15 000</tspan></text><text x="43" style="color:#000000;cursor:default;font-size:11px;fill:#000000;" text-anchor="end" transform="translate(0,0)" y="164" opacity="1"><tspan>20 000</tspan></text><text x="43" style="color:#000000;cursor:default;font-size:11px;fill:#000000;" text-anchor="end" transform="translate(0,0)" y="120" opacity="1"><tspan>25 000</tspan></text></g><text x="10" class="highcharts-credits" text-anchor="start" data-z-index="8" style="cursor:default;color:#000000;font-size:10px;fill:#000000;" y="403"><tspan>Quelle: Eidgenössische Steuerverwaltung.</tspan><tspan x="10" dy="13">Zuletzt geändert: 2021-12-23</tspan></text><g class="highcharts-control-points" data-z-index="99" clip-path="url(#highcharts-khamdim-159-)"></g></svg>