<?xml version="1.0" standalone="no"?><!DOCTYPE svg PUBLIC "-//W3C//DTD SVG 1.1//EN" "http://www.w3.org/Graphics/SVG/1.1/DTD/svg11.dtd"><svg xmlns:xlink="http://www.w3.org/1999/xlink" version="1.1" class="highcharts-root" style="font-family:Arial;font-size:12px;" xmlns="http://www.w3.org/2000/svg" viewBox="0 0 485 415"><desc>Created with Highstock 6.1.0</desc><defs><clipPath id="highcharts-4hr9cqe-6"><rect x="0" y="0" width="423" height="233" fill="none"></rect></clipPath><clipPath id="highcharts-4hr9cqe-7"><rect x="0" y="0" width="423" height="233" fill="none"></rect></clipPath></defs><rect fill="#fbfbfb" class="highcharts-background" x="0" y="0" width="485" height="415" rx="0" ry="0"></rect><rect fill="none" class="highcharts-plot-background" x="52" y="116" width="423" height="233"></rect><g class="highcharts-pane-group"></g><g class="highcharts-grid highcharts-xaxis-grid "><path fill="none" class="highcharts-grid-line" d="M 55.5 116 L 55.5 349" opacity="1"></path><path fill="none" class="highcharts-grid-line" d="M 97.5 116 L 97.5 349" opacity="1"></path><path fill="none" class="highcharts-grid-line" d="M 138.5 116 L 138.5 349" opacity="1"></path><path fill="none" class="highcharts-grid-line" d="M 180.5 116 L 180.5 349" opacity="1"></path><path fill="none" class="highcharts-grid-line" d="M 221.5 116 L 221.5 349" opacity="1"></path><path fill="none" class="highcharts-grid-line" d="M 263.5 116 L 263.5 349" opacity="1"></path><path fill="none" class="highcharts-grid-line" d="M 304.5 116 L 304.5 349" opacity="1"></path><path fill="none" class="highcharts-grid-line" d="M 345.5 116 L 345.5 349" opacity="1"></path><path fill="none" class="highcharts-grid-line" d="M 387.5 116 L 387.5 349" opacity="1"></path><path fill="none" class="highcharts-grid-line" d="M 428.5 116 L 428.5 349" opacity="1"></path><path fill="none" class="highcharts-grid-line" d="M 470.5 116 L 470.5 349" opacity="1"></path></g><g class="highcharts-grid highcharts-yaxis-grid "><path fill="none" stroke="#B9CFD7" stroke-width="0.5" class="highcharts-grid-line" d="M 52 349.25 L 475 349.25" opacity="1"></path><path fill="none" stroke="#B9CFD7" stroke-width="0.5" class="highcharts-grid-line" d="M 52 291.25 L 475 291.25" opacity="1"></path><path fill="none" stroke="#B9CFD7" stroke-width="0.5" class="highcharts-grid-line" d="M 52 233.25 L 475 233.25" opacity="1"></path><path fill="none" stroke="#B9CFD7" stroke-width="0.5" class="highcharts-grid-line" d="M 52 174.25 L 475 174.25" opacity="1"></path><path fill="none" stroke="#B9CFD7" stroke-width="0.5" class="highcharts-grid-line" d="M 52 115.75 L 475 115.75" opacity="1"></path></g><rect fill="none" class="highcharts-plot-border" x="52" y="116" width="423" height="233"></rect><g class="highcharts-axis highcharts-xaxis "><path fill="none" class="highcharts-axis-line" stroke="#B9CFD7" stroke-width="0.5" d="M 52 349.25 L 475 349.25"></path></g><g class="highcharts-axis highcharts-yaxis "><path fill="none" class="highcharts-axis-line" d="M 52 116 L 52 349"></path></g><g class="highcharts-series-group"><g class="highcharts-series highcharts-series-0 highcharts-line-series " transform="translate(52,116) scale(1 1)" clip-path="url(#highcharts-4hr9cqe-7)"><path fill="none" d="M 4.1470588235257 62.89834999999999 L 45.617647058821 56.68889999999999 L 87.088235294115 51.62114999999997 L 128.55882352941 56.96849999999998 L 170.02941176471 28.961899999999986 L 211.5 36.18489999999997 L 252.97058823529 33.02775 L 294.44117647059 45.23694999999998 L 335.91176470588 30.39484999999999 L 377.38235294118 13.39749999999998 L 418.85294117647 14.911999999999978" class="highcharts-graph" stroke="#B00000" stroke-width="2" stroke-linejoin="round" stroke-linecap="round"></path></g><g class="highcharts-markers highcharts-series-0 highcharts-line-series " transform="translate(52,116) scale(1 1)" clip-path="none"><path fill="#B00000" d="M 8 63 A 4 4 0 1 1 7.999998000000167 62.99600000066666 Z" class="highcharts-point"></path><path fill="#B00000" d="M 49 57 A 4 4 0 1 1 48.99999800000017 56.99600000066666 Z" class="highcharts-point"></path><path fill="#B00000" d="M 91 52 A 4 4 0 1 1 90.99999800000016 51.99600000066666 Z" class="highcharts-point"></path><path fill="#B00000" d="M 132 57 A 4 4 0 1 1 131.99999800000018 56.99600000066666 Z" class="highcharts-point"></path><path fill="#B00000" d="M 174 29 A 4 4 0 1 1 173.99999800000018 28.996000000666665 Z" class="highcharts-point"></path><path fill="#B00000" d="M 215 36 A 4 4 0 1 1 214.99999800000018 35.99600000066666 Z" class="highcharts-point"></path><path fill="#B00000" d="M 256 33 A 4 4 0 1 1 255.99999800000018 32.99600000066666 Z" class="highcharts-point"></path><path fill="#B00000" d="M 298 45 A 4 4 0 1 1 297.9999980000002 44.99600000066666 Z" class="highcharts-point"></path><path fill="#B00000" d="M 339 30 A 4 4 0 1 1 338.9999980000002 29.996000000666665 Z" class="highcharts-point"></path><path fill="#B00000" d="M 381 13 A 4 4 0 1 1 380.9999980000002 12.996000000666664 Z" class="highcharts-point"></path><path fill="#B00000" d="M 422 15 A 4 4 0 1 1 421.9999980000002 14.996000000666664 Z" class="highcharts-point"></path></g><g class="highcharts-series highcharts-series-1 highcharts-line-series " transform="translate(52,116) scale(1 1)" clip-path="url(#highcharts-4hr9cqe-7)"><path fill="none" d="M 4.1470588235257 149.97044999999997 L 45.617647058821 141.9436 L 87.088235294115 124.04919999999998 L 128.55882352941 151.3801 L 170.02941176471 143.2018 L 211.5 147.5589 L 252.97058823529 158.5798 L 294.44117647059 153.95475 L 335.91176470588 151.67135 L 377.38235294118 147.40744999999998 L 418.85294117647 135.47785" class="highcharts-graph" stroke="#4f81bd" stroke-width="2" stroke-linejoin="round" stroke-linecap="round"></path></g><g class="highcharts-markers highcharts-series-1 highcharts-line-series " transform="translate(52,116) scale(1 1)" clip-path="none"><path fill="#4f81bd" d="M 8 150 A 4 4 0 1 1 7.999998000000167 149.99600000066667 Z" class="highcharts-point"></path><path fill="#4f81bd" d="M 49 142 A 4 4 0 1 1 48.99999800000017 141.99600000066667 Z" class="highcharts-point"></path><path fill="#4f81bd" d="M 91 124 A 4 4 0 1 1 90.99999800000016 123.99600000066667 Z" class="highcharts-point"></path><path fill="#4f81bd" d="M 132 151 A 4 4 0 1 1 131.99999800000018 150.99600000066667 Z" class="highcharts-point"></path><path fill="#4f81bd" d="M 174 143 A 4 4 0 1 1 173.99999800000018 142.99600000066667 Z" class="highcharts-point"></path><path fill="#4f81bd" d="M 215 148 A 4 4 0 1 1 214.99999800000018 147.99600000066667 Z" class="highcharts-point"></path><path fill="#4f81bd" d="M 256 159 A 4 4 0 1 1 255.99999800000018 158.99600000066667 Z" class="highcharts-point"></path><path fill="#4f81bd" d="M 298 154 A 4 4 0 1 1 297.9999980000002 153.99600000066667 Z" class="highcharts-point"></path><path fill="#4f81bd" d="M 339 152 A 4 4 0 1 1 338.9999980000002 151.99600000066667 Z" class="highcharts-point"></path><path fill="#4f81bd" d="M 381 147 A 4 4 0 1 1 380.9999980000002 146.99600000066667 Z" class="highcharts-point"></path><path fill="#4f81bd" d="M 422 135 A 4 4 0 1 1 421.9999980000002 134.99600000066667 Z" class="highcharts-point"></path></g></g><text x="10" text-anchor="start" class="highcharts-title" style="color:#000000;font-size:14px;font-weight:bold;fill:#000000;" y="21"><tspan>Ertrag des Kantons Basel-Stadt aus direkten Steuern</tspan></text><text x="10" text-anchor="start" class="highcharts-subtitle" style="color:#000000;font-size:12px;font-weight:normal;font-family:Arial;fill:#000000;" y="40"><tspan>in Mio. Franken</tspan></text><g class="highcharts-legend" transform="translate(44,55)"><rect fill="none" class="highcharts-legend-box" rx="0" ry="0" x="0" y="0" width="296" height="49" visibility="visible"></rect><g><g><g class="highcharts-legend-item highcharts-line-series highcharts-color-undefined highcharts-series-0" transform="translate(8,3)"><path fill="none" d="M 0 11 L 16 11" class="highcharts-graph" stroke="#B00000" stroke-width="2"></path><path fill="#B00000" d="M 12 11 A 4 4 0 1 1 11.999998000000167 10.996000000666664 Z" class="highcharts-point"></path><text x="21" style="color:#333333;font-size:12px;font-weight:normal;cursor:pointer;fill:#333333;" text-anchor="start" y="15"><tspan>Direkte Steuern natürliche Personen</tspan></text></g><g class="highcharts-legend-item highcharts-line-series highcharts-color-undefined highcharts-series-1" transform="translate(8,22)"><path fill="none" d="M 0 11 L 16 11" class="highcharts-graph" stroke="#4f81bd" stroke-width="2"></path><path fill="#4f81bd" d="M 12 11 A 4 4 0 1 1 11.999998000000167 10.996000000666664 Z" class="highcharts-point"></path><text x="21" y="15" style="color:#333333;font-size:12px;font-weight:normal;cursor:pointer;fill:#333333;" text-anchor="start"><tspan>Direkte Steuern juristische Personen</tspan></text></g></g></g></g><g class="highcharts-axis-labels highcharts-xaxis-labels "><text x="56.147058823526" style="color:#000000;cursor:default;font-size:11px;fill:#000000;" text-anchor="middle" transform="translate(0,0)" y="368" opacity="1">2006</text><text x="97.617647058821" style="color:#000000;cursor:default;font-size:11px;fill:#000000;" text-anchor="middle" transform="translate(0,0)" y="368" opacity="1">2007</text><text x="139.08823529412" style="color:#000000;cursor:default;font-size:11px;fill:#000000;" text-anchor="middle" transform="translate(0,0)" y="368" opacity="1">2008</text><text x="180.55882352941" style="color:#000000;cursor:default;font-size:11px;fill:#000000;" text-anchor="middle" transform="translate(0,0)" y="368" opacity="1">2009</text><text x="222.02941176471" style="color:#000000;cursor:default;font-size:11px;fill:#000000;" text-anchor="middle" transform="translate(0,0)" y="368" opacity="1">2010</text><text x="263.5" style="color:#000000;cursor:default;font-size:11px;fill:#000000;" text-anchor="middle" transform="translate(0,0)" y="368" opacity="1">2011</text><text x="304.97058823529" style="color:#000000;cursor:default;font-size:11px;fill:#000000;" text-anchor="middle" transform="translate(0,0)" y="368" opacity="1">2012</text><text x="346.44117647059" style="color:#000000;cursor:default;font-size:11px;fill:#000000;" text-anchor="middle" transform="translate(0,0)" y="368" opacity="1">2013</text><text x="387.91176470588" style="color:#000000;cursor:default;font-size:11px;fill:#000000;" text-anchor="middle" transform="translate(0,0)" y="368" opacity="1">2014</text><text x="429.38235294118" style="color:#000000;cursor:default;font-size:11px;fill:#000000;" text-anchor="middle" transform="translate(0,0)" y="368" opacity="1">2015</text><text x="462.78125" style="color:#000000;cursor:default;font-size:11px;fill:#000000;" text-anchor="middle" transform="translate(0,0)" y="368" opacity="1">2016</text></g><g class="highcharts-axis-labels highcharts-yaxis-labels "><text x="37" style="color:#000000;cursor:default;font-size:11px;fill:#000000;" text-anchor="end" transform="translate(0,0)" y="354" opacity="1">0</text><text x="37" style="color:#000000;cursor:default;font-size:11px;fill:#000000;" text-anchor="end" transform="translate(0,0)" y="295" opacity="1">500</text><text x="37" style="color:#000000;cursor:default;font-size:11px;fill:#000000;" text-anchor="end" transform="translate(0,0)" y="237" opacity="1"><tspan>1 000</tspan></text><text x="37" style="color:#000000;cursor:default;font-size:11px;fill:#000000;" text-anchor="end" transform="translate(0,0)" y="179" opacity="1"><tspan>1 500</tspan></text><text x="37" style="color:#000000;cursor:default;font-size:11px;fill:#000000;" text-anchor="end" transform="translate(0,0)" y="121" opacity="1"><tspan>2 000</tspan></text></g><text x="10" class="highcharts-credits" text-anchor="start" style="cursor:default;color:#000000;font-size:10px;fill:#000000;" y="400"><tspan>Quelle: Jahresbericht des Kantons Basel-Stadt</tspan></text></svg>