<?xml version="1.0" standalone="no"?><!DOCTYPE svg PUBLIC "-//W3C//DTD SVG 1.1//EN" "http://www.w3.org/Graphics/SVG/1.1/DTD/svg11.dtd"><svg xmlns:xlink="http://www.w3.org/1999/xlink" version="1.1" class="highcharts-root" style="font-family:Arial;font-size:12px;" xmlns="http://www.w3.org/2000/svg" viewBox="0 0 485 415"><desc>Created with Highstock 6.1.1</desc><defs><clipPath id="highcharts-wr7kwy7-6"><rect x="0" y="0" width="410" height="246" fill="none"></rect></clipPath><clipPath id="highcharts-wr7kwy7-7"><rect x="0" y="0" width="410" height="246" fill="none"></rect></clipPath></defs><rect fill="#fbfbfb" class="highcharts-background" x="0" y="0" width="485" height="428" rx="0" ry="0"></rect><rect fill="none" class="highcharts-plot-background" x="65" y="116" width="410" height="246"></rect><g class="highcharts-pane-group" data-z-index="0"></g><g class="highcharts-grid highcharts-xaxis-grid " data-z-index="1"><path fill="none" data-z-index="1" class="highcharts-grid-line" d="M 85.5 116 L 85.5 362" opacity="1"></path><path fill="none" data-z-index="1" class="highcharts-grid-line" d="M 135.5 116 L 135.5 362" opacity="1"></path><path fill="none" data-z-index="1" class="highcharts-grid-line" d="M 185.5 116 L 185.5 362" opacity="1"></path><path fill="none" data-z-index="1" class="highcharts-grid-line" d="M 236.5 116 L 236.5 362" opacity="1"></path><path fill="none" data-z-index="1" class="highcharts-grid-line" d="M 286.5 116 L 286.5 362" opacity="1"></path><path fill="none" data-z-index="1" class="highcharts-grid-line" d="M 336.5 116 L 336.5 362" opacity="1"></path><path fill="none" data-z-index="1" class="highcharts-grid-line" d="M 386.5 116 L 386.5 362" opacity="1"></path><path fill="none" data-z-index="1" class="highcharts-grid-line" d="M 436.5 116 L 436.5 362" opacity="1"></path></g><g class="highcharts-grid highcharts-yaxis-grid " data-z-index="1"><path fill="none" stroke="#B9CFD7" stroke-width="0.5" data-z-index="1" class="highcharts-grid-line" d="M 65 362.25 L 475 362.25" opacity="1"></path><path fill="none" stroke="#B9CFD7" stroke-width="0.5" data-z-index="1" class="highcharts-grid-line" d="M 65 301.25 L 475 301.25" opacity="1"></path><path fill="none" stroke="#B9CFD7" stroke-width="0.5" data-z-index="1" class="highcharts-grid-line" d="M 65 239.25 L 475 239.25" opacity="1"></path><path fill="none" stroke="#B9CFD7" stroke-width="0.5" data-z-index="1" class="highcharts-grid-line" d="M 65 178.25 L 475 178.25" opacity="1"></path><path fill="none" stroke="#B9CFD7" stroke-width="0.5" data-z-index="1" class="highcharts-grid-line" d="M 65 115.75 L 475 115.75" opacity="1"></path></g><rect fill="none" class="highcharts-plot-border" data-z-index="1" x="65" y="116" width="410" height="246"></rect><g class="highcharts-axis highcharts-xaxis " data-z-index="2"><path fill="none" class="highcharts-axis-line" stroke="#B9CFD7" stroke-width="0.5" data-z-index="7" d="M 65 362.25 L 475 362.25"></path></g><g class="highcharts-axis highcharts-yaxis " data-z-index="2"><path fill="none" class="highcharts-axis-line" data-z-index="7" d="M 65 116 L 65 362"></path></g><g class="highcharts-series-group" data-z-index="3"><g data-z-index="0.1" class="highcharts-series highcharts-series-0 highcharts-line-series " transform="translate(65,116) scale(1 1)" clip-path="url(#highcharts-wr7kwy7-7)"><path fill="none" d="M 4.0196078431374 176.3223532656 L 20.767973856209 172.6635534702 L 37.516339869281 171.5932914546 L 54.264705882353 172.1448886692 L 71.013071895425 171.9283606008 L 87.761437908497 173.23921126829998 L 104.50980392157 174.0236116899 L 121.25816993464 172.8000587841 L 138.00653594771 172.4964643539 L 154.75490196078 172.1343495864 L 171.50326797386 169.4453480757 L 188.25163398693 168.93262737269998 L 205 169.4031007122 L 221.74836601307 170.26161671490001 L 238.49673202614 169.4026393515 L 255.24509803922 168.52955260890002 L 271.99346405229 165.658672671 L 288.74183006536 166.1609632446 L 305.49019607843 165.91806563670002 L 322.2385620915 165.1258596843 L 338.98692810458 166.27395435329998 L 355.73529411765 165.8174027073 L 372.48366013072 163.6595305716 L 389.23202614379 161.6976639666 L 405.98039215686 162.0552598494" class="highcharts-graph" data-z-index="1" stroke="#b00000 " stroke-width="2" stroke-linejoin="round" stroke-linecap="round"></path></g><g data-z-index="0.1" class="highcharts-markers highcharts-series-0 highcharts-line-series " transform="translate(65,116) scale(1 1)" clip-path="none"></g><g data-z-index="0.1" class="highcharts-series highcharts-series-1 highcharts-line-series " transform="translate(65,116) scale(1 1)" clip-path="url(#highcharts-wr7kwy7-7)"><path fill="none" d="M 4.0196078431374 189.789 L 20.767973856209 186.46800000000002 L 37.516339869281 185.73000000000002 L 54.264705882353 185.853 L 71.013071895425 185.976 L 87.761437908497 187.329 L 104.50980392157 187.821 L 121.25816993464 187.94400000000002 L 138.00653594771 187.94400000000002 L 154.75490196078 187.821 L 171.50326797386 185.73000000000002 L 188.25163398693 185.115 L 205 185.3979 L 221.74836601307 185.87268 L 238.49673202614 186.30072 L 255.24509803922 186.26751000000002 L 271.99346405229 185.0781 L 288.74183006536 187.64634 L 305.49019607843 186.9846 L 322.2385620915 186.87144 L 338.98692810458 186.52949999999998 L 355.73529411765 186.45693 L 372.48366013072 185.95632 L 389.23202614379 185.67588 L 405.98039215686 185.55534" class="highcharts-graph" data-z-index="1" stroke="#672773" stroke-width="2" stroke-linejoin="round" stroke-linecap="round"></path></g><g data-z-index="0.1" class="highcharts-markers highcharts-series-1 highcharts-line-series " transform="translate(65,116) scale(1 1)" clip-path="none"></g><g data-z-index="0.1" class="highcharts-series highcharts-series-2 highcharts-line-series " transform="translate(65,116) scale(1 1)" clip-path="url(#highcharts-wr7kwy7-7)"><path fill="none" d="M 4.0196078431374 82.14574028100003 L 20.767973856209 74.692215801 L 37.516339869281 72.127811433 L 54.264705882353 74.28079334699999 L 71.013071895425 72.73637718 L 87.761437908497 72.68615099099998 L 104.50980392157 74.14830143699999 L 121.25816993464 67.47242477700001 L 138.00653594771 65.88920210999999 L 154.75490196078 63.244433109 L 171.50326797386 57.652602312 L 188.25163398693 59.10747755400001 L 205 59.27012340600001 L 221.74836601307 60.890720852999976 L 238.49673202614 54.771615500999985 L 255.24509803922 50.611680594000006 L 271.99346405229 40.82149842300001 L 288.74183006536 34.86233944200001 L 305.49019607843 35.280508569000006 L 322.2385620915 32.03717876400003 L 338.98692810458 38.56816105499999 L 355.73529411765 36.534341541 L 372.48366013072 27.413958330000014 L 389.23202614379 18.989315763000008 L 405.98039215686 20.682987878999995" class="highcharts-graph" data-z-index="1" stroke="#007a2f" stroke-width="2" stroke-linejoin="round" stroke-linecap="round"></path></g><g data-z-index="0.1" class="highcharts-markers highcharts-series-2 highcharts-line-series " transform="translate(65,116) scale(1 1)" clip-path="none"></g><g data-z-index="0.1" class="highcharts-series highcharts-series-3 highcharts-line-series " transform="translate(65,116) scale(1 1)" clip-path="url(#highcharts-wr7kwy7-7)"><path fill="none" d="M 4.0196078431374 233.2531012341 L 20.767973856209 232.3811470509 L 37.516339869281 231.9834136605 L 54.264705882353 232.2434639382 L 71.013071895425 232.2575819151 L 87.761437908497 234.21163829193 L 104.50980392157 234.72643703811 L 121.25816993464 235.09877127537 L 138.00653594771 235.37904577395 L 154.75490196078 236.15418694866 L 171.50326797386 235.30397747421 L 188.25163398693 233.81728012977 L 205 234.98238646997999 L 221.74836601307 236.01654324762 L 238.49673202614 236.81758185831 L 255.24509803922 236.71891638003 L 271.99346405229 236.21504804115 L 288.74183006536 237.25404366339 L 305.49019607843 237.42075060516 L 322.2385620915 237.55215390981 L 338.98692810458 237.51179873157 L 355.73529411765 237.63685832229 L 372.48366013072 237.67960752948 L 389.23202614379 237.74778726219 L 405.98039215686 237.96023268015" class="highcharts-graph" data-z-index="1" stroke="#008AC3" stroke-width="2" stroke-linejoin="round" stroke-linecap="round"></path></g><g data-z-index="0.1" class="highcharts-markers highcharts-series-3 highcharts-line-series " transform="translate(65,116) scale(1 1)" clip-path="none"></g></g><text x="10" text-anchor="start" class="highcharts-title" data-z-index="4" style="color:#000000;font-size:14px;font-weight:bold;fill:#000000;" y="21"><tspan>Mittelwert und Median des Reineinkommens</tspan></text><text x="10" text-anchor="start" class="highcharts-subtitle" data-z-index="4" style="color:#000000;font-size:12px;font-weight:normal;font-family:Arial;fill:#000000;" y="40"><tspan>in Franken, Basel-Stadt</tspan></text><g class="highcharts-legend" data-z-index="7" transform="translate(57,55)"><rect fill="none" class="highcharts-legend-box" rx="0" ry="0" x="0" y="0" width="396" height="49" visibility="visible"></rect><g data-z-index="1"><g><g class="highcharts-legend-item highcharts-line-series highcharts-color-undefined highcharts-series-0" data-z-index="1" transform="translate(8,3)"><path fill="none" d="M 0 11 L 16 11" class="highcharts-graph" stroke="#b00000 " stroke-width="2"></path><text x="21" style="color:#333333;font-size:12px;font-weight:normal;cursor:pointer;fill:#333333;" text-anchor="start" data-z-index="2" y="15"><tspan>Mittelwert</tspan></text></g><g class="highcharts-legend-item highcharts-line-series highcharts-color-undefined highcharts-series-1" data-z-index="1" transform="translate(208,3)"><path fill="none" d="M 0 11 L 16 11" class="highcharts-graph" stroke="#672773" stroke-width="2"></path><text x="21" y="15" style="color:#333333;font-size:12px;font-weight:normal;cursor:pointer;fill:#333333;" text-anchor="start" data-z-index="2"><tspan>Median</tspan></text></g><g class="highcharts-legend-item highcharts-line-series highcharts-color-undefined highcharts-series-2" data-z-index="1" transform="translate(8,22)"><path fill="none" d="M 0 11 L 16 11" class="highcharts-graph" stroke="#007a2f" stroke-width="2"></path><text x="21" y="15" style="color:#333333;font-size:12px;font-weight:normal;cursor:pointer;fill:#333333;" text-anchor="start" data-z-index="2"><tspan>Mittelwert oberstes Quintil</tspan></text></g><g class="highcharts-legend-item highcharts-line-series highcharts-color-undefined highcharts-series-3" data-z-index="1" transform="translate(208,22)"><path fill="none" d="M 0 11 L 16 11" class="highcharts-graph" stroke="#008AC3" stroke-width="2"></path><text x="21" y="15" style="color:#333333;font-size:12px;font-weight:normal;cursor:pointer;fill:#333333;" text-anchor="start" data-z-index="2"><tspan>Mittelwert unterstes Quintil</tspan></text></g></g></g></g><g class="highcharts-axis-labels highcharts-xaxis-labels " data-z-index="7"><text x="85.767973856209" style="color:#000000;cursor:default;font-size:11px;fill:#000000;" text-anchor="middle" transform="translate(0,0)" y="381" opacity="1">1992</text><text x="136.01307189542" style="color:#000000;cursor:default;font-size:11px;fill:#000000;" text-anchor="middle" transform="translate(0,0)" y="381" opacity="1">1995</text><text x="186.25816993464" style="color:#000000;cursor:default;font-size:11px;fill:#000000;" text-anchor="middle" transform="translate(0,0)" y="381" opacity="1">1998</text><text x="236.50326797386" style="color:#000000;cursor:default;font-size:11px;fill:#000000;" text-anchor="middle" transform="translate(0,0)" y="381" opacity="1">2001</text><text x="286.74836601307" style="color:#000000;cursor:default;font-size:11px;fill:#000000;" text-anchor="middle" transform="translate(0,0)" y="381" opacity="1">2004</text><text x="336.99346405229" style="color:#000000;cursor:default;font-size:11px;fill:#000000;" text-anchor="middle" transform="translate(0,0)" y="381" opacity="1">2007</text><text x="387.2385620915" style="color:#000000;cursor:default;font-size:11px;fill:#000000;" text-anchor="middle" transform="translate(0,0)" y="381" opacity="1">2010</text><text x="437.48366013072" style="color:#000000;cursor:default;font-size:11px;fill:#000000;" text-anchor="middle" transform="translate(0,0)" y="381" opacity="1">2013</text></g><g class="highcharts-axis-labels highcharts-yaxis-labels " data-z-index="7"><text x="50" style="color:#000000;cursor:default;font-size:11px;fill:#000000;" text-anchor="end" transform="translate(0,0)" y="367" opacity="1">0</text><text x="50" style="color:#000000;cursor:default;font-size:11px;fill:#000000;" text-anchor="end" transform="translate(0,0)" y="305" opacity="1"><tspan>50 000</tspan></text><text x="50" style="color:#000000;cursor:default;font-size:11px;fill:#000000;" text-anchor="end" transform="translate(0,0)" y="244" opacity="1"><tspan>100 000</tspan></text><text x="50" style="color:#000000;cursor:default;font-size:11px;fill:#000000;" text-anchor="end" transform="translate(0,0)" y="182" opacity="1"><tspan>150 000</tspan></text><text x="50" style="color:#000000;cursor:default;font-size:11px;fill:#000000;" text-anchor="end" transform="translate(0,0)" y="121" opacity="1"><tspan>200 000</tspan></text></g><text x="10" class="highcharts-credits" text-anchor="start" data-z-index="8" style="cursor:default;color:#000000;font-size:10px;fill:#000000;" y="423"><tspan>Quelle: Steuerstatistik Basel-Stadt.</tspan><tspan x="10" dy="13">Zuletzt geändert: 2018-10-24</tspan></text></svg>