<?xml version="1.0" standalone="no"?>
<!DOCTYPE svg PUBLIC "-//W3C//DTD SVG 1.1//EN" "http://www.w3.org/Graphics/SVG/1.1/DTD/svg11.dtd">
<svg xmlns:xlink="http://www.w3.org/1999/xlink" version="1.1" class="highcharts-root" style="font-family:arial;font-size:12px;" xmlns="http://www.w3.org/2000/svg" viewBox="0 0 485 415">
  <desc>
    Created with Highstock 5.0.14
  </desc>
  <defs>
    <clipPath>
      <rect x="0" y="0" width="428" height="238" fill="none"/>
    </clipPath>
    <clipPath id="a">
      <rect x="0" y="0" width="428" height="238" fill="none"/>
    </clipPath>
  </defs>
  <rect fill="#fbfbfb" class="highcharts-background" x="0" y="0" width="485" height="415" rx="0" ry="0"/>
  <rect fill="none" class="highcharts-plot-background" x="47" y="111" width="428" height="238"/>
  <g class="highcharts-pane-group"/>
  <g class="highcharts-grid highcharts-xaxis-grid ">
    <path fill="none" class="highcharts-grid-line" d="M 50.5 111 L 50.5 349" opacity="1"/>
    <path fill="none" class="highcharts-grid-line" d="M 120.5 111 L 120.5 349" opacity="1"/>
    <path fill="none" class="highcharts-grid-line" d="M 190.5 111 L 190.5 349" opacity="1"/>
    <path fill="none" class="highcharts-grid-line" d="M 260.5 111 L 260.5 349" opacity="1"/>
    <path fill="none" class="highcharts-grid-line" d="M 330.5 111 L 330.5 349" opacity="1"/>
    <path fill="none" class="highcharts-grid-line" d="M 400.5 111 L 400.5 349" opacity="1"/>
    <path fill="none" class="highcharts-grid-line" d="M 470.5 111 L 470.5 349" opacity="1"/>
  </g>
  <g class="highcharts-grid highcharts-yaxis-grid ">
    <path fill="none" stroke="#B9CFD7" stroke-width="0.5" class="highcharts-grid-line" d="M 47 349.25 L 475 349.25" opacity="1"/>
    <path fill="none" stroke="#B9CFD7" stroke-width="0.5" class="highcharts-grid-line" d="M 47 290.25 L 475 290.25" opacity="1"/>
    <path fill="none" stroke="#B9CFD7" stroke-width="0.5" class="highcharts-grid-line" d="M 47 230.25 L 475 230.25" opacity="1"/>
    <path fill="none" stroke="#B9CFD7" stroke-width="0.5" class="highcharts-grid-line" d="M 47 171.25 L 475 171.25" opacity="1"/>
    <path fill="none" stroke="#B9CFD7" stroke-width="0.5" class="highcharts-grid-line" d="M 47 110.75 L 475 110.75" opacity="1"/>
  </g>
  <rect fill="none" class="highcharts-plot-border" x="47" y="111" width="428" height="238"/>
  <g class="highcharts-axis highcharts-xaxis ">
    <path fill="none" class="highcharts-axis-line" stroke="#B9CFD7" stroke-width="0.5" d="M 47 349.25 L 475 349.25"/>
  </g>
  <g class="highcharts-axis highcharts-yaxis ">
    <path fill="none" class="highcharts-axis-line" d="M 47 111 L 47 349"/>
  </g>
  <g class="highcharts-series-group">
    <g class="highcharts-series highcharts-series-0 highcharts-line-series highcharts-color-undefined " transform="translate(47,111) scale(1 1)" clip-path="url(#a)">
      <path fill="none" d="M 4.1960784313688 223.72 L 74.130718954246 220.15 L 144.06535947712 217.77 L 214 215.39 L 283.93464052288 214.2 L 353.86928104575 211.82 L 423.80392156863 210.63" class="highcharts-graph" stroke="#008AC3" stroke-width="2" stroke-linejoin="round" stroke-linecap="round"/>
    </g>
    <g class="highcharts-markers highcharts-series-0 highcharts-line-series highcharts-color-undefined " transform="translate(47,111) scale(1 1)" clip-path="none">
      <path fill="#008AC3" d="M 8 224 A 4 4 0 1 1 7.999998000000167 223.99600000066667 Z" class="highcharts-point"/>
      <path fill="#008AC3" d="M 78 220 A 4 4 0 1 1 77.99999800000016 219.99600000066667 Z" class="highcharts-point"/>
      <path fill="#008AC3" d="M 148 218 A 4 4 0 1 1 147.99999800000018 217.99600000066667 Z" class="highcharts-point"/>
      <path fill="#008AC3" d="M 218 215 A 4 4 0 1 1 217.99999800000018 214.99600000066667 Z" class="highcharts-point"/>
      <path fill="#008AC3" d="M 287 214 A 4 4 0 1 1 286.9999980000002 213.99600000066667 Z" class="highcharts-point"/>
      <path fill="#008AC3" d="M 357 212 A 4 4 0 1 1 356.9999980000002 211.99600000066667 Z" class="highcharts-point"/>
      <path fill="#008AC3" d="M 427 211 A 4 4 0 1 1 426.9999980000002 210.99600000066667 Z" class="highcharts-point"/>
    </g>
    <g class="highcharts-series highcharts-series-1 highcharts-line-series highcharts-color-undefined " transform="translate(47,111) scale(1 1)" clip-path="url(#a)">
      <path fill="none" d="M 4.1960784313688 70.21000000000001 L 74.130718954246 69.02000000000001 L 144.06535947712 69.02000000000001 L 214 69.02000000000001 L 283.93464052288 71.4 L 353.86928104575 65.44999999999999 L 423.80392156863 63.06999999999999" class="highcharts-graph" stroke="#007A2F" stroke-width="2" stroke-linejoin="round" stroke-linecap="round"/>
    </g>
    <g class="highcharts-markers highcharts-series-1 highcharts-line-series highcharts-color-undefined " transform="translate(47,111) scale(1 1)" clip-path="none">
      <path fill="#007A2F" d="M 8 70 A 4 4 0 1 1 7.999998000000167 69.99600000066667 Z" class="highcharts-point"/>
      <path fill="#007A2F" d="M 78 69 A 4 4 0 1 1 77.99999800000016 68.99600000066667 Z" class="highcharts-point"/>
      <path fill="#007A2F" d="M 148 69 A 4 4 0 1 1 147.99999800000018 68.99600000066667 Z" class="highcharts-point"/>
      <path fill="#007A2F" d="M 218 69 A 4 4 0 1 1 217.99999800000018 68.99600000066667 Z" class="highcharts-point"/>
      <path fill="#007A2F" d="M 287 71 A 4 4 0 1 1 286.9999980000002 70.99600000066667 Z" class="highcharts-point"/>
      <path fill="#007A2F" d="M 357 65 A 4 4 0 1 1 356.9999980000002 64.99600000066667 Z" class="highcharts-point"/>
      <path fill="#007A2F" d="M 427 63 A 4 4 0 1 1 426.9999980000002 62.99600000066666 Z" class="highcharts-point"/>
    </g>
  </g>
  <text x="10" text-anchor="start" class="highcharts-title" style="color:#000000;font-size:14px;font-weight:bold;fill:#000000;" y="21">
    <tspan>Anteil Haushalte mit FAMI resp. reiner Prämienverbilligung</tspan>
  </text>
  <g class="highcharts-legend" transform="translate(39,45)">
    <rect fill="none" class="highcharts-legend-box" rx="0" ry="0" x="0" y="0" width="496" height="54" visibility="visible"/>
    <g>
      <g>
        <g class="highcharts-legend-item highcharts-line-series highcharts-color-undefined highcharts-series-0" transform="translate(8,8)">
          <path fill="none" d="M 0 11 L 16 11" class="highcharts-graph" stroke="#008AC3" stroke-width="2"/>
          <path fill="#008AC3" d="M 12 11 A 4 4 0 1 1 11.999998000000167 10.996000000666664 Z" class="highcharts-point"/>
          <text x="21" style="color:#333333;font-size:12px;font-weight:normal;cursor:pointer;fill:#333333;" text-anchor="start" y="15">
            <tspan>Familienmietzinsbeiträge</tspan>
          </text>
        </g>
        <g class="highcharts-legend-item highcharts-line-series highcharts-color-undefined highcharts-series-1" transform="translate(8,27)">
          <path fill="none" d="M 0 11 L 16 11" class="highcharts-graph" stroke="#007A2F" stroke-width="2"/>
          <path fill="#007A2F" d="M 12 11 A 4 4 0 1 1 11.999998000000167 10.996000000666664 Z" class="highcharts-point"/>
          <text x="21" y="15" style="color:#333333;font-size:12px;font-weight:normal;cursor:pointer;fill:#333333;" text-anchor="start">
            <tspan>Prämienverbilligung</tspan>
          </text>
        </g>
      </g>
    </g>
  </g>
  <g class="highcharts-axis-labels highcharts-xaxis-labels ">
    <text x="51.196078431368804" style="color:#000000;cursor:default;font-size:11px;fill:#000000;" text-anchor="middle" transform="translate(0,0)" y="368" opacity="1">
      2011
    </text>
    <text x="121.13071895424586" style="color:#000000;cursor:default;font-size:11px;fill:#000000;" text-anchor="middle" transform="translate(0,0)" y="368" opacity="1">
      2012
    </text>
    <text x="191.06535947712294" style="color:#000000;cursor:default;font-size:11px;fill:#000000;" text-anchor="middle" transform="translate(0,0)" y="368" opacity="1">
      2013
    </text>
    <text x="261" style="color:#000000;cursor:default;font-size:11px;fill:#000000;" text-anchor="middle" transform="translate(0,0)" y="368" opacity="1">
      2014
    </text>
    <text x="330.93464052287703" style="color:#000000;cursor:default;font-size:11px;fill:#000000;" text-anchor="middle" transform="translate(0,0)" y="368" opacity="1">
      2015
    </text>
    <text x="400.8692810457541" style="color:#000000;cursor:default;font-size:11px;fill:#000000;" text-anchor="middle" transform="translate(0,0)" y="368" opacity="1">
      2016
    </text>
    <text x="462.78125" style="color:#000000;cursor:default;font-size:11px;fill:#000000;" text-anchor="middle" transform="translate(0,0)" y="368" opacity="1">
      2017
    </text>
  </g>
  <g class="highcharts-axis-labels highcharts-yaxis-labels ">
    <text x="32" style="color:#000000;cursor:default;font-size:11px;fill:#000000;" text-anchor="end" transform="translate(0,0)" y="354" opacity="1">
      <tspan>0%</tspan>
    </text>
    <text x="32" style="color:#000000;cursor:default;font-size:11px;fill:#000000;" text-anchor="end" transform="translate(0,0)" y="294" opacity="1">
      <tspan>5%</tspan>
    </text>
    <text x="32" style="color:#000000;cursor:default;font-size:11px;fill:#000000;" text-anchor="end" transform="translate(0,0)" y="235" opacity="1">
      <tspan>10%</tspan>
    </text>
    <text x="32" style="color:#000000;cursor:default;font-size:11px;fill:#000000;" text-anchor="end" transform="translate(0,0)" y="175" opacity="1">
      <tspan>15%</tspan>
    </text>
    <text x="32" style="color:#000000;cursor:default;font-size:11px;fill:#000000;" text-anchor="end" transform="translate(0,0)" y="116" opacity="1">
      <tspan>20%</tspan>
    </text>
  </g>
  <text x="10" class="highcharts-credits" text-anchor="start" style="cursor:default;color:#000000;font-size:10px;fill:#000000;" y="390">
    <tspan>Quelle: Statistisches Amt Basel-Stadt, Bevölkerungsstatistik;</tspan><tspan x="10" dy="13">Basler Informationssystem Sozialleistungen (BISS)</tspan>
  </text>
</svg>
