<?xml version="1.0" standalone="no"?><!DOCTYPE svg PUBLIC "-//W3C//DTD SVG 1.1//EN" "http://www.w3.org/Graphics/SVG/1.1/DTD/svg11.dtd"><svg xmlns:xlink="http://www.w3.org/1999/xlink" version="1.1" class="highcharts-root" style="font-family:Arial;font-size:12px;" xmlns="http://www.w3.org/2000/svg" viewBox="0 0 485 415"><desc>Created with Highstock 6.1.1</desc><defs><clipPath id="highcharts-duih90k-6"><rect x="0" y="0" width="423" height="228" fill="none"></rect></clipPath><clipPath id="highcharts-duih90k-7"><rect x="0" y="0" width="423" height="228" fill="none"></rect></clipPath></defs><rect fill="#fbfbfb" class="highcharts-background" x="0" y="0" width="485" height="428" rx="0" ry="0"></rect><rect fill="none" class="highcharts-plot-background" x="52" y="123" width="423" height="228"></rect><g class="highcharts-pane-group" data-z-index="0"></g><g class="highcharts-grid highcharts-xaxis-grid " data-z-index="1"><path fill="none" data-z-index="1" class="highcharts-grid-line" d="M 55.5 123 L 55.5 351" opacity="1"></path><path fill="none" data-z-index="1" class="highcharts-grid-line" d="M 124.5 123 L 124.5 351" opacity="1"></path><path fill="none" data-z-index="1" class="highcharts-grid-line" d="M 193.5 123 L 193.5 351" opacity="1"></path><path fill="none" data-z-index="1" class="highcharts-grid-line" d="M 263.5 123 L 263.5 351" opacity="1"></path><path fill="none" data-z-index="1" class="highcharts-grid-line" d="M 332.5 123 L 332.5 351" opacity="1"></path><path fill="none" data-z-index="1" class="highcharts-grid-line" d="M 401.5 123 L 401.5 351" opacity="1"></path><path fill="none" data-z-index="1" class="highcharts-grid-line" d="M 470.5 123 L 470.5 351" opacity="1"></path></g><g class="highcharts-grid highcharts-yaxis-grid " data-z-index="1"><path fill="none" stroke="#B9CFD7" stroke-width="0.5" data-z-index="1" class="highcharts-grid-line" d="M 52 351.25 L 475 351.25" opacity="1"></path><path fill="none" stroke="#B9CFD7" stroke-width="0.5" data-z-index="1" class="highcharts-grid-line" d="M 52 305.25 L 475 305.25" opacity="1"></path><path fill="none" stroke="#B9CFD7" stroke-width="0.5" data-z-index="1" class="highcharts-grid-line" d="M 52 260.25 L 475 260.25" opacity="1"></path><path fill="none" stroke="#B9CFD7" stroke-width="0.5" data-z-index="1" class="highcharts-grid-line" d="M 52 214.25 L 475 214.25" opacity="1"></path><path fill="none" stroke="#B9CFD7" stroke-width="0.5" data-z-index="1" class="highcharts-grid-line" d="M 52 169.25 L 475 169.25" opacity="1"></path><path fill="none" stroke="#B9CFD7" stroke-width="0.5" data-z-index="1" class="highcharts-grid-line" d="M 52 122.75 L 475 122.75" opacity="1"></path></g><rect fill="none" class="highcharts-plot-border" data-z-index="1" x="52" y="123" width="423" height="228"></rect><g class="highcharts-axis highcharts-xaxis " data-z-index="2"><path fill="none" class="highcharts-axis-line" stroke="#B9CFD7" stroke-width="0.5" data-z-index="7" d="M 52 351.25 L 475 351.25"></path></g><g class="highcharts-axis highcharts-yaxis " data-z-index="2"><path fill="none" class="highcharts-axis-line" data-z-index="7" d="M 52 123 L 52 351"></path></g><g class="highcharts-series-group" data-z-index="3"><g data-z-index="0.1" class="highcharts-series highcharts-series-0 highcharts-line-series " transform="translate(52,123) scale(1 1)" clip-path="url(#highcharts-duih90k-7)"><path fill="none" d="M 4.1470588235257 178.752 L 38.705882352938 175.8792 L 73.26470588235 171.41039999999998 L 107.82352941176 171.1368 L 142.38235294118 168.99360000000001 L 176.94117647059 165.1632 L 211.5 163.7496 L 246.05882352941 163.7496 L 280.61764705882 157.09199999999998 L 315.17647058824 155.6784 L 349.73529411765 152.4864 L 384.29411764706 151.34640000000002 L 418.85294117647 148.7472" class="highcharts-graph" data-z-index="1" stroke="#B00000" stroke-width="2" stroke-linejoin="round" stroke-linecap="round"></path></g><g data-z-index="0.1" class="highcharts-markers highcharts-series-0 highcharts-line-series " transform="translate(52,123) scale(1 1)" clip-path="none"></g><g data-z-index="0.1" class="highcharts-series highcharts-series-1 highcharts-line-series " transform="translate(52,123) scale(1 1)" clip-path="url(#highcharts-duih90k-7)"><path fill="none" d="M 4.1470588235257 203.2848 L 38.705882352938 200.5488 L 73.26470588235 197.8128 L 107.82352941176 195.0768 L 142.38235294118 175.6968 L 176.94117647059 166.9416 L 211.5 162.19920000000002 L 246.05882352941 158.32319999999999 L 280.61764705882 150.252 L 315.17647058824 144.9168 L 349.73529411765 139.1256 L 384.29411764706 141.67919999999998 L 418.85294117647 143.64" class="highcharts-graph" data-z-index="1" stroke="#4f81bd" stroke-width="2" stroke-linejoin="round" stroke-linecap="round"></path></g><g data-z-index="0.1" class="highcharts-markers highcharts-series-1 highcharts-line-series " transform="translate(52,123) scale(1 1)" clip-path="none"></g><g data-z-index="0.1" class="highcharts-series highcharts-series-2 highcharts-line-series " transform="translate(52,123) scale(1 1)" clip-path="url(#highcharts-duih90k-7)"><path fill="none" d="M 4.1470588235257 215.232 L 38.705882352938 215.6424 L 73.26470588235 216.0528 L 107.82352941176 216.4632 L 142.38235294118 210.0336 L 176.94117647059 210.07920000000001 L 211.5 204.47039999999998 L 246.05882352941 204.1056 L 280.61764705882 205.1544 L 315.17647058824 205.5648 L 349.73529411765 206.7504 L 384.29411764706 207.2064 L 418.85294117647 209.1216" class="highcharts-graph" data-z-index="1" stroke="#662673" stroke-width="2" stroke-linejoin="round" stroke-linecap="round"></path></g><g data-z-index="0.1" class="highcharts-markers highcharts-series-2 highcharts-line-series " transform="translate(52,123) scale(1 1)" clip-path="none"></g><g data-z-index="0.1" class="highcharts-series highcharts-series-3 highcharts-line-series " transform="translate(52,123) scale(1 1)" clip-path="url(#highcharts-duih90k-7)"><path fill="none" d="M 4.1470588235257 223.668 L 38.705882352938 224.124 L 73.26470588235 224.6256 L 107.82352941176 223.71359999999999 L 142.38235294118 223.7592 L 176.94117647059 223.3488 L 211.5 223.9416 L 246.05882352941 223.4856 L 280.61764705882 223.5312 L 315.17647058824 224.0328 L 349.73529411765 223.896 L 384.29411764706 224.124 L 418.85294117647 224.124" class="highcharts-graph" data-z-index="1" stroke="#FABD24" stroke-width="2" stroke-linejoin="round" stroke-linecap="round"></path></g><g data-z-index="0.1" class="highcharts-markers highcharts-series-3 highcharts-line-series " transform="translate(52,123) scale(1 1)" clip-path="none"></g><g data-z-index="0.1" class="highcharts-series highcharts-series-4 highcharts-line-series " transform="translate(52,123) scale(1 1)" clip-path="url(#highcharts-duih90k-7)"><path fill="none" d="M 4.1470588235257 136.9368 L 38.705882352938 132.1944 L 73.26470588235 125.9016 L 107.82352941176 122.3904 L 142.38235294118 94.48319999999998 L 176.94117647059 81.53280000000001 L 211.5 70.36079999999998 L 246.05882352941 65.66399999999999 L 280.61764705882 52.02959999999999 L 315.17647058824 46.192800000000005 L 349.73529411765 38.258399999999995 L 384.29411764706 40.355999999999995 L 418.85294117647 41.6328" class="highcharts-graph" data-z-index="1" stroke="#3C3C3C" stroke-width="2" stroke-linejoin="round" stroke-linecap="round"></path></g><g data-z-index="0.1" class="highcharts-markers highcharts-series-4 highcharts-line-series " transform="translate(52,123) scale(1 1)" clip-path="none"></g></g><text x="10" text-anchor="start" class="highcharts-title" data-z-index="4" style="color:#000000;font-size:14px;font-weight:bold;fill:#000000;" y="21"><tspan>Anzahl Plätze in Tagesbetreuungsangeboten</tspan></text><text x="10" text-anchor="start" class="highcharts-subtitle" data-z-index="4" style="color:#000000;font-size:12px;font-weight:normal;font-family:Arial;fill:#000000;" y="40"><tspan>Basel-Stadt</tspan></text><g class="highcharts-legend" data-z-index="7" transform="translate(52,56)"><rect fill="none" class="highcharts-legend-box" rx="0" ry="0" x="0" y="0" width="600" height="55" visibility="visible"></rect><g data-z-index="1"><g><g class="highcharts-legend-item highcharts-line-series highcharts-color-undefined highcharts-series-0" data-z-index="1" transform="translate(0,-5)"><path fill="none" d="M 0 11 L 16 11" class="highcharts-graph" stroke="#B00000" stroke-width="2"></path><text x="21" style="color:#333333;font-size:12px;font-weight:normal;cursor:pointer;fill:#333333;" text-anchor="start" data-z-index="2" y="15"><tspan>Subventionierte Tagesheime</tspan></text></g><g class="highcharts-legend-item highcharts-line-series highcharts-color-undefined highcharts-series-1" data-z-index="1" transform="translate(216,-5)"><path fill="none" d="M 0 11 L 16 11" class="highcharts-graph" stroke="#4f81bd" stroke-width="2"></path><text x="21" y="15" style="color:#333333;font-size:12px;font-weight:normal;cursor:pointer;fill:#333333;" text-anchor="start" data-z-index="2"><tspan>Nicht subventionierte Tagesheime</tspan></text></g><g class="highcharts-legend-item highcharts-line-series highcharts-color-undefined highcharts-series-2" data-z-index="1" transform="translate(0,15)"><path fill="none" d="M 0 11 L 16 11" class="highcharts-graph" stroke="#662673" stroke-width="2"></path><text x="21" y="15" style="color:#333333;font-size:12px;font-weight:normal;cursor:pointer;fill:#333333;" text-anchor="start" data-z-index="2"><tspan>Firmen-Tagesheime</tspan></text></g><g class="highcharts-legend-item highcharts-line-series highcharts-color-undefined highcharts-series-3" data-z-index="1" transform="translate(216,15)"><path fill="none" d="M 0 11 L 16 11" class="highcharts-graph" stroke="#FABD24" stroke-width="2"></path><text x="21" y="15" style="color:#333333;font-size:12px;font-weight:normal;cursor:pointer;fill:#333333;" text-anchor="start" data-z-index="2"><tspan>Tagesfamilien</tspan></text></g><g class="highcharts-legend-item highcharts-line-series highcharts-color-undefined highcharts-series-4" data-z-index="1" transform="translate(0,35)"><path fill="none" d="M 0 11 L 16 11" class="highcharts-graph" stroke="#3C3C3C" stroke-width="2"></path><text x="21" y="15" style="color:#333333;font-size:12px;font-weight:normal;cursor:pointer;fill:#333333;" text-anchor="start" data-z-index="2"><tspan>Total</tspan></text></g></g></g></g><g class="highcharts-axis-labels highcharts-xaxis-labels " data-z-index="7"><text x="56.147058823526" style="color:#000000;cursor:default;font-size:11px;fill:#000000;" text-anchor="middle" transform="translate(0,0)" y="370" opacity="1">2006</text><text x="125.26470588235" style="color:#000000;cursor:default;font-size:11px;fill:#000000;" text-anchor="middle" transform="translate(0,0)" y="370" opacity="1">2008</text><text x="194.38235294118" style="color:#000000;cursor:default;font-size:11px;fill:#000000;" text-anchor="middle" transform="translate(0,0)" y="370" opacity="1">2010</text><text x="263.5" style="color:#000000;cursor:default;font-size:11px;fill:#000000;" text-anchor="middle" transform="translate(0,0)" y="370" opacity="1">2012</text><text x="332.61764705882" style="color:#000000;cursor:default;font-size:11px;fill:#000000;" text-anchor="middle" transform="translate(0,0)" y="370" opacity="1">2014</text><text x="401.73529411765" style="color:#000000;cursor:default;font-size:11px;fill:#000000;" text-anchor="middle" transform="translate(0,0)" y="370" opacity="1">2016</text><text x="463" style="color:#000000;cursor:default;font-size:11px;fill:#000000;" text-anchor="middle" transform="translate(0,0)" y="370" opacity="1">2018</text></g><g class="highcharts-axis-labels highcharts-yaxis-labels " data-z-index="7"><text x="37" style="color:#000000;cursor:default;font-size:11px;fill:#000000;" text-anchor="end" transform="translate(0,0)" y="355" opacity="1">0</text><text x="37" style="color:#000000;cursor:default;font-size:11px;fill:#000000;" text-anchor="end" transform="translate(0,0)" y="309" opacity="1"><tspan>1 000</tspan></text><text x="37" style="color:#000000;cursor:default;font-size:11px;fill:#000000;" text-anchor="end" transform="translate(0,0)" y="264" opacity="1"><tspan>2 000</tspan></text><text x="37" style="color:#000000;cursor:default;font-size:11px;fill:#000000;" text-anchor="end" transform="translate(0,0)" y="218" opacity="1"><tspan>3 000</tspan></text><text x="37" style="color:#000000;cursor:default;font-size:11px;fill:#000000;" text-anchor="end" transform="translate(0,0)" y="173" opacity="1"><tspan>4 000</tspan></text><text x="37" style="color:#000000;cursor:default;font-size:11px;fill:#000000;" text-anchor="end" transform="translate(0,0)" y="127" opacity="1"><tspan>5 000</tspan></text></g><text x="10" class="highcharts-credits" text-anchor="start" data-z-index="8" style="cursor:default;color:#000000;font-size:10px;fill:#000000;" y="403"><tspan>Quelle: Erziehungsdepartement Basel-Stadt, Fachstelle Tagesbetreuung.</tspan><tspan x="10" dy="13">Zuletzt geändert: 2019-10-14</tspan></text></svg>