<?xml version="1.0" standalone="no"?><!DOCTYPE svg PUBLIC "-//W3C//DTD SVG 1.1//EN" "http://www.w3.org/Graphics/SVG/1.1/DTD/svg11.dtd"><svg xmlns:xlink="http://www.w3.org/1999/xlink" version="1.1" class="highcharts-root" style="font-family:Arial;font-size:12px;" xmlns="http://www.w3.org/2000/svg" viewBox="0 0 485 415"><desc>Created with Highstock 6.1.1</desc><defs><clipPath id="highcharts-cx9jrqd-6"><rect x="0" y="0" width="295" height="218" fill="none"></rect></clipPath><clipPath id="highcharts-cx9jrqd-7"><rect x="0" y="0" width="295" height="218" fill="none"></rect></clipPath></defs><rect fill="#fbfbfb" class="highcharts-background" x="0" y="0" width="485" height="428" rx="0" ry="0"></rect><rect fill="none" class="highcharts-plot-background" x="165" y="71" width="218" height="295"></rect><g class="highcharts-pane-group" data-z-index="0"></g><g class="highcharts-grid highcharts-xaxis-grid " data-z-index="1"><path fill="none" data-z-index="1" class="highcharts-grid-line" d="M 165 91.5 L 383 91.5" opacity="1"></path><path fill="none" data-z-index="1" class="highcharts-grid-line" d="M 165 110.5 L 383 110.5" opacity="1"></path><path fill="none" data-z-index="1" class="highcharts-grid-line" d="M 165 130.5 L 383 130.5" opacity="1"></path><path fill="none" data-z-index="1" class="highcharts-grid-line" d="M 165 150.5 L 383 150.5" opacity="1"></path><path fill="none" data-z-index="1" class="highcharts-grid-line" d="M 165 169.5 L 383 169.5" opacity="1"></path><path fill="none" data-z-index="1" class="highcharts-grid-line" d="M 165 189.5 L 383 189.5" opacity="1"></path><path fill="none" data-z-index="1" class="highcharts-grid-line" d="M 165 209.5 L 383 209.5" opacity="1"></path><path fill="none" data-z-index="1" class="highcharts-grid-line" d="M 165 228.5 L 383 228.5" opacity="1"></path><path fill="none" data-z-index="1" class="highcharts-grid-line" d="M 165 248.5 L 383 248.5" opacity="1"></path><path fill="none" data-z-index="1" class="highcharts-grid-line" d="M 165 268.5 L 383 268.5" opacity="1"></path><path fill="none" data-z-index="1" class="highcharts-grid-line" d="M 165 287.5 L 383 287.5" opacity="1"></path><path fill="none" data-z-index="1" class="highcharts-grid-line" d="M 165 307.5 L 383 307.5" opacity="1"></path><path fill="none" data-z-index="1" class="highcharts-grid-line" d="M 165 327.5 L 383 327.5" opacity="1"></path><path fill="none" data-z-index="1" class="highcharts-grid-line" d="M 165 346.5 L 383 346.5" opacity="1"></path><path fill="none" data-z-index="1" class="highcharts-grid-line" d="M 165 366.5 L 383 366.5" opacity="1"></path><path fill="none" data-z-index="1" class="highcharts-grid-line" d="M 165 71.5 L 383 71.5" opacity="1"></path></g><g class="highcharts-grid highcharts-yaxis-grid " data-z-index="1"><path fill="none" stroke="#B9CFD7" stroke-width="0.5" data-z-index="1" class="highcharts-grid-line" d="M 164.75 71 L 164.75 366" opacity="1"></path><path fill="none" stroke="#B9CFD7" stroke-width="0.5" data-z-index="1" class="highcharts-grid-line" d="M 219.75 71 L 219.75 366" opacity="1"></path><path fill="none" stroke="#B9CFD7" stroke-width="0.5" data-z-index="1" class="highcharts-grid-line" d="M 273.75 71 L 273.75 366" opacity="1"></path><path fill="none" stroke="#B9CFD7" stroke-width="0.5" data-z-index="1" class="highcharts-grid-line" d="M 328.75 71 L 328.75 366" opacity="1"></path><path fill="none" stroke="#B9CFD7" stroke-width="0.5" data-z-index="1" class="highcharts-grid-line" d="M 383.25 71 L 383.25 366" opacity="1"></path></g><rect fill="none" class="highcharts-plot-border" data-z-index="1" x="165" y="71" width="218" height="295"></rect><g class="highcharts-axis highcharts-xaxis " data-z-index="2"><path fill="none" class="highcharts-axis-line" stroke="#B9CFD7" stroke-width="0.5" data-z-index="7" d="M 164.75 71 L 164.75 366"></path></g><g class="highcharts-axis highcharts-yaxis " data-z-index="2"><path fill="none" class="highcharts-axis-line" data-z-index="7" d="M 165 366 L 383 366"></path></g><g class="highcharts-series-group" data-z-index="3"><g data-z-index="0.1" class="highcharts-series highcharts-series-0 highcharts-column-series " transform="translate(383,366) rotate(90) scale(-1,1) scale(1 1)" clip-path="url(#highcharts-cx9jrqd-7)"><rect x="277" y="0" width="16" height="4" fill="#b00000" class="highcharts-point"></rect><rect x="258" y="1" width="16" height="0" fill="#b00000" class="highcharts-point"></rect><rect x="238" y="0" width="16" height="2" fill="#b00000" class="highcharts-point"></rect><rect x="199" y="1" width="16" height="0" fill="#b00000" class="highcharts-point"></rect><rect x="179" y="0" width="16" height="2" fill="#b00000" class="highcharts-point"></rect><rect x="159" y="0" width="16" height="2" fill="#b00000" class="highcharts-point"></rect><rect x="120" y="0" width="16" height="3" fill="#b00000" class="highcharts-point"></rect><rect x="100" y="0" width="16" height="3" fill="#b00000" class="highcharts-point"></rect><rect x="81" y="1" width="16" height="0" fill="#b00000" class="highcharts-point"></rect><rect x="41" y="0" width="16" height="3" fill="#b00000" class="highcharts-point"></rect><rect x="22" y="0" width="16" height="2" fill="#b00000" class="highcharts-point"></rect><rect x="2" y="1" width="16" height="0" fill="#b00000" class="highcharts-point"></rect></g><g data-z-index="0.1" class="highcharts-markers highcharts-series-0 highcharts-column-series " transform="translate(383,366) rotate(90) scale(-1,1) scale(1 1)" clip-path="none"></g><g data-z-index="0.1" class="highcharts-series highcharts-series-1 highcharts-column-series " transform="translate(383,366) rotate(90) scale(-1,1) scale(1 1)" clip-path="url(#highcharts-cx9jrqd-7)"><rect x="277" y="4" width="16" height="0" fill="#dc440e" class="highcharts-point"></rect><rect x="258" y="0" width="16" height="3" fill="#dc440e" class="highcharts-point"></rect><rect x="238" y="2" width="16" height="0" fill="#dc440e" class="highcharts-point"></rect><rect x="199" y="0" width="16" height="3" fill="#dc440e" class="highcharts-point"></rect><rect x="179" y="2" width="16" height="0" fill="#dc440e" class="highcharts-point"></rect><rect x="159" y="2" width="16" height="0" fill="#dc440e" class="highcharts-point"></rect><rect x="120" y="3" width="16" height="0" fill="#dc440e" class="highcharts-point"></rect><rect x="100" y="3" width="16" height="0" fill="#dc440e" class="highcharts-point"></rect><rect x="81" y="1" width="16" height="0" fill="#dc440e" class="highcharts-point"></rect><rect x="41" y="3" width="16" height="1" fill="#dc440e" class="highcharts-point"></rect><rect x="22" y="2" width="16" height="0" fill="#dc440e" class="highcharts-point"></rect><rect x="2" y="0" width="16" height="2" fill="#dc440e" class="highcharts-point"></rect></g><g data-z-index="0.1" class="highcharts-markers highcharts-series-1 highcharts-column-series " transform="translate(383,366) rotate(90) scale(-1,1) scale(1 1)" clip-path="none"></g><g data-z-index="0.1" class="highcharts-series highcharts-series-2 highcharts-column-series " transform="translate(383,366) rotate(90) scale(-1,1) scale(1 1)" clip-path="url(#highcharts-cx9jrqd-7)"><rect x="277" y="4" width="16" height="2" fill="#ff8028" class="highcharts-point"></rect><rect x="258" y="3" width="16" height="3" fill="#ff8028" class="highcharts-point"></rect><rect x="238" y="2" width="16" height="1" fill="#ff8028" class="highcharts-point"></rect><rect x="199" y="3" width="16" height="1" fill="#ff8028" class="highcharts-point"></rect><rect x="179" y="2" width="16" height="3" fill="#ff8028" class="highcharts-point"></rect><rect x="159" y="2" width="16" height="0" fill="#ff8028" class="highcharts-point"></rect><rect x="120" y="3" width="16" height="4" fill="#ff8028" class="highcharts-point"></rect><rect x="100" y="3" width="16" height="2" fill="#ff8028" class="highcharts-point"></rect><rect x="81" y="0" width="16" height="2" fill="#ff8028" class="highcharts-point"></rect><rect x="41" y="4" width="16" height="2" fill="#ff8028" class="highcharts-point"></rect><rect x="22" y="2" width="16" height="1" fill="#ff8028" class="highcharts-point"></rect><rect x="2" y="2" width="16" height="2" fill="#ff8028" class="highcharts-point"></rect></g><g data-z-index="0.1" class="highcharts-markers highcharts-series-2 highcharts-column-series " transform="translate(383,366) rotate(90) scale(-1,1) scale(1 1)" clip-path="none"></g><g data-z-index="0.1" class="highcharts-series highcharts-series-3 highcharts-column-series " transform="translate(383,366) rotate(90) scale(-1,1) scale(1 1)" clip-path="url(#highcharts-cx9jrqd-7)"><rect x="277" y="6" width="16" height="5" fill="#ffbb58" class="highcharts-point"></rect><rect x="258" y="6" width="16" height="4" fill="#ffbb58" class="highcharts-point"></rect><rect x="238" y="3" width="16" height="2" fill="#ffbb58" class="highcharts-point"></rect><rect x="199" y="4" width="16" height="2" fill="#ffbb58" class="highcharts-point"></rect><rect x="179" y="5" width="16" height="4" fill="#ffbb58" class="highcharts-point"></rect><rect x="159" y="2" width="16" height="2" fill="#ffbb58" class="highcharts-point"></rect><rect x="120" y="7" width="16" height="4" fill="#ffbb58" class="highcharts-point"></rect><rect x="100" y="5" width="16" height="3" fill="#ffbb58" class="highcharts-point"></rect><rect x="81" y="2" width="16" height="2" fill="#ffbb58" class="highcharts-point"></rect><rect x="41" y="6" width="16" height="1" fill="#ffbb58" class="highcharts-point"></rect><rect x="22" y="3" width="16" height="3" fill="#ffbb58" class="highcharts-point"></rect><rect x="2" y="4" width="16" height="3" fill="#ffbb58" class="highcharts-point"></rect></g><g data-z-index="0.1" class="highcharts-markers highcharts-series-3 highcharts-column-series " transform="translate(383,366) rotate(90) scale(-1,1) scale(1 1)" clip-path="none"></g><g data-z-index="0.1" class="highcharts-series highcharts-series-4 highcharts-column-series " transform="translate(383,366) rotate(90) scale(-1,1) scale(1 1)" clip-path="url(#highcharts-cx9jrqd-7)"><rect x="277" y="11" width="16" height="27" fill="#71a3b5" class="highcharts-point"></rect><rect x="258" y="10" width="16" height="19" fill="#71a3b5" class="highcharts-point"></rect><rect x="238" y="5" width="16" height="14" fill="#71a3b5" class="highcharts-point"></rect><rect x="199" y="6" width="16" height="25" fill="#71a3b5" class="highcharts-point"></rect><rect x="179" y="9" width="16" height="17" fill="#71a3b5" class="highcharts-point"></rect><rect x="159" y="4" width="16" height="10" fill="#71a3b5" class="highcharts-point"></rect><rect x="120" y="11" width="16" height="32" fill="#71a3b5" class="highcharts-point"></rect><rect x="100" y="8" width="16" height="17" fill="#71a3b5" class="highcharts-point"></rect><rect x="81" y="4" width="16" height="6" fill="#71a3b5" class="highcharts-point"></rect><rect x="41" y="7" width="16" height="20" fill="#71a3b5" class="highcharts-point"></rect><rect x="22" y="6" width="16" height="13" fill="#71a3b5" class="highcharts-point"></rect><rect x="2" y="7" width="16" height="8" fill="#71a3b5" class="highcharts-point"></rect></g><g data-z-index="0.1" class="highcharts-markers highcharts-series-4 highcharts-column-series " transform="translate(383,366) rotate(90) scale(-1,1) scale(1 1)" clip-path="none"></g><g data-z-index="0.1" class="highcharts-series highcharts-series-5 highcharts-column-series " transform="translate(383,366) rotate(90) scale(-1,1) scale(1 1)" clip-path="url(#highcharts-cx9jrqd-7)"><rect x="277" y="38" width="16" height="16" fill="#b9cfd7" class="highcharts-point"></rect><rect x="258" y="29" width="16" height="25" fill="#b9cfd7" class="highcharts-point"></rect><rect x="238" y="19" width="16" height="20" fill="#b9cfd7" class="highcharts-point"></rect><rect x="199" y="31" width="16" height="16" fill="#b9cfd7" class="highcharts-point"></rect><rect x="179" y="26" width="16" height="20" fill="#b9cfd7" class="highcharts-point"></rect><rect x="159" y="14" width="16" height="21" fill="#b9cfd7" class="highcharts-point"></rect><rect x="120" y="43" width="16" height="14" fill="#b9cfd7" class="highcharts-point"></rect><rect x="100" y="25" width="16" height="13" fill="#b9cfd7" class="highcharts-point"></rect><rect x="81" y="10" width="16" height="12" fill="#b9cfd7" class="highcharts-point"></rect><rect x="41" y="27" width="16" height="14" fill="#b9cfd7" class="highcharts-point"></rect><rect x="22" y="19" width="16" height="14" fill="#b9cfd7" class="highcharts-point"></rect><rect x="2" y="15" width="16" height="14" fill="#b9cfd7" class="highcharts-point"></rect></g><g data-z-index="0.1" class="highcharts-markers highcharts-series-5 highcharts-column-series " transform="translate(383,366) rotate(90) scale(-1,1) scale(1 1)" clip-path="none"></g><g data-z-index="0.1" class="highcharts-series highcharts-series-6 highcharts-column-series " transform="translate(383,366) rotate(90) scale(-1,1) scale(1 1)" clip-path="url(#highcharts-cx9jrqd-7)"><rect x="277" y="54" width="16" height="47" fill="#d7e9d2" class="highcharts-point"></rect><rect x="258" y="54" width="16" height="54" fill="#d7e9d2" class="highcharts-point"></rect><rect x="238" y="39" width="16" height="52" fill="#d7e9d2" class="highcharts-point"></rect><rect x="199" y="47" width="16" height="55" fill="#d7e9d2" class="highcharts-point"></rect><rect x="179" y="46" width="16" height="51" fill="#d7e9d2" class="highcharts-point"></rect><rect x="159" y="35" width="16" height="59" fill="#d7e9d2" class="highcharts-point"></rect><rect x="120" y="57" width="16" height="37" fill="#d7e9d2" class="highcharts-point"></rect><rect x="100" y="38" width="16" height="46" fill="#d7e9d2" class="highcharts-point"></rect><rect x="81" y="22" width="16" height="49" fill="#d7e9d2" class="highcharts-point"></rect><rect x="41" y="41" width="16" height="31" fill="#d7e9d2" class="highcharts-point"></rect><rect x="22" y="33" width="16" height="43" fill="#d7e9d2" class="highcharts-point"></rect><rect x="2" y="29" width="16" height="37" fill="#d7e9d2" class="highcharts-point"></rect></g><g data-z-index="0.1" class="highcharts-markers highcharts-series-6 highcharts-column-series " transform="translate(383,366) rotate(90) scale(-1,1) scale(1 1)" clip-path="none"></g><g data-z-index="0.1" class="highcharts-series highcharts-series-7 highcharts-column-series " transform="translate(383,366) rotate(90) scale(-1,1) scale(1 1)" clip-path="url(#highcharts-cx9jrqd-7)"><rect x="277" y="101" width="16" height="73" fill="#73ba7c" class="highcharts-point"></rect><rect x="258" y="108" width="16" height="74" fill="#73ba7c" class="highcharts-point"></rect><rect x="238" y="91" width="16" height="95" fill="#73ba7c" class="highcharts-point"></rect><rect x="199" y="102" width="16" height="70" fill="#73ba7c" class="highcharts-point"></rect><rect x="179" y="97" width="16" height="87" fill="#73ba7c" class="highcharts-point"></rect><rect x="159" y="94" width="16" height="95" fill="#73ba7c" class="highcharts-point"></rect><rect x="120" y="94" width="16" height="62" fill="#73ba7c" class="highcharts-point"></rect><rect x="100" y="84" width="16" height="84" fill="#73ba7c" class="highcharts-point"></rect><rect x="81" y="71" width="16" height="97" fill="#73ba7c" class="highcharts-point"></rect><rect x="41" y="72" width="16" height="77" fill="#73ba7c" class="highcharts-point"></rect><rect x="22" y="76" width="16" height="92" fill="#73ba7c" class="highcharts-point"></rect><rect x="2" y="66" width="16" height="91" fill="#73ba7c" class="highcharts-point"></rect></g><g data-z-index="0.1" class="highcharts-markers highcharts-series-7 highcharts-column-series " transform="translate(383,366) rotate(90) scale(-1,1) scale(1 1)" clip-path="none"></g><g data-z-index="0.1" class="highcharts-series highcharts-series-8 highcharts-column-series " transform="translate(383,366) rotate(90) scale(-1,1) scale(1 1)" clip-path="url(#highcharts-cx9jrqd-7)"><rect x="277" y="174" width="16" height="22" fill="#44ab2b" class="highcharts-point"></rect><rect x="258" y="182" width="16" height="20" fill="#44ab2b" class="highcharts-point"></rect><rect x="238" y="186" width="16" height="25" fill="#44ab2b" class="highcharts-point"></rect><rect x="199" y="172" width="16" height="25" fill="#44ab2b" class="highcharts-point"></rect><rect x="179" y="184" width="16" height="20" fill="#44ab2b" class="highcharts-point"></rect><rect x="159" y="189" width="16" height="21" fill="#44ab2b" class="highcharts-point"></rect><rect x="120" y="156" width="16" height="21" fill="#44ab2b" class="highcharts-point"></rect><rect x="100" y="168" width="16" height="21" fill="#44ab2b" class="highcharts-point"></rect><rect x="81" y="168" width="16" height="31" fill="#44ab2b" class="highcharts-point"></rect><rect x="41" y="149" width="16" height="41" fill="#44ab2b" class="highcharts-point"></rect><rect x="22" y="168" width="16" height="26" fill="#44ab2b" class="highcharts-point"></rect><rect x="2" y="157" width="16" height="41" fill="#44ab2b" class="highcharts-point"></rect></g><g data-z-index="0.1" class="highcharts-markers highcharts-series-8 highcharts-column-series " transform="translate(383,366) rotate(90) scale(-1,1) scale(1 1)" clip-path="none"></g><g data-z-index="0.1" class="highcharts-series highcharts-series-9 highcharts-column-series " transform="translate(383,366) rotate(90) scale(-1,1) scale(1 1)" clip-path="url(#highcharts-cx9jrqd-7)"><rect x="277" y="196" width="16" height="23" fill="#007a2f" class="highcharts-point"></rect><rect x="258" y="202" width="16" height="17" fill="#007a2f" class="highcharts-point"></rect><rect x="238" y="211" width="16" height="8" fill="#007a2f" class="highcharts-point"></rect><rect x="199" y="197" width="16" height="22" fill="#007a2f" class="highcharts-point"></rect><rect x="179" y="204" width="16" height="15" fill="#007a2f" class="highcharts-point"></rect><rect x="159" y="210" width="16" height="9" fill="#007a2f" class="highcharts-point"></rect><rect x="120" y="177" width="16" height="42" fill="#007a2f" class="highcharts-point"></rect><rect x="100" y="189" width="16" height="30" fill="#007a2f" class="highcharts-point"></rect><rect x="81" y="199" width="16" height="20" fill="#007a2f" class="highcharts-point"></rect><rect x="41" y="190" width="16" height="29" fill="#007a2f" class="highcharts-point"></rect><rect x="22" y="194" width="16" height="25" fill="#007a2f" class="highcharts-point"></rect><rect x="2" y="198" width="16" height="21" fill="#007a2f" class="highcharts-point"></rect></g><g data-z-index="0.1" class="highcharts-markers highcharts-series-9 highcharts-column-series " transform="translate(383,366) rotate(90) scale(-1,1) scale(1 1)" clip-path="none"></g></g><text x="10" text-anchor="start" class="highcharts-title" data-z-index="4" style="color:#000000;font-size:14px;font-weight:bold;fill:#000000;" y="21"><tspan>Bewertung der Lebensqualität nach Einkommensklasse</tspan></text><text x="10" text-anchor="start" class="highcharts-subtitle" data-z-index="4" style="color:#000000;font-size:12px;fill:#000000;" y="40"><tspan>«Wie würden Sie die Lebensqualität im Kanton Basel-Stadt insgesamt</tspan><tspan dy="15" x="10">bewerten?»</tspan></text><g class="highcharts-legend" data-z-index="7" transform="translate(395,94)"><rect fill="none" class="highcharts-legend-box" rx="0" ry="0" x="0" y="0" width="80" height="211" visibility="visible"></rect><g data-z-index="1"><g><g class="highcharts-legend-item highcharts-column-series highcharts-color-undefined highcharts-series-9" data-z-index="1" transform="translate(8,3)"><text x="21" style="color:#333333;font-size:12px;font-weight:normal;cursor:pointer;fill:#333333;" text-anchor="start" data-z-index="2" y="15"><tspan>Note 10</tspan></text><rect x="2" y="4" width="12" height="12" fill="#007a2f" class="highcharts-point" data-z-index="3"></rect></g><g class="highcharts-legend-item highcharts-column-series highcharts-color-undefined highcharts-series-8" data-z-index="1" transform="translate(8,23)"><text x="21" y="15" style="color:#333333;font-size:12px;font-weight:normal;cursor:pointer;fill:#333333;" text-anchor="start" data-z-index="2"><tspan>Note 9</tspan></text><rect x="2" y="4" width="12" height="12" fill="#44ab2b" class="highcharts-point" data-z-index="3"></rect></g><g class="highcharts-legend-item highcharts-column-series highcharts-color-undefined highcharts-series-7" data-z-index="1" transform="translate(8,43)"><text x="21" y="15" style="color:#333333;font-size:12px;font-weight:normal;cursor:pointer;fill:#333333;" text-anchor="start" data-z-index="2"><tspan>Note 8</tspan></text><rect x="2" y="4" width="12" height="12" fill="#73ba7c" class="highcharts-point" data-z-index="3"></rect></g><g class="highcharts-legend-item highcharts-column-series highcharts-color-undefined highcharts-series-6" data-z-index="1" transform="translate(8,63)"><text x="21" y="15" style="color:#333333;font-size:12px;font-weight:normal;cursor:pointer;fill:#333333;" text-anchor="start" data-z-index="2"><tspan>Note 7</tspan></text><rect x="2" y="4" width="12" height="12" fill="#d7e9d2" class="highcharts-point" data-z-index="3"></rect></g><g class="highcharts-legend-item highcharts-column-series highcharts-color-undefined highcharts-series-5" data-z-index="1" transform="translate(8,83)"><text x="21" y="15" style="color:#333333;font-size:12px;font-weight:normal;cursor:pointer;fill:#333333;" text-anchor="start" data-z-index="2"><tspan>Note 6</tspan></text><rect x="2" y="4" width="12" height="12" fill="#b9cfd7" class="highcharts-point" data-z-index="3"></rect></g><g class="highcharts-legend-item highcharts-column-series highcharts-color-undefined highcharts-series-4" data-z-index="1" transform="translate(8,103)"><text x="21" y="15" style="color:#333333;font-size:12px;font-weight:normal;cursor:pointer;fill:#333333;" text-anchor="start" data-z-index="2"><tspan>Note 5</tspan></text><rect x="2" y="4" width="12" height="12" fill="#71a3b5" class="highcharts-point" data-z-index="3"></rect></g><g class="highcharts-legend-item highcharts-column-series highcharts-color-undefined highcharts-series-3" data-z-index="1" transform="translate(8,123)"><text x="21" y="15" style="color:#333333;font-size:12px;font-weight:normal;cursor:pointer;fill:#333333;" text-anchor="start" data-z-index="2"><tspan>Note 4</tspan></text><rect x="2" y="4" width="12" height="12" fill="#ffbb58" class="highcharts-point" data-z-index="3"></rect></g><g class="highcharts-legend-item highcharts-column-series highcharts-color-undefined highcharts-series-2" data-z-index="1" transform="translate(8,143)"><text x="21" y="15" style="color:#333333;font-size:12px;font-weight:normal;cursor:pointer;fill:#333333;" text-anchor="start" data-z-index="2"><tspan>Note 3</tspan></text><rect x="2" y="4" width="12" height="12" fill="#ff8028" class="highcharts-point" data-z-index="3"></rect></g><g class="highcharts-legend-item highcharts-column-series highcharts-color-undefined highcharts-series-1" data-z-index="1" transform="translate(8,163)"><text x="21" y="15" style="color:#333333;font-size:12px;font-weight:normal;cursor:pointer;fill:#333333;" text-anchor="start" data-z-index="2"><tspan>Note 2</tspan></text><rect x="2" y="4" width="12" height="12" fill="#dc440e" class="highcharts-point" data-z-index="3"></rect></g><g class="highcharts-legend-item highcharts-column-series highcharts-color-undefined highcharts-series-0" data-z-index="1" transform="translate(8,183)"><text x="21" y="15" style="color:#333333;font-size:12px;font-weight:normal;cursor:pointer;fill:#333333;" text-anchor="start" data-z-index="2"><tspan>Note 1</tspan></text><rect x="2" y="4" width="12" height="12" fill="#b00000" class="highcharts-point" data-z-index="3"></rect></g></g></g></g><g class="highcharts-axis-labels highcharts-xaxis-labels " data-z-index="7"><text x="10" style="color:#000000;cursor:default;font-size:11px;white-space:nowrap;fill:#000000;" text-anchor="start" transform="translate(0,0)" y="85" opacity="1"><tspan>2005: &lt;3 000 Fr. (n=214)</tspan></text><text x="10" style="color:#000000;cursor:default;font-size:11px;white-space:nowrap;fill:#000000;" text-anchor="start" transform="translate(0,0)" y="104" opacity="1"><tspan>2005:  3 000-7 499 Fr. (n=649)</tspan></text><text x="10" style="color:#000000;cursor:default;font-size:11px;white-space:nowrap;fill:#000000;" text-anchor="start" transform="translate(0,0)" y="124" opacity="1"><tspan>2005: &gt;7 500 Fr. (n=341)</tspan></text><text x="10" style="color:#000000;cursor:default;font-size:11px;white-space:nowrap;fill:#000000;" text-anchor="start" transform="translate(0,0)" y="151" opacity="1"></text><text x="10" style="color:#000000;cursor:default;font-size:11px;white-space:nowrap;fill:#000000;" text-anchor="start" transform="translate(0,0)" y="163" opacity="1"><tspan>2007: &lt;3 000 Fr. (n=208)</tspan></text><text x="10" style="color:#000000;cursor:default;font-size:11px;white-space:nowrap;fill:#000000;" text-anchor="start" transform="translate(0,0)" y="183" opacity="1"><tspan>2007: 3 000-7 499 Fr. (n=584)</tspan></text><text x="10" style="color:#000000;cursor:default;font-size:11px;white-space:nowrap;fill:#000000;" text-anchor="start" transform="translate(0,0)" y="203" opacity="1"><tspan>2007: &gt;7 500 Fr. (n=315)</tspan></text><text x="10" style="color:#000000;cursor:default;font-size:11px;white-space:nowrap;fill:#000000;" text-anchor="start" transform="translate(0,0)" y="229" opacity="1"></text><text x="10" style="color:#000000;cursor:default;font-size:11px;white-space:nowrap;fill:#000000;" text-anchor="start" transform="translate(0,0)" y="242" opacity="1"><tspan>2011: &lt;3 000 Fr. (n=136)</tspan></text><text x="10" style="color:#000000;cursor:default;font-size:11px;white-space:nowrap;fill:#000000;" text-anchor="start" transform="translate(0,0)" y="262" opacity="1"><tspan>2011: 3 000-7499 Fr. (n=681)</tspan></text><text x="10" style="color:#000000;cursor:default;font-size:11px;white-space:nowrap;fill:#000000;" text-anchor="start" transform="translate(0,0)" y="281" opacity="1"><tspan>2011: &gt;7 500 Fr. (n=519)</tspan></text><text x="10" style="color:#000000;cursor:default;font-size:11px;white-space:nowrap;fill:#000000;" text-anchor="start" transform="translate(0,0)" y="308" opacity="1"></text><text x="10" style="color:#000000;cursor:default;font-size:11px;white-space:nowrap;fill:#000000;" text-anchor="start" transform="translate(0,0)" y="321" opacity="1"><tspan>2015: &lt;3 000 Fr. (n=141)</tspan></text><text x="10" style="color:#000000;cursor:default;font-size:11px;white-space:nowrap;fill:#000000;" text-anchor="start" transform="translate(0,0)" y="340" opacity="1"><tspan>2015: 3 000-7 499 Fr. (n=614)</tspan></text><text x="10" style="color:#000000;cursor:default;font-size:11px;white-space:nowrap;fill:#000000;" text-anchor="start" transform="translate(0,0)" y="360" opacity="1"><tspan>2015: &gt;7 500 Fr. (n=494)</tspan></text></g><g class="highcharts-axis-labels highcharts-yaxis-labels " data-z-index="7"><text x="165" style="color:#000000;cursor:default;font-size:11px;white-space:nowrap;fill:#000000;" text-anchor="middle" transform="translate(0,0)" y="385" opacity="1">0%</text><text x="219.5" style="color:#000000;cursor:default;font-size:11px;white-space:nowrap;fill:#000000;" text-anchor="middle" transform="translate(0,0)" y="385" opacity="1">25%</text><text x="274" style="color:#000000;cursor:default;font-size:11px;white-space:nowrap;fill:#000000;" text-anchor="middle" transform="translate(0,0)" y="385" opacity="1">50%</text><text x="328.5" style="color:#000000;cursor:default;font-size:11px;white-space:nowrap;fill:#000000;" text-anchor="middle" transform="translate(0,0)" y="385" opacity="1">75%</text><text x="383" style="color:#000000;cursor:default;font-size:11px;white-space:nowrap;fill:#000000;" text-anchor="middle" transform="translate(0,0)" y="385" opacity="1">100%</text></g><text x="10" class="highcharts-credits" text-anchor="start" data-z-index="8" style="cursor:default;color:#000000;font-size:10px;fill:#000000;" y="403"><tspan>Quelle: Statistisches Amt Basel-Stadt, kantonale Bevölkerungsbefragung: F4.</tspan><tspan x="10" dy="13">Zuletzt geändert: 2019-10-14</tspan></text></svg>