<?xml version="1.0" standalone="no"?><!DOCTYPE svg PUBLIC "-//W3C//DTD SVG 1.1//EN" "http://www.w3.org/Graphics/SVG/1.1/DTD/svg11.dtd"><svg xmlns:xlink="http://www.w3.org/1999/xlink" version="1.1" class="highcharts-root" style="font-family:Arial;font-size:12px;" xmlns="http://www.w3.org/2000/svg" viewBox="0 0 485 415"><desc>Created with Highstock 6.1.1</desc><defs><clipPath id="highcharts-j135kxq-6"><rect x="0" y="0" width="288" height="126" fill="none"></rect></clipPath><clipPath id="highcharts-j135kxq-7"><rect x="0" y="0" width="288" height="126" fill="none"></rect></clipPath></defs><rect fill="#fbfbfb" class="highcharts-background" x="0" y="0" width="320" height="221" rx="0" ry="0"></rect><rect fill="none" class="highcharts-plot-background" x="29" y="56" width="288" height="126"></rect><g class="highcharts-pane-group" data-z-index="0"></g><g class="highcharts-grid highcharts-xaxis-grid " data-z-index="1"><path fill="none" data-z-index="1" class="highcharts-grid-line" d="M 75.5 56 L 75.5 182" opacity="1"></path><path fill="none" data-z-index="1" class="highcharts-grid-line" d="M 150.5 56 L 150.5 182" opacity="1"></path><path fill="none" data-z-index="1" class="highcharts-grid-line" d="M 224.5 56 L 224.5 182" opacity="1"></path><path fill="none" data-z-index="1" class="highcharts-grid-line" d="M 298.5 56 L 298.5 182" opacity="1"></path></g><g class="highcharts-grid highcharts-yaxis-grid " data-z-index="1"><path fill="none" stroke="#B9CFD7" stroke-width="0.5" data-z-index="1" class="highcharts-grid-line" d="M 29 182.25 L 317 182.25" opacity="1"></path><path fill="none" stroke="#B9CFD7" stroke-width="0.5" data-z-index="1" class="highcharts-grid-line" d="M 29 140.25 L 317 140.25" opacity="1"></path><path fill="none" stroke="#B9CFD7" stroke-width="0.5" data-z-index="1" class="highcharts-grid-line" d="M 29 98.25 L 317 98.25" opacity="1"></path><path fill="none" stroke="#B9CFD7" stroke-width="0.5" data-z-index="1" class="highcharts-grid-line" d="M 29 55.75 L 317 55.75" opacity="1"></path></g><rect fill="none" class="highcharts-plot-border" data-z-index="1" x="29" y="56" width="288" height="126"></rect><g class="highcharts-axis highcharts-xaxis " data-z-index="2"><path fill="none" class="highcharts-axis-line" stroke="#B9CFD7" stroke-width="0.5" data-z-index="7" d="M 29 182.25 L 317 182.25"></path></g><g class="highcharts-axis highcharts-yaxis " data-z-index="2"><path fill="none" class="highcharts-axis-line" data-z-index="7" d="M 29 56 L 29 182"></path></g><g class="highcharts-series-group" data-z-index="3"><g data-z-index="0.1" class="highcharts-series highcharts-series-0 highcharts-line-series " transform="translate(29,56) scale(1 1)" clip-path="url(#highcharts-j135kxq-7)"><path fill="none" d="M 2.8235294117655 15.61091416814915 L 17.684210526317 16.822476053903728 L 32.544891640867 17.947660169192034 L 47.405572755418 18.83416886608572 L 62.266253869969 19.47177319808216 L 77.126934984521 19.155812406112403 L 91.987616099072 19.043293994583593 L 106.84829721362 18.893269445878587 L 121.70897832817 19.209798512653975 L 136.56965944272 19.282537687783858 L 151.43034055728 19.164336528197907 L 166.29102167183 18.28010093052717 L 181.15170278638 17.564642950149334 L 196.01238390093 17.573735347040667 L 210.87306501548 16.84804842016044 L 225.73374613003 16.062124363875867 L 240.59442724458 14.925574752473693 L 255.45510835913 14.350480649104114 L 270.31578947368 13.933935216525242 L 285.17647058823 13.364523861212788" class="highcharts-graph" data-z-index="1" stroke="#8b2223" stroke-width="2" stroke-linejoin="round" stroke-linecap="round"></path></g><g data-z-index="0.1" class="highcharts-markers highcharts-series-0 highcharts-line-series " transform="translate(29,56) scale(1 1)" clip-path="none"><path fill="#8b2223" d="M 6 16 A 4 4 0 1 1 5.999998000000167 15.996000000666664 Z" class="highcharts-point"></path><path fill="#8b2223" d="M 21 17 A 4 4 0 1 1 20.99999800000017 16.996000000666665 Z" class="highcharts-point"></path><path fill="#8b2223" d="M 36 18 A 4 4 0 1 1 35.99999800000017 17.996000000666665 Z" class="highcharts-point"></path><path fill="#8b2223" d="M 51 19 A 4 4 0 1 1 50.99999800000017 18.996000000666665 Z" class="highcharts-point"></path><path fill="#8b2223" d="M 66 19 A 4 4 0 1 1 65.99999800000016 18.996000000666665 Z" class="highcharts-point"></path><path fill="#8b2223" d="M 81 19 A 4 4 0 1 1 80.99999800000016 18.996000000666665 Z" class="highcharts-point"></path><path fill="#8b2223" d="M 95 19 A 4 4 0 1 1 94.99999800000016 18.996000000666665 Z" class="highcharts-point"></path><path fill="#8b2223" d="M 110 19 A 4 4 0 1 1 109.99999800000016 18.996000000666665 Z" class="highcharts-point"></path><path fill="#8b2223" d="M 125 19 A 4 4 0 1 1 124.99999800000016 18.996000000666665 Z" class="highcharts-point"></path><path fill="#8b2223" d="M 140 19 A 4 4 0 1 1 139.99999800000018 18.996000000666665 Z" class="highcharts-point"></path><path fill="#8b2223" d="M 155 19 A 4 4 0 1 1 154.99999800000018 18.996000000666665 Z" class="highcharts-point"></path><path fill="#8b2223" d="M 170 18 A 4 4 0 1 1 169.99999800000018 17.996000000666665 Z" class="highcharts-point"></path><path fill="#8b2223" d="M 185 18 A 4 4 0 1 1 184.99999800000018 17.996000000666665 Z" class="highcharts-point"></path><path fill="#8b2223" d="M 200 18 A 4 4 0 1 1 199.99999800000018 17.996000000666665 Z" class="highcharts-point"></path><path fill="#8b2223" d="M 214 17 A 4 4 0 1 1 213.99999800000018 16.996000000666665 Z" class="highcharts-point"></path><path fill="#8b2223" d="M 229 16 A 4 4 0 1 1 228.99999800000018 15.996000000666664 Z" class="highcharts-point"></path><path fill="#8b2223" d="M 244 15 A 4 4 0 1 1 243.99999800000018 14.996000000666664 Z" class="highcharts-point"></path><path fill="#8b2223" d="M 259 14 A 4 4 0 1 1 258.9999980000002 13.996000000666664 Z" class="highcharts-point"></path><path fill="#8b2223" d="M 274 14 A 4 4 0 1 1 273.9999980000002 13.996000000666664 Z" class="highcharts-point"></path><path fill="#8b2223" d="M 289 13 A 4 4 0 1 1 288.9999980000002 12.996000000666664 Z" class="highcharts-point"></path></g></g><text x="3" text-anchor="start" class="highcharts-title" data-z-index="4" style="color:#000000;font-size:10px;font-weight:bold;fill:#000000;" y="22"><tspan>Bevölkerungsdichte</tspan></text><text x="3" text-anchor="start" class="highcharts-subtitle" data-z-index="4" style="color:#000000;font-size:10px;font-weight:normal;font-family:Arial;fill:#000000;" y="40"><tspan>Anzahl Einwohner pro Hektar</tspan></text><g data-z-index="6" class="highcharts-data-labels highcharts-series-0 highcharts-line-series " visibility="visible" transform="translate(29,56) scale(1 1)"><g class="highcharts-label highcharts-data-label highcharts-data-label-color-undefined " data-z-index="1" transform="translate(-5,16)"><text x="5" data-z-index="1" style="font-size:10px;font-weight:normal;color:#000000;fill:#000000;" y="15"><tspan x="5" y="15" class="highcharts-text-outline" fill="#FFFFFF" stroke="#FFFFFF" stroke-width="2px" stroke-linejoin="round" style="">1997:</tspan><tspan x="5" dy="13" class="highcharts-text-outline" fill="#FFFFFF" stroke="#FFFFFF" stroke-width="2px" stroke-linejoin="round" style="">52,6</tspan><tspan x="5" y="15">1997:</tspan><tspan x="5" dy="13">52,6</tspan></text></g><g class="highcharts-label highcharts-data-label highcharts-data-label-color-undefined " data-z-index="1" transform="translate(13,7)"><text x="5" data-z-index="1" style="font-size:10px;font-weight:normal;color:#000000;fill:#000000;" y="15"></text></g><g class="highcharts-label highcharts-data-label highcharts-data-label-color-undefined " data-z-index="1" transform="translate(28,8)"><text x="5" data-z-index="1" style="font-size:10px;font-weight:normal;color:#000000;fill:#000000;" y="15"></text></g><g class="highcharts-label highcharts-data-label highcharts-data-label-color-undefined " data-z-index="1" transform="translate(42,9)"><text x="5" data-z-index="1" style="font-size:10px;font-weight:normal;color:#000000;fill:#000000;" y="15"></text></g><g class="highcharts-label highcharts-data-label highcharts-data-label-color-undefined " data-z-index="1" transform="translate(57,9)"><text x="5" data-z-index="1" style="font-size:10px;font-weight:normal;color:#000000;fill:#000000;" y="15"></text></g><g class="highcharts-label highcharts-data-label highcharts-data-label-color-undefined " data-z-index="1" transform="translate(72,9)"><text x="5" data-z-index="1" style="font-size:10px;font-weight:normal;color:#000000;fill:#000000;" y="15"></text></g><g class="highcharts-label highcharts-data-label highcharts-data-label-color-undefined " data-z-index="1" transform="translate(87,9)"><text x="5" data-z-index="1" style="font-size:10px;font-weight:normal;color:#000000;fill:#000000;" y="15"></text></g><g class="highcharts-label highcharts-data-label highcharts-data-label-color-undefined " data-z-index="1" transform="translate(102,9)"><text x="5" data-z-index="1" style="font-size:10px;font-weight:normal;color:#000000;fill:#000000;" y="15"></text></g><g class="highcharts-label highcharts-data-label highcharts-data-label-color-undefined " data-z-index="1" transform="translate(117,9)"><text x="5" data-z-index="1" style="font-size:10px;font-weight:normal;color:#000000;fill:#000000;" y="15"></text></g><g class="highcharts-label highcharts-data-label highcharts-data-label-color-undefined " data-z-index="1" transform="translate(132,9)"><text x="5" data-z-index="1" style="font-size:10px;font-weight:normal;color:#000000;fill:#000000;" y="15"></text></g><g class="highcharts-label highcharts-data-label highcharts-data-label-color-undefined " data-z-index="1" transform="translate(146,9)"><text x="5" data-z-index="1" style="font-size:10px;font-weight:normal;color:#000000;fill:#000000;" y="15"></text></g><g class="highcharts-label highcharts-data-label highcharts-data-label-color-undefined " data-z-index="1" transform="translate(161,8)"><text x="5" data-z-index="1" style="font-size:10px;font-weight:normal;color:#000000;fill:#000000;" y="15"></text></g><g class="highcharts-label highcharts-data-label highcharts-data-label-color-undefined " data-z-index="1" transform="translate(176,8)"><text x="5" data-z-index="1" style="font-size:10px;font-weight:normal;color:#000000;fill:#000000;" y="15"></text></g><g class="highcharts-label highcharts-data-label highcharts-data-label-color-undefined " data-z-index="1" transform="translate(191,8)"><text x="5" data-z-index="1" style="font-size:10px;font-weight:normal;color:#000000;fill:#000000;" y="15"></text></g><g class="highcharts-label highcharts-data-label highcharts-data-label-color-undefined " data-z-index="1" transform="translate(206,7)"><text x="5" data-z-index="1" style="font-size:10px;font-weight:normal;color:#000000;fill:#000000;" y="15"></text></g><g class="highcharts-label highcharts-data-label highcharts-data-label-color-undefined " data-z-index="1" transform="translate(221,6)"><text x="5" data-z-index="1" style="font-size:10px;font-weight:normal;color:#000000;fill:#000000;" y="15"></text></g><g class="highcharts-label highcharts-data-label highcharts-data-label-color-undefined " data-z-index="1" transform="translate(236,5)"><text x="5" data-z-index="1" style="font-size:10px;font-weight:normal;color:#000000;fill:#000000;" y="15"></text></g><g class="highcharts-label highcharts-data-label highcharts-data-label-color-undefined " data-z-index="1" transform="translate(250,4)"><text x="5" data-z-index="1" style="font-size:10px;font-weight:normal;color:#000000;fill:#000000;" y="15"></text></g><g class="highcharts-label highcharts-data-label highcharts-data-label-color-undefined " data-z-index="1" transform="translate(265,4)"><text x="5" data-z-index="1" style="font-size:10px;font-weight:normal;color:#000000;fill:#000000;" y="15"></text></g><g class="highcharts-label highcharts-data-label highcharts-data-label-color-undefined " data-z-index="1" transform="translate(258,13)"><text x="5" data-z-index="1" style="font-size:10px;font-weight:normal;color:#000000;fill:#000000;" y="15"><tspan x="5" y="15" class="highcharts-text-outline" fill="#FFFFFF" stroke="#FFFFFF" stroke-width="2px" stroke-linejoin="round" style="">2016:</tspan><tspan x="5" dy="13" class="highcharts-text-outline" fill="#FFFFFF" stroke="#FFFFFF" stroke-width="2px" stroke-linejoin="round" style="">53,6</tspan><tspan x="5" y="15">2016:</tspan><tspan x="5" dy="13">53,6</tspan></text></g></g><g class="highcharts-axis-labels highcharts-xaxis-labels " data-z-index="7"><text x="76.405572755418" style="color:#000000;cursor:default;font-size:10;fill:#000000;" text-anchor="middle" transform="translate(0,0)" y="202" opacity="1">2000</text><text x="150.70897832817" style="color:#000000;cursor:default;font-size:10;fill:#000000;" text-anchor="middle" transform="translate(0,0)" y="202" opacity="1">2005</text><text x="225.01238390093" style="color:#000000;cursor:default;font-size:10;fill:#000000;" text-anchor="middle" transform="translate(0,0)" y="202" opacity="1">2010</text><text x="299.31578947368" style="color:#000000;cursor:default;font-size:10;fill:#000000;" text-anchor="middle" transform="translate(0,0)" y="202" opacity="1">2015</text></g><g class="highcharts-axis-labels highcharts-yaxis-labels " data-z-index="7"><text x="14" style="color:#000000;cursor:default;font-size:10;fill:#000000;" text-anchor="end" transform="translate(0,0)" y="185" opacity="1">0</text><text x="14" style="color:#000000;cursor:default;font-size:10;fill:#000000;" text-anchor="end" transform="translate(0,0)" y="143" opacity="1">20</text><text x="14" style="color:#000000;cursor:default;font-size:10;fill:#000000;" text-anchor="end" transform="translate(0,0)" y="101" opacity="1">40</text><text x="14" style="color:#000000;cursor:default;font-size:10;fill:#000000;" text-anchor="end" transform="translate(0,0)" y="59" opacity="1">60</text></g><text x="10" class="highcharts-credits" text-anchor="start" data-z-index="8" style="cursor:default;color:#000000;font-size:10px;fill:#000000;" y="196"><tspan>Quelle: Statistisches Amt Basel-Stadt, Bevölkerungsstatistik.</tspan><tspan x="10" dy="13">Zuletzt geändert: 2017-7-6</tspan></text></svg>