<?xml version="1.0" standalone="no"?><!DOCTYPE svg PUBLIC "-//W3C//DTD SVG 1.1//EN" "http://www.w3.org/Graphics/SVG/1.1/DTD/svg11.dtd"><svg xmlns:xlink="http://www.w3.org/1999/xlink" version="1.1" class="highcharts-root" style="font-family:Arial;font-size:10px;" xmlns="http://www.w3.org/2000/svg" viewBox="0 0 485 415"><desc>Created with Highstock 6.1.1</desc><defs><clipPath id="highcharts-xmr02du-6"><rect x="0" y="0" width="202" height="89" fill="none"></rect></clipPath><clipPath id="highcharts-xmr02du-7"><rect x="0" y="0" width="202" height="89" fill="none"></rect></clipPath></defs><rect fill="#fbfbfb" class="highcharts-background" x="0" y="0" width="320" height="208" rx="0" ry="0"></rect><rect fill="none" class="highcharts-plot-background" x="45" y="77" width="202" height="89"></rect><g class="highcharts-pane-group" data-z-index="0"></g><g class="highcharts-grid highcharts-xaxis-grid " data-z-index="1"><path fill="none" data-z-index="1" class="highcharts-grid-line" d="M 206.5 77 L 206.5 166" opacity="1"></path><path fill="none" data-z-index="1" class="highcharts-grid-line" d="M 165.5 77 L 165.5 166" opacity="1"></path><path fill="none" data-z-index="1" class="highcharts-grid-line" d="M 125.5 77 L 125.5 166" opacity="1"></path><path fill="none" data-z-index="1" class="highcharts-grid-line" d="M 84.5 77 L 84.5 166" opacity="1"></path><path fill="none" data-z-index="1" class="highcharts-grid-line" d="M 44.5 77 L 44.5 166" opacity="1"></path><path fill="none" data-z-index="1" class="highcharts-grid-line" d="M 246.5 77 L 246.5 166" opacity="1"></path></g><g class="highcharts-grid highcharts-yaxis-grid " data-z-index="1"><path fill="none" stroke="#B9CFD7" stroke-width="0.5" data-z-index="1" class="highcharts-grid-line" d="M 45 166.25 L 247 166.25" opacity="1"></path><path fill="none" stroke="#B9CFD7" stroke-width="0.5" data-z-index="1" class="highcharts-grid-line" d="M 45 148.25 L 247 148.25" opacity="1"></path><path fill="none" stroke="#B9CFD7" stroke-width="0.5" data-z-index="1" class="highcharts-grid-line" d="M 45 130.25 L 247 130.25" opacity="1"></path><path fill="none" stroke="#B9CFD7" stroke-width="0.5" data-z-index="1" class="highcharts-grid-line" d="M 45 113.25 L 247 113.25" opacity="1"></path><path fill="none" stroke="#B9CFD7" stroke-width="0.5" data-z-index="1" class="highcharts-grid-line" d="M 45 95.25 L 247 95.25" opacity="1"></path><path fill="none" stroke="#B9CFD7" stroke-width="0.5" data-z-index="1" class="highcharts-grid-line" d="M 45 77.25 L 247 77.25" opacity="1"></path></g><rect fill="none" class="highcharts-plot-border" data-z-index="1" x="45" y="77" width="202" height="89"></rect><g class="highcharts-axis highcharts-xaxis " data-z-index="2"><path fill="none" class="highcharts-axis-line" stroke="#B9CFD7" stroke-width="0.5" data-z-index="7" d="M 45 166.25 L 247 166.25"></path></g><g class="highcharts-axis highcharts-yaxis " data-z-index="2"><path fill="none" class="highcharts-axis-line" data-z-index="7" d="M 45 77 L 45 166"></path></g><g class="highcharts-series-group" data-z-index="3"><g data-z-index="0.1" class="highcharts-series highcharts-series-0 highcharts-column-series " transform="translate(45,77) scale(1 1)" clip-path="url(#highcharts-xmr02du-7)"><rect x="166" y="0" width="33" height="2" fill="#b00000" class="highcharts-point"></rect><rect x="125" y="0" width="33" height="2" fill="#b00000" class="highcharts-point"></rect><rect x="85" y="0" width="33" height="2" fill="#b00000" class="highcharts-point"></rect><rect x="44" y="0" width="33" height="2" fill="#b00000" class="highcharts-point"></rect><rect x="4" y="0" width="33" height="2" fill="#b00000" class="highcharts-point"></rect></g><g data-z-index="0.1" class="highcharts-markers highcharts-series-0 highcharts-column-series " transform="translate(45,77) scale(1 1)" clip-path="none"></g><g data-z-index="0.1" class="highcharts-series highcharts-series-1 highcharts-column-series " transform="translate(45,77) scale(1 1)" clip-path="url(#highcharts-xmr02du-7)"><rect x="166" y="2" width="33" height="0" fill="#dc440e" class="highcharts-point"></rect><rect x="125" y="2" width="33" height="0" fill="#dc440e" class="highcharts-point"></rect><rect x="85" y="2" width="33" height="0" fill="#dc440e" class="highcharts-point"></rect><rect x="44" y="2" width="33" height="0" fill="#dc440e" class="highcharts-point"></rect><rect x="4" y="2" width="33" height="0" fill="#dc440e" class="highcharts-point"></rect></g><g data-z-index="0.1" class="highcharts-markers highcharts-series-1 highcharts-column-series " transform="translate(45,77) scale(1 1)" clip-path="none"></g><g data-z-index="0.1" class="highcharts-series highcharts-series-2 highcharts-column-series " transform="translate(45,77) scale(1 1)" clip-path="url(#highcharts-xmr02du-7)"><rect x="166" y="2" width="33" height="1" fill="#ff8028" class="highcharts-point"></rect><rect x="125" y="2" width="33" height="1" fill="#ff8028" class="highcharts-point"></rect><rect x="85" y="2" width="33" height="1" fill="#ff8028" class="highcharts-point"></rect><rect x="44" y="2" width="33" height="1" fill="#ff8028" class="highcharts-point"></rect><rect x="4" y="2" width="33" height="1" fill="#ff8028" class="highcharts-point"></rect></g><g data-z-index="0.1" class="highcharts-markers highcharts-series-2 highcharts-column-series " transform="translate(45,77) scale(1 1)" clip-path="none"></g><g data-z-index="0.1" class="highcharts-series highcharts-series-3 highcharts-column-series " transform="translate(45,77) scale(1 1)" clip-path="url(#highcharts-xmr02du-7)"><rect x="166" y="3" width="33" height="1" fill="#ffbb58" class="highcharts-point"></rect><rect x="125" y="3" width="33" height="2" fill="#ffbb58" class="highcharts-point"></rect><rect x="85" y="3" width="33" height="1" fill="#ffbb58" class="highcharts-point"></rect><rect x="44" y="3" width="33" height="1" fill="#ffbb58" class="highcharts-point"></rect><rect x="4" y="3" width="33" height="1" fill="#ffbb58" class="highcharts-point"></rect></g><g data-z-index="0.1" class="highcharts-markers highcharts-series-3 highcharts-column-series " transform="translate(45,77) scale(1 1)" clip-path="none"></g><g data-z-index="0.1" class="highcharts-series highcharts-series-4 highcharts-column-series " transform="translate(45,77) scale(1 1)" clip-path="url(#highcharts-xmr02du-7)"><rect x="166" y="4" width="33" height="8" fill="#71a3b5" class="highcharts-point"></rect><rect x="125" y="5" width="33" height="8" fill="#71a3b5" class="highcharts-point"></rect><rect x="85" y="4" width="33" height="7" fill="#71a3b5" class="highcharts-point"></rect><rect x="44" y="4" width="33" height="6" fill="#71a3b5" class="highcharts-point"></rect><rect x="4" y="4" width="33" height="5" fill="#71a3b5" class="highcharts-point"></rect></g><g data-z-index="0.1" class="highcharts-markers highcharts-series-4 highcharts-column-series " transform="translate(45,77) scale(1 1)" clip-path="none"></g><g data-z-index="0.1" class="highcharts-series highcharts-series-5 highcharts-column-series " transform="translate(45,77) scale(1 1)" clip-path="url(#highcharts-xmr02du-7)"><rect x="166" y="12" width="33" height="9" fill="#b9cfd7" class="highcharts-point"></rect><rect x="125" y="13" width="33" height="8" fill="#b9cfd7" class="highcharts-point"></rect><rect x="85" y="11" width="33" height="8" fill="#b9cfd7" class="highcharts-point"></rect><rect x="44" y="10" width="33" height="5" fill="#b9cfd7" class="highcharts-point"></rect><rect x="4" y="9" width="33" height="6" fill="#b9cfd7" class="highcharts-point"></rect></g><g data-z-index="0.1" class="highcharts-markers highcharts-series-5 highcharts-column-series " transform="translate(45,77) scale(1 1)" clip-path="none"></g><g data-z-index="0.1" class="highcharts-series highcharts-series-6 highcharts-column-series " transform="translate(45,77) scale(1 1)" clip-path="url(#highcharts-xmr02du-7)"><rect x="166" y="21" width="33" height="21" fill="#d7e9d2" class="highcharts-point"></rect><rect x="125" y="21" width="33" height="22" fill="#d7e9d2" class="highcharts-point"></rect><rect x="85" y="19" width="33" height="21" fill="#d7e9d2" class="highcharts-point"></rect><rect x="44" y="15" width="33" height="19" fill="#d7e9d2" class="highcharts-point"></rect><rect x="4" y="15" width="33" height="16" fill="#d7e9d2" class="highcharts-point"></rect></g><g data-z-index="0.1" class="highcharts-markers highcharts-series-6 highcharts-column-series " transform="translate(45,77) scale(1 1)" clip-path="none"></g><g data-z-index="0.1" class="highcharts-series highcharts-series-7 highcharts-column-series " transform="translate(45,77) scale(1 1)" clip-path="url(#highcharts-xmr02du-7)"><rect x="166" y="42" width="33" height="34" fill="#73ba7c" class="highcharts-point"></rect><rect x="125" y="43" width="33" height="32" fill="#73ba7c" class="highcharts-point"></rect><rect x="85" y="40" width="33" height="34" fill="#73ba7c" class="highcharts-point"></rect><rect x="44" y="34" width="33" height="34" fill="#73ba7c" class="highcharts-point"></rect><rect x="4" y="31" width="33" height="35" fill="#73ba7c" class="highcharts-point"></rect></g><g data-z-index="0.1" class="highcharts-markers highcharts-series-7 highcharts-column-series " transform="translate(45,77) scale(1 1)" clip-path="none"></g><g data-z-index="0.1" class="highcharts-series highcharts-series-8 highcharts-column-series " transform="translate(45,77) scale(1 1)" clip-path="url(#highcharts-xmr02du-7)"><rect x="166" y="76" width="33" height="6" fill="#44ab2b" class="highcharts-point"></rect><rect x="125" y="75" width="33" height="9" fill="#44ab2b" class="highcharts-point"></rect><rect x="85" y="74" width="33" height="9" fill="#44ab2b" class="highcharts-point"></rect><rect x="44" y="68" width="33" height="10" fill="#44ab2b" class="highcharts-point"></rect><rect x="4" y="66" width="33" height="13" fill="#44ab2b" class="highcharts-point"></rect></g><g data-z-index="0.1" class="highcharts-markers highcharts-series-8 highcharts-column-series " transform="translate(45,77) scale(1 1)" clip-path="none"></g><g data-z-index="0.1" class="highcharts-series highcharts-series-9 highcharts-column-series " transform="translate(45,77) scale(1 1)" clip-path="url(#highcharts-xmr02du-7)"><rect x="166" y="82" width="33" height="8" fill="#007a2f" class="highcharts-point"></rect><rect x="125" y="84" width="33" height="6" fill="#007a2f" class="highcharts-point"></rect><rect x="85" y="83" width="33" height="7" fill="#007a2f" class="highcharts-point"></rect><rect x="44" y="78" width="33" height="12" fill="#007a2f" class="highcharts-point"></rect><rect x="4" y="79" width="33" height="11" fill="#007a2f" class="highcharts-point"></rect></g><g data-z-index="0.1" class="highcharts-markers highcharts-series-9 highcharts-column-series " transform="translate(45,77) scale(1 1)" clip-path="none"></g></g><text x="160" text-anchor="middle" class="highcharts-title" data-z-index="4" style="color:#333333;font-size:18px;fill:#333333;" y="29"><tspan>Bewertung der Lebensqualität</tspan></text><text x="160" text-anchor="middle" class="highcharts-subtitle" data-z-index="4" style="color:#666666;fill:#666666;" y="48"><tspan>«Wie würden Sie die Lebensqualität im Kanton Basel-</tspan><tspan dy="13" x="160">Stadt insgesamt bewerten?»</tspan></text><g class="highcharts-legend" data-z-index="7" transform="translate(259,15)"><rect fill="none" class="highcharts-legend-box" rx="0" ry="0" x="0" y="0" width="58" height="165" visibility="visible"></rect><g data-z-index="1"><g><g class="highcharts-legend-item highcharts-column-series highcharts-color-undefined highcharts-series-0" data-z-index="1" transform="translate(0,-5)"><text x="21" style="color:#333333;font-size:10px;font-weight:normal;cursor:pointer;font-family:Arial;whitespace:nowrap;fill:#333333;" text-anchor="start" data-z-index="2" y="13"><tspan>Note 1</tspan></text><rect x="3" y="4" width="10" height="10" fill="#b00000" class="highcharts-point" data-z-index="3"></rect></g><g class="highcharts-legend-item highcharts-column-series highcharts-color-undefined highcharts-series-1" data-z-index="1" transform="translate(0,12)"><text x="21" y="13" style="color:#333333;font-size:10px;font-weight:normal;cursor:pointer;font-family:Arial;whitespace:nowrap;fill:#333333;" text-anchor="start" data-z-index="2"><tspan>Note 2</tspan></text><rect x="3" y="4" width="10" height="10" fill="#dc440e" class="highcharts-point" data-z-index="3"></rect></g><g class="highcharts-legend-item highcharts-column-series highcharts-color-undefined highcharts-series-2" data-z-index="1" transform="translate(0,29)"><text x="21" y="13" style="color:#333333;font-size:10px;font-weight:normal;cursor:pointer;font-family:Arial;whitespace:nowrap;fill:#333333;" text-anchor="start" data-z-index="2"><tspan>Note 3</tspan></text><rect x="3" y="4" width="10" height="10" fill="#ff8028" class="highcharts-point" data-z-index="3"></rect></g><g class="highcharts-legend-item highcharts-column-series highcharts-color-undefined highcharts-series-3" data-z-index="1" transform="translate(0,46)"><text x="21" y="13" style="color:#333333;font-size:10px;font-weight:normal;cursor:pointer;font-family:Arial;whitespace:nowrap;fill:#333333;" text-anchor="start" data-z-index="2"><tspan>Note 4</tspan></text><rect x="3" y="4" width="10" height="10" fill="#ffbb58" class="highcharts-point" data-z-index="3"></rect></g><g class="highcharts-legend-item highcharts-column-series highcharts-color-undefined highcharts-series-4" data-z-index="1" transform="translate(0,63)"><text x="21" y="13" style="color:#333333;font-size:10px;font-weight:normal;cursor:pointer;font-family:Arial;whitespace:nowrap;fill:#333333;" text-anchor="start" data-z-index="2"><tspan>Note 5</tspan></text><rect x="3" y="4" width="10" height="10" fill="#71a3b5" class="highcharts-point" data-z-index="3"></rect></g><g class="highcharts-legend-item highcharts-column-series highcharts-color-undefined highcharts-series-5" data-z-index="1" transform="translate(0,80)"><text x="21" y="13" style="color:#333333;font-size:10px;font-weight:normal;cursor:pointer;font-family:Arial;whitespace:nowrap;fill:#333333;" text-anchor="start" data-z-index="2"><tspan>Note 6</tspan></text><rect x="3" y="4" width="10" height="10" fill="#b9cfd7" class="highcharts-point" data-z-index="3"></rect></g><g class="highcharts-legend-item highcharts-column-series highcharts-color-undefined highcharts-series-6" data-z-index="1" transform="translate(0,97)"><text x="21" y="13" style="color:#333333;font-size:10px;font-weight:normal;cursor:pointer;font-family:Arial;whitespace:nowrap;fill:#333333;" text-anchor="start" data-z-index="2"><tspan>Note 7</tspan></text><rect x="3" y="4" width="10" height="10" fill="#d7e9d2" class="highcharts-point" data-z-index="3"></rect></g><g class="highcharts-legend-item highcharts-column-series highcharts-color-undefined highcharts-series-7" data-z-index="1" transform="translate(0,114)"><text x="21" y="13" style="color:#333333;font-size:10px;font-weight:normal;cursor:pointer;font-family:Arial;whitespace:nowrap;fill:#333333;" text-anchor="start" data-z-index="2"><tspan>Note 8</tspan></text><rect x="3" y="4" width="10" height="10" fill="#73ba7c" class="highcharts-point" data-z-index="3"></rect></g><g class="highcharts-legend-item highcharts-column-series highcharts-color-undefined highcharts-series-8" data-z-index="1" transform="translate(0,131)"><text x="21" y="13" style="color:#333333;font-size:10px;font-weight:normal;cursor:pointer;font-family:Arial;whitespace:nowrap;fill:#333333;" text-anchor="start" data-z-index="2"><tspan>Note 9</tspan></text><rect x="3" y="4" width="10" height="10" fill="#44ab2b" class="highcharts-point" data-z-index="3"></rect></g><g class="highcharts-legend-item highcharts-column-series highcharts-color-undefined highcharts-series-9" data-z-index="1" transform="translate(0,148)"><text x="21" y="13" style="color:#333333;font-size:10px;font-weight:normal;cursor:pointer;font-family:Arial;whitespace:nowrap;fill:#333333;" text-anchor="start" data-z-index="2"><tspan>Note 10</tspan></text><rect x="3" y="4" width="10" height="10" fill="#007a2f" class="highcharts-point" data-z-index="3"></rect></g></g></g></g><g class="highcharts-axis-labels highcharts-xaxis-labels " data-z-index="7"><text x="226.79999999999998" style="color:#000000;cursor:default;font-size:10px;white-space:nowrap;fill:#000000;" text-anchor="middle" transform="translate(0,0)" y="184" opacity="1"><tspan>2003</tspan><tspan x="226.79999999999998" dy="13">(N=99.99999999999501)</tspan></text><text x="186.39999999999998" style="color:#000000;cursor:default;font-size:10px;white-space:nowrap;fill:#000000;" text-anchor="middle" transform="translate(0,0)" y="184" opacity="1"><tspan>2005</tspan><tspan x="186.39999999999998" dy="13">(N=99.999999999998)</tspan></text><text x="146" style="color:#000000;cursor:default;font-size:10px;white-space:nowrap;fill:#000000;" text-anchor="middle" transform="translate(0,0)" y="184" opacity="1"><tspan>2007</tspan><tspan x="146" dy="13">(N=99.999999999996)</tspan></text><text x="105.60000000000001" style="color:#000000;cursor:default;font-size:10px;white-space:nowrap;fill:#000000;" text-anchor="middle" transform="translate(0,0)" y="184" opacity="1"><tspan>2011</tspan><tspan x="105.60000000000001" dy="13">(N=99.999999999995)</tspan></text><text x="65.2" style="color:#000000;cursor:default;font-size:10px;white-space:nowrap;fill:#000000;" text-anchor="middle" transform="translate(0,0)" y="184" opacity="1"><tspan>2015</tspan><tspan x="65.2" dy="13">(N=99.999999999995)</tspan></text></g><g class="highcharts-axis-labels highcharts-yaxis-labels " data-z-index="7"><text x="30" style="color:#000000;cursor:default;font-size:10px;fill:#000000;" text-anchor="end" transform="translate(0,0)" y="169" opacity="1">0%</text><text x="30" style="color:#000000;cursor:default;font-size:10px;fill:#000000;" text-anchor="end" transform="translate(0,0)" y="151" opacity="1">20%</text><text x="30" style="color:#000000;cursor:default;font-size:10px;fill:#000000;" text-anchor="end" transform="translate(0,0)" y="133" opacity="1">40%</text><text x="30" style="color:#000000;cursor:default;font-size:10px;fill:#000000;" text-anchor="end" transform="translate(0,0)" y="116" opacity="1">60%</text><text x="30" style="color:#000000;cursor:default;font-size:10px;fill:#000000;" text-anchor="end" transform="translate(0,0)" y="98" opacity="1">80%</text><text x="30" style="color:#000000;cursor:default;font-size:10px;fill:#000000;" text-anchor="end" transform="translate(0,0)" y="80" opacity="1">100%</text></g><text x="310" class="highcharts-credits" text-anchor="end" data-z-index="8" style="cursor:pointer;color:#999999;font-size:9px;fill:#999999;" y="193"><tspan>Quelle: Statistisches Amt Basel-Stadt, kantonale Bevölkerungsbefragung: F4.</tspan></text></svg>