<?xml version="1.0" standalone="no"?><!DOCTYPE svg PUBLIC "-//W3C//DTD SVG 1.1//EN" "http://www.w3.org/Graphics/SVG/1.1/DTD/svg11.dtd"><svg xmlns:xlink="http://www.w3.org/1999/xlink" version="1.1" class="highcharts-root" style="font-family:Arial;font-size:12px;" xmlns="http://www.w3.org/2000/svg" viewBox="0 0 485 415"><desc>Created with Highstock 6.1.0</desc><defs><clipPath id="highcharts-yfivn6s-6"><rect x="0" y="0" width="316" height="144" fill="none"></rect></clipPath></defs><rect fill="#fbfbfb" class="highcharts-background" x="0" y="0" width="320" height="221" rx="0" ry="0"></rect><rect fill="none" class="highcharts-plot-background" x="2" y="65" width="316" height="144"></rect><g class="highcharts-pane-group"></g><rect fill="none" class="highcharts-plot-border" x="2" y="65" width="316" height="144"></rect><g class="highcharts-series-group"><g class="highcharts-series highcharts-series-0 highcharts-pie-series " transform="translate(2,65) scale(1 1)"><path fill="#B00000" d="M 157.9873722613709 10.000001285966007 A 62 62 0 1 1 108.18107250684508 108.90629300582452 L 158 72 A 0 0 0 1 0 158 72 Z" transform="translate(0,0)" stroke-linejoin="round" class="highcharts-point highcharts-color-0"></path><path fill="#FF8028" d="M 108.14419112945198 108.85645563348957 A 62 62 0 0 1 142.39744577958885 11.995331000003588 L 158 72 A 0 0 0 0 0 158 72 Z" transform="translate(0,0)" stroke-linejoin="round" class="highcharts-point highcharts-color-1"></path><path fill="#E6E600" d="M 142.45745823986454 11.9797584507156 A 62 62 0 0 1 156.4260523233972 10.019981536697514 L 158 72 A 0 0 0 0 0 158 72 Z" transform="translate(0,0)" stroke-linejoin="round" class="highcharts-point highcharts-color-2"></path><path fill="#68AB2B " d="M 156.48803311850426 10.018438579289885 A 62 62 0 0 1 157.60388591099684 10.001265386876696 L 158 72 A 0 0 0 0 0 158 72 Z" transform="translate(0,0)" stroke-linejoin="round" class="highcharts-point highcharts-color-3"></path><path fill="#008AC3" d="M 157.6658848333339 10.000900272218438 A 62 62 0 0 1 157.91388324383956 10.000059807252164 L 158 72 A 0 0 0 0 0 158 72 Z" transform="translate(0,0)" stroke-linejoin="round" class="highcharts-point highcharts-color-4"></path></g><g class="highcharts-markers highcharts-series-0 highcharts-pie-series " transform="translate(2,65) scale(1 1)"></g></g><text x="2" text-anchor="start" class="highcharts-title" style="color:#000000;font-size:10px;font-weight:bold;fill:#000000;" y="9"><tspan>Anteil Einwohner pro ÖV-Güteklasse</tspan></text><text x="2" text-anchor="start" class="highcharts-subtitle" style="color:#000000;font-size:10px;font-weight:normal;font-family:Arial;fill:#000000;" y="27"></text><g class="highcharts-data-labels highcharts-series-0 highcharts-pie-series " visibility="visible" transform="translate(2,65) scale(1 1)"><path fill="none" class="highcharts-data-label-connector highcharts-color-0" stroke="#B00000" stroke-width="1" d="M 236.22222247522768 108.91214076409362 L 216.93495955323203 101.70977183451437 L 213.36314382273312 99.90917960211956"></path><path fill="none" class="highcharts-data-label-connector highcharts-color-1" stroke="#FF8028" stroke-width="1" d="M 75.23111161910568 46 L 95.78182354727925 49.979588584722 L 99.5526221201714 51.31415897352673"></path><path fill="none" class="highcharts-data-label-connector highcharts-color-2" stroke="#E6E600" stroke-width="1" d="M 87.25047528688896 23 L 148.85319796097036 6.636891043503731 L 149.40754959969942 10.598291586321686"></path><path fill="none" class="highcharts-data-label-connector highcharts-color-3" stroke="#68AB2B " stroke-width="1" d="M 151.77474521414248 0 L 157.0138193187004 6.007368232022815 L 157.07358784483978 10.00692167250628"></path><path fill="none" class="highcharts-data-label-connector highcharts-color-4" stroke="#008AC3" stroke-width="1" d="M 152.78077718930544 -9.999706958984131 L 157.82355237188128 6.000235862281065 L 157.83424616752484 10.000221567597364" visibility="hidden"></path><g class="highcharts-label highcharts-data-label highcharts-data-label-color-0 " style="cursor:true;" transform="translate(241,99)"><text x="5" style="font-size:10px;font-weight:normal;color:black;fill:black;" y="15"><tspan x="5" y="15" class="highcharts-text-outline" fill="#FFFFFF" stroke="#FFFFFF" stroke-width="2px" stroke-linejoin="round" style="">64.9%</tspan><tspan x="5" y="15">64.9%</tspan></text></g><g class="highcharts-label highcharts-data-label highcharts-data-label-color-1 " style="cursor:true;" transform="translate(32,36)"><text x="5" style="font-size:10px;font-weight:normal;color:black;fill:black;" y="15"><tspan x="5" y="15" class="highcharts-text-outline" fill="#FFFFFF" stroke="#FFFFFF" stroke-width="2px" stroke-linejoin="round">31.1%</tspan><tspan x="5" y="15">31.1%</tspan></text></g><g class="highcharts-label highcharts-data-label highcharts-data-label-color-2 " style="cursor:true;" transform="translate(50,13)"><text x="5" style="font-size:10px;font-weight:normal;color:black;fill:black;" y="15"><tspan x="5" y="15" class="highcharts-text-outline" fill="#FFFFFF" stroke="#FFFFFF" stroke-width="2px" stroke-linejoin="round" style="">3.6%</tspan><tspan x="5" y="15">3.6%</tspan></text></g><g class="highcharts-label highcharts-data-label highcharts-data-label-color-3 " style="cursor:true;" transform="translate(114,-10)"><text x="5" style="font-size:10px;font-weight:normal;color:black;fill:black;" y="15"><tspan x="5" y="15" class="highcharts-text-outline" fill="#FFFFFF" stroke="#FFFFFF" stroke-width="2px" stroke-linejoin="round">0.3%</tspan><tspan x="5" y="15">0.3%</tspan></text></g><g class="highcharts-label highcharts-data-label highcharts-data-label-color-4 " style="cursor:true;" transform="translate(115,-20)" visibility="hidden"><text x="5" style="font-size:10px;font-weight:normal;color:black;fill:black;" y="15"><tspan x="5" y="15" class="highcharts-text-outline" fill="#FFFFFF" stroke="#FFFFFF" stroke-width="2px" stroke-linejoin="round">0.1%</tspan><tspan x="5" y="15">0.1%</tspan></text></g></g><g class="highcharts-legend" transform="translate(19,30)"><rect fill="none" class="highcharts-legend-box" rx="0" ry="0" x="0" y="0" width="282" height="23" visibility="visible"></rect><g><g><g class="highcharts-legend-item highcharts-pie-series highcharts-color-0" transform="translate(0,-5)"><text x="21" style="color:#333333;font-size:10px;font-weight:normal;cursor:pointer;fill:#333333;" text-anchor="start" y="13"><tspan>Güteklasse A</tspan></text><rect x="3" y="4" width="10" height="10" fill="#B00000" class="highcharts-point"></rect></g><g class="highcharts-legend-item highcharts-pie-series highcharts-color-1" transform="translate(100.921875,-5)"><text x="21" y="13" style="color:#333333;font-size:10px;font-weight:normal;cursor:pointer;fill:#333333;" text-anchor="start"><tspan>Güteklasse B</tspan></text><rect x="3" y="4" width="10" height="10" fill="#FF8028" class="highcharts-point"></rect></g><g class="highcharts-legend-item highcharts-pie-series highcharts-color-2" transform="translate(201.84375,-5)"><text x="21" y="13" style="color:#333333;font-size:10px;font-weight:normal;cursor:pointer;fill:#333333;" text-anchor="start"><tspan>Güteklasse C</tspan></text><rect x="3" y="4" width="10" height="10" fill="#E6E600" class="highcharts-point"></rect></g><g class="highcharts-legend-item highcharts-pie-series highcharts-color-3" transform="translate(0,9)"><text x="21" y="13" style="color:#333333;font-size:10px;font-weight:normal;cursor:pointer;fill:#333333;" text-anchor="start"><tspan>Güteklasse D</tspan></text><rect x="3" y="4" width="10" height="10" fill="#68AB2B " class="highcharts-point"></rect></g><g class="highcharts-legend-item highcharts-pie-series highcharts-color-4" transform="translate(100.921875,9)"><text x="21" y="13" style="color:#333333;font-size:10px;font-weight:normal;cursor:pointer;fill:#333333;" text-anchor="start"><tspan>Güteklasse E</tspan></text><rect x="3" y="4" width="10" height="10" fill="#008AC3" class="highcharts-point"></rect></g></g></g></g><text x="10" class="highcharts-credits" text-anchor="start" style="cursor:default;color:#000000;font-size:10px;fill:#000000;" y="196"><tspan>Quelle: Amt für Mobilität Basel-Stadt</tspan><tspan x="10" dy="13">Zuletzt geändert: 6/26/2017</tspan></text></svg>