<?xml version="1.0" standalone="no"?><!DOCTYPE svg PUBLIC "-//W3C//DTD SVG 1.1//EN" "http://www.w3.org/Graphics/SVG/1.1/DTD/svg11.dtd"><svg xmlns:xlink="http://www.w3.org/1999/xlink" version="1.1" class="highcharts-root" style="font-family:&quot;Lucida Grande&quot;, &quot;Lucida Sans Unicode&quot;, Arial, Helvetica, sans-serif;font-size:10px;color:#000000;fill:#000000;" xmlns="http://www.w3.org/2000/svg" viewBox="0 0 485 415"><desc>Created with Highstock 6.1.1</desc><defs><clipPath id="highcharts-fflmz20-6"><rect x="0" y="0" width="184" height="422" fill="none"></rect></clipPath><clipPath id="highcharts-fflmz20-7"><rect x="0" y="0" width="184" height="422" fill="none"></rect></clipPath></defs><rect fill="#fbfbfb" class="highcharts-background" x="0" y="0" width="665" height="208" rx="0" ry="0"></rect><rect fill="none" class="highcharts-plot-background" x="122" y="6" width="422" height="184"></rect><g class="highcharts-pane-group" data-z-index="0"></g><g class="highcharts-grid highcharts-xaxis-grid " data-z-index="1"><path fill="none" data-z-index="1" class="highcharts-grid-line" d="M 122 20.5 L 544 20.5" opacity="1"></path><path fill="none" data-z-index="1" class="highcharts-grid-line" d="M 122 34.5 L 544 34.5" opacity="1"></path><path fill="none" data-z-index="1" class="highcharts-grid-line" d="M 122 48.5 L 544 48.5" opacity="1"></path><path fill="none" data-z-index="1" class="highcharts-grid-line" d="M 122 63.5 L 544 63.5" opacity="1"></path><path fill="none" data-z-index="1" class="highcharts-grid-line" d="M 122 77.5 L 544 77.5" opacity="1"></path><path fill="none" data-z-index="1" class="highcharts-grid-line" d="M 122 91.5 L 544 91.5" opacity="1"></path><path fill="none" data-z-index="1" class="highcharts-grid-line" d="M 122 105.5 L 544 105.5" opacity="1"></path><path fill="none" data-z-index="1" class="highcharts-grid-line" d="M 122 119.5 L 544 119.5" opacity="1"></path><path fill="none" data-z-index="1" class="highcharts-grid-line" d="M 122 133.5 L 544 133.5" opacity="1"></path><path fill="none" data-z-index="1" class="highcharts-grid-line" d="M 122 148.5 L 544 148.5" opacity="1"></path><path fill="none" data-z-index="1" class="highcharts-grid-line" d="M 122 162.5 L 544 162.5" opacity="1"></path><path fill="none" data-z-index="1" class="highcharts-grid-line" d="M 122 176.5 L 544 176.5" opacity="1"></path><path fill="none" data-z-index="1" class="highcharts-grid-line" d="M 122 190.5 L 544 190.5" opacity="1"></path><path fill="none" data-z-index="1" class="highcharts-grid-line" d="M 122 6.5 L 544 6.5" opacity="1"></path></g><g class="highcharts-grid highcharts-yaxis-grid " data-z-index="1"><path fill="none" stroke="#B9CFD7" stroke-width="0.5" data-z-index="1" class="highcharts-grid-line" d="M 121.75 6 L 121.75 190" opacity="1"></path><path fill="none" stroke="#B9CFD7" stroke-width="0.5" data-z-index="1" class="highcharts-grid-line" d="M 163.75 6 L 163.75 190" opacity="1"></path><path fill="none" stroke="#B9CFD7" stroke-width="0.5" data-z-index="1" class="highcharts-grid-line" d="M 205.75 6 L 205.75 190" opacity="1"></path><path fill="none" stroke="#B9CFD7" stroke-width="0.5" data-z-index="1" class="highcharts-grid-line" d="M 248.75 6 L 248.75 190" opacity="1"></path><path fill="none" stroke="#B9CFD7" stroke-width="0.5" data-z-index="1" class="highcharts-grid-line" d="M 290.75 6 L 290.75 190" opacity="1"></path><path fill="none" stroke="#B9CFD7" stroke-width="0.5" data-z-index="1" class="highcharts-grid-line" d="M 332.75 6 L 332.75 190" opacity="1"></path><path fill="none" stroke="#B9CFD7" stroke-width="0.5" data-z-index="1" class="highcharts-grid-line" d="M 374.75 6 L 374.75 190" opacity="1"></path><path fill="none" stroke="#B9CFD7" stroke-width="0.5" data-z-index="1" class="highcharts-grid-line" d="M 416.75 6 L 416.75 190" opacity="1"></path><path fill="none" stroke="#B9CFD7" stroke-width="0.5" data-z-index="1" class="highcharts-grid-line" d="M 459.75 6 L 459.75 190" opacity="1"></path><path fill="none" stroke="#B9CFD7" stroke-width="0.5" data-z-index="1" class="highcharts-grid-line" d="M 501.75 6 L 501.75 190" opacity="1"></path><path fill="none" stroke="#B9CFD7" stroke-width="0.5" data-z-index="1" class="highcharts-grid-line" d="M 544.25 6 L 544.25 190" opacity="1"></path></g><rect fill="none" class="highcharts-plot-border" data-z-index="1" x="122" y="6" width="422" height="184"></rect><g class="highcharts-axis highcharts-xaxis " data-z-index="2"><path fill="none" class="highcharts-axis-line" stroke="#B9CFD7" stroke-width="0.5" data-z-index="7" d="M 121.75 6 L 121.75 190"></path></g><g class="highcharts-axis highcharts-yaxis " data-z-index="2"><path fill="none" class="highcharts-axis-line" data-z-index="7" d="M 122 190 L 544 190"></path></g><g class="highcharts-series-group" data-z-index="3"><g data-z-index="0.1" class="highcharts-series highcharts-series-0 highcharts-column-series " transform="translate(544,190) rotate(90) scale(-1,1) scale(1 1)" clip-path="url(#highcharts-fflmz20-7)" width="422" height="184"><rect x="171" y="0" width="12" height="5" fill="#C8C8C8" class="highcharts-point"></rect><rect x="157" y="0" width="12" height="3" fill="#C8C8C8" class="highcharts-point"></rect><rect x="143" y="0" width="12" height="6" fill="#C8C8C8" class="highcharts-point"></rect><rect x="129" y="0" width="12" height="11" fill="#C8C8C8" class="highcharts-point"></rect><rect x="115" y="0" width="12" height="40" fill="#C8C8C8" class="highcharts-point"></rect><rect x="100" y="0" width="12" height="25" fill="#C8C8C8" class="highcharts-point"></rect><rect x="86" y="0" width="12" height="12" fill="#C8C8C8" class="highcharts-point"></rect><rect x="72" y="0" width="12" height="2" fill="#C8C8C8" class="highcharts-point"></rect><rect x="58" y="0" width="12" height="4" fill="#C8C8C8" class="highcharts-point"></rect><rect x="44" y="0" width="12" height="84" fill="#C8C8C8" class="highcharts-point"></rect><rect x="30" y="0" width="12" height="108" fill="#C8C8C8" class="highcharts-point"></rect><rect x="16" y="0" width="12" height="63" fill="#C8C8C8" class="highcharts-point"></rect><rect x="1" y="0" width="12" height="115" fill="#C8C8C8" class="highcharts-point"></rect></g><g data-z-index="0.1" class="highcharts-markers highcharts-series-0 highcharts-column-series " transform="translate(544,190) rotate(90) scale(-1,1) scale(1 1)" clip-path="none"></g><g data-z-index="0.1" class="highcharts-series highcharts-series-1 highcharts-column-series " transform="translate(544,190) rotate(90) scale(-1,1) scale(1 1)" clip-path="url(#highcharts-fflmz20-7)" width="422" height="184"><rect x="171" y="5" width="12" height="1" fill="#CD9C00" class="highcharts-point"></rect><rect x="157" y="3" width="12" height="4" fill="#CD9C00" class="highcharts-point"></rect><rect x="143" y="6" width="12" height="6" fill="#CD9C00" class="highcharts-point"></rect><rect x="129" y="11" width="12" height="6" fill="#CD9C00" class="highcharts-point"></rect><rect x="115" y="40" width="12" height="3" fill="#CD9C00" class="highcharts-point"></rect><rect x="100" y="25" width="12" height="6" fill="#CD9C00" class="highcharts-point"></rect><rect x="86" y="12" width="12" height="10" fill="#CD9C00" class="highcharts-point"></rect><rect x="72" y="2" width="12" height="19" fill="#CD9C00" class="highcharts-point"></rect><rect x="58" y="4" width="12" height="15" fill="#CD9C00" class="highcharts-point"></rect><rect x="44" y="84" width="12" height="3" fill="#CD9C00" class="highcharts-point"></rect><rect x="30" y="108" width="12" height="9" fill="#CD9C00" class="highcharts-point"></rect><rect x="16" y="63" width="12" height="24" fill="#CD9C00" class="highcharts-point"></rect><rect x="1" y="115" width="12" height="69" fill="#CD9C00" class="highcharts-point"></rect></g><g data-z-index="0.1" class="highcharts-markers highcharts-series-1 highcharts-column-series " transform="translate(544,190) rotate(90) scale(-1,1) scale(1 1)" clip-path="none"></g><g data-z-index="0.1" class="highcharts-series highcharts-series-2 highcharts-column-series " transform="translate(544,190) rotate(90) scale(-1,1) scale(1 1)" clip-path="url(#highcharts-fflmz20-7)" width="422" height="184"><rect x="171" y="6" width="12" height="15" fill="#FABD24" class="highcharts-point"></rect><rect x="157" y="7" width="12" height="31" fill="#FABD24" class="highcharts-point"></rect><rect x="143" y="12" width="12" height="49" fill="#FABD24" class="highcharts-point"></rect><rect x="129" y="17" width="12" height="52" fill="#FABD24" class="highcharts-point"></rect><rect x="115" y="43" width="12" height="32" fill="#FABD24" class="highcharts-point"></rect><rect x="100" y="31" width="12" height="45" fill="#FABD24" class="highcharts-point"></rect><rect x="86" y="22" width="12" height="61" fill="#FABD24" class="highcharts-point"></rect><rect x="72" y="21" width="12" height="66" fill="#FABD24" class="highcharts-point"></rect><rect x="58" y="19" width="12" height="81" fill="#FABD24" class="highcharts-point"></rect><rect x="44" y="87" width="12" height="31" fill="#FABD24" class="highcharts-point"></rect><rect x="30" y="117" width="12" height="62" fill="#FABD24" class="highcharts-point"></rect><rect x="16" y="87" width="12" height="122" fill="#FABD24" class="highcharts-point"></rect><rect x="1" y="184" width="12" height="90" fill="#FABD24" class="highcharts-point"></rect></g><g data-z-index="0.1" class="highcharts-markers highcharts-series-2 highcharts-column-series " transform="translate(544,190) rotate(90) scale(-1,1) scale(1 1)" clip-path="none"></g><g data-z-index="0.1" class="highcharts-series highcharts-series-3 highcharts-column-series " transform="translate(544,190) rotate(90) scale(-1,1) scale(1 1)" clip-path="url(#highcharts-fflmz20-7)" width="422" height="184"><rect x="171" y="21" width="12" height="111" fill="#73B97C" class="highcharts-point"></rect><rect x="157" y="38" width="12" height="175" fill="#73B97C" class="highcharts-point"></rect><rect x="143" y="61" width="12" height="259" fill="#73B97C" class="highcharts-point"></rect><rect x="129" y="69" width="12" height="256" fill="#73B97C" class="highcharts-point"></rect><rect x="115" y="75" width="12" height="236" fill="#73B97C" class="highcharts-point"></rect><rect x="100" y="76" width="12" height="256" fill="#73B97C" class="highcharts-point"></rect><rect x="86" y="83" width="12" height="261" fill="#73B97C" class="highcharts-point"></rect><rect x="72" y="87" width="12" height="212" fill="#73B97C" class="highcharts-point"></rect><rect x="58" y="100" width="12" height="234" fill="#73B97C" class="highcharts-point"></rect><rect x="44" y="118" width="12" height="182" fill="#73B97C" class="highcharts-point"></rect><rect x="30" y="179" width="12" height="196" fill="#73B97C" class="highcharts-point"></rect><rect x="16" y="209" width="12" height="168" fill="#73B97C" class="highcharts-point"></rect><rect x="1" y="274" width="12" height="114" fill="#73B97C" class="highcharts-point"></rect></g><g data-z-index="0.1" class="highcharts-markers highcharts-series-3 highcharts-column-series " transform="translate(544,190) rotate(90) scale(-1,1) scale(1 1)" clip-path="none"></g><g data-z-index="0.1" class="highcharts-series highcharts-series-4 highcharts-column-series " transform="translate(544,190) rotate(90) scale(-1,1) scale(1 1)" clip-path="url(#highcharts-fflmz20-7)" width="422" height="184"><rect x="171" y="132" width="12" height="291" fill="#007A2F" class="highcharts-point"></rect><rect x="157" y="213" width="12" height="210" fill="#007A2F" class="highcharts-point"></rect><rect x="143" y="320" width="12" height="103" fill="#007A2F" class="highcharts-point"></rect><rect x="129" y="325" width="12" height="98" fill="#007A2F" class="highcharts-point"></rect><rect x="115" y="311" width="12" height="112" fill="#007A2F" class="highcharts-point"></rect><rect x="100" y="332" width="12" height="91" fill="#007A2F" class="highcharts-point"></rect><rect x="86" y="344" width="12" height="79" fill="#007A2F" class="highcharts-point"></rect><rect x="72" y="299" width="12" height="124" fill="#007A2F" class="highcharts-point"></rect><rect x="58" y="334" width="12" height="89" fill="#007A2F" class="highcharts-point"></rect><rect x="44" y="300" width="12" height="123" fill="#007A2F" class="highcharts-point"></rect><rect x="30" y="375" width="12" height="48" fill="#007A2F" class="highcharts-point"></rect><rect x="16" y="377" width="12" height="46" fill="#007A2F" class="highcharts-point"></rect><rect x="1" y="388" width="12" height="35" fill="#007A2F" class="highcharts-point"></rect></g><g data-z-index="0.1" class="highcharts-markers highcharts-series-4 highcharts-column-series " transform="translate(544,190) rotate(90) scale(-1,1) scale(1 1)" clip-path="none"></g></g><text x="333" text-anchor="middle" class="highcharts-title" data-z-index="4" style="color:#333333;font-size:18px;fill:#333333;" y="16"><tspan>Zufriedenheit mit verschiedenen Aspekten und Angeboten am</tspan><tspan dy="21" x="333">Wohnort</tspan></text><text x="333" text-anchor="middle" class="highcharts-subtitle" data-z-index="4" style="color:#666666;fill:#666666;" y="57"><tspan>«Wie zufrieden sind Sie mit den folgenden Aspekten an ihrem Wohnort?» Stand: 2015</tspan></text><g class="highcharts-legend" data-z-index="7" transform="translate(556,62)"><rect fill="none" class="highcharts-legend-box" rx="0" ry="0" x="0" y="0" width="107" height="85" visibility="visible"></rect><g data-z-index="1"><g><g class="highcharts-legend-item highcharts-column-series highcharts-color-undefined highcharts-series-0" data-z-index="1" transform="translate(0,-5)"><text x="21" style="color:#000000;font-size:10px;font-weight:normal;cursor:pointer;whitespace:nowrap;fill:#000000;" text-anchor="start" data-z-index="2" y="13"><tspan>Weiss nicht/k.A.</tspan></text><rect x="3" y="4" width="10" height="10" fill="#C8C8C8" class="highcharts-point" data-z-index="3"></rect></g><g class="highcharts-legend-item highcharts-column-series highcharts-color-undefined highcharts-series-1" data-z-index="1" transform="translate(0,13)"><text x="21" y="13" style="color:#000000;font-size:10px;font-weight:normal;cursor:pointer;whitespace:nowrap;fill:#000000;" text-anchor="start" data-z-index="2"><tspan>Ganz unzufrieden</tspan></text><rect x="3" y="4" width="10" height="10" fill="#CD9C00" class="highcharts-point" data-z-index="3"></rect></g><g class="highcharts-legend-item highcharts-column-series highcharts-color-undefined highcharts-series-2" data-z-index="1" transform="translate(0,31)"><text x="21" y="13" style="color:#000000;font-size:10px;font-weight:normal;cursor:pointer;whitespace:nowrap;fill:#000000;" text-anchor="start" data-z-index="2"><tspan>Eher unzufrieden</tspan></text><rect x="3" y="4" width="10" height="10" fill="#FABD24" class="highcharts-point" data-z-index="3"></rect></g><g class="highcharts-legend-item highcharts-column-series highcharts-color-undefined highcharts-series-3" data-z-index="1" transform="translate(0,49)"><text x="21" y="13" style="color:#000000;font-size:10px;font-weight:normal;cursor:pointer;whitespace:nowrap;fill:#000000;" text-anchor="start" data-z-index="2"><tspan>Eher zufrieden</tspan></text><rect x="3" y="4" width="10" height="10" fill="#73B97C" class="highcharts-point" data-z-index="3"></rect></g><g class="highcharts-legend-item highcharts-column-series highcharts-color-undefined highcharts-series-4" data-z-index="1" transform="translate(0,67)"><text x="21" y="13" style="color:#000000;font-size:10px;font-weight:normal;cursor:pointer;whitespace:nowrap;fill:#000000;" text-anchor="start" data-z-index="2"><tspan>Sehr zufrieden</tspan></text><rect x="3" y="4" width="10" height="10" fill="#007A2F" class="highcharts-point" data-z-index="3"></rect></g></g></g></g><g class="highcharts-axis-labels highcharts-xaxis-labels " data-z-index="7"><text x="107" style="color:#000000;cursor:default;font-size:10px;white-space:nowrap;fill:#000000;" text-anchor="end" transform="translate(0,0)" y="16" opacity="1"><tspan>ÖV-Angebot</tspan></text><text x="107" style="color:#000000;cursor:default;font-size:10px;white-space:nowrap;fill:#000000;" text-anchor="end" transform="translate(0,0)" y="30" opacity="1"><tspan>Grünanlagen</tspan></text><text x="107" style="color:#000000;cursor:default;font-size:10px;white-space:nowrap;fill:#000000;" text-anchor="end" transform="translate(0,0)" y="44" opacity="1"><tspan>Verkehrssicherheit</tspan></text><text x="107" style="color:#000000;cursor:default;font-size:10px;white-space:nowrap;fill:#000000;" text-anchor="end" transform="translate(0,0)" y="59" opacity="1"><tspan>Gebäude/Strassenbild</tspan></text><text x="107" style="color:#000000;cursor:default;font-size:10px;white-space:nowrap;fill:#000000;" text-anchor="end" transform="translate(0,0)" y="73" opacity="1"><tspan>Quartierleben</tspan></text><text x="107" style="color:#000000;cursor:default;font-size:10px;white-space:nowrap;fill:#000000;" text-anchor="end" transform="translate(0,0)" y="87" opacity="1"><tspan>Bevölkerung</tspan></text><text x="107" style="color:#000000;cursor:default;font-size:10px;white-space:nowrap;fill:#000000;" text-anchor="end" transform="translate(0,0)" y="101" opacity="1"><tspan>Luftqualität</tspan></text><text x="107" style="color:#000000;cursor:default;font-size:10px;white-space:nowrap;fill:#000000;" text-anchor="end" transform="translate(0,0)" y="115" opacity="1"><tspan>Lärmsituation</tspan></text><text x="107" style="color:#000000;cursor:default;font-size:10px;white-space:nowrap;fill:#000000;" text-anchor="end" transform="translate(0,0)" y="129" opacity="1"><tspan>Öffentliche Sicherheit</tspan></text><text x="107" style="color:#000000;cursor:default;font-size:10px;white-space:nowrap;fill:#000000;" text-anchor="end" transform="translate(0,0)" y="143" opacity="1"><tspan>Schule, Bildung</tspan></text><text x="107" style="color:#000000;cursor:default;font-size:10px;white-space:nowrap;fill:#000000;" text-anchor="end" transform="translate(0,0)" y="158" opacity="1"><tspan>Arbeitsplatzangebot</tspan></text><text x="107" style="color:#000000;cursor:default;font-size:10px;white-space:nowrap;fill:#000000;" text-anchor="end" transform="translate(0,0)" y="172" opacity="1"><tspan>Wohnungsangebot</tspan></text><text x="107" style="color:#000000;cursor:default;font-size:10px;white-space:nowrap;fill:#000000;" text-anchor="end" transform="translate(0,0)" y="186" opacity="1"><tspan>Parkplätze</tspan></text></g><g class="highcharts-axis-labels highcharts-yaxis-labels " data-z-index="7"><text x="122" style="color:#000000;cursor:default;font-size:10px;fill:#000000;" text-anchor="middle" transform="translate(0,0)" y="202" opacity="1">0%</text><text x="164.2" style="color:#000000;cursor:default;font-size:10px;fill:#000000;" text-anchor="middle" transform="translate(0,0)" y="202" opacity="1">10%</text><text x="206.4" style="color:#000000;cursor:default;font-size:10px;fill:#000000;" text-anchor="middle" transform="translate(0,0)" y="202" opacity="1">20%</text><text x="248.6" style="color:#000000;cursor:default;font-size:10px;fill:#000000;" text-anchor="middle" transform="translate(0,0)" y="202" opacity="1">30%</text><text x="290.8" style="color:#000000;cursor:default;font-size:10px;fill:#000000;" text-anchor="middle" transform="translate(0,0)" y="202" opacity="1">40%</text><text x="333" style="color:#000000;cursor:default;font-size:10px;fill:#000000;" text-anchor="middle" transform="translate(0,0)" y="202" opacity="1">50%</text><text x="375.2" style="color:#000000;cursor:default;font-size:10px;fill:#000000;" text-anchor="middle" transform="translate(0,0)" y="202" opacity="1">60%</text><text x="417.4" style="color:#000000;cursor:default;font-size:10px;fill:#000000;" text-anchor="middle" transform="translate(0,0)" y="202" opacity="1">70%</text><text x="459.6" style="color:#000000;cursor:default;font-size:10px;fill:#000000;" text-anchor="middle" transform="translate(0,0)" y="202" opacity="1">80%</text><text x="501.8" style="color:#000000;cursor:default;font-size:10px;fill:#000000;" text-anchor="middle" transform="translate(0,0)" y="202" opacity="1">90%</text><text x="544" style="color:#000000;cursor:default;font-size:10px;fill:#000000;" text-anchor="middle" transform="translate(0,0)" y="202" opacity="1">100%</text></g><text x="655" class="highcharts-credits" text-anchor="end" data-z-index="8" style="cursor:pointer;color:#999999;font-size:9px;fill:#999999;" y="193"><tspan>Quelle: Bevölkerungsbefragung Basel-Stadt 2015, Frage F6.</tspan></text></svg>