<?xml version="1.0" standalone="no"?><!DOCTYPE svg PUBLIC "-//W3C//DTD SVG 1.1//EN" "http://www.w3.org/Graphics/SVG/1.1/DTD/svg11.dtd"><svg xmlns:xlink="http://www.w3.org/1999/xlink" version="1.1" class="highcharts-root" style="font-family:Arial;font-size:10px;" xmlns="http://www.w3.org/2000/svg" viewBox="0 0 485 415"><desc>Created with Highstock 6.1.1</desc><defs><clipPath id="highcharts-zw3nylc-6"><rect x="0" y="0" width="131" height="437" fill="none"></rect></clipPath><clipPath id="highcharts-zw3nylc-7"><rect x="0" y="0" width="131" height="437" fill="none"></rect></clipPath></defs><rect fill="#fbfbfb" class="highcharts-background" x="0" y="0" width="665" height="208" rx="0" ry="0"></rect><rect fill="none" class="highcharts-plot-background" x="103" y="60" width="437" height="131"></rect><g class="highcharts-pane-group" data-z-index="0"></g><g class="highcharts-grid highcharts-xaxis-grid " data-z-index="1"><path fill="none" data-z-index="1" class="highcharts-grid-line" d="M 103 67.5 L 540 67.5" opacity="1"></path><path fill="none" data-z-index="1" class="highcharts-grid-line" d="M 103 93.5 L 540 93.5" opacity="1"></path><path fill="none" data-z-index="1" class="highcharts-grid-line" d="M 103 119.5 L 540 119.5" opacity="1"></path><path fill="none" data-z-index="1" class="highcharts-grid-line" d="M 103 145.5 L 540 145.5" opacity="1"></path><path fill="none" data-z-index="1" class="highcharts-grid-line" d="M 103 171.5 L 540 171.5" opacity="1"></path></g><g class="highcharts-grid highcharts-yaxis-grid " data-z-index="1"><path fill="none" stroke="#B9CFD7" stroke-width="0.5" data-z-index="1" class="highcharts-grid-line" d="M 102.75 60 L 102.75 191" opacity="1"></path><path fill="none" stroke="#B9CFD7" stroke-width="0.5" data-z-index="1" class="highcharts-grid-line" d="M 189.75 60 L 189.75 191" opacity="1"></path><path fill="none" stroke="#B9CFD7" stroke-width="0.5" data-z-index="1" class="highcharts-grid-line" d="M 277.75 60 L 277.75 191" opacity="1"></path><path fill="none" stroke="#B9CFD7" stroke-width="0.5" data-z-index="1" class="highcharts-grid-line" d="M 364.75 60 L 364.75 191" opacity="1"></path><path fill="none" stroke="#B9CFD7" stroke-width="0.5" data-z-index="1" class="highcharts-grid-line" d="M 452.75 60 L 452.75 191" opacity="1"></path><path fill="none" stroke="#B9CFD7" stroke-width="0.5" data-z-index="1" class="highcharts-grid-line" d="M 540.25 60 L 540.25 191" opacity="1"></path></g><rect fill="none" class="highcharts-plot-border" data-z-index="1" x="103" y="60" width="437" height="131"></rect><g class="highcharts-axis highcharts-xaxis " data-z-index="2"><path fill="none" class="highcharts-axis-line" stroke="#B9CFD7" stroke-width="0.5" data-z-index="7" d="M 102.75 60 L 102.75 191"></path></g><g class="highcharts-axis highcharts-yaxis " data-z-index="2"><path fill="none" class="highcharts-axis-line" data-z-index="7" d="M 103 191 L 540 191"></path></g><g class="highcharts-series-group" data-z-index="3"><g data-z-index="0.1" class="highcharts-series highcharts-series-0 highcharts-column-series " transform="translate(540,191) rotate(90) scale(-1,1) scale(1 1)" clip-path="url(#highcharts-zw3nylc-7)"><rect x="121" y="387" width="7" height="51" fill="#007a2f" class="highcharts-point"></rect><rect x="108" y="410" width="7" height="28" fill="#007a2f" class="highcharts-point"></rect><rect x="95" y="401" width="7" height="37" fill="#007a2f" class="highcharts-point"></rect><rect x="82" y="375" width="7" height="63" fill="#007a2f" class="highcharts-point"></rect><rect x="69" y="375" width="7" height="63" fill="#007a2f" class="highcharts-point"></rect><rect x="56" y="420" width="7" height="18" fill="#007a2f" class="highcharts-point"></rect><rect x="43" y="403" width="7" height="35" fill="#007a2f" class="highcharts-point"></rect><rect x="30" y="411" width="7" height="27" fill="#007a2f" class="highcharts-point"></rect><rect x="17" y="392" width="7" height="46" fill="#007a2f" class="highcharts-point"></rect><rect x="3" y="398" width="7" height="40" fill="#007a2f" class="highcharts-point"></rect></g><g data-z-index="0.1" class="highcharts-markers highcharts-series-0 highcharts-column-series " transform="translate(540,191) rotate(90) scale(-1,1) scale(1 1)" clip-path="none"></g><g data-z-index="0.1" class="highcharts-series highcharts-series-1 highcharts-column-series " transform="translate(540,191) rotate(90) scale(-1,1) scale(1 1)" clip-path="url(#highcharts-zw3nylc-7)"><rect x="121" y="382" width="7" height="5" fill="#44ab2b" class="highcharts-point"></rect><rect x="108" y="408" width="7" height="2" fill="#44ab2b" class="highcharts-point"></rect><rect x="95" y="396" width="7" height="5" fill="#44ab2b" class="highcharts-point"></rect><rect x="82" y="372" width="7" height="3" fill="#44ab2b" class="highcharts-point"></rect><rect x="69" y="361" width="7" height="14" fill="#44ab2b" class="highcharts-point"></rect><rect x="56" y="416" width="7" height="4" fill="#44ab2b" class="highcharts-point"></rect><rect x="43" y="398" width="7" height="5" fill="#44ab2b" class="highcharts-point"></rect><rect x="30" y="411" width="7" height="0" fill="#44ab2b" class="highcharts-point"></rect><rect x="17" y="388" width="7" height="4" fill="#44ab2b" class="highcharts-point"></rect><rect x="3" y="394" width="7" height="4" fill="#44ab2b" class="highcharts-point"></rect></g><g data-z-index="0.1" class="highcharts-markers highcharts-series-1 highcharts-column-series " transform="translate(540,191) rotate(90) scale(-1,1) scale(1 1)" clip-path="none"></g><g data-z-index="0.1" class="highcharts-series highcharts-series-2 highcharts-column-series " transform="translate(540,191) rotate(90) scale(-1,1) scale(1 1)" clip-path="url(#highcharts-zw3nylc-7)"><rect x="121" y="207" width="7" height="175" fill="#73ba7c" class="highcharts-point"></rect><rect x="108" y="249" width="7" height="159" fill="#73ba7c" class="highcharts-point"></rect><rect x="95" y="224" width="7" height="172" fill="#73ba7c" class="highcharts-point"></rect><rect x="82" y="246" width="7" height="126" fill="#73ba7c" class="highcharts-point"></rect><rect x="69" y="262" width="7" height="99" fill="#73ba7c" class="highcharts-point"></rect><rect x="56" y="289" width="7" height="127" fill="#73ba7c" class="highcharts-point"></rect><rect x="43" y="282" width="7" height="116" fill="#73ba7c" class="highcharts-point"></rect><rect x="30" y="275" width="7" height="136" fill="#73ba7c" class="highcharts-point"></rect><rect x="17" y="186" width="7" height="202" fill="#73ba7c" class="highcharts-point"></rect><rect x="3" y="226" width="7" height="168" fill="#73ba7c" class="highcharts-point"></rect></g><g data-z-index="0.1" class="highcharts-markers highcharts-series-2 highcharts-column-series " transform="translate(540,191) rotate(90) scale(-1,1) scale(1 1)" clip-path="none"></g><g data-z-index="0.1" class="highcharts-series highcharts-series-3 highcharts-column-series " transform="translate(540,191) rotate(90) scale(-1,1) scale(1 1)" clip-path="url(#highcharts-zw3nylc-7)"><rect x="121" y="202" width="7" height="5" fill="#d7e9d2" class="highcharts-point"></rect><rect x="108" y="241" width="7" height="8" fill="#d7e9d2" class="highcharts-point"></rect><rect x="95" y="218" width="7" height="6" fill="#d7e9d2" class="highcharts-point"></rect><rect x="82" y="238" width="7" height="8" fill="#d7e9d2" class="highcharts-point"></rect><rect x="69" y="258" width="7" height="4" fill="#d7e9d2" class="highcharts-point"></rect><rect x="56" y="274" width="7" height="15" fill="#d7e9d2" class="highcharts-point"></rect><rect x="43" y="275" width="7" height="7" fill="#d7e9d2" class="highcharts-point"></rect><rect x="30" y="267" width="7" height="8" fill="#d7e9d2" class="highcharts-point"></rect><rect x="17" y="182" width="7" height="4" fill="#d7e9d2" class="highcharts-point"></rect><rect x="3" y="220" width="7" height="6" fill="#d7e9d2" class="highcharts-point"></rect></g><g data-z-index="0.1" class="highcharts-markers highcharts-series-3 highcharts-column-series " transform="translate(540,191) rotate(90) scale(-1,1) scale(1 1)" clip-path="none"></g><g data-z-index="0.1" class="highcharts-series highcharts-series-4 highcharts-column-series " transform="translate(540,191) rotate(90) scale(-1,1) scale(1 1)" clip-path="url(#highcharts-zw3nylc-7)"><rect x="121" y="174" width="7" height="28" fill="#b9cfd7" class="highcharts-point"></rect><rect x="108" y="210" width="7" height="31" fill="#b9cfd7" class="highcharts-point"></rect><rect x="95" y="189" width="7" height="29" fill="#b9cfd7" class="highcharts-point"></rect><rect x="82" y="206" width="7" height="32" fill="#b9cfd7" class="highcharts-point"></rect><rect x="69" y="96" width="7" height="162" fill="#b9cfd7" class="highcharts-point"></rect><rect x="56" y="241" width="7" height="33" fill="#b9cfd7" class="highcharts-point"></rect><rect x="43" y="250" width="7" height="25" fill="#b9cfd7" class="highcharts-point"></rect><rect x="30" y="248" width="7" height="19" fill="#b9cfd7" class="highcharts-point"></rect><rect x="17" y="163" width="7" height="19" fill="#b9cfd7" class="highcharts-point"></rect><rect x="3" y="190" width="7" height="30" fill="#b9cfd7" class="highcharts-point"></rect></g><g data-z-index="0.1" class="highcharts-markers highcharts-series-4 highcharts-column-series " transform="translate(540,191) rotate(90) scale(-1,1) scale(1 1)" clip-path="none"></g><g data-z-index="0.1" class="highcharts-series highcharts-series-5 highcharts-column-series " transform="translate(540,191) rotate(90) scale(-1,1) scale(1 1)" clip-path="url(#highcharts-zw3nylc-7)"><rect x="121" y="159" width="7" height="15" fill="#71a3b5" class="highcharts-point"></rect><rect x="108" y="207" width="7" height="3" fill="#71a3b5" class="highcharts-point"></rect><rect x="95" y="178" width="7" height="11" fill="#71a3b5" class="highcharts-point"></rect><rect x="82" y="203" width="7" height="3" fill="#71a3b5" class="highcharts-point"></rect><rect x="69" y="96" width="7" height="0" fill="#71a3b5" class="highcharts-point"></rect><rect x="56" y="241" width="7" height="0" fill="#71a3b5" class="highcharts-point"></rect><rect x="43" y="245" width="7" height="5" fill="#71a3b5" class="highcharts-point"></rect><rect x="30" y="230" width="7" height="18" fill="#71a3b5" class="highcharts-point"></rect><rect x="17" y="153" width="7" height="10" fill="#71a3b5" class="highcharts-point"></rect><rect x="3" y="181" width="7" height="9" fill="#71a3b5" class="highcharts-point"></rect></g><g data-z-index="0.1" class="highcharts-markers highcharts-series-5 highcharts-column-series " transform="translate(540,191) rotate(90) scale(-1,1) scale(1 1)" clip-path="none"></g><g data-z-index="0.1" class="highcharts-series highcharts-series-6 highcharts-column-series " transform="translate(540,191) rotate(90) scale(-1,1) scale(1 1)" clip-path="url(#highcharts-zw3nylc-7)"><rect x="121" y="81" width="7" height="78" fill="#ffbb58" class="highcharts-point"></rect><rect x="108" y="122" width="7" height="85" fill="#ffbb58" class="highcharts-point"></rect><rect x="95" y="94" width="7" height="84" fill="#ffbb58" class="highcharts-point"></rect><rect x="82" y="142" width="7" height="61" fill="#ffbb58" class="highcharts-point"></rect><rect x="69" y="55" width="7" height="41" fill="#ffbb58" class="highcharts-point"></rect><rect x="56" y="158" width="7" height="83" fill="#ffbb58" class="highcharts-point"></rect><rect x="43" y="137" width="7" height="108" fill="#ffbb58" class="highcharts-point"></rect><rect x="30" y="124" width="7" height="106" fill="#ffbb58" class="highcharts-point"></rect><rect x="17" y="81" width="7" height="72" fill="#ffbb58" class="highcharts-point"></rect><rect x="3" y="100" width="7" height="81" fill="#ffbb58" class="highcharts-point"></rect></g><g data-z-index="0.1" class="highcharts-markers highcharts-series-6 highcharts-column-series " transform="translate(540,191) rotate(90) scale(-1,1) scale(1 1)" clip-path="none"></g><g data-z-index="0.1" class="highcharts-series highcharts-series-7 highcharts-column-series " transform="translate(540,191) rotate(90) scale(-1,1) scale(1 1)" clip-path="url(#highcharts-zw3nylc-7)"><rect x="121" y="3" width="7" height="78" fill="#ff8028" class="highcharts-point"></rect><rect x="108" y="4" width="7" height="118" fill="#ff8028" class="highcharts-point"></rect><rect x="95" y="4" width="7" height="90" fill="#ff8028" class="highcharts-point"></rect><rect x="82" y="0" width="7" height="142" fill="#ff8028" class="highcharts-point"></rect><rect x="69" y="0" width="7" height="55" fill="#ff8028" class="highcharts-point"></rect><rect x="56" y="5" width="7" height="153" fill="#ff8028" class="highcharts-point"></rect><rect x="43" y="4" width="7" height="133" fill="#ff8028" class="highcharts-point"></rect><rect x="30" y="3" width="7" height="121" fill="#ff8028" class="highcharts-point"></rect><rect x="17" y="4" width="7" height="77" fill="#ff8028" class="highcharts-point"></rect><rect x="3" y="4" width="7" height="96" fill="#ff8028" class="highcharts-point"></rect></g><g data-z-index="0.1" class="highcharts-markers highcharts-series-7 highcharts-column-series " transform="translate(540,191) rotate(90) scale(-1,1) scale(1 1)" clip-path="none"></g><g data-z-index="0.1" class="highcharts-series highcharts-series-8 highcharts-column-series " transform="translate(540,191) rotate(90) scale(-1,1) scale(1 1)" clip-path="url(#highcharts-zw3nylc-7)"><rect x="121" y="2" width="7" height="1" fill="#dc440e" class="highcharts-point"></rect><rect x="108" y="2" width="7" height="2" fill="#dc440e" class="highcharts-point"></rect><rect x="95" y="2" width="7" height="2" fill="#dc440e" class="highcharts-point"></rect><rect x="82" y="1" width="7" height="0" fill="#dc440e" class="highcharts-point"></rect><rect x="69" y="1" width="7" height="0" fill="#dc440e" class="highcharts-point"></rect><rect x="56" y="0" width="7" height="5" fill="#dc440e" class="highcharts-point"></rect><rect x="43" y="0" width="7" height="4" fill="#dc440e" class="highcharts-point"></rect><rect x="30" y="0" width="7" height="3" fill="#dc440e" class="highcharts-point"></rect><rect x="17" y="2" width="7" height="2" fill="#dc440e" class="highcharts-point"></rect><rect x="3" y="2" width="7" height="2" fill="#dc440e" class="highcharts-point"></rect></g><g data-z-index="0.1" class="highcharts-markers highcharts-series-8 highcharts-column-series " transform="translate(540,191) rotate(90) scale(-1,1) scale(1 1)" clip-path="none"></g><g data-z-index="0.1" class="highcharts-series highcharts-series-9 highcharts-column-series " transform="translate(540,191) rotate(90) scale(-1,1) scale(1 1)" clip-path="url(#highcharts-zw3nylc-7)"><rect x="121" y="0" width="7" height="2" fill="#b00000" class="highcharts-point"></rect><rect x="108" y="0" width="7" height="2" fill="#b00000" class="highcharts-point"></rect><rect x="95" y="0" width="7" height="2" fill="#b00000" class="highcharts-point"></rect><rect x="82" y="1" width="7" height="0" fill="#b00000" class="highcharts-point"></rect><rect x="69" y="1" width="7" height="0" fill="#b00000" class="highcharts-point"></rect><rect x="56" y="1" width="7" height="0" fill="#b00000" class="highcharts-point"></rect><rect x="43" y="1" width="7" height="0" fill="#b00000" class="highcharts-point"></rect><rect x="30" y="1" width="7" height="0" fill="#b00000" class="highcharts-point"></rect><rect x="17" y="0" width="7" height="2" fill="#b00000" class="highcharts-point"></rect><rect x="3" y="0" width="7" height="2" fill="#b00000" class="highcharts-point"></rect></g><g data-z-index="0.1" class="highcharts-markers highcharts-series-9 highcharts-column-series " transform="translate(540,191) rotate(90) scale(-1,1) scale(1 1)" clip-path="none"></g></g><text x="2" text-anchor="start" class="highcharts-title" data-z-index="4" style="color:#000000;font-size:10px;font-weight:normal;fill:#000000;" y="9"><tspan>Höchste abgeschlossene Ausbildung</tspan></text><text x="2" text-anchor="start" class="highcharts-subtitle" data-z-index="4" style="color:#000000;font-size:12px;fill:#000000;" y="29"><tspan>Nach Geschlecht, Staatsangehörigkeit und Altersklasse, Stand: 2015</tspan><tspan x="2" dy="15">«Welches ist Ihre höchste abgeschlossene Schul- und Berufsbildung?»</tspan></text><g class="highcharts-legend" data-z-index="7" transform="translate(552,32)"><rect fill="none" class="highcharts-legend-box" rx="0" ry="0" x="0" y="0" width="111" height="145" visibility="visible"></rect><g data-z-index="1"><g><g class="highcharts-legend-item highcharts-column-series highcharts-color-undefined highcharts-series-0" data-z-index="1" transform="translate(0,-5)"><text x="21" style="color:#333333;font-size:10px;font-weight:normal;cursor:pointer;font-family:Arial;fill:#333333;" text-anchor="start" data-z-index="2" y="13"><tspan>Oblig. Schule</tspan></text><rect x="3" y="4" width="10" height="10" fill="#007a2f" class="highcharts-point" data-z-index="3"></rect></g><g class="highcharts-legend-item highcharts-column-series highcharts-color-undefined highcharts-series-1" data-z-index="1" transform="translate(0,10)"><text x="21" y="13" style="color:#333333;font-size:10px;font-weight:normal;cursor:pointer;font-family:Arial;fill:#333333;" text-anchor="start" data-z-index="2"><tspan>Berufsvorb. Schule</tspan></text><rect x="3" y="4" width="10" height="10" fill="#44ab2b" class="highcharts-point" data-z-index="3"></rect></g><g class="highcharts-legend-item highcharts-column-series highcharts-color-undefined highcharts-series-2" data-z-index="1" transform="translate(0,25)"><text x="21" y="13" style="color:#333333;font-size:10px;font-weight:normal;cursor:pointer;font-family:Arial;fill:#333333;" text-anchor="start" data-z-index="2"><tspan>Berufslehre</tspan></text><rect x="3" y="4" width="10" height="10" fill="#73ba7c" class="highcharts-point" data-z-index="3"></rect></g><g class="highcharts-legend-item highcharts-column-series highcharts-color-undefined highcharts-series-3" data-z-index="1" transform="translate(0,40)"><text x="21" y="13" style="color:#333333;font-size:10px;font-weight:normal;cursor:pointer;font-family:Arial;fill:#333333;" text-anchor="start" data-z-index="2"><tspan>DMS</tspan></text><rect x="3" y="4" width="10" height="10" fill="#d7e9d2" class="highcharts-point" data-z-index="3"></rect></g><g class="highcharts-legend-item highcharts-column-series highcharts-color-undefined highcharts-series-4" data-z-index="1" transform="translate(0,55)"><text x="21" y="13" style="color:#333333;font-size:10px;font-weight:normal;cursor:pointer;font-family:Arial;fill:#333333;" text-anchor="start" data-z-index="2"><tspan>Matura</tspan></text><rect x="3" y="4" width="10" height="10" fill="#b9cfd7" class="highcharts-point" data-z-index="3"></rect></g><g class="highcharts-legend-item highcharts-column-series highcharts-color-undefined highcharts-series-5" data-z-index="1" transform="translate(0,70)"><text x="21" y="13" style="color:#333333;font-size:10px;font-weight:normal;cursor:pointer;font-family:Arial;fill:#333333;" text-anchor="start" data-z-index="2"><tspan>Lehrkräfte-Seminar</tspan></text><rect x="3" y="4" width="10" height="10" fill="#71a3b5" class="highcharts-point" data-z-index="3"></rect></g><g class="highcharts-legend-item highcharts-column-series highcharts-color-undefined highcharts-series-6" data-z-index="1" transform="translate(0,85)"><text x="21" y="13" style="color:#333333;font-size:10px;font-weight:normal;cursor:pointer;font-family:Arial;fill:#333333;" text-anchor="start" data-z-index="2"><tspan>Höhere Fachschule</tspan></text><rect x="3" y="4" width="10" height="10" fill="#ffbb58" class="highcharts-point" data-z-index="3"></rect></g><g class="highcharts-legend-item highcharts-column-series highcharts-color-undefined highcharts-series-7" data-z-index="1" transform="translate(0,100)"><text x="21" y="13" style="color:#333333;font-size:10px;font-weight:normal;cursor:pointer;font-family:Arial;fill:#333333;" text-anchor="start" data-z-index="2"><tspan>Universität</tspan></text><rect x="3" y="4" width="10" height="10" fill="#ff8028" class="highcharts-point" data-z-index="3"></rect></g><g class="highcharts-legend-item highcharts-column-series highcharts-color-undefined highcharts-series-8" data-z-index="1" transform="translate(0,115)"><text x="21" y="13" style="color:#333333;font-size:10px;font-weight:normal;cursor:pointer;font-family:Arial;fill:#333333;" text-anchor="start" data-z-index="2"><tspan>Andere Ausbildung</tspan></text><rect x="3" y="4" width="10" height="10" fill="#dc440e" class="highcharts-point" data-z-index="3"></rect></g><g class="highcharts-legend-item highcharts-column-series highcharts-color-undefined highcharts-series-9" data-z-index="1" transform="translate(0,130)"><text x="21" y="13" style="color:#333333;font-size:10px;font-weight:normal;cursor:pointer;font-family:Arial;fill:#333333;" text-anchor="start" data-z-index="2"><tspan>Keine Angabe</tspan></text><rect x="3" y="4" width="10" height="10" fill="#b00000" class="highcharts-point" data-z-index="3"></rect></g></g></g></g><g class="highcharts-axis-labels highcharts-xaxis-labels " data-z-index="7"><text x="88" style="color:#000000;cursor:default;font-size:10px;white-space:nowrap;fill:#000000;" text-anchor="end" transform="translate(0,0)" y="70" opacity="1"><tspan>Weiblich (n=818)</tspan></text><text x="88" style="color:#000000;cursor:default;font-size:10px;white-space:nowrap;fill:#000000;" text-anchor="end" transform="translate(0,0)" y="96" opacity="1"><tspan>Schweiz (n=1333)</tspan></text><text x="88" style="color:#000000;cursor:default;font-size:10px;white-space:nowrap;fill:#000000;" text-anchor="end" transform="translate(0,0)" y="122" opacity="1"><tspan>18-29 J. (n=97)</tspan></text><text x="88" style="color:#000000;cursor:default;font-size:10px;white-space:nowrap;fill:#000000;" text-anchor="end" transform="translate(0,0)" y="148" opacity="1"><tspan>40-49 J. (n=174)</tspan></text><text x="88" style="color:#000000;cursor:default;font-size:10px;white-space:nowrap;fill:#000000;" text-anchor="end" transform="translate(0,0)" y="174" opacity="1"><tspan>60 J. u.m. (n=842)</tspan></text></g><g class="highcharts-axis-labels highcharts-yaxis-labels " data-z-index="7"><text x="103" style="color:#000000;cursor:default;font-size:10px;fill:#000000;" text-anchor="middle" transform="translate(0,0)" y="203" opacity="1">0%</text><text x="190.4" style="color:#000000;cursor:default;font-size:10px;fill:#000000;" text-anchor="middle" transform="translate(0,0)" y="203" opacity="1">20%</text><text x="277.8" style="color:#000000;cursor:default;font-size:10px;fill:#000000;" text-anchor="middle" transform="translate(0,0)" y="203" opacity="1">40%</text><text x="365.2" style="color:#000000;cursor:default;font-size:10px;fill:#000000;" text-anchor="middle" transform="translate(0,0)" y="203" opacity="1">60%</text><text x="452.6" style="color:#000000;cursor:default;font-size:10px;fill:#000000;" text-anchor="middle" transform="translate(0,0)" y="203" opacity="1">80%</text><text x="540" style="color:#000000;cursor:default;font-size:10px;fill:#000000;" text-anchor="middle" transform="translate(0,0)" y="203" opacity="1">100%</text></g><text x="10" class="highcharts-credits" text-anchor="start" data-z-index="8" style="cursor:default;color:#000000;font-size:10px;fill:#000000;" y="193"><tspan>Quelle: Statistisches Amt des Kantons Basel-Stadt, Bevölkerungsbefragung Basel-Stadt 2015, S15A.</tspan></text></svg>