<?xml version="1.0" standalone="no"?><!DOCTYPE svg PUBLIC "-//W3C//DTD SVG 1.1//EN" "http://www.w3.org/Graphics/SVG/1.1/DTD/svg11.dtd"><svg xmlns:xlink="http://www.w3.org/1999/xlink" version="1.1" class="highcharts-root" style="font-family:Arial;font-size:10px;" xmlns="http://www.w3.org/2000/svg" viewBox="0 0 485 415"><desc>Created with Highstock 6.1.1</desc><defs><clipPath id="highcharts-fas4319-6"><rect x="0" y="0" width="44" height="234" fill="none"></rect></clipPath><clipPath id="highcharts-fas4319-7"><rect x="0" y="0" width="44" height="234" fill="none"></rect></clipPath></defs><rect fill="#fbfbfb" class="highcharts-background" x="0" y="0" width="320" height="221" rx="0" ry="0"></rect><rect fill="none" class="highcharts-plot-background" x="84" y="159" width="234" height="44"></rect><g class="highcharts-pane-group" data-z-index="0"></g><g class="highcharts-grid highcharts-xaxis-grid " data-z-index="1"><path fill="none" data-z-index="1" class="highcharts-grid-line" d="M 84 163.5 L 318 163.5" opacity="1"></path><path fill="none" data-z-index="1" class="highcharts-grid-line" d="M 84 190.5 L 318 190.5" opacity="1"></path></g><g class="highcharts-grid highcharts-yaxis-grid " data-z-index="1"><path fill="none" stroke="#B9CFD7" stroke-width="0.5" data-z-index="1" class="highcharts-grid-line" d="M 83.75 159 L 83.75 203" opacity="1"></path><path fill="none" stroke="#B9CFD7" stroke-width="0.5" data-z-index="1" class="highcharts-grid-line" d="M 142.75 159 L 142.75 203" opacity="1"></path><path fill="none" stroke="#B9CFD7" stroke-width="0.5" data-z-index="1" class="highcharts-grid-line" d="M 200.75 159 L 200.75 203" opacity="1"></path><path fill="none" stroke="#B9CFD7" stroke-width="0.5" data-z-index="1" class="highcharts-grid-line" d="M 259.75 159 L 259.75 203" opacity="1"></path><path fill="none" stroke="#B9CFD7" stroke-width="0.5" data-z-index="1" class="highcharts-grid-line" d="M 318.25 159 L 318.25 203" opacity="1"></path></g><rect fill="none" class="highcharts-plot-border" data-z-index="1" x="84" y="159" width="234" height="44"></rect><g class="highcharts-axis highcharts-xaxis " data-z-index="2"><path fill="none" class="highcharts-axis-line" stroke="#B9CFD7" stroke-width="0.5" data-z-index="7" d="M 83.75 159 L 83.75 203"></path></g><g class="highcharts-axis highcharts-yaxis " data-z-index="2"><path fill="none" class="highcharts-axis-line" data-z-index="7" d="M 84 203 L 318 203"></path></g><g class="highcharts-series-group" data-z-index="3"><g data-z-index="0.1" class="highcharts-series highcharts-series-0 highcharts-column-series " transform="translate(318,203) rotate(90) scale(-1,1) scale(1 1)" clip-path="url(#highcharts-fas4319-7)"><rect x="37" y="0" width="5" height="11" fill="#999999" class="highcharts-point"></rect><rect x="29" y="0" width="5" height="9" fill="#999999" class="highcharts-point"></rect><rect x="20" y="0" width="5" height="14" fill="#999999" class="highcharts-point"></rect><rect x="11" y="0" width="5" height="7" fill="#999999" class="highcharts-point"></rect><rect x="2" y="0" width="5" height="9" fill="#999999" class="highcharts-point"></rect></g><g data-z-index="0.1" class="highcharts-markers highcharts-series-0 highcharts-column-series " transform="translate(318,203) rotate(90) scale(-1,1) scale(1 1)" clip-path="none"></g><g data-z-index="0.1" class="highcharts-series highcharts-series-1 highcharts-column-series " transform="translate(318,203) rotate(90) scale(-1,1) scale(1 1)" clip-path="url(#highcharts-fas4319-7)"><rect x="37" y="11" width="5" height="14" fill="#dc440e" class="highcharts-point"></rect><rect x="29" y="9" width="5" height="12" fill="#dc440e" class="highcharts-point"></rect><rect x="20" y="14" width="5" height="13" fill="#dc440e" class="highcharts-point"></rect><rect x="11" y="7" width="5" height="12" fill="#dc440e" class="highcharts-point"></rect><rect x="2" y="9" width="5" height="8" fill="#dc440e" class="highcharts-point"></rect></g><g data-z-index="0.1" class="highcharts-markers highcharts-series-1 highcharts-column-series " transform="translate(318,203) rotate(90) scale(-1,1) scale(1 1)" clip-path="none"></g><g data-z-index="0.1" class="highcharts-series highcharts-series-2 highcharts-column-series " transform="translate(318,203) rotate(90) scale(-1,1) scale(1 1)" clip-path="url(#highcharts-fas4319-7)"><rect x="37" y="25" width="5" height="50" fill="#ffbb58" class="highcharts-point"></rect><rect x="29" y="21" width="5" height="49" fill="#ffbb58" class="highcharts-point"></rect><rect x="20" y="27" width="5" height="47" fill="#ffbb58" class="highcharts-point"></rect><rect x="11" y="19" width="5" height="47" fill="#ffbb58" class="highcharts-point"></rect><rect x="2" y="17" width="5" height="40" fill="#ffbb58" class="highcharts-point"></rect></g><g data-z-index="0.1" class="highcharts-markers highcharts-series-2 highcharts-column-series " transform="translate(318,203) rotate(90) scale(-1,1) scale(1 1)" clip-path="none"></g><g data-z-index="0.1" class="highcharts-series highcharts-series-3 highcharts-column-series " transform="translate(318,203) rotate(90) scale(-1,1) scale(1 1)" clip-path="url(#highcharts-fas4319-7)"><rect x="37" y="75" width="5" height="107" fill="#68ab2b" class="highcharts-point"></rect><rect x="29" y="70" width="5" height="111" fill="#68ab2b" class="highcharts-point"></rect><rect x="20" y="74" width="5" height="115" fill="#68ab2b" class="highcharts-point"></rect><rect x="11" y="66" width="5" height="109" fill="#68ab2b" class="highcharts-point"></rect><rect x="2" y="57" width="5" height="123" fill="#68ab2b" class="highcharts-point"></rect></g><g data-z-index="0.1" class="highcharts-markers highcharts-series-3 highcharts-column-series " transform="translate(318,203) rotate(90) scale(-1,1) scale(1 1)" clip-path="none"></g><g data-z-index="0.1" class="highcharts-series highcharts-series-4 highcharts-column-series " transform="translate(318,203) rotate(90) scale(-1,1) scale(1 1)" clip-path="url(#highcharts-fas4319-7)"><rect x="37" y="182" width="5" height="53" fill="#007a2f" class="highcharts-point"></rect><rect x="29" y="181" width="5" height="54" fill="#007a2f" class="highcharts-point"></rect><rect x="20" y="189" width="5" height="46" fill="#007a2f" class="highcharts-point"></rect><rect x="11" y="175" width="5" height="60" fill="#007a2f" class="highcharts-point"></rect><rect x="2" y="180" width="5" height="55" fill="#007a2f" class="highcharts-point"></rect></g><g data-z-index="0.1" class="highcharts-markers highcharts-series-4 highcharts-column-series " transform="translate(318,203) rotate(90) scale(-1,1) scale(1 1)" clip-path="none"></g></g><text x="2" text-anchor="start" class="highcharts-title" data-z-index="4" style="color:#000000;font-size:10px;font-weight:normal;fill:#000000;" y="12"><tspan>Beurteilung von gesellschaftlicher Vielfalt</tspan></text><text x="2" text-anchor="start" class="highcharts-subtitle" data-z-index="4" style="color:#000000;font-size:12px;fill:#000000;" y="32"><tspan>«Im Kanton Basel-Stadt gibt es Menschen aus den</tspan><tspan dy="15" x="2">verschiedensten Ländern. Bitte geben Sie mir an,</tspan><tspan dy="15" x="2">ob das eine sehr grosse, eher grosse, eher nicht</tspan><tspan dy="15" x="2">so grosse oder gar keine Bereicherung für den</tspan><tspan dy="15" x="2">Kanton Basel-Stadt ist.»</tspan></text><g class="highcharts-legend" data-z-index="7" transform="translate(81,107)"><rect fill="none" class="highcharts-legend-box" rx="0" ry="0" x="0" y="0" width="214" height="40" visibility="visible"></rect><g data-z-index="1"><g><g class="highcharts-legend-item highcharts-column-series highcharts-color-undefined highcharts-series-4" data-z-index="1" transform="translate(0,-5)"><text x="21" style="color:#333333;font-size:10px;font-weight:normal;cursor:pointer;font-family:Arial;white-space:nowrap;fill:#333333;" text-anchor="start" data-z-index="2" y="13"><tspan>Sehr grosse</tspan></text><rect x="3" y="4" width="10" height="10" fill="#007a2f" class="highcharts-point" data-z-index="3"></rect></g><g class="highcharts-legend-item highcharts-column-series highcharts-color-undefined highcharts-series-3" data-z-index="1" transform="translate(117,-5)"><text x="21" y="13" style="color:#333333;font-size:10px;font-weight:normal;cursor:pointer;font-family:Arial;white-space:nowrap;fill:#333333;" text-anchor="start" data-z-index="2"><tspan>Eher grosse</tspan></text><rect x="3" y="4" width="10" height="10" fill="#68ab2b" class="highcharts-point" data-z-index="3"></rect></g><g class="highcharts-legend-item highcharts-column-series highcharts-color-undefined highcharts-series-2" data-z-index="1" transform="translate(0,10)"><text x="21" y="13" style="color:#333333;font-size:10px;font-weight:normal;cursor:pointer;font-family:Arial;white-space:nowrap;fill:#333333;" text-anchor="start" data-z-index="2"><tspan>Eher nicht so grosse</tspan></text><rect x="3" y="4" width="10" height="10" fill="#ffbb58" class="highcharts-point" data-z-index="3"></rect></g><g class="highcharts-legend-item highcharts-column-series highcharts-color-undefined highcharts-series-1" data-z-index="1" transform="translate(117,10)"><text x="21" y="13" style="color:#333333;font-size:10px;font-weight:normal;cursor:pointer;font-family:Arial;white-space:nowrap;fill:#333333;" text-anchor="start" data-z-index="2"><tspan>Gar keine</tspan></text><rect x="3" y="4" width="10" height="10" fill="#dc440e" class="highcharts-point" data-z-index="3"></rect></g><g class="highcharts-legend-item highcharts-column-series highcharts-color-undefined highcharts-series-0" data-z-index="1" transform="translate(0,25)"><text x="21" y="13" style="color:#333333;font-size:10px;font-weight:normal;cursor:pointer;font-family:Arial;white-space:nowrap;fill:#333333;" text-anchor="start" data-z-index="2"><tspan>Weiss nicht / Keine Angabe</tspan></text><rect x="3" y="4" width="10" height="10" fill="#999999" class="highcharts-point" data-z-index="3"></rect></g></g></g></g><g class="highcharts-axis-labels highcharts-xaxis-labels " data-z-index="7"><text x="69" style="color:#000000;cursor:default;font-size:10px;white-space:nowrap;fill:#000000;" text-anchor="end" transform="translate(0,0)" y="167" opacity="1"><tspan>2003 (N=1497)</tspan></text><text x="69" style="color:#000000;cursor:default;font-size:10px;white-space:nowrap;fill:#000000;" text-anchor="end" transform="translate(0,0)" y="193" opacity="1"><tspan>2011 (N=1516)</tspan></text></g><g class="highcharts-axis-labels highcharts-yaxis-labels " data-z-index="7"><text x="84" style="color:#000000;cursor:default;font-size:10px;fill:#000000;" text-anchor="middle" transform="translate(0,0)" y="206" opacity="1">0%</text><text x="142.5" style="color:#000000;cursor:default;font-size:10px;fill:#000000;" text-anchor="middle" transform="translate(0,0)" y="206" opacity="1">25%</text><text x="201" style="color:#000000;cursor:default;font-size:10px;fill:#000000;" text-anchor="middle" transform="translate(0,0)" y="206" opacity="1">50%</text><text x="259.5" style="color:#000000;cursor:default;font-size:10px;fill:#000000;" text-anchor="middle" transform="translate(0,0)" y="206" opacity="1">75%</text><text x="305.234375" style="color:#000000;cursor:default;font-size:10px;fill:#000000;" text-anchor="middle" transform="translate(0,0)" y="206" opacity="1">100%</text></g><text x="10" class="highcharts-credits" text-anchor="start" data-z-index="8" style="cursor:default;color:#000000;font-size:10px;fill:#000000;" y="196"><tspan>Quelle: Statistisches Amt Basel-Stadt, kantonale Bevölkerungsbefragung: F18.</tspan><tspan x="10" dy="13">Zuletzt geändert: 2018-9-17</tspan></text></svg>