<?xml version="1.0" standalone="no"?><!DOCTYPE svg PUBLIC "-//W3C//DTD SVG 1.1//EN" "http://www.w3.org/Graphics/SVG/1.1/DTD/svg11.dtd"><svg xmlns:xlink="http://www.w3.org/1999/xlink" version="1.1" class="highcharts-root" style="font-family:Arial;font-size:12px;" xmlns="http://www.w3.org/2000/svg" viewBox="0 0 485 415"><desc>Created with Highstock 6.1.1</desc><defs><clipPath id="highcharts-twq81gt-8"><rect x="0" y="0" width="264" height="90" fill="none"></rect></clipPath><clipPath id="highcharts-twq81gt-9"><rect x="0" y="0" width="264" height="90" fill="none"></rect></clipPath><clipPath id="highcharts-twq81gt-10"><rect x="0" y="0" width="264" height="90" fill="none"></rect></clipPath></defs><rect fill="#fbfbfb" class="highcharts-background" x="0" y="0" width="320" height="221" rx="0" ry="0"></rect><rect fill="none" class="highcharts-plot-background" x="28" y="108" width="264" height="90"></rect><g class="highcharts-pane-group" data-z-index="0"></g><g class="highcharts-grid highcharts-xaxis-grid " data-z-index="1"><path fill="none" data-z-index="1" class="highcharts-grid-line" d="M 30.5 108 L 30.5 198" opacity="1"></path><path fill="none" data-z-index="1" class="highcharts-grid-line" d="M 55.5 108 L 55.5 198" opacity="1"></path><path fill="none" data-z-index="1" class="highcharts-grid-line" d="M 81.5 108 L 81.5 198" opacity="1"></path><path fill="none" data-z-index="1" class="highcharts-grid-line" d="M 107.5 108 L 107.5 198" opacity="1"></path><path fill="none" data-z-index="1" class="highcharts-grid-line" d="M 133.5 108 L 133.5 198" opacity="1"></path><path fill="none" data-z-index="1" class="highcharts-grid-line" d="M 159.5 108 L 159.5 198" opacity="1"></path><path fill="none" data-z-index="1" class="highcharts-grid-line" d="M 185.5 108 L 185.5 198" opacity="1"></path><path fill="none" data-z-index="1" class="highcharts-grid-line" d="M 211.5 108 L 211.5 198" opacity="1"></path><path fill="none" data-z-index="1" class="highcharts-grid-line" d="M 237.5 108 L 237.5 198" opacity="1"></path><path fill="none" data-z-index="1" class="highcharts-grid-line" d="M 263.5 108 L 263.5 198" opacity="1"></path><path fill="none" data-z-index="1" class="highcharts-grid-line" d="M 288.5 108 L 288.5 198" opacity="1"></path></g><g class="highcharts-grid highcharts-yaxis-grid " data-z-index="1"><path fill="none" stroke="#e6e6e6" stroke-width="1" data-z-index="1" class="highcharts-grid-line" d="M 28 198.5 L 292 198.5" opacity="1"></path><path fill="none" stroke="#e6e6e6" stroke-width="1" data-z-index="1" class="highcharts-grid-line" d="M 28 176.5 L 292 176.5" opacity="1"></path><path fill="none" stroke="#e6e6e6" stroke-width="1" data-z-index="1" class="highcharts-grid-line" d="M 28 153.5 L 292 153.5" opacity="1"></path><path fill="none" stroke="#e6e6e6" stroke-width="1" data-z-index="1" class="highcharts-grid-line" d="M 28 131.5 L 292 131.5" opacity="1"></path><path fill="none" stroke="#e6e6e6" stroke-width="1" data-z-index="1" class="highcharts-grid-line" d="M 28 107.5 L 292 107.5" opacity="1"></path></g><g class="highcharts-grid highcharts-yaxis-grid " data-z-index="1"><path fill="none" data-z-index="1" class="highcharts-grid-line" d="M 28 198.5 L 292 198.5" opacity="1"></path><path fill="none" data-z-index="1" class="highcharts-grid-line" d="M 28 176.5 L 292 176.5" opacity="1"></path><path fill="none" data-z-index="1" class="highcharts-grid-line" d="M 28 153.5 L 292 153.5" opacity="1"></path><path fill="none" data-z-index="1" class="highcharts-grid-line" d="M 28 131.5 L 292 131.5" opacity="1"></path><path fill="none" data-z-index="1" class="highcharts-grid-line" d="M 28 108.5 L 292 108.5" opacity="1"></path></g><rect fill="none" class="highcharts-plot-border" data-z-index="1" x="28" y="108" width="264" height="90"></rect><g class="highcharts-axis highcharts-xaxis " data-z-index="2"><path fill="none" class="highcharts-axis-line" stroke="#B9CFD7" stroke-width="0.5" data-z-index="7" d="M 28 198.25 L 292 198.25"></path></g><g class="highcharts-axis highcharts-yaxis " data-z-index="2"><path fill="none" class="highcharts-axis-line" data-z-index="7" d="M 28 108 L 28 198"></path></g><g class="highcharts-axis highcharts-yaxis " data-z-index="2"><path fill="none" class="highcharts-axis-line" data-z-index="7" d="M 292 108 L 292 198"></path></g><g class="highcharts-series-group" data-z-index="3"><g data-z-index="0.1" class="highcharts-series highcharts-series-0 highcharts-line-series " transform="translate(28,108) scale(1 1)" clip-path="url(#highcharts-twq81gt-9)"><path fill="none" d="M 2.5882352941153 17.10000000000001 L 28.470588235292 29.025 L 54.352941176469 51.525 L 80.235294117646 61.425 L 106.11764705882 65.25 L 132 63 L 157.88235294118 58.5 L 183.76470588235 59.175 L 209.64705882353 56.025 L 235.52941176471 67.95 L 261.41176470588 52.875" class="highcharts-graph" data-z-index="1" stroke="#008AC3" stroke-width="2" stroke-linejoin="round" stroke-linecap="round"></path></g><g data-z-index="0.1" class="highcharts-markers highcharts-series-0 highcharts-line-series " transform="translate(28,108) scale(1 1)" clip-path="none"></g><g data-z-index="0.1" class="highcharts-series highcharts-series-1 highcharts-line-series " transform="translate(28,108) scale(1 1)" clip-path="url(#highcharts-twq81gt-9)"><path fill="none" d="M 2.5882352941153 6.9750000000000085 L 28.470588235292 15.524999999999991 L 54.352941176469 42.074999999999996 L 80.235294117646 55.574999999999996 L 106.11764705882 55.574999999999996 L 132 57.15 L 157.88235294118 56.475 L 183.76470588235 56.475 L 209.64705882353 47.925000000000004 L 235.52941176471 64.125 L 261.41176470588 46.35" class="highcharts-graph" data-z-index="1" stroke="#B00000" stroke-width="2" stroke-linejoin="round" stroke-linecap="round"></path></g><g data-z-index="0.1" class="highcharts-markers highcharts-series-1 highcharts-line-series " transform="translate(28,108) scale(1 1)" clip-path="none"></g><g data-z-index="0.1" class="highcharts-series highcharts-series-2 highcharts-line-series " transform="translate(28,108) scale(1 1)" clip-path="url(#highcharts-twq81gt-10)"><path fill="none" d="M 2.5882352941153 19.575000000000003 L 28.470588235292 18.450000000000003 L 54.352941176469 16.64999999999999 L 80.235294117646 16.200000000000003 L 106.11764705882 14.625 L 132 13.725000000000009 L 157.88235294118 12.149999999999991 L 183.76470588235 11.25 L 209.64705882353 10.575000000000003 L 235.52941176471 9.674999999999997 L 261.41176470588 9" class="highcharts-graph" data-z-index="1" stroke="#ff8028" stroke-width="2" stroke-linejoin="round" stroke-linecap="round"></path></g><g data-z-index="0.1" class="highcharts-markers highcharts-series-2 highcharts-line-series " transform="translate(28,108) scale(1 1)" clip-path="none"></g></g><text x="2" text-anchor="start" class="highcharts-title" data-z-index="4" style="color:#000000;font-size:10px;font-weight:bold;fill:#000000;" y="9"><tspan>Einbürgerungsziffer der ausländischen Bevölkerung</tspan><tspan dy="13" x="2">sowie Ausländeranteil</tspan></text><text x="2" text-anchor="start" class="highcharts-subtitle" data-z-index="4" style="color:#000000;font-size:10px;font-weight:normal;font-family:Arial;fill:#000000;" y="40"><tspan>Basel-Stadt</tspan></text><g class="highcharts-legend" data-z-index="7" transform="translate(28,56)"><rect fill="none" class="highcharts-legend-box" rx="0" ry="0" x="0" y="0" width="154" height="40" visibility="visible"></rect><g data-z-index="1"><g><g class="highcharts-legend-item highcharts-line-series highcharts-color-undefined highcharts-series-0" data-z-index="1" transform="translate(0,-5)"><path fill="none" d="M 0 10 L 16 10" class="highcharts-graph" stroke="#008AC3" stroke-width="2"></path><text x="21" style="color:#333333;font-size:10px;font-weight:normal;cursor:pointer;fill:#333333;" text-anchor="start" data-z-index="2" y="13"><tspan>Einbürgerungsziffer männlich</tspan></text></g><g class="highcharts-legend-item highcharts-line-series highcharts-color-undefined highcharts-series-1" data-z-index="1" transform="translate(0,10)"><path fill="none" d="M 0 10 L 16 10" class="highcharts-graph" stroke="#B00000" stroke-width="2"></path><text x="21" y="13" style="color:#333333;font-size:10px;font-weight:normal;cursor:pointer;fill:#333333;" text-anchor="start" data-z-index="2"><tspan>Einbürgerungsziffer weiblich</tspan></text></g><g class="highcharts-legend-item highcharts-line-series highcharts-color-undefined highcharts-series-2" data-z-index="1" transform="translate(0,25)"><path fill="none" d="M 0 10 L 16 10" class="highcharts-graph" stroke="#ff8028" stroke-width="2"></path><text x="21" y="13" style="color:#333333;font-size:10px;font-weight:normal;cursor:pointer;fill:#333333;" text-anchor="start" data-z-index="2"><tspan>Ausländeranteil (rechte Skala)</tspan></text></g></g></g></g><g class="highcharts-axis-labels highcharts-xaxis-labels " data-z-index="7"><text x="30.588235294115" style="color:#000000;cursor:default;font-size:10px;white-space:nowrap;fill:#000000;" text-anchor="middle" transform="translate(0,0)" y="216" opacity="1">2007</text><text x="0" style="color:#000000;cursor:default;font-size:10px;white-space:nowrap;fill:#000000;" text-anchor="middle" transform="translate(0,0)" y="-9999">2008</text><text x="82.352941176469" style="color:#000000;cursor:default;font-size:10px;white-space:nowrap;fill:#000000;" text-anchor="middle" transform="translate(0,0)" y="216" opacity="1">2009</text><text x="0" style="color:#000000;cursor:default;font-size:10px;white-space:nowrap;fill:#000000;" text-anchor="middle" transform="translate(0,0)" y="-9999">2010</text><text x="134.11764705882" style="color:#000000;cursor:default;font-size:10px;white-space:nowrap;fill:#000000;" text-anchor="middle" transform="translate(0,0)" y="216" opacity="1">2011</text><text x="0" style="color:#000000;cursor:default;font-size:10px;white-space:nowrap;fill:#000000;" text-anchor="middle" transform="translate(0,0)" y="-9999">2012</text><text x="185.88235294118" style="color:#000000;cursor:default;font-size:10px;white-space:nowrap;fill:#000000;" text-anchor="middle" transform="translate(0,0)" y="216" opacity="1">2013</text><text x="0" style="color:#000000;cursor:default;font-size:10px;white-space:nowrap;fill:#000000;" text-anchor="middle" transform="translate(0,0)" y="-9999">2014</text><text x="237.64705882353" style="color:#000000;cursor:default;font-size:10px;white-space:nowrap;fill:#000000;" text-anchor="middle" transform="translate(0,0)" y="216" opacity="1">2015</text><text x="0" style="color:#000000;cursor:default;font-size:10px;white-space:nowrap;fill:#000000;" text-anchor="middle" transform="translate(0,0)" y="-9999">2016</text><text x="289.41176470588" style="color:#000000;cursor:default;font-size:10px;white-space:nowrap;fill:#000000;" text-anchor="middle" transform="translate(0,0)" y="216" opacity="1">2017</text></g><g class="highcharts-axis-labels highcharts-yaxis-labels " data-z-index="7"><text x="13" style="color:#000000;cursor:default;font-size:10px;fill:#000000;" text-anchor="end" transform="translate(0,0)" y="202" opacity="1">0</text><text x="13" style="color:#000000;cursor:default;font-size:10px;fill:#000000;" text-anchor="end" transform="translate(0,0)" y="179" opacity="1">10</text><text x="13" style="color:#000000;cursor:default;font-size:10px;fill:#000000;" text-anchor="end" transform="translate(0,0)" y="157" opacity="1">20</text><text x="13" style="color:#000000;cursor:default;font-size:10px;fill:#000000;" text-anchor="end" transform="translate(0,0)" y="134" opacity="1">30</text><text x="13" style="color:#000000;cursor:default;font-size:10px;fill:#000000;" text-anchor="end" transform="translate(0,0)" y="112" opacity="1">40</text></g><g class="highcharts-axis-labels highcharts-yaxis-labels " data-z-index="7"><text x="307" style="color:#000000;cursor:default;font-size:10px;fill:#000000;" text-anchor="start" transform="translate(0,0)" y="202" opacity="1">0</text><text x="307" style="color:#000000;cursor:default;font-size:10px;fill:#000000;" text-anchor="start" transform="translate(0,0)" y="179" opacity="1">10</text><text x="307" style="color:#000000;cursor:default;font-size:10px;fill:#000000;" text-anchor="start" transform="translate(0,0)" y="157" opacity="1">20</text><text x="307" style="color:#000000;cursor:default;font-size:10px;fill:#000000;" text-anchor="start" transform="translate(0,0)" y="134" opacity="1">30</text><text x="307" style="color:#000000;cursor:default;font-size:10px;fill:#000000;" text-anchor="start" transform="translate(0,0)" y="112" opacity="1">40</text></g><text x="10" class="highcharts-credits" text-anchor="start" data-z-index="8" style="cursor:default;color:#000000;font-size:10px;fill:#000000;" y="216"><tspan>Quelle: Statistisches Amt Basel-Stadt, Bevölkerungsstatistik.</tspan><tspan x="10" dy="13">Zuletzt geändert: 2018-9-5</tspan></text></svg>