<?xml version="1.0" standalone="no"?><!DOCTYPE svg PUBLIC "-//W3C//DTD SVG 1.1//EN" "http://www.w3.org/Graphics/SVG/1.1/DTD/svg11.dtd"><svg xmlns:xlink="http://www.w3.org/1999/xlink" version="1.1" class="highcharts-root" style="font-family:Arial;font-size:12px;" xmlns="http://www.w3.org/2000/svg" viewBox="0 0 485 415"><desc>Created with Highstock 6.1.1</desc><defs><clipPath id="highcharts-skzvs0k-6"><rect x="0" y="0" width="262" height="66" fill="none"></rect></clipPath><clipPath id="highcharts-skzvs0k-7"><rect x="0" y="0" width="262" height="66" fill="none"></rect></clipPath></defs><rect fill="#fbfbfb" class="highcharts-background" x="0" y="0" width="320" height="221" rx="0" ry="0"></rect><rect fill="none" class="highcharts-plot-background" x="56" y="109" width="262" height="66"></rect><g class="highcharts-pane-group" data-z-index="0"></g><g class="highcharts-grid highcharts-xaxis-grid " data-z-index="1"><path fill="none" data-z-index="1" class="highcharts-grid-line" d="M 58.5 109 L 58.5 175" opacity="1"></path><path fill="none" data-z-index="1" class="highcharts-grid-line" d="M 68.5 109 L 68.5 175" opacity="1"></path><path fill="none" data-z-index="1" class="highcharts-grid-line" d="M 79.5 109 L 79.5 175" opacity="1"></path><path fill="none" data-z-index="1" class="highcharts-grid-line" d="M 90.5 109 L 90.5 175" opacity="1"></path><path fill="none" data-z-index="1" class="highcharts-grid-line" d="M 100.5 109 L 100.5 175" opacity="1"></path><path fill="none" data-z-index="1" class="highcharts-grid-line" d="M 111.5 109 L 111.5 175" opacity="1"></path><path fill="none" data-z-index="1" class="highcharts-grid-line" d="M 122.5 109 L 122.5 175" opacity="1"></path><path fill="none" data-z-index="1" class="highcharts-grid-line" d="M 132.5 109 L 132.5 175" opacity="1"></path><path fill="none" data-z-index="1" class="highcharts-grid-line" d="M 143.5 109 L 143.5 175" opacity="1"></path><path fill="none" data-z-index="1" class="highcharts-grid-line" d="M 154.5 109 L 154.5 175" opacity="1"></path><path fill="none" data-z-index="1" class="highcharts-grid-line" d="M 165.5 109 L 165.5 175" opacity="1"></path><path fill="none" data-z-index="1" class="highcharts-grid-line" d="M 175.5 109 L 175.5 175" opacity="1"></path><path fill="none" data-z-index="1" class="highcharts-grid-line" d="M 186.5 109 L 186.5 175" opacity="1"></path><path fill="none" data-z-index="1" class="highcharts-grid-line" d="M 197.5 109 L 197.5 175" opacity="1"></path><path fill="none" data-z-index="1" class="highcharts-grid-line" d="M 207.5 109 L 207.5 175" opacity="1"></path><path fill="none" data-z-index="1" class="highcharts-grid-line" d="M 218.5 109 L 218.5 175" opacity="1"></path><path fill="none" data-z-index="1" class="highcharts-grid-line" d="M 229.5 109 L 229.5 175" opacity="1"></path><path fill="none" data-z-index="1" class="highcharts-grid-line" d="M 240.5 109 L 240.5 175" opacity="1"></path><path fill="none" data-z-index="1" class="highcharts-grid-line" d="M 250.5 109 L 250.5 175" opacity="1"></path><path fill="none" data-z-index="1" class="highcharts-grid-line" d="M 261.5 109 L 261.5 175" opacity="1"></path><path fill="none" data-z-index="1" class="highcharts-grid-line" d="M 272.5 109 L 272.5 175" opacity="1"></path><path fill="none" data-z-index="1" class="highcharts-grid-line" d="M 282.5 109 L 282.5 175" opacity="1"></path><path fill="none" data-z-index="1" class="highcharts-grid-line" d="M 293.5 109 L 293.5 175" opacity="1"></path><path fill="none" data-z-index="1" class="highcharts-grid-line" d="M 304.5 109 L 304.5 175" opacity="1"></path><path fill="none" data-z-index="1" class="highcharts-grid-line" d="M 314.5 109 L 314.5 175" opacity="1"></path></g><g class="highcharts-grid highcharts-yaxis-grid " data-z-index="1"><path fill="none" stroke="#B9CFD7" stroke-width="0.5" data-z-index="1" class="highcharts-grid-line" d="M 56 175.25 L 318 175.25" opacity="1"></path><path fill="none" stroke="#B9CFD7" stroke-width="0.5" data-z-index="1" class="highcharts-grid-line" d="M 56 108.75 L 318 108.75" opacity="1"></path></g><rect fill="none" class="highcharts-plot-border" data-z-index="1" x="56" y="109" width="262" height="66"></rect><g class="highcharts-axis highcharts-xaxis " data-z-index="2"><path fill="none" class="highcharts-axis-line" stroke="#B9CFD7" stroke-width="0.5" data-z-index="7" d="M 56 175.25 L 318 175.25"></path></g><g class="highcharts-axis highcharts-yaxis " data-z-index="2"><path fill="none" class="highcharts-axis-line" data-z-index="7" d="M 56 109 L 56 175"></path></g><g class="highcharts-series-group" data-z-index="3"><g data-z-index="0.1" class="highcharts-series highcharts-series-0 highcharts-line-series " transform="translate(56,109) scale(1 1)" clip-path="url(#highcharts-skzvs0k-7)"><path fill="none" d="M 2.5686274509805 47.305997217599995 L 13.271241830065 46.3243680042 L 23.97385620915 46.0372245366 L 34.676470588235 46.1852140332 L 45.37908496732 46.1271211368 L 56.081699346405 46.4788127793 L 66.78431372549 46.6892616729 L 77.486928104575 46.3609913811 L 88.18954248366 46.2795392169 L 98.892156862745 46.1823864744 L 109.59477124183 45.460947044700006 L 120.29738562092 45.3233878317 L 131 45.4496123862 L 141.70261437908 45.6799459479 L 152.40522875817 45.4494886065 L 163.10784313725 45.2152458219 L 173.81045751634 44.445009741 L 184.51307189542 44.579770626599995 L 195.21568627451 44.5146029757 L 205.91830065359 44.302059915300006 L 216.62091503268 44.6100853143 L 227.32352941176 44.4875958483 L 238.02614379085 43.9086545436 L 248.72875816993 43.3823000886 L 259.43137254902 43.4782404474" class="highcharts-graph" data-z-index="1" stroke="#b00000 " stroke-width="2" stroke-linejoin="round" stroke-linecap="round"></path></g><g data-z-index="0.1" class="highcharts-markers highcharts-series-0 highcharts-line-series " transform="translate(56,109) scale(1 1)" clip-path="none"></g><g data-z-index="0.1" class="highcharts-series highcharts-series-1 highcharts-line-series " transform="translate(56,109) scale(1 1)" clip-path="url(#highcharts-skzvs0k-7)"><path fill="none" d="M 2.5686274509805 50.919 L 13.271241830065 50.028 L 23.97385620915 49.83 L 34.676470588235 49.863 L 45.37908496732 49.896 L 56.081699346405 50.259 L 66.78431372549 50.391 L 77.486928104575 50.424 L 88.18954248366 50.424 L 98.892156862745 50.391 L 109.59477124183 49.83 L 120.29738562092 49.665 L 131 49.740899999999996 L 141.70261437908 49.86828 L 152.40522875817 49.98312 L 163.10784313725 49.97421 L 173.81045751634 49.655100000000004 L 184.51307189542 50.344139999999996 L 195.21568627451 50.1666 L 205.91830065359 50.13624 L 216.62091503268 50.0445 L 227.32352941176 50.02503 L 238.02614379085 49.89072 L 248.72875816993 49.81548 L 259.43137254902 49.78314" class="highcharts-graph" data-z-index="1" stroke="#672773" stroke-width="2" stroke-linejoin="round" stroke-linecap="round"></path></g><g data-z-index="0.1" class="highcharts-markers highcharts-series-1 highcharts-line-series " transform="translate(56,109) scale(1 1)" clip-path="none"></g><g data-z-index="0.1" class="highcharts-series highcharts-series-2 highcharts-line-series " transform="translate(56,109) scale(1 1)" clip-path="url(#highcharts-skzvs0k-7)"><path fill="none" d="M 2.5686274509805 22.039101051000003 L 13.271241830065 20.039374971 L 23.97385620915 19.351364043000004 L 34.676470588235 19.928993336999994 L 45.37908496732 19.51463778 L 56.081699346405 19.501162460999993 L 66.78431372549 19.893446726999997 L 77.486928104575 18.102357867000002 L 88.18954248366 17.677590809999998 L 98.892156862745 16.968018639 L 109.59477124183 15.467771352 L 120.29738562092 15.858103734000004 L 131 15.901740426000003 L 141.70261437908 16.336534862999997 L 152.40522875817 14.694823670999995 L 163.10784313725 13.578743574 L 173.81045751634 10.952109332999996 L 184.51307189542 9.353310582000006 L 195.21568627451 9.465502299 L 205.91830065359 8.595340644000004 L 216.62091503268 10.347555405000001 L 227.32352941176 9.801896510999995 L 238.02614379085 7.3549644300000026 L 248.72875816993 5.094694472999997 L 259.43137254902 5.549094308999997" class="highcharts-graph" data-z-index="1" stroke="#007a2f" stroke-width="2" stroke-linejoin="round" stroke-linecap="round"></path></g><g data-z-index="0.1" class="highcharts-markers highcharts-series-2 highcharts-line-series " transform="translate(56,109) scale(1 1)" clip-path="none"></g><g data-z-index="0.1" class="highcharts-series highcharts-series-3 highcharts-line-series " transform="translate(56,109) scale(1 1)" clip-path="url(#highcharts-skzvs0k-7)"><path fill="none" d="M 2.5686274509805 62.5801003311 L 13.271241830065 62.3461614039 L 23.97385620915 62.2394524455 L 34.676470588235 62.3092220322 L 45.37908496732 62.313009782099996 L 56.081699346405 62.83726881003 L 66.78431372549 62.97538554681 L 77.486928104575 63.07528009827 L 88.18954248366 63.15047569545 L 98.892156862745 63.35844040086 L 109.59477124183 63.13033541991 L 120.29738562092 62.731465400670004 L 131 63.04405490658 L 141.70261437908 63.32151160302 L 152.40522875817 63.53642440101 L 163.10784313725 63.50995317513 L 173.81045751634 63.37476898665 L 184.51307189542 63.65352390969 L 195.21568627451 63.69825016236 L 205.91830065359 63.73350470751 L 216.62091503268 63.72267770847 L 227.32352941176 63.75623028159 L 238.02614379085 63.76769958108 L 248.72875816993 63.78599170449 L 259.43137254902 63.84298925565" class="highcharts-graph" data-z-index="1" stroke="#008AC3" stroke-width="2" stroke-linejoin="round" stroke-linecap="round"></path></g><g data-z-index="0.1" class="highcharts-markers highcharts-series-3 highcharts-line-series " transform="translate(56,109) scale(1 1)" clip-path="none"></g></g><text x="2" text-anchor="start" class="highcharts-title" data-z-index="4" style="color:#000000;font-size:10px;font-weight:bold;fill:#000000;" y="9"><tspan>Mittelwert und Median des Reineinkommens</tspan></text><text x="2" text-anchor="start" class="highcharts-subtitle" data-z-index="4" style="color:#000000;font-size:10px;font-weight:normal;font-family:Arial;fill:#000000;" y="26"><tspan>in Franken, Basel-Stadt</tspan></text><g class="highcharts-legend" data-z-index="7" transform="translate(56,42)"><rect fill="none" class="highcharts-legend-box" rx="0" ry="0" x="0" y="0" width="146" height="55" visibility="visible"></rect><g data-z-index="1"><g><g class="highcharts-legend-item highcharts-line-series highcharts-color-undefined highcharts-series-2" data-z-index="1" transform="translate(0,-5)"><path fill="none" d="M 0 10 L 16 10" class="highcharts-graph" stroke="#007a2f" stroke-width="2"></path><text x="21" style="color:#333333;font-size:10px;font-weight:normal;cursor:pointer;fill:#333333;" text-anchor="start" data-z-index="2" y="13"><tspan>Mittelwert oberstes Quintil</tspan></text></g><g class="highcharts-legend-item highcharts-line-series highcharts-color-undefined highcharts-series-0" data-z-index="1" transform="translate(0,10)"><path fill="none" d="M 0 10 L 16 10" class="highcharts-graph" stroke="#b00000 " stroke-width="2"></path><text x="21" y="13" style="color:#333333;font-size:10px;font-weight:normal;cursor:pointer;fill:#333333;" text-anchor="start" data-z-index="2"><tspan>Mittelwert</tspan></text></g><g class="highcharts-legend-item highcharts-line-series highcharts-color-undefined highcharts-series-1" data-z-index="1" transform="translate(0,25)"><path fill="none" d="M 0 10 L 16 10" class="highcharts-graph" stroke="#672773" stroke-width="2"></path><text x="21" y="13" style="color:#333333;font-size:10px;font-weight:normal;cursor:pointer;fill:#333333;" text-anchor="start" data-z-index="2"><tspan>Median</tspan></text></g><g class="highcharts-legend-item highcharts-line-series highcharts-color-undefined highcharts-series-3" data-z-index="1" transform="translate(0,40)"><path fill="none" d="M 0 10 L 16 10" class="highcharts-graph" stroke="#008AC3" stroke-width="2"></path><text x="21" y="13" style="color:#333333;font-size:10px;font-weight:normal;cursor:pointer;fill:#333333;" text-anchor="start" data-z-index="2"><tspan>Mittelwert unterstes Quintil</tspan></text></g></g></g></g><g class="highcharts-axis-labels highcharts-xaxis-labels " data-z-index="7"><text x="60.92565005493516" style="color:#000000;cursor:default;font-size:10px;white-space:nowrap;fill:#000000;" text-anchor="end" transform="translate(0,0) rotate(-45 60.92565005493516 190)" y="190" opacity="1">1991</text><text x="0" style="color:#000000;cursor:default;font-size:10px;white-space:nowrap;fill:#000000;" text-anchor="end" transform="translate(0,0) rotate(-45 0 -9999)" y="-9999">1992</text><text x="82.33087881310516" style="color:#000000;cursor:default;font-size:10px;white-space:nowrap;fill:#000000;" text-anchor="end" transform="translate(0,0) rotate(-45 82.33087881310516 190)" y="190" opacity="1">1993</text><text x="0" style="color:#000000;cursor:default;font-size:10px;white-space:nowrap;fill:#000000;" text-anchor="end" transform="translate(0,0) rotate(-45 0 -9999)" y="-9999">1994</text><text x="103.73610757127516" style="color:#000000;cursor:default;font-size:10px;white-space:nowrap;fill:#000000;" text-anchor="end" transform="translate(0,0) rotate(-45 103.73610757127516 190)" y="190" opacity="1">1995</text><text x="0" style="color:#000000;cursor:default;font-size:10px;white-space:nowrap;fill:#000000;" text-anchor="end" transform="translate(0,0) rotate(-45 0 -9999)" y="-9999">1996</text><text x="125.14133632944515" style="color:#000000;cursor:default;font-size:10px;white-space:nowrap;fill:#000000;" text-anchor="end" transform="translate(0,0) rotate(-45 125.14133632944515 190)" y="190" opacity="1">1997</text><text x="0" style="color:#000000;cursor:default;font-size:10px;white-space:nowrap;fill:#000000;" text-anchor="end" transform="translate(0,0) rotate(-45 0 -9999)" y="-9999">1998</text><text x="146.54656508761516" style="color:#000000;cursor:default;font-size:10px;white-space:nowrap;fill:#000000;" text-anchor="end" transform="translate(0,0) rotate(-45 146.54656508761516 190)" y="190" opacity="1">1999</text><text x="0" style="color:#000000;cursor:default;font-size:10px;white-space:nowrap;fill:#000000;" text-anchor="end" transform="translate(0,0) rotate(-45 0 -9999)" y="-9999">2000</text><text x="167.95179384578515" style="color:#000000;cursor:default;font-size:10px;white-space:nowrap;fill:#000000;" text-anchor="end" transform="translate(0,0) rotate(-45 167.95179384578515 190)" y="190" opacity="1">2001</text><text x="0" style="color:#000000;cursor:default;font-size:10px;white-space:nowrap;fill:#000000;" text-anchor="end" transform="translate(0,0) rotate(-45 0 -9999)" y="-9999">2002</text><text x="189.35702260395516" style="color:#000000;cursor:default;font-size:10px;white-space:nowrap;fill:#000000;" text-anchor="end" transform="translate(0,0) rotate(-45 189.35702260395516 190)" y="190" opacity="1">2003</text><text x="0" style="color:#000000;cursor:default;font-size:10px;white-space:nowrap;fill:#000000;" text-anchor="end" transform="translate(0,0) rotate(-45 0 -9999)" y="-9999">2004</text><text x="210.76225136212517" style="color:#000000;cursor:default;font-size:10px;white-space:nowrap;fill:#000000;" text-anchor="end" transform="translate(0,0) rotate(-45 210.76225136212517 190)" y="190" opacity="1">2005</text><text x="0" style="color:#000000;cursor:default;font-size:10px;white-space:nowrap;fill:#000000;" text-anchor="end" transform="translate(0,0) rotate(-45 0 -9999)" y="-9999">2006</text><text x="232.16748012029515" style="color:#000000;cursor:default;font-size:10px;white-space:nowrap;fill:#000000;" text-anchor="end" transform="translate(0,0) rotate(-45 232.16748012029515 190)" y="190" opacity="1">2007</text><text x="0" style="color:#000000;cursor:default;font-size:10px;white-space:nowrap;fill:#000000;" text-anchor="end" transform="translate(0,0) rotate(-45 0 -9999)" y="-9999">2008</text><text x="253.57270887846516" style="color:#000000;cursor:default;font-size:10px;white-space:nowrap;fill:#000000;" text-anchor="end" transform="translate(0,0) rotate(-45 253.57270887846516 190)" y="190" opacity="1">2009</text><text x="0" style="color:#000000;cursor:default;font-size:10px;white-space:nowrap;fill:#000000;" text-anchor="end" transform="translate(0,0) rotate(-45 0 -9999)" y="-9999">2010</text><text x="274.97793763663515" style="color:#000000;cursor:default;font-size:10px;white-space:nowrap;fill:#000000;" text-anchor="end" transform="translate(0,0) rotate(-45 274.97793763663515 190)" y="190" opacity="1">2011</text><text x="0" style="color:#000000;cursor:default;font-size:10px;white-space:nowrap;fill:#000000;" text-anchor="end" transform="translate(0,0) rotate(-45 0 -9999)" y="-9999">2012</text><text x="296.3831663948052" style="color:#000000;cursor:default;font-size:10px;white-space:nowrap;fill:#000000;" text-anchor="end" transform="translate(0,0) rotate(-45 296.3831663948052 190)" y="190" opacity="1">2013</text><text x="0" style="color:#000000;cursor:default;font-size:10px;white-space:nowrap;fill:#000000;" text-anchor="end" transform="translate(0,0) rotate(-45 0 -9999)" y="-9999">2014</text><text x="317.78839515297517" style="color:#000000;cursor:default;font-size:10px;white-space:nowrap;fill:#000000;" text-anchor="end" transform="translate(0,0) rotate(-45 317.78839515297517 190)" y="190" opacity="1">2015</text></g><g class="highcharts-axis-labels highcharts-yaxis-labels " data-z-index="7"><text x="41" style="color:#000000;cursor:default;font-size:10;fill:#000000;" text-anchor="end" transform="translate(0,0)" y="178" opacity="1">0</text><text x="41" style="color:#000000;cursor:default;font-size:10;fill:#000000;" text-anchor="end" transform="translate(0,0)" y="112" opacity="1"><tspan>200 000</tspan></text></g><text x="10" class="highcharts-credits" text-anchor="start" data-z-index="8" style="cursor:default;color:#000000;font-size:10px;fill:#000000;" y="196"><tspan>Quelle: Steuerstatistik Basel-Stadt.</tspan><tspan x="10" dy="13">Zuletzt geändert: 2018-8-14</tspan></text></svg>