<?xml version="1.0" standalone="no"?><!DOCTYPE svg PUBLIC "-//W3C//DTD SVG 1.1//EN" "http://www.w3.org/Graphics/SVG/1.1/DTD/svg11.dtd"><svg xmlns:xlink="http://www.w3.org/1999/xlink" version="1.1" class="highcharts-root" style="font-family:Arial;font-size:12px;" xmlns="http://www.w3.org/2000/svg" viewBox="0 0 485 415"><desc>Created with Highstock 6.1.0</desc><defs><clipPath id="highcharts-f814xqc-6"><rect x="0" y="0" width="290" height="80" fill="none"></rect></clipPath><clipPath id="highcharts-f814xqc-7"><rect x="0" y="0" width="290" height="80" fill="none"></rect></clipPath></defs><rect fill="#fbfbfb" class="highcharts-background" x="0" y="0" width="320" height="208" rx="0" ry="0"></rect><rect fill="none" class="highcharts-plot-background" x="28" y="93" width="290" height="80"></rect><g class="highcharts-pane-group"></g><g class="highcharts-grid highcharts-xaxis-grid "><path fill="none" class="highcharts-grid-line" d="M 41.5 93 L 41.5 173" opacity="1"></path><path fill="none" class="highcharts-grid-line" d="M 63.5 93 L 63.5 173" opacity="1"></path><path fill="none" class="highcharts-grid-line" d="M 85.5 93 L 85.5 173" opacity="1"></path><path fill="none" class="highcharts-grid-line" d="M 106.5 93 L 106.5 173" opacity="1"></path><path fill="none" class="highcharts-grid-line" d="M 128.5 93 L 128.5 173" opacity="1"></path><path fill="none" class="highcharts-grid-line" d="M 150.5 93 L 150.5 173" opacity="1"></path><path fill="none" class="highcharts-grid-line" d="M 172.5 93 L 172.5 173" opacity="1"></path><path fill="none" class="highcharts-grid-line" d="M 194.5 93 L 194.5 173" opacity="1"></path><path fill="none" class="highcharts-grid-line" d="M 216.5 93 L 216.5 173" opacity="1"></path><path fill="none" class="highcharts-grid-line" d="M 238.5 93 L 238.5 173" opacity="1"></path><path fill="none" class="highcharts-grid-line" d="M 259.5 93 L 259.5 173" opacity="1"></path><path fill="none" class="highcharts-grid-line" d="M 281.5 93 L 281.5 173" opacity="1"></path><path fill="none" class="highcharts-grid-line" d="M 303.5 93 L 303.5 173" opacity="1"></path></g><g class="highcharts-grid highcharts-yaxis-grid "><path fill="none" stroke="#B9CFD7" stroke-width="0.5" class="highcharts-grid-line" d="M 28 173.25 L 318 173.25" opacity="1"></path><path fill="none" stroke="#B9CFD7" stroke-width="0.5" class="highcharts-grid-line" d="M 28 146.25 L 318 146.25" opacity="1"></path><path fill="none" stroke="#B9CFD7" stroke-width="0.5" class="highcharts-grid-line" d="M 28 120.25 L 318 120.25" opacity="1"></path><path fill="none" stroke="#B9CFD7" stroke-width="0.5" class="highcharts-grid-line" d="M 28 92.75 L 318 92.75" opacity="1"></path></g><rect fill="none" class="highcharts-plot-border" x="28" y="93" width="290" height="80"></rect><g class="highcharts-axis highcharts-xaxis "><path fill="none" class="highcharts-axis-line" stroke="#B9CFD7" stroke-width="0.5" d="M 28 173.25 L 318 173.25"></path></g><g class="highcharts-axis highcharts-yaxis "><path fill="none" class="highcharts-axis-line" d="M 28 93 L 28 173"></path></g><g class="highcharts-series-group"><g class="highcharts-series highcharts-series-0 highcharts-line-series " transform="translate(28,93) scale(1 1)" clip-path="url(#highcharts-f814xqc-7)"><path fill="none" d="M 2.8431372549019 9.631493333333339 L 13.778280542986 13.482426666666669 L 24.713423831071 17.023853333333335 L 35.648567119155 23.04038666666667 L 46.58371040724 26.358159999999998 L 57.518853695324 22.49553333333334 L 68.453996983409 25.076186666666665 L 79.389140271493 31.970439999999996 L 90.324283559578 31.952493333333337 L 101.25942684766 34.94781333333333 L 112.19457013575 36.007920000000006 L 123.12971342383 36.437920000000005 L 134.06485671192 33.605266666666665 L 145 35.554253333333335 L 155.93514328808 36.46557333333333 L 166.87028657617 34.8862 L 177.80542986425 38.02829333333334 L 188.74057315234 36.841386666666665 L 199.67571644042 36.363400000000006 L 210.61085972851 36.74134666666667 L 221.54600301659 35.69066666666667 L 232.48114630468 37.586173333333335 L 243.41628959276 38.68698666666667 L 254.35143288084 37.49814666666667 L 265.28657616893 38.03758666666667 L 276.22171945701 42.91068 L 287.1568627451 43.053333333333335" class="highcharts-graph" stroke="#008AC3" stroke-width="2" stroke-linejoin="round" stroke-linecap="round"></path></g><g class="highcharts-markers highcharts-series-0 highcharts-line-series " transform="translate(28,93) scale(1 1)" clip-path="none"></g><g class="highcharts-series highcharts-series-1 highcharts-line-series " transform="translate(28,93) scale(1 1)" clip-path="url(#highcharts-f814xqc-7)"><path fill="none" d="M 68.453996983409 41.86666666666667 L 79.389140271493 47.606653333333334 L 90.324283559578 52.39517333333333 L 101.25942684766 52.266666666666666 L 112.19457013575 53.2 L 123.12971342383 50.93333333333334 L 134.06485671192 47.02321333333334 L 145 54.71188 L 155.93514328808 51.691986666666665 L 166.87028657617 48.400000000000006 L 177.80542986425 50 L 188.74057315234 52.400000000000006 L 199.67571644042 50.66666666666667 L 210.61085972851 51.46666666666667 L 221.54600301659 50.30666666666667 L 232.48114630468 54.476 L 243.41628959276 54.549040000000005 L 254.35143288084 57.50612 L 265.28657616893 55.6 L 276.22171945701 58.53333333333333 L 287.1568627451 58.373333333333335" class="highcharts-graph" stroke="#68AB2B" stroke-width="2" stroke-linejoin="round" stroke-linecap="round"></path></g><g class="highcharts-markers highcharts-series-1 highcharts-line-series " transform="translate(28,93) scale(1 1)" clip-path="none"></g><g class="highcharts-series highcharts-series-2 highcharts-line-series " transform="translate(28,93) scale(1 1)" clip-path="url(#highcharts-f814xqc-7)"><path fill="none" d="M 2.8431372549019 40 L 13.778280542986 40 L 24.713423831071 40 L 35.648567119155 40 L 46.58371040724 40 L 57.518853695324 40 L 68.453996983409 40 L 79.389140271493 40 L 90.324283559578 40 L 101.25942684766 40 L 112.19457013575 40 L 123.12971342383 40 L 134.06485671192 40 L 145 40 L 155.93514328808 40 L 166.87028657617 40 L 177.80542986425 40 L 188.74057315234 40 L 199.67571644042 40 L 210.61085972851 40 L 221.54600301659 40 L 232.48114630468 40 L 243.41628959276 40 L 254.35143288084 40 L 265.28657616893 40 L 276.22171945701 40 L 287.1568627451 40" class="highcharts-graph" stroke="#2B0099" stroke-width="2" stroke-dasharray="6,2"></path></g><g class="highcharts-markers highcharts-series-2 highcharts-line-series " transform="translate(28,93) scale(1 1)" clip-path="none"></g><g class="highcharts-series highcharts-series-3 highcharts-line-series " transform="translate(28,93) scale(1 1)" clip-path="url(#highcharts-f814xqc-7)"><path fill="none" d="M 68.453996983409 53.333333333333336 L 79.389140271493 53.333333333333336 L 90.324283559578 53.333333333333336 L 101.25942684766 53.333333333333336 L 112.19457013575 53.333333333333336 L 123.12971342383 53.333333333333336 L 134.06485671192 53.333333333333336 L 145 53.333333333333336 L 155.93514328808 53.333333333333336 L 166.87028657617 53.333333333333336 L 177.80542986425 53.333333333333336 L 188.74057315234 53.333333333333336 L 199.67571644042 53.333333333333336 L 210.61085972851 53.333333333333336 L 221.54600301659 53.333333333333336 L 232.48114630468 53.333333333333336 L 243.41628959276 53.333333333333336 L 254.35143288084 53.333333333333336 L 265.28657616893 53.333333333333336 L 276.22171945701 53.333333333333336 L 287.1568627451 53.333333333333336" class="highcharts-graph" stroke="#007A2F" stroke-width="2" stroke-dasharray="6,2"></path></g><g class="highcharts-markers highcharts-series-3 highcharts-line-series " transform="translate(28,93) scale(1 1)" clip-path="none"></g></g><text x="2" text-anchor="start" class="highcharts-title" style="color:#000000;font-size:10px;font-weight:bold;fill:#000000;" y="9"><tspan>Luftqualität: Langzeitbelastung der Luft</tspan></text><text x="2" text-anchor="start" class="highcharts-subtitle" style="color:#000000;font-size:10px;font-weight:normal;font-family:Arial;fill:#000000;" y="27"><tspan>Jahresmittelwerte für Stickstoffdioxid (NO2) und Feinstaub</tspan><tspan dy="13" x="2">(PM10) in Mikrogramm pro m3, Basel-Stadt</tspan><title>Jahresmittelwerte für Stickstoffdioxid (NO2) und Feinstaub (PM10) in Mikrogramm pro m3, Basel-Stadt</title></text><g class="highcharts-legend" transform="translate(28,56)"><rect fill="none" class="highcharts-legend-box" rx="0" ry="0" x="0" y="0" width="272" height="25" visibility="visible"></rect><g><g><g class="highcharts-legend-item highcharts-line-series highcharts-color-undefined highcharts-series-0" transform="translate(0,-5)"><path fill="none" d="M 0 10 L 16 10" class="highcharts-graph" stroke="#008AC3" stroke-width="2"></path><text x="21" style="color:#333333;font-size:10px;font-weight:normal;cursor:pointer;fill:#333333;" text-anchor="start" y="13"><tspan>Stickstoffdioxid (NO2)</tspan></text></g><g class="highcharts-legend-item highcharts-line-series highcharts-color-undefined highcharts-series-2" transform="translate(141.390625,-5)"><path fill="none" d="M 0 10 L 16 10" class="highcharts-graph" stroke-dasharray="6,2" stroke="#2B0099" stroke-width="2"></path><text x="21" y="13" style="color:#333333;font-size:10px;font-weight:normal;cursor:pointer;fill:#333333;" text-anchor="start"><tspan>Langzeitgrenzwert NO2</tspan></text></g><g class="highcharts-legend-item highcharts-line-series highcharts-color-undefined highcharts-series-1" transform="translate(0,10)"><path fill="none" d="M 0 10 L 16 10" class="highcharts-graph" stroke="#68AB2B" stroke-width="2"></path><text x="21" y="13" style="color:#333333;font-size:10px;font-weight:normal;cursor:pointer;fill:#333333;" text-anchor="start"><tspan>Feinstaub (PM10)</tspan></text></g><g class="highcharts-legend-item highcharts-line-series highcharts-color-undefined highcharts-series-3" transform="translate(141.390625,10)"><path fill="none" d="M 0 10 L 16 10" class="highcharts-graph" stroke-dasharray="6,2" stroke="#007A2F" stroke-width="2"></path><text x="21" y="13" style="color:#333333;font-size:10px;font-weight:normal;cursor:pointer;fill:#333333;" text-anchor="start"><tspan>Langzeitgrenzwert PM10</tspan></text></g></g></g></g><g class="highcharts-axis-labels highcharts-xaxis-labels "><text x="44.13530314694116" style="color:#000000;cursor:default;font-size:10px;white-space:nowrap;fill:#000000;" text-anchor="end" transform="translate(0,0) rotate(-45 44.13530314694116 188)" y="188" opacity="1">1992</text><text x="66.00558972311015" style="color:#000000;cursor:default;font-size:10px;white-space:nowrap;fill:#000000;" text-anchor="end" transform="translate(0,0) rotate(-45 66.00558972311015 188)" y="188" opacity="1">1994</text><text x="87.87587629927916" style="color:#000000;cursor:default;font-size:10px;white-space:nowrap;fill:#000000;" text-anchor="end" transform="translate(0,0) rotate(-45 87.87587629927916 188)" y="188" opacity="1">1996</text><text x="109.74616287544517" style="color:#000000;cursor:default;font-size:10px;white-space:nowrap;fill:#000000;" text-anchor="end" transform="translate(0,0) rotate(-45 109.74616287544517 188)" y="188" opacity="1">1998</text><text x="131.61644945161515" style="color:#000000;cursor:default;font-size:10px;white-space:nowrap;fill:#000000;" text-anchor="end" transform="translate(0,0) rotate(-45 131.61644945161515 188)" y="188" opacity="1">2000</text><text x="153.48673602778516" style="color:#000000;cursor:default;font-size:10px;white-space:nowrap;fill:#000000;" text-anchor="end" transform="translate(0,0) rotate(-45 153.48673602778516 188)" y="188" opacity="1">2002</text><text x="175.35702260395516" style="color:#000000;cursor:default;font-size:10px;white-space:nowrap;fill:#000000;" text-anchor="end" transform="translate(0,0) rotate(-45 175.35702260395516 188)" y="188" opacity="1">2004</text><text x="197.22730918012516" style="color:#000000;cursor:default;font-size:10px;white-space:nowrap;fill:#000000;" text-anchor="end" transform="translate(0,0) rotate(-45 197.22730918012516 188)" y="188" opacity="1">2006</text><text x="219.09759575629516" style="color:#000000;cursor:default;font-size:10px;white-space:nowrap;fill:#000000;" text-anchor="end" transform="translate(0,0) rotate(-45 219.09759575629516 188)" y="188" opacity="1">2008</text><text x="240.96788233246517" style="color:#000000;cursor:default;font-size:10px;white-space:nowrap;fill:#000000;" text-anchor="end" transform="translate(0,0) rotate(-45 240.96788233246517 188)" y="188" opacity="1">2010</text><text x="262.83816890863517" style="color:#000000;cursor:default;font-size:10px;white-space:nowrap;fill:#000000;" text-anchor="end" transform="translate(0,0) rotate(-45 262.83816890863517 188)" y="188" opacity="1">2012</text><text x="284.70845548479514" style="color:#000000;cursor:default;font-size:10px;white-space:nowrap;fill:#000000;" text-anchor="end" transform="translate(0,0) rotate(-45 284.70845548479514 188)" y="188" opacity="1">2014</text><text x="306.57874206096517" style="color:#000000;cursor:default;font-size:10px;white-space:nowrap;fill:#000000;" text-anchor="end" transform="translate(0,0) rotate(-45 306.57874206096517 188)" y="188" opacity="1">2016</text></g><g class="highcharts-axis-labels highcharts-yaxis-labels "><text x="13" style="color:#000000;cursor:default;font-size:10;fill:#000000;" text-anchor="end" transform="translate(0,0)" y="176" opacity="1">0</text><text x="13" style="color:#000000;cursor:default;font-size:10;fill:#000000;" text-anchor="end" transform="translate(0,0)" y="149" opacity="1">20</text><text x="13" style="color:#000000;cursor:default;font-size:10;fill:#000000;" text-anchor="end" transform="translate(0,0)" y="123" opacity="1">40</text><text x="13" style="color:#000000;cursor:default;font-size:10;fill:#000000;" text-anchor="end" transform="translate(0,0)" y="96" opacity="1">60</text></g><text x="10" class="highcharts-credits" text-anchor="start" style="cursor:default;color:#000000;font-size:10px;fill:#000000;" y="193"><tspan>Quelle: Lufthygieneamt beider Basel.</tspan></text></svg>