<?xml version="1.0" standalone="no"?><!DOCTYPE svg PUBLIC "-//W3C//DTD SVG 1.1//EN" "http://www.w3.org/Graphics/SVG/1.1/DTD/svg11.dtd"><svg xmlns:xlink="http://www.w3.org/1999/xlink" version="1.1" class="highcharts-root" style="font-family:Arial;font-size:12px;" xmlns="http://www.w3.org/2000/svg" viewBox="0 0 485 415"><desc>Created with Highstock 6.1.0</desc><defs><clipPath id="highcharts-dsqxsbr-8"><rect x="0" y="0" width="229" height="37" fill="none"></rect></clipPath><clipPath id="highcharts-dsqxsbr-9"><rect x="0" y="0" width="229" height="37" fill="none"></rect></clipPath><clipPath id="highcharts-dsqxsbr-10"><rect x="0" y="0" width="229" height="37" fill="none"></rect></clipPath></defs><rect fill="#fbfbfb" class="highcharts-background" x="0" y="0" width="320" height="208" rx="0" ry="0"></rect><rect fill="none" class="highcharts-plot-background" x="51" y="130" width="229" height="37"></rect><g class="highcharts-pane-group"></g><g class="highcharts-grid highcharts-xaxis-grid "><path fill="none" class="highcharts-grid-line" d="M 57.5 130 L 57.5 167" opacity="1"></path><path fill="none" class="highcharts-grid-line" d="M 84.5 130 L 84.5 167" opacity="1"></path><path fill="none" class="highcharts-grid-line" d="M 111.5 130 L 111.5 167" opacity="1"></path><path fill="none" class="highcharts-grid-line" d="M 138.5 130 L 138.5 167" opacity="1"></path><path fill="none" class="highcharts-grid-line" d="M 165.5 130 L 165.5 167" opacity="1"></path><path fill="none" class="highcharts-grid-line" d="M 191.5 130 L 191.5 167" opacity="1"></path><path fill="none" class="highcharts-grid-line" d="M 218.5 130 L 218.5 167" opacity="1"></path><path fill="none" class="highcharts-grid-line" d="M 245.5 130 L 245.5 167" opacity="1"></path><path fill="none" class="highcharts-grid-line" d="M 272.5 130 L 272.5 167" opacity="1"></path></g><g class="highcharts-grid highcharts-yaxis-grid "><path fill="none" stroke="#e6e6e6" stroke-width="1" class="highcharts-grid-line" d="M 51 167.5 L 280 167.5" opacity="1"></path><path fill="none" stroke="#e6e6e6" stroke-width="1" class="highcharts-grid-line" d="M 51 129.5 L 280 129.5" opacity="1"></path></g><g class="highcharts-grid highcharts-yaxis-grid "><path fill="none" stroke="#e6e6e6" stroke-width="1" class="highcharts-grid-line" d="M 51 167.5 L 280 167.5" opacity="1"></path><path fill="none" stroke="#e6e6e6" stroke-width="1" class="highcharts-grid-line" d="M 51 129.5 L 280 129.5" opacity="1"></path></g><rect fill="none" class="highcharts-plot-border" x="51" y="130" width="229" height="37"></rect><g class="highcharts-axis highcharts-xaxis "><path fill="none" class="highcharts-axis-line" stroke="#B9CFD7" stroke-width="0.5" d="M 51 167.25 L 280 167.25"></path></g><g class="highcharts-axis highcharts-yaxis "><path fill="none" class="highcharts-axis-line" d="M 51 130 L 51 167"></path></g><g class="highcharts-axis highcharts-yaxis "><path fill="none" class="highcharts-axis-line" d="M 280 130 L 280 167"></path></g><g class="highcharts-series-group"><g class="highcharts-series highcharts-series-0 highcharts-column-series " transform="translate(51,130) scale(1 1)" clip-path="url(#highcharts-dsqxsbr-9)"><rect x="2" y="8" width="10" height="12" fill="#71A3B5" class="highcharts-point"></rect><rect x="15" y="8" width="10" height="12" fill="#71A3B5" class="highcharts-point"></rect><rect x="29" y="9" width="10" height="11" fill="#71A3B5" class="highcharts-point"></rect><rect x="42" y="9" width="10" height="12" fill="#71A3B5" class="highcharts-point"></rect><rect x="56" y="9" width="10" height="12" fill="#71A3B5" class="highcharts-point"></rect><rect x="69" y="9" width="10" height="12" fill="#71A3B5" class="highcharts-point"></rect><rect x="83" y="9" width="10" height="12" fill="#71A3B5" class="highcharts-point"></rect><rect x="96" y="9" width="10" height="13" fill="#71A3B5" class="highcharts-point"></rect><rect x="110" y="9" width="10" height="13" fill="#71A3B5" class="highcharts-point"></rect><rect x="123" y="8" width="10" height="13" fill="#71A3B5" class="highcharts-point"></rect><rect x="136" y="9" width="10" height="13" fill="#71A3B5" class="highcharts-point"></rect><rect x="150" y="11" width="10" height="12" fill="#71A3B5" class="highcharts-point"></rect><rect x="163" y="10" width="10" height="12" fill="#71A3B5" class="highcharts-point"></rect><rect x="177" y="11" width="10" height="12" fill="#71A3B5" class="highcharts-point"></rect><rect x="190" y="11" width="10" height="12" fill="#71A3B5" class="highcharts-point"></rect><rect x="204" y="12" width="10" height="11" fill="#71A3B5" class="highcharts-point"></rect><rect x="217" y="13" width="10" height="11" fill="#71A3B5" class="highcharts-point"></rect></g><g class="highcharts-markers highcharts-series-0 highcharts-column-series " transform="translate(51,130) scale(1 1)" clip-path="none"></g><g class="highcharts-series highcharts-series-1 highcharts-column-series " transform="translate(51,130) scale(1 1)" clip-path="url(#highcharts-dsqxsbr-9)"><rect x="2" y="20" width="10" height="18" fill="#990300" class="highcharts-point"></rect><rect x="15" y="20" width="10" height="18" fill="#990300" class="highcharts-point"></rect><rect x="29" y="20" width="10" height="18" fill="#990300" class="highcharts-point"></rect><rect x="42" y="21" width="10" height="17" fill="#990300" class="highcharts-point"></rect><rect x="56" y="21" width="10" height="17" fill="#990300" class="highcharts-point"></rect><rect x="69" y="21" width="10" height="17" fill="#990300" class="highcharts-point"></rect><rect x="83" y="21" width="10" height="17" fill="#990300" class="highcharts-point"></rect><rect x="96" y="22" width="10" height="16" fill="#990300" class="highcharts-point"></rect><rect x="110" y="22" width="10" height="16" fill="#990300" class="highcharts-point"></rect><rect x="123" y="21" width="10" height="17" fill="#990300" class="highcharts-point"></rect><rect x="136" y="22" width="10" height="16" fill="#990300" class="highcharts-point"></rect><rect x="150" y="23" width="10" height="15" fill="#990300" class="highcharts-point"></rect><rect x="163" y="22" width="10" height="16" fill="#990300" class="highcharts-point"></rect><rect x="177" y="23" width="10" height="15" fill="#990300" class="highcharts-point"></rect><rect x="190" y="23" width="10" height="15" fill="#990300" class="highcharts-point"></rect><rect x="204" y="23" width="10" height="15" fill="#990300" class="highcharts-point"></rect><rect x="217" y="24" width="10" height="14" fill="#990300" class="highcharts-point"></rect></g><g class="highcharts-markers highcharts-series-1 highcharts-column-series " transform="translate(51,130) scale(1 1)" clip-path="none"></g><g class="highcharts-series highcharts-series-2 highcharts-line-series " transform="translate(51,130) scale(1 1)" clip-path="url(#highcharts-dsqxsbr-10)"><path fill="none" d="M 6.7352941176471 11.963333333333331 L 20.205882352941 11.963333333333331 L 33.676470588235 12.641666666666666 L 47.147058823529 12.086666666666666 L 60.617647058824 11.84 L 74.088235294118 10.976666666666663 L 87.558823529412 10.853333333333332 L 101.02941176471 10.729999999999997 L 114.5 9.126666666666665 L 127.97058823529 11.099999999999998 L 141.44117647059 10.544999999999998 L 154.91176470588 9.928333333333335 L 168.38235294118 9.434999999999995 L 181.85294117647 9.866666666666667 L 195.32352941176 10.174999999999997 L 208.79411764706 9.866666666666667 L 222.26470588235 9.333586715378" class="highcharts-graph" stroke="#000000" stroke-width="2" stroke-linejoin="round" stroke-linecap="round"></path></g><g class="highcharts-markers highcharts-series-2 highcharts-line-series " transform="translate(51,130) scale(1 1)" clip-path="none"></g></g><text x="3" text-anchor="start" class="highcharts-title" style="color:#000000;font-size:10px;font-weight:bold;fill:#000000;" y="14"><tspan>Siedlungsabf채lle und Wertstoffsammlungen in kg pro</tspan><tspan dy="13" x="3">Kopf; Recyclingquote</tspan><title>Siedlungsabf채lle und Wertstoffsammlungen in kg pro Kopf; Recyclingquote</title></text><text x="3" text-anchor="start" class="highcharts-subtitle" style="color:#000000;font-size:10px;font-weight:normal;font-family:Arial;fill:#000000;" y="45"></text><g class="highcharts-legend" transform="translate(43,48)"><rect fill="none" class="highcharts-legend-box" rx="0" ry="0" x="0" y="0" width="282" height="70" visibility="visible"></rect><g><g><g class="highcharts-legend-item highcharts-column-series highcharts-color-undefined highcharts-series-1" transform="translate(8,8)"><text x="13" style="color:#333333;font-size:10px;font-weight:normal;cursor:pointer;fill:#333333;" text-anchor="start" y="13"><tspan>Siedlungsabf채lle (linke skala; Hauskehricht und Sperrgut)</tspan></text><rect x="0" y="4" width="10" height="10" fill="#990300" class="highcharts-point"></rect></g><g class="highcharts-legend-item highcharts-column-series highcharts-color-undefined highcharts-series-0" transform="translate(8,26)"><text x="13" y="13" style="color:#333333;font-size:10px;font-weight:normal;cursor:pointer;fill:#333333;" text-anchor="start"><tspan>Wertstoffsammlungen (linke Skala)</tspan></text><rect x="0" y="4" width="10" height="10" fill="#71A3B5" class="highcharts-point"></rect></g><g class="highcharts-legend-item highcharts-line-series highcharts-color-undefined highcharts-series-2" transform="translate(8,44)"><path fill="none" d="M 0 10 L 10 10" class="highcharts-graph" stroke="#000000" stroke-width="2"></path><text x="13" y="13" style="color:#333333;font-size:10px;font-weight:normal;cursor:pointer;fill:#333333;" text-anchor="start"><tspan>Recyclingquote (rechte Skala)</tspan></text></g></g></g></g><g class="highcharts-axis-labels highcharts-xaxis-labels "><text x="60.56372124239319" style="color:#000000;cursor:default;font-size:10;fill:#000000;" text-anchor="end" transform="translate(0,0) rotate(-45 60.56372124239319 183)" y="183" opacity="1">2000</text><text x="87.50489771298119" style="color:#000000;cursor:default;font-size:10;fill:#000000;" text-anchor="end" transform="translate(0,0) rotate(-45 87.50489771298119 183)" y="183" opacity="1">2002</text><text x="114.44607418356618" style="color:#000000;cursor:default;font-size:10;fill:#000000;" text-anchor="end" transform="translate(0,0) rotate(-45 114.44607418356618 183)" y="183" opacity="1">2004</text><text x="141.3872506541562" style="color:#000000;cursor:default;font-size:10;fill:#000000;" text-anchor="end" transform="translate(0,0) rotate(-45 141.3872506541562 183)" y="183" opacity="1">2006</text><text x="168.32842712474618" style="color:#000000;cursor:default;font-size:10;fill:#000000;" text-anchor="end" transform="translate(0,0) rotate(-45 168.32842712474618 183)" y="183" opacity="1">2008</text><text x="195.26960359533618" style="color:#000000;cursor:default;font-size:10;fill:#000000;" text-anchor="end" transform="translate(0,0) rotate(-45 195.26960359533618 183)" y="183" opacity="1">2010</text><text x="222.21078006592617" style="color:#000000;cursor:default;font-size:10;fill:#000000;" text-anchor="end" transform="translate(0,0) rotate(-45 222.21078006592617 183)" y="183" opacity="1">2012</text><text x="249.1519565365062" style="color:#000000;cursor:default;font-size:10;fill:#000000;" text-anchor="end" transform="translate(0,0) rotate(-45 249.1519565365062 183)" y="183" opacity="1">2014</text><text x="276.0931330070962" style="color:#000000;cursor:default;font-size:10;fill:#000000;" text-anchor="end" transform="translate(0,0) rotate(-45 276.0931330070962 183)" y="183" opacity="1">2016</text></g><g class="highcharts-axis-labels highcharts-yaxis-labels "><text x="36" style="color:#000000;cursor:default;font-size:11px;fill:#000000;" text-anchor="end" transform="translate(0,0)" y="170" opacity="1"><tspan>0 kg</tspan></text><text x="36" style="color:#000000;cursor:default;font-size:11px;fill:#000000;" text-anchor="end" transform="translate(0,0)" y="133" opacity="1"><tspan>400 kg</tspan></text></g><g class="highcharts-axis-labels highcharts-yaxis-labels "><text x="295" style="color:#000000;cursor:default;font-size:11px;fill:#000000;" text-anchor="start" transform="translate(0,0)" y="170" opacity="1">0%</text><text x="295" style="color:#000000;cursor:default;font-size:11px;fill:#000000;" text-anchor="start" transform="translate(0,0)" y="133" opacity="1">60%</text></g><text x="10" class="highcharts-credits" text-anchor="start" style="cursor:default;color:#000000;font-size:10;fill:#000000;" y="193"><tspan>Quelle: Amt f체r Umwelt und Energie Basel-Stadt</tspan></text></svg>