<?xml version="1.0" standalone="no"?><!DOCTYPE svg PUBLIC "-//W3C//DTD SVG 1.1//EN" "http://www.w3.org/Graphics/SVG/1.1/DTD/svg11.dtd"><svg xmlns:xlink="http://www.w3.org/1999/xlink" version="1.1" class="highcharts-root" style="font-family:Arial;font-size:12px;" xmlns="http://www.w3.org/2000/svg" viewBox="0 0 485 415"><desc>Created with Highstock 6.1.1</desc><defs><clipPath id="highcharts-k77cfdk-6"><rect x="0" y="0" width="289" height="130" fill="none"></rect></clipPath><clipPath id="highcharts-k77cfdk-7"><rect x="0" y="0" width="289" height="130" fill="none"></rect></clipPath></defs><rect fill="#fbfbfb" class="highcharts-background" x="0" y="0" width="320" height="221" rx="0" ry="0"></rect><rect fill="none" class="highcharts-plot-background" x="29" y="45" width="289" height="130"></rect><g class="highcharts-pane-group" data-z-index="0"></g><g class="highcharts-grid highcharts-xaxis-grid " data-z-index="1"><path fill="none" data-z-index="1" class="highcharts-grid-line" d="M 31.5 45 L 31.5 175" opacity="1"></path><path fill="none" data-z-index="1" class="highcharts-grid-line" d="M 55.5 45 L 55.5 175" opacity="1"></path><path fill="none" data-z-index="1" class="highcharts-grid-line" d="M 80.5 45 L 80.5 175" opacity="1"></path><path fill="none" data-z-index="1" class="highcharts-grid-line" d="M 105.5 45 L 105.5 175" opacity="1"></path><path fill="none" data-z-index="1" class="highcharts-grid-line" d="M 129.5 45 L 129.5 175" opacity="1"></path><path fill="none" data-z-index="1" class="highcharts-grid-line" d="M 154.5 45 L 154.5 175" opacity="1"></path><path fill="none" data-z-index="1" class="highcharts-grid-line" d="M 179.5 45 L 179.5 175" opacity="1"></path><path fill="none" data-z-index="1" class="highcharts-grid-line" d="M 203.5 45 L 203.5 175" opacity="1"></path><path fill="none" data-z-index="1" class="highcharts-grid-line" d="M 228.5 45 L 228.5 175" opacity="1"></path><path fill="none" data-z-index="1" class="highcharts-grid-line" d="M 253.5 45 L 253.5 175" opacity="1"></path><path fill="none" data-z-index="1" class="highcharts-grid-line" d="M 277.5 45 L 277.5 175" opacity="1"></path><path fill="none" data-z-index="1" class="highcharts-grid-line" d="M 302.5 45 L 302.5 175" opacity="1"></path></g><g class="highcharts-grid highcharts-yaxis-grid " data-z-index="1"><path fill="none" stroke="#B9CFD7" stroke-width="0.5" data-z-index="1" class="highcharts-grid-line" d="M 29 175.25 L 318 175.25" opacity="1"></path><path fill="none" stroke="#B9CFD7" stroke-width="0.5" data-z-index="1" class="highcharts-grid-line" d="M 29 110.25 L 318 110.25" opacity="1"></path><path fill="none" stroke="#B9CFD7" stroke-width="0.5" data-z-index="1" class="highcharts-grid-line" d="M 29 44.75 L 318 44.75" opacity="1"></path></g><rect fill="none" class="highcharts-plot-border" data-z-index="1" x="29" y="45" width="289" height="130"></rect><g class="highcharts-axis highcharts-xaxis " data-z-index="2"><path fill="none" class="highcharts-axis-line" stroke="#B9CFD7" stroke-width="0.5" data-z-index="7" d="M 29 175.25 L 318 175.25"></path></g><g class="highcharts-axis highcharts-yaxis " data-z-index="2"><path fill="none" class="highcharts-axis-line" data-z-index="7" d="M 29 45 L 29 175"></path></g><g class="highcharts-series-group" data-z-index="3"><g data-z-index="0.1" class="highcharts-series highcharts-series-0 highcharts-line-series " transform="translate(29,45) scale(1 1)" clip-path="url(#highcharts-k77cfdk-7)"><path fill="none" d="M 2.8333333333336 40.29688 L 15.152173913044 39.536185 L 27.471014492754 41.03801 L 39.789855072464 41.426190000000005 L 52.108695652174 41.541955 L 64.427536231884 40.846845 L 76.746376811594 40.32658500000001 L 89.065217391304 39.880750000000006 L 101.38405797101 39.90967500000001 L 113.70289855072 38.861615 L 126.02173913043 37.940110000000004 L 138.34057971014 38.54903 L 150.65942028986 39.43199 L 162.97826086957 38.881699999999995 L 175.29710144928 39.14833 L 187.61594202899 39.271895 L 199.9347826087 37.08757 L 212.25362318841 37.03388000000001 L 224.57246376812 35.458995 L 236.89130434783 35.935445 L 249.21014492754 35.19119500000001 L 261.52898550725 34.267415 L 273.84782608696 34.3057 L 286.16666666667 33.576465" class="highcharts-graph" data-z-index="1" stroke="#8b2223" stroke-width="2" stroke-linejoin="round" stroke-linecap="round"></path></g><g data-z-index="0.1" class="highcharts-markers highcharts-series-0 highcharts-line-series " transform="translate(29,45) scale(1 1)" clip-path="none"></g></g><text x="2" text-anchor="start" class="highcharts-title" data-z-index="4" style="color:#000000;font-size:10px;font-weight:bold;fill:#000000;" y="12"><tspan>Wassertemperatur Grundwasser</tspan></text><text x="2" text-anchor="start" class="highcharts-subtitle" data-z-index="4" style="color:#000000;font-size:10px;font-weight:normal;font-family:Arial;fill:#000000;" y="29"><tspan>in °C, Basel-Stadt</tspan></text><g class="highcharts-axis-labels highcharts-xaxis-labels " data-z-index="7"><text x="34.190355937289155" style="color:#000000;cursor:default;font-size:10px;white-space:nowrap;fill:#000000;" text-anchor="end" transform="translate(0,0) rotate(-45 34.190355937289155 190)" y="190" opacity="1">1994</text><text x="58.82803709670916" style="color:#000000;cursor:default;font-size:10px;white-space:nowrap;fill:#000000;" text-anchor="end" transform="translate(0,0) rotate(-45 58.82803709670916 190)" y="190" opacity="1">1996</text><text x="83.46571825612916" style="color:#000000;cursor:default;font-size:10px;white-space:nowrap;fill:#000000;" text-anchor="end" transform="translate(0,0) rotate(-45 83.46571825612916 190)" y="190" opacity="1">1998</text><text x="108.10339941554516" style="color:#000000;cursor:default;font-size:10px;white-space:nowrap;fill:#000000;" text-anchor="end" transform="translate(0,0) rotate(-45 108.10339941554516 190)" y="190" opacity="1">2000</text><text x="132.74108057496517" style="color:#000000;cursor:default;font-size:10px;white-space:nowrap;fill:#000000;" text-anchor="end" transform="translate(0,0) rotate(-45 132.74108057496517 190)" y="190" opacity="1">2002</text><text x="157.37876173438517" style="color:#000000;cursor:default;font-size:10px;white-space:nowrap;fill:#000000;" text-anchor="end" transform="translate(0,0) rotate(-45 157.37876173438517 190)" y="190" opacity="1">2004</text><text x="182.01644289381517" style="color:#000000;cursor:default;font-size:10px;white-space:nowrap;fill:#000000;" text-anchor="end" transform="translate(0,0) rotate(-45 182.01644289381517 190)" y="190" opacity="1">2006</text><text x="206.65412405323517" style="color:#000000;cursor:default;font-size:10px;white-space:nowrap;fill:#000000;" text-anchor="end" transform="translate(0,0) rotate(-45 206.65412405323517 190)" y="190" opacity="1">2008</text><text x="231.29180521265516" style="color:#000000;cursor:default;font-size:10px;white-space:nowrap;fill:#000000;" text-anchor="end" transform="translate(0,0) rotate(-45 231.29180521265516 190)" y="190" opacity="1">2010</text><text x="255.92948637207516" style="color:#000000;cursor:default;font-size:10px;white-space:nowrap;fill:#000000;" text-anchor="end" transform="translate(0,0) rotate(-45 255.92948637207516 190)" y="190" opacity="1">2012</text><text x="280.56716753149516" style="color:#000000;cursor:default;font-size:10px;white-space:nowrap;fill:#000000;" text-anchor="end" transform="translate(0,0) rotate(-45 280.56716753149516 190)" y="190" opacity="1">2014</text><text x="305.2048486909152" style="color:#000000;cursor:default;font-size:10px;white-space:nowrap;fill:#000000;" text-anchor="end" transform="translate(0,0) rotate(-45 305.2048486909152 190)" y="190" opacity="1">2016</text></g><g class="highcharts-axis-labels highcharts-yaxis-labels " data-z-index="7"><text x="14" style="color:#000000;cursor:default;font-size:10;fill:#000000;" text-anchor="end" transform="translate(0,0)" y="178" opacity="1">0</text><text x="14" style="color:#000000;cursor:default;font-size:10;fill:#000000;" text-anchor="end" transform="translate(0,0)" y="113" opacity="1">10</text><text x="14" style="color:#000000;cursor:default;font-size:10;fill:#000000;" text-anchor="end" transform="translate(0,0)" y="48" opacity="1">20</text></g><text x="10" class="highcharts-credits" text-anchor="start" data-z-index="8" style="cursor:default;color:#000000;font-size:10px;fill:#000000;" y="196"><tspan>Quelle: Amt für Umwelt und Energie Basel-Stadt.</tspan><tspan x="10" dy="13">Zuletzt geändert: 2018-9-5</tspan></text></svg>