<?xml version="1.0" standalone="no"?><!DOCTYPE svg PUBLIC "-//W3C//DTD SVG 1.1//EN" "http://www.w3.org/Graphics/SVG/1.1/DTD/svg11.dtd"><svg xmlns:xlink="http://www.w3.org/1999/xlink" version="1.1" class="highcharts-root" style="font-family:Arial;font-size:12px;" xmlns="http://www.w3.org/2000/svg" viewBox="0 0 485 415"><desc>Created with Highstock 6.1.1</desc><defs><clipPath id="highcharts-mekbg5l-8"><rect x="0" y="0" width="223" height="60" fill="none"></rect></clipPath><clipPath id="highcharts-mekbg5l-9"><rect x="0" y="0" width="223" height="60" fill="none"></rect></clipPath><clipPath id="highcharts-mekbg5l-10"><rect x="0" y="0" width="223" height="60" fill="none"></rect></clipPath></defs><rect fill="#fbfbfb" class="highcharts-background" x="0" y="0" width="320" height="208" rx="0" ry="0"></rect><rect fill="none" class="highcharts-plot-background" x="45" y="107" width="223" height="60"></rect><g class="highcharts-pane-group" data-z-index="0"></g><g class="highcharts-grid highcharts-xaxis-grid " data-z-index="1"><path fill="none" data-z-index="1" class="highcharts-grid-line" d="M 60.5 107 L 60.5 167" opacity="1"></path><path fill="none" data-z-index="1" class="highcharts-grid-line" d="M 87.5 107 L 87.5 167" opacity="1"></path><path fill="none" data-z-index="1" class="highcharts-grid-line" d="M 114.5 107 L 114.5 167" opacity="1"></path><path fill="none" data-z-index="1" class="highcharts-grid-line" d="M 142.5 107 L 142.5 167" opacity="1"></path><path fill="none" data-z-index="1" class="highcharts-grid-line" d="M 169.5 107 L 169.5 167" opacity="1"></path><path fill="none" data-z-index="1" class="highcharts-grid-line" d="M 197.5 107 L 197.5 167" opacity="1"></path><path fill="none" data-z-index="1" class="highcharts-grid-line" d="M 224.5 107 L 224.5 167" opacity="1"></path><path fill="none" data-z-index="1" class="highcharts-grid-line" d="M 251.5 107 L 251.5 167" opacity="1"></path></g><g class="highcharts-grid highcharts-yaxis-grid " data-z-index="1"><path fill="none" stroke="#e6e6e6" stroke-width="1" data-z-index="1" class="highcharts-grid-line" d="M 45 167.5 L 268 167.5" opacity="1"></path><path fill="none" stroke="#e6e6e6" stroke-width="1" data-z-index="1" class="highcharts-grid-line" d="M 45 152.5 L 268 152.5" opacity="1"></path><path fill="none" stroke="#e6e6e6" stroke-width="1" data-z-index="1" class="highcharts-grid-line" d="M 45 137.5 L 268 137.5" opacity="1"></path><path fill="none" stroke="#e6e6e6" stroke-width="1" data-z-index="1" class="highcharts-grid-line" d="M 45 122.5 L 268 122.5" opacity="1"></path><path fill="none" stroke="#e6e6e6" stroke-width="1" data-z-index="1" class="highcharts-grid-line" d="M 45 106.5 L 268 106.5" opacity="1"></path></g><g class="highcharts-grid highcharts-yaxis-grid " data-z-index="1"><path fill="none" data-z-index="1" class="highcharts-grid-line" d="M 45 167.5 L 268 167.5" opacity="1"></path><path fill="none" data-z-index="1" class="highcharts-grid-line" d="M 45 152.5 L 268 152.5" opacity="1"></path><path fill="none" data-z-index="1" class="highcharts-grid-line" d="M 45 137.5 L 268 137.5" opacity="1"></path><path fill="none" data-z-index="1" class="highcharts-grid-line" d="M 45 122.5 L 268 122.5" opacity="1"></path><path fill="none" data-z-index="1" class="highcharts-grid-line" d="M 45 107.5 L 268 107.5" opacity="1"></path></g><rect fill="none" class="highcharts-plot-border" data-z-index="1" x="45" y="107" width="223" height="60"></rect><g class="highcharts-axis highcharts-xaxis " data-z-index="2"><path fill="none" class="highcharts-axis-line" stroke="#B9CFD7" stroke-width="0.5" data-z-index="7" d="M 45 167.25 L 268 167.25"></path></g><g class="highcharts-axis highcharts-yaxis " data-z-index="2"><path fill="none" class="highcharts-axis-line" data-z-index="7" d="M 45 107 L 45 167"></path></g><g class="highcharts-axis highcharts-yaxis " data-z-index="2"><path fill="none" class="highcharts-axis-line" data-z-index="7" d="M 268 107 L 268 167"></path></g><g class="highcharts-series-group" data-z-index="3"><g data-z-index="0.1" class="highcharts-series highcharts-series-0 highcharts-column-series " transform="translate(45,107) scale(1 1)" clip-path="url(#highcharts-mekbg5l-9)"><rect x="9" y="17" width="14" height="44" fill="#E6E6E6" class="highcharts-point"></rect><rect x="36" y="23" width="14" height="38" fill="#E6E6E6" class="highcharts-point"></rect><rect x="64" y="20" width="14" height="41" fill="#E6E6E6" class="highcharts-point"></rect><rect x="91" y="20" width="14" height="41" fill="#E6E6E6" class="highcharts-point"></rect><rect x="119" y="17" width="14" height="44" fill="#E6E6E6" class="highcharts-point"></rect><rect x="146" y="17" width="14" height="44" fill="#E6E6E6" class="highcharts-point"></rect><rect x="173" y="16" width="14" height="45" fill="#E6E6E6" class="highcharts-point"></rect><rect x="201" y="14" width="14" height="47" fill="#E6E6E6" class="highcharts-point"></rect></g><g data-z-index="0.1" class="highcharts-markers highcharts-series-0 highcharts-column-series " transform="translate(45,107) scale(1 1)" clip-path="none"></g><g data-z-index="0.1" class="highcharts-series highcharts-series-1 highcharts-line-series " visibility="hidden" transform="translate(45,107) scale(1 1)" clip-path="url(#highcharts-mekbg5l-10)"><path fill="none" d="M 15.615479115478 46.03 L 43.011056511055 45.83 L 70.406633906633 46.66 L 97.802211302211 45.85 L 125.19778869779 46.05 L 152.59336609337 42.620000000000005 L 179.98894348894 43.51 L 207.38452088452 44.769999999999996" class="highcharts-graph" data-z-index="1" stroke="#cd9c00" stroke-width="2" stroke-linejoin="round" stroke-linecap="round"></path></g><g data-z-index="0.1" class="highcharts-markers highcharts-series-1 highcharts-line-series " visibility="hidden" transform="translate(45,107) scale(1 1)" clip-path="none"></g><g data-z-index="0.1" class="highcharts-series highcharts-series-2 highcharts-line-series " visibility="hidden" transform="translate(45,107) scale(1 1)" clip-path="url(#highcharts-mekbg5l-10)"><path fill="none" d="M 15.615479115478 57.6 L 43.011056511055 55.53 L 70.406633906633 52.7 L 97.802211302211 58.2 L 125.19778869779 59.12 L 152.59336609337 59.15 L 179.98894348894 58.8 L 207.38452088452 54.019999999999996" class="highcharts-graph" data-z-index="1" stroke="#ff8028" stroke-width="2" stroke-linejoin="round" stroke-linecap="round"></path></g><g data-z-index="0.1" class="highcharts-markers highcharts-series-2 highcharts-line-series " visibility="hidden" transform="translate(45,107) scale(1 1)" clip-path="none"></g><g data-z-index="0.1" class="highcharts-series highcharts-series-3 highcharts-line-series " visibility="hidden" transform="translate(45,107) scale(1 1)" clip-path="url(#highcharts-mekbg5l-10)"><path fill="none" d="M 15.615479115478 53.84 L 43.011056511055 55.21 L 70.406633906633 55.05 L 97.802211302211 54.99 L 125.19778869779 55.47 L 152.59336609337 55.6 L 179.98894348894 55.8 L 207.38452088452 55.36" class="highcharts-graph" data-z-index="1" stroke="#b00000" stroke-width="2" stroke-linejoin="round" stroke-linecap="round"></path></g><g data-z-index="0.1" class="highcharts-markers highcharts-series-3 highcharts-line-series " visibility="hidden" transform="translate(45,107) scale(1 1)" clip-path="none"></g><g data-z-index="0.1" class="highcharts-series highcharts-series-4 highcharts-line-series " visibility="hidden" transform="translate(45,107) scale(1 1)" clip-path="url(#highcharts-mekbg5l-10)"><path fill="none" d="M 15.615479115478 52 L 43.011056511055 53.3 L 70.406633906633 53.48 L 97.802211302211 53.43 L 125.19778869779 50.769999999999996 L 152.59336609337 44.04 L 179.98894348894 46.87 L 207.38452088452 45.6" class="highcharts-graph" data-z-index="1" stroke="#672773" stroke-width="2" stroke-linejoin="round" stroke-linecap="round"></path></g><g data-z-index="0.1" class="highcharts-markers highcharts-series-4 highcharts-line-series " visibility="hidden" transform="translate(45,107) scale(1 1)" clip-path="none"></g><g data-z-index="0.1" class="highcharts-series highcharts-series-5 highcharts-line-series " transform="translate(45,107) scale(1 1)" clip-path="url(#highcharts-mekbg5l-10)"><path fill="none" d="M 15.615479115478 22.08 L 43.011056511055 19.65 L 70.406633906633 18.67 L 97.802211302211 16.68 L 125.19778869779 14.130000000000003 L 152.59336609337 13.969999999999999 L 179.98894348894 10.879999999999995 L 207.38452088452 14.43" class="highcharts-graph" data-z-index="1" stroke="#007a2f" stroke-width="2" stroke-linejoin="round" stroke-linecap="round"></path></g><g data-z-index="0.1" class="highcharts-markers highcharts-series-5 highcharts-line-series " transform="translate(45,107) scale(1 1)" clip-path="none"></g><g data-z-index="0.1" class="highcharts-series highcharts-series-6 highcharts-line-series " visibility="hidden" transform="translate(45,107) scale(1 1)" clip-path="url(#highcharts-mekbg5l-10)"><path fill="none" d="M 15.615479115478 28.81 L 43.011056511055 26.019999999999996 L 70.406633906633 27 L 97.802211302211 26.21 L 125.19778869779 14.119999999999997 L 152.59336609337 28.91 L 179.98894348894 29.02 L 207.38452088452 29.06" class="highcharts-graph" data-z-index="1" stroke="#44ab2b" stroke-width="2" stroke-linejoin="round" stroke-linecap="round"></path></g><g data-z-index="0.1" class="highcharts-markers highcharts-series-6 highcharts-line-series " visibility="hidden" transform="translate(45,107) scale(1 1)" clip-path="none"></g><g data-z-index="0.1" class="highcharts-series highcharts-series-7 highcharts-line-series " visibility="hidden" transform="translate(45,107) scale(1 1)" clip-path="url(#highcharts-mekbg5l-10)"><path fill="none" d="M 15.615479115478 46.97 L 43.011056511055 48.3 L 70.406633906633 47.96 L 97.802211302211 47.41 L 125.19778869779 46.269999999999996 L 152.59336609337 47.07 L 179.98894348894 45.42 L 207.38452088452 43.2" class="highcharts-graph" data-z-index="1" stroke="#b475ab" stroke-width="2" stroke-linejoin="round" stroke-linecap="round"></path></g><g data-z-index="0.1" class="highcharts-markers highcharts-series-7 highcharts-line-series " visibility="hidden" transform="translate(45,107) scale(1 1)" clip-path="none"></g><g data-z-index="0.1" class="highcharts-series highcharts-series-8 highcharts-line-series " visibility="hidden" transform="translate(45,107) scale(1 1)" clip-path="url(#highcharts-mekbg5l-10)"><path fill="none" d="M 15.615479115478 1.2800000000000011 L 43.011056511055 -0.5600000000000023 L 70.406633906633 -1.6900000000000048 L 97.802211302211 -3.3299999999999983 L 125.19778869779 -8.420000000000002 L 152.59336609337 -10.680000000000007 L 179.98894348894 -14.370000000000005 L 207.38452088452 -18.03" class="highcharts-graph" data-z-index="1" stroke="#ffbb58" stroke-width="2" stroke-linejoin="round" stroke-linecap="round"></path></g><g data-z-index="0.1" class="highcharts-markers highcharts-series-8 highcharts-line-series " visibility="hidden" transform="translate(45,107) scale(1 1)" clip-path="none"></g><g data-z-index="0.1" class="highcharts-series highcharts-series-9 highcharts-line-series " visibility="hidden" transform="translate(45,107) scale(1 1)" clip-path="url(#highcharts-mekbg5l-10)"><path fill="none" d="M 15.615479115478 41.31 L 43.011056511055 42.379999999999995 L 70.406633906633 41.94 L 97.802211302211 41.05 L 125.19778869779 40.03 L 152.59336609337 38.47 L 179.98894348894 38.26 L 207.38452088452 38.19" class="highcharts-graph" data-z-index="1" stroke="#a8c4cb" stroke-width="2" stroke-linejoin="round" stroke-linecap="round"></path></g><g data-z-index="0.1" class="highcharts-markers highcharts-series-9 highcharts-line-series " visibility="hidden" transform="translate(45,107) scale(1 1)" clip-path="none"></g><g data-z-index="0.1" class="highcharts-series highcharts-series-10 highcharts-line-series " visibility="hidden" transform="translate(45,107) scale(1 1)" clip-path="url(#highcharts-mekbg5l-10)"><path fill="none" d="M 15.615479115478 17.839999999999996 L 43.011056511055 49.78 L 70.406633906633 39.93 L 97.802211302211 40.92 L 125.19778869779 48.7 L 152.59336609337 47.22 L 179.98894348894 45.43 L 207.38452088452 41.93" class="highcharts-graph" data-z-index="1" stroke="#256370" stroke-width="2" stroke-linejoin="round" stroke-linecap="round"></path></g><g data-z-index="0.1" class="highcharts-markers highcharts-series-10 highcharts-line-series " visibility="hidden" transform="translate(45,107) scale(1 1)" clip-path="none"></g></g><text x="3" text-anchor="start" class="highcharts-title" data-z-index="4" style="color:#000000;font-size:10px;font-weight:bold;fill:#000000;" y="14"><tspan>Entwicklung der Staatsausgaben nach Funktion</tspan></text><text x="3" text-anchor="start" class="highcharts-subtitle" data-z-index="4" style="color:#000000;font-size:10px;font-weight:normal;font-family:Arial;fill:#000000;" y="32"><tspan>pro Kopf in Franken</tspan></text><g class="highcharts-legend" data-z-index="7" transform="translate(37,48)"><rect fill="none" class="highcharts-legend-box" rx="0" ry="0" x="0" y="0" width="196" height="47" visibility="visible"></rect><g data-z-index="1"><g><g class="highcharts-legend-item highcharts-line-series highcharts-color-undefined highcharts-series-5" data-z-index="1" transform="translate(8,3)"><path fill="none" d="M 0 10 L 16 10" class="highcharts-graph" stroke="#007a2f" stroke-width="2"></path><text x="21" style="color:#333333;font-size:10px;font-weight:normal;cursor:pointer;fill:#333333;" text-anchor="start" data-z-index="2" y="13"><tspan>Soziale Sicherheit</tspan></text></g><g class="highcharts-legend-item highcharts-column-series highcharts-color-undefined highcharts-series-0" data-z-index="1" transform="translate(8,21)"><text x="21" y="13" style="color:#333333;font-size:10px;font-weight:normal;cursor:pointer;fill:#333333;" text-anchor="start" data-z-index="2"><tspan>Total (rechte Skala)</tspan></text><rect x="3" y="4" width="10" height="10" fill="#E6E6E6" class="highcharts-point" data-z-index="3"></rect></g></g></g></g><g class="highcharts-axis-labels highcharts-xaxis-labels " data-z-index="7"><text x="63.443906240224194" style="color:#000000;cursor:default;font-size:10;fill:#000000;" text-anchor="end" transform="translate(0,0) rotate(-45 63.443906240224194 183)" y="183" opacity="1">2008</text><text x="90.83948363580119" style="color:#000000;cursor:default;font-size:10;fill:#000000;" text-anchor="end" transform="translate(0,0) rotate(-45 90.83948363580119 183)" y="183" opacity="1">2009</text><text x="118.23506103137619" style="color:#000000;cursor:default;font-size:10;fill:#000000;" text-anchor="end" transform="translate(0,0) rotate(-45 118.23506103137619 183)" y="183" opacity="1">2010</text><text x="145.63063842695618" style="color:#000000;cursor:default;font-size:10;fill:#000000;" text-anchor="end" transform="translate(0,0) rotate(-45 145.63063842695618 183)" y="183" opacity="1">2011</text><text x="173.0262158225362" style="color:#000000;cursor:default;font-size:10;fill:#000000;" text-anchor="end" transform="translate(0,0) rotate(-45 173.0262158225362 183)" y="183" opacity="1">2012</text><text x="200.4217932181162" style="color:#000000;cursor:default;font-size:10;fill:#000000;" text-anchor="end" transform="translate(0,0) rotate(-45 200.4217932181162 183)" y="183" opacity="1">2013</text><text x="227.8173706136862" style="color:#000000;cursor:default;font-size:10;fill:#000000;" text-anchor="end" transform="translate(0,0) rotate(-45 227.8173706136862 183)" y="183" opacity="1">2014</text><text x="255.21294800926617" style="color:#000000;cursor:default;font-size:10;fill:#000000;" text-anchor="end" transform="translate(0,0) rotate(-45 255.21294800926617 183)" y="183" opacity="1">2015</text></g><g class="highcharts-axis-labels highcharts-yaxis-labels " data-z-index="7"><text x="30" style="color:#000000;cursor:default;font-size:11px;fill:#000000;" text-anchor="end" transform="translate(0,0)" y="170" opacity="1">0</text><text x="30" style="color:#000000;cursor:default;font-size:11px;fill:#000000;" text-anchor="end" transform="translate(0,0)" y="155" opacity="1"><tspan>1 500</tspan></text><text x="30" style="color:#000000;cursor:default;font-size:11px;fill:#000000;" text-anchor="end" transform="translate(0,0)" y="140" opacity="1"><tspan>3 000</tspan></text><text x="30" style="color:#000000;cursor:default;font-size:11px;fill:#000000;" text-anchor="end" transform="translate(0,0)" y="125" opacity="1"><tspan>4 500</tspan></text><text x="30" style="color:#000000;cursor:default;font-size:11px;fill:#000000;" text-anchor="end" transform="translate(0,0)" y="110" opacity="1"><tspan>6 000</tspan></text></g><g class="highcharts-axis-labels highcharts-yaxis-labels " data-z-index="7"><text x="283" style="color:#000000;cursor:default;font-size:11px;fill:#000000;" text-anchor="start" transform="translate(0,0)" y="170" opacity="1">0</text><text x="283" style="color:#000000;cursor:default;font-size:11px;fill:#000000;" text-anchor="start" transform="translate(0,0)" y="155" opacity="1"><tspan>8 000</tspan></text><text x="283" style="color:#000000;cursor:default;font-size:11px;fill:#000000;" text-anchor="start" transform="translate(0,0)" y="140" opacity="1"><tspan>16 000</tspan></text><text x="283" style="color:#000000;cursor:default;font-size:11px;fill:#000000;" text-anchor="start" transform="translate(0,0)" y="125" opacity="1"><tspan>24 000</tspan></text><text x="283" style="color:#000000;cursor:default;font-size:11px;fill:#000000;" text-anchor="start" transform="translate(0,0)" y="110" opacity="1"><tspan>32 000</tspan></text></g><text x="10" class="highcharts-credits" text-anchor="start" data-z-index="8" style="cursor:default;color:#000000;font-size:10;fill:#000000;" y="193"><tspan>Quelle: Eidgenössische Finanzverwaltung</tspan></text></svg>