<?xml version="1.0" standalone="no"?><!DOCTYPE svg PUBLIC "-//W3C//DTD SVG 1.1//EN" "http://www.w3.org/Graphics/SVG/1.1/DTD/svg11.dtd"><svg xmlns:xlink="http://www.w3.org/1999/xlink" version="1.1" class="highcharts-root" style="font-family:Arial;font-size:12px;" xmlns="http://www.w3.org/2000/svg" viewBox="0 0 485 415"><desc>Created with Highstock 6.1.1</desc><defs><clipPath id="highcharts-159t8co-6"><rect x="0" y="0" width="453" height="143" fill="none"></rect></clipPath><clipPath id="highcharts-159t8co-7"><rect x="0" y="0" width="453" height="143" fill="none"></rect></clipPath></defs><rect fill="#fbfbfb" class="highcharts-background" x="0" y="0" width="665" height="221" rx="0" ry="0"></rect><rect fill="none" class="highcharts-plot-background" x="38" y="45" width="453" height="143"></rect><g class="highcharts-pane-group" data-z-index="0"></g><g class="highcharts-grid highcharts-xaxis-grid " data-z-index="1"><path fill="none" data-z-index="1" class="highcharts-grid-line" d="M 41.5 45 L 41.5 188" opacity="1"></path><path fill="none" data-z-index="1" class="highcharts-grid-line" d="M 91.5 45 L 91.5 188" opacity="1"></path><path fill="none" data-z-index="1" class="highcharts-grid-line" d="M 140.5 45 L 140.5 188" opacity="1"></path><path fill="none" data-z-index="1" class="highcharts-grid-line" d="M 189.5 45 L 189.5 188" opacity="1"></path><path fill="none" data-z-index="1" class="highcharts-grid-line" d="M 239.5 45 L 239.5 188" opacity="1"></path><path fill="none" data-z-index="1" class="highcharts-grid-line" d="M 288.5 45 L 288.5 188" opacity="1"></path><path fill="none" data-z-index="1" class="highcharts-grid-line" d="M 338.5 45 L 338.5 188" opacity="1"></path><path fill="none" data-z-index="1" class="highcharts-grid-line" d="M 387.5 45 L 387.5 188" opacity="1"></path><path fill="none" data-z-index="1" class="highcharts-grid-line" d="M 436.5 45 L 436.5 188" opacity="1"></path><path fill="none" data-z-index="1" class="highcharts-grid-line" d="M 486.5 45 L 486.5 188" opacity="1"></path></g><g class="highcharts-grid highcharts-yaxis-grid " data-z-index="1"><path fill="none" stroke="#B9CFD7" stroke-width="0.5" data-z-index="1" class="highcharts-grid-line" d="M 38 188.25 L 491 188.25" opacity="1"></path><path fill="none" stroke="#B9CFD7" stroke-width="0.5" data-z-index="1" class="highcharts-grid-line" d="M 38 159.25 L 491 159.25" opacity="1"></path><path fill="none" stroke="#B9CFD7" stroke-width="0.5" data-z-index="1" class="highcharts-grid-line" d="M 38 131.25 L 491 131.25" opacity="1"></path><path fill="none" stroke="#B9CFD7" stroke-width="0.5" data-z-index="1" class="highcharts-grid-line" d="M 38 102.25 L 491 102.25" opacity="1"></path><path fill="none" stroke="#B9CFD7" stroke-width="0.5" data-z-index="1" class="highcharts-grid-line" d="M 38 74.25 L 491 74.25" opacity="1"></path><path fill="none" stroke="#B9CFD7" stroke-width="0.5" data-z-index="1" class="highcharts-grid-line" d="M 38 44.75 L 491 44.75" opacity="1"></path></g><rect fill="none" class="highcharts-plot-border" data-z-index="1" x="38" y="45" width="453" height="143"></rect><g class="highcharts-axis highcharts-xaxis " data-z-index="2"><path fill="none" class="highcharts-axis-line" stroke="#B9CFD7" stroke-width="0.5" data-z-index="7" d="M 38 188.25 L 491 188.25"></path></g><g class="highcharts-axis highcharts-yaxis " data-z-index="2"><path fill="none" class="highcharts-axis-line" data-z-index="7" d="M 38 45 L 38 188"></path></g><g class="highcharts-series-group" data-z-index="3"><g data-z-index="0.1" class="highcharts-series highcharts-series-0 highcharts-line-series " transform="translate(38,45) scale(1 1)" clip-path="url(#highcharts-159t8co-7)"><path fill="none" d="M 4.4411764705843 136.136 L 53.787581699343 137.28 L 103.1339869281 139.568 L 152.48039215686 138.996 L 201.82679738562 137.28 L 251.17320261438 140.712 L 300.51960784314 133.276 L 349.8660130719 135.564 L 399.21241830066 136.136 L 448.55882352942 138.996" class="highcharts-graph" data-z-index="1" stroke="#B00000" stroke-width="2" stroke-linejoin="round" stroke-linecap="round"></path></g><g data-z-index="0.1" class="highcharts-markers highcharts-series-0 highcharts-line-series " transform="translate(38,45) scale(1 1)" clip-path="none"></g><g data-z-index="0.1" class="highcharts-series highcharts-series-1 highcharts-line-series " transform="translate(38,45) scale(1 1)" clip-path="url(#highcharts-159t8co-7)"><path fill="none" d="M 4.4411764705843 143 L 53.787581699343 143 L 103.1339869281 133.276 L 152.48039215686 128.128 L 201.82679738562 115.544 L 251.17320261438 124.124 L 300.51960784314 58.343999999999994 L 349.8660130719 93.236 L 399.21241830066 47.47600000000001 L 448.55882352942 104.676" class="highcharts-graph" data-z-index="1" stroke="#662673" stroke-width="2" stroke-linejoin="round" stroke-linecap="round"></path></g><g data-z-index="0.1" class="highcharts-markers highcharts-series-1 highcharts-line-series " transform="translate(38,45) scale(1 1)" clip-path="none"></g><g data-z-index="0.1" class="highcharts-series highcharts-series-2 highcharts-line-series " transform="translate(38,45) scale(1 1)" clip-path="url(#highcharts-159t8co-7)"><path fill="none" d="M 4.4411764705843 106.964 L 53.787581699343 119.548 L 103.1339869281 92.664 L 152.48039215686 123.55199999999999 L 201.82679738562 125.84 L 251.17320261438 102.96000000000001 L 300.51960784314 102.388 L 349.8660130719 86.372 L 399.21241830066 113.828 L 448.55882352942 85.22800000000001" class="highcharts-graph" data-z-index="1" stroke="#008AC3" stroke-width="2" stroke-linejoin="round" stroke-linecap="round"></path></g><g data-z-index="0.1" class="highcharts-markers highcharts-series-2 highcharts-line-series " transform="translate(38,45) scale(1 1)" clip-path="none"></g><g data-z-index="0.1" class="highcharts-series highcharts-series-3 highcharts-line-series " transform="translate(38,45) scale(1 1)" clip-path="url(#highcharts-159t8co-7)"><path fill="none" d="M 4.4411764705843 114.972 L 53.787581699343 80.08000000000001 L 103.1339869281 100.672 L 152.48039215686 113.828 L 201.82679738562 111.54 L 251.17320261438 110.968 L 300.51960784314 65.78 L 349.8660130719 77.792 L 399.21241830066 16.587999999999994 L 448.55882352942 88.088" class="highcharts-graph" data-z-index="1" stroke="#007A2F" stroke-width="2" stroke-linejoin="round" stroke-linecap="round"></path></g><g data-z-index="0.1" class="highcharts-markers highcharts-series-3 highcharts-line-series " transform="translate(38,45) scale(1 1)" clip-path="none"></g><g data-z-index="0.1" class="highcharts-series highcharts-series-4 highcharts-line-series " transform="translate(38,45) scale(1 1)" clip-path="url(#highcharts-159t8co-7)"><path fill="none" d="M 4.4411764705843 73.21600000000001 L 53.787581699343 109.25200000000001 L 103.1339869281 21.736000000000004 L 152.48039215686 44.616000000000014 L 201.82679738562 103.532 L 251.17320261438 143 L 300.51960784314 54.912000000000006 L 349.8660130719 85.80000000000001 L 399.21241830066 93.236 L 448.55882352942 61.20399999999999" class="highcharts-graph" data-z-index="1" stroke="#FABD24" stroke-width="2" stroke-linejoin="round" stroke-linecap="round"></path></g><g data-z-index="0.1" class="highcharts-markers highcharts-series-4 highcharts-line-series " transform="translate(38,45) scale(1 1)" clip-path="none"></g></g><text x="2" text-anchor="start" class="highcharts-title" data-z-index="4" style="color:#000000;font-size:10px;font-weight:bold;fill:#000000;" y="12"><tspan>Schulabgängerinnen und -abgänger ohne Anschlusslösung</tspan></text><text x="2" text-anchor="start" class="highcharts-subtitle" data-z-index="4" style="color:#000000;font-size:10px;font-weight:normal;font-family:Arial;fill:#000000;" y="29"><tspan>nach Schultyp, Basel-Stadt</tspan></text><g class="highcharts-legend" data-z-index="7" transform="translate(503,72)"><rect fill="none" class="highcharts-legend-box" rx="0" ry="0" x="0" y="0" width="160" height="70" visibility="visible"></rect><g data-z-index="1"><g><g class="highcharts-legend-item highcharts-line-series highcharts-color-undefined highcharts-series-3" data-z-index="1" transform="translate(0,-5)"><path fill="none" d="M 0 10 L 16 10" class="highcharts-graph" stroke="#007A2F" stroke-width="2"></path><text x="21" style="color:#333333;font-size:10px;font-weight:normal;cursor:pointer;white-space:nowrap;fill:#333333;" text-anchor="start" data-z-index="2" y="13"><tspan>Allg. Gewerbeschule</tspan></text></g><g class="highcharts-legend-item highcharts-line-series highcharts-color-undefined highcharts-series-1" data-z-index="1" transform="translate(0,10)"><path fill="none" d="M 0 10 L 16 10" class="highcharts-graph" stroke="#662673" stroke-width="2"></path><text x="21" y="13" style="color:#333333;font-size:10px;font-weight:normal;cursor:pointer;white-space:nowrap;fill:#333333;" text-anchor="start" data-z-index="2"><tspan>Spezialangebote WBS/Sek</tspan></text></g><g class="highcharts-legend-item highcharts-line-series highcharts-color-undefined highcharts-series-4" data-z-index="1" transform="translate(0,25)"><path fill="none" d="M 0 10 L 16 10" class="highcharts-graph" stroke="#FABD24" stroke-width="2"></path><text x="21" y="13" style="color:#333333;font-size:10px;font-weight:normal;cursor:pointer;white-space:nowrap;fill:#333333;" text-anchor="start" data-z-index="2"><tspan>Berufsfachschule</tspan></text></g><g class="highcharts-legend-item highcharts-line-series highcharts-color-undefined highcharts-series-2" data-z-index="1" transform="translate(0,40)"><path fill="none" d="M 0 10 L 16 10" class="highcharts-graph" stroke="#008AC3" stroke-width="2"></path><text x="21" y="13" style="color:#333333;font-size:10px;font-weight:normal;cursor:pointer;white-space:nowrap;fill:#333333;" text-anchor="start" data-z-index="2"><tspan>Zentrum für Brückenangebote</tspan></text></g><g class="highcharts-legend-item highcharts-line-series highcharts-color-undefined highcharts-series-0" data-z-index="1" transform="translate(0,55)"><path fill="none" d="M 0 10 L 16 10" class="highcharts-graph" stroke="#B00000" stroke-width="2"></path><text x="21" y="13" style="color:#333333;font-size:10px;font-weight:normal;cursor:pointer;white-space:nowrap;fill:#333333;" text-anchor="start" data-z-index="2"><tspan>Weiterbildungsschule/Sek</tspan></text></g></g></g></g><g class="highcharts-axis-labels highcharts-xaxis-labels " data-z-index="7"><text x="42.441176470584" style="color:#000000;cursor:default;font-size:10px;white-space:nowrap;fill:#000000;" text-anchor="middle" transform="translate(0,0)" y="206" opacity="1">2010</text><text x="91.787581699343" style="color:#000000;cursor:default;font-size:10px;white-space:nowrap;fill:#000000;" text-anchor="middle" transform="translate(0,0)" y="206" opacity="1">2011</text><text x="141.1339869281" style="color:#000000;cursor:default;font-size:10px;white-space:nowrap;fill:#000000;" text-anchor="middle" transform="translate(0,0)" y="206" opacity="1">2012</text><text x="190.48039215686" style="color:#000000;cursor:default;font-size:10px;white-space:nowrap;fill:#000000;" text-anchor="middle" transform="translate(0,0)" y="206" opacity="1">2013</text><text x="239.82679738562" style="color:#000000;cursor:default;font-size:10px;white-space:nowrap;fill:#000000;" text-anchor="middle" transform="translate(0,0)" y="206" opacity="1">2014</text><text x="289.17320261438" style="color:#000000;cursor:default;font-size:10px;white-space:nowrap;fill:#000000;" text-anchor="middle" transform="translate(0,0)" y="206" opacity="1">2015</text><text x="338.51960784314" style="color:#000000;cursor:default;font-size:10px;white-space:nowrap;fill:#000000;" text-anchor="middle" transform="translate(0,0)" y="206" opacity="1">2016</text><text x="387.8660130719" style="color:#000000;cursor:default;font-size:10px;white-space:nowrap;fill:#000000;" text-anchor="middle" transform="translate(0,0)" y="206" opacity="1">2017</text><text x="437.21241830066" style="color:#000000;cursor:default;font-size:10px;white-space:nowrap;fill:#000000;" text-anchor="middle" transform="translate(0,0)" y="206" opacity="1">2018</text><text x="486.55882352942" style="color:#000000;cursor:default;font-size:10px;white-space:nowrap;fill:#000000;" text-anchor="middle" transform="translate(0,0)" y="206" opacity="1">2019</text></g><g class="highcharts-axis-labels highcharts-yaxis-labels " data-z-index="7"><text x="23" style="color:#000000;cursor:default;font-size:10;fill:#000000;" text-anchor="end" transform="translate(0,0)" y="191" opacity="1">0%</text><text x="23" style="color:#000000;cursor:default;font-size:10;fill:#000000;" text-anchor="end" transform="translate(0,0)" y="162" opacity="1">5%</text><text x="23" style="color:#000000;cursor:default;font-size:10;fill:#000000;" text-anchor="end" transform="translate(0,0)" y="134" opacity="1">10%</text><text x="23" style="color:#000000;cursor:default;font-size:10;fill:#000000;" text-anchor="end" transform="translate(0,0)" y="105" opacity="1">15%</text><text x="23" style="color:#000000;cursor:default;font-size:10;fill:#000000;" text-anchor="end" transform="translate(0,0)" y="77" opacity="1">20%</text><text x="23" style="color:#000000;cursor:default;font-size:10;fill:#000000;" text-anchor="end" transform="translate(0,0)" y="48" opacity="1">25%</text></g><text x="10" class="highcharts-credits" text-anchor="start" data-z-index="8" style="cursor:default;color:#000000;font-size:10px;fill:#000000;" y="196"><tspan>Quelle: Erziehungsdepartement Basel-Stadt, Berufs- und Schulwahlerhebung.</tspan><tspan x="10" dy="13">Zuletzt geändert: 2020-4-1</tspan></text></svg>