<?xml version="1.0" standalone="no"?><!DOCTYPE svg PUBLIC "-//W3C//DTD SVG 1.1//EN" "http://www.w3.org/Graphics/SVG/1.1/DTD/svg11.dtd"><svg xmlns:xlink="http://www.w3.org/1999/xlink" version="1.1" class="highcharts-root" style="font-family:Arial;font-size:12px;" xmlns="http://www.w3.org/2000/svg" viewBox="0 0 485 415"><desc>Created with Highstock 6.1.1</desc><defs><clipPath id="highcharts-5p1vozv-6"><rect x="0" y="0" width="274" height="124" fill="none"></rect></clipPath><clipPath id="highcharts-5p1vozv-7"><rect x="0" y="0" width="274" height="124" fill="none"></rect></clipPath></defs><rect fill="#fbfbfb" class="highcharts-background" x="0" y="0" width="320" height="221" rx="0" ry="0"></rect><rect fill="none" class="highcharts-plot-background" x="44" y="64" width="274" height="124"></rect><g class="highcharts-pane-group" data-z-index="0"></g><g class="highcharts-grid highcharts-xaxis-grid " data-z-index="1"><path fill="none" data-z-index="1" class="highcharts-grid-line" d="M 82.5 64 L 82.5 188" opacity="1"></path><path fill="none" data-z-index="1" class="highcharts-grid-line" d="M 121.5 64 L 121.5 188" opacity="1"></path><path fill="none" data-z-index="1" class="highcharts-grid-line" d="M 160.5 64 L 160.5 188" opacity="1"></path><path fill="none" data-z-index="1" class="highcharts-grid-line" d="M 200.5 64 L 200.5 188" opacity="1"></path><path fill="none" data-z-index="1" class="highcharts-grid-line" d="M 239.5 64 L 239.5 188" opacity="1"></path><path fill="none" data-z-index="1" class="highcharts-grid-line" d="M 278.5 64 L 278.5 188" opacity="1"></path><path fill="none" data-z-index="1" class="highcharts-grid-line" d="M 317.5 64 L 317.5 188" opacity="1"></path><path fill="none" data-z-index="1" class="highcharts-grid-line" d="M 43.5 64 L 43.5 188" opacity="1"></path></g><g class="highcharts-grid highcharts-yaxis-grid " data-z-index="1"><path fill="none" stroke="#B9CFD7" stroke-width="0.5" data-z-index="1" class="highcharts-grid-line" d="M 44 188.25 L 318 188.25" opacity="1"></path><path fill="none" stroke="#B9CFD7" stroke-width="0.5" data-z-index="1" class="highcharts-grid-line" d="M 44 147.25 L 318 147.25" opacity="1"></path><path fill="none" stroke="#B9CFD7" stroke-width="0.5" data-z-index="1" class="highcharts-grid-line" d="M 44 105.25 L 318 105.25" opacity="1"></path><path fill="none" stroke="#B9CFD7" stroke-width="0.5" data-z-index="1" class="highcharts-grid-line" d="M 44 63.75 L 318 63.75" opacity="1"></path></g><rect fill="none" class="highcharts-plot-border" data-z-index="1" x="44" y="64" width="274" height="124"></rect><g class="highcharts-axis highcharts-xaxis " data-z-index="2"><path fill="none" class="highcharts-axis-line" stroke="#B9CFD7" stroke-width="0.5" data-z-index="7" d="M 44 188.25 L 318 188.25"></path></g><g class="highcharts-axis highcharts-yaxis " data-z-index="2"><path fill="none" class="highcharts-axis-line" data-z-index="7" d="M 44 64 L 44 188"></path></g><g class="highcharts-series-group" data-z-index="3"><g data-z-index="0.1" class="highcharts-series highcharts-series-0 highcharts-column-series " transform="translate(44,64) scale(1 1)" clip-path="url(#highcharts-5p1vozv-7)"><rect x="5" y="31" width="30" height="22" fill="#246370" class="highcharts-point"></rect><rect x="44" y="34" width="30" height="22" fill="#246370" class="highcharts-point"></rect><rect x="83" y="35" width="30" height="22" fill="#246370" class="highcharts-point"></rect><rect x="122" y="35" width="30" height="22" fill="#246370" class="highcharts-point"></rect><rect x="161" y="36" width="30" height="24" fill="#246370" class="highcharts-point"></rect><rect x="200" y="37" width="30" height="23" fill="#246370" class="highcharts-point"></rect><rect x="239" y="38" width="30" height="24" fill="#246370" class="highcharts-point"></rect></g><g data-z-index="0.1" class="highcharts-markers highcharts-series-0 highcharts-column-series " transform="translate(44,64) scale(1 1)" clip-path="none"></g><g data-z-index="0.1" class="highcharts-series highcharts-series-1 highcharts-column-series " transform="translate(44,64) scale(1 1)" clip-path="url(#highcharts-5p1vozv-7)"><rect x="5" y="53" width="30" height="72" fill="#b00000" class="highcharts-point"></rect><rect x="44" y="56" width="30" height="69" fill="#b00000" class="highcharts-point"></rect><rect x="83" y="57" width="30" height="68" fill="#b00000" class="highcharts-point"></rect><rect x="122" y="57" width="30" height="68" fill="#b00000" class="highcharts-point"></rect><rect x="161" y="60" width="30" height="65" fill="#b00000" class="highcharts-point"></rect><rect x="200" y="60" width="30" height="65" fill="#b00000" class="highcharts-point"></rect><rect x="239" y="62" width="30" height="63" fill="#b00000" class="highcharts-point"></rect></g><g data-z-index="0.1" class="highcharts-markers highcharts-series-1 highcharts-column-series " transform="translate(44,64) scale(1 1)" clip-path="none"></g></g><text x="2" text-anchor="start" class="highcharts-title" data-z-index="4" style="color:#000000;font-size:10px;font-weight:bold;fill:#000000;" y="9"><tspan>Anzahl Lernende an Basler Berufsfachschulen</tspan></text><text x="2" text-anchor="start" class="highcharts-subtitle" data-z-index="4" style="color:#000000;font-size:10px;font-weight:normal;font-family:Arial;fill:#000000;" y="26"><tspan>nach Herkunft</tspan></text><g class="highcharts-legend" data-z-index="7" transform="translate(41,42)"><rect fill="none" class="highcharts-legend-box" rx="0" ry="0" x="0" y="0" width="139" height="10" visibility="visible"></rect><g data-z-index="1"><g><g class="highcharts-legend-item highcharts-column-series highcharts-color-undefined highcharts-series-0" data-z-index="1" transform="translate(0,-5)"><text x="21" style="color:#333333;font-size:10px;font-weight:normal;cursor:pointer;fill:#333333;" text-anchor="start" data-z-index="2" y="13"><tspan>Ausland</tspan></text><rect x="3" y="4" width="10" height="10" fill="#246370" class="highcharts-point" data-z-index="3"></rect></g><g class="highcharts-legend-item highcharts-column-series highcharts-color-undefined highcharts-series-1" data-z-index="1" transform="translate(79,-5)"><text x="21" y="13" style="color:#333333;font-size:10px;font-weight:normal;cursor:pointer;fill:#333333;" text-anchor="start" data-z-index="2"><tspan>Schweiz</tspan></text><rect x="3" y="4" width="10" height="10" fill="#b00000" class="highcharts-point" data-z-index="3"></rect></g></g></g></g><g class="highcharts-axis-labels highcharts-xaxis-labels " data-z-index="7"><text x="63.57142857142843" style="color:#000000;cursor:default;font-size:10px;white-space:nowrap;fill:#000000;" text-anchor="middle" transform="translate(0,0)" y="206" opacity="1">2011</text><text x="102.71428571428143" style="color:#000000;cursor:default;font-size:10px;white-space:nowrap;fill:#000000;" text-anchor="middle" transform="translate(0,0)" y="206" opacity="1">2012</text><text x="141.8571428571414" style="color:#000000;cursor:default;font-size:10px;white-space:nowrap;fill:#000000;" text-anchor="middle" transform="translate(0,0)" y="206" opacity="1">2013</text><text x="181.00000000000142" style="color:#000000;cursor:default;font-size:10px;white-space:nowrap;fill:#000000;" text-anchor="middle" transform="translate(0,0)" y="206" opacity="1">2014</text><text x="220.14285714286143" style="color:#000000;cursor:default;font-size:10px;white-space:nowrap;fill:#000000;" text-anchor="middle" transform="translate(0,0)" y="206" opacity="1">2015</text><text x="259.28571428571144" style="color:#000000;cursor:default;font-size:10px;white-space:nowrap;fill:#000000;" text-anchor="middle" transform="translate(0,0)" y="206" opacity="1">2016</text><text x="298.42857142857144" style="color:#000000;cursor:default;font-size:10px;white-space:nowrap;fill:#000000;" text-anchor="middle" transform="translate(0,0)" y="206" opacity="1">2017</text></g><g class="highcharts-axis-labels highcharts-yaxis-labels " data-z-index="7"><text x="29" style="color:#000000;cursor:default;font-size:10;fill:#000000;" text-anchor="end" transform="translate(0,0)" y="191" opacity="1">0</text><text x="29" style="color:#000000;cursor:default;font-size:10;fill:#000000;" text-anchor="end" transform="translate(0,0)" y="150" opacity="1"><tspan>2 500</tspan></text><text x="29" style="color:#000000;cursor:default;font-size:10;fill:#000000;" text-anchor="end" transform="translate(0,0)" y="108" opacity="1"><tspan>5 000</tspan></text><text x="29" style="color:#000000;cursor:default;font-size:10;fill:#000000;" text-anchor="end" transform="translate(0,0)" y="67" opacity="1"><tspan>7 500</tspan></text></g><text x="10" class="highcharts-credits" text-anchor="start" data-z-index="8" style="cursor:default;color:#000000;font-size:10px;fill:#000000;" y="196"><tspan>Quelle: Statistisches Amt Basel-Stadt, Bildungsstatistik.</tspan><tspan x="10" dy="13">Zuletzt geändert: 2018-9-19</tspan></text></svg>