<?xml version="1.0" standalone="no"?><!DOCTYPE svg PUBLIC "-//W3C//DTD SVG 1.1//EN" "http://www.w3.org/Graphics/SVG/1.1/DTD/svg11.dtd"><svg xmlns:xlink="http://www.w3.org/1999/xlink" version="1.1" class="highcharts-root" style="font-family:Arial;font-size:12px;" xmlns="http://www.w3.org/2000/svg" viewBox="0 0 485 415"><desc>Created with Highstock 6.1.1</desc><defs><clipPath id="highcharts-ti7023f-8"><rect x="0" y="0" width="216" height="70" fill="none"></rect></clipPath><clipPath id="highcharts-ti7023f-9"><rect x="0" y="0" width="216" height="70" fill="none"></rect></clipPath><clipPath id="highcharts-ti7023f-10"><rect x="0" y="0" width="216" height="70" fill="none"></rect></clipPath></defs><rect fill="#fbfbfb" class="highcharts-background" x="0" y="0" width="320" height="221" rx="0" ry="0"></rect><rect fill="none" class="highcharts-plot-background" x="39" y="105" width="216" height="70"></rect><g class="highcharts-pane-group" data-z-index="0"></g><g class="highcharts-grid highcharts-xaxis-grid " data-z-index="1"><path fill="none" data-z-index="1" class="highcharts-grid-line" d="M 40.5 105 L 40.5 175" opacity="1"></path><path fill="none" data-z-index="1" class="highcharts-grid-line" d="M 65.5 105 L 65.5 175" opacity="1"></path><path fill="none" data-z-index="1" class="highcharts-grid-line" d="M 90.5 105 L 90.5 175" opacity="1"></path><path fill="none" data-z-index="1" class="highcharts-grid-line" d="M 115.5 105 L 115.5 175" opacity="1"></path><path fill="none" data-z-index="1" class="highcharts-grid-line" d="M 140.5 105 L 140.5 175" opacity="1"></path><path fill="none" data-z-index="1" class="highcharts-grid-line" d="M 165.5 105 L 165.5 175" opacity="1"></path><path fill="none" data-z-index="1" class="highcharts-grid-line" d="M 190.5 105 L 190.5 175" opacity="1"></path><path fill="none" data-z-index="1" class="highcharts-grid-line" d="M 215.5 105 L 215.5 175" opacity="1"></path><path fill="none" data-z-index="1" class="highcharts-grid-line" d="M 239.5 105 L 239.5 175" opacity="1"></path></g><g class="highcharts-grid highcharts-yaxis-grid " data-z-index="1"><path fill="none" stroke="#e6e6e6" stroke-width="1" data-z-index="1" class="highcharts-grid-line" d="M 39 175.5 L 255 175.5" opacity="1"></path><path fill="none" stroke="#e6e6e6" stroke-width="1" data-z-index="1" class="highcharts-grid-line" d="M 39 158.5 L 255 158.5" opacity="1"></path><path fill="none" stroke="#e6e6e6" stroke-width="1" data-z-index="1" class="highcharts-grid-line" d="M 39 140.5 L 255 140.5" opacity="1"></path><path fill="none" stroke="#e6e6e6" stroke-width="1" data-z-index="1" class="highcharts-grid-line" d="M 39 123.5 L 255 123.5" opacity="1"></path><path fill="none" stroke="#e6e6e6" stroke-width="1" data-z-index="1" class="highcharts-grid-line" d="M 39 104.5 L 255 104.5" opacity="1"></path></g><g class="highcharts-grid highcharts-yaxis-grid " data-z-index="1"><path fill="none" data-z-index="1" class="highcharts-grid-line" d="M 39 175.5 L 255 175.5" opacity="1"></path><path fill="none" data-z-index="1" class="highcharts-grid-line" d="M 39 158.5 L 255 158.5" opacity="1"></path><path fill="none" data-z-index="1" class="highcharts-grid-line" d="M 39 140.5 L 255 140.5" opacity="1"></path><path fill="none" data-z-index="1" class="highcharts-grid-line" d="M 39 123.5 L 255 123.5" opacity="1"></path><path fill="none" data-z-index="1" class="highcharts-grid-line" d="M 39 105.5 L 255 105.5" opacity="1"></path></g><rect fill="none" class="highcharts-plot-border" data-z-index="1" x="39" y="105" width="216" height="70"></rect><g class="highcharts-axis highcharts-xaxis " data-z-index="2"><path fill="none" class="highcharts-axis-line" stroke="#B9CFD7" stroke-width="0.5" data-z-index="7" d="M 39 175.25 L 255 175.25"></path></g><g class="highcharts-axis highcharts-yaxis " data-z-index="2"><path fill="none" class="highcharts-axis-line" data-z-index="7" d="M 39 105 L 39 175"></path></g><g class="highcharts-axis highcharts-yaxis " data-z-index="2"><path fill="none" class="highcharts-axis-line" data-z-index="7" d="M 255 105 L 255 175"></path></g><g class="highcharts-series-group" data-z-index="3"><g data-z-index="0.1" class="highcharts-series highcharts-series-0 highcharts-line-series " transform="translate(39,105) scale(1 1)" clip-path="url(#highcharts-ti7023f-9)"><path fill="none" d="M 2.1176470588244 9.800000000000004 L 14.574394463669 10.5 L 27.031141868513 10.5 L 39.487889273357 13.300000000000004 L 51.944636678201 16.1 L 64.401384083045 21.699999999999996 L 76.85813148789 36.873881186350175 L 89.314878892734 31.70848937894302 L 101.77162629758 34.20956200154843 L 114.22837370242 38.1258532110092 L 126.68512110727 46.900000000000006 L 139.14186851211 49 L 151.59861591695 45.5 L 164.0553633218 47.599999999999994 L 176.51211072664 49 L 188.96885813149 49.7 L 201.42560553633 49 L 213.88235294118 49.7" class="highcharts-graph" data-z-index="1" stroke="#008AC3" stroke-width="2" stroke-linejoin="round" stroke-linecap="round"></path></g><g data-z-index="0.1" class="highcharts-markers highcharts-series-0 highcharts-line-series " transform="translate(39,105) scale(1 1)" clip-path="none"></g><g data-z-index="0.1" class="highcharts-series highcharts-series-1 highcharts-line-series " transform="translate(39,105) scale(1 1)" clip-path="url(#highcharts-ti7023f-10)"><path fill="none" d="M 2.1176470588244 14.1995 L 14.574394463669 13.501249999999999 L 27.031141868513 12.817 L 39.487889273357 15.086458333333333 L 51.944636678201 16.211416666666665 L 64.401384083045 20.80079166666667 L 76.85813148789 34.32626810911638 L 89.314878892734 26.613123977868746 L 101.77162629758 28.029647944432746 L 114.22837370242 31.97833333333333 L 126.68512110727 42.30625 L 139.14186851211 43.995 L 151.59861591695 38.992916666666666 L 164.0553633218 39.52083333333333 L 176.51211072664 40.99666666666667 L 188.96885813149 42.83708333333333 L 201.42560553633 40.979166666666664 L 213.88235294118 41.874583333333334" class="highcharts-graph" data-z-index="1" stroke="#68AB2B" stroke-width="2" stroke-linejoin="round" stroke-linecap="round"></path></g><g data-z-index="0.1" class="highcharts-markers highcharts-series-1 highcharts-line-series " transform="translate(39,105) scale(1 1)" clip-path="none"></g></g><text x="2" text-anchor="start" class="highcharts-title" data-z-index="4" style="color:#000000;font-size:10px;font-weight:bold;fill:#000000;" y="9"><tspan>Nettoschuldenquote und Nettoschulden pro Kopf</tspan></text><text x="2" text-anchor="start" class="highcharts-subtitle" data-z-index="4" style="color:#000000;font-size:10px;font-weight:normal;font-family:Arial;fill:#000000;" y="26"><tspan>Nettoschuldenquote Basel-Stadt in Promille des BIP der</tspan><tspan dy="13" x="2">Schweiz und Nettoschulden Basel-Stadt pro Kopf in</tspan><tspan dy="13" x="2">Franken</tspan></text><g class="highcharts-legend" data-z-index="7" transform="translate(39,68)"><rect fill="none" class="highcharts-legend-box" rx="0" ry="0" x="0" y="0" width="198" height="25" visibility="visible"></rect><g data-z-index="1"><g><g class="highcharts-legend-item highcharts-line-series highcharts-color-undefined highcharts-series-0" data-z-index="1" transform="translate(0,-5)"><path fill="none" d="M 0 10 L 16 10" class="highcharts-graph" stroke="#008AC3" stroke-width="2"></path><text x="21" style="color:#333333;font-size:10px;font-weight:normal;cursor:pointer;fill:#333333;" text-anchor="start" data-z-index="2" y="13"><tspan>Nettoschuldenquote</tspan></text></g><g class="highcharts-legend-item highcharts-line-series highcharts-color-undefined highcharts-series-1" data-z-index="1" transform="translate(0,10)"><path fill="none" d="M 0 10 L 16 10" class="highcharts-graph" stroke="#68AB2B" stroke-width="2"></path><text x="21" y="13" style="color:#333333;font-size:10px;font-weight:normal;cursor:pointer;fill:#333333;" text-anchor="start" data-z-index="2"><tspan>Nettoschulden pro Kopf (rechte Skala)</tspan></text></g></g></g></g><g class="highcharts-axis-labels highcharts-xaxis-labels " data-z-index="7"><text x="43.47466966277916" style="color:#000000;cursor:default;font-size:10px;white-space:nowrap;fill:#000000;" text-anchor="end" transform="translate(0,0) rotate(-45 43.47466966277916 190)" y="190" opacity="1">2000</text><text x="68.38816447246816" style="color:#000000;cursor:default;font-size:10px;white-space:nowrap;fill:#000000;" text-anchor="end" transform="translate(0,0) rotate(-45 68.38816447246816 190)" y="190" opacity="1">2002</text><text x="93.30165928215615" style="color:#000000;cursor:default;font-size:10px;white-space:nowrap;fill:#000000;" text-anchor="end" transform="translate(0,0) rotate(-45 93.30165928215615 190)" y="190" opacity="1">2004</text><text x="118.21515409184516" style="color:#000000;cursor:default;font-size:10px;white-space:nowrap;fill:#000000;" text-anchor="end" transform="translate(0,0) rotate(-45 118.21515409184516 190)" y="190" opacity="1">2006</text><text x="143.12864890153517" style="color:#000000;cursor:default;font-size:10px;white-space:nowrap;fill:#000000;" text-anchor="end" transform="translate(0,0) rotate(-45 143.12864890153517 190)" y="190" opacity="1">2008</text><text x="168.04214371122515" style="color:#000000;cursor:default;font-size:10px;white-space:nowrap;fill:#000000;" text-anchor="end" transform="translate(0,0) rotate(-45 168.04214371122515 190)" y="190" opacity="1">2010</text><text x="192.95563852090515" style="color:#000000;cursor:default;font-size:10px;white-space:nowrap;fill:#000000;" text-anchor="end" transform="translate(0,0) rotate(-45 192.95563852090515 190)" y="190" opacity="1">2012</text><text x="217.86913333059516" style="color:#000000;cursor:default;font-size:10px;white-space:nowrap;fill:#000000;" text-anchor="end" transform="translate(0,0) rotate(-45 217.86913333059516 190)" y="190" opacity="1">2014</text><text x="242.78262814028517" style="color:#000000;cursor:default;font-size:10px;white-space:nowrap;fill:#000000;" text-anchor="end" transform="translate(0,0) rotate(-45 242.78262814028517 190)" y="190" opacity="1">2016</text></g><g class="highcharts-axis-labels highcharts-yaxis-labels " data-z-index="7"><text x="24" style="color:#000000;cursor:default;font-size:10px;fill:#000000;" text-anchor="end" transform="translate(0,0)" y="179" opacity="1">0‰</text><text x="24" style="color:#000000;cursor:default;font-size:10px;fill:#000000;" text-anchor="end" transform="translate(0,0)" y="161" opacity="1">3‰</text><text x="24" style="color:#000000;cursor:default;font-size:10px;fill:#000000;" text-anchor="end" transform="translate(0,0)" y="144" opacity="1">5‰</text><text x="24" style="color:#000000;cursor:default;font-size:10px;fill:#000000;" text-anchor="end" transform="translate(0,0)" y="126" opacity="1">8‰</text><text x="24" style="color:#000000;cursor:default;font-size:10px;fill:#000000;" text-anchor="end" transform="translate(0,0)" y="109" opacity="1">10‰</text></g><g class="highcharts-axis-labels highcharts-yaxis-labels " data-z-index="7"><text x="270" style="color:#000000;cursor:default;font-size:10px;fill:#000000;" text-anchor="start" transform="translate(0,0)" y="179" opacity="1"><tspan>0 Fr.</tspan></text><text x="270" style="color:#000000;cursor:default;font-size:10px;fill:#000000;" text-anchor="start" transform="translate(0,0)" y="161" opacity="1"><tspan>6 000 Fr.</tspan></text><text x="270" style="color:#000000;cursor:default;font-size:10px;fill:#000000;" text-anchor="start" transform="translate(0,0)" y="144" opacity="1"><tspan>12 000 Fr.</tspan></text><text x="270" style="color:#000000;cursor:default;font-size:10px;fill:#000000;" text-anchor="start" transform="translate(0,0)" y="126" opacity="1"><tspan>18 000 Fr.</tspan></text><text x="270" style="color:#000000;cursor:default;font-size:10px;fill:#000000;" text-anchor="start" transform="translate(0,0)" y="109" opacity="1"><tspan>24 000 Fr.</tspan></text></g><text x="10" class="highcharts-credits" text-anchor="start" data-z-index="8" style="cursor:default;color:#000000;font-size:10px;fill:#000000;" y="196"><tspan>Quelle: Jahresbericht des Kantons Basel-Stadt.</tspan><tspan x="10" dy="13">Zuletzt geändert: 2018-9-5</tspan></text></svg>