<?xml version="1.0" standalone="no"?><!DOCTYPE svg PUBLIC "-//W3C//DTD SVG 1.1//EN" "http://www.w3.org/Graphics/SVG/1.1/DTD/svg11.dtd"><svg xmlns:xlink="http://www.w3.org/1999/xlink" version="1.1" class="highcharts-root" style="font-family:Arial;font-size:12px;" xmlns="http://www.w3.org/2000/svg" viewBox="0 0 485 415"><desc>Created with Highstock 6.1.1</desc><defs><clipPath id="highcharts-l7c2z81-6"><rect x="0" y="0" width="352" height="317" fill="none"></rect></clipPath></defs><rect fill="#fbfbfb" class="highcharts-background" x="0" y="0" width="485" height="428" rx="0" ry="0"></rect><rect fill="none" class="highcharts-plot-background" x="10" y="56" width="352" height="317"></rect><g class="highcharts-pane-group" data-z-index="0"></g><rect fill="none" class="highcharts-plot-border" data-z-index="1" x="10" y="56" width="352" height="317"></rect><g class="highcharts-series-group" data-z-index="3"><g data-z-index="0.1" class="highcharts-series highcharts-series-0 highcharts-pie-series " transform="translate(10,56) scale(1 1)"><path fill="#B00000" d="M 175.96975452925128 10.500003080096008 A 148.5 148.5 0 0 1 322.96301067347906 137.6898265190806 L 176 159 A 0 0 0 0 0 176 159 Z" transform="translate(0,0)" stroke-linejoin="round" class="highcharts-point highcharts-color-0"></path><path fill="#FF8028" d="M 322.98424736190907 137.83680016034612 A 148.5 148.5 0 0 1 239.49325498587882 293.24178399923835 L 176 159 A 0 0 0 0 0 176 159 Z" transform="translate(0,0)" stroke-linejoin="round" class="highcharts-point highcharts-color-1"></path><path fill="#FABD24" d="M 239.3589814776284 293.3052101227556 A 148.5 148.5 0 0 1 93.60217846579106 282.54290350488225 L 176 159 A 0 0 0 0 0 176 159 Z" transform="translate(0,0)" stroke-linejoin="round" class="highcharts-point highcharts-color-2"></path><path fill="#E6E600" d="M 93.47867678178402 282.4604439256344 A 148.5 148.5 0 0 1 28.122463805949423 172.58249937151686 L 176 159 A 0 0 0 0 0 176 159 Z" transform="translate(0,0)" stroke-linejoin="round" class="highcharts-point highcharts-color-3"></path><path fill="#8AB77D" d="M 28.108955247603575 172.43461506871995 A 148.5 148.5 0 0 1 40.24975679174992 98.79932335180149 L 176 159 A 0 0 0 0 0 176 159 Z" transform="translate(0,0)" stroke-linejoin="round" class="highcharts-point highcharts-color-4"></path><path fill="#68AB2B" d="M 40.31002533348061 98.6636032315541 A 148.5 148.5 0 0 1 72.0509031513504 52.948902578285086 L 176 159 A 0 0 0 0 0 176 159 Z" transform="translate(0,0)" stroke-linejoin="round" class="highcharts-point highcharts-color-5"></path><path fill="#007A2F" d="M 72.15700620564101 52.8450065243056 A 148.5 148.5 0 0 1 116.07343946737524 23.12852638346172 L 176 159 A 0 0 0 0 0 176 159 Z" transform="translate(0,0)" stroke-linejoin="round" class="highcharts-point highcharts-color-6"></path><path fill="#A8C3CA" d="M 116.20934088162434 23.06866776864797 A 148.5 148.5 0 0 1 149.2112029279013 12.936279824763062 L 176 159 A 0 0 0 0 0 176 159 Z" transform="translate(0,0)" stroke-linejoin="round" class="highcharts-point highcharts-color-7"></path><path fill="#008AC3" d="M 149.35728001813004 12.909564064009743 A 148.5 148.5 0 0 1 167.48241364810212 10.744474899793488 L 176 159 A 0 0 0 0 0 176 159 Z" transform="translate(0,0)" stroke-linejoin="round" class="highcharts-point highcharts-color-8"></path><path fill="#3C3C3C" d="M 167.63067340728594 10.73603144261756 A 148.5 148.5 0 0 1 175.79373647919635 10.500143248015263 L 176 159 A 0 0 0 0 0 176 159 Z" transform="translate(0,0)" stroke-linejoin="round" class="highcharts-point highcharts-color-9"></path></g><g data-z-index="0.1" class="highcharts-markers highcharts-series-0 highcharts-pie-series " transform="translate(10,56) scale(1 1)"></g></g><text x="10" text-anchor="start" class="highcharts-title" data-z-index="4" style="color:#000000;font-size:14px;font-weight:bold;fill:#000000;" y="21"><tspan>Anteil Ausländer der Ländergruppe EU-Ost</tspan></text><text x="10" text-anchor="start" class="highcharts-subtitle" data-z-index="4" style="color:#000000;font-size:12px;font-weight:normal;font-family:Arial;fill:#000000;" y="40"><tspan>nach einzelnen Staatsangehörigkeiten, Basel-Stadt, 2018</tspan></text><g class="highcharts-legend" data-z-index="7" transform="translate(374,86)"><rect fill="none" class="highcharts-legend-box" rx="0" ry="0" x="0" y="0" width="101" height="211" visibility="visible"></rect><g data-z-index="1"><g><g class="highcharts-legend-item highcharts-pie-series highcharts-color-0" data-z-index="1" transform="translate(8,3)"><text x="21" style="color:#333333;font-size:12px;font-weight:normal;cursor:pointer;fill:#333333;" text-anchor="start" data-z-index="2" y="15"><tspan>Polen</tspan></text><rect x="2" y="4" width="12" height="12" fill="#B00000" class="highcharts-point" data-z-index="3"></rect></g><g class="highcharts-legend-item highcharts-pie-series highcharts-color-1" data-z-index="1" transform="translate(8,23)"><text x="21" y="15" style="color:#333333;font-size:12px;font-weight:normal;cursor:pointer;fill:#333333;" text-anchor="start" data-z-index="2"><tspan>Ungarn</tspan></text><rect x="2" y="4" width="12" height="12" fill="#FF8028" class="highcharts-point" data-z-index="3"></rect></g><g class="highcharts-legend-item highcharts-pie-series highcharts-color-2" data-z-index="1" transform="translate(8,43)"><text x="21" y="15" style="color:#333333;font-size:12px;font-weight:normal;cursor:pointer;fill:#333333;" text-anchor="start" data-z-index="2"><tspan>Rumänien</tspan></text><rect x="2" y="4" width="12" height="12" fill="#FABD24" class="highcharts-point" data-z-index="3"></rect></g><g class="highcharts-legend-item highcharts-pie-series highcharts-color-3" data-z-index="1" transform="translate(8,63)"><text x="21" y="15" style="color:#333333;font-size:12px;font-weight:normal;cursor:pointer;fill:#333333;" text-anchor="start" data-z-index="2"><tspan>Slowakei</tspan></text><rect x="2" y="4" width="12" height="12" fill="#E6E600" class="highcharts-point" data-z-index="3"></rect></g><g class="highcharts-legend-item highcharts-pie-series highcharts-color-4" data-z-index="1" transform="translate(8,83)"><text x="21" y="15" style="color:#333333;font-size:12px;font-weight:normal;cursor:pointer;fill:#333333;" text-anchor="start" data-z-index="2"><tspan>Bulgarien</tspan></text><rect x="2" y="4" width="12" height="12" fill="#8AB77D" class="highcharts-point" data-z-index="3"></rect></g><g class="highcharts-legend-item highcharts-pie-series highcharts-color-5" data-z-index="1" transform="translate(8,103)"><text x="21" y="15" style="color:#333333;font-size:12px;font-weight:normal;cursor:pointer;fill:#333333;" text-anchor="start" data-z-index="2"><tspan>Slowenien</tspan></text><rect x="2" y="4" width="12" height="12" fill="#68AB2B" class="highcharts-point" data-z-index="3"></rect></g><g class="highcharts-legend-item highcharts-pie-series highcharts-color-6" data-z-index="1" transform="translate(8,123)"><text x="21" y="15" style="color:#333333;font-size:12px;font-weight:normal;cursor:pointer;fill:#333333;" text-anchor="start" data-z-index="2"><tspan>Tschechien</tspan></text><rect x="2" y="4" width="12" height="12" fill="#007A2F" class="highcharts-point" data-z-index="3"></rect></g><g class="highcharts-legend-item highcharts-pie-series highcharts-color-7" data-z-index="1" transform="translate(8,143)"><text x="21" y="15" style="color:#333333;font-size:12px;font-weight:normal;cursor:pointer;fill:#333333;" text-anchor="start" data-z-index="2"><tspan>Litauen</tspan></text><rect x="2" y="4" width="12" height="12" fill="#A8C3CA" class="highcharts-point" data-z-index="3"></rect></g><g class="highcharts-legend-item highcharts-pie-series highcharts-color-8" data-z-index="1" transform="translate(8,163)"><text x="21" y="15" style="color:#333333;font-size:12px;font-weight:normal;cursor:pointer;fill:#333333;" text-anchor="start" data-z-index="2"><tspan>Lettland</tspan></text><rect x="2" y="4" width="12" height="12" fill="#008AC3" class="highcharts-point" data-z-index="3"></rect></g><g class="highcharts-legend-item highcharts-pie-series highcharts-color-9" data-z-index="1" transform="translate(8,183)"><text x="21" y="15" style="color:#333333;font-size:12px;font-weight:normal;cursor:pointer;fill:#333333;" text-anchor="start" data-z-index="2"><tspan>Estland</tspan></text><rect x="2" y="4" width="12" height="12" fill="#3C3C3C" class="highcharts-point" data-z-index="3"></rect></g></g></g></g><text x="10" class="highcharts-credits" text-anchor="start" data-z-index="8" style="cursor:default;color:#000000;font-size:10px;fill:#000000;" y="403"><tspan>Quelle: Statistisches Amt Basel-Stadt, Bevölkerungsstatistik.</tspan><tspan x="10" dy="13">Zuletzt geändert: 2019-8-19</tspan></text></svg>