<?xml version="1.0" standalone="no"?><!DOCTYPE svg PUBLIC "-//W3C//DTD SVG 1.1//EN" "http://www.w3.org/Graphics/SVG/1.1/DTD/svg11.dtd"><svg xmlns:xlink="http://www.w3.org/1999/xlink" version="1.1" class="highcharts-root" style="font-family:Arial;font-size:12px;" xmlns="http://www.w3.org/2000/svg" viewBox="0 0 485 415"><desc>Created with Highcharts 8.2.0</desc><defs><clipPath id="highcharts-8tl8n2k-415-"><rect x="0" y="0" width="432" height="222" fill="none"></rect></clipPath><clipPath id="highcharts-8tl8n2k-620-"><rect x="0" y="0" width="432" height="222" fill="none"></rect></clipPath><clipPath id="highcharts-8tl8n2k-825-"><rect x="43" y="116" width="432" height="222" fill="none"></rect></clipPath></defs><rect fill="#fbfbfb" class="highcharts-background" x="0" y="0" width="485" height="428" rx="0" ry="0"></rect><rect fill="none" class="highcharts-plot-background" x="43" y="116" width="432" height="222"></rect><g class="highcharts-pane-group" data-z-index="0"></g><g class="highcharts-grid highcharts-xaxis-grid" data-z-index="1"><path fill="none" data-z-index="1" class="highcharts-grid-line" d="M 43.5 116 L 43.5 338" opacity="1"></path><path fill="none" data-z-index="1" class="highcharts-grid-line" d="M 68.5 116 L 68.5 338" opacity="1"></path><path fill="none" data-z-index="1" class="highcharts-grid-line" d="M 94.5 116 L 94.5 338" opacity="1"></path><path fill="none" data-z-index="1" class="highcharts-grid-line" d="M 119.5 116 L 119.5 338" opacity="1"></path><path fill="none" data-z-index="1" class="highcharts-grid-line" d="M 145.5 116 L 145.5 338" opacity="1"></path><path fill="none" data-z-index="1" class="highcharts-grid-line" d="M 170.5 116 L 170.5 338" opacity="1"></path><path fill="none" data-z-index="1" class="highcharts-grid-line" d="M 196.5 116 L 196.5 338" opacity="1"></path><path fill="none" data-z-index="1" class="highcharts-grid-line" d="M 221.5 116 L 221.5 338" opacity="1"></path><path fill="none" data-z-index="1" class="highcharts-grid-line" d="M 246.5 116 L 246.5 338" opacity="1"></path><path fill="none" data-z-index="1" class="highcharts-grid-line" d="M 272.5 116 L 272.5 338" opacity="1"></path><path fill="none" data-z-index="1" class="highcharts-grid-line" d="M 297.5 116 L 297.5 338" opacity="1"></path><path fill="none" data-z-index="1" class="highcharts-grid-line" d="M 323.5 116 L 323.5 338" opacity="1"></path><path fill="none" data-z-index="1" class="highcharts-grid-line" d="M 348.5 116 L 348.5 338" opacity="1"></path><path fill="none" data-z-index="1" class="highcharts-grid-line" d="M 373.5 116 L 373.5 338" opacity="1"></path><path fill="none" data-z-index="1" class="highcharts-grid-line" d="M 399.5 116 L 399.5 338" opacity="1"></path><path fill="none" data-z-index="1" class="highcharts-grid-line" d="M 424.5 116 L 424.5 338" opacity="1"></path><path fill="none" data-z-index="1" class="highcharts-grid-line" d="M 450.5 116 L 450.5 338" opacity="1"></path></g><g class="highcharts-grid highcharts-yaxis-grid" data-z-index="1"><path fill="none" stroke="#B9CFD7" stroke-width="0.5" data-z-index="1" class="highcharts-grid-line" d="M 43 338.25 L 475 338.25" opacity="1"></path><path fill="none" stroke="#B9CFD7" stroke-width="0.5" data-z-index="1" class="highcharts-grid-line" d="M 43 283.25 L 475 283.25" opacity="1"></path><path fill="none" stroke="#B9CFD7" stroke-width="0.5" data-z-index="1" class="highcharts-grid-line" d="M 43 227.25 L 475 227.25" opacity="1"></path><path fill="none" stroke="#B9CFD7" stroke-width="0.5" data-z-index="1" class="highcharts-grid-line" d="M 43 171.25 L 475 171.25" opacity="1"></path><path fill="none" stroke="#B9CFD7" stroke-width="0.5" data-z-index="1" class="highcharts-grid-line" d="M 43 115.75 L 475 115.75" opacity="1"></path></g><rect fill="none" class="highcharts-plot-border" data-z-index="1" x="43" y="116" width="432" height="222"></rect><g class="highcharts-axis highcharts-xaxis" data-z-index="2"><path fill="none" class="highcharts-axis-line" stroke="#B9CFD7" stroke-width="0.5" data-z-index="7" d="M 43 338.25 L 475 338.25"></path></g><g class="highcharts-axis highcharts-yaxis" data-z-index="2"><path fill="none" class="highcharts-axis-line" data-z-index="7" d="M 43 116 L 43 338"></path></g><g class="highcharts-series-group" data-z-index="3"><g class="highcharts-series highcharts-series-0 highcharts-line-series" data-z-index="0.1" opacity="1" transform="translate(43,116) scale(1 1)" clip-path="url(#highcharts-8tl8n2k-620-)"><path fill="none" d="M 1.0588235294118 202.02 L 3.1764705882353 194.25 L 5.2941176470588 189.81 L 7.4117647058824 189.81 L 9.5294117647059 197.57999999999998 L 11.647058823529 199.8 L 13.764705882353 190.92 L 15.882352941176 195.36 L 18 194.25 L 20.117647058824 195.36 L 22.235294117647 196.47 L 24.352941176471 190.92 L 26.470588235294 190.92 L 28.588235294118 200.91 L 30.705882352941 188.7 L 32.823529411765 205.35 L 34.941176470588 196.47 L 37.058823529412 193.14 L 39.176470588235 194.25 L 41.294117647059 198.69 L 43.411764705882 198.69 L 45.529411764706 208.68 L 47.647058823529 194.25 L 49.764705882353 200.91 L 51.882352941176 202.02 L 54 200.91 L 56.117647058824 197.57999999999998 L 58.235294117647 203.13 L 60.352941176471 205.35 L 62.470588235294 196.47 L 64.588235294118 203.13 L 66.705882352941 197.57999999999998 L 68.823529411765 194.25 L 70.941176470588 207.57 L 73.058823529412 202.02 L 75.176470588235 197.57999999999998 L 77.294117647059 195.36 L 79.411764705882 188.7 L 81.529411764706 203.13 L 83.647058823529 199.8 L 85.764705882353 209.79 L 87.882352941176 204.24 L 90 210.9 L 92.117647058824 200.91 L 94.235294117647 202.02 L 96.352941176471 194.25 L 98.470588235294 204.24 L 100.58823529412 203.13 L 102.70588235294 206.46 L 104.82352941176 204.24 L 106.94117647059 209.79 L 109.05882352941 205.35 L 111.17647058824 203.13 L 113.29411764706 212.01 L 115.41176470588 205.35 L 117.52941176471 204.24 L 119.64705882353 213.12 L 121.76470588235 209.79 L 123.88235294118 208.68 L 126 210.9 L 128.11764705882 199.8 L 130.23529411765 208.68 L 132.35294117647 203.13 L 134.47058823529 202.02 L 136.58823529412 204.24 L 138.70588235294 209.79 L 140.82352941176 202.02 L 142.94117647059 212.01 L 145.05882352941 202.02 L 147.17647058824 205.35 L 149.29411764706 212.01 L 151.41176470588 202.02 L 153.52941176471 208.68 L 155.64705882353 198.69 L 157.76470588235 193.14 L 159.88235294118 203.13 L 162 206.46 L 164.11764705882 209.79 L 166.23529411765 199.8 L 168.35294117647 200.91 L 170.47058823529 210.9 L 172.58823529412 204.24 L 174.70588235294 206.46 L 176.82352941176 207.57 L 178.94117647059 199.8 L 181.05882352941 205.35 L 183.17647058824 109.88999999999999 L 185.29411764706 190.92 L 187.41176470588 195.36 L 189.52941176471 190.92 L 191.64705882353 197.57999999999998 L 193.76470588235 198.69 L 195.88235294118 198.69 L 198 198.69 L 200.11764705882 203.13 L 202.23529411765 190.92 L 204.35294117647 186.48 L 206.47058823529 200.91 L 208.58823529412 198.69 L 210.70588235294 198.69 L 212.82352941176 204.24 L 214.94117647059 199.8 L 217.05882352941 194.25 L 219.17647058824 192.03 L 221.29411764706 197.57999999999998 L 223.41176470588 203.13 L 225.52941176471 196.47 L 227.64705882353 199.8 L 229.76470588235 196.47 L 231.88235294118 202.02 L 234 190.92 L 236.11764705882 207.57 L 238.23529411765 208.68 L 240.35294117647 197.57999999999998 L 242.47058823529 192.03 L 244.58823529412 192.03 L 246.70588235294 199.8 L 248.82352941176 195.36 L 250.94117647059 204.24 L 253.05882352941 196.47 L 255.17647058824 199.8 L 257.29411764706 208.68 L 259.41176470588 205.35 L 261.52941176471 199.8 L 263.64705882353 196.47 L 265.76470588235 195.36 L 267.88235294118 208.68 L 270 208.68 L 272.11764705882 197.57999999999998 L 274.23529411765 195.36 L 276.35294117647 205.35 L 278.47058823529 203.13 L 280.58823529412 207.57 L 282.70588235294 198.69 L 284.82352941176 205.35 L 286.94117647059 196.47 L 289.05882352941 202.02 L 291.17647058824 198.69 L 293.29411764706 198.69 L 295.41176470588 202.02 L 297.52941176471 198.69 L 299.64705882353 203.13 L 301.76470588235 203.13 L 303.88235294118 198.69 L 306 207.57 L 308.11764705882 197.57999999999998 L 310.23529411765 196.47 L 312.35294117647 196.47 L 314.47058823529 192.03 L 316.58823529412 189.81 L 318.70588235294 196.47 L 320.82352941176 186.48 L 322.94117647059 195.36 L 325.05882352941 198.69 L 327.17647058824 194.25 L 329.29411764706 198.69 L 331.41176470588 204.24 L 333.52941176471 199.8 L 335.64705882353 190.92 L 337.76470588235 199.8 L 339.88235294118 187.59 L 342 198.69 L 344.11764705882 190.92 L 346.23529411765 183.15 L 348.35294117647 200.91 L 350.47058823529 205.35 L 352.58823529412 194.25 L 354.70588235294 200.91 L 356.82352941176 202.02 L 358.94117647059 200.91 L 361.05882352941 195.36 L 363.17647058824 198.69 L 365.29411764706 196.47 L 367.41176470588 190.92 L 369.52941176471 194.25 L 371.64705882353 204.24 L 373.76470588235 207.57 L 375.88235294118 185.37 L 378 192.03 L 380.11764705882 193.14 L 382.23529411765 197.57999999999998 L 384.35294117647 200.91 L 386.47058823529 194.25 L 388.58823529412 192.03 L 390.70588235294 188.7 L 392.82352941176 202.02 L 394.94117647059 186.48 L 397.05882352941 206.46 L 399.17647058824 195.36 L 401.29411764706 203.13 L 403.41176470588 200.91 L 405.52941176471 190.92 L 407.64705882353 190.92 L 409.76470588235 196.47 L 411.88235294118 222 L 414 222 L 416.11764705882 222 L 418.23529411765 222 L 420.35294117647 222 L 422.47058823529 217.56 L 424.58823529412 213.12 L 426.70588235294 203.13 L 428.82352941176 204.24 L 430.94117647059 189.81" class="highcharts-graph" data-z-index="1" stroke="#FABD24" stroke-width="2" stroke-linejoin="round" stroke-linecap="round"></path></g><g class="highcharts-markers highcharts-series-0 highcharts-line-series" data-z-index="0.1" opacity="1" transform="translate(43,116) scale(1 1)" clip-path="none"></g><g class="highcharts-series highcharts-series-1 highcharts-line-series" data-z-index="0.1" opacity="1" transform="translate(43,116) scale(1 1)" clip-path="url(#highcharts-8tl8n2k-620-)"><path fill="none" d="M 1.0588235294118 192.03 L 3.1764705882353 188.7 L 5.2941176470588 190.92 L 7.4117647058824 177.6 L 9.5294117647059 176.49 L 11.647058823529 187.59 L 13.764705882353 192.03 L 15.882352941176 180.93 L 18 182.04 L 20.117647058824 186.48 L 22.235294117647 189.81 L 24.352941176471 177.6 L 26.470588235294 182.04 L 28.588235294118 175.38 L 30.705882352941 164.28 L 32.823529411765 194.25 L 34.941176470588 200.91 L 37.058823529412 188.7 L 39.176470588235 178.70999999999998 L 41.294117647059 184.26 L 43.411764705882 189.81 L 45.529411764706 193.14 L 47.647058823529 183.15 L 49.764705882353 183.15 L 51.882352941176 188.7 L 54 193.14 L 56.117647058824 184.26 L 58.235294117647 203.13 L 60.352941176471 192.03 L 62.470588235294 193.14 L 64.588235294118 194.25 L 66.705882352941 189.81 L 68.823529411765 193.14 L 70.941176470588 202.02 L 73.058823529412 205.35 L 75.176470588235 187.59 L 77.294117647059 190.92 L 79.411764705882 190.92 L 81.529411764706 183.15 L 83.647058823529 195.36 L 85.764705882353 206.46 L 87.882352941176 193.14 L 90 196.47 L 92.117647058824 198.69 L 94.235294117647 199.8 L 96.352941176471 207.57 L 98.470588235294 196.47 L 100.58823529412 203.13 L 102.70588235294 194.25 L 104.82352941176 199.8 L 106.94117647059 198.69 L 109.05882352941 200.91 L 111.17647058824 207.57 L 113.29411764706 208.68 L 115.41176470588 212.01 L 117.52941176471 197.57999999999998 L 119.64705882353 202.02 L 121.76470588235 194.25 L 123.88235294118 187.59 L 126 186.48 L 128.11764705882 188.7 L 130.23529411765 196.47 L 132.35294117647 202.02 L 134.47058823529 197.57999999999998 L 136.58823529412 203.13 L 138.70588235294 205.35 L 140.82352941176 198.69 L 142.94117647059 203.13 L 145.05882352941 198.69 L 147.17647058824 190.92 L 149.29411764706 197.57999999999998 L 151.41176470588 192.03 L 153.52941176471 193.14 L 155.64705882353 197.57999999999998 L 157.76470588235 192.03 L 159.88235294118 193.14 L 162 170.94 L 164.11764705882 189.81 L 166.23529411765 195.36 L 168.35294117647 196.47 L 170.47058823529 197.57999999999998 L 172.58823529412 175.38 L 174.70588235294 197.57999999999998 L 176.82352941176 186.48 L 178.94117647059 182.04 L 181.05882352941 187.59 L 183.17647058824 56.609999999999985 L 185.29411764706 182.04 L 187.41176470588 190.92 L 189.52941176471 180.93 L 191.64705882353 193.14 L 193.76470588235 193.14 L 195.88235294118 190.92 L 198 198.69 L 200.11764705882 179.82 L 202.23529411765 192.03 L 204.35294117647 179.82 L 206.47058823529 182.04 L 208.58823529412 188.7 L 210.70588235294 179.82 L 212.82352941176 185.37 L 214.94117647059 187.59 L 217.05882352941 205.35 L 219.17647058824 199.8 L 221.29411764706 187.59 L 223.41176470588 193.14 L 225.52941176471 190.92 L 227.64705882353 178.70999999999998 L 229.76470588235 177.6 L 231.88235294118 177.6 L 234 187.59 L 236.11764705882 190.92 L 238.23529411765 189.81 L 240.35294117647 173.16 L 242.47058823529 187.59 L 244.58823529412 189.81 L 246.70588235294 192.03 L 248.82352941176 193.14 L 250.94117647059 178.70999999999998 L 253.05882352941 188.7 L 255.17647058824 168.72 L 257.29411764706 190.92 L 259.41176470588 189.81 L 261.52941176471 178.70999999999998 L 263.64705882353 185.37 L 265.76470588235 192.03 L 267.88235294118 184.26 L 270 187.59 L 272.11764705882 192.03 L 274.23529411765 187.59 L 276.35294117647 195.36 L 278.47058823529 178.70999999999998 L 280.58823529412 173.16 L 282.70588235294 189.81 L 284.82352941176 179.82 L 286.94117647059 196.47 L 289.05882352941 185.37 L 291.17647058824 184.26 L 293.29411764706 177.6 L 295.41176470588 195.36 L 297.52941176471 185.37 L 299.64705882353 183.15 L 301.76470588235 189.81 L 303.88235294118 182.04 L 306 177.6 L 308.11764705882 179.82 L 310.23529411765 180.93 L 312.35294117647 186.48 L 314.47058823529 174.26999999999998 L 316.58823529412 174.26999999999998 L 318.70588235294 184.26 L 320.82352941176 186.48 L 322.94117647059 193.14 L 325.05882352941 184.26 L 327.17647058824 178.70999999999998 L 329.29411764706 173.16 L 331.41176470588 182.04 L 333.52941176471 165.39 L 335.64705882353 168.72 L 337.76470588235 188.7 L 339.88235294118 186.48 L 342 183.15 L 344.11764705882 184.26 L 346.23529411765 172.05 L 348.35294117647 185.37 L 350.47058823529 192.03 L 352.58823529412 196.47 L 354.70588235294 175.38 L 356.82352941176 164.28 L 358.94117647059 188.7 L 361.05882352941 173.16 L 363.17647058824 193.14 L 365.29411764706 178.70999999999998 L 367.41176470588 192.03 L 369.52941176471 197.57999999999998 L 371.64705882353 183.15 L 373.76470588235 193.14 L 375.88235294118 186.48 L 378 184.26 L 380.11764705882 187.59 L 382.23529411765 174.26999999999998 L 384.35294117647 183.15 L 386.47058823529 196.47 L 388.58823529412 182.04 L 390.70588235294 183.15 L 392.82352941176 193.14 L 394.94117647059 186.48 L 397.05882352941 192.03 L 399.17647058824 188.7 L 401.29411764706 184.26 L 403.41176470588 200.91 L 405.52941176471 186.48 L 407.64705882353 185.37 L 409.76470588235 187.59 L 411.88235294118 222 L 414 222 L 416.11764705882 222 L 418.23529411765 222 L 420.35294117647 222 L 422.47058823529 215.34 L 424.58823529412 192.03 L 426.70588235294 190.92 L 428.82352941176 183.15 L 430.94117647059 199.8" class="highcharts-graph" data-z-index="1" stroke="#7F5F1A" stroke-width="2" stroke-linejoin="round" stroke-linecap="round"></path></g><g class="highcharts-markers highcharts-series-1 highcharts-line-series" data-z-index="0.1" opacity="1" transform="translate(43,116) scale(1 1)" clip-path="none"></g></g><text x="10" text-anchor="start" class="highcharts-title" data-z-index="4" style="color:#000000;font-size:14px;font-weight:bold;fill:#000000;" y="21"><tspan>Anzahl monatlich ausgesteuerte ausländische</tspan><tspan dy="17" x="10">Staatsangehörige</tspan></text><text x="10" text-anchor="start" class="highcharts-subtitle" data-z-index="4" style="color:#000000;font-size:12px;font-weight:normal;fill:#000000;" y="57"><tspan>nach Geschlecht, Basel-Stadt</tspan></text><text x="10" text-anchor="start" class="highcharts-caption" data-z-index="4" style="color:#666666;fill:#666666;" y="385"></text><g class="highcharts-legend" data-z-index="7" transform="translate(35,73)"><rect fill="none" class="highcharts-legend-box" rx="0" ry="0" x="0" y="0" width="314" height="31" visibility="visible"></rect><g data-z-index="1"><g><g class="highcharts-legend-item highcharts-line-series highcharts-color-undefined highcharts-series-0" data-z-index="1" transform="translate(8,3)"><path fill="none" d="M 0 11 L 16 11" class="highcharts-graph" stroke="#FABD24" stroke-width="2"></path><text x="21" style="color:#333333;cursor:pointer;font-size:12px;font-weight:normal;fill:#333333;" text-anchor="start" data-z-index="2" y="15"><tspan>Ausländische Frauen</tspan></text></g><g class="highcharts-legend-item highcharts-line-series highcharts-color-undefined highcharts-series-1" data-z-index="1" transform="translate(166,3)"><path fill="none" d="M 0 11 L 16 11" class="highcharts-graph" stroke="#7F5F1A" stroke-width="2"></path><text x="21" y="15" style="color:#333333;cursor:pointer;font-size:12px;font-weight:normal;fill:#333333;" text-anchor="start" data-z-index="2"><tspan>Ausländische Männer</tspan></text></g></g></g></g><g class="highcharts-axis-labels highcharts-xaxis-labels" data-z-index="7"><text x="46.651548393762674" style="color:#000000;cursor:default;font-size:11px;fill:#000000;" text-anchor="end" transform="translate(0,0) rotate(-45 46.651548393762674 354)" y="354" opacity="1">2004</text><text x="72.06331309964467" style="color:#000000;cursor:default;font-size:11px;fill:#000000;" text-anchor="end" transform="translate(0,0) rotate(-45 72.06331309964467 354)" y="354" opacity="1">2005</text><text x="97.47507780552667" style="color:#000000;cursor:default;font-size:11px;fill:#000000;" text-anchor="end" transform="translate(0,0) rotate(-45 97.47507780552667 354)" y="354" opacity="1">2006</text><text x="122.88684251141068" style="color:#000000;cursor:default;font-size:11px;fill:#000000;" text-anchor="end" transform="translate(0,0) rotate(-45 122.88684251141068 354)" y="354" opacity="1">2007</text><text x="148.29860721729068" style="color:#000000;cursor:default;font-size:11px;fill:#000000;" text-anchor="end" transform="translate(0,0) rotate(-45 148.29860721729068 354)" y="354" opacity="1">2008</text><text x="173.7103719231707" style="color:#000000;cursor:default;font-size:11px;fill:#000000;" text-anchor="end" transform="translate(0,0) rotate(-45 173.7103719231707 354)" y="354" opacity="1">2009</text><text x="199.1221366290607" style="color:#000000;cursor:default;font-size:11px;fill:#000000;" text-anchor="end" transform="translate(0,0) rotate(-45 199.1221366290607 354)" y="354" opacity="1">2010</text><text x="224.53390133494068" style="color:#000000;cursor:default;font-size:11px;fill:#000000;" text-anchor="end" transform="translate(0,0) rotate(-45 224.53390133494068 354)" y="354" opacity="1">2011</text><text x="249.9456660408207" style="color:#000000;cursor:default;font-size:11px;fill:#000000;" text-anchor="end" transform="translate(0,0) rotate(-45 249.9456660408207 354)" y="354" opacity="1">2012</text><text x="275.35743074670063" style="color:#000000;cursor:default;font-size:11px;fill:#000000;" text-anchor="end" transform="translate(0,0) rotate(-45 275.35743074670063 354)" y="354" opacity="1">2013</text><text x="300.7691954525907" style="color:#000000;cursor:default;font-size:11px;fill:#000000;" text-anchor="end" transform="translate(0,0) rotate(-45 300.7691954525907 354)" y="354" opacity="1">2014</text><text x="326.18096015847067" style="color:#000000;cursor:default;font-size:11px;fill:#000000;" text-anchor="end" transform="translate(0,0) rotate(-45 326.18096015847067 354)" y="354" opacity="1">2015</text><text x="351.59272486435066" style="color:#000000;cursor:default;font-size:11px;fill:#000000;" text-anchor="end" transform="translate(0,0) rotate(-45 351.59272486435066 354)" y="354" opacity="1">2016</text><text x="377.00448957023065" style="color:#000000;cursor:default;font-size:11px;fill:#000000;" text-anchor="end" transform="translate(0,0) rotate(-45 377.00448957023065 354)" y="354" opacity="1">2017</text><text x="402.41625427611064" style="color:#000000;cursor:default;font-size:11px;fill:#000000;" text-anchor="end" transform="translate(0,0) rotate(-45 402.41625427611064 354)" y="354" opacity="1">2018</text><text x="427.8280189820007" style="color:#000000;cursor:default;font-size:11px;fill:#000000;" text-anchor="end" transform="translate(0,0) rotate(-45 427.8280189820007 354)" y="354" opacity="1">2019</text><text x="453.2397836878807" style="color:#000000;cursor:default;font-size:11px;fill:#000000;" text-anchor="end" transform="translate(0,0) rotate(-45 453.2397836878807 354)" y="354" opacity="1">2020</text></g><g class="highcharts-axis-labels highcharts-yaxis-labels" data-z-index="7"><text x="28" style="color:#000000;cursor:default;font-size:11px;fill:#000000;" text-anchor="end" transform="translate(0,0)" y="342" opacity="1">0</text><text x="28" style="color:#000000;cursor:default;font-size:11px;fill:#000000;" text-anchor="end" transform="translate(0,0)" y="287" opacity="1">50</text><text x="28" style="color:#000000;cursor:default;font-size:11px;fill:#000000;" text-anchor="end" transform="translate(0,0)" y="231" opacity="1">100</text><text x="28" style="color:#000000;cursor:default;font-size:11px;fill:#000000;" text-anchor="end" transform="translate(0,0)" y="176" opacity="1">150</text><text x="28" style="color:#000000;cursor:default;font-size:11px;fill:#000000;" text-anchor="end" transform="translate(0,0)" y="120" opacity="1">200</text></g><text x="10" class="highcharts-credits" text-anchor="start" data-z-index="8" style="cursor:default;color:#000000;font-size:10px;fill:#000000;" y="403"><tspan>Quelle: Staatssekretariat für Wirtschaft SECO, Arbeitslosenstatistik.</tspan><tspan x="10" dy="13">Zuletzt geändert: 2021-7-28</tspan></text><g class="highcharts-control-points" data-z-index="99" clip-path="url(#highcharts-8tl8n2k-825-)"></g></svg>