<?xml version="1.0" standalone="no"?><!DOCTYPE svg PUBLIC "-//W3C//DTD SVG 1.1//EN" "http://www.w3.org/Graphics/SVG/1.1/DTD/svg11.dtd"><svg xmlns:xlink="http://www.w3.org/1999/xlink" version="1.1" class="highcharts-root" style="font-family:Arial;font-size:12px;" xmlns="http://www.w3.org/2000/svg" viewBox="0 0 485 415"><desc>Created with Highstock 6.1.1</desc><defs><clipPath id="highcharts-ygfmkfk-6"><rect x="0" y="0" width="251" height="352" fill="none"></rect></clipPath><clipPath id="highcharts-ygfmkfk-7"><rect x="0" y="0" width="251" height="352" fill="none"></rect></clipPath></defs><rect fill="#fbfbfb" class="highcharts-background" x="0" y="0" width="485" height="428" rx="0" ry="0"></rect><rect fill="none" class="highcharts-plot-background" x="123" y="106" width="352" height="251"></rect><g class="highcharts-pane-group" data-z-index="0"></g><g class="highcharts-grid highcharts-xaxis-grid " data-z-index="1"><path fill="none" data-z-index="1" class="highcharts-grid-line" d="M 123 148.5 L 475 148.5" opacity="1"></path><path fill="none" data-z-index="1" class="highcharts-grid-line" d="M 123 190.5 L 475 190.5" opacity="1"></path><path fill="none" data-z-index="1" class="highcharts-grid-line" d="M 123 232.5 L 475 232.5" opacity="1"></path><path fill="none" data-z-index="1" class="highcharts-grid-line" d="M 123 273.5 L 475 273.5" opacity="1"></path><path fill="none" data-z-index="1" class="highcharts-grid-line" d="M 123 315.5 L 475 315.5" opacity="1"></path><path fill="none" data-z-index="1" class="highcharts-grid-line" d="M 123 357.5 L 475 357.5" opacity="1"></path><path fill="none" data-z-index="1" class="highcharts-grid-line" d="M 123 106.5 L 475 106.5" opacity="1"></path></g><g class="highcharts-grid highcharts-yaxis-grid " data-z-index="1"><path fill="none" stroke="#B9CFD7" stroke-width="0.5" data-z-index="1" class="highcharts-grid-line" d="M 122.75 106 L 122.75 357" opacity="1"></path><path fill="none" stroke="#B9CFD7" stroke-width="0.5" data-z-index="1" class="highcharts-grid-line" d="M 192.75 106 L 192.75 357" opacity="1"></path><path fill="none" stroke="#B9CFD7" stroke-width="0.5" data-z-index="1" class="highcharts-grid-line" d="M 263.75 106 L 263.75 357" opacity="1"></path><path fill="none" stroke="#B9CFD7" stroke-width="0.5" data-z-index="1" class="highcharts-grid-line" d="M 333.75 106 L 333.75 357" opacity="1"></path><path fill="none" stroke="#B9CFD7" stroke-width="0.5" data-z-index="1" class="highcharts-grid-line" d="M 404.75 106 L 404.75 357" opacity="1"></path><path fill="none" stroke="#B9CFD7" stroke-width="0.5" data-z-index="1" class="highcharts-grid-line" d="M 475.25 106 L 475.25 357" opacity="1"></path></g><rect fill="none" class="highcharts-plot-border" data-z-index="1" x="123" y="106" width="352" height="251"></rect><g class="highcharts-axis highcharts-xaxis " data-z-index="2"><path fill="none" class="highcharts-axis-line" stroke="#B9CFD7" stroke-width="0.5" data-z-index="7" d="M 122.75 106 L 122.75 357"></path></g><g class="highcharts-axis highcharts-yaxis " data-z-index="2"><path fill="none" class="highcharts-axis-line" data-z-index="7" d="M 123 357 L 475 357"></path></g><g class="highcharts-series-group" data-z-index="3"><g data-z-index="0.1" class="highcharts-series highcharts-series-0 highcharts-column-series " transform="translate(475,357) rotate(90) scale(-1,1) scale(1 1)" clip-path="url(#highcharts-ygfmkfk-7)"><rect x="238" y="15" width="5" height="338" fill="#b00000" class="highcharts-point"></rect><rect x="197" y="23" width="4" height="330" fill="#b00000" class="highcharts-point"></rect><rect x="155" y="41" width="4" height="312" fill="#b00000" class="highcharts-point"></rect><rect x="113" y="46" width="4" height="307" fill="#b00000" class="highcharts-point"></rect><rect x="71" y="34" width="4" height="319" fill="#b00000" class="highcharts-point"></rect><rect x="29" y="54" width="4" height="299" fill="#b00000" class="highcharts-point"></rect></g><g data-z-index="0.1" class="highcharts-markers highcharts-series-0 highcharts-column-series " transform="translate(475,357) rotate(90) scale(-1,1) scale(1 1)" clip-path="none"></g><g data-z-index="0.1" class="highcharts-series highcharts-series-1 highcharts-column-series " transform="translate(475,357) rotate(90) scale(-1,1) scale(1 1)" clip-path="url(#highcharts-ygfmkfk-7)"><rect x="234" y="143" width="4" height="210" fill="#661200" class="highcharts-point"></rect><rect x="192" y="168" width="5" height="185" fill="#661200" class="highcharts-point"></rect><rect x="151" y="214" width="4" height="139" fill="#661200" class="highcharts-point"></rect><rect x="109" y="153" width="4" height="200" fill="#661200" class="highcharts-point"></rect><rect x="67" y="134" width="4" height="219" fill="#661200" class="highcharts-point"></rect><rect x="25" y="241" width="4" height="112" fill="#661200" class="highcharts-point"></rect></g><g data-z-index="0.1" class="highcharts-markers highcharts-series-1 highcharts-column-series " transform="translate(475,357) rotate(90) scale(-1,1) scale(1 1)" clip-path="none"></g><g data-z-index="0.1" class="highcharts-series highcharts-series-2 highcharts-column-series " transform="translate(475,357) rotate(90) scale(-1,1) scale(1 1)" clip-path="url(#highcharts-ygfmkfk-7)"><rect x="230" y="226" width="4" height="127" fill="#dc440e" class="highcharts-point"></rect><rect x="188" y="208" width="4" height="145" fill="#dc440e" class="highcharts-point"></rect><rect x="146" y="180" width="5" height="173" fill="#dc440e" class="highcharts-point"></rect><rect x="105" y="246" width="4" height="107" fill="#dc440e" class="highcharts-point"></rect><rect x="63" y="253" width="4" height="100" fill="#dc440e" class="highcharts-point"></rect><rect x="21" y="166" width="4" height="187" fill="#dc440e" class="highcharts-point"></rect></g><g data-z-index="0.1" class="highcharts-markers highcharts-series-2 highcharts-column-series " transform="translate(475,357) rotate(90) scale(-1,1) scale(1 1)" clip-path="none"></g><g data-z-index="0.1" class="highcharts-series highcharts-series-3 highcharts-column-series " transform="translate(475,357) rotate(90) scale(-1,1) scale(1 1)" clip-path="url(#highcharts-ygfmkfk-7)"><rect x="226" y="339" width="4" height="14" fill="#cd9c00" class="highcharts-point"></rect><rect x="184" y="331" width="4" height="22" fill="#cd9c00" class="highcharts-point"></rect><rect x="142" y="313" width="4" height="40" fill="#cd9c00" class="highcharts-point"></rect><rect x="100" y="308" width="5" height="45" fill="#cd9c00" class="highcharts-point"></rect><rect x="59" y="320" width="4" height="33" fill="#cd9c00" class="highcharts-point"></rect><rect x="17" y="300" width="4" height="53" fill="#cd9c00" class="highcharts-point"></rect></g><g data-z-index="0.1" class="highcharts-markers highcharts-series-3 highcharts-column-series " transform="translate(475,357) rotate(90) scale(-1,1) scale(1 1)" clip-path="none"></g><g data-z-index="0.1" class="highcharts-series highcharts-series-4 highcharts-column-series " transform="translate(475,357) rotate(90) scale(-1,1) scale(1 1)" clip-path="url(#highcharts-ygfmkfk-7)"><rect x="222" y="347" width="4" height="6" fill="#7f5f1a" class="highcharts-point"></rect><rect x="180" y="338" width="4" height="15" fill="#7f5f1a" class="highcharts-point"></rect><rect x="138" y="338" width="4" height="15" fill="#7f5f1a" class="highcharts-point"></rect><rect x="96" y="331" width="4" height="22" fill="#7f5f1a" class="highcharts-point"></rect><rect x="54" y="343" width="5" height="10" fill="#7f5f1a" class="highcharts-point"></rect><rect x="13" y="332" width="4" height="21" fill="#7f5f1a" class="highcharts-point"></rect></g><g data-z-index="0.1" class="highcharts-markers highcharts-series-4 highcharts-column-series " transform="translate(475,357) rotate(90) scale(-1,1) scale(1 1)" clip-path="none"></g><g data-z-index="0.1" class="highcharts-series highcharts-series-5 highcharts-column-series " transform="translate(475,357) rotate(90) scale(-1,1) scale(1 1)" clip-path="url(#highcharts-ygfmkfk-7)"><rect x="218" y="345" width="4" height="8" fill="#ffda80" class="highcharts-point"></rect><rect x="176" y="346" width="4" height="7" fill="#ffda80" class="highcharts-point"></rect><rect x="134" y="328" width="4" height="25" fill="#ffda80" class="highcharts-point"></rect><rect x="92" y="329" width="4" height="24" fill="#ffda80" class="highcharts-point"></rect><rect x="50" y="329" width="4" height="24" fill="#ffda80" class="highcharts-point"></rect><rect x="8" y="321" width="5" height="32" fill="#ffda80" class="highcharts-point"></rect></g><g data-z-index="0.1" class="highcharts-markers highcharts-series-5 highcharts-column-series " transform="translate(475,357) rotate(90) scale(-1,1) scale(1 1)" clip-path="none"></g></g><text x="10" text-anchor="start" class="highcharts-title" data-z-index="4" style="color:#000000;font-size:14px;font-weight:bold;fill:#000000;" y="21"><tspan>Anteil Angestellte in der kantonalen Verwaltung Basel-Stadt</tspan></text><text x="10" text-anchor="start" class="highcharts-subtitle" data-z-index="4" style="color:#000000;font-size:12px;font-weight:normal;font-family:Arial;fill:#000000;" y="40"><tspan>nach Staatsangehörigkeit, Geschlecht und Kaderstufe, 2017</tspan></text><g class="highcharts-legend" data-z-index="7" transform="translate(115,55)"><rect fill="none" class="highcharts-legend-box" rx="0" ry="0" x="0" y="0" width="336" height="39" visibility="visible"></rect><g data-z-index="1"><g><g class="highcharts-legend-item highcharts-column-series highcharts-color-undefined highcharts-series-0" data-z-index="1" transform="translate(8,3)"><text x="21" style="color:#333333;font-size:12px;font-weight:normal;cursor:pointer;fill:#333333;" text-anchor="start" data-z-index="2" y="15"><tspan>Schweiz</tspan></text><rect x="2" y="4" width="12" height="12" fill="#b00000" class="highcharts-point" data-z-index="3"></rect></g><g class="highcharts-legend-item highcharts-column-series highcharts-color-undefined highcharts-series-1" data-z-index="1" transform="translate(115.65625,3)"><text x="21" y="15" style="color:#333333;font-size:12px;font-weight:normal;cursor:pointer;fill:#333333;" text-anchor="start" data-z-index="2"><tspan>Schweizer</tspan></text><rect x="2" y="4" width="12" height="12" fill="#661200" class="highcharts-point" data-z-index="3"></rect></g><g class="highcharts-legend-item highcharts-column-series highcharts-color-undefined highcharts-series-2" data-z-index="1" transform="translate(223.3125,3)"><text x="21" y="15" style="color:#333333;font-size:12px;font-weight:normal;cursor:pointer;fill:#333333;" text-anchor="start" data-z-index="2"><tspan>Schweizerinnen</tspan></text><rect x="2" y="4" width="12" height="12" fill="#dc440e" class="highcharts-point" data-z-index="3"></rect></g><g class="highcharts-legend-item highcharts-column-series highcharts-color-undefined highcharts-series-3" data-z-index="1" transform="translate(8,17)"><text x="21" y="15" style="color:#333333;font-size:12px;font-weight:normal;cursor:pointer;fill:#333333;" text-anchor="start" data-z-index="2"><tspan>Ausland</tspan></text><rect x="2" y="4" width="12" height="12" fill="#cd9c00" class="highcharts-point" data-z-index="3"></rect></g><g class="highcharts-legend-item highcharts-column-series highcharts-color-undefined highcharts-series-4" data-z-index="1" transform="translate(115.65625,17)"><text x="21" y="15" style="color:#333333;font-size:12px;font-weight:normal;cursor:pointer;fill:#333333;" text-anchor="start" data-z-index="2"><tspan>Ausländer</tspan></text><rect x="2" y="4" width="12" height="12" fill="#7f5f1a" class="highcharts-point" data-z-index="3"></rect></g><g class="highcharts-legend-item highcharts-column-series highcharts-color-undefined highcharts-series-5" data-z-index="1" transform="translate(223.3125,17)"><text x="21" y="15" style="color:#333333;font-size:12px;font-weight:normal;cursor:pointer;fill:#333333;" text-anchor="start" data-z-index="2"><tspan>Ausländerinnen</tspan></text><rect x="2" y="4" width="12" height="12" fill="#ffda80" class="highcharts-point" data-z-index="3"></rect></g></g></g></g><g class="highcharts-axis-labels highcharts-xaxis-labels " data-z-index="7"><text x="108" style="color:#000000;cursor:default;font-size:11px;fill:#000000;" text-anchor="end" transform="translate(0,0)" y="131" opacity="1"><tspan>Oberes Kader</tspan></text><text x="108" style="color:#000000;cursor:default;font-size:11px;fill:#000000;" text-anchor="end" transform="translate(0,0)" y="173" opacity="1"><tspan>Mittleres Kader</tspan></text><text x="108" style="color:#000000;cursor:default;font-size:11px;fill:#000000;" text-anchor="end" transform="translate(0,0)" y="215" opacity="1"><tspan>Mittleres Fachkader</tspan></text><text x="108" style="color:#000000;cursor:default;font-size:11px;fill:#000000;" text-anchor="end" transform="translate(0,0)" y="257" opacity="1"><tspan>Unteres Kader</tspan></text><text x="108" style="color:#000000;cursor:default;font-size:11px;fill:#000000;" text-anchor="end" transform="translate(0,0)" y="299" opacity="1"><tspan>Unteres Fachkader</tspan></text><text x="108" style="color:#000000;cursor:default;font-size:11px;fill:#000000;" text-anchor="end" transform="translate(0,0)" y="341" opacity="1"><tspan>Ohne Kaderfunktion</tspan></text></g><g class="highcharts-axis-labels highcharts-yaxis-labels " data-z-index="7"><text x="123" style="color:#000000;cursor:default;font-size:11px;fill:#000000;" text-anchor="middle" transform="translate(0,0)" y="376" opacity="1">0%</text><text x="193.4" style="color:#000000;cursor:default;font-size:11px;fill:#000000;" text-anchor="middle" transform="translate(0,0)" y="376" opacity="1">20%</text><text x="263.8" style="color:#000000;cursor:default;font-size:11px;fill:#000000;" text-anchor="middle" transform="translate(0,0)" y="376" opacity="1">40%</text><text x="334.2" style="color:#000000;cursor:default;font-size:11px;fill:#000000;" text-anchor="middle" transform="translate(0,0)" y="376" opacity="1">60%</text><text x="404.6" style="color:#000000;cursor:default;font-size:11px;fill:#000000;" text-anchor="middle" transform="translate(0,0)" y="376" opacity="1">80%</text><text x="460.953125" style="color:#000000;cursor:default;font-size:11px;fill:#000000;" text-anchor="middle" transform="translate(0,0)" y="376" opacity="1">100%</text></g><text x="10" class="highcharts-credits" text-anchor="start" data-z-index="8" style="cursor:default;color:#000000;font-size:10px;fill:#000000;" y="423"><tspan>Quelle: Statistisches Amt Basel-Stadt, Bevölkerungsstatistik;</tspan><tspan x="10" dy="13">Finanzdepartement Basel-Stadt, Zentraler Personaldienst.</tspan><tspan x="10" dy="13">Zuletzt geändert: 2018-10-3</tspan></text></svg>