<?xml version="1.0" standalone="no"?><!DOCTYPE svg PUBLIC "-//W3C//DTD SVG 1.1//EN" "http://www.w3.org/Graphics/SVG/1.1/DTD/svg11.dtd"><svg xmlns:xlink="http://www.w3.org/1999/xlink" version="1.1" class="highcharts-root" style="font-family:Arial;font-size:12px;" xmlns="http://www.w3.org/2000/svg" viewBox="0 0 485 415"><desc>Created with Highcharts 8.2.0</desc><defs><clipPath id="highcharts-ciw0vfe-447-"><rect x="0" y="0" width="428" height="237" fill="none"></rect></clipPath><clipPath id="highcharts-ciw0vfe-468-"><rect x="0" y="0" width="428" height="237" fill="none"></rect></clipPath><clipPath id="highcharts-ciw0vfe-889-"><rect x="47" y="199" width="428" height="237" fill="none"></rect></clipPath></defs><rect fill="#fbfbfb" class="highcharts-background" x="0" y="0" width="485" height="513" rx="0" ry="0"></rect><rect fill="none" class="highcharts-plot-background" x="47" y="199" width="428" height="237"></rect><g class="highcharts-pane-group" data-z-index="0"></g><g class="highcharts-grid highcharts-xaxis-grid" data-z-index="1"><path fill="none" data-z-index="1" class="highcharts-grid-line" d="M 72.5 199 L 72.5 436" opacity="1"></path><path fill="none" data-z-index="1" class="highcharts-grid-line" d="M 116.5 199 L 116.5 436" opacity="1"></path><path fill="none" data-z-index="1" class="highcharts-grid-line" d="M 161.5 199 L 161.5 436" opacity="1"></path><path fill="none" data-z-index="1" class="highcharts-grid-line" d="M 205.5 199 L 205.5 436" opacity="1"></path><path fill="none" data-z-index="1" class="highcharts-grid-line" d="M 249.5 199 L 249.5 436" opacity="1"></path><path fill="none" data-z-index="1" class="highcharts-grid-line" d="M 293.5 199 L 293.5 436" opacity="1"></path><path fill="none" data-z-index="1" class="highcharts-grid-line" d="M 337.5 199 L 337.5 436" opacity="1"></path><path fill="none" data-z-index="1" class="highcharts-grid-line" d="M 381.5 199 L 381.5 436" opacity="1"></path><path fill="none" data-z-index="1" class="highcharts-grid-line" d="M 426.5 199 L 426.5 436" opacity="1"></path><path fill="none" data-z-index="1" class="highcharts-grid-line" d="M 470.5 199 L 470.5 436" opacity="1"></path></g><g class="highcharts-grid highcharts-yaxis-grid" data-z-index="1"><path fill="none" stroke="#B9CFD7" stroke-width="0.5" data-z-index="1" class="highcharts-grid-line" d="M 47 436.25 L 475 436.25" opacity="1"></path><path fill="none" stroke="#B9CFD7" stroke-width="0.5" data-z-index="1" class="highcharts-grid-line" d="M 47 402.25 L 475 402.25" opacity="1"></path><path fill="none" stroke="#B9CFD7" stroke-width="0.5" data-z-index="1" class="highcharts-grid-line" d="M 47 368.25 L 475 368.25" opacity="1"></path><path fill="none" stroke="#B9CFD7" stroke-width="0.5" data-z-index="1" class="highcharts-grid-line" d="M 47 334.25 L 475 334.25" opacity="1"></path><path fill="none" stroke="#B9CFD7" stroke-width="0.5" data-z-index="1" class="highcharts-grid-line" d="M 47 301.25 L 475 301.25" opacity="1"></path><path fill="none" stroke="#B9CFD7" stroke-width="0.5" data-z-index="1" class="highcharts-grid-line" d="M 47 267.25 L 475 267.25" opacity="1"></path><path fill="none" stroke="#B9CFD7" stroke-width="0.5" data-z-index="1" class="highcharts-grid-line" d="M 47 233.25 L 475 233.25" opacity="1"></path><path fill="none" stroke="#B9CFD7" stroke-width="0.5" data-z-index="1" class="highcharts-grid-line" d="M 47 198.75 L 475 198.75" opacity="1"></path></g><rect fill="none" class="highcharts-plot-border" data-z-index="1" x="47" y="199" width="428" height="237"></rect><g class="highcharts-axis highcharts-xaxis" data-z-index="2"><path fill="none" class="highcharts-axis-line" stroke="#B9CFD7" stroke-width="0.5" data-z-index="7" d="M 47 436.25 L 475 436.25"></path></g><g class="highcharts-axis highcharts-yaxis" data-z-index="2"><path fill="none" class="highcharts-axis-line" data-z-index="7" d="M 47 199 L 47 436"></path></g><g class="highcharts-series-group" data-z-index="3"><g class="highcharts-series highcharts-series-0 highcharts-line-series" data-z-index="0.1" opacity="1" transform="translate(47,199) scale(1 1)" clip-path="url(#highcharts-ciw0vfe-468-)"><path fill="none" d="M 4.1960784313737 222.88157142857142 L 26.280701754387 222.27214285714285 L 48.3653250774 220.20685714285713 L 70.449948400414 217.76914285714287 L 92.534571723427 216.41485714285716 L 114.61919504644 216.24557142857142 L 136.70381836945 217.53214285714284 L 158.78844169247 218.88642857142858 L 180.87306501548 219.36042857142857 L 202.95768833849 220.0037142857143 L 225.04231166151 219.56357142857144 L 247.12693498452 219.42814285714286 L 269.21155830753 219.42814285714286 L 291.29618163055 219.56357142857144 L 313.38080495356 220.1052857142857 L 335.46542827657 219.36042857142857 L 357.55005159959 219.225" class="highcharts-graph" data-z-index="1" stroke="#b00000" stroke-width="2" stroke-linejoin="round" stroke-linecap="round"></path></g><g class="highcharts-markers highcharts-series-0 highcharts-line-series" data-z-index="0.1" opacity="1" transform="translate(47,199) scale(1 1)" clip-path="none"></g><g class="highcharts-series highcharts-series-1 highcharts-line-series" data-z-index="0.1" opacity="1" transform="translate(47,199) scale(1 1)" clip-path="url(#highcharts-ciw0vfe-468-)"><path fill="none" d="M 357.55005159959 220.61314285714286 L 379.6346749226 220.98557142857143 L 401.71929824561 221.56114285714287 L 423.80392156863 222.23828571428572" class="highcharts-graph" data-z-index="1" stroke="#b00000" stroke-width="2" stroke-linejoin="round" stroke-linecap="round"></path></g><g class="highcharts-markers highcharts-series-1 highcharts-line-series" data-z-index="0.1" opacity="1" transform="translate(47,199) scale(1 1)" clip-path="none"></g><g class="highcharts-series highcharts-series-2 highcharts-line-series" data-z-index="0.1" opacity="1" transform="translate(47,199) scale(1 1)" clip-path="url(#highcharts-ciw0vfe-468-)"><path fill="none" d="M 4.1960784313737 229.89 L 26.280701754387 230.2624285714286 L 48.3653250774 228.50185714285715 L 70.449948400414 227.01214285714286 L 92.534571723427 227.38457142857143 L 114.61919504644 228.33257142857144 L 136.70381836945 230.1947142857143 L 158.78844169247 229.61914285714286 L 180.87306501548 228.80657142857143 L 202.95768833849 227.994 L 225.04231166151 227.9262857142857 L 247.12693498452 227.65542857142856 L 269.21155830753 227.994 L 291.29618163055 228.1632857142857 L 313.38080495356 227.62157142857143 L 335.46542827657 227.24914285714286 L 357.55005159959 226.30114285714285" class="highcharts-graph" data-z-index="1" stroke="#672773" stroke-width="2" stroke-linejoin="round" stroke-linecap="round"></path></g><g class="highcharts-markers highcharts-series-2 highcharts-line-series" data-z-index="0.1" opacity="1" transform="translate(47,199) scale(1 1)" clip-path="none"></g><g class="highcharts-series highcharts-series-3 highcharts-line-series" data-z-index="0.1" opacity="1" transform="translate(47,199) scale(1 1)" clip-path="url(#highcharts-ciw0vfe-468-)"><path fill="none" d="M 357.55005159959 227.24914285714286 L 379.6346749226 227.72314285714285 L 401.71929824561 227.96014285714287 L 423.80392156863 227.79085714285713" class="highcharts-graph" data-z-index="1" stroke="#672773" stroke-width="2" stroke-linejoin="round" stroke-linecap="round"></path></g><g class="highcharts-markers highcharts-series-3 highcharts-line-series" data-z-index="0.1" opacity="1" transform="translate(47,199) scale(1 1)" clip-path="none"></g><g class="highcharts-series highcharts-series-4 highcharts-line-series" data-z-index="0.1" opacity="1" transform="translate(47,199) scale(1 1)" clip-path="url(#highcharts-ciw0vfe-468-)"><path fill="none" d="M 4.1960784313737 219.02185714285713 L 26.280701754387 219.90214285714285 L 48.3653250774 216.5502857142857 L 70.449948400414 212.14885714285714 L 92.534571723427 209.30485714285714 L 114.61919504644 209.37257142857143 L 136.70381836945 212.45357142857142 L 158.78844169247 214.41728571428573 L 180.87306501548 216.27942857142858 L 202.95768833849 218.00614285714286 L 225.04231166151 216.5502857142857 L 247.12693498452 215.80542857142856 L 269.21155830753 216.144 L 291.29618163055 217.22742857142856 L 313.38080495356 215.2637142857143 L 335.46542827657 215.70385714285715 L 357.55005159959 215.63614285714286" class="highcharts-graph" data-z-index="1" stroke="#007a2f" stroke-width="2" stroke-linejoin="round" stroke-linecap="round"></path></g><g class="highcharts-markers highcharts-series-4 highcharts-line-series" data-z-index="0.1" opacity="1" transform="translate(47,199) scale(1 1)" clip-path="none"></g><g class="highcharts-series highcharts-series-5 highcharts-line-series" data-z-index="0.1" opacity="1" transform="translate(47,199) scale(1 1)" clip-path="url(#highcharts-ciw0vfe-468-)"><path fill="none" d="M 357.55005159959 216.51642857142858 L 379.6346749226 217.83685714285713 L 401.71929824561 217.90457142857144 L 423.80392156863 220.57928571428573" class="highcharts-graph" data-z-index="1" stroke="#007a2f" stroke-width="2" stroke-linejoin="round" stroke-linecap="round"></path></g><g class="highcharts-markers highcharts-series-5 highcharts-line-series" data-z-index="0.1" opacity="1" transform="translate(47,199) scale(1 1)" clip-path="none"></g><g class="highcharts-series highcharts-series-6 highcharts-line-series" data-z-index="0.1" opacity="1" transform="translate(47,199) scale(1 1)" clip-path="url(#highcharts-ciw0vfe-468-)"><path fill="none" d="M 4.1960784313737 185.90957142857144 L 26.280701754387 185.36785714285713 L 48.3653250774 175.4815714285714 L 70.449948400414 159.8057142857143 L 92.534571723427 151.44299999999998 L 114.61919504644 149.1407142857143 L 136.70381836945 154.998 L 158.78844169247 160.5844285714286 L 180.87306501548 163.08985714285717 L 202.95768833849 164.8842857142857 L 225.04231166151 163.32685714285714 L 247.12693498452 163.97014285714286 L 269.21155830753 162.108 L 291.29618163055 165.83228571428572 L 313.38080495356 165.1212857142857 L 335.46542827657 162.7512857142857 L 357.55005159959 164.37642857142856" class="highcharts-graph" data-z-index="1" stroke="#fabd24" stroke-width="2" stroke-linejoin="round" stroke-linecap="round"></path></g><g class="highcharts-markers highcharts-series-6 highcharts-line-series" data-z-index="0.1" opacity="1" transform="translate(47,199) scale(1 1)" clip-path="none"></g><g class="highcharts-series highcharts-series-7 highcharts-line-series" data-z-index="0.1" opacity="1" transform="translate(47,199) scale(1 1)" clip-path="url(#highcharts-ciw0vfe-468-)"><path fill="none" d="M 357.55005159959 165.86614285714285 L 379.6346749226 169.1502857142857 L 401.71929824561 173.45014285714285 L 423.80392156863 176.3957142857143" class="highcharts-graph" data-z-index="1" stroke="#fabd24" stroke-width="2" stroke-linejoin="round" stroke-linecap="round"></path></g><g class="highcharts-markers highcharts-series-7 highcharts-line-series" data-z-index="0.1" opacity="1" transform="translate(47,199) scale(1 1)" clip-path="none"></g><g class="highcharts-series highcharts-series-8 highcharts-line-series" data-z-index="0.1" opacity="1" transform="translate(47,199) scale(1 1)" clip-path="url(#highcharts-ciw0vfe-468-)"><path fill="none" d="M 4.1960784313737 222.8477142857143 L 26.280701754387 223.55871428571427 L 48.3653250774 219.0557142857143 L 70.449948400414 217.70142857142858 L 92.534571723427 217.66757142857142 L 114.61919504644 218.20928571428573 L 136.70381836945 221.22257142857143 L 158.78844169247 222.47528571428572 L 180.87306501548 222.069 L 202.95768833849 222.8477142857143 L 225.04231166151 222.00128571428573 L 247.12693498452 221.96742857142857 L 269.21155830753 221.29028571428572 L 291.29618163055 221.49342857142858 L 313.38080495356 220.95171428571427 L 335.46542827657 221.05328571428572 L 357.55005159959 221.01942857142856" class="highcharts-graph" data-z-index="1" stroke="#b475ab" stroke-width="2" stroke-linejoin="round" stroke-linecap="round"></path></g><g class="highcharts-markers highcharts-series-8 highcharts-line-series" data-z-index="0.1" opacity="1" transform="translate(47,199) scale(1 1)" clip-path="none"></g><g class="highcharts-series highcharts-series-9 highcharts-line-series" data-z-index="0.1" opacity="1" transform="translate(47,199) scale(1 1)" clip-path="url(#highcharts-ciw0vfe-468-)"><path fill="none" d="M 357.55005159959 221.7642857142857 L 379.6346749226 222.306 L 401.71929824561 222.9492857142857 L 423.80392156863 223.017" class="highcharts-graph" data-z-index="1" stroke="#b475ab" stroke-width="2" stroke-linejoin="round" stroke-linecap="round"></path></g><g class="highcharts-markers highcharts-series-9 highcharts-line-series" data-z-index="0.1" opacity="1" transform="translate(47,199) scale(1 1)" clip-path="none"></g><g class="highcharts-series highcharts-series-10 highcharts-line-series" data-z-index="0.1" opacity="1" transform="translate(47,199) scale(1 1)" clip-path="url(#highcharts-ciw0vfe-468-)"><path fill="none" d="M 4.1960784313737 214.04485714285715 L 26.280701754387 214.28185714285715 L 48.3653250774 210.93 L 70.449948400414 207.00257142857143 L 92.534571723427 201.89014285714285 L 114.61919504644 204.531 L 136.70381836945 205.85142857142858 L 158.78844169247 210.01585714285716 L 180.87306501548 210.7607142857143 L 202.95768833849 208.93242857142857 L 225.04231166151 210.35442857142857 L 247.12693498452 207.81514285714286 L 269.21155830753 208.66157142857142 L 291.29618163055 209.2032857142857 L 313.38080495356 205.20814285714286 L 335.46542827657 205.10657142857144 L 357.55005159959 203.0074285714286" class="highcharts-graph" data-z-index="1" stroke="#71a3b5" stroke-width="2" stroke-linejoin="round" stroke-linecap="round"></path></g><g class="highcharts-markers highcharts-series-10 highcharts-line-series" data-z-index="0.1" opacity="1" transform="translate(47,199) scale(1 1)" clip-path="none"></g><g class="highcharts-series highcharts-series-11 highcharts-line-series" data-z-index="0.1" opacity="1" transform="translate(47,199) scale(1 1)" clip-path="url(#highcharts-ciw0vfe-468-)"><path fill="none" d="M 357.55005159959 205.005 L 379.6346749226 207.51042857142858 L 401.71929824561 210.62528571428572 L 423.80392156863 208.25528571428572" class="highcharts-graph" data-z-index="1" stroke="#71a3b5" stroke-width="2" stroke-linejoin="round" stroke-linecap="round"></path></g><g class="highcharts-markers highcharts-series-11 highcharts-line-series" data-z-index="0.1" opacity="1" transform="translate(47,199) scale(1 1)" clip-path="none"></g><g class="highcharts-series highcharts-series-12 highcharts-line-series" data-z-index="0.1" opacity="1" transform="translate(47,199) scale(1 1)" clip-path="url(#highcharts-ciw0vfe-468-)"><path fill="none" d="M 4.1960784313737 213.46928571428572 L 26.280701754387 210.89614285714285 L 48.3653250774 203.61685714285716 L 70.449948400414 195.96514285714287 L 92.534571723427 188.68585714285715 L 114.61919504644 187.90714285714284 L 136.70381836945 190.7172857142857 L 158.78844169247 190.10785714285714 L 180.87306501548 188.44885714285715 L 202.95768833849 191.52985714285714 L 225.04231166151 193.155 L 247.12693498452 192.85028571428572 L 269.21155830753 194.03528571428572 L 291.29618163055 197.82728571428572 L 313.38080495356 196.71 L 335.46542827657 195.9312857142857 L 357.55005159959 194.5092857142857" class="highcharts-graph" data-z-index="1" stroke="#b9cfd7" stroke-width="2" stroke-linejoin="round" stroke-linecap="round"></path></g><g class="highcharts-markers highcharts-series-12 highcharts-line-series" data-z-index="0.1" opacity="1" transform="translate(47,199) scale(1 1)" clip-path="none"></g><g class="highcharts-series highcharts-series-13 highcharts-line-series" data-z-index="0.1" opacity="1" transform="translate(47,199) scale(1 1)" clip-path="url(#highcharts-ciw0vfe-468-)"><path fill="none" d="M 357.55005159959 195.22028571428572 L 379.6346749226 195.18642857142856 L 401.71929824561 198.67371428571428 L 423.80392156863 203.109" class="highcharts-graph" data-z-index="1" stroke="#b9cfd7" stroke-width="2" stroke-linejoin="round" stroke-linecap="round"></path></g><g class="highcharts-markers highcharts-series-13 highcharts-line-series" data-z-index="0.1" opacity="1" transform="translate(47,199) scale(1 1)" clip-path="none"></g><g class="highcharts-series highcharts-series-14 highcharts-line-series" data-z-index="0.1" opacity="1" transform="translate(47,199) scale(1 1)" clip-path="url(#highcharts-ciw0vfe-468-)"><path fill="none" d="M 4.1960784313737 185.097 L 26.280701754387 176.46342857142858 L 48.3653250774 173.31471428571427 L 70.449948400414 161.97257142857143 L 92.534571723427 160.24585714285712 L 114.61919504644 156.08142857142857 L 136.70381836945 156.92785714285714 L 158.78844169247 164.13942857142857 L 180.87306501548 171.0124285714286 L 202.95768833849 175.41385714285713 L 225.04231166151 169.82742857142858 L 247.12693498452 173.1792857142857 L 269.21155830753 172.63757142857142 L 291.29618163055 171.114 L 313.38080495356 172.26514285714285 L 335.46542827657 170.91085714285714 L 357.55005159959 177.9192857142857" class="highcharts-graph" data-z-index="1" stroke="#ff8028" stroke-width="2" stroke-linejoin="round" stroke-linecap="round"></path></g><g class="highcharts-markers highcharts-series-14 highcharts-line-series" data-z-index="0.1" opacity="1" transform="translate(47,199) scale(1 1)" clip-path="none"></g><g class="highcharts-series highcharts-series-15 highcharts-line-series" data-z-index="0.1" opacity="1" transform="translate(47,199) scale(1 1)" clip-path="url(#highcharts-ciw0vfe-468-)"><path fill="none" d="M 357.55005159959 180.08614285714287 L 379.6346749226 180.45857142857142 L 401.71929824561 184.65685714285715 L 423.80392156863 188.0087142857143" class="highcharts-graph" data-z-index="1" stroke="#ff8028" stroke-width="2" stroke-linejoin="round" stroke-linecap="round"></path></g><g class="highcharts-markers highcharts-series-15 highcharts-line-series" data-z-index="0.1" opacity="1" transform="translate(47,199) scale(1 1)" clip-path="none"></g><g class="highcharts-series highcharts-series-16 highcharts-line-series" data-z-index="0.1" opacity="1" transform="translate(47,199) scale(1 1)" clip-path="url(#highcharts-ciw0vfe-468-)"><path fill="none" d="M 4.1960784313737 152.865 L 26.280701754387 143.96057142857143 L 48.3653250774 136.13957142857143 L 70.449948400414 129.876 L 92.534571723427 121.51328571428571 L 114.61919504644 118.94014285714287 L 136.70381836945 109.93414285714286 L 158.78844169247 111.79628571428573 L 180.87306501548 112.2702857142857 L 202.95768833849 90.60171428571428 L 225.04231166151 48.58500000000001 L 247.12693498452 51.80142857142857 L 269.21155830753 43.30328571428572 L 291.29618163055 19.874142857142886 L 313.38080495356 18.11357142857142 L 335.46542827657 12.967285714285708 L 357.55005159959 11.849999999999994" class="highcharts-graph" data-z-index="1" stroke="#73ba7c" stroke-width="2" stroke-linejoin="round" stroke-linecap="round"></path></g><g class="highcharts-markers highcharts-series-16 highcharts-line-series" data-z-index="0.1" opacity="1" transform="translate(47,199) scale(1 1)" clip-path="none"></g><g class="highcharts-series highcharts-series-17 highcharts-line-series" data-z-index="0.1" opacity="1" transform="translate(47,199) scale(1 1)" clip-path="url(#highcharts-ciw0vfe-468-)"><path fill="none" d="M 357.55005159959 23.15828571428574 L 379.6346749226 30.302142857142883 L 401.71929824561 37.615285714285704 L 423.80392156863 49.66842857142859" class="highcharts-graph" data-z-index="1" stroke="#73ba7c" stroke-width="2" stroke-linejoin="round" stroke-linecap="round"></path></g><g class="highcharts-markers highcharts-series-17 highcharts-line-series" data-z-index="0.1" opacity="1" transform="translate(47,199) scale(1 1)" clip-path="none"></g><g class="highcharts-series highcharts-series-18 highcharts-line-series" data-z-index="0.1" opacity="1" transform="translate(47,199) scale(1 1)" clip-path="url(#highcharts-ciw0vfe-468-)"><path fill="none" d="M 4.1960784313737 176.26028571428571 L 26.280701754387 178.698 L 48.3653250774 165.35828571428573 L 70.449948400414 156.7247142857143 L 92.534571723427 140.64257142857144 L 114.61919504644 140.67642857142857 L 136.70381836945 137.46 L 158.78844169247 148.6667142857143 L 180.87306501548 141.69214285714287 L 202.95768833849 107.86885714285714 L 225.04231166151 56.67685714285716 L 247.12693498452 46.38428571428574 L 269.21155830753 34.127999999999986 L 291.29618163055 38.93571428571428 L 313.38080495356 47.67085714285713 L 335.46542827657 42.727714285714285 L 357.55005159959 46.24885714285713" class="highcharts-graph" data-z-index="1" stroke="#9f7c5a" stroke-width="2" stroke-linejoin="round" stroke-linecap="round"></path></g><g class="highcharts-markers highcharts-series-18 highcharts-line-series" data-z-index="0.1" opacity="1" transform="translate(47,199) scale(1 1)" clip-path="none"></g><g class="highcharts-series highcharts-series-19 highcharts-line-series" data-z-index="0.1" opacity="1" transform="translate(47,199) scale(1 1)" clip-path="url(#highcharts-ciw0vfe-468-)"><path fill="none" d="M 357.55005159959 52.614000000000004 L 379.6346749226 56.27057142857143 L 401.71929824561 64.56557142857145 L 423.80392156863 71.91257142857143" class="highcharts-graph" data-z-index="1" stroke="#9f7c5a" stroke-width="2" stroke-linejoin="round" stroke-linecap="round"></path></g><g class="highcharts-markers highcharts-series-19 highcharts-line-series" data-z-index="0.1" opacity="1" transform="translate(47,199) scale(1 1)" clip-path="none"></g><g class="highcharts-series highcharts-series-20 highcharts-line-series" data-z-index="0.1" opacity="1" transform="translate(47,199) scale(1 1)" clip-path="url(#highcharts-ciw0vfe-468-)"><path fill="none" d="M 4.1960784313737 215.83928571428572 L 26.280701754387 216.11014285714285 L 48.3653250774 214.14642857142857 L 70.449948400414 209.16942857142857 L 92.534571723427 206.39314285714286 L 114.61919504644 207.2057142857143 L 136.70381836945 209.27100000000002 L 158.78844169247 208.7292857142857 L 180.87306501548 210.93 L 202.95768833849 209.9142857142857 L 225.04231166151 205.10657142857144 L 247.12693498452 203.85385714285715 L 269.21155830753 203.0074285714286 L 291.29618163055 200.9082857142857 L 313.38080495356 202.73657142857144 L 335.46542827657 201.51771428571428 L 357.55005159959 199.52014285714284" class="highcharts-graph" data-z-index="1" stroke="#999999" stroke-width="2" stroke-linejoin="round" stroke-linecap="round"></path></g><g class="highcharts-markers highcharts-series-20 highcharts-line-series" data-z-index="0.1" opacity="1" transform="translate(47,199) scale(1 1)" clip-path="none"></g><g class="highcharts-series highcharts-series-21 highcharts-line-series" data-z-index="0.1" opacity="1" transform="translate(47,199) scale(1 1)" clip-path="url(#highcharts-ciw0vfe-468-)"><path fill="none" d="M 357.55005159959 201.34842857142857 L 379.6346749226 200.84057142857142 L 401.71929824561 200.87442857142858 L 423.80392156863 200.9082857142857" class="highcharts-graph" data-z-index="1" stroke="#999999" stroke-width="2" stroke-linejoin="round" stroke-linecap="round"></path></g><g class="highcharts-markers highcharts-series-21 highcharts-line-series" data-z-index="0.1" opacity="1" transform="translate(47,199) scale(1 1)" clip-path="none"></g></g><text x="10" text-anchor="start" class="highcharts-title" data-z-index="4" style="color:#000000;font-size:14px;font-weight:bold;fill:#000000;" y="21"><tspan>Sozialhilfequote nach Staatsangehörigkeit</tspan></text><text x="10" text-anchor="start" class="highcharts-subtitle" data-z-index="4" style="color:#000000;font-size:12px;font-weight:normal;fill:#000000;" y="40"><tspan>Kanton Basel-Stadt (bis 2016 Stadt Basel)</tspan></text><text x="10" text-anchor="start" class="highcharts-caption" data-z-index="4" style="color:#666666;fill:#666666;" y="470"></text><g class="highcharts-legend" data-z-index="7" transform="translate(39,56)"><rect fill="none" class="highcharts-legend-box" rx="0" ry="0" x="0" y="0" width="315" height="131" visibility="visible"></rect><g data-z-index="1"><g><g class="highcharts-legend-item highcharts-line-series highcharts-color-undefined highcharts-series-0" data-z-index="1" transform="translate(8,3)"><path fill="none" d="M 0 11 L 16 11" class="highcharts-graph" stroke="#b00000" stroke-width="2"></path><text x="21" style="color:#333333;cursor:pointer;font-size:12px;font-weight:normal;fill:#333333;" text-anchor="start" data-z-index="2" y="15"><tspan>Schweiz</tspan></text></g><g class="highcharts-legend-item highcharts-line-series highcharts-color-undefined highcharts-series-2" data-z-index="1" transform="translate(160,3)"><path fill="none" d="M 0 11 L 16 11" class="highcharts-graph" stroke="#672773" stroke-width="2"></path><text x="21" y="15" style="color:#333333;cursor:pointer;font-size:12px;font-weight:normal;fill:#333333;" text-anchor="start" data-z-index="2"><tspan>Deutschland</tspan></text></g><g class="highcharts-legend-item highcharts-line-series highcharts-color-undefined highcharts-series-4" data-z-index="1" transform="translate(8,23)"><path fill="none" d="M 0 11 L 16 11" class="highcharts-graph" stroke="#007a2f" stroke-width="2"></path><text x="21" y="15" style="color:#333333;cursor:pointer;font-size:12px;font-weight:normal;fill:#333333;" text-anchor="start" data-z-index="2"><tspan>Italien</tspan></text></g><g class="highcharts-legend-item highcharts-line-series highcharts-color-undefined highcharts-series-6" data-z-index="1" transform="translate(160,23)"><path fill="none" d="M 0 11 L 16 11" class="highcharts-graph" stroke="#fabd24" stroke-width="2"></path><text x="21" y="15" style="color:#333333;cursor:pointer;font-size:12px;font-weight:normal;fill:#333333;" text-anchor="start" data-z-index="2"><tspan>Türkei</tspan></text></g><g class="highcharts-legend-item highcharts-line-series highcharts-color-undefined highcharts-series-8" data-z-index="1" transform="translate(8,43)"><path fill="none" d="M 0 11 L 16 11" class="highcharts-graph" stroke="#b475ab" stroke-width="2"></path><text x="21" y="15" style="color:#333333;cursor:pointer;font-size:12px;font-weight:normal;fill:#333333;" text-anchor="start" data-z-index="2"><tspan>EU-17 + EFTA + UK</tspan></text></g><g class="highcharts-legend-item highcharts-line-series highcharts-color-undefined highcharts-series-10" data-z-index="1" transform="translate(160,43)"><path fill="none" d="M 0 11 L 16 11" class="highcharts-graph" stroke="#71a3b5" stroke-width="2"></path><text x="21" y="15" style="color:#333333;cursor:pointer;font-size:12px;font-weight:normal;fill:#333333;" text-anchor="start" data-z-index="2"><tspan>EU-Ost</tspan></text></g><g class="highcharts-legend-item highcharts-line-series highcharts-color-undefined highcharts-series-12" data-z-index="1" transform="translate(8,63)"><path fill="none" d="M 0 11 L 16 11" class="highcharts-graph" stroke="#b9cfd7" stroke-width="2"></path><text x="21" y="15" style="color:#333333;cursor:pointer;font-size:12px;font-weight:normal;fill:#333333;" text-anchor="start" data-z-index="2"><tspan>Balkan</tspan></text></g><g class="highcharts-legend-item highcharts-line-series highcharts-color-undefined highcharts-series-14" data-z-index="1" transform="translate(160,63)"><path fill="none" d="M 0 11 L 16 11" class="highcharts-graph" stroke="#ff8028" stroke-width="2"></path><text x="21" y="15" style="color:#333333;cursor:pointer;font-size:12px;font-weight:normal;fill:#333333;" text-anchor="start" data-z-index="2"><tspan>Mittel- und Südamerika</tspan></text></g><g class="highcharts-legend-item highcharts-line-series highcharts-color-undefined highcharts-series-16" data-z-index="1" transform="translate(8,83)"><path fill="none" d="M 0 11 L 16 11" class="highcharts-graph" stroke="#73ba7c" stroke-width="2"></path><text x="21" y="15" style="color:#333333;cursor:pointer;font-size:12px;font-weight:normal;fill:#333333;" text-anchor="start" data-z-index="2"><tspan>Arabische Länder</tspan></text></g><g class="highcharts-legend-item highcharts-line-series highcharts-color-undefined highcharts-series-18" data-z-index="1" transform="translate(160,83)"><path fill="none" d="M 0 11 L 16 11" class="highcharts-graph" stroke="#9f7c5a" stroke-width="2"></path><text x="21" y="15" style="color:#333333;cursor:pointer;font-size:12px;font-weight:normal;fill:#333333;" text-anchor="start" data-z-index="2"><tspan>Afrikanische Länder</tspan></text></g><g class="highcharts-legend-item highcharts-line-series highcharts-color-undefined highcharts-series-20" data-z-index="1" transform="translate(8,103)"><path fill="none" d="M 0 11 L 16 11" class="highcharts-graph" stroke="#999999" stroke-width="2"></path><text x="21" y="15" style="color:#333333;cursor:pointer;font-size:12px;font-weight:normal;fill:#333333;" text-anchor="start" data-z-index="2"><tspan>Übrige Länder</tspan></text></g></g></g></g><g class="highcharts-axis-labels highcharts-xaxis-labels" data-z-index="7"><text x="73.280701754387" style="color:#000000;cursor:default;font-size:11px;fill:#000000;" text-anchor="middle" transform="translate(0,0)" y="455" opacity="1">2002</text><text x="117.44994840041" style="color:#000000;cursor:default;font-size:11px;fill:#000000;" text-anchor="middle" transform="translate(0,0)" y="455" opacity="1">2004</text><text x="161.61919504644" style="color:#000000;cursor:default;font-size:11px;fill:#000000;" text-anchor="middle" transform="translate(0,0)" y="455" opacity="1">2006</text><text x="205.78844169247" style="color:#000000;cursor:default;font-size:11px;fill:#000000;" text-anchor="middle" transform="translate(0,0)" y="455" opacity="1">2008</text><text x="249.95768833849" style="color:#000000;cursor:default;font-size:11px;fill:#000000;" text-anchor="middle" transform="translate(0,0)" y="455" opacity="1">2010</text><text x="294.12693498452" style="color:#000000;cursor:default;font-size:11px;fill:#000000;" text-anchor="middle" transform="translate(0,0)" y="455" opacity="1">2012</text><text x="338.29618163055" style="color:#000000;cursor:default;font-size:11px;fill:#000000;" text-anchor="middle" transform="translate(0,0)" y="455" opacity="1">2014</text><text x="382.46542827657" style="color:#000000;cursor:default;font-size:11px;fill:#000000;" text-anchor="middle" transform="translate(0,0)" y="455" opacity="1">2016</text><text x="426.6346749226" style="color:#000000;cursor:default;font-size:11px;fill:#000000;" text-anchor="middle" transform="translate(0,0)" y="455" opacity="1">2018</text><text x="463" style="color:#000000;cursor:default;font-size:11px;fill:#000000;" text-anchor="middle" transform="translate(0,0)" y="455" opacity="1">2020</text></g><g class="highcharts-axis-labels highcharts-yaxis-labels" data-z-index="7"><text x="32" style="color:#000000;cursor:default;font-size:11px;fill:#000000;" text-anchor="end" transform="translate(0,0)" y="440" opacity="1">0%</text><text x="32" style="color:#000000;cursor:default;font-size:11px;fill:#000000;" text-anchor="end" transform="translate(0,0)" y="406" opacity="1">10%</text><text x="32" style="color:#000000;cursor:default;font-size:11px;fill:#000000;" text-anchor="end" transform="translate(0,0)" y="372" opacity="1">20%</text><text x="32" style="color:#000000;cursor:default;font-size:11px;fill:#000000;" text-anchor="end" transform="translate(0,0)" y="338" opacity="1">30%</text><text x="32" style="color:#000000;cursor:default;font-size:11px;fill:#000000;" text-anchor="end" transform="translate(0,0)" y="305" opacity="1">40%</text><text x="32" style="color:#000000;cursor:default;font-size:11px;fill:#000000;" text-anchor="end" transform="translate(0,0)" y="271" opacity="1">50%</text><text x="32" style="color:#000000;cursor:default;font-size:11px;fill:#000000;" text-anchor="end" transform="translate(0,0)" y="237" opacity="1">60%</text><text x="32" style="color:#000000;cursor:default;font-size:11px;fill:#000000;" text-anchor="end" transform="translate(0,0)" y="203" opacity="1">70%</text></g><text x="10" class="highcharts-credits" text-anchor="start" data-z-index="8" style="cursor:default;color:#000000;font-size:10px;fill:#000000;" y="488"><tspan>Quelle: Statistisches Amt Basel-Stadt, Sozialhilfestatistik.</tspan><tspan x="10" dy="13">Zuletzt geändert: 2021-5-14</tspan></text><g class="highcharts-control-points" data-z-index="99" clip-path="url(#highcharts-ciw0vfe-889-)"></g></svg>