<?xml version="1.0" standalone="no"?><!DOCTYPE svg PUBLIC "-//W3C//DTD SVG 1.1//EN" "http://www.w3.org/Graphics/SVG/1.1/DTD/svg11.dtd"><svg xmlns:xlink="http://www.w3.org/1999/xlink" version="1.1" class="highcharts-root" style="font-family:Arial;font-size:12px;" xmlns="http://www.w3.org/2000/svg" viewBox="0 0 485 415"><desc>Created with Highstock 6.1.1</desc><defs><clipPath id="highcharts-0ogpr8n-6"><rect x="0" y="0" width="428" height="129" fill="none"></rect></clipPath><clipPath id="highcharts-0ogpr8n-7"><rect x="0" y="0" width="428" height="129" fill="none"></rect></clipPath></defs><rect fill="#fbfbfb" class="highcharts-background" x="0" y="0" width="485" height="428" rx="0" ry="0"></rect><rect fill="none" class="highcharts-plot-background" x="47" y="199" width="428" height="129"></rect><g class="highcharts-pane-group" data-z-index="0"></g><g class="highcharts-grid highcharts-xaxis-grid " data-z-index="1"><path fill="none" data-z-index="1" class="highcharts-grid-line" d="M 50.5 199 L 50.5 328" opacity="1"></path><path fill="none" data-z-index="1" class="highcharts-grid-line" d="M 76.5 199 L 76.5 328" opacity="1"></path><path fill="none" data-z-index="1" class="highcharts-grid-line" d="M 103.5 199 L 103.5 328" opacity="1"></path><path fill="none" data-z-index="1" class="highcharts-grid-line" d="M 129.5 199 L 129.5 328" opacity="1"></path><path fill="none" data-z-index="1" class="highcharts-grid-line" d="M 155.5 199 L 155.5 328" opacity="1"></path><path fill="none" data-z-index="1" class="highcharts-grid-line" d="M 181.5 199 L 181.5 328" opacity="1"></path><path fill="none" data-z-index="1" class="highcharts-grid-line" d="M 208.5 199 L 208.5 328" opacity="1"></path><path fill="none" data-z-index="1" class="highcharts-grid-line" d="M 234.5 199 L 234.5 328" opacity="1"></path><path fill="none" data-z-index="1" class="highcharts-grid-line" d="M 260.5 199 L 260.5 328" opacity="1"></path><path fill="none" data-z-index="1" class="highcharts-grid-line" d="M 286.5 199 L 286.5 328" opacity="1"></path><path fill="none" data-z-index="1" class="highcharts-grid-line" d="M 312.5 199 L 312.5 328" opacity="1"></path><path fill="none" data-z-index="1" class="highcharts-grid-line" d="M 339.5 199 L 339.5 328" opacity="1"></path><path fill="none" data-z-index="1" class="highcharts-grid-line" d="M 365.5 199 L 365.5 328" opacity="1"></path><path fill="none" data-z-index="1" class="highcharts-grid-line" d="M 391.5 199 L 391.5 328" opacity="1"></path><path fill="none" data-z-index="1" class="highcharts-grid-line" d="M 417.5 199 L 417.5 328" opacity="1"></path><path fill="none" data-z-index="1" class="highcharts-grid-line" d="M 444.5 199 L 444.5 328" opacity="1"></path><path fill="none" data-z-index="1" class="highcharts-grid-line" d="M 470.5 199 L 470.5 328" opacity="1"></path></g><g class="highcharts-grid highcharts-yaxis-grid " data-z-index="1"><path fill="none" stroke="#B9CFD7" stroke-width="0.5" data-z-index="1" class="highcharts-grid-line" d="M 47 328.25 L 475 328.25" opacity="1"></path><path fill="none" stroke="#B9CFD7" stroke-width="0.5" data-z-index="1" class="highcharts-grid-line" d="M 47 264.25 L 475 264.25" opacity="1"></path><path fill="none" stroke="#B9CFD7" stroke-width="0.5" data-z-index="1" class="highcharts-grid-line" d="M 47 198.75 L 475 198.75" opacity="1"></path></g><rect fill="none" class="highcharts-plot-border" data-z-index="1" x="47" y="199" width="428" height="129"></rect><g class="highcharts-axis highcharts-xaxis " data-z-index="2"><path fill="none" class="highcharts-axis-line" stroke="#B9CFD7" stroke-width="0.5" data-z-index="7" d="M 47 328.25 L 475 328.25"></path></g><g class="highcharts-axis highcharts-yaxis " data-z-index="2"><path fill="none" class="highcharts-axis-line" data-z-index="7" d="M 47 199 L 47 328"></path></g><g class="highcharts-series-group" data-z-index="3"><g data-z-index="0.1" class="highcharts-series highcharts-series-0 highcharts-line-series " transform="translate(47,199) scale(1 1)" clip-path="url(#highcharts-0ogpr8n-7)"><path fill="none" d="M 4.1960784313747 76.9485 L 30.421568627453 74.304 L 56.647058823531 72.5625 L 82.872549019609 71.7885 L 109.09803921569 70.821 L 135.32352941177 70.94999999999999 L 161.54901960784 71.0145 L 187.77450980392 71.53049999999999 L 214 69.273 L 240.22549019608 70.3695 L 266.45098039216 70.56299999999999 L 292.67647058823 72.69149999999999 L 318.90196078431 73.917 L 345.12745098039 75.4005 L 371.35294117647 76.4325 L 397.57843137255 77.2065 L 423.80392156863 77.658" class="highcharts-graph" data-z-index="1" stroke="#b00000" stroke-width="2" stroke-linejoin="round" stroke-linecap="round"></path></g><g data-z-index="0.1" class="highcharts-markers highcharts-series-0 highcharts-line-series " transform="translate(47,199) scale(1 1)" clip-path="none"></g><g data-z-index="0.1" class="highcharts-series highcharts-series-1 highcharts-line-series " transform="translate(47,199) scale(1 1)" clip-path="url(#highcharts-0ogpr8n-7)"><path fill="none" d="M 4.1960784313747 108.102 L 30.421568627453 109.908 L 56.647058823531 112.101 L 82.872549019609 114.1005 L 109.09803921569 115.197 L 135.32352941177 117.261 L 161.54901960784 118.7445 L 187.77450980392 119.7765 L 214 121.002 L 240.22549019608 121.002 L 266.45098039216 121.131 L 292.67647058823 121.131 L 318.90196078431 120.873 L 345.12745098039 120.744 L 371.35294117647 120.486 L 397.57843137255 120.5505 L 423.80392156863 120.228" class="highcharts-graph" data-z-index="1" stroke="#672773" stroke-width="2" stroke-linejoin="round" stroke-linecap="round"></path></g><g data-z-index="0.1" class="highcharts-markers highcharts-series-1 highcharts-line-series " transform="translate(47,199) scale(1 1)" clip-path="none"></g><g data-z-index="0.1" class="highcharts-series highcharts-series-2 highcharts-line-series " transform="translate(47,199) scale(1 1)" clip-path="url(#highcharts-0ogpr8n-7)"><path fill="none" d="M 4.1960784313747 27.025499999999994 L 30.421568627453 22.575000000000003 L 56.647058823531 21.478499999999983 L 82.872549019609 20.575500000000005 L 109.09803921569 20.897999999999982 L 135.32352941177 22.833 L 161.54901960784 26.122500000000002 L 187.77450980392 27.992999999999995 L 214 39.602999999999994 L 240.22549019608 42.5055 L 266.45098039216 45.73049999999999 L 292.67647058823 50.43899999999999 L 318.90196078431 59.1465 L 345.12745098039 64.371 L 371.35294117647 69.789 L 397.57843137255 73.788 L 423.80392156863 76.04549999999999" class="highcharts-graph" data-z-index="1" stroke="#007a2f" stroke-width="2" stroke-linejoin="round" stroke-linecap="round"></path></g><g data-z-index="0.1" class="highcharts-markers highcharts-series-2 highcharts-line-series " transform="translate(47,199) scale(1 1)" clip-path="none"></g><g data-z-index="0.1" class="highcharts-series highcharts-series-3 highcharts-line-series " transform="translate(47,199) scale(1 1)" clip-path="url(#highcharts-0ogpr8n-7)"><path fill="none" d="M 4.1960784313747 64.3065 L 30.421568627453 49.794 L 56.647058823531 43.0215 L 82.872549019609 37.7325 L 109.09803921569 34.70100000000001 L 135.32352941177 31.992000000000004 L 161.54901960784 25.477499999999992 L 187.77450980392 19.479 L 214 37.66799999999999 L 240.22549019608 40.570499999999996 L 266.45098039216 41.08649999999999 L 292.67647058823 43.924499999999995 L 318.90196078431 47.988 L 345.12745098039 50.181 L 371.35294117647 51.793499999999995 L 397.57843137255 51.85799999999999 L 423.80392156863 52.6965" class="highcharts-graph" data-z-index="1" stroke="#fabd24" stroke-width="2" stroke-linejoin="round" stroke-linecap="round"></path></g><g data-z-index="0.1" class="highcharts-markers highcharts-series-3 highcharts-line-series " transform="translate(47,199) scale(1 1)" clip-path="none"></g><g data-z-index="0.1" class="highcharts-series highcharts-series-4 highcharts-line-series " transform="translate(47,199) scale(1 1)" clip-path="url(#highcharts-0ogpr8n-7)"><path fill="none" d="M 4.1960784313747 85.3335 L 30.421568627453 84.8175 L 56.647058823531 83.076 L 82.872549019609 83.334 L 109.09803921569 83.2695 L 135.32352941177 85.914 L 161.54901960784 86.7525 L 187.77450980392 89.8485 L 214 95.07300000000001 L 240.22549019608 95.46000000000001 L 266.45098039216 98.42699999999999 L 292.67647058823 101.007 L 318.90196078431 104.4255 L 345.12745098039 105.9735 L 371.35294117647 107.6505 L 397.57843137255 108.747 L 423.80392156863 110.424" class="highcharts-graph" data-z-index="1" stroke="#b475ab" stroke-width="2" stroke-linejoin="round" stroke-linecap="round"></path></g><g data-z-index="0.1" class="highcharts-markers highcharts-series-4 highcharts-line-series " transform="translate(47,199) scale(1 1)" clip-path="none"></g><g data-z-index="0.1" class="highcharts-series highcharts-series-5 highcharts-line-series " transform="translate(47,199) scale(1 1)" clip-path="url(#highcharts-0ogpr8n-7)"><path fill="none" d="M 4.1960784313747 86.30099999999999 L 30.421568627453 91.074 L 56.647058823531 93.3315 L 82.872549019609 97.782 L 109.09803921569 96.49199999999999 L 135.32352941177 100.4265 L 161.54901960784 102.813 L 187.77450980392 106.038 L 214 112.23 L 240.22549019608 112.359 L 266.45098039216 114.4875 L 292.67647058823 117.7125 L 318.90196078431 119.5185 L 345.12745098039 120.5505 L 371.35294117647 121.7115 L 397.57843137255 122.42099999999999 L 423.80392156863 122.42099999999999" class="highcharts-graph" data-z-index="1" stroke="#71a3b5" stroke-width="2" stroke-linejoin="round" stroke-linecap="round"></path></g><g data-z-index="0.1" class="highcharts-markers highcharts-series-5 highcharts-line-series " transform="translate(47,199) scale(1 1)" clip-path="none"></g><g data-z-index="0.1" class="highcharts-series highcharts-series-6 highcharts-line-series " transform="translate(47,199) scale(1 1)" clip-path="url(#highcharts-0ogpr8n-7)"><path fill="none" d="M 4.1960784313747 66.822 L 30.421568627453 56.8245 L 56.647058823531 51.27749999999999 L 82.872549019609 43.730999999999995 L 109.09803921569 39.732 L 135.32352941177 39.2805 L 161.54901960784 33.669 L 187.77450980392 27.283500000000004 L 214 40.635000000000005 L 240.22549019608 41.02199999999999 L 266.45098039216 43.537499999999994 L 292.67647058823 45.92399999999999 L 318.90196078431 49.794 L 345.12745098039 52.6965 L 371.35294117647 55.72800000000001 L 397.57843137255 60.30749999999999 L 423.80392156863 63.21000000000001" class="highcharts-graph" data-z-index="1" stroke="#b9cfd7" stroke-width="2" stroke-linejoin="round" stroke-linecap="round"></path></g><g data-z-index="0.1" class="highcharts-markers highcharts-series-6 highcharts-line-series " transform="translate(47,199) scale(1 1)" clip-path="none"></g><g data-z-index="0.1" class="highcharts-series highcharts-series-7 highcharts-line-series " transform="translate(47,199) scale(1 1)" clip-path="url(#highcharts-0ogpr8n-7)"><path fill="none" d="M 4.1960784313747 121.776 L 30.421568627453 118.938 L 56.647058823531 118.422 L 82.872549019609 118.551 L 109.09803921569 118.2285 L 135.32352941177 117.261 L 161.54901960784 116.4225 L 187.77450980392 116.358 L 214 119.5185 L 240.22549019608 118.7445 L 266.45098039216 118.293 L 292.67647058823 119.712 L 318.90196078431 119.26050000000001 L 345.12745098039 118.68 L 371.35294117647 118.68 L 397.57843137255 119.84100000000001 L 423.80392156863 118.422" class="highcharts-graph" data-z-index="1" stroke="#ff8028" stroke-width="2" stroke-linejoin="round" stroke-linecap="round"></path></g><g data-z-index="0.1" class="highcharts-markers highcharts-series-7 highcharts-line-series " transform="translate(47,199) scale(1 1)" clip-path="none"></g><g data-z-index="0.1" class="highcharts-series highcharts-series-8 highcharts-line-series " transform="translate(47,199) scale(1 1)" clip-path="url(#highcharts-0ogpr8n-7)"><path fill="none" d="M 4.1960784313747 104.6835 L 30.421568627453 105.4575 L 56.647058823531 100.62 L 82.872549019609 102.1035 L 109.09803921569 99.588 L 135.32352941177 105.78 L 161.54901960784 107.7795 L 187.77450980392 105.651 L 214 111.1335 L 240.22549019608 111.714 L 266.45098039216 110.295 L 292.67647058823 110.295 L 318.90196078431 110.1015 L 345.12745098039 112.16550000000001 L 371.35294117647 111.585 L 397.57843137255 111.9075 L 423.80392156863 114.55199999999999" class="highcharts-graph" data-z-index="1" stroke="#73ba7c" stroke-width="2" stroke-linejoin="round" stroke-linecap="round"></path></g><g data-z-index="0.1" class="highcharts-markers highcharts-series-8 highcharts-line-series " transform="translate(47,199) scale(1 1)" clip-path="none"></g><g data-z-index="0.1" class="highcharts-series highcharts-series-9 highcharts-line-series " transform="translate(47,199) scale(1 1)" clip-path="url(#highcharts-0ogpr8n-7)"><path fill="none" d="M 4.1960784313747 120.4215 L 30.421568627453 116.4225 L 56.647058823531 115.842 L 82.872549019609 115.713 L 109.09803921569 114.1005 L 135.32352941177 113.52 L 161.54901960784 111.972 L 187.77450980392 112.55250000000001 L 214 118.7445 L 240.22549019608 117.8415 L 266.45098039216 118.68 L 292.67647058823 117.5835 L 318.90196078431 117.906 L 345.12745098039 119.5185 L 371.35294117647 118.8735 L 397.57843137255 119.0025 L 423.80392156863 118.809" class="highcharts-graph" data-z-index="1" stroke="#9f7c5a" stroke-width="2" stroke-linejoin="round" stroke-linecap="round"></path></g><g data-z-index="0.1" class="highcharts-markers highcharts-series-9 highcharts-line-series " transform="translate(47,199) scale(1 1)" clip-path="none"></g><g data-z-index="0.1" class="highcharts-series highcharts-series-10 highcharts-line-series " transform="translate(47,199) scale(1 1)" clip-path="url(#highcharts-0ogpr8n-7)"><path fill="none" d="M 4.1960784313747 117.5835 L 30.421568627453 116.616 L 56.647058823531 119.1315 L 82.872549019609 119.583 L 109.09803921569 118.3575 L 135.32352941177 118.8735 L 161.54901960784 118.422 L 187.77450980392 117.648 L 214 120.6795 L 240.22549019608 120.8085 L 266.45098039216 121.3245 L 292.67647058823 122.03399999999999 L 318.90196078431 121.8405 L 345.12745098039 121.776 L 371.35294117647 121.647 L 397.57843137255 121.905 L 423.80392156863 121.8405" class="highcharts-graph" data-z-index="1" stroke="#999999" stroke-width="2" stroke-linejoin="round" stroke-linecap="round"></path></g><g data-z-index="0.1" class="highcharts-markers highcharts-series-10 highcharts-line-series " transform="translate(47,199) scale(1 1)" clip-path="none"></g></g><text x="10" text-anchor="start" class="highcharts-title" data-z-index="4" style="color:#000000;font-size:14px;font-weight:bold;fill:#000000;" y="21"><tspan>IV-Quote nach Staatsangehörigkeit</tspan></text><text x="10" text-anchor="start" class="highcharts-subtitle" data-z-index="4" style="color:#000000;font-size:12px;font-weight:normal;font-family:Arial;fill:#000000;" y="40"><tspan>Basel-Stadt</tspan></text><g class="highcharts-legend" data-z-index="7" transform="translate(39,56)"><rect fill="none" class="highcharts-legend-box" rx="0" ry="0" x="0" y="0" width="315" height="131" visibility="visible"></rect><g data-z-index="1"><g><g class="highcharts-legend-item highcharts-line-series highcharts-color-undefined highcharts-series-0" data-z-index="1" transform="translate(8,3)"><path fill="none" d="M 0 11 L 16 11" class="highcharts-graph" stroke="#b00000" stroke-width="2"></path><text x="21" style="color:#333333;font-size:12px;font-weight:normal;cursor:pointer;fill:#333333;" text-anchor="start" data-z-index="2" y="15"><tspan>Schweiz</tspan></text></g><g class="highcharts-legend-item highcharts-line-series highcharts-color-undefined highcharts-series-1" data-z-index="1" transform="translate(160,3)"><path fill="none" d="M 0 11 L 16 11" class="highcharts-graph" stroke="#672773" stroke-width="2"></path><text x="21" y="15" style="color:#333333;font-size:12px;font-weight:normal;cursor:pointer;fill:#333333;" text-anchor="start" data-z-index="2"><tspan>Deutschland</tspan></text></g><g class="highcharts-legend-item highcharts-line-series highcharts-color-undefined highcharts-series-2" data-z-index="1" transform="translate(8,23)"><path fill="none" d="M 0 11 L 16 11" class="highcharts-graph" stroke="#007a2f" stroke-width="2"></path><text x="21" y="15" style="color:#333333;font-size:12px;font-weight:normal;cursor:pointer;fill:#333333;" text-anchor="start" data-z-index="2"><tspan>Italien</tspan></text></g><g class="highcharts-legend-item highcharts-line-series highcharts-color-undefined highcharts-series-3" data-z-index="1" transform="translate(160,23)"><path fill="none" d="M 0 11 L 16 11" class="highcharts-graph" stroke="#fabd24" stroke-width="2"></path><text x="21" y="15" style="color:#333333;font-size:12px;font-weight:normal;cursor:pointer;fill:#333333;" text-anchor="start" data-z-index="2"><tspan>Türkei</tspan></text></g><g class="highcharts-legend-item highcharts-line-series highcharts-color-undefined highcharts-series-4" data-z-index="1" transform="translate(8,43)"><path fill="none" d="M 0 11 L 16 11" class="highcharts-graph" stroke="#b475ab" stroke-width="2"></path><text x="21" y="15" style="color:#333333;font-size:12px;font-weight:normal;cursor:pointer;fill:#333333;" text-anchor="start" data-z-index="2"><tspan>EU-17 + EFTA</tspan></text></g><g class="highcharts-legend-item highcharts-line-series highcharts-color-undefined highcharts-series-5" data-z-index="1" transform="translate(160,43)"><path fill="none" d="M 0 11 L 16 11" class="highcharts-graph" stroke="#71a3b5" stroke-width="2"></path><text x="21" y="15" style="color:#333333;font-size:12px;font-weight:normal;cursor:pointer;fill:#333333;" text-anchor="start" data-z-index="2"><tspan>EU-Ost</tspan></text></g><g class="highcharts-legend-item highcharts-line-series highcharts-color-undefined highcharts-series-6" data-z-index="1" transform="translate(8,63)"><path fill="none" d="M 0 11 L 16 11" class="highcharts-graph" stroke="#b9cfd7" stroke-width="2"></path><text x="21" y="15" style="color:#333333;font-size:12px;font-weight:normal;cursor:pointer;fill:#333333;" text-anchor="start" data-z-index="2"><tspan>Balkan</tspan></text></g><g class="highcharts-legend-item highcharts-line-series highcharts-color-undefined highcharts-series-7" data-z-index="1" transform="translate(160,63)"><path fill="none" d="M 0 11 L 16 11" class="highcharts-graph" stroke="#ff8028" stroke-width="2"></path><text x="21" y="15" style="color:#333333;font-size:12px;font-weight:normal;cursor:pointer;fill:#333333;" text-anchor="start" data-z-index="2"><tspan>Mittel- und Südamerika</tspan></text></g><g class="highcharts-legend-item highcharts-line-series highcharts-color-undefined highcharts-series-8" data-z-index="1" transform="translate(8,83)"><path fill="none" d="M 0 11 L 16 11" class="highcharts-graph" stroke="#73ba7c" stroke-width="2"></path><text x="21" y="15" style="color:#333333;font-size:12px;font-weight:normal;cursor:pointer;fill:#333333;" text-anchor="start" data-z-index="2"><tspan>Arabische Länder</tspan></text></g><g class="highcharts-legend-item highcharts-line-series highcharts-color-undefined highcharts-series-9" data-z-index="1" transform="translate(160,83)"><path fill="none" d="M 0 11 L 16 11" class="highcharts-graph" stroke="#9f7c5a" stroke-width="2"></path><text x="21" y="15" style="color:#333333;font-size:12px;font-weight:normal;cursor:pointer;fill:#333333;" text-anchor="start" data-z-index="2"><tspan>Afrikanische Länder</tspan></text></g><g class="highcharts-legend-item highcharts-line-series highcharts-color-undefined highcharts-series-10" data-z-index="1" transform="translate(8,103)"><path fill="none" d="M 0 11 L 16 11" class="highcharts-graph" stroke="#999999" stroke-width="2"></path><text x="21" y="15" style="color:#333333;font-size:12px;font-weight:normal;cursor:pointer;fill:#333333;" text-anchor="start" data-z-index="2"><tspan>Übrige Länder</tspan></text></g></g></g></g><g class="highcharts-axis-labels highcharts-xaxis-labels " data-z-index="7"><text x="53.78880329572567" style="color:#000000;cursor:default;font-size:11px;fill:#000000;" text-anchor="end" transform="translate(0,0) rotate(-45 53.78880329572567 344)" y="344" opacity="1">2001</text><text x="80.01429349180367" style="color:#000000;cursor:default;font-size:11px;fill:#000000;" text-anchor="end" transform="translate(0,0) rotate(-45 80.01429349180367 344)" y="344" opacity="1">2002</text><text x="106.23978368788067" style="color:#000000;cursor:default;font-size:11px;fill:#000000;" text-anchor="end" transform="translate(0,0) rotate(-45 106.23978368788067 344)" y="344" opacity="1">2003</text><text x="132.4652738839607" style="color:#000000;cursor:default;font-size:11px;fill:#000000;" text-anchor="end" transform="translate(0,0) rotate(-45 132.4652738839607 344)" y="344" opacity="1">2004</text><text x="158.69076408004068" style="color:#000000;cursor:default;font-size:11px;fill:#000000;" text-anchor="end" transform="translate(0,0) rotate(-45 158.69076408004068 344)" y="344" opacity="1">2005</text><text x="184.9162542761207" style="color:#000000;cursor:default;font-size:11px;fill:#000000;" text-anchor="end" transform="translate(0,0) rotate(-45 184.9162542761207 344)" y="344" opacity="1">2006</text><text x="211.14174447219068" style="color:#000000;cursor:default;font-size:11px;fill:#000000;" text-anchor="end" transform="translate(0,0) rotate(-45 211.14174447219068 344)" y="344" opacity="1">2007</text><text x="237.3672346682707" style="color:#000000;cursor:default;font-size:11px;fill:#000000;" text-anchor="end" transform="translate(0,0) rotate(-45 237.3672346682707 344)" y="344" opacity="1">2008</text><text x="263.59272486435066" style="color:#000000;cursor:default;font-size:11px;fill:#000000;" text-anchor="end" transform="translate(0,0) rotate(-45 263.59272486435066 344)" y="344" opacity="1">2009</text><text x="289.81821506043065" style="color:#000000;cursor:default;font-size:11px;fill:#000000;" text-anchor="end" transform="translate(0,0) rotate(-45 289.81821506043065 344)" y="344" opacity="1">2010</text><text x="316.04370525651063" style="color:#000000;cursor:default;font-size:11px;fill:#000000;" text-anchor="end" transform="translate(0,0) rotate(-45 316.04370525651063 344)" y="344" opacity="1">2011</text><text x="342.2691954525807" style="color:#000000;cursor:default;font-size:11px;fill:#000000;" text-anchor="end" transform="translate(0,0) rotate(-45 342.2691954525807 344)" y="344" opacity="1">2012</text><text x="368.49468564866066" style="color:#000000;cursor:default;font-size:11px;fill:#000000;" text-anchor="end" transform="translate(0,0) rotate(-45 368.49468564866066 344)" y="344" opacity="1">2013</text><text x="394.72017584474065" style="color:#000000;cursor:default;font-size:11px;fill:#000000;" text-anchor="end" transform="translate(0,0) rotate(-45 394.72017584474065 344)" y="344" opacity="1">2014</text><text x="420.94566604082064" style="color:#000000;cursor:default;font-size:11px;fill:#000000;" text-anchor="end" transform="translate(0,0) rotate(-45 420.94566604082064 344)" y="344" opacity="1">2015</text><text x="447.1711562369007" style="color:#000000;cursor:default;font-size:11px;fill:#000000;" text-anchor="end" transform="translate(0,0) rotate(-45 447.1711562369007 344)" y="344" opacity="1">2016</text><text x="473.3966464329807" style="color:#000000;cursor:default;font-size:11px;fill:#000000;" text-anchor="end" transform="translate(0,0) rotate(-45 473.3966464329807 344)" y="344" opacity="1">2017</text></g><g class="highcharts-axis-labels highcharts-yaxis-labels " data-z-index="7"><text x="32" style="color:#000000;cursor:default;font-size:11px;fill:#000000;" text-anchor="end" transform="translate(0,0)" y="332" opacity="1">0%</text><text x="32" style="color:#000000;cursor:default;font-size:11px;fill:#000000;" text-anchor="end" transform="translate(0,0)" y="268" opacity="1">10%</text><text x="32" style="color:#000000;cursor:default;font-size:11px;fill:#000000;" text-anchor="end" transform="translate(0,0)" y="203" opacity="1">20%</text></g><text x="10" class="highcharts-credits" text-anchor="start" data-z-index="8" style="cursor:default;color:#000000;font-size:10px;fill:#000000;" y="393"><tspan>Quelle: Statistisches Amt Basel-Stadt, Bevölkerungsstatistik;</tspan><tspan x="10" dy="13">Bundesamt für Sozialversicherungen.</tspan><tspan x="10" dy="13">Zuletzt geändert: 2018-10-3</tspan></text></svg>