<svg version="1.1" class="highcharts-root" style="font-family: Inter, &quot;Helvetica Neue&quot;, Helvetica, Arial, sans-serif; font-size: 1rem;" xmlns="http://www.w3.org/2000/svg" width="600" height="400" viewBox="0 0 600 400" role="img" aria-label="Grenzgänger im Dienstleistungssektor (II)"><desc>Created with Highcharts 12.5.0</desc><defs><filter id="highcharts-drop-shadow-0"><feDropShadow dx="1" dy="1" flood-color="#000000" flood-opacity="0.75" stdDeviation="2.5"></feDropShadow></filter><clipPath id="highcharts-mpxif76-52-"><rect x="0" y="0" width="526" height="149" fill="none"></rect></clipPath></defs><rect fill="#ffffff" class="highcharts-background" filter="none" x="0" y="0" width="600" height="400" rx="0" ry="0"></rect><rect fill="none" class="highcharts-plot-background" x="64" y="166" width="526" height="149" filter="none"></rect><g class="highcharts-pane-group" data-z-index="0"></g><g class="highcharts-grid highcharts-xaxis-grid" data-z-index="1"><path fill="none" stroke="#e6e6e6" stroke-width="0" stroke-dasharray="none" data-z-index="1" class="highcharts-grid-line" d="M 70.5 166 L 70.5 315" opacity="1"></path><path fill="none" stroke="#e6e6e6" stroke-width="0" stroke-dasharray="none" data-z-index="1" class="highcharts-grid-line" d="M 124.5 166 L 124.5 315" opacity="1"></path><path fill="none" stroke="#e6e6e6" stroke-width="0" stroke-dasharray="none" data-z-index="1" class="highcharts-grid-line" d="M 178.5 166 L 178.5 315" opacity="1"></path><path fill="none" stroke="#e6e6e6" stroke-width="0" stroke-dasharray="none" data-z-index="1" class="highcharts-grid-line" d="M 232.5 166 L 232.5 315" opacity="1"></path><path fill="none" stroke="#e6e6e6" stroke-width="0" stroke-dasharray="none" data-z-index="1" class="highcharts-grid-line" d="M 286.5 166 L 286.5 315" opacity="1"></path><path fill="none" stroke="#e6e6e6" stroke-width="0" stroke-dasharray="none" data-z-index="1" class="highcharts-grid-line" d="M 340.5 166 L 340.5 315" opacity="1"></path><path fill="none" stroke="#e6e6e6" stroke-width="0" stroke-dasharray="none" data-z-index="1" class="highcharts-grid-line" d="M 394.5 166 L 394.5 315" opacity="1"></path><path fill="none" stroke="#e6e6e6" stroke-width="0" stroke-dasharray="none" data-z-index="1" class="highcharts-grid-line" d="M 448.5 166 L 448.5 315" opacity="1"></path><path fill="none" stroke="#e6e6e6" stroke-width="0" stroke-dasharray="none" data-z-index="1" class="highcharts-grid-line" d="M 502.5 166 L 502.5 315" opacity="1"></path><path fill="none" stroke="#e6e6e6" stroke-width="0" stroke-dasharray="none" data-z-index="1" class="highcharts-grid-line" d="M 556.5 166 L 556.5 315" opacity="1"></path></g><g class="highcharts-grid highcharts-yaxis-grid" data-z-index="1"><path fill="none" stroke="#B9CFD7" stroke-width="0.5" stroke-dasharray="none" data-z-index="1" class="highcharts-grid-line" d="M 64 315.25 L 590 315.25" opacity="1"></path><path fill="none" stroke="#B9CFD7" stroke-width="0.5" stroke-dasharray="none" data-z-index="1" class="highcharts-grid-line" d="M 64 240.25 L 590 240.25" opacity="1"></path><path fill="none" stroke="#B9CFD7" stroke-width="0.5" stroke-dasharray="none" data-z-index="1" class="highcharts-grid-line" d="M 64 166.25 L 590 166.25" opacity="1"></path></g><rect fill="none" class="highcharts-plot-border" data-z-index="1" stroke="#cccccc" stroke-width="0" x="64" y="166" width="526" height="149"></rect><g class="highcharts-axis highcharts-xaxis" data-z-index="2"><path fill="none" class="highcharts-axis-line" stroke="#B9CFD7" stroke-width="0.5" data-z-index="7" d="M 64 315.25 L 590 315.25"></path></g><g class="highcharts-axis highcharts-yaxis" data-z-index="2"><path fill="none" class="highcharts-axis-line" stroke="#B9CFD7" stroke-width="0" data-z-index="7" d="M 64 166 L 64 315"></path></g><g class="highcharts-series-group" data-z-index="3" filter="none"><g class="highcharts-series highcharts-series-0 highcharts-line-series" data-z-index="0.1" opacity="1" transform="translate(64,166) scale(1 1)" clip-path="url(#highcharts-mpxif76-52-)"><path fill="none" d="M 6.7435897435897 132.8037 L 20.230769230769 132.8037 L 33.717948717949 133.1613 L 47.205128205128 133.2954 L 60.692307692308 133.4295 L 74.179487179487 133.6381 L 87.666666666667 134.4576 L 101.15384615385 134.7854 L 114.64102564103 135.1281 L 128.12820512821 135.0685 L 141.61538461538 135.1877 L 155.10256410256 135.2026 L 168.58974358974 135.5304 L 182.07692307692 135.0834 L 195.5641025641 135.4112 L 209.05128205128 135.1877 L 222.53846153846 135.3516 L 236.02564102564 135.3218 L 249.51282051282 135.3814 L 263 135.6198 L 276.48717948718 135.7241 L 289.97435897436 135.4708 L 303.46153846154 135.441 L 316.94871794872 135.5751 L 330.4358974359 136.0668 L 343.92307692308 136.037 L 357.41025641026 136.7373 L 370.89743589744 137.3035 L 384.38461538462 137.8101 L 397.87179487179 138.4955 L 411.35897435897 138.6743 L 424.84615384615 138.8531 L 438.33333333333 139.911 L 451.82051282051 140.3431 L 465.30769230769 140.4474 L 478.79487179487 140.5666 L 492.28205128205 140.6113 L 505.76923076923 140.8646 L 519.25641025641 140.954" class="highcharts-graph" data-z-index="1" stroke="#FFBB58" stroke-width="2" stroke-linejoin="round" stroke-linecap="round" filter="none"></path><path fill="none" d="M 6.7435897435897 132.8037 L 20.230769230769 132.8037 L 33.717948717949 133.1613 L 47.205128205128 133.2954 L 60.692307692308 133.4295 L 74.179487179487 133.6381 L 87.666666666667 134.4576 L 101.15384615385 134.7854 L 114.64102564103 135.1281 L 128.12820512821 135.0685 L 141.61538461538 135.1877 L 155.10256410256 135.2026 L 168.58974358974 135.5304 L 182.07692307692 135.0834 L 195.5641025641 135.4112 L 209.05128205128 135.1877 L 222.53846153846 135.3516 L 236.02564102564 135.3218 L 249.51282051282 135.3814 L 263 135.6198 L 276.48717948718 135.7241 L 289.97435897436 135.4708 L 303.46153846154 135.441 L 316.94871794872 135.5751 L 330.4358974359 136.0668 L 343.92307692308 136.037 L 357.41025641026 136.7373 L 370.89743589744 137.3035 L 384.38461538462 137.8101 L 397.87179487179 138.4955 L 411.35897435897 138.6743 L 424.84615384615 138.8531 L 438.33333333333 139.911 L 451.82051282051 140.3431 L 465.30769230769 140.4474 L 478.79487179487 140.5666 L 492.28205128205 140.6113 L 505.76923076923 140.8646 L 519.25641025641 140.954" data-z-index="2" class="highcharts-tracker-line" stroke-linecap="round" stroke-linejoin="round" stroke="rgba(192,192,192,0.0001)" stroke-width="22"></path></g><g class="highcharts-markers highcharts-series-0 highcharts-line-series highcharts-tracker" data-z-index="0.1" opacity="1" transform="translate(64,166) scale(1 1)" clip-path="none"></g><g class="highcharts-series highcharts-series-1 highcharts-line-series" data-z-index="0.1" opacity="1" transform="translate(64,166) scale(1 1)" clip-path="url(#highcharts-mpxif76-52-)"><path fill="none" d="M 6.7435897435897 68.2718 L 20.230769230769 65.1875 L 33.717948717949 64.7554 L 47.205128205128 63.8018 L 60.692307692308 61.8201 L 74.179487179487 60.4344 L 87.666666666667 57.7524 L 101.15384615385 57.1564 L 114.64102564103 55.7856 L 128.12820512821 54.9214 L 141.61538461538 54.3999 L 155.10256410256 55.1747 L 168.58974358974 54.9214 L 182.07692307692 51.9414 L 195.5641025641 50.8388 L 209.05128205128 51.8222 L 222.53846153846 51.5093 L 236.02564102564 49.468 L 249.51282051282 47.978 L 263 47.7843 L 276.48717948718 49.319 L 289.97435897436 45.296 L 303.46153846154 44.402 L 316.94871794872 42.4352 L 330.4358974359 42.7034 L 343.92307692308 39.4105 L 357.41025641026 34.717 L 370.89743589744 32.8545 L 384.38461538462 33.3611 L 397.87179487179 31.588 L 411.35897435897 29.8298 L 424.84615384615 29.3977 L 438.33333333333 27.8779 L 451.82051282051 27.5203 L 465.30769230769 25.5535 L 478.79487179487 23.989 L 492.28205128205 22.8566 L 505.76923076923 22.0222 L 519.25641025641 14.9298" class="highcharts-graph" data-z-index="1" stroke="#FF8028" stroke-width="2" stroke-linejoin="round" stroke-linecap="round" filter="none"></path><path fill="none" d="M 6.7435897435897 68.2718 L 20.230769230769 65.1875 L 33.717948717949 64.7554 L 47.205128205128 63.8018 L 60.692307692308 61.8201 L 74.179487179487 60.4344 L 87.666666666667 57.7524 L 101.15384615385 57.1564 L 114.64102564103 55.7856 L 128.12820512821 54.9214 L 141.61538461538 54.3999 L 155.10256410256 55.1747 L 168.58974358974 54.9214 L 182.07692307692 51.9414 L 195.5641025641 50.8388 L 209.05128205128 51.8222 L 222.53846153846 51.5093 L 236.02564102564 49.468 L 249.51282051282 47.978 L 263 47.7843 L 276.48717948718 49.319 L 289.97435897436 45.296 L 303.46153846154 44.402 L 316.94871794872 42.4352 L 330.4358974359 42.7034 L 343.92307692308 39.4105 L 357.41025641026 34.717 L 370.89743589744 32.8545 L 384.38461538462 33.3611 L 397.87179487179 31.588 L 411.35897435897 29.8298 L 424.84615384615 29.3977 L 438.33333333333 27.8779 L 451.82051282051 27.5203 L 465.30769230769 25.5535 L 478.79487179487 23.989 L 492.28205128205 22.8566 L 505.76923076923 22.0222 L 519.25641025641 14.9298" data-z-index="2" class="highcharts-tracker-line" stroke-linecap="round" stroke-linejoin="round" stroke="rgba(192,192,192,0.0001)" stroke-width="22"></path></g><g class="highcharts-markers highcharts-series-1 highcharts-line-series highcharts-tracker" data-z-index="0.1" opacity="1" transform="translate(64,166) scale(1 1)" clip-path="none"></g><g class="highcharts-series highcharts-series-2 highcharts-line-series" data-z-index="0.1" opacity="1" transform="translate(64,166) scale(1 1)" clip-path="url(#highcharts-mpxif76-52-)"><path fill="none" d="M 6.7435897435897 119.796 L 20.230769230769 118.5444 L 33.717948717949 118.2613 L 47.205128205128 117.6653 L 60.692307692308 118.2613 L 74.179487179487 117.0097 L 87.666666666667 113.8509 L 101.15384615385 115.0131 L 114.64102564103 114.7151 L 128.12820512821 114.0446 L 141.61538461538 113.8062 L 155.10256410256 113.2996 L 168.58974358974 112.9867 L 182.07692307692 112.644 L 195.5641025641 113.091 L 209.05128205128 110.7219 L 222.53846153846 111.6904 L 236.02564102564 112.0033 L 249.51282051282 110.5431 L 263 110.7964 L 276.48717948718 111.2881 L 289.97435897436 111.9586 L 303.46153846154 110.9305 L 316.94871794872 110.2153 L 330.4358974359 109.3511 L 343.92307692308 108.6657 L 357.41025641026 109.0382 L 370.89743589744 108.1442 L 384.38461538462 108.2187 L 397.87179487179 106.4754 L 411.35897435897 104.6576 L 424.84615384615 105.9092 L 438.33333333333 105.7006 L 451.82051282051 104.3149 L 465.30769230769 103.7934 L 478.79487179487 103.3762 L 492.28205128205 103.5401 L 505.76923076923 101.7968 L 519.25641025641 101.7223" class="highcharts-graph" data-z-index="1" stroke="#DC440E" stroke-width="2" stroke-linejoin="round" stroke-linecap="round" filter="none"></path><path fill="none" d="M 6.7435897435897 119.796 L 20.230769230769 118.5444 L 33.717948717949 118.2613 L 47.205128205128 117.6653 L 60.692307692308 118.2613 L 74.179487179487 117.0097 L 87.666666666667 113.8509 L 101.15384615385 115.0131 L 114.64102564103 114.7151 L 128.12820512821 114.0446 L 141.61538461538 113.8062 L 155.10256410256 113.2996 L 168.58974358974 112.9867 L 182.07692307692 112.644 L 195.5641025641 113.091 L 209.05128205128 110.7219 L 222.53846153846 111.6904 L 236.02564102564 112.0033 L 249.51282051282 110.5431 L 263 110.7964 L 276.48717948718 111.2881 L 289.97435897436 111.9586 L 303.46153846154 110.9305 L 316.94871794872 110.2153 L 330.4358974359 109.3511 L 343.92307692308 108.6657 L 357.41025641026 109.0382 L 370.89743589744 108.1442 L 384.38461538462 108.2187 L 397.87179487179 106.4754 L 411.35897435897 104.6576 L 424.84615384615 105.9092 L 438.33333333333 105.7006 L 451.82051282051 104.3149 L 465.30769230769 103.7934 L 478.79487179487 103.3762 L 492.28205128205 103.5401 L 505.76923076923 101.7968 L 519.25641025641 101.7223" data-z-index="2" class="highcharts-tracker-line" stroke-linecap="round" stroke-linejoin="round" stroke="rgba(192,192,192,0.0001)" stroke-width="22"></path></g><g class="highcharts-markers highcharts-series-2 highcharts-line-series highcharts-tracker" data-z-index="0.1" opacity="1" transform="translate(64,166) scale(1 1)" clip-path="none"></g><g class="highcharts-series highcharts-series-3 highcharts-line-series" data-z-index="0.1" opacity="1" transform="translate(64,166) scale(1 1)" clip-path="url(#highcharts-mpxif76-52-)"><path fill="none" d="M 6.7435897435897 121.1966 L 20.230769230769 117.2332 L 33.717948717949 116.2051 L 47.205128205128 118.8126 L 60.692307692308 122.1055 L 74.179487179487 118.5742 L 87.666666666667 116.6074 L 101.15384615385 117.859 L 114.64102564103 120.6602 L 128.12820512821 118.1123 L 141.61538461538 117.7249 L 155.10256410256 122.4333 L 168.58974358974 123.6551 L 182.07692307692 120.6155 L 195.5641025641 116.7564 L 209.05128205128 119.3043 L 222.53846153846 121.0923 L 236.02564102564 120.6304 L 249.51282051282 120.8688 L 263 122.2694 L 276.48717948718 124.6832 L 289.97435897436 122.1651 L 303.46153846154 120.5261 L 316.94871794872 121.6883 L 330.4358974359 123.8339 L 343.92307692308 122.4929 L 357.41025641026 122.2545 L 370.89743589744 125.3835 L 384.38461538462 126.5457 L 397.87179487179 125.2941 L 411.35897435897 125.8454 L 424.84615384615 128.4827 L 438.33333333333 124.8471 L 451.82051282051 125.2345 L 465.30769230769 124.7875 L 478.79487179487 126.054 L 492.28205128205 127.1715 L 505.76923076923 127.6185 L 519.25641025641 126.2924" class="highcharts-graph" data-z-index="1" stroke="#B00000" stroke-width="2" stroke-linejoin="round" stroke-linecap="round" filter="none"></path><path fill="none" d="M 6.7435897435897 121.1966 L 20.230769230769 117.2332 L 33.717948717949 116.2051 L 47.205128205128 118.8126 L 60.692307692308 122.1055 L 74.179487179487 118.5742 L 87.666666666667 116.6074 L 101.15384615385 117.859 L 114.64102564103 120.6602 L 128.12820512821 118.1123 L 141.61538461538 117.7249 L 155.10256410256 122.4333 L 168.58974358974 123.6551 L 182.07692307692 120.6155 L 195.5641025641 116.7564 L 209.05128205128 119.3043 L 222.53846153846 121.0923 L 236.02564102564 120.6304 L 249.51282051282 120.8688 L 263 122.2694 L 276.48717948718 124.6832 L 289.97435897436 122.1651 L 303.46153846154 120.5261 L 316.94871794872 121.6883 L 330.4358974359 123.8339 L 343.92307692308 122.4929 L 357.41025641026 122.2545 L 370.89743589744 125.3835 L 384.38461538462 126.5457 L 397.87179487179 125.2941 L 411.35897435897 125.8454 L 424.84615384615 128.4827 L 438.33333333333 124.8471 L 451.82051282051 125.2345 L 465.30769230769 124.7875 L 478.79487179487 126.054 L 492.28205128205 127.1715 L 505.76923076923 127.6185 L 519.25641025641 126.2924" data-z-index="2" class="highcharts-tracker-line" stroke-linecap="round" stroke-linejoin="round" stroke="rgba(192,192,192,0.0001)" stroke-width="22"></path></g><g class="highcharts-markers highcharts-series-3 highcharts-line-series highcharts-tracker" data-z-index="0.1" opacity="1" transform="translate(64,166) scale(1 1)" clip-path="none"></g></g><text x="10" text-anchor="start" class="highcharts-caption" data-z-index="4" style="font-size: 0.8em; fill: rgb(102, 102, 102);" text-align="left" y="357" transform-origin="10 15" transform="translate(0,0) scale(1 1)"></text><g class="highcharts-legend highcharts-no-tooltip" data-z-index="7" text-align="left" transform="translate(10,55)"><rect fill="none" class="highcharts-legend-box" rx="0" ry="0" stroke="#999999" stroke-width="0" filter="none" x="0" y="0" width="320" height="99"></rect><g data-z-index="1"><g><g class="highcharts-legend-item highcharts-line-series highcharts-color-undefined highcharts-series-0" data-z-index="1" transform="translate(8,3)"><path fill="none" class="highcharts-graph" stroke-width="2" stroke-linecap="round" d="M 1 13 L 15 13" stroke="#FFBB58"></path><text x="21" text-anchor="start" data-z-index="2" style="cursor: pointer; font-size: 0.8em; text-decoration: none; font-weight: normal; fill: rgb(51, 51, 51);" y="17">Finanz-, Versicherungs-DL</text></g><g class="highcharts-legend-item highcharts-line-series highcharts-color-undefined highcharts-series-1" data-z-index="1" transform="translate(8,25)"><path fill="none" class="highcharts-graph" stroke-width="2" stroke-linecap="round" d="M 1 13 L 15 13" stroke="#FF8028"></path><text x="21" y="17" text-anchor="start" data-z-index="2" style="cursor: pointer; font-size: 0.8em; text-decoration: none; font-weight: normal; fill: rgb(51, 51, 51);">Beratung, Planung, Forschung, Immobilien</text></g><g class="highcharts-legend-item highcharts-line-series highcharts-color-undefined highcharts-series-2" data-z-index="1" transform="translate(8,47)"><path fill="none" class="highcharts-graph" stroke-width="2" stroke-linecap="round" d="M 1 13 L 15 13" stroke="#DC440E"></path><text x="21" y="17" text-anchor="start" data-z-index="2" style="cursor: pointer; font-size: 0.8em; text-decoration: none; font-weight: normal; fill: rgb(51, 51, 51);">Gebäudebetreuung, Sicherheit, sonst. wirtsch. DL</text></g><g class="highcharts-legend-item highcharts-line-series highcharts-color-undefined highcharts-series-3" data-z-index="1" transform="translate(8,69)"><path fill="none" class="highcharts-graph" stroke-width="2" stroke-linecap="round" d="M 1 13 L 15 13" stroke="#B00000"></path><text x="21" y="17" text-anchor="start" data-z-index="2" style="cursor: pointer; font-size: 0.8em; text-decoration: none; font-weight: normal; fill: rgb(51, 51, 51);">Personalvermittlung, -überlassung</text></g></g></g></g><g class="highcharts-axis-labels highcharts-xaxis-labels" data-z-index="7"><text x="70.74358974359" text-anchor="middle" transform="translate(0,0)" style="cursor: default; font-size: 0.8em; fill: rgb(0, 0, 0);" y="342" opacity="1">2016</text><text x="124.69230769231" text-anchor="middle" transform="translate(0,0)" style="cursor: default; font-size: 0.8em; fill: rgb(0, 0, 0);" y="342" opacity="1">2017</text><text x="178.64102564103" text-anchor="middle" transform="translate(0,0)" style="cursor: default; font-size: 0.8em; fill: rgb(0, 0, 0);" y="342" opacity="1">2018</text><text x="232.58974358974" text-anchor="middle" transform="translate(0,0)" style="cursor: default; font-size: 0.8em; fill: rgb(0, 0, 0);" y="342" opacity="1">2019</text><text x="286.53846153846" text-anchor="middle" transform="translate(0,0)" style="cursor: default; font-size: 0.8em; fill: rgb(0, 0, 0);" y="342" opacity="1">2020</text><text x="340.48717948718" text-anchor="middle" transform="translate(0,0)" style="cursor: default; font-size: 0.8em; fill: rgb(0, 0, 0);" y="342" opacity="1">2021</text><text x="394.4358974359" text-anchor="middle" transform="translate(0,0)" style="cursor: default; font-size: 0.8em; fill: rgb(0, 0, 0);" y="342" opacity="1">2022</text><text x="448.38461538462" text-anchor="middle" transform="translate(0,0)" style="cursor: default; font-size: 0.8em; fill: rgb(0, 0, 0);" y="342" opacity="1">2023</text><text x="502.33333333333" text-anchor="middle" transform="translate(0,0)" style="cursor: default; font-size: 0.8em; fill: rgb(0, 0, 0);" y="342" opacity="1">2024</text><text x="556.28205128205" text-anchor="middle" transform="translate(0,0)" style="cursor: default; font-size: 0.8em; fill: rgb(0, 0, 0);" y="342" opacity="1">2025</text></g><g class="highcharts-axis-labels highcharts-yaxis-labels" data-z-index="7"><text x="49" text-anchor="end" transform="translate(0,0)" style="cursor: default; font-size: 0.8em; fill: rgb(0, 0, 0);" y="320" opacity="1">0</text><text x="49" text-anchor="end" transform="translate(0,0)" style="cursor: default; font-size: 0.8em; fill: rgb(0, 0, 0);" y="245" opacity="1">5,000</text><text x="49" text-anchor="end" transform="translate(0,0)" style="cursor: default; font-size: 0.8em; fill: rgb(0, 0, 0);" y="171" opacity="1">10,000</text></g></svg>