<?xml version="1.0" standalone="no"?>
<!DOCTYPE svg PUBLIC "-//W3C//DTD SVG 1.1//EN" "http://www.w3.org/Graphics/SVG/1.1/DTD/svg11.dtd">
<svg xmlns:xlink="http://www.w3.org/1999/xlink" version="1.1" class="highcharts-root" style="font-family:arial;font-size:12px;" xmlns="http://www.w3.org/2000/svg" viewBox="0 0 485 415">
  <desc>
    Created with Highstock 5.0.14
  </desc>
  <defs>
    <clipPath>
      <rect x="0" y="0" width="478" height="275" fill="none"/>
    </clipPath>
    <clipPath id="a">
      <rect x="0" y="0" width="478" height="275" fill="none"/>
    </clipPath>
  </defs>
  <rect fill="#fbfbfb" class="highcharts-background" x="0" y="0" width="485" height="650" rx="0" ry="0"/>
  <rect fill="none" class="highcharts-plot-background" x="200" y="102" width="275" height="478"/>
  <g class="highcharts-pane-group"/>
  <g class="highcharts-grid highcharts-xaxis-grid ">
    <path fill="none" class="highcharts-grid-line" d="M 200 134.5 L 475 134.5" opacity="1"/>
    <path fill="none" class="highcharts-grid-line" d="M 200 166.5 L 475 166.5" opacity="1"/>
    <path fill="none" class="highcharts-grid-line" d="M 200 198.5 L 475 198.5" opacity="1"/>
    <path fill="none" class="highcharts-grid-line" d="M 200 229.5 L 475 229.5" opacity="1"/>
    <path fill="none" class="highcharts-grid-line" d="M 200 261.5 L 475 261.5" opacity="1"/>
    <path fill="none" class="highcharts-grid-line" d="M 200 293.5 L 475 293.5" opacity="1"/>
    <path fill="none" class="highcharts-grid-line" d="M 200 325.5 L 475 325.5" opacity="1"/>
    <path fill="none" class="highcharts-grid-line" d="M 200 357.5 L 475 357.5" opacity="1"/>
    <path fill="none" class="highcharts-grid-line" d="M 200 389.5 L 475 389.5" opacity="1"/>
    <path fill="none" class="highcharts-grid-line" d="M 200 421.5 L 475 421.5" opacity="1"/>
    <path fill="none" class="highcharts-grid-line" d="M 200 453.5 L 475 453.5" opacity="1"/>
    <path fill="none" class="highcharts-grid-line" d="M 200 484.5 L 475 484.5" opacity="1"/>
    <path fill="none" class="highcharts-grid-line" d="M 200 516.5 L 475 516.5" opacity="1"/>
    <path fill="none" class="highcharts-grid-line" d="M 200 548.5 L 475 548.5" opacity="1"/>
    <path fill="none" class="highcharts-grid-line" d="M 200 580.5 L 475 580.5" opacity="1"/>
    <path fill="none" class="highcharts-grid-line" d="M 200 102.5 L 475 102.5" opacity="1"/>
  </g>
  <g class="highcharts-grid highcharts-yaxis-grid ">
    <path fill="none" stroke="#B9CFD7" stroke-width="0.5" class="highcharts-grid-line" d="M 199.75 102 L 199.75 580" opacity="1"/>
    <path fill="none" stroke="#B9CFD7" stroke-width="0.5" class="highcharts-grid-line" d="M 268.75 102 L 268.75 580" opacity="1"/>
    <path fill="none" stroke="#B9CFD7" stroke-width="0.5" class="highcharts-grid-line" d="M 337.75 102 L 337.75 580" opacity="1"/>
    <path fill="none" stroke="#B9CFD7" stroke-width="0.5" class="highcharts-grid-line" d="M 405.75 102 L 405.75 580" opacity="1"/>
    <path fill="none" stroke="#B9CFD7" stroke-width="0.5" class="highcharts-grid-line" d="M 475.25 102 L 475.25 580" opacity="1"/>
  </g>
  <rect fill="none" class="highcharts-plot-border" x="200" y="102" width="275" height="478"/>
  <g class="highcharts-axis highcharts-xaxis ">
    <path fill="none" class="highcharts-axis-line" stroke="#B9CFD7" stroke-width="0.5" d="M 199.75 102 L 199.75 580"/>
  </g>
  <g class="highcharts-axis highcharts-yaxis ">
    <path fill="none" class="highcharts-axis-line" d="M 200 580 L 475 580"/>
  </g>
  <g class="highcharts-series-group">
    <g class="highcharts-series highcharts-series-0 highcharts-column-series highcharts-color-undefined " transform="translate(475,580) rotate(90) scale(-1,1) scale(1 1)" clip-path="url(#a)">
      <rect x="465" y="235" width="7" height="41" fill="#E7CEE2" class="highcharts-point"/>
      <rect x="433" y="32" width="7" height="244" fill="#E7CEE2" class="highcharts-point"/>
      <rect x="402" y="259" width="6" height="17" fill="#E7CEE2" class="highcharts-point"/>
      <rect x="370" y="269" width="6" height="7" fill="#E7CEE2" class="highcharts-point"/>
      <rect x="338" y="231" width="6" height="45" fill="#E7CEE2" class="highcharts-point"/>
      <rect x="306" y="173" width="6" height="103" fill="#E7CEE2" class="highcharts-point"/>
      <rect x="274" y="273" width="6" height="3" fill="#E7CEE2" class="highcharts-point"/>
      <rect x="242" y="252" width="7" height="24" fill="#E7CEE2" class="highcharts-point"/>
      <rect x="210" y="221" width="7" height="55" fill="#E7CEE2" class="highcharts-point"/>
      <rect x="178" y="56" width="7" height="220" fill="#E7CEE2" class="highcharts-point"/>
      <rect x="147" y="269" width="6" height="7" fill="#E7CEE2" class="highcharts-point"/>
      <rect x="115" y="273" width="6" height="3" fill="#E7CEE2" class="highcharts-point"/>
      <rect x="83" y="262" width="6" height="14" fill="#E7CEE2" class="highcharts-point"/>
      <rect x="51" y="194" width="6" height="82" fill="#E7CEE2" class="highcharts-point"/>
      <rect x="19" y="228" width="6" height="48" fill="#E7CEE2" class="highcharts-point"/>
    </g>
    <g class="highcharts-markers highcharts-series-0 highcharts-column-series highcharts-color-undefined " transform="translate(475,580) rotate(90) scale(-1,1) scale(1 1)" clip-path="none"/>
    <g class="highcharts-series highcharts-series-1 highcharts-column-series highcharts-color-undefined " transform="translate(475,580) rotate(90) scale(-1,1) scale(1 1)" clip-path="url(#a)">
      <rect x="459" y="242" width="6" height="34" fill="#B375AB" class="highcharts-point"/>
      <rect x="427" y="32" width="6" height="244" fill="#B375AB" class="highcharts-point"/>
      <rect x="395" y="255" width="7" height="21" fill="#B375AB" class="highcharts-point"/>
      <rect x="363" y="273" width="7" height="3" fill="#B375AB" class="highcharts-point"/>
      <rect x="331" y="228" width="7" height="48" fill="#B375AB" class="highcharts-point"/>
      <rect x="300" y="187" width="6" height="89" fill="#B375AB" class="highcharts-point"/>
      <rect x="268" y="273" width="6" height="3" fill="#B375AB" class="highcharts-point"/>
      <rect x="236" y="255" width="6" height="21" fill="#B375AB" class="highcharts-point"/>
      <rect x="204" y="221" width="6" height="55" fill="#B375AB" class="highcharts-point"/>
      <rect x="172" y="101" width="6" height="175" fill="#B375AB" class="highcharts-point"/>
      <rect x="140" y="266" width="7" height="10" fill="#B375AB" class="highcharts-point"/>
      <rect x="108" y="269" width="7" height="7" fill="#B375AB" class="highcharts-point"/>
      <rect x="76" y="262" width="7" height="14" fill="#B375AB" class="highcharts-point"/>
      <rect x="45" y="169" width="6" height="107" fill="#B375AB" class="highcharts-point"/>
      <rect x="13" y="231" width="6" height="45" fill="#B375AB" class="highcharts-point"/>
    </g>
    <g class="highcharts-markers highcharts-series-1 highcharts-column-series highcharts-color-undefined " transform="translate(475,580) rotate(90) scale(-1,1) scale(1 1)" clip-path="none"/>
    <g class="highcharts-series highcharts-series-2 highcharts-column-series highcharts-color-undefined " transform="translate(475,580) rotate(90) scale(-1,1) scale(1 1)" clip-path="url(#a)">
      <rect x="453" y="245" width="6" height="31" fill="#662673" class="highcharts-point"/>
      <rect x="421" y="46" width="6" height="230" fill="#662673" class="highcharts-point"/>
      <rect x="389" y="259" width="6" height="17" fill="#662673" class="highcharts-point"/>
      <rect x="357" y="273" width="6" height="3" fill="#662673" class="highcharts-point"/>
      <rect x="325" y="221" width="6" height="55" fill="#662673" class="highcharts-point"/>
      <rect x="293" y="190" width="7" height="86" fill="#662673" class="highcharts-point"/>
      <rect x="261" y="276" width="7" height="0" fill="#662673" class="highcharts-point"/>
      <rect x="229" y="259" width="7" height="17" fill="#662673" class="highcharts-point"/>
      <rect x="198" y="224" width="6" height="52" fill="#662673" class="highcharts-point"/>
      <rect x="166" y="63" width="6" height="213" fill="#662673" class="highcharts-point"/>
      <rect x="134" y="262" width="6" height="14" fill="#662673" class="highcharts-point"/>
      <rect x="102" y="269" width="6" height="7" fill="#662673" class="highcharts-point"/>
      <rect x="70" y="262" width="6" height="14" fill="#662673" class="highcharts-point"/>
      <rect x="38" y="159" width="7" height="117" fill="#662673" class="highcharts-point"/>
      <rect x="6" y="231" width="7" height="45" fill="#662673" class="highcharts-point"/>
    </g>
    <g class="highcharts-markers highcharts-series-2 highcharts-column-series highcharts-color-undefined " transform="translate(475,580) rotate(90) scale(-1,1) scale(1 1)" clip-path="none"/>
  </g>
  <text x="10" text-anchor="start" class="highcharts-title" style="color:#000000;font-size:14px;font-weight:bold;fill:#000000;" y="21">
    <tspan>Meldepflichtige pro Beschäftigten nach Branche</tspan>
  </text>
  <text x="10" text-anchor="start" class="highcharts-subtitle" style="color:#000000;font-size:12px;font-weight:normal;font-family:arial;fill:#000000;" y="40">
    <tspan>Basel-Stadt, pro Beschäftigten in Vollzeitäquivalenten</tspan>
  </text>
  <g class="highcharts-legend" transform="translate(192,65)">
    <rect fill="none" class="highcharts-legend-box" rx="0" ry="0" x="0" y="0" width="206" height="25" visibility="visible"/>
    <g>
      <g>
        <g class="highcharts-legend-item highcharts-column-series highcharts-color-undefined highcharts-series-0" transform="translate(8,3)">
          <text x="21" style="color:#333333;font-size:12px;font-weight:normal;cursor:pointer;fill:#333333;" text-anchor="start" y="15">
            <tspan>2015</tspan>
          </text>
          <rect x="2" y="4" width="12" height="12" fill="#E7CEE2" class="highcharts-point"/>
        </g>
        <g class="highcharts-legend-item highcharts-column-series highcharts-color-undefined highcharts-series-1" transform="translate(78,3)">
          <text x="21" y="15" style="color:#333333;font-size:12px;font-weight:normal;cursor:pointer;fill:#333333;" text-anchor="start">
            <tspan>2016</tspan>
          </text>
          <rect x="2" y="4" width="12" height="12" fill="#B375AB" class="highcharts-point"/>
        </g>
        <g class="highcharts-legend-item highcharts-column-series highcharts-color-undefined highcharts-series-2" transform="translate(148,3)">
          <text x="21" y="15" style="color:#333333;font-size:12px;font-weight:normal;cursor:pointer;fill:#333333;" text-anchor="start">
            <tspan>2017</tspan>
          </text>
          <rect x="2" y="4" width="12" height="12" fill="#662673" class="highcharts-point"/>
        </g>
      </g>
    </g>
  </g>
  <g class="highcharts-axis-labels highcharts-xaxis-labels ">
    <text x="20" style="color:#000000;cursor:default;font-size:11px;fill:#000000;" text-anchor="start" transform="translate(0,0)" y="122" opacity="1">
      <tspan>Industrie (inkl. Chemie, Pharma)</tspan>
    </text>
    <text x="20" style="color:#000000;cursor:default;font-size:11px;fill:#000000;" text-anchor="start" transform="translate(0,0)" y="154" opacity="1">
      <tspan>Baugewerbe</tspan>
    </text>
    <text x="20" style="color:#000000;cursor:default;font-size:11px;fill:#000000;" text-anchor="start" transform="translate(0,0)" y="186" opacity="1">
      <tspan>Handel, Reparatur</tspan>
    </text>
    <text x="20" style="color:#000000;cursor:default;font-size:11px;fill:#000000;" text-anchor="start" transform="translate(0,0)" y="218" opacity="1">
      <tspan>Verkehr, Lagerei, Kommunikation</tspan>
    </text>
    <text x="20" style="color:#000000;cursor:default;font-size:11px;fill:#000000;" text-anchor="start" transform="translate(0,0)" y="250" opacity="1">
      <tspan>Gastgewerbe</tspan>
    </text>
    <text x="20" style="color:#000000;cursor:default;font-size:11px;fill:#000000;" text-anchor="start" transform="translate(0,0)" y="282" opacity="1">
      <tspan>IT-Dienstleistungen</tspan>
    </text>
    <text x="20" style="color:#000000;cursor:default;font-size:11px;fill:#000000;" text-anchor="start" transform="translate(0,0)" y="314" opacity="1">
      <tspan>Finanz-, Versicherungs-DL</tspan>
    </text>
    <text x="20" style="color:#000000;cursor:default;font-size:11px;fill:#000000;" text-anchor="start" transform="translate(0,0)" y="339" opacity="1">
      <tspan>Beratung, Planung, Forschung,</tspan><tspan dy="14" x="20">Immobilien</tspan><title>Beratung, Planung, Forschung, Immobilien</title>
    </text>
    <text x="20" style="color:#000000;cursor:default;font-size:11px;fill:#000000;" text-anchor="start" transform="translate(0,0)" y="370" opacity="1">
      <tspan>Gebäudebetreuung, Sicherheit,</tspan><tspan dy="14" x="20">sonst. wirtsch. DL</tspan><title>Gebäudebetreuung, Sicherheit, sonst. wirtsch. DL</title>
    </text>
    <text x="20" style="color:#000000;cursor:default;font-size:11px;fill:#000000;" text-anchor="start" transform="translate(0,0)" y="409" opacity="1">
      <tspan>Personalvermittlung, -überlassung</tspan>
    </text>
    <text x="20" style="color:#000000;cursor:default;font-size:11px;fill:#000000;" text-anchor="start" transform="translate(0,0)" y="434" opacity="1">
      <tspan>Öffentliche Verwaltung,</tspan><tspan dy="14" x="20">Sozialversicherungen</tspan><title>Öffentliche Verwaltung, Sozialversicherungen</title>
    </text>
    <text x="20" style="color:#000000;cursor:default;font-size:11px;fill:#000000;" text-anchor="start" transform="translate(0,0)" y="473" opacity="1">
      <tspan>Erziehung, Unterricht</tspan>
    </text>
    <text x="20" style="color:#000000;cursor:default;font-size:11px;fill:#000000;" text-anchor="start" transform="translate(0,0)" y="505" opacity="1">
      <tspan>Gesundheits-, Sozialwesen</tspan>
    </text>
    <text x="20" style="color:#000000;cursor:default;font-size:11px;fill:#000000;" text-anchor="start" transform="translate(0,0)" y="537" opacity="1">
      <tspan>Kultur, Unterhaltung, pers. DL</tspan>
    </text>
    <text x="20" style="color:#000000;cursor:default;font-size:11px;fill:#000000;" text-anchor="start" transform="translate(0,0)" y="569" opacity="1">
      <tspan>Total</tspan>
    </text>
  </g>
  <g class="highcharts-axis-labels highcharts-yaxis-labels ">
    <text x="200" style="color:#000000;cursor:default;font-size:11px;fill:#000000;" text-anchor="middle" transform="translate(0,0)" y="599" opacity="1">
      0%
    </text>
    <text x="268.75" style="color:#000000;cursor:default;font-size:11px;fill:#000000;" text-anchor="middle" transform="translate(0,0)" y="599" opacity="1">
      2%
    </text>
    <text x="337.5" style="color:#000000;cursor:default;font-size:11px;fill:#000000;" text-anchor="middle" transform="translate(0,0)" y="599" opacity="1">
      4%
    </text>
    <text x="406.25" style="color:#000000;cursor:default;font-size:11px;fill:#000000;" text-anchor="middle" transform="translate(0,0)" y="599" opacity="1">
      6%
    </text>
    <text x="467.0625" style="color:#000000;cursor:default;font-size:11px;fill:#000000;" text-anchor="middle" transform="translate(0,0)" y="599" opacity="1">
      8%
    </text>
  </g>
  <text x="10" class="highcharts-credits" text-anchor="start" style="cursor:default;color:#000000;font-size:10px;fill:#000000;" y="635">
    <tspan>Quelle: Staatssekretariat für Migration (SEM), Zentrales Migrationssystem (ZEMIS)</tspan>
  </text>
</svg>
