<?xml version="1.0" standalone="no"?><!DOCTYPE svg PUBLIC "-//W3C//DTD SVG 1.1//EN" "http://www.w3.org/Graphics/SVG/1.1/DTD/svg11.dtd"><svg xmlns:xlink="http://www.w3.org/1999/xlink" version="1.1" class="highcharts-root" style="font-family:Arial;font-size:12px;" xmlns="http://www.w3.org/2000/svg" viewBox="0 0 485 415"><desc>Created with Highstock 6.1.0</desc><defs><clipPath id="highcharts-fxyaet9-6"><rect x="0" y="0" width="434" height="228" fill="none"></rect></clipPath><clipPath id="highcharts-fxyaet9-7"><rect x="0" y="0" width="434" height="228" fill="none"></rect></clipPath></defs><rect fill="#fbfbfb" class="highcharts-background" x="0" y="0" width="485" height="428" rx="0" ry="0"></rect><rect fill="none" class="highcharts-plot-background" x="41" y="124" width="434" height="228"></rect><g class="highcharts-pane-group"></g><g class="highcharts-grid highcharts-xaxis-grid "><path fill="none" class="highcharts-grid-line" d="M 44.5 124 L 44.5 352" opacity="1"></path><path fill="none" class="highcharts-grid-line" d="M 115.5 124 L 115.5 352" opacity="1"></path><path fill="none" class="highcharts-grid-line" d="M 186.5 124 L 186.5 352" opacity="1"></path><path fill="none" class="highcharts-grid-line" d="M 257.5 124 L 257.5 352" opacity="1"></path><path fill="none" class="highcharts-grid-line" d="M 328.5 124 L 328.5 352" opacity="1"></path><path fill="none" class="highcharts-grid-line" d="M 399.5 124 L 399.5 352" opacity="1"></path><path fill="none" class="highcharts-grid-line" d="M 470.5 124 L 470.5 352" opacity="1"></path></g><g class="highcharts-grid highcharts-yaxis-grid "><path fill="none" stroke="#B9CFD7" stroke-width="0.5" class="highcharts-grid-line" d="M 41 352.25 L 475 352.25" opacity="1"></path><path fill="none" stroke="#B9CFD7" stroke-width="0.5" class="highcharts-grid-line" d="M 41 306.25 L 475 306.25" opacity="1"></path><path fill="none" stroke="#B9CFD7" stroke-width="0.5" class="highcharts-grid-line" d="M 41 261.25 L 475 261.25" opacity="1"></path><path fill="none" stroke="#B9CFD7" stroke-width="0.5" class="highcharts-grid-line" d="M 41 215.25 L 475 215.25" opacity="1"></path><path fill="none" stroke="#B9CFD7" stroke-width="0.5" class="highcharts-grid-line" d="M 41 170.25 L 475 170.25" opacity="1"></path><path fill="none" stroke="#B9CFD7" stroke-width="0.5" class="highcharts-grid-line" d="M 41 123.75 L 475 123.75" opacity="1"></path></g><rect fill="none" class="highcharts-plot-border" x="41" y="124" width="434" height="228"></rect><g class="highcharts-axis highcharts-xaxis "><path fill="none" class="highcharts-axis-line" stroke="#B9CFD7" stroke-width="0.5" d="M 41 352.25 L 475 352.25"></path></g><g class="highcharts-axis highcharts-yaxis "><path fill="none" class="highcharts-axis-line" d="M 41 124 L 41 352"></path></g><g class="highcharts-series-group"><g class="highcharts-series highcharts-series-0 highcharts-line-series " transform="translate(41,124) scale(1 1)" clip-path="url(#highcharts-fxyaet9-7)"><path fill="none" d="M 75.16993464052 191.064 L 146.08496732026 184.224 L 217 180.576 L 287.91503267974 177.384 L 358.83006535948 174.192 L 429.74509803922 168.72" class="highcharts-graph" stroke="#b00000" stroke-width="2" stroke-linejoin="round" stroke-linecap="round"></path></g><g class="highcharts-markers highcharts-series-0 highcharts-line-series " transform="translate(41,124) scale(1 1)" clip-path="none"></g><g class="highcharts-series highcharts-series-1 highcharts-line-series " transform="translate(41,124) scale(1 1)" clip-path="url(#highcharts-fxyaet9-7)"><path fill="none" d="M 75.16993464052 109.44 L 146.08496732026 86.184 L 217 80.71199999999999 L 287.91503267974 67.03200000000001 L 358.83006535948 53.80799999999999 L 429.74509803922 43.77599999999998" class="highcharts-graph" stroke="#b475ab" stroke-width="2" stroke-linejoin="round" stroke-linecap="round"></path></g><g class="highcharts-markers highcharts-series-1 highcharts-line-series " transform="translate(41,124) scale(1 1)" clip-path="none"></g><g class="highcharts-series highcharts-series-2 highcharts-line-series " transform="translate(41,124) scale(1 1)" clip-path="url(#highcharts-fxyaet9-7)"><path fill="none" d="M 75.16993464052 97.12799999999999 L 146.08496732026 87.55199999999999 L 217 73.416 L 287.91503267974 67.03200000000001 L 358.83006535948 58.823999999999984 L 429.74509803922 61.103999999999985" class="highcharts-graph" stroke="#cd9c00" stroke-width="2" stroke-linejoin="round" stroke-linecap="round"></path></g><g class="highcharts-markers highcharts-series-2 highcharts-line-series " transform="translate(41,124) scale(1 1)" clip-path="none"></g><g class="highcharts-series highcharts-series-3 highcharts-line-series " transform="translate(41,124) scale(1 1)" clip-path="url(#highcharts-fxyaet9-7)"><path fill="none" d="M 4.2549019607805 173.28 L 75.16993464052 158.232 L 146.08496732026 148.2 L 217 141.36 L 287.91503267974 134.976 L 358.83006535948 128.59199999999998 L 429.74509803922 124.488" class="highcharts-graph" stroke="#083038" stroke-width="2" stroke-linejoin="round" stroke-linecap="round"></path></g><g class="highcharts-markers highcharts-series-3 highcharts-line-series " transform="translate(41,124) scale(1 1)" clip-path="none"></g></g><text x="10" text-anchor="start" class="highcharts-title" style="color:#000000;font-size:14px;font-weight:bold;fill:#000000;" y="21"><tspan>Familienmietzinsbeitragsquote nach Staatsangehörigkeit</tspan></text><text x="10" text-anchor="start" class="highcharts-subtitle" style="color:#000000;font-size:12px;font-weight:normal;font-family:Arial;fill:#000000;" y="40"><tspan>Basel-Stadt</tspan></text><g class="highcharts-legend" transform="translate(33,55)"><rect fill="none" class="highcharts-legend-box" rx="0" ry="0" x="0" y="0" width="356" height="49" visibility="visible"></rect><g><g><g class="highcharts-legend-item highcharts-line-series highcharts-color-undefined highcharts-series-0" transform="translate(8,3)"><path fill="none" d="M 0 11 L 16 11" class="highcharts-graph" stroke="#b00000" stroke-width="2"></path><text x="21" style="color:#333333;font-size:12px;font-weight:normal;cursor:pointer;fill:#333333;" text-anchor="start" y="15"><tspan>Schweiz</tspan></text></g><g class="highcharts-legend-item highcharts-line-series highcharts-color-undefined highcharts-series-1" transform="translate(188,3)"><path fill="none" d="M 0 11 L 16 11" class="highcharts-graph" stroke="#b475ab" stroke-width="2"></path><text x="21" y="15" style="color:#333333;font-size:12px;font-weight:normal;cursor:pointer;fill:#333333;" text-anchor="start"><tspan>Gemischte Haushalte</tspan></text></g><g class="highcharts-legend-item highcharts-line-series highcharts-color-undefined highcharts-series-2" transform="translate(8,22)"><path fill="none" d="M 0 11 L 16 11" class="highcharts-graph" stroke="#cd9c00" stroke-width="2"></path><text x="21" y="15" style="color:#333333;font-size:12px;font-weight:normal;cursor:pointer;fill:#333333;" text-anchor="start"><tspan>Ausland</tspan></text></g><g class="highcharts-legend-item highcharts-line-series highcharts-color-undefined highcharts-series-3" transform="translate(188,22)"><path fill="none" d="M 0 11 L 16 11" class="highcharts-graph" stroke="#083038" stroke-width="2"></path><text x="21" y="15" style="color:#333333;font-size:12px;font-weight:normal;cursor:pointer;fill:#333333;" text-anchor="start"><tspan>Total</tspan></text></g></g></g></g><g class="highcharts-axis-labels highcharts-xaxis-labels "><text x="45.254901960781" style="color:#000000;cursor:default;font-size:11px;fill:#000000;" text-anchor="middle" transform="translate(0,0)" y="371" opacity="1">2011</text><text x="116.16993464052" style="color:#000000;cursor:default;font-size:11px;fill:#000000;" text-anchor="middle" transform="translate(0,0)" y="371" opacity="1">2012</text><text x="187.08496732026" style="color:#000000;cursor:default;font-size:11px;fill:#000000;" text-anchor="middle" transform="translate(0,0)" y="371" opacity="1">2013</text><text x="258" style="color:#000000;cursor:default;font-size:11px;fill:#000000;" text-anchor="middle" transform="translate(0,0)" y="371" opacity="1">2014</text><text x="328.91503267974" style="color:#000000;cursor:default;font-size:11px;fill:#000000;" text-anchor="middle" transform="translate(0,0)" y="371" opacity="1">2015</text><text x="399.83006535948" style="color:#000000;cursor:default;font-size:11px;fill:#000000;" text-anchor="middle" transform="translate(0,0)" y="371" opacity="1">2016</text><text x="462.78125" style="color:#000000;cursor:default;font-size:11px;fill:#000000;" text-anchor="middle" transform="translate(0,0)" y="371" opacity="1">2017</text></g><g class="highcharts-axis-labels highcharts-yaxis-labels "><text x="26" style="color:#000000;cursor:default;font-size:11px;fill:#000000;" text-anchor="end" transform="translate(0,0)" y="357" opacity="1">0%</text><text x="26" style="color:#000000;cursor:default;font-size:11px;fill:#000000;" text-anchor="end" transform="translate(0,0)" y="311" opacity="1">1%</text><text x="26" style="color:#000000;cursor:default;font-size:11px;fill:#000000;" text-anchor="end" transform="translate(0,0)" y="265" opacity="1">2%</text><text x="26" style="color:#000000;cursor:default;font-size:11px;fill:#000000;" text-anchor="end" transform="translate(0,0)" y="220" opacity="1">3%</text><text x="26" style="color:#000000;cursor:default;font-size:11px;fill:#000000;" text-anchor="end" transform="translate(0,0)" y="174" opacity="1">4%</text><text x="26" style="color:#000000;cursor:default;font-size:11px;fill:#000000;" text-anchor="end" transform="translate(0,0)" y="129" opacity="1">5%</text></g><text x="10" class="highcharts-credits" text-anchor="start" style="cursor:default;color:#000000;font-size:10px;fill:#000000;" y="403"><tspan>Quelle: Statistisches Amt Basel-Stadt, Basler Informationssystem Sozialleistungen (BISS).</tspan><tspan x="10" dy="13">Zuletzt geändert: 2018-10-3</tspan></text></svg>