<?xml version="1.0" standalone="no"?>
<!DOCTYPE svg PUBLIC "-//W3C//DTD SVG 1.1//EN" "http://www.w3.org/Graphics/SVG/1.1/DTD/svg11.dtd">
<svg xmlns:xlink="http://www.w3.org/1999/xlink" version="1.1" class="highcharts-root" style="font-family:Arial;font-size:12px;" xmlns="http://www.w3.org/2000/svg" viewBox="0 0 485 415">
  <desc>
    Created with Highstock 6.1.0
  </desc>
  <defs>
    <clipPath>
      <rect x="0" y="0" width="432" height="223" fill="none"/>
    </clipPath>
    <clipPath id="a">
      <rect x="0" y="0" width="432" height="223" fill="none"/>
    </clipPath>
  </defs>
  <rect fill="#fbfbfb" class="highcharts-background" x="0" y="0" width="485" height="415" rx="0" ry="0"/>
  <rect fill="none" class="highcharts-plot-background" x="43" y="92" width="432" height="223"/>
  <g class="highcharts-pane-group"/>
  <g class="highcharts-grid highcharts-xaxis-grid ">
    <path fill="none" class="highcharts-grid-line" d="M 128.5 92 L 128.5 315" opacity="1"/>
    <path fill="none" class="highcharts-grid-line" d="M 215.5 92 L 215.5 315" opacity="1"/>
    <path fill="none" class="highcharts-grid-line" d="M 301.5 92 L 301.5 315" opacity="1"/>
    <path fill="none" class="highcharts-grid-line" d="M 388.5 92 L 388.5 315" opacity="1"/>
    <path fill="none" class="highcharts-grid-line" d="M 474.5 92 L 474.5 315" opacity="1"/>
    <path fill="none" class="highcharts-grid-line" d="M 42.5 92 L 42.5 315" opacity="1"/>
  </g>
  <g class="highcharts-grid highcharts-yaxis-grid ">
    <path fill="none" stroke="#B9CFD7" stroke-width="0.5" class="highcharts-grid-line" d="M 43 315.25 L 475 315.25" opacity="1"/>
    <path fill="none" stroke="#B9CFD7" stroke-width="0.5" class="highcharts-grid-line" d="M 43 259.25 L 475 259.25" opacity="1"/>
    <path fill="none" stroke="#B9CFD7" stroke-width="0.5" class="highcharts-grid-line" d="M 43 204.25 L 475 204.25" opacity="1"/>
    <path fill="none" stroke="#B9CFD7" stroke-width="0.5" class="highcharts-grid-line" d="M 43 148.25 L 475 148.25" opacity="1"/>
    <path fill="none" stroke="#B9CFD7" stroke-width="0.5" class="highcharts-grid-line" d="M 43 91.75 L 475 91.75" opacity="1"/>
  </g>
  <rect fill="none" class="highcharts-plot-border" x="43" y="92" width="432" height="223"/>
  <g class="highcharts-axis highcharts-xaxis ">
    <path fill="none" class="highcharts-axis-line" stroke="#B9CFD7" stroke-width="0.5" d="M 43 315.25 L 475 315.25"/>
  </g>
  <g class="highcharts-axis highcharts-yaxis ">
    <path fill="none" class="highcharts-axis-line" d="M 43 92 L 43 315"/>
  </g>
  <g class="highcharts-series-group">
    <g class="highcharts-series highcharts-series-0 highcharts-column-series " transform="translate(43,92) scale(1 1)" clip-path="url(#a)">
      <rect x="17" y="139" width="13" height="85" fill="#661200" class="highcharts-point"/>
      <rect x="104" y="179" width="13" height="45" fill="#661200" class="highcharts-point"/>
      <rect x="190" y="181" width="13" height="43" fill="#661200" class="highcharts-point"/>
      <rect x="276" y="191" width="13" height="33" fill="#661200" class="highcharts-point"/>
      <rect x="363" y="213" width="13" height="11" fill="#661200" class="highcharts-point"/>
    </g>
    <g class="highcharts-markers highcharts-series-0 highcharts-column-series " transform="translate(43,92) scale(1 1)" clip-path="none"/>
    <g class="highcharts-series highcharts-series-1 highcharts-column-series " transform="translate(43,92) scale(1 1)" clip-path="url(#a)">
      <rect x="30" y="206" width="13" height="18" fill="#dc440e" class="highcharts-point"/>
      <rect x="117" y="209" width="13" height="15" fill="#dc440e" class="highcharts-point"/>
      <rect x="203" y="209" width="13" height="15" fill="#dc440e" class="highcharts-point"/>
      <rect x="289" y="213" width="13" height="11" fill="#dc440e" class="highcharts-point"/>
      <rect x="376" y="220" width="13" height="4" fill="#dc440e" class="highcharts-point"/>
    </g>
    <g class="highcharts-markers highcharts-series-1 highcharts-column-series " transform="translate(43,92) scale(1 1)" clip-path="none"/>
    <g class="highcharts-series highcharts-series-2 highcharts-column-series " transform="translate(43,92) scale(1 1)" clip-path="url(#a)">
      <rect x="43" y="61" width="13" height="163" fill="#7f5f1a" class="highcharts-point"/>
      <rect x="130" y="152" width="13" height="72" fill="#7f5f1a" class="highcharts-point"/>
      <rect x="216" y="168" width="13" height="56" fill="#7f5f1a" class="highcharts-point"/>
      <rect x="302" y="192" width="13" height="32" fill="#7f5f1a" class="highcharts-point"/>
      <rect x="389" y="204" width="13" height="20" fill="#7f5f1a" class="highcharts-point"/>
    </g>
    <g class="highcharts-markers highcharts-series-2 highcharts-column-series " transform="translate(43,92) scale(1 1)" clip-path="none"/>
    <g class="highcharts-series highcharts-series-3 highcharts-column-series " transform="translate(43,92) scale(1 1)" clip-path="url(#a)">
      <rect x="56" y="186" width="13" height="38" fill="#ffda80" class="highcharts-point"/>
      <rect x="143" y="207" width="13" height="17" fill="#ffda80" class="highcharts-point"/>
      <rect x="229" y="207" width="13" height="17" fill="#ffda80" class="highcharts-point"/>
      <rect x="315" y="209" width="13" height="15" fill="#ffda80" class="highcharts-point"/>
      <rect x="402" y="215" width="13" height="9" fill="#ffda80" class="highcharts-point"/>
    </g>
    <g class="highcharts-markers highcharts-series-3 highcharts-column-series " transform="translate(43,92) scale(1 1)" clip-path="none"/>
  </g>
  <text x="10" text-anchor="start" class="highcharts-title" style="color:#000000;font-size:14px;font-weight:bold;fill:#000000;" y="21">
    <tspan>Beschuldigte ab 18 Jahren pro 1000 Erwachsene</tspan>
  </text>
  <text x="10" text-anchor="start" class="highcharts-subtitle" style="color:#000000;font-size:12px;font-weight:normal;font-family:Arial;fill:#000000;" y="40">
    <tspan>nach Staatsangehörigkeit, Geschlecht und Alter, Stand: 2016</tspan>
  </text>
  <g class="highcharts-legend" transform="translate(35,55)">
    <rect fill="none" class="highcharts-legend-box" rx="0" ry="0" x="0" y="0" width="392" height="25" visibility="visible"/>
    <g>
      <g>
        <g class="highcharts-legend-item highcharts-column-series highcharts-color-undefined highcharts-series-0" transform="translate(8,3)">
          <text x="21" style="color:#333333;font-size:12px;font-weight:normal;cursor:pointer;fill:#333333;" text-anchor="start" y="15">
            <tspan>Schweizer</tspan>
          </text>
          <rect x="2" y="4" width="12" height="12" fill="#661200" class="highcharts-point"/>
        </g>
        <g class="highcharts-legend-item highcharts-column-series highcharts-color-undefined highcharts-series-1" transform="translate(89.3125,3)">
          <text x="21" y="15" style="color:#333333;font-size:12px;font-weight:normal;cursor:pointer;fill:#333333;" text-anchor="start">
            <tspan>Schweizerinnen</tspan>
          </text>
          <rect x="2" y="4" width="12" height="12" fill="#dc440e" class="highcharts-point"/>
        </g>
        <g class="highcharts-legend-item highcharts-column-series highcharts-color-undefined highcharts-series-2" transform="translate(199.96875,3)">
          <text x="21" y="15" style="color:#333333;font-size:12px;font-weight:normal;cursor:pointer;fill:#333333;" text-anchor="start">
            <tspan>Ausländer</tspan>
          </text>
          <rect x="2" y="4" width="12" height="12" fill="#7f5f1a" class="highcharts-point"/>
        </g>
        <g class="highcharts-legend-item highcharts-column-series highcharts-color-undefined highcharts-series-3" transform="translate(279.96875,3)">
          <text x="21" y="15" style="color:#333333;font-size:12px;font-weight:normal;cursor:pointer;fill:#333333;" text-anchor="start">
            <tspan>Ausländerinnen</tspan>
          </text>
          <rect x="2" y="4" width="12" height="12" fill="#ffda80" class="highcharts-point"/>
        </g>
      </g>
    </g>
  </g>
  <g class="highcharts-axis-labels highcharts-xaxis-labels ">
    <text x="86.2" style="color:#000000;cursor:default;font-size:11px;fill:#000000;" text-anchor="middle" transform="translate(0,0)" y="334" opacity="1">
      <tspan>18-24 Jahre</tspan>
    </text>
    <text x="172.60000000000002" style="color:#000000;cursor:default;font-size:11px;fill:#000000;" text-anchor="middle" transform="translate(0,0)" y="334" opacity="1">
      <tspan>25-34 Jahre</tspan>
    </text>
    <text x="259" style="color:#000000;cursor:default;font-size:11px;fill:#000000;" text-anchor="middle" transform="translate(0,0)" y="334" opacity="1">
      <tspan>35-44 Jahre</tspan>
    </text>
    <text x="345.40000000000003" style="color:#000000;cursor:default;font-size:11px;fill:#000000;" text-anchor="middle" transform="translate(0,0)" y="334" opacity="1">
      <tspan>45-59 Jahre</tspan>
    </text>
    <text x="431.8" style="color:#000000;cursor:default;font-size:11px;fill:#000000;" text-anchor="middle" transform="translate(0,0)" y="334" opacity="1">
      <tspan>ab 60 Jahre</tspan>
    </text>
  </g>
  <g class="highcharts-axis-labels highcharts-yaxis-labels ">
    <text x="28" style="color:#000000;cursor:default;font-size:11px;fill:#000000;" text-anchor="end" transform="translate(0,0)" y="320" opacity="1">
      0
    </text>
    <text x="28" style="color:#000000;cursor:default;font-size:11px;fill:#000000;" text-anchor="end" transform="translate(0,0)" y="264" opacity="1">
      25
    </text>
    <text x="28" style="color:#000000;cursor:default;font-size:11px;fill:#000000;" text-anchor="end" transform="translate(0,0)" y="208" opacity="1">
      50
    </text>
    <text x="28" style="color:#000000;cursor:default;font-size:11px;fill:#000000;" text-anchor="end" transform="translate(0,0)" y="152" opacity="1">
      75
    </text>
    <text x="28" style="color:#000000;cursor:default;font-size:11px;fill:#000000;" text-anchor="end" transform="translate(0,0)" y="97" opacity="1">
      100
    </text>
  </g>
  <text x="10" class="highcharts-credits" text-anchor="start" style="cursor:default;color:#000000;font-size:10px;fill:#000000;" y="390">
    <tspan>Quelle: Statistisches Amt Basel-Stadt, Bevölkerungsstatistik;</tspan><tspan x="10" dy="13">Bundesamt für Statistik (BFS), Polizeiliche Kriminalstatistik (PKS)</tspan>
  </text>
</svg>
