<?xml version="1.0" standalone="no"?><!DOCTYPE svg PUBLIC "-//W3C//DTD SVG 1.1//EN" "http://www.w3.org/Graphics/SVG/1.1/DTD/svg11.dtd"><svg xmlns:xlink="http://www.w3.org/1999/xlink" version="1.1" class="highcharts-root" style="font-family:Arial;font-size:12px;" xmlns="http://www.w3.org/2000/svg" viewBox="0 0 485 415"><desc>Created with Highcharts 8.2.0</desc><defs><clipPath id="highcharts-43yda2j-52-"><rect x="0" y="0" width="423" height="229" fill="none"></rect></clipPath><clipPath id="highcharts-43yda2j-68-"><rect x="0" y="0" width="423" height="229" fill="none"></rect></clipPath><clipPath id="highcharts-43yda2j-99-"><rect x="52" y="99" width="423" height="229" fill="none"></rect></clipPath></defs><rect fill="#fbfbfb" class="highcharts-background" x="0" y="0" width="485" height="428" rx="0" ry="0"></rect><rect fill="none" class="highcharts-plot-background" x="52" y="99" width="423" height="229"></rect><g class="highcharts-pane-group" data-z-index="0"></g><g class="highcharts-grid highcharts-xaxis-grid" data-z-index="1"><path fill="none" data-z-index="1" class="highcharts-grid-line" d="M 55.5 99 L 55.5 328" opacity="1"></path><path fill="none" data-z-index="1" class="highcharts-grid-line" d="M 85.5 99 L 85.5 328" opacity="1"></path><path fill="none" data-z-index="1" class="highcharts-grid-line" d="M 114.5 99 L 114.5 328" opacity="1"></path><path fill="none" data-z-index="1" class="highcharts-grid-line" d="M 144.5 99 L 144.5 328" opacity="1"></path><path fill="none" data-z-index="1" class="highcharts-grid-line" d="M 174.5 99 L 174.5 328" opacity="1"></path><path fill="none" data-z-index="1" class="highcharts-grid-line" d="M 203.5 99 L 203.5 328" opacity="1"></path><path fill="none" data-z-index="1" class="highcharts-grid-line" d="M 233.5 99 L 233.5 328" opacity="1"></path><path fill="none" data-z-index="1" class="highcharts-grid-line" d="M 263.5 99 L 263.5 328" opacity="1"></path><path fill="none" data-z-index="1" class="highcharts-grid-line" d="M 292.5 99 L 292.5 328" opacity="1"></path><path fill="none" data-z-index="1" class="highcharts-grid-line" d="M 322.5 99 L 322.5 328" opacity="1"></path><path fill="none" data-z-index="1" class="highcharts-grid-line" d="M 351.5 99 L 351.5 328" opacity="1"></path><path fill="none" data-z-index="1" class="highcharts-grid-line" d="M 381.5 99 L 381.5 328" opacity="1"></path><path fill="none" data-z-index="1" class="highcharts-grid-line" d="M 411.5 99 L 411.5 328" opacity="1"></path><path fill="none" data-z-index="1" class="highcharts-grid-line" d="M 440.5 99 L 440.5 328" opacity="1"></path><path fill="none" data-z-index="1" class="highcharts-grid-line" d="M 470.5 99 L 470.5 328" opacity="1"></path></g><g class="highcharts-grid highcharts-yaxis-grid" data-z-index="1"><path fill="none" stroke="#B9CFD7" stroke-width="0.5" data-z-index="1" class="highcharts-grid-line" d="M 52 328.25 L 475 328.25" opacity="1"></path><path fill="none" stroke="#B9CFD7" stroke-width="0.5" data-z-index="1" class="highcharts-grid-line" d="M 52 252.25 L 475 252.25" opacity="1"></path><path fill="none" stroke="#B9CFD7" stroke-width="0.5" data-z-index="1" class="highcharts-grid-line" d="M 52 175.25 L 475 175.25" opacity="1"></path><path fill="none" stroke="#B9CFD7" stroke-width="0.5" data-z-index="1" class="highcharts-grid-line" d="M 52 98.75 L 475 98.75" opacity="1"></path></g><rect fill="none" class="highcharts-plot-border" data-z-index="1" x="52" y="99" width="423" height="229"></rect><g class="highcharts-axis highcharts-xaxis" data-z-index="2"><path fill="none" class="highcharts-axis-line" stroke="#B9CFD7" stroke-width="0.5" data-z-index="7" d="M 52 328.25 L 475 328.25"></path></g><g class="highcharts-axis highcharts-yaxis" data-z-index="2"><path fill="none" class="highcharts-axis-line" data-z-index="7" d="M 52 99 L 52 328"></path></g><g class="highcharts-series-group" data-z-index="3"><g class="highcharts-series highcharts-series-0 highcharts-area-series" data-z-index="0.1" opacity="1" transform="translate(52,99) scale(1 1)" clip-path="url(#highcharts-43yda2j-68-)"><path fill="rgb(255,128,40)" fill-opacity="0.75" d="M 4.1470588235323 87.17266666666666 L 33.768907563028 83.05066666666667 L 63.390756302523 50.68533333333332 L 93.012605042018 79.38666666666666 L 122.63445378151 89.61533333333333 L 152.25630252101 90.684 L 181.8781512605 86.40933333333334 L 211.5 77.85999999999999 L 241.1218487395 87.78333333333333 L 270.74369747899 79.69200000000001 L 300.36554621849 91.90533333333332 L 329.98739495798 96.638 L 359.60924369748 108.54599999999999 L 389.23109243697 99.53866666666667 L 418.85294117647 89.46266666666665 L 418.85294117647 125.79733333333333 L 389.23109243697 127.17133333333332 L 359.60924369748 128.54533333333333 L 329.98739495798 114.65266666666666 L 300.36554621849 115.874 L 270.74369747899 103.05 L 241.1218487395 111.294 L 211.5 110.836 L 181.8781512605 107.78266666666666 L 152.25630252101 115.72133333333333 L 122.63445378151 119.23266666666666 L 93.012605042018 113.73666666666666 L 63.390756302523 96.638 L 33.768907563028 106.10333333333332 L 4.1470588235323 107.32466666666666" class="highcharts-area" data-z-index="0"></path><path fill="none" d="M 4.1470588235323 87.17266666666666 L 33.768907563028 83.05066666666667 L 63.390756302523 50.68533333333332 L 93.012605042018 79.38666666666666 L 122.63445378151 89.61533333333333 L 152.25630252101 90.684 L 181.8781512605 86.40933333333334 L 211.5 77.85999999999999 L 241.1218487395 87.78333333333333 L 270.74369747899 79.69200000000001 L 300.36554621849 91.90533333333332 L 329.98739495798 96.638 L 359.60924369748 108.54599999999999 L 389.23109243697 99.53866666666667 L 418.85294117647 89.46266666666665" class="highcharts-graph" data-z-index="1" stroke-linejoin="round" stroke-linecap="round"></path></g><g class="highcharts-markers highcharts-series-0 highcharts-area-series" data-z-index="0.1" opacity="1" transform="translate(52,99) scale(1 1)" clip-path="none"></g><g class="highcharts-series highcharts-series-1 highcharts-area-series" data-z-index="0.1" opacity="1" transform="translate(52,99) scale(1 1)" clip-path="url(#highcharts-43yda2j-68-)"><path fill="rgb(146,63,141)" fill-opacity="0.75" d="M 4.1470588235323 107.32466666666666 L 33.768907563028 106.10333333333332 L 63.390756302523 96.638 L 93.012605042018 113.73666666666666 L 122.63445378151 119.23266666666666 L 152.25630252101 115.72133333333333 L 181.8781512605 107.78266666666666 L 211.5 110.836 L 241.1218487395 111.294 L 270.74369747899 103.05 L 300.36554621849 115.874 L 329.98739495798 114.65266666666666 L 359.60924369748 128.54533333333333 L 389.23109243697 127.17133333333332 L 418.85294117647 125.79733333333333 L 418.85294117647 172.36066666666667 L 389.23109243697 169.15466666666666 L 359.60924369748 172.36066666666667 L 329.98739495798 158.31533333333334 L 300.36554621849 156.636 L 270.74369747899 147.17066666666665 L 241.1218487395 153.58266666666668 L 211.5 152.20866666666666 L 181.8781512605 148.85 L 152.25630252101 151.75066666666666 L 122.63445378151 155.262 L 93.012605042018 151.90333333333334 L 63.390756302523 137.09466666666668 L 33.768907563028 143.65933333333334 L 4.1470588235323 148.08666666666664" class="highcharts-area" data-z-index="0"></path><path fill="none" d="M 4.1470588235323 107.32466666666666 L 33.768907563028 106.10333333333332 L 63.390756302523 96.638 L 93.012605042018 113.73666666666666 L 122.63445378151 119.23266666666666 L 152.25630252101 115.72133333333333 L 181.8781512605 107.78266666666666 L 211.5 110.836 L 241.1218487395 111.294 L 270.74369747899 103.05 L 300.36554621849 115.874 L 329.98739495798 114.65266666666666 L 359.60924369748 128.54533333333333 L 389.23109243697 127.17133333333332 L 418.85294117647 125.79733333333333" class="highcharts-graph" data-z-index="1" stroke-linejoin="round" stroke-linecap="round"></path></g><g class="highcharts-markers highcharts-series-1 highcharts-area-series" data-z-index="0.1" opacity="1" transform="translate(52,99) scale(1 1)" clip-path="none"></g><g class="highcharts-series highcharts-series-2 highcharts-area-series" data-z-index="0.1" opacity="1" transform="translate(52,99) scale(1 1)" clip-path="url(#highcharts-43yda2j-68-)"><path fill="rgb(47,101,107)" fill-opacity="0.75" d="M 4.1470588235323 148.08666666666664 L 33.768907563028 143.65933333333334 L 63.390756302523 137.09466666666668 L 93.012605042018 151.90333333333334 L 122.63445378151 155.262 L 152.25630252101 151.75066666666666 L 181.8781512605 148.85 L 211.5 152.20866666666666 L 241.1218487395 153.58266666666668 L 270.74369747899 147.17066666666665 L 300.36554621849 156.636 L 329.98739495798 158.31533333333334 L 359.60924369748 172.36066666666667 L 389.23109243697 169.15466666666666 L 418.85294117647 172.36066666666667 L 418.85294117647 229 L 389.23109243697 229 L 359.60924369748 229 L 329.98739495798 229 L 300.36554621849 229 L 270.74369747899 229 L 241.1218487395 229 L 211.5 229 L 181.8781512605 229 L 152.25630252101 229 L 122.63445378151 229 L 93.012605042018 229 L 63.390756302523 229 L 33.768907563028 229 L 4.1470588235323 229" class="highcharts-area" data-z-index="0"></path><path fill="none" d="M 4.1470588235323 148.08666666666664 L 33.768907563028 143.65933333333334 L 63.390756302523 137.09466666666668 L 93.012605042018 151.90333333333334 L 122.63445378151 155.262 L 152.25630252101 151.75066666666666 L 181.8781512605 148.85 L 211.5 152.20866666666666 L 241.1218487395 153.58266666666668 L 270.74369747899 147.17066666666665 L 300.36554621849 156.636 L 329.98739495798 158.31533333333334 L 359.60924369748 172.36066666666667 L 389.23109243697 169.15466666666666 L 418.85294117647 172.36066666666667" class="highcharts-graph" data-z-index="1" stroke-linejoin="round" stroke-linecap="round"></path></g><g class="highcharts-markers highcharts-series-2 highcharts-area-series" data-z-index="0.1" opacity="1" transform="translate(52,99) scale(1 1)" clip-path="none"></g></g><text x="10" text-anchor="start" class="highcharts-title" data-z-index="4" style="color:#000000;font-size:14px;font-weight:bold;fill:#000000;" y="21"><tspan>Beschuldigte ausländische Erwachsene</tspan></text><text x="10" text-anchor="start" class="highcharts-subtitle" data-z-index="4" style="color:#000000;font-size:12px;font-weight:normal;fill:#000000;" y="40"><tspan>nach Aufenthaltsstatus, Basel-Stadt</tspan></text><text x="10" text-anchor="start" class="highcharts-caption" data-z-index="4" style="color:#666666;fill:#666666;" y="375"></text><g class="highcharts-legend" data-z-index="7" transform="translate(44,56)"><rect fill="none" class="highcharts-legend-box" rx="0" ry="0" x="0" y="0" width="401" height="31" visibility="visible"></rect><g data-z-index="1"><g><g class="highcharts-legend-item highcharts-area-series highcharts-color-undefined highcharts-series-2" data-z-index="1" transform="translate(8,3)"><text x="21" style="color:#333333;cursor:pointer;font-size:12px;font-weight:normal;fill:#333333;" text-anchor="start" data-z-index="2" y="15"><tspan>C-Bew.</tspan></text><rect x="2" y="4" width="12" height="12" fill="#2F656B" class="highcharts-point" data-z-index="3"></rect></g><g class="highcharts-legend-item highcharts-area-series highcharts-color-undefined highcharts-series-1" data-z-index="1" transform="translate(138,3)"><text x="21" y="15" style="color:#333333;cursor:pointer;font-size:12px;font-weight:normal;fill:#333333;" text-anchor="start" data-z-index="2"><tspan>B-Bew.</tspan></text><rect x="2" y="4" width="12" height="12" fill="#923F8D" class="highcharts-point" data-z-index="3"></rect></g><g class="highcharts-legend-item highcharts-area-series highcharts-color-undefined highcharts-series-0" data-z-index="1" transform="translate(268,3)"><text x="21" y="15" style="color:#333333;cursor:pointer;font-size:12px;font-weight:normal;fill:#333333;" text-anchor="start" data-z-index="2"><tspan>Übrige</tspan></text><rect x="2" y="4" width="12" height="12" fill="#FF8028" class="highcharts-point" data-z-index="3"></rect></g></g></g></g><g class="highcharts-axis-labels highcharts-xaxis-labels" data-z-index="7"><text x="58.73978368788267" style="color:#000000;cursor:default;font-size:11px;fill:#000000;" text-anchor="end" transform="translate(0,0) rotate(-45 58.73978368788267 344)" y="344" opacity="1">2009</text><text x="88.36163242737867" style="color:#000000;cursor:default;font-size:11px;fill:#000000;" text-anchor="end" transform="translate(0,0) rotate(-45 88.36163242737867 344)" y="344" opacity="1">2010</text><text x="117.98348116687067" style="color:#000000;cursor:default;font-size:11px;fill:#000000;" text-anchor="end" transform="translate(0,0) rotate(-45 117.98348116687067 344)" y="344" opacity="1">2011</text><text x="147.60532990637068" style="color:#000000;cursor:default;font-size:11px;fill:#000000;" text-anchor="end" transform="translate(0,0) rotate(-45 147.60532990637068 344)" y="344" opacity="1">2012</text><text x="177.22717864586068" style="color:#000000;cursor:default;font-size:11px;fill:#000000;" text-anchor="end" transform="translate(0,0) rotate(-45 177.22717864586068 344)" y="344" opacity="1">2013</text><text x="206.8490273853607" style="color:#000000;cursor:default;font-size:11px;fill:#000000;" text-anchor="end" transform="translate(0,0) rotate(-45 206.8490273853607 344)" y="344" opacity="1">2014</text><text x="236.4708761248507" style="color:#000000;cursor:default;font-size:11px;fill:#000000;" text-anchor="end" transform="translate(0,0) rotate(-45 236.4708761248507 344)" y="344" opacity="1">2015</text><text x="266.09272486435066" style="color:#000000;cursor:default;font-size:11px;fill:#000000;" text-anchor="end" transform="translate(0,0) rotate(-45 266.09272486435066 344)" y="344" opacity="1">2016</text><text x="295.7145736038507" style="color:#000000;cursor:default;font-size:11px;fill:#000000;" text-anchor="end" transform="translate(0,0) rotate(-45 295.7145736038507 344)" y="344" opacity="1">2017</text><text x="325.33642234334064" style="color:#000000;cursor:default;font-size:11px;fill:#000000;" text-anchor="end" transform="translate(0,0) rotate(-45 325.33642234334064 344)" y="344" opacity="1">2018</text><text x="354.95827108284067" style="color:#000000;cursor:default;font-size:11px;fill:#000000;" text-anchor="end" transform="translate(0,0) rotate(-45 354.95827108284067 344)" y="344" opacity="1">2019</text><text x="384.58011982233063" style="color:#000000;cursor:default;font-size:11px;fill:#000000;" text-anchor="end" transform="translate(0,0) rotate(-45 384.58011982233063 344)" y="344" opacity="1">2020</text><text x="414.20196856183065" style="color:#000000;cursor:default;font-size:11px;fill:#000000;" text-anchor="end" transform="translate(0,0) rotate(-45 414.20196856183065 344)" y="344" opacity="1">2021</text><text x="443.8238173013207" style="color:#000000;cursor:default;font-size:11px;fill:#000000;" text-anchor="end" transform="translate(0,0) rotate(-45 443.8238173013207 344)" y="344" opacity="1">2022</text><text x="473.44566604082064" style="color:#000000;cursor:default;font-size:11px;fill:#000000;" text-anchor="end" transform="translate(0,0) rotate(-45 473.44566604082064 344)" y="344" opacity="1">2023</text></g><g class="highcharts-axis-labels highcharts-yaxis-labels" data-z-index="7"><text x="37" style="color:#000000;cursor:default;font-size:11px;fill:#000000;" text-anchor="end" transform="translate(0,0)" y="332" opacity="1">0</text><text x="37" style="color:#000000;cursor:default;font-size:11px;fill:#000000;" text-anchor="end" transform="translate(0,0)" y="256" opacity="1">500</text><text x="37" style="color:#000000;cursor:default;font-size:11px;fill:#000000;" text-anchor="end" transform="translate(0,0)" y="179" opacity="1"><tspan>1 000</tspan></text><text x="37" style="color:#000000;cursor:default;font-size:11px;fill:#000000;" text-anchor="end" transform="translate(0,0)" y="103" opacity="1"><tspan>1 500</tspan></text></g><text x="10" class="highcharts-credits" text-anchor="start" data-z-index="8" style="cursor:default;color:#000000;font-size:10px;fill:#000000;" y="393"><tspan>Quelle: Statistisches Amt Basel-Stadt, Bevölkerungsstatistik;</tspan><tspan x="10" dy="13">Bundesamt für Statistik (BFS), Polizeiliche Kriminalstatistik (PKS).</tspan><tspan x="10" dy="13">Zuletzt geändert: 3.5.2024</tspan></text><g class="highcharts-control-points" data-z-index="99" clip-path="url(#highcharts-43yda2j-99-)"></g></svg>