<?xml version="1.0" standalone="no"?><!DOCTYPE svg PUBLIC "-//W3C//DTD SVG 1.1//EN" "http://www.w3.org/Graphics/SVG/1.1/DTD/svg11.dtd"><svg xmlns:xlink="http://www.w3.org/1999/xlink" version="1.1" class="highcharts-root" style="font-family:Arial;font-size:12px;" xmlns="http://www.w3.org/2000/svg" viewBox="0 0 485 415"><desc>Created with Highstock 6.1.0</desc><defs><clipPath id="highcharts-392jsrr-6"><rect x="0" y="0" width="423" height="242" fill="none"></rect></clipPath><clipPath id="highcharts-392jsrr-7"><rect x="0" y="0" width="423" height="242" fill="none"></rect></clipPath></defs><rect fill="#fbfbfb" class="highcharts-background" x="0" y="0" width="485" height="415" rx="0" ry="0"></rect><rect fill="none" class="highcharts-plot-background" x="52" y="97" width="423" height="242"></rect><g class="highcharts-pane-group"></g><g class="highcharts-grid highcharts-xaxis-grid "><path fill="none" class="highcharts-grid-line" d="M 55.5 97 L 55.5 339" opacity="1"></path><path fill="none" class="highcharts-grid-line" d="M 107.5 97 L 107.5 339" opacity="1"></path><path fill="none" class="highcharts-grid-line" d="M 159.5 97 L 159.5 339" opacity="1"></path><path fill="none" class="highcharts-grid-line" d="M 211.5 97 L 211.5 339" opacity="1"></path><path fill="none" class="highcharts-grid-line" d="M 263.5 97 L 263.5 339" opacity="1"></path><path fill="none" class="highcharts-grid-line" d="M 314.5 97 L 314.5 339" opacity="1"></path><path fill="none" class="highcharts-grid-line" d="M 366.5 97 L 366.5 339" opacity="1"></path><path fill="none" class="highcharts-grid-line" d="M 418.5 97 L 418.5 339" opacity="1"></path><path fill="none" class="highcharts-grid-line" d="M 470.5 97 L 470.5 339" opacity="1"></path></g><g class="highcharts-grid highcharts-yaxis-grid "><path fill="none" stroke="#B9CFD7" stroke-width="0.5" class="highcharts-grid-line" d="M 52 339.25 L 475 339.25" opacity="1"></path><path fill="none" stroke="#B9CFD7" stroke-width="0.5" class="highcharts-grid-line" d="M 52 291.25 L 475 291.25" opacity="1"></path><path fill="none" stroke="#B9CFD7" stroke-width="0.5" class="highcharts-grid-line" d="M 52 242.25 L 475 242.25" opacity="1"></path><path fill="none" stroke="#B9CFD7" stroke-width="0.5" class="highcharts-grid-line" d="M 52 194.25 L 475 194.25" opacity="1"></path><path fill="none" stroke="#B9CFD7" stroke-width="0.5" class="highcharts-grid-line" d="M 52 145.25 L 475 145.25" opacity="1"></path><path fill="none" stroke="#B9CFD7" stroke-width="0.5" class="highcharts-grid-line" d="M 52 96.75 L 475 96.75" opacity="1"></path></g><rect fill="none" class="highcharts-plot-border" x="52" y="97" width="423" height="242"></rect><g class="highcharts-axis highcharts-xaxis "><path fill="none" class="highcharts-axis-line" stroke="#B9CFD7" stroke-width="0.5" d="M 52 339.25 L 475 339.25"></path></g><g class="highcharts-axis highcharts-yaxis "><path fill="none" class="highcharts-axis-line" d="M 52 97 L 52 339"></path></g><g class="highcharts-series-group"><g class="highcharts-series highcharts-series-0 highcharts-area-series " transform="translate(52,97) scale(1 1)" clip-path="url(#highcharts-392jsrr-7)"><path fill="rgb(255,128,40)" fill-opacity="0.75" d="M 4.1470588235257 62.1456 L 55.985294117644 56.91840000000002 L 107.82352941176 16.456000000000017 L 159.66176470588 52.27199999999999 L 211.5 65.2432 L 263.33823529412 66.5984 L 315.17647058824 61.17760000000001 L 367.01470588236 50.33600000000001 L 418.85294117647 62.920000000000016 L 418.85294117647 92.7344 L 367.01470588236 92.15360000000001 L 315.17647058824 88.2816 L 263.33823529412 98.34880000000001 L 211.5 102.80160000000001 L 159.66176470588 95.63839999999999 L 107.82352941176 74.3424 L 55.985294117644 86.15200000000002 L 4.1470588235257 87.70080000000002" class="highcharts-area"></path><path fill="none" d="M 4.1470588235257 62.1456 L 55.985294117644 56.91840000000002 L 107.82352941176 16.456000000000017 L 159.66176470588 52.27199999999999 L 211.5 65.2432 L 263.33823529412 66.5984 L 315.17647058824 61.17760000000001 L 367.01470588236 50.33600000000001 L 418.85294117647 62.920000000000016" class="highcharts-graph" stroke-linejoin="round" stroke-linecap="round"></path></g><g class="highcharts-markers highcharts-series-0 highcharts-area-series " transform="translate(52,97) scale(1 1)" clip-path="none"></g><g class="highcharts-series highcharts-series-1 highcharts-area-series " transform="translate(52,97) scale(1 1)" clip-path="url(#highcharts-392jsrr-7)"><path fill="rgb(146,63,141)" fill-opacity="0.75" d="M 4.1470588235257 87.70080000000002 L 55.985294117644 86.15200000000002 L 107.82352941176 74.3424 L 159.66176470588 95.63839999999999 L 211.5 102.80160000000001 L 263.33823529412 98.34880000000001 L 315.17647058824 88.2816 L 367.01470588236 92.15360000000001 L 418.85294117647 92.7344 L 418.85294117647 146.3616 L 367.01470588236 144.6192 L 315.17647058824 140.36 L 263.33823529412 144.0384 L 211.5 148.4912 L 159.66176470588 144.232 L 107.82352941176 125.4528 L 55.985294117644 133.7776 L 4.1470588235257 139.392" class="highcharts-area"></path><path fill="none" d="M 4.1470588235257 87.70080000000002 L 55.985294117644 86.15200000000002 L 107.82352941176 74.3424 L 159.66176470588 95.63839999999999 L 211.5 102.80160000000001 L 263.33823529412 98.34880000000001 L 315.17647058824 88.2816 L 367.01470588236 92.15360000000001 L 418.85294117647 92.7344" class="highcharts-graph" stroke-linejoin="round" stroke-linecap="round"></path></g><g class="highcharts-markers highcharts-series-1 highcharts-area-series " transform="translate(52,97) scale(1 1)" clip-path="none"></g><g class="highcharts-series highcharts-series-2 highcharts-area-series " transform="translate(52,97) scale(1 1)" clip-path="url(#highcharts-392jsrr-7)"><path fill="rgb(47,101,107)" fill-opacity="0.75" d="M 4.1470588235257 139.392 L 55.985294117644 133.7776 L 107.82352941176 125.4528 L 159.66176470588 144.232 L 211.5 148.4912 L 263.33823529412 144.0384 L 315.17647058824 140.36 L 367.01470588236 144.6192 L 418.85294117647 146.3616 L 418.85294117647 242 L 367.01470588236 242 L 315.17647058824 242 L 263.33823529412 242 L 211.5 242 L 159.66176470588 242 L 107.82352941176 242 L 55.985294117644 242 L 4.1470588235257 242" class="highcharts-area"></path><path fill="none" d="M 4.1470588235257 139.392 L 55.985294117644 133.7776 L 107.82352941176 125.4528 L 159.66176470588 144.232 L 211.5 148.4912 L 263.33823529412 144.0384 L 315.17647058824 140.36 L 367.01470588236 144.6192 L 418.85294117647 146.3616" class="highcharts-graph" stroke-linejoin="round" stroke-linecap="round"></path></g><g class="highcharts-markers highcharts-series-2 highcharts-area-series " transform="translate(52,97) scale(1 1)" clip-path="none"></g></g><text x="10" text-anchor="start" class="highcharts-title" style="color:#000000;font-size:14px;font-weight:bold;fill:#000000;" y="21"><tspan>Beschuldigte ausländische Erwachsene</tspan></text><text x="10" text-anchor="start" class="highcharts-subtitle" style="color:#000000;font-size:12px;font-weight:normal;font-family:Arial;fill:#000000;" y="40"><tspan>Personen ab 18 Jahren nach Aufenthaltsstatus, Basel-Stadt</tspan></text><g class="highcharts-legend" transform="translate(44,55)"><rect fill="none" class="highcharts-legend-box" rx="0" ry="0" x="0" y="0" width="296" height="30" visibility="visible"></rect><g><g><g class="highcharts-legend-item highcharts-area-series highcharts-color-undefined highcharts-series-2" transform="translate(8,3)"><text x="21" style="color:#333333;font-size:12px;font-weight:normal;cursor:pointer;fill:#333333;" text-anchor="start" y="15"><tspan>C-Bew.</tspan></text><rect x="2" y="4" width="12" height="12" fill="#2F656B" class="highcharts-point"></rect></g><g class="highcharts-legend-item highcharts-area-series highcharts-color-undefined highcharts-series-1" transform="translate(108,3)"><text x="21" y="15" style="color:#333333;font-size:12px;font-weight:normal;cursor:pointer;fill:#333333;" text-anchor="start"><tspan>B-Bew.</tspan></text><rect x="2" y="4" width="12" height="12" fill="#923F8D" class="highcharts-point"></rect></g><g class="highcharts-legend-item highcharts-area-series highcharts-color-undefined highcharts-series-0" transform="translate(208,3)"><text x="21" y="15" style="color:#333333;font-size:12px;font-weight:normal;cursor:pointer;fill:#333333;" text-anchor="start"><tspan>Übrige</tspan></text><rect x="2" y="4" width="12" height="12" fill="#FF8028" class="highcharts-point"></rect></g></g></g></g><g class="highcharts-axis-labels highcharts-xaxis-labels "><text x="56.147058823526" style="color:#000000;cursor:default;font-size:11px;fill:#000000;" text-anchor="middle" transform="translate(0,0)" y="358" opacity="1">2009</text><text x="107.98529411764" style="color:#000000;cursor:default;font-size:11px;fill:#000000;" text-anchor="middle" transform="translate(0,0)" y="358" opacity="1">2010</text><text x="159.82352941176" style="color:#000000;cursor:default;font-size:11px;fill:#000000;" text-anchor="middle" transform="translate(0,0)" y="358" opacity="1">2011</text><text x="211.66176470588" style="color:#000000;cursor:default;font-size:11px;fill:#000000;" text-anchor="middle" transform="translate(0,0)" y="358" opacity="1">2012</text><text x="263.5" style="color:#000000;cursor:default;font-size:11px;fill:#000000;" text-anchor="middle" transform="translate(0,0)" y="358" opacity="1">2013</text><text x="315.33823529412" style="color:#000000;cursor:default;font-size:11px;fill:#000000;" text-anchor="middle" transform="translate(0,0)" y="358" opacity="1">2014</text><text x="367.17647058824" style="color:#000000;cursor:default;font-size:11px;fill:#000000;" text-anchor="middle" transform="translate(0,0)" y="358" opacity="1">2015</text><text x="419.01470588236" style="color:#000000;cursor:default;font-size:11px;fill:#000000;" text-anchor="middle" transform="translate(0,0)" y="358" opacity="1">2016</text><text x="462.78125" style="color:#000000;cursor:default;font-size:11px;fill:#000000;" text-anchor="middle" transform="translate(0,0)" y="358" opacity="1">2017</text></g><g class="highcharts-axis-labels highcharts-yaxis-labels "><text x="37" style="color:#000000;cursor:default;font-size:11px;fill:#000000;" text-anchor="end" transform="translate(0,0)" y="344" opacity="1">0</text><text x="37" style="color:#000000;cursor:default;font-size:11px;fill:#000000;" text-anchor="end" transform="translate(0,0)" y="295" opacity="1">250</text><text x="37" style="color:#000000;cursor:default;font-size:11px;fill:#000000;" text-anchor="end" transform="translate(0,0)" y="247" opacity="1">500</text><text x="37" style="color:#000000;cursor:default;font-size:11px;fill:#000000;" text-anchor="end" transform="translate(0,0)" y="198" opacity="1">750</text><text x="37" style="color:#000000;cursor:default;font-size:11px;fill:#000000;" text-anchor="end" transform="translate(0,0)" y="150" opacity="1"><tspan>1 000</tspan></text><text x="37" style="color:#000000;cursor:default;font-size:11px;fill:#000000;" text-anchor="end" transform="translate(0,0)" y="102" opacity="1"><tspan>1 250</tspan></text></g><text x="10" class="highcharts-credits" text-anchor="start" style="cursor:default;color:#000000;font-size:10px;fill:#000000;" y="390"><tspan>Quelle: Statistisches Amt Basel-Stadt, Bevölkerungsstatistik;</tspan><tspan x="10" dy="13">Bundesamt für Statistik (BFS), Polizeiliche Kriminalstatistik (PKS)</tspan></text></svg>