<?xml version="1.0" standalone="no"?><!DOCTYPE svg PUBLIC "-//W3C//DTD SVG 1.1//EN" "http://www.w3.org/Graphics/SVG/1.1/DTD/svg11.dtd"><svg xmlns:xlink="http://www.w3.org/1999/xlink" version="1.1" class="highcharts-root" style="font-family:Arial;font-size:12px;" xmlns="http://www.w3.org/2000/svg" viewBox="0 0 485 415"><desc>Created with Highstock 6.1.1</desc><defs><clipPath id="highcharts-8475mij-6"><rect x="0" y="0" width="347" height="325" fill="none"></rect></clipPath><clipPath id="highcharts-8475mij-7"><rect x="0" y="0" width="347" height="325" fill="none"></rect></clipPath></defs><rect fill="#fbfbfb" class="highcharts-background" x="0" y="0" width="485" height="563" rx="0" ry="0"></rect><rect fill="none" class="highcharts-plot-background" x="150" y="154" width="325" height="347"></rect><g class="highcharts-pane-group" data-z-index="0"></g><g class="highcharts-grid highcharts-xaxis-grid " data-z-index="1"><path fill="none" data-z-index="1" class="highcharts-grid-line" d="M 150 169.5 L 475 169.5" opacity="1"></path><path fill="none" data-z-index="1" class="highcharts-grid-line" d="M 150 184.5 L 475 184.5" opacity="1"></path><path fill="none" data-z-index="1" class="highcharts-grid-line" d="M 150 199.5 L 475 199.5" opacity="1"></path><path fill="none" data-z-index="1" class="highcharts-grid-line" d="M 150 214.5 L 475 214.5" opacity="1"></path><path fill="none" data-z-index="1" class="highcharts-grid-line" d="M 150 229.5 L 475 229.5" opacity="1"></path><path fill="none" data-z-index="1" class="highcharts-grid-line" d="M 150 245.5 L 475 245.5" opacity="1"></path><path fill="none" data-z-index="1" class="highcharts-grid-line" d="M 150 260.5 L 475 260.5" opacity="1"></path><path fill="none" data-z-index="1" class="highcharts-grid-line" d="M 150 275.5 L 475 275.5" opacity="1"></path><path fill="none" data-z-index="1" class="highcharts-grid-line" d="M 150 290.5 L 475 290.5" opacity="1"></path><path fill="none" data-z-index="1" class="highcharts-grid-line" d="M 150 305.5 L 475 305.5" opacity="1"></path><path fill="none" data-z-index="1" class="highcharts-grid-line" d="M 150 320.5 L 475 320.5" opacity="1"></path><path fill="none" data-z-index="1" class="highcharts-grid-line" d="M 150 335.5 L 475 335.5" opacity="1"></path><path fill="none" data-z-index="1" class="highcharts-grid-line" d="M 150 350.5 L 475 350.5" opacity="1"></path><path fill="none" data-z-index="1" class="highcharts-grid-line" d="M 150 365.5 L 475 365.5" opacity="1"></path><path fill="none" data-z-index="1" class="highcharts-grid-line" d="M 150 380.5 L 475 380.5" opacity="1"></path><path fill="none" data-z-index="1" class="highcharts-grid-line" d="M 150 395.5 L 475 395.5" opacity="1"></path><path fill="none" data-z-index="1" class="highcharts-grid-line" d="M 150 410.5 L 475 410.5" opacity="1"></path><path fill="none" data-z-index="1" class="highcharts-grid-line" d="M 150 426.5 L 475 426.5" opacity="1"></path><path fill="none" data-z-index="1" class="highcharts-grid-line" d="M 150 441.5 L 475 441.5" opacity="1"></path><path fill="none" data-z-index="1" class="highcharts-grid-line" d="M 150 456.5 L 475 456.5" opacity="1"></path><path fill="none" data-z-index="1" class="highcharts-grid-line" d="M 150 471.5 L 475 471.5" opacity="1"></path><path fill="none" data-z-index="1" class="highcharts-grid-line" d="M 150 486.5 L 475 486.5" opacity="1"></path><path fill="none" data-z-index="1" class="highcharts-grid-line" d="M 150 501.5 L 475 501.5" opacity="1"></path><path fill="none" data-z-index="1" class="highcharts-grid-line" d="M 150 154.5 L 475 154.5" opacity="1"></path></g><g class="highcharts-grid highcharts-yaxis-grid " data-z-index="1"><path fill="none" stroke="#B9CFD7" stroke-width="0.5" data-z-index="1" class="highcharts-grid-line" d="M 149.75 154 L 149.75 501" opacity="1"></path><path fill="none" stroke="#B9CFD7" stroke-width="0.5" data-z-index="1" class="highcharts-grid-line" d="M 214.75 154 L 214.75 501" opacity="1"></path><path fill="none" stroke="#B9CFD7" stroke-width="0.5" data-z-index="1" class="highcharts-grid-line" d="M 279.75 154 L 279.75 501" opacity="1"></path><path fill="none" stroke="#B9CFD7" stroke-width="0.5" data-z-index="1" class="highcharts-grid-line" d="M 344.75 154 L 344.75 501" opacity="1"></path><path fill="none" stroke="#B9CFD7" stroke-width="0.5" data-z-index="1" class="highcharts-grid-line" d="M 409.75 154 L 409.75 501" opacity="1"></path><path fill="none" stroke="#B9CFD7" stroke-width="0.5" data-z-index="1" class="highcharts-grid-line" d="M 475.25 154 L 475.25 501" opacity="1"></path></g><rect fill="none" class="highcharts-plot-border" data-z-index="1" x="150" y="154" width="325" height="347"></rect><g class="highcharts-axis highcharts-xaxis " data-z-index="2"><path fill="none" class="highcharts-axis-line" stroke="#B9CFD7" stroke-width="0.5" data-z-index="7" d="M 149.75 154 L 149.75 501"></path></g><g class="highcharts-axis highcharts-yaxis " data-z-index="2"><path fill="none" class="highcharts-axis-line" data-z-index="7" d="M 150 501 L 475 501"></path></g><g class="highcharts-series-group" data-z-index="3"><g data-z-index="0.1" class="highcharts-series highcharts-series-0 highcharts-column-series " transform="translate(475,501) rotate(90) scale(-1,1) scale(1 1)" clip-path="url(#highcharts-8475mij-7)"><rect x="333" y="0" width="13" height="13" fill="#6F6F6F" class="highcharts-point"></rect><rect x="318" y="0" width="13" height="12" fill="#6F6F6F" class="highcharts-point"></rect><rect x="303" y="0" width="13" height="8" fill="#6F6F6F" class="highcharts-point"></rect><rect x="273" y="1" width="13" height="0" fill="#6F6F6F" class="highcharts-point"></rect><rect x="258" y="1" width="13" height="0" fill="#6F6F6F" class="highcharts-point"></rect><rect x="243" y="0" width="13" height="3" fill="#6F6F6F" class="highcharts-point"></rect><rect x="213" y="0" width="13" height="2" fill="#6F6F6F" class="highcharts-point"></rect><rect x="198" y="0" width="13" height="2" fill="#6F6F6F" class="highcharts-point"></rect><rect x="183" y="1" width="13" height="0" fill="#6F6F6F" class="highcharts-point"></rect><rect x="152" y="1" width="13" height="0" fill="#6F6F6F" class="highcharts-point"></rect><rect x="137" y="1" width="13" height="0" fill="#6F6F6F" class="highcharts-point"></rect><rect x="122" y="1" width="13" height="0" fill="#6F6F6F" class="highcharts-point"></rect><rect x="92" y="1" width="13" height="0" fill="#6F6F6F" class="highcharts-point"></rect><rect x="77" y="1" width="13" height="0" fill="#6F6F6F" class="highcharts-point"></rect><rect x="62" y="1" width="13" height="0" fill="#6F6F6F" class="highcharts-point"></rect><rect x="32" y="1" width="13" height="0" fill="#6F6F6F" class="highcharts-point"></rect><rect x="17" y="1" width="13" height="0" fill="#6F6F6F" class="highcharts-point"></rect><rect x="2" y="1" width="13" height="0" fill="#6F6F6F" class="highcharts-point"></rect></g><g data-z-index="0.1" class="highcharts-markers highcharts-series-0 highcharts-column-series " transform="translate(475,501) rotate(90) scale(-1,1) scale(1 1)" clip-path="none"></g><g data-z-index="0.1" class="highcharts-series highcharts-series-1 highcharts-column-series " transform="translate(475,501) rotate(90) scale(-1,1) scale(1 1)" clip-path="url(#highcharts-8475mij-7)"><rect x="333" y="13" width="13" height="12" fill="#C8C8C8" class="highcharts-point"></rect><rect x="318" y="12" width="13" height="12" fill="#C8C8C8" class="highcharts-point"></rect><rect x="303" y="8" width="13" height="16" fill="#C8C8C8" class="highcharts-point"></rect><rect x="273" y="0" width="13" height="12" fill="#C8C8C8" class="highcharts-point"></rect><rect x="258" y="0" width="13" height="12" fill="#C8C8C8" class="highcharts-point"></rect><rect x="243" y="3" width="13" height="7" fill="#C8C8C8" class="highcharts-point"></rect><rect x="213" y="2" width="13" height="7" fill="#C8C8C8" class="highcharts-point"></rect><rect x="198" y="2" width="13" height="8" fill="#C8C8C8" class="highcharts-point"></rect><rect x="183" y="0" width="13" height="7" fill="#C8C8C8" class="highcharts-point"></rect><rect x="152" y="0" width="13" height="19" fill="#C8C8C8" class="highcharts-point"></rect><rect x="137" y="0" width="13" height="19" fill="#C8C8C8" class="highcharts-point"></rect><rect x="122" y="0" width="13" height="23" fill="#C8C8C8" class="highcharts-point"></rect><rect x="92" y="0" width="13" height="13" fill="#C8C8C8" class="highcharts-point"></rect><rect x="77" y="0" width="13" height="12" fill="#C8C8C8" class="highcharts-point"></rect><rect x="62" y="0" width="13" height="15" fill="#C8C8C8" class="highcharts-point"></rect><rect x="32" y="0" width="13" height="15" fill="#C8C8C8" class="highcharts-point"></rect><rect x="17" y="0" width="13" height="15" fill="#C8C8C8" class="highcharts-point"></rect><rect x="2" y="0" width="13" height="17" fill="#C8C8C8" class="highcharts-point"></rect></g><g data-z-index="0.1" class="highcharts-markers highcharts-series-1 highcharts-column-series " transform="translate(475,501) rotate(90) scale(-1,1) scale(1 1)" clip-path="none"></g><g data-z-index="0.1" class="highcharts-series highcharts-series-2 highcharts-column-series " transform="translate(475,501) rotate(90) scale(-1,1) scale(1 1)" clip-path="url(#highcharts-8475mij-7)"><rect x="333" y="25" width="13" height="5" fill="#B00000" class="highcharts-point"></rect><rect x="318" y="24" width="13" height="5" fill="#B00000" class="highcharts-point"></rect><rect x="303" y="24" width="13" height="0" fill="#B00000" class="highcharts-point"></rect><rect x="273" y="12" width="13" height="12" fill="#B00000" class="highcharts-point"></rect><rect x="258" y="12" width="13" height="13" fill="#B00000" class="highcharts-point"></rect><rect x="243" y="10" width="13" height="2" fill="#B00000" class="highcharts-point"></rect><rect x="213" y="9" width="13" height="17" fill="#B00000" class="highcharts-point"></rect><rect x="198" y="10" width="13" height="19" fill="#B00000" class="highcharts-point"></rect><rect x="183" y="7" width="13" height="2" fill="#B00000" class="highcharts-point"></rect><rect x="152" y="19" width="13" height="18" fill="#B00000" class="highcharts-point"></rect><rect x="137" y="19" width="13" height="19" fill="#B00000" class="highcharts-point"></rect><rect x="122" y="23" width="13" height="4" fill="#B00000" class="highcharts-point"></rect><rect x="92" y="13" width="13" height="16" fill="#B00000" class="highcharts-point"></rect><rect x="77" y="12" width="13" height="19" fill="#B00000" class="highcharts-point"></rect><rect x="62" y="15" width="13" height="5" fill="#B00000" class="highcharts-point"></rect><rect x="32" y="15" width="13" height="19" fill="#B00000" class="highcharts-point"></rect><rect x="17" y="15" width="13" height="21" fill="#B00000" class="highcharts-point"></rect><rect x="2" y="17" width="13" height="8" fill="#B00000" class="highcharts-point"></rect></g><g data-z-index="0.1" class="highcharts-markers highcharts-series-2 highcharts-column-series " transform="translate(475,501) rotate(90) scale(-1,1) scale(1 1)" clip-path="none"></g><g data-z-index="0.1" class="highcharts-series highcharts-series-3 highcharts-column-series " transform="translate(475,501) rotate(90) scale(-1,1) scale(1 1)" clip-path="url(#highcharts-8475mij-7)"><rect x="333" y="30" width="13" height="24" fill="#ffbb58" class="highcharts-point"></rect><rect x="318" y="29" width="13" height="26" fill="#ffbb58" class="highcharts-point"></rect><rect x="303" y="24" width="13" height="19" fill="#ffbb58" class="highcharts-point"></rect><rect x="273" y="24" width="13" height="55" fill="#ffbb58" class="highcharts-point"></rect><rect x="258" y="25" width="13" height="61" fill="#ffbb58" class="highcharts-point"></rect><rect x="243" y="12" width="13" height="17" fill="#ffbb58" class="highcharts-point"></rect><rect x="213" y="26" width="13" height="65" fill="#ffbb58" class="highcharts-point"></rect><rect x="198" y="29" width="13" height="71" fill="#ffbb58" class="highcharts-point"></rect><rect x="183" y="9" width="13" height="27" fill="#ffbb58" class="highcharts-point"></rect><rect x="152" y="37" width="13" height="65" fill="#ffbb58" class="highcharts-point"></rect><rect x="137" y="38" width="13" height="68" fill="#ffbb58" class="highcharts-point"></rect><rect x="122" y="27" width="13" height="45" fill="#ffbb58" class="highcharts-point"></rect><rect x="92" y="29" width="13" height="68" fill="#ffbb58" class="highcharts-point"></rect><rect x="77" y="31" width="13" height="73" fill="#ffbb58" class="highcharts-point"></rect><rect x="62" y="20" width="13" height="34" fill="#ffbb58" class="highcharts-point"></rect><rect x="32" y="34" width="13" height="70" fill="#ffbb58" class="highcharts-point"></rect><rect x="17" y="36" width="13" height="76" fill="#ffbb58" class="highcharts-point"></rect><rect x="2" y="25" width="13" height="33" fill="#ffbb58" class="highcharts-point"></rect></g><g data-z-index="0.1" class="highcharts-markers highcharts-series-3 highcharts-column-series " transform="translate(475,501) rotate(90) scale(-1,1) scale(1 1)" clip-path="none"></g><g data-z-index="0.1" class="highcharts-series highcharts-series-4 highcharts-column-series " transform="translate(475,501) rotate(90) scale(-1,1) scale(1 1)" clip-path="url(#highcharts-8475mij-7)"><rect x="333" y="54" width="13" height="110" fill="#68AB2B" class="highcharts-point"></rect><rect x="318" y="55" width="13" height="115" fill="#68AB2B" class="highcharts-point"></rect><rect x="303" y="43" width="13" height="90" fill="#68AB2B" class="highcharts-point"></rect><rect x="273" y="79" width="13" height="170" fill="#68AB2B" class="highcharts-point"></rect><rect x="258" y="86" width="13" height="171" fill="#68AB2B" class="highcharts-point"></rect><rect x="243" y="29" width="13" height="164" fill="#68AB2B" class="highcharts-point"></rect><rect x="213" y="91" width="13" height="151" fill="#68AB2B" class="highcharts-point"></rect><rect x="198" y="100" width="13" height="150" fill="#68AB2B" class="highcharts-point"></rect><rect x="183" y="36" width="13" height="159" fill="#68AB2B" class="highcharts-point"></rect><rect x="152" y="102" width="13" height="160" fill="#68AB2B" class="highcharts-point"></rect><rect x="137" y="106" width="13" height="158" fill="#68AB2B" class="highcharts-point"></rect><rect x="122" y="72" width="13" height="179" fill="#68AB2B" class="highcharts-point"></rect><rect x="92" y="97" width="13" height="153" fill="#68AB2B" class="highcharts-point"></rect><rect x="77" y="104" width="13" height="155" fill="#68AB2B" class="highcharts-point"></rect><rect x="62" y="54" width="13" height="144" fill="#68AB2B" class="highcharts-point"></rect><rect x="32" y="104" width="13" height="148" fill="#68AB2B" class="highcharts-point"></rect><rect x="17" y="112" width="13" height="146" fill="#68AB2B" class="highcharts-point"></rect><rect x="2" y="58" width="13" height="158" fill="#68AB2B" class="highcharts-point"></rect></g><g data-z-index="0.1" class="highcharts-markers highcharts-series-4 highcharts-column-series " transform="translate(475,501) rotate(90) scale(-1,1) scale(1 1)" clip-path="none"></g><g data-z-index="0.1" class="highcharts-series highcharts-series-5 highcharts-column-series " transform="translate(475,501) rotate(90) scale(-1,1) scale(1 1)" clip-path="url(#highcharts-8475mij-7)"><rect x="333" y="164" width="13" height="162" fill="#007a2f" class="highcharts-point"></rect><rect x="318" y="170" width="13" height="156" fill="#007a2f" class="highcharts-point"></rect><rect x="303" y="133" width="13" height="193" fill="#007a2f" class="highcharts-point"></rect><rect x="273" y="249" width="13" height="77" fill="#007a2f" class="highcharts-point"></rect><rect x="258" y="257" width="13" height="69" fill="#007a2f" class="highcharts-point"></rect><rect x="243" y="193" width="13" height="133" fill="#007a2f" class="highcharts-point"></rect><rect x="213" y="242" width="13" height="84" fill="#007a2f" class="highcharts-point"></rect><rect x="198" y="250" width="13" height="76" fill="#007a2f" class="highcharts-point"></rect><rect x="183" y="195" width="13" height="131" fill="#007a2f" class="highcharts-point"></rect><rect x="152" y="262" width="13" height="64" fill="#007a2f" class="highcharts-point"></rect><rect x="137" y="264" width="13" height="62" fill="#007a2f" class="highcharts-point"></rect><rect x="122" y="251" width="13" height="75" fill="#007a2f" class="highcharts-point"></rect><rect x="92" y="250" width="13" height="76" fill="#007a2f" class="highcharts-point"></rect><rect x="77" y="259" width="13" height="67" fill="#007a2f" class="highcharts-point"></rect><rect x="62" y="198" width="13" height="128" fill="#007a2f" class="highcharts-point"></rect><rect x="32" y="252" width="13" height="74" fill="#007a2f" class="highcharts-point"></rect><rect x="17" y="258" width="13" height="68" fill="#007a2f" class="highcharts-point"></rect><rect x="2" y="216" width="13" height="110" fill="#007a2f" class="highcharts-point"></rect></g><g data-z-index="0.1" class="highcharts-markers highcharts-series-5 highcharts-column-series " transform="translate(475,501) rotate(90) scale(-1,1) scale(1 1)" clip-path="none"></g></g><text x="10" text-anchor="start" class="highcharts-title" data-z-index="4" style="color:#000000;font-size:14px;font-weight:bold;fill:#000000;" y="21"><tspan>Beurteilung von gesellschaftlicher Vielfalt</tspan></text><text x="10" text-anchor="start" class="highcharts-subtitle" data-z-index="4" style="color:#000000;font-size:12px;fill:#000000;" y="40"><tspan>«Wie stehen Sie zu folgender Aussage: Die kulturelle Vielfalt im Kanton</tspan><tspan dy="15" x="10">Basel-Stadt erlebe ich als grosse Bereicherung.», Basel-Stadt</tspan></text><g class="highcharts-legend" data-z-index="7" transform="translate(142,71)"><rect fill="none" class="highcharts-legend-box" rx="0" ry="0" x="0" y="0" width="296" height="71" visibility="visible"></rect><g data-z-index="1"><g><g class="highcharts-legend-item highcharts-column-series highcharts-color-undefined highcharts-series-5" data-z-index="1" transform="translate(8,3)"><text x="21" style="color:#333333;font-size:12px;font-weight:normal;cursor:pointer;white-space:nowrap;fill:#333333;" text-anchor="start" data-z-index="2" y="15"><tspan>Sehr grosse</tspan></text><rect x="2" y="4" width="12" height="12" fill="#007a2f" class="highcharts-point" data-z-index="3"></rect></g><g class="highcharts-legend-item highcharts-column-series highcharts-color-undefined highcharts-series-4" data-z-index="1" transform="translate(158,3)"><text x="21" y="15" style="color:#333333;font-size:12px;font-weight:normal;cursor:pointer;white-space:nowrap;fill:#333333;" text-anchor="start" data-z-index="2"><tspan>Eher grosse</tspan></text><rect x="2" y="4" width="12" height="12" fill="#68AB2B" class="highcharts-point" data-z-index="3"></rect></g><g class="highcharts-legend-item highcharts-column-series highcharts-color-undefined highcharts-series-3" data-z-index="1" transform="translate(8,23)"><text x="21" y="15" style="color:#333333;font-size:12px;font-weight:normal;cursor:pointer;white-space:nowrap;fill:#333333;" text-anchor="start" data-z-index="2"><tspan>Eher nicht so grosse</tspan></text><rect x="2" y="4" width="12" height="12" fill="#ffbb58" class="highcharts-point" data-z-index="3"></rect></g><g class="highcharts-legend-item highcharts-column-series highcharts-color-undefined highcharts-series-2" data-z-index="1" transform="translate(158,23)"><text x="21" y="15" style="color:#333333;font-size:12px;font-weight:normal;cursor:pointer;white-space:nowrap;fill:#333333;" text-anchor="start" data-z-index="2"><tspan>Gar keine</tspan></text><rect x="2" y="4" width="12" height="12" fill="#B00000" class="highcharts-point" data-z-index="3"></rect></g><g class="highcharts-legend-item highcharts-column-series highcharts-color-undefined highcharts-series-1" data-z-index="1" transform="translate(8,43)"><text x="21" y="15" style="color:#333333;font-size:12px;font-weight:normal;cursor:pointer;white-space:nowrap;fill:#333333;" text-anchor="start" data-z-index="2"><tspan>Weiss nicht</tspan></text><rect x="2" y="4" width="12" height="12" fill="#C8C8C8" class="highcharts-point" data-z-index="3"></rect></g><g class="highcharts-legend-item highcharts-column-series highcharts-color-undefined highcharts-series-0" data-z-index="1" transform="translate(158,43)"><text x="21" y="15" style="color:#333333;font-size:12px;font-weight:normal;cursor:pointer;white-space:nowrap;fill:#333333;" text-anchor="start" data-z-index="2"><tspan>Keine Angabe</tspan></text><rect x="2" y="4" width="12" height="12" fill="#6F6F6F" class="highcharts-point" data-z-index="3"></rect></g></g></g></g><g class="highcharts-axis-labels highcharts-xaxis-labels " data-z-index="7"><text x="10" style="color:#000000;cursor:default;font-size:11px;white-space:nowrap;fill:#000000;" text-anchor="start" transform="translate(0,0)" y="166" opacity="1"><tspan>2019: Total (N=2108)</tspan></text><text x="10" style="color:#000000;cursor:default;font-size:11px;white-space:nowrap;fill:#000000;" text-anchor="start" transform="translate(0,0)" y="181" opacity="1"><tspan>2019: Schweiz (N=1635)</tspan></text><text x="10" style="color:#000000;cursor:default;font-size:11px;white-space:nowrap;fill:#000000;" text-anchor="start" transform="translate(0,0)" y="196" opacity="1"><tspan>2019: Ausland (N=447)</tspan></text><text x="10" style="color:#000000;cursor:default;font-size:11px;white-space:nowrap;fill:#000000;" text-anchor="start" transform="translate(0,0)" y="218" opacity="1"></text><text x="10" style="color:#000000;cursor:default;font-size:11px;white-space:nowrap;fill:#000000;" text-anchor="start" transform="translate(0,0)" y="226" opacity="1"><tspan>2015: Total (N=1506)</tspan></text><text x="10" style="color:#000000;cursor:default;font-size:11px;white-space:nowrap;fill:#000000;" text-anchor="start" transform="translate(0,0)" y="241" opacity="1"><tspan>2015: Schweiz (N=1333)</tspan></text><text x="10" style="color:#000000;cursor:default;font-size:11px;white-space:nowrap;fill:#000000;" text-anchor="start" transform="translate(0,0)" y="256" opacity="1"><tspan>2015: Ausland (N=173)</tspan></text><text x="10" style="color:#000000;cursor:default;font-size:11px;white-space:nowrap;fill:#000000;" text-anchor="start" transform="translate(0,0)" y="278" opacity="1"></text><text x="10" style="color:#000000;cursor:default;font-size:11px;white-space:nowrap;fill:#000000;" text-anchor="start" transform="translate(0,0)" y="286" opacity="1"><tspan>2011: Total (N=1516)</tspan></text><text x="10" style="color:#000000;cursor:default;font-size:11px;white-space:nowrap;fill:#000000;" text-anchor="start" transform="translate(0,0)" y="301" opacity="1"><tspan>2011: Schweiz (N=1302)</tspan></text><text x="10" style="color:#000000;cursor:default;font-size:11px;white-space:nowrap;fill:#000000;" text-anchor="start" transform="translate(0,0)" y="316" opacity="1"><tspan>2011: Ausland (N=214)</tspan></text><text x="10" style="color:#000000;cursor:default;font-size:11px;white-space:nowrap;fill:#000000;" text-anchor="start" transform="translate(0,0)" y="339" opacity="1"></text><text x="10" style="color:#000000;cursor:default;font-size:11px;white-space:nowrap;fill:#000000;" text-anchor="start" transform="translate(0,0)" y="347" opacity="1"><tspan>2007: Total (N=1509)</tspan></text><text x="10" style="color:#000000;cursor:default;font-size:11px;white-space:nowrap;fill:#000000;" text-anchor="start" transform="translate(0,0)" y="362" opacity="1"><tspan>2007: Schweiz (N=1331)</tspan></text><text x="10" style="color:#000000;cursor:default;font-size:11px;white-space:nowrap;fill:#000000;" text-anchor="start" transform="translate(0,0)" y="377" opacity="1"><tspan>2007: Ausland (N=178)</tspan></text><text x="10" style="color:#000000;cursor:default;font-size:11px;white-space:nowrap;fill:#000000;" text-anchor="start" transform="translate(0,0)" y="399" opacity="1"></text><text x="10" style="color:#000000;cursor:default;font-size:11px;white-space:nowrap;fill:#000000;" text-anchor="start" transform="translate(0,0)" y="407" opacity="1"><tspan>2005: Total (N=1510)</tspan></text><text x="10" style="color:#000000;cursor:default;font-size:11px;white-space:nowrap;fill:#000000;" text-anchor="start" transform="translate(0,0)" y="422" opacity="1"><tspan>2005: Schweiz (N=1300)</tspan></text><text x="10" style="color:#000000;cursor:default;font-size:11px;white-space:nowrap;fill:#000000;" text-anchor="start" transform="translate(0,0)" y="437" opacity="1"><tspan>2005: Ausland (N=210)</tspan></text><text x="10" style="color:#000000;cursor:default;font-size:11px;white-space:nowrap;fill:#000000;" text-anchor="start" transform="translate(0,0)" y="459" opacity="1"></text><text x="10" style="color:#000000;cursor:default;font-size:11px;white-space:nowrap;fill:#000000;" text-anchor="start" transform="translate(0,0)" y="467" opacity="1"><tspan>2003: Total (N=1497)</tspan></text><text x="10" style="color:#000000;cursor:default;font-size:11px;white-space:nowrap;fill:#000000;" text-anchor="start" transform="translate(0,0)" y="482" opacity="1"><tspan>2003: Schweiz (N=1291)</tspan></text><text x="10" style="color:#000000;cursor:default;font-size:11px;white-space:nowrap;fill:#000000;" text-anchor="start" transform="translate(0,0)" y="497" opacity="1"><tspan>2003: Ausland (N=206)</tspan></text></g><g class="highcharts-axis-labels highcharts-yaxis-labels " data-z-index="7"><text x="150" style="color:#000000;cursor:default;font-size:11px;white-space:nowrap;fill:#000000;" text-anchor="middle" transform="translate(0,0)" y="520" opacity="1">0%</text><text x="215" style="color:#000000;cursor:default;font-size:11px;white-space:nowrap;fill:#000000;" text-anchor="middle" transform="translate(0,0)" y="520" opacity="1">20%</text><text x="280" style="color:#000000;cursor:default;font-size:11px;white-space:nowrap;fill:#000000;" text-anchor="middle" transform="translate(0,0)" y="520" opacity="1">40%</text><text x="345" style="color:#000000;cursor:default;font-size:11px;white-space:nowrap;fill:#000000;" text-anchor="middle" transform="translate(0,0)" y="520" opacity="1">60%</text><text x="410" style="color:#000000;cursor:default;font-size:11px;white-space:nowrap;fill:#000000;" text-anchor="middle" transform="translate(0,0)" y="520" opacity="1">80%</text><text x="461" style="color:#000000;cursor:default;font-size:11px;white-space:nowrap;fill:#000000;" text-anchor="middle" transform="translate(0,0)" y="520" opacity="1">100%</text></g><text x="10" class="highcharts-credits" text-anchor="start" data-z-index="8" style="cursor:default;color:#000000;font-size:10px;fill:#000000;" y="538"><tspan>Quelle: Statistisches Amt Basel-Stadt, kantonale Bevölkerungsbefragung.</tspan><tspan x="10" dy="13">Zuletzt geändert: 2020-6-22</tspan></text></svg>