<?xml version="1.0" standalone="no"?><!DOCTYPE svg PUBLIC "-//W3C//DTD SVG 1.1//EN" "http://www.w3.org/Graphics/SVG/1.1/DTD/svg11.dtd"><svg xmlns:xlink="http://www.w3.org/1999/xlink" version="1.1" class="highcharts-root" style="font-family:Arial;font-size:12px;" xmlns="http://www.w3.org/2000/svg" viewBox="0 0 485 415"><desc>Created with Highstock 6.1.1</desc><defs><clipPath id="highcharts-aahlyjn-6"><rect x="0" y="0" width="432" height="192" fill="none"></rect></clipPath><clipPath id="highcharts-aahlyjn-7"><rect x="0" y="0" width="432" height="192" fill="none"></rect></clipPath></defs><rect fill="#fbfbfb" class="highcharts-background" x="0" y="0" width="485" height="428" rx="0" ry="0"></rect><rect fill="none" class="highcharts-plot-background" x="43" y="159" width="432" height="192"></rect><g class="highcharts-pane-group" data-z-index="0"></g><g class="highcharts-grid highcharts-xaxis-grid " data-z-index="1"><path fill="none" data-z-index="1" class="highcharts-grid-line" d="M 44.5 159 L 44.5 351" opacity="1"></path><path fill="none" data-z-index="1" class="highcharts-grid-line" d="M 87.5 159 L 87.5 351" opacity="1"></path><path fill="none" data-z-index="1" class="highcharts-grid-line" d="M 130.5 159 L 130.5 351" opacity="1"></path><path fill="none" data-z-index="1" class="highcharts-grid-line" d="M 173.5 159 L 173.5 351" opacity="1"></path><path fill="none" data-z-index="1" class="highcharts-grid-line" d="M 217.5 159 L 217.5 351" opacity="1"></path><path fill="none" data-z-index="1" class="highcharts-grid-line" d="M 260.5 159 L 260.5 351" opacity="1"></path><path fill="none" data-z-index="1" class="highcharts-grid-line" d="M 303.5 159 L 303.5 351" opacity="1"></path><path fill="none" data-z-index="1" class="highcharts-grid-line" d="M 346.5 159 L 346.5 351" opacity="1"></path><path fill="none" data-z-index="1" class="highcharts-grid-line" d="M 389.5 159 L 389.5 351" opacity="1"></path><path fill="none" data-z-index="1" class="highcharts-grid-line" d="M 433.5 159 L 433.5 351" opacity="1"></path></g><g class="highcharts-grid highcharts-yaxis-grid " data-z-index="1"><path fill="none" stroke="#B9CFD7" stroke-width="0.5" data-z-index="1" class="highcharts-grid-line" d="M 43 351.25 L 475 351.25" opacity="1"></path><path fill="none" stroke="#B9CFD7" stroke-width="0.5" data-z-index="1" class="highcharts-grid-line" d="M 43 287.25 L 475 287.25" opacity="1"></path><path fill="none" stroke="#B9CFD7" stroke-width="0.5" data-z-index="1" class="highcharts-grid-line" d="M 43 223.25 L 475 223.25" opacity="1"></path><path fill="none" stroke="#B9CFD7" stroke-width="0.5" data-z-index="1" class="highcharts-grid-line" d="M 43 158.75 L 475 158.75" opacity="1"></path></g><rect fill="none" class="highcharts-plot-border" data-z-index="1" x="43" y="159" width="432" height="192"></rect><g class="highcharts-axis highcharts-xaxis " data-z-index="2"><path fill="none" class="highcharts-axis-line" stroke="#B9CFD7" stroke-width="0.5" data-z-index="7" d="M 43 351.25 L 475 351.25"></path></g><g class="highcharts-axis highcharts-yaxis " data-z-index="2"><path fill="none" class="highcharts-axis-line" data-z-index="7" d="M 43 159 L 43 351"></path></g><g class="highcharts-series-group" data-z-index="3"><g data-z-index="0.1" class="highcharts-series highcharts-series-0 highcharts-line-series " transform="translate(43,159) scale(1 1)" clip-path="url(#highcharts-aahlyjn-7)"><path fill="none" d="M 1.8 151.04 L 5.4 151.04 L 9 151.36 L 12.6 151.36 L 16.2 150.4 L 19.8 151.04 L 23.4 149.76 L 27 152 L 30.6 153.28 L 34.2 156.8 L 37.8 159.68 L 41.4 158.72 L 45 161.92 L 48.6 164.16 L 52.2 164.48 L 55.8 166.4 L 59.4 165.44 L 63 164.16 L 66.6 163.2 L 70.2 167.36 L 73.8 165.76 L 77.4 166.4 L 81 166.72 L 84.6 165.44 L 88.2 162.24 L 91.8 159.04 L 95.4 159.68 L 99 156.16 L 102.6 154.24 L 106.2 155.84 L 109.8 154.56 L 113.4 152.64 L 117 150.72 L 120.6 150.72 L 124.2 149.76 L 127.8 152 L 131.4 148.16 L 135 149.12 L 138.6 149.12 L 142.2 146.56 L 145.8 149.44 L 149.4 151.36 L 153 150.72 L 156.6 154.56 L 160.2 152 L 163.8 153.28 L 167.4 150.72 L 171 151.04 L 174.6 152.32 L 178.2 154.24 L 181.8 153.92000000000002 L 185.4 152.32 L 189 155.84 L 192.6 158.4 L 196.2 160 L 199.8 159.04 L 203.4 156.16 L 207 156.16 L 210.6 156.16 L 214.2 155.2 L 217.8 153.6 L 221.4 154.24 L 225 154.24 L 228.6 152.32 L 232.2 152.96 L 235.8 155.84 L 239.4 153.6 L 243 152.64 L 246.6 153.92000000000002 L 250.2 152.64 L 253.8 155.84 L 257.4 156.8 L 261 157.44 L 264.6 153.28 L 268.2 155.2 L 271.8 151.68 L 275.4 151.04 L 279 149.44 L 282.6 153.28 L 286.2 149.44 L 289.8 148.48 L 293.4 148.8 L 297 150.4 L 300.6 150.72 L 304.2 149.76 L 307.8 150.4 L 311.4 151.68 L 315 153.6 L 318.6 154.24 L 322.2 152.32 L 325.8 151.04 L 329.4 148.48 L 333 149.12 L 336.6 150.72 L 340.2 152.32 L 343.8 151.04 L 347.4 151.68 L 351 151.36 L 354.6 154.24 L 358.2 156.8 L 361.8 160 L 365.4 158.4 L 369 157.44 L 372.6 155.2 L 376.2 155.2 L 379.8 155.2 L 383.4 155.84 L 387 153.28 L 390.6 151.36 L 394.2 154.56 L 397.8 157.12 L 401.4 158.07999999999998 L 405 158.07999999999998 L 408.6 156.16 L 412.2 157.44 L 415.8 157.12 L 419.4 157.44 L 423 159.68 L 426.6 159.36 L 430.2 157.44" class="highcharts-graph" data-z-index="1" stroke="#FFBB58" stroke-width="2" stroke-linejoin="round" stroke-linecap="round"></path></g><g data-z-index="0.1" class="highcharts-markers highcharts-series-0 highcharts-line-series " transform="translate(43,159) scale(1 1)" clip-path="none"></g><g data-z-index="0.1" class="highcharts-series highcharts-series-1 highcharts-line-series " transform="translate(43,159) scale(1 1)" clip-path="url(#highcharts-aahlyjn-7)"><path fill="none" d="M 1.8 105.28 L 5.4 107.84 L 9 109.44 L 12.6 112 L 16.2 115.2 L 19.8 120.32 L 23.4 122.56 L 27 118.08 L 30.6 117.44 L 34.2 118.08 L 37.8 118.72 L 41.4 115.52 L 45 110.08 L 48.6 113.6 L 52.2 112.96 L 55.8 115.2 L 59.4 121.28 L 63 120.32 L 66.6 115.52 L 70.2 116.16 L 73.8 111.67999999999999 L 77.4 108.16 L 81 108.8 L 84.6 105.92 L 88.2 100.16 L 91.8 97.6 L 95.4 100.48 L 99 102.39999999999999 L 102.6 97.28 L 106.2 103.03999999999999 L 109.8 110.72 L 113.4 112 L 117 108.16 L 120.6 104 L 124.2 101.44 L 127.8 96.64 L 131.4 96 L 135 96.96 L 138.6 95.03999999999999 L 142.2 96.32 L 145.8 94.72 L 149.4 98.88 L 153 95.03999999999999 L 156.6 89.6 L 160.2 90.56 L 163.8 93.44 L 167.4 92.16 L 171 87.03999999999999 L 174.6 82.24 L 178.2 80.64 L 181.8 84.16 L 185.4 89.6 L 189 97.28 L 192.6 96.64 L 196.2 91.52 L 199.8 99.2 L 203.4 101.76 L 207 98.24 L 210.6 96.96 L 214.2 96.96 L 217.8 92.16 L 221.4 94.08 L 225 89.92 L 228.6 86.39999999999999 L 232.2 88.64 L 235.8 88.64 L 239.4 87.03999999999999 L 243 84.8 L 246.6 81.28 L 250.2 85.12 L 253.8 88.32 L 257.4 82.24 L 261 76.16 L 264.6 76.8 L 268.2 79.36 L 271.8 75.52 L 275.4 76.8 L 279 77.75999999999999 L 282.6 78.39999999999999 L 286.2 78.08 L 289.8 78.39999999999999 L 293.4 80 L 297 83.2 L 300.6 83.84 L 304.2 81.28 L 307.8 85.12 L 311.4 86.72 L 315 83.2 L 318.6 92.48 L 322.2 89.6 L 325.8 88.96 L 329.4 89.92 L 333 93.12 L 336.6 92.8 L 340.2 98.56 L 343.8 99.52 L 347.4 96.64 L 351 94.72 L 354.6 90.88 L 358.2 90.24 L 361.8 90.56 L 365.4 89.6 L 369 90.24 L 372.6 95.03999999999999 L 376.2 102.08 L 379.8 107.84 L 383.4 108.16 L 387 101.12 L 390.6 97.6 L 394.2 102.39999999999999 L 397.8 103.67999999999999 L 401.4 102.08 L 405 105.92 L 408.6 102.39999999999999 L 412.2 104.64 L 415.8 104.32 L 419.4 109.12 L 423 105.92 L 426.6 103.67999999999999 L 430.2 101.12" class="highcharts-graph" data-z-index="1" stroke="#FF8028" stroke-width="2" stroke-linejoin="round" stroke-linecap="round"></path></g><g data-z-index="0.1" class="highcharts-markers highcharts-series-1 highcharts-line-series " transform="translate(43,159) scale(1 1)" clip-path="none"></g><g data-z-index="0.1" class="highcharts-series highcharts-series-2 highcharts-line-series " transform="translate(43,159) scale(1 1)" clip-path="url(#highcharts-aahlyjn-7)"><path fill="none" d="M 1.8 110.39999999999999 L 5.4 111.36 L 9 114.56 L 12.6 116.8 L 16.2 111.36 L 19.8 113.28 L 23.4 111.67999999999999 L 27 112.32 L 30.6 114.24 L 34.2 117.12 L 37.8 113.6 L 41.4 112.96 L 45 112.96 L 48.6 111.36 L 52.2 110.39999999999999 L 55.8 119.03999999999999 L 59.4 116.16 L 63 117.44 L 66.6 120.32 L 70.2 116.16 L 73.8 114.24 L 77.4 117.12 L 81 116.16 L 84.6 115.2 L 88.2 115.2 L 91.8 117.44 L 95.4 121.6 L 99 117.12 L 102.6 114.24 L 106.2 120.32 L 109.8 121.28 L 113.4 123.2 L 117 118.39999999999999 L 120.6 118.08 L 124.2 113.6 L 127.8 111.03999999999999 L 131.4 110.39999999999999 L 135 107.52 L 138.6 109.12 L 142.2 109.44 L 145.8 112.64 L 149.4 115.52 L 153 120 L 156.6 118.39999999999999 L 160.2 115.2 L 163.8 108.48 L 167.4 110.39999999999999 L 171 106.24 L 174.6 105.6 L 178.2 102.72 L 181.8 105.6 L 185.4 105.28 L 189 110.08 L 192.6 112 L 196.2 115.84 L 199.8 116.16 L 203.4 118.08 L 207 114.88 L 210.6 111.67999999999999 L 214.2 104.64 L 217.8 99.84 L 221.4 99.84 L 225 98.24 L 228.6 103.36 L 232.2 104 L 235.8 107.84 L 239.4 108.48 L 243 109.76 L 246.6 111.03999999999999 L 250.2 108.48 L 253.8 105.28 L 257.4 96.96 L 261 96.64 L 264.6 90.56 L 268.2 98.24 L 271.8 95.67999999999999 L 275.4 96.64 L 279 100.16 L 282.6 104 L 286.2 107.84 L 289.8 105.28 L 293.4 102.08 L 297 95.03999999999999 L 300.6 94.72 L 304.2 97.92 L 307.8 98.56 L 311.4 102.39999999999999 L 315 105.28 L 318.6 112.64 L 322.2 112 L 325.8 113.28 L 329.4 116.16 L 333 115.84 L 336.6 113.6 L 340.2 116.48 L 343.8 116.16 L 347.4 111.67999999999999 L 351 116.48 L 354.6 108.48 L 358.2 105.92 L 361.8 112.96 L 365.4 116.48 L 369 119.36 L 372.6 118.72 L 376.2 122.88 L 379.8 125.44 L 383.4 121.92 L 387 122.24 L 390.6 118.72 L 394.2 119.03999999999999 L 397.8 118.08 L 401.4 120.64 L 405 122.88 L 408.6 128 L 412.2 135.68 L 415.8 134.72 L 419.4 132.48 L 423 130.56 L 426.6 125.44 L 430.2 122.24" class="highcharts-graph" data-z-index="1" stroke="#DC440E" stroke-width="2" stroke-linejoin="round" stroke-linecap="round"></path></g><g data-z-index="0.1" class="highcharts-markers highcharts-series-2 highcharts-line-series " transform="translate(43,159) scale(1 1)" clip-path="none"></g><g data-z-index="0.1" class="highcharts-series highcharts-series-3 highcharts-line-series " transform="translate(43,159) scale(1 1)" clip-path="url(#highcharts-aahlyjn-7)"><path fill="none" d="M 1.8 49.91999999999999 L 5.4 61.120000000000005 L 9 73.28 L 12.6 93.12 L 16.2 100.48 L 19.8 118.39999999999999 L 23.4 126.4 L 27 122.56 L 30.6 111.67999999999999 L 34.2 101.12 L 37.8 81.28 L 41.4 29.120000000000005 L 45 32.96000000000001 L 48.6 53.75999999999999 L 52.2 63.03999999999999 L 55.8 90.56 L 59.4 110.08 L 63 127.03999999999999 L 66.6 139.84 L 70.2 146.56 L 73.8 153.28 L 77.4 159.04 L 81 161.28 L 84.6 162.88 L 88.2 165.44 L 91.8 166.72 L 95.4 167.04 L 99 169.6 L 102.6 169.6 L 106.2 170.88 L 109.8 171.2 L 113.4 172.48 L 117 176 L 120.6 177.28 L 124.2 180.8 L 127.8 181.12 L 131.4 180.48 L 135 181.76 L 138.6 182.08 L 142.2 183.68 L 145.8 184 L 149.4 182.08 L 153 181.44 L 156.6 180.8 L 160.2 181.76 L 163.8 180.48 L 167.4 180.16 L 171 179.2 L 174.6 180.48 L 178.2 180.16 L 181.8 180.8 L 185.4 182.4 L 189 182.4 L 192.6 183.36 L 196.2 184 L 199.8 184.64 L 203.4 185.92 L 207 185.92 L 210.6 183.68 L 214.2 182.72 L 217.8 181.76 L 221.4 181.44 L 225 180.16 L 228.6 183.04 L 232.2 183.36 L 235.8 181.76 L 239.4 184 L 243 183.36 L 246.6 183.04 L 250.2 182.72 L 253.8 183.04 L 257.4 182.08 L 261 181.44 L 264.6 181.12 L 268.2 182.4 L 271.8 182.72 L 275.4 184.96 L 279 186.88 L 282.6 187.52 L 286.2 186.88 L 289.8 186.56 L 293.4 184 L 297 182.72 L 300.6 181.44 L 304.2 176.96 L 307.8 179.2 L 311.4 178.88 L 315 181.12 L 318.6 181.76 L 322.2 182.4 L 325.8 183.36 L 329.4 184 L 333 182.72 L 336.6 180.8 L 340.2 179.84 L 343.8 172.48 L 347.4 172.8 L 351 173.76 L 354.6 177.6 L 358.2 181.12 L 361.8 182.72 L 365.4 183.36 L 369 184.96 L 372.6 185.28 L 376.2 185.6 L 379.8 184.64 L 383.4 182.72 L 387 178.56 L 390.6 177.92 L 394.2 178.56 L 397.8 179.2 L 401.4 180.48 L 405 178.88 L 408.6 183.04 L 412.2 184.32 L 415.8 185.92 L 419.4 186.24 L 423 184.32 L 426.6 184.64 L 430.2 183.36" class="highcharts-graph" data-z-index="1" stroke="#B00000" stroke-width="2" stroke-linejoin="round" stroke-linecap="round"></path></g><g data-z-index="0.1" class="highcharts-markers highcharts-series-3 highcharts-line-series " transform="translate(43,159) scale(1 1)" clip-path="none"></g></g><text x="10" text-anchor="start" class="highcharts-title" data-z-index="4" style="color:#000000;font-size:14px;font-weight:bold;fill:#000000;" y="21"><tspan>Arbeitslose im Dienstleistungssektor (II)</tspan></text><text x="10" text-anchor="start" class="highcharts-subtitle" data-z-index="4" style="color:#000000;font-size:12px;font-weight:normal;font-family:Arial;fill:#000000;" y="40"><tspan>Basel-Stadt</tspan></text><g class="highcharts-legend" data-z-index="7" transform="translate(35,56)"><rect fill="none" class="highcharts-legend-box" rx="0" ry="0" x="0" y="0" width="309" height="91" visibility="visible"></rect><g data-z-index="1"><g><g class="highcharts-legend-item highcharts-line-series highcharts-color-undefined highcharts-series-0" data-z-index="1" transform="translate(8,3)"><path fill="none" d="M 0 11 L 16 11" class="highcharts-graph" stroke="#FFBB58" stroke-width="2"></path><text x="21" style="color:#333333;font-size:12px;font-weight:normal;cursor:pointer;fill:#333333;" text-anchor="start" data-z-index="2" y="15"><tspan>Finanz-, Versicherungs-DL</tspan></text></g><g class="highcharts-legend-item highcharts-line-series highcharts-color-undefined highcharts-series-1" data-z-index="1" transform="translate(8,23)"><path fill="none" d="M 0 11 L 16 11" class="highcharts-graph" stroke="#FF8028" stroke-width="2"></path><text x="21" y="15" style="color:#333333;font-size:12px;font-weight:normal;cursor:pointer;fill:#333333;" text-anchor="start" data-z-index="2"><tspan>Beratung, Planung, Forschung, Immobilien</tspan></text></g><g class="highcharts-legend-item highcharts-line-series highcharts-color-undefined highcharts-series-2" data-z-index="1" transform="translate(8,43)"><path fill="none" d="M 0 11 L 16 11" class="highcharts-graph" stroke="#DC440E" stroke-width="2"></path><text x="21" y="15" style="color:#333333;font-size:12px;font-weight:normal;cursor:pointer;fill:#333333;" text-anchor="start" data-z-index="2"><tspan>Geb채udebetreuung, Sicherheit, sonst. wirtsch. DL</tspan></text></g><g class="highcharts-legend-item highcharts-line-series highcharts-color-undefined highcharts-series-3" data-z-index="1" transform="translate(8,63)"><path fill="none" d="M 0 11 L 16 11" class="highcharts-graph" stroke="#B00000" stroke-width="2"></path><text x="21" y="15" style="color:#333333;font-size:12px;font-weight:normal;cursor:pointer;fill:#333333;" text-anchor="start" data-z-index="2"><tspan>Personalvermittlung, -체berlassung</tspan></text></g></g></g></g><g class="highcharts-axis-labels highcharts-xaxis-labels " data-z-index="7"><text x="44.8" style="color:#000000;cursor:default;font-size:11px;fill:#000000;" text-anchor="middle" transform="translate(0,0)" y="370" opacity="1">2010</text><text x="88" style="color:#000000;cursor:default;font-size:11px;fill:#000000;" text-anchor="middle" transform="translate(0,0)" y="370" opacity="1">2011</text><text x="131.2" style="color:#000000;cursor:default;font-size:11px;fill:#000000;" text-anchor="middle" transform="translate(0,0)" y="370" opacity="1">2012</text><text x="174.4" style="color:#000000;cursor:default;font-size:11px;fill:#000000;" text-anchor="middle" transform="translate(0,0)" y="370" opacity="1">2013</text><text x="217.6" style="color:#000000;cursor:default;font-size:11px;fill:#000000;" text-anchor="middle" transform="translate(0,0)" y="370" opacity="1">2014</text><text x="260.8" style="color:#000000;cursor:default;font-size:11px;fill:#000000;" text-anchor="middle" transform="translate(0,0)" y="370" opacity="1">2015</text><text x="304" style="color:#000000;cursor:default;font-size:11px;fill:#000000;" text-anchor="middle" transform="translate(0,0)" y="370" opacity="1">2016</text><text x="347.2" style="color:#000000;cursor:default;font-size:11px;fill:#000000;" text-anchor="middle" transform="translate(0,0)" y="370" opacity="1">2017</text><text x="390.4" style="color:#000000;cursor:default;font-size:11px;fill:#000000;" text-anchor="middle" transform="translate(0,0)" y="370" opacity="1">2018</text><text x="433.6" style="color:#000000;cursor:default;font-size:11px;fill:#000000;" text-anchor="middle" transform="translate(0,0)" y="370" opacity="1">2019</text></g><g class="highcharts-axis-labels highcharts-yaxis-labels " data-z-index="7"><text x="28" style="color:#000000;cursor:default;font-size:11px;fill:#000000;" text-anchor="end" transform="translate(0,0)" y="355" opacity="1">0</text><text x="28" style="color:#000000;cursor:default;font-size:11px;fill:#000000;" text-anchor="end" transform="translate(0,0)" y="291" opacity="1">200</text><text x="28" style="color:#000000;cursor:default;font-size:11px;fill:#000000;" text-anchor="end" transform="translate(0,0)" y="227" opacity="1">400</text><text x="28" style="color:#000000;cursor:default;font-size:11px;fill:#000000;" text-anchor="end" transform="translate(0,0)" y="163" opacity="1">600</text></g><text x="10" class="highcharts-credits" text-anchor="start" data-z-index="8" style="cursor:default;color:#000000;font-size:10px;fill:#000000;" y="403"><tspan>Quelle: Staatssekretariat f체r Wirtschaft SECO, Arbeitslosenstatistik.</tspan><tspan x="10" dy="13">Zuletzt ge채ndert: 2020-3-17</tspan></text></svg>