<?xml version="1.0" standalone="no"?><!DOCTYPE svg PUBLIC "-//W3C//DTD SVG 1.1//EN" "http://www.w3.org/Graphics/SVG/1.1/DTD/svg11.dtd"><svg xmlns:xlink="http://www.w3.org/1999/xlink" version="1.1" class="highcharts-root" style="font-family:Arial;font-size:12px;" xmlns="http://www.w3.org/2000/svg" viewBox="0 0 485 415"><desc>Created with Highstock 6.1.1</desc><defs><clipPath id="highcharts-e9sqo3s-6"><rect x="0" y="0" width="432" height="192" fill="none"></rect></clipPath><clipPath id="highcharts-e9sqo3s-7"><rect x="0" y="0" width="432" height="192" fill="none"></rect></clipPath></defs><rect fill="#fbfbfb" class="highcharts-background" x="0" y="0" width="485" height="428" rx="0" ry="0"></rect><rect fill="none" class="highcharts-plot-background" x="43" y="159" width="432" height="192"></rect><g class="highcharts-pane-group" data-z-index="0"></g><g class="highcharts-grid highcharts-xaxis-grid " data-z-index="1"><path fill="none" data-z-index="1" class="highcharts-grid-line" d="M 44.5 159 L 44.5 351" opacity="1"></path><path fill="none" data-z-index="1" class="highcharts-grid-line" d="M 87.5 159 L 87.5 351" opacity="1"></path><path fill="none" data-z-index="1" class="highcharts-grid-line" d="M 130.5 159 L 130.5 351" opacity="1"></path><path fill="none" data-z-index="1" class="highcharts-grid-line" d="M 173.5 159 L 173.5 351" opacity="1"></path><path fill="none" data-z-index="1" class="highcharts-grid-line" d="M 217.5 159 L 217.5 351" opacity="1"></path><path fill="none" data-z-index="1" class="highcharts-grid-line" d="M 260.5 159 L 260.5 351" opacity="1"></path><path fill="none" data-z-index="1" class="highcharts-grid-line" d="M 303.5 159 L 303.5 351" opacity="1"></path><path fill="none" data-z-index="1" class="highcharts-grid-line" d="M 346.5 159 L 346.5 351" opacity="1"></path><path fill="none" data-z-index="1" class="highcharts-grid-line" d="M 389.5 159 L 389.5 351" opacity="1"></path><path fill="none" data-z-index="1" class="highcharts-grid-line" d="M 433.5 159 L 433.5 351" opacity="1"></path></g><g class="highcharts-grid highcharts-yaxis-grid " data-z-index="1"><path fill="none" stroke="#B9CFD7" stroke-width="0.5" data-z-index="1" class="highcharts-grid-line" d="M 43 351.25 L 475 351.25" opacity="1"></path><path fill="none" stroke="#B9CFD7" stroke-width="0.5" data-z-index="1" class="highcharts-grid-line" d="M 43 287.25 L 475 287.25" opacity="1"></path><path fill="none" stroke="#B9CFD7" stroke-width="0.5" data-z-index="1" class="highcharts-grid-line" d="M 43 223.25 L 475 223.25" opacity="1"></path><path fill="none" stroke="#B9CFD7" stroke-width="0.5" data-z-index="1" class="highcharts-grid-line" d="M 43 158.75 L 475 158.75" opacity="1"></path></g><rect fill="none" class="highcharts-plot-border" data-z-index="1" x="43" y="159" width="432" height="192"></rect><g class="highcharts-axis highcharts-xaxis " data-z-index="2"><path fill="none" class="highcharts-axis-line" stroke="#B9CFD7" stroke-width="0.5" data-z-index="7" d="M 43 351.25 L 475 351.25"></path></g><g class="highcharts-axis highcharts-yaxis " data-z-index="2"><path fill="none" class="highcharts-axis-line" data-z-index="7" d="M 43 159 L 43 351"></path></g><g class="highcharts-series-group" data-z-index="3"><g data-z-index="0.1" class="highcharts-series highcharts-series-0 highcharts-line-series " transform="translate(43,159) scale(1 1)" clip-path="url(#highcharts-e9sqo3s-7)"><path fill="none" d="M 1.8 164.48 L 5.4 166.07999999999998 L 9 163.84 L 12.6 164.8 L 16.2 165.44 L 19.8 163.2 L 23.4 160.32 L 27 163.2 L 30.6 163.84 L 34.2 163.52 L 37.8 163.2 L 41.4 163.2 L 45 166.07999999999998 L 48.6 168 L 52.2 168.64 L 55.8 168.32 L 59.4 170.24 L 63 170.56 L 66.6 169.28 L 70.2 171.52 L 73.8 173.12 L 77.4 173.12 L 81 173.12 L 84.6 172.8 L 88.2 173.76 L 91.8 174.07999999999998 L 95.4 173.44 L 99 175.68 L 102.6 176 L 106.2 174.4 L 109.8 172.16 L 113.4 171.52 L 117 169.92 L 120.6 170.88 L 124.2 172.8 L 127.8 173.44 L 131.4 173.76 L 135 175.04 L 138.6 174.72 L 142.2 172.8 L 145.8 174.72 L 149.4 175.04 L 153 173.44 L 156.6 170.88 L 160.2 169.92 L 163.8 166.07999999999998 L 167.4 168.32 L 171 166.07999999999998 L 174.6 162.24 L 178.2 160.96 L 181.8 163.52 L 185.4 167.68 L 189 166.4 L 192.6 168 L 196.2 164.8 L 199.8 160.32 L 203.4 160.32 L 207 162.56 L 210.6 163.52 L 214.2 162.24 L 217.8 162.56 L 221.4 165.44 L 225 166.07999999999998 L 228.6 168 L 232.2 168.96 L 235.8 168.96 L 239.4 168 L 243 166.72 L 246.6 167.68 L 250.2 166.4 L 253.8 166.4 L 257.4 165.76 L 261 164.16 L 264.6 164.8 L 268.2 164.48 L 271.8 164.8 L 275.4 166.07999999999998 L 279 166.4 L 282.6 167.04 L 286.2 168.96 L 289.8 166.4 L 293.4 166.07999999999998 L 297 168 L 300.6 167.36 L 304.2 166.4 L 307.8 166.4 L 311.4 166.4 L 315 167.36 L 318.6 166.07999999999998 L 322.2 166.4 L 325.8 165.44 L 329.4 166.07999999999998 L 333 168.64 L 336.6 168.64 L 340.2 169.92 L 343.8 169.92 L 347.4 166.07999999999998 L 351 166.07999999999998 L 354.6 166.72 L 358.2 168.64 L 361.8 170.24 L 365.4 167.36 L 369 165.44 L 372.6 164.16 L 376.2 166.07999999999998 L 379.8 161.92 L 383.4 162.56 L 387 165.44 L 390.6 165.44 L 394.2 167.36 L 397.8 167.04 L 401.4 166.4 L 405 166.72 L 408.6 167.36 L 412.2 167.36 L 415.8 168.64 L 419.4 165.12 L 423 167.68 L 426.6 171.2 L 430.2 171.52" class="highcharts-graph" data-z-index="1" stroke="#C8C8C8" stroke-width="2" stroke-linejoin="round" stroke-linecap="round"></path></g><g data-z-index="0.1" class="highcharts-markers highcharts-series-0 highcharts-line-series " transform="translate(43,159) scale(1 1)" clip-path="none"></g><g data-z-index="0.1" class="highcharts-series highcharts-series-1 highcharts-line-series " transform="translate(43,159) scale(1 1)" clip-path="url(#highcharts-e9sqo3s-7)"><path fill="none" d="M 1.8 165.44 L 5.4 166.07999999999998 L 9 162.56 L 12.6 161.6 L 16.2 163.84 L 19.8 149.12 L 23.4 137.6 L 27 133.44 L 30.6 134.72 L 34.2 135.68 L 37.8 137.28 L 41.4 136.32 L 45 136.96 L 48.6 141.76 L 52.2 144.64 L 55.8 146.24 L 59.4 150.07999999999998 L 63 150.72 L 66.6 149.44 L 70.2 151.04 L 73.8 151.04 L 77.4 152.64 L 81 156.48 L 84.6 158.07999999999998 L 88.2 156.16 L 91.8 160 L 95.4 162.24 L 99 166.72 L 102.6 167.04 L 106.2 163.52 L 109.8 159.36 L 113.4 157.44 L 117 156.16 L 120.6 157.76 L 124.2 159.04 L 127.8 159.04 L 131.4 154.88 L 135 153.92000000000002 L 138.6 155.2 L 142.2 158.4 L 145.8 159.68 L 149.4 159.04 L 153 153.6 L 156.6 152.64 L 160.2 149.12 L 163.8 147.51999999999998 L 167.4 151.04 L 171 151.36 L 174.6 148.8 L 178.2 146.56 L 181.8 148.48 L 185.4 150.07999999999998 L 189 153.92000000000002 L 192.6 150.72 L 196.2 143.68 L 199.8 147.2 L 203.4 147.2 L 207 143.04 L 210.6 144.96 L 214.2 142.4 L 217.8 143.36 L 221.4 143.36 L 225 144.96 L 228.6 146.88 L 232.2 146.88 L 235.8 148.16 L 239.4 140.8 L 243 139.2 L 246.6 141.76 L 250.2 144.64 L 253.8 145.6 L 257.4 144 L 261 142.72 L 264.6 143.04 L 268.2 141.12 L 271.8 145.28 L 275.4 144 L 279 145.92000000000002 L 282.6 142.72 L 286.2 136.96 L 289.8 137.6 L 293.4 140.16 L 297 144.64 L 300.6 148.48 L 304.2 143.68 L 307.8 141.44 L 311.4 141.44 L 315 139.84 L 318.6 140.16 L 322.2 139.51999999999998 L 325.8 139.51999999999998 L 329.4 131.84 L 333 131.51999999999998 L 336.6 136.96 L 340.2 140.8 L 343.8 143.68 L 347.4 141.76 L 351 143.36 L 354.6 143.68 L 358.2 142.4 L 361.8 143.04 L 365.4 143.68 L 369 139.51999999999998 L 372.6 137.28 L 376.2 140.8 L 379.8 142.72 L 383.4 142.07999999999998 L 387 142.72 L 390.6 144 L 394.2 141.12 L 397.8 141.44 L 401.4 143.04 L 405 145.6 L 408.6 147.51999999999998 L 412.2 139.2 L 415.8 137.92000000000002 L 419.4 141.12 L 423 145.92000000000002 L 426.6 148.16 L 430.2 149.12" class="highcharts-graph" data-z-index="1" stroke="#008AC3" stroke-width="2" stroke-linejoin="round" stroke-linecap="round"></path></g><g data-z-index="0.1" class="highcharts-markers highcharts-series-1 highcharts-line-series " transform="translate(43,159) scale(1 1)" clip-path="none"></g><g data-z-index="0.1" class="highcharts-series highcharts-series-2 highcharts-line-series " transform="translate(43,159) scale(1 1)" clip-path="url(#highcharts-e9sqo3s-7)"><path fill="none" d="M 1.8 126.72 L 5.4 128.32 L 9 128.96 L 12.6 125.76 L 16.2 123.84 L 19.8 114.88 L 23.4 107.84 L 27 109.44 L 30.6 103.03999999999999 L 34.2 97.92 L 37.8 98.24 L 41.4 96.32 L 45 98.24 L 48.6 104.96 L 52.2 109.44 L 55.8 103.36 L 59.4 104 L 63 106.88 L 66.6 97.28 L 70.2 93.75999999999999 L 73.8 91.52 L 77.4 96.64 L 81 102.08 L 84.6 103.36 L 88.2 97.92 L 91.8 102.39999999999999 L 95.4 107.2 L 99 115.2 L 102.6 111.03999999999999 L 106.2 112.32 L 109.8 105.92 L 113.4 96 L 117 97.6 L 120.6 101.76 L 124.2 105.92 L 127.8 109.44 L 131.4 107.52 L 135 110.39999999999999 L 138.6 107.52 L 142.2 106.88 L 145.8 107.84 L 149.4 106.24 L 153 99.2 L 156.6 92.16 L 160.2 90.24 L 163.8 89.6 L 167.4 90.24 L 171 90.88 L 174.6 90.24 L 178.2 93.44 L 181.8 91.52 L 185.4 89.92 L 189 92.48 L 192.6 102.39999999999999 L 196.2 93.44 L 199.8 88.96 L 203.4 85.75999999999999 L 207 85.44 L 210.6 87.03999999999999 L 214.2 83.52 L 217.8 87.36 L 221.4 89.6 L 225 88 L 228.6 91.52 L 232.2 96 L 235.8 100.48 L 239.4 93.75999999999999 L 243 90.88 L 246.6 89.6 L 250.2 97.28 L 253.8 95.67999999999999 L 257.4 97.92 L 261 90.56 L 264.6 95.36 L 268.2 92.8 L 271.8 93.44 L 275.4 97.92 L 279 99.84 L 282.6 96.96 L 286.2 88.64 L 289.8 84.16 L 293.4 86.08 L 297 88 L 300.6 96 L 304.2 101.44 L 307.8 90.56 L 311.4 89.92 L 315 87.67999999999999 L 318.6 84.48 L 322.2 88.96 L 325.8 88.32 L 329.4 81.6 L 333 85.44 L 336.6 86.08 L 340.2 83.52 L 343.8 83.84 L 347.4 75.2 L 351 77.12 L 354.6 77.75999999999999 L 358.2 74.56 L 361.8 78.08 L 365.4 76.8 L 369 75.2 L 372.6 64.96 L 376.2 70.72 L 379.8 70.08 L 383.4 71.03999999999999 L 387 70.39999999999999 L 390.6 71.03999999999999 L 394.2 75.84 L 397.8 76.16 L 401.4 80 L 405 84.48 L 408.6 81.28 L 412.2 80.96 L 415.8 70.72 L 419.4 76.16 L 423 74.24 L 426.6 81.6 L 430.2 87.67999999999999" class="highcharts-graph" data-z-index="1" stroke="#6F6F6F" stroke-width="2" stroke-linejoin="round" stroke-linecap="round"></path></g><g data-z-index="0.1" class="highcharts-markers highcharts-series-2 highcharts-line-series " transform="translate(43,159) scale(1 1)" clip-path="none"></g><g data-z-index="0.1" class="highcharts-series highcharts-series-3 highcharts-line-series " transform="translate(43,159) scale(1 1)" clip-path="url(#highcharts-e9sqo3s-7)"><path fill="none" d="M 1.8 146.24 L 5.4 148.8 L 9 144.64 L 12.6 145.92000000000002 L 16.2 148.16 L 19.8 146.88 L 23.4 138.56 L 27 140.48 L 30.6 135.68 L 34.2 136 L 37.8 138.24 L 41.4 132.48 L 45 128.32 L 48.6 129.28 L 52.2 130.24 L 55.8 130.56 L 59.4 131.84 L 63 126.08 L 66.6 121.92 L 70.2 121.28 L 73.8 121.28 L 77.4 122.88 L 81 121.6 L 84.6 118.08 L 88.2 111.36 L 91.8 105.28 L 95.4 103.67999999999999 L 99 113.28 L 102.6 116.16 L 106.2 119.36 L 109.8 119.03999999999999 L 113.4 120 L 117 126.08 L 120.6 129.6 L 124.2 128 L 127.8 127.67999999999999 L 131.4 124.48 L 135 125.44 L 138.6 122.56 L 142.2 122.24 L 145.8 122.24 L 149.4 126.4 L 153 124.8 L 156.6 124.8 L 160.2 125.12 L 163.8 127.03999999999999 L 167.4 127.36 L 171 125.44 L 174.6 125.12 L 178.2 126.72 L 181.8 127.03999999999999 L 185.4 130.88 L 189 136.64 L 192.6 134.4 L 196.2 130.88 L 199.8 131.84 L 203.4 135.04 L 207 137.92000000000002 L 210.6 135.68 L 214.2 133.12 L 217.8 135.68 L 221.4 138.56 L 225 141.76 L 228.6 143.36 L 232.2 142.07999999999998 L 235.8 141.12 L 239.4 139.51999999999998 L 243 138.88 L 246.6 137.28 L 250.2 137.28 L 253.8 136 L 257.4 135.36 L 261 133.76 L 264.6 136.64 L 268.2 137.6 L 271.8 135.36 L 275.4 134.72 L 279 133.12 L 282.6 130.56 L 286.2 127.36 L 289.8 126.72 L 293.4 127.03999999999999 L 297 127.03999999999999 L 300.6 130.24 L 304.2 128.64 L 307.8 127.67999999999999 L 311.4 127.36 L 315 124.8 L 318.6 125.12 L 322.2 130.88 L 325.8 134.4 L 329.4 133.76 L 333 138.24 L 336.6 136 L 340.2 134.4 L 343.8 135.68 L 347.4 131.2 L 351 133.12 L 354.6 134.4 L 358.2 137.92000000000002 L 361.8 137.92000000000002 L 365.4 135.68 L 369 137.28 L 372.6 135.04 L 376.2 138.88 L 379.8 138.56 L 383.4 139.84 L 387 137.6 L 390.6 141.12 L 394.2 144 L 397.8 139.2 L 401.4 140.16 L 405 142.07999999999998 L 408.6 145.6 L 412.2 144.32 L 415.8 147.51999999999998 L 419.4 148.16 L 423 146.88 L 426.6 145.92000000000002 L 430.2 145.28" class="highcharts-graph" data-z-index="1" stroke="#2B0099" stroke-width="2" stroke-linejoin="round" stroke-linecap="round"></path></g><g data-z-index="0.1" class="highcharts-markers highcharts-series-3 highcharts-line-series " transform="translate(43,159) scale(1 1)" clip-path="none"></g></g><text x="10" text-anchor="start" class="highcharts-title" data-z-index="4" style="color:#000000;font-size:14px;font-weight:bold;fill:#000000;" y="21"><tspan>Arbeitslose im Dienstleistungssektor (III)</tspan></text><text x="10" text-anchor="start" class="highcharts-subtitle" data-z-index="4" style="color:#000000;font-size:12px;font-weight:normal;font-family:Arial;fill:#000000;" y="40"><tspan>Basel-Stadt</tspan></text><g class="highcharts-legend" data-z-index="7" transform="translate(35,56)"><rect fill="none" class="highcharts-legend-box" rx="0" ry="0" x="0" y="0" width="283" height="91" visibility="visible"></rect><g data-z-index="1"><g><g class="highcharts-legend-item highcharts-line-series highcharts-color-undefined highcharts-series-0" data-z-index="1" transform="translate(8,3)"><path fill="none" d="M 0 11 L 16 11" class="highcharts-graph" stroke="#C8C8C8" stroke-width="2"></path><text x="21" style="color:#333333;font-size:12px;font-weight:normal;cursor:pointer;fill:#333333;" text-anchor="start" data-z-index="2" y="15"><tspan>Öffentliche Verwaltung, Sozialversicherungen</tspan></text></g><g class="highcharts-legend-item highcharts-line-series highcharts-color-undefined highcharts-series-1" data-z-index="1" transform="translate(8,23)"><path fill="none" d="M 0 11 L 16 11" class="highcharts-graph" stroke="#008AC3" stroke-width="2"></path><text x="21" y="15" style="color:#333333;font-size:12px;font-weight:normal;cursor:pointer;fill:#333333;" text-anchor="start" data-z-index="2"><tspan>Erziehung, Unterricht</tspan></text></g><g class="highcharts-legend-item highcharts-line-series highcharts-color-undefined highcharts-series-2" data-z-index="1" transform="translate(8,43)"><path fill="none" d="M 0 11 L 16 11" class="highcharts-graph" stroke="#6F6F6F" stroke-width="2"></path><text x="21" y="15" style="color:#333333;font-size:12px;font-weight:normal;cursor:pointer;fill:#333333;" text-anchor="start" data-z-index="2"><tspan>Gesundheits-, Sozialwesen</tspan></text></g><g class="highcharts-legend-item highcharts-line-series highcharts-color-undefined highcharts-series-3" data-z-index="1" transform="translate(8,63)"><path fill="none" d="M 0 11 L 16 11" class="highcharts-graph" stroke="#2B0099" stroke-width="2"></path><text x="21" y="15" style="color:#333333;font-size:12px;font-weight:normal;cursor:pointer;fill:#333333;" text-anchor="start" data-z-index="2"><tspan>Kultur, Unterhaltung, pers. DL</tspan></text></g></g></g></g><g class="highcharts-axis-labels highcharts-xaxis-labels " data-z-index="7"><text x="44.8" style="color:#000000;cursor:default;font-size:11px;fill:#000000;" text-anchor="middle" transform="translate(0,0)" y="370" opacity="1">2009</text><text x="88" style="color:#000000;cursor:default;font-size:11px;fill:#000000;" text-anchor="middle" transform="translate(0,0)" y="370" opacity="1">2010</text><text x="131.2" style="color:#000000;cursor:default;font-size:11px;fill:#000000;" text-anchor="middle" transform="translate(0,0)" y="370" opacity="1">2011</text><text x="174.4" style="color:#000000;cursor:default;font-size:11px;fill:#000000;" text-anchor="middle" transform="translate(0,0)" y="370" opacity="1">2012</text><text x="217.6" style="color:#000000;cursor:default;font-size:11px;fill:#000000;" text-anchor="middle" transform="translate(0,0)" y="370" opacity="1">2013</text><text x="260.8" style="color:#000000;cursor:default;font-size:11px;fill:#000000;" text-anchor="middle" transform="translate(0,0)" y="370" opacity="1">2014</text><text x="304" style="color:#000000;cursor:default;font-size:11px;fill:#000000;" text-anchor="middle" transform="translate(0,0)" y="370" opacity="1">2015</text><text x="347.2" style="color:#000000;cursor:default;font-size:11px;fill:#000000;" text-anchor="middle" transform="translate(0,0)" y="370" opacity="1">2016</text><text x="390.4" style="color:#000000;cursor:default;font-size:11px;fill:#000000;" text-anchor="middle" transform="translate(0,0)" y="370" opacity="1">2017</text><text x="433.6" style="color:#000000;cursor:default;font-size:11px;fill:#000000;" text-anchor="middle" transform="translate(0,0)" y="370" opacity="1">2018</text></g><g class="highcharts-axis-labels highcharts-yaxis-labels " data-z-index="7"><text x="28" style="color:#000000;cursor:default;font-size:11px;fill:#000000;" text-anchor="end" transform="translate(0,0)" y="355" opacity="1">0</text><text x="28" style="color:#000000;cursor:default;font-size:11px;fill:#000000;" text-anchor="end" transform="translate(0,0)" y="291" opacity="1">200</text><text x="28" style="color:#000000;cursor:default;font-size:11px;fill:#000000;" text-anchor="end" transform="translate(0,0)" y="227" opacity="1">400</text><text x="28" style="color:#000000;cursor:default;font-size:11px;fill:#000000;" text-anchor="end" transform="translate(0,0)" y="163" opacity="1">600</text></g><text x="10" class="highcharts-credits" text-anchor="start" data-z-index="8" style="cursor:default;color:#000000;font-size:10px;fill:#000000;" y="403"><tspan>Quelle: Staatssekretariat für Wirtschaft SECO, Arbeitslosenstatistik.</tspan><tspan x="10" dy="13">Zuletzt geändert: 2019-3-25</tspan></text></svg>