<?xml version="1.0" standalone="no"?><!DOCTYPE svg PUBLIC "-//W3C//DTD SVG 1.1//EN" "http://www.w3.org/Graphics/SVG/1.1/DTD/svg11.dtd"><svg xmlns:xlink="http://www.w3.org/1999/xlink" version="1.1" class="highcharts-root" style="font-family:Arial;font-size:12px;" xmlns="http://www.w3.org/2000/svg" viewBox="0 0 485 415"><desc>Created with Highstock 6.1.1</desc><defs><clipPath id="highcharts-cvsdcuf-6"><rect x="0" y="0" width="362" height="325" fill="none"></rect></clipPath><clipPath id="highcharts-cvsdcuf-7"><rect x="0" y="0" width="362" height="325" fill="none"></rect></clipPath></defs><rect fill="#fbfbfb" class="highcharts-background" x="0" y="0" width="485" height="563" rx="0" ry="0"></rect><rect fill="none" class="highcharts-plot-background" x="150" y="139" width="325" height="362"></rect><g class="highcharts-pane-group" data-z-index="0"></g><g class="highcharts-grid highcharts-xaxis-grid " data-z-index="1"><path fill="none" data-z-index="1" class="highcharts-grid-line" d="M 150 155.5 L 475 155.5" opacity="1"></path><path fill="none" data-z-index="1" class="highcharts-grid-line" d="M 150 170.5 L 475 170.5" opacity="1"></path><path fill="none" data-z-index="1" class="highcharts-grid-line" d="M 150 186.5 L 475 186.5" opacity="1"></path><path fill="none" data-z-index="1" class="highcharts-grid-line" d="M 150 202.5 L 475 202.5" opacity="1"></path><path fill="none" data-z-index="1" class="highcharts-grid-line" d="M 150 218.5 L 475 218.5" opacity="1"></path><path fill="none" data-z-index="1" class="highcharts-grid-line" d="M 150 233.5 L 475 233.5" opacity="1"></path><path fill="none" data-z-index="1" class="highcharts-grid-line" d="M 150 249.5 L 475 249.5" opacity="1"></path><path fill="none" data-z-index="1" class="highcharts-grid-line" d="M 150 265.5 L 475 265.5" opacity="1"></path><path fill="none" data-z-index="1" class="highcharts-grid-line" d="M 150 281.5 L 475 281.5" opacity="1"></path><path fill="none" data-z-index="1" class="highcharts-grid-line" d="M 150 296.5 L 475 296.5" opacity="1"></path><path fill="none" data-z-index="1" class="highcharts-grid-line" d="M 150 312.5 L 475 312.5" opacity="1"></path><path fill="none" data-z-index="1" class="highcharts-grid-line" d="M 150 328.5 L 475 328.5" opacity="1"></path><path fill="none" data-z-index="1" class="highcharts-grid-line" d="M 150 344.5 L 475 344.5" opacity="1"></path><path fill="none" data-z-index="1" class="highcharts-grid-line" d="M 150 359.5 L 475 359.5" opacity="1"></path><path fill="none" data-z-index="1" class="highcharts-grid-line" d="M 150 375.5 L 475 375.5" opacity="1"></path><path fill="none" data-z-index="1" class="highcharts-grid-line" d="M 150 391.5 L 475 391.5" opacity="1"></path><path fill="none" data-z-index="1" class="highcharts-grid-line" d="M 150 407.5 L 475 407.5" opacity="1"></path><path fill="none" data-z-index="1" class="highcharts-grid-line" d="M 150 422.5 L 475 422.5" opacity="1"></path><path fill="none" data-z-index="1" class="highcharts-grid-line" d="M 150 438.5 L 475 438.5" opacity="1"></path><path fill="none" data-z-index="1" class="highcharts-grid-line" d="M 150 454.5 L 475 454.5" opacity="1"></path><path fill="none" data-z-index="1" class="highcharts-grid-line" d="M 150 470.5 L 475 470.5" opacity="1"></path><path fill="none" data-z-index="1" class="highcharts-grid-line" d="M 150 485.5 L 475 485.5" opacity="1"></path><path fill="none" data-z-index="1" class="highcharts-grid-line" d="M 150 501.5 L 475 501.5" opacity="1"></path><path fill="none" data-z-index="1" class="highcharts-grid-line" d="M 150 139.5 L 475 139.5" opacity="1"></path></g><g class="highcharts-grid highcharts-yaxis-grid " data-z-index="1"><path fill="none" stroke="#B9CFD7" stroke-width="0.5" data-z-index="1" class="highcharts-grid-line" d="M 149.75 139 L 149.75 501" opacity="1"></path><path fill="none" stroke="#B9CFD7" stroke-width="0.5" data-z-index="1" class="highcharts-grid-line" d="M 214.75 139 L 214.75 501" opacity="1"></path><path fill="none" stroke="#B9CFD7" stroke-width="0.5" data-z-index="1" class="highcharts-grid-line" d="M 279.75 139 L 279.75 501" opacity="1"></path><path fill="none" stroke="#B9CFD7" stroke-width="0.5" data-z-index="1" class="highcharts-grid-line" d="M 344.75 139 L 344.75 501" opacity="1"></path><path fill="none" stroke="#B9CFD7" stroke-width="0.5" data-z-index="1" class="highcharts-grid-line" d="M 409.75 139 L 409.75 501" opacity="1"></path><path fill="none" stroke="#B9CFD7" stroke-width="0.5" data-z-index="1" class="highcharts-grid-line" d="M 475.25 139 L 475.25 501" opacity="1"></path></g><rect fill="none" class="highcharts-plot-border" data-z-index="1" x="150" y="139" width="325" height="362"></rect><g class="highcharts-axis highcharts-xaxis " data-z-index="2"><path fill="none" class="highcharts-axis-line" stroke="#B9CFD7" stroke-width="0.5" data-z-index="7" d="M 149.75 139 L 149.75 501"></path></g><g class="highcharts-axis highcharts-yaxis " data-z-index="2"><path fill="none" class="highcharts-axis-line" data-z-index="7" d="M 150 501 L 475 501"></path></g><g class="highcharts-series-group" data-z-index="3"><g data-z-index="0.1" class="highcharts-series highcharts-series-0 highcharts-column-series " transform="translate(475,501) rotate(90) scale(-1,1) scale(1 1)" clip-path="url(#highcharts-cvsdcuf-7)"><rect x="348" y="0" width="13" height="7" fill="#6F6F6F" class="highcharts-point"></rect><rect x="332" y="0" width="13" height="6" fill="#6F6F6F" class="highcharts-point"></rect><rect x="316" y="0" width="13" height="8" fill="#6F6F6F" class="highcharts-point"></rect><rect x="285" y="1" width="13" height="0" fill="#6F6F6F" class="highcharts-point"></rect><rect x="269" y="1" width="13" height="0" fill="#6F6F6F" class="highcharts-point"></rect><rect x="253" y="1" width="13" height="0" fill="#6F6F6F" class="highcharts-point"></rect><rect x="222" y="1" width="13" height="0" fill="#6F6F6F" class="highcharts-point"></rect><rect x="206" y="1" width="13" height="0" fill="#6F6F6F" class="highcharts-point"></rect><rect x="190" y="1" width="13" height="0" fill="#6F6F6F" class="highcharts-point"></rect><rect x="159" y="1" width="13" height="0" fill="#6F6F6F" class="highcharts-point"></rect><rect x="143" y="1" width="13" height="0" fill="#6F6F6F" class="highcharts-point"></rect><rect x="127" y="1" width="13" height="0" fill="#6F6F6F" class="highcharts-point"></rect><rect x="96" y="1" width="13" height="0" fill="#6F6F6F" class="highcharts-point"></rect><rect x="80" y="1" width="13" height="0" fill="#6F6F6F" class="highcharts-point"></rect><rect x="65" y="1" width="13" height="0" fill="#6F6F6F" class="highcharts-point"></rect><rect x="33" y="1" width="13" height="0" fill="#6F6F6F" class="highcharts-point"></rect><rect x="17" y="1" width="13" height="0" fill="#6F6F6F" class="highcharts-point"></rect><rect x="2" y="1" width="13" height="0" fill="#6F6F6F" class="highcharts-point"></rect></g><g data-z-index="0.1" class="highcharts-markers highcharts-series-0 highcharts-column-series " transform="translate(475,501) rotate(90) scale(-1,1) scale(1 1)" clip-path="none"></g><g data-z-index="0.1" class="highcharts-series highcharts-series-1 highcharts-column-series " transform="translate(475,501) rotate(90) scale(-1,1) scale(1 1)" clip-path="url(#highcharts-cvsdcuf-7)"><rect x="348" y="7" width="13" height="1" fill="#C8C8C8" class="highcharts-point"></rect><rect x="332" y="6" width="13" height="2" fill="#C8C8C8" class="highcharts-point"></rect><rect x="316" y="8" width="13" height="1" fill="#C8C8C8" class="highcharts-point"></rect><rect x="285" y="0" width="13" height="2" fill="#C8C8C8" class="highcharts-point"></rect><rect x="269" y="0" width="13" height="2" fill="#C8C8C8" class="highcharts-point"></rect><rect x="253" y="0" width="13" height="3" fill="#C8C8C8" class="highcharts-point"></rect><rect x="222" y="1" width="13" height="0" fill="#C8C8C8" class="highcharts-point"></rect><rect x="206" y="1" width="13" height="0" fill="#C8C8C8" class="highcharts-point"></rect><rect x="190" y="1" width="13" height="0" fill="#C8C8C8" class="highcharts-point"></rect><rect x="159" y="0" width="13" height="2" fill="#C8C8C8" class="highcharts-point"></rect><rect x="143" y="0" width="13" height="2" fill="#C8C8C8" class="highcharts-point"></rect><rect x="127" y="0" width="13" height="3" fill="#C8C8C8" class="highcharts-point"></rect><rect x="96" y="0" width="13" height="2" fill="#C8C8C8" class="highcharts-point"></rect><rect x="80" y="0" width="13" height="2" fill="#C8C8C8" class="highcharts-point"></rect><rect x="65" y="0" width="13" height="3" fill="#C8C8C8" class="highcharts-point"></rect><rect x="33" y="0" width="13" height="2" fill="#C8C8C8" class="highcharts-point"></rect><rect x="17" y="0" width="13" height="2" fill="#C8C8C8" class="highcharts-point"></rect><rect x="2" y="0" width="13" height="3" fill="#C8C8C8" class="highcharts-point"></rect></g><g data-z-index="0.1" class="highcharts-markers highcharts-series-1 highcharts-column-series " transform="translate(475,501) rotate(90) scale(-1,1) scale(1 1)" clip-path="none"></g><g data-z-index="0.1" class="highcharts-series highcharts-series-2 highcharts-column-series " transform="translate(475,501) rotate(90) scale(-1,1) scale(1 1)" clip-path="url(#highcharts-cvsdcuf-7)"><rect x="348" y="8" width="13" height="3" fill="#B00000" class="highcharts-point"></rect><rect x="332" y="8" width="13" height="3" fill="#B00000" class="highcharts-point"></rect><rect x="316" y="9" width="13" height="5" fill="#B00000" class="highcharts-point"></rect><rect x="285" y="2" width="13" height="2" fill="#B00000" class="highcharts-point"></rect><rect x="269" y="2" width="13" height="2" fill="#B00000" class="highcharts-point"></rect><rect x="253" y="3" width="13" height="2" fill="#B00000" class="highcharts-point"></rect><rect x="222" y="0" width="13" height="4" fill="#B00000" class="highcharts-point"></rect><rect x="206" y="0" width="13" height="4" fill="#B00000" class="highcharts-point"></rect><rect x="190" y="0" width="13" height="5" fill="#B00000" class="highcharts-point"></rect><rect x="159" y="2" width="13" height="3" fill="#B00000" class="highcharts-point"></rect><rect x="143" y="2" width="13" height="3" fill="#B00000" class="highcharts-point"></rect><rect x="127" y="3" width="13" height="2" fill="#B00000" class="highcharts-point"></rect><rect x="96" y="2" width="13" height="3" fill="#B00000" class="highcharts-point"></rect><rect x="80" y="2" width="13" height="3" fill="#B00000" class="highcharts-point"></rect><rect x="65" y="3" width="13" height="1" fill="#B00000" class="highcharts-point"></rect><rect x="33" y="2" width="13" height="5" fill="#B00000" class="highcharts-point"></rect><rect x="17" y="2" width="13" height="6" fill="#B00000" class="highcharts-point"></rect><rect x="2" y="3" width="13" height="3" fill="#B00000" class="highcharts-point"></rect></g><g data-z-index="0.1" class="highcharts-markers highcharts-series-2 highcharts-column-series " transform="translate(475,501) rotate(90) scale(-1,1) scale(1 1)" clip-path="none"></g><g data-z-index="0.1" class="highcharts-series highcharts-series-3 highcharts-column-series " transform="translate(475,501) rotate(90) scale(-1,1) scale(1 1)" clip-path="url(#highcharts-cvsdcuf-7)"><rect x="348" y="11" width="13" height="10" fill="#FFDA80" class="highcharts-point"></rect><rect x="332" y="11" width="13" height="8" fill="#FFDA80" class="highcharts-point"></rect><rect x="316" y="14" width="13" height="15" fill="#FFDA80" class="highcharts-point"></rect><rect x="285" y="4" width="13" height="7" fill="#FFDA80" class="highcharts-point"></rect><rect x="269" y="4" width="13" height="7" fill="#FFDA80" class="highcharts-point"></rect><rect x="253" y="5" width="13" height="9" fill="#FFDA80" class="highcharts-point"></rect><rect x="222" y="4" width="13" height="14" fill="#FFDA80" class="highcharts-point"></rect><rect x="206" y="4" width="13" height="14" fill="#FFDA80" class="highcharts-point"></rect><rect x="190" y="5" width="13" height="14" fill="#FFDA80" class="highcharts-point"></rect><rect x="159" y="5" width="13" height="18" fill="#FFDA80" class="highcharts-point"></rect><rect x="143" y="5" width="13" height="17" fill="#FFDA80" class="highcharts-point"></rect><rect x="127" y="5" width="13" height="30" fill="#FFDA80" class="highcharts-point"></rect><rect x="96" y="5" width="13" height="25" fill="#FFDA80" class="highcharts-point"></rect><rect x="80" y="5" width="13" height="26" fill="#FFDA80" class="highcharts-point"></rect><rect x="65" y="4" width="13" height="19" fill="#FFDA80" class="highcharts-point"></rect><rect x="33" y="7" width="13" height="15" fill="#FFDA80" class="highcharts-point"></rect><rect x="17" y="8" width="13" height="11" fill="#FFDA80" class="highcharts-point"></rect><rect x="2" y="6" width="13" height="30" fill="#FFDA80" class="highcharts-point"></rect></g><g data-z-index="0.1" class="highcharts-markers highcharts-series-3 highcharts-column-series " transform="translate(475,501) rotate(90) scale(-1,1) scale(1 1)" clip-path="none"></g><g data-z-index="0.1" class="highcharts-series highcharts-series-4 highcharts-column-series " transform="translate(475,501) rotate(90) scale(-1,1) scale(1 1)" clip-path="url(#highcharts-cvsdcuf-7)"><rect x="348" y="21" width="13" height="87" fill="#73B97C" class="highcharts-point"></rect><rect x="332" y="19" width="13" height="81" fill="#73B97C" class="highcharts-point"></rect><rect x="316" y="29" width="13" height="109" fill="#73B97C" class="highcharts-point"></rect><rect x="285" y="11" width="13" height="93" fill="#73B97C" class="highcharts-point"></rect><rect x="269" y="11" width="13" height="89" fill="#73B97C" class="highcharts-point"></rect><rect x="253" y="14" width="13" height="122" fill="#73B97C" class="highcharts-point"></rect><rect x="222" y="18" width="13" height="84" fill="#73B97C" class="highcharts-point"></rect><rect x="206" y="18" width="13" height="81" fill="#73B97C" class="highcharts-point"></rect><rect x="190" y="19" width="13" height="107" fill="#73B97C" class="highcharts-point"></rect><rect x="159" y="23" width="13" height="101" fill="#73B97C" class="highcharts-point"></rect><rect x="143" y="22" width="13" height="99" fill="#73B97C" class="highcharts-point"></rect><rect x="127" y="35" width="13" height="112" fill="#73B97C" class="highcharts-point"></rect><rect x="96" y="30" width="13" height="96" fill="#73B97C" class="highcharts-point"></rect><rect x="80" y="31" width="13" height="96" fill="#73B97C" class="highcharts-point"></rect><rect x="65" y="23" width="13" height="101" fill="#73B97C" class="highcharts-point"></rect><rect x="33" y="22" width="13" height="90" fill="#73B97C" class="highcharts-point"></rect><rect x="17" y="19" width="13" height="87" fill="#73B97C" class="highcharts-point"></rect><rect x="2" y="36" width="13" height="115" fill="#73B97C" class="highcharts-point"></rect></g><g data-z-index="0.1" class="highcharts-markers highcharts-series-4 highcharts-column-series " transform="translate(475,501) rotate(90) scale(-1,1) scale(1 1)" clip-path="none"></g><g data-z-index="0.1" class="highcharts-series highcharts-series-5 highcharts-column-series " transform="translate(475,501) rotate(90) scale(-1,1) scale(1 1)" clip-path="url(#highcharts-cvsdcuf-7)"><rect x="348" y="108" width="13" height="218" fill="#007a2f" class="highcharts-point"></rect><rect x="332" y="100" width="13" height="226" fill="#007a2f" class="highcharts-point"></rect><rect x="316" y="138" width="13" height="188" fill="#007a2f" class="highcharts-point"></rect><rect x="285" y="104" width="13" height="222" fill="#007a2f" class="highcharts-point"></rect><rect x="269" y="100" width="13" height="226" fill="#007a2f" class="highcharts-point"></rect><rect x="253" y="136" width="13" height="190" fill="#007a2f" class="highcharts-point"></rect><rect x="222" y="102" width="13" height="224" fill="#007a2f" class="highcharts-point"></rect><rect x="206" y="99" width="13" height="227" fill="#007a2f" class="highcharts-point"></rect><rect x="190" y="126" width="13" height="200" fill="#007a2f" class="highcharts-point"></rect><rect x="159" y="124" width="13" height="202" fill="#007a2f" class="highcharts-point"></rect><rect x="143" y="121" width="13" height="205" fill="#007a2f" class="highcharts-point"></rect><rect x="127" y="147" width="13" height="179" fill="#007a2f" class="highcharts-point"></rect><rect x="96" y="126" width="13" height="200" fill="#007a2f" class="highcharts-point"></rect><rect x="80" y="127" width="13" height="199" fill="#007a2f" class="highcharts-point"></rect><rect x="65" y="124" width="13" height="202" fill="#007a2f" class="highcharts-point"></rect><rect x="33" y="112" width="13" height="214" fill="#007a2f" class="highcharts-point"></rect><rect x="17" y="106" width="13" height="220" fill="#007a2f" class="highcharts-point"></rect><rect x="2" y="151" width="13" height="175" fill="#007a2f" class="highcharts-point"></rect></g><g data-z-index="0.1" class="highcharts-markers highcharts-series-5 highcharts-column-series " transform="translate(475,501) rotate(90) scale(-1,1) scale(1 1)" clip-path="none"></g></g><text x="10" text-anchor="start" class="highcharts-title" data-z-index="4" style="color:#000000;font-size:14px;font-weight:bold;fill:#000000;" y="21"><tspan>Beurteilung des Wohnquartiers nach Heimat</tspan></text><text x="10" text-anchor="start" class="highcharts-subtitle" data-z-index="4" style="color:#000000;font-size:12px;fill:#000000;" y="40"><tspan>«Wie gerne leben Sie in Ihrem Wohnquartier?», Basel-Stadt</tspan></text><g class="highcharts-legend" data-z-index="7" transform="translate(142,56)"><rect fill="none" class="highcharts-legend-box" rx="0" ry="0" x="0" y="0" width="296" height="71" visibility="visible"></rect><g data-z-index="1"><g><g class="highcharts-legend-item highcharts-column-series highcharts-color-undefined highcharts-series-5" data-z-index="1" transform="translate(8,3)"><text x="21" style="color:#333333;font-size:12px;font-weight:normal;cursor:pointer;white-space:nowrap;fill:#333333;" text-anchor="start" data-z-index="2" y="15"><tspan>Sehr gerne</tspan></text><rect x="2" y="4" width="12" height="12" fill="#007a2f" class="highcharts-point" data-z-index="3"></rect></g><g class="highcharts-legend-item highcharts-column-series highcharts-color-undefined highcharts-series-4" data-z-index="1" transform="translate(158,3)"><text x="21" y="15" style="color:#333333;font-size:12px;font-weight:normal;cursor:pointer;white-space:nowrap;fill:#333333;" text-anchor="start" data-z-index="2"><tspan>Eher gerne</tspan></text><rect x="2" y="4" width="12" height="12" fill="#73B97C" class="highcharts-point" data-z-index="3"></rect></g><g class="highcharts-legend-item highcharts-column-series highcharts-color-undefined highcharts-series-3" data-z-index="1" transform="translate(8,23)"><text x="21" y="15" style="color:#333333;font-size:12px;font-weight:normal;cursor:pointer;white-space:nowrap;fill:#333333;" text-anchor="start" data-z-index="2"><tspan>Eher ungerne</tspan></text><rect x="2" y="4" width="12" height="12" fill="#FFDA80" class="highcharts-point" data-z-index="3"></rect></g><g class="highcharts-legend-item highcharts-column-series highcharts-color-undefined highcharts-series-2" data-z-index="1" transform="translate(158,23)"><text x="21" y="15" style="color:#333333;font-size:12px;font-weight:normal;cursor:pointer;white-space:nowrap;fill:#333333;" text-anchor="start" data-z-index="2"><tspan>Ganz ungerne</tspan></text><rect x="2" y="4" width="12" height="12" fill="#B00000" class="highcharts-point" data-z-index="3"></rect></g><g class="highcharts-legend-item highcharts-column-series highcharts-color-undefined highcharts-series-1" data-z-index="1" transform="translate(8,43)"><text x="21" y="15" style="color:#333333;font-size:12px;font-weight:normal;cursor:pointer;white-space:nowrap;fill:#333333;" text-anchor="start" data-z-index="2"><tspan>Weiss nicht</tspan></text><rect x="2" y="4" width="12" height="12" fill="#C8C8C8" class="highcharts-point" data-z-index="3"></rect></g><g class="highcharts-legend-item highcharts-column-series highcharts-color-undefined highcharts-series-0" data-z-index="1" transform="translate(158,43)"><text x="21" y="15" style="color:#333333;font-size:12px;font-weight:normal;cursor:pointer;white-space:nowrap;fill:#333333;" text-anchor="start" data-z-index="2"><tspan>Keine Angabe</tspan></text><rect x="2" y="4" width="12" height="12" fill="#6F6F6F" class="highcharts-point" data-z-index="3"></rect></g></g></g></g><g class="highcharts-axis-labels highcharts-xaxis-labels " data-z-index="7"><text x="10" style="color:#000000;cursor:default;font-size:11px;white-space:nowrap;fill:#000000;" text-anchor="start" transform="translate(0,0)" y="151" opacity="1"><tspan>2019: Total (N=2108)</tspan></text><text x="10" style="color:#000000;cursor:default;font-size:11px;white-space:nowrap;fill:#000000;" text-anchor="start" transform="translate(0,0)" y="167" opacity="1"><tspan>2019: Schweiz (N=1635)</tspan></text><text x="10" style="color:#000000;cursor:default;font-size:11px;white-space:nowrap;fill:#000000;" text-anchor="start" transform="translate(0,0)" y="182" opacity="1"><tspan>2019: Ausland (N=447)</tspan></text><text x="10" style="color:#000000;cursor:default;font-size:11px;white-space:nowrap;fill:#000000;" text-anchor="start" transform="translate(0,0)" y="205" opacity="1"></text><text x="10" style="color:#000000;cursor:default;font-size:11px;white-space:nowrap;fill:#000000;" text-anchor="start" transform="translate(0,0)" y="214" opacity="1"><tspan>2015: Total (N=1276)</tspan></text><text x="10" style="color:#000000;cursor:default;font-size:11px;white-space:nowrap;fill:#000000;" text-anchor="start" transform="translate(0,0)" y="230" opacity="1"><tspan>2015: Schweiz (N=1127)</tspan></text><text x="10" style="color:#000000;cursor:default;font-size:11px;white-space:nowrap;fill:#000000;" text-anchor="start" transform="translate(0,0)" y="245" opacity="1"><tspan>2015: Ausland (N=149)</tspan></text><text x="10" style="color:#000000;cursor:default;font-size:11px;white-space:nowrap;fill:#000000;" text-anchor="start" transform="translate(0,0)" y="268" opacity="1"></text><text x="10" style="color:#000000;cursor:default;font-size:11px;white-space:nowrap;fill:#000000;" text-anchor="start" transform="translate(0,0)" y="277" opacity="1"><tspan>2011: Total (N=1285)</tspan></text><text x="10" style="color:#000000;cursor:default;font-size:11px;white-space:nowrap;fill:#000000;" text-anchor="start" transform="translate(0,0)" y="293" opacity="1"><tspan>2011: Schweiz (N=1106)</tspan></text><text x="10" style="color:#000000;cursor:default;font-size:11px;white-space:nowrap;fill:#000000;" text-anchor="start" transform="translate(0,0)" y="308" opacity="1"><tspan>2011: Ausland (N=179)</tspan></text><text x="10" style="color:#000000;cursor:default;font-size:11px;white-space:nowrap;fill:#000000;" text-anchor="start" transform="translate(0,0)" y="331" opacity="1"></text><text x="10" style="color:#000000;cursor:default;font-size:11px;white-space:nowrap;fill:#000000;" text-anchor="start" transform="translate(0,0)" y="340" opacity="1"><tspan>2007: Total (N=1304)</tspan></text><text x="10" style="color:#000000;cursor:default;font-size:11px;white-space:nowrap;fill:#000000;" text-anchor="start" transform="translate(0,0)" y="355" opacity="1"><tspan>2007: Schweiz (N=1142)</tspan></text><text x="10" style="color:#000000;cursor:default;font-size:11px;white-space:nowrap;fill:#000000;" text-anchor="start" transform="translate(0,0)" y="371" opacity="1"><tspan>2007: Ausland (N=162)</tspan></text><text x="10" style="color:#000000;cursor:default;font-size:11px;white-space:nowrap;fill:#000000;" text-anchor="start" transform="translate(0,0)" y="394" opacity="1"></text><text x="10" style="color:#000000;cursor:default;font-size:11px;white-space:nowrap;fill:#000000;" text-anchor="start" transform="translate(0,0)" y="403" opacity="1"><tspan>2005: Total (N=1312)</tspan></text><text x="10" style="color:#000000;cursor:default;font-size:11px;white-space:nowrap;fill:#000000;" text-anchor="start" transform="translate(0,0)" y="418" opacity="1"><tspan>2005: Schweiz (N=1121)</tspan></text><text x="10" style="color:#000000;cursor:default;font-size:11px;white-space:nowrap;fill:#000000;" text-anchor="start" transform="translate(0,0)" y="434" opacity="1"><tspan>2005: Ausland (N=191)</tspan></text><text x="10" style="color:#000000;cursor:default;font-size:11px;white-space:nowrap;fill:#000000;" text-anchor="start" transform="translate(0,0)" y="457" opacity="1"></text><text x="10" style="color:#000000;cursor:default;font-size:11px;white-space:nowrap;fill:#000000;" text-anchor="start" transform="translate(0,0)" y="466" opacity="1"><tspan>2003: Total (N=1265)</tspan></text><text x="10" style="color:#000000;cursor:default;font-size:11px;white-space:nowrap;fill:#000000;" text-anchor="start" transform="translate(0,0)" y="481" opacity="1"><tspan>2003: Schweiz (N=1081)</tspan></text><text x="10" style="color:#000000;cursor:default;font-size:11px;white-space:nowrap;fill:#000000;" text-anchor="start" transform="translate(0,0)" y="497" opacity="1"><tspan>2003: Ausland (N=184)</tspan></text></g><g class="highcharts-axis-labels highcharts-yaxis-labels " data-z-index="7"><text x="150" style="color:#000000;cursor:default;font-size:11px;white-space:nowrap;fill:#000000;" text-anchor="middle" transform="translate(0,0)" y="520" opacity="1">0%</text><text x="215" style="color:#000000;cursor:default;font-size:11px;white-space:nowrap;fill:#000000;" text-anchor="middle" transform="translate(0,0)" y="520" opacity="1">20%</text><text x="280" style="color:#000000;cursor:default;font-size:11px;white-space:nowrap;fill:#000000;" text-anchor="middle" transform="translate(0,0)" y="520" opacity="1">40%</text><text x="345" style="color:#000000;cursor:default;font-size:11px;white-space:nowrap;fill:#000000;" text-anchor="middle" transform="translate(0,0)" y="520" opacity="1">60%</text><text x="410" style="color:#000000;cursor:default;font-size:11px;white-space:nowrap;fill:#000000;" text-anchor="middle" transform="translate(0,0)" y="520" opacity="1">80%</text><text x="461" style="color:#000000;cursor:default;font-size:11px;white-space:nowrap;fill:#000000;" text-anchor="middle" transform="translate(0,0)" y="520" opacity="1">100%</text></g><text x="10" class="highcharts-credits" text-anchor="start" data-z-index="8" style="cursor:default;color:#000000;font-size:10px;fill:#000000;" y="538"><tspan>Quelle: Statistisches Amt Basel-Stadt, kantonale Bevölkerungsbefragung.</tspan><tspan x="10" dy="13">Zuletzt geändert: 2020-6-22</tspan></text></svg>