<?xml version="1.0" standalone="no"?><!DOCTYPE svg PUBLIC "-//W3C//DTD SVG 1.1//EN" "http://www.w3.org/Graphics/SVG/1.1/DTD/svg11.dtd"><svg xmlns:xlink="http://www.w3.org/1999/xlink" version="1.1" class="highcharts-root" style="font-family:Arial;font-size:12px;" xmlns="http://www.w3.org/2000/svg" viewBox="0 0 485 415"><desc>Created with Highcharts 8.2.0</desc><defs><clipPath id="highcharts-xmvd56v-82-"><rect x="0" y="0" width="260" height="308" fill="none"></rect></clipPath><clipPath id="highcharts-xmvd56v-98-"><rect x="0" y="0" width="260" height="308" fill="none"></rect></clipPath><clipPath id="highcharts-xmvd56v-159-"><rect x="167" y="171" width="308" height="260" fill="none"></rect></clipPath></defs><rect fill="#fbfbfb" class="highcharts-background" x="0" y="0" width="485" height="493" rx="0" ry="0"></rect><rect fill="none" class="highcharts-plot-background" x="167" y="171" width="308" height="260"></rect><g class="highcharts-pane-group" data-z-index="0"></g><g class="highcharts-grid highcharts-xaxis-grid" data-z-index="1"><path fill="none" data-z-index="1" class="highcharts-grid-line" d="M 167 188.5 L 475 188.5" opacity="1"></path><path fill="none" data-z-index="1" class="highcharts-grid-line" d="M 167 206.5 L 475 206.5" opacity="1"></path><path fill="none" data-z-index="1" class="highcharts-grid-line" d="M 167 223.5 L 475 223.5" opacity="1"></path><path fill="none" data-z-index="1" class="highcharts-grid-line" d="M 167 240.5 L 475 240.5" opacity="1"></path><path fill="none" data-z-index="1" class="highcharts-grid-line" d="M 167 258.5 L 475 258.5" opacity="1"></path><path fill="none" data-z-index="1" class="highcharts-grid-line" d="M 167 275.5 L 475 275.5" opacity="1"></path><path fill="none" data-z-index="1" class="highcharts-grid-line" d="M 167 292.5 L 475 292.5" opacity="1"></path><path fill="none" data-z-index="1" class="highcharts-grid-line" d="M 167 310.5 L 475 310.5" opacity="1"></path><path fill="none" data-z-index="1" class="highcharts-grid-line" d="M 167 327.5 L 475 327.5" opacity="1"></path><path fill="none" data-z-index="1" class="highcharts-grid-line" d="M 167 344.5 L 475 344.5" opacity="1"></path><path fill="none" data-z-index="1" class="highcharts-grid-line" d="M 167 362.5 L 475 362.5" opacity="1"></path><path fill="none" data-z-index="1" class="highcharts-grid-line" d="M 167 379.5 L 475 379.5" opacity="1"></path><path fill="none" data-z-index="1" class="highcharts-grid-line" d="M 167 396.5 L 475 396.5" opacity="1"></path><path fill="none" data-z-index="1" class="highcharts-grid-line" d="M 167 414.5 L 475 414.5" opacity="1"></path><path fill="none" data-z-index="1" class="highcharts-grid-line" d="M 167 431.5 L 475 431.5" opacity="1"></path><path fill="none" data-z-index="1" class="highcharts-grid-line" d="M 167 171.5 L 475 171.5" opacity="1"></path></g><g class="highcharts-grid highcharts-yaxis-grid" data-z-index="1"><path fill="none" stroke="#B9CFD7" stroke-width="0.5" data-z-index="1" class="highcharts-grid-line" d="M 166.75 171 L 166.75 431" opacity="1"></path><path fill="none" stroke="#B9CFD7" stroke-width="0.5" data-z-index="1" class="highcharts-grid-line" d="M 228.75 171 L 228.75 431" opacity="1"></path><path fill="none" stroke="#B9CFD7" stroke-width="0.5" data-z-index="1" class="highcharts-grid-line" d="M 289.75 171 L 289.75 431" opacity="1"></path><path fill="none" stroke="#B9CFD7" stroke-width="0.5" data-z-index="1" class="highcharts-grid-line" d="M 351.75 171 L 351.75 431" opacity="1"></path><path fill="none" stroke="#B9CFD7" stroke-width="0.5" data-z-index="1" class="highcharts-grid-line" d="M 412.75 171 L 412.75 431" opacity="1"></path><path fill="none" stroke="#B9CFD7" stroke-width="0.5" data-z-index="1" class="highcharts-grid-line" d="M 475.25 171 L 475.25 431" opacity="1"></path></g><rect fill="none" class="highcharts-plot-border" data-z-index="1" x="167" y="171" width="308" height="260"></rect><g class="highcharts-axis highcharts-xaxis" data-z-index="2"><path fill="none" class="highcharts-axis-line" stroke="#B9CFD7" stroke-width="0.5" data-z-index="7" d="M 166.75 171 L 166.75 431"></path></g><g class="highcharts-axis highcharts-yaxis" data-z-index="2"><path fill="none" class="highcharts-axis-line" data-z-index="7" d="M 167 431 L 475 431"></path></g><g class="highcharts-series-group" data-z-index="3"><g class="highcharts-series highcharts-series-0 highcharts-column-series" data-z-index="0.1" opacity="1" transform="translate(475,431) rotate(90) scale(-1,1) scale(1 1)" clip-path="url(#highcharts-xmvd56v-98-)"><rect x="227" y="0" width="14" height="13" fill="#6F6F6F" opacity="1" class="highcharts-point"></rect><rect x="210" y="0" width="14" height="38" fill="#6F6F6F" opacity="1" class="highcharts-point"></rect><rect x="192" y="0" width="14" height="56" fill="#6F6F6F" opacity="1" class="highcharts-point"></rect><rect x="175" y="0" width="14" height="27" fill="#6F6F6F" opacity="1" class="highcharts-point"></rect><rect x="140" y="0" width="14" height="20" fill="#6F6F6F" opacity="1" class="highcharts-point"></rect><rect x="123" y="0" width="14" height="41" fill="#6F6F6F" opacity="1" class="highcharts-point"></rect><rect x="106" y="0" width="14" height="56" fill="#6F6F6F" opacity="1" class="highcharts-point"></rect><rect x="88" y="0" width="14" height="32" fill="#6F6F6F" opacity="1" class="highcharts-point"></rect><rect x="54" y="0" width="14" height="14" fill="#6F6F6F" opacity="1" class="highcharts-point"></rect><rect x="36" y="0" width="14" height="40" fill="#6F6F6F" opacity="1" class="highcharts-point"></rect><rect x="19" y="0" width="14" height="56" fill="#6F6F6F" opacity="1" class="highcharts-point"></rect><rect x="2" y="0" width="14" height="29" fill="#6F6F6F" opacity="1" class="highcharts-point"></rect></g><g class="highcharts-markers highcharts-series-0 highcharts-column-series" data-z-index="0.1" opacity="1" transform="translate(475,431) rotate(90) scale(-1,1) scale(1 1)" clip-path="none"></g><g class="highcharts-series highcharts-series-1 highcharts-column-series" data-z-index="0.1" opacity="1" transform="translate(475,431) rotate(90) scale(-1,1) scale(1 1)" clip-path="url(#highcharts-xmvd56v-98-)"><rect x="227" y="13" width="14" height="11" fill="#DC440E" opacity="1" class="highcharts-point"></rect><rect x="210" y="38" width="14" height="22" fill="#DC440E" opacity="1" class="highcharts-point"></rect><rect x="192" y="56" width="14" height="32" fill="#DC440E" opacity="1" class="highcharts-point"></rect><rect x="175" y="27" width="14" height="18" fill="#DC440E" opacity="1" class="highcharts-point"></rect><rect x="140" y="20" width="14" height="15" fill="#DC440E" opacity="1" class="highcharts-point"></rect><rect x="123" y="41" width="14" height="25" fill="#DC440E" opacity="1" class="highcharts-point"></rect><rect x="106" y="56" width="14" height="56" fill="#DC440E" opacity="1" class="highcharts-point"></rect><rect x="88" y="32" width="14" height="24" fill="#DC440E" opacity="1" class="highcharts-point"></rect><rect x="54" y="14" width="14" height="18" fill="#DC440E" opacity="1" class="highcharts-point"></rect><rect x="36" y="40" width="14" height="23" fill="#DC440E" opacity="1" class="highcharts-point"></rect><rect x="19" y="56" width="14" height="54" fill="#DC440E" opacity="1" class="highcharts-point"></rect><rect x="2" y="29" width="14" height="25" fill="#DC440E" opacity="1" class="highcharts-point"></rect></g><g class="highcharts-markers highcharts-series-1 highcharts-column-series" data-z-index="0.1" opacity="1" transform="translate(475,431) rotate(90) scale(-1,1) scale(1 1)" clip-path="none"></g><g class="highcharts-series highcharts-series-2 highcharts-column-series" data-z-index="0.1" opacity="1" transform="translate(475,431) rotate(90) scale(-1,1) scale(1 1)" clip-path="url(#highcharts-xmvd56v-98-)"><rect x="227" y="24" width="14" height="19" fill="#FABD24" opacity="1" class="highcharts-point"></rect><rect x="210" y="60" width="14" height="31" fill="#FABD24" opacity="1" class="highcharts-point"></rect><rect x="192" y="88" width="14" height="50" fill="#FABD24" opacity="1" class="highcharts-point"></rect><rect x="175" y="45" width="14" height="27" fill="#FABD24" opacity="1" class="highcharts-point"></rect><rect x="140" y="35" width="14" height="23" fill="#FABD24" opacity="1" class="highcharts-point"></rect><rect x="123" y="66" width="14" height="40" fill="#FABD24" opacity="1" class="highcharts-point"></rect><rect x="106" y="112" width="14" height="44" fill="#FABD24" opacity="1" class="highcharts-point"></rect><rect x="88" y="56" width="14" height="32" fill="#FABD24" opacity="1" class="highcharts-point"></rect><rect x="54" y="32" width="14" height="31" fill="#FABD24" opacity="1" class="highcharts-point"></rect><rect x="36" y="63" width="14" height="48" fill="#FABD24" opacity="1" class="highcharts-point"></rect><rect x="19" y="110" width="14" height="63" fill="#FABD24" opacity="1" class="highcharts-point"></rect><rect x="2" y="54" width="14" height="41" fill="#FABD24" opacity="1" class="highcharts-point"></rect></g><g class="highcharts-markers highcharts-series-2 highcharts-column-series" data-z-index="0.1" opacity="1" transform="translate(475,431) rotate(90) scale(-1,1) scale(1 1)" clip-path="none"></g><g class="highcharts-series highcharts-series-3 highcharts-column-series" data-z-index="0.1" opacity="1" transform="translate(475,431) rotate(90) scale(-1,1) scale(1 1)" clip-path="url(#highcharts-xmvd56v-98-)"><rect x="227" y="43" width="14" height="156" fill="#68ab2b" opacity="1" class="highcharts-point"></rect><rect x="210" y="91" width="14" height="162" fill="#68ab2b" opacity="1" class="highcharts-point"></rect><rect x="192" y="138" width="14" height="131" fill="#68ab2b" opacity="1" class="highcharts-point"></rect><rect x="175" y="72" width="14" height="154" fill="#68ab2b" opacity="1" class="highcharts-point"></rect><rect x="140" y="58" width="14" height="176" fill="#68ab2b" opacity="1" class="highcharts-point"></rect><rect x="123" y="106" width="14" height="153" fill="#68ab2b" opacity="1" class="highcharts-point"></rect><rect x="106" y="156" width="14" height="122" fill="#68ab2b" opacity="1" class="highcharts-point"></rect><rect x="88" y="88" width="14" height="160" fill="#68ab2b" opacity="1" class="highcharts-point"></rect><rect x="54" y="63" width="14" height="180" fill="#68ab2b" opacity="1" class="highcharts-point"></rect><rect x="36" y="111" width="14" height="151" fill="#68ab2b" opacity="1" class="highcharts-point"></rect><rect x="19" y="173" width="14" height="100" fill="#68ab2b" opacity="1" class="highcharts-point"></rect><rect x="2" y="95" width="14" height="159" fill="#68ab2b" opacity="1" class="highcharts-point"></rect></g><g class="highcharts-markers highcharts-series-3 highcharts-column-series" data-z-index="0.1" opacity="1" transform="translate(475,431) rotate(90) scale(-1,1) scale(1 1)" clip-path="none"></g><g class="highcharts-series highcharts-series-4 highcharts-column-series" data-z-index="0.1" opacity="1" transform="translate(475,431) rotate(90) scale(-1,1) scale(1 1)" clip-path="url(#highcharts-xmvd56v-98-)"><rect x="227" y="199" width="14" height="110" fill="#007a2f" opacity="1" class="highcharts-point"></rect><rect x="210" y="253" width="14" height="56" fill="#007a2f" opacity="1" class="highcharts-point"></rect><rect x="192" y="269" width="14" height="40" fill="#007a2f" opacity="1" class="highcharts-point"></rect><rect x="175" y="226" width="14" height="83" fill="#007a2f" opacity="1" class="highcharts-point"></rect><rect x="140" y="234" width="14" height="75" fill="#007a2f" opacity="1" class="highcharts-point"></rect><rect x="123" y="259" width="14" height="50" fill="#007a2f" opacity="1" class="highcharts-point"></rect><rect x="106" y="278" width="14" height="31" fill="#007a2f" opacity="1" class="highcharts-point"></rect><rect x="88" y="248" width="14" height="61" fill="#007a2f" opacity="1" class="highcharts-point"></rect><rect x="54" y="243" width="14" height="66" fill="#007a2f" opacity="1" class="highcharts-point"></rect><rect x="36" y="262" width="14" height="47" fill="#007a2f" opacity="1" class="highcharts-point"></rect><rect x="19" y="273" width="14" height="36" fill="#007a2f" opacity="1" class="highcharts-point"></rect><rect x="2" y="254" width="14" height="55" fill="#007a2f" opacity="1" class="highcharts-point"></rect></g><g class="highcharts-markers highcharts-series-4 highcharts-column-series" data-z-index="0.1" opacity="1" transform="translate(475,431) rotate(90) scale(-1,1) scale(1 1)" clip-path="none"></g></g><text x="10" text-anchor="start" class="highcharts-title" data-z-index="4" style="color:#000000;font-size:14px;font-weight:bold;fill:#000000;" y="21"><tspan>Bekanntheit und Nutzung von Elternbildungsangeboten</tspan><tspan dy="17" x="10">nach gesprochener Sprache</tspan></text><text x="10" text-anchor="start" class="highcharts-subtitle" data-z-index="4" style="color:#000000;font-size:12px;fill:#000000;" y="57"><tspan>«Kennen oder nutzen Sie die Elternbildungsangebote bzw. würden Sie diese</tspan><tspan dy="15" x="10">nutzen?», Basel-Stadt</tspan></text><text x="10" text-anchor="start" class="highcharts-caption" data-z-index="4" style="color:#666666;fill:#666666;" y="465"></text><g class="highcharts-legend" data-z-index="7" transform="translate(159,88)"><rect fill="none" class="highcharts-legend-box" rx="0" ry="0" x="0" y="0" width="288" height="71" visibility="visible"></rect><g data-z-index="1"><g><g class="highcharts-legend-item highcharts-column-series highcharts-color-undefined highcharts-series-4" data-z-index="1" transform="translate(8,3)"><text x="21" style="color:#333333;cursor:pointer;font-size:12px;font-weight:normal;white-space:nowrap;fill:#333333;" text-anchor="start" data-z-index="2" y="15"><tspan>Ja, genutzt</tspan></text><rect x="2" y="4" width="12" height="12" fill="#007a2f" class="highcharts-point" data-z-index="3"></rect></g><g class="highcharts-legend-item highcharts-column-series highcharts-color-undefined highcharts-series-3" data-z-index="1" transform="translate(148,3)"><text x="21" y="15" style="color:#333333;cursor:pointer;font-size:12px;font-weight:normal;white-space:nowrap;fill:#333333;" text-anchor="start" data-z-index="2"><tspan>Ja, nicht genutzt</tspan></text><rect x="2" y="4" width="12" height="12" fill="#68ab2b" class="highcharts-point" data-z-index="3"></rect></g><g class="highcharts-legend-item highcharts-column-series highcharts-color-undefined highcharts-series-2" data-z-index="1" transform="translate(8,23)"><text x="21" y="15" style="color:#333333;cursor:pointer;font-size:12px;font-weight:normal;white-space:nowrap;fill:#333333;" text-anchor="start" data-z-index="2"><tspan>Nein, würde genutzt</tspan></text><rect x="2" y="4" width="12" height="12" fill="#FABD24" class="highcharts-point" data-z-index="3"></rect></g><g class="highcharts-legend-item highcharts-column-series highcharts-color-undefined highcharts-series-1" data-z-index="1" transform="translate(148,23)"><text x="21" y="15" style="color:#333333;cursor:pointer;font-size:12px;font-weight:normal;white-space:nowrap;fill:#333333;" text-anchor="start" data-z-index="2"><tspan>Nein, würde nicht genutzt</tspan></text><rect x="2" y="4" width="12" height="12" fill="#DC440E" class="highcharts-point" data-z-index="3"></rect></g><g class="highcharts-legend-item highcharts-column-series highcharts-color-undefined highcharts-series-0" data-z-index="1" transform="translate(8,43)"><text x="21" y="15" style="color:#333333;cursor:pointer;font-size:12px;font-weight:normal;white-space:nowrap;fill:#333333;" text-anchor="start" data-z-index="2"><tspan>Keine Angabe</tspan></text><rect x="2" y="4" width="12" height="12" fill="#6F6F6F" class="highcharts-point" data-z-index="3"></rect></g></g></g></g><g class="highcharts-axis-labels highcharts-xaxis-labels" data-z-index="7"><text x="152" style="color:#000000;cursor:default;font-size:11px;white-space:nowrap;fill:#000000;" text-anchor="end" transform="translate(0,0)" y="184" opacity="1"><tspan style="font-weight:bold">2009</tspan></text><text x="152" style="color:#000000;cursor:default;font-size:11px;white-space:nowrap;fill:#000000;" text-anchor="end" transform="translate(0,0)" y="201" opacity="1"><tspan>Nur Deutsch (n=1667)</tspan></text><text x="152" style="color:#000000;cursor:default;font-size:11px;white-space:nowrap;fill:#000000;" text-anchor="end" transform="translate(0,0)" y="218" opacity="1"><tspan>Deutsch und weitere (n=985)</tspan></text><text x="152" style="color:#000000;cursor:default;font-size:11px;white-space:nowrap;fill:#000000;" text-anchor="end" transform="translate(0,0)" y="236" opacity="1"><tspan>Kein Deutsch (n=467)</tspan></text><text x="152" style="color:#000000;cursor:default;font-size:11px;white-space:nowrap;fill:#000000;" text-anchor="end" transform="translate(0,0)" y="253" opacity="1"><tspan>Total (N=3119)</tspan></text><text x="152" style="color:#000000;cursor:default;font-size:11px;white-space:nowrap;fill:#000000;" text-anchor="end" transform="translate(0,0)" y="270" opacity="1"><tspan style="font-weight:bold">2013</tspan></text><text x="152" style="color:#000000;cursor:default;font-size:11px;white-space:nowrap;fill:#000000;" text-anchor="end" transform="translate(0,0)" y="288" opacity="1"><tspan>Nur Deutsch (n=1190)</tspan></text><text x="152" style="color:#000000;cursor:default;font-size:11px;white-space:nowrap;fill:#000000;" text-anchor="end" transform="translate(0,0)" y="305" opacity="1"><tspan>Deutsch und weitere (n=693)</tspan></text><text x="152" style="color:#000000;cursor:default;font-size:11px;white-space:nowrap;fill:#000000;" text-anchor="end" transform="translate(0,0)" y="322" opacity="1"><tspan>Kein Deutsch (n=329)</tspan></text><text x="152" style="color:#000000;cursor:default;font-size:11px;white-space:nowrap;fill:#000000;" text-anchor="end" transform="translate(0,0)" y="340" opacity="1"><tspan>Total (N=2231)</tspan></text><text x="152" style="color:#000000;cursor:default;font-size:11px;white-space:nowrap;fill:#000000;" text-anchor="end" transform="translate(0,0)" y="357" opacity="1"><tspan style="font-weight:bold">2017</tspan></text><text x="152" style="color:#000000;cursor:default;font-size:11px;white-space:nowrap;fill:#000000;" text-anchor="end" transform="translate(0,0)" y="374" opacity="1"><tspan>Nur Deutsch (n=870)</tspan></text><text x="152" style="color:#000000;cursor:default;font-size:11px;white-space:nowrap;fill:#000000;" text-anchor="end" transform="translate(0,0)" y="392" opacity="1"><tspan>Deutsch und weitere (n=516)</tspan></text><text x="152" style="color:#000000;cursor:default;font-size:11px;white-space:nowrap;fill:#000000;" text-anchor="end" transform="translate(0,0)" y="409" opacity="1"><tspan>Kein Deutsch (n=246)</tspan></text><text x="152" style="color:#000000;cursor:default;font-size:11px;white-space:nowrap;fill:#000000;" text-anchor="end" transform="translate(0,0)" y="426" opacity="1"><tspan>Total (N=1665)</tspan></text></g><g class="highcharts-axis-labels highcharts-yaxis-labels" data-z-index="7"><text x="167" style="color:#000000;cursor:default;font-size:11px;white-space:nowrap;fill:#000000;" text-anchor="middle" transform="translate(0,0)" y="450" opacity="1">0%</text><text x="228.6" style="color:#000000;cursor:default;font-size:11px;white-space:nowrap;fill:#000000;" text-anchor="middle" transform="translate(0,0)" y="450" opacity="1">20%</text><text x="290.2" style="color:#000000;cursor:default;font-size:11px;white-space:nowrap;fill:#000000;" text-anchor="middle" transform="translate(0,0)" y="450" opacity="1">40%</text><text x="351.8" style="color:#000000;cursor:default;font-size:11px;white-space:nowrap;fill:#000000;" text-anchor="middle" transform="translate(0,0)" y="450" opacity="1">60%</text><text x="413.4" style="color:#000000;cursor:default;font-size:11px;white-space:nowrap;fill:#000000;" text-anchor="middle" transform="translate(0,0)" y="450" opacity="1">80%</text><text x="461" style="color:#000000;cursor:default;font-size:11px;white-space:nowrap;fill:#000000;" text-anchor="middle" transform="translate(0,0)" y="450" opacity="1">100%</text></g><text x="10" class="highcharts-credits" text-anchor="start" data-z-index="8" style="cursor:default;color:#000000;font-size:10px;fill:#000000;" y="468"><tspan>Quelle: Statistisches Amt Basel-Stadt, kantonale Familienbefragung.</tspan><tspan x="10" dy="13">Zuletzt geändert: 4.12.2023</tspan></text><g class="highcharts-control-points" data-z-index="99" clip-path="url(#highcharts-xmvd56v-159-)"></g></svg>