<?xml version="1.0" standalone="no"?><!DOCTYPE svg PUBLIC "-//W3C//DTD SVG 1.1//EN" "http://www.w3.org/Graphics/SVG/1.1/DTD/svg11.dtd"><svg xmlns:xlink="http://www.w3.org/1999/xlink" version="1.1" class="highcharts-root" style="font-family:Arial;font-size:12px;" xmlns="http://www.w3.org/2000/svg" viewBox="0 0 485 415"><desc>Created with Highcharts 8.2.0</desc><defs><clipPath id="highcharts-jy8us4l-25-"><rect x="0" y="0" width="242" height="342" fill="none"></rect></clipPath><clipPath id="highcharts-jy8us4l-35-"><rect x="0" y="0" width="242" height="342" fill="none"></rect></clipPath><clipPath id="highcharts-jy8us4l-45-"><rect x="133" y="94" width="342" height="242" fill="none"></rect></clipPath></defs><rect fill="#fbfbfb" class="highcharts-background" x="0" y="0" width="485" height="428" rx="0" ry="0"></rect><rect fill="none" class="highcharts-plot-background" x="133" y="94" width="342" height="242"></rect><g class="highcharts-pane-group" data-z-index="0"></g><g class="highcharts-grid highcharts-xaxis-grid" data-z-index="1"><path fill="none" data-z-index="1" class="highcharts-grid-line" d="M 133 121.5 L 475 121.5" opacity="1"></path><path fill="none" data-z-index="1" class="highcharts-grid-line" d="M 133 148.5 L 475 148.5" opacity="1"></path><path fill="none" data-z-index="1" class="highcharts-grid-line" d="M 133 175.5 L 475 175.5" opacity="1"></path><path fill="none" data-z-index="1" class="highcharts-grid-line" d="M 133 202.5 L 475 202.5" opacity="1"></path><path fill="none" data-z-index="1" class="highcharts-grid-line" d="M 133 228.5 L 475 228.5" opacity="1"></path><path fill="none" data-z-index="1" class="highcharts-grid-line" d="M 133 255.5 L 475 255.5" opacity="1"></path><path fill="none" data-z-index="1" class="highcharts-grid-line" d="M 133 282.5 L 475 282.5" opacity="1"></path><path fill="none" data-z-index="1" class="highcharts-grid-line" d="M 133 309.5 L 475 309.5" opacity="1"></path><path fill="none" data-z-index="1" class="highcharts-grid-line" d="M 133 336.5 L 475 336.5" opacity="1"></path><path fill="none" data-z-index="1" class="highcharts-grid-line" d="M 133 94.5 L 475 94.5" opacity="1"></path></g><g class="highcharts-grid highcharts-yaxis-grid" data-z-index="1"><path fill="none" stroke="#B9CFD7" stroke-width="0.5" data-z-index="1" class="highcharts-grid-line" d="M 132.75 94 L 132.75 336" opacity="1"></path><path fill="none" stroke="#B9CFD7" stroke-width="0.5" data-z-index="1" class="highcharts-grid-line" d="M 218.75 94 L 218.75 336" opacity="1"></path><path fill="none" stroke="#B9CFD7" stroke-width="0.5" data-z-index="1" class="highcharts-grid-line" d="M 303.75 94 L 303.75 336" opacity="1"></path><path fill="none" stroke="#B9CFD7" stroke-width="0.5" data-z-index="1" class="highcharts-grid-line" d="M 389.75 94 L 389.75 336" opacity="1"></path><path fill="none" stroke="#B9CFD7" stroke-width="0.5" data-z-index="1" class="highcharts-grid-line" d="M 475.25 94 L 475.25 336" opacity="1"></path></g><rect fill="none" class="highcharts-plot-border" data-z-index="1" x="133" y="94" width="342" height="242"></rect><g class="highcharts-axis highcharts-xaxis" data-z-index="2"><path fill="none" class="highcharts-axis-line" stroke="#B9CFD7" stroke-width="0.5" data-z-index="7" d="M 132.75 94 L 132.75 336"></path></g><g class="highcharts-axis highcharts-yaxis" data-z-index="2"><path fill="none" class="highcharts-axis-line" data-z-index="7" d="M 133 336 L 475 336"></path></g><g class="highcharts-series-group" data-z-index="3"><g class="highcharts-series highcharts-series-0 highcharts-column-series" data-z-index="0.1" opacity="1" transform="translate(475,336) rotate(90) scale(-1,1) scale(1 1)" clip-path="url(#highcharts-jy8us4l-35-)"><rect x="229" y="223" width="8" height="120" fill="#68AB2B" opacity="1" class="highcharts-point"></rect><rect x="202" y="308" width="8" height="35" fill="#68AB2B" opacity="1" class="highcharts-point"></rect><rect x="175" y="37" width="8" height="306" fill="#68AB2B" opacity="1" class="highcharts-point"></rect><rect x="148" y="210" width="8" height="133" fill="#68AB2B" opacity="1" class="highcharts-point"></rect><rect x="121" y="308" width="8" height="35" fill="#68AB2B" opacity="1" class="highcharts-point"></rect><rect x="94" y="292" width="8" height="51" fill="#68AB2B" opacity="1" class="highcharts-point"></rect><rect x="67" y="316" width="8" height="27" fill="#68AB2B" opacity="1" class="highcharts-point"></rect><rect x="40" y="305" width="8" height="38" fill="#68AB2B" opacity="1" class="highcharts-point"></rect><rect x="13" y="101" width="9" height="242" fill="#68AB2B" opacity="1" class="highcharts-point"></rect></g><g class="highcharts-markers highcharts-series-0 highcharts-column-series" data-z-index="0.1" opacity="1" transform="translate(475,336) rotate(90) scale(-1,1) scale(1 1)" clip-path="none"></g><g class="highcharts-series highcharts-series-1 highcharts-column-series" data-z-index="0.1" opacity="1" transform="translate(475,336) rotate(90) scale(-1,1) scale(1 1)" clip-path="url(#highcharts-jy8us4l-35-)"><rect x="220" y="248" width="9" height="95" fill="#E6E600" opacity="1" class="highcharts-point"></rect><rect x="194" y="314" width="8" height="29" fill="#E6E600" opacity="1" class="highcharts-point"></rect><rect x="167" y="184" width="8" height="159" fill="#E6E600" opacity="1" class="highcharts-point"></rect><rect x="140" y="265" width="8" height="78" fill="#E6E600" opacity="1" class="highcharts-point"></rect><rect x="113" y="314" width="8" height="29" fill="#E6E600" opacity="1" class="highcharts-point"></rect><rect x="86" y="293" width="8" height="50" fill="#E6E600" opacity="1" class="highcharts-point"></rect><rect x="59" y="316" width="8" height="27" fill="#E6E600" opacity="1" class="highcharts-point"></rect><rect x="32" y="326" width="8" height="17" fill="#E6E600" opacity="1" class="highcharts-point"></rect><rect x="5" y="176" width="8" height="167" fill="#E6E600" opacity="1" class="highcharts-point"></rect></g><g class="highcharts-markers highcharts-series-1 highcharts-column-series" data-z-index="0.1" opacity="1" transform="translate(475,336) rotate(90) scale(-1,1) scale(1 1)" clip-path="none"></g></g><text x="10" text-anchor="start" class="highcharts-title" data-z-index="4" style="color:#000000;font-size:14px;font-weight:bold;fill:#000000;" y="21"><tspan>Anzahl Gutscheine für Gratis-Deutschkurse</tspan></text><text x="10" text-anchor="start" class="highcharts-subtitle" data-z-index="4" style="color:#000000;font-size:12px;font-weight:normal;fill:#000000;" y="40"><tspan>nach Staatsangehörigkeit, Basel-Stadt, 2024</tspan></text><text x="10" text-anchor="start" class="highcharts-caption" data-z-index="4" style="color:#666666;fill:#666666;" y="370"></text><g class="highcharts-legend" data-z-index="7" transform="translate(125,56)"><rect fill="none" class="highcharts-legend-box" rx="0" ry="0" x="0" y="0" width="322" height="26" visibility="visible"></rect><g data-z-index="1"><g><g class="highcharts-legend-item highcharts-column-series highcharts-color-undefined highcharts-series-0" data-z-index="1" transform="translate(8,3)"><text x="21" style="color:#333333;cursor:pointer;font-size:12px;font-weight:normal;fill:#333333;" text-anchor="start" data-z-index="2" y="15"><tspan>Ausgestellte Gutscheine</tspan></text><rect x="2" y="4" width="12" height="12" fill="#68AB2B" class="highcharts-point" data-z-index="3"></rect></g><g class="highcharts-legend-item highcharts-column-series highcharts-color-undefined highcharts-series-1" data-z-index="1" transform="translate(168,3)"><text x="21" y="15" style="color:#333333;cursor:pointer;font-size:12px;font-weight:normal;fill:#333333;" text-anchor="start" data-z-index="2"><tspan>Eingelöste Gutscheine</tspan></text><rect x="2" y="4" width="12" height="12" fill="#E6E600" class="highcharts-point" data-z-index="3"></rect></g></g></g></g><g class="highcharts-axis-labels highcharts-xaxis-labels" data-z-index="7"><text x="118" style="color:#000000;cursor:default;font-size:11px;fill:#000000;" text-anchor="end" transform="translate(0,0)" y="111" opacity="1">Italien</text><text x="118" style="color:#000000;cursor:default;font-size:11px;fill:#000000;" text-anchor="end" transform="translate(0,0)" y="138" opacity="1">Türkei</text><text x="118" style="color:#000000;cursor:default;font-size:11px;fill:#000000;" text-anchor="end" transform="translate(0,0)" y="165" opacity="1"><tspan>EU-West + EFTA + UK</tspan></text><text x="118" style="color:#000000;cursor:default;font-size:11px;fill:#000000;" text-anchor="end" transform="translate(0,0)" y="192" opacity="1">EU-Ost</text><text x="118" style="color:#000000;cursor:default;font-size:11px;fill:#000000;" text-anchor="end" transform="translate(0,0)" y="219" opacity="1">Balkan</text><text x="118" style="color:#000000;cursor:default;font-size:11px;fill:#000000;" text-anchor="end" transform="translate(0,0)" y="246" opacity="1"><tspan>Mittel- und Südamerika</tspan></text><text x="118" style="color:#000000;cursor:default;font-size:11px;fill:#000000;" text-anchor="end" transform="translate(0,0)" y="273" opacity="1"><tspan>Arabische Länder</tspan></text><text x="118" style="color:#000000;cursor:default;font-size:11px;fill:#000000;" text-anchor="end" transform="translate(0,0)" y="300" opacity="1"><tspan>Afrikanische Länder</tspan></text><text x="118" style="color:#000000;cursor:default;font-size:11px;fill:#000000;" text-anchor="end" transform="translate(0,0)" y="327" opacity="1"><tspan>Übrige Länder</tspan></text></g><g class="highcharts-axis-labels highcharts-yaxis-labels" data-z-index="7"><text x="133" style="color:#000000;cursor:default;font-size:11px;fill:#000000;" text-anchor="middle" transform="translate(0,0)" y="355" opacity="1">0</text><text x="218.5" style="color:#000000;cursor:default;font-size:11px;fill:#000000;" text-anchor="middle" transform="translate(0,0)" y="355" opacity="1">200</text><text x="304" style="color:#000000;cursor:default;font-size:11px;fill:#000000;" text-anchor="middle" transform="translate(0,0)" y="355" opacity="1">400</text><text x="389.5" style="color:#000000;cursor:default;font-size:11px;fill:#000000;" text-anchor="middle" transform="translate(0,0)" y="355" opacity="1">600</text><text x="466" style="color:#000000;cursor:default;font-size:11px;fill:#000000;" text-anchor="middle" transform="translate(0,0)" y="355" opacity="1">800</text></g><text x="10" class="highcharts-credits" text-anchor="start" data-z-index="8" style="cursor:default;color:#000000;font-size:10px;fill:#000000;" y="393"><tspan>Quelle: Erziehungsdepartement Basel-Stadt, Fachstelle Erwachsenenbildung;</tspan><tspan x="10" dy="13">Bevölkerungsdienste und Migration Basel-Stadt.</tspan><tspan x="10" dy="13">Zuletzt geändert: 20.6.2025</tspan></text><g class="highcharts-control-points" data-z-index="99" clip-path="url(#highcharts-jy8us4l-45-)"></g></svg>