<?xml version="1.0" standalone="no"?><!DOCTYPE svg PUBLIC "-//W3C//DTD SVG 1.1//EN" "http://www.w3.org/Graphics/SVG/1.1/DTD/svg11.dtd"><svg xmlns:xlink="http://www.w3.org/1999/xlink" version="1.1" class="highcharts-root" style="font-family:Arial;font-size:12px;" xmlns="http://www.w3.org/2000/svg" viewBox="0 0 485 415"><desc>Created with Highcharts 8.2.0</desc><defs><clipPath id="highcharts-4jedt50-179-"><rect x="0" y="0" width="435" height="252" fill="none"></rect></clipPath><clipPath id="highcharts-4jedt50-266-"><rect x="0" y="0" width="435" height="252" fill="none"></rect></clipPath><clipPath id="highcharts-4jedt50-353-"><rect x="40" y="99" width="435" height="252" fill="none"></rect></clipPath></defs><rect fill="#fbfbfb" class="highcharts-background" x="0" y="0" width="485" height="428" rx="0" ry="0"></rect><rect fill="none" class="highcharts-plot-background" x="40" y="99" width="435" height="252"></rect><g class="highcharts-pane-group" data-z-index="0"></g><g class="highcharts-grid highcharts-xaxis-grid" data-z-index="1"><path fill="none" data-z-index="1" class="highcharts-grid-line" d="M 43.5 99 L 43.5 351" opacity="1"></path><path fill="none" data-z-index="1" class="highcharts-grid-line" d="M 48.5 99 L 48.5 351" opacity="1"></path><path fill="none" data-z-index="1" class="highcharts-grid-line" d="M 53.5 99 L 53.5 351" opacity="1"></path><path fill="none" data-z-index="1" class="highcharts-grid-line" d="M 58.5 99 L 58.5 351" opacity="1"></path><path fill="none" data-z-index="1" class="highcharts-grid-line" d="M 63.5 99 L 63.5 351" opacity="1"></path><path fill="none" data-z-index="1" class="highcharts-grid-line" d="M 68.5 99 L 68.5 351" opacity="1"></path><path fill="none" data-z-index="1" class="highcharts-grid-line" d="M 73.5 99 L 73.5 351" opacity="1"></path><path fill="none" data-z-index="1" class="highcharts-grid-line" d="M 78.5 99 L 78.5 351" opacity="1"></path><path fill="none" data-z-index="1" class="highcharts-grid-line" d="M 83.5 99 L 83.5 351" opacity="1"></path><path fill="none" data-z-index="1" class="highcharts-grid-line" d="M 88.5 99 L 88.5 351" opacity="1"></path><path fill="none" data-z-index="1" class="highcharts-grid-line" d="M 93.5 99 L 93.5 351" opacity="1"></path><path fill="none" data-z-index="1" class="highcharts-grid-line" d="M 98.5 99 L 98.5 351" opacity="1"></path><path fill="none" data-z-index="1" class="highcharts-grid-line" d="M 103.5 99 L 103.5 351" opacity="1"></path><path fill="none" data-z-index="1" class="highcharts-grid-line" d="M 108.5 99 L 108.5 351" opacity="1"></path><path fill="none" data-z-index="1" class="highcharts-grid-line" d="M 114.5 99 L 114.5 351" opacity="1"></path><path fill="none" data-z-index="1" class="highcharts-grid-line" d="M 119.5 99 L 119.5 351" opacity="1"></path><path fill="none" data-z-index="1" class="highcharts-grid-line" d="M 124.5 99 L 124.5 351" opacity="1"></path><path fill="none" data-z-index="1" class="highcharts-grid-line" d="M 129.5 99 L 129.5 351" opacity="1"></path><path fill="none" data-z-index="1" class="highcharts-grid-line" d="M 134.5 99 L 134.5 351" opacity="1"></path><path fill="none" data-z-index="1" class="highcharts-grid-line" d="M 139.5 99 L 139.5 351" opacity="1"></path><path fill="none" data-z-index="1" class="highcharts-grid-line" d="M 144.5 99 L 144.5 351" opacity="1"></path><path fill="none" data-z-index="1" class="highcharts-grid-line" d="M 149.5 99 L 149.5 351" opacity="1"></path><path fill="none" data-z-index="1" class="highcharts-grid-line" d="M 154.5 99 L 154.5 351" opacity="1"></path><path fill="none" data-z-index="1" class="highcharts-grid-line" d="M 159.5 99 L 159.5 351" opacity="1"></path><path fill="none" data-z-index="1" class="highcharts-grid-line" d="M 164.5 99 L 164.5 351" opacity="1"></path><path fill="none" data-z-index="1" class="highcharts-grid-line" d="M 169.5 99 L 169.5 351" opacity="1"></path><path fill="none" data-z-index="1" class="highcharts-grid-line" d="M 174.5 99 L 174.5 351" opacity="1"></path><path fill="none" data-z-index="1" class="highcharts-grid-line" d="M 179.5 99 L 179.5 351" opacity="1"></path><path fill="none" data-z-index="1" class="highcharts-grid-line" d="M 184.5 99 L 184.5 351" opacity="1"></path><path fill="none" data-z-index="1" class="highcharts-grid-line" d="M 189.5 99 L 189.5 351" opacity="1"></path><path fill="none" data-z-index="1" class="highcharts-grid-line" d="M 194.5 99 L 194.5 351" opacity="1"></path><path fill="none" data-z-index="1" class="highcharts-grid-line" d="M 199.5 99 L 199.5 351" opacity="1"></path><path fill="none" data-z-index="1" class="highcharts-grid-line" d="M 204.5 99 L 204.5 351" opacity="1"></path><path fill="none" data-z-index="1" class="highcharts-grid-line" d="M 209.5 99 L 209.5 351" opacity="1"></path><path fill="none" data-z-index="1" class="highcharts-grid-line" d="M 214.5 99 L 214.5 351" opacity="1"></path><path fill="none" data-z-index="1" class="highcharts-grid-line" d="M 219.5 99 L 219.5 351" opacity="1"></path><path fill="none" data-z-index="1" class="highcharts-grid-line" d="M 224.5 99 L 224.5 351" opacity="1"></path><path fill="none" data-z-index="1" class="highcharts-grid-line" d="M 229.5 99 L 229.5 351" opacity="1"></path><path fill="none" data-z-index="1" class="highcharts-grid-line" d="M 234.5 99 L 234.5 351" opacity="1"></path><path fill="none" data-z-index="1" class="highcharts-grid-line" d="M 239.5 99 L 239.5 351" opacity="1"></path><path fill="none" data-z-index="1" class="highcharts-grid-line" d="M 244.5 99 L 244.5 351" opacity="1"></path><path fill="none" data-z-index="1" class="highcharts-grid-line" d="M 249.5 99 L 249.5 351" opacity="1"></path><path fill="none" data-z-index="1" class="highcharts-grid-line" d="M 254.5 99 L 254.5 351" opacity="1"></path><path fill="none" data-z-index="1" class="highcharts-grid-line" d="M 259.5 99 L 259.5 351" opacity="1"></path><path fill="none" data-z-index="1" class="highcharts-grid-line" d="M 264.5 99 L 264.5 351" opacity="1"></path><path fill="none" data-z-index="1" class="highcharts-grid-line" d="M 269.5 99 L 269.5 351" opacity="1"></path><path fill="none" data-z-index="1" class="highcharts-grid-line" d="M 274.5 99 L 274.5 351" opacity="1"></path><path fill="none" data-z-index="1" class="highcharts-grid-line" d="M 279.5 99 L 279.5 351" opacity="1"></path><path fill="none" data-z-index="1" class="highcharts-grid-line" d="M 284.5 99 L 284.5 351" opacity="1"></path><path fill="none" data-z-index="1" class="highcharts-grid-line" d="M 289.5 99 L 289.5 351" opacity="1"></path><path fill="none" data-z-index="1" class="highcharts-grid-line" d="M 294.5 99 L 294.5 351" opacity="1"></path><path fill="none" data-z-index="1" class="highcharts-grid-line" d="M 299.5 99 L 299.5 351" opacity="1"></path><path fill="none" data-z-index="1" class="highcharts-grid-line" d="M 304.5 99 L 304.5 351" opacity="1"></path><path fill="none" data-z-index="1" class="highcharts-grid-line" d="M 309.5 99 L 309.5 351" opacity="1"></path><path fill="none" data-z-index="1" class="highcharts-grid-line" d="M 314.5 99 L 314.5 351" opacity="1"></path><path fill="none" data-z-index="1" class="highcharts-grid-line" d="M 319.5 99 L 319.5 351" opacity="1"></path><path fill="none" data-z-index="1" class="highcharts-grid-line" d="M 324.5 99 L 324.5 351" opacity="1"></path><path fill="none" data-z-index="1" class="highcharts-grid-line" d="M 329.5 99 L 329.5 351" opacity="1"></path><path fill="none" data-z-index="1" class="highcharts-grid-line" d="M 334.5 99 L 334.5 351" opacity="1"></path><path fill="none" data-z-index="1" class="highcharts-grid-line" d="M 339.5 99 L 339.5 351" opacity="1"></path><path fill="none" data-z-index="1" class="highcharts-grid-line" d="M 344.5 99 L 344.5 351" opacity="1"></path><path fill="none" data-z-index="1" class="highcharts-grid-line" d="M 349.5 99 L 349.5 351" opacity="1"></path><path fill="none" data-z-index="1" class="highcharts-grid-line" d="M 354.5 99 L 354.5 351" opacity="1"></path><path fill="none" data-z-index="1" class="highcharts-grid-line" d="M 359.5 99 L 359.5 351" opacity="1"></path><path fill="none" data-z-index="1" class="highcharts-grid-line" d="M 364.5 99 L 364.5 351" opacity="1"></path><path fill="none" data-z-index="1" class="highcharts-grid-line" d="M 369.5 99 L 369.5 351" opacity="1"></path><path fill="none" data-z-index="1" class="highcharts-grid-line" d="M 374.5 99 L 374.5 351" opacity="1"></path><path fill="none" data-z-index="1" class="highcharts-grid-line" d="M 379.5 99 L 379.5 351" opacity="1"></path><path fill="none" data-z-index="1" class="highcharts-grid-line" d="M 384.5 99 L 384.5 351" opacity="1"></path><path fill="none" data-z-index="1" class="highcharts-grid-line" d="M 389.5 99 L 389.5 351" opacity="1"></path><path fill="none" data-z-index="1" class="highcharts-grid-line" d="M 394.5 99 L 394.5 351" opacity="1"></path><path fill="none" data-z-index="1" class="highcharts-grid-line" d="M 399.5 99 L 399.5 351" opacity="1"></path><path fill="none" data-z-index="1" class="highcharts-grid-line" d="M 405.5 99 L 405.5 351" opacity="1"></path><path fill="none" data-z-index="1" class="highcharts-grid-line" d="M 410.5 99 L 410.5 351" opacity="1"></path><path fill="none" data-z-index="1" class="highcharts-grid-line" d="M 415.5 99 L 415.5 351" opacity="1"></path><path fill="none" data-z-index="1" class="highcharts-grid-line" d="M 420.5 99 L 420.5 351" opacity="1"></path><path fill="none" data-z-index="1" class="highcharts-grid-line" d="M 425.5 99 L 425.5 351" opacity="1"></path><path fill="none" data-z-index="1" class="highcharts-grid-line" d="M 430.5 99 L 430.5 351" opacity="1"></path><path fill="none" data-z-index="1" class="highcharts-grid-line" d="M 435.5 99 L 435.5 351" opacity="1"></path><path fill="none" data-z-index="1" class="highcharts-grid-line" d="M 440.5 99 L 440.5 351" opacity="1"></path><path fill="none" data-z-index="1" class="highcharts-grid-line" d="M 445.5 99 L 445.5 351" opacity="1"></path><path fill="none" data-z-index="1" class="highcharts-grid-line" d="M 450.5 99 L 450.5 351" opacity="1"></path><path fill="none" data-z-index="1" class="highcharts-grid-line" d="M 455.5 99 L 455.5 351" opacity="1"></path><path fill="none" data-z-index="1" class="highcharts-grid-line" d="M 460.5 99 L 460.5 351" opacity="1"></path><path fill="none" data-z-index="1" class="highcharts-grid-line" d="M 465.5 99 L 465.5 351" opacity="1"></path><path fill="none" data-z-index="1" class="highcharts-grid-line" d="M 470.5 99 L 470.5 351" opacity="1"></path></g><g class="highcharts-grid highcharts-yaxis-grid" data-z-index="1"><path fill="none" stroke="#B9CFD7" stroke-width="0.5" data-z-index="1" class="highcharts-grid-line" d="M 40 351.25 L 475 351.25" opacity="1"></path><path fill="none" stroke="#B9CFD7" stroke-width="0.5" data-z-index="1" class="highcharts-grid-line" d="M 40 315.25 L 475 315.25" opacity="1"></path><path fill="none" stroke="#B9CFD7" stroke-width="0.5" data-z-index="1" class="highcharts-grid-line" d="M 40 279.25 L 475 279.25" opacity="1"></path><path fill="none" stroke="#B9CFD7" stroke-width="0.5" data-z-index="1" class="highcharts-grid-line" d="M 40 243.25 L 475 243.25" opacity="1"></path><path fill="none" stroke="#B9CFD7" stroke-width="0.5" data-z-index="1" class="highcharts-grid-line" d="M 40 207.25 L 475 207.25" opacity="1"></path><path fill="none" stroke="#B9CFD7" stroke-width="0.5" data-z-index="1" class="highcharts-grid-line" d="M 40 171.25 L 475 171.25" opacity="1"></path><path fill="none" stroke="#B9CFD7" stroke-width="0.5" data-z-index="1" class="highcharts-grid-line" d="M 40 135.25 L 475 135.25" opacity="1"></path><path fill="none" stroke="#B9CFD7" stroke-width="0.5" data-z-index="1" class="highcharts-grid-line" d="M 40 98.75 L 475 98.75" opacity="1"></path></g><rect fill="none" class="highcharts-plot-border" data-z-index="1" x="40" y="99" width="435" height="252"></rect><g class="highcharts-axis highcharts-xaxis" data-z-index="2"><path fill="none" class="highcharts-axis-line" stroke="#B9CFD7" stroke-width="0.5" data-z-index="7" d="M 40 351.25 L 475 351.25"></path></g><g class="highcharts-axis highcharts-yaxis" data-z-index="2"><path fill="none" class="highcharts-axis-line" data-z-index="7" d="M 40 99 L 40 351"></path></g><g class="highcharts-series-group" data-z-index="3"><g class="highcharts-series highcharts-series-0 highcharts-line-series" data-z-index="0.1" opacity="1" transform="translate(40,99) scale(1 1)" clip-path="url(#highcharts-4jedt50-266-)"><path fill="none" d="M 4.2647058823525 120.32846712 L 9.2820069204148 116.00731224 L 14.299307958477 120.34813118400001 L 19.316608996539 114.751534176 L 24.333910034602 111.394163088 L 29.351211072664 88.04831047200003 L 34.368512110726 75.45215195999998 L 39.385813148789 80.18317195200001 L 44.403114186851 71.02734371999998 L 49.420415224913 60.552679031999986 L 54.437716262975 71.103460176 L 59.455017301038 85.39030504799999 L 64.4723183391 97.540794648 L 69.489619377162 90.13208112000001 L 74.506920415225 88.336987416 L 79.524221453287 92.69782070399998 L 84.541522491349 99.96316451999999 L 89.558823529411 107.31569112 L 94.576124567474 94.37146156800003 L 99.593425605536 102.435665328 L 104.6107266436 100.60275614400001 L 109.62802768166 93.44766103200001 L 114.64532871972 92.51812519199999 L 119.66262975779 86.485255488 L 124.67993079585 78.86986444799999 L 129.69723183391 73.22440219199999 L 134.71453287197 66.57306436800002 L 139.73183391003 81.61287263999998 L 144.7491349481 83.28375108 L 149.76643598616 84.34183428 L 154.78373702422 82.38930228000001 L 159.80103806228 79.894916352 L 164.81833910035 77.025661848 L 169.83564013841 72.62335483200002 L 174.85294117647 88.01113154400002 L 179.87024221453 98.17733772 L 184.8875432526 101.033153424 L 189.90484429066 111.01566880799999 L 194.92214532872 116.979790536 L 199.93944636678 117.078790752 L 204.95674740484 114.32525925599998 L 209.97404844291 105.569539704 L 214.99134948097 117.73897027199999 L 220.00865051903 103.009563216 L 225.02595155709 106.857262728 L 230.04325259516 100.30182890399999 L 235.06055363322 113.66187926399999 L 240.07785467128 114.641270064 L 245.09515570934 116.00132976 L 250.1124567474 106.36005196800002 L 255.12975778547 110.99973664800001 L 260.14705882353 103.90092515999999 L 265.16435986159 111.84598476 L 270.18166089965 106.644935592 L 275.19896193772 111.67364728800001 L 280.21626297578 111.470212656 L 285.23356401384 115.29328723200001 L 290.2508650519 112.67982935999999 L 295.26816608997 120.37171039200001 L 300.28546712803 116.93475273600001 L 305.30276816609 117.78020870399999 L 310.32006920415 113.99473296 L 315.33737024221 120.25093039199999 L 320.35467128028 118.98673437599999 L 325.37197231834 121.69972029600001 L 330.3892733564 124.27856856 L 335.40657439446 126.13258432800001 L 340.42387543253 117.09010699199999 L 345.44117647059 119.436562296 L 350.45847750865 117.000194832 L 355.47577854671 119.898123408 L 360.49307958478 126.714630024 L 365.51038062284 129.97680256799998 L 370.5276816609 132.073174296 L 375.54498269896 128.702881656 L 380.56228373702 131.90127336 L 385.57958477509 133.652981016 L 390.59688581315 139.05476892000001 L 395.61418685121 134.3316636 L 400.63148788927 135.509375664 L 405.64878892734 130.428696744 L 410.6660899654 131.635117944 L 415.68339100346 124.56407592000001 L 420.70069204152 132.689175624 L 425.71799307959 131.067781776 L 430.73529411765 133.634574" class="highcharts-graph" data-z-index="1" stroke="rgb(176, 0, 0)" stroke-width="2" stroke-linejoin="round" stroke-linecap="round"></path></g><g class="highcharts-markers highcharts-series-0 highcharts-line-series" data-z-index="0.1" opacity="1" transform="translate(40,99) scale(1 1)" clip-path="none"></g><g class="highcharts-series highcharts-series-1 highcharts-line-series" data-z-index="0.1" opacity="1" transform="translate(40,99) scale(1 1)" clip-path="url(#highcharts-4jedt50-266-)"><path fill="none" d="M 4.2647058823525 147.92498251199999 L 9.2820069204148 143.664290064 L 14.299307958477 60.966481824 L 19.316608996539 83.765011464 L 24.333910034602 75.63317421599999 L 29.351211072664 97.02998964 L 34.368512110726 22.931055504000028 L 39.385813148789 150.347246976 L 44.403114186851 126.04924548 L 49.420415224913 143.707176576 L 54.437716262975 142.21087682400002 L 59.455017301038 146.175694776 L 64.4723183391 153.1480734 L 69.489619377162 155.738473848 L 74.506920415225 156.872725272 L 79.524221453287 156.467991888 L 84.541522491349 153.952731072 L 89.558823529411 155.645682984 L 94.576124567474 154.340897472 L 99.593425605536 153.056270016 L 104.6107266436 149.904266184 L 109.62802768166 147.00915021600002 L 114.64532871972 144.40312418399998 L 119.66262975779 145.641458376 L 124.67993079585 143.42486853600002 L 129.69723183391 144.999274536 L 134.71453287197 144.024772752 L 139.73183391003 144.682905456 L 144.7491349481 143.277919848 L 149.76643598616 138.166474176 L 154.78373702422 139.56234588 L 159.80103806228 130.81721817599998 L 164.81833910035 135.28973167200002 L 169.83564013841 132.364380816 L 174.85294117647 134.214069744 L 179.87024221453 132.27267852 L 184.8875432526 127.43416404 L 189.90484429066 129.983208984 L 194.92214532872 125.60461595999999 L 199.93944636678 129.135352608 L 204.95674740484 123.023353536 L 209.97404844291 123.11690061600001 L 214.99134948097 124.636560552 L 220.00865051903 126.0503154 L 225.02595155709 124.29297799199999 L 230.04325259516 125.67158532 L 235.06055363322 122.06171181599998 L 240.07785467128 124.740590472 L 245.09515570934 120.78327405599998 L 250.1124567474 123.362742096 L 255.12975778547 118.909912032 L 260.14705882353 121.53480408000001 L 265.16435986159 120.87569714399999 L 270.18166089965 120.67731842399999 L 275.19896193772 119.793326544 L 280.21626297578 118.557906984 L 285.23356401384 114.774264072 L 290.2508650519 112.136530824 L 295.26816608997 113.456442528 L 300.28546712803 107.94097756800002 L 305.30276816609 106.84765051199997 L 310.32006920415 103.027911552 L 315.33737024221 100.79180164799999 L 320.35467128028 101.90844072000002 L 325.37197231834 97.06239741600001 L 330.3892733564 99.27485863199999 L 335.40657439446 96.68965838399998 L 340.42387543253 98.516844072 L 345.44117647059 94.45646296800001 L 350.45847750865 98.52087398400002 L 355.47577854671 99.42405364799998 L 360.49307958478 105.06398328 L 365.51038062284 102.25162944000002 L 370.5276816609 102.262777632 L 375.54498269896 102.770634024 L 380.56228373702 103.93676467200001 L 385.57958477509 106.16608627200003 L 390.59688581315 104.89074436800001 L 395.61418685121 106.1358066 L 400.63148788927 109.80599428800002 L 405.64878892734 110.04501671999998 L 410.6660899654 107.63875720800002 L 415.68339100346 114.75181936799999 L 420.70069204152 113.015935152 L 425.71799307959 108.82647972000001 L 430.73529411765 110.38335876" class="highcharts-graph" data-z-index="1" stroke="rgb(105, 146, 155)" stroke-width="2" stroke-linejoin="round" stroke-linecap="round"></path></g><g class="highcharts-markers highcharts-series-1 highcharts-line-series" data-z-index="0.1" opacity="1" transform="translate(40,99) scale(1 1)" clip-path="none"></g></g><text x="10" text-anchor="start" class="highcharts-title" data-z-index="4" style="color:#000000;font-size:14px;font-weight:bold;fill:#000000;" y="21"><tspan>Mittlere Aufenthaltsdauer pro Jahr</tspan></text><text x="10" text-anchor="start" class="highcharts-subtitle" data-z-index="4" style="color:#000000;font-size:12px;font-weight:normal;fill:#000000;" y="40"><tspan>in Tagen, Basel-Stadt</tspan></text><text x="10" text-anchor="start" class="highcharts-caption" data-z-index="4" style="color:#666666;fill:#666666;" y="385"></text><g class="highcharts-legend" data-z-index="7" transform="translate(32,56)"><rect fill="none" class="highcharts-legend-box" rx="0" ry="0" x="0" y="0" width="157" height="31" visibility="visible"></rect><g data-z-index="1"><g><g class="highcharts-legend-item highcharts-line-series highcharts-color-undefined highcharts-series-0" data-z-index="1" transform="translate(8,3)"><path fill="none" d="M 0 11 L 16 11" class="highcharts-graph" stroke="rgb(176, 0, 0)" stroke-width="2"></path><text x="21" style="color:#333333;cursor:pointer;font-size:12px;font-weight:normal;fill:#333333;" text-anchor="start" data-z-index="2" y="15"><tspan>Inland</tspan></text></g><g class="highcharts-legend-item highcharts-line-series highcharts-color-undefined highcharts-series-1" data-z-index="1" transform="translate(83,3)"><path fill="none" d="M 0 11 L 16 11" class="highcharts-graph" stroke="rgb(105, 146, 155)" stroke-width="2"></path><text x="21" y="15" style="color:#333333;cursor:pointer;font-size:12px;font-weight:normal;fill:#333333;" text-anchor="start" data-z-index="2"><tspan>Ausland</tspan></text></g></g></g></g><g class="highcharts-axis-labels highcharts-xaxis-labels" data-z-index="7"><text x="44.264705882352" style="color:#000000;cursor:default;font-size:11px;fill:#000000;" text-anchor="middle" transform="translate(0,0)" y="370" opacity="1"><tspan>1938</tspan></text><text x="129.55882352941" style="color:#000000;cursor:default;font-size:11px;fill:#000000;" text-anchor="middle" transform="translate(0,0)" y="370" opacity="1"><tspan>1955</tspan></text><text x="214.85294117647" style="color:#000000;cursor:default;font-size:11px;fill:#000000;" text-anchor="middle" transform="translate(0,0)" y="370" opacity="1"><tspan>1972</tspan></text><text x="300.14705882353" style="color:#000000;cursor:default;font-size:11px;fill:#000000;" text-anchor="middle" transform="translate(0,0)" y="370" opacity="1"><tspan>1989</tspan></text><text x="385.44117647059" style="color:#000000;cursor:default;font-size:11px;fill:#000000;" text-anchor="middle" transform="translate(0,0)" y="370" opacity="1"><tspan>2006</tspan></text><text x="470.73529411765" style="color:#000000;cursor:default;font-size:11px;fill:#000000;" text-anchor="middle" transform="translate(0,0)" y="370" opacity="1"><tspan>2023</tspan></text></g><g class="highcharts-axis-labels highcharts-yaxis-labels" data-z-index="7"><text x="25" style="color:#000000;cursor:default;font-size:11px;fill:#000000;" text-anchor="end" transform="translate(0,0)" y="355" opacity="1">0.0</text><text x="25" style="color:#000000;cursor:default;font-size:11px;fill:#000000;" text-anchor="end" transform="translate(0,0)" y="319" opacity="1">0.5</text><text x="25" style="color:#000000;cursor:default;font-size:11px;fill:#000000;" text-anchor="end" transform="translate(0,0)" y="283" opacity="1">1.0</text><text x="25" style="color:#000000;cursor:default;font-size:11px;fill:#000000;" text-anchor="end" transform="translate(0,0)" y="247" opacity="1">1.5</text><text x="25" style="color:#000000;cursor:default;font-size:11px;fill:#000000;" text-anchor="end" transform="translate(0,0)" y="211" opacity="1">2.0</text><text x="25" style="color:#000000;cursor:default;font-size:11px;fill:#000000;" text-anchor="end" transform="translate(0,0)" y="175" opacity="1">2.5</text><text x="25" style="color:#000000;cursor:default;font-size:11px;fill:#000000;" text-anchor="end" transform="translate(0,0)" y="139" opacity="1">3.0</text><text x="25" style="color:#000000;cursor:default;font-size:11px;fill:#000000;" text-anchor="end" transform="translate(0,0)" y="103" opacity="1">3.5</text></g><text x="10" class="highcharts-credits" text-anchor="start" data-z-index="8" style="cursor:default;color:#000000;font-size:10px;fill:#000000;" y="403"><tspan>Quelle: Statistisches Amt Basel-Stadt, Tourismusstatistik.</tspan><tspan x="10" dy="13">Zuletzt geändert: 15.2.2024</tspan></text><g class="highcharts-control-points" data-z-index="99" clip-path="url(#highcharts-4jedt50-353-)"></g></svg>