<?xml version="1.0" standalone="no"?><!DOCTYPE svg PUBLIC "-//W3C//DTD SVG 1.1//EN" "http://www.w3.org/Graphics/SVG/1.1/DTD/svg11.dtd"><svg xmlns:xlink="http://www.w3.org/1999/xlink" version="1.1" class="highcharts-root" style="font-family:Arial;font-size:12px;" xmlns="http://www.w3.org/2000/svg" viewBox="0 0 485 415"><desc>Created with Highstock 6.1.1</desc><defs><clipPath id="highcharts-un8wq8t-6"><rect x="0" y="0" width="427" height="247" fill="none"></rect></clipPath><clipPath id="highcharts-un8wq8t-7"><rect x="0" y="0" width="427" height="247" fill="none"></rect></clipPath></defs><rect fill="#fbfbfb" class="highcharts-background" x="0" y="0" width="485" height="428" rx="0" ry="0"></rect><rect fill="none" class="highcharts-plot-background" x="48" y="119" width="427" height="247"></rect><g class="highcharts-pane-group" data-z-index="0"></g><g class="highcharts-grid highcharts-xaxis-grid " data-z-index="1"><path fill="none" data-z-index="1" class="highcharts-grid-line" d="M 83.5 119 L 83.5 366" opacity="1"></path><path fill="none" data-z-index="1" class="highcharts-grid-line" d="M 118.5 119 L 118.5 366" opacity="1"></path><path fill="none" data-z-index="1" class="highcharts-grid-line" d="M 154.5 119 L 154.5 366" opacity="1"></path><path fill="none" data-z-index="1" class="highcharts-grid-line" d="M 189.5 119 L 189.5 366" opacity="1"></path><path fill="none" data-z-index="1" class="highcharts-grid-line" d="M 225.5 119 L 225.5 366" opacity="1"></path><path fill="none" data-z-index="1" class="highcharts-grid-line" d="M 261.5 119 L 261.5 366" opacity="1"></path><path fill="none" data-z-index="1" class="highcharts-grid-line" d="M 296.5 119 L 296.5 366" opacity="1"></path><path fill="none" data-z-index="1" class="highcharts-grid-line" d="M 332.5 119 L 332.5 366" opacity="1"></path><path fill="none" data-z-index="1" class="highcharts-grid-line" d="M 367.5 119 L 367.5 366" opacity="1"></path><path fill="none" data-z-index="1" class="highcharts-grid-line" d="M 403.5 119 L 403.5 366" opacity="1"></path><path fill="none" data-z-index="1" class="highcharts-grid-line" d="M 438.5 119 L 438.5 366" opacity="1"></path><path fill="none" data-z-index="1" class="highcharts-grid-line" d="M 474.5 119 L 474.5 366" opacity="1"></path><path fill="none" data-z-index="1" class="highcharts-grid-line" d="M 47.5 119 L 47.5 366" opacity="1"></path></g><g class="highcharts-grid highcharts-yaxis-grid " data-z-index="1"><path fill="none" stroke="#B9CFD7" stroke-width="0.5" data-z-index="1" class="highcharts-grid-line" d="M 48 366.25 L 475 366.25" opacity="1"></path><path fill="none" stroke="#B9CFD7" stroke-width="0.5" data-z-index="1" class="highcharts-grid-line" d="M 48 325.25 L 475 325.25" opacity="1"></path><path fill="none" stroke="#B9CFD7" stroke-width="0.5" data-z-index="1" class="highcharts-grid-line" d="M 48 284.25 L 475 284.25" opacity="1"></path><path fill="none" stroke="#B9CFD7" stroke-width="0.5" data-z-index="1" class="highcharts-grid-line" d="M 48 243.25 L 475 243.25" opacity="1"></path><path fill="none" stroke="#B9CFD7" stroke-width="0.5" data-z-index="1" class="highcharts-grid-line" d="M 48 201.25 L 475 201.25" opacity="1"></path><path fill="none" stroke="#B9CFD7" stroke-width="0.5" data-z-index="1" class="highcharts-grid-line" d="M 48 160.25 L 475 160.25" opacity="1"></path><path fill="none" stroke="#B9CFD7" stroke-width="0.5" data-z-index="1" class="highcharts-grid-line" d="M 48 118.75 L 475 118.75" opacity="1"></path></g><rect fill="none" class="highcharts-plot-border" data-z-index="1" x="48" y="119" width="427" height="247"></rect><g class="highcharts-axis highcharts-xaxis " data-z-index="2"><path fill="none" class="highcharts-axis-line" stroke="#B9CFD7" stroke-width="0.5" data-z-index="7" d="M 48 366.25 L 475 366.25"></path></g><g class="highcharts-axis highcharts-yaxis " data-z-index="2"><path fill="none" class="highcharts-axis-line" data-z-index="7" d="M 48 119 L 48 366"></path></g><g class="highcharts-series-group" data-z-index="3"><g data-z-index="0.1" class="highcharts-series highcharts-series-0 highcharts-column-series " transform="translate(48,119) scale(1 1)" clip-path="url(#highcharts-un8wq8t-7)"><rect x="7" y="212" width="11" height="36" fill="rgb(220, 68, 14)" class="highcharts-point"></rect><rect x="43" y="211" width="10" height="37" fill="rgb(220, 68, 14)" class="highcharts-point"></rect><rect x="78" y="201" width="11" height="47" fill="rgb(220, 68, 14)" class="highcharts-point"></rect><rect x="114" y="208" width="11" height="40" fill="rgb(220, 68, 14)" class="highcharts-point"></rect><rect x="149" y="204" width="11" height="44" fill="rgb(220, 68, 14)" class="highcharts-point"></rect><rect x="185" y="208" width="11" height="40" fill="rgb(220, 68, 14)" class="highcharts-point"></rect><rect x="221" y="201" width="10" height="47" fill="rgb(220, 68, 14)" class="highcharts-point"></rect><rect x="256" y="208" width="11" height="40" fill="rgb(220, 68, 14)" class="highcharts-point"></rect><rect x="292" y="206" width="10" height="42" fill="rgb(220, 68, 14)" class="highcharts-point"></rect><rect x="327" y="199" width="11" height="49" fill="rgb(220, 68, 14)" class="highcharts-point"></rect><rect x="363" y="195" width="11" height="53" fill="rgb(220, 68, 14)" class="highcharts-point"></rect><rect x="399" y="205" width="10" height="43" fill="rgb(220, 68, 14)" class="highcharts-point"></rect></g><g data-z-index="0.1" class="highcharts-markers highcharts-series-0 highcharts-column-series " transform="translate(48,119) scale(1 1)" clip-path="none"></g><g data-z-index="0.1" class="highcharts-series highcharts-series-1 highcharts-column-series " transform="translate(48,119) scale(1 1)" clip-path="url(#highcharts-un8wq8t-7)"><rect x="7" y="144" width="11" height="68" fill="rgb(168, 196, 203)" class="highcharts-point"></rect><rect x="43" y="135" width="10" height="76" fill="rgb(168, 196, 203)" class="highcharts-point"></rect><rect x="78" y="100" width="11" height="101" fill="rgb(168, 196, 203)" class="highcharts-point"></rect><rect x="114" y="121" width="11" height="87" fill="rgb(168, 196, 203)" class="highcharts-point"></rect><rect x="149" y="105" width="11" height="99" fill="rgb(168, 196, 203)" class="highcharts-point"></rect><rect x="185" y="88" width="11" height="120" fill="rgb(168, 196, 203)" class="highcharts-point"></rect><rect x="221" y="95" width="10" height="106" fill="rgb(168, 196, 203)" class="highcharts-point"></rect><rect x="256" y="105" width="11" height="103" fill="rgb(168, 196, 203)" class="highcharts-point"></rect><rect x="292" y="102" width="10" height="104" fill="rgb(168, 196, 203)" class="highcharts-point"></rect><rect x="327" y="99" width="11" height="100" fill="rgb(168, 196, 203)" class="highcharts-point"></rect><rect x="363" y="106" width="11" height="89" fill="rgb(168, 196, 203)" class="highcharts-point"></rect><rect x="399" y="121" width="10" height="84" fill="rgb(168, 196, 203)" class="highcharts-point"></rect></g><g data-z-index="0.1" class="highcharts-markers highcharts-series-1 highcharts-column-series " transform="translate(48,119) scale(1 1)" clip-path="none"></g><g data-z-index="0.1" class="highcharts-series highcharts-series-2 highcharts-column-series " transform="translate(48,119) scale(1 1)" clip-path="url(#highcharts-un8wq8t-7)"><rect x="18" y="214" width="10" height="34" fill="rgb(176, 0, 0)" class="highcharts-point"></rect><rect x="53" y="214" width="11" height="34" fill="rgb(176, 0, 0)" class="highcharts-point"></rect><rect x="89" y="191" width="11" height="57" fill="rgb(176, 0, 0)" class="highcharts-point"></rect><rect x="125" y="199" width="10" height="49" fill="rgb(176, 0, 0)" class="highcharts-point"></rect><rect x="160" y="185" width="11" height="63" fill="rgb(176, 0, 0)" class="highcharts-point"></rect><rect x="196" y="196" width="10" height="52" fill="rgb(176, 0, 0)" class="highcharts-point"></rect><rect x="231" y="184" width="11" height="64" fill="rgb(176, 0, 0)" class="highcharts-point"></rect><rect x="267" y="195" width="11" height="53" fill="rgb(176, 0, 0)" class="highcharts-point"></rect><rect x="302" y="193" width="11" height="55" fill="rgb(176, 0, 0)" class="highcharts-point"></rect><rect x="338" y="182" width="11" height="66" fill="rgb(176, 0, 0)" class="highcharts-point"></rect><rect x="374" y="179" width="10" height="69" fill="rgb(176, 0, 0)" class="highcharts-point"></rect><rect x="409" y="192" width="11" height="56" fill="rgb(176, 0, 0)" class="highcharts-point"></rect></g><g data-z-index="0.1" class="highcharts-markers highcharts-series-2 highcharts-column-series " transform="translate(48,119) scale(1 1)" clip-path="none"></g><g data-z-index="0.1" class="highcharts-series highcharts-series-3 highcharts-column-series " transform="translate(48,119) scale(1 1)" clip-path="url(#highcharts-un8wq8t-7)"><rect x="18" y="141" width="10" height="73" fill="rgb(105, 146, 155)" class="highcharts-point"></rect><rect x="53" y="137" width="11" height="77" fill="rgb(105, 146, 155)" class="highcharts-point"></rect><rect x="89" y="83" width="11" height="108" fill="rgb(105, 146, 155)" class="highcharts-point"></rect><rect x="125" y="101" width="10" height="98" fill="rgb(105, 146, 155)" class="highcharts-point"></rect><rect x="160" y="47" width="11" height="138" fill="rgb(105, 146, 155)" class="highcharts-point"></rect><rect x="196" y="58" width="10" height="138" fill="rgb(105, 146, 155)" class="highcharts-point"></rect><rect x="231" y="50" width="11" height="134" fill="rgb(105, 146, 155)" class="highcharts-point"></rect><rect x="267" y="74" width="11" height="121" fill="rgb(105, 146, 155)" class="highcharts-point"></rect><rect x="302" y="82" width="11" height="111" fill="rgb(105, 146, 155)" class="highcharts-point"></rect><rect x="338" y="69" width="11" height="113" fill="rgb(105, 146, 155)" class="highcharts-point"></rect><rect x="374" y="86" width="10" height="93" fill="rgb(105, 146, 155)" class="highcharts-point"></rect><rect x="409" y="95" width="11" height="97" fill="rgb(105, 146, 155)" class="highcharts-point"></rect></g><g data-z-index="0.1" class="highcharts-markers highcharts-series-3 highcharts-column-series " transform="translate(48,119) scale(1 1)" clip-path="none"></g></g><text x="10" text-anchor="start" class="highcharts-title" data-z-index="4" style="color:#000000;font-size:14px;font-weight:bold;fill:#000000;" y="21"><tspan>Logiernächte pro Monat nach Herkunft der Gäste</tspan></text><text x="10" text-anchor="start" class="highcharts-subtitle" data-z-index="4" style="color:#000000;font-size:12px;font-weight:normal;fill:#000000;" y="40"><tspan>Basel-Stadt</tspan></text><g class="highcharts-legend" data-z-index="7" transform="translate(40,56)"><rect fill="none" class="highcharts-legend-box" rx="0" ry="0" x="0" y="0" width="356" height="51" visibility="visible"></rect><g data-z-index="1"><g><g class="highcharts-legend-item highcharts-column-series highcharts-color-undefined highcharts-series-0" data-z-index="1" transform="translate(8,3)"><text x="21" style="color:#333333;font-size:12px;font-weight:normal;cursor:pointer;fill:#333333;" text-anchor="start" data-z-index="2" y="15"><tspan>Inland Ø 2010-2019</tspan></text><rect x="2" y="4" width="12" height="12" fill="rgb(220, 68, 14)" class="highcharts-point" data-z-index="3"></rect></g><g class="highcharts-legend-item highcharts-column-series highcharts-color-undefined highcharts-series-1" data-z-index="1" transform="translate(188,3)"><text x="21" y="15" style="color:#333333;font-size:12px;font-weight:normal;cursor:pointer;fill:#333333;" text-anchor="start" data-z-index="2"><tspan>Ausland Ø 2010-2019</tspan></text><rect x="2" y="4" width="12" height="12" fill="rgb(168, 196, 203)" class="highcharts-point" data-z-index="3"></rect></g><g class="highcharts-legend-item highcharts-column-series highcharts-color-undefined highcharts-series-2" data-z-index="1" transform="translate(8,23)"><text x="21" y="15" style="color:#333333;font-size:12px;font-weight:normal;cursor:pointer;fill:#333333;" text-anchor="start" data-z-index="2"><tspan>Inland 2019</tspan></text><rect x="2" y="4" width="12" height="12" fill="rgb(176, 0, 0)" class="highcharts-point" data-z-index="3"></rect></g><g class="highcharts-legend-item highcharts-column-series highcharts-color-undefined highcharts-series-3" data-z-index="1" transform="translate(188,23)"><text x="21" y="15" style="color:#333333;font-size:12px;font-weight:normal;cursor:pointer;fill:#333333;" text-anchor="start" data-z-index="2"><tspan>Ausland 2019</tspan></text><rect x="2" y="4" width="12" height="12" fill="rgb(105, 146, 155)" class="highcharts-point" data-z-index="3"></rect></g></g></g></g><g class="highcharts-axis-labels highcharts-xaxis-labels " data-z-index="7"><text x="65.79166666666633" style="color:#000000;cursor:default;font-size:11px;fill:#000000;" text-anchor="middle" transform="translate(0,0)" y="385" opacity="1">Jan</text><text x="101.37500000000333" style="color:#000000;cursor:default;font-size:11px;fill:#000000;" text-anchor="middle" transform="translate(0,0)" y="385" opacity="1">Feb</text><text x="136.95833333333334" style="color:#000000;cursor:default;font-size:11px;fill:#000000;" text-anchor="middle" transform="translate(0,0)" y="385" opacity="1">Mrz</text><text x="172.54166666666333" style="color:#000000;cursor:default;font-size:11px;fill:#000000;" text-anchor="middle" transform="translate(0,0)" y="385" opacity="1">Apr</text><text x="208.12500000000335" style="color:#000000;cursor:default;font-size:11px;fill:#000000;" text-anchor="middle" transform="translate(0,0)" y="385" opacity="1">Mai</text><text x="243.70833333333334" style="color:#000000;cursor:default;font-size:11px;fill:#000000;" text-anchor="middle" transform="translate(0,0)" y="385" opacity="1">Jun</text><text x="279.29166666666333" style="color:#000000;cursor:default;font-size:11px;fill:#000000;" text-anchor="middle" transform="translate(0,0)" y="385" opacity="1">Jul</text><text x="314.8750000000033" style="color:#000000;cursor:default;font-size:11px;fill:#000000;" text-anchor="middle" transform="translate(0,0)" y="385" opacity="1">Aug</text><text x="350.4583333333333" style="color:#000000;cursor:default;font-size:11px;fill:#000000;" text-anchor="middle" transform="translate(0,0)" y="385" opacity="1">Sep</text><text x="386.04166666666333" style="color:#000000;cursor:default;font-size:11px;fill:#000000;" text-anchor="middle" transform="translate(0,0)" y="385" opacity="1">Okt</text><text x="421.6250000000033" style="color:#000000;cursor:default;font-size:11px;fill:#000000;" text-anchor="middle" transform="translate(0,0)" y="385" opacity="1">Nov</text><text x="457.2083333333333" style="color:#000000;cursor:default;font-size:11px;fill:#000000;" text-anchor="middle" transform="translate(0,0)" y="385" opacity="1">Dez</text></g><g class="highcharts-axis-labels highcharts-yaxis-labels " data-z-index="7"><text x="33" style="color:#000000;cursor:default;font-size:11px;fill:#000000;" text-anchor="end" transform="translate(0,0)" y="370" opacity="1">0</text><text x="33" style="color:#000000;cursor:default;font-size:11px;fill:#000000;" text-anchor="end" transform="translate(0,0)" y="329" opacity="1">30k</text><text x="33" style="color:#000000;cursor:default;font-size:11px;fill:#000000;" text-anchor="end" transform="translate(0,0)" y="288" opacity="1">60k</text><text x="33" style="color:#000000;cursor:default;font-size:11px;fill:#000000;" text-anchor="end" transform="translate(0,0)" y="247" opacity="1">90k</text><text x="33" style="color:#000000;cursor:default;font-size:11px;fill:#000000;" text-anchor="end" transform="translate(0,0)" y="205" opacity="1">120k</text><text x="33" style="color:#000000;cursor:default;font-size:11px;fill:#000000;" text-anchor="end" transform="translate(0,0)" y="164" opacity="1">150k</text><text x="33" style="color:#000000;cursor:default;font-size:11px;fill:#000000;" text-anchor="end" transform="translate(0,0)" y="123" opacity="1">180k</text></g><text x="10" class="highcharts-credits" text-anchor="start" data-z-index="8" style="cursor:default;color:#000000;font-size:10px;fill:#000000;" y="403"><tspan>Quelle: Statistisches Amt Basel-Stadt, Tourismusstatistik.</tspan><tspan x="10" dy="13">Zuletzt geändert: 2020-2-17</tspan></text></svg>