<?xml version="1.0" standalone="no"?><!DOCTYPE svg PUBLIC "-//W3C//DTD SVG 1.1//EN" "http://www.w3.org/Graphics/SVG/1.1/DTD/svg11.dtd"><svg xmlns:xlink="http://www.w3.org/1999/xlink" version="1.1" class="highcharts-root" style="font-family:Arial;font-size:12px;" xmlns="http://www.w3.org/2000/svg" viewBox="0 0 485 415"><desc>Created with Highcharts 8.2.2</desc><defs><clipPath id="highcharts-07juh14-179-"><rect x="0" y="0" width="402" height="252" fill="none"></rect></clipPath><clipPath id="highcharts-07juh14-266-"><rect x="0" y="0" width="402" height="252" fill="none"></rect></clipPath><clipPath id="highcharts-07juh14-353-"><rect x="73" y="99" width="402" height="252" fill="none"></rect></clipPath></defs><rect fill="#fbfbfb" class="highcharts-background" x="0" y="0" width="485" height="428" rx="0" ry="0"></rect><rect fill="none" class="highcharts-plot-background" x="73" y="99" width="402" height="252"></rect><g class="highcharts-pane-group" data-z-index="0"></g><g class="highcharts-grid highcharts-xaxis-grid" data-z-index="1"><path fill="none" data-z-index="1" class="highcharts-grid-line" d="M 74.5 99 L 74.5 351" opacity="1"></path><path fill="none" data-z-index="1" class="highcharts-grid-line" d="M 154.5 99 L 154.5 351" opacity="1"></path><path fill="none" data-z-index="1" class="highcharts-grid-line" d="M 233.5 99 L 233.5 351" opacity="1"></path><path fill="none" data-z-index="1" class="highcharts-grid-line" d="M 313.5 99 L 313.5 351" opacity="1"></path><path fill="none" data-z-index="1" class="highcharts-grid-line" d="M 392.5 99 L 392.5 351" opacity="1"></path><path fill="none" data-z-index="1" class="highcharts-grid-line" d="M 472.5 99 L 472.5 351" opacity="1"></path></g><g class="highcharts-grid highcharts-yaxis-grid" data-z-index="1"><path fill="none" stroke="#B9CFD7" stroke-width="0.5" data-z-index="1" class="highcharts-grid-line" d="M 73 351.25 L 475 351.25" opacity="1"></path><path fill="none" stroke="#B9CFD7" stroke-width="0.5" data-z-index="1" class="highcharts-grid-line" d="M 73 315.25 L 475 315.25" opacity="1"></path><path fill="none" stroke="#B9CFD7" stroke-width="0.5" data-z-index="1" class="highcharts-grid-line" d="M 73 279.25 L 475 279.25" opacity="1"></path><path fill="none" stroke="#B9CFD7" stroke-width="0.5" data-z-index="1" class="highcharts-grid-line" d="M 73 243.25 L 475 243.25" opacity="1"></path><path fill="none" stroke="#B9CFD7" stroke-width="0.5" data-z-index="1" class="highcharts-grid-line" d="M 73 207.25 L 475 207.25" opacity="1"></path><path fill="none" stroke="#B9CFD7" stroke-width="0.5" data-z-index="1" class="highcharts-grid-line" d="M 73 171.25 L 475 171.25" opacity="1"></path><path fill="none" stroke="#B9CFD7" stroke-width="0.5" data-z-index="1" class="highcharts-grid-line" d="M 73 135.25 L 475 135.25" opacity="1"></path><path fill="none" stroke="#B9CFD7" stroke-width="0.5" data-z-index="1" class="highcharts-grid-line" d="M 73 98.75 L 475 98.75" opacity="1"></path></g><rect fill="none" class="highcharts-plot-border" data-z-index="1" x="73" y="99" width="402" height="252"></rect><g class="highcharts-axis highcharts-xaxis" data-z-index="2"><path fill="none" class="highcharts-axis-line" stroke="#B9CFD7" stroke-width="0.5" data-z-index="7" d="M 73 351.25 L 475 351.25"></path></g><g class="highcharts-axis highcharts-yaxis" data-z-index="2"><path fill="none" class="highcharts-axis-line" data-z-index="7" d="M 73 99 L 73 351"></path></g><g class="highcharts-series-group" data-z-index="3"><g class="highcharts-series highcharts-series-0 highcharts-area-series" data-z-index="0.1" opacity="1" transform="translate(73,99) scale(1 1)" clip-path="url(#highcharts-07juh14-266-)"><path fill="rgb(105,146,155)" fill-opacity="0.75" d="M 2.3372093023256 214.01568 L 7.0116279069767 233.220384 L 11.686046511628 230.11416 L 16.360465116279 229.012128 L 21.03488372093 226.03852799999999 L 25.709302325581 221.825088 L 30.383720930233 200.51308799999998 L 35.058139534884 182.43 L 39.732558139535 177.16392000000002 L 44.406976744186 175.38191999999998 L 49.081395348837 185.32065599999999 L 53.755813953488 186.500304 L 58.43023255814 183.368016 L 63.104651162791 180.300384 L 67.779069767442 179.44617599999998 L 72.453488372093 181.57579199999998 L 77.127906976744 180.32976 L 81.802325581395 178.349328 L 86.476744186047 177.57 L 91.151162790698 174.317472 L 95.825581395349 168.836976 L 100.5 161.616816 L 105.17441860465 159.565968 L 109.8488372093 153.71496 L 114.52325581395 154.88567999999998 L 119.1976744186 152.219664 L 123.87209302326 154.276128 L 128.54651162791 151.69665600000002 L 133.22093023256 153.80784 L 137.89534883721 154.235952 L 142.56976744186 147.09672 L 147.24418604651 145.285344 L 151.91860465116 143.61091199999998 L 156.59302325581 145.763424 L 161.26744186047 153.98884800000002 L 165.94186046512 158.78376 L 170.61627906977 164.44727999999998 L 175.29069767442 163.175616 L 179.96511627907 156.261168 L 184.63953488372 158.31633599999998 L 189.31395348837 156.887712 L 193.98837209302 147.631248 L 198.66279069767 149.181552 L 203.33720930233 154.493856 L 208.01162790698 153.818784 L 212.68604651163 152.762112 L 217.36046511628 155.536128 L 222.03488372093 156.898224 L 226.70930232558 157.92768 L 231.38372093023 155.89915200000002 L 236.05813953488 149.53579200000001 L 240.73255813953 152.304768 L 245.40697674419 158.133168 L 250.08139534884 160.618176 L 254.75581395349 165.912192 L 259.43023255814 167.172912 L 264.10465116279 163.182096 L 268.77906976744 164.44296 L 273.45348837209 162.10526399999998 L 278.12790697674 163.57608 L 282.8023255814 159.498288 L 287.47674418605 157.140576 L 292.1511627907 158.77584000000002 L 296.82558139535 161.815968 L 301.5 156.810816 L 306.17441860465 136.346544 L 310.8488372093 138.90412800000001 L 315.52325581395 124.304112 L 320.1976744186 116.036352 L 324.87209302326 106.71652799999998 L 329.54651162791 103.630752 L 334.22093023256 97.76433599999999 L 338.89534883721 96.58036799999999 L 343.56976744186 96.20539199999999 L 348.24418604651 92.75587199999998 L 352.91860465116 84.53692799999999 L 357.59302325581 78.94137599999999 L 362.26744186047 76.65451199999998 L 366.94186046512 60.76123200000001 L 371.61627906977 52.344144 L 376.29069767442 47.01801599999999 L 380.96511627907 173.389536 L 385.63953488372 139.016592 L 390.31395348837 64.640592 L 394.98837209302 39.6036 L 399.66279069767 28.234800000000007 L 399.66279069767 168.163344 L 394.98837209302 174.07483200000001 L 390.31395348837 174.72528 L 385.63953488372 194.138784 L 380.96511627907 211.750128 L 376.29069767442 183.344112 L 371.61627906977 186.047568 L 366.94186046512 190.907424 L 362.26744186047 193.507776 L 357.59302325581 194.662224 L 352.91860465116 199.619136 L 348.24418604651 205.52083199999998 L 343.56976744186 206.86881599999998 L 338.89534883721 207.867168 L 334.22093023256 208.27713599999998 L 329.54651162791 206.779248 L 324.87209302326 208.960416 L 320.1976744186 214.576704 L 315.52325581395 219.238272 L 310.8488372093 217.50408 L 306.17441860465 216.86688 L 301.5 223.412112 L 296.82558139535 224.702352 L 292.1511627907 220.976784 L 287.47674418605 222.475824 L 282.8023255814 221.186736 L 278.12790697674 225.301536 L 273.45348837209 224.315136 L 268.77906976744 224.990928 L 264.10465116279 223.196112 L 259.43023255814 228.914064 L 254.75581395349 226.382544 L 250.08139534884 225.344448 L 245.40697674419 221.338512 L 240.73255813953 222.414048 L 236.05813953488 219.472704 L 231.38372093023 223.09127999999998 L 226.70930232558 220.617504 L 222.03488372093 222.545952 L 217.36046511628 222.029424 L 212.68604651163 224.721936 L 208.01162790698 221.160672 L 203.33720930233 224.32737600000002 L 198.66279069767 221.183712 L 193.98837209302 218.18448 L 189.31395348837 221.079744 L 184.63953488372 224.490384 L 179.96511627907 222.348096 L 175.29069767442 226.264608 L 170.61627906977 224.034912 L 165.94186046512 221.454576 L 161.26744186047 220.988736 L 156.59302325581 218.529216 L 151.91860465116 216.073728 L 147.24418604651 217.539504 L 142.56976744186 218.09116799999998 L 137.89534883721 219.63081599999998 L 133.22093023256 220.641552 L 128.54651162791 219.809952 L 123.87209302326 218.961936 L 119.1976744186 218.122128 L 114.52325581395 218.012256 L 109.8488372093 218.591424 L 105.17441860465 219.962304 L 100.5 220.82544000000001 L 95.825581395349 223.224336 L 91.151162790698 224.68824 L 86.476744186047 225.362592 L 81.802325581395 224.948736 L 77.127906976744 226.303488 L 72.453488372093 225.848448 L 67.779069767442 223.842384 L 63.104651162791 221.931504 L 58.43023255814 222.837552 L 53.755813953488 223.319088 L 49.081395348837 220.915296 L 44.406976744186 216.3348 L 39.732558139535 215.054496 L 35.058139534884 214.195536 L 30.383720930233 216.69335999999998 L 25.709302325581 223.326864 L 21.03488372093 227.8368 L 16.360465116279 232.1892 L 11.686046511628 233.481888 L 7.0116279069767 236.389248 L 2.3372093023256 234.741168" class="highcharts-area" data-z-index="0"></path><path fill="none" d="M 2.3372093023256 214.01568 L 7.0116279069767 233.220384 L 11.686046511628 230.11416 L 16.360465116279 229.012128 L 21.03488372093 226.03852799999999 L 25.709302325581 221.825088 L 30.383720930233 200.51308799999998 L 35.058139534884 182.43 L 39.732558139535 177.16392000000002 L 44.406976744186 175.38191999999998 L 49.081395348837 185.32065599999999 L 53.755813953488 186.500304 L 58.43023255814 183.368016 L 63.104651162791 180.300384 L 67.779069767442 179.44617599999998 L 72.453488372093 181.57579199999998 L 77.127906976744 180.32976 L 81.802325581395 178.349328 L 86.476744186047 177.57 L 91.151162790698 174.317472 L 95.825581395349 168.836976 L 100.5 161.616816 L 105.17441860465 159.565968 L 109.8488372093 153.71496 L 114.52325581395 154.88567999999998 L 119.1976744186 152.219664 L 123.87209302326 154.276128 L 128.54651162791 151.69665600000002 L 133.22093023256 153.80784 L 137.89534883721 154.235952 L 142.56976744186 147.09672 L 147.24418604651 145.285344 L 151.91860465116 143.61091199999998 L 156.59302325581 145.763424 L 161.26744186047 153.98884800000002 L 165.94186046512 158.78376 L 170.61627906977 164.44727999999998 L 175.29069767442 163.175616 L 179.96511627907 156.261168 L 184.63953488372 158.31633599999998 L 189.31395348837 156.887712 L 193.98837209302 147.631248 L 198.66279069767 149.181552 L 203.33720930233 154.493856 L 208.01162790698 153.818784 L 212.68604651163 152.762112 L 217.36046511628 155.536128 L 222.03488372093 156.898224 L 226.70930232558 157.92768 L 231.38372093023 155.89915200000002 L 236.05813953488 149.53579200000001 L 240.73255813953 152.304768 L 245.40697674419 158.133168 L 250.08139534884 160.618176 L 254.75581395349 165.912192 L 259.43023255814 167.172912 L 264.10465116279 163.182096 L 268.77906976744 164.44296 L 273.45348837209 162.10526399999998 L 278.12790697674 163.57608 L 282.8023255814 159.498288 L 287.47674418605 157.140576 L 292.1511627907 158.77584000000002 L 296.82558139535 161.815968 L 301.5 156.810816 L 306.17441860465 136.346544 L 310.8488372093 138.90412800000001 L 315.52325581395 124.304112 L 320.1976744186 116.036352 L 324.87209302326 106.71652799999998 L 329.54651162791 103.630752 L 334.22093023256 97.76433599999999 L 338.89534883721 96.58036799999999 L 343.56976744186 96.20539199999999 L 348.24418604651 92.75587199999998 L 352.91860465116 84.53692799999999 L 357.59302325581 78.94137599999999 L 362.26744186047 76.65451199999998 L 366.94186046512 60.76123200000001 L 371.61627906977 52.344144 L 376.29069767442 47.01801599999999 L 380.96511627907 173.389536 L 385.63953488372 139.016592 L 390.31395348837 64.640592 L 394.98837209302 39.6036 L 399.66279069767 28.234800000000007" class="highcharts-graph" data-z-index="1" stroke-linejoin="round" stroke-linecap="round"></path></g><g class="highcharts-markers highcharts-series-0 highcharts-area-series" data-z-index="0.1" opacity="1" transform="translate(73,99) scale(1 1)" clip-path="none"></g><g class="highcharts-series highcharts-series-1 highcharts-area-series" data-z-index="0.1" opacity="1" transform="translate(73,99) scale(1 1)" clip-path="url(#highcharts-07juh14-266-)"><path fill="rgb(176,0,0)" fill-opacity="0.75" d="M 2.3372093023256 234.741168 L 7.0116279069767 236.389248 L 11.686046511628 233.481888 L 16.360465116279 232.1892 L 21.03488372093 227.8368 L 25.709302325581 223.326864 L 30.383720930233 216.69335999999998 L 35.058139534884 214.195536 L 39.732558139535 215.054496 L 44.406976744186 216.3348 L 49.081395348837 220.915296 L 53.755813953488 223.319088 L 58.43023255814 222.837552 L 63.104651162791 221.931504 L 67.779069767442 223.842384 L 72.453488372093 225.848448 L 77.127906976744 226.303488 L 81.802325581395 224.948736 L 86.476744186047 225.362592 L 91.151162790698 224.68824 L 95.825581395349 223.224336 L 100.5 220.82544000000001 L 105.17441860465 219.962304 L 109.8488372093 218.591424 L 114.52325581395 218.012256 L 119.1976744186 218.122128 L 123.87209302326 218.961936 L 128.54651162791 219.809952 L 133.22093023256 220.641552 L 137.89534883721 219.63081599999998 L 142.56976744186 218.09116799999998 L 147.24418604651 217.539504 L 151.91860465116 216.073728 L 156.59302325581 218.529216 L 161.26744186047 220.988736 L 165.94186046512 221.454576 L 170.61627906977 224.034912 L 175.29069767442 226.264608 L 179.96511627907 222.348096 L 184.63953488372 224.490384 L 189.31395348837 221.079744 L 193.98837209302 218.18448 L 198.66279069767 221.183712 L 203.33720930233 224.32737600000002 L 208.01162790698 221.160672 L 212.68604651163 224.721936 L 217.36046511628 222.029424 L 222.03488372093 222.545952 L 226.70930232558 220.617504 L 231.38372093023 223.09127999999998 L 236.05813953488 219.472704 L 240.73255813953 222.414048 L 245.40697674419 221.338512 L 250.08139534884 225.344448 L 254.75581395349 226.382544 L 259.43023255814 228.914064 L 264.10465116279 223.196112 L 268.77906976744 224.990928 L 273.45348837209 224.315136 L 278.12790697674 225.301536 L 282.8023255814 221.186736 L 287.47674418605 222.475824 L 292.1511627907 220.976784 L 296.82558139535 224.702352 L 301.5 223.412112 L 306.17441860465 216.86688 L 310.8488372093 217.50408 L 315.52325581395 219.238272 L 320.1976744186 214.576704 L 324.87209302326 208.960416 L 329.54651162791 206.779248 L 334.22093023256 208.27713599999998 L 338.89534883721 207.867168 L 343.56976744186 206.86881599999998 L 348.24418604651 205.52083199999998 L 352.91860465116 199.619136 L 357.59302325581 194.662224 L 362.26744186047 193.507776 L 366.94186046512 190.907424 L 371.61627906977 186.047568 L 376.29069767442 183.344112 L 380.96511627907 211.750128 L 385.63953488372 194.138784 L 390.31395348837 174.72528 L 394.98837209302 174.07483200000001 L 399.66279069767 168.163344 L 399.66279069767 252 L 394.98837209302 252 L 390.31395348837 252 L 385.63953488372 252 L 380.96511627907 252 L 376.29069767442 252 L 371.61627906977 252 L 366.94186046512 252 L 362.26744186047 252 L 357.59302325581 252 L 352.91860465116 252 L 348.24418604651 252 L 343.56976744186 252 L 338.89534883721 252 L 334.22093023256 252 L 329.54651162791 252 L 324.87209302326 252 L 320.1976744186 252 L 315.52325581395 252 L 310.8488372093 252 L 306.17441860465 252 L 301.5 252 L 296.82558139535 252 L 292.1511627907 252 L 287.47674418605 252 L 282.8023255814 252 L 278.12790697674 252 L 273.45348837209 252 L 268.77906976744 252 L 264.10465116279 252 L 259.43023255814 252 L 254.75581395349 252 L 250.08139534884 252 L 245.40697674419 252 L 240.73255813953 252 L 236.05813953488 252 L 231.38372093023 252 L 226.70930232558 252 L 222.03488372093 252 L 217.36046511628 252 L 212.68604651163 252 L 208.01162790698 252 L 203.33720930233 252 L 198.66279069767 252 L 193.98837209302 252 L 189.31395348837 252 L 184.63953488372 252 L 179.96511627907 252 L 175.29069767442 252 L 170.61627906977 252 L 165.94186046512 252 L 161.26744186047 252 L 156.59302325581 252 L 151.91860465116 252 L 147.24418604651 252 L 142.56976744186 252 L 137.89534883721 252 L 133.22093023256 252 L 128.54651162791 252 L 123.87209302326 252 L 119.1976744186 252 L 114.52325581395 252 L 109.8488372093 252 L 105.17441860465 252 L 100.5 252 L 95.825581395349 252 L 91.151162790698 252 L 86.476744186047 252 L 81.802325581395 252 L 77.127906976744 252 L 72.453488372093 252 L 67.779069767442 252 L 63.104651162791 252 L 58.43023255814 252 L 53.755813953488 252 L 49.081395348837 252 L 44.406976744186 252 L 39.732558139535 252 L 35.058139534884 252 L 30.383720930233 252 L 25.709302325581 252 L 21.03488372093 252 L 16.360465116279 252 L 11.686046511628 252 L 7.0116279069767 252 L 2.3372093023256 252" class="highcharts-area" data-z-index="0"></path><path fill="none" d="M 2.3372093023256 234.741168 L 7.0116279069767 236.389248 L 11.686046511628 233.481888 L 16.360465116279 232.1892 L 21.03488372093 227.8368 L 25.709302325581 223.326864 L 30.383720930233 216.69335999999998 L 35.058139534884 214.195536 L 39.732558139535 215.054496 L 44.406976744186 216.3348 L 49.081395348837 220.915296 L 53.755813953488 223.319088 L 58.43023255814 222.837552 L 63.104651162791 221.931504 L 67.779069767442 223.842384 L 72.453488372093 225.848448 L 77.127906976744 226.303488 L 81.802325581395 224.948736 L 86.476744186047 225.362592 L 91.151162790698 224.68824 L 95.825581395349 223.224336 L 100.5 220.82544000000001 L 105.17441860465 219.962304 L 109.8488372093 218.591424 L 114.52325581395 218.012256 L 119.1976744186 218.122128 L 123.87209302326 218.961936 L 128.54651162791 219.809952 L 133.22093023256 220.641552 L 137.89534883721 219.63081599999998 L 142.56976744186 218.09116799999998 L 147.24418604651 217.539504 L 151.91860465116 216.073728 L 156.59302325581 218.529216 L 161.26744186047 220.988736 L 165.94186046512 221.454576 L 170.61627906977 224.034912 L 175.29069767442 226.264608 L 179.96511627907 222.348096 L 184.63953488372 224.490384 L 189.31395348837 221.079744 L 193.98837209302 218.18448 L 198.66279069767 221.183712 L 203.33720930233 224.32737600000002 L 208.01162790698 221.160672 L 212.68604651163 224.721936 L 217.36046511628 222.029424 L 222.03488372093 222.545952 L 226.70930232558 220.617504 L 231.38372093023 223.09127999999998 L 236.05813953488 219.472704 L 240.73255813953 222.414048 L 245.40697674419 221.338512 L 250.08139534884 225.344448 L 254.75581395349 226.382544 L 259.43023255814 228.914064 L 264.10465116279 223.196112 L 268.77906976744 224.990928 L 273.45348837209 224.315136 L 278.12790697674 225.301536 L 282.8023255814 221.186736 L 287.47674418605 222.475824 L 292.1511627907 220.976784 L 296.82558139535 224.702352 L 301.5 223.412112 L 306.17441860465 216.86688 L 310.8488372093 217.50408 L 315.52325581395 219.238272 L 320.1976744186 214.576704 L 324.87209302326 208.960416 L 329.54651162791 206.779248 L 334.22093023256 208.27713599999998 L 338.89534883721 207.867168 L 343.56976744186 206.86881599999998 L 348.24418604651 205.52083199999998 L 352.91860465116 199.619136 L 357.59302325581 194.662224 L 362.26744186047 193.507776 L 366.94186046512 190.907424 L 371.61627906977 186.047568 L 376.29069767442 183.344112 L 380.96511627907 211.750128 L 385.63953488372 194.138784 L 390.31395348837 174.72528 L 394.98837209302 174.07483200000001 L 399.66279069767 168.163344" class="highcharts-graph" data-z-index="1" stroke-linejoin="round" stroke-linecap="round"></path></g><g class="highcharts-markers highcharts-series-1 highcharts-area-series" data-z-index="0.1" opacity="1" transform="translate(73,99) scale(1 1)" clip-path="none"></g></g><text x="10" text-anchor="start" class="highcharts-title" data-z-index="4" style="color:#000000;font-size:14px;font-weight:bold;fill:#000000;" y="21"><tspan>Logiernächte nach Herkunft der Gäste</tspan></text><text x="10" text-anchor="start" class="highcharts-subtitle" data-z-index="4" style="color:#000000;font-size:12px;font-weight:normal;fill:#000000;" y="40"><tspan>Basel-Stadt</tspan></text><text x="10" text-anchor="start" class="highcharts-caption" data-z-index="4" style="color:#666666;fill:#666666;" y="385"></text><g class="highcharts-legend" data-z-index="7" transform="translate(65,56)"><rect fill="none" class="highcharts-legend-box" rx="0" ry="0" x="0" y="0" width="196" height="31" visibility="visible"></rect><g data-z-index="1"><g><g class="highcharts-legend-item highcharts-area-series highcharts-color-undefined highcharts-series-1" data-z-index="1" transform="translate(8,3)"><text x="21" style="color:#333333;cursor:pointer;font-size:12px;font-weight:normal;fill:#333333;" text-anchor="start" data-z-index="2" y="15"><tspan>Inland</tspan></text><rect x="2" y="4" width="12" height="12" fill="rgb(176, 0, 0)" class="highcharts-point" data-z-index="3"></rect></g><g class="highcharts-legend-item highcharts-area-series highcharts-color-undefined highcharts-series-0" data-z-index="1" transform="translate(108,3)"><text x="21" y="15" style="color:#333333;cursor:pointer;font-size:12px;font-weight:normal;fill:#333333;" text-anchor="start" data-z-index="2"><tspan>Ausland</tspan></text><rect x="2" y="4" width="12" height="12" fill="rgb(105, 146, 155)" class="highcharts-point" data-z-index="3"></rect></g></g></g></g><g class="highcharts-axis-labels highcharts-xaxis-labels" data-z-index="7"><text x="75.337209302326" style="color:#000000;cursor:default;font-size:11px;fill:#000000;" text-anchor="middle" transform="translate(0,0)" y="370" opacity="1">1939</text><text x="154.8023255814" style="color:#000000;cursor:default;font-size:11px;fill:#000000;" text-anchor="middle" transform="translate(0,0)" y="370" opacity="1">1956</text><text x="234.26744186047" style="color:#000000;cursor:default;font-size:11px;fill:#000000;" text-anchor="middle" transform="translate(0,0)" y="370" opacity="1">1973</text><text x="313.73255813953" style="color:#000000;cursor:default;font-size:11px;fill:#000000;" text-anchor="middle" transform="translate(0,0)" y="370" opacity="1">1990</text><text x="393.1976744186" style="color:#000000;cursor:default;font-size:11px;fill:#000000;" text-anchor="middle" transform="translate(0,0)" y="370" opacity="1">2007</text><text x="463" style="color:#000000;cursor:default;font-size:11px;fill:#000000;" text-anchor="middle" transform="translate(0,0)" y="370" opacity="1">2024</text></g><g class="highcharts-axis-labels highcharts-yaxis-labels" data-z-index="7"><text x="58" style="color:#000000;cursor:default;font-size:11px;fill:#000000;" text-anchor="end" transform="translate(0,0)" y="355" opacity="1">0</text><text x="58" style="color:#000000;cursor:default;font-size:11px;fill:#000000;" text-anchor="end" transform="translate(0,0)" y="319" opacity="1"><tspan>250 000</tspan></text><text x="58" style="color:#000000;cursor:default;font-size:11px;fill:#000000;" text-anchor="end" transform="translate(0,0)" y="283" opacity="1"><tspan>500 000</tspan></text><text x="58" style="color:#000000;cursor:default;font-size:11px;fill:#000000;" text-anchor="end" transform="translate(0,0)" y="247" opacity="1"><tspan>750 000</tspan></text><text x="58" style="color:#000000;cursor:default;font-size:11px;fill:#000000;" text-anchor="end" transform="translate(0,0)" y="211" opacity="1"><tspan>1 000 000</tspan></text><text x="58" style="color:#000000;cursor:default;font-size:11px;fill:#000000;" text-anchor="end" transform="translate(0,0)" y="175" opacity="1"><tspan>1 250 000</tspan></text><text x="58" style="color:#000000;cursor:default;font-size:11px;fill:#000000;" text-anchor="end" transform="translate(0,0)" y="139" opacity="1"><tspan>1 500 000</tspan></text><text x="58" style="color:#000000;cursor:default;font-size:11px;fill:#000000;" text-anchor="end" transform="translate(0,0)" y="103" opacity="1"><tspan>1 750 000</tspan></text></g><text x="10" class="highcharts-credits" text-anchor="start" data-z-index="8" style="cursor:default;color:#000000;font-size:10px;fill:#000000;" y="403"><tspan>Quelle: Statistisches Amt Basel-Stadt, Tourismusstatistik.</tspan><tspan x="10" dy="13">Zuletzt geändert: 6.2.2025</tspan></text><g class="highcharts-control-points" data-z-index="99" clip-path="url(#highcharts-07juh14-353-)"></g></svg>