<?xml version="1.0" standalone="no"?><!DOCTYPE svg PUBLIC "-//W3C//DTD SVG 1.1//EN" "http://www.w3.org/Graphics/SVG/1.1/DTD/svg11.dtd"><svg xmlns:xlink="http://www.w3.org/1999/xlink" version="1.1" class="highcharts-root" style="font-family:Arial;font-size:12px;" xmlns="http://www.w3.org/2000/svg" viewBox="0 0 485 415"><desc>Created with Highstock 6.1.1</desc><defs><clipPath id="highcharts-lke8924-6"><rect x="0" y="0" width="416" height="201" fill="none"></rect></clipPath><clipPath id="highcharts-lke8924-7"><rect x="0" y="0" width="416" height="201" fill="none"></rect></clipPath></defs><rect fill="#fbfbfb" class="highcharts-background" x="0" y="0" width="485" height="428" rx="0" ry="0"></rect><rect fill="none" class="highcharts-plot-background" x="59" y="148" width="416" height="201"></rect><g class="highcharts-pane-group" data-z-index="0"></g><g class="highcharts-grid highcharts-xaxis-grid " data-z-index="1"><path fill="none" data-z-index="1" class="highcharts-grid-line" d="M 79.5 148 L 79.5 349" opacity="1"></path><path fill="none" data-z-index="1" class="highcharts-grid-line" d="M 100.5 148 L 100.5 349" opacity="1"></path><path fill="none" data-z-index="1" class="highcharts-grid-line" d="M 120.5 148 L 120.5 349" opacity="1"></path><path fill="none" data-z-index="1" class="highcharts-grid-line" d="M 141.5 148 L 141.5 349" opacity="1"></path><path fill="none" data-z-index="1" class="highcharts-grid-line" d="M 162.5 148 L 162.5 349" opacity="1"></path><path fill="none" data-z-index="1" class="highcharts-grid-line" d="M 183.5 148 L 183.5 349" opacity="1"></path><path fill="none" data-z-index="1" class="highcharts-grid-line" d="M 204.5 148 L 204.5 349" opacity="1"></path><path fill="none" data-z-index="1" class="highcharts-grid-line" d="M 224.5 148 L 224.5 349" opacity="1"></path><path fill="none" data-z-index="1" class="highcharts-grid-line" d="M 245.5 148 L 245.5 349" opacity="1"></path><path fill="none" data-z-index="1" class="highcharts-grid-line" d="M 266.5 148 L 266.5 349" opacity="1"></path><path fill="none" data-z-index="1" class="highcharts-grid-line" d="M 287.5 148 L 287.5 349" opacity="1"></path><path fill="none" data-z-index="1" class="highcharts-grid-line" d="M 308.5 148 L 308.5 349" opacity="1"></path><path fill="none" data-z-index="1" class="highcharts-grid-line" d="M 328.5 148 L 328.5 349" opacity="1"></path><path fill="none" data-z-index="1" class="highcharts-grid-line" d="M 349.5 148 L 349.5 349" opacity="1"></path><path fill="none" data-z-index="1" class="highcharts-grid-line" d="M 370.5 148 L 370.5 349" opacity="1"></path><path fill="none" data-z-index="1" class="highcharts-grid-line" d="M 391.5 148 L 391.5 349" opacity="1"></path><path fill="none" data-z-index="1" class="highcharts-grid-line" d="M 412.5 148 L 412.5 349" opacity="1"></path><path fill="none" data-z-index="1" class="highcharts-grid-line" d="M 432.5 148 L 432.5 349" opacity="1"></path><path fill="none" data-z-index="1" class="highcharts-grid-line" d="M 453.5 148 L 453.5 349" opacity="1"></path><path fill="none" data-z-index="1" class="highcharts-grid-line" d="M 474.5 148 L 474.5 349" opacity="1"></path><path fill="none" data-z-index="1" class="highcharts-grid-line" d="M 58.5 148 L 58.5 349" opacity="1"></path></g><g class="highcharts-grid highcharts-yaxis-grid " data-z-index="1"><path fill="none" stroke="#B9CFD7" stroke-width="0.5" data-z-index="1" class="highcharts-grid-line" d="M 59 349.25 L 475 349.25" opacity="1"></path><path fill="none" stroke="#B9CFD7" stroke-width="0.5" data-z-index="1" class="highcharts-grid-line" d="M 59 282.25 L 475 282.25" opacity="1"></path><path fill="none" stroke="#B9CFD7" stroke-width="0.5" data-z-index="1" class="highcharts-grid-line" d="M 59 215.25 L 475 215.25" opacity="1"></path><path fill="none" stroke="#B9CFD7" stroke-width="0.5" data-z-index="1" class="highcharts-grid-line" d="M 59 147.75 L 475 147.75" opacity="1"></path></g><rect fill="none" class="highcharts-plot-border" data-z-index="1" x="59" y="148" width="416" height="201"></rect><g class="highcharts-axis highcharts-xaxis " data-z-index="2"><path fill="none" class="highcharts-axis-line" stroke="#B9CFD7" stroke-width="0.5" data-z-index="7" d="M 59 349.25 L 475 349.25"></path></g><g class="highcharts-axis highcharts-yaxis " data-z-index="2"><path fill="none" class="highcharts-axis-line" data-z-index="7" d="M 59 148 L 59 349"></path></g><g class="highcharts-series-group" data-z-index="3"><g data-z-index="0.1" class="highcharts-series highcharts-series-0 highcharts-column-series " transform="translate(59,148) scale(1 1)" clip-path="url(#highcharts-lke8924-7)"><rect x="5" y="63" width="10" height="10" fill="#999999" class="highcharts-point"></rect><rect x="26" y="62" width="10" height="10" fill="#999999" class="highcharts-point"></rect><rect x="47" y="63" width="10" height="11" fill="#999999" class="highcharts-point"></rect><rect x="68" y="61" width="10" height="12" fill="#999999" class="highcharts-point"></rect><rect x="89" y="57" width="10" height="12" fill="#999999" class="highcharts-point"></rect><rect x="109" y="54" width="10" height="13" fill="#999999" class="highcharts-point"></rect><rect x="130" y="51" width="10" height="14" fill="#999999" class="highcharts-point"></rect><rect x="151" y="49" width="10" height="14" fill="#999999" class="highcharts-point"></rect><rect x="172" y="46" width="10" height="14" fill="#999999" class="highcharts-point"></rect><rect x="193" y="45" width="10" height="15" fill="#999999" class="highcharts-point"></rect><rect x="213" y="41" width="10" height="16" fill="#999999" class="highcharts-point"></rect><rect x="234" y="37" width="10" height="17" fill="#999999" class="highcharts-point"></rect><rect x="255" y="35" width="10" height="18" fill="#999999" class="highcharts-point"></rect><rect x="276" y="30" width="10" height="19" fill="#999999" class="highcharts-point"></rect><rect x="297" y="26" width="10" height="21" fill="#999999" class="highcharts-point"></rect><rect x="317" y="21" width="10" height="21" fill="#999999" class="highcharts-point"></rect><rect x="338" y="18" width="10" height="21" fill="#999999" class="highcharts-point"></rect><rect x="359" y="16" width="10" height="20" fill="#999999" class="highcharts-point"></rect><rect x="380" y="12" width="10" height="21" fill="#999999" class="highcharts-point"></rect><rect x="401" y="10" width="10" height="22" fill="#999999" class="highcharts-point"></rect></g><g data-z-index="0.1" class="highcharts-markers highcharts-series-0 highcharts-column-series " transform="translate(59,148) scale(1 1)" clip-path="none"></g><g data-z-index="0.1" class="highcharts-series highcharts-series-1 highcharts-column-series " transform="translate(59,148) scale(1 1)" clip-path="url(#highcharts-lke8924-7)"><rect x="5" y="73" width="10" height="2" fill="#9f7c5a" class="highcharts-point"></rect><rect x="26" y="72" width="10" height="2" fill="#9f7c5a" class="highcharts-point"></rect><rect x="47" y="74" width="10" height="1" fill="#9f7c5a" class="highcharts-point"></rect><rect x="68" y="73" width="10" height="2" fill="#9f7c5a" class="highcharts-point"></rect><rect x="89" y="69" width="10" height="2" fill="#9f7c5a" class="highcharts-point"></rect><rect x="109" y="67" width="10" height="2" fill="#9f7c5a" class="highcharts-point"></rect><rect x="130" y="65" width="10" height="2" fill="#9f7c5a" class="highcharts-point"></rect><rect x="151" y="63" width="10" height="3" fill="#9f7c5a" class="highcharts-point"></rect><rect x="172" y="60" width="10" height="3" fill="#9f7c5a" class="highcharts-point"></rect><rect x="193" y="60" width="10" height="2" fill="#9f7c5a" class="highcharts-point"></rect><rect x="213" y="57" width="10" height="3" fill="#9f7c5a" class="highcharts-point"></rect><rect x="234" y="54" width="10" height="3" fill="#9f7c5a" class="highcharts-point"></rect><rect x="255" y="53" width="10" height="4" fill="#9f7c5a" class="highcharts-point"></rect><rect x="276" y="49" width="10" height="4" fill="#9f7c5a" class="highcharts-point"></rect><rect x="297" y="47" width="10" height="3" fill="#9f7c5a" class="highcharts-point"></rect><rect x="317" y="42" width="10" height="4" fill="#9f7c5a" class="highcharts-point"></rect><rect x="338" y="39" width="10" height="4" fill="#9f7c5a" class="highcharts-point"></rect><rect x="359" y="36" width="10" height="5" fill="#9f7c5a" class="highcharts-point"></rect><rect x="380" y="33" width="10" height="5" fill="#9f7c5a" class="highcharts-point"></rect><rect x="401" y="32" width="10" height="4" fill="#9f7c5a" class="highcharts-point"></rect></g><g data-z-index="0.1" class="highcharts-markers highcharts-series-1 highcharts-column-series " transform="translate(59,148) scale(1 1)" clip-path="none"></g><g data-z-index="0.1" class="highcharts-series highcharts-series-2 highcharts-column-series " transform="translate(59,148) scale(1 1)" clip-path="url(#highcharts-lke8924-7)"><rect x="5" y="75" width="10" height="1" fill="#73ba7c" class="highcharts-point"></rect><rect x="26" y="74" width="10" height="1" fill="#73ba7c" class="highcharts-point"></rect><rect x="47" y="75" width="10" height="2" fill="#73ba7c" class="highcharts-point"></rect><rect x="68" y="75" width="10" height="1" fill="#73ba7c" class="highcharts-point"></rect><rect x="89" y="71" width="10" height="2" fill="#73ba7c" class="highcharts-point"></rect><rect x="109" y="69" width="10" height="2" fill="#73ba7c" class="highcharts-point"></rect><rect x="130" y="67" width="10" height="2" fill="#73ba7c" class="highcharts-point"></rect><rect x="151" y="66" width="10" height="2" fill="#73ba7c" class="highcharts-point"></rect><rect x="172" y="63" width="10" height="2" fill="#73ba7c" class="highcharts-point"></rect><rect x="193" y="62" width="10" height="2" fill="#73ba7c" class="highcharts-point"></rect><rect x="213" y="60" width="10" height="2" fill="#73ba7c" class="highcharts-point"></rect><rect x="234" y="57" width="10" height="3" fill="#73ba7c" class="highcharts-point"></rect><rect x="255" y="57" width="10" height="2" fill="#73ba7c" class="highcharts-point"></rect><rect x="276" y="53" width="10" height="3" fill="#73ba7c" class="highcharts-point"></rect><rect x="297" y="50" width="10" height="3" fill="#73ba7c" class="highcharts-point"></rect><rect x="317" y="46" width="10" height="3" fill="#73ba7c" class="highcharts-point"></rect><rect x="338" y="43" width="10" height="3" fill="#73ba7c" class="highcharts-point"></rect><rect x="359" y="41" width="10" height="3" fill="#73ba7c" class="highcharts-point"></rect><rect x="380" y="38" width="10" height="4" fill="#73ba7c" class="highcharts-point"></rect><rect x="401" y="36" width="10" height="5" fill="#73ba7c" class="highcharts-point"></rect></g><g data-z-index="0.1" class="highcharts-markers highcharts-series-2 highcharts-column-series " transform="translate(59,148) scale(1 1)" clip-path="none"></g><g data-z-index="0.1" class="highcharts-series highcharts-series-3 highcharts-column-series " transform="translate(59,148) scale(1 1)" clip-path="url(#highcharts-lke8924-7)"><rect x="5" y="76" width="10" height="2" fill="#ff8028" class="highcharts-point"></rect><rect x="26" y="75" width="10" height="3" fill="#ff8028" class="highcharts-point"></rect><rect x="47" y="77" width="10" height="2" fill="#ff8028" class="highcharts-point"></rect><rect x="68" y="76" width="10" height="3" fill="#ff8028" class="highcharts-point"></rect><rect x="89" y="73" width="10" height="3" fill="#ff8028" class="highcharts-point"></rect><rect x="109" y="71" width="10" height="3" fill="#ff8028" class="highcharts-point"></rect><rect x="130" y="69" width="10" height="4" fill="#ff8028" class="highcharts-point"></rect><rect x="151" y="68" width="10" height="3" fill="#ff8028" class="highcharts-point"></rect><rect x="172" y="65" width="10" height="4" fill="#ff8028" class="highcharts-point"></rect><rect x="193" y="64" width="10" height="4" fill="#ff8028" class="highcharts-point"></rect><rect x="213" y="62" width="10" height="4" fill="#ff8028" class="highcharts-point"></rect><rect x="234" y="60" width="10" height="4" fill="#ff8028" class="highcharts-point"></rect><rect x="255" y="59" width="10" height="4" fill="#ff8028" class="highcharts-point"></rect><rect x="276" y="56" width="10" height="4" fill="#ff8028" class="highcharts-point"></rect><rect x="297" y="53" width="10" height="5" fill="#ff8028" class="highcharts-point"></rect><rect x="317" y="49" width="10" height="4" fill="#ff8028" class="highcharts-point"></rect><rect x="338" y="46" width="10" height="4" fill="#ff8028" class="highcharts-point"></rect><rect x="359" y="44" width="10" height="5" fill="#ff8028" class="highcharts-point"></rect><rect x="380" y="42" width="10" height="4" fill="#ff8028" class="highcharts-point"></rect><rect x="401" y="41" width="10" height="4" fill="#ff8028" class="highcharts-point"></rect></g><g data-z-index="0.1" class="highcharts-markers highcharts-series-3 highcharts-column-series " transform="translate(59,148) scale(1 1)" clip-path="none"></g><g data-z-index="0.1" class="highcharts-series highcharts-series-4 highcharts-column-series " transform="translate(59,148) scale(1 1)" clip-path="url(#highcharts-lke8924-7)"><rect x="5" y="78" width="10" height="29" fill="#b9cfd7" class="highcharts-point"></rect><rect x="26" y="78" width="10" height="30" fill="#b9cfd7" class="highcharts-point"></rect><rect x="47" y="79" width="10" height="29" fill="#b9cfd7" class="highcharts-point"></rect><rect x="68" y="79" width="10" height="29" fill="#b9cfd7" class="highcharts-point"></rect><rect x="89" y="76" width="10" height="29" fill="#b9cfd7" class="highcharts-point"></rect><rect x="109" y="74" width="10" height="30" fill="#b9cfd7" class="highcharts-point"></rect><rect x="130" y="73" width="10" height="29" fill="#b9cfd7" class="highcharts-point"></rect><rect x="151" y="71" width="10" height="29" fill="#b9cfd7" class="highcharts-point"></rect><rect x="172" y="69" width="10" height="28" fill="#b9cfd7" class="highcharts-point"></rect><rect x="193" y="68" width="10" height="27" fill="#b9cfd7" class="highcharts-point"></rect><rect x="213" y="66" width="10" height="25" fill="#b9cfd7" class="highcharts-point"></rect><rect x="234" y="64" width="10" height="24" fill="#b9cfd7" class="highcharts-point"></rect><rect x="255" y="63" width="10" height="24" fill="#b9cfd7" class="highcharts-point"></rect><rect x="276" y="60" width="10" height="23" fill="#b9cfd7" class="highcharts-point"></rect><rect x="297" y="58" width="10" height="23" fill="#b9cfd7" class="highcharts-point"></rect><rect x="317" y="53" width="10" height="23" fill="#b9cfd7" class="highcharts-point"></rect><rect x="338" y="50" width="10" height="23" fill="#b9cfd7" class="highcharts-point"></rect><rect x="359" y="49" width="10" height="22" fill="#b9cfd7" class="highcharts-point"></rect><rect x="380" y="46" width="10" height="23" fill="#b9cfd7" class="highcharts-point"></rect><rect x="401" y="45" width="10" height="22" fill="#b9cfd7" class="highcharts-point"></rect></g><g data-z-index="0.1" class="highcharts-markers highcharts-series-4 highcharts-column-series " transform="translate(59,148) scale(1 1)" clip-path="none"></g><g data-z-index="0.1" class="highcharts-series highcharts-series-5 highcharts-column-series " transform="translate(59,148) scale(1 1)" clip-path="url(#highcharts-lke8924-7)"><rect x="5" y="107" width="10" height="2" fill="#71a3b5" class="highcharts-point"></rect><rect x="26" y="108" width="10" height="2" fill="#71a3b5" class="highcharts-point"></rect><rect x="47" y="108" width="10" height="2" fill="#71a3b5" class="highcharts-point"></rect><rect x="68" y="108" width="10" height="3" fill="#71a3b5" class="highcharts-point"></rect><rect x="89" y="105" width="10" height="3" fill="#71a3b5" class="highcharts-point"></rect><rect x="109" y="104" width="10" height="3" fill="#71a3b5" class="highcharts-point"></rect><rect x="130" y="102" width="10" height="3" fill="#71a3b5" class="highcharts-point"></rect><rect x="151" y="100" width="10" height="3" fill="#71a3b5" class="highcharts-point"></rect><rect x="172" y="97" width="10" height="4" fill="#71a3b5" class="highcharts-point"></rect><rect x="193" y="95" width="10" height="4" fill="#71a3b5" class="highcharts-point"></rect><rect x="213" y="91" width="10" height="5" fill="#71a3b5" class="highcharts-point"></rect><rect x="234" y="88" width="10" height="5" fill="#71a3b5" class="highcharts-point"></rect><rect x="255" y="87" width="10" height="5" fill="#71a3b5" class="highcharts-point"></rect><rect x="276" y="83" width="10" height="7" fill="#71a3b5" class="highcharts-point"></rect><rect x="297" y="81" width="10" height="7" fill="#71a3b5" class="highcharts-point"></rect><rect x="317" y="76" width="10" height="8" fill="#71a3b5" class="highcharts-point"></rect><rect x="338" y="73" width="10" height="9" fill="#71a3b5" class="highcharts-point"></rect><rect x="359" y="71" width="10" height="10" fill="#71a3b5" class="highcharts-point"></rect><rect x="380" y="69" width="10" height="9" fill="#71a3b5" class="highcharts-point"></rect><rect x="401" y="67" width="10" height="11" fill="#71a3b5" class="highcharts-point"></rect></g><g data-z-index="0.1" class="highcharts-markers highcharts-series-5 highcharts-column-series " transform="translate(59,148) scale(1 1)" clip-path="none"></g><g data-z-index="0.1" class="highcharts-series highcharts-series-6 highcharts-column-series " transform="translate(59,148) scale(1 1)" clip-path="url(#highcharts-lke8924-7)"><rect x="5" y="109" width="10" height="26" fill="#b475ab" class="highcharts-point"></rect><rect x="26" y="110" width="10" height="25" fill="#b475ab" class="highcharts-point"></rect><rect x="47" y="110" width="10" height="26" fill="#b475ab" class="highcharts-point"></rect><rect x="68" y="111" width="10" height="25" fill="#b475ab" class="highcharts-point"></rect><rect x="89" y="108" width="10" height="27" fill="#b475ab" class="highcharts-point"></rect><rect x="109" y="107" width="10" height="27" fill="#b475ab" class="highcharts-point"></rect><rect x="130" y="105" width="10" height="27" fill="#b475ab" class="highcharts-point"></rect><rect x="151" y="103" width="10" height="28" fill="#b475ab" class="highcharts-point"></rect><rect x="172" y="101" width="10" height="28" fill="#b475ab" class="highcharts-point"></rect><rect x="193" y="99" width="10" height="29" fill="#b475ab" class="highcharts-point"></rect><rect x="213" y="96" width="10" height="30" fill="#b475ab" class="highcharts-point"></rect><rect x="234" y="93" width="10" height="31" fill="#b475ab" class="highcharts-point"></rect><rect x="255" y="92" width="10" height="32" fill="#b475ab" class="highcharts-point"></rect><rect x="276" y="90" width="10" height="33" fill="#b475ab" class="highcharts-point"></rect><rect x="297" y="88" width="10" height="35" fill="#b475ab" class="highcharts-point"></rect><rect x="317" y="84" width="10" height="37" fill="#b475ab" class="highcharts-point"></rect><rect x="338" y="82" width="10" height="39" fill="#b475ab" class="highcharts-point"></rect><rect x="359" y="81" width="10" height="39" fill="#b475ab" class="highcharts-point"></rect><rect x="380" y="78" width="10" height="41" fill="#b475ab" class="highcharts-point"></rect><rect x="401" y="78" width="10" height="41" fill="#b475ab" class="highcharts-point"></rect></g><g data-z-index="0.1" class="highcharts-markers highcharts-series-6 highcharts-column-series " transform="translate(59,148) scale(1 1)" clip-path="none"></g><g data-z-index="0.1" class="highcharts-series highcharts-series-7 highcharts-column-series " transform="translate(59,148) scale(1 1)" clip-path="url(#highcharts-lke8924-7)"><rect x="5" y="135" width="10" height="22" fill="#fabd24" class="highcharts-point"></rect><rect x="26" y="135" width="10" height="23" fill="#fabd24" class="highcharts-point"></rect><rect x="47" y="136" width="10" height="22" fill="#fabd24" class="highcharts-point"></rect><rect x="68" y="136" width="10" height="22" fill="#fabd24" class="highcharts-point"></rect><rect x="89" y="135" width="10" height="22" fill="#fabd24" class="highcharts-point"></rect><rect x="109" y="134" width="10" height="22" fill="#fabd24" class="highcharts-point"></rect><rect x="130" y="132" width="10" height="22" fill="#fabd24" class="highcharts-point"></rect><rect x="151" y="131" width="10" height="21" fill="#fabd24" class="highcharts-point"></rect><rect x="172" y="129" width="10" height="21" fill="#fabd24" class="highcharts-point"></rect><rect x="193" y="128" width="10" height="19" fill="#fabd24" class="highcharts-point"></rect><rect x="213" y="126" width="10" height="19" fill="#fabd24" class="highcharts-point"></rect><rect x="234" y="124" width="10" height="18" fill="#fabd24" class="highcharts-point"></rect><rect x="255" y="124" width="10" height="18" fill="#fabd24" class="highcharts-point"></rect><rect x="276" y="123" width="10" height="18" fill="#fabd24" class="highcharts-point"></rect><rect x="297" y="123" width="10" height="18" fill="#fabd24" class="highcharts-point"></rect><rect x="317" y="121" width="10" height="18" fill="#fabd24" class="highcharts-point"></rect><rect x="338" y="121" width="10" height="17" fill="#fabd24" class="highcharts-point"></rect><rect x="359" y="120" width="10" height="18" fill="#fabd24" class="highcharts-point"></rect><rect x="380" y="119" width="10" height="17" fill="#fabd24" class="highcharts-point"></rect><rect x="401" y="119" width="10" height="17" fill="#fabd24" class="highcharts-point"></rect></g><g data-z-index="0.1" class="highcharts-markers highcharts-series-7 highcharts-column-series " transform="translate(59,148) scale(1 1)" clip-path="none"></g><g data-z-index="0.1" class="highcharts-series highcharts-series-8 highcharts-column-series " transform="translate(59,148) scale(1 1)" clip-path="url(#highcharts-lke8924-7)"><rect x="5" y="157" width="10" height="30" fill="#007a2f" class="highcharts-point"></rect><rect x="26" y="158" width="10" height="28" fill="#007a2f" class="highcharts-point"></rect><rect x="47" y="158" width="10" height="28" fill="#007a2f" class="highcharts-point"></rect><rect x="68" y="158" width="10" height="27" fill="#007a2f" class="highcharts-point"></rect><rect x="89" y="157" width="10" height="25" fill="#007a2f" class="highcharts-point"></rect><rect x="109" y="156" width="10" height="25" fill="#007a2f" class="highcharts-point"></rect><rect x="130" y="154" width="10" height="24" fill="#007a2f" class="highcharts-point"></rect><rect x="151" y="152" width="10" height="23" fill="#007a2f" class="highcharts-point"></rect><rect x="172" y="150" width="10" height="23" fill="#007a2f" class="highcharts-point"></rect><rect x="193" y="147" width="10" height="22" fill="#007a2f" class="highcharts-point"></rect><rect x="213" y="145" width="10" height="21" fill="#007a2f" class="highcharts-point"></rect><rect x="234" y="142" width="10" height="22" fill="#007a2f" class="highcharts-point"></rect><rect x="255" y="142" width="10" height="21" fill="#007a2f" class="highcharts-point"></rect><rect x="276" y="141" width="10" height="21" fill="#007a2f" class="highcharts-point"></rect><rect x="297" y="141" width="10" height="21" fill="#007a2f" class="highcharts-point"></rect><rect x="317" y="139" width="10" height="22" fill="#007a2f" class="highcharts-point"></rect><rect x="338" y="138" width="10" height="22" fill="#007a2f" class="highcharts-point"></rect><rect x="359" y="138" width="10" height="22" fill="#007a2f" class="highcharts-point"></rect><rect x="380" y="136" width="10" height="23" fill="#007a2f" class="highcharts-point"></rect><rect x="401" y="136" width="10" height="23" fill="#007a2f" class="highcharts-point"></rect></g><g data-z-index="0.1" class="highcharts-markers highcharts-series-8 highcharts-column-series " transform="translate(59,148) scale(1 1)" clip-path="none"></g><g data-z-index="0.1" class="highcharts-series highcharts-series-9 highcharts-column-series " transform="translate(59,148) scale(1 1)" clip-path="url(#highcharts-lke8924-7)"><rect x="5" y="187" width="10" height="15" fill="#672773" class="highcharts-point"></rect><rect x="26" y="186" width="10" height="16" fill="#672773" class="highcharts-point"></rect><rect x="47" y="186" width="10" height="16" fill="#672773" class="highcharts-point"></rect><rect x="68" y="185" width="10" height="17" fill="#672773" class="highcharts-point"></rect><rect x="89" y="182" width="10" height="20" fill="#672773" class="highcharts-point"></rect><rect x="109" y="181" width="10" height="21" fill="#672773" class="highcharts-point"></rect><rect x="130" y="178" width="10" height="24" fill="#672773" class="highcharts-point"></rect><rect x="151" y="175" width="10" height="27" fill="#672773" class="highcharts-point"></rect><rect x="172" y="173" width="10" height="29" fill="#672773" class="highcharts-point"></rect><rect x="193" y="169" width="10" height="33" fill="#672773" class="highcharts-point"></rect><rect x="213" y="166" width="10" height="36" fill="#672773" class="highcharts-point"></rect><rect x="234" y="164" width="10" height="38" fill="#672773" class="highcharts-point"></rect><rect x="255" y="163" width="10" height="39" fill="#672773" class="highcharts-point"></rect><rect x="276" y="162" width="10" height="40" fill="#672773" class="highcharts-point"></rect><rect x="297" y="162" width="10" height="40" fill="#672773" class="highcharts-point"></rect><rect x="317" y="161" width="10" height="41" fill="#672773" class="highcharts-point"></rect><rect x="338" y="160" width="10" height="42" fill="#672773" class="highcharts-point"></rect><rect x="359" y="160" width="10" height="42" fill="#672773" class="highcharts-point"></rect><rect x="380" y="159" width="10" height="43" fill="#672773" class="highcharts-point"></rect><rect x="401" y="159" width="10" height="43" fill="#672773" class="highcharts-point"></rect></g><g data-z-index="0.1" class="highcharts-markers highcharts-series-9 highcharts-column-series " transform="translate(59,148) scale(1 1)" clip-path="none"></g></g><text x="10" text-anchor="start" class="highcharts-title" data-z-index="4" style="color:#000000;font-size:14px;font-weight:bold;fill:#000000;" y="21"><tspan>Anzahl Ausländer nach Staatsangehörigkeit</tspan></text><text x="10" text-anchor="start" class="highcharts-subtitle" data-z-index="4" style="color:#000000;font-size:12px;font-weight:normal;font-family:Arial;fill:#000000;" y="40"><tspan>Basel-Stadt</tspan></text><g class="highcharts-legend" data-z-index="7" transform="translate(51,55)"><rect fill="none" class="highcharts-legend-box" rx="0" ry="0" x="0" y="0" width="324" height="81" visibility="visible"></rect><g data-z-index="1"><g><g class="highcharts-legend-item highcharts-column-series highcharts-color-undefined highcharts-series-9" data-z-index="1" transform="translate(8,3)"><text x="21" style="color:#333333;font-size:12px;font-weight:normal;cursor:pointer;fill:#333333;" text-anchor="start" data-z-index="2" y="15"><tspan>Deutschland</tspan></text><rect x="2" y="4" width="12" height="12" fill="#672773" class="highcharts-point" data-z-index="3"></rect></g><g class="highcharts-legend-item highcharts-column-series highcharts-color-undefined highcharts-series-8" data-z-index="1" transform="translate(172.265625,3)"><text x="21" y="15" style="color:#333333;font-size:12px;font-weight:normal;cursor:pointer;fill:#333333;" text-anchor="start" data-z-index="2"><tspan>Italien</tspan></text><rect x="2" y="4" width="12" height="12" fill="#007a2f" class="highcharts-point" data-z-index="3"></rect></g><g class="highcharts-legend-item highcharts-column-series highcharts-color-undefined highcharts-series-7" data-z-index="1" transform="translate(8,17)"><text x="21" y="15" style="color:#333333;font-size:12px;font-weight:normal;cursor:pointer;fill:#333333;" text-anchor="start" data-z-index="2"><tspan>Türkei</tspan></text><rect x="2" y="4" width="12" height="12" fill="#fabd24" class="highcharts-point" data-z-index="3"></rect></g><g class="highcharts-legend-item highcharts-column-series highcharts-color-undefined highcharts-series-6" data-z-index="1" transform="translate(172.265625,17)"><text x="21" y="15" style="color:#333333;font-size:12px;font-weight:normal;cursor:pointer;fill:#333333;" text-anchor="start" data-z-index="2"><tspan>EU-17 + EFTA</tspan></text><rect x="2" y="4" width="12" height="12" fill="#b475ab" class="highcharts-point" data-z-index="3"></rect></g><g class="highcharts-legend-item highcharts-column-series highcharts-color-undefined highcharts-series-5" data-z-index="1" transform="translate(8,31)"><text x="21" y="15" style="color:#333333;font-size:12px;font-weight:normal;cursor:pointer;fill:#333333;" text-anchor="start" data-z-index="2"><tspan>EU-Ost</tspan></text><rect x="2" y="4" width="12" height="12" fill="#71a3b5" class="highcharts-point" data-z-index="3"></rect></g><g class="highcharts-legend-item highcharts-column-series highcharts-color-undefined highcharts-series-4" data-z-index="1" transform="translate(172.265625,31)"><text x="21" y="15" style="color:#333333;font-size:12px;font-weight:normal;cursor:pointer;fill:#333333;" text-anchor="start" data-z-index="2"><tspan>Balkan</tspan></text><rect x="2" y="4" width="12" height="12" fill="#b9cfd7" class="highcharts-point" data-z-index="3"></rect></g><g class="highcharts-legend-item highcharts-column-series highcharts-color-undefined highcharts-series-3" data-z-index="1" transform="translate(8,45)"><text x="21" y="15" style="color:#333333;font-size:12px;font-weight:normal;cursor:pointer;fill:#333333;" text-anchor="start" data-z-index="2"><tspan>Mittel- und Südamerika</tspan></text><rect x="2" y="4" width="12" height="12" fill="#ff8028" class="highcharts-point" data-z-index="3"></rect></g><g class="highcharts-legend-item highcharts-column-series highcharts-color-undefined highcharts-series-2" data-z-index="1" transform="translate(172.265625,45)"><text x="21" y="15" style="color:#333333;font-size:12px;font-weight:normal;cursor:pointer;fill:#333333;" text-anchor="start" data-z-index="2"><tspan>Arabische Länder</tspan></text><rect x="2" y="4" width="12" height="12" fill="#73ba7c" class="highcharts-point" data-z-index="3"></rect></g><g class="highcharts-legend-item highcharts-column-series highcharts-color-undefined highcharts-series-1" data-z-index="1" transform="translate(8,59)"><text x="21" y="15" style="color:#333333;font-size:12px;font-weight:normal;cursor:pointer;fill:#333333;" text-anchor="start" data-z-index="2"><tspan>Afrikanische Länder</tspan></text><rect x="2" y="4" width="12" height="12" fill="#9f7c5a" class="highcharts-point" data-z-index="3"></rect></g><g class="highcharts-legend-item highcharts-column-series highcharts-color-undefined highcharts-series-0" data-z-index="1" transform="translate(172.265625,59)"><text x="21" y="15" style="color:#333333;font-size:12px;font-weight:normal;cursor:pointer;fill:#333333;" text-anchor="start" data-z-index="2"><tspan>Übrige Länder</tspan></text><rect x="2" y="4" width="12" height="12" fill="#999999" class="highcharts-point" data-z-index="3"></rect></g></g></g></g><g class="highcharts-axis-labels highcharts-xaxis-labels " data-z-index="7"><text x="71.99272486435066" style="color:#000000;cursor:default;font-size:11px;fill:#000000;" text-anchor="end" transform="translate(0,0) rotate(-45 71.99272486435066 365)" y="365" opacity="1">1998</text><text x="92.79272486435066" style="color:#000000;cursor:default;font-size:11px;fill:#000000;" text-anchor="end" transform="translate(0,0) rotate(-45 92.79272486435066 365)" y="365" opacity="1">1999</text><text x="113.59272486435067" style="color:#000000;cursor:default;font-size:11px;fill:#000000;" text-anchor="end" transform="translate(0,0) rotate(-45 113.59272486435067 365)" y="365" opacity="1">2000</text><text x="134.39272486435067" style="color:#000000;cursor:default;font-size:11px;fill:#000000;" text-anchor="end" transform="translate(0,0) rotate(-45 134.39272486435067 365)" y="365" opacity="1">2001</text><text x="155.19272486435068" style="color:#000000;cursor:default;font-size:11px;fill:#000000;" text-anchor="end" transform="translate(0,0) rotate(-45 155.19272486435068 365)" y="365" opacity="1">2002</text><text x="175.9927248643507" style="color:#000000;cursor:default;font-size:11px;fill:#000000;" text-anchor="end" transform="translate(0,0) rotate(-45 175.9927248643507 365)" y="365" opacity="1">2003</text><text x="196.79272486435067" style="color:#000000;cursor:default;font-size:11px;fill:#000000;" text-anchor="end" transform="translate(0,0) rotate(-45 196.79272486435067 365)" y="365" opacity="1">2004</text><text x="217.59272486435069" style="color:#000000;cursor:default;font-size:11px;fill:#000000;" text-anchor="end" transform="translate(0,0) rotate(-45 217.59272486435069 365)" y="365" opacity="1">2005</text><text x="238.39272486435067" style="color:#000000;cursor:default;font-size:11px;fill:#000000;" text-anchor="end" transform="translate(0,0) rotate(-45 238.39272486435067 365)" y="365" opacity="1">2006</text><text x="259.1927248643507" style="color:#000000;cursor:default;font-size:11px;fill:#000000;" text-anchor="end" transform="translate(0,0) rotate(-45 259.1927248643507 365)" y="365" opacity="1">2007</text><text x="279.9927248643507" style="color:#000000;cursor:default;font-size:11px;fill:#000000;" text-anchor="end" transform="translate(0,0) rotate(-45 279.9927248643507 365)" y="365" opacity="1">2008</text><text x="300.7927248643507" style="color:#000000;cursor:default;font-size:11px;fill:#000000;" text-anchor="end" transform="translate(0,0) rotate(-45 300.7927248643507 365)" y="365" opacity="1">2009</text><text x="321.59272486435066" style="color:#000000;cursor:default;font-size:11px;fill:#000000;" text-anchor="end" transform="translate(0,0) rotate(-45 321.59272486435066 365)" y="365" opacity="1">2010</text><text x="342.39272486435067" style="color:#000000;cursor:default;font-size:11px;fill:#000000;" text-anchor="end" transform="translate(0,0) rotate(-45 342.39272486435067 365)" y="365" opacity="1">2011</text><text x="363.1927248643507" style="color:#000000;cursor:default;font-size:11px;fill:#000000;" text-anchor="end" transform="translate(0,0) rotate(-45 363.1927248643507 365)" y="365" opacity="1">2012</text><text x="383.9927248643507" style="color:#000000;cursor:default;font-size:11px;fill:#000000;" text-anchor="end" transform="translate(0,0) rotate(-45 383.9927248643507 365)" y="365" opacity="1">2013</text><text x="404.7927248643507" style="color:#000000;cursor:default;font-size:11px;fill:#000000;" text-anchor="end" transform="translate(0,0) rotate(-45 404.7927248643507 365)" y="365" opacity="1">2014</text><text x="425.59272486435066" style="color:#000000;cursor:default;font-size:11px;fill:#000000;" text-anchor="end" transform="translate(0,0) rotate(-45 425.59272486435066 365)" y="365" opacity="1">2015</text><text x="446.39272486435067" style="color:#000000;cursor:default;font-size:11px;fill:#000000;" text-anchor="end" transform="translate(0,0) rotate(-45 446.39272486435067 365)" y="365" opacity="1">2016</text><text x="467.1927248643507" style="color:#000000;cursor:default;font-size:11px;fill:#000000;" text-anchor="end" transform="translate(0,0) rotate(-45 467.1927248643507 365)" y="365" opacity="1">2017</text></g><g class="highcharts-axis-labels highcharts-yaxis-labels " data-z-index="7"><text x="44" style="color:#000000;cursor:default;font-size:11px;fill:#000000;" text-anchor="end" transform="translate(0,0)" y="354" opacity="1">0</text><text x="44" style="color:#000000;cursor:default;font-size:11px;fill:#000000;" text-anchor="end" transform="translate(0,0)" y="287" opacity="1"><tspan>25 000</tspan></text><text x="44" style="color:#000000;cursor:default;font-size:11px;fill:#000000;" text-anchor="end" transform="translate(0,0)" y="220" opacity="1"><tspan>50 000</tspan></text><text x="44" style="color:#000000;cursor:default;font-size:11px;fill:#000000;" text-anchor="end" transform="translate(0,0)" y="153" opacity="1"><tspan>75 000</tspan></text></g><text x="10" class="highcharts-credits" text-anchor="start" data-z-index="8" style="cursor:default;color:#000000;font-size:10px;fill:#000000;" y="423"><tspan>Quelle: Statistisches Amt Basel-Stadt, Bevölkerungsstatistik.</tspan><tspan x="10" dy="13">Zuletzt geändert: 2018-10-18</tspan></text></svg>