<?xml version="1.0" standalone="no"?><!DOCTYPE svg PUBLIC "-//W3C//DTD SVG 1.1//EN" "http://www.w3.org/Graphics/SVG/1.1/DTD/svg11.dtd"><svg xmlns:xlink="http://www.w3.org/1999/xlink" version="1.1" class="highcharts-root" style="font-family:Arial;font-size:12px;" xmlns="http://www.w3.org/2000/svg" viewBox="0 0 485 415"><desc>Created with Highstock 6.1.1</desc><defs><clipPath id="highcharts-jzrs6we-6"><rect x="0" y="0" width="280" height="168" fill="none"></rect></clipPath><clipPath id="highcharts-jzrs6we-7"><rect x="0" y="0" width="280" height="168" fill="none"></rect></clipPath></defs><rect fill="#fbfbfb" class="highcharts-background" x="0" y="0" width="320" height="221" rx="0" ry="0"></rect><rect fill="none" class="highcharts-plot-background" x="38" y="7" width="280" height="168"></rect><g class="highcharts-pane-group" data-z-index="0"></g><g class="highcharts-grid highcharts-xaxis-grid " data-z-index="1"><path fill="none" data-z-index="1" class="highcharts-grid-line" d="M 40.5 7 L 40.5 175" opacity="1"></path><path fill="none" data-z-index="1" class="highcharts-grid-line" d="M 54.5 7 L 54.5 175" opacity="1"></path><path fill="none" data-z-index="1" class="highcharts-grid-line" d="M 69.5 7 L 69.5 175" opacity="1"></path><path fill="none" data-z-index="1" class="highcharts-grid-line" d="M 83.5 7 L 83.5 175" opacity="1"></path><path fill="none" data-z-index="1" class="highcharts-grid-line" d="M 98.5 7 L 98.5 175" opacity="1"></path><path fill="none" data-z-index="1" class="highcharts-grid-line" d="M 112.5 7 L 112.5 175" opacity="1"></path><path fill="none" data-z-index="1" class="highcharts-grid-line" d="M 126.5 7 L 126.5 175" opacity="1"></path><path fill="none" data-z-index="1" class="highcharts-grid-line" d="M 141.5 7 L 141.5 175" opacity="1"></path><path fill="none" data-z-index="1" class="highcharts-grid-line" d="M 155.5 7 L 155.5 175" opacity="1"></path><path fill="none" data-z-index="1" class="highcharts-grid-line" d="M 170.5 7 L 170.5 175" opacity="1"></path><path fill="none" data-z-index="1" class="highcharts-grid-line" d="M 184.5 7 L 184.5 175" opacity="1"></path><path fill="none" data-z-index="1" class="highcharts-grid-line" d="M 199.5 7 L 199.5 175" opacity="1"></path><path fill="none" data-z-index="1" class="highcharts-grid-line" d="M 213.5 7 L 213.5 175" opacity="1"></path><path fill="none" data-z-index="1" class="highcharts-grid-line" d="M 228.5 7 L 228.5 175" opacity="1"></path><path fill="none" data-z-index="1" class="highcharts-grid-line" d="M 242.5 7 L 242.5 175" opacity="1"></path><path fill="none" data-z-index="1" class="highcharts-grid-line" d="M 256.5 7 L 256.5 175" opacity="1"></path><path fill="none" data-z-index="1" class="highcharts-grid-line" d="M 271.5 7 L 271.5 175" opacity="1"></path><path fill="none" data-z-index="1" class="highcharts-grid-line" d="M 285.5 7 L 285.5 175" opacity="1"></path><path fill="none" data-z-index="1" class="highcharts-grid-line" d="M 300.5 7 L 300.5 175" opacity="1"></path><path fill="none" data-z-index="1" class="highcharts-grid-line" d="M 314.5 7 L 314.5 175" opacity="1"></path></g><g class="highcharts-grid highcharts-yaxis-grid " data-z-index="1"><path fill="none" stroke="#B9CFD7" stroke-width="0.5" data-z-index="1" class="highcharts-grid-line" d="M 38 175.25 L 318 175.25" opacity="1"></path><path fill="none" stroke="#B9CFD7" stroke-width="0.5" data-z-index="1" class="highcharts-grid-line" d="M 38 133.25 L 318 133.25" opacity="1"></path><path fill="none" stroke="#B9CFD7" stroke-width="0.5" data-z-index="1" class="highcharts-grid-line" d="M 38 91.25 L 318 91.25" opacity="1"></path><path fill="none" stroke="#B9CFD7" stroke-width="0.5" data-z-index="1" class="highcharts-grid-line" d="M 38 49.25 L 318 49.25" opacity="1"></path><path fill="none" stroke="#B9CFD7" stroke-width="0.5" data-z-index="1" class="highcharts-grid-line" d="M 38 6.75 L 318 6.75" opacity="1"></path></g><rect fill="none" class="highcharts-plot-border" data-z-index="1" x="38" y="7" width="280" height="168"></rect><g class="highcharts-axis highcharts-xaxis " data-z-index="2"><path fill="none" class="highcharts-axis-line" stroke="#B9CFD7" stroke-width="0.5" data-z-index="7" d="M 38 175.25 L 318 175.25"></path></g><g class="highcharts-axis highcharts-yaxis " data-z-index="2"><path fill="none" class="highcharts-axis-line" data-z-index="7" d="M 38 7 L 38 175"></path></g><g class="highcharts-series-group" data-z-index="3"><g data-z-index="0.1" class="highcharts-series highcharts-series-0 highcharts-line-series " transform="translate(38,7) scale(1 1)" clip-path="url(#highcharts-jzrs6we-7)"><path fill="none" d="M 2.7450980392165 52.581517711169994 L 17.192982456141 52.264553470332004 L 31.640866873066 50.306067137591995 L 46.08875128999 46.777573969223994 L 60.536635706915 44.390984639441996 L 74.984520123839 42.277210072271984 L 89.432404540764 40.205181822539984 L 103.88028895769 37.221852183935994 L 118.32817337461 36.70132776370201 L 132.77605779154 34.757610659688 L 147.22394220846 31.693651503612017 L 161.67182662539 30.895871971733982 L 176.11971104231 27.847664466132017 L 190.56759545924 25.740709917845976 L 205.01547987616 22.845057019637977 L 219.46336429309 20.96975126101799 L 233.91124871001 19.795399687643993 L 248.35913312693 17.957317134708006 L 262.80701754386 16.854202263443995 L 277.25490196078 15.040687919459998" class="highcharts-graph" data-z-index="1" stroke="#cd9c00" stroke-width="2" stroke-linejoin="round" stroke-linecap="round"></path></g><g data-z-index="0.1" class="highcharts-markers highcharts-series-0 highcharts-line-series " transform="translate(38,7) scale(1 1)" clip-path="none"></g></g><text x="2" text-anchor="start" class="highcharts-title" data-z-index="4" style="color:#000000;font-size:10px;font-weight:bold;fill:#000000;" y="14"><tspan>Ausländeranteil</tspan></text><text x="2" text-anchor="start" class="highcharts-subtitle" data-z-index="4" style="color:#000000;font-size:10px;font-weight:normal;font-family:Arial;fill:#000000;" y="31"><tspan>Basel-Stadt</tspan></text><g class="highcharts-axis-labels highcharts-xaxis-labels " data-z-index="7"><text x="43.10212064317116" style="color:#000000;cursor:default;font-size:10px;white-space:nowrap;fill:#000000;" text-anchor="end" transform="translate(0,0) rotate(-45 43.10212064317116 190)" y="190" opacity="1">1999</text><text x="57.55000506009616" style="color:#000000;cursor:default;font-size:10px;white-space:nowrap;fill:#000000;" text-anchor="end" transform="translate(0,0) rotate(-45 57.55000506009616 190)" y="190" opacity="1">2000</text><text x="71.99788947702116" style="color:#000000;cursor:default;font-size:10px;white-space:nowrap;fill:#000000;" text-anchor="end" transform="translate(0,0) rotate(-45 71.99788947702116 190)" y="190" opacity="1">2001</text><text x="86.44577389394516" style="color:#000000;cursor:default;font-size:10px;white-space:nowrap;fill:#000000;" text-anchor="end" transform="translate(0,0) rotate(-45 86.44577389394516 190)" y="190" opacity="1">2002</text><text x="100.89365831087017" style="color:#000000;cursor:default;font-size:10px;white-space:nowrap;fill:#000000;" text-anchor="end" transform="translate(0,0) rotate(-45 100.89365831087017 190)" y="190" opacity="1">2003</text><text x="115.34154272779516" style="color:#000000;cursor:default;font-size:10px;white-space:nowrap;fill:#000000;" text-anchor="end" transform="translate(0,0) rotate(-45 115.34154272779516 190)" y="190" opacity="1">2004</text><text x="129.78942714471515" style="color:#000000;cursor:default;font-size:10px;white-space:nowrap;fill:#000000;" text-anchor="end" transform="translate(0,0) rotate(-45 129.78942714471515 190)" y="190" opacity="1">2005</text><text x="144.23731156164516" style="color:#000000;cursor:default;font-size:10px;white-space:nowrap;fill:#000000;" text-anchor="end" transform="translate(0,0) rotate(-45 144.23731156164516 190)" y="190" opacity="1">2006</text><text x="158.68519597856516" style="color:#000000;cursor:default;font-size:10px;white-space:nowrap;fill:#000000;" text-anchor="end" transform="translate(0,0) rotate(-45 158.68519597856516 190)" y="190" opacity="1">2007</text><text x="173.13308039549517" style="color:#000000;cursor:default;font-size:10px;white-space:nowrap;fill:#000000;" text-anchor="end" transform="translate(0,0) rotate(-45 173.13308039549517 190)" y="190" opacity="1">2008</text><text x="187.58096481241515" style="color:#000000;cursor:default;font-size:10px;white-space:nowrap;fill:#000000;" text-anchor="end" transform="translate(0,0) rotate(-45 187.58096481241515 190)" y="190" opacity="1">2009</text><text x="202.02884922934516" style="color:#000000;cursor:default;font-size:10px;white-space:nowrap;fill:#000000;" text-anchor="end" transform="translate(0,0) rotate(-45 202.02884922934516 190)" y="190" opacity="1">2010</text><text x="216.47673364626516" style="color:#000000;cursor:default;font-size:10px;white-space:nowrap;fill:#000000;" text-anchor="end" transform="translate(0,0) rotate(-45 216.47673364626516 190)" y="190" opacity="1">2011</text><text x="230.92461806319517" style="color:#000000;cursor:default;font-size:10px;white-space:nowrap;fill:#000000;" text-anchor="end" transform="translate(0,0) rotate(-45 230.92461806319517 190)" y="190" opacity="1">2012</text><text x="245.37250248011514" style="color:#000000;cursor:default;font-size:10px;white-space:nowrap;fill:#000000;" text-anchor="end" transform="translate(0,0) rotate(-45 245.37250248011514 190)" y="190" opacity="1">2013</text><text x="259.8203868970452" style="color:#000000;cursor:default;font-size:10px;white-space:nowrap;fill:#000000;" text-anchor="end" transform="translate(0,0) rotate(-45 259.8203868970452 190)" y="190" opacity="1">2014</text><text x="274.26827131396516" style="color:#000000;cursor:default;font-size:10px;white-space:nowrap;fill:#000000;" text-anchor="end" transform="translate(0,0) rotate(-45 274.26827131396516 190)" y="190" opacity="1">2015</text><text x="288.71615573088513" style="color:#000000;cursor:default;font-size:10px;white-space:nowrap;fill:#000000;" text-anchor="end" transform="translate(0,0) rotate(-45 288.71615573088513 190)" y="190" opacity="1">2016</text><text x="303.1640401478152" style="color:#000000;cursor:default;font-size:10px;white-space:nowrap;fill:#000000;" text-anchor="end" transform="translate(0,0) rotate(-45 303.1640401478152 190)" y="190" opacity="1">2017</text><text x="317.61192456473515" style="color:#000000;cursor:default;font-size:10px;white-space:nowrap;fill:#000000;" text-anchor="end" transform="translate(0,0) rotate(-45 317.61192456473515 190)" y="190" opacity="1">2018</text></g><g class="highcharts-axis-labels highcharts-yaxis-labels " data-z-index="7"><text x="23" style="color:#000000;cursor:default;font-size:10px;fill:#000000;" text-anchor="end" transform="translate(0,0)" y="178" opacity="1">0%</text><text x="23" style="color:#000000;cursor:default;font-size:10px;fill:#000000;" text-anchor="end" transform="translate(0,0)" y="136" opacity="1">10%</text><text x="23" style="color:#000000;cursor:default;font-size:10px;fill:#000000;" text-anchor="end" transform="translate(0,0)" y="94" opacity="1">20%</text><text x="23" style="color:#000000;cursor:default;font-size:10px;fill:#000000;" text-anchor="end" transform="translate(0,0)" y="52" opacity="1">30%</text><text x="23" style="color:#000000;cursor:default;font-size:10px;fill:#000000;" text-anchor="end" transform="translate(0,0)" y="10" opacity="1">40%</text></g><text x="10" class="highcharts-credits" text-anchor="start" data-z-index="8" style="cursor:default;color:#000000;font-size:10px;fill:#000000;" y="196"><tspan>Quelle: Statistisches Amt Basel-Stadt, Bevölkerungsstatistik.</tspan><tspan x="10" dy="13">Zuletzt geändert: 2019-12-16</tspan></text></svg>