<?xml version="1.0" standalone="no"?><!DOCTYPE svg PUBLIC "-//W3C//DTD SVG 1.1//EN" "http://www.w3.org/Graphics/SVG/1.1/DTD/svg11.dtd"><svg xmlns:xlink="http://www.w3.org/1999/xlink" version="1.1" class="highcharts-root" style="font-family:Arial;font-size:12px;" xmlns="http://www.w3.org/2000/svg" viewBox="0 0 485 415"><desc>Created with Highcharts 8.2.0</desc><defs><clipPath id="highcharts-9oxn0xj-26-"><rect x="0" y="0" width="194" height="154" fill="none"></rect></clipPath></defs><rect fill="#fbfbfb" class="highcharts-background" x="0" y="0" width="320" height="221" rx="0" ry="0"></rect><rect fill="none" class="highcharts-plot-background" x="2" y="55" width="194" height="154"></rect><g class="highcharts-pane-group" data-z-index="0"></g><rect fill="none" class="highcharts-plot-border" data-z-index="1" x="2" y="55" width="194" height="154"></rect><g class="highcharts-series-group" data-z-index="3"><g class="highcharts-series highcharts-series-0 highcharts-pie-series" data-z-index="0.1" opacity="1" transform="translate(2,55) scale(1 1)"><path fill="#672773" d="M 96.98635389535242 10.000001389672946 A 67 67 0 0 1 163.0567177342872 65.79687355365881 L 97 77 A 0 0 0 0 0 97 77 Z" transform="translate(0,0)" opacity="1" stroke-linejoin="round" class="highcharts-point highcharts-color-0"></path><path fill="#007a2f " d="M 163.06788783051022 65.8629358619464 A 67 67 0 0 1 153.29864562382184 113.32440640840986 L 97 77 A 0 0 0 0 0 97 77 Z" transform="translate(0,0)" opacity="1" stroke-linejoin="round" class="highcharts-point highcharts-color-1"></path><path fill="#fabd24" d="M 153.262293074147 113.38068688244888 A 67 67 0 0 1 127.86764968029574 136.46585745799464 L 97 77 A 0 0 0 0 0 97 77 Z" transform="translate(0,0)" opacity="1" stroke-linejoin="round" class="highcharts-point highcharts-color-2"></path><path fill="#b475ab" d="M 127.80816839892518 136.49669536960408 A 67 67 0 0 1 44.88547101551593 119.10790743702862 L 97 77 A 0 0 0 0 0 97 77 Z" transform="translate(0,0)" opacity="1" stroke-linejoin="round" class="highcharts-point highcharts-color-3"></path><path fill="#71a3b5" d="M 44.84338917235922 119.05577186277793 A 67 67 0 0 1 32.92536196194712 96.58164345228732 L 97 77 A 0 0 0 0 0 97 77 Z" transform="translate(0,0)" opacity="1" stroke-linejoin="round" class="highcharts-point highcharts-color-4"></path><path fill="#b9cfd7" d="M 32.90581235907479 96.51755903410748 A 67 67 0 0 1 34.91476000103361 51.81224554926057 L 97 77 A 0 0 0 0 0 97 77 Z" transform="translate(0,0)" opacity="1" stroke-linejoin="round" class="highcharts-point highcharts-color-5"></path><path fill="#ff8028 " d="M 34.939978793903805 51.75017291348532 A 67 67 0 0 1 39.61661091674661 42.41464678046563 L 97 77 A 0 0 0 0 0 97 77 Z" transform="translate(0,0)" opacity="1" stroke-linejoin="round" class="highcharts-point highcharts-color-6"></path><path fill="#73ba7c" d="M 39.65122495589407 42.35728069362146 A 67 67 0 0 1 44.96196970030077 34.797590086257095 L 97 77 A 0 0 0 0 0 97 77 Z" transform="translate(0,0)" opacity="1" stroke-linejoin="round" class="highcharts-point highcharts-color-7"></path><path fill="#9f7c5a" d="M 45.004198122193756 34.745573165833605 A 67 67 0 0 1 52.450246162441445 26.956824311271603 L 97 77 A 0 0 0 0 0 97 77 Z" transform="translate(0,0)" opacity="1" stroke-linejoin="round" class="highcharts-point highcharts-color-8"></path><path fill="#999999" d="M 52.5003116046647 26.912299586444767 A 67 67 0 0 1 96.9069383441492 10.000064630417654 L 97 77 A 0 0 0 0 0 97 77 Z" transform="translate(0,0)" opacity="1" stroke-linejoin="round" class="highcharts-point highcharts-color-9"></path></g><g class="highcharts-markers highcharts-series-0 highcharts-pie-series" data-z-index="0.1" opacity="1" transform="translate(2,55) scale(1 1)"></g></g><text x="2" text-anchor="start" class="highcharts-title" data-z-index="4" style="color:#000000;font-size:10px;font-weight:bold;fill:#000000;" y="9"><tspan>Ausländer nach Staatsangehörigkeit bzw.</tspan><tspan dy="13" x="2">Ländergruppen</tspan></text><text x="2" text-anchor="start" class="highcharts-subtitle" data-z-index="4" style="color:#000000;font-size:10px;font-weight:normal;font-family:Arial;fill:#000000;" y="39"><tspan>Basel-Stadt, 2019</tspan></text><text x="2" text-anchor="start" class="highcharts-caption" data-z-index="4" style="color:#666666;fill:#666666;" y="221"></text><g class="highcharts-legend" data-z-index="7" transform="translate(196,33)"><rect fill="none" class="highcharts-legend-box" rx="0" ry="0" x="0" y="0" width="122" height="145" visibility="visible"></rect><g data-z-index="1"><g><g class="highcharts-legend-item highcharts-pie-series highcharts-color-0" data-z-index="1" transform="translate(0,-5)"><text x="21" style="color:#000000;cursor:pointer;font-size:10px;font-weight:normal;fill:#000000;" text-anchor="start" data-z-index="2" y="13"><tspan>Deutschland</tspan></text><rect x="3" y="4" width="10" height="10" fill="#672773" class="highcharts-point" data-z-index="3"></rect></g><g class="highcharts-legend-item highcharts-pie-series highcharts-color-1" data-z-index="1" transform="translate(0,10)"><text x="21" y="13" style="color:#000000;cursor:pointer;font-size:10px;font-weight:normal;fill:#000000;" text-anchor="start" data-z-index="2"><tspan>Italien</tspan></text><rect x="3" y="4" width="10" height="10" fill="#007a2f " class="highcharts-point" data-z-index="3"></rect></g><g class="highcharts-legend-item highcharts-pie-series highcharts-color-2" data-z-index="1" transform="translate(0,25)"><text x="21" y="13" style="color:#000000;cursor:pointer;font-size:10px;font-weight:normal;fill:#000000;" text-anchor="start" data-z-index="2"><tspan>Türkei</tspan></text><rect x="3" y="4" width="10" height="10" fill="#fabd24" class="highcharts-point" data-z-index="3"></rect></g><g class="highcharts-legend-item highcharts-pie-series highcharts-color-3" data-z-index="1" transform="translate(0,40)"><text x="21" y="13" style="color:#000000;cursor:pointer;font-size:10px;font-weight:normal;fill:#000000;" text-anchor="start" data-z-index="2"><tspan>EU-17 + EFTA</tspan></text><rect x="3" y="4" width="10" height="10" fill="#b475ab" class="highcharts-point" data-z-index="3"></rect></g><g class="highcharts-legend-item highcharts-pie-series highcharts-color-4" data-z-index="1" transform="translate(0,55)"><text x="21" y="13" style="color:#000000;cursor:pointer;font-size:10px;font-weight:normal;fill:#000000;" text-anchor="start" data-z-index="2"><tspan>EU-Ost</tspan></text><rect x="3" y="4" width="10" height="10" fill="#71a3b5" class="highcharts-point" data-z-index="3"></rect></g><g class="highcharts-legend-item highcharts-pie-series highcharts-color-5" data-z-index="1" transform="translate(0,70)"><text x="21" y="13" style="color:#000000;cursor:pointer;font-size:10px;font-weight:normal;fill:#000000;" text-anchor="start" data-z-index="2"><tspan>Balkan</tspan></text><rect x="3" y="4" width="10" height="10" fill="#b9cfd7" class="highcharts-point" data-z-index="3"></rect></g><g class="highcharts-legend-item highcharts-pie-series highcharts-color-6" data-z-index="1" transform="translate(0,85)"><text x="21" y="13" style="color:#000000;cursor:pointer;font-size:10px;font-weight:normal;fill:#000000;" text-anchor="start" data-z-index="2"><tspan>Mittel- u. Südamerika</tspan></text><rect x="3" y="4" width="10" height="10" fill="#ff8028 " class="highcharts-point" data-z-index="3"></rect></g><g class="highcharts-legend-item highcharts-pie-series highcharts-color-7" data-z-index="1" transform="translate(0,100)"><text x="21" y="13" style="color:#000000;cursor:pointer;font-size:10px;font-weight:normal;fill:#000000;" text-anchor="start" data-z-index="2"><tspan>Arabische Länder</tspan></text><rect x="3" y="4" width="10" height="10" fill="#73ba7c" class="highcharts-point" data-z-index="3"></rect></g><g class="highcharts-legend-item highcharts-pie-series highcharts-color-8" data-z-index="1" transform="translate(0,115)"><text x="21" y="13" style="color:#000000;cursor:pointer;font-size:10px;font-weight:normal;fill:#000000;" text-anchor="start" data-z-index="2"><tspan>Afrikanische Länder</tspan></text><rect x="3" y="4" width="10" height="10" fill="#9f7c5a" class="highcharts-point" data-z-index="3"></rect></g><g class="highcharts-legend-item highcharts-pie-series highcharts-color-9" data-z-index="1" transform="translate(0,130)"><text x="21" y="13" style="color:#000000;cursor:pointer;font-size:10px;font-weight:normal;fill:#000000;" text-anchor="start" data-z-index="2"><tspan>Übrige Länder</tspan></text><rect x="3" y="4" width="10" height="10" fill="#999999" class="highcharts-point" data-z-index="3"></rect></g></g></g></g><text x="10" class="highcharts-credits" text-anchor="start" data-z-index="8" style="cursor:default;color:#000000;font-size:10px;fill:#000000;" y="196"><tspan>Quelle: Statistisches Amt Basel-Stadt, Bevölkerungsstatistik.</tspan><tspan x="10" dy="13">Zuletzt geändert: 2020-12-16</tspan></text></svg>