<?xml version="1.0" standalone="no"?><!DOCTYPE svg PUBLIC "-//W3C//DTD SVG 1.1//EN" "http://www.w3.org/Graphics/SVG/1.1/DTD/svg11.dtd"><svg xmlns:xlink="http://www.w3.org/1999/xlink" version="1.1" class="highcharts-root" style="font-family:Arial;font-size:12px;" xmlns="http://www.w3.org/2000/svg" viewBox="0 0 485 415"><desc>Created with Highstock 6.1.0</desc><defs><clipPath id="highcharts-iryfqas-6"><rect x="0" y="0" width="201" height="163" fill="none"></rect></clipPath></defs><rect fill="#fbfbfb" class="highcharts-background" x="0" y="0" width="320" height="208" rx="0" ry="0"></rect><rect fill="none" class="highcharts-plot-background" x="2" y="43" width="201" height="163"></rect><g class="highcharts-pane-group"></g><rect fill="none" class="highcharts-plot-border" x="2" y="43" width="201" height="163"></rect><g class="highcharts-series-group"><g class="highcharts-series highcharts-series-0 highcharts-pie-series " transform="translate(2,43) scale(1 1)"><path fill="#672773" d="M 100.9854373659358 10.500001483009186 A 71.5 71.5 0 0 1 171.68641189917287 71.24448175026087 L 101 82 A 0 0 0 0 0 101 82 Z" transform="translate(0,0)" stroke-linejoin="round" class="highcharts-point highcharts-color-0"></path><path fill="#007a2f " d="M 171.69713207242702 71.31517352813765 A 71.5 71.5 0 0 1 160.21261766703068 122.0763759466602 L 101 82 A 0 0 0 0 0 101 82 Z" transform="translate(0,0)" stroke-linejoin="round" class="highcharts-point highcharts-color-1"></path><path fill="#fabd24" d="M 160.17251169145706 122.13556851627217 A 71.5 71.5 0 0 1 130.40250816398594 147.17470762241086 L 101 82 A 0 0 0 0 0 101 82 Z" transform="translate(0,0)" stroke-linejoin="round" class="highcharts-point highcharts-color-2"></path><path fill="#b475ab" d="M 130.33731876597312 147.20407753832333 A 71.5 71.5 0 0 1 43.632764592340536 124.67610926129726 L 101 82 A 0 0 0 0 0 101 82 Z" transform="translate(0,0)" stroke-linejoin="round" class="highcharts-point highcharts-color-3"></path><path fill="#71a3b5" d="M 43.590117173807236 124.61872069739796 A 71.5 71.5 0 0 1 32.58018462391807 102.76003044079806 L 101 82 A 0 0 0 0 0 101 82 Z" transform="translate(0,0)" stroke-linejoin="round" class="highcharts-point highcharts-color-4"></path><path fill="#b9cfd7" d="M 32.559458806842116 102.69160025681094 A 71.5 71.5 0 0 1 35.81386030959469 52.62284574260187 L 101 82 A 0 0 0 0 0 101 82 Z" transform="translate(0,0)" stroke-linejoin="round" class="highcharts-point highcharts-color-5"></path><path fill="#ff8028 " d="M 35.843270052023016 52.557674302351735 A 71.5 71.5 0 0 1 40.858440490405506 43.33163024183844 L 101 82 A 0 0 0 0 0 101 82 Z" transform="translate(0,0)" stroke-linejoin="round" class="highcharts-point highcharts-color-6"></path><path fill="#73ba7c" d="M 40.89713892449618 43.27150802653571 A 71.5 71.5 0 0 1 46.56365272557027 35.643402892169846 L 101 82 A 0 0 0 0 0 101 82 Z" transform="translate(0,0)" stroke-linejoin="round" class="highcharts-point highcharts-color-7"></path><path fill="#9f7c5a" d="M 46.61003653312336 35.588989732264764 A 71.5 71.5 0 0 1 54.26448110825174 27.888621585483136 L 101 82 A 0 0 0 0 0 101 82 Z" transform="translate(0,0)" stroke-linejoin="round" class="highcharts-point highcharts-color-8"></path><path fill="#999999" d="M 54.31861584540521 27.841913130067567 A 71.5 71.5 0 0 1 100.90068793442788 10.5000689712666 L 101 82 A 0 0 0 0 0 101 82 Z" transform="translate(0,0)" stroke-linejoin="round" class="highcharts-point highcharts-color-9"></path></g><g class="highcharts-markers highcharts-series-0 highcharts-pie-series " transform="translate(2,43) scale(1 1)"></g></g><text x="2" text-anchor="start" class="highcharts-title" style="color:#000000;font-size:10px;font-weight:bold;fill:#000000;" y="9"><tspan>Ausländer nach Staatsangehörigkeit</tspan></text><text x="2" text-anchor="start" class="highcharts-subtitle" style="color:#000000;font-size:10px;font-weight:normal;font-family:Arial;fill:#000000;" y="27"><tspan>Basel-Stadt, 2017</tspan></text><g class="highcharts-legend" transform="translate(203,32)"><rect fill="none" class="highcharts-legend-box" rx="0" ry="0" x="0" y="0" width="115" height="145" visibility="visible"></rect><g><g><g class="highcharts-legend-item highcharts-pie-series highcharts-color-0" transform="translate(0,-5)"><text x="21" style="color:#333333;font-size:10px;font-weight:normal;cursor:pointer;fill:#333333;" text-anchor="start" y="13"><tspan>Deutschland</tspan></text><rect x="3" y="4" width="10" height="10" fill="#672773" class="highcharts-point"></rect></g><g class="highcharts-legend-item highcharts-pie-series highcharts-color-1" transform="translate(0,10)"><text x="21" y="13" style="color:#333333;font-size:10px;font-weight:normal;cursor:pointer;fill:#333333;" text-anchor="start"><tspan>Italien</tspan></text><rect x="3" y="4" width="10" height="10" fill="#007a2f " class="highcharts-point"></rect></g><g class="highcharts-legend-item highcharts-pie-series highcharts-color-2" transform="translate(0,25)"><text x="21" y="13" style="color:#333333;font-size:10px;font-weight:normal;cursor:pointer;fill:#333333;" text-anchor="start"><tspan>Türkei</tspan></text><rect x="3" y="4" width="10" height="10" fill="#fabd24" class="highcharts-point"></rect></g><g class="highcharts-legend-item highcharts-pie-series highcharts-color-3" transform="translate(0,40)"><text x="21" y="13" style="color:#333333;font-size:10px;font-weight:normal;cursor:pointer;fill:#333333;" text-anchor="start"><tspan>EU-17 + EFTA</tspan></text><rect x="3" y="4" width="10" height="10" fill="#b475ab" class="highcharts-point"></rect></g><g class="highcharts-legend-item highcharts-pie-series highcharts-color-4" transform="translate(0,55)"><text x="21" y="13" style="color:#333333;font-size:10px;font-weight:normal;cursor:pointer;fill:#333333;" text-anchor="start"><tspan>EU-Ost</tspan></text><rect x="3" y="4" width="10" height="10" fill="#71a3b5" class="highcharts-point"></rect></g><g class="highcharts-legend-item highcharts-pie-series highcharts-color-5" transform="translate(0,70)"><text x="21" y="13" style="color:#333333;font-size:10px;font-weight:normal;cursor:pointer;fill:#333333;" text-anchor="start"><tspan>Balkan</tspan></text><rect x="3" y="4" width="10" height="10" fill="#b9cfd7" class="highcharts-point"></rect></g><g class="highcharts-legend-item highcharts-pie-series highcharts-color-6" transform="translate(0,85)"><text x="21" y="13" style="color:#333333;font-size:10px;font-weight:normal;cursor:pointer;fill:#333333;" text-anchor="start"><tspan>Mittel- u. Südamerika</tspan></text><rect x="3" y="4" width="10" height="10" fill="#ff8028 " class="highcharts-point"></rect></g><g class="highcharts-legend-item highcharts-pie-series highcharts-color-7" transform="translate(0,100)"><text x="21" y="13" style="color:#333333;font-size:10px;font-weight:normal;cursor:pointer;fill:#333333;" text-anchor="start"><tspan>Arabische Länder</tspan></text><rect x="3" y="4" width="10" height="10" fill="#73ba7c" class="highcharts-point"></rect></g><g class="highcharts-legend-item highcharts-pie-series highcharts-color-8" transform="translate(0,115)"><text x="21" y="13" style="color:#333333;font-size:10px;font-weight:normal;cursor:pointer;fill:#333333;" text-anchor="start"><tspan>Afrikanische Länder</tspan></text><rect x="3" y="4" width="10" height="10" fill="#9f7c5a" class="highcharts-point"></rect></g><g class="highcharts-legend-item highcharts-pie-series highcharts-color-9" transform="translate(0,130)"><text x="21" y="13" style="color:#333333;font-size:10px;font-weight:normal;cursor:pointer;fill:#333333;" text-anchor="start"><tspan>Übrige Länder</tspan></text><rect x="3" y="4" width="10" height="10" fill="#999999" class="highcharts-point"></rect></g></g></g></g><text x="10" class="highcharts-credits" text-anchor="start" style="cursor:default;color:#000000;font-size:10px;fill:#000000;" y="193"><tspan>Quelle: Statistisches Amt Basel-Stadt, Bevölkerungsstatistik.</tspan></text></svg>