<?xml version="1.0" standalone="no"?><!DOCTYPE svg PUBLIC "-//W3C//DTD SVG 1.1//EN" "http://www.w3.org/Graphics/SVG/1.1/DTD/svg11.dtd"><svg xmlns:xlink="http://www.w3.org/1999/xlink" version="1.1" class="highcharts-root" style="font-family:Arial;font-size:12px;" xmlns="http://www.w3.org/2000/svg" viewBox="0 0 485 415"><desc>Created with Highstock 6.1.0</desc><defs><clipPath id="highcharts-gu4gzye-6"><rect x="0" y="0" width="147" height="137" fill="none"></rect></clipPath><clipPath id="highcharts-gu4gzye-7"><rect x="0" y="0" width="147" height="137" fill="none"></rect></clipPath></defs><rect fill="#fbfbfb" class="highcharts-background" x="0" y="0" width="320" height="208" rx="0" ry="0"></rect><rect fill="none" class="highcharts-plot-background" x="43" y="48" width="147" height="137"></rect><g class="highcharts-pane-group"></g><g class="highcharts-grid highcharts-xaxis-grid "><path fill="none" class="highcharts-grid-line" d="M 91.5 48 L 91.5 185" opacity="1"></path><path fill="none" class="highcharts-grid-line" d="M 140.5 48 L 140.5 185" opacity="1"></path><path fill="none" class="highcharts-grid-line" d="M 189.5 48 L 189.5 185" opacity="1"></path><path fill="none" class="highcharts-grid-line" d="M 42.5 48 L 42.5 185" opacity="1"></path></g><g class="highcharts-grid highcharts-yaxis-grid "><path fill="none" stroke="#B9CFD7" stroke-width="0.5" class="highcharts-grid-line" d="M 43 185.25 L 190 185.25" opacity="1"></path><path fill="none" stroke="#B9CFD7" stroke-width="0.5" class="highcharts-grid-line" d="M 43 151.25 L 190 151.25" opacity="1"></path><path fill="none" stroke="#B9CFD7" stroke-width="0.5" class="highcharts-grid-line" d="M 43 117.25 L 190 117.25" opacity="1"></path><path fill="none" stroke="#B9CFD7" stroke-width="0.5" class="highcharts-grid-line" d="M 43 82.25 L 190 82.25" opacity="1"></path><path fill="none" stroke="#B9CFD7" stroke-width="0.5" class="highcharts-grid-line" d="M 43 47.75 L 190 47.75" opacity="1"></path></g><rect fill="none" class="highcharts-plot-border" x="43" y="48" width="147" height="137"></rect><g class="highcharts-axis highcharts-xaxis "><path fill="none" class="highcharts-axis-line" stroke="#B9CFD7" stroke-width="0.5" d="M 43 185.25 L 190 185.25"></path></g><g class="highcharts-axis highcharts-yaxis "><path fill="none" class="highcharts-axis-line" d="M 43 48 L 43 185"></path></g><g class="highcharts-series-group"><g class="highcharts-series highcharts-series-0 highcharts-column-series " transform="translate(43,48) scale(1 1)" clip-path="url(#highcharts-gu4gzye-7)"><rect x="13" y="0" width="24" height="15" fill="#999999" class="highcharts-point"></rect><rect x="62" y="0" width="24" height="18" fill="#999999" class="highcharts-point"></rect><rect x="111" y="0" width="24" height="16" fill="#999999" class="highcharts-point"></rect></g><g class="highcharts-markers highcharts-series-0 highcharts-column-series " transform="translate(43,48) scale(1 1)" clip-path="none"></g><g class="highcharts-series highcharts-series-1 highcharts-column-series " transform="translate(43,48) scale(1 1)" clip-path="url(#highcharts-gu4gzye-7)"><rect x="13" y="15" width="24" height="3" fill="#9f7c5a" class="highcharts-point"></rect><rect x="62" y="18" width="24" height="3" fill="#9f7c5a" class="highcharts-point"></rect><rect x="111" y="16" width="24" height="4" fill="#9f7c5a" class="highcharts-point"></rect></g><g class="highcharts-markers highcharts-series-1 highcharts-column-series " transform="translate(43,48) scale(1 1)" clip-path="none"></g><g class="highcharts-series highcharts-series-2 highcharts-column-series " transform="translate(43,48) scale(1 1)" clip-path="url(#highcharts-gu4gzye-7)"><rect x="13" y="18" width="24" height="4" fill="#73ba7c" class="highcharts-point"></rect><rect x="62" y="21" width="24" height="2" fill="#73ba7c" class="highcharts-point"></rect><rect x="111" y="20" width="24" height="2" fill="#73ba7c" class="highcharts-point"></rect></g><g class="highcharts-markers highcharts-series-2 highcharts-column-series " transform="translate(43,48) scale(1 1)" clip-path="none"></g><g class="highcharts-series highcharts-series-3 highcharts-column-series " transform="translate(43,48) scale(1 1)" clip-path="url(#highcharts-gu4gzye-7)"><rect x="13" y="22" width="24" height="2" fill="#ff8028" class="highcharts-point"></rect><rect x="62" y="23" width="24" height="4" fill="#ff8028" class="highcharts-point"></rect><rect x="111" y="22" width="24" height="4" fill="#ff8028" class="highcharts-point"></rect></g><g class="highcharts-markers highcharts-series-3 highcharts-column-series " transform="translate(43,48) scale(1 1)" clip-path="none"></g><g class="highcharts-series highcharts-series-4 highcharts-column-series " transform="translate(43,48) scale(1 1)" clip-path="url(#highcharts-gu4gzye-7)"><rect x="13" y="24" width="24" height="16" fill="#b9cfd7" class="highcharts-point"></rect><rect x="62" y="27" width="24" height="17" fill="#b9cfd7" class="highcharts-point"></rect><rect x="111" y="26" width="24" height="16" fill="#b9cfd7" class="highcharts-point"></rect></g><g class="highcharts-markers highcharts-series-4 highcharts-column-series " transform="translate(43,48) scale(1 1)" clip-path="none"></g><g class="highcharts-series highcharts-series-5 highcharts-column-series " transform="translate(43,48) scale(1 1)" clip-path="url(#highcharts-gu4gzye-7)"><rect x="13" y="40" width="24" height="6" fill="#71a3b5" class="highcharts-point"></rect><rect x="62" y="44" width="24" height="8" fill="#71a3b5" class="highcharts-point"></rect><rect x="111" y="42" width="24" height="7" fill="#71a3b5" class="highcharts-point"></rect></g><g class="highcharts-markers highcharts-series-5 highcharts-column-series " transform="translate(43,48) scale(1 1)" clip-path="none"></g><g class="highcharts-series highcharts-series-6 highcharts-column-series " transform="translate(43,48) scale(1 1)" clip-path="url(#highcharts-gu4gzye-7)"><rect x="13" y="46" width="24" height="31" fill="#b475ab" class="highcharts-point"></rect><rect x="62" y="52" width="24" height="28" fill="#b475ab" class="highcharts-point"></rect><rect x="111" y="49" width="24" height="29" fill="#b475ab" class="highcharts-point"></rect></g><g class="highcharts-markers highcharts-series-6 highcharts-column-series " transform="translate(43,48) scale(1 1)" clip-path="none"></g><g class="highcharts-series highcharts-series-7 highcharts-column-series " transform="translate(43,48) scale(1 1)" clip-path="url(#highcharts-gu4gzye-7)"><rect x="13" y="77" width="24" height="12" fill="#fabd24" class="highcharts-point"></rect><rect x="62" y="80" width="24" height="12" fill="#fabd24" class="highcharts-point"></rect><rect x="111" y="78" width="24" height="13" fill="#fabd24" class="highcharts-point"></rect></g><g class="highcharts-markers highcharts-series-7 highcharts-column-series " transform="translate(43,48) scale(1 1)" clip-path="none"></g><g class="highcharts-series highcharts-series-8 highcharts-column-series " transform="translate(43,48) scale(1 1)" clip-path="url(#highcharts-gu4gzye-7)"><rect x="13" y="89" width="24" height="17" fill="#007a2f" class="highcharts-point"></rect><rect x="62" y="92" width="24" height="15" fill="#007a2f" class="highcharts-point"></rect><rect x="111" y="91" width="24" height="16" fill="#007a2f" class="highcharts-point"></rect></g><g class="highcharts-markers highcharts-series-8 highcharts-column-series " transform="translate(43,48) scale(1 1)" clip-path="none"></g><g class="highcharts-series highcharts-series-9 highcharts-column-series " transform="translate(43,48) scale(1 1)" clip-path="url(#highcharts-gu4gzye-7)"><rect x="13" y="106" width="24" height="32" fill="#672773" class="highcharts-point"></rect><rect x="62" y="107" width="24" height="31" fill="#672773" class="highcharts-point"></rect><rect x="111" y="107" width="24" height="31" fill="#672773" class="highcharts-point"></rect></g><g class="highcharts-markers highcharts-series-9 highcharts-column-series " transform="translate(43,48) scale(1 1)" clip-path="none"></g></g><text x="2" text-anchor="start" class="highcharts-title" style="color:#000000;font-size:10px;font-weight:bold;fill:#000000;" y="14"><tspan>Ausländer nach Staatsangehörigkeit und Geschlecht</tspan></text><text x="2" text-anchor="start" class="highcharts-subtitle" style="color:#000000;font-size:10px;font-weight:normal;font-family:Arial;fill:#000000;" y="32"><tspan>Stand: 2016</tspan></text><g class="highcharts-legend" transform="translate(202,38)"><rect fill="none" class="highcharts-legend-box" rx="0" ry="0" x="0" y="0" width="115" height="137" visibility="visible"></rect><g><g><g class="highcharts-legend-item highcharts-column-series highcharts-color-undefined highcharts-series-0" transform="translate(1,-4)"><text x="21" style="color:#333333;font-size:10px;font-weight:normal;cursor:pointer;fill:#333333;" text-anchor="start" y="13"><tspan>Übrige Länder</tspan></text><rect x="3" y="4" width="10" height="10" fill="#999999" class="highcharts-point"></rect></g><g class="highcharts-legend-item highcharts-column-series highcharts-color-undefined highcharts-series-1" transform="translate(1,10)"><text x="21" y="13" style="color:#333333;font-size:10px;font-weight:normal;cursor:pointer;fill:#333333;" text-anchor="start"><tspan>Afrikanische Länder</tspan></text><rect x="3" y="4" width="10" height="10" fill="#9f7c5a" class="highcharts-point"></rect></g><g class="highcharts-legend-item highcharts-column-series highcharts-color-undefined highcharts-series-2" transform="translate(1,24)"><text x="21" y="13" style="color:#333333;font-size:10px;font-weight:normal;cursor:pointer;fill:#333333;" text-anchor="start"><tspan>Arabische Länder</tspan></text><rect x="3" y="4" width="10" height="10" fill="#73ba7c" class="highcharts-point"></rect></g><g class="highcharts-legend-item highcharts-column-series highcharts-color-undefined highcharts-series-3" transform="translate(1,38)"><text x="21" y="13" style="color:#333333;font-size:10px;font-weight:normal;cursor:pointer;fill:#333333;" text-anchor="start"><tspan>Mittel- &amp; Südamerika</tspan></text><rect x="3" y="4" width="10" height="10" fill="#ff8028" class="highcharts-point"></rect></g><g class="highcharts-legend-item highcharts-column-series highcharts-color-undefined highcharts-series-4" transform="translate(1,52)"><text x="21" y="13" style="color:#333333;font-size:10px;font-weight:normal;cursor:pointer;fill:#333333;" text-anchor="start"><tspan>Balkan</tspan></text><rect x="3" y="4" width="10" height="10" fill="#b9cfd7" class="highcharts-point"></rect></g><g class="highcharts-legend-item highcharts-column-series highcharts-color-undefined highcharts-series-5" transform="translate(1,66)"><text x="21" y="13" style="color:#333333;font-size:10px;font-weight:normal;cursor:pointer;fill:#333333;" text-anchor="start"><tspan>EU-Ost</tspan></text><rect x="3" y="4" width="10" height="10" fill="#71a3b5" class="highcharts-point"></rect></g><g class="highcharts-legend-item highcharts-column-series highcharts-color-undefined highcharts-series-6" transform="translate(1,80)"><text x="21" y="13" style="color:#333333;font-size:10px;font-weight:normal;cursor:pointer;fill:#333333;" text-anchor="start"><tspan>EU-17 &amp; EFTA</tspan></text><rect x="3" y="4" width="10" height="10" fill="#b475ab" class="highcharts-point"></rect></g><g class="highcharts-legend-item highcharts-column-series highcharts-color-undefined highcharts-series-7" transform="translate(1,94)"><text x="21" y="13" style="color:#333333;font-size:10px;font-weight:normal;cursor:pointer;fill:#333333;" text-anchor="start"><tspan>Türkei</tspan></text><rect x="3" y="4" width="10" height="10" fill="#fabd24" class="highcharts-point"></rect></g><g class="highcharts-legend-item highcharts-column-series highcharts-color-undefined highcharts-series-8" transform="translate(1,108)"><text x="21" y="13" style="color:#333333;font-size:10px;font-weight:normal;cursor:pointer;fill:#333333;" text-anchor="start"><tspan>Italien</tspan></text><rect x="3" y="4" width="10" height="10" fill="#007a2f" class="highcharts-point"></rect></g><g class="highcharts-legend-item highcharts-column-series highcharts-color-undefined highcharts-series-9" transform="translate(1,122)"><text x="21" y="13" style="color:#333333;font-size:10px;font-weight:normal;cursor:pointer;fill:#333333;" text-anchor="start"><tspan>Deutschland</tspan></text><rect x="3" y="4" width="10" height="10" fill="#672773" class="highcharts-point"></rect></g></g></g></g><g class="highcharts-axis-labels highcharts-xaxis-labels "><text x="67.5" style="color:#000000;cursor:default;font-size:10;fill:#000000;" text-anchor="middle" transform="translate(0,0)" y="205" opacity="1">Männer</text><text x="116.5" style="color:#000000;cursor:default;font-size:10;fill:#000000;" text-anchor="middle" transform="translate(0,0)" y="205" opacity="1">Frauen</text><text x="165.5" style="color:#000000;cursor:default;font-size:10;fill:#000000;" text-anchor="middle" transform="translate(0,0)" y="205" opacity="1">Total</text></g><g class="highcharts-axis-labels highcharts-yaxis-labels "><text x="28" style="color:#000000;cursor:default;font-size:10;fill:#000000;" text-anchor="end" transform="translate(0,0)" y="188" opacity="1">0%</text><text x="28" style="color:#000000;cursor:default;font-size:10;fill:#000000;" text-anchor="end" transform="translate(0,0)" y="154" opacity="1">25%</text><text x="28" style="color:#000000;cursor:default;font-size:10;fill:#000000;" text-anchor="end" transform="translate(0,0)" y="120" opacity="1">50%</text><text x="28" style="color:#000000;cursor:default;font-size:10;fill:#000000;" text-anchor="end" transform="translate(0,0)" y="85" opacity="1">75%</text><text x="28" style="color:#000000;cursor:default;font-size:10;fill:#000000;" text-anchor="end" transform="translate(0,0)" y="51" opacity="1">100%</text></g><text x="10" class="highcharts-credits" text-anchor="start" style="cursor:default;color:#000000;font-size:10;fill:#000000;" y="193"><tspan>Quelle: Statistisches Amt Basel-Stadt, Bevölkerungsstatistik</tspan></text></svg>