<?xml version="1.0" standalone="no"?><!DOCTYPE svg PUBLIC "-//W3C//DTD SVG 1.1//EN" "http://www.w3.org/Graphics/SVG/1.1/DTD/svg11.dtd"><svg xmlns:xlink="http://www.w3.org/1999/xlink" version="1.1" class="highcharts-root" style="font-family:Arial;font-size:12px;" xmlns="http://www.w3.org/2000/svg" viewBox="0 0 485 415"><desc>Created with Highstock 6.1.1</desc><defs><clipPath id="highcharts-y6n8o08-6"><rect x="0" y="0" width="121" height="198" fill="none"></rect></clipPath><clipPath id="highcharts-y6n8o08-7"><rect x="0" y="0" width="121" height="198" fill="none"></rect></clipPath></defs><rect fill="#fbfbfb" class="highcharts-background" x="0" y="0" width="320" height="208" rx="0" ry="0"></rect><rect fill="none" class="highcharts-plot-background" x="120" y="66" width="198" height="121"></rect><g class="highcharts-pane-group" data-z-index="0"></g><g class="highcharts-grid highcharts-xaxis-grid " data-z-index="1"><path fill="none" data-z-index="1" class="highcharts-grid-line" d="M 120 77.5 L 318 77.5" opacity="1"></path><path fill="none" data-z-index="1" class="highcharts-grid-line" d="M 120 88.5 L 318 88.5" opacity="1"></path><path fill="none" data-z-index="1" class="highcharts-grid-line" d="M 120 99.5 L 318 99.5" opacity="1"></path><path fill="none" data-z-index="1" class="highcharts-grid-line" d="M 120 110.5 L 318 110.5" opacity="1"></path><path fill="none" data-z-index="1" class="highcharts-grid-line" d="M 120 121.5 L 318 121.5" opacity="1"></path><path fill="none" data-z-index="1" class="highcharts-grid-line" d="M 120 132.5 L 318 132.5" opacity="1"></path><path fill="none" data-z-index="1" class="highcharts-grid-line" d="M 120 143.5 L 318 143.5" opacity="1"></path><path fill="none" data-z-index="1" class="highcharts-grid-line" d="M 120 154.5 L 318 154.5" opacity="1"></path><path fill="none" data-z-index="1" class="highcharts-grid-line" d="M 120 165.5 L 318 165.5" opacity="1"></path><path fill="none" data-z-index="1" class="highcharts-grid-line" d="M 120 176.5 L 318 176.5" opacity="1"></path><path fill="none" data-z-index="1" class="highcharts-grid-line" d="M 120 187.5 L 318 187.5" opacity="1"></path><path fill="none" data-z-index="1" class="highcharts-grid-line" d="M 120 66.5 L 318 66.5" opacity="1"></path></g><g class="highcharts-grid highcharts-yaxis-grid " data-z-index="1"><path fill="none" stroke="#B9CFD7" stroke-width="0.5" data-z-index="1" class="highcharts-grid-line" d="M 119.75 66 L 119.75 187" opacity="1"></path><path fill="none" stroke="#B9CFD7" stroke-width="0.5" data-z-index="1" class="highcharts-grid-line" d="M 159.75 66 L 159.75 187" opacity="1"></path><path fill="none" stroke="#B9CFD7" stroke-width="0.5" data-z-index="1" class="highcharts-grid-line" d="M 198.75 66 L 198.75 187" opacity="1"></path><path fill="none" stroke="#B9CFD7" stroke-width="0.5" data-z-index="1" class="highcharts-grid-line" d="M 238.75 66 L 238.75 187" opacity="1"></path><path fill="none" stroke="#B9CFD7" stroke-width="0.5" data-z-index="1" class="highcharts-grid-line" d="M 277.75 66 L 277.75 187" opacity="1"></path><path fill="none" stroke="#B9CFD7" stroke-width="0.5" data-z-index="1" class="highcharts-grid-line" d="M 318.25 66 L 318.25 187" opacity="1"></path></g><rect fill="none" class="highcharts-plot-border" data-z-index="1" x="120" y="66" width="198" height="121"></rect><g class="highcharts-axis highcharts-xaxis " data-z-index="2"><path fill="none" class="highcharts-axis-line" stroke="#B9CFD7" stroke-width="0.5" data-z-index="7" d="M 119.75 66 L 119.75 187"></path></g><g class="highcharts-axis highcharts-yaxis " data-z-index="2"><path fill="none" class="highcharts-axis-line" data-z-index="7" d="M 120 187 L 318 187"></path></g><g class="highcharts-series-group" data-z-index="3"><g data-z-index="0.1" class="highcharts-series highcharts-series-0 highcharts-column-series " transform="translate(318,187) rotate(90) scale(-1,1) scale(1 1)" clip-path="url(#highcharts-y6n8o08-7)"><rect x="115" y="20" width="5" height="179" fill="#E6E600" class="highcharts-point"></rect><rect x="104" y="140" width="5" height="59" fill="#E6E600" class="highcharts-point"></rect><rect x="93" y="158" width="5" height="41" fill="#E6E600" class="highcharts-point"></rect><rect x="82" y="194" width="5" height="5" fill="#E6E600" class="highcharts-point"></rect><rect x="71" y="174" width="5" height="25" fill="#E6E600" class="highcharts-point"></rect><rect x="60" y="178" width="5" height="21" fill="#E6E600" class="highcharts-point"></rect><rect x="49" y="191" width="5" height="8" fill="#E6E600" class="highcharts-point"></rect><rect x="38" y="195" width="5" height="4" fill="#E6E600" class="highcharts-point"></rect><rect x="27" y="193" width="5" height="6" fill="#E6E600" class="highcharts-point"></rect><rect x="16" y="198" width="5" height="1" fill="#E6E600" class="highcharts-point"></rect><rect x="5" y="183" width="5" height="16" fill="#E6E600" class="highcharts-point"></rect></g><g data-z-index="0.1" class="highcharts-markers highcharts-series-0 highcharts-column-series " transform="translate(318,187) rotate(90) scale(-1,1) scale(1 1)" clip-path="none"></g><g data-z-index="0.1" class="highcharts-series highcharts-series-1 highcharts-column-series " transform="translate(318,187) rotate(90) scale(-1,1) scale(1 1)" clip-path="url(#highcharts-y6n8o08-7)"><rect x="111" y="19" width="5" height="180" fill="#68AB2B" class="highcharts-point"></rect><rect x="100" y="166" width="5" height="33" fill="#68AB2B" class="highcharts-point"></rect><rect x="89" y="70" width="5" height="129" fill="#68AB2B" class="highcharts-point"></rect><rect x="78" y="153" width="5" height="46" fill="#68AB2B" class="highcharts-point"></rect><rect x="67" y="165" width="5" height="34" fill="#68AB2B" class="highcharts-point"></rect><rect x="56" y="189" width="5" height="10" fill="#68AB2B" class="highcharts-point"></rect><rect x="45" y="153" width="5" height="46" fill="#68AB2B" class="highcharts-point"></rect><rect x="34" y="189" width="5" height="10" fill="#68AB2B" class="highcharts-point"></rect><rect x="23" y="188" width="5" height="11" fill="#68AB2B" class="highcharts-point"></rect><rect x="12" y="195" width="5" height="4" fill="#68AB2B" class="highcharts-point"></rect><rect x="1" y="186" width="5" height="13" fill="#68AB2B" class="highcharts-point"></rect></g><g data-z-index="0.1" class="highcharts-markers highcharts-series-1 highcharts-column-series " transform="translate(318,187) rotate(90) scale(-1,1) scale(1 1)" clip-path="none"></g></g><text x="2" text-anchor="start" class="highcharts-title" data-z-index="4" style="color:#000000;font-size:10px;font-weight:bold;fill:#000000;" y="9"><tspan>Altersquotient nach Staatsangehörigkeit</tspan></text><text x="2" text-anchor="start" class="highcharts-subtitle" data-z-index="4" style="color:#000000;font-size:10px;font-weight:normal;font-family:Arial;fill:#000000;" y="27"><tspan>Basel-Stadt</tspan></text><g class="highcharts-legend" data-z-index="7" transform="translate(116,43)"><rect fill="none" class="highcharts-legend-box" rx="0" ry="0" x="0" y="0" width="108" height="11" visibility="visible"></rect><g data-z-index="1"><g><g class="highcharts-legend-item highcharts-column-series highcharts-color-undefined highcharts-series-0" data-z-index="1" transform="translate(1,-4)"><text x="21" style="color:#333333;font-size:10px;font-weight:normal;cursor:pointer;fill:#333333;" text-anchor="start" data-z-index="2" y="13"><tspan>1998</tspan></text><rect x="3" y="4" width="10" height="10" fill="#E6E600" class="highcharts-point" data-z-index="3"></rect></g><g class="highcharts-legend-item highcharts-column-series highcharts-color-undefined highcharts-series-1" data-z-index="1" transform="translate(64.1875,-4)"><text x="21" y="13" style="color:#333333;font-size:10px;font-weight:normal;cursor:pointer;fill:#333333;" text-anchor="start" data-z-index="2"><tspan>2017</tspan></text><rect x="3" y="4" width="10" height="10" fill="#68AB2B" class="highcharts-point" data-z-index="3"></rect></g></g></g></g><g class="highcharts-axis-labels highcharts-xaxis-labels " data-z-index="7"><text x="105" style="color:#000000;cursor:default;font-size:10;fill:#000000;" text-anchor="end" transform="translate(0,0)" y="75" opacity="1">Schweiz</text><text x="105" style="color:#000000;cursor:default;font-size:10;fill:#000000;" text-anchor="end" transform="translate(0,0)" y="86" opacity="1">Deutschland</text><text x="105" style="color:#000000;cursor:default;font-size:10;fill:#000000;" text-anchor="end" transform="translate(0,0)" y="97" opacity="1">Italien</text><text x="105" style="color:#000000;cursor:default;font-size:10;fill:#000000;" text-anchor="end" transform="translate(0,0)" y="108" opacity="1">Türkei</text><text x="105" style="color:#000000;cursor:default;font-size:10;fill:#000000;" text-anchor="end" transform="translate(0,0)" y="119" opacity="1"><tspan>EU-17 + EFTA</tspan></text><text x="105" style="color:#000000;cursor:default;font-size:10;fill:#000000;" text-anchor="end" transform="translate(0,0)" y="130" opacity="1">EU-Ost</text><text x="105" style="color:#000000;cursor:default;font-size:10;fill:#000000;" text-anchor="end" transform="translate(0,0)" y="141" opacity="1">Balkan</text><text x="105" style="color:#000000;cursor:default;font-size:10;fill:#000000;" text-anchor="end" transform="translate(0,0)" y="152" opacity="1"><tspan>Mittel- u. Südamerika</tspan></text><text x="105" style="color:#000000;cursor:default;font-size:10;fill:#000000;" text-anchor="end" transform="translate(0,0)" y="163" opacity="1"><tspan>Arabische Länder</tspan></text><text x="105" style="color:#000000;cursor:default;font-size:10;fill:#000000;" text-anchor="end" transform="translate(0,0)" y="174" opacity="1"><tspan>Afrikanische Länder</tspan></text><text x="105" style="color:#000000;cursor:default;font-size:10;fill:#000000;" text-anchor="end" transform="translate(0,0)" y="185" opacity="1"><tspan>Übrige Länder</tspan></text></g><g class="highcharts-axis-labels highcharts-yaxis-labels " data-z-index="7"><text x="120" style="color:#000000;cursor:default;font-size:10;fill:#000000;" text-anchor="middle" transform="translate(0,0)" y="205" opacity="1">0</text><text x="159.6" style="color:#000000;cursor:default;font-size:10;fill:#000000;" text-anchor="middle" transform="translate(0,0)" y="205" opacity="1">10</text><text x="199.2" style="color:#000000;cursor:default;font-size:10;fill:#000000;" text-anchor="middle" transform="translate(0,0)" y="205" opacity="1">20</text><text x="238.8" style="color:#000000;cursor:default;font-size:10;fill:#000000;" text-anchor="middle" transform="translate(0,0)" y="205" opacity="1">30</text><text x="278.4" style="color:#000000;cursor:default;font-size:10;fill:#000000;" text-anchor="middle" transform="translate(0,0)" y="205" opacity="1">40</text><text x="312.453125" style="color:#000000;cursor:default;font-size:10;fill:#000000;" text-anchor="middle" transform="translate(0,0)" y="205" opacity="1">50</text></g><text x="10" class="highcharts-credits" text-anchor="start" data-z-index="8" style="cursor:default;color:#000000;font-size:10;fill:#000000;" y="193"><tspan>Quelle: Statistisches Amt Basel-Stadt, Bevölkerungsstatistik.</tspan></text></svg>