<?xml version="1.0" standalone="no"?><!DOCTYPE svg PUBLIC "-//W3C//DTD SVG 1.1//EN" "http://www.w3.org/Graphics/SVG/1.1/DTD/svg11.dtd"><svg xmlns:xlink="http://www.w3.org/1999/xlink" version="1.1" class="highcharts-root" style="font-family:Arial;font-size:12px;" xmlns="http://www.w3.org/2000/svg" viewBox="0 0 485 415"><desc>Created with Highstock 6.1.1</desc><defs><clipPath id="highcharts-mrkpto1-6"><rect x="0" y="0" width="281" height="41" fill="none"></rect></clipPath><clipPath id="highcharts-mrkpto1-7"><rect x="0" y="0" width="281" height="41" fill="none"></rect></clipPath></defs><rect fill="#fbfbfb" class="highcharts-background" x="0" y="0" width="320" height="208" rx="0" ry="0"></rect><rect fill="none" class="highcharts-plot-background" x="37" y="134" width="281" height="41"></rect><g class="highcharts-pane-group" data-z-index="0"></g><g class="highcharts-grid highcharts-xaxis-grid " data-z-index="1"><path fill="none" data-z-index="1" class="highcharts-grid-line" d="M 39.5 134 L 39.5 175" opacity="1"></path><path fill="none" data-z-index="1" class="highcharts-grid-line" d="M 85.5 134 L 85.5 175" opacity="1"></path><path fill="none" data-z-index="1" class="highcharts-grid-line" d="M 131.5 134 L 131.5 175" opacity="1"></path><path fill="none" data-z-index="1" class="highcharts-grid-line" d="M 177.5 134 L 177.5 175" opacity="1"></path><path fill="none" data-z-index="1" class="highcharts-grid-line" d="M 222.5 134 L 222.5 175" opacity="1"></path><path fill="none" data-z-index="1" class="highcharts-grid-line" d="M 268.5 134 L 268.5 175" opacity="1"></path><path fill="none" data-z-index="1" class="highcharts-grid-line" d="M 314.5 134 L 314.5 175" opacity="1"></path></g><g class="highcharts-grid highcharts-yaxis-grid " data-z-index="1"><path fill="none" stroke="#B9CFD7" stroke-width="0.5" data-z-index="1" class="highcharts-grid-line" d="M 37 175.25 L 318 175.25" opacity="1"></path><path fill="none" stroke="#B9CFD7" stroke-width="0.5" data-z-index="1" class="highcharts-grid-line" d="M 37 161.25 L 318 161.25" opacity="1"></path><path fill="none" stroke="#B9CFD7" stroke-width="0.5" data-z-index="1" class="highcharts-grid-line" d="M 37 148.25 L 318 148.25" opacity="1"></path><path fill="none" stroke="#B9CFD7" stroke-width="0.5" data-z-index="1" class="highcharts-grid-line" d="M 37 133.75 L 318 133.75" opacity="1"></path></g><rect fill="none" class="highcharts-plot-border" data-z-index="1" x="37" y="134" width="281" height="41"></rect><g class="highcharts-axis highcharts-xaxis " data-z-index="2"><path fill="none" class="highcharts-axis-line" stroke="#B9CFD7" stroke-width="0.5" data-z-index="7" d="M 37 175.25 L 318 175.25"></path></g><g class="highcharts-axis highcharts-yaxis " data-z-index="2"><path fill="none" class="highcharts-axis-line" data-z-index="7" d="M 37 134 L 37 175"></path></g><g class="highcharts-series-group" data-z-index="3"><g data-z-index="0.1" class="highcharts-series highcharts-series-0 highcharts-line-series " transform="translate(37,134) scale(1 1)" clip-path="url(#highcharts-mrkpto1-7)"><path fill="none" d="M 2.7549019607819 25.009999999999998 L 48.669934640521 24.87333333333333 L 94.584967320261 24.121666666666666 L 140.5 24.326666666666668 L 186.41503267974 22.208333333333332 L 232.33006535948 21.593333333333334 L 278.24509803922 21.866666666666667" class="highcharts-graph" data-z-index="1" stroke="#b00000" stroke-width="2" stroke-linejoin="round" stroke-linecap="round"></path></g><g data-z-index="0.1" class="highcharts-markers highcharts-series-0 highcharts-line-series " transform="translate(37,134) scale(1 1)" clip-path="none"></g><g data-z-index="0.1" class="highcharts-series highcharts-series-1 highcharts-line-series " transform="translate(37,134) scale(1 1)" clip-path="url(#highcharts-mrkpto1-7)"><path fill="none" d="M 2.7549019607819 32.8 L 48.669934640521 31.22833333333333 L 94.584967320261 30.34 L 140.5 31.775 L 186.41503267974 28.494999999999997 L 232.33006535948 28.905 L 278.24509803922 28.973333333333333" class="highcharts-graph" data-z-index="1" stroke="#672773" stroke-width="2" stroke-linejoin="round" stroke-linecap="round"></path></g><g data-z-index="0.1" class="highcharts-markers highcharts-series-1 highcharts-line-series " transform="translate(37,134) scale(1 1)" clip-path="none"></g><g data-z-index="0.1" class="highcharts-series highcharts-series-2 highcharts-line-series " transform="translate(37,134) scale(1 1)" clip-path="url(#highcharts-mrkpto1-7)"><path fill="none" d="M 2.7549019607819 19.611666666666665 L 48.669934640521 19.953333333333333 L 94.584967320261 19.68 L 140.5 21.115 L 186.41503267974 17.63 L 232.33006535948 16.673333333333332 L 278.24509803922 17.766666666666666" class="highcharts-graph" data-z-index="1" stroke="#007a2f" stroke-width="2" stroke-linejoin="round" stroke-linecap="round"></path></g><g data-z-index="0.1" class="highcharts-markers highcharts-series-2 highcharts-line-series " transform="translate(37,134) scale(1 1)" clip-path="none"></g><g data-z-index="0.1" class="highcharts-series highcharts-series-3 highcharts-line-series " transform="translate(37,134) scale(1 1)" clip-path="url(#highcharts-mrkpto1-7)"><path fill="none" d="M 2.7549019607819 27.743333333333332 L 48.669934640521 26.376666666666665 L 94.584967320261 25.488333333333333 L 140.5 22.139999999999997 L 186.41503267974 13.803333333333335 L 232.33006535948 15.23833333333333 L 278.24509803922 14.076666666666668" class="highcharts-graph" data-z-index="1" stroke="#fabd24" stroke-width="2" stroke-linejoin="round" stroke-linecap="round"></path></g><g data-z-index="0.1" class="highcharts-markers highcharts-series-3 highcharts-line-series " transform="translate(37,134) scale(1 1)" clip-path="none"></g><g data-z-index="0.1" class="highcharts-series highcharts-series-4 highcharts-line-series " transform="translate(37,134) scale(1 1)" clip-path="url(#highcharts-mrkpto1-7)"><path fill="none" d="M 2.7549019607819 29.656666666666666 L 48.669934640521 30.134999999999998 L 94.584967320261 28.973333333333333 L 140.5 26.923333333333332 L 186.41503267974 25.83 L 232.33006535948 24.736666666666665 L 278.24509803922 23.575" class="highcharts-graph" data-z-index="1" stroke="#b475ab" stroke-width="2" stroke-linejoin="round" stroke-linecap="round"></path></g><g data-z-index="0.1" class="highcharts-markers highcharts-series-4 highcharts-line-series " transform="translate(37,134) scale(1 1)" clip-path="none"></g><g data-z-index="0.1" class="highcharts-series highcharts-series-5 highcharts-line-series " transform="translate(37,134) scale(1 1)" clip-path="url(#highcharts-mrkpto1-7)"><path fill="none" d="M 2.7549019607819 29.793333333333337 L 48.669934640521 36.08 L 94.584967320261 35.123333333333335 L 140.5 32.93666666666667 L 186.41503267974 30.27166666666667 L 232.33006535948 29.58833333333333 L 278.24509803922 27.743333333333332" class="highcharts-graph" data-z-index="1" stroke="#71a3b5" stroke-width="2" stroke-linejoin="round" stroke-linecap="round"></path></g><g data-z-index="0.1" class="highcharts-markers highcharts-series-5 highcharts-line-series " transform="translate(37,134) scale(1 1)" clip-path="none"></g><g data-z-index="0.1" class="highcharts-series highcharts-series-6 highcharts-line-series " transform="translate(37,134) scale(1 1)" clip-path="url(#highcharts-mrkpto1-7)"><path fill="none" d="M 2.7549019607819 24.87333333333333 L 48.669934640521 20.91 L 94.584967320261 19.27 L 140.5 15.511666666666667 L 186.41503267974 10.933333333333334 L 232.33006535948 8.61 L 278.24509803922 9.02" class="highcharts-graph" data-z-index="1" stroke="#b9cfd7" stroke-width="2" stroke-linejoin="round" stroke-linecap="round"></path></g><g data-z-index="0.1" class="highcharts-markers highcharts-series-6 highcharts-line-series " transform="translate(37,134) scale(1 1)" clip-path="none"></g><g data-z-index="0.1" class="highcharts-series highcharts-series-7 highcharts-line-series " transform="translate(37,134) scale(1 1)" clip-path="url(#highcharts-mrkpto1-7)"><path fill="none" d="M 2.7549019607819 29.383333333333333 L 48.669934640521 25.351666666666667 L 94.584967320261 24.121666666666666 L 140.5 24.6 L 186.41503267974 16.468333333333334 L 232.33006535948 11.821666666666665 L 278.24509803922 10.796666666666663" class="highcharts-graph" data-z-index="1" stroke="#ff8028" stroke-width="2" stroke-linejoin="round" stroke-linecap="round"></path></g><g data-z-index="0.1" class="highcharts-markers highcharts-series-7 highcharts-line-series " transform="translate(37,134) scale(1 1)" clip-path="none"></g><g data-z-index="0.1" class="highcharts-series highcharts-series-8 highcharts-line-series " transform="translate(37,134) scale(1 1)" clip-path="url(#highcharts-mrkpto1-7)"><path fill="none" d="M 2.7549019607819 32.73166666666667 L 48.669934640521 28.42666666666667 L 94.584967320261 27.743333333333332 L 140.5 31.023333333333333 L 186.41503267974 33.62 L 232.33006535948 32.86833333333333 L 278.24509803922 26.171666666666667" class="highcharts-graph" data-z-index="1" stroke="#73ba7c" stroke-width="2" stroke-linejoin="round" stroke-linecap="round"></path></g><g data-z-index="0.1" class="highcharts-markers highcharts-series-8 highcharts-line-series " transform="translate(37,134) scale(1 1)" clip-path="none"></g><g data-z-index="0.1" class="highcharts-series highcharts-series-9 highcharts-line-series " transform="translate(37,134) scale(1 1)" clip-path="url(#highcharts-mrkpto1-7)"><path fill="none" d="M 2.7549019607819 31.09166666666667 L 48.669934640521 30.681666666666665 L 94.584967320261 29.58833333333333 L 140.5 23.438333333333333 L 186.41503267974 17.835 L 232.33006535948 17.63 L 278.24509803922 12.778333333333336" class="highcharts-graph" data-z-index="1" stroke="#9f7c5a" stroke-width="2" stroke-linejoin="round" stroke-linecap="round"></path></g><g data-z-index="0.1" class="highcharts-markers highcharts-series-9 highcharts-line-series " transform="translate(37,134) scale(1 1)" clip-path="none"></g><g data-z-index="0.1" class="highcharts-series highcharts-series-10 highcharts-line-series " transform="translate(37,134) scale(1 1)" clip-path="url(#highcharts-mrkpto1-7)"><path fill="none" d="M 2.7549019607819 33.005 L 48.669934640521 32.93666666666667 L 94.584967320261 28.494999999999997 L 140.5 25.42 L 186.41503267974 24.326666666666668 L 232.33006535948 20.636666666666667 L 278.24509803922 20.773333333333333" class="highcharts-graph" data-z-index="1" stroke="#999999" stroke-width="2" stroke-linejoin="round" stroke-linecap="round"></path></g><g data-z-index="0.1" class="highcharts-markers highcharts-series-10 highcharts-line-series " transform="translate(37,134) scale(1 1)" clip-path="none"></g></g><text x="2" text-anchor="start" class="highcharts-title" data-z-index="4" style="color:#000000;font-size:10px;font-weight:bold;fill:#000000;" y="9"><tspan>Lernendenquote nach Staatsangehörigkeit</tspan></text><text x="2" text-anchor="start" class="highcharts-subtitle" data-z-index="4" style="color:#000000;font-size:10px;font-weight:normal;font-family:Arial;fill:#000000;" y="27"><tspan>Basel-Stadt</tspan></text><g class="highcharts-legend" data-z-index="7" transform="translate(37,43)"><rect fill="none" class="highcharts-legend-box" rx="0" ry="0" x="0" y="0" width="250" height="79" visibility="visible"></rect><g data-z-index="1"><g><g class="highcharts-legend-item highcharts-line-series highcharts-color-undefined highcharts-series-0" data-z-index="1" transform="translate(0,-5)"><path fill="none" d="M 0 10 L 16 10" class="highcharts-graph" stroke="#b00000" stroke-width="2"></path><text x="21" style="color:#333333;font-size:10px;font-weight:normal;cursor:pointer;fill:#333333;" text-anchor="start" data-z-index="2" y="13"><tspan>Schweiz</tspan></text></g><g class="highcharts-legend-item highcharts-line-series highcharts-color-undefined highcharts-series-1" data-z-index="1" transform="translate(135.28125,-5)"><path fill="none" d="M 0 10 L 16 10" class="highcharts-graph" stroke="#672773" stroke-width="2"></path><text x="21" y="13" style="color:#333333;font-size:10px;font-weight:normal;cursor:pointer;fill:#333333;" text-anchor="start" data-z-index="2"><tspan>Deutschland</tspan></text></g><g class="highcharts-legend-item highcharts-line-series highcharts-color-undefined highcharts-series-2" data-z-index="1" transform="translate(0,9)"><path fill="none" d="M 0 10 L 16 10" class="highcharts-graph" stroke="#007a2f" stroke-width="2"></path><text x="21" y="13" style="color:#333333;font-size:10px;font-weight:normal;cursor:pointer;fill:#333333;" text-anchor="start" data-z-index="2"><tspan>Italien</tspan></text></g><g class="highcharts-legend-item highcharts-line-series highcharts-color-undefined highcharts-series-3" data-z-index="1" transform="translate(135.28125,9)"><path fill="none" d="M 0 10 L 16 10" class="highcharts-graph" stroke="#fabd24" stroke-width="2"></path><text x="21" y="13" style="color:#333333;font-size:10px;font-weight:normal;cursor:pointer;fill:#333333;" text-anchor="start" data-z-index="2"><tspan>Türkei</tspan></text></g><g class="highcharts-legend-item highcharts-line-series highcharts-color-undefined highcharts-series-4" data-z-index="1" transform="translate(0,23)"><path fill="none" d="M 0 10 L 16 10" class="highcharts-graph" stroke="#b475ab" stroke-width="2"></path><text x="21" y="13" style="color:#333333;font-size:10px;font-weight:normal;cursor:pointer;fill:#333333;" text-anchor="start" data-z-index="2"><tspan>EU-17 u. EFTA</tspan></text></g><g class="highcharts-legend-item highcharts-line-series highcharts-color-undefined highcharts-series-5" data-z-index="1" transform="translate(135.28125,23)"><path fill="none" d="M 0 10 L 16 10" class="highcharts-graph" stroke="#71a3b5" stroke-width="2"></path><text x="21" y="13" style="color:#333333;font-size:10px;font-weight:normal;cursor:pointer;fill:#333333;" text-anchor="start" data-z-index="2"><tspan>EU-Ost</tspan></text></g><g class="highcharts-legend-item highcharts-line-series highcharts-color-undefined highcharts-series-6" data-z-index="1" transform="translate(0,37)"><path fill="none" d="M 0 10 L 16 10" class="highcharts-graph" stroke="#b9cfd7" stroke-width="2"></path><text x="21" y="13" style="color:#333333;font-size:10px;font-weight:normal;cursor:pointer;fill:#333333;" text-anchor="start" data-z-index="2"><tspan>Balkan</tspan></text></g><g class="highcharts-legend-item highcharts-line-series highcharts-color-undefined highcharts-series-7" data-z-index="1" transform="translate(135.28125,37)"><path fill="none" d="M 0 10 L 16 10" class="highcharts-graph" stroke="#ff8028" stroke-width="2"></path><text x="21" y="13" style="color:#333333;font-size:10px;font-weight:normal;cursor:pointer;fill:#333333;" text-anchor="start" data-z-index="2"><tspan>Mittel- u. Südamerika</tspan></text></g><g class="highcharts-legend-item highcharts-line-series highcharts-color-undefined highcharts-series-8" data-z-index="1" transform="translate(0,51)"><path fill="none" d="M 0 10 L 16 10" class="highcharts-graph" stroke="#73ba7c" stroke-width="2"></path><text x="21" y="13" style="color:#333333;font-size:10px;font-weight:normal;cursor:pointer;fill:#333333;" text-anchor="start" data-z-index="2"><tspan>Arab. Länder</tspan></text></g><g class="highcharts-legend-item highcharts-line-series highcharts-color-undefined highcharts-series-9" data-z-index="1" transform="translate(135.28125,51)"><path fill="none" d="M 0 10 L 16 10" class="highcharts-graph" stroke="#9f7c5a" stroke-width="2"></path><text x="21" y="13" style="color:#333333;font-size:10px;font-weight:normal;cursor:pointer;fill:#333333;" text-anchor="start" data-z-index="2"><tspan>Afrikan. Länder</tspan></text></g><g class="highcharts-legend-item highcharts-line-series highcharts-color-undefined highcharts-series-10" data-z-index="1" transform="translate(0,65)"><path fill="none" d="M 0 10 L 16 10" class="highcharts-graph" stroke="#999999" stroke-width="2"></path><text x="21" y="13" style="color:#333333;font-size:10px;font-weight:normal;cursor:pointer;fill:#333333;" text-anchor="start" data-z-index="2"><tspan>Übrige Länder</tspan></text></g></g></g></g><g class="highcharts-axis-labels highcharts-xaxis-labels " data-z-index="7"><text x="39.754901960782" style="color:#000000;cursor:default;font-size:10;fill:#000000;" text-anchor="middle" transform="translate(0,0)" y="195" opacity="1">2011</text><text x="85.669934640521" style="color:#000000;cursor:default;font-size:10;fill:#000000;" text-anchor="middle" transform="translate(0,0)" y="195" opacity="1">2012</text><text x="131.58496732026" style="color:#000000;cursor:default;font-size:10;fill:#000000;" text-anchor="middle" transform="translate(0,0)" y="195" opacity="1">2013</text><text x="177.5" style="color:#000000;cursor:default;font-size:10;fill:#000000;" text-anchor="middle" transform="translate(0,0)" y="195" opacity="1">2014</text><text x="223.41503267974" style="color:#000000;cursor:default;font-size:10;fill:#000000;" text-anchor="middle" transform="translate(0,0)" y="195" opacity="1">2015</text><text x="269.33006535948" style="color:#000000;cursor:default;font-size:10;fill:#000000;" text-anchor="middle" transform="translate(0,0)" y="195" opacity="1">2016</text><text x="306.90625" style="color:#000000;cursor:default;font-size:10;fill:#000000;" text-anchor="middle" transform="translate(0,0)" y="195" opacity="1">2017</text></g><g class="highcharts-axis-labels highcharts-yaxis-labels " data-z-index="7"><text x="22" style="color:#000000;cursor:default;font-size:10;fill:#000000;" text-anchor="end" transform="translate(0,0)" y="178" opacity="1">0%</text><text x="22" style="color:#000000;cursor:default;font-size:10;fill:#000000;" text-anchor="end" transform="translate(0,0)" y="164" opacity="1">20%</text><text x="22" style="color:#000000;cursor:default;font-size:10;fill:#000000;" text-anchor="end" transform="translate(0,0)" y="151" opacity="1">40%</text><text x="22" style="color:#000000;cursor:default;font-size:10;fill:#000000;" text-anchor="end" transform="translate(0,0)" y="137" opacity="1">60%</text></g><text x="10" class="highcharts-credits" text-anchor="start" data-z-index="8" style="cursor:default;color:#000000;font-size:10px;fill:#000000;" y="183"><tspan>Quelle: Statistisches Amt Basel-Stadt, Bevölkerungsstatistik;</tspan><tspan x="10" dy="13">Erziehungsdepartement Basel-Stadt, Fachstelle Lehraufsicht.</tspan></text></svg>