<?xml version="1.0" standalone="no"?><!DOCTYPE svg PUBLIC "-//W3C//DTD SVG 1.1//EN" "http://www.w3.org/Graphics/SVG/1.1/DTD/svg11.dtd"><svg xmlns:xlink="http://www.w3.org/1999/xlink" version="1.1" class="highcharts-root" style="font-family:Arial;font-size:12px;" xmlns="http://www.w3.org/2000/svg" viewBox="0 0 485 415"><desc>Created with Highstock 6.1.0</desc><defs><clipPath id="highcharts-trffd2s-6"><rect x="0" y="0" width="76" height="238" fill="none"></rect></clipPath><clipPath id="highcharts-trffd2s-7"><rect x="0" y="0" width="76" height="238" fill="none"></rect></clipPath></defs><rect fill="#fbfbfb" class="highcharts-background" x="0" y="0" width="320" height="208" rx="0" ry="0"></rect><rect fill="none" class="highcharts-plot-background" x="79" y="99" width="238" height="76"></rect><g class="highcharts-pane-group"></g><g class="highcharts-grid highcharts-xaxis-grid "><path fill="none" class="highcharts-grid-line" d="M 79 118.5 L 317 118.5" opacity="1"></path><path fill="none" class="highcharts-grid-line" d="M 79 137.5 L 317 137.5" opacity="1"></path><path fill="none" class="highcharts-grid-line" d="M 79 156.5 L 317 156.5" opacity="1"></path><path fill="none" class="highcharts-grid-line" d="M 79 175.5 L 317 175.5" opacity="1"></path><path fill="none" class="highcharts-grid-line" d="M 79 99.5 L 317 99.5" opacity="1"></path></g><g class="highcharts-grid highcharts-yaxis-grid "><path fill="none" stroke="#B9CFD7" stroke-width="0.5" class="highcharts-grid-line" d="M 78.75 99 L 78.75 175" opacity="1"></path><path fill="none" stroke="#B9CFD7" stroke-width="0.5" class="highcharts-grid-line" d="M 98.75 99 L 98.75 175" opacity="1"></path><path fill="none" stroke="#B9CFD7" stroke-width="0.5" class="highcharts-grid-line" d="M 118.75 99 L 118.75 175" opacity="1"></path><path fill="none" stroke="#B9CFD7" stroke-width="0.5" class="highcharts-grid-line" d="M 138.75 99 L 138.75 175" opacity="1"></path><path fill="none" stroke="#B9CFD7" stroke-width="0.5" class="highcharts-grid-line" d="M 157.75 99 L 157.75 175" opacity="1"></path><path fill="none" stroke="#B9CFD7" stroke-width="0.5" class="highcharts-grid-line" d="M 177.75 99 L 177.75 175" opacity="1"></path><path fill="none" stroke="#B9CFD7" stroke-width="0.5" class="highcharts-grid-line" d="M 197.75 99 L 197.75 175" opacity="1"></path><path fill="none" stroke="#B9CFD7" stroke-width="0.5" class="highcharts-grid-line" d="M 217.75 99 L 217.75 175" opacity="1"></path><path fill="none" stroke="#B9CFD7" stroke-width="0.5" class="highcharts-grid-line" d="M 237.75 99 L 237.75 175" opacity="1"></path><path fill="none" stroke="#B9CFD7" stroke-width="0.5" class="highcharts-grid-line" d="M 257.75 99 L 257.75 175" opacity="1"></path><path fill="none" stroke="#B9CFD7" stroke-width="0.5" class="highcharts-grid-line" d="M 276.75 99 L 276.75 175" opacity="1"></path><path fill="none" stroke="#B9CFD7" stroke-width="0.5" class="highcharts-grid-line" d="M 296.75 99 L 296.75 175" opacity="1"></path><path fill="none" stroke="#B9CFD7" stroke-width="0.5" class="highcharts-grid-line" d="M 317.25 99 L 317.25 175" opacity="1"></path></g><rect fill="none" class="highcharts-plot-border" x="79" y="99" width="238" height="76"></rect><g class="highcharts-axis highcharts-xaxis "><path fill="none" class="highcharts-axis-line" stroke="#B9CFD7" stroke-width="0.5" d="M 78.75 99 L 78.75 175"></path></g><g class="highcharts-axis highcharts-yaxis "><path fill="none" class="highcharts-axis-line" d="M 79 175 L 317 175"></path></g><g class="highcharts-series-group"><g class="highcharts-series highcharts-series-0 highcharts-line-series " transform="translate(317,175) rotate(90) scale(-1,1) scale(1 1)" clip-path="url(#highcharts-trffd2s-7)"><path fill="none" d="M 66.5 185.93036450064102 L 47.5 14.468401219551282 L 28.5 42.557082515544835 L 9.5 210.54637383701925" class="highcharts-graph" stroke="#E7CEE2" stroke-width="2" stroke-linejoin="round" stroke-linecap="round"></path></g><g class="highcharts-markers highcharts-series-0 highcharts-line-series " transform="translate(317,175) rotate(90) scale(-1,1) scale(1 1)" clip-path="none"><path fill="#E7CEE2" d="M 66 182 L 70 186 66 190 62 186 Z" class="highcharts-point"></path><path fill="#E7CEE2" d="M 47 10 L 51 14 47 18 43 14 Z" class="highcharts-point"></path><path fill="#E7CEE2" d="M 28 39 L 32 43 28 47 24 43 Z" class="highcharts-point"></path><path fill="#E7CEE2" d="M 9 207 L 13 211 9 215 5 211 Z" class="highcharts-point"></path></g><g class="highcharts-series highcharts-series-1 highcharts-line-series " transform="translate(317,175) rotate(90) scale(-1,1) scale(1 1)" clip-path="url(#highcharts-trffd2s-7)"><path fill="none" d="M 66.5 199.38934703782053 L 47.5 48.65811716298077 L 28.5 11.554283736378181 L 9.5 165.92843385528846" class="highcharts-graph" stroke="#923F8D" stroke-width="2" stroke-linejoin="round" stroke-linecap="round"></path></g><g class="highcharts-markers highcharts-series-1 highcharts-line-series " transform="translate(317,175) rotate(90) scale(-1,1) scale(1 1)" clip-path="none"><path fill="#923F8D" d="M 70 199 A 4 4 0 1 1 69.99999800000016 198.99600000066667 Z" class="highcharts-point"></path><path fill="#923F8D" d="M 51 49 A 4 4 0 1 1 50.99999800000017 48.99600000066666 Z" class="highcharts-point"></path><path fill="#923F8D" d="M 32 12 A 4 4 0 1 1 31.99999800000017 11.996000000666664 Z" class="highcharts-point"></path><path fill="#923F8D" d="M 13 166 A 4 4 0 1 1 12.999998000000167 165.99600000066667 Z" class="highcharts-point"></path></g></g><text x="3" text-anchor="start" class="highcharts-title" style="color:#000000;font-size:10px;font-weight:bold;fill:#000000;" y="14"><tspan>Anteil Ausländer mit Hauptsprache Deutsch nach Alter</tspan></text><text x="3" text-anchor="start" class="highcharts-subtitle" style="color:#000000;font-size:10px;font-weight:normal;font-family:Arial;fill:#000000;" y="32"><tspan>Gepoolte Daten 2012 bis 2016</tspan></text><g class="highcharts-legend" transform="translate(71,48)"><rect fill="none" class="highcharts-legend-box" rx="0" ry="0" x="0" y="0" width="180" height="39" visibility="visible"></rect><g><g><g class="highcharts-legend-item highcharts-line-series highcharts-color-undefined highcharts-series-1" transform="translate(8,3)"><path fill="none" d="M 0 10 L 16 10" class="highcharts-graph" stroke="#923F8D" stroke-width="2"></path><path fill="#923F8D" d="M 12 10 A 4 4 0 1 1 11.999998000000167 9.996000000666664 Z" class="highcharts-point"></path><text x="21" style="color:#333333;font-size:10px;font-weight:normal;cursor:pointer;fill:#333333;" text-anchor="start" y="13"><tspan>Deutsch oder Schweizerdeutsch</tspan></text></g><g class="highcharts-legend-item highcharts-line-series highcharts-color-undefined highcharts-series-0" transform="translate(8,17)"><path fill="none" d="M 0 10 L 16 10" class="highcharts-graph" stroke="#E7CEE2" stroke-width="2"></path><path fill="#E7CEE2" d="M 8 6 L 12 10 8 14 4 10 Z" class="highcharts-point"></path><text x="21" y="13" style="color:#333333;font-size:10px;font-weight:normal;cursor:pointer;fill:#333333;" text-anchor="start"><tspan>Kein Deutsch</tspan></text></g></g></g></g><g class="highcharts-axis-labels highcharts-xaxis-labels "><text x="64" style="color:#000000;cursor:default;font-size:10;fill:#000000;" text-anchor="end" transform="translate(0,0)" y="114" opacity="1"><tspan>65 u.m. Jahre</tspan></text><text x="64" style="color:#000000;cursor:default;font-size:10;fill:#000000;" text-anchor="end" transform="translate(0,0)" y="133" opacity="1"><tspan>40-64 Jahre</tspan></text><text x="64" style="color:#000000;cursor:default;font-size:10;fill:#000000;" text-anchor="end" transform="translate(0,0)" y="152" opacity="1"><tspan>25-39 Jahre</tspan></text><text x="64" style="color:#000000;cursor:default;font-size:10;fill:#000000;" text-anchor="end" transform="translate(0,0)" y="171" opacity="1"><tspan>15-24 Jahre</tspan></text></g><g class="highcharts-axis-labels highcharts-yaxis-labels "><text x="141.32842712474618" style="color:#000000;cursor:default;font-size:10;fill:#000000;" text-anchor="end" transform="translate(0,0) rotate(-45 141.32842712474618 178)" y="178" opacity="1">3120</text><text x="200.82842712474618" style="color:#000000;cursor:default;font-size:10;fill:#000000;" text-anchor="end" transform="translate(0,0) rotate(-45 200.82842712474618 178)" y="178" opacity="1">6240</text><text x="260.3284271247462" style="color:#000000;cursor:default;font-size:10;fill:#000000;" text-anchor="end" transform="translate(0,0) rotate(-45 260.3284271247462 178)" y="178" opacity="1">9360</text><text x="319.8284271247462" style="color:#000000;cursor:default;font-size:10;fill:#000000;" text-anchor="end" transform="translate(0,0) rotate(-45 319.8284271247462 178)" y="178" opacity="1"><tspan>12 480</tspan></text><text x="81.82842712474618" style="color:#000000;cursor:default;font-size:10;fill:#000000;" text-anchor="end" transform="translate(0,0) rotate(-45 81.82842712474618 178)" y="178" opacity="1">0</text><text x="101.66176045807919" style="color:#000000;cursor:default;font-size:10;fill:#000000;" text-anchor="end" transform="translate(0,0) rotate(-45 101.66176045807919 178)" y="178" opacity="1">1040</text><text x="121.49509379141618" style="color:#000000;cursor:default;font-size:10;fill:#000000;" text-anchor="end" transform="translate(0,0) rotate(-45 121.49509379141618 178)" y="178" opacity="1">2080</text><text x="161.16176045807617" style="color:#000000;cursor:default;font-size:10;fill:#000000;" text-anchor="end" transform="translate(0,0) rotate(-45 161.16176045807617 178)" y="178" opacity="1">4160</text><text x="180.9950937914162" style="color:#000000;cursor:default;font-size:10;fill:#000000;" text-anchor="end" transform="translate(0,0) rotate(-45 180.9950937914162 178)" y="178" opacity="1">5.2k</text><text x="220.66176045807617" style="color:#000000;cursor:default;font-size:10;fill:#000000;" text-anchor="end" transform="translate(0,0) rotate(-45 220.66176045807617 178)" y="178" opacity="1">7280</text><text x="240.4950937914162" style="color:#000000;cursor:default;font-size:10;fill:#000000;" text-anchor="end" transform="translate(0,0) rotate(-45 240.4950937914162 178)" y="178" opacity="1">8320</text><text x="280.16176045807623" style="color:#000000;cursor:default;font-size:10;fill:#000000;" text-anchor="end" transform="translate(0,0) rotate(-45 280.16176045807623 178)" y="178" opacity="1">10.4k</text><text x="299.9950937914162" style="color:#000000;cursor:default;font-size:10;fill:#000000;" text-anchor="end" transform="translate(0,0) rotate(-45 299.9950937914162 178)" y="178" opacity="1"><tspan>11 440</tspan></text></g><text x="10" class="highcharts-credits" text-anchor="start" style="cursor:default;color:#000000;font-size:10;fill:#000000;" y="193"><tspan>Quelle: Bundesamt für Statistik (BFS), Strukturerhebung (SE)</tspan></text></svg>