<?xml version="1.0" standalone="no"?><!DOCTYPE svg PUBLIC "-//W3C//DTD SVG 1.1//EN" "http://www.w3.org/Graphics/SVG/1.1/DTD/svg11.dtd"><svg xmlns:xlink="http://www.w3.org/1999/xlink" version="1.1" class="highcharts-root" style="font-family:Arial;font-size:10px;" xmlns="http://www.w3.org/2000/svg" viewBox="0 0 485 415"><desc>Created with Highstock 6.1.0</desc><defs><clipPath id="highcharts-gmdjx6j-6"><rect x="0" y="0" width="106" height="231" fill="none"></rect></clipPath><clipPath id="highcharts-gmdjx6j-7"><rect x="0" y="0" width="106" height="231" fill="none"></rect></clipPath></defs><rect fill="#fbfbfb" class="highcharts-background" x="0" y="0" width="320" height="208" rx="0" ry="0"></rect><rect fill="none" class="highcharts-plot-background" x="84" y="79" width="231" height="106"></rect><g class="highcharts-pane-group"></g><g class="highcharts-grid highcharts-xaxis-grid "><path fill="none" class="highcharts-grid-line" d="M 84 106.5 L 315 106.5" opacity="1"></path><path fill="none" class="highcharts-grid-line" d="M 84 132.5 L 315 132.5" opacity="1"></path><path fill="none" class="highcharts-grid-line" d="M 84 159.5 L 315 159.5" opacity="1"></path><path fill="none" class="highcharts-grid-line" d="M 84 185.5 L 315 185.5" opacity="1"></path><path fill="none" class="highcharts-grid-line" d="M 84 79.5 L 315 79.5" opacity="1"></path></g><g class="highcharts-grid highcharts-yaxis-grid "><path fill="none" stroke="#B9CFD7" stroke-width="0.5" class="highcharts-grid-line" d="M 83.75 79 L 83.75 185" opacity="1"></path><path fill="none" stroke="#B9CFD7" stroke-width="0.5" class="highcharts-grid-line" d="M 129.75 79 L 129.75 185" opacity="1"></path><path fill="none" stroke="#B9CFD7" stroke-width="0.5" class="highcharts-grid-line" d="M 175.75 79 L 175.75 185" opacity="1"></path><path fill="none" stroke="#B9CFD7" stroke-width="0.5" class="highcharts-grid-line" d="M 222.75 79 L 222.75 185" opacity="1"></path><path fill="none" stroke="#B9CFD7" stroke-width="0.5" class="highcharts-grid-line" d="M 268.75 79 L 268.75 185" opacity="1"></path><path fill="none" stroke="#B9CFD7" stroke-width="0.5" class="highcharts-grid-line" d="M 315.25 79 L 315.25 185" opacity="1"></path></g><rect fill="none" class="highcharts-plot-border" x="84" y="79" width="231" height="106"></rect><g class="highcharts-axis highcharts-xaxis "><path fill="none" class="highcharts-axis-line" stroke="#B9CFD7" stroke-width="0.5" d="M 83.75 79 L 83.75 185"></path></g><g class="highcharts-axis highcharts-yaxis "><path fill="none" class="highcharts-axis-line" d="M 84 185 L 315 185"></path></g><g class="highcharts-series-group"><g class="highcharts-series highcharts-series-0 highcharts-column-series " transform="translate(315,185) rotate(90) scale(-1,1) scale(1 1)" clip-path="url(#highcharts-gmdjx6j-7)"><rect x="86" y="0" width="13" height="134" fill="#E7CEE2" class="highcharts-point"></rect><rect x="60" y="0" width="13" height="126" fill="#E7CEE2" class="highcharts-point"></rect><rect x="33" y="0" width="13" height="108" fill="#E7CEE2" class="highcharts-point"></rect><rect x="7" y="0" width="13" height="65" fill="#E7CEE2" class="highcharts-point"></rect></g><g class="highcharts-markers highcharts-series-0 highcharts-column-series " transform="translate(315,185) rotate(90) scale(-1,1) scale(1 1)" clip-path="none"></g><g class="highcharts-series highcharts-series-1 highcharts-column-series " transform="translate(315,185) rotate(90) scale(-1,1) scale(1 1)" clip-path="url(#highcharts-gmdjx6j-7)"><rect x="86" y="134" width="13" height="98" fill="#923F8D" class="highcharts-point"></rect><rect x="60" y="126" width="13" height="106" fill="#923F8D" class="highcharts-point"></rect><rect x="33" y="108" width="13" height="124" fill="#923F8D" class="highcharts-point"></rect><rect x="7" y="65" width="13" height="167" fill="#923F8D" class="highcharts-point"></rect></g><g class="highcharts-markers highcharts-series-1 highcharts-column-series " transform="translate(315,185) rotate(90) scale(-1,1) scale(1 1)" clip-path="none"></g></g><text x="2" text-anchor="start" class="highcharts-title" style="color:#000000;font-size:10px;font-weight:normal;fill:#000000;" y="9"><tspan>Anteil Ausländer mit Hauptsprache Deutsch nach Alter</tspan></text><text x="2" text-anchor="start" class="highcharts-subtitle" style="color:#000000;font-size:12px;fill:#000000;" y="29"><tspan>Gepoolte Daten 2012 bis 2016</tspan></text><g class="highcharts-legend" transform="translate(83,44)"><rect fill="none" class="highcharts-legend-box" rx="0" ry="0" x="0" y="0" width="166" height="23" visibility="visible"></rect><g><g><g class="highcharts-legend-item highcharts-column-series highcharts-color-undefined highcharts-series-1" transform="translate(1,-4)"><text x="21" style="color:#333333;font-size:10px;font-weight:normal;cursor:pointer;font-family:Arial;fill:#333333;" text-anchor="start" y="13"><tspan>Deutsch oder Schweizerdeutsch</tspan></text><rect x="3" y="4" width="10" height="10" fill="#923F8D" class="highcharts-point"></rect></g><g class="highcharts-legend-item highcharts-column-series highcharts-color-undefined highcharts-series-0" transform="translate(1,9)"><text x="21" y="13" style="color:#333333;font-size:10px;font-weight:normal;cursor:pointer;font-family:Arial;fill:#333333;" text-anchor="start"><tspan>Kein Deutsch</tspan></text><rect x="3" y="4" width="10" height="10" fill="#E7CEE2" class="highcharts-point"></rect></g></g></g></g><g class="highcharts-axis-labels highcharts-xaxis-labels "><text x="69" style="color:#666666;cursor:default;font-size:11px;fill:#666666;" text-anchor="end" transform="translate(0,0)" y="97" opacity="1"><tspan>65 u.m. Jahre</tspan></text><text x="69" style="color:#666666;cursor:default;font-size:11px;fill:#666666;" text-anchor="end" transform="translate(0,0)" y="123" opacity="1"><tspan>40-64 Jahre</tspan></text><text x="69" style="color:#666666;cursor:default;font-size:11px;fill:#666666;" text-anchor="end" transform="translate(0,0)" y="150" opacity="1"><tspan>25-39 Jahre</tspan></text><text x="69" style="color:#666666;cursor:default;font-size:11px;fill:#666666;" text-anchor="end" transform="translate(0,0)" y="176" opacity="1"><tspan>15-24 Jahre</tspan></text></g><g class="highcharts-axis-labels highcharts-yaxis-labels "><text x="84" style="color:#000000;cursor:default;font-size:10px;fill:#000000;" text-anchor="middle" transform="translate(0,0)" y="203" opacity="1">0%</text><text x="130.2" style="color:#000000;cursor:default;font-size:10px;fill:#000000;" text-anchor="middle" transform="translate(0,0)" y="203" opacity="1">20%</text><text x="176.4" style="color:#000000;cursor:default;font-size:10px;fill:#000000;" text-anchor="middle" transform="translate(0,0)" y="203" opacity="1">40%</text><text x="222.6" style="color:#000000;cursor:default;font-size:10px;fill:#000000;" text-anchor="middle" transform="translate(0,0)" y="203" opacity="1">60%</text><text x="268.8" style="color:#000000;cursor:default;font-size:10px;fill:#000000;" text-anchor="middle" transform="translate(0,0)" y="203" opacity="1">80%</text><text x="305.234375" style="color:#000000;cursor:default;font-size:10px;fill:#000000;" text-anchor="middle" transform="translate(0,0)" y="203" opacity="1">100%</text></g><text x="10" class="highcharts-credits" text-anchor="start" style="cursor:default;color:#000000;font-size:10px;fill:#000000;" y="193"><tspan>Quelle: Bundesamt für Statistik (BFS), Strukturerhebung (SE)</tspan></text></svg>