<?xml version="1.0" standalone="no"?><!DOCTYPE svg PUBLIC "-//W3C//DTD SVG 1.1//EN" "http://www.w3.org/Graphics/SVG/1.1/DTD/svg11.dtd"><svg xmlns:xlink="http://www.w3.org/1999/xlink" version="1.1" class="highcharts-root" style="font-family:Arial;font-size:12px;" xmlns="http://www.w3.org/2000/svg" viewBox="0 0 485 415"><desc>Created with Highstock 6.1.0</desc><defs><clipPath id="highcharts-7r75rjb-6"><rect x="0" y="0" width="276" height="43" fill="none"></rect></clipPath><clipPath id="highcharts-7r75rjb-7"><rect x="0" y="0" width="276" height="43" fill="none"></rect></clipPath></defs><rect fill="#fbfbfb" class="highcharts-background" x="0" y="0" width="320" height="208" rx="0" ry="0"></rect><rect fill="none" class="highcharts-plot-background" x="41" y="126" width="276" height="43"></rect><g class="highcharts-pane-group"></g><g class="highcharts-grid highcharts-xaxis-grid "><path fill="none" class="highcharts-grid-line" d="M 73.5 126 L 73.5 169" opacity="1"></path><path fill="none" class="highcharts-grid-line" d="M 133.5 126 L 133.5 169" opacity="1"></path><path fill="none" class="highcharts-grid-line" d="M 193.5 126 L 193.5 169" opacity="1"></path><path fill="none" class="highcharts-grid-line" d="M 253.5 126 L 253.5 169" opacity="1"></path><path fill="none" class="highcharts-grid-line" d="M 313.5 126 L 313.5 169" opacity="1"></path></g><g class="highcharts-grid highcharts-yaxis-grid "><path fill="none" stroke="#B9CFD7" stroke-width="0.5" class="highcharts-grid-line" d="M 41 169.25 L 317 169.25" opacity="1"></path><path fill="none" stroke="#B9CFD7" stroke-width="0.5" class="highcharts-grid-line" d="M 41 155.25 L 317 155.25" opacity="1"></path><path fill="none" stroke="#B9CFD7" stroke-width="0.5" class="highcharts-grid-line" d="M 41 140.25 L 317 140.25" opacity="1"></path><path fill="none" stroke="#B9CFD7" stroke-width="0.5" class="highcharts-grid-line" d="M 41 125.75 L 317 125.75" opacity="1"></path></g><rect fill="none" class="highcharts-plot-border" x="41" y="126" width="276" height="43"></rect><g class="highcharts-axis highcharts-xaxis "><path fill="none" class="highcharts-axis-line" stroke="#B9CFD7" stroke-width="0.5" d="M 41 169.25 L 317 169.25"></path></g><g class="highcharts-axis highcharts-yaxis "><path fill="none" class="highcharts-axis-line" d="M 41 126 L 41 169"></path></g><g class="highcharts-series-group"><g class="highcharts-series highcharts-series-0 highcharts-line-series " transform="translate(41,126) scale(1 1)" clip-path="url(#highcharts-7r75rjb-7)"><path fill="none" d="M 2.7058823529388 12.04 L 32.771241830063 12.04 L 62.836601307188 9.74666666666667 L 92.901960784313 10.893333333333338 L 122.96732026144 10.32 L 153.03267973856 9.74666666666667 L 183.09803921569 10.893333333333338 L 213.16339869281 10.893333333333338 L 243.22875816994 10.893333333333338 L 273.29411764706 10.32" class="highcharts-graph" stroke="#b00000" stroke-width="2" stroke-linejoin="round" stroke-linecap="round"></path></g><g class="highcharts-markers highcharts-series-0 highcharts-line-series " transform="translate(41,126) scale(1 1)" clip-path="none"></g><g class="highcharts-series highcharts-series-1 highcharts-line-series " transform="translate(41,126) scale(1 1)" clip-path="url(#highcharts-7r75rjb-7)"><path fill="none" d="M 2.7058823529388 32.68 L 32.771241830063 32.68 L 62.836601307188 31.53333333333333 L 92.901960784313 30.96 L 122.96732026144 30.386666666666663 L 153.03267973856 29.240000000000002 L 183.09803921569 30.96 L 213.16339869281 30.386666666666663 L 243.22875816994 29.813333333333333 L 273.29411764706 29.240000000000002" class="highcharts-graph" stroke="#672773" stroke-width="2" stroke-linejoin="round" stroke-linecap="round"></path></g><g class="highcharts-markers highcharts-series-1 highcharts-line-series " transform="translate(41,126) scale(1 1)" clip-path="none"></g><g class="highcharts-series highcharts-series-2 highcharts-line-series " transform="translate(41,126) scale(1 1)" clip-path="url(#highcharts-7r75rjb-7)"><path fill="none" d="M 2.7058823529388 26.373333333333335 L 32.771241830063 26.373333333333335 L 62.836601307188 25.8 L 92.901960784313 26.373333333333335 L 122.96732026144 26.373333333333335 L 153.03267973856 27.52 L 183.09803921569 29.240000000000002 L 213.16339869281 30.386666666666663 L 243.22875816994 30.386666666666663 L 273.29411764706 29.813333333333333" class="highcharts-graph" stroke="#007a2f" stroke-width="2" stroke-linejoin="round" stroke-linecap="round"></path></g><g class="highcharts-markers highcharts-series-2 highcharts-line-series " transform="translate(41,126) scale(1 1)" clip-path="none"></g><g class="highcharts-series highcharts-series-3 highcharts-line-series " transform="translate(41,126) scale(1 1)" clip-path="url(#highcharts-7r75rjb-7)"><path fill="none" d="M 2.7058823529388 38.986666666666665 L 32.771241830063 37.84 L 62.836601307188 37.84 L 92.901960784313 37.84 L 122.96732026144 37.84 L 153.03267973856 37.266666666666666 L 183.09803921569 37.84 L 213.16339869281 37.266666666666666 L 243.22875816994 37.266666666666666 L 273.29411764706 36.693333333333335" class="highcharts-graph" stroke="#fabd24" stroke-width="2" stroke-linejoin="round" stroke-linecap="round"></path></g><g class="highcharts-markers highcharts-series-3 highcharts-line-series " transform="translate(41,126) scale(1 1)" clip-path="none"></g><g class="highcharts-series highcharts-series-4 highcharts-line-series " transform="translate(41,126) scale(1 1)" clip-path="url(#highcharts-7r75rjb-7)"><path fill="none" d="M 2.7058823529388 35.54666666666667 L 32.771241830063 34.973333333333336 L 62.836601307188 35.54666666666667 L 92.901960784313 35.54666666666667 L 122.96732026144 36.12 L 153.03267973856 36.693333333333335 L 183.09803921569 37.266666666666666 L 213.16339869281 37.84 L 243.22875816994 38.413333333333334 L 273.29411764706 37.84" class="highcharts-graph" stroke="#b475ab" stroke-width="2" stroke-linejoin="round" stroke-linecap="round"></path></g><g class="highcharts-markers highcharts-series-4 highcharts-line-series " transform="translate(41,126) scale(1 1)" clip-path="none"></g><g class="highcharts-series highcharts-series-5 highcharts-line-series " transform="translate(41,126) scale(1 1)" clip-path="url(#highcharts-7r75rjb-7)"><path fill="none" d="M 2.7058823529388 40.13333333333333 L 32.771241830063 40.70666666666666 L 62.836601307188 41.85333333333333 L 92.901960784313 40.70666666666666 L 122.96732026144 41.85333333333333 L 153.03267973856 41.85333333333333 L 183.09803921569 41.28 L 213.16339869281 40.70666666666666 L 243.22875816994 40.70666666666666 L 273.29411764706 40.13333333333333" class="highcharts-graph" stroke="#71a3b5" stroke-width="2" stroke-linejoin="round" stroke-linecap="round"></path></g><g class="highcharts-markers highcharts-series-5 highcharts-line-series " transform="translate(41,126) scale(1 1)" clip-path="none"></g><g class="highcharts-series highcharts-series-6 highcharts-line-series " transform="translate(41,126) scale(1 1)" clip-path="url(#highcharts-7r75rjb-7)"><path fill="none" d="M 2.7058823529388 39.56 L 32.771241830063 38.986666666666665 L 62.836601307188 38.986666666666665 L 92.901960784313 38.986666666666665 L 122.96732026144 38.413333333333334 L 153.03267973856 38.413333333333334 L 183.09803921569 37.84 L 213.16339869281 37.266666666666666 L 243.22875816994 37.266666666666666 L 273.29411764706 37.266666666666666" class="highcharts-graph" stroke="#b9cfd7" stroke-width="2" stroke-linejoin="round" stroke-linecap="round"></path></g><g class="highcharts-markers highcharts-series-6 highcharts-line-series " transform="translate(41,126) scale(1 1)" clip-path="none"></g><g class="highcharts-series highcharts-series-7 highcharts-line-series " transform="translate(41,126) scale(1 1)" clip-path="url(#highcharts-7r75rjb-7)"><path fill="none" d="M 2.7058823529388 39.56 L 32.771241830063 38.986666666666665 L 62.836601307188 38.413333333333334 L 92.901960784313 38.413333333333334 L 122.96732026144 37.266666666666666 L 153.03267973856 37.266666666666666 L 183.09803921569 37.266666666666666 L 213.16339869281 37.84 L 243.22875816994 37.266666666666666 L 273.29411764706 36.693333333333335" class="highcharts-graph" stroke="#ff8028" stroke-width="2" stroke-linejoin="round" stroke-linecap="round"></path></g><g class="highcharts-markers highcharts-series-7 highcharts-line-series " transform="translate(41,126) scale(1 1)" clip-path="none"></g><g class="highcharts-series highcharts-series-8 highcharts-line-series " transform="translate(41,126) scale(1 1)" clip-path="url(#highcharts-7r75rjb-7)"><path fill="none" d="M 2.7058823529388 40.13333333333333 L 32.771241830063 40.70666666666666 L 62.836601307188 40.70666666666666 L 92.901960784313 41.28 L 122.96732026144 41.28 L 153.03267973856 43 L 183.09803921569 41.85333333333333 L 213.16339869281 41.28 L 243.22875816994 41.28 L 273.29411764706 40.70666666666666" class="highcharts-graph" stroke="#73ba7c" stroke-width="2" stroke-linejoin="round" stroke-linecap="round"></path></g><g class="highcharts-markers highcharts-series-8 highcharts-line-series " transform="translate(41,126) scale(1 1)" clip-path="none"></g><g class="highcharts-series highcharts-series-9 highcharts-line-series " transform="translate(41,126) scale(1 1)" clip-path="url(#highcharts-7r75rjb-7)"><path fill="none" d="M 2.7058823529388 40.13333333333333 L 32.771241830063 40.13333333333333 L 62.836601307188 38.986666666666665 L 92.901960784313 38.986666666666665 L 122.96732026144 38.986666666666665 L 153.03267973856 37.84 L 183.09803921569 35.54666666666667 L 213.16339869281 35.54666666666667 L 243.22875816994 35.54666666666667 L 273.29411764706 34.4" class="highcharts-graph" stroke="#9f7c5a" stroke-width="2" stroke-linejoin="round" stroke-linecap="round"></path></g><g class="highcharts-markers highcharts-series-9 highcharts-line-series " transform="translate(41,126) scale(1 1)" clip-path="none"></g><g class="highcharts-series highcharts-series-10 highcharts-line-series " transform="translate(41,126) scale(1 1)" clip-path="url(#highcharts-7r75rjb-7)"><path fill="none" d="M 2.7058823529388 40.70666666666666 L 32.771241830063 40.70666666666666 L 62.836601307188 41.28 L 92.901960784313 41.28 L 122.96732026144 41.85333333333333 L 153.03267973856 42.42666666666667 L 183.09803921569 42.42666666666667 L 213.16339869281 41.85333333333333 L 243.22875816994 42.42666666666667 L 273.29411764706 42.42666666666667" class="highcharts-graph" stroke="#999999" stroke-width="2" stroke-linejoin="round" stroke-linecap="round"></path></g><g class="highcharts-markers highcharts-series-10 highcharts-line-series " transform="translate(41,126) scale(1 1)" clip-path="none"></g></g><text x="3" text-anchor="start" class="highcharts-title" style="color:#000000;font-size:10px;font-weight:bold;fill:#000000;" y="14"><tspan>Anteil der Staatsangestellten nach Staatsangehörigkeit</tspan></text><text x="3" text-anchor="start" class="highcharts-subtitle" style="color:#000000;font-size:10px;font-weight:normal;font-family:Arial;fill:#000000;" y="32"></text><g class="highcharts-legend" transform="translate(41,35)"><rect fill="none" class="highcharts-legend-box" rx="0" ry="0" x="0" y="0" width="247" height="79" visibility="visible"></rect><g><g><g class="highcharts-legend-item highcharts-line-series highcharts-color-undefined highcharts-series-0" transform="translate(0,-5)"><path fill="none" d="M 0 10 L 16 10" class="highcharts-graph" stroke="#b00000" stroke-width="2"></path><text x="21" style="color:#333333;font-size:10px;font-weight:normal;cursor:pointer;fill:#333333;" text-anchor="start" y="13"><tspan>Schweiz</tspan></text></g><g class="highcharts-legend-item highcharts-line-series highcharts-color-undefined highcharts-series-1" transform="translate(133.625,-5)"><path fill="none" d="M 0 10 L 16 10" class="highcharts-graph" stroke="#672773" stroke-width="2"></path><text x="21" y="13" style="color:#333333;font-size:10px;font-weight:normal;cursor:pointer;fill:#333333;" text-anchor="start"><tspan>Deutschland</tspan></text></g><g class="highcharts-legend-item highcharts-line-series highcharts-color-undefined highcharts-series-2" transform="translate(0,9)"><path fill="none" d="M 0 10 L 16 10" class="highcharts-graph" stroke="#007a2f" stroke-width="2"></path><text x="21" y="13" style="color:#333333;font-size:10px;font-weight:normal;cursor:pointer;fill:#333333;" text-anchor="start"><tspan>Italien</tspan></text></g><g class="highcharts-legend-item highcharts-line-series highcharts-color-undefined highcharts-series-3" transform="translate(133.625,9)"><path fill="none" d="M 0 10 L 16 10" class="highcharts-graph" stroke="#fabd24" stroke-width="2"></path><text x="21" y="13" style="color:#333333;font-size:10px;font-weight:normal;cursor:pointer;fill:#333333;" text-anchor="start"><tspan>Türkei</tspan></text></g><g class="highcharts-legend-item highcharts-line-series highcharts-color-undefined highcharts-series-4" transform="translate(0,23)"><path fill="none" d="M 0 10 L 16 10" class="highcharts-graph" stroke="#b475ab" stroke-width="2"></path><text x="21" y="13" style="color:#333333;font-size:10px;font-weight:normal;cursor:pointer;fill:#333333;" text-anchor="start"><tspan>EU-17 &amp; EFTA</tspan></text></g><g class="highcharts-legend-item highcharts-line-series highcharts-color-undefined highcharts-series-5" transform="translate(133.625,23)"><path fill="none" d="M 0 10 L 16 10" class="highcharts-graph" stroke="#71a3b5" stroke-width="2"></path><text x="21" y="13" style="color:#333333;font-size:10px;font-weight:normal;cursor:pointer;fill:#333333;" text-anchor="start"><tspan>EU-Ost</tspan></text></g><g class="highcharts-legend-item highcharts-line-series highcharts-color-undefined highcharts-series-6" transform="translate(0,37)"><path fill="none" d="M 0 10 L 16 10" class="highcharts-graph" stroke="#b9cfd7" stroke-width="2"></path><text x="21" y="13" style="color:#333333;font-size:10px;font-weight:normal;cursor:pointer;fill:#333333;" text-anchor="start"><tspan>Balkan</tspan></text></g><g class="highcharts-legend-item highcharts-line-series highcharts-color-undefined highcharts-series-7" transform="translate(133.625,37)"><path fill="none" d="M 0 10 L 16 10" class="highcharts-graph" stroke="#ff8028" stroke-width="2"></path><text x="21" y="13" style="color:#333333;font-size:10px;font-weight:normal;cursor:pointer;fill:#333333;" text-anchor="start"><tspan>Mittel- &amp; Südamerika</tspan></text></g><g class="highcharts-legend-item highcharts-line-series highcharts-color-undefined highcharts-series-8" transform="translate(0,51)"><path fill="none" d="M 0 10 L 16 10" class="highcharts-graph" stroke="#73ba7c" stroke-width="2"></path><text x="21" y="13" style="color:#333333;font-size:10px;font-weight:normal;cursor:pointer;fill:#333333;" text-anchor="start"><tspan>Arab. Länder</tspan></text></g><g class="highcharts-legend-item highcharts-line-series highcharts-color-undefined highcharts-series-9" transform="translate(133.625,51)"><path fill="none" d="M 0 10 L 16 10" class="highcharts-graph" stroke="#9f7c5a" stroke-width="2"></path><text x="21" y="13" style="color:#333333;font-size:10px;font-weight:normal;cursor:pointer;fill:#333333;" text-anchor="start"><tspan>Afrikan. Länder</tspan></text></g><g class="highcharts-legend-item highcharts-line-series highcharts-color-undefined highcharts-series-10" transform="translate(0,65)"><path fill="none" d="M 0 10 L 16 10" class="highcharts-graph" stroke="#999999" stroke-width="2"></path><text x="21" y="13" style="color:#333333;font-size:10px;font-weight:normal;cursor:pointer;fill:#333333;" text-anchor="start"><tspan>Übrige Länder</tspan></text></g></g></g></g><g class="highcharts-axis-labels highcharts-xaxis-labels "><text x="73.771241830063" style="color:#000000;cursor:default;font-size:10;fill:#000000;" text-anchor="middle" transform="translate(0,0)" y="189" opacity="1">2008</text><text x="133.90196078431" style="color:#000000;cursor:default;font-size:10;fill:#000000;" text-anchor="middle" transform="translate(0,0)" y="189" opacity="1">2010</text><text x="194.03267973856" style="color:#000000;cursor:default;font-size:10;fill:#000000;" text-anchor="middle" transform="translate(0,0)" y="189" opacity="1">2012</text><text x="254.16339869281" style="color:#000000;cursor:default;font-size:10;fill:#000000;" text-anchor="middle" transform="translate(0,0)" y="189" opacity="1">2014</text><text x="305.90625" style="color:#000000;cursor:default;font-size:10;fill:#000000;" text-anchor="middle" transform="translate(0,0)" y="189" opacity="1">2016</text></g><g class="highcharts-axis-labels highcharts-yaxis-labels "><text x="26" style="color:#000000;cursor:default;font-size:10;fill:#000000;" text-anchor="end" transform="translate(0,0)" y="172" opacity="1">0%</text><text x="26" style="color:#000000;cursor:default;font-size:10;fill:#000000;" text-anchor="end" transform="translate(0,0)" y="158" opacity="1">2.5%</text><text x="26" style="color:#000000;cursor:default;font-size:10;fill:#000000;" text-anchor="end" transform="translate(0,0)" y="143" opacity="1">5%</text><text x="26" style="color:#000000;cursor:default;font-size:10;fill:#000000;" text-anchor="end" transform="translate(0,0)" y="129" opacity="1">7.5%</text></g><text x="10" class="highcharts-credits" text-anchor="start" style="cursor:default;color:#000000;font-size:10px;fill:#000000;" y="183"><tspan>Quelle: Statistisches Amt Basel-Stadt, Bevölkerungsstatistik;</tspan><tspan x="10" dy="13">Finanzdepartement Basel-Stadt, Zentraler Personaldienst</tspan></text></svg>