<?xml version="1.0" standalone="no"?><!DOCTYPE svg PUBLIC "-//W3C//DTD SVG 1.1//EN" "http://www.w3.org/Graphics/SVG/1.1/DTD/svg11.dtd"><svg xmlns:xlink="http://www.w3.org/1999/xlink" version="1.1" class="highcharts-root" style="font-family:Arial;font-size:12px;" xmlns="http://www.w3.org/2000/svg" viewBox="0 0 485 415"><desc>Created with Highstock 6.1.1</desc><defs><clipPath id="highcharts-x034sgn-6"><rect x="0" y="0" width="487" height="152" fill="none"></rect></clipPath><clipPath id="highcharts-x034sgn-7"><rect x="0" y="0" width="487" height="152" fill="none"></rect></clipPath></defs><rect fill="#fbfbfb" class="highcharts-background" x="0" y="0" width="665" height="208" rx="0" ry="0"></rect><rect fill="none" class="highcharts-plot-background" x="48" y="33" width="487" height="152"></rect><g class="highcharts-pane-group" data-z-index="0"></g><g class="highcharts-grid highcharts-xaxis-grid " data-z-index="1"><path fill="none" data-z-index="1" class="highcharts-grid-line" d="M 77.5 33 L 77.5 185" opacity="1"></path><path fill="none" data-z-index="1" class="highcharts-grid-line" d="M 108.5 33 L 108.5 185" opacity="1"></path><path fill="none" data-z-index="1" class="highcharts-grid-line" d="M 138.5 33 L 138.5 185" opacity="1"></path><path fill="none" data-z-index="1" class="highcharts-grid-line" d="M 169.5 33 L 169.5 185" opacity="1"></path><path fill="none" data-z-index="1" class="highcharts-grid-line" d="M 199.5 33 L 199.5 185" opacity="1"></path><path fill="none" data-z-index="1" class="highcharts-grid-line" d="M 230.5 33 L 230.5 185" opacity="1"></path><path fill="none" data-z-index="1" class="highcharts-grid-line" d="M 260.5 33 L 260.5 185" opacity="1"></path><path fill="none" data-z-index="1" class="highcharts-grid-line" d="M 291.5 33 L 291.5 185" opacity="1"></path><path fill="none" data-z-index="1" class="highcharts-grid-line" d="M 321.5 33 L 321.5 185" opacity="1"></path><path fill="none" data-z-index="1" class="highcharts-grid-line" d="M 351.5 33 L 351.5 185" opacity="1"></path><path fill="none" data-z-index="1" class="highcharts-grid-line" d="M 382.5 33 L 382.5 185" opacity="1"></path><path fill="none" data-z-index="1" class="highcharts-grid-line" d="M 412.5 33 L 412.5 185" opacity="1"></path><path fill="none" data-z-index="1" class="highcharts-grid-line" d="M 443.5 33 L 443.5 185" opacity="1"></path><path fill="none" data-z-index="1" class="highcharts-grid-line" d="M 473.5 33 L 473.5 185" opacity="1"></path><path fill="none" data-z-index="1" class="highcharts-grid-line" d="M 504.5 33 L 504.5 185" opacity="1"></path><path fill="none" data-z-index="1" class="highcharts-grid-line" d="M 534.5 33 L 534.5 185" opacity="1"></path><path fill="none" data-z-index="1" class="highcharts-grid-line" d="M 47.5 33 L 47.5 185" opacity="1"></path></g><g class="highcharts-grid highcharts-yaxis-grid " data-z-index="1"><path fill="none" stroke="#B9CFD7" stroke-width="0.5" data-z-index="1" class="highcharts-grid-line" d="M 48 185.25 L 535 185.25" opacity="1"></path><path fill="none" stroke="#B9CFD7" stroke-width="0.5" data-z-index="1" class="highcharts-grid-line" d="M 48 160.25 L 535 160.25" opacity="1"></path><path fill="none" stroke="#B9CFD7" stroke-width="0.5" data-z-index="1" class="highcharts-grid-line" d="M 48 134.25 L 535 134.25" opacity="1"></path><path fill="none" stroke="#B9CFD7" stroke-width="0.5" data-z-index="1" class="highcharts-grid-line" d="M 48 109.25 L 535 109.25" opacity="1"></path><path fill="none" stroke="#B9CFD7" stroke-width="0.5" data-z-index="1" class="highcharts-grid-line" d="M 48 84.25 L 535 84.25" opacity="1"></path><path fill="none" stroke="#B9CFD7" stroke-width="0.5" data-z-index="1" class="highcharts-grid-line" d="M 48 58.25 L 535 58.25" opacity="1"></path><path fill="none" stroke="#B9CFD7" stroke-width="0.5" data-z-index="1" class="highcharts-grid-line" d="M 48 32.75 L 535 32.75" opacity="1"></path></g><rect fill="none" class="highcharts-plot-border" data-z-index="1" x="48" y="33" width="487" height="152"></rect><g class="highcharts-axis highcharts-xaxis " data-z-index="2"><path fill="none" class="highcharts-axis-line" stroke="#B9CFD7" stroke-width="0.5" data-z-index="7" d="M 48 185.25 L 535 185.25"></path></g><g class="highcharts-axis highcharts-yaxis " data-z-index="2"><path fill="none" class="highcharts-axis-line" data-z-index="7" d="M 48 33 L 48 185"></path></g><g class="highcharts-series-group" data-z-index="3"><g data-z-index="0.1" class="highcharts-series highcharts-series-0 highcharts-column-series " transform="translate(48,33) scale(1 1)" clip-path="url(#highcharts-x034sgn-7)"><rect x="8" y="67" width="15" height="3" fill="#999999" class="highcharts-point"></rect><rect x="38" y="64" width="15" height="2" fill="#999999" class="highcharts-point"></rect><rect x="69" y="49" width="15" height="3" fill="#999999" class="highcharts-point"></rect><rect x="99" y="31" width="15" height="4" fill="#999999" class="highcharts-point"></rect><rect x="130" y="21" width="15" height="5" fill="#999999" class="highcharts-point"></rect><rect x="160" y="21" width="15" height="4" fill="#999999" class="highcharts-point"></rect><rect x="191" y="31" width="15" height="4" fill="#999999" class="highcharts-point"></rect><rect x="221" y="37" width="15" height="5" fill="#999999" class="highcharts-point"></rect><rect x="251" y="40" width="15" height="5" fill="#999999" class="highcharts-point"></rect><rect x="282" y="41" width="15" height="5" fill="#999999" class="highcharts-point"></rect><rect x="312" y="34" width="15" height="6" fill="#999999" class="highcharts-point"></rect><rect x="343" y="31" width="15" height="7" fill="#999999" class="highcharts-point"></rect><rect x="373" y="28" width="15" height="8" fill="#999999" class="highcharts-point"></rect><rect x="404" y="29" width="15" height="8" fill="#999999" class="highcharts-point"></rect><rect x="434" y="28" width="15" height="7" fill="#999999" class="highcharts-point"></rect><rect x="464" y="23" width="15" height="8" fill="#999999" class="highcharts-point"></rect></g><g data-z-index="0.1" class="highcharts-markers highcharts-series-0 highcharts-column-series " transform="translate(48,33) scale(1 1)" clip-path="none"></g><g data-z-index="0.1" class="highcharts-series highcharts-series-1 highcharts-column-series " transform="translate(48,33) scale(1 1)" clip-path="url(#highcharts-x034sgn-7)"><rect x="8" y="70" width="15" height="1" fill="#9f7c5a" class="highcharts-point"></rect><rect x="38" y="66" width="15" height="2" fill="#9f7c5a" class="highcharts-point"></rect><rect x="69" y="52" width="15" height="2" fill="#9f7c5a" class="highcharts-point"></rect><rect x="99" y="35" width="15" height="2" fill="#9f7c5a" class="highcharts-point"></rect><rect x="130" y="26" width="15" height="2" fill="#9f7c5a" class="highcharts-point"></rect><rect x="160" y="25" width="15" height="3" fill="#9f7c5a" class="highcharts-point"></rect><rect x="191" y="35" width="15" height="3" fill="#9f7c5a" class="highcharts-point"></rect><rect x="221" y="42" width="15" height="3" fill="#9f7c5a" class="highcharts-point"></rect><rect x="251" y="45" width="15" height="3" fill="#9f7c5a" class="highcharts-point"></rect><rect x="282" y="46" width="15" height="5" fill="#9f7c5a" class="highcharts-point"></rect><rect x="312" y="40" width="15" height="7" fill="#9f7c5a" class="highcharts-point"></rect><rect x="343" y="38" width="15" height="8" fill="#9f7c5a" class="highcharts-point"></rect><rect x="373" y="36" width="15" height="9" fill="#9f7c5a" class="highcharts-point"></rect><rect x="404" y="37" width="15" height="8" fill="#9f7c5a" class="highcharts-point"></rect><rect x="434" y="35" width="15" height="9" fill="#9f7c5a" class="highcharts-point"></rect><rect x="464" y="31" width="15" height="9" fill="#9f7c5a" class="highcharts-point"></rect></g><g data-z-index="0.1" class="highcharts-markers highcharts-series-1 highcharts-column-series " transform="translate(48,33) scale(1 1)" clip-path="none"></g><g data-z-index="0.1" class="highcharts-series highcharts-series-2 highcharts-column-series " transform="translate(48,33) scale(1 1)" clip-path="url(#highcharts-x034sgn-7)"><rect x="8" y="71" width="15" height="1" fill="#73ba7c" class="highcharts-point"></rect><rect x="38" y="68" width="15" height="1" fill="#73ba7c" class="highcharts-point"></rect><rect x="69" y="54" width="15" height="1" fill="#73ba7c" class="highcharts-point"></rect><rect x="99" y="37" width="15" height="2" fill="#73ba7c" class="highcharts-point"></rect><rect x="130" y="28" width="15" height="3" fill="#73ba7c" class="highcharts-point"></rect><rect x="160" y="28" width="15" height="3" fill="#73ba7c" class="highcharts-point"></rect><rect x="191" y="38" width="15" height="3" fill="#73ba7c" class="highcharts-point"></rect><rect x="221" y="45" width="15" height="3" fill="#73ba7c" class="highcharts-point"></rect><rect x="251" y="48" width="15" height="3" fill="#73ba7c" class="highcharts-point"></rect><rect x="282" y="51" width="15" height="4" fill="#73ba7c" class="highcharts-point"></rect><rect x="312" y="47" width="15" height="5" fill="#73ba7c" class="highcharts-point"></rect><rect x="343" y="46" width="15" height="5" fill="#73ba7c" class="highcharts-point"></rect><rect x="373" y="45" width="15" height="5" fill="#73ba7c" class="highcharts-point"></rect><rect x="404" y="45" width="15" height="8" fill="#73ba7c" class="highcharts-point"></rect><rect x="434" y="44" width="15" height="9" fill="#73ba7c" class="highcharts-point"></rect><rect x="464" y="40" width="15" height="9" fill="#73ba7c" class="highcharts-point"></rect></g><g data-z-index="0.1" class="highcharts-markers highcharts-series-2 highcharts-column-series " transform="translate(48,33) scale(1 1)" clip-path="none"></g><g data-z-index="0.1" class="highcharts-series highcharts-series-3 highcharts-column-series " transform="translate(48,33) scale(1 1)" clip-path="url(#highcharts-x034sgn-7)"><rect x="8" y="72" width="15" height="2" fill="#ff8028" class="highcharts-point"></rect><rect x="38" y="69" width="15" height="2" fill="#ff8028" class="highcharts-point"></rect><rect x="69" y="55" width="15" height="3" fill="#ff8028" class="highcharts-point"></rect><rect x="99" y="39" width="15" height="3" fill="#ff8028" class="highcharts-point"></rect><rect x="130" y="31" width="15" height="3" fill="#ff8028" class="highcharts-point"></rect><rect x="160" y="31" width="15" height="3" fill="#ff8028" class="highcharts-point"></rect><rect x="191" y="41" width="15" height="3" fill="#ff8028" class="highcharts-point"></rect><rect x="221" y="48" width="15" height="3" fill="#ff8028" class="highcharts-point"></rect><rect x="251" y="51" width="15" height="3" fill="#ff8028" class="highcharts-point"></rect><rect x="282" y="55" width="15" height="3" fill="#ff8028" class="highcharts-point"></rect><rect x="312" y="52" width="15" height="3" fill="#ff8028" class="highcharts-point"></rect><rect x="343" y="51" width="15" height="3" fill="#ff8028" class="highcharts-point"></rect><rect x="373" y="50" width="15" height="4" fill="#ff8028" class="highcharts-point"></rect><rect x="404" y="53" width="15" height="3" fill="#ff8028" class="highcharts-point"></rect><rect x="434" y="53" width="15" height="3" fill="#ff8028" class="highcharts-point"></rect><rect x="464" y="49" width="15" height="3" fill="#ff8028" class="highcharts-point"></rect></g><g data-z-index="0.1" class="highcharts-markers highcharts-series-3 highcharts-column-series " transform="translate(48,33) scale(1 1)" clip-path="none"></g><g data-z-index="0.1" class="highcharts-series highcharts-series-4 highcharts-column-series " transform="translate(48,33) scale(1 1)" clip-path="url(#highcharts-x034sgn-7)"><rect x="8" y="74" width="15" height="7" fill="#b9cfd7" class="highcharts-point"></rect><rect x="38" y="71" width="15" height="9" fill="#b9cfd7" class="highcharts-point"></rect><rect x="69" y="58" width="15" height="10" fill="#b9cfd7" class="highcharts-point"></rect><rect x="99" y="42" width="15" height="12" fill="#b9cfd7" class="highcharts-point"></rect><rect x="130" y="34" width="15" height="14" fill="#b9cfd7" class="highcharts-point"></rect><rect x="160" y="34" width="15" height="15" fill="#b9cfd7" class="highcharts-point"></rect><rect x="191" y="44" width="15" height="13" fill="#b9cfd7" class="highcharts-point"></rect><rect x="221" y="51" width="15" height="13" fill="#b9cfd7" class="highcharts-point"></rect><rect x="251" y="54" width="15" height="12" fill="#b9cfd7" class="highcharts-point"></rect><rect x="282" y="58" width="15" height="11" fill="#b9cfd7" class="highcharts-point"></rect><rect x="312" y="55" width="15" height="11" fill="#b9cfd7" class="highcharts-point"></rect><rect x="343" y="54" width="15" height="11" fill="#b9cfd7" class="highcharts-point"></rect><rect x="373" y="54" width="15" height="10" fill="#b9cfd7" class="highcharts-point"></rect><rect x="404" y="56" width="15" height="9" fill="#b9cfd7" class="highcharts-point"></rect><rect x="434" y="56" width="15" height="9" fill="#b9cfd7" class="highcharts-point"></rect><rect x="464" y="52" width="15" height="10" fill="#b9cfd7" class="highcharts-point"></rect></g><g data-z-index="0.1" class="highcharts-markers highcharts-series-4 highcharts-column-series " transform="translate(48,33) scale(1 1)" clip-path="none"></g><g data-z-index="0.1" class="highcharts-series highcharts-series-5 highcharts-column-series " transform="translate(48,33) scale(1 1)" clip-path="url(#highcharts-x034sgn-7)"><rect x="8" y="81" width="15" height="1" fill="#71a3b5" class="highcharts-point"></rect><rect x="38" y="80" width="15" height="0" fill="#71a3b5" class="highcharts-point"></rect><rect x="69" y="68" width="15" height="1" fill="#71a3b5" class="highcharts-point"></rect><rect x="99" y="54" width="15" height="1" fill="#71a3b5" class="highcharts-point"></rect><rect x="130" y="48" width="15" height="1" fill="#71a3b5" class="highcharts-point"></rect><rect x="160" y="49" width="15" height="1" fill="#71a3b5" class="highcharts-point"></rect><rect x="191" y="57" width="15" height="1" fill="#71a3b5" class="highcharts-point"></rect><rect x="221" y="64" width="15" height="1" fill="#71a3b5" class="highcharts-point"></rect><rect x="251" y="66" width="15" height="1" fill="#71a3b5" class="highcharts-point"></rect><rect x="282" y="69" width="15" height="1" fill="#71a3b5" class="highcharts-point"></rect><rect x="312" y="66" width="15" height="2" fill="#71a3b5" class="highcharts-point"></rect><rect x="343" y="65" width="15" height="2" fill="#71a3b5" class="highcharts-point"></rect><rect x="373" y="64" width="15" height="2" fill="#71a3b5" class="highcharts-point"></rect><rect x="404" y="65" width="15" height="3" fill="#71a3b5" class="highcharts-point"></rect><rect x="434" y="65" width="15" height="3" fill="#71a3b5" class="highcharts-point"></rect><rect x="464" y="62" width="15" height="3" fill="#71a3b5" class="highcharts-point"></rect></g><g data-z-index="0.1" class="highcharts-markers highcharts-series-5 highcharts-column-series " transform="translate(48,33) scale(1 1)" clip-path="none"></g><g data-z-index="0.1" class="highcharts-series highcharts-series-6 highcharts-column-series " transform="translate(48,33) scale(1 1)" clip-path="url(#highcharts-x034sgn-7)"><rect x="8" y="82" width="15" height="4" fill="#b475ab" class="highcharts-point"></rect><rect x="38" y="80" width="15" height="4" fill="#b475ab" class="highcharts-point"></rect><rect x="69" y="69" width="15" height="5" fill="#b475ab" class="highcharts-point"></rect><rect x="99" y="55" width="15" height="6" fill="#b475ab" class="highcharts-point"></rect><rect x="130" y="49" width="15" height="6" fill="#b475ab" class="highcharts-point"></rect><rect x="160" y="50" width="15" height="5" fill="#b475ab" class="highcharts-point"></rect><rect x="191" y="58" width="15" height="5" fill="#b475ab" class="highcharts-point"></rect><rect x="221" y="65" width="15" height="4" fill="#b475ab" class="highcharts-point"></rect><rect x="251" y="67" width="15" height="5" fill="#b475ab" class="highcharts-point"></rect><rect x="282" y="70" width="15" height="5" fill="#b475ab" class="highcharts-point"></rect><rect x="312" y="68" width="15" height="5" fill="#b475ab" class="highcharts-point"></rect><rect x="343" y="67" width="15" height="6" fill="#b475ab" class="highcharts-point"></rect><rect x="373" y="66" width="15" height="6" fill="#b475ab" class="highcharts-point"></rect><rect x="404" y="68" width="15" height="6" fill="#b475ab" class="highcharts-point"></rect><rect x="434" y="68" width="15" height="7" fill="#b475ab" class="highcharts-point"></rect><rect x="464" y="65" width="15" height="7" fill="#b475ab" class="highcharts-point"></rect></g><g data-z-index="0.1" class="highcharts-markers highcharts-series-6 highcharts-column-series " transform="translate(48,33) scale(1 1)" clip-path="none"></g><g data-z-index="0.1" class="highcharts-series highcharts-series-7 highcharts-column-series " transform="translate(48,33) scale(1 1)" clip-path="url(#highcharts-x034sgn-7)"><rect x="8" y="86" width="15" height="12" fill="#fabd24" class="highcharts-point"></rect><rect x="38" y="84" width="15" height="12" fill="#fabd24" class="highcharts-point"></rect><rect x="69" y="74" width="15" height="14" fill="#fabd24" class="highcharts-point"></rect><rect x="99" y="61" width="15" height="18" fill="#fabd24" class="highcharts-point"></rect><rect x="130" y="55" width="15" height="19" fill="#fabd24" class="highcharts-point"></rect><rect x="160" y="55" width="15" height="20" fill="#fabd24" class="highcharts-point"></rect><rect x="191" y="63" width="15" height="17" fill="#fabd24" class="highcharts-point"></rect><rect x="221" y="69" width="15" height="16" fill="#fabd24" class="highcharts-point"></rect><rect x="251" y="72" width="15" height="15" fill="#fabd24" class="highcharts-point"></rect><rect x="282" y="75" width="15" height="14" fill="#fabd24" class="highcharts-point"></rect><rect x="312" y="73" width="15" height="14" fill="#fabd24" class="highcharts-point"></rect><rect x="343" y="73" width="15" height="14" fill="#fabd24" class="highcharts-point"></rect><rect x="373" y="72" width="15" height="14" fill="#fabd24" class="highcharts-point"></rect><rect x="404" y="74" width="15" height="13" fill="#fabd24" class="highcharts-point"></rect><rect x="434" y="75" width="15" height="13" fill="#fabd24" class="highcharts-point"></rect><rect x="464" y="72" width="15" height="13" fill="#fabd24" class="highcharts-point"></rect></g><g data-z-index="0.1" class="highcharts-markers highcharts-series-7 highcharts-column-series " transform="translate(48,33) scale(1 1)" clip-path="none"></g><g data-z-index="0.1" class="highcharts-series highcharts-series-8 highcharts-column-series " transform="translate(48,33) scale(1 1)" clip-path="url(#highcharts-x034sgn-7)"><rect x="8" y="98" width="15" height="5" fill="#007a2f" class="highcharts-point"></rect><rect x="38" y="96" width="15" height="5" fill="#007a2f" class="highcharts-point"></rect><rect x="69" y="88" width="15" height="6" fill="#007a2f" class="highcharts-point"></rect><rect x="99" y="79" width="15" height="6" fill="#007a2f" class="highcharts-point"></rect><rect x="130" y="74" width="15" height="7" fill="#007a2f" class="highcharts-point"></rect><rect x="160" y="75" width="15" height="7" fill="#007a2f" class="highcharts-point"></rect><rect x="191" y="80" width="15" height="6" fill="#007a2f" class="highcharts-point"></rect><rect x="221" y="85" width="15" height="5" fill="#007a2f" class="highcharts-point"></rect><rect x="251" y="87" width="15" height="4" fill="#007a2f" class="highcharts-point"></rect><rect x="282" y="89" width="15" height="4" fill="#007a2f" class="highcharts-point"></rect><rect x="312" y="87" width="15" height="5" fill="#007a2f" class="highcharts-point"></rect><rect x="343" y="87" width="15" height="4" fill="#007a2f" class="highcharts-point"></rect><rect x="373" y="86" width="15" height="5" fill="#007a2f" class="highcharts-point"></rect><rect x="404" y="87" width="15" height="5" fill="#007a2f" class="highcharts-point"></rect><rect x="434" y="88" width="15" height="5" fill="#007a2f" class="highcharts-point"></rect><rect x="464" y="85" width="15" height="5" fill="#007a2f" class="highcharts-point"></rect></g><g data-z-index="0.1" class="highcharts-markers highcharts-series-8 highcharts-column-series " transform="translate(48,33) scale(1 1)" clip-path="none"></g><g data-z-index="0.1" class="highcharts-series highcharts-series-9 highcharts-column-series " transform="translate(48,33) scale(1 1)" clip-path="url(#highcharts-x034sgn-7)"><rect x="8" y="103" width="15" height="1" fill="#672773" class="highcharts-point"></rect><rect x="38" y="101" width="15" height="1" fill="#672773" class="highcharts-point"></rect><rect x="69" y="94" width="15" height="2" fill="#672773" class="highcharts-point"></rect><rect x="99" y="85" width="15" height="3" fill="#672773" class="highcharts-point"></rect><rect x="130" y="81" width="15" height="3" fill="#672773" class="highcharts-point"></rect><rect x="160" y="82" width="15" height="2" fill="#672773" class="highcharts-point"></rect><rect x="191" y="86" width="15" height="2" fill="#672773" class="highcharts-point"></rect><rect x="221" y="90" width="15" height="3" fill="#672773" class="highcharts-point"></rect><rect x="251" y="91" width="15" height="3" fill="#672773" class="highcharts-point"></rect><rect x="282" y="93" width="15" height="4" fill="#672773" class="highcharts-point"></rect><rect x="312" y="92" width="15" height="3" fill="#672773" class="highcharts-point"></rect><rect x="343" y="91" width="15" height="4" fill="#672773" class="highcharts-point"></rect><rect x="373" y="91" width="15" height="4" fill="#672773" class="highcharts-point"></rect><rect x="404" y="92" width="15" height="3" fill="#672773" class="highcharts-point"></rect><rect x="434" y="93" width="15" height="4" fill="#672773" class="highcharts-point"></rect><rect x="464" y="90" width="15" height="4" fill="#672773" class="highcharts-point"></rect></g><g data-z-index="0.1" class="highcharts-markers highcharts-series-9 highcharts-column-series " transform="translate(48,33) scale(1 1)" clip-path="none"></g><g data-z-index="0.1" class="highcharts-series highcharts-series-10 highcharts-column-series " transform="translate(48,33) scale(1 1)" clip-path="url(#highcharts-x034sgn-7)"><rect x="8" y="104" width="15" height="49" fill="#B00000" class="highcharts-point"></rect><rect x="38" y="102" width="15" height="51" fill="#B00000" class="highcharts-point"></rect><rect x="69" y="96" width="15" height="57" fill="#B00000" class="highcharts-point"></rect><rect x="99" y="88" width="15" height="65" fill="#B00000" class="highcharts-point"></rect><rect x="130" y="84" width="15" height="69" fill="#B00000" class="highcharts-point"></rect><rect x="160" y="84" width="15" height="69" fill="#B00000" class="highcharts-point"></rect><rect x="191" y="88" width="15" height="65" fill="#B00000" class="highcharts-point"></rect><rect x="221" y="93" width="15" height="60" fill="#B00000" class="highcharts-point"></rect><rect x="251" y="94" width="15" height="59" fill="#B00000" class="highcharts-point"></rect><rect x="282" y="97" width="15" height="56" fill="#B00000" class="highcharts-point"></rect><rect x="312" y="95" width="15" height="58" fill="#B00000" class="highcharts-point"></rect><rect x="343" y="95" width="15" height="58" fill="#B00000" class="highcharts-point"></rect><rect x="373" y="95" width="15" height="58" fill="#B00000" class="highcharts-point"></rect><rect x="404" y="95" width="15" height="58" fill="#B00000" class="highcharts-point"></rect><rect x="434" y="97" width="15" height="56" fill="#B00000" class="highcharts-point"></rect><rect x="464" y="94" width="15" height="59" fill="#B00000" class="highcharts-point"></rect></g><g data-z-index="0.1" class="highcharts-markers highcharts-series-10 highcharts-column-series " transform="translate(48,33) scale(1 1)" clip-path="none"></g></g><text x="2" text-anchor="start" class="highcharts-title" data-z-index="4" style="color:#000000;font-size:10px;font-weight:bold;fill:#000000;" y="12"><tspan>Anzahl Sozialhilfebeziehende nach Staatsangehörigkeit</tspan></text><text x="2" text-anchor="start" class="highcharts-subtitle" data-z-index="4" style="color:#000000;font-size:10px;font-weight:normal;font-family:Arial;fill:#000000;" y="30"></text><g class="highcharts-legend" data-z-index="7" transform="translate(547,26)"><rect fill="none" class="highcharts-legend-box" rx="0" ry="0" x="0" y="0" width="115" height="173" visibility="visible"></rect><g data-z-index="1"><g><g class="highcharts-legend-item highcharts-column-series highcharts-color-undefined highcharts-series-0" data-z-index="1" transform="translate(1,-4)"><text x="21" style="color:#333333;font-size:10px;font-weight:normal;cursor:pointer;whitespace:nowrap;fill:#333333;" text-anchor="start" data-z-index="2" y="13"><tspan>Übrige Länder</tspan></text><rect x="3" y="4" width="10" height="10" fill="#999999" class="highcharts-point" data-z-index="3"></rect></g><g class="highcharts-legend-item highcharts-column-series highcharts-color-undefined highcharts-series-1" data-z-index="1" transform="translate(1,12)"><text x="21" y="13" style="color:#333333;font-size:10px;font-weight:normal;cursor:pointer;whitespace:nowrap;fill:#333333;" text-anchor="start" data-z-index="2"><tspan>Afrikanische Länder</tspan></text><rect x="3" y="4" width="10" height="10" fill="#9f7c5a" class="highcharts-point" data-z-index="3"></rect></g><g class="highcharts-legend-item highcharts-column-series highcharts-color-undefined highcharts-series-2" data-z-index="1" transform="translate(1,28)"><text x="21" y="13" style="color:#333333;font-size:10px;font-weight:normal;cursor:pointer;whitespace:nowrap;fill:#333333;" text-anchor="start" data-z-index="2"><tspan>Arabische Länder</tspan></text><rect x="3" y="4" width="10" height="10" fill="#73ba7c" class="highcharts-point" data-z-index="3"></rect></g><g class="highcharts-legend-item highcharts-column-series highcharts-color-undefined highcharts-series-3" data-z-index="1" transform="translate(1,44)"><text x="21" y="13" style="color:#333333;font-size:10px;font-weight:normal;cursor:pointer;whitespace:nowrap;fill:#333333;" text-anchor="start" data-z-index="2"><tspan>Mittel- &amp; Südamerika</tspan></text><rect x="3" y="4" width="10" height="10" fill="#ff8028" class="highcharts-point" data-z-index="3"></rect></g><g class="highcharts-legend-item highcharts-column-series highcharts-color-undefined highcharts-series-4" data-z-index="1" transform="translate(1,60)"><text x="21" y="13" style="color:#333333;font-size:10px;font-weight:normal;cursor:pointer;whitespace:nowrap;fill:#333333;" text-anchor="start" data-z-index="2"><tspan>Balkan</tspan></text><rect x="3" y="4" width="10" height="10" fill="#b9cfd7" class="highcharts-point" data-z-index="3"></rect></g><g class="highcharts-legend-item highcharts-column-series highcharts-color-undefined highcharts-series-5" data-z-index="1" transform="translate(1,76)"><text x="21" y="13" style="color:#333333;font-size:10px;font-weight:normal;cursor:pointer;whitespace:nowrap;fill:#333333;" text-anchor="start" data-z-index="2"><tspan>EU-Ost</tspan></text><rect x="3" y="4" width="10" height="10" fill="#71a3b5" class="highcharts-point" data-z-index="3"></rect></g><g class="highcharts-legend-item highcharts-column-series highcharts-color-undefined highcharts-series-6" data-z-index="1" transform="translate(1,92)"><text x="21" y="13" style="color:#333333;font-size:10px;font-weight:normal;cursor:pointer;whitespace:nowrap;fill:#333333;" text-anchor="start" data-z-index="2"><tspan>EU-17 &amp; EFTA</tspan></text><rect x="3" y="4" width="10" height="10" fill="#b475ab" class="highcharts-point" data-z-index="3"></rect></g><g class="highcharts-legend-item highcharts-column-series highcharts-color-undefined highcharts-series-7" data-z-index="1" transform="translate(1,108)"><text x="21" y="13" style="color:#333333;font-size:10px;font-weight:normal;cursor:pointer;whitespace:nowrap;fill:#333333;" text-anchor="start" data-z-index="2"><tspan>Türkei</tspan></text><rect x="3" y="4" width="10" height="10" fill="#fabd24" class="highcharts-point" data-z-index="3"></rect></g><g class="highcharts-legend-item highcharts-column-series highcharts-color-undefined highcharts-series-8" data-z-index="1" transform="translate(1,124)"><text x="21" y="13" style="color:#333333;font-size:10px;font-weight:normal;cursor:pointer;whitespace:nowrap;fill:#333333;" text-anchor="start" data-z-index="2"><tspan>Italien</tspan></text><rect x="3" y="4" width="10" height="10" fill="#007a2f" class="highcharts-point" data-z-index="3"></rect></g><g class="highcharts-legend-item highcharts-column-series highcharts-color-undefined highcharts-series-9" data-z-index="1" transform="translate(1,140)"><text x="21" y="13" style="color:#333333;font-size:10px;font-weight:normal;cursor:pointer;whitespace:nowrap;fill:#333333;" text-anchor="start" data-z-index="2"><tspan>Deutschland</tspan></text><rect x="3" y="4" width="10" height="10" fill="#672773" class="highcharts-point" data-z-index="3"></rect></g><g class="highcharts-legend-item highcharts-column-series highcharts-color-undefined highcharts-series-10" data-z-index="1" transform="translate(1,156)"><text x="21" y="13" style="color:#333333;font-size:10px;font-weight:normal;cursor:pointer;whitespace:nowrap;fill:#333333;" text-anchor="start" data-z-index="2"><tspan>Schweiz</tspan></text><rect x="3" y="4" width="10" height="10" fill="#B00000" class="highcharts-point" data-z-index="3"></rect></g></g></g></g><g class="highcharts-axis-labels highcharts-xaxis-labels " data-z-index="7"><text x="63.21875" style="color:#000000;cursor:default;font-size:10;fill:#000000;" text-anchor="middle" transform="translate(0,0)" y="205" opacity="1">2001</text><text x="93.65625" style="color:#000000;cursor:default;font-size:10;fill:#000000;" text-anchor="middle" transform="translate(0,0)" y="205" opacity="1">2002</text><text x="124.09375" style="color:#000000;cursor:default;font-size:10;fill:#000000;" text-anchor="middle" transform="translate(0,0)" y="205" opacity="1">2003</text><text x="154.53125" style="color:#000000;cursor:default;font-size:10;fill:#000000;" text-anchor="middle" transform="translate(0,0)" y="205" opacity="1">2004</text><text x="184.96875" style="color:#000000;cursor:default;font-size:10;fill:#000000;" text-anchor="middle" transform="translate(0,0)" y="205" opacity="1">2005</text><text x="215.40625" style="color:#000000;cursor:default;font-size:10;fill:#000000;" text-anchor="middle" transform="translate(0,0)" y="205" opacity="1">2006</text><text x="245.84375" style="color:#000000;cursor:default;font-size:10;fill:#000000;" text-anchor="middle" transform="translate(0,0)" y="205" opacity="1">2007</text><text x="276.28125" style="color:#000000;cursor:default;font-size:10;fill:#000000;" text-anchor="middle" transform="translate(0,0)" y="205" opacity="1">2008</text><text x="306.71875" style="color:#000000;cursor:default;font-size:10;fill:#000000;" text-anchor="middle" transform="translate(0,0)" y="205" opacity="1">2009</text><text x="337.15625" style="color:#000000;cursor:default;font-size:10;fill:#000000;" text-anchor="middle" transform="translate(0,0)" y="205" opacity="1">2010</text><text x="367.59375" style="color:#000000;cursor:default;font-size:10;fill:#000000;" text-anchor="middle" transform="translate(0,0)" y="205" opacity="1">2011</text><text x="398.03125" style="color:#000000;cursor:default;font-size:10;fill:#000000;" text-anchor="middle" transform="translate(0,0)" y="205" opacity="1">2012</text><text x="428.46875" style="color:#000000;cursor:default;font-size:10;fill:#000000;" text-anchor="middle" transform="translate(0,0)" y="205" opacity="1">2013</text><text x="458.90625" style="color:#000000;cursor:default;font-size:10;fill:#000000;" text-anchor="middle" transform="translate(0,0)" y="205" opacity="1">2014</text><text x="489.34375" style="color:#000000;cursor:default;font-size:10;fill:#000000;" text-anchor="middle" transform="translate(0,0)" y="205" opacity="1">2015</text><text x="519.78125" style="color:#000000;cursor:default;font-size:10;fill:#000000;" text-anchor="middle" transform="translate(0,0)" y="205" opacity="1">2016</text></g><g class="highcharts-axis-labels highcharts-yaxis-labels " data-z-index="7"><text x="33" style="color:#000000;cursor:default;font-size:10;fill:#000000;" text-anchor="end" transform="translate(0,0)" y="188" opacity="1">0</text><text x="33" style="color:#000000;cursor:default;font-size:10;fill:#000000;" text-anchor="end" transform="translate(0,0)" y="163" opacity="1"><tspan>2 500</tspan></text><text x="33" style="color:#000000;cursor:default;font-size:10;fill:#000000;" text-anchor="end" transform="translate(0,0)" y="137" opacity="1"><tspan>5 000</tspan></text><text x="33" style="color:#000000;cursor:default;font-size:10;fill:#000000;" text-anchor="end" transform="translate(0,0)" y="112" opacity="1"><tspan>7 500</tspan></text><text x="33" style="color:#000000;cursor:default;font-size:10;fill:#000000;" text-anchor="end" transform="translate(0,0)" y="87" opacity="1"><tspan>10 000</tspan></text><text x="33" style="color:#000000;cursor:default;font-size:10;fill:#000000;" text-anchor="end" transform="translate(0,0)" y="61" opacity="1"><tspan>12 500</tspan></text><text x="33" style="color:#000000;cursor:default;font-size:10;fill:#000000;" text-anchor="end" transform="translate(0,0)" y="36" opacity="1"><tspan>15 000</tspan></text></g><text x="10" class="highcharts-credits" text-anchor="start" data-z-index="8" style="cursor:default;color:#000000;font-size:10;fill:#000000;" y="193"><tspan>Quelle: Statistisches Amt Basel-Stadt, Sozialhilfestatistik</tspan></text></svg>