<?xml version="1.0" standalone="no"?><!DOCTYPE svg PUBLIC "-//W3C//DTD SVG 1.1//EN" "http://www.w3.org/Graphics/SVG/1.1/DTD/svg11.dtd"><svg xmlns:xlink="http://www.w3.org/1999/xlink" version="1.1" class="highcharts-root" style="font-family:Arial;font-size:12px;" xmlns="http://www.w3.org/2000/svg" viewBox="0 0 485 415"><desc>Created with Highstock 6.1.1</desc><defs><clipPath id="highcharts-uzg8fje-6"><rect x="0" y="0" width="133" height="210" fill="none"></rect></clipPath><clipPath id="highcharts-uzg8fje-7"><rect x="0" y="0" width="133" height="210" fill="none"></rect></clipPath></defs><rect fill="#fbfbfb" class="highcharts-background" x="0" y="0" width="320" height="208" rx="0" ry="0"></rect><rect fill="none" class="highcharts-plot-background" x="108" y="42" width="210" height="133"></rect><g class="highcharts-pane-group" data-z-index="0"></g><g class="highcharts-grid highcharts-xaxis-grid " data-z-index="1"><path fill="none" data-z-index="1" class="highcharts-grid-line" d="M 108 54.5 L 318 54.5" opacity="1"></path><path fill="none" data-z-index="1" class="highcharts-grid-line" d="M 108 66.5 L 318 66.5" opacity="1"></path><path fill="none" data-z-index="1" class="highcharts-grid-line" d="M 108 78.5 L 318 78.5" opacity="1"></path><path fill="none" data-z-index="1" class="highcharts-grid-line" d="M 108 90.5 L 318 90.5" opacity="1"></path><path fill="none" data-z-index="1" class="highcharts-grid-line" d="M 108 102.5 L 318 102.5" opacity="1"></path><path fill="none" data-z-index="1" class="highcharts-grid-line" d="M 108 115.5 L 318 115.5" opacity="1"></path><path fill="none" data-z-index="1" class="highcharts-grid-line" d="M 108 127.5 L 318 127.5" opacity="1"></path><path fill="none" data-z-index="1" class="highcharts-grid-line" d="M 108 139.5 L 318 139.5" opacity="1"></path><path fill="none" data-z-index="1" class="highcharts-grid-line" d="M 108 151.5 L 318 151.5" opacity="1"></path><path fill="none" data-z-index="1" class="highcharts-grid-line" d="M 108 163.5 L 318 163.5" opacity="1"></path><path fill="none" data-z-index="1" class="highcharts-grid-line" d="M 108 175.5 L 318 175.5" opacity="1"></path><path fill="none" data-z-index="1" class="highcharts-grid-line" d="M 108 42.5 L 318 42.5" opacity="1"></path></g><g class="highcharts-grid highcharts-yaxis-grid " data-z-index="1"><path fill="none" stroke="#B9CFD7" stroke-width="0.5" data-z-index="1" class="highcharts-grid-line" d="M 107.75 42 L 107.75 175" opacity="1"></path><path fill="none" stroke="#B9CFD7" stroke-width="0.5" data-z-index="1" class="highcharts-grid-line" d="M 149.75 42 L 149.75 175" opacity="1"></path><path fill="none" stroke="#B9CFD7" stroke-width="0.5" data-z-index="1" class="highcharts-grid-line" d="M 191.75 42 L 191.75 175" opacity="1"></path><path fill="none" stroke="#B9CFD7" stroke-width="0.5" data-z-index="1" class="highcharts-grid-line" d="M 233.75 42 L 233.75 175" opacity="1"></path><path fill="none" stroke="#B9CFD7" stroke-width="0.5" data-z-index="1" class="highcharts-grid-line" d="M 275.75 42 L 275.75 175" opacity="1"></path><path fill="none" stroke="#B9CFD7" stroke-width="0.5" data-z-index="1" class="highcharts-grid-line" d="M 318.25 42 L 318.25 175" opacity="1"></path></g><rect fill="none" class="highcharts-plot-border" data-z-index="1" x="108" y="42" width="210" height="133"></rect><g class="highcharts-axis highcharts-xaxis " data-z-index="2"><path fill="none" class="highcharts-axis-line" stroke="#B9CFD7" stroke-width="0.5" data-z-index="7" d="M 107.75 42 L 107.75 175"></path></g><g class="highcharts-axis highcharts-yaxis " data-z-index="2"><path fill="none" class="highcharts-axis-line" data-z-index="7" d="M 108 175 L 318 175"></path></g><g class="highcharts-series-group" data-z-index="3"><g data-z-index="0.1" class="highcharts-series highcharts-series-0 highcharts-column-series " transform="translate(318,175) rotate(90) scale(-1,1) scale(1 1)" clip-path="url(#highcharts-uzg8fje-7)"><rect x="124" y="22" width="6" height="189" fill="#b00000" class="highcharts-point highcharts-color-0"></rect><rect x="112" y="32" width="6" height="179" fill="#672773" class="highcharts-point highcharts-color-1"></rect><rect x="100" y="61" width="6" height="150" fill="#007a2f" class="highcharts-point highcharts-color-2"></rect><rect x="88" y="104" width="6" height="107" fill="#fabd24" class="highcharts-point highcharts-color-3"></rect><rect x="76" y="58" width="6" height="153" fill="#b475ab" class="highcharts-point highcharts-color-4"></rect><rect x="64" y="76" width="6" height="135" fill="#71a3b5" class="highcharts-point highcharts-color-5"></rect><rect x="52" y="111" width="6" height="100" fill="#b9cfd7" class="highcharts-point highcharts-color-6"></rect><rect x="39" y="76" width="6" height="135" fill="#ff8028" class="highcharts-point highcharts-color-7"></rect><rect x="27" y="107" width="6" height="104" fill="#73ba7c" class="highcharts-point highcharts-color-8"></rect><rect x="15" y="106" width="6" height="105" fill="#9f7c5a" class="highcharts-point highcharts-color-9"></rect><rect x="3" y="74" width="6" height="137" fill="#999999" class="highcharts-point highcharts-color-10"></rect></g><g data-z-index="0.1" class="highcharts-markers highcharts-series-0 highcharts-column-series " transform="translate(318,175) rotate(90) scale(-1,1) scale(1 1)" clip-path="none"></g></g><text x="2" text-anchor="start" class="highcharts-title" data-z-index="4" style="color:#000000;font-size:10px;font-weight:bold;fill:#000000;" y="9"><tspan>Mittlere Wohnfläche pro Person</tspan></text><text x="2" text-anchor="start" class="highcharts-subtitle" data-z-index="4" style="color:#000000;font-size:10px;font-weight:normal;font-family:Arial;fill:#000000;" y="26"><tspan>in m² nach Staatsangehörigkeit, Basel-Stadt, 2017</tspan></text><g class="highcharts-axis-labels highcharts-xaxis-labels " data-z-index="7"><text x="103" style="color:#000000;cursor:default;font-size:10px;fill:#000000;" text-anchor="end" transform="translate(0,0)" y="51" opacity="1">Schweiz</text><text x="103" style="color:#000000;cursor:default;font-size:10px;fill:#000000;" text-anchor="end" transform="translate(0,0)" y="63" opacity="1">Deutschland</text><text x="103" style="color:#000000;cursor:default;font-size:10px;fill:#000000;" text-anchor="end" transform="translate(0,0)" y="75" opacity="1">Italien</text><text x="103" style="color:#000000;cursor:default;font-size:10px;fill:#000000;" text-anchor="end" transform="translate(0,0)" y="87" opacity="1">Türkei</text><text x="103" style="color:#000000;cursor:default;font-size:10px;fill:#000000;" text-anchor="end" transform="translate(0,0)" y="99" opacity="1"><tspan>EU-17 + EFTA</tspan></text><text x="103" style="color:#000000;cursor:default;font-size:10px;fill:#000000;" text-anchor="end" transform="translate(0,0)" y="111" opacity="1">EU-Ost</text><text x="103" style="color:#000000;cursor:default;font-size:10px;fill:#000000;" text-anchor="end" transform="translate(0,0)" y="124" opacity="1">Balkan</text><text x="103" style="color:#000000;cursor:default;font-size:10px;fill:#000000;" text-anchor="end" transform="translate(0,0)" y="136" opacity="1"><tspan>Mittel- u. Südamerika</tspan></text><text x="103" style="color:#000000;cursor:default;font-size:10px;fill:#000000;" text-anchor="end" transform="translate(0,0)" y="148" opacity="1"><tspan>Arabische Länder</tspan></text><text x="103" style="color:#000000;cursor:default;font-size:10px;fill:#000000;" text-anchor="end" transform="translate(0,0)" y="160" opacity="1"><tspan>Afrikanische Länder</tspan></text><text x="103" style="color:#000000;cursor:default;font-size:10px;fill:#000000;" text-anchor="end" transform="translate(0,0)" y="172" opacity="1"><tspan>Übrige Länder</tspan></text></g><g class="highcharts-axis-labels highcharts-yaxis-labels " data-z-index="7"><text x="108" style="color:#000000;cursor:default;font-size:10px;fill:#000000;" text-anchor="middle" transform="translate(0,0)" y="193" opacity="1">0</text><text x="150" style="color:#000000;cursor:default;font-size:10px;fill:#000000;" text-anchor="middle" transform="translate(0,0)" y="193" opacity="1">10</text><text x="192" style="color:#000000;cursor:default;font-size:10px;fill:#000000;" text-anchor="middle" transform="translate(0,0)" y="193" opacity="1">20</text><text x="234" style="color:#000000;cursor:default;font-size:10px;fill:#000000;" text-anchor="middle" transform="translate(0,0)" y="193" opacity="1">30</text><text x="276" style="color:#000000;cursor:default;font-size:10px;fill:#000000;" text-anchor="middle" transform="translate(0,0)" y="193" opacity="1">40</text><text x="312" style="color:#000000;cursor:default;font-size:10px;fill:#000000;" text-anchor="middle" transform="translate(0,0)" y="193" opacity="1">50</text></g><text x="10" class="highcharts-credits" text-anchor="start" data-z-index="8" style="cursor:default;color:#000000;font-size:10;fill:#000000;" y="183"><tspan>Quelle: Statistisches Amt Basel-Stadt, Bevölkerungsstatistik;</tspan><tspan x="10" dy="15">Statistisches Amt Basel-Stadt, Gebäude- und Wohnungsstatistik.</tspan></text></svg>