<?xml version="1.0" standalone="no"?><!DOCTYPE svg PUBLIC "-//W3C//DTD SVG 1.1//EN" "http://www.w3.org/Graphics/SVG/1.1/DTD/svg11.dtd"><svg xmlns:xlink="http://www.w3.org/1999/xlink" version="1.1" class="highcharts-root" style="font-family:Arial;font-size:12px;" xmlns="http://www.w3.org/2000/svg" viewBox="0 0 485 415"><desc>Created with Highstock 6.1.0</desc><defs><clipPath id="highcharts-bv0myg8-6"><rect x="0" y="0" width="144" height="218" fill="none"></rect></clipPath><clipPath id="highcharts-bv0myg8-7"><rect x="0" y="0" width="144" height="218" fill="none"></rect></clipPath></defs><rect fill="#fbfbfb" class="highcharts-background" x="0" y="0" width="320" height="208" rx="0" ry="0"></rect><rect fill="none" class="highcharts-plot-background" x="100" y="43" width="218" height="144"></rect><g class="highcharts-pane-group"></g><g class="highcharts-grid highcharts-xaxis-grid "><path fill="none" class="highcharts-grid-line" d="M 100 56.5 L 318 56.5" opacity="1"></path><path fill="none" class="highcharts-grid-line" d="M 100 69.5 L 318 69.5" opacity="1"></path><path fill="none" class="highcharts-grid-line" d="M 100 82.5 L 318 82.5" opacity="1"></path><path fill="none" class="highcharts-grid-line" d="M 100 95.5 L 318 95.5" opacity="1"></path><path fill="none" class="highcharts-grid-line" d="M 100 108.5 L 318 108.5" opacity="1"></path><path fill="none" class="highcharts-grid-line" d="M 100 122.5 L 318 122.5" opacity="1"></path><path fill="none" class="highcharts-grid-line" d="M 100 135.5 L 318 135.5" opacity="1"></path><path fill="none" class="highcharts-grid-line" d="M 100 148.5 L 318 148.5" opacity="1"></path><path fill="none" class="highcharts-grid-line" d="M 100 161.5 L 318 161.5" opacity="1"></path><path fill="none" class="highcharts-grid-line" d="M 100 174.5 L 318 174.5" opacity="1"></path><path fill="none" class="highcharts-grid-line" d="M 100 187.5 L 318 187.5" opacity="1"></path><path fill="none" class="highcharts-grid-line" d="M 100 43.5 L 318 43.5" opacity="1"></path></g><g class="highcharts-grid highcharts-yaxis-grid "><path fill="none" stroke="#B9CFD7" stroke-width="0.5" class="highcharts-grid-line" d="M 99.75 43 L 99.75 187" opacity="1"></path><path fill="none" stroke="#B9CFD7" stroke-width="0.5" class="highcharts-grid-line" d="M 172.75 43 L 172.75 187" opacity="1"></path><path fill="none" stroke="#B9CFD7" stroke-width="0.5" class="highcharts-grid-line" d="M 244.75 43 L 244.75 187" opacity="1"></path><path fill="none" stroke="#B9CFD7" stroke-width="0.5" class="highcharts-grid-line" d="M 318.25 43 L 318.25 187" opacity="1"></path></g><rect fill="none" class="highcharts-plot-border" x="100" y="43" width="218" height="144"></rect><g class="highcharts-axis highcharts-xaxis "><path fill="none" class="highcharts-axis-line" stroke="#B9CFD7" stroke-width="0.5" d="M 99.75 43 L 99.75 187"></path></g><g class="highcharts-axis highcharts-yaxis "><path fill="none" class="highcharts-axis-line" d="M 100 187 L 318 187"></path></g><g class="highcharts-series-group"><g class="highcharts-series highcharts-series-0 highcharts-column-series " transform="translate(318,187) rotate(90) scale(-1,1) scale(1 1)" clip-path="url(#highcharts-bv0myg8-7)"><rect x="134" y="83" width="7" height="136" fill="#b00000" class="highcharts-point highcharts-color-0"></rect><rect x="121" y="88" width="7" height="131" fill="#672773" class="highcharts-point highcharts-color-1"></rect><rect x="108" y="73" width="7" height="146" fill="#007a2f" class="highcharts-point highcharts-color-2"></rect><rect x="95" y="24" width="7" height="195" fill="#fabd24" class="highcharts-point highcharts-color-3"></rect><rect x="82" y="67" width="7" height="152" fill="#b475ab" class="highcharts-point highcharts-color-4"></rect><rect x="69" y="72" width="7" height="147" fill="#71a3b5" class="highcharts-point highcharts-color-5"></rect><rect x="56" y="16" width="7" height="203" fill="#b9cfd7" class="highcharts-point highcharts-color-6"></rect><rect x="43" y="58" width="7" height="161" fill="#ff8028" class="highcharts-point highcharts-color-7"></rect><rect x="30" y="26" width="7" height="193" fill="#73ba7c" class="highcharts-point highcharts-color-8"></rect><rect x="16" y="42" width="7" height="177" fill="#9f7c5a" class="highcharts-point highcharts-color-9"></rect><rect x="3" y="46" width="7" height="173" fill="#999999" class="highcharts-point highcharts-color-10"></rect></g><g class="highcharts-markers highcharts-series-0 highcharts-column-series " transform="translate(318,187) rotate(90) scale(-1,1) scale(1 1)" clip-path="none"></g></g><text x="2" text-anchor="start" class="highcharts-title" style="color:#000000;font-size:10px;font-weight:bold;fill:#000000;" y="9"><tspan>Mittlere Anzahl Personen pro Haushalt</tspan></text><text x="2" text-anchor="start" class="highcharts-subtitle" style="color:#000000;font-size:10px;font-weight:normal;font-family:Arial;fill:#000000;" y="27"><tspan>nach Staatsangehörigkeit, Stand: 2016</tspan></text><g class="highcharts-axis-labels highcharts-xaxis-labels "><text x="95" style="color:#000000;cursor:default;font-size:10;fill:#000000;" text-anchor="end" transform="translate(0,0)" y="55" opacity="1">Schweiz</text><text x="95" style="color:#000000;cursor:default;font-size:10;fill:#000000;" text-anchor="end" transform="translate(0,0)" y="68" opacity="1">Deutschland</text><text x="95" style="color:#000000;cursor:default;font-size:10;fill:#000000;" text-anchor="end" transform="translate(0,0)" y="81" opacity="1">Italien</text><text x="95" style="color:#000000;cursor:default;font-size:10;fill:#000000;" text-anchor="end" transform="translate(0,0)" y="94" opacity="1">Türkei</text><text x="95" style="color:#000000;cursor:default;font-size:10;fill:#000000;" text-anchor="end" transform="translate(0,0)" y="107" opacity="1"><tspan>EU-17 &amp; EFTA</tspan></text><text x="95" style="color:#000000;cursor:default;font-size:10;fill:#000000;" text-anchor="end" transform="translate(0,0)" y="120" opacity="1">EU-Ost</text><text x="95" style="color:#000000;cursor:default;font-size:10;fill:#000000;" text-anchor="end" transform="translate(0,0)" y="134" opacity="1">Balkan</text><text x="95" style="color:#000000;cursor:default;font-size:10;fill:#000000;" text-anchor="end" transform="translate(0,0)" y="147" opacity="1"><tspan>Mittel- &amp; Südamerika</tspan></text><text x="95" style="color:#000000;cursor:default;font-size:10;fill:#000000;" text-anchor="end" transform="translate(0,0)" y="160" opacity="1"><tspan>Arabische Länder</tspan></text><text x="95" style="color:#000000;cursor:default;font-size:10;fill:#000000;" text-anchor="end" transform="translate(0,0)" y="173" opacity="1"><tspan>Afrikanische Länder</tspan></text><text x="95" style="color:#000000;cursor:default;font-size:10;fill:#000000;" text-anchor="end" transform="translate(0,0)" y="186" opacity="1"><tspan>Übrige Länder</tspan></text></g><g class="highcharts-axis-labels highcharts-yaxis-labels "><text x="100" style="color:#000000;cursor:default;font-size:10;fill:#000000;" text-anchor="middle" transform="translate(0,0)" y="205" opacity="1">0.0</text><text x="172.66666666667" style="color:#000000;cursor:default;font-size:10;fill:#000000;" text-anchor="middle" transform="translate(0,0)" y="205" opacity="1">1.0</text><text x="245.33333333333" style="color:#000000;cursor:default;font-size:10;fill:#000000;" text-anchor="middle" transform="translate(0,0)" y="205" opacity="1">2.0</text><text x="311.0703125" style="color:#000000;cursor:default;font-size:10;fill:#000000;" text-anchor="middle" transform="translate(0,0)" y="205" opacity="1">3.0</text></g><text x="10" class="highcharts-credits" text-anchor="start" style="cursor:default;color:#000000;font-size:10;fill:#000000;" y="193"><tspan>Quelle: Statistisches Amt Basel-Stadt, Bevölkerungsstatistik</tspan></text></svg>