<?xml version="1.0" standalone="no"?><!DOCTYPE svg PUBLIC "-//W3C//DTD SVG 1.1//EN" "http://www.w3.org/Graphics/SVG/1.1/DTD/svg11.dtd"><svg xmlns:xlink="http://www.w3.org/1999/xlink" version="1.1" class="highcharts-root" style="font-family:Arial;font-size:12px;" xmlns="http://www.w3.org/2000/svg" viewBox="0 0 485 415"><desc>Created with Highstock 6.1.0</desc><defs><clipPath id="highcharts-fxdpafd-6"><rect x="0" y="0" width="123" height="216" fill="none"></rect></clipPath><clipPath id="highcharts-fxdpafd-7"><rect x="0" y="0" width="123" height="216" fill="none"></rect></clipPath></defs><rect fill="#fbfbfb" class="highcharts-background" x="0" y="0" width="320" height="208" rx="0" ry="0"></rect><rect fill="none" class="highcharts-plot-background" x="101" y="48" width="216" height="123"></rect><g class="highcharts-pane-group"></g><g class="highcharts-grid highcharts-xaxis-grid "><path fill="none" class="highcharts-grid-line" d="M 101 59.5 L 317 59.5" opacity="1"></path><path fill="none" class="highcharts-grid-line" d="M 101 70.5 L 317 70.5" opacity="1"></path><path fill="none" class="highcharts-grid-line" d="M 101 82.5 L 317 82.5" opacity="1"></path><path fill="none" class="highcharts-grid-line" d="M 101 93.5 L 317 93.5" opacity="1"></path><path fill="none" class="highcharts-grid-line" d="M 101 104.5 L 317 104.5" opacity="1"></path><path fill="none" class="highcharts-grid-line" d="M 101 115.5 L 317 115.5" opacity="1"></path><path fill="none" class="highcharts-grid-line" d="M 101 126.5 L 317 126.5" opacity="1"></path><path fill="none" class="highcharts-grid-line" d="M 101 137.5 L 317 137.5" opacity="1"></path><path fill="none" class="highcharts-grid-line" d="M 101 149.5 L 317 149.5" opacity="1"></path><path fill="none" class="highcharts-grid-line" d="M 101 160.5 L 317 160.5" opacity="1"></path><path fill="none" class="highcharts-grid-line" d="M 101 171.5 L 317 171.5" opacity="1"></path><path fill="none" class="highcharts-grid-line" d="M 101 48.5 L 317 48.5" opacity="1"></path></g><g class="highcharts-grid highcharts-yaxis-grid "><path fill="none" stroke="#B9CFD7" stroke-width="0.5" class="highcharts-grid-line" d="M 100.75 48 L 100.75 171" opacity="1"></path><path fill="none" stroke="#B9CFD7" stroke-width="0.5" class="highcharts-grid-line" d="M 172.75 48 L 172.75 171" opacity="1"></path><path fill="none" stroke="#B9CFD7" stroke-width="0.5" class="highcharts-grid-line" d="M 244.75 48 L 244.75 171" opacity="1"></path><path fill="none" stroke="#B9CFD7" stroke-width="0.5" class="highcharts-grid-line" d="M 317.25 48 L 317.25 171" opacity="1"></path></g><rect fill="none" class="highcharts-plot-border" x="101" y="48" width="216" height="123"></rect><g class="highcharts-axis highcharts-xaxis "><path fill="none" class="highcharts-axis-line" stroke="#B9CFD7" stroke-width="0.5" d="M 100.75 48 L 100.75 171"></path></g><g class="highcharts-axis highcharts-yaxis "><path fill="none" class="highcharts-axis-line" d="M 101 171 L 317 171"></path></g><g class="highcharts-series-group"><g class="highcharts-series highcharts-series-0 highcharts-column-series " transform="translate(317,171) rotate(90) scale(-1,1) scale(1 1)" clip-path="url(#highcharts-fxdpafd-7)"><rect x="115" y="83" width="6" height="134" fill="#b00000" class="highcharts-point highcharts-color-0"></rect><rect x="104" y="87" width="6" height="130" fill="#672773" class="highcharts-point highcharts-color-1"></rect><rect x="92" y="73" width="6" height="144" fill="#007a2f" class="highcharts-point highcharts-color-2"></rect><rect x="81" y="24" width="6" height="193" fill="#fabd24" class="highcharts-point highcharts-color-3"></rect><rect x="70" y="66" width="6" height="151" fill="#b475ab" class="highcharts-point highcharts-color-4"></rect><rect x="59" y="71" width="6" height="146" fill="#71a3b5" class="highcharts-point highcharts-color-5"></rect><rect x="48" y="15" width="6" height="202" fill="#b9cfd7" class="highcharts-point highcharts-color-6"></rect><rect x="36" y="57" width="6" height="160" fill="#ff8028" class="highcharts-point highcharts-color-7"></rect><rect x="25" y="26" width="6" height="191" fill="#73ba7c" class="highcharts-point highcharts-color-8"></rect><rect x="14" y="41" width="6" height="176" fill="#9f7c5a" class="highcharts-point highcharts-color-9"></rect><rect x="3" y="46" width="6" height="171" fill="#999999" class="highcharts-point highcharts-color-10"></rect></g><g class="highcharts-markers highcharts-series-0 highcharts-column-series " transform="translate(317,171) rotate(90) scale(-1,1) scale(1 1)" clip-path="none"></g></g><text x="3" text-anchor="start" class="highcharts-title" style="color:#000000;font-size:10px;font-weight:bold;fill:#000000;" y="14"><tspan>Mittlere Anzahl Personen pro Haushalt</tspan></text><text x="3" text-anchor="start" class="highcharts-subtitle" style="color:#000000;font-size:10px;font-weight:normal;font-family:Arial;fill:#000000;" y="32"><tspan>nach Staatsangehörigkeit, Stand: 2016</tspan></text><g class="highcharts-axis-labels highcharts-xaxis-labels "><text x="96" style="color:#000000;cursor:default;font-size:10;fill:#000000;" text-anchor="end" transform="translate(0,0)" y="59" opacity="1">Schweiz</text><text x="96" style="color:#000000;cursor:default;font-size:10;fill:#000000;" text-anchor="end" transform="translate(0,0)" y="70" opacity="1">Deutschland</text><text x="96" style="color:#000000;cursor:default;font-size:10;fill:#000000;" text-anchor="end" transform="translate(0,0)" y="81" opacity="1">Italien</text><text x="96" style="color:#000000;cursor:default;font-size:10;fill:#000000;" text-anchor="end" transform="translate(0,0)" y="93" opacity="1">Türkei</text><text x="96" style="color:#000000;cursor:default;font-size:10;fill:#000000;" text-anchor="end" transform="translate(0,0)" y="104" opacity="1"><tspan>EU-17 &amp; EFTA</tspan></text><text x="96" style="color:#000000;cursor:default;font-size:10;fill:#000000;" text-anchor="end" transform="translate(0,0)" y="115" opacity="1">EU-Ost</text><text x="96" style="color:#000000;cursor:default;font-size:10;fill:#000000;" text-anchor="end" transform="translate(0,0)" y="126" opacity="1">Balkan</text><text x="96" style="color:#000000;cursor:default;font-size:10;fill:#000000;" text-anchor="end" transform="translate(0,0)" y="137" opacity="1"><tspan>Mittel- &amp; Südamerika</tspan></text><text x="96" style="color:#000000;cursor:default;font-size:10;fill:#000000;" text-anchor="end" transform="translate(0,0)" y="149" opacity="1"><tspan>Arabische Länder</tspan></text><text x="96" style="color:#000000;cursor:default;font-size:10;fill:#000000;" text-anchor="end" transform="translate(0,0)" y="160" opacity="1"><tspan>Afrikanische Länder</tspan></text><text x="96" style="color:#000000;cursor:default;font-size:10;fill:#000000;" text-anchor="end" transform="translate(0,0)" y="171" opacity="1"><tspan>Übrige Länder</tspan></text></g><g class="highcharts-axis-labels highcharts-yaxis-labels "><text x="101" style="color:#000000;cursor:default;font-size:10;fill:#000000;" text-anchor="middle" transform="translate(0,0)" y="189" opacity="1">0.0</text><text x="173" style="color:#000000;cursor:default;font-size:10;fill:#000000;" text-anchor="middle" transform="translate(0,0)" y="189" opacity="1">1.0</text><text x="245" style="color:#000000;cursor:default;font-size:10;fill:#000000;" text-anchor="middle" transform="translate(0,0)" y="189" opacity="1">2.0</text><text x="310.0703125" style="color:#000000;cursor:default;font-size:10;fill:#000000;" text-anchor="middle" transform="translate(0,0)" y="189" opacity="1">3.0</text></g><text x="10" class="highcharts-credits" text-anchor="start" style="cursor:default;color:#000000;font-size:10;fill:#000000;" y="183"><tspan>Quelle: Statistisches Amt Basel-Stadt, Bevölkerungsstatistik;</tspan><tspan x="10" dy="15">Statistisches Amt Basel-Stadt, Gebäude- und Wohnungsstatistik</tspan></text></svg>