<?xml version="1.0" standalone="no"?><!DOCTYPE svg PUBLIC "-//W3C//DTD SVG 1.1//EN" "http://www.w3.org/Graphics/SVG/1.1/DTD/svg11.dtd"><svg xmlns:xlink="http://www.w3.org/1999/xlink" version="1.1" class="highcharts-root" style="font-family:Arial;font-size:12px;" xmlns="http://www.w3.org/2000/svg" viewBox="0 0 485 415"><desc>Created with Highstock 6.1.1</desc><defs><clipPath id="highcharts-g53zxz2-6"><rect x="0" y="0" width="284" height="35" fill="none"></rect></clipPath><clipPath id="highcharts-g53zxz2-7"><rect x="0" y="0" width="284" height="35" fill="none"></rect></clipPath></defs><rect fill="#fbfbfb" class="highcharts-background" x="0" y="0" width="320" height="208" rx="0" ry="0"></rect><rect fill="none" class="highcharts-plot-background" x="34" y="138" width="284" height="35"></rect><g class="highcharts-pane-group" data-z-index="0"></g><g class="highcharts-grid highcharts-xaxis-grid " data-z-index="1"><path fill="none" data-z-index="1" class="highcharts-grid-line" d="M 36.5 138 L 36.5 173" opacity="1"></path><path fill="none" data-z-index="1" class="highcharts-grid-line" d="M 64.5 138 L 64.5 173" opacity="1"></path><path fill="none" data-z-index="1" class="highcharts-grid-line" d="M 91.5 138 L 91.5 173" opacity="1"></path><path fill="none" data-z-index="1" class="highcharts-grid-line" d="M 119.5 138 L 119.5 173" opacity="1"></path><path fill="none" data-z-index="1" class="highcharts-grid-line" d="M 147.5 138 L 147.5 173" opacity="1"></path><path fill="none" data-z-index="1" class="highcharts-grid-line" d="M 175.5 138 L 175.5 173" opacity="1"></path><path fill="none" data-z-index="1" class="highcharts-grid-line" d="M 203.5 138 L 203.5 173" opacity="1"></path><path fill="none" data-z-index="1" class="highcharts-grid-line" d="M 231.5 138 L 231.5 173" opacity="1"></path><path fill="none" data-z-index="1" class="highcharts-grid-line" d="M 259.5 138 L 259.5 173" opacity="1"></path><path fill="none" data-z-index="1" class="highcharts-grid-line" d="M 286.5 138 L 286.5 173" opacity="1"></path><path fill="none" data-z-index="1" class="highcharts-grid-line" d="M 314.5 138 L 314.5 173" opacity="1"></path></g><g class="highcharts-grid highcharts-yaxis-grid " data-z-index="1"><path fill="none" stroke="#B9CFD7" stroke-width="0.5" data-z-index="1" class="highcharts-grid-line" d="M 34 173.25 L 318 173.25" opacity="1"></path><path fill="none" stroke="#B9CFD7" stroke-width="0.5" data-z-index="1" class="highcharts-grid-line" d="M 34 156.25 L 318 156.25" opacity="1"></path><path fill="none" stroke="#B9CFD7" stroke-width="0.5" data-z-index="1" class="highcharts-grid-line" d="M 34 137.75 L 318 137.75" opacity="1"></path></g><rect fill="none" class="highcharts-plot-border" data-z-index="1" x="34" y="138" width="284" height="35"></rect><g class="highcharts-axis highcharts-xaxis " data-z-index="2"><path fill="none" class="highcharts-axis-line" stroke="#B9CFD7" stroke-width="0.5" data-z-index="7" d="M 34 173.25 L 318 173.25"></path></g><g class="highcharts-axis highcharts-yaxis " data-z-index="2"><path fill="none" class="highcharts-axis-line" data-z-index="7" d="M 34 138 L 34 173"></path></g><g class="highcharts-series-group" data-z-index="3"><g data-z-index="0.1" class="highcharts-series highcharts-series-0 highcharts-line-series " transform="translate(34,138) scale(1 1)" clip-path="url(#highcharts-g53zxz2-7)"><path fill="none" d="M 2.7843137254877 33.11 L 30.62745098039 31.745 L 58.470588235293 31.01 L 86.313725490195 31.29 L 114.1568627451 31.36 L 142 31.535 L 169.8431372549 30.59 L 197.6862745098 29.82 L 225.52941176471 28.945 L 253.37254901961 31.29 L 281.21568627451 27.79" class="highcharts-graph" data-z-index="1" stroke="#672773" stroke-width="2" stroke-linejoin="round" stroke-linecap="round"></path></g><g data-z-index="0.1" class="highcharts-markers highcharts-series-0 highcharts-line-series " transform="translate(34,138) scale(1 1)" clip-path="none"></g><g data-z-index="0.1" class="highcharts-series highcharts-series-1 highcharts-line-series " transform="translate(34,138) scale(1 1)" clip-path="url(#highcharts-g53zxz2-7)"><path fill="none" d="M 2.7843137254877 31.22 L 30.62745098039 30.415 L 58.470588235293 32.445 L 86.313725490195 33.11 L 114.1568627451 32.095 L 142 31.92 L 169.8431372549 32.445 L 197.6862745098 31.080000000000002 L 225.52941176471 30.905 L 253.37254901961 32.83 L 281.21568627451 29.225" class="highcharts-graph" data-z-index="1" stroke="#007a2f" stroke-width="2" stroke-linejoin="round" stroke-linecap="round"></path></g><g data-z-index="0.1" class="highcharts-markers highcharts-series-1 highcharts-line-series " transform="translate(34,138) scale(1 1)" clip-path="none"></g><g data-z-index="0.1" class="highcharts-series highcharts-series-2 highcharts-line-series " transform="translate(34,138) scale(1 1)" clip-path="url(#highcharts-g53zxz2-7)"><path fill="none" d="M 2.7843137254877 12.495000000000001 L 30.62745098039 14.595000000000002 L 58.470588235293 20.895000000000003 L 86.313725490195 26.880000000000003 L 114.1568627451 28.35 L 142 26.845 L 169.8431372549 25.515 L 197.6862745098 29.330000000000002 L 225.52941176471 26.355 L 253.37254901961 30.415 L 281.21568627451 28.560000000000002" class="highcharts-graph" data-z-index="1" stroke="#fabd24" stroke-width="2" stroke-linejoin="round" stroke-linecap="round"></path></g><g data-z-index="0.1" class="highcharts-markers highcharts-series-2 highcharts-line-series " transform="translate(34,138) scale(1 1)" clip-path="none"></g><g data-z-index="0.1" class="highcharts-series highcharts-series-3 highcharts-line-series " transform="translate(34,138) scale(1 1)" clip-path="url(#highcharts-g53zxz2-7)"><path fill="none" d="M 2.7843137254877 32.13 L 30.62745098039 32.48 L 58.470588235293 33.285 L 86.313725490195 32.865 L 114.1568627451 33.18 L 142 32.795 L 169.8431372549 31.955000000000002 L 197.6862745098 32.48 L 225.52941176471 31.15 L 253.37254901961 32.76 L 281.21568627451 31.57" class="highcharts-graph" data-z-index="1" stroke="#b475ab" stroke-width="2" stroke-linejoin="round" stroke-linecap="round"></path></g><g data-z-index="0.1" class="highcharts-markers highcharts-series-3 highcharts-line-series " transform="translate(34,138) scale(1 1)" clip-path="none"></g><g data-z-index="0.1" class="highcharts-series highcharts-series-4 highcharts-line-series " transform="translate(34,138) scale(1 1)" clip-path="url(#highcharts-g53zxz2-7)"><path fill="none" d="M 2.7843137254877 27.265 L 30.62745098039 28.595 L 58.470588235293 32.025 L 86.313725490195 33.04 L 114.1568627451 30.73 L 142 32.69 L 169.8431372549 32.865 L 197.6862745098 32.585 L 225.52941176471 32.55 L 253.37254901961 32.725 L 281.21568627451 31.815" class="highcharts-graph" data-z-index="1" stroke="#71a3b5" stroke-width="2" stroke-linejoin="round" stroke-linecap="round"></path></g><g data-z-index="0.1" class="highcharts-markers highcharts-series-4 highcharts-line-series " transform="translate(34,138) scale(1 1)" clip-path="none"></g><g data-z-index="0.1" class="highcharts-series highcharts-series-5 highcharts-line-series " transform="translate(34,138) scale(1 1)" clip-path="url(#highcharts-g53zxz2-7)"><path fill="none" d="M 2.7843137254877 3.4650000000000034 L 30.62745098039 8.225000000000001 L 58.470588235293 19.215 L 86.313725490195 24.78 L 114.1568627451 27.72 L 142 28.28 L 169.8431372549 24.43 L 197.6862745098 26.215 L 225.52941176471 25.27 L 253.37254901961 29.225 L 281.21568627451 24.92" class="highcharts-graph" data-z-index="1" stroke="#b9cfd7" stroke-width="2" stroke-linejoin="round" stroke-linecap="round"></path></g><g data-z-index="0.1" class="highcharts-markers highcharts-series-5 highcharts-line-series " transform="translate(34,138) scale(1 1)" clip-path="none"></g><g data-z-index="0.1" class="highcharts-series highcharts-series-6 highcharts-line-series " transform="translate(34,138) scale(1 1)" clip-path="url(#highcharts-g53zxz2-7)"><path fill="none" d="M 2.7843137254877 19.53 L 30.62745098039 25.585 L 58.470588235293 28.91 L 86.313725490195 28.595 L 114.1568627451 26.67 L 142 27.475 L 169.8431372549 26.67 L 197.6862745098 25.97 L 225.52941176471 26.25 L 253.37254901961 28.490000000000002 L 281.21568627451 22.365000000000002" class="highcharts-graph" data-z-index="1" stroke="#ff8028" stroke-width="2" stroke-linejoin="round" stroke-linecap="round"></path></g><g data-z-index="0.1" class="highcharts-markers highcharts-series-6 highcharts-line-series " transform="translate(34,138) scale(1 1)" clip-path="none"></g><g data-z-index="0.1" class="highcharts-series highcharts-series-7 highcharts-line-series " transform="translate(34,138) scale(1 1)" clip-path="url(#highcharts-g53zxz2-7)"><path fill="none" d="M 2.7843137254877 28.245 L 30.62745098039 20.370000000000005 L 58.470588235293 24.36 L 86.313725490195 29.925 L 114.1568627451 26.67 L 142 23.59 L 169.8431372549 23.1 L 197.6862745098 24.43 L 225.52941176471 26.075000000000003 L 253.37254901961 24.605 L 281.21568627451 24.395" class="highcharts-graph" data-z-index="1" stroke="#73ba7c" stroke-width="2" stroke-linejoin="round" stroke-linecap="round"></path></g><g data-z-index="0.1" class="highcharts-markers highcharts-series-7 highcharts-line-series " transform="translate(34,138) scale(1 1)" clip-path="none"></g><g data-z-index="0.1" class="highcharts-series highcharts-series-8 highcharts-line-series " transform="translate(34,138) scale(1 1)" clip-path="url(#highcharts-g53zxz2-7)"><path fill="none" d="M 2.7843137254877 17.5 L 30.62745098039 25.655 L 58.470588235293 29.855 L 86.313725490195 28.105 L 114.1568627451 27.16 L 142 27.37 L 169.8431372549 27.72 L 197.6862745098 29.785 L 225.52941176471 29.015 L 253.37254901961 30.87 L 281.21568627451 29.189999999999998" class="highcharts-graph" data-z-index="1" stroke="#9f7c5a" stroke-width="2" stroke-linejoin="round" stroke-linecap="round"></path></g><g data-z-index="0.1" class="highcharts-markers highcharts-series-8 highcharts-line-series " transform="translate(34,138) scale(1 1)" clip-path="none"></g><g data-z-index="0.1" class="highcharts-series highcharts-series-9 highcharts-line-series " transform="translate(34,138) scale(1 1)" clip-path="url(#highcharts-g53zxz2-7)"><path fill="none" d="M 2.7843137254877 18.34 L 30.62745098039 21.035000000000004 L 58.470588235293 27.580000000000002 L 86.313725490195 29.365000000000002 L 114.1568627451 29.12 L 142 29.05 L 169.8431372549 30.134999999999998 L 197.6862745098 30.03 L 225.52941176471 29.68 L 253.37254901961 30.835 L 281.21568627451 29.26" class="highcharts-graph" data-z-index="1" stroke="#999999" stroke-width="2" stroke-linejoin="round" stroke-linecap="round"></path></g><g data-z-index="0.1" class="highcharts-markers highcharts-series-9 highcharts-line-series " transform="translate(34,138) scale(1 1)" clip-path="none"></g></g><text x="2" text-anchor="start" class="highcharts-title" data-z-index="4" style="color:#000000;font-size:10px;font-weight:bold;fill:#000000;" y="9"><tspan>Einbürgerungsziffer nach ehemaliger</tspan><tspan dy="13" x="2">Staatsangehörigkeit</tspan></text><text x="2" text-anchor="start" class="highcharts-subtitle" data-z-index="4" style="color:#000000;font-size:10px;font-weight:normal;font-family:Arial;fill:#000000;" y="40"><tspan>Basel-Stadt</tspan></text><g class="highcharts-legend" data-z-index="7" transform="translate(34,56)"><rect fill="none" class="highcharts-legend-box" rx="0" ry="0" x="0" y="0" width="235" height="70" visibility="visible"></rect><g data-z-index="1"><g><g class="highcharts-legend-item highcharts-line-series highcharts-color-undefined highcharts-series-0" data-z-index="1" transform="translate(0,-5)"><path fill="none" d="M 0 10 L 16 10" class="highcharts-graph" stroke="#672773" stroke-width="2"></path><text x="21" style="color:#333333;font-size:10px;font-weight:normal;cursor:pointer;fill:#333333;" text-anchor="start" data-z-index="2" y="13"><tspan>Deutschland</tspan></text></g><g class="highcharts-legend-item highcharts-line-series highcharts-color-undefined highcharts-series-1" data-z-index="1" transform="translate(120.28125,-5)"><path fill="none" d="M 0 10 L 16 10" class="highcharts-graph" stroke="#007a2f" stroke-width="2"></path><text x="21" y="13" style="color:#333333;font-size:10px;font-weight:normal;cursor:pointer;fill:#333333;" text-anchor="start" data-z-index="2"><tspan>Italien</tspan></text></g><g class="highcharts-legend-item highcharts-line-series highcharts-color-undefined highcharts-series-2" data-z-index="1" transform="translate(0,10)"><path fill="none" d="M 0 10 L 16 10" class="highcharts-graph" stroke="#fabd24" stroke-width="2"></path><text x="21" y="13" style="color:#333333;font-size:10px;font-weight:normal;cursor:pointer;fill:#333333;" text-anchor="start" data-z-index="2"><tspan>Türkei</tspan></text></g><g class="highcharts-legend-item highcharts-line-series highcharts-color-undefined highcharts-series-3" data-z-index="1" transform="translate(120.28125,10)"><path fill="none" d="M 0 10 L 16 10" class="highcharts-graph" stroke="#b475ab" stroke-width="2"></path><text x="21" y="13" style="color:#333333;font-size:10px;font-weight:normal;cursor:pointer;fill:#333333;" text-anchor="start" data-z-index="2"><tspan>EU-17 + EFTA</tspan></text></g><g class="highcharts-legend-item highcharts-line-series highcharts-color-undefined highcharts-series-4" data-z-index="1" transform="translate(0,25)"><path fill="none" d="M 0 10 L 16 10" class="highcharts-graph" stroke="#71a3b5" stroke-width="2"></path><text x="21" y="13" style="color:#333333;font-size:10px;font-weight:normal;cursor:pointer;fill:#333333;" text-anchor="start" data-z-index="2"><tspan>EU-Ost</tspan></text></g><g class="highcharts-legend-item highcharts-line-series highcharts-color-undefined highcharts-series-5" data-z-index="1" transform="translate(120.28125,25)"><path fill="none" d="M 0 10 L 16 10" class="highcharts-graph" stroke="#b9cfd7" stroke-width="2"></path><text x="21" y="13" style="color:#333333;font-size:10px;font-weight:normal;cursor:pointer;fill:#333333;" text-anchor="start" data-z-index="2"><tspan>Balkan</tspan></text></g><g class="highcharts-legend-item highcharts-line-series highcharts-color-undefined highcharts-series-6" data-z-index="1" transform="translate(0,40)"><path fill="none" d="M 0 10 L 16 10" class="highcharts-graph" stroke="#ff8028" stroke-width="2"></path><text x="21" y="13" style="color:#333333;font-size:10px;font-weight:normal;cursor:pointer;fill:#333333;" text-anchor="start" data-z-index="2"><tspan>Mittel- u. Südamerika</tspan></text></g><g class="highcharts-legend-item highcharts-line-series highcharts-color-undefined highcharts-series-7" data-z-index="1" transform="translate(120.28125,40)"><path fill="none" d="M 0 10 L 16 10" class="highcharts-graph" stroke="#73ba7c" stroke-width="2"></path><text x="21" y="13" style="color:#333333;font-size:10px;font-weight:normal;cursor:pointer;fill:#333333;" text-anchor="start" data-z-index="2"><tspan>Arabische Länder</tspan></text></g><g class="highcharts-legend-item highcharts-line-series highcharts-color-undefined highcharts-series-8" data-z-index="1" transform="translate(0,55)"><path fill="none" d="M 0 10 L 16 10" class="highcharts-graph" stroke="#9f7c5a" stroke-width="2"></path><text x="21" y="13" style="color:#333333;font-size:10px;font-weight:normal;cursor:pointer;fill:#333333;" text-anchor="start" data-z-index="2"><tspan>Afrikanische Länder</tspan></text></g><g class="highcharts-legend-item highcharts-line-series highcharts-color-undefined highcharts-series-9" data-z-index="1" transform="translate(120.28125,55)"><path fill="none" d="M 0 10 L 16 10" class="highcharts-graph" stroke="#999999" stroke-width="2"></path><text x="21" y="13" style="color:#333333;font-size:10px;font-weight:normal;cursor:pointer;fill:#333333;" text-anchor="start" data-z-index="2"><tspan>Übrige Länder</tspan></text></g></g></g></g><g class="highcharts-axis-labels highcharts-xaxis-labels " data-z-index="7"><text x="39.141336329443156" style="color:#000000;cursor:default;font-size:10px;white-space:nowrap;fill:#000000;" text-anchor="end" transform="translate(0,0) rotate(-45 39.141336329443156 188)" y="188" opacity="1">2007</text><text x="66.98447358434515" style="color:#000000;cursor:default;font-size:10px;white-space:nowrap;fill:#000000;" text-anchor="end" transform="translate(0,0) rotate(-45 66.98447358434515 188)" y="188" opacity="1">2008</text><text x="94.82761083924815" style="color:#000000;cursor:default;font-size:10px;white-space:nowrap;fill:#000000;" text-anchor="end" transform="translate(0,0) rotate(-45 94.82761083924815 188)" y="188" opacity="1">2009</text><text x="122.67074809415516" style="color:#000000;cursor:default;font-size:10px;white-space:nowrap;fill:#000000;" text-anchor="end" transform="translate(0,0) rotate(-45 122.67074809415516 188)" y="188" opacity="1">2010</text><text x="150.51388534905516" style="color:#000000;cursor:default;font-size:10px;white-space:nowrap;fill:#000000;" text-anchor="end" transform="translate(0,0) rotate(-45 150.51388534905516 188)" y="188" opacity="1">2011</text><text x="178.35702260395516" style="color:#000000;cursor:default;font-size:10px;white-space:nowrap;fill:#000000;" text-anchor="end" transform="translate(0,0) rotate(-45 178.35702260395516 188)" y="188" opacity="1">2012</text><text x="206.20015985885516" style="color:#000000;cursor:default;font-size:10px;white-space:nowrap;fill:#000000;" text-anchor="end" transform="translate(0,0) rotate(-45 206.20015985885516 188)" y="188" opacity="1">2013</text><text x="234.04329711375516" style="color:#000000;cursor:default;font-size:10px;white-space:nowrap;fill:#000000;" text-anchor="end" transform="translate(0,0) rotate(-45 234.04329711375516 188)" y="188" opacity="1">2014</text><text x="261.88643436866516" style="color:#000000;cursor:default;font-size:10px;white-space:nowrap;fill:#000000;" text-anchor="end" transform="translate(0,0) rotate(-45 261.88643436866516 188)" y="188" opacity="1">2015</text><text x="289.72957162356516" style="color:#000000;cursor:default;font-size:10px;white-space:nowrap;fill:#000000;" text-anchor="end" transform="translate(0,0) rotate(-45 289.72957162356516 188)" y="188" opacity="1">2016</text><text x="317.57270887846516" style="color:#000000;cursor:default;font-size:10px;white-space:nowrap;fill:#000000;" text-anchor="end" transform="translate(0,0) rotate(-45 317.57270887846516 188)" y="188" opacity="1">2017</text></g><g class="highcharts-axis-labels highcharts-yaxis-labels " data-z-index="7"><text x="19" style="color:#000000;cursor:default;font-size:10;fill:#000000;" text-anchor="end" transform="translate(0,0)" y="176" opacity="1">0</text><text x="19" style="color:#000000;cursor:default;font-size:10;fill:#000000;" text-anchor="end" transform="translate(0,0)" y="159" opacity="1">50</text><text x="19" style="color:#000000;cursor:default;font-size:10;fill:#000000;" text-anchor="end" transform="translate(0,0)" y="141" opacity="1">100</text></g><text x="10" class="highcharts-credits" text-anchor="start" data-z-index="8" style="cursor:default;color:#000000;font-size:10px;fill:#000000;" y="193"><tspan>Quelle: Statistisches Amt Basel-Stadt, Bevölkerungsstatistik.</tspan></text></svg>