<?xml version="1.0" standalone="no"?><!DOCTYPE svg PUBLIC "-//W3C//DTD SVG 1.1//EN" "http://www.w3.org/Graphics/SVG/1.1/DTD/svg11.dtd"><svg xmlns:xlink="http://www.w3.org/1999/xlink" version="1.1" class="highcharts-root" style="font-family:Arial;font-size:12px;" xmlns="http://www.w3.org/2000/svg" viewBox="0 0 485 415"><desc>Created with Highstock 6.1.1</desc><defs><clipPath id="highcharts-q33ocm9-6"><rect x="0" y="0" width="283" height="35" fill="none"></rect></clipPath><clipPath id="highcharts-q33ocm9-7"><rect x="0" y="0" width="283" height="35" fill="none"></rect></clipPath></defs><rect fill="#fbfbfb" class="highcharts-background" x="0" y="0" width="320" height="208" rx="0" ry="0"></rect><rect fill="none" class="highcharts-plot-background" x="35" y="137" width="283" height="35"></rect><g class="highcharts-pane-group" data-z-index="0"></g><g class="highcharts-grid highcharts-xaxis-grid " data-z-index="1"><path fill="none" data-z-index="1" class="highcharts-grid-line" d="M 37.5 137 L 37.5 172" opacity="1"></path><path fill="none" data-z-index="1" class="highcharts-grid-line" d="M 65.5 137 L 65.5 172" opacity="1"></path><path fill="none" data-z-index="1" class="highcharts-grid-line" d="M 92.5 137 L 92.5 172" opacity="1"></path><path fill="none" data-z-index="1" class="highcharts-grid-line" d="M 120.5 137 L 120.5 172" opacity="1"></path><path fill="none" data-z-index="1" class="highcharts-grid-line" d="M 148.5 137 L 148.5 172" opacity="1"></path><path fill="none" data-z-index="1" class="highcharts-grid-line" d="M 176.5 137 L 176.5 172" opacity="1"></path><path fill="none" data-z-index="1" class="highcharts-grid-line" d="M 203.5 137 L 203.5 172" opacity="1"></path><path fill="none" data-z-index="1" class="highcharts-grid-line" d="M 231.5 137 L 231.5 172" opacity="1"></path><path fill="none" data-z-index="1" class="highcharts-grid-line" d="M 259.5 137 L 259.5 172" opacity="1"></path><path fill="none" data-z-index="1" class="highcharts-grid-line" d="M 286.5 137 L 286.5 172" opacity="1"></path><path fill="none" data-z-index="1" class="highcharts-grid-line" d="M 314.5 137 L 314.5 172" opacity="1"></path></g><g class="highcharts-grid highcharts-yaxis-grid " data-z-index="1"><path fill="none" stroke="#B9CFD7" stroke-width="0.5" data-z-index="1" class="highcharts-grid-line" d="M 35 172.25 L 318 172.25" opacity="1"></path><path fill="none" stroke="#B9CFD7" stroke-width="0.5" data-z-index="1" class="highcharts-grid-line" d="M 35 155.25 L 318 155.25" opacity="1"></path><path fill="none" stroke="#B9CFD7" stroke-width="0.5" data-z-index="1" class="highcharts-grid-line" d="M 35 136.75 L 318 136.75" opacity="1"></path></g><rect fill="none" class="highcharts-plot-border" data-z-index="1" x="35" y="137" width="283" height="35"></rect><g class="highcharts-axis highcharts-xaxis " data-z-index="2"><path fill="none" class="highcharts-axis-line" stroke="#B9CFD7" stroke-width="0.5" data-z-index="7" d="M 35 172.25 L 318 172.25"></path></g><g class="highcharts-axis highcharts-yaxis " data-z-index="2"><path fill="none" class="highcharts-axis-line" data-z-index="7" d="M 35 137 L 35 172"></path></g><g class="highcharts-series-group" data-z-index="3"><g data-z-index="0.1" class="highcharts-series highcharts-series-0 highcharts-line-series " transform="translate(35,137) scale(1 1)" clip-path="url(#highcharts-q33ocm9-7)"><path fill="none" d="M 2.7745098039191 33.11 L 30.519607843135 31.745 L 58.264705882351 31.01 L 86.009803921568 31.29 L 113.75490196078 31.36 L 141.5 31.535 L 169.24509803922 30.59 L 196.99019607843 29.82 L 224.73529411765 28.945 L 252.48039215686 31.29 L 280.22549019608 27.79" class="highcharts-graph" data-z-index="1" stroke="#672773" stroke-width="2" stroke-linejoin="round" stroke-linecap="round"></path></g><g data-z-index="0.1" class="highcharts-markers highcharts-series-0 highcharts-line-series " transform="translate(35,137) scale(1 1)" clip-path="none"></g><g data-z-index="0.1" class="highcharts-series highcharts-series-1 highcharts-line-series " transform="translate(35,137) scale(1 1)" clip-path="url(#highcharts-q33ocm9-7)"><path fill="none" d="M 2.7745098039191 31.22 L 30.519607843135 30.415 L 58.264705882351 32.445 L 86.009803921568 33.11 L 113.75490196078 32.095 L 141.5 31.92 L 169.24509803922 32.445 L 196.99019607843 31.080000000000002 L 224.73529411765 30.905 L 252.48039215686 32.83 L 280.22549019608 29.225" class="highcharts-graph" data-z-index="1" stroke="#007a2f" stroke-width="2" stroke-linejoin="round" stroke-linecap="round"></path></g><g data-z-index="0.1" class="highcharts-markers highcharts-series-1 highcharts-line-series " transform="translate(35,137) scale(1 1)" clip-path="none"></g><g data-z-index="0.1" class="highcharts-series highcharts-series-2 highcharts-line-series " transform="translate(35,137) scale(1 1)" clip-path="url(#highcharts-q33ocm9-7)"><path fill="none" d="M 2.7745098039191 12.495000000000001 L 30.519607843135 14.595000000000002 L 58.264705882351 20.895000000000003 L 86.009803921568 26.880000000000003 L 113.75490196078 28.35 L 141.5 26.845 L 169.24509803922 25.515 L 196.99019607843 29.330000000000002 L 224.73529411765 26.355 L 252.48039215686 30.415 L 280.22549019608 28.560000000000002" class="highcharts-graph" data-z-index="1" stroke="#fabd24" stroke-width="2" stroke-linejoin="round" stroke-linecap="round"></path></g><g data-z-index="0.1" class="highcharts-markers highcharts-series-2 highcharts-line-series " transform="translate(35,137) scale(1 1)" clip-path="none"></g><g data-z-index="0.1" class="highcharts-series highcharts-series-3 highcharts-line-series " transform="translate(35,137) scale(1 1)" clip-path="url(#highcharts-q33ocm9-7)"><path fill="none" d="M 2.7745098039191 32.13 L 30.519607843135 32.48 L 58.264705882351 33.285 L 86.009803921568 32.865 L 113.75490196078 33.18 L 141.5 32.795 L 169.24509803922 31.955000000000002 L 196.99019607843 32.48 L 224.73529411765 31.15 L 252.48039215686 32.76 L 280.22549019608 31.57" class="highcharts-graph" data-z-index="1" stroke="#b475ab" stroke-width="2" stroke-linejoin="round" stroke-linecap="round"></path></g><g data-z-index="0.1" class="highcharts-markers highcharts-series-3 highcharts-line-series " transform="translate(35,137) scale(1 1)" clip-path="none"></g><g data-z-index="0.1" class="highcharts-series highcharts-series-4 highcharts-line-series " transform="translate(35,137) scale(1 1)" clip-path="url(#highcharts-q33ocm9-7)"><path fill="none" d="M 2.7745098039191 27.265 L 30.519607843135 28.595 L 58.264705882351 32.025 L 86.009803921568 33.04 L 113.75490196078 30.73 L 141.5 32.69 L 169.24509803922 32.865 L 196.99019607843 32.585 L 224.73529411765 32.55 L 252.48039215686 32.725 L 280.22549019608 31.815" class="highcharts-graph" data-z-index="1" stroke="#71a3b5" stroke-width="2" stroke-linejoin="round" stroke-linecap="round"></path></g><g data-z-index="0.1" class="highcharts-markers highcharts-series-4 highcharts-line-series " transform="translate(35,137) scale(1 1)" clip-path="none"></g><g data-z-index="0.1" class="highcharts-series highcharts-series-5 highcharts-line-series " transform="translate(35,137) scale(1 1)" clip-path="url(#highcharts-q33ocm9-7)"><path fill="none" d="M 2.7745098039191 3.4650000000000034 L 30.519607843135 8.225000000000001 L 58.264705882351 19.215 L 86.009803921568 24.78 L 113.75490196078 27.72 L 141.5 28.28 L 169.24509803922 24.43 L 196.99019607843 26.215 L 224.73529411765 25.27 L 252.48039215686 29.225 L 280.22549019608 24.92" class="highcharts-graph" data-z-index="1" stroke="#b9cfd7" stroke-width="2" stroke-linejoin="round" stroke-linecap="round"></path></g><g data-z-index="0.1" class="highcharts-markers highcharts-series-5 highcharts-line-series " transform="translate(35,137) scale(1 1)" clip-path="none"></g><g data-z-index="0.1" class="highcharts-series highcharts-series-6 highcharts-line-series " transform="translate(35,137) scale(1 1)" clip-path="url(#highcharts-q33ocm9-7)"><path fill="none" d="M 2.7745098039191 19.53 L 30.519607843135 25.585 L 58.264705882351 28.91 L 86.009803921568 28.595 L 113.75490196078 26.67 L 141.5 27.475 L 169.24509803922 26.67 L 196.99019607843 25.97 L 224.73529411765 26.25 L 252.48039215686 28.490000000000002 L 280.22549019608 22.365000000000002" class="highcharts-graph" data-z-index="1" stroke="#ff8028" stroke-width="2" stroke-linejoin="round" stroke-linecap="round"></path></g><g data-z-index="0.1" class="highcharts-markers highcharts-series-6 highcharts-line-series " transform="translate(35,137) scale(1 1)" clip-path="none"></g><g data-z-index="0.1" class="highcharts-series highcharts-series-7 highcharts-line-series " transform="translate(35,137) scale(1 1)" clip-path="url(#highcharts-q33ocm9-7)"><path fill="none" d="M 2.7745098039191 28.245 L 30.519607843135 20.370000000000005 L 58.264705882351 24.36 L 86.009803921568 29.925 L 113.75490196078 26.67 L 141.5 23.59 L 169.24509803922 23.1 L 196.99019607843 24.43 L 224.73529411765 26.075000000000003 L 252.48039215686 24.605 L 280.22549019608 24.395" class="highcharts-graph" data-z-index="1" stroke="#73ba7c" stroke-width="2" stroke-linejoin="round" stroke-linecap="round"></path></g><g data-z-index="0.1" class="highcharts-markers highcharts-series-7 highcharts-line-series " transform="translate(35,137) scale(1 1)" clip-path="none"></g><g data-z-index="0.1" class="highcharts-series highcharts-series-8 highcharts-line-series " transform="translate(35,137) scale(1 1)" clip-path="url(#highcharts-q33ocm9-7)"><path fill="none" d="M 2.7745098039191 17.5 L 30.519607843135 25.655 L 58.264705882351 29.855 L 86.009803921568 28.105 L 113.75490196078 27.16 L 141.5 27.37 L 169.24509803922 27.72 L 196.99019607843 29.785 L 224.73529411765 29.015 L 252.48039215686 30.87 L 280.22549019608 29.189999999999998" class="highcharts-graph" data-z-index="1" stroke="#9f7c5a" stroke-width="2" stroke-linejoin="round" stroke-linecap="round"></path></g><g data-z-index="0.1" class="highcharts-markers highcharts-series-8 highcharts-line-series " transform="translate(35,137) scale(1 1)" clip-path="none"></g><g data-z-index="0.1" class="highcharts-series highcharts-series-9 highcharts-line-series " transform="translate(35,137) scale(1 1)" clip-path="url(#highcharts-q33ocm9-7)"><path fill="none" d="M 2.7745098039191 18.34 L 30.519607843135 21.035000000000004 L 58.264705882351 27.580000000000002 L 86.009803921568 29.365000000000002 L 113.75490196078 29.12 L 141.5 29.05 L 169.24509803922 30.134999999999998 L 196.99019607843 30.03 L 224.73529411765 29.68 L 252.48039215686 30.835 L 280.22549019608 29.26" class="highcharts-graph" data-z-index="1" stroke="#999999" stroke-width="2" stroke-linejoin="round" stroke-linecap="round"></path></g><g data-z-index="0.1" class="highcharts-markers highcharts-series-9 highcharts-line-series " transform="translate(35,137) scale(1 1)" clip-path="none"></g></g><text x="2" text-anchor="start" class="highcharts-title" data-z-index="4" style="color:#000000;font-size:10px;font-weight:bold;fill:#000000;" y="9"><tspan>Einbürgerungsziffer nach ehemaliger</tspan><tspan dy="13" x="2">Staatsangehörigkeit</tspan></text><text x="2" text-anchor="start" class="highcharts-subtitle" data-z-index="4" style="color:#000000;font-size:10px;font-weight:normal;font-family:Arial;fill:#000000;" y="39"><tspan>Basel-Stadt</tspan></text><g class="highcharts-legend" data-z-index="7" transform="translate(35,55)"><rect fill="none" class="highcharts-legend-box" rx="0" ry="0" x="0" y="0" width="249" height="70" visibility="visible"></rect><g data-z-index="1"><g><g class="highcharts-legend-item highcharts-line-series highcharts-color-undefined highcharts-series-0" data-z-index="1" transform="translate(0,-5)"><path fill="none" d="M 0 10 L 16 10" class="highcharts-graph" stroke="#672773" stroke-width="2"></path><text x="21" style="color:#333333;font-size:10px;font-weight:normal;cursor:pointer;fill:#333333;" text-anchor="start" data-z-index="2" y="13"><tspan>Deutschland</tspan></text></g><g class="highcharts-legend-item highcharts-line-series highcharts-color-undefined highcharts-series-1" data-z-index="1" transform="translate(127,-5)"><path fill="none" d="M 0 10 L 16 10" class="highcharts-graph" stroke="#007a2f" stroke-width="2"></path><text x="21" y="13" style="color:#333333;font-size:10px;font-weight:normal;cursor:pointer;fill:#333333;" text-anchor="start" data-z-index="2"><tspan>Italien</tspan></text></g><g class="highcharts-legend-item highcharts-line-series highcharts-color-undefined highcharts-series-2" data-z-index="1" transform="translate(0,10)"><path fill="none" d="M 0 10 L 16 10" class="highcharts-graph" stroke="#fabd24" stroke-width="2"></path><text x="21" y="13" style="color:#333333;font-size:10px;font-weight:normal;cursor:pointer;fill:#333333;" text-anchor="start" data-z-index="2"><tspan>Türkei</tspan></text></g><g class="highcharts-legend-item highcharts-line-series highcharts-color-undefined highcharts-series-3" data-z-index="1" transform="translate(127,10)"><path fill="none" d="M 0 10 L 16 10" class="highcharts-graph" stroke="#b475ab" stroke-width="2"></path><text x="21" y="13" style="color:#333333;font-size:10px;font-weight:normal;cursor:pointer;fill:#333333;" text-anchor="start" data-z-index="2"><tspan>EU-17 + EFTA</tspan></text></g><g class="highcharts-legend-item highcharts-line-series highcharts-color-undefined highcharts-series-4" data-z-index="1" transform="translate(0,25)"><path fill="none" d="M 0 10 L 16 10" class="highcharts-graph" stroke="#71a3b5" stroke-width="2"></path><text x="21" y="13" style="color:#333333;font-size:10px;font-weight:normal;cursor:pointer;fill:#333333;" text-anchor="start" data-z-index="2"><tspan>EU-Ost</tspan></text></g><g class="highcharts-legend-item highcharts-line-series highcharts-color-undefined highcharts-series-5" data-z-index="1" transform="translate(127,25)"><path fill="none" d="M 0 10 L 16 10" class="highcharts-graph" stroke="#b9cfd7" stroke-width="2"></path><text x="21" y="13" style="color:#333333;font-size:10px;font-weight:normal;cursor:pointer;fill:#333333;" text-anchor="start" data-z-index="2"><tspan>Balkan</tspan></text></g><g class="highcharts-legend-item highcharts-line-series highcharts-color-undefined highcharts-series-6" data-z-index="1" transform="translate(0,40)"><path fill="none" d="M 0 10 L 16 10" class="highcharts-graph" stroke="#ff8028" stroke-width="2"></path><text x="21" y="13" style="color:#333333;font-size:10px;font-weight:normal;cursor:pointer;fill:#333333;" text-anchor="start" data-z-index="2"><tspan>Mittel- u. Südamerika</tspan></text></g><g class="highcharts-legend-item highcharts-line-series highcharts-color-undefined highcharts-series-7" data-z-index="1" transform="translate(127,40)"><path fill="none" d="M 0 10 L 16 10" class="highcharts-graph" stroke="#73ba7c" stroke-width="2"></path><text x="21" y="13" style="color:#333333;font-size:10px;font-weight:normal;cursor:pointer;fill:#333333;" text-anchor="start" data-z-index="2"><tspan>Arabische Länder</tspan></text></g><g class="highcharts-legend-item highcharts-line-series highcharts-color-undefined highcharts-series-8" data-z-index="1" transform="translate(0,55)"><path fill="none" d="M 0 10 L 16 10" class="highcharts-graph" stroke="#9f7c5a" stroke-width="2"></path><text x="21" y="13" style="color:#333333;font-size:10px;font-weight:normal;cursor:pointer;fill:#333333;" text-anchor="start" data-z-index="2"><tspan>Afrikanische Länder</tspan></text></g><g class="highcharts-legend-item highcharts-line-series highcharts-color-undefined highcharts-series-9" data-z-index="1" transform="translate(127,55)"><path fill="none" d="M 0 10 L 16 10" class="highcharts-graph" stroke="#999999" stroke-width="2"></path><text x="21" y="13" style="color:#333333;font-size:10px;font-weight:normal;cursor:pointer;fill:#333333;" text-anchor="start" data-z-index="2"><tspan>Übrige Länder</tspan></text></g></g></g></g><g class="highcharts-axis-labels highcharts-xaxis-labels " data-z-index="7"><text x="40.13153240787416" style="color:#000000;cursor:default;font-size:10px;white-space:nowrap;fill:#000000;" text-anchor="end" transform="translate(0,0) rotate(-45 40.13153240787416 187)" y="187" opacity="1">2007</text><text x="67.87663044709016" style="color:#000000;cursor:default;font-size:10px;white-space:nowrap;fill:#000000;" text-anchor="end" transform="translate(0,0) rotate(-45 67.87663044709016 187)" y="187" opacity="1">2008</text><text x="95.62172848630615" style="color:#000000;cursor:default;font-size:10px;white-space:nowrap;fill:#000000;" text-anchor="end" transform="translate(0,0) rotate(-45 95.62172848630615 187)" y="187" opacity="1">2009</text><text x="123.36682652552516" style="color:#000000;cursor:default;font-size:10px;white-space:nowrap;fill:#000000;" text-anchor="end" transform="translate(0,0) rotate(-45 123.36682652552516 187)" y="187" opacity="1">2010</text><text x="151.11192456473515" style="color:#000000;cursor:default;font-size:10px;white-space:nowrap;fill:#000000;" text-anchor="end" transform="translate(0,0) rotate(-45 151.11192456473515 187)" y="187" opacity="1">2011</text><text x="178.85702260395516" style="color:#000000;cursor:default;font-size:10px;white-space:nowrap;fill:#000000;" text-anchor="end" transform="translate(0,0) rotate(-45 178.85702260395516 187)" y="187" opacity="1">2012</text><text x="206.60212064317517" style="color:#000000;cursor:default;font-size:10px;white-space:nowrap;fill:#000000;" text-anchor="end" transform="translate(0,0) rotate(-45 206.60212064317517 187)" y="187" opacity="1">2013</text><text x="234.34721868238515" style="color:#000000;cursor:default;font-size:10px;white-space:nowrap;fill:#000000;" text-anchor="end" transform="translate(0,0) rotate(-45 234.34721868238515 187)" y="187" opacity="1">2014</text><text x="262.0923167216052" style="color:#000000;cursor:default;font-size:10px;white-space:nowrap;fill:#000000;" text-anchor="end" transform="translate(0,0) rotate(-45 262.0923167216052 187)" y="187" opacity="1">2015</text><text x="289.83741476081514" style="color:#000000;cursor:default;font-size:10px;white-space:nowrap;fill:#000000;" text-anchor="end" transform="translate(0,0) rotate(-45 289.83741476081514 187)" y="187" opacity="1">2016</text><text x="317.58251280003515" style="color:#000000;cursor:default;font-size:10px;white-space:nowrap;fill:#000000;" text-anchor="end" transform="translate(0,0) rotate(-45 317.58251280003515 187)" y="187" opacity="1">2017</text></g><g class="highcharts-axis-labels highcharts-yaxis-labels " data-z-index="7"><text x="20" style="color:#000000;cursor:default;font-size:10;fill:#000000;" text-anchor="end" transform="translate(0,0)" y="175" opacity="1">0</text><text x="20" style="color:#000000;cursor:default;font-size:10;fill:#000000;" text-anchor="end" transform="translate(0,0)" y="158" opacity="1">50</text><text x="20" style="color:#000000;cursor:default;font-size:10;fill:#000000;" text-anchor="end" transform="translate(0,0)" y="140" opacity="1">100</text></g><text x="10" class="highcharts-credits" text-anchor="start" data-z-index="8" style="cursor:default;color:#000000;font-size:10px;fill:#000000;" y="193"><tspan>Quelle: Statistisches Amt Basel-Stadt, Bevölkerungsstatistik.</tspan></text></svg>