<?xml version="1.0" standalone="no"?><!DOCTYPE svg PUBLIC "-//W3C//DTD SVG 1.1//EN" "http://www.w3.org/Graphics/SVG/1.1/DTD/svg11.dtd"><svg xmlns:xlink="http://www.w3.org/1999/xlink" version="1.1" class="highcharts-root" style="font-family:Arial;font-size:12px;" xmlns="http://www.w3.org/2000/svg" viewBox="0 0 485 415"><desc>Created with Highstock 6.1.1</desc><defs><clipPath id="highcharts-g6t1i6n-6"><rect x="0" y="0" width="461" height="152" fill="none"></rect></clipPath><clipPath id="highcharts-g6t1i6n-7"><rect x="0" y="0" width="461" height="152" fill="none"></rect></clipPath></defs><rect fill="#fbfbfb" class="highcharts-background" x="0" y="0" width="665" height="208" rx="0" ry="0"></rect><rect fill="none" class="highcharts-plot-background" x="34" y="33" width="461" height="152"></rect><g class="highcharts-pane-group" data-z-index="0"></g><g class="highcharts-grid highcharts-xaxis-grid " data-z-index="1"><path fill="none" data-z-index="1" class="highcharts-grid-line" d="M 38.5 33 L 38.5 185" opacity="1"></path><path fill="none" data-z-index="1" class="highcharts-grid-line" d="M 94.5 33 L 94.5 185" opacity="1"></path><path fill="none" data-z-index="1" class="highcharts-grid-line" d="M 151.5 33 L 151.5 185" opacity="1"></path><path fill="none" data-z-index="1" class="highcharts-grid-line" d="M 207.5 33 L 207.5 185" opacity="1"></path><path fill="none" data-z-index="1" class="highcharts-grid-line" d="M 264.5 33 L 264.5 185" opacity="1"></path><path fill="none" data-z-index="1" class="highcharts-grid-line" d="M 320.5 33 L 320.5 185" opacity="1"></path><path fill="none" data-z-index="1" class="highcharts-grid-line" d="M 376.5 33 L 376.5 185" opacity="1"></path><path fill="none" data-z-index="1" class="highcharts-grid-line" d="M 433.5 33 L 433.5 185" opacity="1"></path><path fill="none" data-z-index="1" class="highcharts-grid-line" d="M 489.5 33 L 489.5 185" opacity="1"></path></g><g class="highcharts-grid highcharts-yaxis-grid " data-z-index="1"><path fill="none" stroke="#B9CFD7" stroke-width="0.5" data-z-index="1" class="highcharts-grid-line" d="M 34 185.25 L 495 185.25" opacity="1"></path><path fill="none" stroke="#B9CFD7" stroke-width="0.5" data-z-index="1" class="highcharts-grid-line" d="M 34 160.25 L 495 160.25" opacity="1"></path><path fill="none" stroke="#B9CFD7" stroke-width="0.5" data-z-index="1" class="highcharts-grid-line" d="M 34 134.25 L 495 134.25" opacity="1"></path><path fill="none" stroke="#B9CFD7" stroke-width="0.5" data-z-index="1" class="highcharts-grid-line" d="M 34 109.25 L 495 109.25" opacity="1"></path><path fill="none" stroke="#B9CFD7" stroke-width="0.5" data-z-index="1" class="highcharts-grid-line" d="M 34 84.25 L 495 84.25" opacity="1"></path><path fill="none" stroke="#B9CFD7" stroke-width="0.5" data-z-index="1" class="highcharts-grid-line" d="M 34 58.25 L 495 58.25" opacity="1"></path><path fill="none" stroke="#B9CFD7" stroke-width="0.5" data-z-index="1" class="highcharts-grid-line" d="M 34 32.75 L 495 32.75" opacity="1"></path></g><rect fill="none" class="highcharts-plot-border" data-z-index="1" x="34" y="33" width="461" height="152"></rect><g class="highcharts-axis highcharts-xaxis " data-z-index="2"><path fill="none" class="highcharts-axis-line" stroke="#B9CFD7" stroke-width="0.5" data-z-index="7" d="M 34 185.25 L 495 185.25"></path></g><g class="highcharts-axis highcharts-yaxis " data-z-index="2"><path fill="none" class="highcharts-axis-line" data-z-index="7" d="M 34 33 L 34 185"></path></g><g class="highcharts-series-group" data-z-index="3"><g data-z-index="0.1" class="highcharts-series highcharts-series-0 highcharts-line-series " transform="translate(34,33) scale(1 1)" clip-path="url(#highcharts-g6t1i6n-7)"><path fill="none" d="M 4.5196078431332 147.33866666666665 L 61.01470588235 147.44 L 117.50980392157 146.93333333333334 L 174.00490196078 147.288 L 230.5 147.54133333333334 L 286.99509803922 147.288 L 343.49019607843 147.38933333333333 L 399.98529411765 147.288 L 456.48039215687 147.54133333333334" class="highcharts-graph" data-z-index="1" stroke="#b00000" stroke-width="2" stroke-linejoin="round" stroke-linecap="round"></path></g><g data-z-index="0.1" class="highcharts-markers highcharts-series-0 highcharts-line-series " transform="translate(34,33) scale(1 1)" clip-path="none"></g><g data-z-index="0.1" class="highcharts-series highcharts-series-1 highcharts-line-series " transform="translate(34,33) scale(1 1)" clip-path="url(#highcharts-g6t1i6n-7)"><path fill="none" d="M 4.5196078431332 149.416 L 61.01470588235 149.36533333333333 L 117.50980392157 148.90933333333334 L 174.00490196078 148.55466666666666 L 230.5 148.55466666666666 L 286.99509803922 148.70666666666668 L 343.49019607843 148.14933333333335 L 399.98529411765 148.656 L 456.48039215687 148.70666666666668" class="highcharts-graph" data-z-index="1" stroke="#672773" stroke-width="2" stroke-linejoin="round" stroke-linecap="round"></path></g><g data-z-index="0.1" class="highcharts-markers highcharts-series-1 highcharts-line-series " transform="translate(34,33) scale(1 1)" clip-path="none"></g><g data-z-index="0.1" class="highcharts-series highcharts-series-2 highcharts-line-series " transform="translate(34,33) scale(1 1)" clip-path="url(#highcharts-g6t1i6n-7)"><path fill="none" d="M 4.5196078431332 144.34933333333333 L 61.01470588235 145.51466666666667 L 117.50980392157 143.69066666666666 L 174.00490196078 145.16 L 230.5 146.072 L 286.99509803922 146.78133333333332 L 343.49019607843 145.56533333333334 L 399.98529411765 145.51466666666667 L 456.48039215687 146.62933333333334" class="highcharts-graph" data-z-index="1" stroke="#007a2f" stroke-width="2" stroke-linejoin="round" stroke-linecap="round"></path></g><g data-z-index="0.1" class="highcharts-markers highcharts-series-2 highcharts-line-series " transform="translate(34,33) scale(1 1)" clip-path="none"></g><g data-z-index="0.1" class="highcharts-series highcharts-series-3 highcharts-line-series " transform="translate(34,33) scale(1 1)" clip-path="url(#highcharts-g6t1i6n-7)"><path fill="none" d="M 4.5196078431332 136.24266666666665 L 61.01470588235 134.368 L 117.50980392157 131.37866666666667 L 174.00490196078 137.864 L 230.5 139.232 L 286.99509803922 137.96533333333332 L 343.49019607843 137.20533333333333 L 399.98529411765 137.50933333333333 L 456.48039215687 138.016" class="highcharts-graph" data-z-index="1" stroke="#fabd24" stroke-width="2" stroke-linejoin="round" stroke-linecap="round"></path></g><g data-z-index="0.1" class="highcharts-markers highcharts-series-3 highcharts-line-series " transform="translate(34,33) scale(1 1)" clip-path="none"></g><g data-z-index="0.1" class="highcharts-series highcharts-series-4 highcharts-line-series " transform="translate(34,33) scale(1 1)" clip-path="url(#highcharts-g6t1i6n-7)"><path fill="none" d="M 4.5196078431332 145.10933333333332 L 61.01470588235 145.71733333333333 L 117.50980392157 145.10933333333332 L 174.00490196078 146.984 L 230.5 146.376 L 286.99509803922 147.23733333333334 L 343.49019607843 147.03466666666665 L 399.98529411765 146.57866666666666 L 456.48039215687 147.136" class="highcharts-graph" data-z-index="1" stroke="#b475ab" stroke-width="2" stroke-linejoin="round" stroke-linecap="round"></path></g><g data-z-index="0.1" class="highcharts-markers highcharts-series-4 highcharts-line-series " transform="translate(34,33) scale(1 1)" clip-path="none"></g><g data-z-index="0.1" class="highcharts-series highcharts-series-5 highcharts-line-series " transform="translate(34,33) scale(1 1)" clip-path="url(#highcharts-g6t1i6n-7)"><path fill="none" d="M 4.5196078431332 146.376 L 61.01470588235 146.528 L 117.50980392157 142.424 L 174.00490196078 143.84266666666667 L 230.5 144.75466666666665 L 286.99509803922 144.248 L 343.49019607843 144.90666666666667 L 399.98529411765 143.792 L 456.48039215687 144.29866666666666" class="highcharts-graph" data-z-index="1" stroke="#71a3b5" stroke-width="2" stroke-linejoin="round" stroke-linecap="round"></path></g><g data-z-index="0.1" class="highcharts-markers highcharts-series-5 highcharts-line-series " transform="translate(34,33) scale(1 1)" clip-path="none"></g><g data-z-index="0.1" class="highcharts-series highcharts-series-6 highcharts-line-series " transform="translate(34,33) scale(1 1)" clip-path="url(#highcharts-g6t1i6n-7)"><path fill="none" d="M 4.5196078431332 138.72533333333334 L 61.01470588235 137.30666666666667 L 117.50980392157 139.38400000000001 L 174.00490196078 137.30666666666667 L 230.5 140.04266666666666 L 286.99509803922 137.81333333333333 L 343.49019607843 138.52266666666665 L 399.98529411765 139.63733333333334 L 456.48039215687 138.37066666666666" class="highcharts-graph" data-z-index="1" stroke="#b9cfd7" stroke-width="2" stroke-linejoin="round" stroke-linecap="round"></path></g><g data-z-index="0.1" class="highcharts-markers highcharts-series-6 highcharts-line-series " transform="translate(34,33) scale(1 1)" clip-path="none"></g><g data-z-index="0.1" class="highcharts-series highcharts-series-7 highcharts-line-series " transform="translate(34,33) scale(1 1)" clip-path="url(#highcharts-g6t1i6n-7)"><path fill="none" d="M 4.5196078431332 137.61066666666667 L 61.01470588235 132.848 L 117.50980392157 138.32 L 174.00490196078 137.91466666666668 L 230.5 136.90133333333333 L 286.99509803922 137.10399999999998 L 343.49019607843 137.45866666666666 L 399.98529411765 137.56 L 456.48039215687 135.736" class="highcharts-graph" data-z-index="1" stroke="#ff8028" stroke-width="2" stroke-linejoin="round" stroke-linecap="round"></path></g><g data-z-index="0.1" class="highcharts-markers highcharts-series-7 highcharts-line-series " transform="translate(34,33) scale(1 1)" clip-path="none"></g><g data-z-index="0.1" class="highcharts-series highcharts-series-8 highcharts-line-series " transform="translate(34,33) scale(1 1)" clip-path="url(#highcharts-g6t1i6n-7)"><path fill="none" d="M 4.5196078431332 109.03466666666667 L 61.01470588235 112.632 L 117.50980392157 20.01333333333332 L 174.00490196078 77.16533333333334 L 230.5 97.68533333333332 L 286.99509803922 108.52799999999999 L 343.49019607843 119.06666666666666 L 399.98529411765 100.57333333333332 L 456.48039215687 119.776" class="highcharts-graph" data-z-index="1" stroke="#73ba7c" stroke-width="2" stroke-linejoin="round" stroke-linecap="round"></path></g><g data-z-index="0.1" class="highcharts-markers highcharts-series-8 highcharts-line-series " transform="translate(34,33) scale(1 1)" clip-path="none"></g><g data-z-index="0.1" class="highcharts-series highcharts-series-9 highcharts-line-series " transform="translate(34,33) scale(1 1)" clip-path="url(#highcharts-g6t1i6n-7)"><path fill="none" d="M 4.5196078431332 115.672 L 61.01470588235 108.832 L 117.50980392157 114.10133333333333 L 174.00490196078 120.84 L 230.5 121.39733333333334 L 286.99509803922 128.136 L 343.49019607843 126.21066666666667 L 399.98529411765 128.23733333333334 L 456.48039215687 127.47733333333333" class="highcharts-graph" data-z-index="1" stroke="#9f7c5a" stroke-width="2" stroke-linejoin="round" stroke-linecap="round"></path></g><g data-z-index="0.1" class="highcharts-markers highcharts-series-9 highcharts-line-series " transform="translate(34,33) scale(1 1)" clip-path="none"></g><g data-z-index="0.1" class="highcharts-series highcharts-series-10 highcharts-line-series " transform="translate(34,33) scale(1 1)" clip-path="url(#highcharts-g6t1i6n-7)"><path fill="none" d="M 4.5196078431332 142.424 L 61.01470588235 143.488 L 117.50980392157 143.13333333333333 L 174.00490196078 144.75466666666665 L 230.5 144.95733333333334 L 286.99509803922 145.26133333333334 L 343.49019607843 145.56533333333334 L 399.98529411765 143.792 L 456.48039215687 145.56533333333334" class="highcharts-graph" data-z-index="1" stroke="#999999" stroke-width="2" stroke-linejoin="round" stroke-linecap="round"></path></g><g data-z-index="0.1" class="highcharts-markers highcharts-series-10 highcharts-line-series " transform="translate(34,33) scale(1 1)" clip-path="none"></g></g><text x="2" text-anchor="start" class="highcharts-title" data-z-index="4" style="color:#000000;font-size:10px;font-weight:bold;fill:#000000;" y="12"><tspan>Beschuldigte ab 18 Jahren pro 1000 Erwachsene</tspan></text><text x="2" text-anchor="start" class="highcharts-subtitle" data-z-index="4" style="color:#000000;font-size:10px;font-weight:normal;font-family:Arial;fill:#000000;" y="30"></text><g class="highcharts-legend" data-z-index="7" transform="translate(507,19)"><rect fill="none" class="highcharts-legend-box" rx="0" ry="0" x="0" y="0" width="156" height="173" visibility="visible"></rect><g data-z-index="1"><g><g class="highcharts-legend-item highcharts-line-series highcharts-color-undefined highcharts-series-0" data-z-index="1" transform="translate(1,-4)"><path fill="none" d="M 0 10 L 16 10" class="highcharts-graph" stroke="#b00000" stroke-width="2"></path><text x="21" style="color:#333333;font-size:10px;font-weight:normal;cursor:pointer;fill:#333333;" text-anchor="start" data-z-index="2" y="13"><tspan>Schweiz</tspan></text></g><g class="highcharts-legend-item highcharts-line-series highcharts-color-undefined highcharts-series-1" data-z-index="1" transform="translate(1,12)"><path fill="none" d="M 0 10 L 16 10" class="highcharts-graph" stroke="#672773" stroke-width="2"></path><text x="21" y="13" style="color:#333333;font-size:10px;font-weight:normal;cursor:pointer;fill:#333333;" text-anchor="start" data-z-index="2"><tspan>Deutschland</tspan></text></g><g class="highcharts-legend-item highcharts-line-series highcharts-color-undefined highcharts-series-2" data-z-index="1" transform="translate(1,28)"><path fill="none" d="M 0 10 L 16 10" class="highcharts-graph" stroke="#007a2f" stroke-width="2"></path><text x="21" y="13" style="color:#333333;font-size:10px;font-weight:normal;cursor:pointer;fill:#333333;" text-anchor="start" data-z-index="2"><tspan>Italien</tspan></text></g><g class="highcharts-legend-item highcharts-line-series highcharts-color-undefined highcharts-series-3" data-z-index="1" transform="translate(1,44)"><path fill="none" d="M 0 10 L 16 10" class="highcharts-graph" stroke="#fabd24" stroke-width="2"></path><text x="21" y="13" style="color:#333333;font-size:10px;font-weight:normal;cursor:pointer;fill:#333333;" text-anchor="start" data-z-index="2"><tspan>Türkei</tspan></text></g><g class="highcharts-legend-item highcharts-line-series highcharts-color-undefined highcharts-series-4" data-z-index="1" transform="translate(1,60)"><path fill="none" d="M 0 10 L 16 10" class="highcharts-graph" stroke="#b475ab" stroke-width="2"></path><text x="21" y="13" style="color:#333333;font-size:10px;font-weight:normal;cursor:pointer;fill:#333333;" text-anchor="start" data-z-index="2"><tspan>EU-17 + EFTA</tspan></text></g><g class="highcharts-legend-item highcharts-line-series highcharts-color-undefined highcharts-series-5" data-z-index="1" transform="translate(1,76)"><path fill="none" d="M 0 10 L 16 10" class="highcharts-graph" stroke="#71a3b5" stroke-width="2"></path><text x="21" y="13" style="color:#333333;font-size:10px;font-weight:normal;cursor:pointer;fill:#333333;" text-anchor="start" data-z-index="2"><tspan>EU-Ost</tspan></text></g><g class="highcharts-legend-item highcharts-line-series highcharts-color-undefined highcharts-series-6" data-z-index="1" transform="translate(1,92)"><path fill="none" d="M 0 10 L 16 10" class="highcharts-graph" stroke="#b9cfd7" stroke-width="2"></path><text x="21" y="13" style="color:#333333;font-size:10px;font-weight:normal;cursor:pointer;fill:#333333;" text-anchor="start" data-z-index="2"><tspan>Balkan</tspan></text></g><g class="highcharts-legend-item highcharts-line-series highcharts-color-undefined highcharts-series-7" data-z-index="1" transform="translate(1,108)"><path fill="none" d="M 0 10 L 16 10" class="highcharts-graph" stroke="#ff8028" stroke-width="2"></path><text x="21" y="13" style="color:#333333;font-size:10px;font-weight:normal;cursor:pointer;fill:#333333;" text-anchor="start" data-z-index="2"><tspan>Nord-, Mittel- und Südamerika</tspan></text></g><g class="highcharts-legend-item highcharts-line-series highcharts-color-undefined highcharts-series-8" data-z-index="1" transform="translate(1,124)"><path fill="none" d="M 0 10 L 16 10" class="highcharts-graph" stroke="#73ba7c" stroke-width="2"></path><text x="21" y="13" style="color:#333333;font-size:10px;font-weight:normal;cursor:pointer;fill:#333333;" text-anchor="start" data-z-index="2"><tspan>Arabische Länder</tspan></text></g><g class="highcharts-legend-item highcharts-line-series highcharts-color-undefined highcharts-series-9" data-z-index="1" transform="translate(1,140)"><path fill="none" d="M 0 10 L 16 10" class="highcharts-graph" stroke="#9f7c5a" stroke-width="2"></path><text x="21" y="13" style="color:#333333;font-size:10px;font-weight:normal;cursor:pointer;fill:#333333;" text-anchor="start" data-z-index="2"><tspan>Afrikanische Länder</tspan></text></g><g class="highcharts-legend-item highcharts-line-series highcharts-color-undefined highcharts-series-10" data-z-index="1" transform="translate(1,156)"><path fill="none" d="M 0 10 L 16 10" class="highcharts-graph" stroke="#999999" stroke-width="2"></path><text x="21" y="13" style="color:#333333;font-size:10px;font-weight:normal;cursor:pointer;fill:#333333;" text-anchor="start" data-z-index="2"><tspan>Übrige Länder</tspan></text></g></g></g></g><g class="highcharts-axis-labels highcharts-xaxis-labels " data-z-index="7"><text x="38.519607843133" style="color:#000000;cursor:default;font-size:10;fill:#000000;" text-anchor="middle" transform="translate(0,0)" y="205" opacity="1">2009</text><text x="95.01470588235" style="color:#000000;cursor:default;font-size:10;fill:#000000;" text-anchor="middle" transform="translate(0,0)" y="205" opacity="1">2010</text><text x="151.50980392157" style="color:#000000;cursor:default;font-size:10;fill:#000000;" text-anchor="middle" transform="translate(0,0)" y="205" opacity="1">2011</text><text x="208.00490196078" style="color:#000000;cursor:default;font-size:10;fill:#000000;" text-anchor="middle" transform="translate(0,0)" y="205" opacity="1">2012</text><text x="264.5" style="color:#000000;cursor:default;font-size:10;fill:#000000;" text-anchor="middle" transform="translate(0,0)" y="205" opacity="1">2013</text><text x="320.99509803922" style="color:#000000;cursor:default;font-size:10;fill:#000000;" text-anchor="middle" transform="translate(0,0)" y="205" opacity="1">2014</text><text x="377.49019607843" style="color:#000000;cursor:default;font-size:10;fill:#000000;" text-anchor="middle" transform="translate(0,0)" y="205" opacity="1">2015</text><text x="433.98529411765" style="color:#000000;cursor:default;font-size:10;fill:#000000;" text-anchor="middle" transform="translate(0,0)" y="205" opacity="1">2016</text><text x="490.48039215687" style="color:#000000;cursor:default;font-size:10;fill:#000000;" text-anchor="middle" transform="translate(0,0)" y="205" opacity="1">2017</text></g><g class="highcharts-axis-labels highcharts-yaxis-labels " data-z-index="7"><text x="19" style="color:#000000;cursor:default;font-size:10;fill:#000000;" text-anchor="end" transform="translate(0,0)" y="188" opacity="1">0</text><text x="19" style="color:#000000;cursor:default;font-size:10;fill:#000000;" text-anchor="end" transform="translate(0,0)" y="163" opacity="1">50</text><text x="19" style="color:#000000;cursor:default;font-size:10;fill:#000000;" text-anchor="end" transform="translate(0,0)" y="137" opacity="1">100</text><text x="19" style="color:#000000;cursor:default;font-size:10;fill:#000000;" text-anchor="end" transform="translate(0,0)" y="112" opacity="1">150</text><text x="19" style="color:#000000;cursor:default;font-size:10;fill:#000000;" text-anchor="end" transform="translate(0,0)" y="87" opacity="1">200</text><text x="19" style="color:#000000;cursor:default;font-size:10;fill:#000000;" text-anchor="end" transform="translate(0,0)" y="61" opacity="1">250</text><text x="19" style="color:#000000;cursor:default;font-size:10;fill:#000000;" text-anchor="end" transform="translate(0,0)" y="36" opacity="1">300</text></g><text x="10" class="highcharts-credits" text-anchor="start" data-z-index="8" style="cursor:default;color:#000000;font-size:10;fill:#000000;" y="193"><tspan>Quelle: Statistisches Amt Basel-Stadt, Bevölkerungsstatistik</tspan></text></svg>