<?xml version="1.0" standalone="no"?><!DOCTYPE svg PUBLIC "-//W3C//DTD SVG 1.1//EN" "http://www.w3.org/Graphics/SVG/1.1/DTD/svg11.dtd"><svg xmlns:xlink="http://www.w3.org/1999/xlink" version="1.1" class="highcharts-root" style="font-family:Arial;font-size:12px;" xmlns="http://www.w3.org/2000/svg" viewBox="0 0 485 415"><desc>Created with Highstock 6.1.1</desc><defs><clipPath id="highcharts-0p8jp6q-6"><rect x="0" y="0" width="290" height="43" fill="none"></rect></clipPath><clipPath id="highcharts-0p8jp6q-7"><rect x="0" y="0" width="290" height="43" fill="none"></rect></clipPath></defs><rect fill="#fbfbfb" class="highcharts-background" x="0" y="0" width="320" height="208" rx="0" ry="0"></rect><rect fill="none" class="highcharts-plot-background" x="28" y="93" width="290" height="43"></rect><g class="highcharts-pane-group" data-z-index="0"></g><g class="highcharts-grid highcharts-xaxis-grid " data-z-index="1"><path fill="none" data-z-index="1" class="highcharts-grid-line" d="M 85.5 93 L 85.5 136" opacity="1"></path><path fill="none" data-z-index="1" class="highcharts-grid-line" d="M 143.5 93 L 143.5 136" opacity="1"></path><path fill="none" data-z-index="1" class="highcharts-grid-line" d="M 201.5 93 L 201.5 136" opacity="1"></path><path fill="none" data-z-index="1" class="highcharts-grid-line" d="M 259.5 93 L 259.5 136" opacity="1"></path><path fill="none" data-z-index="1" class="highcharts-grid-line" d="M 317.5 93 L 317.5 136" opacity="1"></path><path fill="none" data-z-index="1" class="highcharts-grid-line" d="M 27.5 93 L 27.5 136" opacity="1"></path></g><g class="highcharts-grid highcharts-yaxis-grid " data-z-index="1"><path fill="none" stroke="#B9CFD7" stroke-width="0.5" data-z-index="1" class="highcharts-grid-line" d="M 28 136.25 L 318 136.25" opacity="1"></path><path fill="none" stroke="#B9CFD7" stroke-width="0.5" data-z-index="1" class="highcharts-grid-line" d="M 28 122.25 L 318 122.25" opacity="1"></path><path fill="none" stroke="#B9CFD7" stroke-width="0.5" data-z-index="1" class="highcharts-grid-line" d="M 28 107.25 L 318 107.25" opacity="1"></path><path fill="none" stroke="#B9CFD7" stroke-width="0.5" data-z-index="1" class="highcharts-grid-line" d="M 28 92.75 L 318 92.75" opacity="1"></path></g><rect fill="none" class="highcharts-plot-border" data-z-index="1" x="28" y="93" width="290" height="43"></rect><g class="highcharts-axis highcharts-xaxis " data-z-index="2"><path fill="none" class="highcharts-axis-line" stroke="#B9CFD7" stroke-width="0.5" data-z-index="7" d="M 28 136.25 L 318 136.25"></path></g><g class="highcharts-axis highcharts-yaxis " data-z-index="2"><path fill="none" class="highcharts-axis-line" data-z-index="7" d="M 28 93 L 28 136"></path></g><g class="highcharts-series-group" data-z-index="3"><g data-z-index="0.1" class="highcharts-series highcharts-series-0 highcharts-column-series " transform="translate(28,93) scale(1 1)" clip-path="url(#highcharts-0p8jp6q-7)"><rect x="12" y="27" width="8" height="17" fill="#661200" class="highcharts-point"></rect><rect x="70" y="30" width="8" height="14" fill="#661200" class="highcharts-point"></rect><rect x="128" y="31" width="8" height="13" fill="#661200" class="highcharts-point"></rect><rect x="186" y="35" width="8" height="9" fill="#661200" class="highcharts-point"></rect><rect x="244" y="41" width="8" height="3" fill="#661200" class="highcharts-point"></rect></g><g data-z-index="0.1" class="highcharts-markers highcharts-series-0 highcharts-column-series " transform="translate(28,93) scale(1 1)" clip-path="none"></g><g data-z-index="0.1" class="highcharts-series highcharts-series-1 highcharts-column-series " transform="translate(28,93) scale(1 1)" clip-path="url(#highcharts-0p8jp6q-7)"><rect x="20" y="39" width="9" height="5" fill="#dc440e" class="highcharts-point"></rect><rect x="78" y="41" width="9" height="3" fill="#dc440e" class="highcharts-point"></rect><rect x="136" y="39" width="9" height="5" fill="#dc440e" class="highcharts-point"></rect><rect x="194" y="41" width="9" height="3" fill="#dc440e" class="highcharts-point"></rect><rect x="252" y="43" width="9" height="1" fill="#dc440e" class="highcharts-point"></rect></g><g data-z-index="0.1" class="highcharts-markers highcharts-series-1 highcharts-column-series " transform="translate(28,93) scale(1 1)" clip-path="none"></g><g data-z-index="0.1" class="highcharts-series highcharts-series-2 highcharts-column-series " transform="translate(28,93) scale(1 1)" clip-path="url(#highcharts-0p8jp6q-7)"><rect x="29" y="9" width="9" height="35" fill="#7f5f1a" class="highcharts-point"></rect><rect x="87" y="26" width="9" height="18" fill="#7f5f1a" class="highcharts-point"></rect><rect x="145" y="26" width="9" height="18" fill="#7f5f1a" class="highcharts-point"></rect><rect x="203" y="35" width="9" height="9" fill="#7f5f1a" class="highcharts-point"></rect><rect x="261" y="41" width="9" height="3" fill="#7f5f1a" class="highcharts-point"></rect></g><g data-z-index="0.1" class="highcharts-markers highcharts-series-2 highcharts-column-series " transform="translate(28,93) scale(1 1)" clip-path="none"></g><g data-z-index="0.1" class="highcharts-series highcharts-series-3 highcharts-column-series " transform="translate(28,93) scale(1 1)" clip-path="url(#highcharts-0p8jp6q-7)"><rect x="38" y="37" width="8" height="7" fill="#ffda80" class="highcharts-point"></rect><rect x="96" y="39" width="8" height="5" fill="#ffda80" class="highcharts-point"></rect><rect x="154" y="39" width="8" height="5" fill="#ffda80" class="highcharts-point"></rect><rect x="212" y="40" width="8" height="4" fill="#ffda80" class="highcharts-point"></rect><rect x="270" y="42" width="8" height="2" fill="#ffda80" class="highcharts-point"></rect></g><g data-z-index="0.1" class="highcharts-markers highcharts-series-3 highcharts-column-series " transform="translate(28,93) scale(1 1)" clip-path="none"></g></g><text x="2" text-anchor="start" class="highcharts-title" data-z-index="4" style="color:#000000;font-size:10px;font-weight:bold;fill:#000000;" y="9"><tspan>Beschuldigte ab 18 Jahren pro 1000 Erwachsene</tspan></text><text x="2" text-anchor="start" class="highcharts-subtitle" data-z-index="4" style="color:#000000;font-size:10px;font-weight:normal;font-family:Arial;fill:#000000;" y="27"><tspan>nach Staatsangehörigkeit, Geschlecht und Alter, Basel-Stadt,</tspan><tspan dy="13" x="2">2009</tspan></text><g class="highcharts-legend" data-z-index="7" transform="translate(25,56)"><rect fill="none" class="highcharts-legend-box" rx="0" ry="0" x="0" y="0" width="195" height="25" visibility="visible"></rect><g data-z-index="1"><g><g class="highcharts-legend-item highcharts-column-series highcharts-color-undefined highcharts-series-0" data-z-index="1" transform="translate(0,-5)"><text x="21" style="color:#333333;font-size:10px;font-weight:normal;cursor:pointer;fill:#333333;" text-anchor="start" data-z-index="2" y="13"><tspan>Schweizer</tspan></text><rect x="3" y="4" width="10" height="10" fill="#661200" class="highcharts-point" data-z-index="3"></rect></g><g class="highcharts-legend-item highcharts-column-series highcharts-color-undefined highcharts-series-1" data-z-index="1" transform="translate(100,-5)"><text x="21" y="13" style="color:#333333;font-size:10px;font-weight:normal;cursor:pointer;fill:#333333;" text-anchor="start" data-z-index="2"><tspan>Schweizerinnen</tspan></text><rect x="3" y="4" width="10" height="10" fill="#dc440e" class="highcharts-point" data-z-index="3"></rect></g><g class="highcharts-legend-item highcharts-column-series highcharts-color-undefined highcharts-series-2" data-z-index="1" transform="translate(0,10)"><text x="21" y="13" style="color:#333333;font-size:10px;font-weight:normal;cursor:pointer;fill:#333333;" text-anchor="start" data-z-index="2"><tspan>Ausländer</tspan></text><rect x="3" y="4" width="10" height="10" fill="#7f5f1a" class="highcharts-point" data-z-index="3"></rect></g><g class="highcharts-legend-item highcharts-column-series highcharts-color-undefined highcharts-series-3" data-z-index="1" transform="translate(100,10)"><text x="21" y="13" style="color:#333333;font-size:10px;font-weight:normal;cursor:pointer;fill:#333333;" text-anchor="start" data-z-index="2"><tspan>Ausländerinnen</tspan></text><rect x="3" y="4" width="10" height="10" fill="#ffda80" class="highcharts-point" data-z-index="3"></rect></g></g></g></g><g class="highcharts-axis-labels highcharts-xaxis-labels " data-z-index="7"><text x="59.35702260395516" style="color:#000000;cursor:default;font-size:10px;fill:#000000;" text-anchor="end" transform="translate(0,0) rotate(-45 59.35702260395516 151)" y="151" opacity="1"><tspan>18-24 Jahre</tspan></text><text x="117.35702260395516" style="color:#000000;cursor:default;font-size:10px;fill:#000000;" text-anchor="end" transform="translate(0,0) rotate(-45 117.35702260395516 151)" y="151" opacity="1"><tspan>25-34 Jahre</tspan></text><text x="175.35702260395516" style="color:#000000;cursor:default;font-size:10px;fill:#000000;" text-anchor="end" transform="translate(0,0) rotate(-45 175.35702260395516 151)" y="151" opacity="1"><tspan>35-44 Jahre</tspan></text><text x="233.35702260395516" style="color:#000000;cursor:default;font-size:10px;fill:#000000;" text-anchor="end" transform="translate(0,0) rotate(-45 233.35702260395516 151)" y="151" opacity="1"><tspan>45-59 Jahre</tspan></text><text x="291.35702260395516" style="color:#000000;cursor:default;font-size:10px;fill:#000000;" text-anchor="end" transform="translate(0,0) rotate(-45 291.35702260395516 151)" y="151" opacity="1"><tspan>60 Jahre u.m.</tspan></text></g><g class="highcharts-axis-labels highcharts-yaxis-labels " data-z-index="7"><text x="13" style="color:#000000;cursor:default;font-size:10px;fill:#000000;" text-anchor="end" transform="translate(0,0)" y="139" opacity="1">0</text><text x="13" style="color:#000000;cursor:default;font-size:10px;fill:#000000;" text-anchor="end" transform="translate(0,0)" y="125" opacity="1">25</text><text x="13" style="color:#000000;cursor:default;font-size:10px;fill:#000000;" text-anchor="end" transform="translate(0,0)" y="110" opacity="1">50</text><text x="13" style="color:#000000;cursor:default;font-size:10px;fill:#000000;" text-anchor="end" transform="translate(0,0)" y="96" opacity="1">75</text></g><text x="10" class="highcharts-credits" text-anchor="start" data-z-index="8" style="cursor:default;color:#000000;font-size:10;fill:#000000;" y="183"><tspan>Quelle: Statistisches Amt Basel-Stadt, Bevölkerungsstatistik;</tspan><tspan x="10" dy="15">Bundesamt für Statistik (BFS), Polizeiliche Kriminalstatistik (PKS).</tspan></text></svg>