<?xml version="1.0" standalone="no"?><!DOCTYPE svg PUBLIC "-//W3C//DTD SVG 1.1//EN" "http://www.w3.org/Graphics/SVG/1.1/DTD/svg11.dtd"><svg xmlns:xlink="http://www.w3.org/1999/xlink" version="1.1" class="highcharts-root" style="font-family:Arial;font-size:12px;" xmlns="http://www.w3.org/2000/svg" viewBox="0 0 485 415"><desc>Created with Highstock 6.1.0</desc><defs><clipPath id="highcharts-kk232g3-6"><rect x="0" y="0" width="284" height="64" fill="none"></rect></clipPath><clipPath id="highcharts-kk232g3-7"><rect x="0" y="0" width="284" height="64" fill="none"></rect></clipPath></defs><rect fill="#fbfbfb" class="highcharts-background" x="0" y="0" width="320" height="208" rx="0" ry="0"></rect><rect fill="none" class="highcharts-plot-background" x="34" y="78" width="284" height="64"></rect><g class="highcharts-pane-group"></g><g class="highcharts-grid highcharts-xaxis-grid "><path fill="none" class="highcharts-grid-line" d="M 90.5 78 L 90.5 142" opacity="1"></path><path fill="none" class="highcharts-grid-line" d="M 147.5 78 L 147.5 142" opacity="1"></path><path fill="none" class="highcharts-grid-line" d="M 203.5 78 L 203.5 142" opacity="1"></path><path fill="none" class="highcharts-grid-line" d="M 260.5 78 L 260.5 142" opacity="1"></path><path fill="none" class="highcharts-grid-line" d="M 317.5 78 L 317.5 142" opacity="1"></path><path fill="none" class="highcharts-grid-line" d="M 33.5 78 L 33.5 142" opacity="1"></path></g><g class="highcharts-grid highcharts-yaxis-grid "><path fill="none" stroke="#B9CFD7" stroke-width="0.5" class="highcharts-grid-line" d="M 34 142.25 L 318 142.25" opacity="1"></path><path fill="none" stroke="#B9CFD7" stroke-width="0.5" class="highcharts-grid-line" d="M 34 110.25 L 318 110.25" opacity="1"></path><path fill="none" stroke="#B9CFD7" stroke-width="0.5" class="highcharts-grid-line" d="M 34 77.75 L 318 77.75" opacity="1"></path></g><rect fill="none" class="highcharts-plot-border" x="34" y="78" width="284" height="64"></rect><g class="highcharts-axis highcharts-xaxis "><path fill="none" class="highcharts-axis-line" stroke="#B9CFD7" stroke-width="0.5" d="M 34 142.25 L 318 142.25"></path></g><g class="highcharts-axis highcharts-yaxis "><path fill="none" class="highcharts-axis-line" d="M 34 78 L 34 142"></path></g><g class="highcharts-series-group"><g class="highcharts-series highcharts-series-0 highcharts-column-series " transform="translate(34,78) scale(1 1)" clip-path="url(#highcharts-kk232g3-7)"><rect x="11" y="46" width="9" height="19" fill="#661200" class="highcharts-point"></rect><rect x="68" y="49" width="9" height="16" fill="#661200" class="highcharts-point"></rect><rect x="125" y="50" width="8" height="15" fill="#661200" class="highcharts-point"></rect><rect x="182" y="55" width="8" height="10" fill="#661200" class="highcharts-point"></rect><rect x="239" y="62" width="8" height="3" fill="#661200" class="highcharts-point"></rect></g><g class="highcharts-markers highcharts-series-0 highcharts-column-series " transform="translate(34,78) scale(1 1)" clip-path="none"></g><g class="highcharts-series highcharts-series-1 highcharts-column-series " transform="translate(34,78) scale(1 1)" clip-path="url(#highcharts-kk232g3-7)"><rect x="20" y="60" width="8" height="5" fill="#dc440e" class="highcharts-point"></rect><rect x="77" y="61" width="8" height="4" fill="#dc440e" class="highcharts-point"></rect><rect x="133" y="60" width="9" height="5" fill="#dc440e" class="highcharts-point"></rect><rect x="190" y="62" width="9" height="3" fill="#dc440e" class="highcharts-point"></rect><rect x="247" y="64" width="9" height="1" fill="#dc440e" class="highcharts-point"></rect></g><g class="highcharts-markers highcharts-series-1 highcharts-column-series " transform="translate(34,78) scale(1 1)" clip-path="none"></g><g class="highcharts-series highcharts-series-2 highcharts-column-series " transform="translate(34,78) scale(1 1)" clip-path="url(#highcharts-kk232g3-7)"><rect x="28" y="26" width="9" height="39" fill="#7f5f1a" class="highcharts-point"></rect><rect x="85" y="45" width="9" height="20" fill="#7f5f1a" class="highcharts-point"></rect><rect x="142" y="45" width="9" height="20" fill="#7f5f1a" class="highcharts-point"></rect><rect x="199" y="55" width="8" height="10" fill="#7f5f1a" class="highcharts-point"></rect><rect x="256" y="61" width="8" height="4" fill="#7f5f1a" class="highcharts-point"></rect></g><g class="highcharts-markers highcharts-series-2 highcharts-column-series " transform="translate(34,78) scale(1 1)" clip-path="none"></g><g class="highcharts-series highcharts-series-3 highcharts-column-series " transform="translate(34,78) scale(1 1)" clip-path="url(#highcharts-kk232g3-7)"><rect x="37" y="57" width="8" height="8" fill="#ffda80" class="highcharts-point"></rect><rect x="94" y="60" width="8" height="5" fill="#ffda80" class="highcharts-point"></rect><rect x="151" y="59" width="8" height="6" fill="#ffda80" class="highcharts-point"></rect><rect x="207" y="61" width="9" height="4" fill="#ffda80" class="highcharts-point"></rect><rect x="264" y="63" width="9" height="2" fill="#ffda80" class="highcharts-point"></rect></g><g class="highcharts-markers highcharts-series-3 highcharts-column-series " transform="translate(34,78) scale(1 1)" clip-path="none"></g></g><text x="2" text-anchor="start" class="highcharts-title" style="color:#000000;font-size:10px;font-weight:bold;fill:#000000;" y="9"><tspan>Beschuldigte ab 18 Jahren pro 1000 Erwachsene</tspan></text><text x="2" text-anchor="start" class="highcharts-subtitle" style="color:#000000;font-size:10px;font-weight:normal;font-family:Arial;fill:#000000;" y="27"><tspan>nach Staatsangehörigkeit, Geschlecht und Alter, Stand: 2009</tspan></text><g class="highcharts-legend" transform="translate(34,43)"><rect fill="none" class="highcharts-legend-box" rx="0" ry="0" x="0" y="0" width="195" height="23" visibility="visible"></rect><g><g><g class="highcharts-legend-item highcharts-column-series highcharts-color-undefined highcharts-series-0" transform="translate(0,-5)"><text x="21" style="color:#333333;font-size:10px;font-weight:normal;cursor:pointer;fill:#333333;" text-anchor="start" y="13"><tspan>Schweizer</tspan></text><rect x="3" y="4" width="10" height="10" fill="#661200" class="highcharts-point"></rect></g><g class="highcharts-legend-item highcharts-column-series highcharts-color-undefined highcharts-series-1" transform="translate(100,-5)"><text x="21" y="13" style="color:#333333;font-size:10px;font-weight:normal;cursor:pointer;fill:#333333;" text-anchor="start"><tspan>Schweizerinnen</tspan></text><rect x="3" y="4" width="10" height="10" fill="#dc440e" class="highcharts-point"></rect></g><g class="highcharts-legend-item highcharts-column-series highcharts-color-undefined highcharts-series-2" transform="translate(0,9)"><text x="21" y="13" style="color:#333333;font-size:10px;font-weight:normal;cursor:pointer;fill:#333333;" text-anchor="start"><tspan>Ausländer</tspan></text><rect x="3" y="4" width="10" height="10" fill="#7f5f1a" class="highcharts-point"></rect></g><g class="highcharts-legend-item highcharts-column-series highcharts-color-undefined highcharts-series-3" transform="translate(100,9)"><text x="21" y="13" style="color:#333333;font-size:10px;font-weight:normal;cursor:pointer;fill:#333333;" text-anchor="start"><tspan>Ausländerinnen</tspan></text><rect x="3" y="4" width="10" height="10" fill="#ffda80" class="highcharts-point"></rect></g></g></g></g><g class="highcharts-axis-labels highcharts-xaxis-labels "><text x="66.4" style="color:#000000;cursor:default;font-size:10;fill:#000000;" text-anchor="end" transform="translate(0,0) rotate(-90 66.4 154)" y="154" opacity="1"><tspan>18-24 Jahre</tspan></text><text x="123.19999999999999" style="color:#000000;cursor:default;font-size:10;fill:#000000;" text-anchor="end" transform="translate(0,0) rotate(-90 123.19999999999999 154)" y="154" opacity="1"><tspan>25-34 Jahre</tspan></text><text x="180" style="color:#000000;cursor:default;font-size:10;fill:#000000;" text-anchor="end" transform="translate(0,0) rotate(-90 180 154)" y="154" opacity="1"><tspan>35-44 Jahre</tspan></text><text x="236.79999999999998" style="color:#000000;cursor:default;font-size:10;fill:#000000;" text-anchor="end" transform="translate(0,0) rotate(-90 236.79999999999998 154)" y="154" opacity="1"><tspan>45-59 Jahre</tspan></text><text x="293.6" style="color:#000000;cursor:default;font-size:10;fill:#000000;" text-anchor="end" transform="translate(0,0) rotate(-90 293.6 154)" y="154" opacity="1"><tspan>ab 60 Jahre</tspan></text></g><g class="highcharts-axis-labels highcharts-yaxis-labels "><text x="19" style="color:#000000;cursor:default;font-size:10;fill:#000000;" text-anchor="end" transform="translate(0,0)" y="145" opacity="1">0</text><text x="19" style="color:#000000;cursor:default;font-size:10;fill:#000000;" text-anchor="end" transform="translate(0,0)" y="113" opacity="1">50</text><text x="19" style="color:#000000;cursor:default;font-size:10;fill:#000000;" text-anchor="end" transform="translate(0,0)" y="81" opacity="1">100</text></g><text x="10" class="highcharts-credits" text-anchor="start" style="cursor:default;color:#000000;font-size:10px;fill:#000000;" y="193"><tspan>Quelle: Statistisches Amt Basel-Stadt, Bevölkerungsstatistik</tspan></text></svg>