<?xml version="1.0" standalone="no"?><!DOCTYPE svg PUBLIC "-//W3C//DTD SVG 1.1//EN" "http://www.w3.org/Graphics/SVG/1.1/DTD/svg11.dtd"><svg xmlns:xlink="http://www.w3.org/1999/xlink" version="1.1" class="highcharts-root" style="font-family:Arial;font-size:12px;" xmlns="http://www.w3.org/2000/svg" viewBox="0 0 485 415"><desc>Created with Highstock 6.1.0</desc><defs><clipPath id="highcharts-0oi7qqd-6"><rect x="0" y="0" width="282" height="65" fill="none"></rect></clipPath><clipPath id="highcharts-0oi7qqd-7"><rect x="0" y="0" width="282" height="65" fill="none"></rect></clipPath></defs><rect fill="#fbfbfb" class="highcharts-background" x="0" y="0" width="320" height="208" rx="0" ry="0"></rect><rect fill="none" class="highcharts-plot-background" x="35" y="104" width="282" height="65"></rect><g class="highcharts-pane-group"></g><g class="highcharts-grid highcharts-xaxis-grid "><path fill="none" class="highcharts-grid-line" d="M 92.5 104 L 92.5 169" opacity="1"></path><path fill="none" class="highcharts-grid-line" d="M 203.5 104 L 203.5 169" opacity="1"></path><path fill="none" class="highcharts-grid-line" d="M 313.5 104 L 313.5 169" opacity="1"></path></g><g class="highcharts-grid highcharts-yaxis-grid "><path fill="none" stroke="#B9CFD7" stroke-width="0.5" class="highcharts-grid-line" d="M 35 169.25 L 317 169.25" opacity="1"></path><path fill="none" stroke="#B9CFD7" stroke-width="0.5" class="highcharts-grid-line" d="M 35 103.75 L 317 103.75" opacity="1"></path></g><rect fill="none" class="highcharts-plot-border" x="35" y="104" width="282" height="65"></rect><g class="highcharts-axis highcharts-xaxis "><path fill="none" class="highcharts-axis-line" stroke="#B9CFD7" stroke-width="0.5" d="M 35 169.25 L 317 169.25"></path></g><g class="highcharts-axis highcharts-yaxis "><path fill="none" class="highcharts-axis-line" d="M 35 104 L 35 169"></path></g><g class="highcharts-series-group"><g class="highcharts-series highcharts-series-0 highcharts-area-series " transform="translate(35,104) scale(1 1)" clip-path="url(#highcharts-0oi7qqd-7)"><path fill="rgb(255,128,40)" fill-opacity="0.75" d="M 2.7647058823505 17.875 L 58.05882352941 9.208333333333336 L 113.35294117647 11.916666666666671 L 168.64705882353 21.125 L 223.94117647059 25.458333333333336 L 279.23529411765 27.625 L 279.23529411765 33.583333333333336 L 223.94117647059 28.708333333333336 L 168.64705882353 27.083333333333336 L 113.35294117647 18.41666666666667 L 58.05882352941 20.04166666666667 L 2.7647058823505 25.458333333333336" class="highcharts-area"></path><path fill="none" d="M 2.7647058823505 17.875 L 58.05882352941 9.208333333333336 L 113.35294117647 11.916666666666671 L 168.64705882353 21.125 L 223.94117647059 25.458333333333336 L 279.23529411765 27.625" class="highcharts-graph" stroke-linejoin="round" stroke-linecap="round"></path></g><g class="highcharts-markers highcharts-series-0 highcharts-area-series " transform="translate(35,104) scale(1 1)" clip-path="none"></g><g class="highcharts-series highcharts-series-1 highcharts-area-series " transform="translate(35,104) scale(1 1)" clip-path="url(#highcharts-0oi7qqd-7)"><path fill="rgb(146,63,141)" fill-opacity="0.75" d="M 2.7647058823505 25.458333333333336 L 58.05882352941 20.04166666666667 L 113.35294117647 18.41666666666667 L 168.64705882353 27.083333333333336 L 223.94117647059 28.708333333333336 L 279.23529411765 33.583333333333336 L 279.23529411765 38.458333333333336 L 223.94117647059 36.29166666666667 L 168.64705882353 39.54166666666667 L 113.35294117647 29.25 L 58.05882352941 28.16666666666667 L 2.7647058823505 34.125" class="highcharts-area"></path><path fill="none" d="M 2.7647058823505 25.458333333333336 L 58.05882352941 20.04166666666667 L 113.35294117647 18.41666666666667 L 168.64705882353 27.083333333333336 L 223.94117647059 28.708333333333336 L 279.23529411765 33.583333333333336" class="highcharts-graph" stroke-linejoin="round" stroke-linecap="round"></path></g><g class="highcharts-markers highcharts-series-1 highcharts-area-series " transform="translate(35,104) scale(1 1)" clip-path="none"></g><g class="highcharts-series highcharts-series-2 highcharts-area-series " transform="translate(35,104) scale(1 1)" clip-path="url(#highcharts-0oi7qqd-7)"><path fill="rgb(47,101,107)" fill-opacity="0.75" d="M 2.7647058823505 34.125 L 58.05882352941 28.16666666666667 L 113.35294117647 29.25 L 168.64705882353 39.54166666666667 L 223.94117647059 36.29166666666667 L 279.23529411765 38.458333333333336 L 279.23529411765 65 L 223.94117647059 65 L 168.64705882353 65 L 113.35294117647 65 L 58.05882352941 65 L 2.7647058823505 65" class="highcharts-area"></path><path fill="none" d="M 2.7647058823505 34.125 L 58.05882352941 28.16666666666667 L 113.35294117647 29.25 L 168.64705882353 39.54166666666667 L 223.94117647059 36.29166666666667 L 279.23529411765 38.458333333333336" class="highcharts-graph" stroke-linejoin="round" stroke-linecap="round"></path></g><g class="highcharts-markers highcharts-series-2 highcharts-area-series " transform="translate(35,104) scale(1 1)" clip-path="none"></g></g><text x="3" text-anchor="start" class="highcharts-title" style="color:#000000;font-size:10px;font-weight:bold;fill:#000000;" y="14"><tspan>Beschuldigte ausländische Jugendliche</tspan></text><text x="3" text-anchor="start" class="highcharts-subtitle" style="color:#000000;font-size:10px;font-weight:normal;font-family:Arial;fill:#000000;" y="32"><tspan>Jugendliche zwischen 10 und 17 Jahren nach</tspan><tspan dy="13" x="3">Aufenthaltsstatus</tspan><title>Jugendliche zwischen 10 und 17 Jahren nach Aufenthaltsstatus</title></text><g class="highcharts-legend" transform="translate(35,61)"><rect fill="none" class="highcharts-legend-box" rx="0" ry="0" x="0" y="0" width="180" height="31" visibility="visible"></rect><g><g><g class="highcharts-legend-item highcharts-area-series highcharts-color-undefined highcharts-series-2" transform="translate(0,-5)"><text x="21" style="color:#333333;font-size:10px;font-weight:normal;cursor:pointer;fill:#333333;" text-anchor="start" y="13"><tspan>C-Bew.</tspan></text><rect x="3" y="4" width="10" height="10" fill="#2F656B" class="highcharts-point"></rect></g><g class="highcharts-legend-item highcharts-area-series highcharts-color-undefined highcharts-series-1" transform="translate(100,-5)"><text x="21" y="13" style="color:#333333;font-size:10px;font-weight:normal;cursor:pointer;fill:#333333;" text-anchor="start"><tspan>B-Bew.</tspan></text><rect x="3" y="4" width="10" height="10" fill="#923F8D" class="highcharts-point"></rect></g><g class="highcharts-legend-item highcharts-area-series highcharts-color-undefined highcharts-series-0" transform="translate(0,13)"><text x="21" y="13" style="color:#333333;font-size:10px;font-weight:normal;cursor:pointer;fill:#333333;" text-anchor="start"><tspan>Übrige</tspan></text><rect x="3" y="4" width="10" height="10" fill="#FF8028" class="highcharts-point"></rect></g></g></g></g><g class="highcharts-axis-labels highcharts-xaxis-labels "><text x="93.05882352941" style="color:#000000;cursor:default;font-size:10;fill:#000000;" text-anchor="middle" transform="translate(0,0)" y="189" opacity="1">2012</text><text x="203.64705882353" style="color:#000000;cursor:default;font-size:10;fill:#000000;" text-anchor="middle" transform="translate(0,0)" y="189" opacity="1">2014</text><text x="305.90625" style="color:#000000;cursor:default;font-size:10;fill:#000000;" text-anchor="middle" transform="translate(0,0)" y="189" opacity="1">2016</text></g><g class="highcharts-axis-labels highcharts-yaxis-labels "><text x="20" style="color:#000000;cursor:default;font-size:10;fill:#000000;" text-anchor="end" transform="translate(0,0)" y="172" opacity="1">0</text><text x="20" style="color:#000000;cursor:default;font-size:10;fill:#000000;" text-anchor="end" transform="translate(0,0)" y="107" opacity="1">120</text></g><text x="10" class="highcharts-credits" text-anchor="start" style="cursor:default;color:#000000;font-size:10px;fill:#000000;" y="183"><tspan>Quelle: Statistisches Amt Basel-Stadt, Bevölkerungsstatistik;</tspan><tspan x="10" dy="13">Bundesamt für Statistik (BFS), Polizeiliche Kriminalstatistik (PKS)</tspan></text></svg>