<?xml version="1.0" standalone="no"?><!DOCTYPE svg PUBLIC "-//W3C//DTD SVG 1.1//EN" "http://www.w3.org/Graphics/SVG/1.1/DTD/svg11.dtd"><svg xmlns:xlink="http://www.w3.org/1999/xlink" version="1.1" class="highcharts-root" style="font-family:Arial;font-size:12px;" xmlns="http://www.w3.org/2000/svg" viewBox="0 0 485 415"><desc>Created with Highcharts 8.2.0</desc><defs><clipPath id="highcharts-ndwgrx4-33-"><rect x="0" y="0" width="270" height="121" fill="none"></rect></clipPath><clipPath id="highcharts-ndwgrx4-43-"><rect x="0" y="0" width="270" height="121" fill="none"></rect></clipPath></defs><rect fill="#fbfbfb" class="highcharts-background" x="0" y="0" width="320" height="221" rx="0" ry="0"></rect><rect fill="none" class="highcharts-plot-background" x="35" y="67" width="270" height="121"></rect><g class="highcharts-pane-group" data-z-index="0"></g><g class="highcharts-grid highcharts-xaxis-grid" data-z-index="1"><path fill="none" data-z-index="1" class="highcharts-grid-line" d="M 37.5 67 L 37.5 188" opacity="1"></path><path fill="none" data-z-index="1" class="highcharts-grid-line" d="M 70.5 67 L 70.5 188" opacity="1"></path><path fill="none" data-z-index="1" class="highcharts-grid-line" d="M 103.5 67 L 103.5 188" opacity="1"></path><path fill="none" data-z-index="1" class="highcharts-grid-line" d="M 136.5 67 L 136.5 188" opacity="1"></path><path fill="none" data-z-index="1" class="highcharts-grid-line" d="M 169.5 67 L 169.5 188" opacity="1"></path><path fill="none" data-z-index="1" class="highcharts-grid-line" d="M 202.5 67 L 202.5 188" opacity="1"></path><path fill="none" data-z-index="1" class="highcharts-grid-line" d="M 235.5 67 L 235.5 188" opacity="1"></path><path fill="none" data-z-index="1" class="highcharts-grid-line" d="M 268.5 67 L 268.5 188" opacity="1"></path><path fill="none" data-z-index="1" class="highcharts-grid-line" d="M 301.5 67 L 301.5 188" opacity="1"></path></g><g class="highcharts-grid highcharts-yaxis-grid" data-z-index="1"><path fill="none" stroke="#B9CFD7" stroke-width="0.5" data-z-index="1" class="highcharts-grid-line" d="M 35 188.25 L 305 188.25" opacity="1"></path><path fill="none" stroke="#B9CFD7" stroke-width="0.5" data-z-index="1" class="highcharts-grid-line" d="M 35 164.25 L 305 164.25" opacity="1"></path><path fill="none" stroke="#B9CFD7" stroke-width="0.5" data-z-index="1" class="highcharts-grid-line" d="M 35 140.25 L 305 140.25" opacity="1"></path><path fill="none" stroke="#B9CFD7" stroke-width="0.5" data-z-index="1" class="highcharts-grid-line" d="M 35 115.25 L 305 115.25" opacity="1"></path><path fill="none" stroke="#B9CFD7" stroke-width="0.5" data-z-index="1" class="highcharts-grid-line" d="M 35 91.25 L 305 91.25" opacity="1"></path><path fill="none" stroke="#B9CFD7" stroke-width="0.5" data-z-index="1" class="highcharts-grid-line" d="M 35 66.75 L 305 66.75" opacity="1"></path></g><rect fill="none" class="highcharts-plot-border" data-z-index="1" x="35" y="67" width="270" height="121"></rect><g class="highcharts-axis highcharts-xaxis" data-z-index="2"><path fill="none" class="highcharts-axis-line" stroke="#B9CFD7" stroke-width="0.5" data-z-index="7" d="M 35 188.25 L 305 188.25"></path></g><g class="highcharts-axis highcharts-yaxis" data-z-index="2"><path fill="none" class="highcharts-axis-line" data-z-index="7" d="M 35 67 L 35 188"></path></g><g class="highcharts-series-group" data-z-index="3"><g class="highcharts-series highcharts-series-0 highcharts-area-series" data-z-index="0.1" opacity="1" transform="translate(35,67) scale(1 1)" clip-path="url(#highcharts-ndwgrx4-43-)"><path fill="rgb(255,128,40)" fill-opacity="0.75" d="M 2.6470588235271 36.784000000000006 L 35.735294117645 19.36 L 68.823529411764 26.135999999999996 L 101.91176470588 40.656000000000006 L 135 50.336 L 168.08823529412 53.24000000000001 L 201.17647058824 50.336 L 234.26470588235 39.688 L 267.35294117647 34.848 L 267.35294117647 53.24000000000001 L 234.26470588235 63.888000000000005 L 201.17647058824 59.048 L 168.08823529412 64.856 L 135 56.144000000000005 L 101.91176470588 51.304 L 68.823529411764 37.75200000000001 L 35.735294117645 38.72 L 2.6470588235271 50.336" class="highcharts-area" data-z-index="0"></path><path fill="none" d="M 2.6470588235271 36.784000000000006 L 35.735294117645 19.36 L 68.823529411764 26.135999999999996 L 101.91176470588 40.656000000000006 L 135 50.336 L 168.08823529412 53.24000000000001 L 201.17647058824 50.336 L 234.26470588235 39.688 L 267.35294117647 34.848" class="highcharts-graph" data-z-index="1" stroke-linejoin="round" stroke-linecap="round"></path></g><g class="highcharts-markers highcharts-series-0 highcharts-area-series" data-z-index="0.1" opacity="1" transform="translate(35,67) scale(1 1)" clip-path="none"></g><g class="highcharts-series highcharts-series-1 highcharts-area-series" data-z-index="0.1" opacity="1" transform="translate(35,67) scale(1 1)" clip-path="url(#highcharts-ndwgrx4-43-)"><path fill="rgb(146,63,141)" fill-opacity="0.75" d="M 2.6470588235271 50.336 L 35.735294117645 38.72 L 68.823529411764 37.75200000000001 L 101.91176470588 51.304 L 135 56.144000000000005 L 168.08823529412 64.856 L 201.17647058824 59.048 L 234.26470588235 63.888000000000005 L 267.35294117647 53.24000000000001 L 267.35294117647 73.568 L 234.26470588235 69.696 L 201.17647058824 79.376 L 168.08823529412 73.568 L 135 69.696 L 101.91176470588 74.536 L 68.823529411764 57.112 L 35.735294117645 53.24000000000001 L 2.6470588235271 65.824" class="highcharts-area" data-z-index="0"></path><path fill="none" d="M 2.6470588235271 50.336 L 35.735294117645 38.72 L 68.823529411764 37.75200000000001 L 101.91176470588 51.304 L 135 56.144000000000005 L 168.08823529412 64.856 L 201.17647058824 59.048 L 234.26470588235 63.888000000000005 L 267.35294117647 53.24000000000001" class="highcharts-graph" data-z-index="1" stroke-linejoin="round" stroke-linecap="round"></path></g><g class="highcharts-markers highcharts-series-1 highcharts-area-series" data-z-index="0.1" opacity="1" transform="translate(35,67) scale(1 1)" clip-path="none"></g><g class="highcharts-series highcharts-series-2 highcharts-area-series" data-z-index="0.1" opacity="1" transform="translate(35,67) scale(1 1)" clip-path="url(#highcharts-ndwgrx4-43-)"><path fill="rgb(47,101,107)" fill-opacity="0.75" d="M 2.6470588235271 65.824 L 35.735294117645 53.24000000000001 L 68.823529411764 57.112 L 101.91176470588 74.536 L 135 69.696 L 168.08823529412 73.568 L 201.17647058824 79.376 L 234.26470588235 69.696 L 267.35294117647 73.568 L 267.35294117647 121 L 234.26470588235 121 L 201.17647058824 121 L 168.08823529412 121 L 135 121 L 101.91176470588 121 L 68.823529411764 121 L 35.735294117645 121 L 2.6470588235271 121" class="highcharts-area" data-z-index="0"></path><path fill="none" d="M 2.6470588235271 65.824 L 35.735294117645 53.24000000000001 L 68.823529411764 57.112 L 101.91176470588 74.536 L 135 69.696 L 168.08823529412 73.568 L 201.17647058824 79.376 L 234.26470588235 69.696 L 267.35294117647 73.568" class="highcharts-graph" data-z-index="1" stroke-linejoin="round" stroke-linecap="round"></path></g><g class="highcharts-markers highcharts-series-2 highcharts-area-series" data-z-index="0.1" opacity="1" transform="translate(35,67) scale(1 1)" clip-path="none"></g></g><text x="2" text-anchor="start" class="highcharts-title" data-z-index="4" style="color:#000000;font-size:10px;font-weight:bold;fill:#000000;" y="9"><tspan>Beschuldigte ausländische Jugendliche</tspan></text><text x="2" text-anchor="start" class="highcharts-subtitle" data-z-index="4" style="color:#000000;font-size:10px;font-weight:normal;font-family:Arial;fill:#000000;" y="26"><tspan>nach Aufenthaltsstatus, Basel-Stadt</tspan></text><text x="2" text-anchor="start" class="highcharts-caption" data-z-index="4" style="color:#666666;fill:#666666;" y="221"></text><g class="highcharts-legend" data-z-index="7" transform="translate(32,42)"><rect fill="none" class="highcharts-legend-box" rx="0" ry="0" x="0" y="0" width="200" height="13" visibility="visible"></rect><g data-z-index="1"><g><g class="highcharts-legend-item highcharts-area-series highcharts-color-undefined highcharts-series-2" data-z-index="1" transform="translate(0,-5)"><text x="21" style="color:#333333;cursor:pointer;font-size:10px;font-weight:normal;fill:#333333;" text-anchor="start" data-z-index="2" y="13"><tspan>C-Bew.</tspan></text><rect x="3" y="4" width="10" height="10" fill="#2F656B" class="highcharts-point" data-z-index="3"></rect></g><g class="highcharts-legend-item highcharts-area-series highcharts-color-undefined highcharts-series-1" data-z-index="1" transform="translate(74,-5)"><text x="21" y="13" style="color:#333333;cursor:pointer;font-size:10px;font-weight:normal;fill:#333333;" text-anchor="start" data-z-index="2"><tspan>B-Bew.</tspan></text><rect x="3" y="4" width="10" height="10" fill="#923F8D" class="highcharts-point" data-z-index="3"></rect></g><g class="highcharts-legend-item highcharts-area-series highcharts-color-undefined highcharts-series-0" data-z-index="1" transform="translate(148,-5)"><text x="21" y="13" style="color:#333333;cursor:pointer;font-size:10px;font-weight:normal;fill:#333333;" text-anchor="start" data-z-index="2"><tspan>Übrige</tspan></text><rect x="3" y="4" width="10" height="10" fill="#FF8028" class="highcharts-point" data-z-index="3"></rect></g></g></g></g><g class="highcharts-axis-labels highcharts-xaxis-labels" data-z-index="7"><text x="37.647058823527" style="color:#000000;cursor:default;font-size:10px;white-space:nowrap;fill:#000000;" text-anchor="middle" transform="translate(0,0)" y="206" opacity="1">2011</text><text x="70.735294117645" style="color:#000000;cursor:default;font-size:10px;white-space:nowrap;fill:#000000;" text-anchor="middle" transform="translate(0,0)" y="206" opacity="1">2012</text><text x="103.82352941176" style="color:#000000;cursor:default;font-size:10px;white-space:nowrap;fill:#000000;" text-anchor="middle" transform="translate(0,0)" y="206" opacity="1">2013</text><text x="136.91176470588" style="color:#000000;cursor:default;font-size:10px;white-space:nowrap;fill:#000000;" text-anchor="middle" transform="translate(0,0)" y="206" opacity="1">2014</text><text x="170" style="color:#000000;cursor:default;font-size:10px;white-space:nowrap;fill:#000000;" text-anchor="middle" transform="translate(0,0)" y="206" opacity="1">2015</text><text x="203.08823529412" style="color:#000000;cursor:default;font-size:10px;white-space:nowrap;fill:#000000;" text-anchor="middle" transform="translate(0,0)" y="206" opacity="1">2016</text><text x="236.17647058824" style="color:#000000;cursor:default;font-size:10px;white-space:nowrap;fill:#000000;" text-anchor="middle" transform="translate(0,0)" y="206" opacity="1">2017</text><text x="269.26470588235" style="color:#000000;cursor:default;font-size:10px;white-space:nowrap;fill:#000000;" text-anchor="middle" transform="translate(0,0)" y="206" opacity="1">2018</text><text x="302.35294117647" style="color:#000000;cursor:default;font-size:10px;white-space:nowrap;fill:#000000;" text-anchor="middle" transform="translate(0,0)" y="206" opacity="1">2019</text></g><g class="highcharts-axis-labels highcharts-yaxis-labels" data-z-index="7"><text x="20" style="color:#000000;cursor:default;font-size:10px;fill:#000000;" text-anchor="end" transform="translate(0,0)" y="191" opacity="1">0</text><text x="20" style="color:#000000;cursor:default;font-size:10px;fill:#000000;" text-anchor="end" transform="translate(0,0)" y="167" opacity="1">25</text><text x="20" style="color:#000000;cursor:default;font-size:10px;fill:#000000;" text-anchor="end" transform="translate(0,0)" y="143" opacity="1">50</text><text x="20" style="color:#000000;cursor:default;font-size:10px;fill:#000000;" text-anchor="end" transform="translate(0,0)" y="118" opacity="1">75</text><text x="20" style="color:#000000;cursor:default;font-size:10px;fill:#000000;" text-anchor="end" transform="translate(0,0)" y="94" opacity="1">100</text><text x="20" style="color:#000000;cursor:default;font-size:10px;fill:#000000;" text-anchor="end" transform="translate(0,0)" y="70" opacity="1">125</text></g><text x="10" class="highcharts-credits" text-anchor="start" data-z-index="8" style="cursor:default;color:#000000;font-size:10px;fill:#000000;" y="196"><tspan>Quelle: Bundesamt für Statistik (BFS), Polizeiliche Kriminalstatistik (PKS).</tspan><tspan x="10" dy="13">Zuletzt geändert: 2020-12-16</tspan></text></svg>