<?xml version="1.0" standalone="no"?><!DOCTYPE svg PUBLIC "-//W3C//DTD SVG 1.1//EN" "http://www.w3.org/Graphics/SVG/1.1/DTD/svg11.dtd"><svg xmlns:xlink="http://www.w3.org/1999/xlink" version="1.1" class="highcharts-root" style="font-family:Arial;font-size:10px;" xmlns="http://www.w3.org/2000/svg" viewBox="0 0 485 415"><desc>Created with Highstock 6.1.1</desc><defs><clipPath id="highcharts-brrwr4t-6"><rect x="0" y="0" width="511" height="71" fill="none"></rect></clipPath><clipPath id="highcharts-brrwr4t-7"><rect x="0" y="0" width="511" height="71" fill="none"></rect></clipPath></defs><rect fill="#fbfbfb" class="highcharts-background" x="0" y="0" width="665" height="208" rx="0" ry="0"></rect><rect fill="none" class="highcharts-plot-background" x="43" y="62" width="511" height="71"></rect><g class="highcharts-pane-group" data-z-index="0"></g><g class="highcharts-grid highcharts-xaxis-grid " data-z-index="1"><path fill="none" data-z-index="1" class="highcharts-grid-line" d="M 69.5 62 L 69.5 133" opacity="1"></path><path fill="none" data-z-index="1" class="highcharts-grid-line" d="M 96.5 62 L 96.5 133" opacity="1"></path><path fill="none" data-z-index="1" class="highcharts-grid-line" d="M 123.5 62 L 123.5 133" opacity="1"></path><path fill="none" data-z-index="1" class="highcharts-grid-line" d="M 150.5 62 L 150.5 133" opacity="1"></path><path fill="none" data-z-index="1" class="highcharts-grid-line" d="M 176.5 62 L 176.5 133" opacity="1"></path><path fill="none" data-z-index="1" class="highcharts-grid-line" d="M 203.5 62 L 203.5 133" opacity="1"></path><path fill="none" data-z-index="1" class="highcharts-grid-line" d="M 230.5 62 L 230.5 133" opacity="1"></path><path fill="none" data-z-index="1" class="highcharts-grid-line" d="M 257.5 62 L 257.5 133" opacity="1"></path><path fill="none" data-z-index="1" class="highcharts-grid-line" d="M 284.5 62 L 284.5 133" opacity="1"></path><path fill="none" data-z-index="1" class="highcharts-grid-line" d="M 311.5 62 L 311.5 133" opacity="1"></path><path fill="none" data-z-index="1" class="highcharts-grid-line" d="M 338.5 62 L 338.5 133" opacity="1"></path><path fill="none" data-z-index="1" class="highcharts-grid-line" d="M 365.5 62 L 365.5 133" opacity="1"></path><path fill="none" data-z-index="1" class="highcharts-grid-line" d="M 392.5 62 L 392.5 133" opacity="1"></path><path fill="none" data-z-index="1" class="highcharts-grid-line" d="M 419.5 62 L 419.5 133" opacity="1"></path><path fill="none" data-z-index="1" class="highcharts-grid-line" d="M 445.5 62 L 445.5 133" opacity="1"></path><path fill="none" data-z-index="1" class="highcharts-grid-line" d="M 472.5 62 L 472.5 133" opacity="1"></path><path fill="none" data-z-index="1" class="highcharts-grid-line" d="M 499.5 62 L 499.5 133" opacity="1"></path><path fill="none" data-z-index="1" class="highcharts-grid-line" d="M 526.5 62 L 526.5 133" opacity="1"></path><path fill="none" data-z-index="1" class="highcharts-grid-line" d="M 553.5 62 L 553.5 133" opacity="1"></path><path fill="none" data-z-index="1" class="highcharts-grid-line" d="M 42.5 62 L 42.5 133" opacity="1"></path></g><g class="highcharts-grid highcharts-yaxis-grid " data-z-index="1"><path fill="none" stroke="#B9CFD7" stroke-width="0.5" data-z-index="1" class="highcharts-grid-line" d="M 43 133.25 L 554 133.25" opacity="1"></path><path fill="none" stroke="#B9CFD7" stroke-width="0.5" data-z-index="1" class="highcharts-grid-line" d="M 43 98.25 L 554 98.25" opacity="1"></path><path fill="none" stroke="#B9CFD7" stroke-width="0.5" data-z-index="1" class="highcharts-grid-line" d="M 43 61.75 L 554 61.75" opacity="1"></path></g><rect fill="none" class="highcharts-plot-border" data-z-index="1" x="43" y="62" width="511" height="71"></rect><g class="highcharts-axis highcharts-xaxis " data-z-index="2"><path fill="none" class="highcharts-axis-line" stroke="#B9CFD7" stroke-width="0.5" data-z-index="7" d="M 43 133.25 L 554 133.25"></path></g><g class="highcharts-axis highcharts-yaxis " data-z-index="2"><path fill="none" class="highcharts-axis-line" data-z-index="7" d="M 43 62 L 43 133"></path></g><g class="highcharts-series-group" data-z-index="3"><g data-z-index="0.1" class="highcharts-series highcharts-series-0 highcharts-column-series " transform="translate(43,62) scale(1 1)" clip-path="url(#highcharts-brrwr4t-7)"><rect x="3" y="0" width="22" height="3" fill="#999999" class="highcharts-point"></rect><rect x="30" y="0" width="22" height="3" fill="#999999" class="highcharts-point"></rect><rect x="56" y="0" width="22" height="3" fill="#999999" class="highcharts-point"></rect><rect x="110" y="0" width="22" height="3" fill="#999999" class="highcharts-point"></rect><rect x="137" y="0" width="22" height="3" fill="#999999" class="highcharts-point"></rect><rect x="164" y="0" width="22" height="2" fill="#999999" class="highcharts-point"></rect><rect x="218" y="0" width="22" height="5" fill="#999999" class="highcharts-point"></rect><rect x="245" y="0" width="22" height="5" fill="#999999" class="highcharts-point"></rect><rect x="272" y="0" width="22" height="6" fill="#999999" class="highcharts-point"></rect><rect x="325" y="0" width="22" height="4" fill="#999999" class="highcharts-point"></rect><rect x="352" y="0" width="22" height="3" fill="#999999" class="highcharts-point"></rect><rect x="379" y="0" width="22" height="4" fill="#999999" class="highcharts-point"></rect><rect x="433" y="0" width="22" height="4" fill="#999999" class="highcharts-point"></rect><rect x="460" y="0" width="22" height="4" fill="#999999" class="highcharts-point"></rect><rect x="487" y="0" width="22" height="4" fill="#999999" class="highcharts-point"></rect></g><g data-z-index="0.1" class="highcharts-markers highcharts-series-0 highcharts-column-series " transform="translate(43,62) scale(1 1)" clip-path="none"></g><g data-z-index="0.1" class="highcharts-series highcharts-series-1 highcharts-column-series " transform="translate(43,62) scale(1 1)" clip-path="url(#highcharts-brrwr4t-7)"><rect x="3" y="3" width="22" height="3" fill="#dc440e" class="highcharts-point"></rect><rect x="30" y="3" width="22" height="3" fill="#dc440e" class="highcharts-point"></rect><rect x="56" y="3" width="22" height="0" fill="#dc440e" class="highcharts-point"></rect><rect x="110" y="3" width="22" height="4" fill="#dc440e" class="highcharts-point"></rect><rect x="137" y="3" width="22" height="4" fill="#dc440e" class="highcharts-point"></rect><rect x="164" y="2" width="22" height="1" fill="#dc440e" class="highcharts-point"></rect><rect x="218" y="5" width="22" height="4" fill="#dc440e" class="highcharts-point"></rect><rect x="245" y="5" width="22" height="4" fill="#dc440e" class="highcharts-point"></rect><rect x="272" y="6" width="22" height="1" fill="#dc440e" class="highcharts-point"></rect><rect x="325" y="4" width="22" height="3" fill="#dc440e" class="highcharts-point"></rect><rect x="352" y="3" width="22" height="5" fill="#dc440e" class="highcharts-point"></rect><rect x="379" y="4" width="22" height="1" fill="#dc440e" class="highcharts-point"></rect><rect x="433" y="4" width="22" height="4" fill="#dc440e" class="highcharts-point"></rect><rect x="460" y="4" width="22" height="5" fill="#dc440e" class="highcharts-point"></rect><rect x="487" y="4" width="22" height="2" fill="#dc440e" class="highcharts-point"></rect></g><g data-z-index="0.1" class="highcharts-markers highcharts-series-1 highcharts-column-series " transform="translate(43,62) scale(1 1)" clip-path="none"></g><g data-z-index="0.1" class="highcharts-series highcharts-series-2 highcharts-column-series " transform="translate(43,62) scale(1 1)" clip-path="url(#highcharts-brrwr4t-7)"><rect x="3" y="6" width="22" height="12" fill="#ffbb58" class="highcharts-point"></rect><rect x="30" y="6" width="22" height="14" fill="#ffbb58" class="highcharts-point"></rect><rect x="56" y="3" width="22" height="4" fill="#ffbb58" class="highcharts-point"></rect><rect x="110" y="7" width="22" height="14" fill="#ffbb58" class="highcharts-point"></rect><rect x="137" y="7" width="22" height="16" fill="#ffbb58" class="highcharts-point"></rect><rect x="164" y="3" width="22" height="6" fill="#ffbb58" class="highcharts-point"></rect><rect x="218" y="9" width="22" height="14" fill="#ffbb58" class="highcharts-point"></rect><rect x="245" y="9" width="22" height="15" fill="#ffbb58" class="highcharts-point"></rect><rect x="272" y="7" width="22" height="10" fill="#ffbb58" class="highcharts-point"></rect><rect x="325" y="7" width="22" height="15" fill="#ffbb58" class="highcharts-point"></rect><rect x="352" y="8" width="22" height="16" fill="#ffbb58" class="highcharts-point"></rect><rect x="379" y="5" width="22" height="7" fill="#ffbb58" class="highcharts-point"></rect><rect x="433" y="8" width="22" height="16" fill="#ffbb58" class="highcharts-point"></rect><rect x="460" y="9" width="22" height="16" fill="#ffbb58" class="highcharts-point"></rect><rect x="487" y="6" width="22" height="7" fill="#ffbb58" class="highcharts-point"></rect></g><g data-z-index="0.1" class="highcharts-markers highcharts-series-2 highcharts-column-series " transform="translate(43,62) scale(1 1)" clip-path="none"></g><g data-z-index="0.1" class="highcharts-series highcharts-series-3 highcharts-column-series " transform="translate(43,62) scale(1 1)" clip-path="url(#highcharts-brrwr4t-7)"><rect x="3" y="18" width="22" height="37" fill="#68ab2b" class="highcharts-point"></rect><rect x="30" y="20" width="22" height="37" fill="#68ab2b" class="highcharts-point"></rect><rect x="56" y="7" width="22" height="36" fill="#68ab2b" class="highcharts-point"></rect><rect x="110" y="21" width="22" height="33" fill="#68ab2b" class="highcharts-point"></rect><rect x="137" y="23" width="22" height="32" fill="#68ab2b" class="highcharts-point"></rect><rect x="164" y="9" width="22" height="34" fill="#68ab2b" class="highcharts-point"></rect><rect x="218" y="23" width="22" height="35" fill="#68ab2b" class="highcharts-point"></rect><rect x="245" y="24" width="22" height="34" fill="#68ab2b" class="highcharts-point"></rect><rect x="272" y="17" width="22" height="39" fill="#68ab2b" class="highcharts-point"></rect><rect x="325" y="22" width="22" height="33" fill="#68ab2b" class="highcharts-point"></rect><rect x="352" y="24" width="22" height="33" fill="#68ab2b" class="highcharts-point"></rect><rect x="379" y="12" width="22" height="32" fill="#68ab2b" class="highcharts-point"></rect><rect x="433" y="24" width="22" height="32" fill="#68ab2b" class="highcharts-point"></rect><rect x="460" y="25" width="22" height="32" fill="#68ab2b" class="highcharts-point"></rect><rect x="487" y="13" width="22" height="35" fill="#68ab2b" class="highcharts-point"></rect></g><g data-z-index="0.1" class="highcharts-markers highcharts-series-3 highcharts-column-series " transform="translate(43,62) scale(1 1)" clip-path="none"></g><g data-z-index="0.1" class="highcharts-series highcharts-series-4 highcharts-column-series " transform="translate(43,62) scale(1 1)" clip-path="url(#highcharts-brrwr4t-7)"><rect x="3" y="55" width="22" height="17" fill="#007a2f" class="highcharts-point"></rect><rect x="30" y="57" width="22" height="15" fill="#007a2f" class="highcharts-point"></rect><rect x="56" y="43" width="22" height="29" fill="#007a2f" class="highcharts-point"></rect><rect x="110" y="54" width="22" height="18" fill="#007a2f" class="highcharts-point"></rect><rect x="137" y="55" width="22" height="17" fill="#007a2f" class="highcharts-point"></rect><rect x="164" y="43" width="22" height="29" fill="#007a2f" class="highcharts-point"></rect><rect x="218" y="58" width="22" height="14" fill="#007a2f" class="highcharts-point"></rect><rect x="245" y="58" width="22" height="14" fill="#007a2f" class="highcharts-point"></rect><rect x="272" y="56" width="22" height="16" fill="#007a2f" class="highcharts-point"></rect><rect x="325" y="55" width="22" height="17" fill="#007a2f" class="highcharts-point"></rect><rect x="352" y="57" width="22" height="15" fill="#007a2f" class="highcharts-point"></rect><rect x="379" y="44" width="22" height="28" fill="#007a2f" class="highcharts-point"></rect><rect x="433" y="56" width="22" height="16" fill="#007a2f" class="highcharts-point"></rect><rect x="460" y="57" width="22" height="15" fill="#007a2f" class="highcharts-point"></rect><rect x="487" y="48" width="22" height="24" fill="#007a2f" class="highcharts-point"></rect></g><g data-z-index="0.1" class="highcharts-markers highcharts-series-4 highcharts-column-series " transform="translate(43,62) scale(1 1)" clip-path="none"></g></g><text x="2" text-anchor="start" class="highcharts-title" data-z-index="4" style="color:#000000;font-size:10px;font-weight:normal;fill:#000000;" y="12"><tspan>Beurteilung von gesellschaftlicher Vielfalt</tspan></text><text x="2" text-anchor="start" class="highcharts-subtitle" data-z-index="4" style="color:#000000;font-size:12px;fill:#000000;" y="32"><tspan>«Im Kanton Basel-Stadt gibt es Menschen aus den verschiedensten Ländern. Bitte geben Sie mir an, ob das eine</tspan><tspan dy="15" x="2">sehr grosse, eher grosse, eher nicht so grosse oder gar keine Bereicherung für den Kanton Basel-Stadt ist.»</tspan></text><g class="highcharts-legend" data-z-index="7" transform="translate(566,49)"><rect fill="none" class="highcharts-legend-box" rx="0" ry="0" x="0" y="0" width="96" height="88" visibility="visible"></rect><g data-z-index="1"><g><g class="highcharts-legend-item highcharts-column-series highcharts-color-undefined highcharts-series-0" data-z-index="1" transform="translate(0,-5)"><text x="21" style="color:#333333;font-size:10px;font-weight:normal;cursor:pointer;font-family:Arial;whitespace:nowrap;fill:#333333;" text-anchor="start" data-z-index="2" y="13"><tspan>Weiss nicht /</tspan><tspan x="21" dy="13">Keine Angabe</tspan></text><rect x="3" y="4" width="10" height="10" fill="#999999" class="highcharts-point" data-z-index="3"></rect></g><g class="highcharts-legend-item highcharts-column-series highcharts-color-undefined highcharts-series-1" data-z-index="1" transform="translate(0,24)"><text x="21" y="13" style="color:#333333;font-size:10px;font-weight:normal;cursor:pointer;font-family:Arial;whitespace:nowrap;fill:#333333;" text-anchor="start" data-z-index="2"><tspan>Sehr unzufrieden</tspan></text><rect x="3" y="4" width="10" height="10" fill="#dc440e" class="highcharts-point" data-z-index="3"></rect></g><g class="highcharts-legend-item highcharts-column-series highcharts-color-undefined highcharts-series-2" data-z-index="1" transform="translate(0,40)"><text x="21" y="13" style="color:#333333;font-size:10px;font-weight:normal;cursor:pointer;font-family:Arial;whitespace:nowrap;fill:#333333;" text-anchor="start" data-z-index="2"><tspan>Eher unzufrieden</tspan></text><rect x="3" y="4" width="10" height="10" fill="#ffbb58" class="highcharts-point" data-z-index="3"></rect></g><g class="highcharts-legend-item highcharts-column-series highcharts-color-undefined highcharts-series-3" data-z-index="1" transform="translate(0,56)"><text x="21" y="13" style="color:#333333;font-size:10px;font-weight:normal;cursor:pointer;font-family:Arial;whitespace:nowrap;fill:#333333;" text-anchor="start" data-z-index="2"><tspan>Eher zufrieden</tspan></text><rect x="3" y="4" width="10" height="10" fill="#68ab2b" class="highcharts-point" data-z-index="3"></rect></g><g class="highcharts-legend-item highcharts-column-series highcharts-color-undefined highcharts-series-4" data-z-index="1" transform="translate(0,72)"><text x="21" y="13" style="color:#333333;font-size:10px;font-weight:normal;cursor:pointer;font-family:Arial;whitespace:nowrap;fill:#333333;" text-anchor="start" data-z-index="2"><tspan>Sehr zufrieden</tspan></text><rect x="3" y="4" width="10" height="10" fill="#007a2f" class="highcharts-point" data-z-index="3"></rect></g></g></g></g><g class="highcharts-axis-labels highcharts-xaxis-labels " data-z-index="7"><text x="53.7807017543857" style="color:#000000;cursor:default;font-size:10px;white-space:nowrap;fill:#000000;" text-anchor="end" transform="translate(0,0) rotate(-90 53.7807017543857 143)" y="143" opacity="1"><tspan>2015 Total</tspan><tspan x="53.7807017543857" dy="13">(N=1506)</tspan></text><text x="80.6754385964917" style="color:#000000;cursor:default;font-size:10px;white-space:nowrap;fill:#000000;" text-anchor="end" transform="translate(0,0) rotate(-90 80.6754385964917 143)" y="143" opacity="1"><tspan>2015 Schweiz</tspan><tspan x="80.6754385964917" dy="13">(N=1333)</tspan></text><text x="107.5701754386007" style="color:#000000;cursor:default;font-size:10px;white-space:nowrap;fill:#000000;" text-anchor="end" transform="translate(0,0) rotate(-90 107.5701754386007 143)" y="143" opacity="1"><tspan>2015 Ausland</tspan><tspan x="107.5701754386007" dy="13">(N=173)</tspan></text><text x="134.4649122807007" style="color:#000000;cursor:default;font-size:10px;white-space:nowrap;fill:#000000;" text-anchor="end" transform="translate(0,0) rotate(-90 134.4649122807007 143)" y="143" opacity="1"></text><text x="161.3596491228107" style="color:#000000;cursor:default;font-size:10px;white-space:nowrap;fill:#000000;" text-anchor="end" transform="translate(0,0) rotate(-90 161.3596491228107 143)" y="143" opacity="1"><tspan>2011 Total</tspan><tspan x="161.3596491228107" dy="13">(N=1516)</tspan></text><text x="188.2543859649107" style="color:#000000;cursor:default;font-size:10px;white-space:nowrap;fill:#000000;" text-anchor="end" transform="translate(0,0) rotate(-90 188.2543859649107 143)" y="143" opacity="1"><tspan>2011 Schweiz</tspan><tspan x="188.2543859649107" dy="13">(N=1302)</tspan></text><text x="215.14912280702072" style="color:#000000;cursor:default;font-size:10px;white-space:nowrap;fill:#000000;" text-anchor="end" transform="translate(0,0) rotate(-90 215.14912280702072 143)" y="143" opacity="1"><tspan>2011 Ausland</tspan><tspan x="215.14912280702072" dy="13">(N=214)</tspan></text><text x="242.0438596491207" style="color:#000000;cursor:default;font-size:10px;white-space:nowrap;fill:#000000;" text-anchor="end" transform="translate(0,0) rotate(-90 242.0438596491207 143)" y="143" opacity="1"></text><text x="268.93859649123067" style="color:#000000;cursor:default;font-size:10px;white-space:nowrap;fill:#000000;" text-anchor="end" transform="translate(0,0) rotate(-90 268.93859649123067 143)" y="143" opacity="1"><tspan>2007 Total</tspan><tspan x="268.93859649123067" dy="13">(N=1509)</tspan></text><text x="295.83333333333064" style="color:#000000;cursor:default;font-size:10px;white-space:nowrap;fill:#000000;" text-anchor="end" transform="translate(0,0) rotate(-90 295.83333333333064 143)" y="143" opacity="1"><tspan>2007 Schweiz</tspan><tspan x="295.83333333333064" dy="13">(N=1331)</tspan></text><text x="322.7280701754407" style="color:#000000;cursor:default;font-size:10px;white-space:nowrap;fill:#000000;" text-anchor="end" transform="translate(0,0) rotate(-90 322.7280701754407 143)" y="143" opacity="1"><tspan>2007 Ausland</tspan><tspan x="322.7280701754407" dy="13">(N=178)</tspan></text><text x="349.62280701754065" style="color:#000000;cursor:default;font-size:10px;white-space:nowrap;fill:#000000;" text-anchor="end" transform="translate(0,0) rotate(-90 349.62280701754065 143)" y="143" opacity="1"></text><text x="376.51754385965063" style="color:#000000;cursor:default;font-size:10px;white-space:nowrap;fill:#000000;" text-anchor="end" transform="translate(0,0) rotate(-90 376.51754385965063 143)" y="143" opacity="1"><tspan>2005 Total</tspan><tspan x="376.51754385965063" dy="13">(N=1510)</tspan></text><text x="403.41228070175066" style="color:#000000;cursor:default;font-size:10px;white-space:nowrap;fill:#000000;" text-anchor="end" transform="translate(0,0) rotate(-90 403.41228070175066 143)" y="143" opacity="1"><tspan>2005 Schweiz</tspan><tspan x="403.41228070175066" dy="13">(N=1300)</tspan></text><text x="430.30701754386064" style="color:#000000;cursor:default;font-size:10px;white-space:nowrap;fill:#000000;" text-anchor="end" transform="translate(0,0) rotate(-90 430.30701754386064 143)" y="143" opacity="1"><tspan>2005 Ausland</tspan><tspan x="430.30701754386064" dy="13">(N=210)</tspan></text><text x="457.20175438596067" style="color:#000000;cursor:default;font-size:10px;white-space:nowrap;fill:#000000;" text-anchor="end" transform="translate(0,0) rotate(-90 457.20175438596067 143)" y="143" opacity="1"></text><text x="484.09649122807065" style="color:#000000;cursor:default;font-size:10px;white-space:nowrap;fill:#000000;" text-anchor="end" transform="translate(0,0) rotate(-90 484.09649122807065 143)" y="143" opacity="1"><tspan>2003 Total</tspan><tspan x="484.09649122807065" dy="13">(N=1497)</tspan></text><text x="510.99122807017073" style="color:#000000;cursor:default;font-size:10px;white-space:nowrap;fill:#000000;" text-anchor="end" transform="translate(0,0) rotate(-90 510.99122807017073 143)" y="143" opacity="1"><tspan>2003 Schweiz</tspan><tspan x="510.99122807017073" dy="13">(N=1291)</tspan></text><text x="537.8859649122808" style="color:#000000;cursor:default;font-size:10px;white-space:nowrap;fill:#000000;" text-anchor="end" transform="translate(0,0) rotate(-90 537.8859649122808 143)" y="143" opacity="1"><tspan>2003 Ausland</tspan><tspan x="537.8859649122808" dy="13">(N=206)</tspan></text></g><g class="highcharts-axis-labels highcharts-yaxis-labels " data-z-index="7"><text x="28" style="color:#000000;cursor:default;font-size:10px;fill:#000000;" text-anchor="end" transform="translate(0,0)" y="136" opacity="1">0%</text><text x="28" style="color:#000000;cursor:default;font-size:10px;fill:#000000;" text-anchor="end" transform="translate(0,0)" y="101" opacity="1">50%</text><text x="28" style="color:#000000;cursor:default;font-size:10px;fill:#000000;" text-anchor="end" transform="translate(0,0)" y="65" opacity="1">100%</text></g><text x="10" class="highcharts-credits" text-anchor="start" data-z-index="8" style="cursor:default;color:#000000;font-size:10px;fill:#000000;" y="193"><tspan>Quelle: Statistisches Amt Basel-Stadt, kantonale Bevölkerungsbefragung: F18.</tspan></text></svg>