<?xml version="1.0" standalone="no"?><!DOCTYPE svg PUBLIC "-//W3C//DTD SVG 1.1//EN" "http://www.w3.org/Graphics/SVG/1.1/DTD/svg11.dtd"><svg xmlns:xlink="http://www.w3.org/1999/xlink" version="1.1" class="highcharts-root" style="font-family:Arial;font-size:10px;" xmlns="http://www.w3.org/2000/svg" viewBox="0 0 485 415"><desc>Created with Highstock 6.1.1</desc><defs><clipPath id="highcharts-0kb7s25-6"><rect x="0" y="0" width="493" height="55" fill="none"></rect></clipPath><clipPath id="highcharts-0kb7s25-7"><rect x="0" y="0" width="493" height="55" fill="none"></rect></clipPath></defs><rect fill="#fbfbfb" class="highcharts-background" x="0" y="0" width="665" height="208" rx="0" ry="0"></rect><rect fill="none" class="highcharts-plot-background" x="44" y="78" width="493" height="55"></rect><g class="highcharts-pane-group" data-z-index="0"></g><g class="highcharts-grid highcharts-xaxis-grid " data-z-index="1"><path fill="none" data-z-index="1" class="highcharts-grid-line" d="M 69.5 78 L 69.5 133" opacity="1"></path><path fill="none" data-z-index="1" class="highcharts-grid-line" d="M 95.5 78 L 95.5 133" opacity="1"></path><path fill="none" data-z-index="1" class="highcharts-grid-line" d="M 121.5 78 L 121.5 133" opacity="1"></path><path fill="none" data-z-index="1" class="highcharts-grid-line" d="M 147.5 78 L 147.5 133" opacity="1"></path><path fill="none" data-z-index="1" class="highcharts-grid-line" d="M 173.5 78 L 173.5 133" opacity="1"></path><path fill="none" data-z-index="1" class="highcharts-grid-line" d="M 199.5 78 L 199.5 133" opacity="1"></path><path fill="none" data-z-index="1" class="highcharts-grid-line" d="M 225.5 78 L 225.5 133" opacity="1"></path><path fill="none" data-z-index="1" class="highcharts-grid-line" d="M 251.5 78 L 251.5 133" opacity="1"></path><path fill="none" data-z-index="1" class="highcharts-grid-line" d="M 277.5 78 L 277.5 133" opacity="1"></path><path fill="none" data-z-index="1" class="highcharts-grid-line" d="M 302.5 78 L 302.5 133" opacity="1"></path><path fill="none" data-z-index="1" class="highcharts-grid-line" d="M 328.5 78 L 328.5 133" opacity="1"></path><path fill="none" data-z-index="1" class="highcharts-grid-line" d="M 354.5 78 L 354.5 133" opacity="1"></path><path fill="none" data-z-index="1" class="highcharts-grid-line" d="M 380.5 78 L 380.5 133" opacity="1"></path><path fill="none" data-z-index="1" class="highcharts-grid-line" d="M 406.5 78 L 406.5 133" opacity="1"></path><path fill="none" data-z-index="1" class="highcharts-grid-line" d="M 432.5 78 L 432.5 133" opacity="1"></path><path fill="none" data-z-index="1" class="highcharts-grid-line" d="M 458.5 78 L 458.5 133" opacity="1"></path><path fill="none" data-z-index="1" class="highcharts-grid-line" d="M 484.5 78 L 484.5 133" opacity="1"></path><path fill="none" data-z-index="1" class="highcharts-grid-line" d="M 510.5 78 L 510.5 133" opacity="1"></path><path fill="none" data-z-index="1" class="highcharts-grid-line" d="M 536.5 78 L 536.5 133" opacity="1"></path><path fill="none" data-z-index="1" class="highcharts-grid-line" d="M 43.5 78 L 43.5 133" opacity="1"></path></g><g class="highcharts-grid highcharts-yaxis-grid " data-z-index="1"><path fill="none" stroke="#B9CFD7" stroke-width="0.5" data-z-index="1" class="highcharts-grid-line" d="M 44 133.25 L 537 133.25" opacity="1"></path><path fill="none" stroke="#B9CFD7" stroke-width="0.5" data-z-index="1" class="highcharts-grid-line" d="M 44 106.25 L 537 106.25" opacity="1"></path><path fill="none" stroke="#B9CFD7" stroke-width="0.5" data-z-index="1" class="highcharts-grid-line" d="M 44 77.75 L 537 77.75" opacity="1"></path></g><rect fill="none" class="highcharts-plot-border" data-z-index="1" x="44" y="78" width="493" height="55"></rect><g class="highcharts-axis highcharts-xaxis " data-z-index="2"><path fill="none" class="highcharts-axis-line" stroke="#B9CFD7" stroke-width="0.5" data-z-index="7" d="M 44 133.25 L 537 133.25"></path></g><g class="highcharts-axis highcharts-yaxis " data-z-index="2"><path fill="none" class="highcharts-axis-line" data-z-index="7" d="M 44 78 L 44 133"></path></g><g class="highcharts-series-group" data-z-index="3"><g data-z-index="0.1" class="highcharts-series highcharts-series-0 highcharts-column-series " transform="translate(44,78) scale(1 1)" clip-path="url(#highcharts-0kb7s25-7)"><rect x="3" y="0" width="21" height="3" fill="#999999" class="highcharts-point"></rect><rect x="29" y="0" width="21" height="3" fill="#999999" class="highcharts-point"></rect><rect x="54" y="0" width="21" height="3" fill="#999999" class="highcharts-point"></rect><rect x="106" y="0" width="21" height="2" fill="#999999" class="highcharts-point"></rect><rect x="132" y="0" width="21" height="2" fill="#999999" class="highcharts-point"></rect><rect x="158" y="0" width="21" height="2" fill="#999999" class="highcharts-point"></rect><rect x="210" y="0" width="21" height="4" fill="#999999" class="highcharts-point"></rect><rect x="236" y="0" width="21" height="4" fill="#999999" class="highcharts-point"></rect><rect x="262" y="0" width="21" height="5" fill="#999999" class="highcharts-point"></rect><rect x="314" y="0" width="21" height="3" fill="#999999" class="highcharts-point"></rect><rect x="340" y="0" width="21" height="3" fill="#999999" class="highcharts-point"></rect><rect x="366" y="0" width="21" height="3" fill="#999999" class="highcharts-point"></rect><rect x="418" y="0" width="21" height="3" fill="#999999" class="highcharts-point"></rect><rect x="444" y="0" width="21" height="3" fill="#999999" class="highcharts-point"></rect><rect x="470" y="0" width="21" height="4" fill="#999999" class="highcharts-point"></rect></g><g data-z-index="0.1" class="highcharts-markers highcharts-series-0 highcharts-column-series " transform="translate(44,78) scale(1 1)" clip-path="none"></g><g data-z-index="0.1" class="highcharts-series highcharts-series-1 highcharts-column-series " transform="translate(44,78) scale(1 1)" clip-path="url(#highcharts-0kb7s25-7)"><rect x="3" y="3" width="21" height="2" fill="#dc440e" class="highcharts-point"></rect><rect x="29" y="3" width="21" height="2" fill="#dc440e" class="highcharts-point"></rect><rect x="54" y="3" width="21" height="0" fill="#dc440e" class="highcharts-point"></rect><rect x="106" y="2" width="21" height="3" fill="#dc440e" class="highcharts-point"></rect><rect x="132" y="2" width="21" height="4" fill="#dc440e" class="highcharts-point"></rect><rect x="158" y="2" width="21" height="0" fill="#dc440e" class="highcharts-point"></rect><rect x="210" y="4" width="21" height="3" fill="#dc440e" class="highcharts-point"></rect><rect x="236" y="4" width="21" height="3" fill="#dc440e" class="highcharts-point"></rect><rect x="262" y="5" width="21" height="0" fill="#dc440e" class="highcharts-point"></rect><rect x="314" y="3" width="21" height="3" fill="#dc440e" class="highcharts-point"></rect><rect x="340" y="3" width="21" height="3" fill="#dc440e" class="highcharts-point"></rect><rect x="366" y="3" width="21" height="1" fill="#dc440e" class="highcharts-point"></rect><rect x="418" y="3" width="21" height="4" fill="#dc440e" class="highcharts-point"></rect><rect x="444" y="3" width="21" height="4" fill="#dc440e" class="highcharts-point"></rect><rect x="470" y="4" width="21" height="1" fill="#dc440e" class="highcharts-point"></rect></g><g data-z-index="0.1" class="highcharts-markers highcharts-series-1 highcharts-column-series " transform="translate(44,78) scale(1 1)" clip-path="none"></g><g data-z-index="0.1" class="highcharts-series highcharts-series-2 highcharts-column-series " transform="translate(44,78) scale(1 1)" clip-path="url(#highcharts-0kb7s25-7)"><rect x="3" y="5" width="21" height="9" fill="#ffbb58" class="highcharts-point"></rect><rect x="29" y="5" width="21" height="10" fill="#ffbb58" class="highcharts-point"></rect><rect x="54" y="3" width="21" height="3" fill="#ffbb58" class="highcharts-point"></rect><rect x="106" y="5" width="21" height="11" fill="#ffbb58" class="highcharts-point"></rect><rect x="132" y="6" width="21" height="12" fill="#ffbb58" class="highcharts-point"></rect><rect x="158" y="2" width="21" height="5" fill="#ffbb58" class="highcharts-point"></rect><rect x="210" y="7" width="21" height="11" fill="#ffbb58" class="highcharts-point"></rect><rect x="236" y="7" width="21" height="12" fill="#ffbb58" class="highcharts-point"></rect><rect x="262" y="5" width="21" height="8" fill="#ffbb58" class="highcharts-point"></rect><rect x="314" y="6" width="21" height="11" fill="#ffbb58" class="highcharts-point"></rect><rect x="340" y="6" width="21" height="12" fill="#ffbb58" class="highcharts-point"></rect><rect x="366" y="4" width="21" height="6" fill="#ffbb58" class="highcharts-point"></rect><rect x="418" y="7" width="21" height="11" fill="#ffbb58" class="highcharts-point"></rect><rect x="444" y="7" width="21" height="13" fill="#ffbb58" class="highcharts-point"></rect><rect x="470" y="5" width="21" height="6" fill="#ffbb58" class="highcharts-point"></rect></g><g data-z-index="0.1" class="highcharts-markers highcharts-series-2 highcharts-column-series " transform="translate(44,78) scale(1 1)" clip-path="none"></g><g data-z-index="0.1" class="highcharts-series highcharts-series-3 highcharts-column-series " transform="translate(44,78) scale(1 1)" clip-path="url(#highcharts-0kb7s25-7)"><rect x="3" y="14" width="21" height="29" fill="#68ab2b" class="highcharts-point"></rect><rect x="29" y="15" width="21" height="29" fill="#68ab2b" class="highcharts-point"></rect><rect x="54" y="6" width="21" height="27" fill="#68ab2b" class="highcharts-point"></rect><rect x="106" y="16" width="21" height="26" fill="#68ab2b" class="highcharts-point"></rect><rect x="132" y="18" width="21" height="25" fill="#68ab2b" class="highcharts-point"></rect><rect x="158" y="7" width="21" height="27" fill="#68ab2b" class="highcharts-point"></rect><rect x="210" y="18" width="21" height="27" fill="#68ab2b" class="highcharts-point"></rect><rect x="236" y="19" width="21" height="27" fill="#68ab2b" class="highcharts-point"></rect><rect x="262" y="13" width="21" height="30" fill="#68ab2b" class="highcharts-point"></rect><rect x="314" y="17" width="21" height="26" fill="#68ab2b" class="highcharts-point"></rect><rect x="340" y="18" width="21" height="27" fill="#68ab2b" class="highcharts-point"></rect><rect x="366" y="10" width="21" height="24" fill="#68ab2b" class="highcharts-point"></rect><rect x="418" y="18" width="21" height="26" fill="#68ab2b" class="highcharts-point"></rect><rect x="444" y="20" width="21" height="25" fill="#68ab2b" class="highcharts-point"></rect><rect x="470" y="11" width="21" height="26" fill="#68ab2b" class="highcharts-point"></rect></g><g data-z-index="0.1" class="highcharts-markers highcharts-series-3 highcharts-column-series " transform="translate(44,78) scale(1 1)" clip-path="none"></g><g data-z-index="0.1" class="highcharts-series highcharts-series-4 highcharts-column-series " transform="translate(44,78) scale(1 1)" clip-path="url(#highcharts-0kb7s25-7)"><rect x="3" y="43" width="21" height="13" fill="#007a2f" class="highcharts-point"></rect><rect x="29" y="44" width="21" height="12" fill="#007a2f" class="highcharts-point"></rect><rect x="54" y="33" width="21" height="23" fill="#007a2f" class="highcharts-point"></rect><rect x="106" y="42" width="21" height="14" fill="#007a2f" class="highcharts-point"></rect><rect x="132" y="43" width="21" height="13" fill="#007a2f" class="highcharts-point"></rect><rect x="158" y="34" width="21" height="22" fill="#007a2f" class="highcharts-point"></rect><rect x="210" y="45" width="21" height="11" fill="#007a2f" class="highcharts-point"></rect><rect x="236" y="46" width="21" height="10" fill="#007a2f" class="highcharts-point"></rect><rect x="262" y="43" width="21" height="13" fill="#007a2f" class="highcharts-point"></rect><rect x="314" y="43" width="21" height="13" fill="#007a2f" class="highcharts-point"></rect><rect x="340" y="45" width="21" height="11" fill="#007a2f" class="highcharts-point"></rect><rect x="366" y="34" width="21" height="22" fill="#007a2f" class="highcharts-point"></rect><rect x="418" y="44" width="21" height="12" fill="#007a2f" class="highcharts-point"></rect><rect x="444" y="45" width="21" height="11" fill="#007a2f" class="highcharts-point"></rect><rect x="470" y="37" width="21" height="19" fill="#007a2f" class="highcharts-point"></rect></g><g data-z-index="0.1" class="highcharts-markers highcharts-series-4 highcharts-column-series " transform="translate(44,78) scale(1 1)" clip-path="none"></g></g><text x="2" text-anchor="start" class="highcharts-title" data-z-index="4" style="color:#000000;font-size:10px;font-weight:normal;fill:#000000;" y="12"><tspan>Beurteilung von gesellschaftlicher Vielfalt</tspan></text><text x="2" text-anchor="start" class="highcharts-subtitle" data-z-index="4" style="color:#000000;font-size:12px;fill:#000000;" y="32"><tspan>«Im Kanton Basel-Stadt gibt es Menschen aus den verschiedensten Ländern. Bitte geben Sie mir an, ob das</tspan><tspan dy="15" x="2">eine sehr grosse, eher grosse, eher nicht so grosse oder gar keine Bereicherung für den Kanton Basel-Stadt</tspan><tspan dy="15" x="2">ist.»</tspan></text><g class="highcharts-legend" data-z-index="7" transform="translate(549,49)"><rect fill="none" class="highcharts-legend-box" rx="0" ry="0" x="0" y="0" width="114" height="88" visibility="visible"></rect><g data-z-index="1"><g><g class="highcharts-legend-item highcharts-column-series highcharts-color-undefined highcharts-series-0" data-z-index="1" transform="translate(0,-5)"><text x="21" style="color:#333333;font-size:10px;font-weight:normal;cursor:pointer;font-family:Arial;whitespace:nowrap;fill:#333333;" text-anchor="start" data-z-index="2" y="13"><tspan>Weiss nicht /</tspan><tspan x="21" dy="13">Keine Angabe</tspan></text><rect x="3" y="4" width="10" height="10" fill="#999999" class="highcharts-point" data-z-index="3"></rect></g><g class="highcharts-legend-item highcharts-column-series highcharts-color-undefined highcharts-series-1" data-z-index="1" transform="translate(0,24)"><text x="21" y="13" style="color:#333333;font-size:10px;font-weight:normal;cursor:pointer;font-family:Arial;whitespace:nowrap;fill:#333333;" text-anchor="start" data-z-index="2"><tspan>Gar keine</tspan></text><rect x="3" y="4" width="10" height="10" fill="#dc440e" class="highcharts-point" data-z-index="3"></rect></g><g class="highcharts-legend-item highcharts-column-series highcharts-color-undefined highcharts-series-2" data-z-index="1" transform="translate(0,40)"><text x="21" y="13" style="color:#333333;font-size:10px;font-weight:normal;cursor:pointer;font-family:Arial;whitespace:nowrap;fill:#333333;" text-anchor="start" data-z-index="2"><tspan>Eher nicht so grosse</tspan></text><rect x="3" y="4" width="10" height="10" fill="#ffbb58" class="highcharts-point" data-z-index="3"></rect></g><g class="highcharts-legend-item highcharts-column-series highcharts-color-undefined highcharts-series-3" data-z-index="1" transform="translate(0,56)"><text x="21" y="13" style="color:#333333;font-size:10px;font-weight:normal;cursor:pointer;font-family:Arial;whitespace:nowrap;fill:#333333;" text-anchor="start" data-z-index="2"><tspan>Eher grosse</tspan></text><rect x="3" y="4" width="10" height="10" fill="#68ab2b" class="highcharts-point" data-z-index="3"></rect></g><g class="highcharts-legend-item highcharts-column-series highcharts-color-undefined highcharts-series-4" data-z-index="1" transform="translate(0,72)"><text x="21" y="13" style="color:#333333;font-size:10px;font-weight:normal;cursor:pointer;font-family:Arial;whitespace:nowrap;fill:#333333;" text-anchor="start" data-z-index="2"><tspan>Sehr grosse</tspan></text><rect x="3" y="4" width="10" height="10" fill="#007a2f" class="highcharts-point" data-z-index="3"></rect></g></g></g></g><g class="highcharts-axis-labels highcharts-xaxis-labels " data-z-index="7"><text x="54.30701754386001" style="color:#000000;cursor:default;font-size:10px;white-space:nowrap;fill:#000000;" text-anchor="end" transform="translate(0,0) rotate(-90 54.30701754386001 143)" y="143" opacity="1"><tspan>2015 Total</tspan><tspan x="54.30701754386001" dy="13">(N=1506)</tspan></text><text x="80.25438596491202" style="color:#000000;cursor:default;font-size:10px;white-space:nowrap;fill:#000000;" text-anchor="end" transform="translate(0,0) rotate(-90 80.25438596491202 143)" y="143" opacity="1"><tspan>2015 Schweiz</tspan><tspan x="80.25438596491202" dy="13">(N=1333)</tspan></text><text x="106.201754385967" style="color:#000000;cursor:default;font-size:10px;white-space:nowrap;fill:#000000;" text-anchor="end" transform="translate(0,0) rotate(-90 106.201754385967 143)" y="143" opacity="1"><tspan>2015 Ausland</tspan><tspan x="106.201754385967" dy="13">(N=173)</tspan></text><text x="132.14912280701702" style="color:#000000;cursor:default;font-size:10px;white-space:nowrap;fill:#000000;" text-anchor="end" transform="translate(0,0) rotate(-90 132.14912280701702 143)" y="143" opacity="1"></text><text x="158.096491228067" style="color:#000000;cursor:default;font-size:10px;white-space:nowrap;fill:#000000;" text-anchor="end" transform="translate(0,0) rotate(-90 158.096491228067 143)" y="143" opacity="1"><tspan>2011 Total</tspan><tspan x="158.096491228067" dy="13">(N=1516)</tspan></text><text x="184.043859649127" style="color:#000000;cursor:default;font-size:10px;white-space:nowrap;fill:#000000;" text-anchor="end" transform="translate(0,0) rotate(-90 184.043859649127 143)" y="143" opacity="1"><tspan>2011 Schweiz</tspan><tspan x="184.043859649127" dy="13">(N=1302)</tspan></text><text x="209.99122807017704" style="color:#000000;cursor:default;font-size:10px;white-space:nowrap;fill:#000000;" text-anchor="end" transform="translate(0,0) rotate(-90 209.99122807017704 143)" y="143" opacity="1"><tspan>2011 Ausland</tspan><tspan x="209.99122807017704" dy="13">(N=214)</tspan></text><text x="235.93859649122703" style="color:#000000;cursor:default;font-size:10px;white-space:nowrap;fill:#000000;" text-anchor="end" transform="translate(0,0) rotate(-90 235.93859649122703 143)" y="143" opacity="1"></text><text x="261.885964912277" style="color:#000000;cursor:default;font-size:10px;white-space:nowrap;fill:#000000;" text-anchor="end" transform="translate(0,0) rotate(-90 261.885964912277 143)" y="143" opacity="1"><tspan>2007 Total</tspan><tspan x="261.885964912277" dy="13">(N=1509)</tspan></text><text x="287.833333333337" style="color:#000000;cursor:default;font-size:10px;white-space:nowrap;fill:#000000;" text-anchor="end" transform="translate(0,0) rotate(-90 287.833333333337 143)" y="143" opacity="1"><tspan>2007 Schweiz</tspan><tspan x="287.833333333337" dy="13">(N=1331)</tspan></text><text x="313.780701754387" style="color:#000000;cursor:default;font-size:10px;white-space:nowrap;fill:#000000;" text-anchor="end" transform="translate(0,0) rotate(-90 313.780701754387 143)" y="143" opacity="1"><tspan>2007 Ausland</tspan><tspan x="313.780701754387" dy="13">(N=178)</tspan></text><text x="339.72807017543704" style="color:#000000;cursor:default;font-size:10px;white-space:nowrap;fill:#000000;" text-anchor="end" transform="translate(0,0) rotate(-90 339.72807017543704 143)" y="143" opacity="1"></text><text x="365.675438596487" style="color:#000000;cursor:default;font-size:10px;white-space:nowrap;fill:#000000;" text-anchor="end" transform="translate(0,0) rotate(-90 365.675438596487 143)" y="143" opacity="1"><tspan>2005 Total</tspan><tspan x="365.675438596487" dy="13">(N=1510)</tspan></text><text x="391.622807017547" style="color:#000000;cursor:default;font-size:10px;white-space:nowrap;fill:#000000;" text-anchor="end" transform="translate(0,0) rotate(-90 391.622807017547 143)" y="143" opacity="1"><tspan>2005 Schweiz</tspan><tspan x="391.622807017547" dy="13">(N=1300)</tspan></text><text x="417.570175438597" style="color:#000000;cursor:default;font-size:10px;white-space:nowrap;fill:#000000;" text-anchor="end" transform="translate(0,0) rotate(-90 417.570175438597 143)" y="143" opacity="1"><tspan>2005 Ausland</tspan><tspan x="417.570175438597" dy="13">(N=210)</tspan></text><text x="443.517543859647" style="color:#000000;cursor:default;font-size:10px;white-space:nowrap;fill:#000000;" text-anchor="end" transform="translate(0,0) rotate(-90 443.517543859647 143)" y="143" opacity="1"></text><text x="469.46491228069704" style="color:#000000;cursor:default;font-size:10px;white-space:nowrap;fill:#000000;" text-anchor="end" transform="translate(0,0) rotate(-90 469.46491228069704 143)" y="143" opacity="1"><tspan>2003 Total</tspan><tspan x="469.46491228069704" dy="13">(N=1497)</tspan></text><text x="495.412280701757" style="color:#000000;cursor:default;font-size:10px;white-space:nowrap;fill:#000000;" text-anchor="end" transform="translate(0,0) rotate(-90 495.412280701757 143)" y="143" opacity="1"><tspan>2003 Schweiz</tspan><tspan x="495.412280701757" dy="13">(N=1291)</tspan></text><text x="521.359649122807" style="color:#000000;cursor:default;font-size:10px;white-space:nowrap;fill:#000000;" text-anchor="end" transform="translate(0,0) rotate(-90 521.359649122807 143)" y="143" opacity="1"><tspan>2003 Ausland</tspan><tspan x="521.359649122807" dy="13">(N=206)</tspan></text></g><g class="highcharts-axis-labels highcharts-yaxis-labels " data-z-index="7"><text x="29" style="color:#000000;cursor:default;font-size:10px;fill:#000000;" text-anchor="end" transform="translate(0,0)" y="136" opacity="1">0%</text><text x="29" style="color:#000000;cursor:default;font-size:10px;fill:#000000;" text-anchor="end" transform="translate(0,0)" y="109" opacity="1">50%</text><text x="29" style="color:#000000;cursor:default;font-size:10px;fill:#000000;" text-anchor="end" transform="translate(0,0)" y="81" opacity="1">100%</text></g><text x="10" class="highcharts-credits" text-anchor="start" data-z-index="8" style="cursor:default;color:#000000;font-size:10px;fill:#000000;" y="193"><tspan>Quelle: Statistisches Amt Basel-Stadt, kantonale Bevölkerungsbefragung: F18.</tspan></text></svg>