<?xml version="1.0" standalone="no"?><!DOCTYPE svg PUBLIC "-//W3C//DTD SVG 1.1//EN" "http://www.w3.org/Graphics/SVG/1.1/DTD/svg11.dtd"><svg xmlns:xlink="http://www.w3.org/1999/xlink" version="1.1" class="highcharts-root" style="font-family:Arial;font-size:10px;" xmlns="http://www.w3.org/2000/svg" viewBox="0 0 485 415"><desc>Created with Highstock 6.1.1</desc><defs><clipPath id="highcharts-i1w28k6-6"><rect x="0" y="0" width="505" height="79" fill="none"></rect></clipPath><clipPath id="highcharts-i1w28k6-7"><rect x="0" y="0" width="505" height="79" fill="none"></rect></clipPath></defs><rect fill="#fbfbfb" class="highcharts-background" x="0" y="0" width="665" height="208" rx="0" ry="0"></rect><rect fill="none" class="highcharts-plot-background" x="44" y="54" width="505" height="79"></rect><g class="highcharts-pane-group" data-z-index="0"></g><g class="highcharts-grid highcharts-xaxis-grid " data-z-index="1"><path fill="none" data-z-index="1" class="highcharts-grid-line" d="M 521.5 54 L 521.5 133" opacity="1"></path><path fill="none" data-z-index="1" class="highcharts-grid-line" d="M 495.5 54 L 495.5 133" opacity="1"></path><path fill="none" data-z-index="1" class="highcharts-grid-line" d="M 468.5 54 L 468.5 133" opacity="1"></path><path fill="none" data-z-index="1" class="highcharts-grid-line" d="M 442.5 54 L 442.5 133" opacity="1"></path><path fill="none" data-z-index="1" class="highcharts-grid-line" d="M 415.5 54 L 415.5 133" opacity="1"></path><path fill="none" data-z-index="1" class="highcharts-grid-line" d="M 389.5 54 L 389.5 133" opacity="1"></path><path fill="none" data-z-index="1" class="highcharts-grid-line" d="M 362.5 54 L 362.5 133" opacity="1"></path><path fill="none" data-z-index="1" class="highcharts-grid-line" d="M 335.5 54 L 335.5 133" opacity="1"></path><path fill="none" data-z-index="1" class="highcharts-grid-line" d="M 309.5 54 L 309.5 133" opacity="1"></path><path fill="none" data-z-index="1" class="highcharts-grid-line" d="M 282.5 54 L 282.5 133" opacity="1"></path><path fill="none" data-z-index="1" class="highcharts-grid-line" d="M 256.5 54 L 256.5 133" opacity="1"></path><path fill="none" data-z-index="1" class="highcharts-grid-line" d="M 229.5 54 L 229.5 133" opacity="1"></path><path fill="none" data-z-index="1" class="highcharts-grid-line" d="M 202.5 54 L 202.5 133" opacity="1"></path><path fill="none" data-z-index="1" class="highcharts-grid-line" d="M 176.5 54 L 176.5 133" opacity="1"></path><path fill="none" data-z-index="1" class="highcharts-grid-line" d="M 149.5 54 L 149.5 133" opacity="1"></path><path fill="none" data-z-index="1" class="highcharts-grid-line" d="M 123.5 54 L 123.5 133" opacity="1"></path><path fill="none" data-z-index="1" class="highcharts-grid-line" d="M 96.5 54 L 96.5 133" opacity="1"></path><path fill="none" data-z-index="1" class="highcharts-grid-line" d="M 70.5 54 L 70.5 133" opacity="1"></path><path fill="none" data-z-index="1" class="highcharts-grid-line" d="M 43.5 54 L 43.5 133" opacity="1"></path><path fill="none" data-z-index="1" class="highcharts-grid-line" d="M 548.5 54 L 548.5 133" opacity="1"></path></g><g class="highcharts-grid highcharts-yaxis-grid " data-z-index="1"><path fill="none" stroke="#B9CFD7" stroke-width="0.5" data-z-index="1" class="highcharts-grid-line" d="M 44 133.25 L 549 133.25" opacity="1"></path><path fill="none" stroke="#B9CFD7" stroke-width="0.5" data-z-index="1" class="highcharts-grid-line" d="M 44 113.25 L 549 113.25" opacity="1"></path><path fill="none" stroke="#B9CFD7" stroke-width="0.5" data-z-index="1" class="highcharts-grid-line" d="M 44 94.25 L 549 94.25" opacity="1"></path><path fill="none" stroke="#B9CFD7" stroke-width="0.5" data-z-index="1" class="highcharts-grid-line" d="M 44 74.25 L 549 74.25" opacity="1"></path><path fill="none" stroke="#B9CFD7" stroke-width="0.5" data-z-index="1" class="highcharts-grid-line" d="M 44 54.25 L 549 54.25" opacity="1"></path></g><rect fill="none" class="highcharts-plot-border" data-z-index="1" x="44" y="54" width="505" height="79"></rect><g class="highcharts-axis highcharts-xaxis " data-z-index="2"><path fill="none" class="highcharts-axis-line" stroke="#B9CFD7" stroke-width="0.5" data-z-index="7" d="M 44 133.25 L 549 133.25"></path></g><g class="highcharts-axis highcharts-yaxis " data-z-index="2"><path fill="none" class="highcharts-axis-line" data-z-index="7" d="M 44 54 L 44 133"></path></g><g class="highcharts-series-group" data-z-index="3"><g data-z-index="0.1" class="highcharts-series highcharts-series-0 highcharts-column-series " transform="translate(44,54) scale(1 1)" clip-path="url(#highcharts-i1w28k6-7)"><rect x="481" y="0" width="22" height="13" fill="#999999" class="highcharts-point"></rect><rect x="455" y="0" width="22" height="13" fill="#999999" class="highcharts-point"></rect><rect x="428" y="0" width="22" height="9" fill="#999999" class="highcharts-point"></rect><rect x="375" y="0" width="22" height="10" fill="#999999" class="highcharts-point"></rect><rect x="348" y="0" width="22" height="10" fill="#999999" class="highcharts-point"></rect><rect x="322" y="0" width="22" height="7" fill="#999999" class="highcharts-point"></rect><rect x="268" y="0" width="22" height="15" fill="#999999" class="highcharts-point"></rect><rect x="242" y="0" width="22" height="16" fill="#999999" class="highcharts-point"></rect><rect x="215" y="0" width="22" height="8" fill="#999999" class="highcharts-point"></rect><rect x="162" y="0" width="22" height="13" fill="#999999" class="highcharts-point"></rect><rect x="136" y="0" width="22" height="13" fill="#999999" class="highcharts-point"></rect><rect x="109" y="0" width="22" height="8" fill="#999999" class="highcharts-point"></rect><rect x="56" y="0" width="22" height="16" fill="#999999" class="highcharts-point"></rect><rect x="29" y="0" width="22" height="17" fill="#999999" class="highcharts-point"></rect><rect x="3" y="0" width="22" height="10" fill="#999999" class="highcharts-point"></rect></g><g data-z-index="0.1" class="highcharts-markers highcharts-series-0 highcharts-column-series " transform="translate(44,54) scale(1 1)" clip-path="none"></g><g data-z-index="0.1" class="highcharts-series highcharts-series-1 highcharts-column-series " transform="translate(44,54) scale(1 1)" clip-path="url(#highcharts-i1w28k6-7)"><rect x="481" y="13" width="22" height="4" fill="#dc440e" class="highcharts-point"></rect><rect x="455" y="13" width="22" height="5" fill="#dc440e" class="highcharts-point"></rect><rect x="428" y="9" width="22" height="4" fill="#dc440e" class="highcharts-point"></rect><rect x="375" y="10" width="22" height="1" fill="#dc440e" class="highcharts-point"></rect><rect x="348" y="10" width="22" height="2" fill="#dc440e" class="highcharts-point"></rect><rect x="322" y="7" width="22" height="2" fill="#dc440e" class="highcharts-point"></rect><rect x="268" y="15" width="22" height="1" fill="#dc440e" class="highcharts-point"></rect><rect x="242" y="16" width="22" height="1" fill="#dc440e" class="highcharts-point"></rect><rect x="215" y="8" width="22" height="3" fill="#dc440e" class="highcharts-point"></rect><rect x="162" y="13" width="22" height="2" fill="#dc440e" class="highcharts-point"></rect><rect x="136" y="13" width="22" height="3" fill="#dc440e" class="highcharts-point"></rect><rect x="109" y="8" width="22" height="3" fill="#dc440e" class="highcharts-point"></rect><rect x="56" y="16" width="22" height="3" fill="#dc440e" class="highcharts-point"></rect><rect x="29" y="17" width="22" height="3" fill="#dc440e" class="highcharts-point"></rect><rect x="3" y="10" width="22" height="3" fill="#dc440e" class="highcharts-point"></rect></g><g data-z-index="0.1" class="highcharts-markers highcharts-series-1 highcharts-column-series " transform="translate(44,54) scale(1 1)" clip-path="none"></g><g data-z-index="0.1" class="highcharts-series highcharts-series-2 highcharts-column-series " transform="translate(44,54) scale(1 1)" clip-path="url(#highcharts-i1w28k6-7)"><rect x="481" y="17" width="22" height="23" fill="#ffbb58" class="highcharts-point"></rect><rect x="455" y="18" width="22" height="23" fill="#ffbb58" class="highcharts-point"></rect><rect x="428" y="13" width="22" height="19" fill="#ffbb58" class="highcharts-point"></rect><rect x="375" y="11" width="22" height="18" fill="#ffbb58" class="highcharts-point"></rect><rect x="348" y="12" width="22" height="17" fill="#ffbb58" class="highcharts-point"></rect><rect x="322" y="9" width="22" height="15" fill="#ffbb58" class="highcharts-point"></rect><rect x="268" y="16" width="22" height="15" fill="#ffbb58" class="highcharts-point"></rect><rect x="242" y="17" width="22" height="14" fill="#ffbb58" class="highcharts-point"></rect><rect x="215" y="11" width="22" height="19" fill="#ffbb58" class="highcharts-point"></rect><rect x="162" y="15" width="22" height="20" fill="#ffbb58" class="highcharts-point"></rect><rect x="136" y="16" width="22" height="19" fill="#ffbb58" class="highcharts-point"></rect><rect x="109" y="11" width="22" height="21" fill="#ffbb58" class="highcharts-point"></rect><rect x="56" y="19" width="22" height="18" fill="#ffbb58" class="highcharts-point"></rect><rect x="29" y="20" width="22" height="18" fill="#ffbb58" class="highcharts-point"></rect><rect x="3" y="13" width="22" height="19" fill="#ffbb58" class="highcharts-point"></rect></g><g data-z-index="0.1" class="highcharts-markers highcharts-series-2 highcharts-column-series " transform="translate(44,54) scale(1 1)" clip-path="none"></g><g data-z-index="0.1" class="highcharts-series highcharts-series-3 highcharts-column-series " transform="translate(44,54) scale(1 1)" clip-path="url(#highcharts-i1w28k6-7)"><rect x="481" y="40" width="22" height="31" fill="#68ab2b" class="highcharts-point"></rect><rect x="455" y="41" width="22" height="30" fill="#68ab2b" class="highcharts-point"></rect><rect x="428" y="32" width="22" height="36" fill="#68ab2b" class="highcharts-point"></rect><rect x="375" y="29" width="22" height="36" fill="#68ab2b" class="highcharts-point"></rect><rect x="348" y="29" width="22" height="36" fill="#68ab2b" class="highcharts-point"></rect><rect x="322" y="24" width="22" height="38" fill="#68ab2b" class="highcharts-point"></rect><rect x="268" y="31" width="22" height="40" fill="#68ab2b" class="highcharts-point"></rect><rect x="242" y="31" width="22" height="39" fill="#68ab2b" class="highcharts-point"></rect><rect x="215" y="30" width="22" height="41" fill="#68ab2b" class="highcharts-point"></rect><rect x="162" y="35" width="22" height="35" fill="#68ab2b" class="highcharts-point"></rect><rect x="136" y="35" width="22" height="36" fill="#68ab2b" class="highcharts-point"></rect><rect x="109" y="32" width="22" height="37" fill="#68ab2b" class="highcharts-point"></rect><rect x="56" y="37" width="22" height="33" fill="#68ab2b" class="highcharts-point"></rect><rect x="29" y="38" width="22" height="32" fill="#68ab2b" class="highcharts-point"></rect><rect x="3" y="32" width="22" height="37" fill="#68ab2b" class="highcharts-point"></rect></g><g data-z-index="0.1" class="highcharts-markers highcharts-series-3 highcharts-column-series " transform="translate(44,54) scale(1 1)" clip-path="none"></g><g data-z-index="0.1" class="highcharts-series highcharts-series-4 highcharts-column-series " transform="translate(44,54) scale(1 1)" clip-path="url(#highcharts-i1w28k6-7)"><rect x="481" y="71" width="22" height="9" fill="#007a2f" class="highcharts-point"></rect><rect x="455" y="71" width="22" height="9" fill="#007a2f" class="highcharts-point"></rect><rect x="428" y="68" width="22" height="12" fill="#007a2f" class="highcharts-point"></rect><rect x="375" y="65" width="22" height="15" fill="#007a2f" class="highcharts-point"></rect><rect x="348" y="65" width="22" height="15" fill="#007a2f" class="highcharts-point"></rect><rect x="322" y="62" width="22" height="18" fill="#007a2f" class="highcharts-point"></rect><rect x="268" y="71" width="22" height="9" fill="#007a2f" class="highcharts-point"></rect><rect x="242" y="70" width="22" height="10" fill="#007a2f" class="highcharts-point"></rect><rect x="215" y="71" width="22" height="9" fill="#007a2f" class="highcharts-point"></rect><rect x="162" y="70" width="22" height="10" fill="#007a2f" class="highcharts-point"></rect><rect x="136" y="71" width="22" height="9" fill="#007a2f" class="highcharts-point"></rect><rect x="109" y="69" width="22" height="11" fill="#007a2f" class="highcharts-point"></rect><rect x="56" y="70" width="22" height="10" fill="#007a2f" class="highcharts-point"></rect><rect x="29" y="70" width="22" height="10" fill="#007a2f" class="highcharts-point"></rect><rect x="3" y="69" width="22" height="11" fill="#007a2f" class="highcharts-point"></rect></g><g data-z-index="0.1" class="highcharts-markers highcharts-series-4 highcharts-column-series " transform="translate(44,54) scale(1 1)" clip-path="none"></g></g><text x="333" text-anchor="middle" class="highcharts-title" data-z-index="4" style="color:#333333;font-size:18px;fill:#333333;" y="19"><tspan>Zufriedenheit mit dem Wohnungsangebot nach Heimat</tspan></text><text x="333" text-anchor="middle" class="highcharts-subtitle" data-z-index="4" style="color:#666666;fill:#666666;" y="38"><tspan>«Wie zufrieden sind Sie mit dem Wohnungsangebot?»</tspan></text><g class="highcharts-legend" data-z-index="7" transform="translate(561,49)"><rect fill="none" class="highcharts-legend-box" rx="0" ry="0" x="0" y="0" width="102" height="88" visibility="visible"></rect><g data-z-index="1"><g><g class="highcharts-legend-item highcharts-column-series highcharts-color-undefined highcharts-series-0" data-z-index="1" transform="translate(0,-5)"><text x="21" style="color:#333333;font-size:10px;font-weight:normal;cursor:pointer;font-family:Arial;whitespace:nowrap;fill:#333333;" text-anchor="start" data-z-index="2" y="13"><tspan>Weiss nicht /</tspan><tspan x="21" dy="13">Keine Angabe</tspan></text><rect x="3" y="4" width="10" height="10" fill="#999999" class="highcharts-point" data-z-index="3"></rect></g><g class="highcharts-legend-item highcharts-column-series highcharts-color-undefined highcharts-series-1" data-z-index="1" transform="translate(0,24)"><text x="21" y="13" style="color:#333333;font-size:10px;font-weight:normal;cursor:pointer;font-family:Arial;whitespace:nowrap;fill:#333333;" text-anchor="start" data-z-index="2"><tspan>Sehr unzufrieden</tspan></text><rect x="3" y="4" width="10" height="10" fill="#dc440e" class="highcharts-point" data-z-index="3"></rect></g><g class="highcharts-legend-item highcharts-column-series highcharts-color-undefined highcharts-series-2" data-z-index="1" transform="translate(0,40)"><text x="21" y="13" style="color:#333333;font-size:10px;font-weight:normal;cursor:pointer;font-family:Arial;whitespace:nowrap;fill:#333333;" text-anchor="start" data-z-index="2"><tspan>Eher unzufrieden</tspan></text><rect x="3" y="4" width="10" height="10" fill="#ffbb58" class="highcharts-point" data-z-index="3"></rect></g><g class="highcharts-legend-item highcharts-column-series highcharts-color-undefined highcharts-series-3" data-z-index="1" transform="translate(0,56)"><text x="21" y="13" style="color:#333333;font-size:10px;font-weight:normal;cursor:pointer;font-family:Arial;whitespace:nowrap;fill:#333333;" text-anchor="start" data-z-index="2"><tspan>Eher zufrieden</tspan></text><rect x="3" y="4" width="10" height="10" fill="#68ab2b" class="highcharts-point" data-z-index="3"></rect></g><g class="highcharts-legend-item highcharts-column-series highcharts-color-undefined highcharts-series-4" data-z-index="1" transform="translate(0,72)"><text x="21" y="13" style="color:#333333;font-size:10px;font-weight:normal;cursor:pointer;font-family:Arial;whitespace:nowrap;fill:#333333;" text-anchor="start" data-z-index="2"><tspan>Sehr zufrieden</tspan></text><rect x="3" y="4" width="10" height="10" fill="#007a2f" class="highcharts-point" data-z-index="3"></rect></g></g></g></g><g class="highcharts-axis-labels highcharts-xaxis-labels " data-z-index="7"><text x="533.0438596491239" style="color:#000000;cursor:default;font-size:10px;white-space:nowrap;fill:#000000;" text-anchor="end" transform="translate(0,0) rotate(-90 533.0438596491239 143)" y="143" opacity="1"><tspan>2015 Total</tspan><tspan x="533.0438596491239" dy="13">(N=1386)</tspan></text><text x="506.46491228070386" style="color:#000000;cursor:default;font-size:10px;white-space:nowrap;fill:#000000;" text-anchor="end" transform="translate(0,0) rotate(-90 506.46491228070386 143)" y="143" opacity="1"><tspan>2015 Schweiz</tspan><tspan x="506.46491228070386" dy="13">(N=1218)</tspan></text><text x="479.88596491228384" style="color:#000000;cursor:default;font-size:10px;white-space:nowrap;fill:#000000;" text-anchor="end" transform="translate(0,0) rotate(-90 479.88596491228384 143)" y="143" opacity="1"><tspan>2015 Ausland</tspan><tspan x="479.88596491228384" dy="13">(N=168)</tspan></text><text x="453.3070175438638" style="color:#000000;cursor:default;font-size:10px;white-space:nowrap;fill:#000000;" text-anchor="end" transform="translate(0,0) rotate(-90 453.3070175438638 143)" y="143" opacity="1"></text><text x="426.72807017543386" style="color:#000000;cursor:default;font-size:10px;white-space:nowrap;fill:#000000;" text-anchor="end" transform="translate(0,0) rotate(-90 426.72807017543386 143)" y="143" opacity="1"><tspan>2011 Total</tspan><tspan x="426.72807017543386" dy="13">(N=1492)</tspan></text><text x="400.14912280701384" style="color:#000000;cursor:default;font-size:10px;white-space:nowrap;fill:#000000;" text-anchor="end" transform="translate(0,0) rotate(-90 400.14912280701384 143)" y="143" opacity="1"><tspan>2011 Schweiz</tspan><tspan x="400.14912280701384" dy="13">(N=1279)</tspan></text><text x="373.5701754385938" style="color:#000000;cursor:default;font-size:10px;white-space:nowrap;fill:#000000;" text-anchor="end" transform="translate(0,0) rotate(-90 373.5701754385938 143)" y="143" opacity="1"><tspan>2011 Ausland</tspan><tspan x="373.5701754385938" dy="13">(N=213)</tspan></text><text x="346.99122807017386" style="color:#000000;cursor:default;font-size:10px;white-space:nowrap;fill:#000000;" text-anchor="end" transform="translate(0,0) rotate(-90 346.99122807017386 143)" y="143" opacity="1"></text><text x="320.41228070175384" style="color:#000000;cursor:default;font-size:10px;white-space:nowrap;fill:#000000;" text-anchor="end" transform="translate(0,0) rotate(-90 320.41228070175384 143)" y="143" opacity="1"><tspan>2007 Total</tspan><tspan x="320.41228070175384" dy="13">(N=1474)</tspan></text><text x="293.8333333333338" style="color:#000000;cursor:default;font-size:10px;white-space:nowrap;fill:#000000;" text-anchor="end" transform="translate(0,0) rotate(-90 293.8333333333338 143)" y="143" opacity="1"><tspan>2007 Schweiz</tspan><tspan x="293.8333333333338" dy="13">(N=1303)</tspan></text><text x="267.25438596491387" style="color:#000000;cursor:default;font-size:10px;white-space:nowrap;fill:#000000;" text-anchor="end" transform="translate(0,0) rotate(-90 267.25438596491387 143)" y="143" opacity="1"><tspan>2007 Ausland</tspan><tspan x="267.25438596491387" dy="13">(N=171)</tspan></text><text x="240.67543859649388" style="color:#000000;cursor:default;font-size:10px;white-space:nowrap;fill:#000000;" text-anchor="end" transform="translate(0,0) rotate(-90 240.67543859649388 143)" y="143" opacity="1"></text><text x="214.09649122807386" style="color:#000000;cursor:default;font-size:10px;white-space:nowrap;fill:#000000;" text-anchor="end" transform="translate(0,0) rotate(-90 214.09649122807386 143)" y="143" opacity="1"><tspan>2005 Total</tspan><tspan x="214.09649122807386" dy="13">(N=1479)</tspan></text><text x="187.51754385965387" style="color:#000000;cursor:default;font-size:10px;white-space:nowrap;fill:#000000;" text-anchor="end" transform="translate(0,0) rotate(-90 187.51754385965387 143)" y="143" opacity="1"><tspan>2005 Schweiz</tspan><tspan x="187.51754385965387" dy="13">(N=1273)</tspan></text><text x="160.93859649122388" style="color:#000000;cursor:default;font-size:10px;white-space:nowrap;fill:#000000;" text-anchor="end" transform="translate(0,0) rotate(-90 160.93859649122388 143)" y="143" opacity="1"><tspan>2005 Ausland</tspan><tspan x="160.93859649122388" dy="13">(N=206)</tspan></text><text x="134.35964912280386" style="color:#000000;cursor:default;font-size:10px;white-space:nowrap;fill:#000000;" text-anchor="end" transform="translate(0,0) rotate(-90 134.35964912280386 143)" y="143" opacity="1"></text><text x="107.78070175438584" style="color:#000000;cursor:default;font-size:10px;white-space:nowrap;fill:#000000;" text-anchor="end" transform="translate(0,0) rotate(-90 107.78070175438584 143)" y="143" opacity="1"><tspan>2003 Total</tspan><tspan x="107.78070175438584" dy="13">(N=1452)</tspan></text><text x="81.20175438596485" style="color:#000000;cursor:default;font-size:10px;white-space:nowrap;fill:#000000;" text-anchor="end" transform="translate(0,0) rotate(-90 81.20175438596485 143)" y="143" opacity="1"><tspan>2003 Schweiz</tspan><tspan x="81.20175438596485" dy="13">(N=1250)</tspan></text><text x="54.62280701754386" style="color:#000000;cursor:default;font-size:10px;white-space:nowrap;fill:#000000;" text-anchor="end" transform="translate(0,0) rotate(-90 54.62280701754386 143)" y="143" opacity="1"><tspan>2003 Ausland</tspan><tspan x="54.62280701754386" dy="13">(N=202)</tspan></text></g><g class="highcharts-axis-labels highcharts-yaxis-labels " data-z-index="7"><text x="29" style="color:#000000;cursor:default;font-size:10px;fill:#000000;" text-anchor="end" transform="translate(0,0)" y="136" opacity="1">0%</text><text x="29" style="color:#000000;cursor:default;font-size:10px;fill:#000000;" text-anchor="end" transform="translate(0,0)" y="116" opacity="1">25%</text><text x="29" style="color:#000000;cursor:default;font-size:10px;fill:#000000;" text-anchor="end" transform="translate(0,0)" y="97" opacity="1">50%</text><text x="29" style="color:#000000;cursor:default;font-size:10px;fill:#000000;" text-anchor="end" transform="translate(0,0)" y="77" opacity="1">75%</text><text x="29" style="color:#000000;cursor:default;font-size:10px;fill:#000000;" text-anchor="end" transform="translate(0,0)" y="57" opacity="1">100%</text></g><text x="655" class="highcharts-credits" text-anchor="end" data-z-index="8" style="cursor:pointer;color:#999999;font-size:9px;fill:#999999;" y="193"><tspan>Quelle: Statistisches Amt Basel-Stadt, kantonale Bevölkerungsbefragung: F6_9.</tspan></text></svg>