<?xml version="1.0" standalone="no"?><!DOCTYPE svg PUBLIC "-//W3C//DTD SVG 1.1//EN" "http://www.w3.org/Graphics/SVG/1.1/DTD/svg11.dtd"><svg xmlns:xlink="http://www.w3.org/1999/xlink" version="1.1" class="highcharts-root" style="font-family:Arial;font-size:12px;" xmlns="http://www.w3.org/2000/svg" viewBox="0 0 485 415"><desc>Created with Highstock 6.1.1</desc><defs><clipPath id="highcharts-gfflxlz-6"><rect x="0" y="0" width="136" height="188" fill="none"></rect></clipPath><clipPath id="highcharts-gfflxlz-7"><rect x="0" y="0" width="136" height="188" fill="none"></rect></clipPath></defs><rect fill="#fbfbfb" class="highcharts-background" x="0" y="0" width="320" height="221" rx="0" ry="0"></rect><rect fill="none" class="highcharts-plot-background" x="117" y="55" width="188" height="136"></rect><g class="highcharts-pane-group" data-z-index="0"></g><g class="highcharts-grid highcharts-xaxis-grid " data-z-index="1"><path fill="none" data-z-index="1" class="highcharts-grid-line" d="M 117 61.5 L 305 61.5" opacity="1"></path><path fill="none" data-z-index="1" class="highcharts-grid-line" d="M 117 86.5 L 305 86.5" opacity="1"></path><path fill="none" data-z-index="1" class="highcharts-grid-line" d="M 117 111.5 L 305 111.5" opacity="1"></path><path fill="none" data-z-index="1" class="highcharts-grid-line" d="M 117 135.5 L 305 135.5" opacity="1"></path><path fill="none" data-z-index="1" class="highcharts-grid-line" d="M 117 160.5 L 305 160.5" opacity="1"></path><path fill="none" data-z-index="1" class="highcharts-grid-line" d="M 117 185.5 L 305 185.5" opacity="1"></path></g><g class="highcharts-grid highcharts-yaxis-grid " data-z-index="1"><path fill="none" stroke="#B9CFD7" stroke-width="0.5" data-z-index="1" class="highcharts-grid-line" d="M 116.75 55 L 116.75 191" opacity="1"></path><path fill="none" stroke="#B9CFD7" stroke-width="0.5" data-z-index="1" class="highcharts-grid-line" d="M 210.75 55 L 210.75 191" opacity="1"></path><path fill="none" stroke="#B9CFD7" stroke-width="0.5" data-z-index="1" class="highcharts-grid-line" d="M 305.25 55 L 305.25 191" opacity="1"></path></g><rect fill="none" class="highcharts-plot-border" data-z-index="1" x="117" y="55" width="188" height="136"></rect><g class="highcharts-axis highcharts-xaxis " data-z-index="2"><path fill="none" class="highcharts-axis-line" stroke="#B9CFD7" stroke-width="0.5" data-z-index="7" d="M 116.75 55 L 116.75 191"></path></g><g class="highcharts-axis highcharts-yaxis " data-z-index="2"><path fill="none" class="highcharts-axis-line" data-z-index="7" d="M 117 191 L 305 191"></path></g><g class="highcharts-series-group" data-z-index="3"><g data-z-index="0.1" class="highcharts-series highcharts-series-0 highcharts-column-series " transform="translate(305,191) rotate(90) scale(-1,1) scale(1 1)" clip-path="url(#highcharts-gfflxlz-7)"><rect x="127" y="145" width="6" height="44" fill="#b00000" class="highcharts-point highcharts-color-0"></rect><rect x="114" y="163" width="6" height="26" fill="#672773" class="highcharts-point highcharts-color-1"></rect><rect x="102" y="67" width="6" height="122" fill="#007a2f" class="highcharts-point highcharts-color-2"></rect><rect x="90" y="28" width="6" height="161" fill="#fabd24" class="highcharts-point highcharts-color-3"></rect><rect x="77" y="80" width="6" height="109" fill="#b475ab" class="highcharts-point highcharts-color-4"></rect><rect x="65" y="67" width="6" height="122" fill="#71a3b5" class="highcharts-point highcharts-color-5"></rect><rect x="53" y="19" width="6" height="170" fill="#b9cfd7" class="highcharts-point highcharts-color-6"></rect><rect x="40" y="112" width="6" height="77" fill="#ff8028" class="highcharts-point highcharts-color-7"></rect><rect x="28" y="9" width="6" height="180" fill="#73ba7c" class="highcharts-point highcharts-color-8"></rect><rect x="16" y="60" width="6" height="129" fill="#9f7c5a" class="highcharts-point highcharts-color-9"></rect><rect x="3" y="39" width="6" height="150" fill="#999999" class="highcharts-point highcharts-color-10"></rect></g><g data-z-index="0.1" class="highcharts-markers highcharts-series-0 highcharts-column-series " transform="translate(305,191) rotate(90) scale(-1,1) scale(1 1)" clip-path="none"></g></g><text x="2" text-anchor="start" class="highcharts-title" data-z-index="4" style="color:#000000;font-size:10px;font-weight:bold;fill:#000000;" y="9"><tspan>Anteil Kinder mit Verpflichtung zur</tspan><tspan dy="13" x="2">Frühdeutschförderung</tspan></text><text x="2" text-anchor="start" class="highcharts-subtitle" data-z-index="4" style="color:#000000;font-size:10px;font-weight:normal;font-family:Arial;fill:#000000;" y="39"><tspan>nach Staatsangehörigkeit, Stadt Basel, 2018</tspan></text><g class="highcharts-axis-labels highcharts-xaxis-labels " data-z-index="7"><text x="112" style="color:#000000;cursor:default;font-size:10px;fill:#000000;" text-anchor="end" transform="translate(0,0)" y="64" opacity="1">Schweiz</text><text x="112" style="color:#000000;cursor:default;font-size:10px;fill:#000000;" text-anchor="end" transform="translate(0,0)" y="89" opacity="1">Italien</text><text x="112" style="color:#000000;cursor:default;font-size:10px;fill:#000000;" text-anchor="end" transform="translate(0,0)" y="114" opacity="1"><tspan>EU-17 + EFTA</tspan></text><text x="112" style="color:#000000;cursor:default;font-size:10px;fill:#000000;" text-anchor="end" transform="translate(0,0)" y="138" opacity="1">Balkan</text><text x="112" style="color:#000000;cursor:default;font-size:10px;fill:#000000;" text-anchor="end" transform="translate(0,0)" y="163" opacity="1"><tspan>Arabische Länder</tspan></text><text x="112" style="color:#000000;cursor:default;font-size:10px;fill:#000000;" text-anchor="end" transform="translate(0,0)" y="188" opacity="1"><tspan>Übrige Länder</tspan></text></g><g class="highcharts-axis-labels highcharts-yaxis-labels " data-z-index="7"><text x="117" style="color:#000000;cursor:default;font-size:10px;fill:#000000;" text-anchor="middle" transform="translate(0,0)" y="206" opacity="1">0%</text><text x="211" style="color:#000000;cursor:default;font-size:10px;fill:#000000;" text-anchor="middle" transform="translate(0,0)" y="206" opacity="1">50%</text><text x="304.5" style="color:#000000;cursor:default;font-size:10px;fill:#000000;" text-anchor="middle" transform="translate(0,0)" y="206" opacity="1">100%</text></g><text x="10" class="highcharts-credits" text-anchor="start" data-z-index="8" style="cursor:default;color:#000000;font-size:10;fill:#000000;" y="196"><tspan>Quelle: Erziehungsdepartement Basel-Stadt, Fachbereich Frühe Deutschförderung.</tspan><tspan x="10" dy="15">Zuletzt geändert: 2019-12-16</tspan></text></svg>