<?xml version="1.0" standalone="no"?><!DOCTYPE svg PUBLIC "-//W3C//DTD SVG 1.1//EN" "http://www.w3.org/Graphics/SVG/1.1/DTD/svg11.dtd"><svg xmlns:xlink="http://www.w3.org/1999/xlink" version="1.1" class="highcharts-root" style="font-family:Arial;font-size:12px;" xmlns="http://www.w3.org/2000/svg" viewBox="0 0 485 415"><desc>Created with Highstock 6.1.0</desc><defs><clipPath id="highcharts-k1r7ycw-7"><rect x="0" y="0" width="465" height="315" fill="none"></rect></clipPath><clipPath id="highcharts-k1r7ycw-9"><circle cx="232.5" cy="157.5" r="133.875"></circle></clipPath></defs><rect fill="#fbfbfb" class="highcharts-background" x="0" y="0" width="485" height="415" rx="0" ry="0"></rect><rect fill="none" class="highcharts-plot-background" x="10" y="55" width="465" height="315"></rect><path fill="#923F8D" d="M 243 77 A 136 136 0 0 1 289.64251441005035 340.7516177960508 L 243 213 A 0 0 0 0 0 243 213 Z" fill-opacity="0.5"></path><path fill="#68AB2B" d="M 289.51473949229097 340.7981964268835 A 136 136 0 0 1 109.089828705488 236.75007418671476 L 243 213 A 0 0 0 0 0 243 213 Z" fill-opacity="0.5"></path><path fill="#689199" d="M 109.06614559033972 236.61615216270252 A 136 136 0 0 1 242.8640000226667 77.00006799999434 L 243 213 A 0 0 0 0 0 243 213 Z" fill-opacity="0.5"></path><path fill="#923F8D" d="M 243 77 A 136 136 0 0 1 289.64251441005035 340.7516177960508 L 243 213 A 0 0 0 0 0 243 213 Z" fill-opacity="0.5"></path><path fill="#68AB2B" d="M 289.51473949229097 340.7981964268835 A 136 136 0 0 1 109.089828705488 236.75007418671476 L 243 213 A 0 0 0 0 0 243 213 Z" fill-opacity="0.5"></path><path fill="#689199" d="M 109.06614559033972 236.61615216270252 A 136 136 0 0 1 242.8640000226667 77.00006799999434 L 243 213 A 0 0 0 0 0 243 213 Z" fill-opacity="0.5"></path><g class="highcharts-pane-group"></g><g class="highcharts-grid highcharts-xaxis-grid "><path fill="none" stroke="white" stroke-width="1" class="highcharts-grid-line" d="M 242.5 212.5 L 265.74714978516033 80.65886206549064" opacity="1"></path><path fill="none" stroke="white" stroke-width="1" class="highcharts-grid-line" d="M 242.5 212.5 L 309.4375 96.56084906835827" opacity="1"></path><path fill="none" stroke="white" stroke-width="1" class="highcharts-grid-line" d="M 242.5 212.5 L 345.0541998225532 126.44680875321455" opacity="1"></path><path fill="none" stroke="white" stroke-width="1" class="highcharts-grid-line" d="M 242.5 212.5 L 368.30134960771346 166.71205331227608" opacity="1"></path><path fill="none" stroke="white" stroke-width="1" class="highcharts-grid-line" d="M 242.5 212.5 L 376.375 212.5" opacity="1"></path><path fill="none" stroke="white" stroke-width="1" class="highcharts-grid-line" d="M 242.5 212.5 L 368.30134960771346 258.2879466877239" opacity="1"></path><path fill="none" stroke="white" stroke-width="1" class="highcharts-grid-line" d="M 242.5 212.5 L 345.0541998225532 298.55319124678545" opacity="1"></path><path fill="none" stroke="white" stroke-width="1" class="highcharts-grid-line" d="M 242.5 212.5 L 309.43750000000006 328.43915093164173" opacity="1"></path><path fill="none" stroke="white" stroke-width="1" class="highcharts-grid-line" d="M 242.5 212.5 L 265.74714978516033 344.34113793450933" opacity="1"></path><path fill="none" stroke="white" stroke-width="1" class="highcharts-grid-line" d="M 242.5 212.5 L 219.25285021483973 344.34113793450933" opacity="1"></path><path fill="none" stroke="white" stroke-width="1" class="highcharts-grid-line" d="M 242.5 212.5 L 175.56250000000003 328.43915093164173" opacity="1"></path><path fill="none" stroke="white" stroke-width="1" class="highcharts-grid-line" d="M 242.5 212.5 L 139.9458001774468 298.55319124678545" opacity="1"></path><path fill="none" stroke="white" stroke-width="1" class="highcharts-grid-line" d="M 242.5 212.5 L 116.69865039228654 258.287946687724" opacity="1"></path><path fill="none" stroke="white" stroke-width="1" class="highcharts-grid-line" d="M 242.5 212.5 L 108.625 212.50000000000003" opacity="1"></path><path fill="none" stroke="white" stroke-width="1" class="highcharts-grid-line" d="M 242.5 212.5 L 116.6986503922865 166.71205331227617" opacity="1"></path><path fill="none" stroke="white" stroke-width="1" class="highcharts-grid-line" d="M 242.5 212.5 L 139.9458001774468 126.44680875321455" opacity="1"></path><path fill="none" stroke="white" stroke-width="1" class="highcharts-grid-line" d="M 242.5 212.5 L 175.56249999999994 96.56084906835831" opacity="1"></path><path fill="none" stroke="white" stroke-width="1" class="highcharts-grid-line" d="M 242.5 212.5 L 219.25285021483958 80.65886206549067" opacity="1"></path><path fill="none" stroke="white" stroke-width="1" class="highcharts-grid-line" d="M 242.5 212.5 L 265.7471497851603 80.65886206549064" opacity="1"></path></g><g class="highcharts-grid highcharts-yaxis-grid "><path fill="none" stroke="white" stroke-width="1" class="highcharts-grid-line" d="M 242.5 212.5 L 242.5 212.5 L 242.5 212.5 L 242.5 212.5 L 242.5 212.5 L 242.5 212.5 L 242.5 212.5 L 242.5 212.5 L 242.5 212.5 L 242.5 212.5 L 242.5 212.5 L 242.5 212.5 L 242.5 212.5 L 242.5 212.5 L 242.5 212.5 L 242.5 212.5 L 242.5 212.5 L 242.5 212.5 L 242.5 212.5 L 242.5 212.5" opacity="1"></path><path fill="none" stroke="white" stroke-width="1" class="highcharts-grid-line" d="M 250.24904992838677 168.5529540218302 L 250.24904992838674 168.5529540218302 L 234.7509500716132 168.55295402183023 L 220.18749999999997 173.85361635611943 L 208.3152667258156 183.81560291773818 L 200.56621679742884 197.23735110409206 L 197.875 212.5 L 200.56621679742884 227.762648895908 L 208.3152667258156 241.18439708226182 L 220.1875 251.14638364388057 L 234.75095007161323 256.4470459781698 L 250.24904992838677 256.4470459781698 L 264.8125 251.14638364388057 L 276.6847332741844 241.1843970822618 L 284.43378320257114 227.76264889590797 L 287.125 212.5 L 284.43378320257114 197.23735110409203 L 276.6847332741844 183.81560291773818 L 264.8125 173.85361635611943 L 250.24904992838677 168.5529540218302" opacity="1"></path><path fill="none" stroke="white" stroke-width="1" class="highcharts-grid-line" d="M 257.99809985677354 124.60590804366043 L 257.9980998567735 124.60590804366042 L 227.00190014322638 124.60590804366045 L 197.87499999999994 135.20723271223886 L 174.1305334516312 155.13120583547638 L 158.63243359485767 181.9747022081841 L 153.25 212.5 L 158.63243359485767 243.025297791816 L 174.1305334516312 269.86879416452365 L 197.87500000000003 289.79276728776114 L 227.0019001432265 300.3940919563396 L 257.99809985677354 300.3940919563396 L 287.125 289.79276728776114 L 310.8694665483688 269.8687941645236 L 326.3675664051423 243.02529779181594 L 331.75 212.5 L 326.3675664051423 181.97470220818406 L 310.8694665483688 155.13120583547638 L 287.125 135.20723271223886 L 257.99809985677354 124.60590804366043" opacity="1"></path><path fill="none" stroke="white" stroke-width="1" class="highcharts-grid-line" d="M 265.74714978516033 80.65886206549064 L 265.7471497851603 80.65886206549064 L 219.25285021483958 80.65886206549067 L 175.56249999999994 96.56084906835831 L 139.9458001774468 126.44680875321455 L 116.6986503922865 166.71205331227617 L 108.625 212.50000000000003 L 116.69865039228654 258.287946687724 L 139.9458001774468 298.55319124678545 L 175.56250000000003 328.43915093164173 L 219.25285021483973 344.34113793450933 L 265.74714978516033 344.34113793450933 L 309.43750000000006 328.43915093164173 L 345.0541998225532 298.55319124678545 L 368.30134960771346 258.2879466877239 L 376.375 212.5 L 368.30134960771346 166.71205331227608 L 345.0541998225532 126.44680875321455 L 309.4375 96.56084906835827 L 265.74714978516033 80.65886206549064" opacity="1"></path></g><rect fill="none" class="highcharts-plot-border" x="10" y="55" width="465" height="315"></rect><g class="highcharts-axis highcharts-xaxis "><path fill="none" class="highcharts-axis-line" d="M 242.5 78.625 A 133.875 133.875 0 1 1 242.36612502231242 78.62506693749441 M 242.5 212.5 A 0 0 0 1 0 242.5 212.5 "></path></g><g class="highcharts-axis highcharts-yaxis "><path fill="none" class="highcharts-axis-line" d="M 242.5 212.5 L 242.5 78.625"></path></g><g class="highcharts-series-group"><g class="highcharts-series highcharts-series-0 highcharts-area-series " transform="translate(10,55) scale(1 1)" clip-path="url(#highcharts-k1r7ycw-9)"><path fill="rgb(128,128,128)" fill-opacity="0.75" d="M 249.10510698939993 63.327758618207554 L 286.6875000000001 63.64449686486152 L 276.45179992395117 120.6200608942346 L 316.36756640514136 126.9747022081815 L 264.375 157.5000000000001 L 298.39594503261094 181.48416255071498 L 266.6847332741852 186.18439708226086 L 245.24999999999986 179.58364779650327 L 240.24904992838503 201.44704597817008 L 231.3929928673735 163.77814942545285 L 216.56249999999977 185.10455974562885 L 222.73293335023268 165.69554202350295 L 190.5662167974292 172.76264889590897 L 194.25 157.4999999999996 L 214.5283786274698 150.9588647588958 L 217.84940002534927 145.20668696474524 L 197.4375000000008 96.76996855961579 L 214.78788587797774 57.04960919275396 L 249.10510698939993 63.327758618207554 L 232.5 157.5 L 232.5 157.5 L 232.5 157.5 L 232.5 157.5 L 232.5 157.5 L 232.5 157.5 L 232.5 157.5 L 232.5 157.5 L 232.5 157.5 L 232.5 157.5 L 232.5 157.5 L 232.5 157.5 L 232.5 157.5 L 232.5 157.5 L 232.5 157.5 L 232.5 157.5 L 232.5 157.5 L 232.5 157.5 L 232.5 157.5" class="highcharts-area"></path><path fill="none" d="M 249.10510698939993 63.327758618207554 L 286.6875000000001 63.64449686486152 L 276.45179992395117 120.6200608942346 L 316.36756640514136 126.9747022081815 L 264.375 157.5000000000001 L 298.39594503261094 181.48416255071498 L 266.6847332741852 186.18439708226086 L 245.24999999999986 179.58364779650327 L 240.24904992838503 201.44704597817008 L 231.3929928673735 163.77814942545285 L 216.56249999999977 185.10455974562885 L 222.73293335023268 165.69554202350295 L 190.5662167974292 172.76264889590897 L 194.25 157.4999999999996 L 214.5283786274698 150.9588647588958 L 217.84940002534927 145.20668696474524 L 197.4375000000008 96.76996855961579 L 214.78788587797774 57.04960919275396 L 249.10510698939993 63.327758618207554" class="highcharts-graph" stroke="white" stroke-width="1" stroke-linejoin="round" stroke-linecap="round"></path></g><g class="highcharts-markers highcharts-series-0 highcharts-area-series " transform="translate(10,55) scale(1 1)" clip-path="none"></g></g><text x="10" text-anchor="start" class="highcharts-title" style="color:#000000;font-size:14px;font-weight:bold;font-family:Arial;fill:#000000;" y="21"><tspan>Quartierradar Clara</tspan></text><text x="10" text-anchor="start" class="highcharts-subtitle" style="color:#000000;font-size:12px;font-weight:normal;font-family:Arial;fill:#000000;" y="40"><tspan>Ausgabe 2018</tspan></text><g class="highcharts-axis-labels highcharts-xaxis-labels "><text x="268.35187245016425" style="color:#000000;cursor:default;font-size:10px;fill:#000000;" transform="translate(0,0)" text-anchor="start" y="69.38674577030753" opacity="1"><tspan>Anteil Sozialhilfeempfänger</tspan></text><text x="316.9375" style="color:#000000;cursor:default;font-size:10px;fill:#000000;" transform="translate(0,0)" text-anchor="start" y="87.07046801159169" opacity="1"><tspan>Anteil Ausländer</tspan></text><text x="356.5448664693379" style="color:#000000;cursor:default;font-size:10px;fill:#000000;" transform="translate(0,0)" text-anchor="start" y="113.80499460791647" opacity="1"><tspan>Anteil Personen ohne</tspan><tspan dy="13" x="356.5448664693379">Religionszugehörigkeit</tspan><title>Anteil Personen ohne Religionszugehörigkeit</title></text><text x="382.3967389195021" style="color:#000000;cursor:default;font-size:10px;fill:#000000;" transform="translate(0,0)" text-anchor="start" y="152.08175116239107" opacity="1"><tspan>Anteil Personen in</tspan><tspan dy="13" x="382.3967389195021">Einpersonen-</tspan><tspan dy="13" x="382.3967389195021">haushalten</tspan><title>Anteil Personen in Einpersonen-haushalten</title></text><text x="391.375" style="color:#000000;cursor:default;font-size:10px;fill:#000000;" transform="translate(0,0)" text-anchor="start" y="216" opacity="1"><tspan>Gymnasialquote</tspan></text><text x="382.3967389195021" style="color:#000000;cursor:default;font-size:10px;fill:#000000;" transform="translate(0,0)" text-anchor="start" y="266.9182488376089" opacity="1"><tspan>Altersquotient</tspan></text><text x="356.5448664693379" style="color:#000000;cursor:default;font-size:10px;fill:#000000;" transform="translate(0,0)" text-anchor="start" y="311.6950053920835" opacity="1"><tspan>Anteil Sesshafte</tspan></text><text x="316.93750000000006" style="color:#000000;cursor:default;font-size:10px;fill:#000000;" transform="translate(0,0)" text-anchor="start" y="344.92953198840826" opacity="1"><tspan>Jugendquotient</tspan></text><text x="268.3518724501643" style="color:#000000;cursor:default;font-size:10px;fill:#000000;" transform="translate(0,0)" text-anchor="start" y="362.6132542296925" opacity="1"><tspan>Baujahr Wohngebäude</tspan></text><text x="216.64812754983578" style="color:#000000;cursor:default;font-size:10px;fill:#000000;" transform="translate(0,0)" text-anchor="end" y="356.1132542296925" opacity="1"><tspan>Anteil</tspan><tspan dy="13" x="216.64812754983578">Einfamilienhäuser</tspan><title>Anteil Einfamilienhäuser</title></text><text x="168.06250000000003" style="color:#000000;cursor:default;font-size:10px;fill:#000000;" transform="translate(0,0)" text-anchor="end" y="344.9295319884083" opacity="1"><tspan>Anteil Grünfläche</tspan></text><text x="128.45513353066218" style="color:#000000;cursor:default;font-size:10px;fill:#000000;" transform="translate(0,0)" text-anchor="end" y="311.69500539208354" opacity="1"><tspan>Fläche pro Wohnung</tspan></text><text x="102.60326108049793" style="color:#000000;cursor:default;font-size:10px;fill:#000000;" transform="translate(0,0)" text-anchor="end" y="266.91824883760904" opacity="1"><tspan>Wohnfläche pro Kopf</tspan></text><text x="93.625" style="color:#000000;cursor:default;font-size:10px;fill:#000000;" transform="translate(0,0)" text-anchor="end" y="216.00000000000003" opacity="1"><tspan>Vermögenssteuer</tspan></text><text x="102.60326108049787" style="color:#000000;cursor:default;font-size:10px;fill:#000000;" transform="translate(0,0)" text-anchor="end" y="165.08175116239113" opacity="1"><tspan>Einkommenssteuer</tspan></text><text x="128.45513353066215" style="color:#000000;cursor:default;font-size:10px;fill:#000000;" transform="translate(0,0)" text-anchor="end" y="120.30499460791647" opacity="1"><tspan>Erwerbstätigenquote</tspan></text><text x="168.06249999999994" style="color:#000000;cursor:default;font-size:10px;fill:#000000;" transform="translate(0,0)" text-anchor="end" y="87.07046801159174" opacity="1"><tspan>Arbeitsplätze pro Kopf</tspan></text><text x="216.6481275498356" style="color:#000000;cursor:default;font-size:10px;fill:#000000;" transform="translate(0,0)" text-anchor="end" y="69.38674577030756" opacity="1"><tspan>Arbeitslosenquote</tspan></text><text x="0" style="color:#000000;cursor:default;font-size:10px;fill:#000000;" transform="translate(0,0)" text-anchor="middle" y="-9999">18</text></g><g class="highcharts-axis-labels highcharts-yaxis-labels "><text x="0" style="color:white;cursor:default;font-size:10px;fill:white;" text-anchor="end" transform="translate(0,0)" y="-9999">0</text><text x="242.5" style="color:white;cursor:default;font-size:10px;fill:white;" text-anchor="end" transform="translate(0,0)" y="178.875" opacity="1">7</text><text x="242.5" style="color:white;cursor:default;font-size:10px;fill:white;" text-anchor="end" transform="translate(0,0)" y="134.25" opacity="1">14</text><text x="242.5" style="color:white;cursor:default;font-size:10px;fill:white;" text-anchor="end" transform="translate(0,0)" y="89.625" opacity="1">21</text></g><text x="10" class="highcharts-credits" text-anchor="start" style="cursor:default;color:#000000;font-size:10px;fill:#000000;" y="400"><tspan>Quelle: Statistisches Amt Basel-Stadt</tspan></text></svg>