<?xml version="1.0" standalone="no"?><!DOCTYPE svg PUBLIC "-//W3C//DTD SVG 1.1//EN" "http://www.w3.org/Graphics/SVG/1.1/DTD/svg11.dtd"><svg xmlns:xlink="http://www.w3.org/1999/xlink" version="1.1" class="highcharts-root" style="font-family:Arial;font-size:12px;" xmlns="http://www.w3.org/2000/svg" viewBox="0 0 485 415"><desc>Created with Highstock 6.1.1</desc><defs><clipPath id="highcharts-0r9timh-7"><rect x="0" y="0" width="261" height="417" fill="none"></rect></clipPath><clipPath id="highcharts-0r9timh-8"><rect x="0" y="0" width="261" height="417" fill="none"></rect></clipPath></defs><rect fill="#fbfbfb" class="highcharts-background" x="0" y="0" width="485" height="428" rx="0" ry="0"></rect><rect fill="none" class="highcharts-plot-background" x="53" y="106" width="417" height="261"></rect><g class="highcharts-pane-group" data-z-index="0"></g><g class="highcharts-grid highcharts-xaxis-grid " data-z-index="1"><path fill="none" data-z-index="1" class="highcharts-grid-line" d="M 53 355.5 L 470 355.5" opacity="1"></path><path fill="none" data-z-index="1" class="highcharts-grid-line" d="M 53 342.5 L 470 342.5" opacity="1"></path><path fill="none" data-z-index="1" class="highcharts-grid-line" d="M 53 330.5 L 470 330.5" opacity="1"></path><path fill="none" data-z-index="1" class="highcharts-grid-line" d="M 53 317.5 L 470 317.5" opacity="1"></path><path fill="none" data-z-index="1" class="highcharts-grid-line" d="M 53 305.5 L 470 305.5" opacity="1"></path><path fill="none" data-z-index="1" class="highcharts-grid-line" d="M 53 292.5 L 470 292.5" opacity="1"></path><path fill="none" data-z-index="1" class="highcharts-grid-line" d="M 53 280.5 L 470 280.5" opacity="1"></path><path fill="none" data-z-index="1" class="highcharts-grid-line" d="M 53 268.5 L 470 268.5" opacity="1"></path><path fill="none" data-z-index="1" class="highcharts-grid-line" d="M 53 255.5 L 470 255.5" opacity="1"></path><path fill="none" data-z-index="1" class="highcharts-grid-line" d="M 53 243.5 L 470 243.5" opacity="1"></path><path fill="none" data-z-index="1" class="highcharts-grid-line" d="M 53 230.5 L 470 230.5" opacity="1"></path><path fill="none" data-z-index="1" class="highcharts-grid-line" d="M 53 218.5 L 470 218.5" opacity="1"></path><path fill="none" data-z-index="1" class="highcharts-grid-line" d="M 53 205.5 L 470 205.5" opacity="1"></path><path fill="none" data-z-index="1" class="highcharts-grid-line" d="M 53 193.5 L 470 193.5" opacity="1"></path><path fill="none" data-z-index="1" class="highcharts-grid-line" d="M 53 181.5 L 470 181.5" opacity="1"></path><path fill="none" data-z-index="1" class="highcharts-grid-line" d="M 53 168.5 L 470 168.5" opacity="1"></path><path fill="none" data-z-index="1" class="highcharts-grid-line" d="M 53 156.5 L 470 156.5" opacity="1"></path><path fill="none" data-z-index="1" class="highcharts-grid-line" d="M 53 143.5 L 470 143.5" opacity="1"></path><path fill="none" data-z-index="1" class="highcharts-grid-line" d="M 53 131.5 L 470 131.5" opacity="1"></path><path fill="none" data-z-index="1" class="highcharts-grid-line" d="M 53 118.5 L 470 118.5" opacity="1"></path><path fill="none" data-z-index="1" class="highcharts-grid-line" d="M 53 106.5 L 470 106.5" opacity="1"></path><path fill="none" data-z-index="1" class="highcharts-grid-line" d="M 53 367.5 L 470 367.5" opacity="1"></path></g><g class="highcharts-grid highcharts-yaxis-grid " data-z-index="1"><path fill="none" stroke="#e6e6e6" stroke-width="1" data-z-index="1" class="highcharts-grid-line" d="M 261.5 106 L 261.5 367" opacity="1"></path><path fill="none" stroke="#e6e6e6" stroke-width="1" data-z-index="1" class="highcharts-grid-line" d="M 400.5 106 L 400.5 367" opacity="1"></path><path fill="none" stroke="#e6e6e6" stroke-width="1" data-z-index="1" opacity="1" class="highcharts-grid-line" d="M 52.5 106 L 52.5 367"></path><path fill="none" stroke="#e6e6e6" stroke-width="1" data-z-index="1" opacity="1" class="highcharts-grid-line" d="M 122.5 106 L 122.5 367"></path><path fill="none" stroke="#e6e6e6" stroke-width="1" data-z-index="1" opacity="1" class="highcharts-grid-line" d="M 191.5 106 L 191.5 367"></path><path fill="none" stroke="#e6e6e6" stroke-width="1" data-z-index="1" opacity="1" class="highcharts-grid-line" d="M 330.5 106 L 330.5 367"></path><path fill="none" stroke="#e6e6e6" stroke-width="1" data-z-index="1" opacity="1" class="highcharts-grid-line" d="M 470.5 106 L 470.5 367"></path></g><rect fill="none" class="highcharts-plot-border" data-z-index="1" x="53" y="106" width="417" height="261"></rect><g class="highcharts-axis highcharts-xaxis " data-z-index="2"><path fill="none" class="highcharts-axis-line" stroke="#ccd6eb" stroke-width="1" data-z-index="7" d="M 52.5 106 L 52.5 367"></path></g><g class="highcharts-axis highcharts-yaxis " data-z-index="2"><path fill="none" class="highcharts-axis-line" data-z-index="7" d="M 53 367 L 470 367"></path></g><g class="highcharts-series-group" data-z-index="3"><g data-z-index="0.1" class="highcharts-series highcharts-series-0 highcharts-bar-series " transform="translate(470,367) rotate(90) scale(-1,1) scale(1 1)" clip-path="url(#highcharts-0r9timh-8)" width="417" height="261"><rect x="0" y="151" width="12" height="18" fill="#d00000" class="highcharts-point"></rect><rect x="12" y="157" width="13" height="9" fill="#d00000" class="highcharts-point"></rect><rect x="25" y="183" width="12" height="3" fill="#d00000" class="highcharts-point"></rect><rect x="37" y="162" width="13" height="13" fill="#d00000" class="highcharts-point"></rect><rect x="50" y="83" width="12" height="32" fill="#d00000" class="highcharts-point"></rect><rect x="62" y="75" width="13" height="48" fill="#d00000" class="highcharts-point"></rect><rect x="75" y="69" width="12" height="71" fill="#d00000" class="highcharts-point"></rect><rect x="87" y="84" width="12" height="60" fill="#d00000" class="highcharts-point"></rect><rect x="99" y="82" width="13" height="57" fill="#d00000" class="highcharts-point"></rect><rect x="112" y="101" width="12" height="40" fill="#d00000" class="highcharts-point"></rect><rect x="124" y="52" width="13" height="46" fill="#d00000" class="highcharts-point"></rect><rect x="137" y="65" width="12" height="29" fill="#d00000" class="highcharts-point"></rect><rect x="149" y="86" width="13" height="21" fill="#d00000" class="highcharts-point"></rect><rect x="162" y="94" width="12" height="14" fill="#d00000" class="highcharts-point"></rect><rect x="174" y="130" width="12" height="6" fill="#d00000" class="highcharts-point"></rect><rect x="186" y="122" width="13" height="0" fill="#d00000" class="highcharts-point"></rect><rect x="199" y="171" width="12" height="1" fill="#d00000" class="highcharts-point"></rect><rect x="211" y="171" width="13" height="4" fill="#d00000" class="highcharts-point"></rect><rect x="224" y="197" width="12" height="0" fill="#d00000" class="highcharts-point"></rect><rect x="236" y="208" width="13" height="0" fill="#d00000" class="highcharts-point"></rect><rect x="249" y="210" width="12" height="0" fill="#d00000" class="highcharts-point"></rect></g><g data-z-index="0.1" class="highcharts-markers highcharts-series-0 highcharts-bar-series " transform="translate(470,367) rotate(90) scale(-1,1) scale(1 1)" clip-path="none"></g><g data-z-index="0.1" class="highcharts-series highcharts-series-1 highcharts-bar-series " transform="translate(470,367) rotate(90) scale(-1,1) scale(1 1)" clip-path="url(#highcharts-0r9timh-8)" width="417" height="261"><rect x="0" y="235" width="12" height="19" fill="#00bAf3" class="highcharts-point highcharts-negative"></rect><rect x="12" y="235" width="13" height="4" fill="#00bAf3" class="highcharts-point highcharts-negative"></rect><rect x="25" y="237" width="12" height="13" fill="#00bAf3" class="highcharts-point highcharts-negative"></rect><rect x="37" y="255" width="13" height="20" fill="#00bAf3" class="highcharts-point highcharts-negative"></rect><rect x="50" y="269" width="12" height="31" fill="#00bAf3" class="highcharts-point highcharts-negative"></rect><rect x="62" y="304" width="13" height="67" fill="#00bAf3" class="highcharts-point highcharts-negative"></rect><rect x="75" y="289" width="12" height="40" fill="#00bAf3" class="highcharts-point highcharts-negative"></rect><rect x="87" y="282" width="12" height="68" fill="#00bAf3" class="highcharts-point highcharts-negative"></rect><rect x="99" y="293" width="13" height="62" fill="#00bAf3" class="highcharts-point highcharts-negative"></rect><rect x="112" y="325" width="12" height="61" fill="#00bAf3" class="highcharts-point highcharts-negative"></rect><rect x="124" y="343" width="13" height="67" fill="#00bAf3" class="highcharts-point highcharts-negative"></rect><rect x="137" y="335" width="12" height="43" fill="#00bAf3" class="highcharts-point highcharts-negative"></rect><rect x="149" y="321" width="13" height="23" fill="#00bAf3" class="highcharts-point highcharts-negative"></rect><rect x="162" y="318" width="12" height="8" fill="#00bAf3" class="highcharts-point highcharts-negative"></rect><rect x="174" y="294" width="12" height="10" fill="#00bAf3" class="highcharts-point highcharts-negative"></rect><rect x="186" y="254" width="13" height="11" fill="#00bAf3" class="highcharts-point highcharts-negative"></rect><rect x="199" y="250" width="12" height="3" fill="#00bAf3" class="highcharts-point highcharts-negative"></rect><rect x="211" y="210" width="13" height="0" fill="#00bAf3" class="highcharts-point"></rect><rect x="224" y="210" width="12" height="0" fill="#00bAf3" class="highcharts-point"></rect><rect x="236" y="210" width="13" height="0" fill="#00bAf3" class="highcharts-point"></rect><rect x="249" y="210" width="12" height="0" fill="#00bAf3" class="highcharts-point"></rect></g><g data-z-index="0.1" class="highcharts-markers highcharts-series-1 highcharts-bar-series " transform="translate(470,367) rotate(90) scale(-1,1) scale(1 1)" clip-path="none"></g><g data-z-index="0.1" class="highcharts-series highcharts-series-2 highcharts-bar-series " transform="translate(470,367) rotate(90) scale(-1,1) scale(1 1)" clip-path="url(#highcharts-0r9timh-8)" width="417" height="261"><rect x="0" y="169" width="12" height="41" fill="#B00000" class="highcharts-point"></rect><rect x="12" y="166" width="13" height="44" fill="#B00000" class="highcharts-point"></rect><rect x="25" y="186" width="12" height="24" fill="#B00000" class="highcharts-point"></rect><rect x="37" y="175" width="13" height="35" fill="#B00000" class="highcharts-point"></rect><rect x="50" y="115" width="12" height="95" fill="#B00000" class="highcharts-point"></rect><rect x="62" y="123" width="13" height="87" fill="#B00000" class="highcharts-point"></rect><rect x="75" y="140" width="12" height="70" fill="#B00000" class="highcharts-point"></rect><rect x="87" y="144" width="12" height="66" fill="#B00000" class="highcharts-point"></rect><rect x="99" y="139" width="13" height="71" fill="#B00000" class="highcharts-point"></rect><rect x="112" y="141" width="12" height="69" fill="#B00000" class="highcharts-point"></rect><rect x="124" y="98" width="13" height="112" fill="#B00000" class="highcharts-point"></rect><rect x="137" y="94" width="12" height="116" fill="#B00000" class="highcharts-point"></rect><rect x="149" y="107" width="13" height="103" fill="#B00000" class="highcharts-point"></rect><rect x="162" y="108" width="12" height="102" fill="#B00000" class="highcharts-point"></rect><rect x="174" y="136" width="12" height="74" fill="#B00000" class="highcharts-point"></rect><rect x="186" y="122" width="13" height="88" fill="#B00000" class="highcharts-point"></rect><rect x="199" y="172" width="12" height="38" fill="#B00000" class="highcharts-point"></rect><rect x="211" y="175" width="13" height="35" fill="#B00000" class="highcharts-point"></rect><rect x="224" y="197" width="12" height="13" fill="#B00000" class="highcharts-point"></rect><rect x="236" y="208" width="13" height="2" fill="#B00000" class="highcharts-point"></rect><rect x="249" y="210" width="12" height="0" fill="#B00000" class="highcharts-point"></rect></g><g data-z-index="0.1" class="highcharts-markers highcharts-series-2 highcharts-bar-series " transform="translate(470,367) rotate(90) scale(-1,1) scale(1 1)" clip-path="none"></g><g data-z-index="0.1" class="highcharts-series highcharts-series-3 highcharts-bar-series " transform="translate(470,367) rotate(90) scale(-1,1) scale(1 1)" clip-path="url(#highcharts-0r9timh-8)" width="417" height="261"><rect x="0" y="210" width="12" height="25" fill="#008AC3" class="highcharts-point highcharts-negative"></rect><rect x="12" y="210" width="13" height="25" fill="#008AC3" class="highcharts-point highcharts-negative"></rect><rect x="25" y="210" width="12" height="27" fill="#008AC3" class="highcharts-point highcharts-negative"></rect><rect x="37" y="210" width="13" height="45" fill="#008AC3" class="highcharts-point highcharts-negative"></rect><rect x="50" y="210" width="12" height="59" fill="#008AC3" class="highcharts-point highcharts-negative"></rect><rect x="62" y="210" width="13" height="94" fill="#008AC3" class="highcharts-point highcharts-negative"></rect><rect x="75" y="210" width="12" height="79" fill="#008AC3" class="highcharts-point highcharts-negative"></rect><rect x="87" y="210" width="12" height="72" fill="#008AC3" class="highcharts-point highcharts-negative"></rect><rect x="99" y="210" width="13" height="83" fill="#008AC3" class="highcharts-point highcharts-negative"></rect><rect x="112" y="210" width="12" height="115" fill="#008AC3" class="highcharts-point highcharts-negative"></rect><rect x="124" y="210" width="13" height="133" fill="#008AC3" class="highcharts-point highcharts-negative"></rect><rect x="137" y="210" width="12" height="125" fill="#008AC3" class="highcharts-point highcharts-negative"></rect><rect x="149" y="210" width="13" height="111" fill="#008AC3" class="highcharts-point highcharts-negative"></rect><rect x="162" y="210" width="12" height="108" fill="#008AC3" class="highcharts-point highcharts-negative"></rect><rect x="174" y="210" width="12" height="84" fill="#008AC3" class="highcharts-point highcharts-negative"></rect><rect x="186" y="210" width="13" height="44" fill="#008AC3" class="highcharts-point highcharts-negative"></rect><rect x="199" y="210" width="12" height="40" fill="#008AC3" class="highcharts-point highcharts-negative"></rect><rect x="211" y="210" width="13" height="22" fill="#008AC3" class="highcharts-point highcharts-negative"></rect><rect x="224" y="210" width="12" height="4" fill="#008AC3" class="highcharts-point highcharts-negative"></rect><rect x="236" y="210" width="13" height="0" fill="#008AC3" class="highcharts-point"></rect><rect x="249" y="210" width="12" height="0" fill="#008AC3" class="highcharts-point"></rect></g><g data-z-index="0.1" class="highcharts-markers highcharts-series-3 highcharts-bar-series " transform="translate(470,367) rotate(90) scale(-1,1) scale(1 1)" clip-path="none"></g><g data-z-index="0.1" class="highcharts-series highcharts-series-4 highcharts-bar-series highcharts-color-0 " visibility="hidden" transform="translate(470,367) rotate(90) scale(-1,1) scale(1 1)" clip-path="url(#highcharts-0r9timh-8)"></g><g data-z-index="0.1" class="highcharts-markers highcharts-series-4 highcharts-bar-series highcharts-color-0 " visibility="hidden" transform="translate(470,367) rotate(90) scale(-1,1) scale(1 1)" clip-path="none"></g></g><text x="10" text-anchor="start" class="highcharts-title" data-z-index="4" style="color:#000000;font-size:14px;font-weight:bold;fill:#000000;" y="21"><tspan>Alterspyramide nach Geschlecht und Heimat</tspan></text><text x="10" text-anchor="start" class="highcharts-subtitle" data-z-index="4" style="color:#000000;font-size:12px;font-weight:normal;font-family:Arial;fill:#000000;" y="40"><tspan>Altstadt Grossbasel, 2017</tspan></text><g class="highcharts-plot-lines-4" data-z-index="4"><path fill="none" class="highcharts-plot-line " stroke="white" stroke-width="1" d="M 261.5 106 L 261.5 367" visibility="visible"></path></g><g class="highcharts-axis-labels highcharts-xaxis-labels " data-z-index="7"><text x="38" style="color:#000000;cursor:default;font-size:11px;fill:#000000;" text-anchor="end" transform="translate(0,0)" y="365" opacity="1">0-4</text><text x="38" style="color:#000000;cursor:default;font-size:11px;fill:#000000;" text-anchor="end" transform="translate(0,0)" y="353" opacity="1">5-9</text><text x="38" style="color:#000000;cursor:default;font-size:11px;fill:#000000;" text-anchor="end" transform="translate(0,0)" y="340" opacity="1">10-14</text><text x="38" style="color:#000000;cursor:default;font-size:11px;fill:#000000;" text-anchor="end" transform="translate(0,0)" y="328" opacity="1">15-19</text><text x="38" style="color:#000000;cursor:default;font-size:11px;fill:#000000;" text-anchor="end" transform="translate(0,0)" y="316" opacity="1">20-24</text><text x="38" style="color:#000000;cursor:default;font-size:11px;fill:#000000;" text-anchor="end" transform="translate(0,0)" y="303" opacity="1">25-29</text><text x="38" style="color:#000000;cursor:default;font-size:11px;fill:#000000;" text-anchor="end" transform="translate(0,0)" y="291" opacity="1">30-34</text><text x="38" style="color:#000000;cursor:default;font-size:11px;fill:#000000;" text-anchor="end" transform="translate(0,0)" y="278" opacity="1">35-39</text><text x="38" style="color:#000000;cursor:default;font-size:11px;fill:#000000;" text-anchor="end" transform="translate(0,0)" y="266" opacity="1">40-44</text><text x="38" style="color:#000000;cursor:default;font-size:11px;fill:#000000;" text-anchor="end" transform="translate(0,0)" y="253" opacity="1">45-49</text><text x="38" style="color:#000000;cursor:default;font-size:11px;fill:#000000;" text-anchor="end" transform="translate(0,0)" y="241" opacity="1">50-54</text><text x="38" style="color:#000000;cursor:default;font-size:11px;fill:#000000;" text-anchor="end" transform="translate(0,0)" y="229" opacity="1">55-59</text><text x="38" style="color:#000000;cursor:default;font-size:11px;fill:#000000;" text-anchor="end" transform="translate(0,0)" y="216" opacity="1">60-64</text><text x="38" style="color:#000000;cursor:default;font-size:11px;fill:#000000;" text-anchor="end" transform="translate(0,0)" y="204" opacity="1">65-69</text><text x="38" style="color:#000000;cursor:default;font-size:11px;fill:#000000;" text-anchor="end" transform="translate(0,0)" y="191" opacity="1">70-74</text><text x="38" style="color:#000000;cursor:default;font-size:11px;fill:#000000;" text-anchor="end" transform="translate(0,0)" y="179" opacity="1">75-79</text><text x="38" style="color:#000000;cursor:default;font-size:11px;fill:#000000;" text-anchor="end" transform="translate(0,0)" y="166" opacity="1">80-84</text><text x="38" style="color:#000000;cursor:default;font-size:11px;fill:#000000;" text-anchor="end" transform="translate(0,0)" y="154" opacity="1">85-89</text><text x="38" style="color:#000000;cursor:default;font-size:11px;fill:#000000;" text-anchor="end" transform="translate(0,0)" y="142" opacity="1">90-94</text><text x="38" style="color:#000000;cursor:default;font-size:11px;fill:#000000;" text-anchor="end" transform="translate(0,0)" y="129" opacity="1">95-99</text><text x="38" style="color:#000000;cursor:default;font-size:11px;fill:#000000;" text-anchor="end" transform="translate(0,0)" y="117" opacity="1">100+</text></g><g class="highcharts-axis-labels highcharts-yaxis-labels " data-z-index="7"><text x="261.5" style="color:#000000;cursor:default;font-size:11px;fill:#000000;" text-anchor="middle" transform="translate(0,0)" y="386" opacity="1">0</text><text x="400.5" style="color:#000000;cursor:default;font-size:11px;fill:#000000;" text-anchor="middle" transform="translate(0,0)" y="386" opacity="1">100</text><text x="53" style="color:#000000;cursor:default;font-size:11px;fill:#000000;" text-anchor="middle" transform="translate(0,0)" y="386" opacity="1">150</text><text x="122.5" style="color:#000000;cursor:default;font-size:11px;fill:#000000;" text-anchor="middle" transform="translate(0,0)" y="386" opacity="1">100</text><text x="192" style="color:#000000;cursor:default;font-size:11px;fill:#000000;" text-anchor="middle" transform="translate(0,0)" y="386" opacity="1">50</text><text x="331" style="color:#000000;cursor:default;font-size:11px;fill:#000000;" text-anchor="middle" transform="translate(0,0)" y="386" opacity="1">50</text><text x="470" style="color:#000000;cursor:default;font-size:11px;fill:#000000;" text-anchor="middle" transform="translate(0,0)" y="386" opacity="1">150</text></g><g class="highcharts-legend" data-z-index="7" transform="translate(150,55)"><rect fill="none" class="highcharts-legend-box" rx="0" ry="0" x="0" y="0" width="276" height="39" visibility="visible"></rect><g data-z-index="1"><g><g class="highcharts-legend-item highcharts-bar-series highcharts-color-undefined highcharts-series-3" data-z-index="1" transform="translate(8,3)"><text x="21" y="15" style="color:#333333;font-size:12px;font-weight:normal;cursor:pointer;fill:#333333;" text-anchor="start" data-z-index="2"><tspan>Schweizer</tspan></text><rect x="2" y="4" width="12" height="12" fill="#008AC3" class="highcharts-point" data-z-index="3"></rect></g><g class="highcharts-legend-item highcharts-bar-series highcharts-color-undefined highcharts-series-2" data-z-index="1" transform="translate(148,3)"><text x="21" y="15" style="color:#333333;font-size:12px;font-weight:normal;cursor:pointer;fill:#333333;" text-anchor="start" data-z-index="2"><tspan>Schweizerinnen</tspan></text><rect x="2" y="4" width="12" height="12" fill="#B00000" class="highcharts-point" data-z-index="3"></rect></g><g class="highcharts-legend-item highcharts-bar-series highcharts-color-undefined highcharts-series-1" data-z-index="1" transform="translate(8,17)"><text x="21" y="15" style="color:#333333;font-size:12px;font-weight:normal;cursor:pointer;fill:#333333;" text-anchor="start" data-z-index="2"><tspan>Ausländer</tspan></text><rect x="2" y="4" width="12" height="12" fill="#00bAf3" class="highcharts-point" data-z-index="3"></rect></g><g class="highcharts-legend-item highcharts-bar-series highcharts-color-undefined highcharts-series-0" data-z-index="1" transform="translate(148,17)"><text x="21" y="15" style="color:#333333;font-size:12px;font-weight:normal;cursor:pointer;fill:#333333;" text-anchor="start" data-z-index="2"><tspan>Ausländerinnen</tspan></text><rect x="2" y="4" width="12" height="12" fill="#d00000" class="highcharts-point" data-z-index="3"></rect></g></g></g></g><text x="10" class="highcharts-credits" text-anchor="start" data-z-index="8" style="cursor:default;color:#000000;font-size:10px;fill:#000000;" y="403"><tspan>Quelle: Statistisches Amt Basel-Stadt, Bevölkerungsstatistik.</tspan><tspan x="10" dy="13">Zuletzt geändert: 2019-1-25</tspan></text></svg>