<?xml version="1.0" standalone="no"?><!DOCTYPE svg PUBLIC "-//W3C//DTD SVG 1.1//EN" "http://www.w3.org/Graphics/SVG/1.1/DTD/svg11.dtd"><svg xmlns:xlink="http://www.w3.org/1999/xlink" version="1.1" class="highcharts-root" style="font-family:Arial;font-size:12px;" xmlns="http://www.w3.org/2000/svg" viewBox="0 0 485 415"><desc>Created with Highstock 6.1.1</desc><defs><clipPath id="highcharts-7s3x41h-8"><rect x="0" y="0" width="344" height="197" fill="none"></rect></clipPath><clipPath id="highcharts-7s3x41h-9"><rect x="0" y="0" width="344" height="197" fill="none"></rect></clipPath><clipPath id="highcharts-7s3x41h-10"><rect x="0" y="0" width="344" height="197" fill="none"></rect></clipPath></defs><rect fill="#fbfbfb" class="highcharts-background" x="0" y="0" width="485" height="428" rx="0" ry="0"></rect><rect fill="none" class="highcharts-plot-background" x="94" y="154" width="344" height="197"></rect><g class="highcharts-pane-group" data-z-index="0"></g><g class="highcharts-grid highcharts-xaxis-grid " data-z-index="1"><path fill="none" data-z-index="1" class="highcharts-grid-line" d="M 127.5 154 L 127.5 351" opacity="1"></path><path fill="none" data-z-index="1" class="highcharts-grid-line" d="M 162.5 154 L 162.5 351" opacity="1"></path><path fill="none" data-z-index="1" class="highcharts-grid-line" d="M 196.5 154 L 196.5 351" opacity="1"></path><path fill="none" data-z-index="1" class="highcharts-grid-line" d="M 231.5 154 L 231.5 351" opacity="1"></path><path fill="none" data-z-index="1" class="highcharts-grid-line" d="M 265.5 154 L 265.5 351" opacity="1"></path><path fill="none" data-z-index="1" class="highcharts-grid-line" d="M 299.5 154 L 299.5 351" opacity="1"></path><path fill="none" data-z-index="1" class="highcharts-grid-line" d="M 334.5 154 L 334.5 351" opacity="1"></path><path fill="none" data-z-index="1" class="highcharts-grid-line" d="M 368.5 154 L 368.5 351" opacity="1"></path><path fill="none" data-z-index="1" class="highcharts-grid-line" d="M 403.5 154 L 403.5 351" opacity="1"></path><path fill="none" data-z-index="1" class="highcharts-grid-line" d="M 437.5 154 L 437.5 351" opacity="1"></path><path fill="none" data-z-index="1" class="highcharts-grid-line" d="M 93.5 154 L 93.5 351" opacity="1"></path></g><g class="highcharts-grid highcharts-yaxis-grid " data-z-index="1"><path fill="none" stroke="#B9CFD7" stroke-width="0.5" data-z-index="1" class="highcharts-grid-line" d="M 94 351.25 L 438 351.25" opacity="1"></path><path fill="none" stroke="#B9CFD7" stroke-width="0.5" data-z-index="1" class="highcharts-grid-line" d="M 94 285.25 L 438 285.25" opacity="1"></path><path fill="none" stroke="#B9CFD7" stroke-width="0.5" data-z-index="1" class="highcharts-grid-line" d="M 94 220.25 L 438 220.25" opacity="1"></path><path fill="none" stroke="#B9CFD7" stroke-width="0.5" data-z-index="1" class="highcharts-grid-line" d="M 94 153.75 L 438 153.75" opacity="1"></path></g><g class="highcharts-grid highcharts-yaxis-grid " data-z-index="1"><path fill="none" stroke="#B9CFD7" stroke-width="0.5" data-z-index="1" class="highcharts-grid-line" d="M 94 351.25 L 438 351.25" opacity="1"></path><path fill="none" stroke="#B9CFD7" stroke-width="0.5" data-z-index="1" class="highcharts-grid-line" d="M 94 285.25 L 438 285.25" opacity="1"></path><path fill="none" stroke="#B9CFD7" stroke-width="0.5" data-z-index="1" class="highcharts-grid-line" d="M 94 220.25 L 438 220.25" opacity="1"></path><path fill="none" stroke="#B9CFD7" stroke-width="0.5" data-z-index="1" class="highcharts-grid-line" d="M 94 153.75 L 438 153.75" opacity="1"></path></g><rect fill="none" class="highcharts-plot-border" data-z-index="1" x="94" y="154" width="344" height="197"></rect><g class="highcharts-axis highcharts-xaxis " data-z-index="2"><path fill="none" class="highcharts-axis-line" stroke="#B9CFD7" stroke-width="0.5" data-z-index="7" d="M 94 351.25 L 438 351.25"></path></g><g class="highcharts-axis highcharts-yaxis " data-z-index="2"><path fill="none" class="highcharts-axis-line" data-z-index="7" d="M 94 154 L 94 351"></path></g><g class="highcharts-axis highcharts-yaxis " data-z-index="2"><path fill="none" class="highcharts-axis-line" data-z-index="7" d="M 438 154 L 438 351"></path></g><g class="highcharts-series-group" data-z-index="3"><g data-z-index="0.1" class="highcharts-series highcharts-series-0 highcharts-column-series " transform="translate(94,154) scale(1 1)" clip-path="url(#highcharts-7s3x41h-9)"><rect x="7" y="25" width="21" height="54" fill="#007A2F" class="highcharts-point"></rect><rect x="41" y="42" width="21" height="26" fill="#007A2F" class="highcharts-point"></rect><rect x="76" y="55" width="20" height="25" fill="#007A2F" class="highcharts-point"></rect><rect x="110" y="36" width="21" height="24" fill="#007A2F" class="highcharts-point"></rect><rect x="144" y="46" width="21" height="26" fill="#007A2F" class="highcharts-point"></rect><rect x="179" y="74" width="21" height="12" fill="#007A2F" class="highcharts-point"></rect><rect x="213" y="71" width="21" height="13" fill="#007A2F" class="highcharts-point"></rect><rect x="248" y="63" width="20" height="13" fill="#007A2F" class="highcharts-point"></rect><rect x="282" y="56" width="21" height="13" fill="#007A2F" class="highcharts-point"></rect><rect x="316" y="51" width="21" height="14" fill="#007A2F" class="highcharts-point"></rect></g><g data-z-index="0.1" class="highcharts-markers highcharts-series-0 highcharts-column-series " transform="translate(94,154) scale(1 1)" clip-path="none"></g><g data-z-index="0.1" class="highcharts-series highcharts-series-1 highcharts-column-series " transform="translate(94,154) scale(1 1)" clip-path="url(#highcharts-7s3x41h-9)"><rect x="7" y="79" width="21" height="9" fill="#083038" class="highcharts-point"></rect><rect x="41" y="68" width="21" height="12" fill="#083038" class="highcharts-point"></rect><rect x="76" y="80" width="20" height="9" fill="#083038" class="highcharts-point"></rect><rect x="110" y="60" width="21" height="8" fill="#083038" class="highcharts-point"></rect><rect x="144" y="72" width="21" height="9" fill="#083038" class="highcharts-point"></rect><rect x="179" y="86" width="21" height="10" fill="#083038" class="highcharts-point"></rect><rect x="213" y="84" width="21" height="12" fill="#083038" class="highcharts-point"></rect><rect x="248" y="76" width="20" height="13" fill="#083038" class="highcharts-point"></rect><rect x="282" y="69" width="21" height="14" fill="#083038" class="highcharts-point"></rect><rect x="316" y="65" width="21" height="16" fill="#083038" class="highcharts-point"></rect></g><g data-z-index="0.1" class="highcharts-markers highcharts-series-1 highcharts-column-series " transform="translate(94,154) scale(1 1)" clip-path="none"></g><g data-z-index="0.1" class="highcharts-series highcharts-series-2 highcharts-column-series " transform="translate(94,154) scale(1 1)" clip-path="url(#highcharts-7s3x41h-9)"><rect x="7" y="88" width="21" height="0" fill="#923F8D" class="highcharts-point"></rect><rect x="41" y="80" width="21" height="0" fill="#923F8D" class="highcharts-point"></rect><rect x="76" y="89" width="20" height="0" fill="#923F8D" class="highcharts-point"></rect><rect x="110" y="68" width="21" height="0" fill="#923F8D" class="highcharts-point"></rect><rect x="144" y="81" width="21" height="0" fill="#923F8D" class="highcharts-point"></rect><rect x="179" y="96" width="21" height="17" fill="#923F8D" class="highcharts-point"></rect><rect x="213" y="96" width="21" height="18" fill="#923F8D" class="highcharts-point"></rect><rect x="248" y="89" width="20" height="19" fill="#923F8D" class="highcharts-point"></rect><rect x="282" y="83" width="21" height="20" fill="#923F8D" class="highcharts-point"></rect><rect x="316" y="81" width="21" height="21" fill="#923F8D" class="highcharts-point"></rect></g><g data-z-index="0.1" class="highcharts-markers highcharts-series-2 highcharts-column-series " transform="translate(94,154) scale(1 1)" clip-path="none"></g><g data-z-index="0.1" class="highcharts-series highcharts-series-3 highcharts-column-series " transform="translate(94,154) scale(1 1)" clip-path="url(#highcharts-7s3x41h-9)"><rect x="7" y="88" width="21" height="35" fill="#FABD24" class="highcharts-point"></rect><rect x="41" y="80" width="21" height="36" fill="#FABD24" class="highcharts-point"></rect><rect x="76" y="89" width="20" height="36" fill="#FABD24" class="highcharts-point"></rect><rect x="110" y="68" width="21" height="47" fill="#FABD24" class="highcharts-point"></rect><rect x="144" y="81" width="21" height="37" fill="#FABD24" class="highcharts-point"></rect><rect x="179" y="113" width="21" height="12" fill="#FABD24" class="highcharts-point"></rect><rect x="213" y="114" width="21" height="13" fill="#FABD24" class="highcharts-point"></rect><rect x="248" y="108" width="20" height="16" fill="#FABD24" class="highcharts-point"></rect><rect x="282" y="103" width="21" height="13" fill="#FABD24" class="highcharts-point"></rect><rect x="316" y="102" width="21" height="12" fill="#FABD24" class="highcharts-point"></rect></g><g data-z-index="0.1" class="highcharts-markers highcharts-series-3 highcharts-column-series " transform="translate(94,154) scale(1 1)" clip-path="none"></g><g data-z-index="0.1" class="highcharts-series highcharts-series-4 highcharts-column-series " transform="translate(94,154) scale(1 1)" clip-path="url(#highcharts-7s3x41h-9)"><rect x="7" y="123" width="21" height="25" fill="#999999" class="highcharts-point"></rect><rect x="41" y="116" width="21" height="31" fill="#999999" class="highcharts-point"></rect><rect x="76" y="125" width="20" height="23" fill="#999999" class="highcharts-point"></rect><rect x="110" y="115" width="21" height="25" fill="#999999" class="highcharts-point"></rect><rect x="144" y="118" width="21" height="25" fill="#999999" class="highcharts-point"></rect><rect x="179" y="125" width="21" height="21" fill="#999999" class="highcharts-point"></rect><rect x="213" y="127" width="21" height="23" fill="#999999" class="highcharts-point"></rect><rect x="248" y="124" width="20" height="23" fill="#999999" class="highcharts-point"></rect><rect x="282" y="116" width="21" height="24" fill="#999999" class="highcharts-point"></rect><rect x="316" y="114" width="21" height="27" fill="#999999" class="highcharts-point"></rect></g><g data-z-index="0.1" class="highcharts-markers highcharts-series-4 highcharts-column-series " transform="translate(94,154) scale(1 1)" clip-path="none"></g><g data-z-index="0.1" class="highcharts-series highcharts-series-5 highcharts-column-series " transform="translate(94,154) scale(1 1)" clip-path="url(#highcharts-7s3x41h-9)"><rect x="7" y="148" width="21" height="50" fill="#008AC3" class="highcharts-point"></rect><rect x="41" y="147" width="21" height="51" fill="#008AC3" class="highcharts-point"></rect><rect x="76" y="148" width="20" height="50" fill="#008AC3" class="highcharts-point"></rect><rect x="110" y="140" width="21" height="58" fill="#008AC3" class="highcharts-point"></rect><rect x="144" y="143" width="21" height="55" fill="#008AC3" class="highcharts-point"></rect><rect x="179" y="146" width="21" height="52" fill="#008AC3" class="highcharts-point"></rect><rect x="213" y="150" width="21" height="48" fill="#008AC3" class="highcharts-point"></rect><rect x="248" y="147" width="20" height="51" fill="#008AC3" class="highcharts-point"></rect><rect x="282" y="140" width="21" height="58" fill="#008AC3" class="highcharts-point"></rect><rect x="316" y="141" width="21" height="57" fill="#008AC3" class="highcharts-point"></rect></g><g data-z-index="0.1" class="highcharts-markers highcharts-series-5 highcharts-column-series " transform="translate(94,154) scale(1 1)" clip-path="none"></g><g data-z-index="0.1" class="highcharts-series highcharts-series-6 highcharts-scatter-series " transform="translate(94,154) scale(1 1)" clip-path="url(#highcharts-7s3x41h-10)"></g><g data-z-index="0.1" class="highcharts-markers highcharts-series-6 highcharts-scatter-series " transform="translate(94,154) scale(1 1)" clip-path="none"><path fill="#B00000" d="M 21 71 A 4 4 0 1 1 20.99999800000017 70.99600000066667 Z" class="highcharts-point"></path><path fill="#B00000" d="M 55 53 A 4 4 0 1 1 54.99999800000017 52.99600000066666 Z" class="highcharts-point"></path><path fill="#B00000" d="M 90 45 A 4 4 0 1 1 89.99999800000016 44.99600000066666 Z" class="highcharts-point"></path><path fill="#B00000" d="M 124 42 A 4 4 0 1 1 123.99999800000016 41.99600000066666 Z" class="highcharts-point"></path><path fill="#B00000" d="M 158 37 A 4 4 0 1 1 157.99999800000018 36.99600000066666 Z" class="highcharts-point"></path><path fill="#B00000" d="M 193 15 A 4 4 0 1 1 192.99999800000018 14.996000000666664 Z" class="highcharts-point"></path><path fill="#B00000" d="M 227 30 A 4 4 0 1 1 226.99999800000018 29.996000000666665 Z" class="highcharts-point"></path><path fill="#B00000" d="M 262 32 A 4 4 0 1 1 261.9999980000002 31.996000000666665 Z" class="highcharts-point"></path><path fill="#B00000" d="M 296 19 A 4 4 0 1 1 295.9999980000002 18.996000000666665 Z" class="highcharts-point"></path><path fill="#B00000" d="M 330 27 A 4 4 0 1 1 329.9999980000002 26.996000000666665 Z" class="highcharts-point"></path></g><g data-z-index="0.1" class="highcharts-series highcharts-series-7 highcharts-scatter-series " transform="translate(94,154) scale(1 1)" clip-path="url(#highcharts-7s3x41h-10)"></g><g data-z-index="0.1" class="highcharts-markers highcharts-series-7 highcharts-scatter-series " transform="translate(94,154) scale(1 1)" clip-path="none"><path fill="#662673" d="M 21 132 A 4 4 0 1 1 20.99999800000017 131.99600000066667 Z" class="highcharts-point"></path><path fill="#662673" d="M 55 111 A 4 4 0 1 1 54.99999800000017 110.99600000066667 Z" class="highcharts-point"></path><path fill="#662673" d="M 90 127 A 4 4 0 1 1 89.99999800000016 126.99600000066667 Z" class="highcharts-point"></path><path fill="#662673" d="M 124 129 A 4 4 0 1 1 123.99999800000016 128.99600000066667 Z" class="highcharts-point"></path><path fill="#662673" d="M 158 128 A 4 4 0 1 1 157.99999800000018 127.99600000066667 Z" class="highcharts-point"></path><path fill="#662673" d="M 193 123 A 4 4 0 1 1 192.99999800000018 122.99600000066667 Z" class="highcharts-point"></path><path fill="#662673" d="M 227 120 A 4 4 0 1 1 226.99999800000018 119.99600000066667 Z" class="highcharts-point"></path><path fill="#662673" d="M 262 123 A 4 4 0 1 1 261.9999980000002 122.99600000066667 Z" class="highcharts-point"></path><path fill="#662673" d="M 296 122 A 4 4 0 1 1 295.9999980000002 121.99600000066667 Z" class="highcharts-point"></path><path fill="#662673" d="M 330 115 A 4 4 0 1 1 329.9999980000002 114.99600000066667 Z" class="highcharts-point"></path></g></g><text x="10" text-anchor="start" class="highcharts-title" data-z-index="4" style="color:#000000;font-size:14px;font-weight:bold;fill:#000000;" y="21"><tspan>Zusammensetzung der Gesamteinnahmen</tspan></text><text x="10" text-anchor="start" class="highcharts-subtitle" data-z-index="4" style="color:#000000;font-size:12px;font-weight:normal;font-family:Arial;fill:#000000;" y="40"><tspan>in Franken, Basel-Stadt</tspan></text><g class="highcharts-legend" data-z-index="7" transform="translate(86,56)"><rect fill="none" class="highcharts-legend-box" rx="0" ry="0" x="0" y="0" width="346" height="86" visibility="visible"></rect><g data-z-index="1"><g><g class="highcharts-legend-item highcharts-column-series highcharts-color-undefined highcharts-series-5" data-z-index="1" transform="translate(8,3)"><text x="21" style="color:#333333;font-size:12px;font-weight:normal;cursor:pointer;fill:#333333;" text-anchor="start" data-z-index="2" y="15"><tspan>Einkommens- und</tspan><tspan x="21" dy="15">Vermögenssteuern (NP)</tspan></text><rect x="2" y="4" width="12" height="12" fill="#008AC3" class="highcharts-point" data-z-index="3"></rect></g><g class="highcharts-legend-item highcharts-column-series highcharts-color-undefined highcharts-series-4" data-z-index="1" transform="translate(183,3)"><text x="21" y="15" style="color:#333333;font-size:12px;font-weight:normal;cursor:pointer;fill:#333333;" text-anchor="start" data-z-index="2"><tspan>Gewinn- und</tspan><tspan x="21" dy="15">Kapitalsteuern (JP)</tspan></text><rect x="2" y="4" width="12" height="12" fill="#999999" class="highcharts-point" data-z-index="3"></rect></g><g class="highcharts-legend-item highcharts-column-series highcharts-color-undefined highcharts-series-3" data-z-index="1" transform="translate(8,33)"><text x="21" y="15" style="color:#333333;font-size:12px;font-weight:normal;cursor:pointer;fill:#333333;" text-anchor="start" data-z-index="2"><tspan>Entgelte</tspan></text><rect x="2" y="4" width="12" height="12" fill="#FABD24" class="highcharts-point" data-z-index="3"></rect></g><g class="highcharts-legend-item highcharts-column-series highcharts-color-undefined highcharts-series-2" data-z-index="1" transform="translate(183,33)"><text x="21" y="15" style="color:#333333;font-size:12px;font-weight:normal;cursor:pointer;fill:#333333;" text-anchor="start" data-z-index="2"><tspan>Transferertrag</tspan></text><rect x="2" y="4" width="12" height="12" fill="#923F8D" class="highcharts-point" data-z-index="3"></rect></g><g class="highcharts-legend-item highcharts-column-series highcharts-color-undefined highcharts-series-1" data-z-index="1" transform="translate(8,48)"><text x="21" y="15" style="color:#333333;font-size:12px;font-weight:normal;cursor:pointer;fill:#333333;" text-anchor="start" data-z-index="2"><tspan>Finanzertrag</tspan></text><rect x="2" y="4" width="12" height="12" fill="#083038" class="highcharts-point" data-z-index="3"></rect></g><g class="highcharts-legend-item highcharts-column-series highcharts-color-undefined highcharts-series-0" data-z-index="1" transform="translate(183,48)"><text x="21" y="15" style="color:#333333;font-size:12px;font-weight:normal;cursor:pointer;fill:#333333;" text-anchor="start" data-z-index="2"><tspan>Übriges</tspan></text><rect x="2" y="4" width="12" height="12" fill="#007A2F" class="highcharts-point" data-z-index="3"></rect></g><g class="highcharts-legend-item highcharts-scatter-series highcharts-color-undefined highcharts-series-6" data-z-index="1" transform="translate(8,63)"><path fill="none" d="M 0 11 L 16 11" class="highcharts-graph"></path><path fill="#B00000" d="M 12 11 A 4 4 0 1 1 11.999998000000167 10.996000000666664 Z" class="highcharts-point"></path><text x="21" y="15" style="color:#333333;font-size:12px;font-weight:normal;cursor:pointer;fill:#333333;" text-anchor="start" data-z-index="2"><tspan>Anteil NP (rechte Skala)</tspan></text></g><g class="highcharts-legend-item highcharts-scatter-series highcharts-color-undefined highcharts-series-7" data-z-index="1" transform="translate(183,63)"><path fill="none" d="M 0 11 L 16 11" class="highcharts-graph"></path><path fill="#662673" d="M 12 11 A 4 4 0 1 1 11.999998000000167 10.996000000666664 Z" class="highcharts-point"></path><text x="21" y="15" style="color:#333333;font-size:12px;font-weight:normal;cursor:pointer;fill:#333333;" text-anchor="start" data-z-index="2"><tspan>Anteil JP (rechte Skala)</tspan></text></g></g></g></g><g class="highcharts-axis-labels highcharts-xaxis-labels " data-z-index="7"><text x="111.2" style="color:#000000;cursor:default;font-size:11px;fill:#000000;" text-anchor="middle" transform="translate(0,0)" y="370" opacity="1">2007</text><text x="145.60000000000002" style="color:#000000;cursor:default;font-size:11px;fill:#000000;" text-anchor="middle" transform="translate(0,0)" y="370" opacity="1">2008</text><text x="180" style="color:#000000;cursor:default;font-size:11px;fill:#000000;" text-anchor="middle" transform="translate(0,0)" y="370" opacity="1">2009</text><text x="214.4" style="color:#000000;cursor:default;font-size:11px;fill:#000000;" text-anchor="middle" transform="translate(0,0)" y="370" opacity="1">2010</text><text x="248.8" style="color:#000000;cursor:default;font-size:11px;fill:#000000;" text-anchor="middle" transform="translate(0,0)" y="370" opacity="1">2011</text><text x="283.2" style="color:#000000;cursor:default;font-size:11px;fill:#000000;" text-anchor="middle" transform="translate(0,0)" y="370" opacity="1">2012</text><text x="317.6" style="color:#000000;cursor:default;font-size:11px;fill:#000000;" text-anchor="middle" transform="translate(0,0)" y="370" opacity="1">2013</text><text x="352" style="color:#000000;cursor:default;font-size:11px;fill:#000000;" text-anchor="middle" transform="translate(0,0)" y="370" opacity="1">2014</text><text x="386.40000000000003" style="color:#000000;cursor:default;font-size:11px;fill:#000000;" text-anchor="middle" transform="translate(0,0)" y="370" opacity="1">2015</text><text x="420.8" style="color:#000000;cursor:default;font-size:11px;fill:#000000;" text-anchor="middle" transform="translate(0,0)" y="370" opacity="1">2016</text></g><g class="highcharts-axis-labels highcharts-yaxis-labels " data-z-index="7"><text x="79" style="color:#000000;cursor:default;font-size:11px;fill:#000000;" text-anchor="end" transform="translate(0,0)" y="355" opacity="1">0</text><text x="79" style="color:#000000;cursor:default;font-size:11px;fill:#000000;" text-anchor="end" transform="translate(0,0)" y="289" opacity="1"><tspan>2 000 000 000</tspan></text><text x="79" style="color:#000000;cursor:default;font-size:11px;fill:#000000;" text-anchor="end" transform="translate(0,0)" y="224" opacity="1"><tspan>4 000 000 000</tspan></text><text x="79" style="color:#000000;cursor:default;font-size:11px;fill:#000000;" text-anchor="end" transform="translate(0,0)" y="158" opacity="1"><tspan>6 000 000 000</tspan></text></g><g class="highcharts-axis-labels highcharts-yaxis-labels " data-z-index="7"><text x="453" style="color:#000000;cursor:default;font-size:11px;fill:#000000;" text-anchor="start" transform="translate(0,0)" y="355" opacity="1">0%</text><text x="453" style="color:#000000;cursor:default;font-size:11px;fill:#000000;" text-anchor="start" transform="translate(0,0)" y="289" opacity="1">15%</text><text x="453" style="color:#000000;cursor:default;font-size:11px;fill:#000000;" text-anchor="start" transform="translate(0,0)" y="224" opacity="1">30%</text><text x="453" style="color:#000000;cursor:default;font-size:11px;fill:#000000;" text-anchor="start" transform="translate(0,0)" y="158" opacity="1">45%</text></g><text x="10" class="highcharts-credits" text-anchor="start" data-z-index="8" style="cursor:default;color:#000000;font-size:10px;fill:#000000;" y="403"><tspan>Quelle: Jahresbericht des Kantons Basel-Stadt.</tspan><tspan x="10" dy="13">Zuletzt geändert: 2019-6-3</tspan></text></svg>