<svg version="1.1" class="highcharts-root" style="font-family: Inter, &quot;Helvetica Neue&quot;, Helvetica, Arial, sans-serif; font-size: 1rem;" xmlns="http://www.w3.org/2000/svg" width="600" height="400" viewBox="0 0 600 400" role="img" aria-label="Gesamtertrag aus Einkommens- und Vermögenssteuer"><desc>Created with Highcharts 12.5.0</desc><defs><filter id="highcharts-drop-shadow-0"><feDropShadow dx="1" dy="1" flood-color="#000000" flood-opacity="0.75" stdDeviation="2.5"></feDropShadow></filter><clipPath id="highcharts-er9yfbq-34-"><rect x="0" y="0" width="397" height="141" fill="none"></rect></clipPath><clipPath id="highcharts-er9yfbq-77-"><rect x="0" y="0" width="397" height="141" fill="none"></rect></clipPath></defs><rect fill="#ffffff" class="highcharts-background" filter="none" x="0" y="0" width="600" height="400" rx="0" ry="0"></rect><rect fill="none" class="highcharts-plot-background" x="96" y="122" width="397" height="141" filter="none"></rect><g class="highcharts-pane-group" data-z-index="0"></g><g class="highcharts-grid highcharts-xaxis-grid" data-z-index="1"><path fill="none" stroke="#e6e6e6" stroke-width="0" stroke-dasharray="none" data-z-index="1" class="highcharts-grid-line" d="M 114.5 122 L 114.5 263" opacity="1"></path><path fill="none" stroke="#e6e6e6" stroke-width="0" stroke-dasharray="none" data-z-index="1" class="highcharts-grid-line" d="M 133.5 122 L 133.5 263" opacity="1"></path><path fill="none" stroke="#e6e6e6" stroke-width="0" stroke-dasharray="none" data-z-index="1" class="highcharts-grid-line" d="M 152.5 122 L 152.5 263" opacity="1"></path><path fill="none" stroke="#e6e6e6" stroke-width="0" stroke-dasharray="none" data-z-index="1" class="highcharts-grid-line" d="M 171.5 122 L 171.5 263" opacity="1"></path><path fill="none" stroke="#e6e6e6" stroke-width="0" stroke-dasharray="none" data-z-index="1" class="highcharts-grid-line" d="M 190.5 122 L 190.5 263" opacity="1"></path><path fill="none" stroke="#e6e6e6" stroke-width="0" stroke-dasharray="none" data-z-index="1" class="highcharts-grid-line" d="M 209.5 122 L 209.5 263" opacity="1"></path><path fill="none" stroke="#e6e6e6" stroke-width="0" stroke-dasharray="none" data-z-index="1" class="highcharts-grid-line" d="M 228.5 122 L 228.5 263" opacity="1"></path><path fill="none" stroke="#e6e6e6" stroke-width="0" stroke-dasharray="none" data-z-index="1" class="highcharts-grid-line" d="M 247.5 122 L 247.5 263" opacity="1"></path><path fill="none" stroke="#e6e6e6" stroke-width="0" stroke-dasharray="none" data-z-index="1" class="highcharts-grid-line" d="M 266.5 122 L 266.5 263" opacity="1"></path><path fill="none" stroke="#e6e6e6" stroke-width="0" stroke-dasharray="none" data-z-index="1" class="highcharts-grid-line" d="M 285.5 122 L 285.5 263" opacity="1"></path><path fill="none" stroke="#e6e6e6" stroke-width="0" stroke-dasharray="none" data-z-index="1" class="highcharts-grid-line" d="M 303.5 122 L 303.5 263" opacity="1"></path><path fill="none" stroke="#e6e6e6" stroke-width="0" stroke-dasharray="none" data-z-index="1" class="highcharts-grid-line" d="M 322.5 122 L 322.5 263" opacity="1"></path><path fill="none" stroke="#e6e6e6" stroke-width="0" stroke-dasharray="none" data-z-index="1" class="highcharts-grid-line" d="M 341.5 122 L 341.5 263" opacity="1"></path><path fill="none" stroke="#e6e6e6" stroke-width="0" stroke-dasharray="none" data-z-index="1" class="highcharts-grid-line" d="M 360.5 122 L 360.5 263" opacity="1"></path><path fill="none" stroke="#e6e6e6" stroke-width="0" stroke-dasharray="none" data-z-index="1" class="highcharts-grid-line" d="M 379.5 122 L 379.5 263" opacity="1"></path><path fill="none" stroke="#e6e6e6" stroke-width="0" stroke-dasharray="none" data-z-index="1" class="highcharts-grid-line" d="M 398.5 122 L 398.5 263" opacity="1"></path><path fill="none" stroke="#e6e6e6" stroke-width="0" stroke-dasharray="none" data-z-index="1" class="highcharts-grid-line" d="M 417.5 122 L 417.5 263" opacity="1"></path><path fill="none" stroke="#e6e6e6" stroke-width="0" stroke-dasharray="none" data-z-index="1" class="highcharts-grid-line" d="M 436.5 122 L 436.5 263" opacity="1"></path><path fill="none" stroke="#e6e6e6" stroke-width="0" stroke-dasharray="none" data-z-index="1" class="highcharts-grid-line" d="M 455.5 122 L 455.5 263" opacity="1"></path><path fill="none" stroke="#e6e6e6" stroke-width="0" stroke-dasharray="none" data-z-index="1" class="highcharts-grid-line" d="M 474.5 122 L 474.5 263" opacity="1"></path><path fill="none" stroke="#e6e6e6" stroke-width="0" stroke-dasharray="none" data-z-index="1" class="highcharts-grid-line" d="M 493.5 122 L 493.5 263" opacity="1"></path><path fill="none" stroke="#e6e6e6" stroke-width="0" stroke-dasharray="none" data-z-index="1" class="highcharts-grid-line" d="M 96.5 122 L 96.5 263" opacity="1"></path></g><g class="highcharts-grid highcharts-yaxis-grid" data-z-index="1"><path fill="none" stroke="#e6e6e6" stroke-width="1" stroke-dasharray="none" data-z-index="1" class="highcharts-grid-line" d="M 96 263.5 L 493 263.5" opacity="1"></path><path fill="none" stroke="#e6e6e6" stroke-width="1" stroke-dasharray="none" data-z-index="1" class="highcharts-grid-line" d="M 96 227.5 L 493 227.5" opacity="1"></path><path fill="none" stroke="#e6e6e6" stroke-width="1" stroke-dasharray="none" data-z-index="1" class="highcharts-grid-line" d="M 96 192.5 L 493 192.5" opacity="1"></path><path fill="none" stroke="#e6e6e6" stroke-width="1" stroke-dasharray="none" data-z-index="1" class="highcharts-grid-line" d="M 96 157.5 L 493 157.5" opacity="1"></path><path fill="none" stroke="#e6e6e6" stroke-width="1" stroke-dasharray="none" data-z-index="1" class="highcharts-grid-line" d="M 96 122.5 L 493 122.5" opacity="1"></path></g><g class="highcharts-grid highcharts-yaxis-grid" data-z-index="1"><path fill="none" stroke="#e6e6e6" stroke-width="1" stroke-dasharray="none" data-z-index="1" class="highcharts-grid-line" d="M 96 263.5 L 493 263.5" opacity="1"></path><path fill="none" stroke="#e6e6e6" stroke-width="1" stroke-dasharray="none" data-z-index="1" class="highcharts-grid-line" d="M 96 227.5 L 493 227.5" opacity="1"></path><path fill="none" stroke="#e6e6e6" stroke-width="1" stroke-dasharray="none" data-z-index="1" class="highcharts-grid-line" d="M 96 192.5 L 493 192.5" opacity="1"></path><path fill="none" stroke="#e6e6e6" stroke-width="1" stroke-dasharray="none" data-z-index="1" class="highcharts-grid-line" d="M 96 157.5 L 493 157.5" opacity="1"></path><path fill="none" stroke="#e6e6e6" stroke-width="1" stroke-dasharray="none" data-z-index="1" class="highcharts-grid-line" d="M 96 122.5 L 493 122.5" opacity="1"></path></g><rect fill="none" class="highcharts-plot-border" data-z-index="1" stroke="#cccccc" stroke-width="0" x="96" y="122" width="397" height="141"></rect><g class="highcharts-axis highcharts-xaxis" data-z-index="2"><path fill="none" class="highcharts-axis-line" stroke="#B9CFD7" stroke-width="0.5" data-z-index="7" d="M 96 263.25 L 493 263.25"></path></g><g class="highcharts-axis highcharts-yaxis" data-z-index="2"><path fill="none" class="highcharts-axis-line" stroke="#333333" stroke-width="0" data-z-index="7" d="M 96 122 L 96 263"></path></g><g class="highcharts-axis highcharts-yaxis" data-z-index="2"><path fill="none" class="highcharts-axis-line" stroke="#333333" stroke-width="0" data-z-index="7" d="M 493 122 L 493 263"></path></g><g class="highcharts-series-group" data-z-index="3" filter="none"><g class="highcharts-series highcharts-series-0 highcharts-column-series highcharts-tracker" data-z-index="0.1" opacity="1" transform="translate(96,122) scale(1 1)" clip-path="url(#highcharts-er9yfbq-34-)"><path fill="#FFDA80" d="M 6.5 125 L 6.5 125 A 2.5 2.5 0 0 1 9 127.5 L 9 141 A 0 0 0 0 1 9 141 L 4 141 A 0 0 0 0 1 4 141 L 4 127.5 A 2.5 2.5 0 0 1 6.5 125 Z" stroke="#ffffff" stroke-width="0" opacity="1" filter="none" class="highcharts-point"></path><path fill="#FFDA80" d="M 25.5 110 L 25.5 110 A 2.5 2.5 0 0 1 28 112.5 L 28 141 A 0 0 0 0 1 28 141 L 23 141 A 0 0 0 0 1 23 141 L 23 112.5 A 2.5 2.5 0 0 1 25.5 110 Z" stroke="#ffffff" stroke-width="0" opacity="1" filter="none" class="highcharts-point"></path><path fill="#FFDA80" d="M 44.5 100 L 44.5 100 A 2.5 2.5 0 0 1 47 102.5 L 47 141 A 0 0 0 0 1 47 141 L 42 141 A 0 0 0 0 1 42 141 L 42 102.5 A 2.5 2.5 0 0 1 44.5 100 Z" stroke="#ffffff" stroke-width="0" opacity="1" filter="none" class="highcharts-point"></path><path fill="#FFDA80" d="M 63 123 L 63 123 A 3 3 0 0 1 66 126 L 66 141 A 0 0 0 0 1 66 141 L 60 141 A 0 0 0 0 1 60 141 L 60 126 A 3 3 0 0 1 63 123 Z" stroke="#ffffff" stroke-width="0" opacity="1" filter="none" class="highcharts-point"></path><path fill="#FFDA80" d="M 82 85 L 82 85 A 3 3 0 0 1 85 88 L 85 141 A 0 0 0 0 1 85 141 L 79 141 A 0 0 0 0 1 79 141 L 79 88 A 3 3 0 0 1 82 85 Z" stroke="#ffffff" stroke-width="0" opacity="1" filter="none" class="highcharts-point"></path><path fill="#FFDA80" d="M 101 103 L 101 103 A 3 3 0 0 1 104 106 L 104 141 A 0 0 0 0 1 104 141 L 98 141 A 0 0 0 0 1 98 141 L 98 106 A 3 3 0 0 1 101 103 Z" stroke="#ffffff" stroke-width="0" opacity="1" filter="none" class="highcharts-point"></path><path fill="#FFDA80" d="M 120 55 L 120 55 A 3 3 0 0 1 123 58 L 123 141 A 0 0 0 0 1 123 141 L 117 141 A 0 0 0 0 1 117 141 L 117 58 A 3 3 0 0 1 120 55 Z" stroke="#ffffff" stroke-width="0" opacity="1" filter="none" class="highcharts-point"></path><path fill="#FFDA80" d="M 139 95 L 139 95 A 3 3 0 0 1 142 98 L 142 141 A 0 0 0 0 1 142 141 L 136 141 A 0 0 0 0 1 136 141 L 136 98 A 3 3 0 0 1 139 95 Z" stroke="#ffffff" stroke-width="0" opacity="1" filter="none" class="highcharts-point"></path><path fill="#FFDA80" d="M 158 119 L 158 119 A 3 3 0 0 1 161 122 L 161 141 A 0 0 0 0 1 161 141 L 155 141 A 0 0 0 0 1 155 141 L 155 122 A 3 3 0 0 1 158 119 Z" stroke="#ffffff" stroke-width="0" opacity="1" filter="none" class="highcharts-point"></path><path fill="#FFDA80" d="M 177 112 L 177 112 A 3 3 0 0 1 180 115 L 180 141 A 0 0 0 0 1 180 141 L 174 141 A 0 0 0 0 1 174 141 L 174 115 A 3 3 0 0 1 177 112 Z" stroke="#ffffff" stroke-width="0" opacity="1" filter="none" class="highcharts-point"></path><path fill="#FFDA80" d="M 196 109 L 196 109 A 3 3 0 0 1 199 112 L 199 141 A 0 0 0 0 1 199 141 L 193 141 A 0 0 0 0 1 193 141 L 193 112 A 3 3 0 0 1 196 109 Z" stroke="#ffffff" stroke-width="0" opacity="1" filter="none" class="highcharts-point"></path><path fill="#FFDA80" d="M 214.5 135 L 214.5 135 A 2.5 2.5 0 0 1 217 137.5 L 217 141 A 0 0 0 0 1 217 141 L 212 141 A 0 0 0 0 1 212 141 L 212 137.5 A 2.5 2.5 0 0 1 214.5 135 Z" stroke="#ffffff" stroke-width="0" opacity="1" filter="none" class="highcharts-point"></path><path fill="#FFDA80" d="M 233.5 133 L 233.5 133 A 2.5 2.5 0 0 1 236 135.5 L 236 141 A 0 0 0 0 1 236 141 L 231 141 A 0 0 0 0 1 231 141 L 231 135.5 A 2.5 2.5 0 0 1 233.5 133 Z" stroke="#ffffff" stroke-width="0" opacity="1" filter="none" class="highcharts-point"></path><path fill="#FFDA80" d="M 252.5 125 L 252.5 125 A 2.5 2.5 0 0 1 255 127.5 L 255 141 A 0 0 0 0 1 255 141 L 250 141 A 0 0 0 0 1 250 141 L 250 127.5 A 2.5 2.5 0 0 1 252.5 125 Z" stroke="#ffffff" stroke-width="0" opacity="1" filter="none" class="highcharts-point"></path><path fill="#FFDA80" d="M 271 123 L 271 123 A 3 3 0 0 1 274 126 L 274 141 A 0 0 0 0 1 274 141 L 268 141 A 0 0 0 0 1 268 141 L 268 126 A 3 3 0 0 1 271 123 Z" stroke="#ffffff" stroke-width="0" opacity="1" filter="none" class="highcharts-point"></path><path fill="#FFDA80" d="M 290 134 L 290 134 A 3 3 0 0 1 293 137 L 293 141 A 0 0 0 0 1 293 141 L 287 141 A 0 0 0 0 1 287 141 L 287 137 A 3 3 0 0 1 290 134 Z" stroke="#ffffff" stroke-width="0" opacity="1" filter="none" class="highcharts-point"></path><path fill="#FFDA80" d="M 309 114 L 309 114 A 3 3 0 0 1 312 117 L 312 141 A 0 0 0 0 1 312 141 L 306 141 A 0 0 0 0 1 306 141 L 306 117 A 3 3 0 0 1 309 114 Z" stroke="#ffffff" stroke-width="0" opacity="1" filter="none" class="highcharts-point"></path><path fill="#FFDA80" d="M 328 133 L 328 133 A 3 3 0 0 1 331 136 L 331 141 A 0 0 0 0 1 331 141 L 325 141 A 0 0 0 0 1 325 141 L 325 136 A 3 3 0 0 1 328 133 Z" stroke="#ffffff" stroke-width="0" opacity="1" filter="none" class="highcharts-point"></path><path fill="#FFDA80" d="M 347 137 L 347 137 A 3 3 0 0 1 350 140 L 350 141 A 0 0 0 0 1 350 141 L 344 141 A 0 0 0 0 1 344 141 L 344 140 A 3 3 0 0 1 347 137 Z" stroke="#ffffff" stroke-width="0" opacity="1" filter="none" class="highcharts-point"></path><path fill="#FFDA80" d="M 366 58 L 366 58 A 3 3 0 0 1 369 61 L 369 141 A 0 0 0 0 1 369 141 L 363 141 A 0 0 0 0 1 363 141 L 363 61 A 3 3 0 0 1 366 58 Z" stroke="#ffffff" stroke-width="0" opacity="1" filter="none" class="highcharts-point"></path><path fill="#FFDA80" d="M 385 136 L 385 136 A 3 3 0 0 1 388 139 L 388 141 A 0 0 0 0 1 388 141 L 382 141 A 0 0 0 0 1 382 141 L 382 139 A 3 3 0 0 1 385 136 Z" stroke="#ffffff" stroke-width="0" opacity="1" filter="none" class="highcharts-point"></path></g><g class="highcharts-markers highcharts-series-0 highcharts-column-series" data-z-index="0.1" opacity="1" transform="translate(96,122) scale(1 1)" clip-path="none"></g><g class="highcharts-series highcharts-series-1 highcharts-column-series highcharts-tracker" data-z-index="0.1" opacity="1" transform="translate(96,122) scale(1 1)" clip-path="url(#highcharts-er9yfbq-34-)"><path fill="#7F5F1A" d="M 12 121 L 12 121 A 3 3 0 0 1 15 124 L 15 141 A 0 0 0 0 1 15 141 L 9 141 A 0 0 0 0 1 9 141 L 9 124 A 3 3 0 0 1 12 121 Z" stroke="#ffffff" stroke-width="0" opacity="1" filter="none" class="highcharts-point"></path><path fill="#7F5F1A" d="M 31 73 L 31 73 A 3 3 0 0 1 34 76 L 34 141 A 0 0 0 0 1 34 141 L 28 141 A 0 0 0 0 1 28 141 L 28 76 A 3 3 0 0 1 31 73 Z" stroke="#ffffff" stroke-width="0" opacity="1" filter="none" class="highcharts-point"></path><path fill="#7F5F1A" d="M 50 98 L 50 98 A 3 3 0 0 1 53 101 L 53 141 A 0 0 0 0 1 53 141 L 47 141 A 0 0 0 0 1 47 141 L 47 101 A 3 3 0 0 1 50 98 Z" stroke="#ffffff" stroke-width="0" opacity="1" filter="none" class="highcharts-point"></path><path fill="#7F5F1A" d="M 69 120 L 69 120 A 3 3 0 0 1 72 123 L 72 141 A 0 0 0 0 1 72 141 L 66 141 A 0 0 0 0 1 66 141 L 66 123 A 3 3 0 0 1 69 120 Z" stroke="#ffffff" stroke-width="0" opacity="1" filter="none" class="highcharts-point"></path><path fill="#7F5F1A" d="M 88 71 L 88 71 A 3 3 0 0 1 91 74 L 91 141 A 0 0 0 0 1 91 141 L 85 141 A 0 0 0 0 1 85 141 L 85 74 A 3 3 0 0 1 88 71 Z" stroke="#ffffff" stroke-width="0" opacity="1" filter="none" class="highcharts-point"></path><path fill="#7F5F1A" d="M 107 94 L 107 94 A 3 3 0 0 1 110 97 L 110 141 A 0 0 0 0 1 110 141 L 104 141 A 0 0 0 0 1 104 141 L 104 97 A 3 3 0 0 1 107 94 Z" stroke="#ffffff" stroke-width="0" opacity="1" filter="none" class="highcharts-point"></path><path fill="#7F5F1A" d="M 126 66 L 126 66 A 3 3 0 0 1 129 69 L 129 141 A 0 0 0 0 1 129 141 L 123 141 A 0 0 0 0 1 123 141 L 123 69 A 3 3 0 0 1 126 66 Z" stroke="#ffffff" stroke-width="0" opacity="1" filter="none" class="highcharts-point"></path><path fill="#7F5F1A" d="M 144.5 85 L 144.5 85 A 2.5 2.5 0 0 1 147 87.5 L 147 141 A 0 0 0 0 1 147 141 L 142 141 A 0 0 0 0 1 142 141 L 142 87.5 A 2.5 2.5 0 0 1 144.5 85 Z" stroke="#ffffff" stroke-width="0" opacity="1" filter="none" class="highcharts-point"></path><path fill="#7F5F1A" d="M 163.5 114 L 163.5 114 A 2.5 2.5 0 0 1 166 116.5 L 166 141 A 0 0 0 0 1 166 141 L 161 141 A 0 0 0 0 1 161 141 L 161 116.5 A 2.5 2.5 0 0 1 163.5 114 Z" stroke="#ffffff" stroke-width="0" opacity="1" filter="none" class="highcharts-point"></path><path fill="#7F5F1A" d="M 182.5 110 L 182.5 110 A 2.5 2.5 0 0 1 185 112.5 L 185 141 A 0 0 0 0 1 185 141 L 180 141 A 0 0 0 0 1 180 141 L 180 112.5 A 2.5 2.5 0 0 1 182.5 110 Z" stroke="#ffffff" stroke-width="0" opacity="1" filter="none" class="highcharts-point"></path><path fill="#7F5F1A" d="M 201.5 101 L 201.5 101 A 2.5 2.5 0 0 1 204 103.5 L 204 141 A 0 0 0 0 1 204 141 L 199 141 A 0 0 0 0 1 199 141 L 199 103.5 A 2.5 2.5 0 0 1 201.5 101 Z" stroke="#ffffff" stroke-width="0" opacity="1" filter="none" class="highcharts-point"></path><path fill="#7F5F1A" d="M 220 133 L 220 133 A 3 3 0 0 1 223 136 L 223 141 A 0 0 0 0 1 223 141 L 217 141 A 0 0 0 0 1 217 141 L 217 136 A 3 3 0 0 1 220 133 Z" stroke="#ffffff" stroke-width="0" opacity="1" filter="none" class="highcharts-point"></path><path fill="#7F5F1A" d="M 239 131 L 239 131 A 3 3 0 0 1 242 134 L 242 141 A 0 0 0 0 1 242 141 L 236 141 A 0 0 0 0 1 236 141 L 236 134 A 3 3 0 0 1 239 131 Z" stroke="#ffffff" stroke-width="0" opacity="1" filter="none" class="highcharts-point"></path><path fill="#7F5F1A" d="M 258 117 L 258 117 A 3 3 0 0 1 261 120 L 261 141 A 0 0 0 0 1 261 141 L 255 141 A 0 0 0 0 1 255 141 L 255 120 A 3 3 0 0 1 258 117 Z" stroke="#ffffff" stroke-width="0" opacity="1" filter="none" class="highcharts-point"></path><path fill="#7F5F1A" d="M 277 120 L 277 120 A 3 3 0 0 1 280 123 L 280 141 A 0 0 0 0 1 280 141 L 274 141 A 0 0 0 0 1 274 141 L 274 123 A 3 3 0 0 1 277 120 Z" stroke="#ffffff" stroke-width="0" opacity="1" filter="none" class="highcharts-point"></path><path fill="#7F5F1A" d="M 296 125 L 296 125 A 3 3 0 0 1 299 128 L 299 141 A 0 0 0 0 1 299 141 L 293 141 A 0 0 0 0 1 293 141 L 293 128 A 3 3 0 0 1 296 125 Z" stroke="#ffffff" stroke-width="0" opacity="1" filter="none" class="highcharts-point"></path><path fill="#7F5F1A" d="M 315 110 L 315 110 A 3 3 0 0 1 318 113 L 318 141 A 0 0 0 0 1 318 141 L 312 141 A 0 0 0 0 1 312 141 L 312 113 A 3 3 0 0 1 315 110 Z" stroke="#ffffff" stroke-width="0" opacity="1" filter="none" class="highcharts-point"></path><path fill="#7F5F1A" d="M 334 133 L 334 133 A 3 3 0 0 1 337 136 L 337 141 A 0 0 0 0 1 337 141 L 331 141 A 0 0 0 0 1 331 141 L 331 136 A 3 3 0 0 1 334 133 Z" stroke="#ffffff" stroke-width="0" opacity="1" filter="none" class="highcharts-point"></path><path fill="#7F5F1A" d="M 352.5 138 L 352.5 138 A 2.5 2.5 0 0 1 355 140.5 L 355 141 A 0 0 0 0 1 355 141 L 350 141 A 0 0 0 0 1 350 141 L 350 140.5 A 2.5 2.5 0 0 1 352.5 138 Z" stroke="#ffffff" stroke-width="0" opacity="1" filter="none" class="highcharts-point"></path><path fill="#7F5F1A" d="M 371.5 36 L 371.5 36 A 2.5 2.5 0 0 1 374 38.5 L 374 141 A 0 0 0 0 1 374 141 L 369 141 A 0 0 0 0 1 369 141 L 369 38.5 A 2.5 2.5 0 0 1 371.5 36 Z" stroke="#ffffff" stroke-width="0" opacity="1" filter="none" class="highcharts-point"></path><path fill="#7F5F1A" d="M 390.5 128 L 390.5 128 A 2.5 2.5 0 0 1 393 130.5 L 393 141 A 0 0 0 0 1 393 141 L 388 141 A 0 0 0 0 1 388 141 L 388 130.5 A 2.5 2.5 0 0 1 390.5 128 Z" stroke="#ffffff" stroke-width="0" opacity="1" filter="none" class="highcharts-point"></path></g><g class="highcharts-markers highcharts-series-1 highcharts-column-series" data-z-index="0.1" opacity="1" transform="translate(96,122) scale(1 1)" clip-path="none"></g><g class="highcharts-series highcharts-series-2 highcharts-line-series" data-z-index="0.1" opacity="1" transform="translate(96,122) scale(1 1)" clip-path="url(#highcharts-er9yfbq-77-)"><path fill="none" d="M 9.452380952381 45.2023566195 L 28.357142857143 45.2023566195 L 47.261904761905 45.2023566195 L 66.166666666667 45.2023566195 L 85.071428571429 45.2023566195 L 103.97619047619 45.2023566195 L 122.88095238095 45.2023566195 L 141.78571428571 45.2023566195 L 160.69047619048 45.2023566195 L 179.59523809524 45.2023566195 L 198.5 45.2023566195 L 217.40476190476 45.2023566195 L 236.30952380952 45.2023566195 L 255.21428571429 45.2023566195 L 274.11904761905 45.2023566195 L 293.02380952381 45.2023566195 L 311.92857142857 45.2023566195 L 330.83333333333 45.2023566195 L 349.7380952381 45.2023566195 L 368.64285714286 45.2023566195 L 387.54761904762 45.2023566195" class="highcharts-graph" data-z-index="1" stroke="#C8C8C8" stroke-width="2" stroke-linejoin="round" stroke-linecap="round" filter="none"></path><path fill="none" d="M 9.452380952381 45.2023566195 L 28.357142857143 45.2023566195 L 47.261904761905 45.2023566195 L 66.166666666667 45.2023566195 L 85.071428571429 45.2023566195 L 103.97619047619 45.2023566195 L 122.88095238095 45.2023566195 L 141.78571428571 45.2023566195 L 160.69047619048 45.2023566195 L 179.59523809524 45.2023566195 L 198.5 45.2023566195 L 217.40476190476 45.2023566195 L 236.30952380952 45.2023566195 L 255.21428571429 45.2023566195 L 274.11904761905 45.2023566195 L 293.02380952381 45.2023566195 L 311.92857142857 45.2023566195 L 330.83333333333 45.2023566195 L 349.7380952381 45.2023566195 L 368.64285714286 45.2023566195 L 387.54761904762 45.2023566195" data-z-index="2" class="highcharts-tracker-line" stroke-linecap="round" stroke-linejoin="round" stroke="rgba(192,192,192,0.0001)" stroke-width="22"></path></g><g class="highcharts-markers highcharts-series-2 highcharts-line-series highcharts-tracker" data-z-index="0.1" opacity="1" transform="translate(96,122) scale(1 1)" clip-path="none"></g><g class="highcharts-series highcharts-series-3 highcharts-line-series" data-z-index="0.1" opacity="1" transform="translate(96,122) scale(1 1)" clip-path="url(#highcharts-er9yfbq-77-)"><path fill="none" d="M 9.452380952381 22.93705233 L 28.357142857143 22.93705233 L 47.261904761905 22.93705233 L 66.166666666667 22.93705233 L 85.071428571429 22.93705233 L 103.97619047619 22.93705233 L 122.88095238095 22.93705233 L 141.78571428571 22.93705233 L 160.69047619048 22.93705233 L 179.59523809524 22.93705233 L 198.5 22.93705233 L 217.40476190476 22.93705233 L 236.30952380952 22.93705233 L 255.21428571429 22.93705233 L 274.11904761905 22.93705233 L 293.02380952381 22.93705233 L 311.92857142857 22.93705233 L 330.83333333333 22.93705233 L 349.7380952381 22.93705233 L 368.64285714286 22.93705233 L 387.54761904762 22.93705233" class="highcharts-graph" data-z-index="1" stroke="#6F6F6F" stroke-width="2" stroke-linejoin="round" stroke-linecap="round" filter="none"></path><path fill="none" d="M 9.452380952381 22.93705233 L 28.357142857143 22.93705233 L 47.261904761905 22.93705233 L 66.166666666667 22.93705233 L 85.071428571429 22.93705233 L 103.97619047619 22.93705233 L 122.88095238095 22.93705233 L 141.78571428571 22.93705233 L 160.69047619048 22.93705233 L 179.59523809524 22.93705233 L 198.5 22.93705233 L 217.40476190476 22.93705233 L 236.30952380952 22.93705233 L 255.21428571429 22.93705233 L 274.11904761905 22.93705233 L 293.02380952381 22.93705233 L 311.92857142857 22.93705233 L 330.83333333333 22.93705233 L 349.7380952381 22.93705233 L 368.64285714286 22.93705233 L 387.54761904762 22.93705233" data-z-index="2" class="highcharts-tracker-line" stroke-linecap="round" stroke-linejoin="round" stroke="rgba(192,192,192,0.0001)" stroke-width="22"></path></g><g class="highcharts-markers highcharts-series-3 highcharts-line-series highcharts-tracker" data-z-index="0.1" opacity="1" transform="translate(96,122) scale(1 1)" clip-path="none"></g></g><text x="10" text-anchor="start" class="highcharts-caption" data-z-index="4" style="font-size: 0.8em; fill: rgb(102, 102, 102);" text-align="left" y="357" transform-origin="10 15" transform="translate(0,0) scale(1 1)"></text><g class="highcharts-axis-labels highcharts-xaxis-labels" data-z-index="7"><text x="108.28080807712523" text-anchor="end" transform="translate(0,0) rotate(-45 108.28080807712523 286)" style="cursor: default; font-size: 0.8em; fill: rgb(0, 0, 0);" y="286" opacity="1">Altstadt GB</text><text x="127.18556998188522" text-anchor="end" transform="translate(0,0) rotate(-45 127.18556998188522 286)" style="cursor: default; font-size: 0.8em; fill: rgb(0, 0, 0);" y="286" opacity="1">Vorstädte</text><text x="146.09033188665524" text-anchor="end" transform="translate(0,0) rotate(-45 146.09033188665524 286)" style="cursor: default; font-size: 0.8em; fill: rgb(0, 0, 0);" y="286" opacity="1">Am Ring</text><text x="164.99509379141523" text-anchor="end" transform="translate(0,0) rotate(-45 164.99509379141523 286)" style="cursor: default; font-size: 0.8em; fill: rgb(0, 0, 0);" y="286" opacity="1">Breite</text><text x="183.89985569617522" text-anchor="end" transform="translate(0,0) rotate(-45 183.89985569617522 286)" style="cursor: default; font-size: 0.8em; fill: rgb(0, 0, 0);" y="286" opacity="1">St. Alban</text><text x="202.80461760093522" text-anchor="end" transform="translate(0,0) rotate(-45 202.80461760093522 286)" style="cursor: default; font-size: 0.8em; fill: rgb(0, 0, 0);" y="286" opacity="1">Gundeldingen</text><text x="221.7093795056952" text-anchor="end" transform="translate(0,0) rotate(-45 221.7093795056952 286)" style="cursor: default; font-size: 0.8em; fill: rgb(0, 0, 0);" y="286" opacity="1">Bruderholz</text><text x="240.6141414104652" text-anchor="end" transform="translate(0,0) rotate(-45 240.6141414104652 286)" style="cursor: default; font-size: 0.8em; fill: rgb(0, 0, 0);" y="286" opacity="1">Bachletten</text><text x="259.51890331522526" text-anchor="end" transform="translate(0,0) rotate(-45 259.51890331522526 286)" style="cursor: default; font-size: 0.8em; fill: rgb(0, 0, 0);" y="286" opacity="1">Gotthelf</text><text x="278.42366521998525" text-anchor="end" transform="translate(0,0) rotate(-45 278.42366521998525 286)" style="cursor: default; font-size: 0.8em; fill: rgb(0, 0, 0);" y="286" opacity="1">Iselin</text><text x="297.32842712474525" text-anchor="end" transform="translate(0,0) rotate(-45 297.32842712474525 286)" style="cursor: default; font-size: 0.8em; fill: rgb(0, 0, 0);" y="286" opacity="1">St. Johann</text><text x="316.23318902950524" text-anchor="end" transform="translate(0,0) rotate(-45 316.23318902950524 286)" style="cursor: default; font-size: 0.8em; fill: rgb(0, 0, 0);" y="286" opacity="1">Altstadt KB</text><text x="335.13795093426523" text-anchor="end" transform="translate(0,0) rotate(-45 335.13795093426523 286)" style="cursor: default; font-size: 0.8em; fill: rgb(0, 0, 0);" y="286" opacity="1">Clara</text><text x="354.04271283903523" text-anchor="end" transform="translate(0,0) rotate(-45 354.04271283903523 286)" style="cursor: default; font-size: 0.8em; fill: rgb(0, 0, 0);" y="286" opacity="1">Wettstein</text><text x="372.9474747437952" text-anchor="end" transform="translate(0,0) rotate(-45 372.9474747437952 286)" style="cursor: default; font-size: 0.8em; fill: rgb(0, 0, 0);" y="286" opacity="1">Hirzbrunnen</text><text x="391.8522366485553" text-anchor="end" transform="translate(0,0) rotate(-45 391.8522366485553 286)" style="cursor: default; font-size: 0.8em; fill: rgb(0, 0, 0);" y="286" opacity="1">Rosental</text><text x="410.75699855331527" text-anchor="end" transform="translate(0,0) rotate(-45 410.75699855331527 286)" style="cursor: default; font-size: 0.8em; fill: rgb(0, 0, 0);" y="286" opacity="1">Matthäus</text><text x="429.66176045807526" text-anchor="end" transform="translate(0,0) rotate(-45 429.66176045807526 286)" style="cursor: default; font-size: 0.8em; fill: rgb(0, 0, 0);" y="286" opacity="1">Klybeck</text><text x="448.56652236284526" text-anchor="end" transform="translate(0,0) rotate(-45 448.56652236284526 286)" style="cursor: default; font-size: 0.8em; fill: rgb(0, 0, 0);" y="286" opacity="1">Kleinhüning.</text><text x="467.47128426760526" text-anchor="end" transform="translate(0,0) rotate(-45 467.47128426760526 286)" style="cursor: default; font-size: 0.8em; fill: rgb(0, 0, 0);" y="286" opacity="1">Riehen</text><text x="486.37604617236525" text-anchor="end" transform="translate(0,0) rotate(-45 486.37604617236525 286)" style="cursor: default; font-size: 0.8em; fill: rgb(0, 0, 0);" y="286" opacity="1">Bettingen</text></g><g class="highcharts-axis-labels highcharts-yaxis-labels" data-z-index="7"><text x="81" text-anchor="end" transform="translate(0,0)" style="cursor: default; font-size: 0.8em; fill: black;" y="268" opacity="1">0</text><text x="81" text-anchor="end" transform="translate(0,0)" style="cursor: default; font-size: 0.8em; fill: black;" y="232" opacity="1">80,000,000</text><text x="81" text-anchor="end" transform="translate(0,0)" style="cursor: default; font-size: 0.8em; fill: black;" y="197" opacity="1">160,000,000</text><text x="81" text-anchor="end" transform="translate(0,0)" style="cursor: default; font-size: 0.8em; fill: black;" y="162" opacity="1">240,000,000</text><text x="81" text-anchor="end" transform="translate(0,0)" style="cursor: default; font-size: 0.8em; fill: black;" y="127" opacity="1">320,000,000</text></g><g class="highcharts-axis-labels highcharts-yaxis-labels" data-z-index="7"><text x="508" text-anchor="start" transform="translate(0,0)" style="cursor: default; font-size: 0.8em; fill: black;" y="268" opacity="1">0</text><text x="508" text-anchor="start" transform="translate(0,0)" style="cursor: default; font-size: 0.8em; fill: black;" y="232" opacity="1">500,000,000</text><text x="508" text-anchor="start" transform="translate(0,0)" style="cursor: default; font-size: 0.8em; fill: black;" y="197" opacity="1">1,000,000,000</text><text x="508" text-anchor="start" transform="translate(0,0)" style="cursor: default; font-size: 0.8em; fill: black;" y="162" opacity="1">1,500,000,000</text><text x="508" text-anchor="start" transform="translate(0,0)" style="cursor: default; font-size: 0.8em; fill: black;" y="127" opacity="1">2,000,000,000</text></g><g class="highcharts-legend highcharts-no-tooltip" data-z-index="7" text-align="left" transform="translate(88,55)"><rect fill="none" class="highcharts-legend-box" rx="0" ry="0" stroke="#999999" stroke-width="0" filter="none" x="0" y="0" width="416" height="55"></rect><g data-z-index="1"><g><g class="highcharts-legend-item highcharts-column-series highcharts-color-undefined highcharts-series-0" data-z-index="1" transform="translate(8,3)"><text x="21" text-anchor="start" data-z-index="2" style="cursor: pointer; font-size: 0.8em; text-decoration: none; font-weight: normal; fill: rgb(51, 51, 51);" y="17">Ertrag 2013</text><rect x="2" y="6" rx="0" ry="0" width="12" height="12" fill="#FFDA80" class="highcharts-point" data-z-index="3"></rect></g><g class="highcharts-legend-item highcharts-line-series highcharts-color-undefined highcharts-series-2" data-z-index="1" transform="translate(148,3)"><path fill="none" class="highcharts-graph" stroke-width="2" stroke-linecap="round" d="M 1 13 L 15 13" stroke="#C8C8C8"></path><text x="21" y="17" text-anchor="start" data-z-index="2" style="cursor: pointer; font-size: 0.8em; text-decoration: none; font-weight: normal; fill: rgb(51, 51, 51);">Ertrag Kt. BS 2013 (rechte Skala)</text></g><g class="highcharts-legend-item highcharts-column-series highcharts-color-undefined highcharts-series-1" data-z-index="1" transform="translate(288,3)"><text x="21" y="17" text-anchor="start" data-z-index="2" style="cursor: pointer; font-size: 0.8em; text-decoration: none; font-weight: normal; fill: rgb(51, 51, 51);">Ertrag 2022</text><rect x="2" y="6" rx="0" ry="0" width="12" height="12" fill="#7F5F1A" class="highcharts-point" data-z-index="3"></rect></g><g class="highcharts-legend-item highcharts-line-series highcharts-color-undefined highcharts-series-3" data-z-index="1" transform="translate(8,25)"><path fill="none" class="highcharts-graph" stroke-width="2" stroke-linecap="round" d="M 1 13 L 15 13" stroke="#6F6F6F"></path><text x="21" y="17" text-anchor="start" data-z-index="2" style="cursor: pointer; font-size: 0.8em; text-decoration: none; font-weight: normal; fill: rgb(51, 51, 51);">Ertrag Kt. BS 2022 (rechte Skala)</text></g></g></g></g></svg>