<svg version="1.1" class="highcharts-root" style="font-family: Inter, &quot;Helvetica Neue&quot;, Helvetica, Arial, sans-serif; font-size: 1rem;" xmlns="http://www.w3.org/2000/svg" width="600" height="400" viewBox="0 0 600 400" role="img" aria-label="Alterspyramide nach Geschlecht und Staatsangehörigkeit"><desc>Created with Highcharts 12.5.0</desc><defs><filter id="highcharts-drop-shadow-0"><feDropShadow dx="1" dy="1" flood-color="#000000" flood-opacity="0.75" stdDeviation="2.5"></feDropShadow></filter><clipPath id="highcharts-x47k5pj-37-"><rect x="0" y="0" width="233" height="525" fill="none"></rect></clipPath><filter id="highcharts-drop-shadow-0-offsetx--1-offsety--1"><feDropShadow dx="-1" dy="-1" flood-color="#000000" flood-opacity="0.75" stdDeviation="2.5"></feDropShadow></filter></defs><rect fill="#ffffff" class="highcharts-background" filter="none" x="0" y="0" width="600" height="400" rx="0" ry="0"></rect><rect fill="none" class="highcharts-plot-background" x="59" y="97" width="526" height="233" filter="none"></rect><g class="highcharts-pane-group" data-z-index="0"></g><g class="highcharts-grid highcharts-yaxis-grid" data-z-index="1"><path fill="none" stroke="#e6e6e6" stroke-width="1" stroke-dasharray="none" data-z-index="1" class="highcharts-grid-line" d="M 59.5 97 L 59.5 330" opacity="1"></path><path fill="none" stroke="#e6e6e6" stroke-width="1" stroke-dasharray="none" data-z-index="1" class="highcharts-grid-line" d="M 96.5 97 L 96.5 330" opacity="1"></path><path fill="none" stroke="#e6e6e6" stroke-width="1" stroke-dasharray="none" data-z-index="1" class="highcharts-grid-line" d="M 134.5 97 L 134.5 330" opacity="1"></path><path fill="none" stroke="#e6e6e6" stroke-width="1" stroke-dasharray="none" data-z-index="1" class="highcharts-grid-line" d="M 171.5 97 L 171.5 330" opacity="1"></path><path fill="none" stroke="#e6e6e6" stroke-width="1" stroke-dasharray="none" data-z-index="1" class="highcharts-grid-line" d="M 209.5 97 L 209.5 330" opacity="1"></path><path fill="none" stroke="#e6e6e6" stroke-width="1" stroke-dasharray="none" data-z-index="1" class="highcharts-grid-line" d="M 246.5 97 L 246.5 330" opacity="1"></path><path fill="none" stroke="#e6e6e6" stroke-width="1" stroke-dasharray="none" data-z-index="1" class="highcharts-grid-line" d="M 284.5 97 L 284.5 330" opacity="1"></path><path fill="none" stroke="#e6e6e6" stroke-width="1" stroke-dasharray="none" data-z-index="1" class="highcharts-grid-line" d="M 322.5 97 L 322.5 330" opacity="1"></path><path fill="none" stroke="#e6e6e6" stroke-width="1" stroke-dasharray="none" data-z-index="1" class="highcharts-grid-line" d="M 359.5 97 L 359.5 330" opacity="1"></path><path fill="none" stroke="#e6e6e6" stroke-width="1" stroke-dasharray="none" data-z-index="1" class="highcharts-grid-line" d="M 397.5 97 L 397.5 330" opacity="1"></path><path fill="none" stroke="#e6e6e6" stroke-width="1" stroke-dasharray="none" data-z-index="1" class="highcharts-grid-line" d="M 434.5 97 L 434.5 330" opacity="1"></path><path fill="none" stroke="#e6e6e6" stroke-width="1" stroke-dasharray="none" data-z-index="1" class="highcharts-grid-line" d="M 472.5 97 L 472.5 330" opacity="1"></path><path fill="none" stroke="#e6e6e6" stroke-width="1" stroke-dasharray="none" data-z-index="1" class="highcharts-grid-line" d="M 509.5 97 L 509.5 330" opacity="1"></path><path fill="none" stroke="#e6e6e6" stroke-width="1" stroke-dasharray="none" data-z-index="1" class="highcharts-grid-line" d="M 547.5 97 L 547.5 330" opacity="1"></path><path fill="none" stroke="#e6e6e6" stroke-width="1" stroke-dasharray="none" data-z-index="1" class="highcharts-grid-line" d="M 585.5 97 L 585.5 330" opacity="1"></path></g><g class="highcharts-grid highcharts-xaxis-grid" data-z-index="1"><path fill="none" stroke="#e6e6e6" stroke-width="0" stroke-dasharray="none" data-z-index="1" class="highcharts-grid-line" d="M 59 318.5 L 585 318.5" opacity="1"></path><path fill="none" stroke="#e6e6e6" stroke-width="0" stroke-dasharray="none" data-z-index="1" class="highcharts-grid-line" d="M 59 307.5 L 585 307.5" opacity="1"></path><path fill="none" stroke="#e6e6e6" stroke-width="0" stroke-dasharray="none" data-z-index="1" class="highcharts-grid-line" d="M 59 296.5 L 585 296.5" opacity="1"></path><path fill="none" stroke="#e6e6e6" stroke-width="0" stroke-dasharray="none" data-z-index="1" class="highcharts-grid-line" d="M 59 285.5 L 585 285.5" opacity="1"></path><path fill="none" stroke="#e6e6e6" stroke-width="0" stroke-dasharray="none" data-z-index="1" class="highcharts-grid-line" d="M 59 274.5 L 585 274.5" opacity="1"></path><path fill="none" stroke="#e6e6e6" stroke-width="0" stroke-dasharray="none" data-z-index="1" class="highcharts-grid-line" d="M 59 263.5 L 585 263.5" opacity="1"></path><path fill="none" stroke="#e6e6e6" stroke-width="0" stroke-dasharray="none" data-z-index="1" class="highcharts-grid-line" d="M 59 252.5 L 585 252.5" opacity="1"></path><path fill="none" stroke="#e6e6e6" stroke-width="0" stroke-dasharray="none" data-z-index="1" class="highcharts-grid-line" d="M 59 241.5 L 585 241.5" opacity="1"></path><path fill="none" stroke="#e6e6e6" stroke-width="0" stroke-dasharray="none" data-z-index="1" class="highcharts-grid-line" d="M 59 230.5 L 585 230.5" opacity="1"></path><path fill="none" stroke="#e6e6e6" stroke-width="0" stroke-dasharray="none" data-z-index="1" class="highcharts-grid-line" d="M 59 219.5 L 585 219.5" opacity="1"></path><path fill="none" stroke="#e6e6e6" stroke-width="0" stroke-dasharray="none" data-z-index="1" class="highcharts-grid-line" d="M 59 207.5 L 585 207.5" opacity="1"></path><path fill="none" stroke="#e6e6e6" stroke-width="0" stroke-dasharray="none" data-z-index="1" class="highcharts-grid-line" d="M 59 196.5 L 585 196.5" opacity="1"></path><path fill="none" stroke="#e6e6e6" stroke-width="0" stroke-dasharray="none" data-z-index="1" class="highcharts-grid-line" d="M 59 185.5 L 585 185.5" opacity="1"></path><path fill="none" stroke="#e6e6e6" stroke-width="0" stroke-dasharray="none" data-z-index="1" class="highcharts-grid-line" d="M 59 174.5 L 585 174.5" opacity="1"></path><path fill="none" stroke="#e6e6e6" stroke-width="0" stroke-dasharray="none" data-z-index="1" class="highcharts-grid-line" d="M 59 163.5 L 585 163.5" opacity="1"></path><path fill="none" stroke="#e6e6e6" stroke-width="0" stroke-dasharray="none" data-z-index="1" class="highcharts-grid-line" d="M 59 152.5 L 585 152.5" opacity="1"></path><path fill="none" stroke="#e6e6e6" stroke-width="0" stroke-dasharray="none" data-z-index="1" class="highcharts-grid-line" d="M 59 141.5 L 585 141.5" opacity="1"></path><path fill="none" stroke="#e6e6e6" stroke-width="0" stroke-dasharray="none" data-z-index="1" class="highcharts-grid-line" d="M 59 130.5 L 585 130.5" opacity="1"></path><path fill="none" stroke="#e6e6e6" stroke-width="0" stroke-dasharray="none" data-z-index="1" class="highcharts-grid-line" d="M 59 119.5 L 585 119.5" opacity="1"></path><path fill="none" stroke="#e6e6e6" stroke-width="0" stroke-dasharray="none" data-z-index="1" class="highcharts-grid-line" d="M 59 108.5 L 585 108.5" opacity="1"></path><path fill="none" stroke="#e6e6e6" stroke-width="0" stroke-dasharray="none" data-z-index="1" class="highcharts-grid-line" d="M 59 97.5 L 585 97.5" opacity="1"></path><path fill="none" stroke="#e6e6e6" stroke-width="0" stroke-dasharray="none" data-z-index="1" class="highcharts-grid-line" d="M 59 330.5 L 585 330.5" opacity="1"></path></g><rect fill="none" class="highcharts-plot-border" data-z-index="1" stroke="#cccccc" stroke-width="0" x="59" y="97" width="526" height="233"></rect><g class="highcharts-axis highcharts-yaxis" data-z-index="2"><path fill="none" class="highcharts-axis-line" stroke="#333333" stroke-width="0" data-z-index="7" d="M 59 330 L 585 330"></path></g><g class="highcharts-axis highcharts-xaxis" data-z-index="2"><path fill="none" class="highcharts-axis-line" stroke="#333333" stroke-width="1" data-z-index="7" d="M 59.5 97 L 59.5 330"></path></g><g class="highcharts-series-group" data-z-index="3" filter="none"><g class="highcharts-series highcharts-series-0 highcharts-bar-series highcharts-tracker" data-z-index="0.1" opacity="1" transform="translate(59,97) rotate(90 146.5 379.5) scale(-1 1)" clip-path="url(#highcharts-x47k5pj-37-)"><path fill="#d00000" d="M 3 432 L 8 432 A 3 3 0 0 1 11 435 L 11 459 A 0 0 0 0 1 11 459 L 0 459 A 0 0 0 0 1 0 459 L 0 435 A 3 3 0 0 1 3 432 Z" stroke="#ffffff" stroke-width="0" opacity="1" filter="none" class="highcharts-point"></path><path fill="#d00000" d="M 14 427 L 19 427 A 3 3 0 0 1 22 430 L 22 454 A 0 0 0 0 1 22 454 L 11 454 A 0 0 0 0 1 11 454 L 11 430 A 3 3 0 0 1 14 427 Z" stroke="#ffffff" stroke-width="0" opacity="1" filter="none" class="highcharts-point"></path><path fill="#d00000" d="M 25 429 L 30 429 A 3 3 0 0 1 33 432 L 33 458 A 0 0 0 0 1 33 458 L 22 458 A 0 0 0 0 1 22 458 L 22 432 A 3 3 0 0 1 25 429 Z" stroke="#ffffff" stroke-width="0" opacity="1" filter="none" class="highcharts-point"></path><path fill="#d00000" d="M 36 447 L 41 447 A 3 3 0 0 1 44 450 L 44 467 A 0 0 0 0 1 44 467 L 33 467 A 0 0 0 0 1 33 467 L 33 450 A 3 3 0 0 1 36 447 Z" stroke="#ffffff" stroke-width="0" opacity="1" filter="none" class="highcharts-point"></path><path fill="#d00000" d="M 47 452 L 52 452 A 3 3 0 0 1 55 455 L 55 470 A 0 0 0 0 1 55 470 L 44 470 A 0 0 0 0 1 44 470 L 44 455 A 3 3 0 0 1 47 452 Z" stroke="#ffffff" stroke-width="0" opacity="1" filter="none" class="highcharts-point"></path><path fill="#d00000" d="M 58 413 L 64 413 A 3 3 0 0 1 67 416 L 67 454 A 0 0 0 0 1 67 454 L 55 454 A 0 0 0 0 1 55 454 L 55 416 A 3 3 0 0 1 58 413 Z" stroke="#ffffff" stroke-width="0" opacity="1" filter="none" class="highcharts-point"></path><path fill="#d00000" d="M 70 394 L 75 394 A 3 3 0 0 1 78 397 L 78 451 A 0 0 0 0 1 78 451 L 67 451 A 0 0 0 0 1 67 451 L 67 397 A 3 3 0 0 1 70 394 Z" stroke="#ffffff" stroke-width="0" opacity="1" filter="none" class="highcharts-point"></path><path fill="#d00000" d="M 81 384 L 86 384 A 3 3 0 0 1 89 387 L 89 443 A 0 0 0 0 1 89 443 L 78 443 A 0 0 0 0 1 78 443 L 78 387 A 3 3 0 0 1 81 384 Z" stroke="#ffffff" stroke-width="0" opacity="1" filter="none" class="highcharts-point"></path><path fill="#d00000" d="M 92 366 L 97 366 A 3 3 0 0 1 100 369 L 100 431 A 0 0 0 0 1 100 431 L 89 431 A 0 0 0 0 1 89 431 L 89 369 A 3 3 0 0 1 92 366 Z" stroke="#ffffff" stroke-width="0" opacity="1" filter="none" class="highcharts-point"></path><path fill="#d00000" d="M 103 404 L 108 404 A 3 3 0 0 1 111 407 L 111 447 A 0 0 0 0 1 111 447 L 100 447 A 0 0 0 0 1 100 447 L 100 407 A 3 3 0 0 1 103 404 Z" stroke="#ffffff" stroke-width="0" opacity="1" filter="none" class="highcharts-point"></path><path fill="#d00000" d="M 114 416 L 119 416 A 3 3 0 0 1 122 419 L 122 448 A 0 0 0 0 1 122 448 L 111 448 A 0 0 0 0 1 111 448 L 111 419 A 3 3 0 0 1 114 416 Z" stroke="#ffffff" stroke-width="0" opacity="1" filter="none" class="highcharts-point"></path><path fill="#d00000" d="M 125 410 L 130 410 A 3 3 0 0 1 133 413 L 133 441 A 0 0 0 0 1 133 441 L 122 441 A 0 0 0 0 1 122 441 L 122 413 A 3 3 0 0 1 125 410 Z" stroke="#ffffff" stroke-width="0" opacity="1" filter="none" class="highcharts-point"></path><path fill="#d00000" d="M 136 407 L 141 407 A 3 3 0 0 1 144 410 L 144 426 A 0 0 0 0 1 144 426 L 133 426 A 0 0 0 0 1 133 426 L 133 410 A 3 3 0 0 1 136 407 Z" stroke="#ffffff" stroke-width="0" opacity="1" filter="none" class="highcharts-point"></path><path fill="#d00000" d="M 147 418 L 152 418 A 3 3 0 0 1 155 421 L 155 434 A 0 0 0 0 1 155 434 L 144 434 A 0 0 0 0 1 144 434 L 144 421 A 3 3 0 0 1 147 418 Z" stroke="#ffffff" stroke-width="0" opacity="1" filter="none" class="highcharts-point"></path><path fill="#d00000" d="M 158 420 L 163 420 A 3 3 0 0 1 166 423 L 166 435 A 0 0 0 0 1 166 435 L 155 435 A 0 0 0 0 1 155 435 L 155 423 A 3 3 0 0 1 158 420 Z" stroke="#ffffff" stroke-width="0" opacity="1" filter="none" class="highcharts-point"></path><path fill="#d00000" d="M 169 427 L 175 427 A 3 3 0 0 1 178 430 L 178 435 A 0 0 0 0 1 178 435 L 166 435 A 0 0 0 0 1 166 435 L 166 430 A 3 3 0 0 1 169 427 Z" stroke="#ffffff" stroke-width="0" opacity="1" filter="none" class="highcharts-point"></path><path fill="#d00000" d="M 181 448 L 186 448 A 3 3 0 0 1 189 451 L 189 455 A 0 0 0 0 1 189 455 L 178 455 A 0 0 0 0 1 178 455 L 178 451 A 3 3 0 0 1 181 448 Z" stroke="#ffffff" stroke-width="0" opacity="1" filter="none" class="highcharts-point"></path><path fill="#d00000" d="M 192 472 L 197 472 A 3 3 0 0 1 200 475 L 200 480 A 0 0 0 0 1 200 480 L 189 480 A 0 0 0 0 1 189 480 L 189 475 A 3 3 0 0 1 192 472 Z" stroke="#ffffff" stroke-width="0" opacity="1" filter="none" class="highcharts-point"></path><path fill="#d00000" d="M 203 497 L 208 497 A 3 3 0 0 1 210.2360679774998 498 L 210.2360679774998 498 A 0 0 0 0 1 210.2360679774998 498 L 210.2360679774998 498 A 0 0 0 0 1 200.7639320225002 498 L 200.7639320225002 498 A 3 3 0 0 1 203 497 Z" stroke="#ffffff" stroke-width="0" opacity="1" filter="none" class="highcharts-point"></path><path fill="#d00000" d="M 214 519 L 219 519 A 3 3 0 0 1 221.82842712474618 521 L 221.82842712474618 521 A 0 0 0 0 1 221.82842712474618 521 L 221.82842712474618 521 A 0 0 0 0 1 211.17157287525382 521 L 211.17157287525382 521 A 3 3 0 0 1 214 519 Z" stroke="#ffffff" stroke-width="0" opacity="1" filter="none" class="highcharts-point"></path><path fill="#d00000" d="M 225 525 L 230 525 A 3 3 0 0 1 232.2360679774998 526 L 232.2360679774998 526 A 0 0 0 0 1 232.2360679774998 526 L 232.2360679774998 526 A 0 0 0 0 1 222.7639320225002 526 L 222.7639320225002 526 A 3 3 0 0 1 225 525 Z" stroke="#ffffff" stroke-width="0" opacity="1" filter="none" class="highcharts-point"></path></g><g class="highcharts-markers highcharts-series-0 highcharts-bar-series" data-z-index="0.1" opacity="1" transform="translate(59,97) scale(1 1)" clip-path="none"></g><g class="highcharts-series highcharts-series-1 highcharts-bar-series highcharts-tracker" data-z-index="0.1" opacity="1" transform="translate(59,97) rotate(90 146.5 379.5) scale(-1 1)" clip-path="url(#highcharts-x47k5pj-37-)"><path fill="#00bAf3" d="M 0 594 L 11 594 A 0 0 0 0 1 11 594 L 11 618 A 3 3 0 0 1 8 621 L 3 621 A 3 3 0 0 1 0 618 L 0 594 A 0 0 0 0 1 0 594 Z" stroke="#ffffff" stroke-width="0" opacity="1" filter="none" class="highcharts-point highcharts-negative"></path><path fill="#00bAf3" d="M 11 604 L 22 604 A 0 0 0 0 1 22 604 L 22 627 A 3 3 0 0 1 19 630 L 14 630 A 3 3 0 0 1 11 627 L 11 604 A 0 0 0 0 1 11 604 Z" stroke="#ffffff" stroke-width="0" opacity="1" filter="none" class="highcharts-point highcharts-negative"></path><path fill="#00bAf3" d="M 22 607 L 33 607 A 0 0 0 0 1 33 607 L 33 634 A 3 3 0 0 1 30 637 L 25 637 A 3 3 0 0 1 22 634 L 22 607 A 0 0 0 0 1 22 607 Z" stroke="#ffffff" stroke-width="0" opacity="1" filter="none" class="highcharts-point highcharts-negative"></path><path fill="#00bAf3" d="M 33 605 L 44 605 A 0 0 0 0 1 44 605 L 44 634 A 3 3 0 0 1 41 637 L 36 637 A 3 3 0 0 1 33 634 L 33 605 A 0 0 0 0 1 33 605 Z" stroke="#ffffff" stroke-width="0" opacity="1" filter="none" class="highcharts-point highcharts-negative"></path><path fill="#00bAf3" d="M 44 595 L 55 595 A 0 0 0 0 1 55 595 L 55 608 A 3 3 0 0 1 52 611 L 47 611 A 3 3 0 0 1 44 608 L 44 595 A 0 0 0 0 1 44 595 Z" stroke="#ffffff" stroke-width="0" opacity="1" filter="none" class="highcharts-point highcharts-negative"></path><path fill="#00bAf3" d="M 55 603 L 67 603 A 0 0 0 0 1 67 603 L 67 630 A 3 3 0 0 1 64 633 L 58 633 A 3 3 0 0 1 55 630 L 55 603 A 0 0 0 0 1 55 603 Z" stroke="#ffffff" stroke-width="0" opacity="1" filter="none" class="highcharts-point highcharts-negative"></path><path fill="#00bAf3" d="M 67 600 L 78 600 A 0 0 0 0 1 78 600 L 78 655 A 3 3 0 0 1 75 658 L 70 658 A 3 3 0 0 1 67 655 L 67 600 A 0 0 0 0 1 67 600 Z" stroke="#ffffff" stroke-width="0" opacity="1" filter="none" class="highcharts-point highcharts-negative"></path><path fill="#00bAf3" d="M 78 603 L 89 603 A 0 0 0 0 1 89 603 L 89 667 A 3 3 0 0 1 86 670 L 81 670 A 3 3 0 0 1 78 667 L 78 603 A 0 0 0 0 1 78 603 Z" stroke="#ffffff" stroke-width="0" opacity="1" filter="none" class="highcharts-point highcharts-negative"></path><path fill="#00bAf3" d="M 89 613 L 100 613 A 0 0 0 0 1 100 613 L 100 665 A 3 3 0 0 1 97 668 L 92 668 A 3 3 0 0 1 89 665 L 89 613 A 0 0 0 0 1 89 613 Z" stroke="#ffffff" stroke-width="0" opacity="1" filter="none" class="highcharts-point highcharts-negative"></path><path fill="#00bAf3" d="M 100 596 L 111 596 A 0 0 0 0 1 111 596 L 111 649 A 3 3 0 0 1 108 652 L 103 652 A 3 3 0 0 1 100 649 L 100 596 A 0 0 0 0 1 100 596 Z" stroke="#ffffff" stroke-width="0" opacity="1" filter="none" class="highcharts-point highcharts-negative"></path><path fill="#00bAf3" d="M 111 601 L 122 601 A 0 0 0 0 1 122 601 L 122 627 A 3 3 0 0 1 119 630 L 114 630 A 3 3 0 0 1 111 627 L 111 601 A 0 0 0 0 1 111 601 Z" stroke="#ffffff" stroke-width="0" opacity="1" filter="none" class="highcharts-point highcharts-negative"></path><path fill="#00bAf3" d="M 122 596 L 133 596 A 0 0 0 0 1 133 596 L 133 624 A 3 3 0 0 1 130 627 L 125 627 A 3 3 0 0 1 122 624 L 122 596 A 0 0 0 0 1 122 596 Z" stroke="#ffffff" stroke-width="0" opacity="1" filter="none" class="highcharts-point highcharts-negative"></path><path fill="#00bAf3" d="M 133 603 L 144 603 A 0 0 0 0 1 144 603 L 144 622 A 3 3 0 0 1 141 625 L 136 625 A 3 3 0 0 1 133 622 L 133 603 A 0 0 0 0 1 133 603 Z" stroke="#ffffff" stroke-width="0" opacity="1" filter="none" class="highcharts-point highcharts-negative"></path><path fill="#00bAf3" d="M 144 601 L 155 601 A 0 0 0 0 1 155 601 L 155 614 A 3 3 0 0 1 152 617 L 147 617 A 3 3 0 0 1 144 614 L 144 601 A 0 0 0 0 1 144 601 Z" stroke="#ffffff" stroke-width="0" opacity="1" filter="none" class="highcharts-point highcharts-negative"></path><path fill="#00bAf3" d="M 155 593 L 166 593 A 0 0 0 0 1 166 593 L 166 603 A 3 3 0 0 1 163 606 L 158 606 A 3 3 0 0 1 155 603 L 155 593 A 0 0 0 0 1 155 593 Z" stroke="#ffffff" stroke-width="0" opacity="1" filter="none" class="highcharts-point highcharts-negative"></path><path fill="#00bAf3" d="M 166 594 L 178 594 A 0 0 0 0 1 178 594 L 178 600 A 3 3 0 0 1 175 603 L 169 603 A 3 3 0 0 1 166 600 L 166 594 A 0 0 0 0 1 166 594 Z" stroke="#ffffff" stroke-width="0" opacity="1" filter="none" class="highcharts-point highcharts-negative"></path><path fill="#00bAf3" d="M 178 573 L 189 573 A 0 0 0 0 1 189 573 L 189 578 A 3 3 0 0 1 186 581 L 181 581 A 3 3 0 0 1 178 578 L 178 573 A 0 0 0 0 1 178 573 Z" stroke="#ffffff" stroke-width="0" opacity="1" filter="none" class="highcharts-point highcharts-negative"></path><path fill="#00bAf3" d="M 189 559 L 200 559 A 0 0 0 0 1 200 559 L 200 562 A 3 3 0 0 1 197 565 L 192 565 A 3 3 0 0 1 189 562 L 189 559 A 0 0 0 0 1 189 559 Z" stroke="#ffffff" stroke-width="0" opacity="1" filter="none" class="highcharts-point highcharts-negative"></path><path fill="#00bAf3" d="M 203 526 L 208 526 A 3 3 0 0 1 208 526 L 208 526 A 0 0 0 0 1 208 526 L 208 526 A 0 0 0 0 1 203 526 L 203 526 A 3 3 0 0 1 203 526 Z" stroke="#ffffff" stroke-width="0" opacity="1" filter="none" class="highcharts-point"></path><path fill="#00bAf3" d="M 214 526 L 219 526 A 3 3 0 0 1 219 526 L 219 526 A 0 0 0 0 1 219 526 L 219 526 A 0 0 0 0 1 214 526 L 214 526 A 3 3 0 0 1 214 526 Z" stroke="#ffffff" stroke-width="0" opacity="1" filter="none" class="highcharts-point"></path><path fill="#00bAf3" d="M 225 526 L 230 526 A 3 3 0 0 1 230 526 L 230 526 A 0 0 0 0 1 230 526 L 230 526 A 0 0 0 0 1 225 526 L 225 526 A 3 3 0 0 1 225 526 Z" stroke="#ffffff" stroke-width="0" opacity="1" filter="none" class="highcharts-point"></path></g><g class="highcharts-markers highcharts-series-1 highcharts-bar-series" data-z-index="0.1" opacity="1" transform="translate(59,97) scale(1 1)" clip-path="none"></g><g class="highcharts-series highcharts-series-2 highcharts-bar-series highcharts-tracker" data-z-index="0.1" opacity="1" transform="translate(59,97) rotate(90 146.5 379.5) scale(-1 1)" clip-path="url(#highcharts-x47k5pj-37-)"><path fill="#B00000" d="M 0 459 L 11 459 A 0 0 0 0 1 11 459 L 11 526 A 0 0 0 0 1 11 526 L 0 526 A 0 0 0 0 1 0 526 L 0 459 A 0 0 0 0 1 0 459 Z" stroke="#ffffff" stroke-width="0" opacity="1" filter="none" class="highcharts-point"></path><path fill="#B00000" d="M 11 454 L 22 454 A 0 0 0 0 1 22 454 L 22 526 A 0 0 0 0 1 22 526 L 11 526 A 0 0 0 0 1 11 526 L 11 454 A 0 0 0 0 1 11 454 Z" stroke="#ffffff" stroke-width="0" opacity="1" filter="none" class="highcharts-point"></path><path fill="#B00000" d="M 22 458 L 33 458 A 0 0 0 0 1 33 458 L 33 526 A 0 0 0 0 1 33 526 L 22 526 A 0 0 0 0 1 22 526 L 22 458 A 0 0 0 0 1 22 458 Z" stroke="#ffffff" stroke-width="0" opacity="1" filter="none" class="highcharts-point"></path><path fill="#B00000" d="M 33 467 L 44 467 A 0 0 0 0 1 44 467 L 44 526 A 0 0 0 0 1 44 526 L 33 526 A 0 0 0 0 1 33 526 L 33 467 A 0 0 0 0 1 33 467 Z" stroke="#ffffff" stroke-width="0" opacity="1" filter="none" class="highcharts-point"></path><path fill="#B00000" d="M 44 470 L 55 470 A 0 0 0 0 1 55 470 L 55 526 A 0 0 0 0 1 55 526 L 44 526 A 0 0 0 0 1 44 526 L 44 470 A 0 0 0 0 1 44 470 Z" stroke="#ffffff" stroke-width="0" opacity="1" filter="none" class="highcharts-point"></path><path fill="#B00000" d="M 55 454 L 67 454 A 0 0 0 0 1 67 454 L 67 526 A 0 0 0 0 1 67 526 L 55 526 A 0 0 0 0 1 55 526 L 55 454 A 0 0 0 0 1 55 454 Z" stroke="#ffffff" stroke-width="0" opacity="1" filter="none" class="highcharts-point"></path><path fill="#B00000" d="M 67 451 L 78 451 A 0 0 0 0 1 78 451 L 78 526 A 0 0 0 0 1 78 526 L 67 526 A 0 0 0 0 1 67 526 L 67 451 A 0 0 0 0 1 67 451 Z" stroke="#ffffff" stroke-width="0" opacity="1" filter="none" class="highcharts-point"></path><path fill="#B00000" d="M 78 443 L 89 443 A 0 0 0 0 1 89 443 L 89 526 A 0 0 0 0 1 89 526 L 78 526 A 0 0 0 0 1 78 526 L 78 443 A 0 0 0 0 1 78 443 Z" stroke="#ffffff" stroke-width="0" opacity="1" filter="none" class="highcharts-point"></path><path fill="#B00000" d="M 89 431 L 100 431 A 0 0 0 0 1 100 431 L 100 526 A 0 0 0 0 1 100 526 L 89 526 A 0 0 0 0 1 89 526 L 89 431 A 0 0 0 0 1 89 431 Z" stroke="#ffffff" stroke-width="0" opacity="1" filter="none" class="highcharts-point"></path><path fill="#B00000" d="M 100 447 L 111 447 A 0 0 0 0 1 111 447 L 111 526 A 0 0 0 0 1 111 526 L 100 526 A 0 0 0 0 1 100 526 L 100 447 A 0 0 0 0 1 100 447 Z" stroke="#ffffff" stroke-width="0" opacity="1" filter="none" class="highcharts-point"></path><path fill="#B00000" d="M 111 448 L 122 448 A 0 0 0 0 1 122 448 L 122 526 A 0 0 0 0 1 122 526 L 111 526 A 0 0 0 0 1 111 526 L 111 448 A 0 0 0 0 1 111 448 Z" stroke="#ffffff" stroke-width="0" opacity="1" filter="none" class="highcharts-point"></path><path fill="#B00000" d="M 122 441 L 133 441 A 0 0 0 0 1 133 441 L 133 526 A 0 0 0 0 1 133 526 L 122 526 A 0 0 0 0 1 122 526 L 122 441 A 0 0 0 0 1 122 441 Z" stroke="#ffffff" stroke-width="0" opacity="1" filter="none" class="highcharts-point"></path><path fill="#B00000" d="M 133 426 L 144 426 A 0 0 0 0 1 144 426 L 144 526 A 0 0 0 0 1 144 526 L 133 526 A 0 0 0 0 1 133 526 L 133 426 A 0 0 0 0 1 133 426 Z" stroke="#ffffff" stroke-width="0" opacity="1" filter="none" class="highcharts-point"></path><path fill="#B00000" d="M 144 434 L 155 434 A 0 0 0 0 1 155 434 L 155 526 A 0 0 0 0 1 155 526 L 144 526 A 0 0 0 0 1 144 526 L 144 434 A 0 0 0 0 1 144 434 Z" stroke="#ffffff" stroke-width="0" opacity="1" filter="none" class="highcharts-point"></path><path fill="#B00000" d="M 155 435 L 166 435 A 0 0 0 0 1 166 435 L 166 526 A 0 0 0 0 1 166 526 L 155 526 A 0 0 0 0 1 155 526 L 155 435 A 0 0 0 0 1 155 435 Z" stroke="#ffffff" stroke-width="0" opacity="1" filter="none" class="highcharts-point"></path><path fill="#B00000" d="M 166 435 L 178 435 A 0 0 0 0 1 178 435 L 178 526 A 0 0 0 0 1 178 526 L 166 526 A 0 0 0 0 1 166 526 L 166 435 A 0 0 0 0 1 166 435 Z" stroke="#ffffff" stroke-width="0" opacity="1" filter="none" class="highcharts-point"></path><path fill="#B00000" d="M 178 455 L 189 455 A 0 0 0 0 1 189 455 L 189 526 A 0 0 0 0 1 189 526 L 178 526 A 0 0 0 0 1 178 526 L 178 455 A 0 0 0 0 1 178 455 Z" stroke="#ffffff" stroke-width="0" opacity="1" filter="none" class="highcharts-point"></path><path fill="#B00000" d="M 189 480 L 200 480 A 0 0 0 0 1 200 480 L 200 526 A 0 0 0 0 1 200 526 L 189 526 A 0 0 0 0 1 189 526 L 189 480 A 0 0 0 0 1 189 480 Z" stroke="#ffffff" stroke-width="0" opacity="1" filter="none" class="highcharts-point"></path><path fill="#B00000" d="M 200.7639320225002 498 L 210.2360679774998 498 A 3 3 0 0 1 211 500 L 211 526 A 0 0 0 0 1 211 526 L 200 526 A 0 0 0 0 1 200 526 L 200 500 A 3 3 0 0 1 200.7639320225002 498 Z" stroke="#ffffff" stroke-width="0" opacity="1" filter="none" class="highcharts-point"></path><path fill="#B00000" d="M 211.17157287525382 521 L 221.82842712474618 521 A 3 3 0 0 1 222 522 L 222 526 A 0 0 0 0 1 222 526 L 211 526 A 0 0 0 0 1 211 526 L 211 522 A 3 3 0 0 1 211.17157287525382 521 Z" stroke="#ffffff" stroke-width="0" opacity="1" filter="none" class="highcharts-point"></path><path fill="#B00000" d="M 222.7639320225002 526 L 232.2360679774998 526 A 3 3 0 0 1 232.2360679774998 526 L 232.2360679774998 526 A 0 0 0 0 1 232.2360679774998 526 L 232.2360679774998 526 A 0 0 0 0 1 222.7639320225002 526 L 222.7639320225002 526 A 3 3 0 0 1 222.7639320225002 526 Z" stroke="#ffffff" stroke-width="0" opacity="1" filter="none" class="highcharts-point"></path></g><g class="highcharts-markers highcharts-series-2 highcharts-bar-series" data-z-index="0.1" opacity="1" transform="translate(59,97) scale(1 1)" clip-path="none"></g><g class="highcharts-series highcharts-series-3 highcharts-bar-series highcharts-tracker" data-z-index="0.1" opacity="1" transform="translate(59,97) rotate(90 146.5 379.5) scale(-1 1)" clip-path="url(#highcharts-x47k5pj-37-)"><path fill="#008AC3" d="M 0 526 L 11 526 A 0 0 0 0 1 11 526 L 11 594 A 0 0 0 0 1 11 594 L 0 594 A 0 0 0 0 1 0 594 L 0 526 A 0 0 0 0 1 0 526 Z" stroke="#ffffff" stroke-width="0" opacity="1" filter="none" class="highcharts-point highcharts-negative"></path><path fill="#008AC3" d="M 11 526 L 22 526 A 0 0 0 0 1 22 526 L 22 604 A 0 0 0 0 1 22 604 L 11 604 A 0 0 0 0 1 11 604 L 11 526 A 0 0 0 0 1 11 526 Z" stroke="#ffffff" stroke-width="0" opacity="1" filter="none" class="highcharts-point highcharts-negative"></path><path fill="#008AC3" d="M 22 526 L 33 526 A 0 0 0 0 1 33 526 L 33 607 A 0 0 0 0 1 33 607 L 22 607 A 0 0 0 0 1 22 607 L 22 526 A 0 0 0 0 1 22 526 Z" stroke="#ffffff" stroke-width="0" opacity="1" filter="none" class="highcharts-point highcharts-negative"></path><path fill="#008AC3" d="M 33 526 L 44 526 A 0 0 0 0 1 44 526 L 44 605 A 0 0 0 0 1 44 605 L 33 605 A 0 0 0 0 1 33 605 L 33 526 A 0 0 0 0 1 33 526 Z" stroke="#ffffff" stroke-width="0" opacity="1" filter="none" class="highcharts-point highcharts-negative"></path><path fill="#008AC3" d="M 44 526 L 55 526 A 0 0 0 0 1 55 526 L 55 595 A 0 0 0 0 1 55 595 L 44 595 A 0 0 0 0 1 44 595 L 44 526 A 0 0 0 0 1 44 526 Z" stroke="#ffffff" stroke-width="0" opacity="1" filter="none" class="highcharts-point highcharts-negative"></path><path fill="#008AC3" d="M 55 526 L 67 526 A 0 0 0 0 1 67 526 L 67 603 A 0 0 0 0 1 67 603 L 55 603 A 0 0 0 0 1 55 603 L 55 526 A 0 0 0 0 1 55 526 Z" stroke="#ffffff" stroke-width="0" opacity="1" filter="none" class="highcharts-point highcharts-negative"></path><path fill="#008AC3" d="M 67 526 L 78 526 A 0 0 0 0 1 78 526 L 78 600 A 0 0 0 0 1 78 600 L 67 600 A 0 0 0 0 1 67 600 L 67 526 A 0 0 0 0 1 67 526 Z" stroke="#ffffff" stroke-width="0" opacity="1" filter="none" class="highcharts-point highcharts-negative"></path><path fill="#008AC3" d="M 78 526 L 89 526 A 0 0 0 0 1 89 526 L 89 603 A 0 0 0 0 1 89 603 L 78 603 A 0 0 0 0 1 78 603 L 78 526 A 0 0 0 0 1 78 526 Z" stroke="#ffffff" stroke-width="0" opacity="1" filter="none" class="highcharts-point highcharts-negative"></path><path fill="#008AC3" d="M 89 526 L 100 526 A 0 0 0 0 1 100 526 L 100 613 A 0 0 0 0 1 100 613 L 89 613 A 0 0 0 0 1 89 613 L 89 526 A 0 0 0 0 1 89 526 Z" stroke="#ffffff" stroke-width="0" opacity="1" filter="none" class="highcharts-point highcharts-negative"></path><path fill="#008AC3" d="M 100 526 L 111 526 A 0 0 0 0 1 111 526 L 111 596 A 0 0 0 0 1 111 596 L 100 596 A 0 0 0 0 1 100 596 L 100 526 A 0 0 0 0 1 100 526 Z" stroke="#ffffff" stroke-width="0" opacity="1" filter="none" class="highcharts-point highcharts-negative"></path><path fill="#008AC3" d="M 111 526 L 122 526 A 0 0 0 0 1 122 526 L 122 601 A 0 0 0 0 1 122 601 L 111 601 A 0 0 0 0 1 111 601 L 111 526 A 0 0 0 0 1 111 526 Z" stroke="#ffffff" stroke-width="0" opacity="1" filter="none" class="highcharts-point highcharts-negative"></path><path fill="#008AC3" d="M 122 526 L 133 526 A 0 0 0 0 1 133 526 L 133 596 A 0 0 0 0 1 133 596 L 122 596 A 0 0 0 0 1 122 596 L 122 526 A 0 0 0 0 1 122 526 Z" stroke="#ffffff" stroke-width="0" opacity="1" filter="none" class="highcharts-point highcharts-negative"></path><path fill="#008AC3" d="M 133 526 L 144 526 A 0 0 0 0 1 144 526 L 144 603 A 0 0 0 0 1 144 603 L 133 603 A 0 0 0 0 1 133 603 L 133 526 A 0 0 0 0 1 133 526 Z" stroke="#ffffff" stroke-width="0" opacity="1" filter="none" class="highcharts-point highcharts-negative"></path><path fill="#008AC3" d="M 144 526 L 155 526 A 0 0 0 0 1 155 526 L 155 601 A 0 0 0 0 1 155 601 L 144 601 A 0 0 0 0 1 144 601 L 144 526 A 0 0 0 0 1 144 526 Z" stroke="#ffffff" stroke-width="0" opacity="1" filter="none" class="highcharts-point highcharts-negative"></path><path fill="#008AC3" d="M 155 526 L 166 526 A 0 0 0 0 1 166 526 L 166 593 A 0 0 0 0 1 166 593 L 155 593 A 0 0 0 0 1 155 593 L 155 526 A 0 0 0 0 1 155 526 Z" stroke="#ffffff" stroke-width="0" opacity="1" filter="none" class="highcharts-point highcharts-negative"></path><path fill="#008AC3" d="M 166 526 L 178 526 A 0 0 0 0 1 178 526 L 178 594 A 0 0 0 0 1 178 594 L 166 594 A 0 0 0 0 1 166 594 L 166 526 A 0 0 0 0 1 166 526 Z" stroke="#ffffff" stroke-width="0" opacity="1" filter="none" class="highcharts-point highcharts-negative"></path><path fill="#008AC3" d="M 178 526 L 189 526 A 0 0 0 0 1 189 526 L 189 573 A 0 0 0 0 1 189 573 L 178 573 A 0 0 0 0 1 178 573 L 178 526 A 0 0 0 0 1 178 526 Z" stroke="#ffffff" stroke-width="0" opacity="1" filter="none" class="highcharts-point highcharts-negative"></path><path fill="#008AC3" d="M 189 526 L 200 526 A 0 0 0 0 1 200 526 L 200 559 A 0 0 0 0 1 200 559 L 189 559 A 0 0 0 0 1 189 559 L 189 526 A 0 0 0 0 1 189 526 Z" stroke="#ffffff" stroke-width="0" opacity="1" filter="none" class="highcharts-point highcharts-negative"></path><path fill="#008AC3" d="M 200 526 L 211 526 A 0 0 0 0 1 211 526 L 211 535 A 3 3 0 0 1 208 538 L 203 538 A 3 3 0 0 1 200 535 L 200 526 A 0 0 0 0 1 200 526 Z" stroke="#ffffff" stroke-width="0" opacity="1" filter="none" class="highcharts-point highcharts-negative"></path><path fill="#008AC3" d="M 221.82842712474618 526 L 221.82842712474618 526 A 0 0 0 0 1 221.82842712474618 526 L 221.82842712474618 526 A 3 3 0 0 1 219 528 L 214 528 A 3 3 0 0 1 211.17157287525382 526 L 211.17157287525382 526 A 0 0 0 0 1 221.82842712474618 526 Z" stroke="#ffffff" stroke-width="0" opacity="1" filter="none" class="highcharts-point highcharts-negative"></path><path fill="#008AC3" d="M 230 526 L 230 526 A 0 0 0 0 1 230 526 L 230 526 A 3 3 0 0 1 230 526 L 225 526 A 3 3 0 0 1 225 526 L 225 526 A 0 0 0 0 1 230 526 Z" stroke="#ffffff" stroke-width="0" opacity="1" filter="none" class="highcharts-point highcharts-negative"></path></g><g class="highcharts-markers highcharts-series-3 highcharts-bar-series" data-z-index="0.1" opacity="1" transform="translate(59,97) scale(1 1)" clip-path="none"></g><g class="highcharts-series highcharts-series-4 highcharts-bar-series highcharts-color-0 highcharts-tracker" visibility="hidden" data-z-index="0.1" opacity="1" transform="translate(59,97) rotate(90 146.5 379.5) scale(-1 1)" clip-path="url(#highcharts-x47k5pj-37-)"></g><g class="highcharts-markers highcharts-series-4 highcharts-bar-series highcharts-color-0" visibility="hidden" data-z-index="0.1" opacity="1" transform="translate(59,97) scale(1 1)" clip-path="none"></g></g><text x="10" text-anchor="start" class="highcharts-caption" data-z-index="4" style="font-size: 0.8em; fill: rgb(102, 102, 102);" text-align="left" y="372" transform-origin="10 15" transform="translate(0,0) scale(1 1)"></text><g class="highcharts-plot-lines-4" data-z-index="4"><path fill="none" class="highcharts-plot-line " stroke="white" stroke-width="1" d="M 59.5 97 L 59.5 330"></path></g><g class="highcharts-legend highcharts-no-tooltip" data-z-index="7" text-align="left" transform="translate(10,55)"><rect fill="none" class="highcharts-legend-box" rx="0" ry="0" stroke="#999999" stroke-width="0" filter="none" x="0" y="0" width="556" height="30"></rect><g data-z-index="1"><g><g class="highcharts-legend-item highcharts-bar-series highcharts-color-undefined highcharts-series-3" data-z-index="1" transform="translate(8,3)"><text x="21" text-anchor="start" data-z-index="2" style="cursor: pointer; font-size: 0.8em; text-decoration: none; font-weight: normal; fill: rgb(51, 51, 51);" y="17">rel_Schweizer</text><rect x="2" y="6" rx="0" ry="0" width="12" height="12" fill="#008AC3" class="highcharts-point" data-z-index="3"></rect></g><g class="highcharts-legend-item highcharts-bar-series highcharts-color-undefined highcharts-series-2" data-z-index="1" transform="translate(148,3)"><text x="21" y="17" text-anchor="start" data-z-index="2" style="cursor: pointer; font-size: 0.8em; text-decoration: none; font-weight: normal; fill: rgb(51, 51, 51);"><title>rel_Schweizerinnen</title>rel_Schweizeri…</text><rect x="2" y="6" rx="0" ry="0" width="12" height="12" fill="#B00000" class="highcharts-point" data-z-index="3"></rect></g><g class="highcharts-legend-item highcharts-bar-series highcharts-color-undefined highcharts-series-1" data-z-index="1" transform="translate(288,3)"><text x="21" y="17" text-anchor="start" data-z-index="2" style="cursor: pointer; font-size: 0.8em; text-decoration: none; font-weight: normal; fill: rgb(51, 51, 51);">rel_Ausländer</text><rect x="2" y="6" rx="0" ry="0" width="12" height="12" fill="#00bAf3" class="highcharts-point" data-z-index="3"></rect></g><g class="highcharts-legend-item highcharts-bar-series highcharts-color-undefined highcharts-series-0" data-z-index="1" transform="translate(428,3)"><text x="21" y="17" text-anchor="start" data-z-index="2" style="cursor: pointer; font-size: 0.8em; text-decoration: none; font-weight: normal; fill: rgb(51, 51, 51);"><title>rel_Ausländerinnen</title>rel_Ausländeri…</text><rect x="2" y="6" rx="0" ry="0" width="12" height="12" fill="#d00000" class="highcharts-point" data-z-index="3"></rect></g></g></g></g><g class="highcharts-axis-labels highcharts-yaxis-labels" data-z-index="7"><text x="59" text-anchor="middle" transform="translate(0,0)" style="cursor: default; font-size: 0.8em; fill: rgb(0, 0, 0);" y="357" opacity="1">0%</text><text x="96.571428571429" text-anchor="middle" transform="translate(0,0)" style="cursor: default; font-size: 0.8em; fill: rgb(0, 0, 0);" y="357" opacity="1">1%</text><text x="134.14285714286" text-anchor="middle" transform="translate(0,0)" style="cursor: default; font-size: 0.8em; fill: rgb(0, 0, 0);" y="357" opacity="1">2%</text><text x="171.71428571429" text-anchor="middle" transform="translate(0,0)" style="cursor: default; font-size: 0.8em; fill: rgb(0, 0, 0);" y="357" opacity="1">3%</text><text x="209.28571428571" text-anchor="middle" transform="translate(0,0)" style="cursor: default; font-size: 0.8em; fill: rgb(0, 0, 0);" y="357" opacity="1">4%</text><text x="246.85714285714" text-anchor="middle" transform="translate(0,0)" style="cursor: default; font-size: 0.8em; fill: rgb(0, 0, 0);" y="357" opacity="1">5%</text><text x="284.42857142857" text-anchor="middle" transform="translate(0,0)" style="cursor: default; font-size: 0.8em; fill: rgb(0, 0, 0);" y="357" opacity="1">6%</text><text x="322" text-anchor="middle" transform="translate(0,0)" style="cursor: default; font-size: 0.8em; fill: rgb(0, 0, 0);" y="357" opacity="1">7%</text><text x="359.57142857143" text-anchor="middle" transform="translate(0,0)" style="cursor: default; font-size: 0.8em; fill: rgb(0, 0, 0);" y="357" opacity="1">8%</text><text x="397.14285714286" text-anchor="middle" transform="translate(0,0)" style="cursor: default; font-size: 0.8em; fill: rgb(0, 0, 0);" y="357" opacity="1">9%</text><text x="434.71428571429" text-anchor="middle" transform="translate(0,0)" style="cursor: default; font-size: 0.8em; fill: rgb(0, 0, 0);" y="357" opacity="1">10%</text><text x="472.28571428571" text-anchor="middle" transform="translate(0,0)" style="cursor: default; font-size: 0.8em; fill: rgb(0, 0, 0);" y="357" opacity="1">11%</text><text x="509.85714285714" text-anchor="middle" transform="translate(0,0)" style="cursor: default; font-size: 0.8em; fill: rgb(0, 0, 0);" y="357" opacity="1">12%</text><text x="547.42857142857" text-anchor="middle" transform="translate(0,0)" style="cursor: default; font-size: 0.8em; fill: rgb(0, 0, 0);" y="357" opacity="1">13%</text><text x="585" text-anchor="middle" transform="translate(0,0)" style="cursor: default; font-size: 0.8em; fill: rgb(0, 0, 0);" y="357" opacity="1">14%</text></g><g class="highcharts-axis-labels highcharts-xaxis-labels" data-z-index="7"><text x="44" text-anchor="end" transform="translate(0,0)" style="cursor: default; font-size: 0.8em; fill: rgb(0, 0, 0);" y="329" opacity="1">0-4</text><text x="44" text-anchor="end" transform="translate(0,0)" style="cursor: default; font-size: 0.8em; fill: rgb(0, 0, 0);" y="318" opacity="1">5-9</text><text x="44" text-anchor="end" transform="translate(0,0)" style="cursor: default; font-size: 0.8em; fill: rgb(0, 0, 0);" y="307" opacity="1">10-14</text><text x="44" text-anchor="end" transform="translate(0,0)" style="cursor: default; font-size: 0.8em; fill: rgb(0, 0, 0);" y="296" opacity="1">15-19</text><text x="44" text-anchor="end" transform="translate(0,0)" style="cursor: default; font-size: 0.8em; fill: rgb(0, 0, 0);" y="285" opacity="1">20-24</text><text x="44" text-anchor="end" transform="translate(0,0)" style="cursor: default; font-size: 0.8em; fill: rgb(0, 0, 0);" y="273" opacity="1">25-29</text><text x="44" text-anchor="end" transform="translate(0,0)" style="cursor: default; font-size: 0.8em; fill: rgb(0, 0, 0);" y="262" opacity="1">30-34</text><text x="44" text-anchor="end" transform="translate(0,0)" style="cursor: default; font-size: 0.8em; fill: rgb(0, 0, 0);" y="251" opacity="1">35-39</text><text x="44" text-anchor="end" transform="translate(0,0)" style="cursor: default; font-size: 0.8em; fill: rgb(0, 0, 0);" y="240" opacity="1">40-44</text><text x="44" text-anchor="end" transform="translate(0,0)" style="cursor: default; font-size: 0.8em; fill: rgb(0, 0, 0);" y="229" opacity="1">45-49</text><text x="44" text-anchor="end" transform="translate(0,0)" style="cursor: default; font-size: 0.8em; fill: rgb(0, 0, 0);" y="218" opacity="1">50-54</text><text x="44" text-anchor="end" transform="translate(0,0)" style="cursor: default; font-size: 0.8em; fill: rgb(0, 0, 0);" y="207" opacity="1">55-59</text><text x="44" text-anchor="end" transform="translate(0,0)" style="cursor: default; font-size: 0.8em; fill: rgb(0, 0, 0);" y="196" opacity="1">60-64</text><text x="44" text-anchor="end" transform="translate(0,0)" style="cursor: default; font-size: 0.8em; fill: rgb(0, 0, 0);" y="185" opacity="1">65-69</text><text x="44" text-anchor="end" transform="translate(0,0)" style="cursor: default; font-size: 0.8em; fill: rgb(0, 0, 0);" y="174" opacity="1">70-74</text><text x="44" text-anchor="end" transform="translate(0,0)" style="cursor: default; font-size: 0.8em; fill: rgb(0, 0, 0);" y="163" opacity="1">75-79</text><text x="44" text-anchor="end" transform="translate(0,0)" style="cursor: default; font-size: 0.8em; fill: rgb(0, 0, 0);" y="151" opacity="1">80-84</text><text x="44" text-anchor="end" transform="translate(0,0)" style="cursor: default; font-size: 0.8em; fill: rgb(0, 0, 0);" y="140" opacity="1">85-89</text><text x="44" text-anchor="end" transform="translate(0,0)" style="cursor: default; font-size: 0.8em; fill: rgb(0, 0, 0);" y="129" opacity="1">90-94</text><text x="44" text-anchor="end" transform="translate(0,0)" style="cursor: default; font-size: 0.8em; fill: rgb(0, 0, 0);" y="118" opacity="1">95-99</text><text x="44" text-anchor="end" transform="translate(0,0)" style="cursor: default; font-size: 0.8em; fill: rgb(0, 0, 0);" y="107" opacity="1">100+</text></g></svg>