<?xml version="1.0" standalone="no"?><!DOCTYPE svg PUBLIC "-//W3C//DTD SVG 1.1//EN" "http://www.w3.org/Graphics/SVG/1.1/DTD/svg11.dtd"><svg xmlns:xlink="http://www.w3.org/1999/xlink" version="1.1" class="highcharts-root" style="font-family:Arial;font-size:12px;" xmlns="http://www.w3.org/2000/svg" viewBox="0 0 485 415"><desc>Created with Highcharts 8.2.2</desc><defs><clipPath id="highcharts-qyf4huh-21-"><rect x="0" y="0" width="414" height="295" fill="none"></rect></clipPath><clipPath id="highcharts-qyf4huh-36-"><rect x="0" y="0" width="414" height="295" fill="none"></rect></clipPath><clipPath id="highcharts-qyf4huh-37-"><rect x="46" y="56" width="414" height="295" fill="none"></rect></clipPath></defs><rect fill="#fbfbfb" class="highcharts-background" x="0" y="0" width="485" height="428" rx="0" ry="0"></rect><rect fill="none" class="highcharts-plot-background" x="46" y="56" width="414" height="295"></rect><g class="highcharts-pane-group" data-z-index="0"></g><g class="highcharts-grid highcharts-xaxis-grid" data-z-index="1"><path fill="none" data-z-index="1" class="highcharts-grid-line" d="M 49.5 56 L 49.5 351" opacity="1"></path><path fill="none" data-z-index="1" class="highcharts-grid-line" d="M 80.5 56 L 80.5 351" opacity="1"></path><path fill="none" data-z-index="1" class="highcharts-grid-line" d="M 112.5 56 L 112.5 351" opacity="1"></path><path fill="none" data-z-index="1" class="highcharts-grid-line" d="M 143.5 56 L 143.5 351" opacity="1"></path><path fill="none" data-z-index="1" class="highcharts-grid-line" d="M 174.5 56 L 174.5 351" opacity="1"></path><path fill="none" data-z-index="1" class="highcharts-grid-line" d="M 205.5 56 L 205.5 351" opacity="1"></path><path fill="none" data-z-index="1" class="highcharts-grid-line" d="M 236.5 56 L 236.5 351" opacity="1"></path><path fill="none" data-z-index="1" class="highcharts-grid-line" d="M 268.5 56 L 268.5 351" opacity="1"></path><path fill="none" data-z-index="1" class="highcharts-grid-line" d="M 299.5 56 L 299.5 351" opacity="1"></path><path fill="none" data-z-index="1" class="highcharts-grid-line" d="M 330.5 56 L 330.5 351" opacity="1"></path><path fill="none" data-z-index="1" class="highcharts-grid-line" d="M 361.5 56 L 361.5 351" opacity="1"></path><path fill="none" data-z-index="1" class="highcharts-grid-line" d="M 392.5 56 L 392.5 351" opacity="1"></path><path fill="none" data-z-index="1" class="highcharts-grid-line" d="M 424.5 56 L 424.5 351" opacity="1"></path><path fill="none" data-z-index="1" class="highcharts-grid-line" d="M 455.5 56 L 455.5 351" opacity="1"></path></g><g class="highcharts-grid highcharts-yaxis-grid" data-z-index="1"><path fill="none" stroke="#B9CFD7" stroke-width="0.5" data-z-index="1" class="highcharts-grid-line" d="M 46 351.25 L 460 351.25" opacity="1"></path><path fill="none" stroke="#B9CFD7" stroke-width="0.5" data-z-index="1" class="highcharts-grid-line" d="M 46 302.25 L 460 302.25" opacity="1"></path><path fill="none" stroke="#B9CFD7" stroke-width="0.5" data-z-index="1" class="highcharts-grid-line" d="M 46 253.25 L 460 253.25" opacity="1"></path><path fill="none" stroke="#B9CFD7" stroke-width="0.5" data-z-index="1" class="highcharts-grid-line" d="M 46 204.25 L 460 204.25" opacity="1"></path><path fill="none" stroke="#B9CFD7" stroke-width="0.5" data-z-index="1" class="highcharts-grid-line" d="M 46 154.25 L 460 154.25" opacity="1"></path><path fill="none" stroke="#B9CFD7" stroke-width="0.5" data-z-index="1" class="highcharts-grid-line" d="M 46 105.25 L 460 105.25" opacity="1"></path><path fill="none" stroke="#B9CFD7" stroke-width="0.5" data-z-index="1" class="highcharts-grid-line" d="M 46 55.75 L 460 55.75" opacity="1"></path></g><rect fill="none" class="highcharts-plot-border" data-z-index="1" x="46" y="56" width="414" height="295"></rect><g class="highcharts-axis highcharts-xaxis" data-z-index="2"><path fill="none" class="highcharts-axis-line" stroke="#B9CFD7" stroke-width="0.5" data-z-index="7" d="M 46 351.25 L 460 351.25"></path></g><g class="highcharts-axis highcharts-yaxis" data-z-index="2"><path fill="none" class="highcharts-axis-line" data-z-index="7" d="M 46 56 L 46 351"></path></g><g class="highcharts-series-group" data-z-index="3"><g class="highcharts-series highcharts-series-0 highcharts-line-series" data-z-index="0.1" opacity="1" transform="translate(46,56) scale(1 1)" clip-path="url(#highcharts-qyf4huh-36-)"><path fill="none" d="M 4.0588235294151 135.20833333333334 L 35.280542986428 34.416666666666686 L 66.502262443441 93.41666666666669 L 97.723981900454 125.375 L 128.94570135747 125.375 L 160.16742081448 127.83333333333334 L 191.38914027149 125.375 L 222.61085972851 169.625 L 253.83257918552 177 L 285.05429864253 199.125 L 316.27601809955 140.125 L 347.49773755656 172.08333333333334 L 378.71945701357 164.70833333333334 L 409.94117647058 115.54166666666669" class="highcharts-graph" data-z-index="1" stroke="#246370" stroke-width="2" stroke-linejoin="round" stroke-linecap="round"></path></g><g class="highcharts-markers highcharts-series-0 highcharts-line-series" data-z-index="0.1" opacity="1" transform="translate(46,56) scale(1 1)" clip-path="none"></g></g><text x="10" text-anchor="start" class="highcharts-title" data-z-index="4" style="color:#000000;font-size:14px;font-weight:bold;fill:#000000;" y="21"><tspan>Einbruchdiebstähle</tspan></text><text x="10" text-anchor="start" class="highcharts-subtitle" data-z-index="4" style="color:#000000;font-size:12px;font-weight:normal;fill:#000000;" y="40"><tspan>pro 1000 Einwohner, Basel-Stadt</tspan></text><text x="10" text-anchor="start" class="highcharts-caption" data-z-index="4" style="color:#666666;fill:#666666;" y="385"></text><g class="highcharts-axis-labels highcharts-xaxis-labels" data-z-index="7"><text x="50.058823529415" style="color:#000000;cursor:default;font-size:11px;fill:#000000;" text-anchor="middle" transform="translate(0,0)" y="370" opacity="1">2011</text><text x="81.280542986428" style="color:#000000;cursor:default;font-size:11px;fill:#000000;" text-anchor="middle" transform="translate(0,0)" y="370" opacity="1">2012</text><text x="112.50226244344" style="color:#000000;cursor:default;font-size:11px;fill:#000000;" text-anchor="middle" transform="translate(0,0)" y="370" opacity="1">2013</text><text x="143.72398190045" style="color:#000000;cursor:default;font-size:11px;fill:#000000;" text-anchor="middle" transform="translate(0,0)" y="370" opacity="1">2014</text><text x="174.94570135747" style="color:#000000;cursor:default;font-size:11px;fill:#000000;" text-anchor="middle" transform="translate(0,0)" y="370" opacity="1">2015</text><text x="206.16742081448" style="color:#000000;cursor:default;font-size:11px;fill:#000000;" text-anchor="middle" transform="translate(0,0)" y="370" opacity="1">2016</text><text x="237.38914027149" style="color:#000000;cursor:default;font-size:11px;fill:#000000;" text-anchor="middle" transform="translate(0,0)" y="370" opacity="1">2017</text><text x="268.61085972851" style="color:#000000;cursor:default;font-size:11px;fill:#000000;" text-anchor="middle" transform="translate(0,0)" y="370" opacity="1">2018</text><text x="299.83257918552" style="color:#000000;cursor:default;font-size:11px;fill:#000000;" text-anchor="middle" transform="translate(0,0)" y="370" opacity="1">2019</text><text x="331.05429864253" style="color:#000000;cursor:default;font-size:11px;fill:#000000;" text-anchor="middle" transform="translate(0,0)" y="370" opacity="1">2020</text><text x="362.27601809955" style="color:#000000;cursor:default;font-size:11px;fill:#000000;" text-anchor="middle" transform="translate(0,0)" y="370" opacity="1">2021</text><text x="393.49773755656" style="color:#000000;cursor:default;font-size:11px;fill:#000000;" text-anchor="middle" transform="translate(0,0)" y="370" opacity="1">2022</text><text x="424.71945701357" style="color:#000000;cursor:default;font-size:11px;fill:#000000;" text-anchor="middle" transform="translate(0,0)" y="370" opacity="1">2023</text><text x="455.94117647058" style="color:#000000;cursor:default;font-size:11px;fill:#000000;" text-anchor="middle" transform="translate(0,0)" y="370" opacity="1">2024</text></g><g class="highcharts-axis-labels highcharts-yaxis-labels" data-z-index="7"><text x="31" style="color:#000000;cursor:default;font-size:11px;fill:#000000;" text-anchor="end" transform="translate(0,0)" y="355" opacity="1">0.0</text><text x="31" style="color:#000000;cursor:default;font-size:11px;fill:#000000;" text-anchor="end" transform="translate(0,0)" y="306" opacity="1">2.0</text><text x="31" style="color:#000000;cursor:default;font-size:11px;fill:#000000;" text-anchor="end" transform="translate(0,0)" y="257" opacity="1">4.0</text><text x="31" style="color:#000000;cursor:default;font-size:11px;fill:#000000;" text-anchor="end" transform="translate(0,0)" y="208" opacity="1">6.0</text><text x="31" style="color:#000000;cursor:default;font-size:11px;fill:#000000;" text-anchor="end" transform="translate(0,0)" y="158" opacity="1">8.0</text><text x="31" style="color:#000000;cursor:default;font-size:11px;fill:#000000;" text-anchor="end" transform="translate(0,0)" y="109" opacity="1">10.0</text><text x="31" style="color:#000000;cursor:default;font-size:11px;fill:#000000;" text-anchor="end" transform="translate(0,0)" y="60" opacity="1">12.0</text></g><text x="10" class="highcharts-credits" text-anchor="start" data-z-index="8" style="cursor:default;color:#000000;font-size:10px;fill:#000000;" y="403"><tspan>Quelle: Bundesamt für Statistik (BFS).</tspan><tspan x="10" dy="13">Zuletzt geändert: 31.3.2025</tspan></text><g class="highcharts-control-points" data-z-index="99" clip-path="url(#highcharts-qyf4huh-37-)"></g></svg>