<?xml version="1.0" standalone="no"?><!DOCTYPE svg PUBLIC "-//W3C//DTD SVG 1.1//EN" "http://www.w3.org/Graphics/SVG/1.1/DTD/svg11.dtd"><svg xmlns:xlink="http://www.w3.org/1999/xlink" version="1.1" class="highcharts-root" style="font-family:Arial;font-size:12px;" xmlns="http://www.w3.org/2000/svg" viewBox="0 0 485 415"><desc>Created with Highstock 6.1.1</desc><defs><clipPath id="highcharts-5u8urgz-6"><rect x="0" y="0" width="268" height="85" fill="none"></rect></clipPath><clipPath id="highcharts-5u8urgz-7"><rect x="0" y="0" width="268" height="85" fill="none"></rect></clipPath></defs><rect fill="#fbfbfb" class="highcharts-background" x="0" y="0" width="320" height="221" rx="0" ry="0"></rect><rect fill="none" class="highcharts-plot-background" x="50" y="103" width="268" height="85"></rect><g class="highcharts-pane-group" data-z-index="0"></g><g class="highcharts-grid highcharts-xaxis-grid " data-z-index="1"><path fill="none" data-z-index="1" class="highcharts-grid-line" d="M 52.5 103 L 52.5 188" opacity="1"></path><path fill="none" data-z-index="1" class="highcharts-grid-line" d="M 79.5 103 L 79.5 188" opacity="1"></path><path fill="none" data-z-index="1" class="highcharts-grid-line" d="M 106.5 103 L 106.5 188" opacity="1"></path><path fill="none" data-z-index="1" class="highcharts-grid-line" d="M 133.5 103 L 133.5 188" opacity="1"></path><path fill="none" data-z-index="1" class="highcharts-grid-line" d="M 160.5 103 L 160.5 188" opacity="1"></path><path fill="none" data-z-index="1" class="highcharts-grid-line" d="M 186.5 103 L 186.5 188" opacity="1"></path><path fill="none" data-z-index="1" class="highcharts-grid-line" d="M 213.5 103 L 213.5 188" opacity="1"></path><path fill="none" data-z-index="1" class="highcharts-grid-line" d="M 240.5 103 L 240.5 188" opacity="1"></path><path fill="none" data-z-index="1" class="highcharts-grid-line" d="M 267.5 103 L 267.5 188" opacity="1"></path><path fill="none" data-z-index="1" class="highcharts-grid-line" d="M 294.5 103 L 294.5 188" opacity="1"></path></g><g class="highcharts-grid highcharts-yaxis-grid " data-z-index="1"><path fill="none" stroke="#B9CFD7" stroke-width="0.5" data-z-index="1" class="highcharts-grid-line" d="M 50 188.25 L 318 188.25" opacity="1"></path><path fill="none" stroke="#B9CFD7" stroke-width="0.5" data-z-index="1" class="highcharts-grid-line" d="M 50 171.25 L 318 171.25" opacity="1"></path><path fill="none" stroke="#B9CFD7" stroke-width="0.5" data-z-index="1" class="highcharts-grid-line" d="M 50 154.25 L 318 154.25" opacity="1"></path><path fill="none" stroke="#B9CFD7" stroke-width="0.5" data-z-index="1" class="highcharts-grid-line" d="M 50 137.25 L 318 137.25" opacity="1"></path><path fill="none" stroke="#B9CFD7" stroke-width="0.5" data-z-index="1" class="highcharts-grid-line" d="M 50 120.25 L 318 120.25" opacity="1"></path><path fill="none" stroke="#B9CFD7" stroke-width="0.5" data-z-index="1" class="highcharts-grid-line" d="M 50 102.75 L 318 102.75" opacity="1"></path></g><rect fill="none" class="highcharts-plot-border" data-z-index="1" x="50" y="103" width="268" height="85"></rect><g class="highcharts-axis highcharts-xaxis " data-z-index="2"><path fill="none" class="highcharts-axis-line" stroke="#B9CFD7" stroke-width="0.5" data-z-index="7" d="M 50 188.25 L 318 188.25"></path></g><g class="highcharts-axis highcharts-yaxis " data-z-index="2"><path fill="none" class="highcharts-axis-line" data-z-index="7" d="M 50 103 L 50 188"></path></g><g class="highcharts-series-group" data-z-index="3"><g data-z-index="0.1" class="highcharts-series highcharts-series-0 highcharts-area-series " transform="translate(50,103) scale(1 1)" clip-path="url(#highcharts-5u8urgz-7)"><path fill="rgb(211,226,228)" fill-opacity="0.75" d="M 3.35 22.595124999999996 L 10.05 21.568749999999994 L 16.75 21.390249999999995 L 23.45 20.94399999999999 L 30.15 19.407624999999996 L 36.85 17.941374999999994 L 43.55 17.83512499999999 L 50.25 18.935874999999996 L 56.95 19.22274999999999 L 63.65 18.37487499999999 L 70.35 17.278374999999997 L 77.05 17.15299999999999 L 83.75 17.01062499999999 L 90.45 15.775999999999996 L 97.15 14.979124999999996 L 103.85 15.30212499999999 L 110.55 15.166124999999994 L 117.25 14.016499999999994 L 123.95 13.230249999999998 L 130.65 13.593624999999989 L 137.35 13.436374999999998 L 144.05 12.216624999999993 L 150.75 11.304999999999993 L 157.45 11.613124999999997 L 164.15 11.445250000000001 L 170.85 10.474125 L 177.55 10.030000000000001 L 184.25 10.733374999999995 L 190.95 10.021499999999989 L 197.65 9.043999999999997 L 204.35 8.640249999999995 L 211.05 9.054625000000001 L 217.75 8.805999999999997 L 224.45 8.888874999999999 L 231.15 8.750749999999996 L 237.85 8.761375000000001 L 244.55 10.495374999999996 L 251.25 11.126499999999993 L 257.95 11.851124999999996 L 264.65 12.490749999999991 L 264.65 25.227999999999994 L 257.95 24.664874999999995 L 251.25 24.278124999999996 L 244.55 23.825499999999998 L 237.85 22.667374999999993 L 231.15 22.680124999999997 L 224.45 22.924499999999995 L 217.75 22.648249999999997 L 211.05 22.269999999999996 L 204.35 21.683499999999995 L 197.65 21.704749999999997 L 190.95 22.221124999999994 L 184.25 22.565374999999996 L 177.55 21.689874999999994 L 170.85 22.021374999999992 L 164.15 22.654624999999996 L 157.45 22.728999999999992 L 150.75 22.278499999999994 L 144.05 22.875624999999992 L 137.35 23.766 L 130.65 23.787249999999993 L 123.95 23.364374999999995 L 117.25 24.112374999999993 L 110.55 25.085624999999993 L 103.85 25.298125 L 97.15 24.966624999999993 L 90.45 25.608374999999995 L 83.75 26.598625 L 77.05 26.751624999999997 L 70.35 26.700624999999995 L 63.65 27.535749999999993 L 56.95 28.069124999999993 L 50.25 27.720625 L 43.55 26.868499999999997 L 36.85 26.849374999999995 L 30.15 27.916124999999994 L 23.45 29.04875 L 16.75 29.250625 L 10.05 29.231499999999997 L 3.35 29.879624999999997" class="highcharts-area" data-z-index="0"></path><path fill="none" d="M 3.35 22.595124999999996 L 10.05 21.568749999999994 L 16.75 21.390249999999995 L 23.45 20.94399999999999 L 30.15 19.407624999999996 L 36.85 17.941374999999994 L 43.55 17.83512499999999 L 50.25 18.935874999999996 L 56.95 19.22274999999999 L 63.65 18.37487499999999 L 70.35 17.278374999999997 L 77.05 17.15299999999999 L 83.75 17.01062499999999 L 90.45 15.775999999999996 L 97.15 14.979124999999996 L 103.85 15.30212499999999 L 110.55 15.166124999999994 L 117.25 14.016499999999994 L 123.95 13.230249999999998 L 130.65 13.593624999999989 L 137.35 13.436374999999998 L 144.05 12.216624999999993 L 150.75 11.304999999999993 L 157.45 11.613124999999997 L 164.15 11.445250000000001 L 170.85 10.474125 L 177.55 10.030000000000001 L 184.25 10.733374999999995 L 190.95 10.021499999999989 L 197.65 9.043999999999997 L 204.35 8.640249999999995 L 211.05 9.054625000000001 L 217.75 8.805999999999997 L 224.45 8.888874999999999 L 231.15 8.750749999999996 L 237.85 8.761375000000001 L 244.55 10.495374999999996 L 251.25 11.126499999999993 L 257.95 11.851124999999996 L 264.65 12.490749999999991" class="highcharts-graph" data-z-index="1" stroke-linejoin="round" stroke-linecap="round"></path></g><g data-z-index="0.1" class="highcharts-markers highcharts-series-0 highcharts-area-series " transform="translate(50,103) scale(1 1)" clip-path="none"></g><g data-z-index="0.1" class="highcharts-series highcharts-series-1 highcharts-area-series " transform="translate(50,103) scale(1 1)" clip-path="url(#highcharts-5u8urgz-7)"><path fill="rgb(104,145,153)" fill-opacity="0.75" d="M 3.35 29.879624999999997 L 10.05 29.231499999999997 L 16.75 29.250625 L 23.45 29.04875 L 30.15 27.916124999999994 L 36.85 26.849374999999995 L 43.55 26.868499999999997 L 50.25 27.720625 L 56.95 28.069124999999993 L 63.65 27.535749999999993 L 70.35 26.700624999999995 L 77.05 26.751624999999997 L 83.75 26.598625 L 90.45 25.608374999999995 L 97.15 24.966624999999993 L 103.85 25.298125 L 110.55 25.085624999999993 L 117.25 24.112374999999993 L 123.95 23.364374999999995 L 130.65 23.787249999999993 L 137.35 23.766 L 144.05 22.875624999999992 L 150.75 22.278499999999994 L 157.45 22.728999999999992 L 164.15 22.654624999999996 L 170.85 22.021374999999992 L 177.55 21.689874999999994 L 184.25 22.565374999999996 L 190.95 22.221124999999994 L 197.65 21.704749999999997 L 204.35 21.683499999999995 L 211.05 22.269999999999996 L 217.75 22.648249999999997 L 224.45 22.924499999999995 L 231.15 22.680124999999997 L 237.85 22.667374999999993 L 244.55 23.825499999999998 L 251.25 24.278124999999996 L 257.95 24.664874999999995 L 264.65 25.227999999999994 L 264.65 36.622249999999994 L 257.95 36.114374999999995 L 251.25 35.791374999999995 L 244.55 35.379124999999995 L 237.85 34.414375 L 231.15 34.346374999999995 L 224.45 34.59075 L 217.75 34.252874999999996 L 211.05 33.991499999999995 L 204.35 33.449625 L 197.65 33.509125 L 190.95 33.832125 L 184.25 34.106249999999996 L 177.55 33.08625 L 170.85 33.292375 L 164.15 33.73437499999999 L 157.45 33.73224999999999 L 150.75 33.198874999999994 L 144.05 33.632374999999996 L 137.35 34.274125 L 130.65 34.150875 L 123.95 33.717375 L 117.25 34.20399999999999 L 110.55 34.954125 L 103.85 35.13475 L 97.15 34.771375 L 90.45 35.2835 L 83.75 35.999624999999995 L 77.05 36.046375 L 70.35 35.823249999999994 L 63.65 36.46075 L 56.95 36.819874999999996 L 50.25 36.2865 L 43.55 35.332375 L 36.85 35.27925 L 30.15 36.12287499999999 L 23.45 37.032374999999995 L 16.75 37.07275 L 10.05 37.00899999999999 L 3.35 37.531749999999995" class="highcharts-area" data-z-index="0"></path><path fill="none" d="M 3.35 29.879624999999997 L 10.05 29.231499999999997 L 16.75 29.250625 L 23.45 29.04875 L 30.15 27.916124999999994 L 36.85 26.849374999999995 L 43.55 26.868499999999997 L 50.25 27.720625 L 56.95 28.069124999999993 L 63.65 27.535749999999993 L 70.35 26.700624999999995 L 77.05 26.751624999999997 L 83.75 26.598625 L 90.45 25.608374999999995 L 97.15 24.966624999999993 L 103.85 25.298125 L 110.55 25.085624999999993 L 117.25 24.112374999999993 L 123.95 23.364374999999995 L 130.65 23.787249999999993 L 137.35 23.766 L 144.05 22.875624999999992 L 150.75 22.278499999999994 L 157.45 22.728999999999992 L 164.15 22.654624999999996 L 170.85 22.021374999999992 L 177.55 21.689874999999994 L 184.25 22.565374999999996 L 190.95 22.221124999999994 L 197.65 21.704749999999997 L 204.35 21.683499999999995 L 211.05 22.269999999999996 L 217.75 22.648249999999997 L 224.45 22.924499999999995 L 231.15 22.680124999999997 L 237.85 22.667374999999993 L 244.55 23.825499999999998 L 251.25 24.278124999999996 L 257.95 24.664874999999995 L 264.65 25.227999999999994" class="highcharts-graph" data-z-index="1" stroke-linejoin="round" stroke-linecap="round"></path></g><g data-z-index="0.1" class="highcharts-markers highcharts-series-1 highcharts-area-series " transform="translate(50,103) scale(1 1)" clip-path="none"></g><g data-z-index="0.1" class="highcharts-series highcharts-series-2 highcharts-area-series " transform="translate(50,103) scale(1 1)" clip-path="url(#highcharts-5u8urgz-7)"><path fill="rgb(47,101,107)" fill-opacity="0.75" d="M 3.35 37.531749999999995 L 10.05 37.00899999999999 L 16.75 37.07275 L 23.45 37.032374999999995 L 30.15 36.12287499999999 L 36.85 35.27925 L 43.55 35.332375 L 50.25 36.2865 L 56.95 36.819874999999996 L 63.65 36.46075 L 70.35 35.823249999999994 L 77.05 36.046375 L 83.75 35.999624999999995 L 90.45 35.2835 L 97.15 34.771375 L 103.85 35.13475 L 110.55 34.954125 L 117.25 34.20399999999999 L 123.95 33.717375 L 130.65 34.150875 L 137.35 34.274125 L 144.05 33.632374999999996 L 150.75 33.198874999999994 L 157.45 33.73224999999999 L 164.15 33.73437499999999 L 170.85 33.292375 L 177.55 33.08625 L 184.25 34.106249999999996 L 190.95 33.832125 L 197.65 33.509125 L 204.35 33.449625 L 211.05 33.991499999999995 L 217.75 34.252874999999996 L 224.45 34.59075 L 231.15 34.346374999999995 L 237.85 34.414375 L 244.55 35.379124999999995 L 251.25 35.791374999999995 L 257.95 36.114374999999995 L 264.65 36.622249999999994 L 264.65 46.798874999999995 L 257.95 46.526875 L 251.25 46.382374999999996 L 244.55 46.176249999999996 L 237.85 45.42825 L 231.15 45.509 L 224.45 45.940374999999996 L 217.75 45.766124999999995 L 211.05 45.783125 L 204.35 45.500499999999995 L 197.65 45.498374999999996 L 190.95 45.87025 L 184.25 46.31225 L 177.55 45.555749999999996 L 170.85 45.77675 L 164.15 46.273999999999994 L 157.45 46.356874999999995 L 150.75 45.948874999999994 L 144.05 46.36325 L 137.35 46.88175 L 130.65 46.8435 L 123.95 46.41 L 117.25 46.796749999999996 L 110.55 47.391749999999995 L 103.85 47.529875 L 97.15 47.266375 L 90.45 47.591499999999996 L 83.75 48.1185 L 77.05 48.13975 L 70.35 47.855 L 63.65 48.43725 L 56.95 48.62 L 50.25 48.16525 L 43.55 47.179249999999996 L 36.85 47.032624999999996 L 30.15 47.512874999999994 L 23.45 48.099374999999995 L 16.75 48.02075 L 10.05 47.874125 L 3.35 48.163125" class="highcharts-area" data-z-index="0"></path><path fill="none" d="M 3.35 37.531749999999995 L 10.05 37.00899999999999 L 16.75 37.07275 L 23.45 37.032374999999995 L 30.15 36.12287499999999 L 36.85 35.27925 L 43.55 35.332375 L 50.25 36.2865 L 56.95 36.819874999999996 L 63.65 36.46075 L 70.35 35.823249999999994 L 77.05 36.046375 L 83.75 35.999624999999995 L 90.45 35.2835 L 97.15 34.771375 L 103.85 35.13475 L 110.55 34.954125 L 117.25 34.20399999999999 L 123.95 33.717375 L 130.65 34.150875 L 137.35 34.274125 L 144.05 33.632374999999996 L 150.75 33.198874999999994 L 157.45 33.73224999999999 L 164.15 33.73437499999999 L 170.85 33.292375 L 177.55 33.08625 L 184.25 34.106249999999996 L 190.95 33.832125 L 197.65 33.509125 L 204.35 33.449625 L 211.05 33.991499999999995 L 217.75 34.252874999999996 L 224.45 34.59075 L 231.15 34.346374999999995 L 237.85 34.414375 L 244.55 35.379124999999995 L 251.25 35.791374999999995 L 257.95 36.114374999999995 L 264.65 36.622249999999994" class="highcharts-graph" data-z-index="1" stroke-linejoin="round" stroke-linecap="round"></path></g><g data-z-index="0.1" class="highcharts-markers highcharts-series-2 highcharts-area-series " transform="translate(50,103) scale(1 1)" clip-path="none"></g><g data-z-index="0.1" class="highcharts-series highcharts-series-3 highcharts-area-series " transform="translate(50,103) scale(1 1)" clip-path="url(#highcharts-5u8urgz-7)"><path fill="rgb(242,242,242)" fill-opacity="0.75" d="M 3.35 48.163125 L 10.05 47.874125 L 16.75 48.02075 L 23.45 48.099374999999995 L 30.15 47.512874999999994 L 36.85 47.032624999999996 L 43.55 47.179249999999996 L 50.25 48.16525 L 56.95 48.62 L 63.65 48.43725 L 70.35 47.855 L 77.05 48.13975 L 83.75 48.1185 L 90.45 47.591499999999996 L 97.15 47.266375 L 103.85 47.529875 L 110.55 47.391749999999995 L 117.25 46.796749999999996 L 123.95 46.41 L 130.65 46.8435 L 137.35 46.88175 L 144.05 46.36325 L 150.75 45.948874999999994 L 157.45 46.356874999999995 L 164.15 46.273999999999994 L 170.85 45.77675 L 177.55 45.555749999999996 L 184.25 46.31225 L 190.95 45.87025 L 197.65 45.498374999999996 L 204.35 45.500499999999995 L 211.05 45.783125 L 217.75 45.766124999999995 L 224.45 45.940374999999996 L 231.15 45.509 L 237.85 45.42825 L 244.55 46.176249999999996 L 251.25 46.382374999999996 L 257.95 46.526875 L 264.65 46.798874999999995 L 264.65 56.484624999999994 L 257.95 56.263625 L 251.25 56.123374999999996 L 244.55 55.949124999999995 L 237.85 55.271249999999995 L 231.15 55.375375 L 224.45 55.766375 L 217.75 55.568749999999994 L 211.05 55.770624999999995 L 204.35 55.530499999999996 L 197.65 55.59425 L 190.95 55.851375 L 184.25 56.26575 L 177.55 55.71962499999999 L 170.85 55.906625 L 164.15 56.46125 L 157.45 56.646125 L 150.75 56.386874999999996 L 144.05 56.75875 L 137.35 57.221999999999994 L 130.65 57.37287499999999 L 123.95 57.156125 L 117.25 57.602374999999995 L 110.55 58.184625 L 103.85 58.456625 L 97.15 58.36525 L 90.45 58.692499999999995 L 83.75 59.1345 L 77.05 59.327875 L 70.35 59.306625 L 63.65 59.759249999999994 L 56.95 59.999375 L 50.25 59.754999999999995 L 43.55 58.987875 L 36.85 58.9475 L 30.15 59.472375 L 23.45 60.01 L 16.75 59.914375 L 10.05 59.814499999999995 L 3.35 59.992999999999995" class="highcharts-area" data-z-index="0"></path><path fill="none" d="M 3.35 48.163125 L 10.05 47.874125 L 16.75 48.02075 L 23.45 48.099374999999995 L 30.15 47.512874999999994 L 36.85 47.032624999999996 L 43.55 47.179249999999996 L 50.25 48.16525 L 56.95 48.62 L 63.65 48.43725 L 70.35 47.855 L 77.05 48.13975 L 83.75 48.1185 L 90.45 47.591499999999996 L 97.15 47.266375 L 103.85 47.529875 L 110.55 47.391749999999995 L 117.25 46.796749999999996 L 123.95 46.41 L 130.65 46.8435 L 137.35 46.88175 L 144.05 46.36325 L 150.75 45.948874999999994 L 157.45 46.356874999999995 L 164.15 46.273999999999994 L 170.85 45.77675 L 177.55 45.555749999999996 L 184.25 46.31225 L 190.95 45.87025 L 197.65 45.498374999999996 L 204.35 45.500499999999995 L 211.05 45.783125 L 217.75 45.766124999999995 L 224.45 45.940374999999996 L 231.15 45.509 L 237.85 45.42825 L 244.55 46.176249999999996 L 251.25 46.382374999999996 L 257.95 46.526875 L 264.65 46.798874999999995" class="highcharts-graph" data-z-index="1" stroke-linejoin="round" stroke-linecap="round"></path></g><g data-z-index="0.1" class="highcharts-markers highcharts-series-3 highcharts-area-series " transform="translate(50,103) scale(1 1)" clip-path="none"></g><g data-z-index="0.1" class="highcharts-series highcharts-series-4 highcharts-area-series " transform="translate(50,103) scale(1 1)" clip-path="url(#highcharts-5u8urgz-7)"><path fill="rgb(215,232,210)" fill-opacity="0.75" d="M 3.35 59.992999999999995 L 10.05 59.814499999999995 L 16.75 59.914375 L 23.45 60.01 L 30.15 59.472375 L 36.85 58.9475 L 43.55 58.987875 L 50.25 59.754999999999995 L 56.95 59.999375 L 63.65 59.759249999999994 L 70.35 59.306625 L 77.05 59.327875 L 83.75 59.1345 L 90.45 58.692499999999995 L 97.15 58.36525 L 103.85 58.456625 L 110.55 58.184625 L 117.25 57.602374999999995 L 123.95 57.156125 L 130.65 57.37287499999999 L 137.35 57.221999999999994 L 144.05 56.75875 L 150.75 56.386874999999996 L 157.45 56.646125 L 164.15 56.46125 L 170.85 55.906625 L 177.55 55.71962499999999 L 184.25 56.26575 L 190.95 55.851375 L 197.65 55.59425 L 204.35 55.530499999999996 L 211.05 55.770624999999995 L 217.75 55.568749999999994 L 224.45 55.766375 L 231.15 55.375375 L 237.85 55.271249999999995 L 244.55 55.949124999999995 L 251.25 56.123374999999996 L 257.95 56.263625 L 264.65 56.484624999999994 L 264.65 65.94512499999999 L 257.95 65.78575000000001 L 251.25 65.67949999999999 L 244.55 65.592375 L 237.85 65.082375 L 231.15 65.11212499999999 L 224.45 65.418125 L 217.75 65.2715 L 211.05 65.55199999999999 L 204.35 65.392625 L 197.65 65.235375 L 190.95 65.467 L 184.25 65.766625 L 177.55 65.3055 L 170.85 65.40325 L 164.15 65.626375 L 157.45 65.773 L 150.75 65.57325 L 144.05 65.82825 L 137.35 66.14699999999999 L 130.65 66.285125 L 123.95 66.17675 L 117.25 66.44875 L 110.55 66.83975 L 103.85 67.09475 L 97.15 66.96725 L 90.45 67.266875 L 83.75 67.653625 L 77.05 67.874625 L 70.35 67.8385 L 63.65 68.325125 L 56.95 68.618375 L 50.25 68.51425 L 43.55 68.002125 L 36.85 68.019125 L 30.15 68.465375 L 23.45 68.928625 L 16.75 68.90525 L 10.05 68.945625 L 3.35 69.145375" class="highcharts-area" data-z-index="0"></path><path fill="none" d="M 3.35 59.992999999999995 L 10.05 59.814499999999995 L 16.75 59.914375 L 23.45 60.01 L 30.15 59.472375 L 36.85 58.9475 L 43.55 58.987875 L 50.25 59.754999999999995 L 56.95 59.999375 L 63.65 59.759249999999994 L 70.35 59.306625 L 77.05 59.327875 L 83.75 59.1345 L 90.45 58.692499999999995 L 97.15 58.36525 L 103.85 58.456625 L 110.55 58.184625 L 117.25 57.602374999999995 L 123.95 57.156125 L 130.65 57.37287499999999 L 137.35 57.221999999999994 L 144.05 56.75875 L 150.75 56.386874999999996 L 157.45 56.646125 L 164.15 56.46125 L 170.85 55.906625 L 177.55 55.71962499999999 L 184.25 56.26575 L 190.95 55.851375 L 197.65 55.59425 L 204.35 55.530499999999996 L 211.05 55.770624999999995 L 217.75 55.568749999999994 L 224.45 55.766375 L 231.15 55.375375 L 237.85 55.271249999999995 L 244.55 55.949124999999995 L 251.25 56.123374999999996 L 257.95 56.263625 L 264.65 56.484624999999994" class="highcharts-graph" data-z-index="1" stroke-linejoin="round" stroke-linecap="round"></path></g><g data-z-index="0.1" class="highcharts-markers highcharts-series-4 highcharts-area-series " transform="translate(50,103) scale(1 1)" clip-path="none"></g><g data-z-index="0.1" class="highcharts-series highcharts-series-5 highcharts-area-series " transform="translate(50,103) scale(1 1)" clip-path="url(#highcharts-5u8urgz-7)"><path fill="rgb(115,185,124)" fill-opacity="0.75" d="M 3.35 69.145375 L 10.05 68.945625 L 16.75 68.90525 L 23.45 68.928625 L 30.15 68.465375 L 36.85 68.019125 L 43.55 68.002125 L 50.25 68.51425 L 56.95 68.618375 L 63.65 68.325125 L 70.35 67.8385 L 77.05 67.874625 L 83.75 67.653625 L 90.45 67.266875 L 97.15 66.96725 L 103.85 67.09475 L 110.55 66.83975 L 117.25 66.44875 L 123.95 66.17675 L 130.65 66.285125 L 137.35 66.14699999999999 L 144.05 65.82825 L 150.75 65.57325 L 157.45 65.773 L 164.15 65.626375 L 170.85 65.40325 L 177.55 65.3055 L 184.25 65.766625 L 190.95 65.467 L 197.65 65.235375 L 204.35 65.392625 L 211.05 65.55199999999999 L 217.75 65.2715 L 224.45 65.418125 L 231.15 65.11212499999999 L 237.85 65.082375 L 244.55 65.592375 L 251.25 65.67949999999999 L 257.95 65.78575000000001 L 264.65 65.94512499999999 L 264.65 74.598125 L 257.95 74.457875 L 251.25 74.334625 L 244.55 74.326125 L 237.85 73.884125 L 231.15 73.94575 L 224.45 74.168875 L 217.75 73.990375 L 211.05 74.173125 L 204.35 73.981875 L 197.65 73.87774999999999 L 190.95 74.069 L 184.25 74.313375 L 177.55 73.967 L 170.85 74.071125 L 164.15 74.266625 L 157.45 74.31975 L 150.75 74.26875 L 144.05 74.4005 L 137.35 74.59175 L 130.65 74.681 L 123.95 74.5705 L 117.25 74.687375 L 110.55 74.984875 L 103.85 75.163375 L 97.15 75.031625 L 90.45 75.23349999999999 L 83.75 75.446 L 77.05 75.575625 L 70.35 75.52674999999999 L 63.65 75.87950000000001 L 56.95 75.99425 L 50.25 75.843375 L 43.55 75.39075 L 36.85 75.40775 L 30.15 75.660625 L 23.45 75.962375 L 16.75 75.9815 L 10.05 76.05375 L 3.35 76.211" class="highcharts-area" data-z-index="0"></path><path fill="none" d="M 3.35 69.145375 L 10.05 68.945625 L 16.75 68.90525 L 23.45 68.928625 L 30.15 68.465375 L 36.85 68.019125 L 43.55 68.002125 L 50.25 68.51425 L 56.95 68.618375 L 63.65 68.325125 L 70.35 67.8385 L 77.05 67.874625 L 83.75 67.653625 L 90.45 67.266875 L 97.15 66.96725 L 103.85 67.09475 L 110.55 66.83975 L 117.25 66.44875 L 123.95 66.17675 L 130.65 66.285125 L 137.35 66.14699999999999 L 144.05 65.82825 L 150.75 65.57325 L 157.45 65.773 L 164.15 65.626375 L 170.85 65.40325 L 177.55 65.3055 L 184.25 65.766625 L 190.95 65.467 L 197.65 65.235375 L 204.35 65.392625 L 211.05 65.55199999999999 L 217.75 65.2715 L 224.45 65.418125 L 231.15 65.11212499999999 L 237.85 65.082375 L 244.55 65.592375 L 251.25 65.67949999999999 L 257.95 65.78575000000001 L 264.65 65.94512499999999" class="highcharts-graph" data-z-index="1" stroke-linejoin="round" stroke-linecap="round"></path></g><g data-z-index="0.1" class="highcharts-markers highcharts-series-5 highcharts-area-series " transform="translate(50,103) scale(1 1)" clip-path="none"></g><g data-z-index="0.1" class="highcharts-series highcharts-series-6 highcharts-area-series " transform="translate(50,103) scale(1 1)" clip-path="url(#highcharts-5u8urgz-7)"><path fill="rgb(0,122,47)" fill-opacity="0.75" d="M 3.35 76.211 L 10.05 76.05375 L 16.75 75.9815 L 23.45 75.962375 L 30.15 75.660625 L 36.85 75.40775 L 43.55 75.39075 L 50.25 75.843375 L 56.95 75.99425 L 63.65 75.87950000000001 L 70.35 75.52674999999999 L 77.05 75.575625 L 83.75 75.446 L 90.45 75.23349999999999 L 97.15 75.031625 L 103.85 75.163375 L 110.55 74.984875 L 117.25 74.687375 L 123.95 74.5705 L 130.65 74.681 L 137.35 74.59175 L 144.05 74.4005 L 150.75 74.26875 L 157.45 74.31975 L 164.15 74.266625 L 170.85 74.071125 L 177.55 73.967 L 184.25 74.313375 L 190.95 74.069 L 197.65 73.87774999999999 L 204.35 73.981875 L 211.05 74.173125 L 217.75 73.990375 L 224.45 74.168875 L 231.15 73.94575 L 237.85 73.884125 L 244.55 74.326125 L 251.25 74.334625 L 257.95 74.457875 L 264.65 74.598125 L 264.65 81.52775 L 257.95 81.483125 L 251.25 81.4045 L 244.55 81.4555 L 237.85 81.294 L 231.15 81.355625 L 224.45 81.45125 L 217.75 81.410875 L 211.05 81.500125 L 204.35 81.4385 L 197.65 81.355625 L 190.95 81.345 L 184.25 81.45975 L 177.55 81.228125 L 170.85 81.253625 L 164.15 81.270625 L 157.45 81.245125 L 150.75 81.16225 L 144.05 81.283375 L 137.35 81.4045 L 130.65 81.4045 L 123.95 81.257875 L 117.25 81.32375 L 110.55 81.44275 L 103.85 81.504375 L 97.15 81.41725 L 90.45 81.532 L 83.75 81.55325 L 77.05 81.63825 L 70.35 81.589375 L 63.65 81.75725 L 56.95 81.835875 L 50.25 81.753 L 43.55 81.542625 L 36.85 81.525625 L 30.15 81.606375 L 23.45 81.721125 L 16.75 81.789125 L 10.05 81.82525 L 3.35 81.872" class="highcharts-area" data-z-index="0"></path><path fill="none" d="M 3.35 76.211 L 10.05 76.05375 L 16.75 75.9815 L 23.45 75.962375 L 30.15 75.660625 L 36.85 75.40775 L 43.55 75.39075 L 50.25 75.843375 L 56.95 75.99425 L 63.65 75.87950000000001 L 70.35 75.52674999999999 L 77.05 75.575625 L 83.75 75.446 L 90.45 75.23349999999999 L 97.15 75.031625 L 103.85 75.163375 L 110.55 74.984875 L 117.25 74.687375 L 123.95 74.5705 L 130.65 74.681 L 137.35 74.59175 L 144.05 74.4005 L 150.75 74.26875 L 157.45 74.31975 L 164.15 74.266625 L 170.85 74.071125 L 177.55 73.967 L 184.25 74.313375 L 190.95 74.069 L 197.65 73.87774999999999 L 204.35 73.981875 L 211.05 74.173125 L 217.75 73.990375 L 224.45 74.168875 L 231.15 73.94575 L 237.85 73.884125 L 244.55 74.326125 L 251.25 74.334625 L 257.95 74.457875 L 264.65 74.598125" class="highcharts-graph" data-z-index="1" stroke-linejoin="round" stroke-linecap="round"></path></g><g data-z-index="0.1" class="highcharts-markers highcharts-series-6 highcharts-area-series " transform="translate(50,103) scale(1 1)" clip-path="none"></g><g data-z-index="0.1" class="highcharts-series highcharts-series-7 highcharts-area-series " transform="translate(50,103) scale(1 1)" clip-path="url(#highcharts-5u8urgz-7)"><path fill="rgb(10,59,25)" fill-opacity="0.75" d="M 3.35 81.872 L 10.05 81.82525 L 16.75 81.789125 L 23.45 81.721125 L 30.15 81.606375 L 36.85 81.525625 L 43.55 81.542625 L 50.25 81.753 L 56.95 81.835875 L 63.65 81.75725 L 70.35 81.589375 L 77.05 81.63825 L 83.75 81.55325 L 90.45 81.532 L 97.15 81.41725 L 103.85 81.504375 L 110.55 81.44275 L 117.25 81.32375 L 123.95 81.257875 L 130.65 81.4045 L 137.35 81.4045 L 144.05 81.283375 L 150.75 81.16225 L 157.45 81.245125 L 164.15 81.270625 L 170.85 81.253625 L 177.55 81.228125 L 184.25 81.45975 L 190.95 81.345 L 197.65 81.355625 L 204.35 81.4385 L 211.05 81.500125 L 217.75 81.410875 L 224.45 81.45125 L 231.15 81.355625 L 237.85 81.294 L 244.55 81.4555 L 251.25 81.4045 L 257.95 81.483125 L 264.65 81.52775 L 264.65 85 L 257.95 85 L 251.25 85 L 244.55 85 L 237.85 85 L 231.15 85 L 224.45 85 L 217.75 85 L 211.05 85 L 204.35 85 L 197.65 85 L 190.95 85 L 184.25 85 L 177.55 85 L 170.85 85 L 164.15 85 L 157.45 85 L 150.75 85 L 144.05 85 L 137.35 85 L 130.65 85 L 123.95 85 L 117.25 85 L 110.55 85 L 103.85 85 L 97.15 85 L 90.45 85 L 83.75 85 L 77.05 85 L 70.35 85 L 63.65 85 L 56.95 85 L 50.25 85 L 43.55 85 L 36.85 85 L 30.15 85 L 23.45 85 L 16.75 85 L 10.05 85 L 3.35 85" class="highcharts-area" data-z-index="0"></path><path fill="none" d="M 3.35 81.872 L 10.05 81.82525 L 16.75 81.789125 L 23.45 81.721125 L 30.15 81.606375 L 36.85 81.525625 L 43.55 81.542625 L 50.25 81.753 L 56.95 81.835875 L 63.65 81.75725 L 70.35 81.589375 L 77.05 81.63825 L 83.75 81.55325 L 90.45 81.532 L 97.15 81.41725 L 103.85 81.504375 L 110.55 81.44275 L 117.25 81.32375 L 123.95 81.257875 L 130.65 81.4045 L 137.35 81.4045 L 144.05 81.283375 L 150.75 81.16225 L 157.45 81.245125 L 164.15 81.270625 L 170.85 81.253625 L 177.55 81.228125 L 184.25 81.45975 L 190.95 81.345 L 197.65 81.355625 L 204.35 81.4385 L 211.05 81.500125 L 217.75 81.410875 L 224.45 81.45125 L 231.15 81.355625 L 237.85 81.294 L 244.55 81.4555 L 251.25 81.4045 L 257.95 81.483125 L 264.65 81.52775" class="highcharts-graph" data-z-index="1" stroke-linejoin="round" stroke-linecap="round"></path></g><g data-z-index="0.1" class="highcharts-markers highcharts-series-7 highcharts-area-series " transform="translate(50,103) scale(1 1)" clip-path="none"></g></g><text x="2" text-anchor="start" class="highcharts-title" data-z-index="4" style="color:#000000;font-size:10px;font-weight:bold;fill:#000000;" y="9"><tspan>Grenzg채nger nach Alter</tspan></text><text x="2" text-anchor="start" class="highcharts-subtitle" data-z-index="4" style="color:#000000;font-size:10px;font-weight:normal;font-family:Arial;fill:#000000;" y="26"><tspan>Basel-Stadt</tspan></text><g class="highcharts-legend" data-z-index="7" transform="translate(47,42)"><rect fill="none" class="highcharts-legend-box" rx="0" ry="0" x="0" y="0" width="241" height="49" visibility="visible"></rect><g data-z-index="1"><g><g class="highcharts-legend-item highcharts-area-series highcharts-color-undefined highcharts-series-7" data-z-index="1" transform="translate(0,-5)"><text x="21" style="color:#333333;font-size:10px;font-weight:normal;cursor:pointer;fill:#333333;" text-anchor="start" data-z-index="2" y="13"><tspan>&lt;25 Jahre</tspan></text><rect x="3" y="4" width="10" height="10" fill="#0A3B19" class="highcharts-point" data-z-index="3"></rect></g><g class="highcharts-legend-item highcharts-area-series highcharts-color-undefined highcharts-series-6" data-z-index="1" transform="translate(82,-5)"><text x="21" y="13" style="color:#333333;font-size:10px;font-weight:normal;cursor:pointer;fill:#333333;" text-anchor="start" data-z-index="2"><tspan>25-29 Jahre</tspan></text><rect x="3" y="4" width="10" height="10" fill="#007A2F" class="highcharts-point" data-z-index="3"></rect></g><g class="highcharts-legend-item highcharts-area-series highcharts-color-undefined highcharts-series-5" data-z-index="1" transform="translate(164,-5)"><text x="21" y="13" style="color:#333333;font-size:10px;font-weight:normal;cursor:pointer;fill:#333333;" text-anchor="start" data-z-index="2"><tspan>30-34 Jahre</tspan></text><rect x="3" y="4" width="10" height="10" fill="#73B97C" class="highcharts-point" data-z-index="3"></rect></g><g class="highcharts-legend-item highcharts-area-series highcharts-color-undefined highcharts-series-4" data-z-index="1" transform="translate(0,13)"><text x="21" y="13" style="color:#333333;font-size:10px;font-weight:normal;cursor:pointer;fill:#333333;" text-anchor="start" data-z-index="2"><tspan>35-39 Jahre</tspan></text><rect x="3" y="4" width="10" height="10" fill="#D7E8D2" class="highcharts-point" data-z-index="3"></rect></g><g class="highcharts-legend-item highcharts-area-series highcharts-color-undefined highcharts-series-3" data-z-index="1" transform="translate(82,13)"><text x="21" y="13" style="color:#333333;font-size:10px;font-weight:normal;cursor:pointer;fill:#333333;" text-anchor="start" data-z-index="2"><tspan>40-44 Jahre</tspan></text><rect x="3" y="4" width="10" height="10" fill="#F2F2F2" class="highcharts-point" data-z-index="3"></rect></g><g class="highcharts-legend-item highcharts-area-series highcharts-color-undefined highcharts-series-2" data-z-index="1" transform="translate(164,13)"><text x="21" y="13" style="color:#333333;font-size:10px;font-weight:normal;cursor:pointer;fill:#333333;" text-anchor="start" data-z-index="2"><tspan>45-49 Jahre</tspan></text><rect x="3" y="4" width="10" height="10" fill="#2F656B" class="highcharts-point" data-z-index="3"></rect></g><g class="highcharts-legend-item highcharts-area-series highcharts-color-undefined highcharts-series-1" data-z-index="1" transform="translate(0,31)"><text x="21" y="13" style="color:#333333;font-size:10px;font-weight:normal;cursor:pointer;fill:#333333;" text-anchor="start" data-z-index="2"><tspan>50-54 Jahre</tspan></text><rect x="3" y="4" width="10" height="10" fill="#689199" class="highcharts-point" data-z-index="3"></rect></g><g class="highcharts-legend-item highcharts-area-series highcharts-color-undefined highcharts-series-0" data-z-index="1" transform="translate(82,31)"><text x="21" y="13" style="color:#333333;font-size:10px;font-weight:normal;cursor:pointer;fill:#333333;" text-anchor="start" data-z-index="2"><tspan>&gt;54 Jahre</tspan></text><rect x="3" y="4" width="10" height="10" fill="#D3E2E4" class="highcharts-point" data-z-index="3"></rect></g></g></g></g><g class="highcharts-axis-labels highcharts-xaxis-labels " data-z-index="7"><text x="64.35" style="color:#000000;cursor:default;font-size:10px;fill:#000000;" text-anchor="middle" transform="translate(0,0)" y="206" opacity="1">2009</text><text x="91.15" style="color:#000000;cursor:default;font-size:10px;fill:#000000;" text-anchor="middle" transform="translate(0,0)" y="206" opacity="1">2010</text><text x="117.95" style="color:#000000;cursor:default;font-size:10px;fill:#000000;" text-anchor="middle" transform="translate(0,0)" y="206" opacity="1">2011</text><text x="144.75" style="color:#000000;cursor:default;font-size:10px;fill:#000000;" text-anchor="middle" transform="translate(0,0)" y="206" opacity="1">2012</text><text x="171.55" style="color:#000000;cursor:default;font-size:10px;fill:#000000;" text-anchor="middle" transform="translate(0,0)" y="206" opacity="1">2013</text><text x="198.35" style="color:#000000;cursor:default;font-size:10px;fill:#000000;" text-anchor="middle" transform="translate(0,0)" y="206" opacity="1">2014</text><text x="225.15" style="color:#000000;cursor:default;font-size:10px;fill:#000000;" text-anchor="middle" transform="translate(0,0)" y="206" opacity="1">2015</text><text x="251.95" style="color:#000000;cursor:default;font-size:10px;fill:#000000;" text-anchor="middle" transform="translate(0,0)" y="206" opacity="1">2016</text><text x="278.75" style="color:#000000;cursor:default;font-size:10px;fill:#000000;" text-anchor="middle" transform="translate(0,0)" y="206" opacity="1">2017</text><text x="305.55" style="color:#000000;cursor:default;font-size:10px;fill:#000000;" text-anchor="middle" transform="translate(0,0)" y="206" opacity="1">2018</text></g><g class="highcharts-axis-labels highcharts-yaxis-labels " data-z-index="7"><text x="35" style="color:#000000;cursor:default;font-size:10px;fill:#000000;" text-anchor="end" transform="translate(0,0)" y="191" opacity="1">0</text><text x="35" style="color:#000000;cursor:default;font-size:10px;fill:#000000;" text-anchor="end" transform="translate(0,0)" y="174" opacity="1"><tspan>8 000</tspan></text><text x="35" style="color:#000000;cursor:default;font-size:10px;fill:#000000;" text-anchor="end" transform="translate(0,0)" y="157" opacity="1"><tspan>16 000</tspan></text><text x="35" style="color:#000000;cursor:default;font-size:10px;fill:#000000;" text-anchor="end" transform="translate(0,0)" y="140" opacity="1"><tspan>24 000</tspan></text><text x="35" style="color:#000000;cursor:default;font-size:10px;fill:#000000;" text-anchor="end" transform="translate(0,0)" y="123" opacity="1"><tspan>32 000</tspan></text><text x="35" style="color:#000000;cursor:default;font-size:10px;fill:#000000;" text-anchor="end" transform="translate(0,0)" y="106" opacity="1"><tspan>40 000</tspan></text></g><text x="10" class="highcharts-credits" text-anchor="start" data-z-index="8" style="cursor:default;color:#000000;font-size:10;fill:#000000;" y="196"><tspan>Quelle: Bundesamt f체r Statistik (BFS), Grenzg채ngerstatistik (GGS).</tspan><tspan x="10" dy="15">Zuletzt ge채ndert: 2019-3-25</tspan></text></svg>