<?xml version="1.0" standalone="no"?><!DOCTYPE svg PUBLIC "-//W3C//DTD SVG 1.1//EN" "http://www.w3.org/Graphics/SVG/1.1/DTD/svg11.dtd"><svg xmlns:xlink="http://www.w3.org/1999/xlink" version="1.1" class="highcharts-root" style="font-family:Arial;font-size:12px;" xmlns="http://www.w3.org/2000/svg" viewBox="0 0 485 415"><desc>Created with Highstock 6.1.1</desc><defs><clipPath id="highcharts-9szdkq7-6"><rect x="0" y="0" width="249" height="134" fill="none"></rect></clipPath><clipPath id="highcharts-9szdkq7-7"><rect x="0" y="0" width="249" height="134" fill="none"></rect></clipPath></defs><rect fill="#fbfbfb" class="highcharts-background" x="0" y="0" width="320" height="221" rx="0" ry="0"></rect><rect fill="none" class="highcharts-plot-background" x="56" y="54" width="249" height="134"></rect><g class="highcharts-pane-group" data-z-index="0"></g><g class="highcharts-grid highcharts-xaxis-grid " data-z-index="1"><path fill="none" data-z-index="1" class="highcharts-grid-line" d="M 58.5 54 L 58.5 188" opacity="1"></path><path fill="none" data-z-index="1" class="highcharts-grid-line" d="M 83.5 54 L 83.5 188" opacity="1"></path><path fill="none" data-z-index="1" class="highcharts-grid-line" d="M 108.5 54 L 108.5 188" opacity="1"></path><path fill="none" data-z-index="1" class="highcharts-grid-line" d="M 133.5 54 L 133.5 188" opacity="1"></path><path fill="none" data-z-index="1" class="highcharts-grid-line" d="M 158.5 54 L 158.5 188" opacity="1"></path><path fill="none" data-z-index="1" class="highcharts-grid-line" d="M 183.5 54 L 183.5 188" opacity="1"></path><path fill="none" data-z-index="1" class="highcharts-grid-line" d="M 208.5 54 L 208.5 188" opacity="1"></path><path fill="none" data-z-index="1" class="highcharts-grid-line" d="M 232.5 54 L 232.5 188" opacity="1"></path><path fill="none" data-z-index="1" class="highcharts-grid-line" d="M 257.5 54 L 257.5 188" opacity="1"></path><path fill="none" data-z-index="1" class="highcharts-grid-line" d="M 282.5 54 L 282.5 188" opacity="1"></path></g><g class="highcharts-grid highcharts-yaxis-grid " data-z-index="1"><path fill="none" stroke="#B9CFD7" stroke-width="0.5" data-z-index="1" class="highcharts-grid-line" d="M 56 188.25 L 305 188.25" opacity="1"></path><path fill="none" stroke="#B9CFD7" stroke-width="0.5" data-z-index="1" class="highcharts-grid-line" d="M 56 161.25 L 305 161.25" opacity="1"></path><path fill="none" stroke="#B9CFD7" stroke-width="0.5" data-z-index="1" class="highcharts-grid-line" d="M 56 134.25 L 305 134.25" opacity="1"></path><path fill="none" stroke="#B9CFD7" stroke-width="0.5" data-z-index="1" class="highcharts-grid-line" d="M 56 108.25 L 305 108.25" opacity="1"></path><path fill="none" stroke="#B9CFD7" stroke-width="0.5" data-z-index="1" class="highcharts-grid-line" d="M 56 81.25 L 305 81.25" opacity="1"></path><path fill="none" stroke="#B9CFD7" stroke-width="0.5" data-z-index="1" class="highcharts-grid-line" d="M 56 53.75 L 305 53.75" opacity="1"></path></g><rect fill="none" class="highcharts-plot-border" data-z-index="1" x="56" y="54" width="249" height="134"></rect><g class="highcharts-axis highcharts-xaxis " data-z-index="2"><path fill="none" class="highcharts-axis-line" stroke="#B9CFD7" stroke-width="0.5" data-z-index="7" d="M 56 188.25 L 305 188.25"></path></g><g class="highcharts-axis highcharts-yaxis " data-z-index="2"><path fill="none" class="highcharts-axis-line" data-z-index="7" d="M 56 54 L 56 188"></path></g><g class="highcharts-series-group" data-z-index="3"><g data-z-index="0.1" class="highcharts-series highcharts-series-0 highcharts-line-series " transform="translate(56,54) scale(1 1)" clip-path="url(#highcharts-9szdkq7-7)"><path fill="none" d="M 3.1125 115.51336 L 9.3375 116.9016 L 15.5625 109.59145333333333 L 21.7875 106.18338666666666 L 28.0125 111.00083555555555 L 34.2375 114.16353333333333 L 40.4625 106.4079111111111 L 46.6875 107.38492 L 52.9125 106.00412444444444 L 59.1375 110.66821777777778 L 65.3625 98.05077777777777 L 71.5875 104.77906666666667 L 77.8125 107.22531111111111 L 84.0375 91.2942 L 90.2625 96.94989333333334 L 96.4875 105.78466222222222 L 102.7125 83.47961777777778 L 108.9375 94.63169333333333 L 115.1625 94.2648311111111 L 121.3875 107.86315111111111 L 127.6125 79.93963555555555 L 133.8375 101.47105333333333 L 140.0625 97.26553777777778 L 146.2875 109.38152 L 152.5125 80.67484888888889 L 158.7375 102.33937333333333 L 164.9625 101.02349333333333 L 171.1875 109.66976888888888 L 177.4125 89.87231111111112 L 183.6375 99.40090222222221 L 189.8625 96.95704 L 196.0875 106.89507555555556 L 202.3125 92.01035555555555 L 208.5375 102.06124888888888 L 214.7625 98.72316000000001 L 220.9875 107.36199111111111 L 227.2125 103.25682666666667 L 233.4375 103.89734666666666 L 239.6625 97.43705777777778 L 245.8875 104.84934222222222" class="highcharts-graph" data-z-index="1" stroke="#6F6F6F" stroke-width="2" stroke-linejoin="round" stroke-linecap="round"></path></g><g data-z-index="0.1" class="highcharts-markers highcharts-series-0 highcharts-line-series " transform="translate(56,54) scale(1 1)" clip-path="none"></g><g data-z-index="0.1" class="highcharts-series highcharts-series-1 highcharts-line-series " transform="translate(56,54) scale(1 1)" clip-path="url(#highcharts-9szdkq7-7)"><path fill="none" d="M 3.1125 125.78252444444445 L 9.3375 121.32449333333334 L 15.5625 116.06484444444445 L 21.7875 116.16549333333333 L 28.0125 123.19364444444444 L 34.2375 122.02129333333333 L 40.4625 117.90838666666667 L 46.6875 120.07472 L 52.9125 122.87889333333334 L 59.1375 121.11634666666667 L 65.3625 111.86141333333333 L 71.5875 120.08960888888889 L 77.8125 123.42412444444444 L 84.0375 118.05578666666666 L 90.2625 106.92783111111112 L 96.4875 114.68226222222222 L 102.7125 119.32968 L 108.9375 117.63711111111111 L 115.1625 108.83956444444445 L 121.3875 118.82077777777778 L 127.6125 121.14999555555556 L 133.8375 119.72215111111112 L 140.0625 111.66458222222222 L 146.2875 121.0061688888889 L 152.5125 124.21353333333333 L 158.7375 120.27155111111111 L 164.9625 113.17997333333334 L 171.1875 120.58183555555556 L 177.4125 122.23837333333333 L 183.6375 118.51853333333334 L 189.8625 113.44559111111111 L 196.0875 119.85734222222223 L 202.3125 122.11568888888888 L 208.5375 119.08848 L 214.7625 113.32290666666667 L 220.9875 120.58421777777778 L 227.2125 123.76776 L 233.4375 120.43145777777778 L 239.6625 112.43433777777778 L 245.8875 120.17358222222222" class="highcharts-graph" data-z-index="1" stroke="#FF8028" stroke-width="2" stroke-linejoin="round" stroke-linecap="round"></path></g><g data-z-index="0.1" class="highcharts-markers highcharts-series-1 highcharts-line-series " transform="translate(56,54) scale(1 1)" clip-path="none"></g><g data-z-index="0.1" class="highcharts-series highcharts-series-2 highcharts-line-series " transform="translate(56,54) scale(1 1)" clip-path="url(#highcharts-9szdkq7-7)"><path fill="none" d="M 3.1125 120.5866 L 9.3375 114.23768 L 15.5625 100.85435555555556 L 21.7875 105.80550666666667 L 28.0125 115.90344888888889 L 34.2375 111.19945333333334 L 40.4625 97.73126222222223 L 46.6875 103.31370222222222 L 52.9125 110.85016 L 59.1375 101.10448888888888 L 65.3625 83.90603555555555 L 71.5875 104.84279111111111 L 77.8125 109.67751111111112 L 84.0375 99.17310222222221 L 90.2625 85.78471555555555 L 96.4875 100.20430666666667 L 102.7125 104.56317777777778 L 108.9375 98.94500444444444 L 115.1625 82.12592000000001 L 121.3875 103.61177777777777 L 127.6125 106.8102088888889 L 133.8375 98.02368 L 140.0625 82.6512 L 146.2875 101.18608 L 152.5125 102.86227111111111 L 158.7375 96.44248 L 164.9625 87.09166222222223 L 171.1875 102.00943555555556 L 177.4125 102.3908888888889 L 183.6375 97.40191999999999 L 189.8625 85.62332 L 196.0875 95.53753333333333 L 202.3125 98.48285333333334 L 208.5375 89.18355111111111 L 214.7625 85.79722222222222 L 220.9875 102.0451688888889 L 227.2125 105.24330222222223 L 233.4375 93.36018222222222 L 239.6625 87.88970666666667 L 245.8875 101.47254222222222" class="highcharts-graph" data-z-index="1" stroke="#A8C3CA" stroke-width="2" stroke-linejoin="round" stroke-linecap="round"></path></g><g data-z-index="0.1" class="highcharts-markers highcharts-series-2 highcharts-line-series " transform="translate(56,54) scale(1 1)" clip-path="none"></g><g data-z-index="0.1" class="highcharts-series highcharts-series-3 highcharts-line-series " transform="translate(56,54) scale(1 1)" clip-path="url(#highcharts-9szdkq7-7)"><path fill="none" d="M 3.1125 86.51337777777778 L 9.3375 77.4186488888889 L 15.5625 67.33351111111111 L 21.7875 57.20906666666667 L 28.0125 77.67860888888889 L 34.2375 63.25931555555556 L 40.4625 49.603524444444446 L 46.6875 8.801119999999997 L 52.9125 53.43354222222223 L 59.1375 46.04716444444445 L 65.3625 16.078511111111112 L 71.5875 36.589146666666664 L 77.8125 50.92655111111111 L 84.0375 27.73412888888889 L 90.2625 9.072693333333333 L 96.4875 29.664324444444446 L 102.7125 49.392399999999995 L 108.9375 45.10469777777777 L 115.1625 24.488351111111115 L 121.3875 44.672622222222216 L 127.6125 53.577368888888884 L 133.8375 45.57756888888889 L 140.0625 29.096760000000003 L 146.2875 51.0138 L 152.5125 59.21698222222223 L 158.7375 44.946577777777776 L 164.9625 33.58754666666667 L 171.1875 51.84370666666666 L 177.4125 54.25957777777778 L 183.6375 50.97092000000001 L 189.8625 30.46624 L 196.0875 52.709942222222224 L 202.3125 56.018253333333334 L 208.5375 42.03282222222222 L 214.7625 27.559035555555553 L 220.9875 48.19712 L 227.2125 55.29614222222223 L 233.4375 44.007982222222225 L 239.6625 30.944471111111113 L 245.8875 46.746942222222216" class="highcharts-graph" data-z-index="1" stroke="#008AC3" stroke-width="2" stroke-linejoin="round" stroke-linecap="round"></path></g><g data-z-index="0.1" class="highcharts-markers highcharts-series-3 highcharts-line-series " transform="translate(56,54) scale(1 1)" clip-path="none"></g></g><text x="2" text-anchor="start" class="highcharts-title" data-z-index="4" style="color:#000000;font-size:10px;font-weight:bold;fill:#000000;" y="9"><tspan>Arbeitstage von Meldepflichtigen nach Einsatzkanton</tspan></text><text x="2" text-anchor="start" class="highcharts-subtitle" data-z-index="4" style="color:#000000;font-size:10px;font-weight:normal;font-family:Arial;fill:#000000;" y="26"></text><g class="highcharts-legend" data-z-index="7" transform="translate(56,29)"><rect fill="none" class="highcharts-legend-box" rx="0" ry="0" x="0" y="0" width="199" height="13" visibility="visible"></rect><g data-z-index="1"><g><g class="highcharts-legend-item highcharts-line-series highcharts-color-undefined highcharts-series-0" data-z-index="1" transform="translate(0,-5)"><path fill="none" d="M 0 10 L 16 10" class="highcharts-graph" stroke="#6F6F6F" stroke-width="2"></path><text x="21" style="color:#333333;font-size:10px;font-weight:normal;cursor:pointer;fill:#333333;" text-anchor="start" data-z-index="2" y="13"><tspan>BS</tspan></text></g><g class="highcharts-legend-item highcharts-line-series highcharts-color-undefined highcharts-series-1" data-z-index="1" transform="translate(55,-5)"><path fill="none" d="M 0 10 L 16 10" class="highcharts-graph" stroke="#FF8028" stroke-width="2"></path><text x="21" y="13" style="color:#333333;font-size:10px;font-weight:normal;cursor:pointer;fill:#333333;" text-anchor="start" data-z-index="2"><tspan>BL</tspan></text></g><g class="highcharts-legend-item highcharts-line-series highcharts-color-undefined highcharts-series-2" data-z-index="1" transform="translate(109,-5)"><path fill="none" d="M 0 10 L 16 10" class="highcharts-graph" stroke="#A8C3CA" stroke-width="2"></path><text x="21" y="13" style="color:#333333;font-size:10px;font-weight:normal;cursor:pointer;fill:#333333;" text-anchor="start" data-z-index="2"><tspan>AG</tspan></text></g><g class="highcharts-legend-item highcharts-line-series highcharts-color-undefined highcharts-series-3" data-z-index="1" transform="translate(165,-5)"><path fill="none" d="M 0 10 L 16 10" class="highcharts-graph" stroke="#008AC3" stroke-width="2"></path><text x="21" y="13" style="color:#333333;font-size:10px;font-weight:normal;cursor:pointer;fill:#333333;" text-anchor="start" data-z-index="2"><tspan>ZH</tspan></text></g></g></g></g><g class="highcharts-axis-labels highcharts-xaxis-labels " data-z-index="7"><text x="70.1125" style="color:#000000;cursor:default;font-size:10px;white-space:nowrap;fill:#000000;" text-anchor="middle" transform="translate(0,0)" y="206" opacity="1">2010</text><text x="95.0125" style="color:#000000;cursor:default;font-size:10px;white-space:nowrap;fill:#000000;" text-anchor="middle" transform="translate(0,0)" y="206" opacity="1">2011</text><text x="119.9125" style="color:#000000;cursor:default;font-size:10px;white-space:nowrap;fill:#000000;" text-anchor="middle" transform="translate(0,0)" y="206" opacity="1">2012</text><text x="144.8125" style="color:#000000;cursor:default;font-size:10px;white-space:nowrap;fill:#000000;" text-anchor="middle" transform="translate(0,0)" y="206" opacity="1">2013</text><text x="169.7125" style="color:#000000;cursor:default;font-size:10px;white-space:nowrap;fill:#000000;" text-anchor="middle" transform="translate(0,0)" y="206" opacity="1">2014</text><text x="194.6125" style="color:#000000;cursor:default;font-size:10px;white-space:nowrap;fill:#000000;" text-anchor="middle" transform="translate(0,0)" y="206" opacity="1">2015</text><text x="219.5125" style="color:#000000;cursor:default;font-size:10px;white-space:nowrap;fill:#000000;" text-anchor="middle" transform="translate(0,0)" y="206" opacity="1">2016</text><text x="244.4125" style="color:#000000;cursor:default;font-size:10px;white-space:nowrap;fill:#000000;" text-anchor="middle" transform="translate(0,0)" y="206" opacity="1">2017</text><text x="269.3125" style="color:#000000;cursor:default;font-size:10px;white-space:nowrap;fill:#000000;" text-anchor="middle" transform="translate(0,0)" y="206" opacity="1">2018</text><text x="294.2125" style="color:#000000;cursor:default;font-size:10px;white-space:nowrap;fill:#000000;" text-anchor="middle" transform="translate(0,0)" y="206" opacity="1">2019</text></g><g class="highcharts-axis-labels highcharts-yaxis-labels " data-z-index="7"><text x="41" style="color:#000000;cursor:default;font-size:10px;fill:#000000;" text-anchor="end" transform="translate(0,0)" y="191" opacity="1">0</text><text x="41" style="color:#000000;cursor:default;font-size:10px;fill:#000000;" text-anchor="end" transform="translate(0,0)" y="164" opacity="1"><tspan>90 000</tspan></text><text x="41" style="color:#000000;cursor:default;font-size:10px;fill:#000000;" text-anchor="end" transform="translate(0,0)" y="137" opacity="1"><tspan>180 000</tspan></text><text x="41" style="color:#000000;cursor:default;font-size:10px;fill:#000000;" text-anchor="end" transform="translate(0,0)" y="111" opacity="1"><tspan>270 000</tspan></text><text x="41" style="color:#000000;cursor:default;font-size:10px;fill:#000000;" text-anchor="end" transform="translate(0,0)" y="84" opacity="1"><tspan>360 000</tspan></text><text x="41" style="color:#000000;cursor:default;font-size:10px;fill:#000000;" text-anchor="end" transform="translate(0,0)" y="57" opacity="1"><tspan>450 000</tspan></text></g><text x="10" class="highcharts-credits" text-anchor="start" data-z-index="8" style="cursor:default;color:#000000;font-size:10px;fill:#000000;" y="196"><tspan>Quelle: Staatssekretariat für Migration (SEM), Zentrales Migrationssystem (ZEMIS).</tspan><tspan x="10" dy="13">Zuletzt geändert: 2020-3-25</tspan></text></svg>