<?xml version="1.0" standalone="no"?><!DOCTYPE svg PUBLIC "-//W3C//DTD SVG 1.1//EN" "http://www.w3.org/Graphics/SVG/1.1/DTD/svg11.dtd"><svg xmlns:xlink="http://www.w3.org/1999/xlink" version="1.1" class="highcharts-root" style="font-family:Arial;font-size:12px;" xmlns="http://www.w3.org/2000/svg" viewBox="0 0 485 415"><desc>Created with Highstock 6.1.1</desc><defs><clipPath id="highcharts-qfp58gd-6"><rect x="0" y="0" width="268" height="70" fill="none"></rect></clipPath><clipPath id="highcharts-qfp58gd-7"><rect x="0" y="0" width="268" height="70" fill="none"></rect></clipPath></defs><rect fill="#fbfbfb" class="highcharts-background" x="0" y="0" width="320" height="221" rx="0" ry="0"></rect><rect fill="none" class="highcharts-plot-background" x="50" y="118" width="268" height="70"></rect><g class="highcharts-pane-group" data-z-index="0"></g><g class="highcharts-grid highcharts-xaxis-grid " data-z-index="1"><path fill="none" data-z-index="1" class="highcharts-grid-line" d="M 52.5 118 L 52.5 188" opacity="1"></path><path fill="none" data-z-index="1" class="highcharts-grid-line" d="M 79.5 118 L 79.5 188" opacity="1"></path><path fill="none" data-z-index="1" class="highcharts-grid-line" d="M 106.5 118 L 106.5 188" opacity="1"></path><path fill="none" data-z-index="1" class="highcharts-grid-line" d="M 133.5 118 L 133.5 188" opacity="1"></path><path fill="none" data-z-index="1" class="highcharts-grid-line" d="M 160.5 118 L 160.5 188" opacity="1"></path><path fill="none" data-z-index="1" class="highcharts-grid-line" d="M 186.5 118 L 186.5 188" opacity="1"></path><path fill="none" data-z-index="1" class="highcharts-grid-line" d="M 213.5 118 L 213.5 188" opacity="1"></path><path fill="none" data-z-index="1" class="highcharts-grid-line" d="M 240.5 118 L 240.5 188" opacity="1"></path><path fill="none" data-z-index="1" class="highcharts-grid-line" d="M 267.5 118 L 267.5 188" opacity="1"></path><path fill="none" data-z-index="1" class="highcharts-grid-line" d="M 294.5 118 L 294.5 188" opacity="1"></path></g><g class="highcharts-grid highcharts-yaxis-grid " data-z-index="1"><path fill="none" stroke="#B9CFD7" stroke-width="0.5" data-z-index="1" class="highcharts-grid-line" d="M 50 188.25 L 318 188.25" opacity="1"></path><path fill="none" stroke="#B9CFD7" stroke-width="0.5" data-z-index="1" class="highcharts-grid-line" d="M 50 174.25 L 318 174.25" opacity="1"></path><path fill="none" stroke="#B9CFD7" stroke-width="0.5" data-z-index="1" class="highcharts-grid-line" d="M 50 160.25 L 318 160.25" opacity="1"></path><path fill="none" stroke="#B9CFD7" stroke-width="0.5" data-z-index="1" class="highcharts-grid-line" d="M 50 146.25 L 318 146.25" opacity="1"></path><path fill="none" stroke="#B9CFD7" stroke-width="0.5" data-z-index="1" class="highcharts-grid-line" d="M 50 132.25 L 318 132.25" opacity="1"></path><path fill="none" stroke="#B9CFD7" stroke-width="0.5" data-z-index="1" class="highcharts-grid-line" d="M 50 117.75 L 318 117.75" opacity="1"></path></g><rect fill="none" class="highcharts-plot-border" data-z-index="1" x="50" y="118" width="268" height="70"></rect><g class="highcharts-axis highcharts-xaxis " data-z-index="2"><path fill="none" class="highcharts-axis-line" stroke="#B9CFD7" stroke-width="0.5" data-z-index="7" d="M 50 188.25 L 318 188.25"></path></g><g class="highcharts-axis highcharts-yaxis " data-z-index="2"><path fill="none" class="highcharts-axis-line" data-z-index="7" d="M 50 118 L 50 188"></path></g><g class="highcharts-series-group" data-z-index="3"><g data-z-index="0.1" class="highcharts-series highcharts-series-0 highcharts-line-series " transform="translate(50,118) scale(1 1)" clip-path="url(#highcharts-qfp58gd-7)"><path fill="none" d="M 3.35 68.432 L 10.05 68.4502 L 16.75 65.0454 L 23.45 63.546 L 30.15 66.9088 L 36.85 67.0586 L 43.55 67.3582 L 50.25 64.9376 L 56.95 68.0218 L 63.65 68.1408 L 70.35 67.2574 L 77.05 65.443 L 83.75 67.6494 L 90.45 67.7754 L 97.15 67.095 L 103.85 65.128 L 110.55 66.0128 L 117.25 66.6764 L 123.95 66.7716 L 130.65 64.666 L 137.35 65.5004 L 144.05 67.0866 L 150.75 64.456 L 157.45 62.895 L 164.15 63.8708 L 170.85 65.4458 L 177.55 65.009 L 184.25 62.671 L 190.95 64.2334 L 197.65 64.5568 L 204.35 65.4094 L 211.05 63.0238 L 217.75 65.6768 L 224.45 65.2442 L 231.15 65.71039999999999 L 237.85 62.209 L 244.55 64.5316 L 251.25 65.7762 L 257.95 65.079 L 264.65 60.2168" class="highcharts-graph" data-z-index="1" stroke="#D7E8D2" stroke-width="2" stroke-linejoin="round" stroke-linecap="round"></path></g><g data-z-index="0.1" class="highcharts-markers highcharts-series-0 highcharts-line-series " transform="translate(50,118) scale(1 1)" clip-path="none"></g><g data-z-index="0.1" class="highcharts-series highcharts-series-1 highcharts-line-series " transform="translate(50,118) scale(1 1)" clip-path="url(#highcharts-qfp58gd-7)"><path fill="none" d="M 3.35 69.0956 L 10.05 69.4946 L 16.75 69.3686 L 23.45 69.3042 L 30.15 67.0698 L 36.85 69.2286 L 43.55 69.4106 L 50.25 69.3644 L 56.95 66.7758 L 63.65 68.1716 L 70.35 69.3476 L 77.05 69.4134 L 83.75 68.1604 L 90.45 67.382 L 97.15 69.237 L 103.85 69.2678 L 110.55 66.8794 L 117.25 68.8688 L 123.95 69.2258 L 130.65 68.9374 L 137.35 66.7758 L 144.05 67.83 L 150.75 68.8912 L 157.45 69.468 L 164.15 68.0554 L 170.85 68.8324 L 177.55 69.3406 L 184.25 69.5198 L 190.95 68.5426 L 197.65 68.9892 L 204.35 68.8534 L 211.05 69.44 L 217.75 69.3868 L 224.45 69.2776 L 231.15 69.0088 L 237.85 67.1804 L 244.55 67.312 L 251.25 66.3306 L 257.95 62.0802 L 264.65 68.6644" class="highcharts-graph" data-z-index="1" stroke="#73B97C" stroke-width="2" stroke-linejoin="round" stroke-linecap="round"></path></g><g data-z-index="0.1" class="highcharts-markers highcharts-series-1 highcharts-line-series " transform="translate(50,118) scale(1 1)" clip-path="none"></g><g data-z-index="0.1" class="highcharts-series highcharts-series-2 highcharts-line-series " transform="translate(50,118) scale(1 1)" clip-path="url(#highcharts-qfp58gd-7)"><path fill="none" d="M 3.35 64.141 L 10.05 67.3582 L 16.75 65.7566 L 23.45 59.829 L 30.15 63.588 L 36.85 65.17 L 43.55 64.64920000000001 L 50.25 59.934 L 56.95 58.766400000000004 L 63.65 63.4088 L 70.35 62.9272 L 77.05 61.614000000000004 L 83.75 64.7696 L 90.45 60.6774 L 97.15 64.4994 L 103.85 61.5692 L 110.55 64.2026 L 117.25 64.7864 L 123.95 63.3388 L 130.65 63.0182 L 137.35 60.7418 L 144.05 63.147 L 150.75 63.1946 L 157.45 60.5626 L 164.15 59.2816 L 170.85 63.4508 L 177.55 62.3602 L 184.25 59.824799999999996 L 190.95 58.352000000000004 L 197.65 60.855199999999996 L 204.35 61.132400000000004 L 211.05 59.3712 L 217.75 60.5598 L 224.45 62.227199999999996 L 231.15 61.7008 L 237.85 58.9946 L 244.55 62.775999999999996 L 251.25 63.301 L 257.95 61.144999999999996 L 264.65 59.339" class="highcharts-graph" data-z-index="1" stroke="#007A2F" stroke-width="2" stroke-linejoin="round" stroke-linecap="round"></path></g><g data-z-index="0.1" class="highcharts-markers highcharts-series-2 highcharts-line-series " transform="translate(50,118) scale(1 1)" clip-path="none"></g><g data-z-index="0.1" class="highcharts-series highcharts-series-3 highcharts-line-series " transform="translate(50,118) scale(1 1)" clip-path="url(#highcharts-qfp58gd-7)"><path fill="none" d="M 3.35 66.9816 L 10.05 67.28960000000001 L 16.75 67.291 L 23.45 64.7052 L 30.15 63.7042 L 36.85 66.8766 L 43.55 66.5924 L 50.25 66.9424 L 56.95 66.5588 L 63.65 66.9956 L 70.35 67.7068 L 77.05 66.8864 L 83.75 65.506 L 90.45 65.4164 L 97.15 66.1276 L 103.85 65.7636 L 110.55 65.0776 L 117.25 66.6344 L 123.95 66.3866 L 130.65 64.1732 L 137.35 64.148 L 144.05 65.2932 L 150.75 64.7108 L 157.45 63.9296 L 164.15 63.5572 L 170.85 65.5186 L 177.55 65.7748 L 184.25 65.8378 L 190.95 63.824600000000004 L 197.65 65.2246 L 204.35 66.3306 L 211.05 66.4062 L 217.75 65.079 L 224.45 66.7436 L 231.15 67.1356 L 237.85 67.018 L 244.55 65.6152 L 251.25 66.0632 L 257.95 65.8546 L 264.65 65.31" class="highcharts-graph" data-z-index="1" stroke="#0A3B19" stroke-width="2" stroke-linejoin="round" stroke-linecap="round"></path></g><g data-z-index="0.1" class="highcharts-markers highcharts-series-3 highcharts-line-series " transform="translate(50,118) scale(1 1)" clip-path="none"></g></g><text x="2" text-anchor="start" class="highcharts-title" data-z-index="4" style="color:#000000;font-size:10px;font-weight:bold;fill:#000000;" y="9"><tspan>Arbeitstage von Meldepflichtigen im</tspan><tspan dy="13" x="2">Dienstleistungssektor (I)</tspan></text><text x="2" text-anchor="start" class="highcharts-subtitle" data-z-index="4" style="color:#000000;font-size:10px;font-weight:normal;font-family:Arial;fill:#000000;" y="39"><tspan>Basel-Stadt</tspan></text><g class="highcharts-legend" data-z-index="7" transform="translate(50,55)"><rect fill="none" class="highcharts-legend-box" rx="0" ry="0" x="0" y="0" width="178" height="51" visibility="visible"></rect><g data-z-index="1"><g><g class="highcharts-legend-item highcharts-line-series highcharts-color-undefined highcharts-series-0" data-z-index="1" transform="translate(0,-5)"><path fill="none" d="M 0 10 L 16 10" class="highcharts-graph" stroke="#D7E8D2" stroke-width="2"></path><text x="21" style="color:#333333;font-size:10px;font-weight:normal;cursor:pointer;fill:#333333;" text-anchor="start" data-z-index="2" y="13"><tspan>Handel, Reparatur</tspan></text></g><g class="highcharts-legend-item highcharts-line-series highcharts-color-undefined highcharts-series-1" data-z-index="1" transform="translate(0,9)"><path fill="none" d="M 0 10 L 16 10" class="highcharts-graph" stroke="#73B97C" stroke-width="2"></path><text x="21" y="13" style="color:#333333;font-size:10px;font-weight:normal;cursor:pointer;fill:#333333;" text-anchor="start" data-z-index="2"><tspan>Verkehr, Lagerei, Kommunikation</tspan></text></g><g class="highcharts-legend-item highcharts-line-series highcharts-color-undefined highcharts-series-2" data-z-index="1" transform="translate(0,23)"><path fill="none" d="M 0 10 L 16 10" class="highcharts-graph" stroke="#007A2F" stroke-width="2"></path><text x="21" y="13" style="color:#333333;font-size:10px;font-weight:normal;cursor:pointer;fill:#333333;" text-anchor="start" data-z-index="2"><tspan>Gastgewerbe</tspan></text></g><g class="highcharts-legend-item highcharts-line-series highcharts-color-undefined highcharts-series-3" data-z-index="1" transform="translate(0,37)"><path fill="none" d="M 0 10 L 16 10" class="highcharts-graph" stroke="#0A3B19" stroke-width="2"></path><text x="21" y="13" style="color:#333333;font-size:10px;font-weight:normal;cursor:pointer;fill:#333333;" text-anchor="start" data-z-index="2"><tspan>IT-Dienstleistungen</tspan></text></g></g></g></g><g class="highcharts-axis-labels highcharts-xaxis-labels " data-z-index="7"><text x="64.35" style="color:#000000;cursor:default;font-size:10px;white-space:nowrap;fill:#000000;" text-anchor="middle" transform="translate(0,0)" y="206" opacity="1">2010</text><text x="91.15" style="color:#000000;cursor:default;font-size:10px;white-space:nowrap;fill:#000000;" text-anchor="middle" transform="translate(0,0)" y="206" opacity="1">2011</text><text x="117.95" style="color:#000000;cursor:default;font-size:10px;white-space:nowrap;fill:#000000;" text-anchor="middle" transform="translate(0,0)" y="206" opacity="1">2012</text><text x="144.75" style="color:#000000;cursor:default;font-size:10px;white-space:nowrap;fill:#000000;" text-anchor="middle" transform="translate(0,0)" y="206" opacity="1">2013</text><text x="171.55" style="color:#000000;cursor:default;font-size:10px;white-space:nowrap;fill:#000000;" text-anchor="middle" transform="translate(0,0)" y="206" opacity="1">2014</text><text x="198.35" style="color:#000000;cursor:default;font-size:10px;white-space:nowrap;fill:#000000;" text-anchor="middle" transform="translate(0,0)" y="206" opacity="1">2015</text><text x="225.15" style="color:#000000;cursor:default;font-size:10px;white-space:nowrap;fill:#000000;" text-anchor="middle" transform="translate(0,0)" y="206" opacity="1">2016</text><text x="251.95" style="color:#000000;cursor:default;font-size:10px;white-space:nowrap;fill:#000000;" text-anchor="middle" transform="translate(0,0)" y="206" opacity="1">2017</text><text x="278.75" style="color:#000000;cursor:default;font-size:10px;white-space:nowrap;fill:#000000;" text-anchor="middle" transform="translate(0,0)" y="206" opacity="1">2018</text><text x="305.55" style="color:#000000;cursor:default;font-size:10px;white-space:nowrap;fill:#000000;" text-anchor="middle" transform="translate(0,0)" y="206" opacity="1">2019</text></g><g class="highcharts-axis-labels highcharts-yaxis-labels " data-z-index="7"><text x="35" style="color:#000000;cursor:default;font-size:10;fill:#000000;" text-anchor="end" transform="translate(0,0)" y="191" opacity="1">0</text><text x="35" style="color:#000000;cursor:default;font-size:10;fill:#000000;" text-anchor="end" transform="translate(0,0)" y="177" opacity="1"><tspan>10 000</tspan></text><text x="35" style="color:#000000;cursor:default;font-size:10;fill:#000000;" text-anchor="end" transform="translate(0,0)" y="163" opacity="1"><tspan>20 000</tspan></text><text x="35" style="color:#000000;cursor:default;font-size:10;fill:#000000;" text-anchor="end" transform="translate(0,0)" y="149" opacity="1"><tspan>30 000</tspan></text><text x="35" style="color:#000000;cursor:default;font-size:10;fill:#000000;" text-anchor="end" transform="translate(0,0)" y="135" opacity="1"><tspan>40 000</tspan></text><text x="35" style="color:#000000;cursor:default;font-size:10;fill:#000000;" text-anchor="end" transform="translate(0,0)" y="121" opacity="1"><tspan>50 000</tspan></text></g><text x="10" class="highcharts-credits" text-anchor="start" data-z-index="8" style="cursor:default;color:#000000;font-size:10px;fill:#000000;" y="196"><tspan>Quelle: Staatssekretariat für Migration (SEM), Zentrales Migrationssystem (ZEMIS).</tspan><tspan x="10" dy="13">Zuletzt geändert: 2020-3-25</tspan></text></svg>