<?xml version="1.0" standalone="no"?><!DOCTYPE svg PUBLIC "-//W3C//DTD SVG 1.1//EN" "http://www.w3.org/Graphics/SVG/1.1/DTD/svg11.dtd"><svg xmlns:xlink="http://www.w3.org/1999/xlink" version="1.1" class="highcharts-root" style="font-family:Arial;font-size:12px;" xmlns="http://www.w3.org/2000/svg" viewBox="0 0 485 415"><desc>Created with Highstock 6.1.1</desc><defs><clipPath id="highcharts-7s9yxs5-6"><rect x="0" y="0" width="283" height="69" fill="none"></rect></clipPath><clipPath id="highcharts-7s9yxs5-7"><rect x="0" y="0" width="283" height="69" fill="none"></rect></clipPath></defs><rect fill="#fbfbfb" class="highcharts-background" x="0" y="0" width="320" height="221" rx="0" ry="0"></rect><rect fill="none" class="highcharts-plot-background" x="35" y="119" width="283" height="69"></rect><g class="highcharts-pane-group" data-z-index="0"></g><g class="highcharts-grid highcharts-xaxis-grid " data-z-index="1"><path fill="none" data-z-index="1" class="highcharts-grid-line" d="M 62.5 119 L 62.5 188" opacity="1"></path><path fill="none" data-z-index="1" class="highcharts-grid-line" d="M 91.5 119 L 91.5 188" opacity="1"></path><path fill="none" data-z-index="1" class="highcharts-grid-line" d="M 119.5 119 L 119.5 188" opacity="1"></path><path fill="none" data-z-index="1" class="highcharts-grid-line" d="M 147.5 119 L 147.5 188" opacity="1"></path><path fill="none" data-z-index="1" class="highcharts-grid-line" d="M 176.5 119 L 176.5 188" opacity="1"></path><path fill="none" data-z-index="1" class="highcharts-grid-line" d="M 204.5 119 L 204.5 188" opacity="1"></path><path fill="none" data-z-index="1" class="highcharts-grid-line" d="M 232.5 119 L 232.5 188" opacity="1"></path><path fill="none" data-z-index="1" class="highcharts-grid-line" d="M 260.5 119 L 260.5 188" opacity="1"></path><path fill="none" data-z-index="1" class="highcharts-grid-line" d="M 289.5 119 L 289.5 188" opacity="1"></path><path fill="none" data-z-index="1" class="highcharts-grid-line" d="M 317.5 119 L 317.5 188" opacity="1"></path><path fill="none" data-z-index="1" class="highcharts-grid-line" d="M 34.5 119 L 34.5 188" opacity="1"></path></g><g class="highcharts-grid highcharts-yaxis-grid " data-z-index="1"><path fill="none" stroke="#B9CFD7" stroke-width="0.5" data-z-index="1" class="highcharts-grid-line" d="M 35 188.25 L 318 188.25" opacity="1"></path><path fill="none" stroke="#B9CFD7" stroke-width="0.5" data-z-index="1" class="highcharts-grid-line" d="M 35 118.75 L 318 118.75" opacity="1"></path></g><rect fill="none" class="highcharts-plot-border" data-z-index="1" x="35" y="119" width="283" height="69"></rect><g class="highcharts-axis highcharts-xaxis " data-z-index="2"><path fill="none" class="highcharts-axis-line" stroke="#B9CFD7" stroke-width="0.5" data-z-index="7" d="M 35 188.25 L 318 188.25"></path></g><g class="highcharts-axis highcharts-yaxis " data-z-index="2"><path fill="none" class="highcharts-axis-line" data-z-index="7" d="M 35 119 L 35 188"></path></g><g class="highcharts-series-group" data-z-index="3"><g data-z-index="0.1" class="highcharts-series highcharts-series-0 highcharts-line-series " transform="translate(35,119) scale(1 1)" clip-path="url(#highcharts-7s9yxs5-7)"><path fill="none" d="M 14.15 34.5 L 42.45 33.706500000000005 L 70.75 32.913000000000004 L 99.05 32.223000000000006 L 127.35 30.774 L 155.65 30.843000000000004 L 183.95 29.532000000000004 L 212.25 29.256 L 240.55 28.807500000000005 L 268.85 28.6695" class="highcharts-graph" data-z-index="1" stroke="#C8C8C8" stroke-width="2" stroke-linejoin="round" stroke-linecap="round"></path></g><g data-z-index="0.1" class="highcharts-markers highcharts-series-0 highcharts-line-series " transform="translate(35,119) scale(1 1)" clip-path="none"></g><g data-z-index="0.1" class="highcharts-series highcharts-series-1 highcharts-line-series " transform="translate(35,119) scale(1 1)" clip-path="url(#highcharts-7s9yxs5-7)"><path fill="none" d="M 14.15 34.5 L 42.45 35.8455 L 70.75 38.6745 L 99.05 38.019000000000005 L 127.35 39.7785 L 155.65 39.33 L 183.95 38.8125 L 212.25 39.951 L 240.55 40.7445 L 268.85 40.3305" class="highcharts-graph" data-z-index="1" stroke="#008AC3" stroke-width="2" stroke-linejoin="round" stroke-linecap="round"></path></g><g data-z-index="0.1" class="highcharts-markers highcharts-series-1 highcharts-line-series " transform="translate(35,119) scale(1 1)" clip-path="none"></g><g data-z-index="0.1" class="highcharts-series highcharts-series-2 highcharts-line-series " transform="translate(35,119) scale(1 1)" clip-path="url(#highcharts-7s9yxs5-7)"><path fill="none" d="M 14.15 34.5 L 42.45 33.18900000000001 L 70.75 32.947500000000005 L 99.05 32.05050000000001 L 127.35 31.947000000000003 L 155.65 30.015 L 183.95 29.325000000000003 L 212.25 28.738500000000002 L 240.55 26.841 L 268.85 25.495500000000007" class="highcharts-graph" data-z-index="1" stroke="#6F6F6F" stroke-width="2" stroke-linejoin="round" stroke-linecap="round"></path></g><g data-z-index="0.1" class="highcharts-markers highcharts-series-2 highcharts-line-series " transform="translate(35,119) scale(1 1)" clip-path="none"></g><g data-z-index="0.1" class="highcharts-series highcharts-series-3 highcharts-line-series " transform="translate(35,119) scale(1 1)" clip-path="url(#highcharts-7s9yxs5-7)"><path fill="none" d="M 14.15 34.5 L 42.45 34.12050000000001 L 70.75 36.3975 L 99.05 38.847 L 127.35 40.986000000000004 L 155.65 44.4705 L 183.95 45.195 L 212.25 47.196 L 240.55 46.7475 L 268.85 46.1955" class="highcharts-graph" data-z-index="1" stroke="#2B0099" stroke-width="2" stroke-linejoin="round" stroke-linecap="round"></path></g><g data-z-index="0.1" class="highcharts-markers highcharts-series-3 highcharts-line-series " transform="translate(35,119) scale(1 1)" clip-path="none"></g></g><text x="2" text-anchor="start" class="highcharts-title" data-z-index="4" style="color:#000000;font-size:10px;font-weight:bold;fill:#000000;" y="9"><tspan>Wertschöpfungsentwicklung im Dienstleistungssektor</tspan><tspan dy="13" x="2">(III)</tspan></text><text x="2" text-anchor="start" class="highcharts-subtitle" data-z-index="4" style="color:#000000;font-size:10px;font-weight:normal;font-family:Arial;fill:#000000;" y="39"><tspan>Basel-Stadt, real, indexiert (Jahr 2008 = 100)</tspan></text><g class="highcharts-legend" data-z-index="7" transform="translate(35,55)"><rect fill="none" class="highcharts-legend-box" rx="0" ry="0" x="0" y="0" width="291" height="52" visibility="visible"></rect><g data-z-index="1"><g><g class="highcharts-legend-item highcharts-line-series highcharts-color-undefined highcharts-series-0" data-z-index="1" transform="translate(0,-4)"><path fill="none" d="M 0 10 L 16 10" class="highcharts-graph" stroke="#C8C8C8" stroke-width="2"></path><text x="21" style="color:#333333;font-size:10px;font-weight:normal;cursor:pointer;fill:#333333;" text-anchor="start" data-z-index="2" y="13"><tspan>Öffentl. Verwaltung, Sozialvers. (inkl. staatl. Bildungsinst.)</tspan></text></g><g class="highcharts-legend-item highcharts-line-series highcharts-color-undefined highcharts-series-1" data-z-index="1" transform="translate(0,10)"><path fill="none" d="M 0 10 L 16 10" class="highcharts-graph" stroke="#008AC3" stroke-width="2"></path><text x="21" y="13" style="color:#333333;font-size:10px;font-weight:normal;cursor:pointer;fill:#333333;" text-anchor="start" data-z-index="2"><tspan>Erziehung, Unterricht</tspan></text></g><g class="highcharts-legend-item highcharts-line-series highcharts-color-undefined highcharts-series-2" data-z-index="1" transform="translate(0,24)"><path fill="none" d="M 0 10 L 16 10" class="highcharts-graph" stroke="#6F6F6F" stroke-width="2"></path><text x="21" y="13" style="color:#333333;font-size:10px;font-weight:normal;cursor:pointer;fill:#333333;" text-anchor="start" data-z-index="2"><tspan>Gesundheits-, Sozialwesen</tspan></text></g><g class="highcharts-legend-item highcharts-line-series highcharts-color-undefined highcharts-series-3" data-z-index="1" transform="translate(0,38)"><path fill="none" d="M 0 10 L 16 10" class="highcharts-graph" stroke="#2B0099" stroke-width="2"></path><text x="21" y="13" style="color:#333333;font-size:10px;font-weight:normal;cursor:pointer;fill:#333333;" text-anchor="start" data-z-index="2"><tspan>Kultur, Unterhaltung</tspan></text></g></g></g></g><g class="highcharts-axis-labels highcharts-xaxis-labels " data-z-index="7"><text x="49.15" style="color:#000000;cursor:default;font-size:10px;white-space:nowrap;fill:#000000;" text-anchor="middle" transform="translate(0,0)" y="206" opacity="1">2008</text><text x="77.44999999999999" style="color:#000000;cursor:default;font-size:10px;white-space:nowrap;fill:#000000;" text-anchor="middle" transform="translate(0,0)" y="206" opacity="1">2009</text><text x="105.75" style="color:#000000;cursor:default;font-size:10px;white-space:nowrap;fill:#000000;" text-anchor="middle" transform="translate(0,0)" y="206" opacity="1">2010</text><text x="134.04999999999998" style="color:#000000;cursor:default;font-size:10px;white-space:nowrap;fill:#000000;" text-anchor="middle" transform="translate(0,0)" y="206" opacity="1">2011</text><text x="162.35" style="color:#000000;cursor:default;font-size:10px;white-space:nowrap;fill:#000000;" text-anchor="middle" transform="translate(0,0)" y="206" opacity="1">2012</text><text x="190.65" style="color:#000000;cursor:default;font-size:10px;white-space:nowrap;fill:#000000;" text-anchor="middle" transform="translate(0,0)" y="206" opacity="1">2013</text><text x="218.95" style="color:#000000;cursor:default;font-size:10px;white-space:nowrap;fill:#000000;" text-anchor="middle" transform="translate(0,0)" y="206" opacity="1">2014</text><text x="247.24999999999997" style="color:#000000;cursor:default;font-size:10px;white-space:nowrap;fill:#000000;" text-anchor="middle" transform="translate(0,0)" y="206" opacity="1">2015</text><text x="275.55" style="color:#000000;cursor:default;font-size:10px;white-space:nowrap;fill:#000000;" text-anchor="middle" transform="translate(0,0)" y="206" opacity="1">2016</text><text x="303.85" style="color:#000000;cursor:default;font-size:10px;white-space:nowrap;fill:#000000;" text-anchor="middle" transform="translate(0,0)" y="206" opacity="1">2017</text></g><g class="highcharts-axis-labels highcharts-yaxis-labels " data-z-index="7"><text x="20" style="color:#000000;cursor:default;font-size:10;fill:#000000;" text-anchor="end" transform="translate(0,0)" y="191" opacity="1">0</text><text x="20" style="color:#000000;cursor:default;font-size:10;fill:#000000;" text-anchor="end" transform="translate(0,0)" y="122" opacity="1">200</text></g><text x="10" class="highcharts-credits" text-anchor="start" data-z-index="8" style="cursor:default;color:#000000;font-size:10px;fill:#000000;" y="196"><tspan>Quelle: BAK Economics.</tspan><tspan x="10" dy="13">Zuletzt geändert: 2020-1-3</tspan></text></svg>