<?xml version="1.0" standalone="no"?><!DOCTYPE svg PUBLIC "-//W3C//DTD SVG 1.1//EN" "http://www.w3.org/Graphics/SVG/1.1/DTD/svg11.dtd"><svg xmlns:xlink="http://www.w3.org/1999/xlink" version="1.1" class="highcharts-root" style="font-family:Arial;font-size:12px;" xmlns="http://www.w3.org/2000/svg" viewBox="0 0 485 415"><desc>Created with Highstock 6.1.1</desc><defs><clipPath id="highcharts-pviqbgl-6"><rect x="0" y="0" width="279" height="103" fill="none"></rect></clipPath><clipPath id="highcharts-pviqbgl-7"><rect x="0" y="0" width="279" height="103" fill="none"></rect></clipPath></defs><rect fill="#fbfbfb" class="highcharts-background" x="0" y="0" width="320" height="221" rx="0" ry="0"></rect><rect fill="none" class="highcharts-plot-background" x="39" y="85" width="279" height="103"></rect><g class="highcharts-pane-group" data-z-index="0"></g><g class="highcharts-grid highcharts-xaxis-grid " data-z-index="1"><path fill="none" data-z-index="1" class="highcharts-grid-line" d="M 63.5 85 L 63.5 188" opacity="1"></path><path fill="none" data-z-index="1" class="highcharts-grid-line" d="M 109.5 85 L 109.5 188" opacity="1"></path><path fill="none" data-z-index="1" class="highcharts-grid-line" d="M 155.5 85 L 155.5 188" opacity="1"></path><path fill="none" data-z-index="1" class="highcharts-grid-line" d="M 200.5 85 L 200.5 188" opacity="1"></path><path fill="none" data-z-index="1" class="highcharts-grid-line" d="M 246.5 85 L 246.5 188" opacity="1"></path><path fill="none" data-z-index="1" class="highcharts-grid-line" d="M 292.5 85 L 292.5 188" opacity="1"></path></g><g class="highcharts-grid highcharts-yaxis-grid " data-z-index="1"><path fill="none" stroke="#B9CFD7" stroke-width="0.5" data-z-index="1" class="highcharts-grid-line" d="M 39 188.25 L 318 188.25" opacity="1"></path><path fill="none" stroke="#B9CFD7" stroke-width="0.5" data-z-index="1" class="highcharts-grid-line" d="M 39 167.25 L 318 167.25" opacity="1"></path><path fill="none" stroke="#B9CFD7" stroke-width="0.5" data-z-index="1" class="highcharts-grid-line" d="M 39 147.25 L 318 147.25" opacity="1"></path><path fill="none" stroke="#B9CFD7" stroke-width="0.5" data-z-index="1" class="highcharts-grid-line" d="M 39 126.25 L 318 126.25" opacity="1"></path><path fill="none" stroke="#B9CFD7" stroke-width="0.5" data-z-index="1" class="highcharts-grid-line" d="M 39 106.25 L 318 106.25" opacity="1"></path><path fill="none" stroke="#B9CFD7" stroke-width="0.5" data-z-index="1" class="highcharts-grid-line" d="M 39 84.75 L 318 84.75" opacity="1"></path></g><rect fill="none" class="highcharts-plot-border" data-z-index="1" x="39" y="85" width="279" height="103"></rect><g class="highcharts-axis highcharts-xaxis " data-z-index="2"><path fill="none" class="highcharts-axis-line" stroke="#B9CFD7" stroke-width="0.5" data-z-index="7" d="M 39 188.25 L 318 188.25"></path></g><g class="highcharts-axis highcharts-yaxis " data-z-index="2"><path fill="none" class="highcharts-axis-line" data-z-index="7" d="M 39 85 L 39 188"></path></g><g class="highcharts-series-group" data-z-index="3"><g data-z-index="0.1" class="highcharts-series highcharts-series-0 highcharts-column-series " transform="translate(39,85) scale(1 1)" clip-path="url(#highcharts-pviqbgl-7)"><rect x="11" y="54" width="14" height="50" fill="#008AC3" class="highcharts-point"></rect><rect x="57" y="53" width="14" height="51" fill="#008AC3" class="highcharts-point"></rect><rect x="103" y="52" width="14" height="52" fill="#008AC3" class="highcharts-point"></rect><rect x="149" y="52" width="13" height="52" fill="#008AC3" class="highcharts-point"></rect><rect x="194" y="52" width="14" height="52" fill="#008AC3" class="highcharts-point"></rect><rect x="240" y="52" width="14" height="52" fill="#008AC3" class="highcharts-point"></rect></g><g data-z-index="0.1" class="highcharts-markers highcharts-series-0 highcharts-column-series " transform="translate(39,85) scale(1 1)" clip-path="none"></g><g data-z-index="0.1" class="highcharts-series highcharts-series-1 highcharts-column-series " transform="translate(39,85) scale(1 1)" clip-path="url(#highcharts-pviqbgl-7)"><rect x="11" y="9" width="14" height="45" fill="#B00000" class="highcharts-point"></rect><rect x="57" y="8" width="14" height="45" fill="#B00000" class="highcharts-point"></rect><rect x="103" y="7" width="14" height="45" fill="#B00000" class="highcharts-point"></rect><rect x="149" y="5" width="13" height="47" fill="#B00000" class="highcharts-point"></rect><rect x="194" y="6" width="14" height="46" fill="#B00000" class="highcharts-point"></rect><rect x="240" y="6" width="14" height="46" fill="#B00000" class="highcharts-point"></rect></g><g data-z-index="0.1" class="highcharts-markers highcharts-series-1 highcharts-column-series " transform="translate(39,85) scale(1 1)" clip-path="none"></g><g data-z-index="0.1" class="highcharts-series highcharts-series-2 highcharts-column-series " transform="translate(39,85) scale(1 1)" clip-path="url(#highcharts-pviqbgl-7)"><rect x="25" y="59" width="14" height="45" fill="#00bAf3" class="highcharts-point"></rect><rect x="71" y="59" width="14" height="45" fill="#00bAf3" class="highcharts-point"></rect><rect x="117" y="58" width="13" height="46" fill="#00bAf3" class="highcharts-point"></rect><rect x="162" y="58" width="14" height="46" fill="#00bAf3" class="highcharts-point"></rect><rect x="208" y="59" width="14" height="45" fill="#00bAf3" class="highcharts-point"></rect><rect x="254" y="59" width="14" height="45" fill="#00bAf3" class="highcharts-point"></rect></g><g data-z-index="0.1" class="highcharts-markers highcharts-series-2 highcharts-column-series " transform="translate(39,85) scale(1 1)" clip-path="none"></g><g data-z-index="0.1" class="highcharts-series highcharts-series-3 highcharts-column-series " transform="translate(39,85) scale(1 1)" clip-path="url(#highcharts-pviqbgl-7)"><rect x="25" y="28" width="14" height="31" fill="#F05A23" class="highcharts-point"></rect><rect x="71" y="27" width="14" height="32" fill="#F05A23" class="highcharts-point"></rect><rect x="117" y="26" width="13" height="32" fill="#F05A23" class="highcharts-point"></rect><rect x="162" y="26" width="14" height="32" fill="#F05A23" class="highcharts-point"></rect><rect x="208" y="26" width="14" height="33" fill="#F05A23" class="highcharts-point"></rect><rect x="254" y="26" width="14" height="33" fill="#F05A23" class="highcharts-point"></rect></g><g data-z-index="0.1" class="highcharts-markers highcharts-series-3 highcharts-column-series " transform="translate(39,85) scale(1 1)" clip-path="none"></g></g><text x="2" text-anchor="start" class="highcharts-title" data-z-index="4" style="color:#000000;font-size:10px;font-weight:bold;fill:#000000;" y="9"><tspan>Beschäftigte und Vollzeitäquivalente nach Geschlecht</tspan></text><text x="2" text-anchor="start" class="highcharts-subtitle" data-z-index="4" style="color:#000000;font-size:10px;font-weight:normal;font-family:Arial;fill:#000000;" y="26"><tspan>Basel-Stadt</tspan></text><g class="highcharts-legend" data-z-index="7" transform="translate(36,42)"><rect fill="none" class="highcharts-legend-box" rx="0" ry="0" x="0" y="0" width="300" height="31" visibility="visible"></rect><g data-z-index="1"><g><g class="highcharts-legend-item highcharts-column-series highcharts-color-undefined highcharts-series-0" data-z-index="1" transform="translate(0,-5)"><text x="21" style="color:#333333;font-size:10px;font-weight:normal;cursor:pointer;fill:#333333;" text-anchor="start" data-z-index="2" y="13"><tspan>Männer (Beschäftigte)</tspan></text><rect x="3" y="4" width="10" height="10" fill="#008AC3" class="highcharts-point" data-z-index="3"></rect></g><g class="highcharts-legend-item highcharts-column-series highcharts-color-undefined highcharts-series-1" data-z-index="1" transform="translate(140,-5)"><text x="21" y="13" style="color:#333333;font-size:10px;font-weight:normal;cursor:pointer;fill:#333333;" text-anchor="start" data-z-index="2"><tspan>Frauen (Beschäftigte)</tspan></text><rect x="3" y="4" width="10" height="10" fill="#B00000" class="highcharts-point" data-z-index="3"></rect></g><g class="highcharts-legend-item highcharts-column-series highcharts-color-undefined highcharts-series-2" data-z-index="1" transform="translate(0,13)"><text x="21" y="13" style="color:#333333;font-size:10px;font-weight:normal;cursor:pointer;fill:#333333;" text-anchor="start" data-z-index="2"><tspan>Männer (VZÄ)</tspan></text><rect x="3" y="4" width="10" height="10" fill="#00bAf3" class="highcharts-point" data-z-index="3"></rect></g><g class="highcharts-legend-item highcharts-column-series highcharts-color-undefined highcharts-series-3" data-z-index="1" transform="translate(140,13)"><text x="21" y="13" style="color:#333333;font-size:10px;font-weight:normal;cursor:pointer;fill:#333333;" text-anchor="start" data-z-index="2"><tspan>Frauen (VZÄ)</tspan></text><rect x="3" y="4" width="10" height="10" fill="#F05A23" class="highcharts-point" data-z-index="3"></rect></g></g></g></g><g class="highcharts-axis-labels highcharts-xaxis-labels " data-z-index="7"><text x="64.155737704916" style="color:#000000;cursor:default;font-size:10px;fill:#000000;" text-anchor="middle" transform="translate(0,0)" y="206" opacity="1">2011</text><text x="109.89344262295" style="color:#000000;cursor:default;font-size:10px;fill:#000000;" text-anchor="middle" transform="translate(0,0)" y="206" opacity="1">2012</text><text x="155.63114754098" style="color:#000000;cursor:default;font-size:10px;fill:#000000;" text-anchor="middle" transform="translate(0,0)" y="206" opacity="1">2013</text><text x="201.36885245902" style="color:#000000;cursor:default;font-size:10px;fill:#000000;" text-anchor="middle" transform="translate(0,0)" y="206" opacity="1">2014</text><text x="247.10655737705" style="color:#000000;cursor:default;font-size:10px;fill:#000000;" text-anchor="middle" transform="translate(0,0)" y="206" opacity="1">2015</text><text x="292.84426229508" style="color:#000000;cursor:default;font-size:10px;fill:#000000;" text-anchor="middle" transform="translate(0,0)" y="206" opacity="1">2016</text></g><g class="highcharts-axis-labels highcharts-yaxis-labels " data-z-index="7"><text x="24" style="color:#000000;cursor:default;font-size:10px;fill:#000000;" text-anchor="end" transform="translate(0,0)" y="191" opacity="1">0</text><text x="24" style="color:#000000;cursor:default;font-size:10px;fill:#000000;" text-anchor="end" transform="translate(0,0)" y="170" opacity="1">40k</text><text x="24" style="color:#000000;cursor:default;font-size:10px;fill:#000000;" text-anchor="end" transform="translate(0,0)" y="150" opacity="1">80k</text><text x="24" style="color:#000000;cursor:default;font-size:10px;fill:#000000;" text-anchor="end" transform="translate(0,0)" y="129" opacity="1">120k</text><text x="24" style="color:#000000;cursor:default;font-size:10px;fill:#000000;" text-anchor="end" transform="translate(0,0)" y="109" opacity="1">160k</text><text x="24" style="color:#000000;cursor:default;font-size:10px;fill:#000000;" text-anchor="end" transform="translate(0,0)" y="88" opacity="1">200k</text></g><text x="10" class="highcharts-credits" text-anchor="start" data-z-index="8" style="cursor:default;color:#000000;font-size:10;fill:#000000;" y="196"><tspan>Quelle: Bundesamt für Statistik (BFS), Statistik der Unternehmensstruktur (STATENT).</tspan><tspan x="10" dy="15">Zuletzt geändert: 2020-1-3</tspan></text></svg>