<?xml version="1.0" standalone="no"?><!DOCTYPE svg PUBLIC "-//W3C//DTD SVG 1.1//EN" "http://www.w3.org/Graphics/SVG/1.1/DTD/svg11.dtd"><svg xmlns:xlink="http://www.w3.org/1999/xlink" version="1.1" class="highcharts-root" style="font-family:Arial;font-size:12px;" xmlns="http://www.w3.org/2000/svg" viewBox="0 0 485 415"><desc>Created with Highstock 6.1.1</desc><defs><clipPath id="highcharts-dbssobu-6"><rect x="0" y="0" width="283" height="83" fill="none"></rect></clipPath><clipPath id="highcharts-dbssobu-7"><rect x="0" y="0" width="283" height="83" fill="none"></rect></clipPath></defs><rect fill="#fbfbfb" class="highcharts-background" x="0" y="0" width="320" height="221" rx="0" ry="0"></rect><rect fill="none" class="highcharts-plot-background" x="35" y="105" width="283" height="83"></rect><g class="highcharts-pane-group" data-z-index="0"></g><g class="highcharts-grid highcharts-xaxis-grid " data-z-index="1"><path fill="none" data-z-index="1" class="highcharts-grid-line" d="M 35.5 105 L 35.5 188" opacity="1"></path><path fill="none" data-z-index="1" class="highcharts-grid-line" d="M 63.5 105 L 63.5 188" opacity="1"></path><path fill="none" data-z-index="1" class="highcharts-grid-line" d="M 92.5 105 L 92.5 188" opacity="1"></path><path fill="none" data-z-index="1" class="highcharts-grid-line" d="M 120.5 105 L 120.5 188" opacity="1"></path><path fill="none" data-z-index="1" class="highcharts-grid-line" d="M 148.5 105 L 148.5 188" opacity="1"></path><path fill="none" data-z-index="1" class="highcharts-grid-line" d="M 177.5 105 L 177.5 188" opacity="1"></path><path fill="none" data-z-index="1" class="highcharts-grid-line" d="M 205.5 105 L 205.5 188" opacity="1"></path><path fill="none" data-z-index="1" class="highcharts-grid-line" d="M 233.5 105 L 233.5 188" opacity="1"></path><path fill="none" data-z-index="1" class="highcharts-grid-line" d="M 262.5 105 L 262.5 188" opacity="1"></path><path fill="none" data-z-index="1" class="highcharts-grid-line" d="M 290.5 105 L 290.5 188" opacity="1"></path></g><g class="highcharts-grid highcharts-yaxis-grid " data-z-index="1"><path fill="none" stroke="#B9CFD7" stroke-width="0.5" data-z-index="1" class="highcharts-grid-line" d="M 35 188.25 L 318 188.25" opacity="1"></path><path fill="none" stroke="#B9CFD7" stroke-width="0.5" data-z-index="1" class="highcharts-grid-line" d="M 35 176.25 L 318 176.25" opacity="1"></path><path fill="none" stroke="#B9CFD7" stroke-width="0.5" data-z-index="1" class="highcharts-grid-line" d="M 35 164.25 L 318 164.25" opacity="1"></path><path fill="none" stroke="#B9CFD7" stroke-width="0.5" data-z-index="1" class="highcharts-grid-line" d="M 35 152.25 L 318 152.25" opacity="1"></path><path fill="none" stroke="#B9CFD7" stroke-width="0.5" data-z-index="1" class="highcharts-grid-line" d="M 35 141.25 L 318 141.25" opacity="1"></path><path fill="none" stroke="#B9CFD7" stroke-width="0.5" data-z-index="1" class="highcharts-grid-line" d="M 35 129.25 L 318 129.25" opacity="1"></path><path fill="none" stroke="#B9CFD7" stroke-width="0.5" data-z-index="1" class="highcharts-grid-line" d="M 35 117.25 L 318 117.25" opacity="1"></path><path fill="none" stroke="#B9CFD7" stroke-width="0.5" data-z-index="1" class="highcharts-grid-line" d="M 35 104.75 L 318 104.75" opacity="1"></path></g><rect fill="none" class="highcharts-plot-border" data-z-index="1" x="35" y="105" width="283" height="83"></rect><g class="highcharts-axis highcharts-xaxis " data-z-index="2"><path fill="none" class="highcharts-axis-line" stroke="#B9CFD7" stroke-width="0.5" data-z-index="7" d="M 35 188.25 L 318 188.25"></path></g><g class="highcharts-axis highcharts-yaxis " data-z-index="2"><path fill="none" class="highcharts-axis-line" data-z-index="7" d="M 35 105 L 35 188"></path></g><g class="highcharts-series-group" data-z-index="3"><g data-z-index="0.1" class="highcharts-series highcharts-series-0 highcharts-line-series " transform="translate(35,105) scale(1 1)" clip-path="url(#highcharts-dbssobu-7)"><path fill="none" d="M 1.1791666666667 67.82285714285715 L 3.5375 67.82285714285715 L 5.8958333333333 67.94142857142857 L 8.2541666666667 67.94142857142857 L 10.6125 67.58571428571429 L 12.970833333333 67.82285714285715 L 15.329166666667 67.34857142857143 L 17.6875 68.17857142857143 L 20.045833333333 68.65285714285714 L 22.404166666667 69.95714285714286 L 24.7625 71.02428571428571 L 27.120833333333 70.66857142857143 L 29.479166666667 71.85428571428571 L 31.8375 72.68428571428572 L 34.195833333333 72.80285714285714 L 36.554166666667 73.51428571428572 L 38.9125 73.15857142857143 L 41.270833333333 72.68428571428572 L 43.629166666667 72.32857142857142 L 45.9875 73.87 L 48.345833333333 73.27714285714285 L 50.704166666667 73.51428571428572 L 53.0625 73.63285714285715 L 55.420833333333 73.15857142857143 L 57.779166666667 71.97285714285714 L 60.1375 70.78714285714285 L 62.495833333333 71.02428571428571 L 64.854166666667 69.72 L 67.2125 69.00857142857143 L 69.570833333333 69.60142857142857 L 71.929166666667 69.12714285714286 L 74.2875 68.41571428571429 L 76.645833333333 67.70428571428572 L 79.004166666667 67.70428571428572 L 81.3625 67.34857142857143 L 83.720833333333 68.17857142857143 L 86.079166666667 66.75571428571428 L 88.4375 67.11142857142858 L 90.795833333333 67.11142857142858 L 93.154166666667 66.16285714285715 L 95.5125 67.23 L 97.870833333333 67.94142857142857 L 100.22916666667 67.70428571428572 L 102.5875 69.12714285714286 L 104.94583333333 68.17857142857143 L 107.30416666667 68.65285714285714 L 109.6625 67.70428571428572 L 112.02083333333 67.82285714285715 L 114.37916666667 68.29714285714286 L 116.7375 69.00857142857143 L 119.09583333333 68.89 L 121.45416666667 68.29714285714286 L 123.8125 69.60142857142857 L 126.17083333333 70.55 L 128.52916666667 71.14285714285714 L 130.8875 70.78714285714285 L 133.24583333333 69.72 L 135.60416666667 69.72 L 137.9625 69.72 L 140.32083333333 69.36428571428571 L 142.67916666667 68.77142857142857 L 145.0375 69.00857142857143 L 147.39583333333 69.00857142857143 L 149.75416666667 68.29714285714286 L 152.1125 68.53428571428572 L 154.47083333333 69.60142857142857 L 156.82916666667 68.77142857142857 L 159.1875 68.41571428571429 L 161.54583333333 68.89 L 163.90416666667 68.41571428571429 L 166.2625 69.60142857142857 L 168.62083333333 69.95714285714286 L 170.97916666667 70.19428571428571 L 173.3375 68.65285714285714 L 175.69583333333 69.36428571428571 L 178.05416666667 68.06 L 180.4125 67.82285714285715 L 182.77083333333 67.23 L 185.12916666667 68.65285714285714 L 187.4875 67.23 L 189.84583333333 66.87428571428572 L 192.20416666667 66.99285714285715 L 194.5625 67.58571428571429 L 196.92083333333 67.70428571428572 L 199.27916666667 67.34857142857143 L 201.6375 67.58571428571429 L 203.99583333333 68.06 L 206.35416666667 68.77142857142857 L 208.7125 69.00857142857143 L 211.07083333333 68.29714285714286 L 213.42916666667 67.82285714285715 L 215.7875 66.87428571428572 L 218.14583333333 67.11142857142858 L 220.50416666667 67.70428571428572 L 222.8625 68.29714285714286 L 225.22083333333 67.82285714285715 L 227.57916666667 68.06 L 229.9375 67.94142857142857 L 232.29583333333 69.00857142857143 L 234.65416666667 69.95714285714286 L 237.0125 71.14285714285714 L 239.37083333333 70.55 L 241.72916666667 70.19428571428571 L 244.0875 69.36428571428571 L 246.44583333333 69.36428571428571 L 248.80416666667 69.36428571428571 L 251.1625 69.60142857142857 L 253.52083333333 68.65285714285714 L 255.87916666667 67.94142857142857 L 258.2375 69.12714285714286 L 260.59583333333 70.07571428571428 L 262.95416666667 70.43142857142857 L 265.3125 70.43142857142857 L 267.67083333333 69.72 L 270.02916666667 70.19428571428571 L 272.3875 70.07571428571428 L 274.74583333333 70.19428571428571 L 277.10416666667 71.02428571428571 L 279.4625 70.90571428571428 L 281.82083333333 70.19428571428571" class="highcharts-graph" data-z-index="1" stroke="#FFBB58" stroke-width="2" stroke-linejoin="round" stroke-linecap="round"></path></g><g data-z-index="0.1" class="highcharts-markers highcharts-series-0 highcharts-line-series " transform="translate(35,105) scale(1 1)" clip-path="none"></g><g data-z-index="0.1" class="highcharts-series highcharts-series-1 highcharts-line-series " transform="translate(35,105) scale(1 1)" clip-path="url(#highcharts-dbssobu-7)"><path fill="none" d="M 1.1791666666667 50.86714285714285 L 3.5375 51.815714285714286 L 5.8958333333333 52.40857142857143 L 8.2541666666667 53.357142857142854 L 10.6125 54.542857142857144 L 12.970833333333 56.44 L 15.329166666667 57.269999999999996 L 17.6875 55.61 L 20.045833333333 55.37285714285714 L 22.404166666667 55.61 L 24.7625 55.847142857142856 L 27.120833333333 54.66142857142857 L 29.479166666667 52.645714285714284 L 31.8375 53.95 L 34.195833333333 53.712857142857146 L 36.554166666667 54.542857142857144 L 38.9125 56.79571428571428 L 41.270833333333 56.44 L 43.629166666667 54.66142857142857 L 45.9875 54.89857142857143 L 48.345833333333 53.238571428571426 L 50.704166666667 51.934285714285714 L 53.0625 52.17142857142857 L 55.420833333333 51.10428571428571 L 57.779166666667 48.97 L 60.1375 48.02142857142857 L 62.495833333333 49.08857142857143 L 64.854166666667 49.8 L 67.2125 47.902857142857144 L 69.570833333333 50.037142857142854 L 71.929166666667 52.88285714285714 L 74.2875 53.357142857142854 L 76.645833333333 51.934285714285714 L 79.004166666667 50.39285714285714 L 81.3625 49.44428571428571 L 83.720833333333 47.66571428571429 L 86.079166666667 47.42857142857142 L 88.4375 47.784285714285716 L 90.795833333333 47.07285714285714 L 93.154166666667 47.54714285714285 L 95.5125 46.95428571428571 L 97.870833333333 48.495714285714286 L 100.22916666667 47.07285714285714 L 102.5875 45.05714285714286 L 104.94583333333 45.41285714285714 L 107.30416666667 46.48 L 109.6625 46.005714285714284 L 112.02083333333 44.10857142857142 L 114.37916666667 42.33 L 116.7375 41.73714285714286 L 119.09583333333 43.04142857142857 L 121.45416666667 45.05714285714286 L 123.8125 47.902857142857144 L 126.17083333333 47.66571428571429 L 128.52916666667 45.76857142857143 L 130.8875 48.614285714285714 L 133.24583333333 49.56285714285714 L 135.60416666667 48.25857142857143 L 137.9625 47.784285714285716 L 140.32083333333 47.784285714285716 L 142.67916666667 46.005714285714284 L 145.0375 46.71714285714285 L 147.39583333333 45.175714285714285 L 149.75416666667 43.87142857142857 L 152.1125 44.70142857142857 L 154.47083333333 44.70142857142857 L 156.82916666667 44.10857142857142 L 159.1875 43.278571428571425 L 161.54583333333 41.97428571428571 L 163.90416666667 43.39714285714285 L 166.2625 44.582857142857144 L 168.62083333333 42.33 L 170.97916666667 40.07714285714285 L 173.3375 40.31428571428571 L 175.69583333333 41.26285714285714 L 178.05416666667 39.839999999999996 L 180.4125 40.31428571428571 L 182.77083333333 40.669999999999995 L 185.12916666667 40.90714285714286 L 187.4875 40.78857142857142 L 189.84583333333 40.90714285714286 L 192.20416666667 41.5 L 194.5625 42.68571428571428 L 196.92083333333 42.92285714285714 L 199.27916666667 41.97428571428571 L 201.6375 43.39714285714285 L 203.99583333333 43.989999999999995 L 206.35416666667 42.68571428571428 L 208.7125 46.12428571428571 L 211.07083333333 45.05714285714286 L 213.42916666667 44.82 L 215.7875 45.175714285714285 L 218.14583333333 46.36142857142857 L 220.50416666667 46.24285714285714 L 222.8625 48.37714285714286 L 225.22083333333 48.73285714285714 L 227.57916666667 47.66571428571429 L 229.9375 46.95428571428571 L 232.29583333333 45.53142857142857 L 234.65416666667 45.294285714285714 L 237.0125 45.41285714285714 L 239.37083333333 45.05714285714286 L 241.72916666667 45.294285714285714 L 244.0875 47.07285714285714 L 246.44583333333 49.68142857142857 L 248.80416666667 51.815714285714286 L 251.1625 51.934285714285714 L 253.52083333333 49.325714285714284 L 255.87916666667 48.02142857142857 L 258.2375 49.8 L 260.59583333333 50.27428571428571 L 262.95416666667 49.68142857142857 L 265.3125 51.10428571428571 L 267.67083333333 49.8 L 270.02916666667 50.629999999999995 L 272.3875 50.51142857142857 L 274.74583333333 52.29 L 277.10416666667 51.10428571428571 L 279.4625 50.27428571428571 L 281.82083333333 49.325714285714284" class="highcharts-graph" data-z-index="1" stroke="#FF8028" stroke-width="2" stroke-linejoin="round" stroke-linecap="round"></path></g><g data-z-index="0.1" class="highcharts-markers highcharts-series-1 highcharts-line-series " transform="translate(35,105) scale(1 1)" clip-path="none"></g><g data-z-index="0.1" class="highcharts-series highcharts-series-2 highcharts-line-series " transform="translate(35,105) scale(1 1)" clip-path="url(#highcharts-dbssobu-7)"><path fill="none" d="M 1.1791666666667 52.76428571428571 L 3.5375 53.12 L 5.8958333333333 54.30571428571429 L 8.2541666666667 55.135714285714286 L 10.6125 53.12 L 12.970833333333 53.831428571428575 L 15.329166666667 53.238571428571426 L 17.6875 53.47571428571428 L 20.045833333333 54.18714285714286 L 22.404166666667 55.254285714285714 L 24.7625 53.95 L 27.120833333333 53.712857142857146 L 29.479166666667 53.712857142857146 L 31.8375 53.12 L 34.195833333333 52.76428571428571 L 36.554166666667 55.965714285714284 L 38.9125 54.89857142857143 L 41.270833333333 55.37285714285714 L 43.629166666667 56.44 L 45.9875 54.89857142857143 L 48.345833333333 54.18714285714286 L 50.704166666667 55.254285714285714 L 53.0625 54.89857142857143 L 55.420833333333 54.542857142857144 L 57.779166666667 54.542857142857144 L 60.1375 55.37285714285714 L 62.495833333333 56.91428571428571 L 64.854166666667 55.254285714285714 L 67.2125 54.18714285714286 L 69.570833333333 56.44 L 71.929166666667 56.79571428571428 L 74.2875 57.50714285714285 L 76.645833333333 55.72857142857143 L 79.004166666667 55.61 L 81.3625 53.95 L 83.720833333333 53.00142857142857 L 86.079166666667 52.76428571428571 L 88.4375 51.69714285714285 L 90.795833333333 52.29 L 93.154166666667 52.40857142857143 L 95.5125 53.59428571428572 L 97.870833333333 54.66142857142857 L 100.22916666667 56.32142857142857 L 102.5875 55.72857142857143 L 104.94583333333 54.542857142857144 L 107.30416666667 52.05285714285714 L 109.6625 52.76428571428571 L 112.02083333333 51.22285714285714 L 114.37916666667 50.98571428571429 L 116.7375 49.918571428571425 L 119.09583333333 50.98571428571429 L 121.45416666667 50.86714285714285 L 123.8125 52.645714285714284 L 126.17083333333 53.357142857142854 L 128.52916666667 54.78 L 130.8875 54.89857142857143 L 133.24583333333 55.61 L 135.60416666667 54.424285714285716 L 137.9625 53.238571428571426 L 140.32083333333 50.629999999999995 L 142.67916666667 48.85142857142857 L 145.0375 48.85142857142857 L 147.39583333333 48.25857142857143 L 149.75416666667 50.15571428571428 L 152.1125 50.39285714285714 L 154.47083333333 51.815714285714286 L 156.82916666667 52.05285714285714 L 159.1875 52.527142857142856 L 161.54583333333 53.00142857142857 L 163.90416666667 52.05285714285714 L 166.2625 50.86714285714285 L 168.62083333333 47.784285714285716 L 170.97916666667 47.66571428571429 L 173.3375 45.41285714285714 L 175.69583333333 48.25857142857143 L 178.05416666667 47.309999999999995 L 180.4125 47.66571428571429 L 182.77083333333 48.97 L 185.12916666667 50.39285714285714 L 187.4875 51.815714285714286 L 189.84583333333 50.86714285714285 L 192.20416666667 49.68142857142857 L 194.5625 47.07285714285714 L 196.92083333333 46.95428571428571 L 199.27916666667 48.14 L 201.6375 48.37714285714286 L 203.99583333333 49.8 L 206.35416666667 50.86714285714285 L 208.7125 53.59428571428572 L 211.07083333333 53.357142857142854 L 213.42916666667 53.831428571428575 L 215.7875 54.89857142857143 L 218.14583333333 54.78 L 220.50416666667 53.95 L 222.8625 55.01714285714286 L 225.22083333333 54.89857142857143 L 227.57916666667 53.238571428571426 L 229.9375 55.01714285714286 L 232.29583333333 52.05285714285714 L 234.65416666667 51.10428571428571 L 237.0125 53.712857142857146 L 239.37083333333 55.01714285714286 L 241.72916666667 56.08428571428571 L 244.0875 55.847142857142856 L 246.44583333333 57.388571428571424 L 248.80416666667 58.33714285714285 L 251.1625 57.03285714285714 L 253.52083333333 57.15142857142857 L 255.87916666667 55.847142857142856 L 258.2375 55.965714285714284 L 260.59583333333 55.61 L 262.95416666667 56.558571428571426 L 265.3125 57.388571428571424 L 267.67083333333 59.285714285714285 L 270.02916666667 62.13142857142857 L 272.3875 61.77571428571429 L 274.74583333333 60.94571428571429 L 277.10416666667 60.23428571428571 L 279.4625 58.33714285714285 L 281.82083333333 57.15142857142857" class="highcharts-graph" data-z-index="1" stroke="#DC440E" stroke-width="2" stroke-linejoin="round" stroke-linecap="round"></path></g><g data-z-index="0.1" class="highcharts-markers highcharts-series-2 highcharts-line-series " transform="translate(35,105) scale(1 1)" clip-path="none"></g><g data-z-index="0.1" class="highcharts-series highcharts-series-3 highcharts-line-series " transform="translate(35,105) scale(1 1)" clip-path="url(#highcharts-dbssobu-7)"><path fill="none" d="M 1.1791666666667 30.35428571428571 L 3.5375 34.504285714285714 L 5.8958333333333 39.01 L 8.2541666666667 46.36142857142857 L 10.6125 49.08857142857143 L 12.970833333333 55.72857142857143 L 15.329166666667 58.69285714285714 L 17.6875 57.269999999999996 L 20.045833333333 53.238571428571426 L 22.404166666667 49.325714285714284 L 24.7625 41.97428571428571 L 27.120833333333 22.647142857142853 L 29.479166666667 24.07 L 31.8375 31.777142857142856 L 34.195833333333 35.215714285714284 L 36.554166666667 45.41285714285714 L 38.9125 52.645714285714284 L 41.270833333333 58.93 L 43.629166666667 63.67285714285714 L 45.9875 66.16285714285715 L 48.345833333333 68.65285714285714 L 50.704166666667 70.78714285714285 L 53.0625 71.61714285714285 L 55.420833333333 72.21 L 57.779166666667 73.15857142857143 L 60.1375 73.63285714285715 L 62.495833333333 73.75142857142858 L 64.854166666667 74.7 L 67.2125 74.7 L 69.570833333333 75.17428571428572 L 71.929166666667 75.29285714285714 L 74.2875 75.76714285714286 L 76.645833333333 77.07142857142857 L 79.004166666667 77.54571428571428 L 81.3625 78.85 L 83.720833333333 78.96857142857142 L 86.079166666667 78.73142857142857 L 88.4375 79.20571428571428 L 90.795833333333 79.32428571428571 L 93.154166666667 79.91714285714286 L 95.5125 80.03571428571429 L 97.870833333333 79.32428571428571 L 100.22916666667 79.08714285714285 L 102.5875 78.85 L 104.94583333333 79.20571428571428 L 107.30416666667 78.73142857142857 L 109.6625 78.61285714285714 L 112.02083333333 78.25714285714285 L 114.37916666667 78.73142857142857 L 116.7375 78.61285714285714 L 119.09583333333 78.85 L 121.45416666667 79.44285714285714 L 123.8125 79.44285714285714 L 126.17083333333 79.79857142857144 L 128.52916666667 80.03571428571429 L 130.8875 80.27285714285715 L 133.24583333333 80.74714285714286 L 135.60416666667 80.74714285714286 L 137.9625 79.91714285714286 L 140.32083333333 79.56142857142856 L 142.67916666667 79.20571428571428 L 145.0375 79.08714285714285 L 147.39583333333 78.61285714285714 L 149.75416666667 79.68 L 152.1125 79.79857142857144 L 154.47083333333 79.20571428571428 L 156.82916666667 80.03571428571429 L 159.1875 79.79857142857144 L 161.54583333333 79.68 L 163.90416666667 79.56142857142856 L 166.2625 79.68 L 168.62083333333 79.32428571428571 L 170.97916666667 79.08714285714285 L 173.3375 78.96857142857142 L 175.69583333333 79.44285714285714 L 178.05416666667 79.56142857142856 L 180.4125 80.39142857142858 L 182.77083333333 81.10285714285715 L 185.12916666667 81.34 L 187.4875 81.10285714285715 L 189.84583333333 80.98428571428572 L 192.20416666667 80.03571428571429 L 194.5625 79.56142857142856 L 196.92083333333 79.08714285714285 L 199.27916666667 77.42714285714285 L 201.6375 78.25714285714285 L 203.99583333333 78.13857142857142 L 206.35416666667 78.96857142857142 L 208.7125 79.20571428571428 L 211.07083333333 79.44285714285714 L 213.42916666667 79.79857142857144 L 215.7875 80.03571428571429 L 218.14583333333 79.56142857142856 L 220.50416666667 78.85 L 222.8625 78.49428571428571 L 225.22083333333 75.76714285714286 L 227.57916666667 75.88571428571429 L 229.9375 76.24142857142857 L 232.29583333333 77.66428571428571 L 234.65416666667 78.96857142857142 L 237.0125 79.56142857142856 L 239.37083333333 79.79857142857144 L 241.72916666667 80.39142857142858 L 244.0875 80.51 L 246.44583333333 80.62857142857143 L 248.80416666667 80.27285714285715 L 251.1625 79.56142857142856 L 253.52083333333 78.02 L 255.87916666667 77.78285714285714 L 258.2375 78.02 L 260.59583333333 78.25714285714285 L 262.95416666667 78.73142857142857 L 265.3125 78.13857142857142 L 267.67083333333 79.68 L 270.02916666667 80.15428571428572 L 272.3875 80.74714285714286 L 274.74583333333 80.86571428571429 L 277.10416666667 80.15428571428572 L 279.4625 80.27285714285715 L 281.82083333333 79.79857142857144" class="highcharts-graph" data-z-index="1" stroke="#B00000" stroke-width="2" stroke-linejoin="round" stroke-linecap="round"></path></g><g data-z-index="0.1" class="highcharts-markers highcharts-series-3 highcharts-line-series " transform="translate(35,105) scale(1 1)" clip-path="none"></g></g><text x="2" text-anchor="start" class="highcharts-title" data-z-index="4" style="color:#000000;font-size:10px;font-weight:bold;fill:#000000;" y="9"><tspan>Arbeitslose im Dienstleistungssektor (II)</tspan></text><text x="2" text-anchor="start" class="highcharts-subtitle" data-z-index="4" style="color:#000000;font-size:10px;font-weight:normal;font-family:Arial;fill:#000000;" y="26"><tspan>Basel-Stadt</tspan></text><g class="highcharts-legend" data-z-index="7" transform="translate(35,42)"><rect fill="none" class="highcharts-legend-box" rx="0" ry="0" x="0" y="0" width="252" height="51" visibility="visible"></rect><g data-z-index="1"><g><g class="highcharts-legend-item highcharts-line-series highcharts-color-undefined highcharts-series-0" data-z-index="1" transform="translate(0,-5)"><path fill="none" d="M 0 10 L 16 10" class="highcharts-graph" stroke="#FFBB58" stroke-width="2"></path><text x="21" style="color:#333333;font-size:10px;font-weight:normal;cursor:pointer;fill:#333333;" text-anchor="start" data-z-index="2" y="13"><tspan>Finanz-, Versicherungs-DL</tspan></text></g><g class="highcharts-legend-item highcharts-line-series highcharts-color-undefined highcharts-series-1" data-z-index="1" transform="translate(0,9)"><path fill="none" d="M 0 10 L 16 10" class="highcharts-graph" stroke="#FF8028" stroke-width="2"></path><text x="21" y="13" style="color:#333333;font-size:10px;font-weight:normal;cursor:pointer;fill:#333333;" text-anchor="start" data-z-index="2"><tspan>Beratung, Planung, Forschung, Immobilien</tspan></text></g><g class="highcharts-legend-item highcharts-line-series highcharts-color-undefined highcharts-series-2" data-z-index="1" transform="translate(0,23)"><path fill="none" d="M 0 10 L 16 10" class="highcharts-graph" stroke="#DC440E" stroke-width="2"></path><text x="21" y="13" style="color:#333333;font-size:10px;font-weight:normal;cursor:pointer;fill:#333333;" text-anchor="start" data-z-index="2"><tspan>Geb채udebetreuung, Sicherheit, sonst. wirtsch. DL</tspan></text></g><g class="highcharts-legend-item highcharts-line-series highcharts-color-undefined highcharts-series-3" data-z-index="1" transform="translate(0,37)"><path fill="none" d="M 0 10 L 16 10" class="highcharts-graph" stroke="#B00000" stroke-width="2"></path><text x="21" y="13" style="color:#333333;font-size:10px;font-weight:normal;cursor:pointer;fill:#333333;" text-anchor="start" data-z-index="2"><tspan>Personalvermittlung, -체berlassung</tspan></text></g></g></g></g><g class="highcharts-axis-labels highcharts-xaxis-labels " data-z-index="7"><text x="50.179166666667" style="color:#000000;cursor:default;font-size:10px;white-space:nowrap;fill:#000000;" text-anchor="middle" transform="translate(0,0)" y="206" opacity="1">2010</text><text x="78.479166666667" style="color:#000000;cursor:default;font-size:10px;white-space:nowrap;fill:#000000;" text-anchor="middle" transform="translate(0,0)" y="206" opacity="1">2011</text><text x="106.779166666667" style="color:#000000;cursor:default;font-size:10px;white-space:nowrap;fill:#000000;" text-anchor="middle" transform="translate(0,0)" y="206" opacity="1">2012</text><text x="135.07916666667" style="color:#000000;cursor:default;font-size:10px;white-space:nowrap;fill:#000000;" text-anchor="middle" transform="translate(0,0)" y="206" opacity="1">2013</text><text x="163.37916666667" style="color:#000000;cursor:default;font-size:10px;white-space:nowrap;fill:#000000;" text-anchor="middle" transform="translate(0,0)" y="206" opacity="1">2014</text><text x="191.67916666667" style="color:#000000;cursor:default;font-size:10px;white-space:nowrap;fill:#000000;" text-anchor="middle" transform="translate(0,0)" y="206" opacity="1">2015</text><text x="219.97916666667" style="color:#000000;cursor:default;font-size:10px;white-space:nowrap;fill:#000000;" text-anchor="middle" transform="translate(0,0)" y="206" opacity="1">2016</text><text x="248.27916666667" style="color:#000000;cursor:default;font-size:10px;white-space:nowrap;fill:#000000;" text-anchor="middle" transform="translate(0,0)" y="206" opacity="1">2017</text><text x="276.57916666667" style="color:#000000;cursor:default;font-size:10px;white-space:nowrap;fill:#000000;" text-anchor="middle" transform="translate(0,0)" y="206" opacity="1">2018</text><text x="304.87916666667" style="color:#000000;cursor:default;font-size:10px;white-space:nowrap;fill:#000000;" text-anchor="middle" transform="translate(0,0)" y="206" opacity="1">2019</text></g><g class="highcharts-axis-labels highcharts-yaxis-labels " data-z-index="7"><text x="20" style="color:#000000;cursor:default;font-size:10;fill:#000000;" text-anchor="end" transform="translate(0,0)" y="191" opacity="1">0</text><text x="20" style="color:#000000;cursor:default;font-size:10;fill:#000000;" text-anchor="end" transform="translate(0,0)" y="179" opacity="1">100</text><text x="20" style="color:#000000;cursor:default;font-size:10;fill:#000000;" text-anchor="end" transform="translate(0,0)" y="167" opacity="1">200</text><text x="20" style="color:#000000;cursor:default;font-size:10;fill:#000000;" text-anchor="end" transform="translate(0,0)" y="155" opacity="1">300</text><text x="20" style="color:#000000;cursor:default;font-size:10;fill:#000000;" text-anchor="end" transform="translate(0,0)" y="144" opacity="1">400</text><text x="20" style="color:#000000;cursor:default;font-size:10;fill:#000000;" text-anchor="end" transform="translate(0,0)" y="132" opacity="1">500</text><text x="20" style="color:#000000;cursor:default;font-size:10;fill:#000000;" text-anchor="end" transform="translate(0,0)" y="120" opacity="1">600</text><text x="20" style="color:#000000;cursor:default;font-size:10;fill:#000000;" text-anchor="end" transform="translate(0,0)" y="108" opacity="1">700</text></g><text x="10" class="highcharts-credits" text-anchor="start" data-z-index="8" style="cursor:default;color:#000000;font-size:10px;fill:#000000;" y="196"><tspan>Quelle: Staatssekretariat f체r Wirtschaft SECO, Arbeitslosenstatistik.</tspan><tspan x="10" dy="13">Zuletzt ge채ndert: 2020-3-25</tspan></text></svg>