<?xml version="1.0" standalone="no"?><!DOCTYPE svg PUBLIC "-//W3C//DTD SVG 1.1//EN" "http://www.w3.org/Graphics/SVG/1.1/DTD/svg11.dtd"><svg xmlns:xlink="http://www.w3.org/1999/xlink" version="1.1" class="highcharts-root" style="font-family:Arial;font-size:12px;" xmlns="http://www.w3.org/2000/svg" viewBox="0 0 485 415"><desc>Created with Highcharts 8.2.0</desc><defs><clipPath id="highcharts-g35i8q8-249-"><rect x="0" y="0" width="401" height="232" fill="none"></rect></clipPath><clipPath id="highcharts-g35i8q8-370-"><rect x="0" y="0" width="401" height="232" fill="none"></rect></clipPath><clipPath id="highcharts-g35i8q8-491-"><rect x="0" y="0" width="401" height="232" fill="none"></rect></clipPath><clipPath id="highcharts-g35i8q8-492-"><rect x="41" y="119" width="401" height="232" fill="none"></rect></clipPath></defs><rect fill="#fbfbfb" class="highcharts-background" x="0" y="0" width="485" height="428" rx="0" ry="0"></rect><rect fill="none" class="highcharts-plot-background" x="41" y="119" width="401" height="232"></rect><g class="highcharts-pane-group" data-z-index="0"></g><g class="highcharts-grid highcharts-xaxis-grid" data-z-index="1"><path fill="none" data-z-index="1" class="highcharts-grid-line" d="M 42.5 119 L 42.5 351" opacity="1"></path><path fill="none" data-z-index="1" class="highcharts-grid-line" d="M 82.5 119 L 82.5 351" opacity="1"></path><path fill="none" data-z-index="1" class="highcharts-grid-line" d="M 122.5 119 L 122.5 351" opacity="1"></path><path fill="none" data-z-index="1" class="highcharts-grid-line" d="M 162.5 119 L 162.5 351" opacity="1"></path><path fill="none" data-z-index="1" class="highcharts-grid-line" d="M 202.5 119 L 202.5 351" opacity="1"></path><path fill="none" data-z-index="1" class="highcharts-grid-line" d="M 242.5 119 L 242.5 351" opacity="1"></path><path fill="none" data-z-index="1" class="highcharts-grid-line" d="M 282.5 119 L 282.5 351" opacity="1"></path><path fill="none" data-z-index="1" class="highcharts-grid-line" d="M 322.5 119 L 322.5 351" opacity="1"></path><path fill="none" data-z-index="1" class="highcharts-grid-line" d="M 362.5 119 L 362.5 351" opacity="1"></path><path fill="none" data-z-index="1" class="highcharts-grid-line" d="M 403.5 119 L 403.5 351" opacity="1"></path></g><g class="highcharts-grid highcharts-yaxis-grid" data-z-index="1"><path fill="none" stroke="#e6e6e6" stroke-width="1" data-z-index="1" class="highcharts-grid-line" d="M 41 351.5 L 442 351.5" opacity="1"></path><path fill="none" stroke="#e6e6e6" stroke-width="1" data-z-index="1" class="highcharts-grid-line" d="M 41 305.5 L 442 305.5" opacity="1"></path><path fill="none" stroke="#e6e6e6" stroke-width="1" data-z-index="1" class="highcharts-grid-line" d="M 41 258.5 L 442 258.5" opacity="1"></path><path fill="none" stroke="#e6e6e6" stroke-width="1" data-z-index="1" class="highcharts-grid-line" d="M 41 212.5 L 442 212.5" opacity="1"></path><path fill="none" stroke="#e6e6e6" stroke-width="1" data-z-index="1" class="highcharts-grid-line" d="M 41 165.5 L 442 165.5" opacity="1"></path><path fill="none" stroke="#e6e6e6" stroke-width="1" data-z-index="1" class="highcharts-grid-line" d="M 41 118.5 L 442 118.5" opacity="1"></path></g><g class="highcharts-grid highcharts-yaxis-grid" data-z-index="1"><path fill="none" data-z-index="1" class="highcharts-grid-line" d="M 41 351.5 L 442 351.5" opacity="1"></path><path fill="none" data-z-index="1" class="highcharts-grid-line" d="M 41 305.5 L 442 305.5" opacity="1"></path><path fill="none" data-z-index="1" class="highcharts-grid-line" d="M 41 258.5 L 442 258.5" opacity="1"></path><path fill="none" data-z-index="1" class="highcharts-grid-line" d="M 41 212.5 L 442 212.5" opacity="1"></path><path fill="none" data-z-index="1" class="highcharts-grid-line" d="M 41 165.5 L 442 165.5" opacity="1"></path><path fill="none" data-z-index="1" class="highcharts-grid-line" d="M 41 119.5 L 442 119.5" opacity="1"></path></g><rect fill="none" class="highcharts-plot-border" data-z-index="1" x="41" y="119" width="401" height="232"></rect><g class="highcharts-axis highcharts-xaxis" data-z-index="2"><path fill="none" class="highcharts-axis-line" stroke="#B9CFD7" stroke-width="0.5" data-z-index="7" d="M 41 351.25 L 442 351.25"></path></g><g class="highcharts-axis highcharts-yaxis" data-z-index="2"><path fill="none" class="highcharts-axis-line" data-z-index="7" d="M 41 119 L 41 351"></path></g><g class="highcharts-axis highcharts-yaxis" data-z-index="2"><path fill="none" class="highcharts-axis-line" data-z-index="7" d="M 442 119 L 442 351"></path></g><g class="highcharts-series-group" data-z-index="3"><g class="highcharts-series highcharts-series-0 highcharts-line-series" data-z-index="0.1" opacity="1" transform="translate(41,119) scale(1 1)" clip-path="url(#highcharts-g35i8q8-370-)"><path fill="none" d="M 1.6708333333333 59.744640000000004 L 5.0125 59.744640000000004 L 8.3541666666667 59.744640000000004 L 11.695833333333 59.744640000000004 L 15.0375 59.744640000000004 L 18.379166666667 59.744640000000004 L 21.720833333333 59.744640000000004 L 25.0625 59.744640000000004 L 28.404166666667 59.744640000000004 L 31.745833333333 59.744640000000004 L 35.0875 59.744640000000004 L 38.429166666667 59.744640000000004 L 41.770833333333 62.65392 L 45.1125 62.65392 L 48.454166666667 62.65392 L 51.795833333333 62.65392 L 55.1375 62.65392 L 58.479166666667 62.65392 L 61.820833333333 62.65392 L 65.1625 62.65392 L 68.504166666667 62.65392 L 71.845833333333 62.65392 L 75.1875 62.65392 L 78.529166666667 62.65392 L 81.870833333333 86.53599999999997 L 85.2125 86.53599999999997 L 88.554166666667 86.53599999999997 L 91.895833333333 86.53599999999997 L 95.2375 86.53599999999997 L 98.579166666667 86.53599999999997 L 101.92083333333 86.53599999999997 L 105.2625 86.53599999999997 L 108.60416666667 86.53599999999997 L 111.94583333333 86.53599999999997 L 115.2875 86.53599999999997 L 118.62916666667 86.53599999999997 L 121.97083333333 71.60911999999999 L 125.3125 71.60911999999999 L 128.65416666667 71.60911999999999 L 131.99583333333 71.60911999999999 L 135.3375 71.60911999999999 L 138.67916666667 71.60911999999999 L 142.02083333333 71.60911999999999 L 145.3625 71.60911999999999 L 148.70416666667 71.60911999999999 L 152.04583333333 71.60911999999999 L 155.3875 71.60911999999999 L 158.72916666667 71.60911999999999 L 162.07083333333 76.12384 L 165.4125 76.12384 L 168.75416666667 76.12384 L 172.09583333333 76.12384 L 175.4375 76.12384 L 178.77916666667 76.12384 L 182.12083333333 76.12384 L 185.4625 76.12384 L 188.80416666667 76.12384 L 192.14583333333 76.12384 L 195.4875 76.12384 L 198.82916666667 76.12384 L 202.17083333333 58.287679999999995 L 205.5125 58.287679999999995 L 208.85416666667 58.287679999999995 L 212.19583333333 58.287679999999995 L 215.5375 58.287679999999995 L 218.87916666667 58.287679999999995 L 222.22083333333 58.287679999999995 L 225.5625 58.287679999999995 L 228.90416666667 58.287679999999995 L 232.24583333333 58.287679999999995 L 235.5875 58.287679999999995 L 238.92916666667 58.287679999999995 L 242.27083333333 60.83504000000002 L 245.6125 60.83504000000002 L 248.95416666667 60.83504000000002 L 252.29583333333 60.83504000000002 L 255.6375 60.83504000000002 L 258.97916666667 60.83504000000002 L 262.32083333333 60.83504000000002 L 265.6625 60.83504000000002 L 269.00416666667 60.83504000000002 L 272.34583333333 60.83504000000002 L 275.6875 60.83504000000002 L 279.02916666667 60.83504000000002 L 282.37083333333 98.1824 L 285.7125 98.1824 L 289.05416666667 98.1824 L 292.39583333333 98.1824 L 295.7375 98.1824 L 299.07916666667 98.1824 L 302.42083333333 98.1824 L 305.7625 98.1824 L 309.10416666667 98.1824 L 312.44583333333 98.1824 L 315.7875 98.1824 L 319.12916666667 98.1824 L 322.47083333333 52.682559999999995 L 325.8125 52.682559999999995 L 329.15416666667 52.682559999999995 L 332.49583333333 52.682559999999995 L 335.8375 52.682559999999995 L 339.17916666667 52.682559999999995 L 342.52083333333 52.682559999999995 L 345.8625 52.682559999999995 L 349.20416666667 52.682559999999995 L 352.54583333333 52.682559999999995 L 355.8875 52.682559999999995 L 359.22916666667 52.682559999999995 L 362.57083333333 26.545440000000013 L 365.9125 26.545440000000013 L 369.25416666667 26.545440000000013 L 372.59583333333 26.545440000000013 L 375.9375 26.545440000000013 L 379.27916666667 26.545440000000013 L 382.62083333333 26.545440000000013 L 385.9625 26.545440000000013 L 389.30416666667 26.545440000000013 L 392.64583333333 26.545440000000013 L 395.9875 26.545440000000013 L 399.32916666667 26.545440000000013" class="highcharts-graph" data-z-index="1" stroke="#B00000" stroke-width="2" stroke-linejoin="round" stroke-linecap="round"></path></g><g class="highcharts-markers highcharts-series-0 highcharts-line-series" data-z-index="0.1" opacity="1" transform="translate(41,119) scale(1 1)" clip-path="none"></g><g class="highcharts-series highcharts-series-1 highcharts-line-series" data-z-index="0.1" opacity="1" transform="translate(41,119) scale(1 1)" clip-path="url(#highcharts-g35i8q8-491-)"><path fill="none" d="M 1.6708333333333 140.128 L 5.0125 137.808 L 8.3541666666667 144.304 L 11.695833333333 145.232 L 15.0375 143.83999999999997 L 18.379166666667 149.40800000000002 L 21.720833333333 144.304 L 25.0625 139.2 L 28.404166666667 135.488 L 31.745833333333 134.096 L 35.0875 135.488 L 38.429166666667 136.88 L 41.770833333333 125.28 L 45.1125 130.38400000000001 L 48.454166666667 136.416 L 51.795833333333 138.272 L 55.1375 143.83999999999997 L 58.479166666667 147.088 L 61.820833333333 144.768 L 65.1625 141.98399999999998 L 68.504166666667 146.16 L 71.845833333333 149.40800000000002 L 75.1875 151.264 L 78.529166666667 149.872 L 81.870833333333 147.552 L 85.2125 148.48 L 88.554166666667 152.192 L 91.895833333333 157.296 L 95.2375 159.152 L 98.579166666667 159.152 L 101.92083333333 162.86399999999998 L 105.2625 164.256 L 108.60416666667 152.192 L 111.94583333333 151.728 L 115.2875 149.40800000000002 L 118.62916666667 152.656 L 121.97083333333 147.088 L 125.3125 149.40800000000002 L 128.65416666667 150.336 L 131.99583333333 149.872 L 135.3375 145.232 L 138.67916666667 140.59199999999998 L 142.02083333333 142.91199999999998 L 145.3625 140.128 L 148.70416666667 146.16 L 152.04583333333 145.696 L 155.3875 152.192 L 158.72916666667 152.192 L 162.07083333333 152.192 L 165.4125 146.624 L 168.75416666667 149.872 L 172.09583333333 149.40800000000002 L 175.4375 148.94400000000002 L 178.77916666667 151.728 L 182.12083333333 151.728 L 185.4625 143.37599999999998 L 188.80416666667 145.232 L 192.14583333333 151.264 L 195.4875 148.94400000000002 L 198.82916666667 151.264 L 202.17083333333 148.48 L 205.5125 147.088 L 208.85416666667 138.272 L 212.19583333333 133.168 L 215.5375 137.808 L 218.87916666667 143.37599999999998 L 222.22083333333 141.05599999999998 L 225.5625 134.56 L 228.90416666667 132.24 L 232.24583333333 137.808 L 235.5875 140.59199999999998 L 238.92916666667 142.44799999999998 L 242.27083333333 132.704 L 245.6125 132.704 L 248.95416666667 130.38400000000001 L 252.29583333333 134.096 L 255.6375 144.304 L 258.97916666667 146.624 L 262.32083333333 145.232 L 265.6625 146.16 L 269.00416666667 143.37599999999998 L 272.34583333333 142.44799999999998 L 275.6875 144.304 L 279.02916666667 150.8 L 282.37083333333 146.624 L 285.7125 149.40800000000002 L 289.05416666667 152.656 L 292.39583333333 159.61599999999999 L 295.7375 167.96800000000002 L 299.07916666667 166.112 L 302.42083333333 163.792 L 305.7625 160.07999999999998 L 309.10416666667 164.72 L 312.44583333333 166.576 L 315.7875 165.648 L 319.12916666667 167.96800000000002 L 322.47083333333 160.54399999999998 L 325.8125 162.39999999999998 L 329.15416666667 147.552 L 332.49583333333 136.88 L 335.8375 128.064 L 339.17916666667 127.6 L 342.52083333333 129.456 L 345.8625 128.064 L 349.20416666667 129.456 L 352.54583333333 131.776 L 355.8875 129.92000000000002 L 359.22916666667 129.456 L 362.57083333333 118.78399999999999 L 365.9125 115.53599999999999 L 369.25416666667 113.216 L 372.59583333333 122.96 L 375.9375 122.96 L 379.27916666667 122.496 L 382.62083333333 128.528 L 385.9625 121.104 L 389.30416666667 124.35199999999999 L 392.64583333333 128.528 L 395.9875 127.6 L 399.32916666667 128.528" class="highcharts-graph" data-z-index="1" stroke="#FF8028" stroke-width="2" stroke-linejoin="round" stroke-linecap="round"></path></g><g class="highcharts-markers highcharts-series-1 highcharts-line-series" data-z-index="0.1" opacity="1" transform="translate(41,119) scale(1 1)" clip-path="none"></g></g><text x="10" text-anchor="start" class="highcharts-title" data-z-index="4" style="color:#000000;font-size:14px;font-weight:bold;fill:#000000;" y="21"><tspan>Arbeitslose und Arbeitslosenquote im Detailhandel</tspan></text><text x="10" text-anchor="start" class="highcharts-subtitle" data-z-index="4" style="color:#000000;font-size:12px;font-weight:normal;fill:#000000;" y="40"><tspan>Basel-Stadt</tspan></text><text x="10" text-anchor="start" class="highcharts-caption" data-z-index="4" style="color:#666666;fill:#666666;" y="385"></text><g class="highcharts-legend" data-z-index="7" transform="translate(33,56)"><rect fill="none" class="highcharts-legend-box" rx="0" ry="0" x="0" y="0" width="279" height="51" visibility="visible"></rect><g data-z-index="1"><g><g class="highcharts-legend-item highcharts-line-series highcharts-color-undefined highcharts-series-0" data-z-index="1" transform="translate(8,3)"><path fill="none" d="M 0 11 L 16 11" class="highcharts-graph" stroke="#B00000" stroke-width="2"></path><text x="21" style="color:#333333;cursor:pointer;font-size:12px;font-weight:normal;fill:#333333;" text-anchor="start" data-z-index="2" y="15"><tspan>Mittlere jährliche Arbeitslosenquote</tspan></text></g><g class="highcharts-legend-item highcharts-line-series highcharts-color-undefined highcharts-series-1" data-z-index="1" transform="translate(8,23)"><path fill="none" d="M 0 11 L 16 11" class="highcharts-graph" stroke="#FF8028" stroke-width="2"></path><text x="21" y="15" style="color:#333333;cursor:pointer;font-size:12px;font-weight:normal;fill:#333333;" text-anchor="start" data-z-index="2"><tspan>Monatliche Anzahl Arbeitslose (rechte Skala)</tspan></text></g></g></g></g><g class="highcharts-axis-labels highcharts-xaxis-labels" data-z-index="7"><text x="62.670833333333" style="color:#000000;cursor:default;font-size:11px;fill:#000000;" text-anchor="middle" transform="translate(0,0)" y="370" opacity="1">2012</text><text x="102.770833333333" style="color:#000000;cursor:default;font-size:11px;fill:#000000;" text-anchor="middle" transform="translate(0,0)" y="370" opacity="1">2013</text><text x="142.87083333332998" style="color:#000000;cursor:default;font-size:11px;fill:#000000;" text-anchor="middle" transform="translate(0,0)" y="370" opacity="1">2014</text><text x="182.97083333333" style="color:#000000;cursor:default;font-size:11px;fill:#000000;" text-anchor="middle" transform="translate(0,0)" y="370" opacity="1">2015</text><text x="223.07083333333" style="color:#000000;cursor:default;font-size:11px;fill:#000000;" text-anchor="middle" transform="translate(0,0)" y="370" opacity="1">2016</text><text x="263.17083333333" style="color:#000000;cursor:default;font-size:11px;fill:#000000;" text-anchor="middle" transform="translate(0,0)" y="370" opacity="1">2017</text><text x="303.27083333333" style="color:#000000;cursor:default;font-size:11px;fill:#000000;" text-anchor="middle" transform="translate(0,0)" y="370" opacity="1">2018</text><text x="343.37083333333" style="color:#000000;cursor:default;font-size:11px;fill:#000000;" text-anchor="middle" transform="translate(0,0)" y="370" opacity="1">2019</text><text x="383.47083333333" style="color:#000000;cursor:default;font-size:11px;fill:#000000;" text-anchor="middle" transform="translate(0,0)" y="370" opacity="1">2020</text><text x="423.57083333333" style="color:#000000;cursor:default;font-size:11px;fill:#000000;" text-anchor="middle" transform="translate(0,0)" y="370" opacity="1">2021</text></g><g class="highcharts-axis-labels highcharts-yaxis-labels" data-z-index="7"><text x="26" style="color:#000000;cursor:default;font-size:11px;fill:#000000;" text-anchor="end" transform="translate(0,0)" y="355" opacity="1">0%</text><text x="26" style="color:#000000;cursor:default;font-size:11px;fill:#000000;" text-anchor="end" transform="translate(0,0)" y="309" opacity="1">1%</text><text x="26" style="color:#000000;cursor:default;font-size:11px;fill:#000000;" text-anchor="end" transform="translate(0,0)" y="262" opacity="1">2%</text><text x="26" style="color:#000000;cursor:default;font-size:11px;fill:#000000;" text-anchor="end" transform="translate(0,0)" y="216" opacity="1">3%</text><text x="26" style="color:#000000;cursor:default;font-size:11px;fill:#000000;" text-anchor="end" transform="translate(0,0)" y="169" opacity="1">4%</text><text x="26" style="color:#000000;cursor:default;font-size:11px;fill:#000000;" text-anchor="end" transform="translate(0,0)" y="123" opacity="1">5%</text></g><g class="highcharts-axis-labels highcharts-yaxis-labels" data-z-index="7"><text x="457" style="color:#000000;cursor:default;font-size:11px;fill:#000000;" text-anchor="start" transform="translate(0,0)" y="355" opacity="1">0</text><text x="457" style="color:#000000;cursor:default;font-size:11px;fill:#000000;" text-anchor="start" transform="translate(0,0)" y="309" opacity="1">100</text><text x="457" style="color:#000000;cursor:default;font-size:11px;fill:#000000;" text-anchor="start" transform="translate(0,0)" y="262" opacity="1">200</text><text x="457" style="color:#000000;cursor:default;font-size:11px;fill:#000000;" text-anchor="start" transform="translate(0,0)" y="216" opacity="1">300</text><text x="457" style="color:#000000;cursor:default;font-size:11px;fill:#000000;" text-anchor="start" transform="translate(0,0)" y="169" opacity="1">400</text><text x="457" style="color:#000000;cursor:default;font-size:11px;fill:#000000;" text-anchor="start" transform="translate(0,0)" y="123" opacity="1">500</text></g><text x="10" class="highcharts-credits" text-anchor="start" data-z-index="8" style="cursor:default;color:#000000;font-size:10px;fill:#000000;" y="403"><tspan>Quelle: Staatssekretariat für Wirtschaft SECO, Arbeitslosenstatistik.</tspan><tspan x="10" dy="13">Zuletzt geändert: 2022-3-29</tspan></text><g class="highcharts-control-points" data-z-index="99" clip-path="url(#highcharts-g35i8q8-492-)"></g></svg>