<?xml version="1.0" standalone="no"?><!DOCTYPE svg PUBLIC "-//W3C//DTD SVG 1.1//EN" "http://www.w3.org/Graphics/SVG/1.1/DTD/svg11.dtd"><svg xmlns:xlink="http://www.w3.org/1999/xlink" version="1.1" class="highcharts-root" style="font-family:Arial;font-size:12px;" xmlns="http://www.w3.org/2000/svg" viewBox="0 0 485 415"><desc>Created with Highcharts 8.2.2</desc><defs><clipPath id="highcharts-lr2u6fj-249-"><rect x="0" y="0" width="395" height="232" fill="none"></rect></clipPath><clipPath id="highcharts-lr2u6fj-370-"><rect x="0" y="0" width="395" height="232" fill="none"></rect></clipPath><clipPath id="highcharts-lr2u6fj-491-"><rect x="0" y="0" width="395" height="232" fill="none"></rect></clipPath><clipPath id="highcharts-lr2u6fj-492-"><rect x="47" y="119" width="395" height="232" fill="none"></rect></clipPath></defs><rect fill="#fbfbfb" class="highcharts-background" x="0" y="0" width="485" height="428" rx="0" ry="0"></rect><rect fill="none" class="highcharts-plot-background" x="47" y="119" width="395" height="232"></rect><g class="highcharts-pane-group" data-z-index="0"></g><g class="highcharts-grid highcharts-xaxis-grid" data-z-index="1"><path fill="none" data-z-index="1" class="highcharts-grid-line" d="M 48.5 119 L 48.5 351" opacity="1"></path><path fill="none" data-z-index="1" class="highcharts-grid-line" d="M 87.5 119 L 87.5 351" opacity="1"></path><path fill="none" data-z-index="1" class="highcharts-grid-line" d="M 127.5 119 L 127.5 351" opacity="1"></path><path fill="none" data-z-index="1" class="highcharts-grid-line" d="M 166.5 119 L 166.5 351" opacity="1"></path><path fill="none" data-z-index="1" class="highcharts-grid-line" d="M 206.5 119 L 206.5 351" opacity="1"></path><path fill="none" data-z-index="1" class="highcharts-grid-line" d="M 245.5 119 L 245.5 351" opacity="1"></path><path fill="none" data-z-index="1" class="highcharts-grid-line" d="M 285.5 119 L 285.5 351" opacity="1"></path><path fill="none" data-z-index="1" class="highcharts-grid-line" d="M 324.5 119 L 324.5 351" opacity="1"></path><path fill="none" data-z-index="1" class="highcharts-grid-line" d="M 364.5 119 L 364.5 351" opacity="1"></path><path fill="none" data-z-index="1" class="highcharts-grid-line" d="M 403.5 119 L 403.5 351" opacity="1"></path></g><g class="highcharts-grid highcharts-yaxis-grid" data-z-index="1"><path fill="none" stroke="#e6e6e6" stroke-width="1" data-z-index="1" class="highcharts-grid-line" d="M 47 351.5 L 442 351.5" opacity="1"></path><path fill="none" stroke="#e6e6e6" stroke-width="1" data-z-index="1" class="highcharts-grid-line" d="M 47 312.5 L 442 312.5" opacity="1"></path><path fill="none" stroke="#e6e6e6" stroke-width="1" data-z-index="1" class="highcharts-grid-line" d="M 47 274.5 L 442 274.5" opacity="1"></path><path fill="none" stroke="#e6e6e6" stroke-width="1" data-z-index="1" class="highcharts-grid-line" d="M 47 235.5 L 442 235.5" opacity="1"></path><path fill="none" stroke="#e6e6e6" stroke-width="1" data-z-index="1" class="highcharts-grid-line" d="M 47 196.5 L 442 196.5" opacity="1"></path><path fill="none" stroke="#e6e6e6" stroke-width="1" data-z-index="1" class="highcharts-grid-line" d="M 47 158.5 L 442 158.5" opacity="1"></path><path fill="none" stroke="#e6e6e6" stroke-width="1" data-z-index="1" class="highcharts-grid-line" d="M 47 118.5 L 442 118.5" opacity="1"></path></g><g class="highcharts-grid highcharts-yaxis-grid" data-z-index="1"><path fill="none" data-z-index="1" class="highcharts-grid-line" d="M 47 351.5 L 442 351.5" opacity="1"></path><path fill="none" data-z-index="1" class="highcharts-grid-line" d="M 47 312.5 L 442 312.5" opacity="1"></path><path fill="none" data-z-index="1" class="highcharts-grid-line" d="M 47 274.5 L 442 274.5" opacity="1"></path><path fill="none" data-z-index="1" class="highcharts-grid-line" d="M 47 235.5 L 442 235.5" opacity="1"></path><path fill="none" data-z-index="1" class="highcharts-grid-line" d="M 47 196.5 L 442 196.5" opacity="1"></path><path fill="none" data-z-index="1" class="highcharts-grid-line" d="M 47 158.5 L 442 158.5" opacity="1"></path><path fill="none" data-z-index="1" class="highcharts-grid-line" d="M 47 119.5 L 442 119.5" opacity="1"></path></g><rect fill="none" class="highcharts-plot-border" data-z-index="1" x="47" y="119" width="395" height="232"></rect><g class="highcharts-axis highcharts-xaxis" data-z-index="2"><path fill="none" class="highcharts-axis-line" stroke="#B9CFD7" stroke-width="0.5" data-z-index="7" d="M 47 351.25 L 442 351.25"></path></g><g class="highcharts-axis highcharts-yaxis" data-z-index="2"><path fill="none" class="highcharts-axis-line" data-z-index="7" d="M 47 119 L 47 351"></path></g><g class="highcharts-axis highcharts-yaxis" data-z-index="2"><path fill="none" class="highcharts-axis-line" data-z-index="7" d="M 442 119 L 442 351"></path></g><g class="highcharts-series-group" data-z-index="3"><g class="highcharts-series highcharts-series-0 highcharts-line-series" data-z-index="0.1" opacity="1" transform="translate(47,119) scale(1 1)" clip-path="url(#highcharts-lr2u6fj-370-)"><path fill="none" d="M 1.6458333333333 129.95479999999998 L 4.9375 129.95479999999998 L 8.2291666666667 129.95479999999998 L 11.520833333333 129.95479999999998 L 14.8125 129.95479999999998 L 18.104166666667 129.95479999999998 L 21.395833333333 129.95479999999998 L 24.6875 129.95479999999998 L 27.979166666667 129.95479999999998 L 31.270833333333 129.95479999999998 L 34.5625 129.95479999999998 L 37.854166666667 129.95479999999998 L 41.145833333333 127.08766666666666 L 44.4375 127.08766666666666 L 47.729166666667 127.08766666666666 L 51.020833333333 127.08766666666666 L 54.3125 127.08766666666666 L 57.604166666667 127.08766666666666 L 60.895833333333 127.08766666666666 L 64.1875 127.08766666666666 L 67.479166666667 127.08766666666666 L 70.770833333333 127.08766666666666 L 74.0625 127.08766666666666 L 77.354166666667 127.08766666666666 L 80.645833333333 120.79853333333332 L 83.9375 120.79853333333332 L 87.229166666667 120.79853333333332 L 90.520833333333 120.79853333333332 L 93.8125 120.79853333333332 L 97.104166666667 120.79853333333332 L 100.39583333333 120.79853333333332 L 103.6875 120.79853333333332 L 106.97916666667 120.79853333333332 L 110.27083333333 120.79853333333332 L 113.5625 120.79853333333332 L 116.85416666667 120.79853333333332 L 120.14583333333 140.54559999999998 L 123.4375 140.54559999999998 L 126.72916666667 140.54559999999998 L 130.02083333333 140.54559999999998 L 133.3125 140.54559999999998 L 136.60416666667 140.54559999999998 L 139.89583333333 140.54559999999998 L 143.1875 140.54559999999998 L 146.47916666667 140.54559999999998 L 149.77083333333 140.54559999999998 L 153.0625 140.54559999999998 L 156.35416666667 140.54559999999998 L 159.64583333333 150.4752 L 162.9375 150.4752 L 166.22916666667 150.4752 L 169.52083333333 150.4752 L 172.8125 150.4752 L 176.10416666667 150.4752 L 179.39583333333 150.4752 L 182.6875 150.4752 L 185.97916666667 150.4752 L 189.27083333333 150.4752 L 192.5625 150.4752 L 195.85416666667 150.4752 L 199.14583333333 133.48506666666665 L 202.4375 133.48506666666665 L 205.72916666667 133.48506666666665 L 209.02083333333 133.48506666666665 L 212.3125 133.48506666666665 L 215.60416666667 133.48506666666665 L 218.89583333333 133.48506666666665 L 222.1875 133.48506666666665 L 225.47916666667 133.48506666666665 L 228.77083333333 133.48506666666665 L 232.0625 133.48506666666665 L 235.35416666667 133.48506666666665 L 238.64583333333 123.6676 L 241.9375 123.6676 L 245.22916666667 123.6676 L 248.52083333333 123.6676 L 251.8125 123.6676 L 255.10416666667 123.6676 L 258.39583333333 123.6676 L 261.6875 123.6676 L 264.97916666667 123.6676 L 268.27083333333 123.6676 L 271.5625 123.6676 L 274.85416666667 123.6676 L 278.14583333333 148.71006666666665 L 281.4375 148.71006666666665 L 284.72916666667 148.71006666666665 L 288.02083333333 148.71006666666665 L 291.3125 148.71006666666665 L 294.60416666667 148.71006666666665 L 297.89583333333 148.71006666666665 L 301.1875 148.71006666666665 L 304.47916666667 148.71006666666665 L 307.77083333333 148.71006666666665 L 311.0625 148.71006666666665 L 314.35416666667 148.71006666666665 L 317.64583333333 152.13013333333333 L 320.9375 152.13013333333333 L 324.22916666667 152.13013333333333 L 327.52083333333 152.13013333333333 L 330.8125 152.13013333333333 L 334.10416666667 152.13013333333333 L 337.39583333333 152.13013333333333 L 340.6875 152.13013333333333 L 343.97916666667 152.13013333333333 L 347.27083333333 152.13013333333333 L 350.5625 152.13013333333333 L 353.85416666667 152.13013333333333 L 357.14583333333 147.27553333333333 L 360.4375 147.27553333333333 L 363.72916666667 147.27553333333333 L 367.02083333333 147.27553333333333 L 370.3125 147.27553333333333 L 373.60416666667 147.27553333333333 L 376.89583333333 147.27553333333333 L 380.1875 147.27553333333333 L 383.47916666667 147.27553333333333 L 386.77083333333 147.27553333333333 L 390.0625 147.27553333333333 L 393.35416666667 147.27553333333333" class="highcharts-graph" data-z-index="1" stroke="#B00000" stroke-width="2" stroke-linejoin="round" stroke-linecap="round"></path></g><g class="highcharts-markers highcharts-series-0 highcharts-line-series" data-z-index="0.1" opacity="1" transform="translate(47,119) scale(1 1)" clip-path="none"></g><g class="highcharts-series highcharts-series-1 highcharts-line-series" data-z-index="0.1" opacity="1" transform="translate(47,119) scale(1 1)" clip-path="url(#highcharts-lr2u6fj-491-)"><path fill="none" d="M 1.6458333333333 168.58666666666667 L 4.9375 170.90666666666667 L 8.2291666666667 170.90666666666667 L 11.520833333333 170.90666666666667 L 14.8125 167.81333333333333 L 18.104166666667 167.04000000000002 L 21.395833333333 176.32 L 24.6875 174.77333333333334 L 27.979166666667 176.32 L 31.270833333333 177.86666666666667 L 34.5625 173.22666666666666 L 37.854166666667 174 L 41.145833333333 170.90666666666667 L 44.4375 170.13333333333333 L 47.729166666667 173.22666666666666 L 51.020833333333 172.45333333333332 L 54.3125 174.77333333333334 L 57.604166666667 174 L 60.895833333333 175.54666666666668 L 64.1875 167.81333333333333 L 67.479166666667 170.13333333333333 L 70.770833333333 166.26666666666665 L 74.0625 168.58666666666667 L 77.354166666667 164.72 L 80.645833333333 166.26666666666665 L 83.9375 163.94666666666666 L 87.229166666667 157.76 L 90.520833333333 153.12 L 93.8125 156.98666666666668 L 97.104166666667 163.17333333333335 L 100.39583333333 170.13333333333333 L 103.6875 174 L 106.97916666667 172.45333333333332 L 110.27083333333 173.22666666666666 L 113.5625 178.64 L 116.85416666667 174.77333333333334 L 120.14583333333 174.77333333333334 L 123.4375 180.18666666666667 L 126.72916666667 184.82666666666665 L 130.02083333333 184.05333333333334 L 133.3125 180.18666666666667 L 136.60416666667 185.6 L 139.89583333333 180.96 L 143.1875 179.41333333333333 L 146.47916666667 174 L 149.77083333333 172.45333333333332 L 153.0625 172.45333333333332 L 156.35416666667 174 L 159.64583333333 180.18666666666667 L 162.9375 182.50666666666666 L 166.22916666667 187.92000000000002 L 169.52083333333 180.18666666666667 L 172.8125 180.96 L 176.10416666667 186.37333333333333 L 179.39583333333 183.28 L 182.6875 183.28 L 185.97916666667 187.92000000000002 L 189.27083333333 186.37333333333333 L 192.5625 188.69333333333333 L 195.85416666667 184.82666666666665 L 199.14583333333 182.50666666666666 L 202.4375 191.01333333333332 L 205.72916666667 180.18666666666667 L 209.02083333333 174 L 212.3125 173.22666666666666 L 215.60416666667 167.04000000000002 L 218.89583333333 170.13333333333333 L 222.1875 174 L 225.47916666667 178.64 L 228.77083333333 170.13333333333333 L 232.0625 170.90666666666667 L 235.35416666667 161.62666666666667 L 238.64583333333 156.98666666666668 L 241.9375 159.30666666666667 L 245.22916666667 159.30666666666667 L 248.52083333333 153.89333333333332 L 251.8125 163.17333333333335 L 255.10416666667 165.49333333333334 L 258.39583333333 169.36 L 261.6875 174 L 264.97916666667 181.73333333333335 L 268.27083333333 181.73333333333335 L 271.5625 179.41333333333333 L 274.85416666667 180.18666666666667 L 278.14583333333 175.54666666666668 L 281.4375 172.45333333333332 L 284.72916666667 175.54666666666668 L 288.02083333333 174.77333333333334 L 291.3125 180.96 L 294.60416666667 187.14666666666668 L 297.89583333333 187.92000000000002 L 301.1875 187.14666666666668 L 304.47916666667 189.46666666666667 L 307.77083333333 189.46666666666667 L 311.0625 185.6 L 314.35416666667 194.10666666666668 L 317.64583333333 188.69333333333333 L 320.9375 187.14666666666668 L 324.22916666667 187.92000000000002 L 327.52083333333 184.82666666666665 L 330.8125 184.05333333333334 L 334.10416666667 184.82666666666665 L 337.39583333333 186.37333333333333 L 340.6875 187.14666666666668 L 343.97916666667 187.92000000000002 L 347.27083333333 183.28 L 350.5625 180.18666666666667 L 353.85416666667 181.73333333333335 L 357.14583333333 180.96 L 360.4375 187.92000000000002 L 363.72916666667 188.69333333333333 L 367.02083333333 179.41333333333333 L 370.3125 181.73333333333335 L 373.60416666667 178.64 L 376.89583333333 181.73333333333335 L 380.1875 182.50666666666666 L 383.47916666667 185.6 L 386.77083333333 185.6 L 390.0625 179.41333333333333 L 393.35416666667 177.86666666666667" class="highcharts-graph" data-z-index="1" stroke="#FF8028" stroke-width="2" stroke-linejoin="round" stroke-linecap="round"></path></g><g class="highcharts-markers highcharts-series-1 highcharts-line-series" data-z-index="0.1" opacity="1" transform="translate(47,119) scale(1 1)" clip-path="none"></g></g><text x="10" text-anchor="start" class="highcharts-title" data-z-index="4" style="color:#000000;font-size:14px;font-weight:bold;fill:#000000;" y="21"><tspan>Arbeitslose und Arbeitslosenquote im Landverkehr</tspan></text><text x="10" text-anchor="start" class="highcharts-subtitle" data-z-index="4" style="color:#000000;font-size:12px;font-weight:normal;fill:#000000;" y="40"><tspan>Basel-Stadt</tspan></text><text x="10" text-anchor="start" class="highcharts-caption" data-z-index="4" style="color:#666666;fill:#666666;" y="385"></text><g class="highcharts-legend" data-z-index="7" transform="translate(39,56)"><rect fill="none" class="highcharts-legend-box" rx="0" ry="0" x="0" y="0" width="279" height="51" visibility="visible"></rect><g data-z-index="1"><g><g class="highcharts-legend-item highcharts-line-series highcharts-color-undefined highcharts-series-0" data-z-index="1" transform="translate(8,3)"><path fill="none" d="M 0 11 L 16 11" class="highcharts-graph" stroke="#B00000" stroke-width="2"></path><text x="21" style="color:#333333;cursor:pointer;font-size:12px;font-weight:normal;fill:#333333;" text-anchor="start" data-z-index="2" y="15"><tspan>Mittlere jährliche Arbeitslosenquote</tspan></text></g><g class="highcharts-legend-item highcharts-line-series highcharts-color-undefined highcharts-series-1" data-z-index="1" transform="translate(8,23)"><path fill="none" d="M 0 11 L 16 11" class="highcharts-graph" stroke="#FF8028" stroke-width="2"></path><text x="21" y="15" style="color:#333333;cursor:pointer;font-size:12px;font-weight:normal;fill:#333333;" text-anchor="start" data-z-index="2"><tspan>Monatliche Anzahl Arbeitslose (rechte Skala)</tspan></text></g></g></g></g><g class="highcharts-axis-labels highcharts-xaxis-labels" data-z-index="7"><text x="68.645833333333" style="color:#000000;cursor:default;font-size:11px;fill:#000000;" text-anchor="middle" transform="translate(0,0)" y="370" opacity="1">2015</text><text x="108.145833333333" style="color:#000000;cursor:default;font-size:11px;fill:#000000;" text-anchor="middle" transform="translate(0,0)" y="370" opacity="1">2016</text><text x="147.64583333333002" style="color:#000000;cursor:default;font-size:11px;fill:#000000;" text-anchor="middle" transform="translate(0,0)" y="370" opacity="1">2017</text><text x="187.14583333333" style="color:#000000;cursor:default;font-size:11px;fill:#000000;" text-anchor="middle" transform="translate(0,0)" y="370" opacity="1">2018</text><text x="226.64583333333" style="color:#000000;cursor:default;font-size:11px;fill:#000000;" text-anchor="middle" transform="translate(0,0)" y="370" opacity="1">2019</text><text x="266.14583333332996" style="color:#000000;cursor:default;font-size:11px;fill:#000000;" text-anchor="middle" transform="translate(0,0)" y="370" opacity="1">2020</text><text x="305.64583333333" style="color:#000000;cursor:default;font-size:11px;fill:#000000;" text-anchor="middle" transform="translate(0,0)" y="370" opacity="1">2021</text><text x="345.14583333333" style="color:#000000;cursor:default;font-size:11px;fill:#000000;" text-anchor="middle" transform="translate(0,0)" y="370" opacity="1">2022</text><text x="384.64583333333" style="color:#000000;cursor:default;font-size:11px;fill:#000000;" text-anchor="middle" transform="translate(0,0)" y="370" opacity="1">2023</text><text x="424.14583333333" style="color:#000000;cursor:default;font-size:11px;fill:#000000;" text-anchor="middle" transform="translate(0,0)" y="370" opacity="1">2024</text></g><g class="highcharts-axis-labels highcharts-yaxis-labels" data-z-index="7"><text x="32" style="color:#000000;cursor:default;font-size:11px;fill:#000000;" text-anchor="end" transform="translate(0,0)" y="355" opacity="1">0%</text><text x="32" style="color:#000000;cursor:default;font-size:11px;fill:#000000;" text-anchor="end" transform="translate(0,0)" y="316" opacity="1">2%</text><text x="32" style="color:#000000;cursor:default;font-size:11px;fill:#000000;" text-anchor="end" transform="translate(0,0)" y="278" opacity="1">4%</text><text x="32" style="color:#000000;cursor:default;font-size:11px;fill:#000000;" text-anchor="end" transform="translate(0,0)" y="239" opacity="1">6%</text><text x="32" style="color:#000000;cursor:default;font-size:11px;fill:#000000;" text-anchor="end" transform="translate(0,0)" y="200" opacity="1">8%</text><text x="32" style="color:#000000;cursor:default;font-size:11px;fill:#000000;" text-anchor="end" transform="translate(0,0)" y="162" opacity="1">10%</text><text x="32" style="color:#000000;cursor:default;font-size:11px;fill:#000000;" text-anchor="end" transform="translate(0,0)" y="123" opacity="1">12%</text></g><g class="highcharts-axis-labels highcharts-yaxis-labels" data-z-index="7"><text x="457" style="color:#000000;cursor:default;font-size:11px;fill:#000000;" text-anchor="start" transform="translate(0,0)" y="355" opacity="1">0</text><text x="457" style="color:#000000;cursor:default;font-size:11px;fill:#000000;" text-anchor="start" transform="translate(0,0)" y="316" opacity="1">50</text><text x="457" style="color:#000000;cursor:default;font-size:11px;fill:#000000;" text-anchor="start" transform="translate(0,0)" y="278" opacity="1">100</text><text x="457" style="color:#000000;cursor:default;font-size:11px;fill:#000000;" text-anchor="start" transform="translate(0,0)" y="239" opacity="1">150</text><text x="457" style="color:#000000;cursor:default;font-size:11px;fill:#000000;" text-anchor="start" transform="translate(0,0)" y="200" opacity="1">200</text><text x="457" style="color:#000000;cursor:default;font-size:11px;fill:#000000;" text-anchor="start" transform="translate(0,0)" y="162" opacity="1">250</text><text x="457" style="color:#000000;cursor:default;font-size:11px;fill:#000000;" text-anchor="start" transform="translate(0,0)" y="123" opacity="1">300</text></g><text x="10" class="highcharts-credits" text-anchor="start" data-z-index="8" style="cursor:default;color:#000000;font-size:10px;fill:#000000;" y="403"><tspan>Quelle: Staatssekretariat für Wirtschaft SECO, Arbeitslosenstatistik.</tspan><tspan x="10" dy="13">Zuletzt geändert: 17.3.2025</tspan></text><g class="highcharts-control-points" data-z-index="99" clip-path="url(#highcharts-lr2u6fj-492-)"></g></svg>