<?xml version="1.0" standalone="no"?><!DOCTYPE svg PUBLIC "-//W3C//DTD SVG 1.1//EN" "http://www.w3.org/Graphics/SVG/1.1/DTD/svg11.dtd"><svg xmlns:xlink="http://www.w3.org/1999/xlink" version="1.1" class="highcharts-root" style="font-family:Arial;font-size:12px;" xmlns="http://www.w3.org/2000/svg" viewBox="0 0 485 415"><desc>Created with Highstock 6.1.1</desc><defs><clipPath id="highcharts-loqkj94-6"><rect x="0" y="0" width="217" height="310" fill="none"></rect></clipPath><clipPath id="highcharts-loqkj94-7"><rect x="0" y="0" width="217" height="310" fill="none"></rect></clipPath></defs><rect fill="#fbfbfb" class="highcharts-background" x="0" y="0" width="485" height="428" rx="0" ry="0"></rect><rect fill="none" class="highcharts-plot-background" x="52" y="56" width="217" height="310"></rect><g class="highcharts-pane-group" data-z-index="0"></g><g class="highcharts-grid highcharts-xaxis-grid " data-z-index="1"><path fill="none" data-z-index="1" class="highcharts-grid-line" d="M 82.5 56 L 82.5 366" opacity="1"></path><path fill="none" data-z-index="1" class="highcharts-grid-line" d="M 113.5 56 L 113.5 366" opacity="1"></path><path fill="none" data-z-index="1" class="highcharts-grid-line" d="M 144.5 56 L 144.5 366" opacity="1"></path><path fill="none" data-z-index="1" class="highcharts-grid-line" d="M 175.5 56 L 175.5 366" opacity="1"></path><path fill="none" data-z-index="1" class="highcharts-grid-line" d="M 206.5 56 L 206.5 366" opacity="1"></path><path fill="none" data-z-index="1" class="highcharts-grid-line" d="M 237.5 56 L 237.5 366" opacity="1"></path><path fill="none" data-z-index="1" class="highcharts-grid-line" d="M 268.5 56 L 268.5 366" opacity="1"></path><path fill="none" data-z-index="1" class="highcharts-grid-line" d="M 51.5 56 L 51.5 366" opacity="1"></path></g><g class="highcharts-grid highcharts-yaxis-grid " data-z-index="1"><path fill="none" stroke="#B9CFD7" stroke-width="0.5" data-z-index="1" class="highcharts-grid-line" d="M 52 366.25 L 269 366.25" opacity="1"></path><path fill="none" stroke="#B9CFD7" stroke-width="0.5" data-z-index="1" class="highcharts-grid-line" d="M 52 314.25 L 269 314.25" opacity="1"></path><path fill="none" stroke="#B9CFD7" stroke-width="0.5" data-z-index="1" class="highcharts-grid-line" d="M 52 263.25 L 269 263.25" opacity="1"></path><path fill="none" stroke="#B9CFD7" stroke-width="0.5" data-z-index="1" class="highcharts-grid-line" d="M 52 211.25 L 269 211.25" opacity="1"></path><path fill="none" stroke="#B9CFD7" stroke-width="0.5" data-z-index="1" class="highcharts-grid-line" d="M 52 159.25 L 269 159.25" opacity="1"></path><path fill="none" stroke="#B9CFD7" stroke-width="0.5" data-z-index="1" class="highcharts-grid-line" d="M 52 108.25 L 269 108.25" opacity="1"></path><path fill="none" stroke="#B9CFD7" stroke-width="0.5" data-z-index="1" class="highcharts-grid-line" d="M 52 55.75 L 269 55.75" opacity="1"></path></g><rect fill="none" class="highcharts-plot-border" data-z-index="1" x="52" y="56" width="217" height="310"></rect><g class="highcharts-axis highcharts-xaxis " data-z-index="2"><path fill="none" class="highcharts-axis-line" stroke="#B9CFD7" stroke-width="0.5" data-z-index="7" d="M 52 366.25 L 269 366.25"></path></g><g class="highcharts-axis highcharts-yaxis " data-z-index="2"><path fill="none" class="highcharts-axis-line" data-z-index="7" d="M 52 56 L 52 366"></path></g><g class="highcharts-series-group" data-z-index="3"><g data-z-index="0.1" class="highcharts-series highcharts-series-0 highcharts-column-series " transform="translate(52,56) scale(1 1)" clip-path="url(#highcharts-loqkj94-7)"><rect x="3" y="214" width="25" height="97" fill="#246370" class="highcharts-point"></rect><rect x="34" y="190" width="25" height="121" fill="#246370" class="highcharts-point"></rect><rect x="65" y="185" width="25" height="126" fill="#246370" class="highcharts-point"></rect><rect x="96" y="183" width="25" height="128" fill="#246370" class="highcharts-point"></rect><rect x="127" y="206" width="25" height="105" fill="#246370" class="highcharts-point"></rect><rect x="158" y="203" width="25" height="108" fill="#246370" class="highcharts-point"></rect><rect x="189" y="193" width="25" height="118" fill="#246370" class="highcharts-point"></rect></g><g data-z-index="0.1" class="highcharts-markers highcharts-series-0 highcharts-column-series " transform="translate(52,56) scale(1 1)" clip-path="none"></g><g data-z-index="0.1" class="highcharts-series highcharts-series-1 highcharts-column-series " transform="translate(52,56) scale(1 1)" clip-path="url(#highcharts-loqkj94-7)"><rect x="3" y="112" width="25" height="102" fill="#689199" class="highcharts-point"></rect><rect x="34" y="64" width="25" height="126" fill="#689199" class="highcharts-point"></rect><rect x="65" y="57" width="25" height="128" fill="#689199" class="highcharts-point"></rect><rect x="96" y="72" width="25" height="111" fill="#689199" class="highcharts-point"></rect><rect x="127" y="97" width="25" height="109" fill="#689199" class="highcharts-point"></rect><rect x="158" y="102" width="25" height="101" fill="#689199" class="highcharts-point"></rect><rect x="189" y="94" width="25" height="99" fill="#689199" class="highcharts-point"></rect></g><g data-z-index="0.1" class="highcharts-markers highcharts-series-1 highcharts-column-series " transform="translate(52,56) scale(1 1)" clip-path="none"></g><g data-z-index="0.1" class="highcharts-series highcharts-series-2 highcharts-column-series " transform="translate(52,56) scale(1 1)" clip-path="url(#highcharts-loqkj94-7)"><rect x="3" y="101" width="25" height="11" fill="#D3E2E4" class="highcharts-point"></rect><rect x="34" y="51" width="25" height="13" fill="#D3E2E4" class="highcharts-point"></rect><rect x="65" y="41" width="25" height="16" fill="#D3E2E4" class="highcharts-point"></rect><rect x="96" y="56" width="25" height="16" fill="#D3E2E4" class="highcharts-point"></rect><rect x="127" y="81" width="25" height="16" fill="#D3E2E4" class="highcharts-point"></rect><rect x="158" y="88" width="25" height="14" fill="#D3E2E4" class="highcharts-point"></rect><rect x="189" y="77" width="25" height="17" fill="#D3E2E4" class="highcharts-point"></rect></g><g data-z-index="0.1" class="highcharts-markers highcharts-series-2 highcharts-column-series " transform="translate(52,56) scale(1 1)" clip-path="none"></g></g><text x="10" text-anchor="start" class="highcharts-title" data-z-index="4" style="color:#000000;font-size:14px;font-weight:bold;fill:#000000;" y="21"><tspan>Beschäftigung in der Branche IT-Dienstleistungen</tspan></text><text x="10" text-anchor="start" class="highcharts-subtitle" data-z-index="4" style="color:#000000;font-size:12px;font-weight:normal;font-family:Arial;fill:#000000;" y="40"><tspan>in Vollzeitäquivalenten, Basel-Stadt</tspan></text><g class="highcharts-legend" data-z-index="7" transform="translate(281,164)"><rect fill="none" class="highcharts-legend-box" rx="0" ry="0" x="0" y="0" width="194" height="71" visibility="visible"></rect><g data-z-index="1"><g><g class="highcharts-legend-item highcharts-column-series highcharts-color-undefined highcharts-series-2" data-z-index="1" transform="translate(8,3)"><text x="21" style="color:#333333;font-size:12px;font-weight:normal;cursor:pointer;fill:#333333;" text-anchor="start" data-z-index="2" y="15"><tspan>Sonstige</tspan></text><rect x="2" y="4" width="12" height="12" fill="#D3E2E4" class="highcharts-point" data-z-index="3"></rect></g><g class="highcharts-legend-item highcharts-column-series highcharts-color-undefined highcharts-series-1" data-z-index="1" transform="translate(8,23)"><text x="21" y="15" style="color:#333333;font-size:12px;font-weight:normal;cursor:pointer;fill:#333333;" text-anchor="start" data-z-index="2"><tspan>IT-Beratung</tspan></text><rect x="2" y="4" width="12" height="12" fill="#689199" class="highcharts-point" data-z-index="3"></rect></g><g class="highcharts-legend-item highcharts-column-series highcharts-color-undefined highcharts-series-0" data-z-index="1" transform="translate(8,43)"><text x="21" y="15" style="color:#333333;font-size:12px;font-weight:normal;cursor:pointer;fill:#333333;" text-anchor="start" data-z-index="2"><tspan>Programmierungstätigkeiten</tspan></text><rect x="2" y="4" width="12" height="12" fill="#246370" class="highcharts-point" data-z-index="3"></rect></g></g></g></g><g class="highcharts-axis-labels highcharts-xaxis-labels " data-z-index="7"><text x="67.5" style="color:#000000;cursor:default;font-size:11px;fill:#000000;" text-anchor="middle" transform="translate(0,0)" y="385" opacity="1">2011</text><text x="98.5" style="color:#000000;cursor:default;font-size:11px;fill:#000000;" text-anchor="middle" transform="translate(0,0)" y="385" opacity="1">2012</text><text x="129.5" style="color:#000000;cursor:default;font-size:11px;fill:#000000;" text-anchor="middle" transform="translate(0,0)" y="385" opacity="1">2013</text><text x="160.5" style="color:#000000;cursor:default;font-size:11px;fill:#000000;" text-anchor="middle" transform="translate(0,0)" y="385" opacity="1">2014</text><text x="191.5" style="color:#000000;cursor:default;font-size:11px;fill:#000000;" text-anchor="middle" transform="translate(0,0)" y="385" opacity="1">2015</text><text x="222.5" style="color:#000000;cursor:default;font-size:11px;fill:#000000;" text-anchor="middle" transform="translate(0,0)" y="385" opacity="1">2016</text><text x="253.5" style="color:#000000;cursor:default;font-size:11px;fill:#000000;" text-anchor="middle" transform="translate(0,0)" y="385" opacity="1">2017</text></g><g class="highcharts-axis-labels highcharts-yaxis-labels " data-z-index="7"><text x="37" style="color:#000000;cursor:default;font-size:11px;fill:#000000;" text-anchor="end" transform="translate(0,0)" y="370" opacity="1">0</text><text x="37" style="color:#000000;cursor:default;font-size:11px;fill:#000000;" text-anchor="end" transform="translate(0,0)" y="318" opacity="1">500</text><text x="37" style="color:#000000;cursor:default;font-size:11px;fill:#000000;" text-anchor="end" transform="translate(0,0)" y="267" opacity="1"><tspan>1 000</tspan></text><text x="37" style="color:#000000;cursor:default;font-size:11px;fill:#000000;" text-anchor="end" transform="translate(0,0)" y="215" opacity="1"><tspan>1 500</tspan></text><text x="37" style="color:#000000;cursor:default;font-size:11px;fill:#000000;" text-anchor="end" transform="translate(0,0)" y="163" opacity="1"><tspan>2 000</tspan></text><text x="37" style="color:#000000;cursor:default;font-size:11px;fill:#000000;" text-anchor="end" transform="translate(0,0)" y="112" opacity="1"><tspan>2 500</tspan></text><text x="37" style="color:#000000;cursor:default;font-size:11px;fill:#000000;" text-anchor="end" transform="translate(0,0)" y="60" opacity="1"><tspan>3 000</tspan></text></g><text x="10" class="highcharts-credits" text-anchor="start" data-z-index="8" style="cursor:default;color:#000000;font-size:10px;fill:#000000;" y="403"><tspan>Quelle: Bundesamt für Statistik (BFS), Statistik der Unternehmensstruktur (STATENT).</tspan><tspan x="10" dy="13">Zuletzt geändert: 2020-3-17</tspan></text></svg>