<?xml version="1.0" standalone="no"?><!DOCTYPE svg PUBLIC "-//W3C//DTD SVG 1.1//EN" "http://www.w3.org/Graphics/SVG/1.1/DTD/svg11.dtd"><svg xmlns:xlink="http://www.w3.org/1999/xlink" version="1.1" class="highcharts-root" style="font-family:Arial;font-size:12px;" xmlns="http://www.w3.org/2000/svg" viewBox="0 0 485 415"><desc>Created with Highstock 6.1.1</desc><defs><clipPath id="highcharts-h0huhkx-6"><rect x="0" y="0" width="230" height="295" fill="none"></rect></clipPath><clipPath id="highcharts-h0huhkx-7"><rect x="0" y="0" width="230" height="295" fill="none"></rect></clipPath></defs><rect fill="#fbfbfb" class="highcharts-background" x="0" y="0" width="485" height="428" rx="0" ry="0"></rect><rect fill="none" class="highcharts-plot-background" x="52" y="72" width="230" height="295"></rect><g class="highcharts-pane-group" data-z-index="0"></g><g class="highcharts-grid highcharts-xaxis-grid " data-z-index="1"><path fill="none" data-z-index="1" class="highcharts-grid-line" d="M 89.5 72 L 89.5 367" opacity="1"></path><path fill="none" data-z-index="1" class="highcharts-grid-line" d="M 128.5 72 L 128.5 367" opacity="1"></path><path fill="none" data-z-index="1" class="highcharts-grid-line" d="M 166.5 72 L 166.5 367" opacity="1"></path><path fill="none" data-z-index="1" class="highcharts-grid-line" d="M 204.5 72 L 204.5 367" opacity="1"></path><path fill="none" data-z-index="1" class="highcharts-grid-line" d="M 243.5 72 L 243.5 367" opacity="1"></path><path fill="none" data-z-index="1" class="highcharts-grid-line" d="M 281.5 72 L 281.5 367" opacity="1"></path><path fill="none" data-z-index="1" class="highcharts-grid-line" d="M 51.5 72 L 51.5 367" opacity="1"></path></g><g class="highcharts-grid highcharts-yaxis-grid " data-z-index="1"><path fill="none" stroke="#B9CFD7" stroke-width="0.5" data-z-index="1" class="highcharts-grid-line" d="M 52 367.25 L 282 367.25" opacity="1"></path><path fill="none" stroke="#B9CFD7" stroke-width="0.5" data-z-index="1" class="highcharts-grid-line" d="M 52 325.25 L 282 325.25" opacity="1"></path><path fill="none" stroke="#B9CFD7" stroke-width="0.5" data-z-index="1" class="highcharts-grid-line" d="M 52 283.25 L 282 283.25" opacity="1"></path><path fill="none" stroke="#B9CFD7" stroke-width="0.5" data-z-index="1" class="highcharts-grid-line" d="M 52 241.25 L 282 241.25" opacity="1"></path><path fill="none" stroke="#B9CFD7" stroke-width="0.5" data-z-index="1" class="highcharts-grid-line" d="M 52 198.25 L 282 198.25" opacity="1"></path><path fill="none" stroke="#B9CFD7" stroke-width="0.5" data-z-index="1" class="highcharts-grid-line" d="M 52 156.25 L 282 156.25" opacity="1"></path><path fill="none" stroke="#B9CFD7" stroke-width="0.5" data-z-index="1" class="highcharts-grid-line" d="M 52 114.25 L 282 114.25" opacity="1"></path><path fill="none" stroke="#B9CFD7" stroke-width="0.5" data-z-index="1" class="highcharts-grid-line" d="M 52 71.75 L 282 71.75" opacity="1"></path></g><rect fill="none" class="highcharts-plot-border" data-z-index="1" x="52" y="72" width="230" height="295"></rect><g class="highcharts-axis highcharts-xaxis " data-z-index="2"><path fill="none" class="highcharts-axis-line" stroke="#B9CFD7" stroke-width="0.5" data-z-index="7" d="M 52 367.25 L 282 367.25"></path></g><g class="highcharts-axis highcharts-yaxis " data-z-index="2"><path fill="none" class="highcharts-axis-line" data-z-index="7" d="M 52 72 L 52 367"></path></g><g class="highcharts-series-group" data-z-index="3"><g data-z-index="0.1" class="highcharts-series highcharts-series-0 highcharts-column-series " transform="translate(52,72) scale(1 1)" clip-path="url(#highcharts-h0huhkx-7)"><rect x="7" y="263" width="25" height="33" fill="#246370" class="highcharts-point"></rect><rect x="45" y="272" width="25" height="24" fill="#246370" class="highcharts-point"></rect><rect x="83" y="263" width="25" height="33" fill="#246370" class="highcharts-point"></rect><rect x="122" y="231" width="25" height="65" fill="#246370" class="highcharts-point"></rect><rect x="160" y="235" width="25" height="61" fill="#246370" class="highcharts-point"></rect><rect x="198" y="263" width="25" height="33" fill="#246370" class="highcharts-point"></rect></g><g data-z-index="0.1" class="highcharts-markers highcharts-series-0 highcharts-column-series " transform="translate(52,72) scale(1 1)" clip-path="none"></g><g data-z-index="0.1" class="highcharts-series highcharts-series-1 highcharts-column-series " transform="translate(52,72) scale(1 1)" clip-path="url(#highcharts-h0huhkx-7)"><rect x="7" y="57" width="25" height="206" fill="#689199" class="highcharts-point"></rect><rect x="45" y="50" width="25" height="222" fill="#689199" class="highcharts-point"></rect><rect x="83" y="18" width="25" height="245" fill="#689199" class="highcharts-point"></rect><rect x="122" y="23" width="25" height="208" fill="#689199" class="highcharts-point"></rect><rect x="160" y="40" width="25" height="195" fill="#689199" class="highcharts-point"></rect><rect x="198" y="32" width="25" height="231" fill="#689199" class="highcharts-point"></rect></g><g data-z-index="0.1" class="highcharts-markers highcharts-series-1 highcharts-column-series " transform="translate(52,72) scale(1 1)" clip-path="none"></g><g data-z-index="0.1" class="highcharts-series highcharts-series-2 highcharts-column-series " transform="translate(52,72) scale(1 1)" clip-path="url(#highcharts-h0huhkx-7)"><rect x="7" y="57" width="25" height="0" fill="#D3E2E4" class="highcharts-point"></rect><rect x="83" y="18" width="25" height="0" fill="#D3E2E4" class="highcharts-point"></rect><rect x="122" y="23" width="25" height="0" fill="#D3E2E4" class="highcharts-point"></rect><rect x="160" y="40" width="25" height="0" fill="#D3E2E4" class="highcharts-point"></rect><rect x="198" y="32" width="25" height="0" fill="#D3E2E4" class="highcharts-point"></rect></g><g data-z-index="0.1" class="highcharts-markers highcharts-series-2 highcharts-column-series " transform="translate(52,72) scale(1 1)" clip-path="none"></g></g><text x="10" text-anchor="start" class="highcharts-title" data-z-index="4" style="color:#000000;font-size:14px;font-weight:bold;fill:#000000;" y="21"><tspan>Beschäftigung in der Branche Personalvermittlung und</tspan><tspan x="10" dy="17">-überlassung</tspan></text><text x="10" text-anchor="start" class="highcharts-subtitle" data-z-index="4" style="color:#000000;font-size:12px;font-weight:normal;font-family:Arial;fill:#000000;" y="57"><tspan>in Vollzeitäquivalenten, Basel-Stadt</tspan></text><g class="highcharts-legend" data-z-index="7" transform="translate(294,143)"><rect fill="none" class="highcharts-legend-box" rx="0" ry="0" x="0" y="0" width="180" height="113" visibility="visible"></rect><g data-z-index="1"><g><g class="highcharts-legend-item highcharts-column-series highcharts-color-undefined highcharts-series-2" data-z-index="1" transform="translate(8,3)"><text x="21" style="color:#333333;font-size:12px;font-weight:normal;cursor:pointer;fill:#333333;" text-anchor="start" data-z-index="2" y="15"><tspan>Sonstige Überlassung von</tspan><tspan dy="15" x="21">Arbeitskräften</tspan></text><rect x="2" y="4" width="12" height="12" fill="#D3E2E4" class="highcharts-point" data-z-index="3"></rect></g><g class="highcharts-legend-item highcharts-column-series highcharts-color-undefined highcharts-series-1" data-z-index="1" transform="translate(8,37)"><text x="21" y="15" style="color:#333333;font-size:12px;font-weight:normal;cursor:pointer;fill:#333333;" text-anchor="start" data-z-index="2"><tspan>Befristete Überlassung von</tspan><tspan dy="15" x="21">Arbeitskräften</tspan></text><rect x="2" y="4" width="12" height="12" fill="#689199" class="highcharts-point" data-z-index="3"></rect></g><g class="highcharts-legend-item highcharts-column-series highcharts-color-undefined highcharts-series-0" data-z-index="1" transform="translate(8,71)"><text x="21" y="15" style="color:#333333;font-size:12px;font-weight:normal;cursor:pointer;fill:#333333;" text-anchor="start" data-z-index="2"><tspan>Vermittlung von</tspan><tspan dy="15" x="21">Arbeitskräften</tspan></text><rect x="2" y="4" width="12" height="12" fill="#246370" class="highcharts-point" data-z-index="3"></rect></g></g></g></g><g class="highcharts-axis-labels highcharts-xaxis-labels " data-z-index="7"><text x="71.16666666666633" style="color:#000000;cursor:default;font-size:11px;fill:#000000;" text-anchor="middle" transform="translate(0,0)" y="386" opacity="1">2011</text><text x="109.50000000000334" style="color:#000000;cursor:default;font-size:11px;fill:#000000;" text-anchor="middle" transform="translate(0,0)" y="386" opacity="1">2012</text><text x="147.83333333333334" style="color:#000000;cursor:default;font-size:11px;fill:#000000;" text-anchor="middle" transform="translate(0,0)" y="386" opacity="1">2013</text><text x="186.16666666666333" style="color:#000000;cursor:default;font-size:11px;fill:#000000;" text-anchor="middle" transform="translate(0,0)" y="386" opacity="1">2014</text><text x="224.50000000000335" style="color:#000000;cursor:default;font-size:11px;fill:#000000;" text-anchor="middle" transform="translate(0,0)" y="386" opacity="1">2015</text><text x="262.8333333333333" style="color:#000000;cursor:default;font-size:11px;fill:#000000;" text-anchor="middle" transform="translate(0,0)" y="386" opacity="1">2016</text></g><g class="highcharts-axis-labels highcharts-yaxis-labels " data-z-index="7"><text x="37" style="color:#000000;cursor:default;font-size:11px;fill:#000000;" text-anchor="end" transform="translate(0,0)" y="372" opacity="1">0</text><text x="37" style="color:#000000;cursor:default;font-size:11px;fill:#000000;" text-anchor="end" transform="translate(0,0)" y="329" opacity="1"><tspan>1 000</tspan></text><text x="37" style="color:#000000;cursor:default;font-size:11px;fill:#000000;" text-anchor="end" transform="translate(0,0)" y="287" opacity="1"><tspan>2 000</tspan></text><text x="37" style="color:#000000;cursor:default;font-size:11px;fill:#000000;" text-anchor="end" transform="translate(0,0)" y="245" opacity="1"><tspan>3 000</tspan></text><text x="37" style="color:#000000;cursor:default;font-size:11px;fill:#000000;" text-anchor="end" transform="translate(0,0)" y="203" opacity="1"><tspan>4 000</tspan></text><text x="37" style="color:#000000;cursor:default;font-size:11px;fill:#000000;" text-anchor="end" transform="translate(0,0)" y="161" opacity="1"><tspan>5 000</tspan></text><text x="37" style="color:#000000;cursor:default;font-size:11px;fill:#000000;" text-anchor="end" transform="translate(0,0)" y="119" opacity="1"><tspan>6 000</tspan></text><text x="37" style="color:#000000;cursor:default;font-size:11px;fill:#000000;" text-anchor="end" transform="translate(0,0)" y="77" opacity="1"><tspan>7 000</tspan></text></g><text x="10" class="highcharts-credits" text-anchor="start" data-z-index="8" style="cursor:default;color:#000000;font-size:10px;fill:#000000;" y="403"><tspan>Quelle: Bundesamt für Statistik (BFS), Statistik der Unternehmensstruktur (STATENT).</tspan><tspan x="10" dy="13">Zuletzt geändert: 2019-3-25</tspan></text></svg>