<?xml version="1.0" standalone="no"?><!DOCTYPE svg PUBLIC "-//W3C//DTD SVG 1.1//EN" "http://www.w3.org/Graphics/SVG/1.1/DTD/svg11.dtd"><svg xmlns:xlink="http://www.w3.org/1999/xlink" version="1.1" class="highcharts-root" style="font-family:Arial;font-size:12px;" xmlns="http://www.w3.org/2000/svg" viewBox="0 0 485 415"><desc>Created with Highstock 6.1.1</desc><defs><clipPath id="highcharts-rq4okod-8"><rect x="0" y="0" width="247" height="90" fill="none"></rect></clipPath><clipPath id="highcharts-rq4okod-9"><rect x="0" y="0" width="247" height="90" fill="none"></rect></clipPath><clipPath id="highcharts-rq4okod-10"><rect x="0" y="0" width="247" height="90" fill="none"></rect></clipPath></defs><rect fill="#fbfbfb" class="highcharts-background" x="0" y="0" width="320" height="221" rx="0" ry="0"></rect><rect fill="none" class="highcharts-plot-background" x="38" y="98" width="247" height="90"></rect><g class="highcharts-pane-group" data-z-index="0"></g><g class="highcharts-grid highcharts-xaxis-grid " data-z-index="1"><path fill="none" data-z-index="1" class="highcharts-grid-line" d="M 38.5 98 L 38.5 188" opacity="1"></path><path fill="none" data-z-index="1" class="highcharts-grid-line" d="M 63.5 98 L 63.5 188" opacity="1"></path><path fill="none" data-z-index="1" class="highcharts-grid-line" d="M 87.5 98 L 87.5 188" opacity="1"></path><path fill="none" data-z-index="1" class="highcharts-grid-line" d="M 112.5 98 L 112.5 188" opacity="1"></path><path fill="none" data-z-index="1" class="highcharts-grid-line" d="M 137.5 98 L 137.5 188" opacity="1"></path><path fill="none" data-z-index="1" class="highcharts-grid-line" d="M 162.5 98 L 162.5 188" opacity="1"></path><path fill="none" data-z-index="1" class="highcharts-grid-line" d="M 186.5 98 L 186.5 188" opacity="1"></path><path fill="none" data-z-index="1" class="highcharts-grid-line" d="M 211.5 98 L 211.5 188" opacity="1"></path><path fill="none" data-z-index="1" class="highcharts-grid-line" d="M 236.5 98 L 236.5 188" opacity="1"></path><path fill="none" data-z-index="1" class="highcharts-grid-line" d="M 260.5 98 L 260.5 188" opacity="1"></path></g><g class="highcharts-grid highcharts-yaxis-grid " data-z-index="1"><path fill="none" stroke="#B9CFD7" stroke-width="0.5" data-z-index="1" class="highcharts-grid-line" d="M 38 188.25 L 285 188.25" opacity="1"></path><path fill="none" stroke="#B9CFD7" stroke-width="0.5" data-z-index="1" class="highcharts-grid-line" d="M 38 173.25 L 285 173.25" opacity="1"></path><path fill="none" stroke="#B9CFD7" stroke-width="0.5" data-z-index="1" class="highcharts-grid-line" d="M 38 158.25 L 285 158.25" opacity="1"></path><path fill="none" stroke="#B9CFD7" stroke-width="0.5" data-z-index="1" class="highcharts-grid-line" d="M 38 143.25 L 285 143.25" opacity="1"></path><path fill="none" stroke="#B9CFD7" stroke-width="0.5" data-z-index="1" class="highcharts-grid-line" d="M 38 128.25 L 285 128.25" opacity="1"></path><path fill="none" stroke="#B9CFD7" stroke-width="0.5" data-z-index="1" class="highcharts-grid-line" d="M 38 113.25 L 285 113.25" opacity="1"></path><path fill="none" stroke="#B9CFD7" stroke-width="0.5" data-z-index="1" class="highcharts-grid-line" d="M 38 97.75 L 285 97.75" opacity="1"></path></g><g class="highcharts-grid highcharts-yaxis-grid " data-z-index="1"><path fill="none" data-z-index="1" class="highcharts-grid-line" d="M 38 188.5 L 285 188.5" opacity="1"></path><path fill="none" data-z-index="1" class="highcharts-grid-line" d="M 38 173.5 L 285 173.5" opacity="1"></path><path fill="none" data-z-index="1" class="highcharts-grid-line" d="M 38 158.5 L 285 158.5" opacity="1"></path><path fill="none" data-z-index="1" class="highcharts-grid-line" d="M 38 143.5 L 285 143.5" opacity="1"></path><path fill="none" data-z-index="1" class="highcharts-grid-line" d="M 38 128.5 L 285 128.5" opacity="1"></path><path fill="none" data-z-index="1" class="highcharts-grid-line" d="M 38 113.5 L 285 113.5" opacity="1"></path><path fill="none" data-z-index="1" class="highcharts-grid-line" d="M 38 98.5 L 285 98.5" opacity="1"></path></g><rect fill="none" class="highcharts-plot-border" data-z-index="1" x="38" y="98" width="247" height="90"></rect><g class="highcharts-axis highcharts-xaxis " data-z-index="2"><path fill="none" class="highcharts-axis-line" stroke="#B9CFD7" stroke-width="0.5" data-z-index="7" d="M 38 188.25 L 285 188.25"></path></g><g class="highcharts-axis highcharts-yaxis " data-z-index="2"><path fill="none" class="highcharts-axis-line" data-z-index="7" d="M 38 98 L 38 188"></path></g><g class="highcharts-axis highcharts-yaxis " data-z-index="2"><path fill="none" class="highcharts-axis-line" data-z-index="7" d="M 285 98 L 285 188"></path></g><g class="highcharts-series-group" data-z-index="3"><g data-z-index="0.1" class="highcharts-series highcharts-series-0 highcharts-line-series " transform="translate(38,98) scale(1 1)" clip-path="url(#highcharts-rq4okod-9)"><path fill="none" d="M 1.0291666666667 47.16675 L 3.0875 47.16675 L 5.1458333333333 47.16675 L 7.2041666666667 47.16675 L 9.2625 47.16675 L 11.320833333333 47.16675 L 13.379166666667 47.16675 L 15.4375 47.16675 L 17.495833333333 47.16675 L 19.554166666667 47.16675 L 21.6125 47.16675 L 23.670833333333 47.16675 L 25.729166666667 47.214 L 27.7875 47.214 L 29.845833333333 47.214 L 31.904166666667 47.214 L 33.9625 47.214 L 36.020833333333 47.214 L 38.079166666667 47.214 L 40.1375 47.214 L 42.195833333333 47.214 L 44.254166666667 47.214 L 46.3125 47.214 L 48.370833333333 47.214 L 50.429166666667 30.547500000000007 L 52.4875 30.547500000000007 L 54.545833333333 30.547500000000007 L 56.604166666667 30.547500000000007 L 58.6625 30.547500000000007 L 60.720833333333 30.547500000000007 L 62.779166666667 30.547500000000007 L 64.8375 30.547500000000007 L 66.895833333333 30.547500000000007 L 68.954166666667 30.547500000000007 L 71.0125 30.547500000000007 L 73.070833333333 30.547500000000007 L 75.129166666667 31.452000000000005 L 77.1875 31.452000000000005 L 79.245833333333 31.452000000000005 L 81.304166666667 31.452000000000005 L 83.3625 31.452000000000005 L 85.420833333333 31.452000000000005 L 87.479166666667 31.452000000000005 L 89.5375 31.452000000000005 L 91.595833333333 31.452000000000005 L 93.654166666667 31.452000000000005 L 95.7125 31.452000000000005 L 97.770833333333 31.452000000000005 L 99.829166666667 31.285500000000006 L 101.8875 31.285500000000006 L 103.94583333333 31.285500000000006 L 106.00416666667 31.285500000000006 L 108.0625 31.285500000000006 L 110.12083333333 31.285500000000006 L 112.17916666667 31.285500000000006 L 114.2375 31.285500000000006 L 116.29583333333 31.285500000000006 L 118.35416666667 31.285500000000006 L 120.4125 31.285500000000006 L 122.47083333333 31.285500000000006 L 124.52916666667 18.189750000000004 L 126.5875 18.189750000000004 L 128.64583333333 18.189750000000004 L 130.70416666667 18.189750000000004 L 132.7625 18.189750000000004 L 134.82083333333 18.189750000000004 L 136.87916666667 18.189750000000004 L 138.9375 18.189750000000004 L 140.99583333333 18.189750000000004 L 143.05416666667 18.189750000000004 L 145.1125 18.189750000000004 L 147.17083333333 18.189750000000004 L 149.22916666667 9.332999999999998 L 151.2875 9.332999999999998 L 153.34583333333 9.332999999999998 L 155.40416666667 9.332999999999998 L 157.4625 9.332999999999998 L 159.52083333333 9.332999999999998 L 161.57916666667 9.332999999999998 L 163.6375 9.332999999999998 L 165.69583333333 9.332999999999998 L 167.75416666667 9.332999999999998 L 169.8125 9.332999999999998 L 171.87083333333 9.332999999999998 L 173.92916666667 20.951999999999998 L 175.9875 20.951999999999998 L 178.04583333333 20.951999999999998 L 180.10416666667 20.951999999999998 L 182.1625 20.951999999999998 L 184.22083333333 20.951999999999998 L 186.27916666667 20.951999999999998 L 188.3375 20.951999999999998 L 190.39583333333 20.951999999999998 L 192.45416666667 20.951999999999998 L 194.5125 20.951999999999998 L 196.57083333333 20.951999999999998 L 198.62916666667 19.451999999999998 L 200.6875 19.451999999999998 L 202.74583333333 19.451999999999998 L 204.80416666667 19.451999999999998 L 206.8625 19.451999999999998 L 208.92083333333 19.451999999999998 L 210.97916666667 19.451999999999998 L 213.0375 19.451999999999998 L 215.09583333333 19.451999999999998 L 217.15416666667 19.451999999999998 L 219.2125 19.451999999999998 L 221.27083333333 19.451999999999998 L 223.32916666667 21.5475 L 225.3875 21.5475 L 227.44583333333 21.5475 L 229.50416666667 21.5475 L 231.5625 21.5475 L 233.62083333333 21.5475 L 235.67916666667 21.5475 L 237.7375 21.5475 L 239.79583333333 21.5475 L 241.85416666667 21.5475 L 243.9125 21.5475 L 245.97083333333 21.5475" class="highcharts-graph" data-z-index="1" stroke="#B00000" stroke-width="2" stroke-linejoin="round" stroke-linecap="round"></path></g><g data-z-index="0.1" class="highcharts-markers highcharts-series-0 highcharts-line-series " transform="translate(38,98) scale(1 1)" clip-path="none"></g><g data-z-index="0.1" class="highcharts-series highcharts-series-1 highcharts-line-series " transform="translate(38,98) scale(1 1)" clip-path="url(#highcharts-rq4okod-10)"><path fill="none" d="M 1.0291666666667 60.6 L 3.0875 59.25 L 5.1458333333333 62.7 L 7.2041666666667 65.25 L 9.2625 66.6 L 11.320833333333 67.95 L 13.379166666667 71.25 L 15.4375 71.7 L 17.495833333333 72.6 L 19.554166666667 73.2 L 21.6125 71.55 L 23.670833333333 67.5 L 25.729166666667 66.9 L 27.7875 65.4 L 29.845833333333 66.9 L 31.904166666667 70.65 L 33.9625 70.35 L 36.020833333333 70.65 L 38.079166666667 72.75 L 40.1375 71.1 L 42.195833333333 70.35 L 44.254166666667 68.7 L 46.3125 62.25 L 48.370833333333 54.45 L 50.429166666667 47.550000000000004 L 52.4875 47.25 L 54.545833333333 49.2 L 56.604166666667 55.2 L 58.6625 59.55 L 60.720833333333 64.35 L 62.779166666667 66.15 L 64.8375 69 L 66.895833333333 69.45 L 68.954166666667 66.75 L 71.0125 61.5 L 73.070833333333 49.5 L 75.129166666667 45.15 L 77.1875 48.45 L 79.245833333333 53.25 L 81.304166666667 56.7 L 83.3625 61.2 L 85.420833333333 64.95 L 87.479166666667 68.1 L 89.5375 69 L 91.595833333333 66.9 L 93.654166666667 65.1 L 95.7125 61.2 L 97.770833333333 51.15 L 99.829166666667 49.800000000000004 L 101.8875 53.25 L 103.94583333333 54.6 L 106.00416666667 59.1 L 108.0625 64.2 L 110.12083333333 68.25 L 112.17916666667 67.95 L 114.2375 68.25 L 116.29583333333 65.55 L 118.35416666667 62.85 L 120.4125 55.050000000000004 L 122.47083333333 41.25 L 124.52916666667 40.65 L 126.5875 43.2 L 128.64583333333 44.25 L 130.70416666667 49.800000000000004 L 132.7625 54.6 L 134.82083333333 58.95 L 136.87916666667 62.25 L 138.9375 63.45 L 140.99583333333 61.8 L 143.05416666667 58.05 L 145.1125 49.35 L 147.17083333333 41.25 L 149.22916666667 36.75 L 151.2875 36.9 L 153.34583333333 40.95 L 155.40416666667 43.800000000000004 L 157.4625 45.9 L 159.52083333333 49.800000000000004 L 161.57916666667 54 L 163.6375 57.300000000000004 L 165.69583333333 57.15 L 167.75416666667 57 L 169.8125 50.7 L 171.87083333333 41.550000000000004 L 173.92916666667 39 L 175.9875 44.4 L 178.04583333333 47.550000000000004 L 180.10416666667 51.9 L 182.1625 55.5 L 184.22083333333 59.55 L 186.27916666667 63.45 L 188.3375 60.900000000000006 L 190.39583333333 64.2 L 192.45416666667 60.75 L 194.5125 54.300000000000004 L 196.57083333333 43.5 L 198.62916666667 40.65 L 200.6875 43.5 L 202.74583333333 45.300000000000004 L 204.80416666667 50.550000000000004 L 206.8625 56.85 L 208.92083333333 60.900000000000006 L 210.97916666667 62.1 L 213.0375 62.55 L 215.09583333333 62.400000000000006 L 217.15416666667 59.400000000000006 L 219.2125 51.45 L 221.27083333333 39.9 L 223.32916666667 36.9 L 225.3875 40.95 L 227.44583333333 46.2 L 229.50416666667 50.550000000000004 L 231.5625 53.85 L 233.62083333333 59.55 L 235.67916666667 64.35 L 237.7375 64.2 L 239.79583333333 65.25 L 241.85416666667 63.900000000000006 L 243.9125 55.5 L 245.97083333333 47.550000000000004" class="highcharts-graph" data-z-index="1" stroke="#FF8028" stroke-width="2" stroke-linejoin="round" stroke-linecap="round"></path></g><g data-z-index="0.1" class="highcharts-markers highcharts-series-1 highcharts-line-series " transform="translate(38,98) scale(1 1)" clip-path="none"></g></g><text x="2" text-anchor="start" class="highcharts-title" data-z-index="4" style="color:#000000;font-size:10px;font-weight:bold;fill:#000000;" y="9"><tspan>Arbeitslose und Arbeitslosenquote im</tspan><tspan dy="13" x="2">Baunebengewerbe</tspan></text><text x="2" text-anchor="start" class="highcharts-subtitle" data-z-index="4" style="color:#000000;font-size:10px;font-weight:normal;font-family:Arial;fill:#000000;" y="39"><tspan>Basel-Stadt</tspan></text><g class="highcharts-legend" data-z-index="7" transform="translate(38,55)"><rect fill="none" class="highcharts-legend-box" rx="0" ry="0" x="0" y="0" width="231" height="31" visibility="visible"></rect><g data-z-index="1"><g><g class="highcharts-legend-item highcharts-line-series highcharts-color-undefined highcharts-series-0" data-z-index="1" transform="translate(0,-5)"><path fill="none" d="M 0 10 L 16 10" class="highcharts-graph" stroke="#B00000" stroke-width="2"></path><text x="21" style="color:#333333;font-size:10px;font-weight:normal;cursor:pointer;fill:#333333;" text-anchor="start" data-z-index="2" y="13"><tspan>Mittlere jährliche Arbeitslosenquote</tspan></text></g><g class="highcharts-legend-item highcharts-line-series highcharts-color-undefined highcharts-series-1" data-z-index="1" transform="translate(0,13)"><path fill="none" d="M 0 10 L 16 10" class="highcharts-graph" stroke="#FF8028" stroke-width="2"></path><text x="21" y="13" style="color:#333333;font-size:10px;font-weight:normal;cursor:pointer;fill:#333333;" text-anchor="start" data-z-index="2"><tspan>Monatliche Anzahl Arbeitslose (rechte Skala)</tspan></text></g></g></g></g><g class="highcharts-axis-labels highcharts-xaxis-labels " data-z-index="7"><text x="51.529166666667" style="color:#000000;cursor:default;font-size:10px;white-space:nowrap;fill:#000000;" text-anchor="middle" transform="translate(0,0)" y="206" opacity="1">2010</text><text x="76.229166666667" style="color:#000000;cursor:default;font-size:10px;white-space:nowrap;fill:#000000;" text-anchor="middle" transform="translate(0,0)" y="206" opacity="1">2011</text><text x="100.929166666667" style="color:#000000;cursor:default;font-size:10px;white-space:nowrap;fill:#000000;" text-anchor="middle" transform="translate(0,0)" y="206" opacity="1">2012</text><text x="125.62916666667" style="color:#000000;cursor:default;font-size:10px;white-space:nowrap;fill:#000000;" text-anchor="middle" transform="translate(0,0)" y="206" opacity="1">2013</text><text x="150.32916666667" style="color:#000000;cursor:default;font-size:10px;white-space:nowrap;fill:#000000;" text-anchor="middle" transform="translate(0,0)" y="206" opacity="1">2014</text><text x="175.02916666667" style="color:#000000;cursor:default;font-size:10px;white-space:nowrap;fill:#000000;" text-anchor="middle" transform="translate(0,0)" y="206" opacity="1">2015</text><text x="199.72916666667" style="color:#000000;cursor:default;font-size:10px;white-space:nowrap;fill:#000000;" text-anchor="middle" transform="translate(0,0)" y="206" opacity="1">2016</text><text x="224.42916666667" style="color:#000000;cursor:default;font-size:10px;white-space:nowrap;fill:#000000;" text-anchor="middle" transform="translate(0,0)" y="206" opacity="1">2017</text><text x="249.12916666667" style="color:#000000;cursor:default;font-size:10px;white-space:nowrap;fill:#000000;" text-anchor="middle" transform="translate(0,0)" y="206" opacity="1">2018</text><text x="273.82916666667" style="color:#000000;cursor:default;font-size:10px;white-space:nowrap;fill:#000000;" text-anchor="middle" transform="translate(0,0)" y="206" opacity="1">2019</text></g><g class="highcharts-axis-labels highcharts-yaxis-labels " data-z-index="7"><text x="23" style="color:#000000;cursor:default;font-size:10px;fill:#000000;" text-anchor="end" transform="translate(0,0)" y="192" opacity="1">0%</text><text x="23" style="color:#000000;cursor:default;font-size:10px;fill:#000000;" text-anchor="end" transform="translate(0,0)" y="177" opacity="1">2%</text><text x="23" style="color:#000000;cursor:default;font-size:10px;fill:#000000;" text-anchor="end" transform="translate(0,0)" y="162" opacity="1">4%</text><text x="23" style="color:#000000;cursor:default;font-size:10px;fill:#000000;" text-anchor="end" transform="translate(0,0)" y="147" opacity="1">6%</text><text x="23" style="color:#000000;cursor:default;font-size:10px;fill:#000000;" text-anchor="end" transform="translate(0,0)" y="132" opacity="1">8%</text><text x="23" style="color:#000000;cursor:default;font-size:10px;fill:#000000;" text-anchor="end" transform="translate(0,0)" y="117" opacity="1">10%</text><text x="23" style="color:#000000;cursor:default;font-size:10px;fill:#000000;" text-anchor="end" transform="translate(0,0)" y="102" opacity="1">12%</text></g><g class="highcharts-axis-labels highcharts-yaxis-labels " data-z-index="7"><text x="300" style="color:#000000;cursor:default;font-size:10px;fill:#000000;" text-anchor="start" transform="translate(0,0)" y="192" opacity="1">0</text><text x="300" style="color:#000000;cursor:default;font-size:10px;fill:#000000;" text-anchor="start" transform="translate(0,0)" y="177" opacity="1">100</text><text x="300" style="color:#000000;cursor:default;font-size:10px;fill:#000000;" text-anchor="start" transform="translate(0,0)" y="162" opacity="1">200</text><text x="300" style="color:#000000;cursor:default;font-size:10px;fill:#000000;" text-anchor="start" transform="translate(0,0)" y="147" opacity="1">300</text><text x="300" style="color:#000000;cursor:default;font-size:10px;fill:#000000;" text-anchor="start" transform="translate(0,0)" y="132" opacity="1">400</text><text x="300" style="color:#000000;cursor:default;font-size:10px;fill:#000000;" text-anchor="start" transform="translate(0,0)" y="117" opacity="1">500</text><text x="300" style="color:#000000;cursor:default;font-size:10px;fill:#000000;" text-anchor="start" transform="translate(0,0)" y="102" opacity="1">600</text></g><text x="10" class="highcharts-credits" text-anchor="start" data-z-index="8" style="cursor:default;color:#000000;font-size:10px;fill:#000000;" y="196"><tspan>Quelle: Staatssekretariat für Wirtschaft SECO, Arbeitslosenstatistik.</tspan><tspan x="10" dy="13">Zuletzt geändert: 2020-3-25</tspan></text></svg>