<?xml version="1.0" standalone="no"?><!DOCTYPE svg PUBLIC "-//W3C//DTD SVG 1.1//EN" "http://www.w3.org/Graphics/SVG/1.1/DTD/svg11.dtd"><svg xmlns:xlink="http://www.w3.org/1999/xlink" version="1.1" class="highcharts-root" style="font-family:Arial;font-size:12px;" xmlns="http://www.w3.org/2000/svg" viewBox="0 0 485 415"><desc>Created with Highstock 6.1.1</desc><defs><clipPath id="highcharts-8imny9z-8"><rect x="0" y="0" width="253" height="103" fill="none"></rect></clipPath><clipPath id="highcharts-8imny9z-9"><rect x="0" y="0" width="253" height="103" fill="none"></rect></clipPath><clipPath id="highcharts-8imny9z-10"><rect x="0" y="0" width="253" height="103" fill="none"></rect></clipPath></defs><rect fill="#fbfbfb" class="highcharts-background" x="0" y="0" width="320" height="221" rx="0" ry="0"></rect><rect fill="none" class="highcharts-plot-background" x="32" y="85" width="253" height="103"></rect><g class="highcharts-pane-group" data-z-index="0"></g><g class="highcharts-grid highcharts-xaxis-grid " data-z-index="1"><path fill="none" data-z-index="1" class="highcharts-grid-line" d="M 32.5 85 L 32.5 188" opacity="1"></path><path fill="none" data-z-index="1" class="highcharts-grid-line" d="M 57.5 85 L 57.5 188" opacity="1"></path><path fill="none" data-z-index="1" class="highcharts-grid-line" d="M 83.5 85 L 83.5 188" opacity="1"></path><path fill="none" data-z-index="1" class="highcharts-grid-line" d="M 108.5 85 L 108.5 188" opacity="1"></path><path fill="none" data-z-index="1" class="highcharts-grid-line" d="M 133.5 85 L 133.5 188" opacity="1"></path><path fill="none" data-z-index="1" class="highcharts-grid-line" d="M 159.5 85 L 159.5 188" opacity="1"></path><path fill="none" data-z-index="1" class="highcharts-grid-line" d="M 184.5 85 L 184.5 188" opacity="1"></path><path fill="none" data-z-index="1" class="highcharts-grid-line" d="M 209.5 85 L 209.5 188" opacity="1"></path><path fill="none" data-z-index="1" class="highcharts-grid-line" d="M 234.5 85 L 234.5 188" opacity="1"></path><path fill="none" data-z-index="1" class="highcharts-grid-line" d="M 260.5 85 L 260.5 188" opacity="1"></path></g><rect fill="none" class="highcharts-plot-border" data-z-index="1" x="32" y="85" width="253" height="103"></rect><g class="highcharts-grid highcharts-yaxis-grid " data-z-index="1"><path fill="none" stroke="#B9CFD7" stroke-width="0.5" data-z-index="1" class="highcharts-grid-line" d="M 32 188.25 L 285 188.25" opacity="1"></path><path fill="none" stroke="#B9CFD7" stroke-width="0.5" data-z-index="1" class="highcharts-grid-line" d="M 32 171.25 L 285 171.25" opacity="1"></path><path fill="none" stroke="#B9CFD7" stroke-width="0.5" data-z-index="1" class="highcharts-grid-line" d="M 32 154.25 L 285 154.25" opacity="1"></path><path fill="none" stroke="#B9CFD7" stroke-width="0.5" data-z-index="1" class="highcharts-grid-line" d="M 32 137.25 L 285 137.25" opacity="1"></path><path fill="none" stroke="#B9CFD7" stroke-width="0.5" data-z-index="1" class="highcharts-grid-line" d="M 32 119.25 L 285 119.25" opacity="1"></path><path fill="none" stroke="#B9CFD7" stroke-width="0.5" data-z-index="1" class="highcharts-grid-line" d="M 32 102.25 L 285 102.25" opacity="1"></path><path fill="none" stroke="#B9CFD7" stroke-width="0.5" data-z-index="1" class="highcharts-grid-line" d="M 32 84.75 L 285 84.75" opacity="1"></path></g><g class="highcharts-grid highcharts-yaxis-grid " data-z-index="1"><path fill="none" stroke="#B9CFD7" stroke-width="0.5" data-z-index="1" class="highcharts-grid-line" d="M 32 188.25 L 285 188.25" opacity="1"></path><path fill="none" stroke="#B9CFD7" stroke-width="0.5" data-z-index="1" class="highcharts-grid-line" d="M 32 171.25 L 285 171.25" opacity="1"></path><path fill="none" stroke="#B9CFD7" stroke-width="0.5" data-z-index="1" class="highcharts-grid-line" d="M 32 154.25 L 285 154.25" opacity="1"></path><path fill="none" stroke="#B9CFD7" stroke-width="0.5" data-z-index="1" class="highcharts-grid-line" d="M 32 137.25 L 285 137.25" opacity="1"></path><path fill="none" stroke="#B9CFD7" stroke-width="0.5" data-z-index="1" class="highcharts-grid-line" d="M 32 119.25 L 285 119.25" opacity="1"></path><path fill="none" stroke="#B9CFD7" stroke-width="0.5" data-z-index="1" class="highcharts-grid-line" d="M 32 102.25 L 285 102.25" opacity="1"></path><path fill="none" stroke="#B9CFD7" stroke-width="0.5" data-z-index="1" class="highcharts-grid-line" d="M 32 84.75 L 285 84.75" opacity="1"></path></g><g class="highcharts-axis highcharts-xaxis " data-z-index="2"><path fill="none" class="highcharts-axis-line" stroke="#B9CFD7" stroke-width="0.5" data-z-index="7" d="M 32 188.25 L 285 188.25"></path></g><g class="highcharts-axis highcharts-yaxis " data-z-index="2"><path fill="none" class="highcharts-axis-line" data-z-index="7" d="M 32 85 L 32 188"></path></g><g class="highcharts-axis highcharts-yaxis " data-z-index="2"><path fill="none" class="highcharts-axis-line" data-z-index="7" d="M 285 85 L 285 188"></path></g><g class="highcharts-series-group" data-z-index="3"><g data-z-index="0.1" class="highcharts-series highcharts-series-0 highcharts-line-series " transform="translate(32,85) scale(1 1)" clip-path="url(#highcharts-8imny9z-9)"><path fill="none" d="M 1.0541666666667 42.664316666666664 L 3.1625 42.664316666666664 L 5.2708333333333 42.664316666666664 L 7.3791666666667 42.664316666666664 L 9.4875 42.664316666666664 L 11.595833333333 42.664316666666664 L 13.704166666667 42.664316666666664 L 15.8125 42.664316666666664 L 17.920833333333 42.664316666666664 L 20.029166666667 42.664316666666664 L 22.1375 42.664316666666664 L 24.245833333333 42.664316666666664 L 26.354166666667 56.02513333333333 L 28.4625 56.02513333333333 L 30.570833333333 56.02513333333333 L 32.679166666667 56.02513333333333 L 34.7875 56.02513333333333 L 36.895833333333 56.02513333333333 L 39.004166666667 56.02513333333333 L 41.1125 56.02513333333333 L 43.220833333333 56.02513333333333 L 45.329166666667 56.02513333333333 L 47.4375 56.02513333333333 L 49.545833333333 56.02513333333333 L 51.654166666667 39.038716666666666 L 53.7625 39.038716666666666 L 55.870833333333 39.038716666666666 L 57.979166666667 39.038716666666666 L 60.0875 39.038716666666666 L 62.195833333333 39.038716666666666 L 64.304166666667 39.038716666666666 L 66.4125 39.038716666666666 L 68.520833333333 39.038716666666666 L 70.629166666667 39.038716666666666 L 72.7375 39.038716666666666 L 74.845833333333 39.038716666666666 L 76.954166666667 25.465033333333338 L 79.0625 25.465033333333338 L 81.170833333333 25.465033333333338 L 83.279166666667 25.465033333333338 L 85.3875 25.465033333333338 L 87.495833333333 25.465033333333338 L 89.604166666667 25.465033333333338 L 91.7125 25.465033333333338 L 93.820833333333 25.465033333333338 L 95.929166666667 25.465033333333338 L 98.0375 25.465033333333338 L 100.14583333333 25.465033333333338 L 102.25416666667 33.282733333333326 L 104.3625 33.282733333333326 L 106.47083333333 33.282733333333326 L 108.57916666667 33.282733333333326 L 110.6875 33.282733333333326 L 112.79583333333 33.282733333333326 L 114.90416666667 33.282733333333326 L 117.0125 33.282733333333326 L 119.12083333333 33.282733333333326 L 121.22916666667 33.282733333333326 L 123.3375 33.282733333333326 L 125.44583333333 33.282733333333326 L 127.55416666667 37.261966666666666 L 129.6625 37.261966666666666 L 131.77083333333 37.261966666666666 L 133.87916666667 37.261966666666666 L 135.9875 37.261966666666666 L 138.09583333333 37.261966666666666 L 140.20416666667 37.261966666666666 L 142.3125 37.261966666666666 L 144.42083333333 37.261966666666666 L 146.52916666667 37.261966666666666 L 148.6375 37.261966666666666 L 150.74583333333 37.261966666666666 L 152.85416666667 35.41483333333332 L 154.9625 35.41483333333332 L 157.07083333333 35.41483333333332 L 159.17916666667 35.41483333333332 L 161.2875 35.41483333333332 L 163.39583333333 35.41483333333332 L 165.50416666667 35.41483333333332 L 167.6125 35.41483333333332 L 169.72083333333 35.41483333333332 L 171.82916666667 35.41483333333332 L 173.9375 35.41483333333332 L 176.04583333333 35.41483333333332 L 178.15416666667 31.363499999999988 L 180.2625 31.363499999999988 L 182.37083333333 31.363499999999988 L 184.47916666667 31.363499999999988 L 186.5875 31.363499999999988 L 188.69583333333 31.363499999999988 L 190.80416666667 31.363499999999988 L 192.9125 31.363499999999988 L 195.02083333333 31.363499999999988 L 197.12916666667 31.363499999999988 L 199.2375 31.363499999999988 L 201.34583333333 31.363499999999988 L 203.45416666667 44.08571666666666 L 205.5625 44.08571666666666 L 207.67083333333 44.08571666666666 L 209.77916666667 44.08571666666666 L 211.8875 44.08571666666666 L 213.99583333333 44.08571666666666 L 216.10416666667 44.08571666666666 L 218.2125 44.08571666666666 L 220.32083333333 44.08571666666666 L 222.42916666667 44.08571666666666 L 224.5375 44.08571666666666 L 226.64583333333 44.08571666666666 L 228.75416666667 50.4803 L 230.8625 50.4803 L 232.97083333333 50.4803 L 235.07916666667 50.4803 L 237.1875 50.4803 L 239.29583333333 50.4803 L 241.40416666667 50.4803 L 243.5125 50.4803 L 245.62083333333 50.4803 L 247.72916666667 50.4803 L 249.8375 50.4803 L 251.94583333333 50.4803" class="highcharts-graph" data-z-index="1" stroke="#B00000" stroke-width="2" stroke-linejoin="round" stroke-linecap="round"></path></g><g data-z-index="0.1" class="highcharts-markers highcharts-series-0 highcharts-line-series " transform="translate(32,85) scale(1 1)" clip-path="none"></g><g data-z-index="0.1" class="highcharts-series highcharts-series-1 highcharts-line-series " transform="translate(32,85) scale(1 1)" clip-path="url(#highcharts-8imny9z-10)"><path fill="none" d="M 1.0541666666667 69.35333333333332 L 3.1625 71.07 L 5.2708333333333 74.16 L 7.3791666666667 74.50333333333333 L 9.4875 75.87666666666667 L 11.595833333333 78.28 L 13.704166666667 81.37 L 15.8125 82.74333333333334 L 17.920833333333 81.02666666666667 L 20.029166666667 83.43 L 22.1375 84.80333333333334 L 24.245833333333 87.89333333333333 L 26.354166666667 84.46000000000001 L 28.4625 82.4 L 30.570833333333 86.52 L 32.679166666667 86.17666666666666 L 34.7875 85.83333333333333 L 36.895833333333 83.43 L 39.004166666667 84.11666666666667 L 41.1125 83.77333333333334 L 43.220833333333 84.80333333333334 L 45.329166666667 82.4 L 47.4375 82.4 L 49.545833333333 82.74333333333334 L 51.654166666667 81.71333333333334 L 53.7625 81.02666666666667 L 55.870833333333 78.96666666666667 L 57.979166666667 77.93666666666667 L 60.0875 76.22 L 62.195833333333 78.96666666666667 L 64.304166666667 77.59333333333333 L 66.4125 77.59333333333333 L 68.520833333333 76.22 L 70.629166666667 74.84666666666666 L 72.7375 73.13 L 74.845833333333 72.78666666666666 L 76.954166666667 73.13 L 79.0625 72.78666666666666 L 81.170833333333 72.1 L 83.279166666667 70.72666666666666 L 85.3875 72.44333333333333 L 87.495833333333 71.75666666666666 L 89.604166666667 73.47333333333333 L 91.7125 73.81666666666666 L 93.820833333333 71.07 L 95.929166666667 72.44333333333333 L 98.0375 70.03999999999999 L 100.14583333333 67.63666666666667 L 102.25416666667 69.00999999999999 L 104.3625 72.78666666666666 L 106.47083333333 73.47333333333333 L 108.57916666667 71.07 L 110.6875 74.50333333333333 L 112.79583333333 75.87666666666667 L 114.90416666667 75.53333333333333 L 117.0125 78.28 L 119.12083333333 77.93666666666667 L 121.22916666667 76.90666666666667 L 123.3375 78.28 L 125.44583333333 75.53333333333333 L 127.55416666667 74.84666666666666 L 129.6625 75.87666666666667 L 131.77083333333 75.87666666666667 L 133.87916666667 75.87666666666667 L 135.9875 74.50333333333333 L 138.09583333333 74.16 L 140.20416666667 78.28 L 142.3125 77.59333333333333 L 144.42083333333 78.28 L 146.52916666667 78.96666666666667 L 148.6375 76.90666666666667 L 150.74583333333 77.25 L 152.85416666667 75.87666666666667 L 154.9625 75.53333333333333 L 157.07083333333 76.90666666666667 L 159.17916666667 76.56333333333333 L 161.2875 77.59333333333333 L 163.39583333333 77.25 L 165.50416666667 77.93666666666667 L 167.6125 74.50333333333333 L 169.72083333333 75.53333333333333 L 171.82916666667 73.81666666666666 L 173.9375 74.84666666666666 L 176.04583333333 73.13 L 178.15416666667 73.81666666666666 L 180.2625 72.78666666666666 L 182.37083333333 70.03999999999999 L 184.47916666667 67.98 L 186.5875 69.69666666666666 L 188.69583333333 72.44333333333333 L 190.80416666667 75.53333333333333 L 192.9125 77.25 L 195.02083333333 76.56333333333333 L 197.12916666667 76.90666666666667 L 199.2375 79.31 L 201.34583333333 77.59333333333333 L 203.45416666667 77.59333333333333 L 205.5625 79.99666666666667 L 207.67083333333 82.05666666666667 L 209.77916666667 81.71333333333334 L 211.8875 79.99666666666667 L 213.99583333333 82.4 L 216.10416666667 80.34 L 218.2125 79.65333333333334 L 220.32083333333 77.25 L 222.42916666667 76.56333333333333 L 224.5375 76.56333333333333 L 226.64583333333 77.25 L 228.75416666667 79.99666666666667 L 230.8625 81.02666666666667 L 232.97083333333 83.43 L 235.07916666667 79.99666666666667 L 237.1875 80.34 L 239.29583333333 82.74333333333334 L 241.40416666667 81.37 L 243.5125 81.37 L 245.62083333333 83.43 L 247.72916666667 82.74333333333334 L 249.8375 83.77333333333334 L 251.94583333333 82.05666666666667" class="highcharts-graph" data-z-index="1" stroke="#FF8028" stroke-width="2" stroke-linejoin="round" stroke-linecap="round"></path></g><g data-z-index="0.1" class="highcharts-markers highcharts-series-1 highcharts-line-series " transform="translate(32,85) scale(1 1)" clip-path="none"></g></g><text x="2" text-anchor="start" class="highcharts-title" data-z-index="4" style="color:#000000;font-size:10px;font-weight:bold;fill:#000000;" y="9"><tspan>Arbeitslose und Arbeitslosenquote im Landverkehr</tspan></text><text x="2" text-anchor="start" class="highcharts-subtitle" data-z-index="4" style="color:#000000;font-size:10px;font-weight:normal;font-family:Arial;fill:#000000;" y="26"><tspan>Basel-Stadt</tspan></text><g class="highcharts-legend" data-z-index="7" transform="translate(32,42)"><rect fill="none" class="highcharts-legend-box" rx="0" ry="0" x="0" y="0" width="231" height="31" visibility="visible"></rect><g data-z-index="1"><g><g class="highcharts-legend-item highcharts-line-series highcharts-color-undefined highcharts-series-0" data-z-index="1" transform="translate(0,-5)"><path fill="none" d="M 0 10 L 16 10" class="highcharts-graph" stroke="#B00000" stroke-width="2"></path><text x="21" style="color:#333333;font-size:10px;font-weight:normal;cursor:pointer;fill:#333333;" text-anchor="start" data-z-index="2" y="13"><tspan>Mittlere jährliche Arbeitslosenquote</tspan></text></g><g class="highcharts-legend-item highcharts-line-series highcharts-color-undefined highcharts-series-1" data-z-index="1" transform="translate(0,13)"><path fill="none" d="M 0 10 L 16 10" class="highcharts-graph" stroke="#FF8028" stroke-width="2"></path><text x="21" y="13" style="color:#333333;font-size:10px;font-weight:normal;cursor:pointer;fill:#333333;" text-anchor="start" data-z-index="2"><tspan>Monatliche Anzahl Arbeitslose (rechte Skala)</tspan></text></g></g></g></g><g class="highcharts-axis-labels highcharts-xaxis-labels " data-z-index="7"><text x="45.554166666667" style="color:#000000;cursor:default;font-size:10px;white-space:nowrap;fill:#000000;" text-anchor="middle" transform="translate(0,0)" y="206" opacity="1">2010</text><text x="70.854166666667" style="color:#000000;cursor:default;font-size:10px;white-space:nowrap;fill:#000000;" text-anchor="middle" transform="translate(0,0)" y="206" opacity="1">2011</text><text x="96.154166666667" style="color:#000000;cursor:default;font-size:10px;white-space:nowrap;fill:#000000;" text-anchor="middle" transform="translate(0,0)" y="206" opacity="1">2012</text><text x="121.45416666667" style="color:#000000;cursor:default;font-size:10px;white-space:nowrap;fill:#000000;" text-anchor="middle" transform="translate(0,0)" y="206" opacity="1">2013</text><text x="146.75416666667" style="color:#000000;cursor:default;font-size:10px;white-space:nowrap;fill:#000000;" text-anchor="middle" transform="translate(0,0)" y="206" opacity="1">2014</text><text x="172.05416666667" style="color:#000000;cursor:default;font-size:10px;white-space:nowrap;fill:#000000;" text-anchor="middle" transform="translate(0,0)" y="206" opacity="1">2015</text><text x="197.35416666667" style="color:#000000;cursor:default;font-size:10px;white-space:nowrap;fill:#000000;" text-anchor="middle" transform="translate(0,0)" y="206" opacity="1">2016</text><text x="222.65416666667" style="color:#000000;cursor:default;font-size:10px;white-space:nowrap;fill:#000000;" text-anchor="middle" transform="translate(0,0)" y="206" opacity="1">2017</text><text x="247.95416666667" style="color:#000000;cursor:default;font-size:10px;white-space:nowrap;fill:#000000;" text-anchor="middle" transform="translate(0,0)" y="206" opacity="1">2018</text><text x="273.25416666667" style="color:#000000;cursor:default;font-size:10px;white-space:nowrap;fill:#000000;" text-anchor="middle" transform="translate(0,0)" y="206" opacity="1">2019</text></g><g class="highcharts-axis-labels highcharts-yaxis-labels " data-z-index="7"><text x="17" style="color:#000000;cursor:default;font-size:10px;fill:#000000;" text-anchor="end" transform="translate(0,0)" y="191" opacity="1">0%</text><text x="17" style="color:#000000;cursor:default;font-size:10px;fill:#000000;" text-anchor="end" transform="translate(0,0)" y="174" opacity="1">1%</text><text x="17" style="color:#000000;cursor:default;font-size:10px;fill:#000000;" text-anchor="end" transform="translate(0,0)" y="157" opacity="1">2%</text><text x="17" style="color:#000000;cursor:default;font-size:10px;fill:#000000;" text-anchor="end" transform="translate(0,0)" y="140" opacity="1">3%</text><text x="17" style="color:#000000;cursor:default;font-size:10px;fill:#000000;" text-anchor="end" transform="translate(0,0)" y="122" opacity="1">4%</text><text x="17" style="color:#000000;cursor:default;font-size:10px;fill:#000000;" text-anchor="end" transform="translate(0,0)" y="105" opacity="1">5%</text><text x="17" style="color:#000000;cursor:default;font-size:10px;fill:#000000;" text-anchor="end" transform="translate(0,0)" y="88" opacity="1">6%</text></g><g class="highcharts-axis-labels highcharts-yaxis-labels " data-z-index="7"><text x="300" style="color:#000000;cursor:default;font-size:10px;fill:#000000;" text-anchor="start" transform="translate(0,0)" y="191" opacity="1">0</text><text x="300" style="color:#000000;cursor:default;font-size:10px;fill:#000000;" text-anchor="start" transform="translate(0,0)" y="174" opacity="1">50</text><text x="300" style="color:#000000;cursor:default;font-size:10px;fill:#000000;" text-anchor="start" transform="translate(0,0)" y="157" opacity="1">100</text><text x="300" style="color:#000000;cursor:default;font-size:10px;fill:#000000;" text-anchor="start" transform="translate(0,0)" y="140" opacity="1">150</text><text x="300" style="color:#000000;cursor:default;font-size:10px;fill:#000000;" text-anchor="start" transform="translate(0,0)" y="122" opacity="1">200</text><text x="300" style="color:#000000;cursor:default;font-size:10px;fill:#000000;" text-anchor="start" transform="translate(0,0)" y="105" opacity="1">250</text><text x="300" style="color:#000000;cursor:default;font-size:10px;fill:#000000;" text-anchor="start" transform="translate(0,0)" y="88" opacity="1">300</text></g><text x="10" class="highcharts-credits" text-anchor="start" data-z-index="8" style="cursor:default;color:#000000;font-size:10px;fill:#000000;" y="196"><tspan>Quelle: Staatssekretariat für Wirtschaft SECO, Arbeitslosenstatistik.</tspan><tspan x="10" dy="13">Zuletzt geändert: 2020-3-25</tspan></text></svg>