<?xml version="1.0" standalone="no"?><!DOCTYPE svg PUBLIC "-//W3C//DTD SVG 1.1//EN" "http://www.w3.org/Graphics/SVG/1.1/DTD/svg11.dtd"><svg xmlns:xlink="http://www.w3.org/1999/xlink" version="1.1" class="highcharts-root" style="font-family:Arial;font-size:12px;" xmlns="http://www.w3.org/2000/svg" viewBox="0 0 485 415"><desc>Created with Highcharts 8.2.0</desc><defs><clipPath id="highcharts-btvjtc1-46-"><rect x="0" y="0" width="434" height="238" fill="none"></rect></clipPath><clipPath id="highcharts-btvjtc1-60-"><rect x="0" y="0" width="434" height="238" fill="none"></rect></clipPath><clipPath id="highcharts-btvjtc1-87-"><rect x="41" y="94" width="434" height="238" fill="none"></rect></clipPath></defs><rect fill="#fbfbfb" class="highcharts-background" x="0" y="0" width="485" height="428" rx="0" ry="0"></rect><rect fill="none" class="highcharts-plot-background" x="41" y="94" width="434" height="238"></rect><g class="highcharts-pane-group" data-z-index="0"></g><g class="highcharts-grid highcharts-xaxis-grid" data-z-index="1"><path fill="none" data-z-index="1" class="highcharts-grid-line" d="M 44.5 94 L 44.5 332" opacity="1"></path><path fill="none" data-z-index="1" class="highcharts-grid-line" d="M 80.5 94 L 80.5 332" opacity="1"></path><path fill="none" data-z-index="1" class="highcharts-grid-line" d="M 115.5 94 L 115.5 332" opacity="1"></path><path fill="none" data-z-index="1" class="highcharts-grid-line" d="M 151.5 94 L 151.5 332" opacity="1"></path><path fill="none" data-z-index="1" class="highcharts-grid-line" d="M 186.5 94 L 186.5 332" opacity="1"></path><path fill="none" data-z-index="1" class="highcharts-grid-line" d="M 223.5 94 L 223.5 332" opacity="1"></path><path fill="none" data-z-index="1" class="highcharts-grid-line" d="M 259.5 94 L 259.5 332" opacity="1"></path><path fill="none" data-z-index="1" class="highcharts-grid-line" d="M 294.5 94 L 294.5 332" opacity="1"></path><path fill="none" data-z-index="1" class="highcharts-grid-line" d="M 330.5 94 L 330.5 332" opacity="1"></path><path fill="none" data-z-index="1" class="highcharts-grid-line" d="M 365.5 94 L 365.5 332" opacity="1"></path><path fill="none" data-z-index="1" class="highcharts-grid-line" d="M 401.5 94 L 401.5 332" opacity="1"></path><path fill="none" data-z-index="1" class="highcharts-grid-line" d="M 437.5 94 L 437.5 332" opacity="1"></path><path fill="none" data-z-index="1" class="highcharts-grid-line" d="M 470.5 94 L 470.5 332" opacity="1"></path></g><g class="highcharts-grid highcharts-yaxis-grid" data-z-index="1"><path fill="none" stroke="#B9CFD7" stroke-width="0.5" data-z-index="1" class="highcharts-grid-line" d="M 41 332.25 L 475 332.25" opacity="1"></path><path fill="none" stroke="#B9CFD7" stroke-width="0.5" data-z-index="1" class="highcharts-grid-line" d="M 41 273.25 L 475 273.25" opacity="1"></path><path fill="none" stroke="#B9CFD7" stroke-width="0.5" data-z-index="1" class="highcharts-grid-line" d="M 41 213.25 L 475 213.25" opacity="1"></path><path fill="none" stroke="#B9CFD7" stroke-width="0.5" data-z-index="1" class="highcharts-grid-line" d="M 41 154.25 L 475 154.25" opacity="1"></path><path fill="none" stroke="#B9CFD7" stroke-width="0.5" data-z-index="1" class="highcharts-grid-line" d="M 41 93.75 L 475 93.75" opacity="1"></path></g><rect fill="none" class="highcharts-plot-border" data-z-index="1" x="41" y="94" width="434" height="238"></rect><g class="highcharts-axis highcharts-xaxis" data-z-index="2"><path fill="none" class="highcharts-axis-line" stroke="#B9CFD7" stroke-width="0.5" data-z-index="7" d="M 41 332.25 L 475 332.25"></path></g><g class="highcharts-axis highcharts-yaxis" data-z-index="2"><path fill="none" class="highcharts-axis-line" data-z-index="7" d="M 41 94 L 41 332"></path></g><g class="highcharts-series-group" data-z-index="3"><g class="highcharts-series highcharts-series-0 highcharts-line-series" data-z-index="0.1" opacity="1" transform="translate(41,94) scale(1 1)" clip-path="url(#highcharts-btvjtc1-60-)"><path fill="none" d="M 4.2549019607843 45.60674999999998 L 40.440997403528 49.61109999999999 L 75.412794341481 55.20410000000001 L 111.55031784403 61.0351 L 146.52211478199 65.63444999999999 L 182.65963828454 65.1644 L 218.79716178709 70.5789 L 253.76895872504 70.34684999999999 L 289.8579102874 66.28299999999999 L 324.82970722536 63.397250000000014 L 360.96723072791 56.09065000000001 L 397.10475423046 54.972049999999996 L 429.74509803922 60.15450000000001" class="highcharts-graph" data-z-index="1" stroke="#083038" stroke-width="2" stroke-linejoin="round" stroke-linecap="round"></path></g><g class="highcharts-markers highcharts-series-0 highcharts-line-series" data-z-index="0.1" opacity="1" transform="translate(41,94) scale(1 1)" clip-path="none"></g><g class="highcharts-series highcharts-series-1 highcharts-line-series" data-z-index="0.1" opacity="1" transform="translate(41,94) scale(1 1)" clip-path="url(#highcharts-btvjtc1-60-)"><path fill="none" d="M 4.2549019607843 64.61700000000002 L 40.440997403528 70.56700000000001 L 75.412794341481 51.866150000000005 L 111.55031784403 37.419550000000015 L 146.52211478199 56.965299999999985 L 182.65963828454 49.31954999999999 L 218.79716178709 55.26955000000001 L 253.76895872504 62.9153 L 289.8579102874 57.81614999999999 L 324.82970722536 75.66614999999999 L 360.96723072791 70.56700000000001 L 397.10475423046 54.4187 L 429.74509803922 70.56700000000001" class="highcharts-graph" data-z-index="1" stroke="#008AC3" stroke-width="2" stroke-linejoin="round" stroke-linecap="round"></path></g><g class="highcharts-markers highcharts-series-1 highcharts-line-series" data-z-index="0.1" opacity="1" transform="translate(41,94) scale(1 1)" clip-path="none"></g><g class="highcharts-series highcharts-series-2 highcharts-line-series" data-z-index="0.1" opacity="1" transform="translate(41,94) scale(1 1)" clip-path="url(#highcharts-btvjtc1-60-)"><path fill="none" d="M 4.2549019607843 47.516699999999986 L 40.440997403528 49.89669999999998 L 75.412794341481 63.361549999999994 L 111.55031784403 68.10965000000002 L 146.52211478199 76.6241 L 182.65963828454 77.2191 L 218.79716178709 81.97315 L 253.76895872504 82.7645 L 289.8579102874 77.41544999999999 L 324.82970722536 77.02275 L 360.96723072791 68.30600000000001 L 397.10475423046 72.8637 L 429.74509803922 78.20679999999999" class="highcharts-graph" data-z-index="1" stroke="#71A3B5" stroke-width="2" stroke-linejoin="round" stroke-linecap="round"></path></g><g class="highcharts-markers highcharts-series-2 highcharts-line-series" data-z-index="0.1" opacity="1" transform="translate(41,94) scale(1 1)" clip-path="none"></g></g><text x="10" text-anchor="start" class="highcharts-title" data-z-index="4" style="color:#000000;font-size:14px;font-weight:bold;fill:#000000;" y="21"><tspan>Arbeitslosenquote nach Alter</tspan></text><text x="10" text-anchor="start" class="highcharts-subtitle" data-z-index="4" style="color:#000000;font-size:12px;font-weight:normal;fill:#000000;" y="40"><tspan>Basel-Stadt</tspan></text><text x="10" text-anchor="start" class="highcharts-caption" data-z-index="4" style="color:#666666;fill:#666666;" y="385"></text><g class="highcharts-legend" data-z-index="7" transform="translate(33,56)"><rect fill="none" class="highcharts-legend-box" rx="0" ry="0" x="0" y="0" width="287" height="26" visibility="visible"></rect><g data-z-index="1"><g><g class="highcharts-legend-item highcharts-line-series highcharts-color-undefined highcharts-series-0" data-z-index="1" transform="translate(8,3)"><path fill="none" d="M 0 11 L 16 11" class="highcharts-graph" stroke="#083038" stroke-width="2"></path><text x="21" style="color:#333333;cursor:pointer;font-size:12px;font-weight:normal;fill:#333333;" text-anchor="start" data-z-index="2" y="15"><tspan>Total</tspan></text></g><g class="highcharts-legend-item highcharts-line-series highcharts-color-undefined highcharts-series-1" data-z-index="1" transform="translate(76,3)"><path fill="none" d="M 0 11 L 16 11" class="highcharts-graph" stroke="#008AC3" stroke-width="2"></path><text x="21" y="15" style="color:#333333;cursor:pointer;font-size:12px;font-weight:normal;fill:#333333;" text-anchor="start" data-z-index="2"><tspan>15-24 Jahre</tspan></text></g><g class="highcharts-legend-item highcharts-line-series highcharts-color-undefined highcharts-series-2" data-z-index="1" transform="translate(183,3)"><path fill="none" d="M 0 11 L 16 11" class="highcharts-graph" stroke="#71A3B5" stroke-width="2"></path><text x="21" y="15" style="color:#333333;cursor:pointer;font-size:12px;font-weight:normal;fill:#333333;" text-anchor="start" data-z-index="2"><tspan>50 Jahre u.m.</tspan></text></g></g></g></g><g class="highcharts-axis-labels highcharts-xaxis-labels" data-z-index="7"><text x="47.79905488494367" style="color:#000000;cursor:default;font-size:11px;fill:#000000;" text-anchor="end" transform="translate(0,0) rotate(-45 47.79905488494367 348)" y="348" opacity="1"><tspan>Mar 22</tspan></text><text x="83.93657838749468" style="color:#000000;cursor:default;font-size:11px;fill:#000000;" text-anchor="end" transform="translate(0,0) rotate(-45 83.93657838749468 348)" y="348" opacity="1">Apr</text><text x="118.90837532545068" style="color:#000000;cursor:default;font-size:11px;fill:#000000;" text-anchor="end" transform="translate(0,0) rotate(-45 118.90837532545068 348)" y="348" opacity="1">May</text><text x="155.04589882800067" style="color:#000000;cursor:default;font-size:11px;fill:#000000;" text-anchor="end" transform="translate(0,0) rotate(-45 155.04589882800067 348)" y="348" opacity="1">Jun</text><text x="190.0176957659507" style="color:#000000;cursor:default;font-size:11px;fill:#000000;" text-anchor="end" transform="translate(0,0) rotate(-45 190.0176957659507 348)" y="348" opacity="1">Jul</text><text x="226.15521926850067" style="color:#000000;cursor:default;font-size:11px;fill:#000000;" text-anchor="end" transform="translate(0,0) rotate(-45 226.15521926850067 348)" y="348" opacity="1">Aug</text><text x="262.29274277106066" style="color:#000000;cursor:default;font-size:11px;fill:#000000;" text-anchor="end" transform="translate(0,0) rotate(-45 262.29274277106066 348)" y="348" opacity="1">Sep</text><text x="297.26453970901065" style="color:#000000;cursor:default;font-size:11px;fill:#000000;" text-anchor="end" transform="translate(0,0) rotate(-45 297.26453970901065 348)" y="348" opacity="1">Oct</text><text x="333.40206321156063" style="color:#000000;cursor:default;font-size:11px;fill:#000000;" text-anchor="end" transform="translate(0,0) rotate(-45 333.40206321156063 348)" y="348" opacity="1">Nov</text><text x="368.3738601495107" style="color:#000000;cursor:default;font-size:11px;fill:#000000;" text-anchor="end" transform="translate(0,0) rotate(-45 368.3738601495107 348)" y="348" opacity="1">Dec</text><text x="404.51138365207066" style="color:#000000;cursor:default;font-size:11px;fill:#000000;" text-anchor="end" transform="translate(0,0) rotate(-45 404.51138365207066 348)" y="348" opacity="1">Jan</text><text x="440.64890715462064" style="color:#000000;cursor:default;font-size:11px;fill:#000000;" text-anchor="end" transform="translate(0,0) rotate(-45 440.64890715462064 348)" y="348" opacity="1">Feb</text><text x="473.28925096337065" style="color:#000000;cursor:default;font-size:11px;fill:#000000;" text-anchor="end" transform="translate(0,0) rotate(-45 473.28925096337065 348)" y="348" opacity="1"><tspan>Mar 23</tspan></text></g><g class="highcharts-axis-labels highcharts-yaxis-labels" data-z-index="7"><text x="26" style="color:#000000;cursor:default;font-size:11px;fill:#000000;" text-anchor="end" transform="translate(0,0)" y="336" opacity="1">0%</text><text x="26" style="color:#000000;cursor:default;font-size:11px;fill:#000000;" text-anchor="end" transform="translate(0,0)" y="277" opacity="1">1%</text><text x="26" style="color:#000000;cursor:default;font-size:11px;fill:#000000;" text-anchor="end" transform="translate(0,0)" y="217" opacity="1">2%</text><text x="26" style="color:#000000;cursor:default;font-size:11px;fill:#000000;" text-anchor="end" transform="translate(0,0)" y="158" opacity="1">3%</text><text x="26" style="color:#000000;cursor:default;font-size:11px;fill:#000000;" text-anchor="end" transform="translate(0,0)" y="98" opacity="1">4%</text></g><text x="10" class="highcharts-credits" text-anchor="start" data-z-index="8" style="cursor:default;color:#000000;font-size:10px;fill:#000000;" y="403"><tspan>Quelle: Staatssekretariat für Wirtschaft SECO, Arbeitslosenstatistik.</tspan><tspan x="10" dy="13">Zuletzt geändert: 6.4.2023</tspan></text><g class="highcharts-control-points" data-z-index="99" clip-path="url(#highcharts-btvjtc1-87-)"></g></svg>