<?xml version="1.0" standalone="no"?><!DOCTYPE svg PUBLIC "-//W3C//DTD SVG 1.1//EN" "http://www.w3.org/Graphics/SVG/1.1/DTD/svg11.dtd"><svg xmlns:xlink="http://www.w3.org/1999/xlink" version="1.1" class="highcharts-root" style="font-family:Arial;font-size:12px;" xmlns="http://www.w3.org/2000/svg" viewBox="0 0 485 415"><desc>Created with Highcharts 8.2.0</desc><defs><clipPath id="highcharts-9z98pvr-33-"><rect x="0" y="0" width="425" height="241" fill="none"></rect></clipPath><clipPath id="highcharts-9z98pvr-47-"><rect x="0" y="0" width="425" height="241" fill="none"></rect></clipPath><clipPath id="highcharts-9z98pvr-61-"><rect x="50" y="79" width="425" height="241" fill="none"></rect></clipPath></defs><rect fill="#fbfbfb" class="highcharts-background" x="0" y="0" width="485" height="428" rx="0" ry="0"></rect><rect fill="none" class="highcharts-plot-background" x="50" y="79" width="425" height="241"></rect><g class="highcharts-pane-group" data-z-index="0"></g><g class="highcharts-grid highcharts-xaxis-grid" data-z-index="1"><path fill="none" data-z-index="1" class="highcharts-grid-line" d="M 68.5 79 L 68.5 320" opacity="1"></path><path fill="none" data-z-index="1" class="highcharts-grid-line" d="M 101.5 79 L 101.5 320" opacity="1"></path><path fill="none" data-z-index="1" class="highcharts-grid-line" d="M 132.5 79 L 132.5 320" opacity="1"></path><path fill="none" data-z-index="1" class="highcharts-grid-line" d="M 165.5 79 L 165.5 320" opacity="1"></path><path fill="none" data-z-index="1" class="highcharts-grid-line" d="M 197.5 79 L 197.5 320" opacity="1"></path><path fill="none" data-z-index="1" class="highcharts-grid-line" d="M 230.5 79 L 230.5 320" opacity="1"></path><path fill="none" data-z-index="1" class="highcharts-grid-line" d="M 263.5 79 L 263.5 320" opacity="1"></path><path fill="none" data-z-index="1" class="highcharts-grid-line" d="M 293.5 79 L 293.5 320" opacity="1"></path><path fill="none" data-z-index="1" class="highcharts-grid-line" d="M 326.5 79 L 326.5 320" opacity="1"></path><path fill="none" data-z-index="1" class="highcharts-grid-line" d="M 357.5 79 L 357.5 320" opacity="1"></path><path fill="none" data-z-index="1" class="highcharts-grid-line" d="M 390.5 79 L 390.5 320" opacity="1"></path><path fill="none" data-z-index="1" class="highcharts-grid-line" d="M 422.5 79 L 422.5 320" opacity="1"></path><path fill="none" data-z-index="1" class="highcharts-grid-line" d="M 455.5 79 L 455.5 320" opacity="1"></path></g><g class="highcharts-grid highcharts-yaxis-grid" data-z-index="1"><path fill="none" stroke="#B9CFD7" stroke-width="0.5" data-z-index="1" class="highcharts-grid-line" d="M 50 320.25 L 475 320.25" opacity="1"></path><path fill="none" stroke="#B9CFD7" stroke-width="0.5" data-z-index="1" class="highcharts-grid-line" d="M 50 260.25 L 475 260.25" opacity="1"></path><path fill="none" stroke="#B9CFD7" stroke-width="0.5" data-z-index="1" class="highcharts-grid-line" d="M 50 200.25 L 475 200.25" opacity="1"></path><path fill="none" stroke="#B9CFD7" stroke-width="0.5" data-z-index="1" class="highcharts-grid-line" d="M 50 139.25 L 475 139.25" opacity="1"></path><path fill="none" stroke="#B9CFD7" stroke-width="0.5" data-z-index="1" class="highcharts-grid-line" d="M 50 78.75 L 475 78.75" opacity="1"></path></g><rect fill="none" class="highcharts-plot-border" data-z-index="1" x="50" y="79" width="425" height="241"></rect><g class="highcharts-axis highcharts-xaxis" data-z-index="2"><path fill="none" class="highcharts-axis-line" stroke="#B9CFD7" stroke-width="0.5" data-z-index="7" d="M 50 320.25 L 475 320.25"></path></g><g class="highcharts-axis highcharts-yaxis" data-z-index="2"><path fill="none" class="highcharts-axis-line" data-z-index="7" d="M 50 79 L 50 320"></path></g><g class="highcharts-series-group" data-z-index="3"><g class="highcharts-series highcharts-series-0 highcharts-column-series" data-z-index="0.1" opacity="1" transform="translate(50,79) scale(1 1)" clip-path="url(#highcharts-9z98pvr-47-)"><rect x="9.5" y="60.5" width="9" height="181" fill="rgb(111,111,111)" stroke="#ffffff" stroke-width="1" opacity="1" class="highcharts-point"></rect><rect x="42.5" y="66.5" width="9" height="175" fill="rgb(111,111,111)" stroke="#ffffff" stroke-width="1" opacity="1" class="highcharts-point"></rect><rect x="74.5" y="66.5" width="9" height="175" fill="rgb(111,111,111)" stroke="#ffffff" stroke-width="1" opacity="1" class="highcharts-point"></rect><rect x="106.5" y="66.5" width="9" height="175" fill="rgb(111,111,111)" stroke="#ffffff" stroke-width="1" opacity="1" class="highcharts-point"></rect><rect x="138.5" y="66.5" width="9" height="175" fill="rgb(111,111,111)" stroke="#ffffff" stroke-width="1" opacity="1" class="highcharts-point"></rect><rect x="171.5" y="60.5" width="9" height="181" fill="rgb(111,111,111)" stroke="#ffffff" stroke-width="1" opacity="1" class="highcharts-point"></rect><rect x="204.5" y="48.5" width="9" height="193" fill="rgb(111,111,111)" stroke="#ffffff" stroke-width="1" opacity="1" class="highcharts-point"></rect><rect x="234.5" y="72.5" width="9" height="169" fill="rgb(111,111,111)" stroke="#ffffff" stroke-width="1" opacity="1" class="highcharts-point"></rect><rect x="267.5" y="102.5" width="9" height="139" fill="rgb(111,111,111)" stroke="#ffffff" stroke-width="1" opacity="1" class="highcharts-point"></rect><rect x="299.5" y="121.5" width="9" height="120" fill="rgb(111,111,111)" stroke="#ffffff" stroke-width="1" opacity="1" class="highcharts-point"></rect><rect x="332.5" y="145.5" width="8" height="96" fill="rgb(111,111,111)" stroke="#ffffff" stroke-width="1" opacity="1" class="highcharts-point"></rect><rect x="363.5" y="151.5" width="9" height="90" fill="rgb(111,111,111)" stroke="#ffffff" stroke-width="1" opacity="1" class="highcharts-point"></rect><rect x="396.5" y="151.5" width="9" height="90" fill="rgb(111,111,111)" stroke="#ffffff" stroke-width="1" opacity="1" class="highcharts-point"></rect></g><g class="highcharts-markers highcharts-series-0 highcharts-column-series" data-z-index="0.1" opacity="1" transform="translate(50,79) scale(1 1)" clip-path="none"></g><g class="highcharts-series highcharts-series-1 highcharts-column-series" data-z-index="0.1" opacity="1" transform="translate(50,79) scale(1 1)" clip-path="url(#highcharts-9z98pvr-47-)"><rect x="18.5" y="30.5" width="9" height="211" fill="rgb(176,0,0)" stroke="#ffffff" stroke-width="1" opacity="1" class="highcharts-point"></rect><rect x="51.5" y="42.5" width="9" height="199" fill="rgb(176,0,0)" stroke="#ffffff" stroke-width="1" opacity="1" class="highcharts-point"></rect><rect x="83.5" y="60.5" width="8" height="181" fill="rgb(176,0,0)" stroke="#ffffff" stroke-width="1" opacity="1" class="highcharts-point"></rect><rect x="115.5" y="60.5" width="9" height="181" fill="rgb(176,0,0)" stroke="#ffffff" stroke-width="1" opacity="1" class="highcharts-point"></rect><rect x="147.5" y="72.5" width="9" height="169" fill="rgb(176,0,0)" stroke="#ffffff" stroke-width="1" opacity="1" class="highcharts-point"></rect><rect x="180.5" y="42.5" width="9" height="199" fill="rgb(176,0,0)" stroke="#ffffff" stroke-width="1" opacity="1" class="highcharts-point"></rect><rect x="213.5" y="36.5" width="9" height="205" fill="rgb(176,0,0)" stroke="#ffffff" stroke-width="1" opacity="1" class="highcharts-point"></rect><rect x="243.5" y="66.5" width="9" height="175" fill="rgb(176,0,0)" stroke="#ffffff" stroke-width="1" opacity="1" class="highcharts-point"></rect><rect x="276.5" y="84.5" width="9" height="157" fill="rgb(176,0,0)" stroke="#ffffff" stroke-width="1" opacity="1" class="highcharts-point"></rect><rect x="308.5" y="108.5" width="9" height="133" fill="rgb(176,0,0)" stroke="#ffffff" stroke-width="1" opacity="1" class="highcharts-point"></rect><rect x="340.5" y="139.5" width="9" height="102" fill="rgb(176,0,0)" stroke="#ffffff" stroke-width="1" opacity="1" class="highcharts-point"></rect><rect x="372.5" y="145.5" width="9" height="96" fill="rgb(176,0,0)" stroke="#ffffff" stroke-width="1" opacity="1" class="highcharts-point"></rect><rect x="405.5" y="145.5" width="9" height="96" fill="rgb(176,0,0)" stroke="#ffffff" stroke-width="1" opacity="1" class="highcharts-point"></rect></g><g class="highcharts-markers highcharts-series-1 highcharts-column-series" data-z-index="0.1" opacity="1" transform="translate(50,79) scale(1 1)" clip-path="none"></g></g><text x="10" text-anchor="start" class="highcharts-title" data-z-index="4" style="color:#000000;font-size:14px;font-weight:bold;fill:#000000;" y="21"><tspan>Jahresteuerung Basler Index und Landesindex</tspan></text><text x="10" text-anchor="start" class="highcharts-subtitle" data-z-index="4" style="color:#000000;font-size:12px;font-weight:normal;fill:#000000;" y="40"></text><text x="10" text-anchor="start" class="highcharts-caption" data-z-index="4" style="color:#666666;fill:#666666;" y="375"></text><g class="highcharts-legend" data-z-index="7" transform="translate(42,41)"><rect fill="none" class="highcharts-legend-box" rx="0" ry="0" x="0" y="0" width="217" height="26" visibility="visible"></rect><g data-z-index="1"><g><g class="highcharts-legend-item highcharts-column-series highcharts-color-undefined highcharts-series-0" data-z-index="1" transform="translate(8,3)"><text x="21" style="color:#333333;cursor:pointer;font-size:12px;font-weight:normal;fill:#333333;" text-anchor="start" data-z-index="2" y="15"><tspan>Basler Index</tspan></text><rect x="2" y="4" width="12" height="12" fill="rgb(111,111,111)" class="highcharts-point" data-z-index="3"></rect></g><g class="highcharts-legend-item highcharts-column-series highcharts-color-undefined highcharts-series-1" data-z-index="1" transform="translate(117,3)"><text x="21" y="15" style="color:#333333;cursor:pointer;font-size:12px;font-weight:normal;fill:#333333;" text-anchor="start" data-z-index="2"><tspan>Landesindex</tspan></text><rect x="2" y="4" width="12" height="12" fill="rgb(176,0,0)" class="highcharts-point" data-z-index="3"></rect></g></g></g></g><g class="highcharts-axis-labels highcharts-xaxis-labels" data-z-index="7"><text x="71.24332025114367" style="color:#000000;cursor:default;font-size:11px;fill:#000000;" text-anchor="end" transform="translate(0,0) rotate(-45 71.24332025114367 336)" y="336" opacity="1"><tspan>Aug 22</tspan></text><text x="104.15613563960068" style="color:#000000;cursor:default;font-size:11px;fill:#000000;" text-anchor="end" transform="translate(0,0) rotate(-45 104.15613563960068 336)" y="336" opacity="1">Sep</text><text x="136.00724730585068" style="color:#000000;cursor:default;font-size:11px;fill:#000000;" text-anchor="end" transform="translate(0,0) rotate(-45 136.00724730585068 336)" y="336" opacity="1">Oct</text><text x="168.92006269431067" style="color:#000000;cursor:default;font-size:11px;fill:#000000;" text-anchor="end" transform="translate(0,0) rotate(-45 168.92006269431067 336)" y="336" opacity="1">Nov</text><text x="200.77117436056068" style="color:#000000;cursor:default;font-size:11px;fill:#000000;" text-anchor="end" transform="translate(0,0) rotate(-45 200.77117436056068 336)" y="336" opacity="1">Dec</text><text x="233.6839897490207" style="color:#000000;cursor:default;font-size:11px;fill:#000000;" text-anchor="end" transform="translate(0,0) rotate(-45 233.6839897490207 336)" y="336" opacity="1">Jan</text><text x="266.59680513748066" style="color:#000000;cursor:default;font-size:11px;fill:#000000;" text-anchor="end" transform="translate(0,0) rotate(-45 266.59680513748066 336)" y="336" opacity="1">Feb</text><text x="296.32450935931064" style="color:#000000;cursor:default;font-size:11px;fill:#000000;" text-anchor="end" transform="translate(0,0) rotate(-45 296.32450935931064 336)" y="336" opacity="1">Mar</text><text x="329.2373247477707" style="color:#000000;cursor:default;font-size:11px;fill:#000000;" text-anchor="end" transform="translate(0,0) rotate(-45 329.2373247477707 336)" y="336" opacity="1">Apr</text><text x="361.08843641402063" style="color:#000000;cursor:default;font-size:11px;fill:#000000;" text-anchor="end" transform="translate(0,0) rotate(-45 361.08843641402063 336)" y="336" opacity="1">May</text><text x="394.0012518024807" style="color:#000000;cursor:default;font-size:11px;fill:#000000;" text-anchor="end" transform="translate(0,0) rotate(-45 394.0012518024807 336)" y="336" opacity="1">Jun</text><text x="425.85236346873063" style="color:#000000;cursor:default;font-size:11px;fill:#000000;" text-anchor="end" transform="translate(0,0) rotate(-45 425.85236346873063 336)" y="336" opacity="1">Jul</text><text x="458.7651788571907" style="color:#000000;cursor:default;font-size:11px;fill:#000000;" text-anchor="end" transform="translate(0,0) rotate(-45 458.7651788571907 336)" y="336" opacity="1"><tspan>Aug 23</tspan></text></g><g class="highcharts-axis-labels highcharts-yaxis-labels" data-z-index="7"><text x="35" style="color:#000000;cursor:default;font-size:11px;fill:#000000;" text-anchor="end" transform="translate(0,0)" y="324" opacity="1">0.0%</text><text x="35" style="color:#000000;cursor:default;font-size:11px;fill:#000000;" text-anchor="end" transform="translate(0,0)" y="264" opacity="1">1.0%</text><text x="35" style="color:#000000;cursor:default;font-size:11px;fill:#000000;" text-anchor="end" transform="translate(0,0)" y="204" opacity="1">2.0%</text><text x="35" style="color:#000000;cursor:default;font-size:11px;fill:#000000;" text-anchor="end" transform="translate(0,0)" y="143" opacity="1">3.0%</text><text x="35" style="color:#000000;cursor:default;font-size:11px;fill:#000000;" text-anchor="end" transform="translate(0,0)" y="83" opacity="1">4.0%</text></g><text x="10" class="highcharts-credits" text-anchor="start" data-z-index="8" style="cursor:default;color:#000000;font-size:10px;fill:#000000;" y="393"><tspan>Quelle: Statistisches Amt Basel-Stadt;</tspan><tspan x="10" dy="13">Bundesamt für Statistik (BFS).</tspan><tspan x="10" dy="13">Zuletzt geändert: 4.9.2023</tspan></text><g class="highcharts-control-points" data-z-index="99" clip-path="url(#highcharts-9z98pvr-61-)"></g></svg>