<?xml version="1.0" standalone="no"?><!DOCTYPE svg PUBLIC "-//W3C//DTD SVG 1.1//EN" "http://www.w3.org/Graphics/SVG/1.1/DTD/svg11.dtd"><svg xmlns:xlink="http://www.w3.org/1999/xlink" version="1.1" class="highcharts-root" style="font-family:Arial;font-size:12px;" xmlns="http://www.w3.org/2000/svg" viewBox="0 0 485 415"><desc>Created with Highcharts 8.2.0</desc><defs><clipPath id="highcharts-mwuzi5o-46-"><rect x="0" y="0" width="419" height="226" fill="none"></rect></clipPath><clipPath id="highcharts-mwuzi5o-60-"><rect x="0" y="0" width="419" height="226" fill="none"></rect></clipPath><clipPath id="highcharts-mwuzi5o-87-"><rect x="56" y="109" width="419" height="226" fill="none"></rect></clipPath></defs><rect fill="#fbfbfb" class="highcharts-background" x="0" y="0" width="485" height="428" rx="0" ry="0"></rect><rect fill="none" class="highcharts-plot-background" x="56" y="109" width="419" height="226"></rect><g class="highcharts-pane-group" data-z-index="0"></g><g class="highcharts-grid highcharts-xaxis-grid" data-z-index="1"><path fill="none" data-z-index="1" class="highcharts-grid-line" d="M 73.5 109 L 73.5 335" opacity="1"></path><path fill="none" data-z-index="1" class="highcharts-grid-line" d="M 106.5 109 L 106.5 335" opacity="1"></path><path fill="none" data-z-index="1" class="highcharts-grid-line" d="M 137.5 109 L 137.5 335" opacity="1"></path><path fill="none" data-z-index="1" class="highcharts-grid-line" d="M 170.5 109 L 170.5 335" opacity="1"></path><path fill="none" data-z-index="1" class="highcharts-grid-line" d="M 202.5 109 L 202.5 335" opacity="1"></path><path fill="none" data-z-index="1" class="highcharts-grid-line" d="M 234.5 109 L 234.5 335" opacity="1"></path><path fill="none" data-z-index="1" class="highcharts-grid-line" d="M 266.5 109 L 266.5 335" opacity="1"></path><path fill="none" data-z-index="1" class="highcharts-grid-line" d="M 297.5 109 L 297.5 335" opacity="1"></path><path fill="none" data-z-index="1" class="highcharts-grid-line" d="M 330.5 109 L 330.5 335" opacity="1"></path><path fill="none" data-z-index="1" class="highcharts-grid-line" d="M 362.5 109 L 362.5 335" opacity="1"></path><path fill="none" data-z-index="1" class="highcharts-grid-line" d="M 392.5 109 L 392.5 335" opacity="1"></path><path fill="none" data-z-index="1" class="highcharts-grid-line" d="M 424.5 109 L 424.5 335" opacity="1"></path><path fill="none" data-z-index="1" class="highcharts-grid-line" d="M 455.5 109 L 455.5 335" opacity="1"></path></g><g class="highcharts-grid highcharts-yaxis-grid" data-z-index="1"><path fill="none" stroke="#B9CFD7" stroke-width="0.5" data-z-index="1" class="highcharts-grid-line" d="M 56 335.25 L 475 335.25" opacity="1"></path><path fill="none" stroke="#B9CFD7" stroke-width="0.5" data-z-index="1" class="highcharts-grid-line" d="M 56 307.25 L 475 307.25" opacity="1"></path><path fill="none" stroke="#B9CFD7" stroke-width="0.5" data-z-index="1" class="highcharts-grid-line" d="M 56 279.25 L 475 279.25" opacity="1"></path><path fill="none" stroke="#B9CFD7" stroke-width="0.5" data-z-index="1" class="highcharts-grid-line" d="M 56 250.25 L 475 250.25" opacity="1"></path><path fill="none" stroke="#B9CFD7" stroke-width="0.5" data-z-index="1" class="highcharts-grid-line" d="M 56 222.25 L 475 222.25" opacity="1"></path><path fill="none" stroke="#B9CFD7" stroke-width="0.5" data-z-index="1" class="highcharts-grid-line" d="M 56 194.25 L 475 194.25" opacity="1"></path><path fill="none" stroke="#B9CFD7" stroke-width="0.5" data-z-index="1" class="highcharts-grid-line" d="M 56 166.25 L 475 166.25" opacity="1"></path><path fill="none" stroke="#B9CFD7" stroke-width="0.5" data-z-index="1" class="highcharts-grid-line" d="M 56 137.25 L 475 137.25" opacity="1"></path><path fill="none" stroke="#B9CFD7" stroke-width="0.5" data-z-index="1" class="highcharts-grid-line" d="M 56 108.75 L 475 108.75" opacity="1"></path></g><rect fill="none" class="highcharts-plot-border" data-z-index="1" x="56" y="109" width="419" height="226"></rect><g class="highcharts-axis highcharts-xaxis" data-z-index="2"><path fill="none" class="highcharts-axis-line" stroke="#B9CFD7" stroke-width="0.5" data-z-index="7" d="M 56 335.25 L 475 335.25"></path></g><g class="highcharts-axis highcharts-yaxis" data-z-index="2"><path fill="none" class="highcharts-axis-line" data-z-index="7" d="M 56 109 L 56 335"></path></g><g class="highcharts-series-group" data-z-index="3"><g class="highcharts-series highcharts-series-0 highcharts-column-series" data-z-index="0.1" opacity="1" transform="translate(56,109) scale(1 1)" clip-path="url(#highcharts-mwuzi5o-60-)"><rect x="10" y="111" width="6" height="3" fill="#FABD24" opacity="1" class="highcharts-point"></rect><rect x="42" y="114" width="6" height="3" fill="#FABD24" opacity="1" class="highcharts-point highcharts-negative"></rect><rect x="74" y="114" width="5" height="1" fill="#FABD24" opacity="1" class="highcharts-point highcharts-negative"></rect><rect x="106" y="112" width="6" height="2" fill="#FABD24" opacity="1" class="highcharts-point"></rect><rect x="138" y="111" width="6" height="3" fill="#FABD24" opacity="1" class="highcharts-point"></rect><rect x="170" y="114" width="6" height="4" fill="#FABD24" opacity="1" class="highcharts-point highcharts-negative"></rect><rect x="202" y="114" width="6" height="3" fill="#FABD24" opacity="1" class="highcharts-point highcharts-negative"></rect><rect x="234" y="114" width="5" height="16" fill="#FABD24" opacity="1" class="highcharts-point highcharts-negative"></rect><rect x="266" y="114" width="6" height="1" fill="#FABD24" opacity="1" class="highcharts-point highcharts-negative"></rect><rect x="299" y="114" width="5" height="8" fill="#FABD24" opacity="1" class="highcharts-point highcharts-negative"></rect><rect x="328" y="109" width="6" height="5" fill="#FABD24" opacity="1" class="highcharts-point"></rect><rect x="360" y="108" width="6" height="6" fill="#FABD24" opacity="1" class="highcharts-point"></rect><rect x="392" y="114" width="6" height="0" fill="#FABD24" opacity="1" class="highcharts-point"></rect></g><g class="highcharts-markers highcharts-series-0 highcharts-column-series" data-z-index="0.1" opacity="1" transform="translate(56,109) scale(1 1)" clip-path="none"></g><g class="highcharts-series highcharts-series-1 highcharts-column-series" data-z-index="0.1" opacity="1" transform="translate(56,109) scale(1 1)" clip-path="url(#highcharts-mwuzi5o-60-)"><rect x="16" y="114" width="5" height="21" fill="#923F8D" opacity="1" class="highcharts-point highcharts-negative"></rect><rect x="48" y="114" width="6" height="25" fill="#923F8D" opacity="1" class="highcharts-point highcharts-negative"></rect><rect x="79" y="114" width="6" height="20" fill="#923F8D" opacity="1" class="highcharts-point highcharts-negative"></rect><rect x="112" y="106" width="6" height="8" fill="#923F8D" opacity="1" class="highcharts-point"></rect><rect x="144" y="75" width="6" height="39" fill="#923F8D" opacity="1" class="highcharts-point"></rect><rect x="176" y="93" width="6" height="21" fill="#923F8D" opacity="1" class="highcharts-point"></rect><rect x="208" y="109" width="6" height="5" fill="#923F8D" opacity="1" class="highcharts-point"></rect><rect x="239" y="114" width="6" height="9" fill="#923F8D" opacity="1" class="highcharts-point highcharts-negative"></rect><rect x="272" y="114" width="6" height="1" fill="#923F8D" opacity="1" class="highcharts-point highcharts-negative"></rect><rect x="304" y="114" width="6" height="3" fill="#923F8D" opacity="1" class="highcharts-point highcharts-negative"></rect><rect x="334" y="114" width="6" height="7" fill="#923F8D" opacity="1" class="highcharts-point highcharts-negative"></rect><rect x="366" y="114" width="6" height="17" fill="#923F8D" opacity="1" class="highcharts-point highcharts-negative"></rect><rect x="398" y="114" width="5" height="31" fill="#923F8D" opacity="1" class="highcharts-point highcharts-negative"></rect></g><g class="highcharts-markers highcharts-series-1 highcharts-column-series" data-z-index="0.1" opacity="1" transform="translate(56,109) scale(1 1)" clip-path="none"></g><g class="highcharts-series highcharts-series-2 highcharts-column-series" data-z-index="0.1" opacity="1" transform="translate(56,109) scale(1 1)" clip-path="url(#highcharts-mwuzi5o-60-)"><rect x="21" y="92" width="6" height="22" fill="#C8C8C8" opacity="1" class="highcharts-point"></rect><rect x="54" y="107" width="6" height="7" fill="#C8C8C8" opacity="1" class="highcharts-point"></rect><rect x="85" y="113" width="6" height="1" fill="#C8C8C8" opacity="1" class="highcharts-point"></rect><rect x="118" y="95" width="6" height="19" fill="#C8C8C8" opacity="1" class="highcharts-point"></rect><rect x="150" y="114" width="6" height="13" fill="#C8C8C8" opacity="1" class="highcharts-point highcharts-negative"></rect><rect x="182" y="87" width="5" height="27" fill="#C8C8C8" opacity="1" class="highcharts-point"></rect><rect x="214" y="114" width="6" height="2" fill="#C8C8C8" opacity="1" class="highcharts-point highcharts-negative"></rect><rect x="245" y="107" width="6" height="7" fill="#C8C8C8" opacity="1" class="highcharts-point"></rect><rect x="278" y="114" width="6" height="6" fill="#C8C8C8" opacity="1" class="highcharts-point highcharts-negative"></rect><rect x="310" y="101" width="6" height="13" fill="#C8C8C8" opacity="1" class="highcharts-point"></rect><rect x="340" y="113" width="5" height="1" fill="#C8C8C8" opacity="1" class="highcharts-point"></rect><rect x="372" y="109" width="6" height="5" fill="#C8C8C8" opacity="1" class="highcharts-point"></rect><rect x="403" y="94" width="6" height="20" fill="#C8C8C8" opacity="1" class="highcharts-point"></rect></g><g class="highcharts-markers highcharts-series-2 highcharts-column-series" data-z-index="0.1" opacity="1" transform="translate(56,109) scale(1 1)" clip-path="none"></g></g><text x="10" text-anchor="start" class="highcharts-title" data-z-index="4" style="color:#000000;font-size:14px;font-weight:bold;fill:#000000;" y="21"><tspan>Bilanz der Wohnbevölkerung</tspan></text><text x="10" text-anchor="start" class="highcharts-subtitle" data-z-index="4" style="color:#000000;font-size:12px;font-weight:normal;fill:#000000;" y="40"><tspan>Basel-Stadt</tspan></text><text x="10" text-anchor="start" class="highcharts-caption" data-z-index="4" style="color:#666666;fill:#666666;" y="390"></text><g class="highcharts-legend" data-z-index="7" transform="translate(48,56)"><rect fill="none" class="highcharts-legend-box" rx="0" ry="0" x="0" y="0" width="374" height="41" visibility="visible"></rect><g data-z-index="1"><g><g class="highcharts-legend-item highcharts-column-series highcharts-color-undefined highcharts-series-0" data-z-index="1" transform="translate(8,3)"><text x="21" style="color:#333333;cursor:pointer;font-size:12px;font-weight:normal;fill:#333333;" text-anchor="start" data-z-index="2" y="15"><tspan>Saldo Geburten-Todesfälle</tspan></text><rect x="2" y="4" width="12" height="12" fill="#FABD24" class="highcharts-point" data-z-index="3"></rect></g><g class="highcharts-legend-item highcharts-column-series highcharts-color-undefined highcharts-series-1" data-z-index="1" transform="translate(197,3)"><text x="21" y="15" style="color:#333333;cursor:pointer;font-size:12px;font-weight:normal;fill:#333333;" text-anchor="start" data-z-index="2"><tspan>Saldo Zuzüge-Wegzüge</tspan></text><rect x="2" y="4" width="12" height="12" fill="#923F8D" class="highcharts-point" data-z-index="3"></rect></g><g class="highcharts-legend-item highcharts-column-series highcharts-color-undefined highcharts-series-2" data-z-index="1" transform="translate(8,18)"><text x="21" y="15" style="color:#333333;cursor:pointer;font-size:12px;font-weight:normal;fill:#333333;" text-anchor="start" data-z-index="2"><tspan>Bereinigungen</tspan></text><rect x="2" y="4" width="12" height="12" fill="#C8C8C8" class="highcharts-point" data-z-index="3"></rect></g></g></g></g><g class="highcharts-axis-labels highcharts-xaxis-labels" data-z-index="7"><text x="76.98001772803667" style="color:#000000;cursor:default;font-size:11px;fill:#000000;" text-anchor="end" transform="translate(0,0) rotate(-45 76.98001772803667 351)" y="351" opacity="1"><tspan>May 20</tspan></text><text x="109.42818160513067" style="color:#000000;cursor:default;font-size:11px;fill:#000000;" text-anchor="end" transform="translate(0,0) rotate(-45 109.42818160513067 351)" y="351" opacity="1">Jun</text><text x="140.8296305184407" style="color:#000000;cursor:default;font-size:11px;fill:#000000;" text-anchor="end" transform="translate(0,0) rotate(-45 140.8296305184407 351)" y="351" opacity="1">Jul</text><text x="173.2777943955307" style="color:#000000;cursor:default;font-size:11px;fill:#000000;" text-anchor="end" transform="translate(0,0) rotate(-45 173.2777943955307 351)" y="351" opacity="1">Aug</text><text x="205.7259582726307" style="color:#000000;cursor:default;font-size:11px;fill:#000000;" text-anchor="end" transform="translate(0,0) rotate(-45 205.7259582726307 351)" y="351" opacity="1">Sep</text><text x="237.12740718594068" style="color:#000000;cursor:default;font-size:11px;fill:#000000;" text-anchor="end" transform="translate(0,0) rotate(-45 237.12740718594068 351)" y="351" opacity="1">Oct</text><text x="269.5755710630307" style="color:#000000;cursor:default;font-size:11px;fill:#000000;" text-anchor="end" transform="translate(0,0) rotate(-45 269.5755710630307 351)" y="351" opacity="1">Nov</text><text x="300.9770199763507" style="color:#000000;cursor:default;font-size:11px;fill:#000000;" text-anchor="end" transform="translate(0,0) rotate(-45 300.9770199763507 351)" y="351" opacity="1">Dec</text><text x="333.42518385344067" style="color:#000000;cursor:default;font-size:11px;fill:#000000;" text-anchor="end" transform="translate(0,0) rotate(-45 333.42518385344067 351)" y="351" opacity="1">Jan</text><text x="365.87334773053067" style="color:#000000;cursor:default;font-size:11px;fill:#000000;" text-anchor="end" transform="translate(0,0) rotate(-45 365.87334773053067 351)" y="351" opacity="1">Feb</text><text x="395.18136671629065" style="color:#000000;cursor:default;font-size:11px;fill:#000000;" text-anchor="end" transform="translate(0,0) rotate(-45 395.18136671629065 351)" y="351" opacity="1">Mar</text><text x="427.62953059339065" style="color:#000000;cursor:default;font-size:11px;fill:#000000;" text-anchor="end" transform="translate(0,0) rotate(-45 427.62953059339065 351)" y="351" opacity="1">Apr</text><text x="459.03097950670065" style="color:#000000;cursor:default;font-size:11px;fill:#000000;" text-anchor="end" transform="translate(0,0) rotate(-45 459.03097950670065 351)" y="351" opacity="1"><tspan>May 21</tspan></text></g><g class="highcharts-axis-labels highcharts-yaxis-labels" data-z-index="7"><text x="41" style="color:#000000;cursor:default;font-size:11px;fill:#000000;" text-anchor="end" transform="translate(0,0)" y="339" opacity="1"><tspan>-1 000</tspan></text><text x="41" style="color:#000000;cursor:default;font-size:11px;fill:#000000;" text-anchor="end" transform="translate(0,0)" y="311" opacity="1">-750</text><text x="41" style="color:#000000;cursor:default;font-size:11px;fill:#000000;" text-anchor="end" transform="translate(0,0)" y="283" opacity="1">-500</text><text x="41" style="color:#000000;cursor:default;font-size:11px;fill:#000000;" text-anchor="end" transform="translate(0,0)" y="254" opacity="1">-250</text><text x="41" style="color:#000000;cursor:default;font-size:11px;fill:#000000;" text-anchor="end" transform="translate(0,0)" y="226" opacity="1">0</text><text x="41" style="color:#000000;cursor:default;font-size:11px;fill:#000000;" text-anchor="end" transform="translate(0,0)" y="198" opacity="1">250</text><text x="41" style="color:#000000;cursor:default;font-size:11px;fill:#000000;" text-anchor="end" transform="translate(0,0)" y="170" opacity="1">500</text><text x="41" style="color:#000000;cursor:default;font-size:11px;fill:#000000;" text-anchor="end" transform="translate(0,0)" y="141" opacity="1">750</text><text x="41" style="color:#000000;cursor:default;font-size:11px;fill:#000000;" text-anchor="end" transform="translate(0,0)" y="113" opacity="1"><tspan>1 000</tspan></text></g><text x="10" class="highcharts-credits" text-anchor="start" data-z-index="8" style="cursor:default;color:#000000;font-size:10px;fill:#000000;" y="403"><tspan>Quelle: Statistisches Amt Basel-Stadt, Bevölkerungsstatistik.</tspan><tspan x="10" dy="13">Zuletzt geändert: 2021-6-24</tspan></text><g class="highcharts-control-points" data-z-index="99" clip-path="url(#highcharts-mwuzi5o-87-)"></g></svg>