<?xml version="1.0" standalone="no"?><!DOCTYPE svg PUBLIC "-//W3C//DTD SVG 1.1//EN" "http://www.w3.org/Graphics/SVG/1.1/DTD/svg11.dtd"><svg xmlns:xlink="http://www.w3.org/1999/xlink" version="1.1" class="highcharts-root" style="font-family:Arial;font-size:12px;" xmlns="http://www.w3.org/2000/svg" viewBox="0 0 485 415"><desc>Created with Highstock 6.1.1</desc><defs><clipPath id="highcharts-m4vnhwu-6"><rect x="0" y="0" width="419" height="227" fill="none"></rect></clipPath><clipPath id="highcharts-m4vnhwu-7"><rect x="0" y="0" width="419" height="227" fill="none"></rect></clipPath></defs><rect fill="#fbfbfb" class="highcharts-background" x="0" y="0" width="485" height="428" rx="0" ry="0"></rect><rect fill="none" class="highcharts-plot-background" x="56" y="109" width="419" height="227"></rect><g class="highcharts-pane-group" data-z-index="0"></g><g class="highcharts-grid highcharts-xaxis-grid " data-z-index="1"><path fill="none" data-z-index="1" class="highcharts-grid-line" d="M 73.5 109 L 73.5 336" opacity="1"></path><path fill="none" data-z-index="1" class="highcharts-grid-line" d="M 105.5 109 L 105.5 336" opacity="1"></path><path fill="none" data-z-index="1" class="highcharts-grid-line" d="M 137.5 109 L 137.5 336" opacity="1"></path><path fill="none" data-z-index="1" class="highcharts-grid-line" d="M 169.5 109 L 169.5 336" opacity="1"></path><path fill="none" data-z-index="1" class="highcharts-grid-line" d="M 201.5 109 L 201.5 336" opacity="1"></path><path fill="none" data-z-index="1" class="highcharts-grid-line" d="M 234.5 109 L 234.5 336" opacity="1"></path><path fill="none" data-z-index="1" class="highcharts-grid-line" d="M 263.5 109 L 263.5 336" opacity="1"></path><path fill="none" data-z-index="1" class="highcharts-grid-line" d="M 295.5 109 L 295.5 336" opacity="1"></path><path fill="none" data-z-index="1" class="highcharts-grid-line" d="M 327.5 109 L 327.5 336" opacity="1"></path><path fill="none" data-z-index="1" class="highcharts-grid-line" d="M 359.5 109 L 359.5 336" opacity="1"></path><path fill="none" data-z-index="1" class="highcharts-grid-line" d="M 391.5 109 L 391.5 336" opacity="1"></path><path fill="none" data-z-index="1" class="highcharts-grid-line" d="M 423.5 109 L 423.5 336" opacity="1"></path><path fill="none" data-z-index="1" class="highcharts-grid-line" d="M 455.5 109 L 455.5 336" opacity="1"></path></g><g class="highcharts-grid highcharts-yaxis-grid " data-z-index="1"><path fill="none" stroke="#B9CFD7" stroke-width="0.5" data-z-index="1" class="highcharts-grid-line" d="M 56 336.25 L 475 336.25" opacity="1"></path><path fill="none" stroke="#B9CFD7" stroke-width="0.5" data-z-index="1" class="highcharts-grid-line" d="M 56 308.25 L 475 308.25" opacity="1"></path><path fill="none" stroke="#B9CFD7" stroke-width="0.5" data-z-index="1" class="highcharts-grid-line" d="M 56 279.25 L 475 279.25" opacity="1"></path><path fill="none" stroke="#B9CFD7" stroke-width="0.5" data-z-index="1" class="highcharts-grid-line" d="M 56 251.25 L 475 251.25" opacity="1"></path><path fill="none" stroke="#B9CFD7" stroke-width="0.5" data-z-index="1" class="highcharts-grid-line" d="M 56 223.25 L 475 223.25" opacity="1"></path><path fill="none" stroke="#B9CFD7" stroke-width="0.5" data-z-index="1" class="highcharts-grid-line" d="M 56 194.25 L 475 194.25" opacity="1"></path><path fill="none" stroke="#B9CFD7" stroke-width="0.5" data-z-index="1" class="highcharts-grid-line" d="M 56 166.25 L 475 166.25" opacity="1"></path><path fill="none" stroke="#B9CFD7" stroke-width="0.5" data-z-index="1" class="highcharts-grid-line" d="M 56 137.25 L 475 137.25" opacity="1"></path><path fill="none" stroke="#B9CFD7" stroke-width="0.5" data-z-index="1" class="highcharts-grid-line" d="M 56 108.75 L 475 108.75" opacity="1"></path></g><rect fill="none" class="highcharts-plot-border" data-z-index="1" x="56" y="109" width="419" height="227"></rect><g class="highcharts-axis highcharts-xaxis " data-z-index="2"><path fill="none" class="highcharts-axis-line" stroke="#B9CFD7" stroke-width="0.5" data-z-index="7" d="M 56 336.25 L 475 336.25"></path></g><g class="highcharts-axis highcharts-yaxis " data-z-index="2"><path fill="none" class="highcharts-axis-line" data-z-index="7" d="M 56 109 L 56 336"></path></g><g class="highcharts-series-group" data-z-index="3"><g data-z-index="0.1" class="highcharts-series highcharts-series-0 highcharts-column-series " transform="translate(56,109) scale(1 1)" clip-path="url(#highcharts-m4vnhwu-7)"><rect x="10" y="113" width="6" height="2" fill="#FABD24" class="highcharts-point"></rect><rect x="41" y="112" width="6" height="3" fill="#FABD24" class="highcharts-point"></rect><rect x="73" y="113" width="6" height="2" fill="#FABD24" class="highcharts-point"></rect><rect x="105" y="115" width="6" height="2" fill="#FABD24" class="highcharts-point highcharts-negative"></rect><rect x="137" y="115" width="6" height="2" fill="#FABD24" class="highcharts-point highcharts-negative"></rect><rect x="170" y="115" width="6" height="1" fill="#FABD24" class="highcharts-point highcharts-negative"></rect><rect x="199" y="115" width="6" height="6" fill="#FABD24" class="highcharts-point highcharts-negative"></rect><rect x="232" y="100" width="5" height="15" fill="#FABD24" class="highcharts-point"></rect><rect x="263" y="115" width="6" height="9" fill="#FABD24" class="highcharts-point highcharts-negative"></rect><rect x="295" y="115" width="6" height="4" fill="#FABD24" class="highcharts-point highcharts-negative"></rect><rect x="327" y="115" width="6" height="2" fill="#FABD24" class="highcharts-point highcharts-negative"></rect><rect x="359" y="115" width="6" height="7" fill="#FABD24" class="highcharts-point highcharts-negative"></rect><rect x="392" y="115" width="6" height="8" fill="#FABD24" class="highcharts-point highcharts-negative"></rect></g><g data-z-index="0.1" class="highcharts-markers highcharts-series-0 highcharts-column-series " transform="translate(56,109) scale(1 1)" clip-path="none"></g><g data-z-index="0.1" class="highcharts-series highcharts-series-1 highcharts-column-series " transform="translate(56,109) scale(1 1)" clip-path="url(#highcharts-m4vnhwu-7)"><rect x="16" y="53" width="5" height="62" fill="#923F8D" class="highcharts-point"></rect><rect x="47" y="100" width="6" height="15" fill="#923F8D" class="highcharts-point"></rect><rect x="79" y="115" width="6" height="9" fill="#923F8D" class="highcharts-point highcharts-negative"></rect><rect x="111" y="115" width="6" height="53" fill="#923F8D" class="highcharts-point highcharts-negative"></rect><rect x="143" y="33" width="6" height="82" fill="#923F8D" class="highcharts-point"></rect><rect x="176" y="115" width="6" height="33" fill="#923F8D" class="highcharts-point highcharts-negative"></rect><rect x="205" y="100" width="6" height="15" fill="#923F8D" class="highcharts-point"></rect><rect x="237" y="101" width="6" height="14" fill="#923F8D" class="highcharts-point"></rect><rect x="269" y="115" width="6" height="9" fill="#923F8D" class="highcharts-point highcharts-negative"></rect><rect x="301" y="115" width="6" height="10" fill="#923F8D" class="highcharts-point highcharts-negative"></rect><rect x="333" y="115" width="6" height="3" fill="#923F8D" class="highcharts-point highcharts-negative"></rect><rect x="365" y="93" width="6" height="22" fill="#923F8D" class="highcharts-point"></rect><rect x="398" y="73" width="5" height="42" fill="#923F8D" class="highcharts-point"></rect></g><g data-z-index="0.1" class="highcharts-markers highcharts-series-1 highcharts-column-series " transform="translate(56,109) scale(1 1)" clip-path="none"></g><g data-z-index="0.1" class="highcharts-series highcharts-series-2 highcharts-column-series " transform="translate(56,109) scale(1 1)" clip-path="url(#highcharts-m4vnhwu-7)"><rect x="21" y="115" width="6" height="33" fill="#C8C8C8" class="highcharts-point highcharts-negative"></rect><rect x="53" y="90" width="6" height="25" fill="#C8C8C8" class="highcharts-point"></rect><rect x="85" y="104" width="6" height="11" fill="#C8C8C8" class="highcharts-point"></rect><rect x="117" y="98" width="5" height="17" fill="#C8C8C8" class="highcharts-point"></rect><rect x="149" y="115" width="6" height="62" fill="#C8C8C8" class="highcharts-point highcharts-negative"></rect><rect x="182" y="103" width="5" height="12" fill="#C8C8C8" class="highcharts-point"></rect><rect x="211" y="112" width="6" height="3" fill="#C8C8C8" class="highcharts-point"></rect><rect x="243" y="115" width="6" height="30" fill="#C8C8C8" class="highcharts-point highcharts-negative"></rect><rect x="275" y="103" width="6" height="12" fill="#C8C8C8" class="highcharts-point"></rect><rect x="307" y="111" width="6" height="4" fill="#C8C8C8" class="highcharts-point"></rect><rect x="339" y="90" width="5" height="25" fill="#C8C8C8" class="highcharts-point"></rect><rect x="371" y="115" width="6" height="9" fill="#C8C8C8" class="highcharts-point highcharts-negative"></rect><rect x="403" y="115" width="6" height="3" fill="#C8C8C8" class="highcharts-point highcharts-negative"></rect></g><g data-z-index="0.1" class="highcharts-markers highcharts-series-2 highcharts-column-series " transform="translate(56,109) scale(1 1)" clip-path="none"></g></g><text x="10" text-anchor="start" class="highcharts-title" data-z-index="4" style="color:#000000;font-size:14px;font-weight:bold;fill:#000000;" y="21"><tspan>Bilanz der Wohnbevölkerung</tspan></text><text x="10" text-anchor="start" class="highcharts-subtitle" data-z-index="4" style="color:#000000;font-size:12px;font-weight:normal;font-family:Arial;fill:#000000;" y="40"><tspan>Basel-Stadt</tspan></text><g class="highcharts-legend" data-z-index="7" transform="translate(48,56)"><rect fill="none" class="highcharts-legend-box" rx="0" ry="0" x="0" y="0" width="374" height="41" visibility="visible"></rect><g data-z-index="1"><g><g class="highcharts-legend-item highcharts-column-series highcharts-color-undefined highcharts-series-0" data-z-index="1" transform="translate(8,3)"><text x="21" style="color:#333333;font-size:12px;font-weight:normal;cursor:pointer;fill:#333333;" text-anchor="start" data-z-index="2" y="15"><tspan>Saldo Geburten-Todesfälle</tspan></text><rect x="2" y="4" width="12" height="12" fill="#FABD24" class="highcharts-point" data-z-index="3"></rect></g><g class="highcharts-legend-item highcharts-column-series highcharts-color-undefined highcharts-series-1" data-z-index="1" transform="translate(197,3)"><text x="21" y="15" style="color:#333333;font-size:12px;font-weight:normal;cursor:pointer;fill:#333333;" text-anchor="start" data-z-index="2"><tspan>Saldo Zuzüge-Wegzüge</tspan></text><rect x="2" y="4" width="12" height="12" fill="#923F8D" class="highcharts-point" data-z-index="3"></rect></g><g class="highcharts-legend-item highcharts-column-series highcharts-color-undefined highcharts-series-2" data-z-index="1" transform="translate(8,18)"><text x="21" y="15" style="color:#333333;font-size:12px;font-weight:normal;cursor:pointer;fill:#333333;" text-anchor="start" data-z-index="2"><tspan>Bereinigungen</tspan></text><rect x="2" y="4" width="12" height="12" fill="#C8C8C8" class="highcharts-point" data-z-index="3"></rect></g></g></g></g><g class="highcharts-axis-labels highcharts-xaxis-labels " data-z-index="7"><text x="76.98001772803667" style="color:#000000;cursor:default;font-size:11px;fill:#000000;" text-anchor="end" transform="translate(0,0) rotate(-45 76.98001772803667 352)" y="352" opacity="1"><tspan>Sep 18</tspan></text><text x="108.38146664135067" style="color:#000000;cursor:default;font-size:11px;fill:#000000;" text-anchor="end" transform="translate(0,0) rotate(-45 108.38146664135067 352)" y="352" opacity="1">Oct</text><text x="140.8296305184407" style="color:#000000;cursor:default;font-size:11px;fill:#000000;" text-anchor="end" transform="translate(0,0) rotate(-45 140.8296305184407 352)" y="352" opacity="1">Nov</text><text x="172.2310794317607" style="color:#000000;cursor:default;font-size:11px;fill:#000000;" text-anchor="end" transform="translate(0,0) rotate(-45 172.2310794317607 352)" y="352" opacity="1">Dec</text><text x="204.6792433088507" style="color:#000000;cursor:default;font-size:11px;fill:#000000;" text-anchor="end" transform="translate(0,0) rotate(-45 204.6792433088507 352)" y="352" opacity="1">Jan</text><text x="237.12740718594068" style="color:#000000;cursor:default;font-size:11px;fill:#000000;" text-anchor="end" transform="translate(0,0) rotate(-45 237.12740718594068 352)" y="352" opacity="1">Feb</text><text x="266.43542617170067" style="color:#000000;cursor:default;font-size:11px;fill:#000000;" text-anchor="end" transform="translate(0,0) rotate(-45 266.43542617170067 352)" y="352" opacity="1">Mar</text><text x="298.88359004880067" style="color:#000000;cursor:default;font-size:11px;fill:#000000;" text-anchor="end" transform="translate(0,0) rotate(-45 298.88359004880067 352)" y="352" opacity="1">Apr</text><text x="330.28503896211066" style="color:#000000;cursor:default;font-size:11px;fill:#000000;" text-anchor="end" transform="translate(0,0) rotate(-45 330.28503896211066 352)" y="352" opacity="1">May</text><text x="362.73320283920066" style="color:#000000;cursor:default;font-size:11px;fill:#000000;" text-anchor="end" transform="translate(0,0) rotate(-45 362.73320283920066 352)" y="352" opacity="1">Jun</text><text x="394.13465175252065" style="color:#000000;cursor:default;font-size:11px;fill:#000000;" text-anchor="end" transform="translate(0,0) rotate(-45 394.13465175252065 352)" y="352" opacity="1">Jul</text><text x="426.58281562961065" style="color:#000000;cursor:default;font-size:11px;fill:#000000;" text-anchor="end" transform="translate(0,0) rotate(-45 426.58281562961065 352)" y="352" opacity="1">Aug</text><text x="459.03097950670065" style="color:#000000;cursor:default;font-size:11px;fill:#000000;" text-anchor="end" transform="translate(0,0) rotate(-45 459.03097950670065 352)" y="352" opacity="1"><tspan>Sep 19</tspan></text></g><g class="highcharts-axis-labels highcharts-yaxis-labels " data-z-index="7"><text x="41" style="color:#000000;cursor:default;font-size:11px;fill:#000000;" text-anchor="end" transform="translate(0,0)" y="340" opacity="1"><tspan>-1 000</tspan></text><text x="41" style="color:#000000;cursor:default;font-size:11px;fill:#000000;" text-anchor="end" transform="translate(0,0)" y="312" opacity="1">-750</text><text x="41" style="color:#000000;cursor:default;font-size:11px;fill:#000000;" text-anchor="end" transform="translate(0,0)" y="283" opacity="1">-500</text><text x="41" style="color:#000000;cursor:default;font-size:11px;fill:#000000;" text-anchor="end" transform="translate(0,0)" y="255" opacity="1">-250</text><text x="41" style="color:#000000;cursor:default;font-size:11px;fill:#000000;" text-anchor="end" transform="translate(0,0)" y="227" opacity="1">0</text><text x="41" style="color:#000000;cursor:default;font-size:11px;fill:#000000;" text-anchor="end" transform="translate(0,0)" y="198" opacity="1">250</text><text x="41" style="color:#000000;cursor:default;font-size:11px;fill:#000000;" text-anchor="end" transform="translate(0,0)" y="170" opacity="1">500</text><text x="41" style="color:#000000;cursor:default;font-size:11px;fill:#000000;" text-anchor="end" transform="translate(0,0)" y="141" opacity="1">750</text><text x="41" style="color:#000000;cursor:default;font-size:11px;fill:#000000;" text-anchor="end" transform="translate(0,0)" y="113" opacity="1"><tspan>1 000</tspan></text></g><text x="10" class="highcharts-credits" text-anchor="start" data-z-index="8" style="cursor:default;color:#000000;font-size:10px;fill:#000000;" y="403"><tspan>Quelle: Statistisches Amt Basel-Stadt, Bevölkerungsstatistik.</tspan><tspan x="10" dy="13">Zuletzt geändert: 2019-10-23</tspan></text></svg>