<?xml version="1.0" standalone="no"?><!DOCTYPE svg PUBLIC "-//W3C//DTD SVG 1.1//EN" "http://www.w3.org/Graphics/SVG/1.1/DTD/svg11.dtd"><svg xmlns:xlink="http://www.w3.org/1999/xlink" version="1.1" class="highcharts-root" style="font-family:Arial;font-size:12px;" xmlns="http://www.w3.org/2000/svg" viewBox="0 0 485 415"><desc>Created with Highcharts 8.2.0</desc><defs><clipPath id="highcharts-bcw0mfj-46-"><rect x="0" y="0" width="423" height="247" fill="none"></rect></clipPath><clipPath id="highcharts-bcw0mfj-60-"><rect x="0" y="0" width="423" height="247" fill="none"></rect></clipPath><clipPath id="highcharts-bcw0mfj-87-"><rect x="52" y="109" width="423" height="247" fill="none"></rect></clipPath></defs><rect fill="#fbfbfb" class="highcharts-background" x="0" y="0" width="485" height="428" rx="0" ry="0"></rect><rect fill="none" class="highcharts-plot-background" x="52" y="109" width="423" height="247"></rect><g class="highcharts-pane-group" data-z-index="0"></g><g class="highcharts-grid highcharts-xaxis-grid" data-z-index="1"><path fill="none" data-z-index="1" class="highcharts-grid-line" d="M 70.5 109 L 70.5 356" opacity="1"></path><path fill="none" data-z-index="1" class="highcharts-grid-line" d="M 103.5 109 L 103.5 356" opacity="1"></path><path fill="none" data-z-index="1" class="highcharts-grid-line" d="M 135.5 109 L 135.5 356" opacity="1"></path><path fill="none" data-z-index="1" class="highcharts-grid-line" d="M 167.5 109 L 167.5 356" opacity="1"></path><path fill="none" data-z-index="1" class="highcharts-grid-line" d="M 199.5 109 L 199.5 356" opacity="1"></path><path fill="none" data-z-index="1" class="highcharts-grid-line" d="M 231.5 109 L 231.5 356" opacity="1"></path><path fill="none" data-z-index="1" class="highcharts-grid-line" d="M 263.5 109 L 263.5 356" opacity="1"></path><path fill="none" data-z-index="1" class="highcharts-grid-line" d="M 296.5 109 L 296.5 356" opacity="1"></path><path fill="none" data-z-index="1" class="highcharts-grid-line" d="M 327.5 109 L 327.5 356" opacity="1"></path><path fill="none" data-z-index="1" class="highcharts-grid-line" d="M 359.5 109 L 359.5 356" opacity="1"></path><path fill="none" data-z-index="1" class="highcharts-grid-line" d="M 391.5 109 L 391.5 356" opacity="1"></path><path fill="none" data-z-index="1" class="highcharts-grid-line" d="M 423.5 109 L 423.5 356" opacity="1"></path><path fill="none" data-z-index="1" class="highcharts-grid-line" d="M 455.5 109 L 455.5 356" opacity="1"></path></g><g class="highcharts-grid highcharts-yaxis-grid" data-z-index="1"><path fill="none" stroke="#B9CFD7" stroke-width="0.5" data-z-index="1" class="highcharts-grid-line" d="M 52 356.25 L 475 356.25" opacity="1"></path><path fill="none" stroke="#B9CFD7" stroke-width="0.5" data-z-index="1" class="highcharts-grid-line" d="M 52 315.25 L 475 315.25" opacity="1"></path><path fill="none" stroke="#B9CFD7" stroke-width="0.5" data-z-index="1" class="highcharts-grid-line" d="M 52 274.25 L 475 274.25" opacity="1"></path><path fill="none" stroke="#B9CFD7" stroke-width="0.5" data-z-index="1" class="highcharts-grid-line" d="M 52 233.25 L 475 233.25" opacity="1"></path><path fill="none" stroke="#B9CFD7" stroke-width="0.5" data-z-index="1" class="highcharts-grid-line" d="M 52 191.25 L 475 191.25" opacity="1"></path><path fill="none" stroke="#B9CFD7" stroke-width="0.5" data-z-index="1" class="highcharts-grid-line" d="M 52 150.25 L 475 150.25" opacity="1"></path><path fill="none" stroke="#B9CFD7" stroke-width="0.5" data-z-index="1" class="highcharts-grid-line" d="M 52 108.75 L 475 108.75" opacity="1"></path></g><rect fill="none" class="highcharts-plot-border" data-z-index="1" x="52" y="109" width="423" height="247"></rect><g class="highcharts-axis highcharts-xaxis" data-z-index="2"><path fill="none" class="highcharts-axis-line" stroke="#B9CFD7" stroke-width="0.5" data-z-index="7" d="M 52 356.25 L 475 356.25"></path></g><g class="highcharts-axis highcharts-yaxis" data-z-index="2"><path fill="none" class="highcharts-axis-line" data-z-index="7" d="M 52 109 L 52 356"></path></g><g class="highcharts-series-group" data-z-index="3"><g class="highcharts-series highcharts-series-0 highcharts-column-series" data-z-index="0.1" opacity="1" transform="translate(52,109) scale(1 1)" clip-path="url(#highcharts-bcw0mfj-60-)"><rect x="10" y="166" width="6" height="1" fill="#FABD24" opacity="1" class="highcharts-point highcharts-negative"></rect><rect x="43" y="166" width="6" height="5" fill="#FABD24" opacity="1" class="highcharts-point highcharts-negative"></rect><rect x="75" y="166" width="6" height="6" fill="#FABD24" opacity="1" class="highcharts-point highcharts-negative"></rect><rect x="107" y="166" width="6" height="2" fill="#FABD24" opacity="1" class="highcharts-point highcharts-negative"></rect><rect x="139" y="166" width="6" height="1" fill="#FABD24" opacity="1" class="highcharts-point highcharts-negative"></rect><rect x="171" y="166" width="6" height="4" fill="#FABD24" opacity="1" class="highcharts-point highcharts-negative"></rect><rect x="203" y="166" width="6" height="3" fill="#FABD24" opacity="1" class="highcharts-point highcharts-negative"></rect><rect x="236" y="166" width="6" height="3" fill="#FABD24" opacity="1" class="highcharts-point highcharts-negative"></rect><rect x="266" y="166" width="7" height="11" fill="#FABD24" opacity="1" class="highcharts-point highcharts-negative"></rect><rect x="299" y="165" width="6" height="1" fill="#FABD24" opacity="1" class="highcharts-point"></rect><rect x="331" y="166" width="6" height="4" fill="#FABD24" opacity="1" class="highcharts-point highcharts-negative"></rect><rect x="363" y="166" width="6" height="1" fill="#FABD24" opacity="1" class="highcharts-point highcharts-negative"></rect><rect x="395" y="166" width="6" height="7" fill="#FABD24" opacity="1" class="highcharts-point highcharts-negative"></rect></g><g class="highcharts-markers highcharts-series-0 highcharts-column-series" data-z-index="0.1" opacity="1" transform="translate(52,109) scale(1 1)" clip-path="none"></g><g class="highcharts-series highcharts-series-1 highcharts-column-series" data-z-index="0.1" opacity="1" transform="translate(52,109) scale(1 1)" clip-path="url(#highcharts-bcw0mfj-60-)"><rect x="16" y="166" width="6" height="24" fill="#923F8D" opacity="1" class="highcharts-point highcharts-negative"></rect><rect x="49" y="148" width="6" height="18" fill="#923F8D" opacity="1" class="highcharts-point"></rect><rect x="81" y="51" width="6" height="115" fill="#923F8D" opacity="1" class="highcharts-point"></rect><rect x="113" y="128" width="6" height="38" fill="#923F8D" opacity="1" class="highcharts-point"></rect><rect x="145" y="140" width="6" height="26" fill="#923F8D" opacity="1" class="highcharts-point"></rect><rect x="177" y="166" width="6" height="42" fill="#923F8D" opacity="1" class="highcharts-point highcharts-negative"></rect><rect x="209" y="129" width="7" height="37" fill="#923F8D" opacity="1" class="highcharts-point"></rect><rect x="242" y="131" width="6" height="35" fill="#923F8D" opacity="1" class="highcharts-point"></rect><rect x="273" y="146" width="6" height="20" fill="#923F8D" opacity="1" class="highcharts-point"></rect><rect x="305" y="147" width="6" height="19" fill="#923F8D" opacity="1" class="highcharts-point"></rect><rect x="337" y="166" width="6" height="1" fill="#923F8D" opacity="1" class="highcharts-point highcharts-negative"></rect><rect x="369" y="166" width="6" height="33" fill="#923F8D" opacity="1" class="highcharts-point highcharts-negative"></rect><rect x="401" y="166" width="6" height="47" fill="#923F8D" opacity="1" class="highcharts-point highcharts-negative"></rect></g><g class="highcharts-markers highcharts-series-1 highcharts-column-series" data-z-index="0.1" opacity="1" transform="translate(52,109) scale(1 1)" clip-path="none"></g><g class="highcharts-series highcharts-series-2 highcharts-column-series" data-z-index="0.1" opacity="1" transform="translate(52,109) scale(1 1)" clip-path="url(#highcharts-bcw0mfj-60-)"><rect x="22" y="125" width="6" height="41" fill="#C8C8C8" opacity="1" class="highcharts-point"></rect><rect x="55" y="166" width="6" height="7" fill="#C8C8C8" opacity="1" class="highcharts-point highcharts-negative"></rect><rect x="87" y="166" width="6" height="33" fill="#C8C8C8" opacity="1" class="highcharts-point highcharts-negative"></rect><rect x="119" y="159" width="6" height="7" fill="#C8C8C8" opacity="1" class="highcharts-point"></rect><rect x="151" y="154" width="7" height="12" fill="#C8C8C8" opacity="1" class="highcharts-point"></rect><rect x="183" y="159" width="6" height="7" fill="#C8C8C8" opacity="1" class="highcharts-point"></rect><rect x="216" y="166" width="6" height="71" fill="#C8C8C8" opacity="1" class="highcharts-point highcharts-negative"></rect><rect x="248" y="46" width="6" height="120" fill="#C8C8C8" opacity="1" class="highcharts-point"></rect><rect x="279" y="166" width="6" height="6" fill="#C8C8C8" opacity="1" class="highcharts-point highcharts-negative"></rect><rect x="311" y="160" width="6" height="6" fill="#C8C8C8" opacity="1" class="highcharts-point"></rect><rect x="343" y="166" width="6" height="16" fill="#C8C8C8" opacity="1" class="highcharts-point highcharts-negative"></rect><rect x="375" y="144" width="7" height="22" fill="#C8C8C8" opacity="1" class="highcharts-point"></rect><rect x="407" y="133" width="6" height="33" fill="#C8C8C8" opacity="1" class="highcharts-point"></rect></g><g class="highcharts-markers highcharts-series-2 highcharts-column-series" data-z-index="0.1" opacity="1" transform="translate(52,109) scale(1 1)" clip-path="none"></g></g><text x="10" text-anchor="start" class="highcharts-title" data-z-index="4" style="color:#000000;font-size:14px;font-weight:bold;fill:#000000;" y="21"><tspan>Bilanz der Wohnbevölkerung</tspan></text><text x="10" text-anchor="start" class="highcharts-subtitle" data-z-index="4" style="color:#000000;font-size:12px;font-weight:normal;fill:#000000;" y="40"><tspan>Basel-Stadt</tspan></text><text x="10" text-anchor="start" class="highcharts-caption" data-z-index="4" style="color:#666666;fill:#666666;" y="390"></text><g class="highcharts-legend" data-z-index="7" transform="translate(44,56)"><rect fill="none" class="highcharts-legend-box" rx="0" ry="0" x="0" y="0" width="374" height="41" visibility="visible"></rect><g data-z-index="1"><g><g class="highcharts-legend-item highcharts-column-series highcharts-color-undefined highcharts-series-0" data-z-index="1" transform="translate(8,3)"><text x="21" style="color:#333333;cursor:pointer;font-size:12px;font-weight:normal;fill:#333333;" text-anchor="start" data-z-index="2" y="15"><tspan>Saldo Geburten-Todesfälle</tspan></text><rect x="2" y="4" width="12" height="12" fill="#FABD24" class="highcharts-point" data-z-index="3"></rect></g><g class="highcharts-legend-item highcharts-column-series highcharts-color-undefined highcharts-series-1" data-z-index="1" transform="translate(197,3)"><text x="21" y="15" style="color:#333333;cursor:pointer;font-size:12px;font-weight:normal;fill:#333333;" text-anchor="start" data-z-index="2"><tspan>Saldo Zuzüge-Wegzüge</tspan></text><rect x="2" y="4" width="12" height="12" fill="#923F8D" class="highcharts-point" data-z-index="3"></rect></g><g class="highcharts-legend-item highcharts-column-series highcharts-color-undefined highcharts-series-2" data-z-index="1" transform="translate(8,18)"><text x="21" y="15" style="color:#333333;cursor:pointer;font-size:12px;font-weight:normal;fill:#333333;" text-anchor="start" data-z-index="2"><tspan>Bereinigungen</tspan></text><rect x="2" y="4" width="12" height="12" fill="#C8C8C8" class="highcharts-point" data-z-index="3"></rect></g></g></g></g><g class="highcharts-axis-labels highcharts-xaxis-labels" data-z-index="7"><text x="71.005841121495" style="color:#000000;cursor:default;font-size:11px;fill:#000000;" text-anchor="middle" transform="translate(0,0)" y="375" opacity="1"><tspan>Jul 23</tspan></text><text x="103.59929906542" style="color:#000000;cursor:default;font-size:11px;fill:#000000;" text-anchor="middle" transform="translate(0,0)" y="375" opacity="1">Aug</text><text x="136.19275700935" style="color:#000000;cursor:default;font-size:11px;fill:#000000;" text-anchor="middle" transform="translate(0,0)" y="375" opacity="1">Sep</text><text x="167.73481308411" style="color:#000000;cursor:default;font-size:11px;fill:#000000;" text-anchor="middle" transform="translate(0,0)" y="375" opacity="1">Oct</text><text x="200.32827102804" style="color:#000000;cursor:default;font-size:11px;fill:#000000;" text-anchor="middle" transform="translate(0,0)" y="375" opacity="1">Nov</text><text x="231.8703271028" style="color:#000000;cursor:default;font-size:11px;fill:#000000;" text-anchor="middle" transform="translate(0,0)" y="375" opacity="1">Dec</text><text x="264.46378504673" style="color:#000000;cursor:default;font-size:11px;fill:#000000;" text-anchor="middle" transform="translate(0,0)" y="375" opacity="1">Jan</text><text x="297.05724299065" style="color:#000000;cursor:default;font-size:11px;fill:#000000;" text-anchor="middle" transform="translate(0,0)" y="375" opacity="1">Feb</text><text x="327.54789719626" style="color:#000000;cursor:default;font-size:11px;fill:#000000;" text-anchor="middle" transform="translate(0,0)" y="375" opacity="1">Mar</text><text x="360.14135514019" style="color:#000000;cursor:default;font-size:11px;fill:#000000;" text-anchor="middle" transform="translate(0,0)" y="375" opacity="1">Apr</text><text x="391.68341121495" style="color:#000000;cursor:default;font-size:11px;fill:#000000;" text-anchor="middle" transform="translate(0,0)" y="375" opacity="1">May</text><text x="424.27686915888" style="color:#000000;cursor:default;font-size:11px;fill:#000000;" text-anchor="middle" transform="translate(0,0)" y="375" opacity="1">Jun</text><text x="455.81892523364" style="color:#000000;cursor:default;font-size:11px;fill:#000000;" text-anchor="middle" transform="translate(0,0)" y="375" opacity="1"><tspan>Jul 24</tspan></text></g><g class="highcharts-axis-labels highcharts-yaxis-labels" data-z-index="7"><text x="37" style="color:#000000;cursor:default;font-size:11px;fill:#000000;" text-anchor="end" transform="translate(0,0)" y="360" opacity="1">-500</text><text x="37" style="color:#000000;cursor:default;font-size:11px;fill:#000000;" text-anchor="end" transform="translate(0,0)" y="319" opacity="1">-250</text><text x="37" style="color:#000000;cursor:default;font-size:11px;fill:#000000;" text-anchor="end" transform="translate(0,0)" y="278" opacity="1">0</text><text x="37" style="color:#000000;cursor:default;font-size:11px;fill:#000000;" text-anchor="end" transform="translate(0,0)" y="237" opacity="1">250</text><text x="37" style="color:#000000;cursor:default;font-size:11px;fill:#000000;" text-anchor="end" transform="translate(0,0)" y="195" opacity="1">500</text><text x="37" style="color:#000000;cursor:default;font-size:11px;fill:#000000;" text-anchor="end" transform="translate(0,0)" y="154" opacity="1">750</text><text x="37" style="color:#000000;cursor:default;font-size:11px;fill:#000000;" text-anchor="end" transform="translate(0,0)" y="113" opacity="1"><tspan>1 000</tspan></text></g><text x="10" class="highcharts-credits" text-anchor="start" data-z-index="8" style="cursor:default;color:#000000;font-size:10px;fill:#000000;" y="403"><tspan>Quelle: Statistisches Amt Basel-Stadt, Bevölkerungsstatistik.</tspan><tspan x="10" dy="13">Zuletzt geändert: 22.8.2024</tspan></text><g class="highcharts-control-points" data-z-index="99" clip-path="url(#highcharts-bcw0mfj-87-)"></g></svg>