<?xml version="1.0" standalone="no"?><!DOCTYPE svg PUBLIC "-//W3C//DTD SVG 1.1//EN" "http://www.w3.org/Graphics/SVG/1.1/DTD/svg11.dtd"><svg xmlns:xlink="http://www.w3.org/1999/xlink" version="1.1" class="highcharts-root" style="font-family:Arial;font-size:12px;" xmlns="http://www.w3.org/2000/svg" viewBox="0 0 485 415"><desc>Created with Highstock 6.1.1</desc><defs><clipPath id="highcharts-r85ek5x-6"><rect x="0" y="0" width="278" height="318" fill="none"></rect></clipPath></defs><rect fill="#fbfbfb" class="highcharts-background" x="0" y="0" width="485" height="428" rx="0" ry="0"></rect><rect fill="none" class="highcharts-plot-background" x="10" y="55" width="278" height="318"></rect><g class="highcharts-pane-group" data-z-index="0"></g><rect fill="none" class="highcharts-plot-border" data-z-index="1" x="10" y="55" width="278" height="318"></rect><g class="highcharts-series-group" data-z-index="3"><g data-z-index="0.1" class="highcharts-series highcharts-series-0 highcharts-pie-series " transform="translate(10,55) scale(1 1)"><path fill="#B00000" d="M 138.97372615672333 30.00000267563894 A 129 129 0 0 1 251.959861901631 221.29823110782883 L 139 159 A 0 0 0 0 0 139 159 Z" transform="translate(0,0)" stroke="#ffffff" stroke-width="2" stroke-linejoin="round" class="highcharts-point highcharts-color-0"></path><path fill="#FABD24" d="M 251.89750720098 221.41115980179086 A 129 129 0 0 1 161.6881002862 285.9891731818242 L 139 159 A 0 0 0 0 0 139 159 Z" transform="translate(0,0)" stroke="#ffffff" stroke-width="2" stroke-linejoin="round" class="highcharts-point highcharts-color-1"></path><path fill="#68AB2B" d="M 161.56109979013385 286.01179778374774 A 129 129 0 0 1 80.55424547238587 274.0004077283984 L 139 159 A 0 0 0 0 0 139 159 Z" transform="translate(0,0)" stroke="#ffffff" stroke-width="2" stroke-linejoin="round" class="highcharts-point highcharts-color-2"></path><path fill="#C4AB91" d="M 80.43927430669905 273.9419044834127 A 129 129 0 0 1 37.774366702423265 238.96481203319695 L 139 159 A 0 0 0 0 0 139 159 Z" transform="translate(0,0)" stroke="#ffffff" stroke-width="2" stroke-linejoin="round" class="highcharts-point highcharts-color-3"></path><path fill="#246370" d="M 37.694452516529964 238.86354643436766 A 129 129 0 0 1 19.962883581929006 208.71081285666745 L 139 159 A 0 0 0 0 0 139 159 Z" transform="translate(0,0)" stroke="#ffffff" stroke-width="2" stroke-linejoin="round" class="highcharts-point highcharts-color-4"></path><path fill="#008AC3" d="M 19.91323229591073 208.59175090468455 A 129 129 0 0 1 12.097873143379033 182.1700280376628 L 139 159 A 0 0 0 0 0 139 159 Z" transform="translate(0,0)" stroke="#ffffff" stroke-width="2" stroke-linejoin="round" class="highcharts-point highcharts-color-5"></path><path fill="#FFDA80" d="M 12.07476657026119 182.04311434694347 A 129 129 0 0 1 10.032921205395581 161.91420438306852 L 139 159 A 0 0 0 0 0 139 159 Z" transform="translate(0,0)" stroke="#ffffff" stroke-width="2" stroke-linejoin="round" class="highcharts-point highcharts-color-6"></path><path fill="#BAA85A" d="M 10.030071485032238 161.78523586866638 A 129 129 0 0 1 10.843322679461295 144.27362712140825 L 139 159 A 0 0 0 0 0 139 159 Z" transform="translate(0,0)" stroke="#ffffff" stroke-width="2" stroke-linejoin="round" class="highcharts-point highcharts-color-7"></path><path fill="#B375AB" d="M 10.858113128218832 144.14547782863298 A 129 129 0 0 1 13.263294343836705 130.1680584986832 L 139 159 A 0 0 0 0 0 139 159 Z" transform="translate(0,0)" stroke="#ffffff" stroke-width="2" stroke-linejoin="round" class="highcharts-point highcharts-color-8"></path><path fill="#FF8028" d="M 13.292189148880297 130.04233622995272 A 129 129 0 0 1 16.56517097129462 118.37103692300674 L 139 159 A 0 0 0 0 0 139 159 Z" transform="translate(0,0)" stroke="#ffffff" stroke-width="2" stroke-linejoin="round" class="highcharts-point highcharts-color-9"></path><path fill="#C8C8C8" d="M 16.605861145009527 118.24862242886371 A 129 129 0 0 1 138.82082158798877 30.000124437669825 L 139 159 A 0 0 0 0 0 139 159 Z" transform="translate(0,0)" stroke="#ffffff" stroke-width="2" stroke-linejoin="round" class="highcharts-point highcharts-color-10"></path></g><g data-z-index="0.1" class="highcharts-markers highcharts-series-0 highcharts-pie-series " transform="translate(10,55) scale(1 1)"></g></g><text x="10" text-anchor="start" class="highcharts-title" data-z-index="4" style="color:#000000;font-size:14px;font-weight:bold;fill:#000000;" y="21"><tspan>Marktanteile am Übernachtungsvolumen 2018</tspan></text><text x="10" text-anchor="start" class="highcharts-subtitle" data-z-index="4" style="color:#000000;font-size:12px;font-weight:normal;font-family:Arial;fill:#000000;" y="40"><tspan>Basel-Stadt</tspan></text><g class="highcharts-legend" data-z-index="7" transform="translate(300,82)"><rect fill="none" class="highcharts-legend-box" rx="0" ry="0" x="0" y="0" width="174" height="220" visibility="visible"></rect><g data-z-index="1"><g><g class="highcharts-legend-item highcharts-pie-series highcharts-color-0" data-z-index="1" transform="translate(8,3)"><text x="21" style="color:#333333;font-size:12px;font-weight:normal;cursor:pointer;fill:#333333;" text-anchor="start" data-z-index="2" y="15"><tspan>Schweiz</tspan></text><rect x="2" y="4" width="12" height="12" fill="#B00000" class="highcharts-point" data-z-index="3"></rect></g><g class="highcharts-legend-item highcharts-pie-series highcharts-color-1" data-z-index="1" transform="translate(8,22)"><text x="21" y="15" style="color:#333333;font-size:12px;font-weight:normal;cursor:pointer;fill:#333333;" text-anchor="start" data-z-index="2"><tspan>Deutschland</tspan></text><rect x="2" y="4" width="12" height="12" fill="#FABD24" class="highcharts-point" data-z-index="3"></rect></g><g class="highcharts-legend-item highcharts-pie-series highcharts-color-2" data-z-index="1" transform="translate(8,41)"><text x="21" y="15" style="color:#333333;font-size:12px;font-weight:normal;cursor:pointer;fill:#333333;" text-anchor="start" data-z-index="2"><tspan>Vereinigte Staaten</tspan></text><rect x="2" y="4" width="12" height="12" fill="#68AB2B" class="highcharts-point" data-z-index="3"></rect></g><g class="highcharts-legend-item highcharts-pie-series highcharts-color-3" data-z-index="1" transform="translate(8,60)"><text x="21" y="15" style="color:#333333;font-size:12px;font-weight:normal;cursor:pointer;fill:#333333;" text-anchor="start" data-z-index="2"><tspan>Vereinigtes Königreich</tspan></text><rect x="2" y="4" width="12" height="12" fill="#C4AB91" class="highcharts-point" data-z-index="3"></rect></g><g class="highcharts-legend-item highcharts-pie-series highcharts-color-4" data-z-index="1" transform="translate(8,79)"><text x="21" y="15" style="color:#333333;font-size:12px;font-weight:normal;cursor:pointer;fill:#333333;" text-anchor="start" data-z-index="2"><tspan>Frankreich</tspan></text><rect x="2" y="4" width="12" height="12" fill="#246370" class="highcharts-point" data-z-index="3"></rect></g><g class="highcharts-legend-item highcharts-pie-series highcharts-color-5" data-z-index="1" transform="translate(8,98)"><text x="21" y="15" style="color:#333333;font-size:12px;font-weight:normal;cursor:pointer;fill:#333333;" text-anchor="start" data-z-index="2"><tspan>Italien</tspan></text><rect x="2" y="4" width="12" height="12" fill="#008AC3" class="highcharts-point" data-z-index="3"></rect></g><g class="highcharts-legend-item highcharts-pie-series highcharts-color-6" data-z-index="1" transform="translate(8,117)"><text x="21" y="15" style="color:#333333;font-size:12px;font-weight:normal;cursor:pointer;fill:#333333;" text-anchor="start" data-z-index="2"><tspan>Spanien</tspan></text><rect x="2" y="4" width="12" height="12" fill="#FFDA80" class="highcharts-point" data-z-index="3"></rect></g><g class="highcharts-legend-item highcharts-pie-series highcharts-color-7" data-z-index="1" transform="translate(8,136)"><text x="21" y="15" style="color:#333333;font-size:12px;font-weight:normal;cursor:pointer;fill:#333333;" text-anchor="start" data-z-index="2"><tspan>Niederlande</tspan></text><rect x="2" y="4" width="12" height="12" fill="#BAA85A" class="highcharts-point" data-z-index="3"></rect></g><g class="highcharts-legend-item highcharts-pie-series highcharts-color-8" data-z-index="1" transform="translate(8,155)"><text x="21" y="15" style="color:#333333;font-size:12px;font-weight:normal;cursor:pointer;fill:#333333;" text-anchor="start" data-z-index="2"><tspan>Indien</tspan></text><rect x="2" y="4" width="12" height="12" fill="#B375AB" class="highcharts-point" data-z-index="3"></rect></g><g class="highcharts-legend-item highcharts-pie-series highcharts-color-9" data-z-index="1" transform="translate(8,174)"><text x="21" y="15" style="color:#333333;font-size:12px;font-weight:normal;cursor:pointer;fill:#333333;" text-anchor="start" data-z-index="2"><tspan>China, Hongkong, Taiwan</tspan></text><rect x="2" y="4" width="12" height="12" fill="#FF8028" class="highcharts-point" data-z-index="3"></rect></g><g class="highcharts-legend-item highcharts-pie-series highcharts-color-10" data-z-index="1" transform="translate(8,193)"><text x="21" y="15" style="color:#333333;font-size:12px;font-weight:normal;cursor:pointer;fill:#333333;" text-anchor="start" data-z-index="2"><tspan>Übrige Länder</tspan></text><rect x="2" y="4" width="12" height="12" fill="#C8C8C8" class="highcharts-point" data-z-index="3"></rect></g></g></g></g><text x="10" class="highcharts-credits" text-anchor="start" data-z-index="8" style="cursor:default;color:#000000;font-size:10px;fill:#000000;" y="403"><tspan>Quelle: Statistisches Amt Basel-Stadt, Tourismusstatistik.</tspan><tspan x="10" dy="13">Zuletzt geändert: 2019-2-21</tspan></text></svg>