<?xml version="1.0" standalone="no"?><!DOCTYPE svg PUBLIC "-//W3C//DTD SVG 1.1//EN" "http://www.w3.org/Graphics/SVG/1.1/DTD/svg11.dtd"><svg xmlns:xlink="http://www.w3.org/1999/xlink" version="1.1" class="highcharts-root" style="font-family:Arial;font-size:12px;" xmlns="http://www.w3.org/2000/svg" viewBox="0 0 485 415"><desc>Created with Highcharts 8.2.0</desc><defs><clipPath id="highcharts-ytm73h5-13-"><rect x="0" y="0" width="465" height="317" fill="none"></rect></clipPath><clipPath id="highcharts-ytm73h5-15-"><rect x="10" y="56" width="465" height="317" fill="none"></rect></clipPath></defs><rect fill="#fbfbfb" class="highcharts-background" x="0" y="0" width="485" height="428" rx="0" ry="0"></rect><rect fill="none" class="highcharts-plot-background" x="10" y="56" width="465" height="317"></rect><g class="highcharts-pane-group" data-z-index="0"></g><rect fill="none" class="highcharts-plot-border" data-z-index="1" x="10" y="56" width="465" height="317"></rect><g class="highcharts-series-group" data-z-index="3"><g class="highcharts-series highcharts-series-0 highcharts-pie-series" data-z-index="0.1" opacity="1" transform="translate(10,56) scale(1 1)"><path fill="#FFDA80" d="M 232.4745408495381 33.5000025926734 A 125 125 0 0 1 303.88247927698905 55.88644508511446 L 261.0529917107956 117.4545780340458 A 50 50 0 0 0 232.48981633981523 108.50000103706935 Z" transform="translate(0,0)" opacity="1" stroke-linejoin="round" class="highcharts-point highcharts-color-0"></path><path fill="#CD9C00" d="M 303.985057123565 55.957878859267566 A 125 125 0 0 1 353.9764296390806 129.03006545406836 L 281.0905718556322 146.71202618162735 A 50 50 0 0 0 261.094022849426 117.48315154370702 Z" transform="translate(0,0)" opacity="1" stroke-linejoin="round" class="highcharts-point highcharts-color-1"></path><path fill="#45381D" d="M 354.0058388305051 129.15155659842742 A 125 125 0 1 1 232.32637750774106 33.50012057913743 L 232.4305510030964 108.50004823165497 A 50 50 0 1 0 281.10233553220206 146.76062263937095 Z" transform="translate(0,0)" opacity="1" stroke-linejoin="round" class="highcharts-point highcharts-color-2"></path></g><g class="highcharts-markers highcharts-series-0 highcharts-pie-series" data-z-index="0.1" opacity="1" transform="translate(10,56) scale(1 1)"></g></g><text x="10" text-anchor="start" class="highcharts-title" data-z-index="4" style="color:#000000;font-size:14px;font-weight:bold;fill:#000000;" y="21"><tspan>Leerwohnungen nach Baut채tigkeit</tspan></text><text x="10" text-anchor="start" class="highcharts-subtitle" data-z-index="4" style="color:#000000;font-size:12px;font-weight:normal;font-family:Arial;fill:#000000;" y="40"><tspan>Basel-Landschaft, 2021</tspan></text><text x="10" text-anchor="start" class="highcharts-caption" data-z-index="4" style="color:#666666;fill:#666666;" y="385"></text><g class="highcharts-data-labels highcharts-series-0 highcharts-pie-series" data-z-index="6" opacity="1" transform="translate(10,56) scale(1 1)"><g class="highcharts-label highcharts-data-label highcharts-data-label-color-0" data-z-index="1" transform="translate(284,15)"><text x="5" data-z-index="1" y="17" style="color:black;cursor:true;font-size:12px;font-weight:normal;fill:black;"><tspan x="5" y="17" class="highcharts-text-outline" fill="black" stroke="black" stroke-width="0px" stroke-linejoin="round" style="">neu erstellt</tspan><tspan x="5" y="17">neu erstellt</tspan></text></g><g class="highcharts-label highcharts-data-label highcharts-data-label-color-1" data-z-index="1" transform="translate(358,69)"><text x="5" data-z-index="1" y="17" style="color:black;cursor:true;font-size:12px;font-weight:normal;fill:black;"><tspan x="5" y="17" class="highcharts-text-outline" fill="black" stroke="black" stroke-width="0px" stroke-linejoin="round" style="">renoviert</tspan><tspan x="5" y="17">renoviert</tspan></text></g><g class="highcharts-label highcharts-data-label highcharts-data-label-color-2" data-z-index="1" transform="translate(61,259)"><text x="5" data-z-index="1" y="17" style="color:black;cursor:true;font-size:12px;font-weight:normal;fill:black;"><tspan x="5" y="17" class="highcharts-text-outline" fill="black" stroke="black" stroke-width="0px" stroke-linejoin="round" style="">unver채ndert</tspan><tspan x="5" y="17">unver채ndert</tspan></text></g></g><text x="10" class="highcharts-credits" text-anchor="start" data-z-index="8" style="cursor:default;color:#000000;font-size:10px;fill:#000000;" y="403"><tspan>Quelle: Statistisches Amt Basel-Stadt, Leerstandserhebung.</tspan><tspan x="10" dy="13">Zuletzt ge채ndert: 2021-8-25</tspan></text><g class="highcharts-control-points" data-z-index="99" clip-path="url(#highcharts-ytm73h5-15-)"></g></svg>