<svg version="1.1" class="highcharts-root" style="font-family: Inter, &quot;Helvetica Neue&quot;, Helvetica, Arial, sans-serif; font-size: 1rem;" xmlns="http://www.w3.org/2000/svg" viewBox="0 0 485 415"><desc>Created with Highcharts 12.5.0</desc><defs><filter id="highcharts-drop-shadow-0"><feDropShadow dx="1" dy="1" flood-color="#000000" flood-opacity="0.75" stdDeviation="2.5"></feDropShadow></filter><clipPath id="highcharts-rmznfhc-33-"><rect x="0" y="0" width="214" height="516" fill="none"></rect></clipPath><filter id="highcharts-drop-shadow-0-offsetx--1-offsety--1"><feDropShadow dx="-1" dy="-1" flood-color="#000000" flood-opacity="0.75" stdDeviation="2.5"></feDropShadow></filter></defs><rect fill="#ffffff" class="highcharts-background" filter="none" x="0" y="0" width="600" height="400" rx="0" ry="0"></rect><rect fill="none" class="highcharts-plot-background" x="68" y="116" width="517" height="214" filter="none"></rect><g class="highcharts-pane-group" data-z-index="0"></g><g class="highcharts-grid highcharts-yaxis-grid" data-z-index="1"><path fill="none" stroke="#e6e6e6" stroke-width="1" stroke-dasharray="none" data-z-index="1" class="highcharts-grid-line" d="M 326.5 116 L 326.5 330" opacity="1"></path><path fill="none" stroke="#e6e6e6" stroke-width="1" stroke-dasharray="none" data-z-index="1" class="highcharts-grid-line" d="M 585.5 116 L 585.5 330" opacity="1"></path><path fill="none" stroke="#e6e6e6" stroke-width="1" stroke-dasharray="none" data-z-index="1" class="highcharts-grid-line" d="M 68.5 116 L 68.5 330" opacity="1"></path><path fill="none" stroke="#e6e6e6" stroke-width="1" stroke-dasharray="none" data-z-index="1" class="highcharts-grid-line" d="M 119.5 116 L 119.5 330" opacity="1"></path><path fill="none" stroke="#e6e6e6" stroke-width="1" stroke-dasharray="none" data-z-index="1" class="highcharts-grid-line" d="M 171.5 116 L 171.5 330" opacity="1"></path><path fill="none" stroke="#e6e6e6" stroke-width="1" stroke-dasharray="none" data-z-index="1" class="highcharts-grid-line" d="M 223.5 116 L 223.5 330" opacity="1"></path><path fill="none" stroke="#e6e6e6" stroke-width="1" stroke-dasharray="none" data-z-index="1" class="highcharts-grid-line" d="M 274.5 116 L 274.5 330" opacity="1"></path><path fill="none" stroke="#e6e6e6" stroke-width="1" stroke-dasharray="none" data-z-index="1" class="highcharts-grid-line" d="M 378.5 116 L 378.5 330" opacity="1"></path><path fill="none" stroke="#e6e6e6" stroke-width="1" stroke-dasharray="none" data-z-index="1" class="highcharts-grid-line" d="M 429.5 116 L 429.5 330" opacity="1"></path><path fill="none" stroke="#e6e6e6" stroke-width="1" stroke-dasharray="none" data-z-index="1" class="highcharts-grid-line" d="M 481.5 116 L 481.5 330" opacity="1"></path><path fill="none" stroke="#e6e6e6" stroke-width="1" stroke-dasharray="none" data-z-index="1" class="highcharts-grid-line" d="M 533.5 116 L 533.5 330" opacity="1"></path></g><g class="highcharts-grid highcharts-xaxis-grid" data-z-index="1"><path fill="none" stroke="#e6e6e6" stroke-width="0" stroke-dasharray="none" data-z-index="1" class="highcharts-grid-line" d="M 68 319.5 L 585 319.5" opacity="1"></path><path fill="none" stroke="#e6e6e6" stroke-width="0" stroke-dasharray="none" data-z-index="1" class="highcharts-grid-line" d="M 68 308.5 L 585 308.5" opacity="1"></path><path fill="none" stroke="#e6e6e6" stroke-width="0" stroke-dasharray="none" data-z-index="1" class="highcharts-grid-line" d="M 68 297.5 L 585 297.5" opacity="1"></path><path fill="none" stroke="#e6e6e6" stroke-width="0" stroke-dasharray="none" data-z-index="1" class="highcharts-grid-line" d="M 68 287.5 L 585 287.5" opacity="1"></path><path fill="none" stroke="#e6e6e6" stroke-width="0" stroke-dasharray="none" data-z-index="1" class="highcharts-grid-line" d="M 68 276.5 L 585 276.5" opacity="1"></path><path fill="none" stroke="#e6e6e6" stroke-width="0" stroke-dasharray="none" data-z-index="1" class="highcharts-grid-line" d="M 68 265.5 L 585 265.5" opacity="1"></path><path fill="none" stroke="#e6e6e6" stroke-width="0" stroke-dasharray="none" data-z-index="1" class="highcharts-grid-line" d="M 68 255.5 L 585 255.5" opacity="1"></path><path fill="none" stroke="#e6e6e6" stroke-width="0" stroke-dasharray="none" data-z-index="1" class="highcharts-grid-line" d="M 68 244.5 L 585 244.5" opacity="1"></path><path fill="none" stroke="#e6e6e6" stroke-width="0" stroke-dasharray="none" data-z-index="1" class="highcharts-grid-line" d="M 68 233.5 L 585 233.5" opacity="1"></path><path fill="none" stroke="#e6e6e6" stroke-width="0" stroke-dasharray="none" data-z-index="1" class="highcharts-grid-line" d="M 68 223.5 L 585 223.5" opacity="1"></path><path fill="none" stroke="#e6e6e6" stroke-width="0" stroke-dasharray="none" data-z-index="1" class="highcharts-grid-line" d="M 68 212.5 L 585 212.5" opacity="1"></path><path fill="none" stroke="#e6e6e6" stroke-width="0" stroke-dasharray="none" data-z-index="1" class="highcharts-grid-line" d="M 68 201.5 L 585 201.5" opacity="1"></path><path fill="none" stroke="#e6e6e6" stroke-width="0" stroke-dasharray="none" data-z-index="1" class="highcharts-grid-line" d="M 68 190.5 L 585 190.5" opacity="1"></path><path fill="none" stroke="#e6e6e6" stroke-width="0" stroke-dasharray="none" data-z-index="1" class="highcharts-grid-line" d="M 68 180.5 L 585 180.5" opacity="1"></path><path fill="none" stroke="#e6e6e6" stroke-width="0" stroke-dasharray="none" data-z-index="1" class="highcharts-grid-line" d="M 68 169.5 L 585 169.5" opacity="1"></path><path fill="none" stroke="#e6e6e6" stroke-width="0" stroke-dasharray="none" data-z-index="1" class="highcharts-grid-line" d="M 68 158.5 L 585 158.5" opacity="1"></path><path fill="none" stroke="#e6e6e6" stroke-width="0" stroke-dasharray="none" data-z-index="1" class="highcharts-grid-line" d="M 68 148.5 L 585 148.5" opacity="1"></path><path fill="none" stroke="#e6e6e6" stroke-width="0" stroke-dasharray="none" data-z-index="1" class="highcharts-grid-line" d="M 68 137.5 L 585 137.5" opacity="1"></path><path fill="none" stroke="#e6e6e6" stroke-width="0" stroke-dasharray="none" data-z-index="1" class="highcharts-grid-line" d="M 68 126.5 L 585 126.5" opacity="1"></path><path fill="none" stroke="#e6e6e6" stroke-width="0" stroke-dasharray="none" data-z-index="1" class="highcharts-grid-line" d="M 68 116.5 L 585 116.5" opacity="1"></path><path fill="none" stroke="#e6e6e6" stroke-width="0" stroke-dasharray="none" data-z-index="1" class="highcharts-grid-line" d="M 68 330.5 L 585 330.5" opacity="1"></path></g><rect fill="none" class="highcharts-plot-border" data-z-index="1" stroke="#cccccc" stroke-width="0" x="68" y="116" width="517" height="214"></rect><g class="highcharts-axis highcharts-yaxis" data-z-index="2"><path fill="none" class="highcharts-axis-line" stroke="#333333" stroke-width="0" data-z-index="7" d="M 68 330 L 585 330"></path></g><g class="highcharts-axis highcharts-xaxis" data-z-index="2"><path fill="none" class="highcharts-axis-line" stroke="#333333" stroke-width="1" data-z-index="7" d="M 68.5 116 L 68.5 330"></path></g><g class="highcharts-series-group" data-z-index="3" filter="none"><g class="highcharts-series highcharts-series-0 highcharts-bar-series highcharts-tracker" data-z-index="0.1" opacity="1" transform="translate(68,116) rotate(90 151.5 365.5) scale(-1 1)" clip-path="url(#highcharts-rmznfhc-33-)"><path fill="#7f5f1a" d="M 0 311 L 11 311 A 0 0 0 0 1 11 311 L 11 369 A 3 3 0 0 1 8 372 L 3 372 A 3 3 0 0 1 0 369 L 0 311 A 0 0 0 0 1 0 311 Z" stroke="#ffffff" stroke-width="0" opacity="1" filter="none" class="highcharts-point highcharts-negative"></path><path fill="#7f5f1a" d="M 11 311 L 21 311 A 0 0 0 0 1 21 311 L 21 366 A 3 3 0 0 1 18 369 L 14 369 A 3 3 0 0 1 11 366 L 11 311 A 0 0 0 0 1 11 311 Z" stroke="#ffffff" stroke-width="0" opacity="1" filter="none" class="highcharts-point highcharts-negative"></path><path fill="#7f5f1a" d="M 21 317 L 32 317 A 0 0 0 0 1 32 317 L 32 358 A 3 3 0 0 1 29 361 L 24 361 A 3 3 0 0 1 21 358 L 21 317 A 0 0 0 0 1 21 317 Z" stroke="#ffffff" stroke-width="0" opacity="1" filter="none" class="highcharts-point highcharts-negative"></path><path fill="#7f5f1a" d="M 32 322 L 43 322 A 0 0 0 0 1 43 322 L 43 346 A 3 3 0 0 1 40 349 L 35 349 A 3 3 0 0 1 32 346 L 32 322 A 0 0 0 0 1 32 322 Z" stroke="#ffffff" stroke-width="0" opacity="1" filter="none" class="highcharts-point highcharts-negative"></path><path fill="#7f5f1a" d="M 43 346 L 54 346 A 0 0 0 0 1 54 346 L 54 386 A 3 3 0 0 1 51 389 L 46 389 A 3 3 0 0 1 43 386 L 43 346 A 0 0 0 0 1 43 346 Z" stroke="#ffffff" stroke-width="0" opacity="1" filter="none" class="highcharts-point highcharts-negative"></path><path fill="#7f5f1a" d="M 54 388 L 64 388 A 0 0 0 0 1 64 388 L 64 466 A 3 3 0 0 1 61 469 L 57 469 A 3 3 0 0 1 54 466 L 54 388 A 0 0 0 0 1 54 388 Z" stroke="#ffffff" stroke-width="0" opacity="1" filter="none" class="highcharts-point highcharts-negative"></path><path fill="#7f5f1a" d="M 64 396 L 75 396 A 0 0 0 0 1 75 396 L 75 497 A 3 3 0 0 1 72 500 L 67 500 A 3 3 0 0 1 64 497 L 64 396 A 0 0 0 0 1 64 396 Z" stroke="#ffffff" stroke-width="0" opacity="1" filter="none" class="highcharts-point highcharts-negative"></path><path fill="#7f5f1a" d="M 75 384 L 86 384 A 0 0 0 0 1 86 384 L 86 493 A 3 3 0 0 1 83 496 L 78 496 A 3 3 0 0 1 75 493 L 75 384 A 0 0 0 0 1 75 384 Z" stroke="#ffffff" stroke-width="0" opacity="1" filter="none" class="highcharts-point highcharts-negative"></path><path fill="#7f5f1a" d="M 86 362 L 96 362 A 0 0 0 0 1 96 362 L 96 460 A 3 3 0 0 1 93 463 L 89 463 A 3 3 0 0 1 86 460 L 86 362 A 0 0 0 0 1 86 362 Z" stroke="#ffffff" stroke-width="0" opacity="1" filter="none" class="highcharts-point highcharts-negative"></path><path fill="#7f5f1a" d="M 96 349 L 107 349 A 0 0 0 0 1 107 349 L 107 403 A 3 3 0 0 1 104 406 L 99 406 A 3 3 0 0 1 96 403 L 96 349 A 0 0 0 0 1 96 349 Z" stroke="#ffffff" stroke-width="0" opacity="1" filter="none" class="highcharts-point highcharts-negative"></path><path fill="#7f5f1a" d="M 107 349 L 118 349 A 0 0 0 0 1 118 349 L 118 383 A 3 3 0 0 1 115 386 L 110 386 A 3 3 0 0 1 107 383 L 107 349 A 0 0 0 0 1 107 349 Z" stroke="#ffffff" stroke-width="0" opacity="1" filter="none" class="highcharts-point highcharts-negative"></path><path fill="#7f5f1a" d="M 118 338 L 128 338 A 0 0 0 0 1 128 338 L 128 361 A 3 3 0 0 1 125 364 L 121 364 A 3 3 0 0 1 118 361 L 118 338 A 0 0 0 0 1 118 338 Z" stroke="#ffffff" stroke-width="0" opacity="1" filter="none" class="highcharts-point highcharts-negative"></path><path fill="#7f5f1a" d="M 128 316 L 139 316 A 0 0 0 0 1 139 316 L 139 333 A 3 3 0 0 1 136 336 L 131 336 A 3 3 0 0 1 128 333 L 128 316 A 0 0 0 0 1 128 316 Z" stroke="#ffffff" stroke-width="0" opacity="1" filter="none" class="highcharts-point highcharts-negative"></path><path fill="#7f5f1a" d="M 139 305 L 150 305 A 0 0 0 0 1 150 305 L 150 314 A 3 3 0 0 1 147 317 L 142 317 A 3 3 0 0 1 139 314 L 139 305 A 0 0 0 0 1 139 305 Z" stroke="#ffffff" stroke-width="0" opacity="1" filter="none" class="highcharts-point highcharts-negative"></path><path fill="#7f5f1a" d="M 150 296 L 161 296 A 0 0 0 0 1 161 296 L 161 302 A 3 3 0 0 1 158 305 L 153 305 A 3 3 0 0 1 150 302 L 150 296 A 0 0 0 0 1 150 296 Z" stroke="#ffffff" stroke-width="0" opacity="1" filter="none" class="highcharts-point highcharts-negative"></path><path fill="#7f5f1a" d="M 161 277 L 171 277 A 0 0 0 0 1 171 277 L 171 282 A 3 3 0 0 1 168 285 L 164 285 A 3 3 0 0 1 161 282 L 161 277 A 0 0 0 0 1 161 277 Z" stroke="#ffffff" stroke-width="0" opacity="1" filter="none" class="highcharts-point highcharts-negative"></path><path fill="#7f5f1a" d="M 171 272 L 182 272 A 0 0 0 0 1 182 272 L 182 274 A 3 3 0 0 1 179 277 L 174 277 A 3 3 0 0 1 171 274 L 171 272 A 0 0 0 0 1 171 272 Z" stroke="#ffffff" stroke-width="0" opacity="1" filter="none" class="highcharts-point highcharts-negative"></path><path fill="#7f5f1a" d="M 182 264 L 193 264 A 0 0 0 0 1 193 264 L 193 267 A 3 3 0 0 1 190 270 L 185 270 A 3 3 0 0 1 182 267 L 182 264 A 0 0 0 0 1 182 264 Z" stroke="#ffffff" stroke-width="0" opacity="1" filter="none" class="highcharts-point highcharts-negative"></path><path fill="#7f5f1a" d="M 202.2360679774998 260 L 202.2360679774998 260 A 0 0 0 0 1 202.2360679774998 260 L 202.2360679774998 260 A 3 3 0 0 1 200 261 L 196 261 A 3 3 0 0 1 193.7639320225002 260 L 193.7639320225002 260 A 0 0 0 0 1 202.2360679774998 260 Z" stroke="#ffffff" stroke-width="0" opacity="1" filter="none" class="highcharts-point highcharts-negative"></path><path fill="#7f5f1a" d="M 213.2360679774998 259 L 213.2360679774998 259 A 0 0 0 0 1 213.2360679774998 259 L 213.2360679774998 259 A 3 3 0 0 1 211 260 L 206 260 A 3 3 0 0 1 203.7639320225002 259 L 203.7639320225002 259 A 0 0 0 0 1 213.2360679774998 259 Z" stroke="#ffffff" stroke-width="0" opacity="1" filter="none" class="highcharts-point highcharts-negative"></path></g><g class="highcharts-markers highcharts-series-0 highcharts-bar-series" data-z-index="0.1" opacity="1" transform="translate(68,116) scale(1 1)" clip-path="none"></g><g class="highcharts-series highcharts-series-1 highcharts-bar-series highcharts-tracker" data-z-index="0.1" opacity="1" transform="translate(68,116) rotate(90 151.5 365.5) scale(-1 1)" clip-path="url(#highcharts-rmznfhc-33-)"><path fill="#cd9c00" d="M 0 258 L 11 258 A 0 0 0 0 1 11 258 L 11 311 A 0 0 0 0 1 11 311 L 0 311 A 0 0 0 0 1 0 311 L 0 258 A 0 0 0 0 1 0 258 Z" stroke="#ffffff" stroke-width="0" opacity="1" filter="none" class="highcharts-point highcharts-negative"></path><path fill="#cd9c00" d="M 11 258 L 21 258 A 0 0 0 0 1 21 258 L 21 311 A 0 0 0 0 1 21 311 L 11 311 A 0 0 0 0 1 11 311 L 11 258 A 0 0 0 0 1 11 258 Z" stroke="#ffffff" stroke-width="0" opacity="1" filter="none" class="highcharts-point highcharts-negative"></path><path fill="#cd9c00" d="M 21 258 L 32 258 A 0 0 0 0 1 32 258 L 32 317 A 0 0 0 0 1 32 317 L 21 317 A 0 0 0 0 1 21 317 L 21 258 A 0 0 0 0 1 21 258 Z" stroke="#ffffff" stroke-width="0" opacity="1" filter="none" class="highcharts-point highcharts-negative"></path><path fill="#cd9c00" d="M 32 258 L 43 258 A 0 0 0 0 1 43 258 L 43 322 A 0 0 0 0 1 43 322 L 32 322 A 0 0 0 0 1 32 322 L 32 258 A 0 0 0 0 1 32 258 Z" stroke="#ffffff" stroke-width="0" opacity="1" filter="none" class="highcharts-point highcharts-negative"></path><path fill="#cd9c00" d="M 43 258 L 54 258 A 0 0 0 0 1 54 258 L 54 346 A 0 0 0 0 1 54 346 L 43 346 A 0 0 0 0 1 43 346 L 43 258 A 0 0 0 0 1 43 258 Z" stroke="#ffffff" stroke-width="0" opacity="1" filter="none" class="highcharts-point highcharts-negative"></path><path fill="#cd9c00" d="M 54 258 L 64 258 A 0 0 0 0 1 64 258 L 64 388 A 0 0 0 0 1 64 388 L 54 388 A 0 0 0 0 1 54 388 L 54 258 A 0 0 0 0 1 54 258 Z" stroke="#ffffff" stroke-width="0" opacity="1" filter="none" class="highcharts-point highcharts-negative"></path><path fill="#cd9c00" d="M 64 258 L 75 258 A 0 0 0 0 1 75 258 L 75 396 A 0 0 0 0 1 75 396 L 64 396 A 0 0 0 0 1 64 396 L 64 258 A 0 0 0 0 1 64 258 Z" stroke="#ffffff" stroke-width="0" opacity="1" filter="none" class="highcharts-point highcharts-negative"></path><path fill="#cd9c00" d="M 75 258 L 86 258 A 0 0 0 0 1 86 258 L 86 384 A 0 0 0 0 1 86 384 L 75 384 A 0 0 0 0 1 75 384 L 75 258 A 0 0 0 0 1 75 258 Z" stroke="#ffffff" stroke-width="0" opacity="1" filter="none" class="highcharts-point highcharts-negative"></path><path fill="#cd9c00" d="M 86 258 L 96 258 A 0 0 0 0 1 96 258 L 96 362 A 0 0 0 0 1 96 362 L 86 362 A 0 0 0 0 1 86 362 L 86 258 A 0 0 0 0 1 86 258 Z" stroke="#ffffff" stroke-width="0" opacity="1" filter="none" class="highcharts-point highcharts-negative"></path><path fill="#cd9c00" d="M 96 258 L 107 258 A 0 0 0 0 1 107 258 L 107 349 A 0 0 0 0 1 107 349 L 96 349 A 0 0 0 0 1 96 349 L 96 258 A 0 0 0 0 1 96 258 Z" stroke="#ffffff" stroke-width="0" opacity="1" filter="none" class="highcharts-point highcharts-negative"></path><path fill="#cd9c00" d="M 107 258 L 118 258 A 0 0 0 0 1 118 258 L 118 349 A 0 0 0 0 1 118 349 L 107 349 A 0 0 0 0 1 107 349 L 107 258 A 0 0 0 0 1 107 258 Z" stroke="#ffffff" stroke-width="0" opacity="1" filter="none" class="highcharts-point highcharts-negative"></path><path fill="#cd9c00" d="M 118 258 L 128 258 A 0 0 0 0 1 128 258 L 128 338 A 0 0 0 0 1 128 338 L 118 338 A 0 0 0 0 1 118 338 L 118 258 A 0 0 0 0 1 118 258 Z" stroke="#ffffff" stroke-width="0" opacity="1" filter="none" class="highcharts-point highcharts-negative"></path><path fill="#cd9c00" d="M 128 258 L 139 258 A 0 0 0 0 1 139 258 L 139 316 A 0 0 0 0 1 139 316 L 128 316 A 0 0 0 0 1 128 316 L 128 258 A 0 0 0 0 1 128 258 Z" stroke="#ffffff" stroke-width="0" opacity="1" filter="none" class="highcharts-point highcharts-negative"></path><path fill="#cd9c00" d="M 139 258 L 150 258 A 0 0 0 0 1 150 258 L 150 305 A 0 0 0 0 1 150 305 L 139 305 A 0 0 0 0 1 139 305 L 139 258 A 0 0 0 0 1 139 258 Z" stroke="#ffffff" stroke-width="0" opacity="1" filter="none" class="highcharts-point highcharts-negative"></path><path fill="#cd9c00" d="M 150 258 L 161 258 A 0 0 0 0 1 161 258 L 161 296 A 0 0 0 0 1 161 296 L 150 296 A 0 0 0 0 1 150 296 L 150 258 A 0 0 0 0 1 150 258 Z" stroke="#ffffff" stroke-width="0" opacity="1" filter="none" class="highcharts-point highcharts-negative"></path><path fill="#cd9c00" d="M 161 258 L 171 258 A 0 0 0 0 1 171 258 L 171 277 A 0 0 0 0 1 171 277 L 161 277 A 0 0 0 0 1 161 277 L 161 258 A 0 0 0 0 1 161 258 Z" stroke="#ffffff" stroke-width="0" opacity="1" filter="none" class="highcharts-point highcharts-negative"></path><path fill="#cd9c00" d="M 171 258 L 182 258 A 0 0 0 0 1 182 258 L 182 272 A 0 0 0 0 1 182 272 L 171 272 A 0 0 0 0 1 171 272 L 171 258 A 0 0 0 0 1 171 258 Z" stroke="#ffffff" stroke-width="0" opacity="1" filter="none" class="highcharts-point highcharts-negative"></path><path fill="#cd9c00" d="M 182 258 L 193 258 A 0 0 0 0 1 193 258 L 193 264 A 0 0 0 0 1 193 264 L 182 264 A 0 0 0 0 1 182 264 L 182 258 A 0 0 0 0 1 182 258 Z" stroke="#ffffff" stroke-width="0" opacity="1" filter="none" class="highcharts-point highcharts-negative"></path><path fill="#cd9c00" d="M 193 258 L 203 258 A 0 0 0 0 1 203 258 L 203 258 A 3 3 0 0 1 202.2360679774998 260 L 193.7639320225002 260 A 3 3 0 0 1 193 258 L 193 258 A 0 0 0 0 1 193 258 Z" stroke="#ffffff" stroke-width="0" opacity="1" filter="none" class="highcharts-point highcharts-negative"></path><path fill="#cd9c00" d="M 213.82842712474618 258 L 213.82842712474618 258 A 0 0 0 0 1 213.82842712474618 258 L 213.82842712474618 258 A 3 3 0 0 1 213.2360679774998 259 L 203.7639320225002 259 A 3 3 0 0 1 203.17157287525382 258 L 203.17157287525382 258 A 0 0 0 0 1 213.82842712474618 258 Z" stroke="#ffffff" stroke-width="0" opacity="1" filter="none" class="highcharts-point highcharts-negative"></path></g><g class="highcharts-markers highcharts-series-1 highcharts-bar-series" data-z-index="0.1" opacity="1" transform="translate(68,116) scale(1 1)" clip-path="none"></g><g class="highcharts-series highcharts-series-2 highcharts-bar-series highcharts-tracker" data-z-index="0.1" opacity="1" transform="translate(68,116) rotate(90 151.5 365.5) scale(-1 1)" clip-path="url(#highcharts-rmznfhc-33-)"><path fill="#923f8d" d="M 3 147 L 8 147 A 3 3 0 0 1 11 150 L 11 212 A 0 0 0 0 1 11 212 L 0 212 A 0 0 0 0 1 0 212 L 0 150 A 3 3 0 0 1 3 147 Z" stroke="#ffffff" stroke-width="0" opacity="1" filter="none" class="highcharts-point"></path><path fill="#923f8d" d="M 14 153 L 18 153 A 3 3 0 0 1 21 156 L 21 216 A 0 0 0 0 1 21 216 L 11 216 A 0 0 0 0 1 11 216 L 11 156 A 3 3 0 0 1 14 153 Z" stroke="#ffffff" stroke-width="0" opacity="1" filter="none" class="highcharts-point"></path><path fill="#923f8d" d="M 24 173 L 29 173 A 3 3 0 0 1 32 176 L 32 212 A 0 0 0 0 1 32 212 L 21 212 A 0 0 0 0 1 21 212 L 21 176 A 3 3 0 0 1 24 173 Z" stroke="#ffffff" stroke-width="0" opacity="1" filter="none" class="highcharts-point"></path><path fill="#923f8d" d="M 35 173 L 40 173 A 3 3 0 0 1 43 176 L 43 199 A 0 0 0 0 1 43 199 L 32 199 A 0 0 0 0 1 32 199 L 32 176 A 3 3 0 0 1 35 173 Z" stroke="#ffffff" stroke-width="0" opacity="1" filter="none" class="highcharts-point"></path><path fill="#923f8d" d="M 46 114 L 51 114 A 3 3 0 0 1 54 117 L 54 155 A 0 0 0 0 1 54 155 L 43 155 A 0 0 0 0 1 43 155 L 43 117 A 3 3 0 0 1 46 114 Z" stroke="#ffffff" stroke-width="0" opacity="1" filter="none" class="highcharts-point"></path><path fill="#923f8d" d="M 57 41 L 61 41 A 3 3 0 0 1 64 44 L 64 113 A 0 0 0 0 1 64 113 L 54 113 A 0 0 0 0 1 54 113 L 54 44 A 3 3 0 0 1 57 41 Z" stroke="#ffffff" stroke-width="0" opacity="1" filter="none" class="highcharts-point"></path><path fill="#923f8d" d="M 67 24 L 72 24 A 3 3 0 0 1 75 27 L 75 142 A 0 0 0 0 1 75 142 L 64 142 A 0 0 0 0 1 64 142 L 64 27 A 3 3 0 0 1 67 24 Z" stroke="#ffffff" stroke-width="0" opacity="1" filter="none" class="highcharts-point"></path><path fill="#923f8d" d="M 78 42 L 83 42 A 3 3 0 0 1 86 45 L 86 153 A 0 0 0 0 1 86 153 L 75 153 A 0 0 0 0 1 75 153 L 75 45 A 3 3 0 0 1 78 42 Z" stroke="#ffffff" stroke-width="0" opacity="1" filter="none" class="highcharts-point"></path><path fill="#923f8d" d="M 89 77 L 93 77 A 3 3 0 0 1 96 80 L 96 161 A 0 0 0 0 1 96 161 L 86 161 A 0 0 0 0 1 86 161 L 86 80 A 3 3 0 0 1 89 77 Z" stroke="#ffffff" stroke-width="0" opacity="1" filter="none" class="highcharts-point"></path><path fill="#923f8d" d="M 99 141 L 104 141 A 3 3 0 0 1 107 144 L 107 182 A 0 0 0 0 1 107 182 L 96 182 A 0 0 0 0 1 96 182 L 96 144 A 3 3 0 0 1 99 141 Z" stroke="#ffffff" stroke-width="0" opacity="1" filter="none" class="highcharts-point"></path><path fill="#923f8d" d="M 110 157 L 115 157 A 3 3 0 0 1 118 160 L 118 179 A 0 0 0 0 1 118 179 L 107 179 A 0 0 0 0 1 107 179 L 107 160 A 3 3 0 0 1 110 157 Z" stroke="#ffffff" stroke-width="0" opacity="1" filter="none" class="highcharts-point"></path><path fill="#923f8d" d="M 121 170 L 125 170 A 3 3 0 0 1 128 173 L 128 197 A 0 0 0 0 1 128 197 L 118 197 A 0 0 0 0 1 118 197 L 118 173 A 3 3 0 0 1 121 170 Z" stroke="#ffffff" stroke-width="0" opacity="1" filter="none" class="highcharts-point"></path><path fill="#923f8d" d="M 131 180 L 136 180 A 3 3 0 0 1 139 183 L 139 195 A 0 0 0 0 1 139 195 L 128 195 A 0 0 0 0 1 128 195 L 128 183 A 3 3 0 0 1 131 180 Z" stroke="#ffffff" stroke-width="0" opacity="1" filter="none" class="highcharts-point"></path><path fill="#923f8d" d="M 142 199 L 147 199 A 3 3 0 0 1 150 202 L 150 215 A 0 0 0 0 1 150 215 L 139 215 A 0 0 0 0 1 139 215 L 139 202 A 3 3 0 0 1 142 199 Z" stroke="#ffffff" stroke-width="0" opacity="1" filter="none" class="highcharts-point"></path><path fill="#923f8d" d="M 153 215 L 158 215 A 3 3 0 0 1 161 218 L 161 226 A 0 0 0 0 1 161 226 L 150 226 A 0 0 0 0 1 150 226 L 150 218 A 3 3 0 0 1 153 215 Z" stroke="#ffffff" stroke-width="0" opacity="1" filter="none" class="highcharts-point"></path><path fill="#923f8d" d="M 164 224 L 168 224 A 3 3 0 0 1 171 227 L 171 232 A 0 0 0 0 1 171 232 L 161 232 A 0 0 0 0 1 161 232 L 161 227 A 3 3 0 0 1 164 224 Z" stroke="#ffffff" stroke-width="0" opacity="1" filter="none" class="highcharts-point"></path><path fill="#923f8d" d="M 174 233 L 179 233 A 3 3 0 0 1 182 236 L 182 242 A 0 0 0 0 1 182 242 L 171 242 A 0 0 0 0 1 171 242 L 171 236 A 3 3 0 0 1 174 233 Z" stroke="#ffffff" stroke-width="0" opacity="1" filter="none" class="highcharts-point"></path><path fill="#923f8d" d="M 185 234 L 190 234 A 3 3 0 0 1 193 237 L 193 247 A 0 0 0 0 1 193 247 L 182 247 A 0 0 0 0 1 182 247 L 182 237 A 3 3 0 0 1 185 234 Z" stroke="#ffffff" stroke-width="0" opacity="1" filter="none" class="highcharts-point"></path><path fill="#923f8d" d="M 196 245 L 200 245 A 3 3 0 0 1 203 248 L 203 252 A 0 0 0 0 1 203 252 L 193 252 A 0 0 0 0 1 193 252 L 193 248 A 3 3 0 0 1 196 245 Z" stroke="#ffffff" stroke-width="0" opacity="1" filter="none" class="highcharts-point"></path><path fill="#923f8d" d="M 206 254 L 211 254 A 3 3 0 0 1 214 257 L 214 258 A 0 0 0 0 1 214 258 L 203 258 A 0 0 0 0 1 203 258 L 203 257 A 3 3 0 0 1 206 254 Z" stroke="#ffffff" stroke-width="0" opacity="1" filter="none" class="highcharts-point"></path></g><g class="highcharts-markers highcharts-series-2 highcharts-bar-series" data-z-index="0.1" opacity="1" transform="translate(68,116) scale(1 1)" clip-path="none"></g><g class="highcharts-series highcharts-series-3 highcharts-bar-series highcharts-tracker" data-z-index="0.1" opacity="1" transform="translate(68,116) rotate(90 151.5 365.5) scale(-1 1)" clip-path="url(#highcharts-rmznfhc-33-)"><path fill="#b375ab" d="M 0 212 L 11 212 A 0 0 0 0 1 11 212 L 11 258 A 0 0 0 0 1 11 258 L 0 258 A 0 0 0 0 1 0 258 L 0 212 A 0 0 0 0 1 0 212 Z" stroke="#ffffff" stroke-width="0" opacity="1" filter="none" class="highcharts-point"></path><path fill="#b375ab" d="M 11 216 L 21 216 A 0 0 0 0 1 21 216 L 21 258 A 0 0 0 0 1 21 258 L 11 258 A 0 0 0 0 1 11 258 L 11 216 A 0 0 0 0 1 11 216 Z" stroke="#ffffff" stroke-width="0" opacity="1" filter="none" class="highcharts-point"></path><path fill="#b375ab" d="M 21 212 L 32 212 A 0 0 0 0 1 32 212 L 32 258 A 0 0 0 0 1 32 258 L 21 258 A 0 0 0 0 1 21 258 L 21 212 A 0 0 0 0 1 21 212 Z" stroke="#ffffff" stroke-width="0" opacity="1" filter="none" class="highcharts-point"></path><path fill="#b375ab" d="M 32 199 L 43 199 A 0 0 0 0 1 43 199 L 43 258 A 0 0 0 0 1 43 258 L 32 258 A 0 0 0 0 1 32 258 L 32 199 A 0 0 0 0 1 32 199 Z" stroke="#ffffff" stroke-width="0" opacity="1" filter="none" class="highcharts-point"></path><path fill="#b375ab" d="M 43 155 L 54 155 A 0 0 0 0 1 54 155 L 54 258 A 0 0 0 0 1 54 258 L 43 258 A 0 0 0 0 1 43 258 L 43 155 A 0 0 0 0 1 43 155 Z" stroke="#ffffff" stroke-width="0" opacity="1" filter="none" class="highcharts-point"></path><path fill="#b375ab" d="M 54 113 L 64 113 A 0 0 0 0 1 64 113 L 64 258 A 0 0 0 0 1 64 258 L 54 258 A 0 0 0 0 1 54 258 L 54 113 A 0 0 0 0 1 54 113 Z" stroke="#ffffff" stroke-width="0" opacity="1" filter="none" class="highcharts-point"></path><path fill="#b375ab" d="M 64 142 L 75 142 A 0 0 0 0 1 75 142 L 75 258 A 0 0 0 0 1 75 258 L 64 258 A 0 0 0 0 1 64 258 L 64 142 A 0 0 0 0 1 64 142 Z" stroke="#ffffff" stroke-width="0" opacity="1" filter="none" class="highcharts-point"></path><path fill="#b375ab" d="M 75 153 L 86 153 A 0 0 0 0 1 86 153 L 86 258 A 0 0 0 0 1 86 258 L 75 258 A 0 0 0 0 1 75 258 L 75 153 A 0 0 0 0 1 75 153 Z" stroke="#ffffff" stroke-width="0" opacity="1" filter="none" class="highcharts-point"></path><path fill="#b375ab" d="M 86 161 L 96 161 A 0 0 0 0 1 96 161 L 96 258 A 0 0 0 0 1 96 258 L 86 258 A 0 0 0 0 1 86 258 L 86 161 A 0 0 0 0 1 86 161 Z" stroke="#ffffff" stroke-width="0" opacity="1" filter="none" class="highcharts-point"></path><path fill="#b375ab" d="M 96 182 L 107 182 A 0 0 0 0 1 107 182 L 107 258 A 0 0 0 0 1 107 258 L 96 258 A 0 0 0 0 1 96 258 L 96 182 A 0 0 0 0 1 96 182 Z" stroke="#ffffff" stroke-width="0" opacity="1" filter="none" class="highcharts-point"></path><path fill="#b375ab" d="M 107 179 L 118 179 A 0 0 0 0 1 118 179 L 118 258 A 0 0 0 0 1 118 258 L 107 258 A 0 0 0 0 1 107 258 L 107 179 A 0 0 0 0 1 107 179 Z" stroke="#ffffff" stroke-width="0" opacity="1" filter="none" class="highcharts-point"></path><path fill="#b375ab" d="M 118 197 L 128 197 A 0 0 0 0 1 128 197 L 128 258 A 0 0 0 0 1 128 258 L 118 258 A 0 0 0 0 1 118 258 L 118 197 A 0 0 0 0 1 118 197 Z" stroke="#ffffff" stroke-width="0" opacity="1" filter="none" class="highcharts-point"></path><path fill="#b375ab" d="M 128 195 L 139 195 A 0 0 0 0 1 139 195 L 139 258 A 0 0 0 0 1 139 258 L 128 258 A 0 0 0 0 1 128 258 L 128 195 A 0 0 0 0 1 128 195 Z" stroke="#ffffff" stroke-width="0" opacity="1" filter="none" class="highcharts-point"></path><path fill="#b375ab" d="M 139 215 L 150 215 A 0 0 0 0 1 150 215 L 150 258 A 0 0 0 0 1 150 258 L 139 258 A 0 0 0 0 1 139 258 L 139 215 A 0 0 0 0 1 139 215 Z" stroke="#ffffff" stroke-width="0" opacity="1" filter="none" class="highcharts-point"></path><path fill="#b375ab" d="M 150 226 L 161 226 A 0 0 0 0 1 161 226 L 161 258 A 0 0 0 0 1 161 258 L 150 258 A 0 0 0 0 1 150 258 L 150 226 A 0 0 0 0 1 150 226 Z" stroke="#ffffff" stroke-width="0" opacity="1" filter="none" class="highcharts-point"></path><path fill="#b375ab" d="M 161 232 L 171 232 A 0 0 0 0 1 171 232 L 171 258 A 0 0 0 0 1 171 258 L 161 258 A 0 0 0 0 1 161 258 L 161 232 A 0 0 0 0 1 161 232 Z" stroke="#ffffff" stroke-width="0" opacity="1" filter="none" class="highcharts-point"></path><path fill="#b375ab" d="M 171 242 L 182 242 A 0 0 0 0 1 182 242 L 182 258 A 0 0 0 0 1 182 258 L 171 258 A 0 0 0 0 1 171 258 L 171 242 A 0 0 0 0 1 171 242 Z" stroke="#ffffff" stroke-width="0" opacity="1" filter="none" class="highcharts-point"></path><path fill="#b375ab" d="M 182 247 L 193 247 A 0 0 0 0 1 193 247 L 193 258 A 0 0 0 0 1 193 258 L 182 258 A 0 0 0 0 1 182 258 L 182 247 A 0 0 0 0 1 182 247 Z" stroke="#ffffff" stroke-width="0" opacity="1" filter="none" class="highcharts-point"></path><path fill="#b375ab" d="M 193 252 L 203 252 A 0 0 0 0 1 203 252 L 203 258 A 0 0 0 0 1 203 258 L 193 258 A 0 0 0 0 1 193 258 L 193 252 A 0 0 0 0 1 193 252 Z" stroke="#ffffff" stroke-width="0" opacity="1" filter="none" class="highcharts-point"></path><path fill="#b375ab" d="M 203 258 L 214 258 A 0 0 0 0 1 214 258 L 214 258 A 0 0 0 0 1 214 258 L 203 258 A 0 0 0 0 1 203 258 L 203 258 A 0 0 0 0 1 203 258 Z" stroke="#ffffff" stroke-width="0" opacity="1" filter="none" class="highcharts-point"></path></g><g class="highcharts-markers highcharts-series-3 highcharts-bar-series" data-z-index="0.1" opacity="1" transform="translate(68,116) scale(1 1)" clip-path="none"></g></g><text x="10" text-anchor="start" class="highcharts-caption" data-z-index="4" style="font-size: 0.8em; fill: rgb(102, 102, 102);" text-align="left" y="372" transform-origin="10 15" transform="translate(0,0) scale(1 1)"></text><g class="highcharts-plot-lines-4" data-z-index="4"><path fill="none" class="highcharts-plot-line " stroke="white" stroke-width="1" d="M 326.5 116 L 326.5 330"></path></g><g class="highcharts-axis-labels highcharts-yaxis-labels" data-z-index="7"><text x="326.5" text-anchor="middle" transform="translate(0,0)" style="cursor: default; font-size: 0.8em; fill: rgb(0, 0, 0);" y="357" opacity="1">0</text><text x="585" text-anchor="middle" transform="translate(0,0)" style="cursor: default; font-size: 0.8em; fill: rgb(0, 0, 0);" y="357" opacity="1">500</text><text x="68" text-anchor="middle" transform="translate(0,0)" y="357" opacity="1" style="cursor: default; font-size: 0.8em; fill: rgb(0, 0, 0);">500</text><text x="119.7" text-anchor="middle" transform="translate(0,0)" y="357" opacity="1" style="cursor: default; font-size: 0.8em; fill: rgb(0, 0, 0);">400</text><text x="171.4" text-anchor="middle" transform="translate(0,0)" y="357" opacity="1" style="cursor: default; font-size: 0.8em; fill: rgb(0, 0, 0);">300</text><text x="223.1" text-anchor="middle" transform="translate(0,0)" y="357" opacity="1" style="cursor: default; font-size: 0.8em; fill: rgb(0, 0, 0);">200</text><text x="274.8" text-anchor="middle" transform="translate(0,0)" y="357" opacity="1" style="cursor: default; font-size: 0.8em; fill: rgb(0, 0, 0);">100</text><text x="378.2" text-anchor="middle" transform="translate(0,0)" y="357" opacity="1" style="cursor: default; font-size: 0.8em; fill: rgb(0, 0, 0);">100</text><text x="429.9" text-anchor="middle" transform="translate(0,0)" y="357" opacity="1" style="cursor: default; font-size: 0.8em; fill: rgb(0, 0, 0);">200</text><text x="481.6" text-anchor="middle" transform="translate(0,0)" y="357" opacity="1" style="cursor: default; font-size: 0.8em; fill: rgb(0, 0, 0);">300</text><text x="533.3" text-anchor="middle" transform="translate(0,0)" y="357" opacity="1" style="cursor: default; font-size: 0.8em; fill: rgb(0, 0, 0);">400</text></g><g class="highcharts-axis-labels highcharts-xaxis-labels" data-z-index="7"><text x="53" text-anchor="end" transform="translate(0,0)" style="cursor: default; font-size: 0.8em; fill: rgb(0, 0, 0);" y="329" opacity="1">0-4</text><text x="53" text-anchor="end" transform="translate(0,0)" style="cursor: default; font-size: 0.8em; fill: rgb(0, 0, 0);" y="318" opacity="1">5-9</text><text x="53" text-anchor="end" transform="translate(0,0)" style="cursor: default; font-size: 0.8em; fill: rgb(0, 0, 0);" y="308" opacity="1">10-14</text><text x="53" text-anchor="end" transform="translate(0,0)" style="cursor: default; font-size: 0.8em; fill: rgb(0, 0, 0);" y="297" opacity="1">15-19</text><text x="53" text-anchor="end" transform="translate(0,0)" style="cursor: default; font-size: 0.8em; fill: rgb(0, 0, 0);" y="286" opacity="1">20-24</text><text x="53" text-anchor="end" transform="translate(0,0)" style="cursor: default; font-size: 0.8em; fill: rgb(0, 0, 0);" y="276" opacity="1">25-29</text><text x="53" text-anchor="end" transform="translate(0,0)" style="cursor: default; font-size: 0.8em; fill: rgb(0, 0, 0);" y="265" opacity="1">30-34</text><text x="53" text-anchor="end" transform="translate(0,0)" style="cursor: default; font-size: 0.8em; fill: rgb(0, 0, 0);" y="254" opacity="1">35-39</text><text x="53" text-anchor="end" transform="translate(0,0)" style="cursor: default; font-size: 0.8em; fill: rgb(0, 0, 0);" y="244" opacity="1">40-44</text><text x="53" text-anchor="end" transform="translate(0,0)" style="cursor: default; font-size: 0.8em; fill: rgb(0, 0, 0);" y="233" opacity="1">45-49</text><text x="53" text-anchor="end" transform="translate(0,0)" style="cursor: default; font-size: 0.8em; fill: rgb(0, 0, 0);" y="222" opacity="1">50-54</text><text x="53" text-anchor="end" transform="translate(0,0)" style="cursor: default; font-size: 0.8em; fill: rgb(0, 0, 0);" y="211" opacity="1">55-59</text><text x="53" text-anchor="end" transform="translate(0,0)" style="cursor: default; font-size: 0.8em; fill: rgb(0, 0, 0);" y="201" opacity="1">60-64</text><text x="53" text-anchor="end" transform="translate(0,0)" style="cursor: default; font-size: 0.8em; fill: rgb(0, 0, 0);" y="190" opacity="1">65-69</text><text x="53" text-anchor="end" transform="translate(0,0)" style="cursor: default; font-size: 0.8em; fill: rgb(0, 0, 0);" y="179" opacity="1">70-74</text><text x="53" text-anchor="end" transform="translate(0,0)" style="cursor: default; font-size: 0.8em; fill: rgb(0, 0, 0);" y="169" opacity="1">75-79</text><text x="53" text-anchor="end" transform="translate(0,0)" style="cursor: default; font-size: 0.8em; fill: rgb(0, 0, 0);" y="158" opacity="1">80-84</text><text x="53" text-anchor="end" transform="translate(0,0)" style="cursor: default; font-size: 0.8em; fill: rgb(0, 0, 0);" y="147" opacity="1">85-89</text><text x="53" text-anchor="end" transform="translate(0,0)" style="cursor: default; font-size: 0.8em; fill: rgb(0, 0, 0);" y="137" opacity="1">90-94</text><text x="53" text-anchor="end" transform="translate(0,0)" style="cursor: default; font-size: 0.8em; fill: rgb(0, 0, 0);" y="126" opacity="1">95 u.m.</text></g><g class="highcharts-legend highcharts-no-tooltip" data-z-index="7" text-align="left" transform="translate(140,55)"><rect fill="none" class="highcharts-legend-box" rx="0" ry="0" stroke="#999999" stroke-width="0" filter="none" x="0" y="0" width="306" height="49"></rect><g data-z-index="1"><g><g class="highcharts-legend-item highcharts-bar-series highcharts-color-undefined highcharts-series-0" data-z-index="1" transform="translate(8,3)"><text x="21" text-anchor="start" data-z-index="2" style="cursor: pointer; font-size: 0.8em; text-decoration: none; font-weight: normal; fill: rgb(51, 51, 51);" y="17">Männer Erlenmatt</text><rect x="2" y="6" rx="0" ry="0" width="12" height="12" fill="#7f5f1a" class="highcharts-point" data-z-index="3"></rect></g><g class="highcharts-legend-item highcharts-bar-series highcharts-color-undefined highcharts-series-2" data-z-index="1" transform="translate(163,3)"><text x="21" y="17" text-anchor="start" data-z-index="2" style="cursor: pointer; font-size: 0.8em; text-decoration: none; font-weight: normal; fill: rgb(51, 51, 51);">Frauen Erlenmatt</text><rect x="2" y="6" rx="0" ry="0" width="12" height="12" fill="#923f8d" class="highcharts-point" data-z-index="3"></rect></g><g class="highcharts-legend-item highcharts-bar-series highcharts-color-undefined highcharts-series-1" data-z-index="1" transform="translate(8,22)"><text x="21" y="17" text-anchor="start" data-z-index="2" style="cursor: pointer; font-size: 0.8em; text-decoration: none; font-weight: normal; fill: rgb(51, 51, 51);">Männer Messe</text><rect x="2" y="6" rx="0" ry="0" width="12" height="12" fill="#cd9c00" class="highcharts-point" data-z-index="3"></rect></g><g class="highcharts-legend-item highcharts-bar-series highcharts-color-undefined highcharts-series-3" data-z-index="1" transform="translate(163,22)"><text x="21" y="17" text-anchor="start" data-z-index="2" style="cursor: pointer; font-size: 0.8em; text-decoration: none; font-weight: normal; fill: rgb(51, 51, 51);">Frauen Messe</text><rect x="2" y="6" rx="0" ry="0" width="12" height="12" fill="#b375ab" class="highcharts-point" data-z-index="3"></rect></g></g></g></g></svg>