<?xml version="1.0" standalone="no"?><!DOCTYPE svg PUBLIC "-//W3C//DTD SVG 1.1//EN" "http://www.w3.org/Graphics/SVG/1.1/DTD/svg11.dtd"><svg xmlns:xlink="http://www.w3.org/1999/xlink" version="1.1" class="highcharts-root" style="font-family:Arial;font-size:12px;" xmlns="http://www.w3.org/2000/svg" viewBox="0 0 485 415"><desc>Created with Highcharts 8.2.0</desc><defs><clipPath id="highcharts-sljwz5e-91-"><rect x="0" y="0" width="402" height="199" fill="none"></rect></clipPath><clipPath id="highcharts-sljwz5e-106-"><rect x="0" y="0" width="402" height="199" fill="none"></rect></clipPath><clipPath id="highcharts-sljwz5e-177-"><rect x="73" y="139" width="402" height="199" fill="none"></rect></clipPath></defs><rect fill="#fbfbfb" class="highcharts-background" x="0" y="0" width="485" height="428" rx="0" ry="0"></rect><rect fill="none" class="highcharts-plot-background" x="73" y="139" width="402" height="199"></rect><g class="highcharts-pane-group" data-z-index="0"></g><g class="highcharts-plot-lines-0" data-z-index="0"><path fill="none" class="highcharts-plot-line " stroke="#B6CFD7" stroke-width="2" d="M 73 278 L 475 278"></path></g><g class="highcharts-grid highcharts-xaxis-grid" data-z-index="1"><path fill="none" data-z-index="1" class="highcharts-grid-line" d="M 90.5 139 L 90.5 338" opacity="1"></path><path fill="none" data-z-index="1" class="highcharts-grid-line" d="M 118.5 139 L 118.5 338" opacity="1"></path><path fill="none" data-z-index="1" class="highcharts-grid-line" d="M 146.5 139 L 146.5 338" opacity="1"></path><path fill="none" data-z-index="1" class="highcharts-grid-line" d="M 174.5 139 L 174.5 338" opacity="1"></path><path fill="none" data-z-index="1" class="highcharts-grid-line" d="M 203.5 139 L 203.5 338" opacity="1"></path><path fill="none" data-z-index="1" class="highcharts-grid-line" d="M 231.5 139 L 231.5 338" opacity="1"></path><path fill="none" data-z-index="1" class="highcharts-grid-line" d="M 259.5 139 L 259.5 338" opacity="1"></path><path fill="none" data-z-index="1" class="highcharts-grid-line" d="M 287.5 139 L 287.5 338" opacity="1"></path><path fill="none" data-z-index="1" class="highcharts-grid-line" d="M 315.5 139 L 315.5 338" opacity="1"></path><path fill="none" data-z-index="1" class="highcharts-grid-line" d="M 343.5 139 L 343.5 338" opacity="1"></path><path fill="none" data-z-index="1" class="highcharts-grid-line" d="M 372.5 139 L 372.5 338" opacity="1"></path><path fill="none" data-z-index="1" class="highcharts-grid-line" d="M 400.5 139 L 400.5 338" opacity="1"></path><path fill="none" data-z-index="1" class="highcharts-grid-line" d="M 428.5 139 L 428.5 338" opacity="1"></path><path fill="none" data-z-index="1" class="highcharts-grid-line" d="M 456.5 139 L 456.5 338" opacity="1"></path></g><g class="highcharts-grid highcharts-yaxis-grid" data-z-index="1"><path fill="none" stroke="#B9CFD7" stroke-width="0.5" data-z-index="1" class="highcharts-grid-line" d="M 73 338.25 L 475 338.25" opacity="1"></path><path fill="none" stroke="#B9CFD7" stroke-width="0.5" data-z-index="1" class="highcharts-grid-line" d="M 73 318.25 L 475 318.25" opacity="1"></path><path fill="none" stroke="#B9CFD7" stroke-width="0.5" data-z-index="1" class="highcharts-grid-line" d="M 73 298.25 L 475 298.25" opacity="1"></path><path fill="none" stroke="#B9CFD7" stroke-width="0.5" data-z-index="1" class="highcharts-grid-line" d="M 73 278.25 L 475 278.25" opacity="1"></path><path fill="none" stroke="#B9CFD7" stroke-width="0.5" data-z-index="1" class="highcharts-grid-line" d="M 73 258.25 L 475 258.25" opacity="1"></path><path fill="none" stroke="#B9CFD7" stroke-width="0.5" data-z-index="1" class="highcharts-grid-line" d="M 73 239.25 L 475 239.25" opacity="1"></path><path fill="none" stroke="#B9CFD7" stroke-width="0.5" data-z-index="1" class="highcharts-grid-line" d="M 73 219.25 L 475 219.25" opacity="1"></path><path fill="none" stroke="#B9CFD7" stroke-width="0.5" data-z-index="1" class="highcharts-grid-line" d="M 73 199.25 L 475 199.25" opacity="1"></path><path fill="none" stroke="#B9CFD7" stroke-width="0.5" data-z-index="1" class="highcharts-grid-line" d="M 73 179.25 L 475 179.25" opacity="1"></path><path fill="none" stroke="#B9CFD7" stroke-width="0.5" data-z-index="1" class="highcharts-grid-line" d="M 73 159.25 L 475 159.25" opacity="1"></path><path fill="none" stroke="#B9CFD7" stroke-width="0.5" data-z-index="1" class="highcharts-grid-line" d="M 73 138.75 L 475 138.75" opacity="1"></path></g><rect fill="none" class="highcharts-plot-border" data-z-index="1" x="73" y="139" width="402" height="199"></rect><g class="highcharts-axis highcharts-xaxis" data-z-index="2"><path fill="none" class="highcharts-axis-line" stroke="#B9CFD7" stroke-width="0.5" data-z-index="7" d="M 73 338.25 L 475 338.25"></path></g><g class="highcharts-axis highcharts-yaxis" data-z-index="2"><path fill="none" class="highcharts-axis-line" data-z-index="7" d="M 73 139 L 73 338"></path></g><g class="highcharts-series-group" data-z-index="3"><g class="highcharts-series highcharts-series-0 highcharts-column-series" data-z-index="0.1" opacity="1" transform="translate(73,139) scale(1 1)" clip-path="url(#highcharts-sljwz5e-106-)"><rect x="10" y="131" width="7" height="9" fill="#cd9c00" opacity="1" class="highcharts-point"></rect><rect x="38" y="128" width="7" height="12" fill="#cd9c00" opacity="1" class="highcharts-point"></rect><rect x="67" y="132" width="7" height="8" fill="#cd9c00" opacity="1" class="highcharts-point"></rect><rect x="95" y="89" width="7" height="51" fill="#cd9c00" opacity="1" class="highcharts-point"></rect><rect x="123" y="100" width="7" height="40" fill="#cd9c00" opacity="1" class="highcharts-point"></rect><rect x="151" y="95" width="7" height="45" fill="#cd9c00" opacity="1" class="highcharts-point"></rect><rect x="179" y="98" width="7" height="42" fill="#cd9c00" opacity="1" class="highcharts-point"></rect><rect x="207" y="69" width="7" height="71" fill="#cd9c00" opacity="1" class="highcharts-point"></rect><rect x="236" y="76" width="7" height="64" fill="#cd9c00" opacity="1" class="highcharts-point"></rect><rect x="264" y="84" width="7" height="56" fill="#cd9c00" opacity="1" class="highcharts-point"></rect><rect x="292" y="85" width="7" height="55" fill="#cd9c00" opacity="1" class="highcharts-point"></rect><rect x="320" y="85" width="7" height="55" fill="#cd9c00" opacity="1" class="highcharts-point"></rect><rect x="348" y="88" width="7" height="52" fill="#cd9c00" opacity="1" class="highcharts-point"></rect><rect x="377" y="80" width="7" height="60" fill="#cd9c00" opacity="1" class="highcharts-point"></rect></g><g class="highcharts-markers highcharts-series-0 highcharts-column-series" data-z-index="0.1" opacity="1" transform="translate(73,139) scale(1 1)" clip-path="none"></g><g class="highcharts-series highcharts-series-1 highcharts-column-series" data-z-index="0.1" opacity="1" transform="translate(73,139) scale(1 1)" clip-path="url(#highcharts-sljwz5e-106-)"><rect x="10" y="140" width="7" height="13" fill="#7f5f1a" opacity="1" class="highcharts-point highcharts-negative"></rect><rect x="38" y="140" width="7" height="9" fill="#7f5f1a" opacity="1" class="highcharts-point highcharts-negative"></rect><rect x="67" y="140" width="7" height="7" fill="#7f5f1a" opacity="1" class="highcharts-point highcharts-negative"></rect><rect x="95" y="140" width="7" height="9" fill="#7f5f1a" opacity="1" class="highcharts-point highcharts-negative"></rect><rect x="123" y="140" width="7" height="45" fill="#7f5f1a" opacity="1" class="highcharts-point highcharts-negative"></rect><rect x="151" y="140" width="7" height="33" fill="#7f5f1a" opacity="1" class="highcharts-point highcharts-negative"></rect><rect x="179" y="140" width="7" height="41" fill="#7f5f1a" opacity="1" class="highcharts-point highcharts-negative"></rect><rect x="207" y="140" width="7" height="52" fill="#7f5f1a" opacity="1" class="highcharts-point highcharts-negative"></rect><rect x="236" y="140" width="7" height="44" fill="#7f5f1a" opacity="1" class="highcharts-point highcharts-negative"></rect><rect x="264" y="140" width="7" height="50" fill="#7f5f1a" opacity="1" class="highcharts-point highcharts-negative"></rect><rect x="292" y="140" width="7" height="46" fill="#7f5f1a" opacity="1" class="highcharts-point highcharts-negative"></rect><rect x="320" y="140" width="7" height="42" fill="#7f5f1a" opacity="1" class="highcharts-point highcharts-negative"></rect><rect x="348" y="140" width="7" height="48" fill="#7f5f1a" opacity="1" class="highcharts-point highcharts-negative"></rect><rect x="377" y="140" width="7" height="45" fill="#7f5f1a" opacity="1" class="highcharts-point highcharts-negative"></rect></g><g class="highcharts-markers highcharts-series-1 highcharts-column-series" data-z-index="0.1" opacity="1" transform="translate(73,139) scale(1 1)" clip-path="none"></g><g class="highcharts-series highcharts-series-2 highcharts-column-series" data-z-index="0.1" opacity="1" transform="translate(73,139) scale(1 1)" clip-path="url(#highcharts-sljwz5e-106-)"><rect x="103" y="137" width="7" height="3" fill="#b375ab" opacity="1" class="highcharts-point"></rect><rect x="131" y="117" width="7" height="23" fill="#b375ab" opacity="1" class="highcharts-point"></rect><rect x="160" y="123" width="7" height="17" fill="#b375ab" opacity="1" class="highcharts-point"></rect><rect x="188" y="122" width="7" height="18" fill="#b375ab" opacity="1" class="highcharts-point"></rect><rect x="216" y="132" width="7" height="8" fill="#b375ab" opacity="1" class="highcharts-point"></rect><rect x="244" y="123" width="7" height="17" fill="#b375ab" opacity="1" class="highcharts-point"></rect><rect x="272" y="124" width="7" height="16" fill="#b375ab" opacity="1" class="highcharts-point"></rect><rect x="301" y="17" width="7" height="123" fill="#b375ab" opacity="1" class="highcharts-point"></rect><rect x="329" y="87" width="7" height="53" fill="#b375ab" opacity="1" class="highcharts-point"></rect><rect x="357" y="62" width="7" height="78" fill="#b375ab" opacity="1" class="highcharts-point"></rect><rect x="385" y="64" width="7" height="76" fill="#b375ab" opacity="1" class="highcharts-point"></rect></g><g class="highcharts-markers highcharts-series-2 highcharts-column-series" data-z-index="0.1" opacity="1" transform="translate(73,139) scale(1 1)" clip-path="none"></g><g class="highcharts-series highcharts-series-3 highcharts-column-series" data-z-index="0.1" opacity="1" transform="translate(73,139) scale(1 1)" clip-path="url(#highcharts-sljwz5e-106-)"><rect x="131" y="140" width="7" height="5" fill="#923f8d" opacity="1" class="highcharts-point highcharts-negative"></rect><rect x="160" y="140" width="7" height="4" fill="#923f8d" opacity="1" class="highcharts-point highcharts-negative"></rect><rect x="188" y="140" width="7" height="6" fill="#923f8d" opacity="1" class="highcharts-point highcharts-negative"></rect><rect x="216" y="140" width="7" height="23" fill="#923f8d" opacity="1" class="highcharts-point highcharts-negative"></rect><rect x="244" y="140" width="7" height="14" fill="#923f8d" opacity="1" class="highcharts-point highcharts-negative"></rect><rect x="272" y="140" width="7" height="12" fill="#923f8d" opacity="1" class="highcharts-point highcharts-negative"></rect><rect x="301" y="140" width="7" height="14" fill="#923f8d" opacity="1" class="highcharts-point highcharts-negative"></rect><rect x="329" y="140" width="7" height="32" fill="#923f8d" opacity="1" class="highcharts-point highcharts-negative"></rect><rect x="357" y="140" width="7" height="54" fill="#923f8d" opacity="1" class="highcharts-point highcharts-negative"></rect><rect x="385" y="140" width="7" height="58" fill="#923f8d" opacity="1" class="highcharts-point highcharts-negative"></rect></g><g class="highcharts-markers highcharts-series-3 highcharts-column-series" data-z-index="0.1" opacity="1" transform="translate(73,139) scale(1 1)" clip-path="none"></g><g class="highcharts-series highcharts-series-5 highcharts-line-series" data-z-index="1" opacity="1" transform="translate(73,139) scale(1 1)" clip-path="url(#highcharts-sljwz5e-106-)"><path fill="none" d="M 102.33239831697 135.6359324 L 130.52314165498 120.92028040000001 L 158.71388499299 125.7996808 L 186.904628331 127.33699560000001 L 215.095371669 154.2195872 L 243.28611500701 135.60759480000002 L 271.47685834502 134.7843716 L 299.66760168303 29.540753999999993 L 327.85834502104 117.7655732 L 356.04908835904 114.52370400000001 L 384.23983169705 121.64352600000001" class="highcharts-graph" data-z-index="1" stroke-linejoin="round" stroke-linecap="round"></path></g><g class="highcharts-markers highcharts-series-5 highcharts-line-series" data-z-index="1" opacity="1" transform="translate(73,139) scale(1 1)" clip-path="none"><path fill="#d7bed2" d="M 102 131 L 107 136 L 102 141 L 97 136 Z" opacity="1" class="highcharts-point"></path><path fill="#d7bed2" d="M 130 116 L 135 121 L 130 126 L 125 121 Z" opacity="1" class="highcharts-point"></path><path fill="#d7bed2" d="M 158 121 L 163 126 L 158 131 L 153 126 Z" opacity="1" class="highcharts-point"></path><path fill="#d7bed2" d="M 186 122 L 191 127 L 186 132 L 181 127 Z" opacity="1" class="highcharts-point"></path><path fill="#d7bed2" d="M 215 149 L 220 154 L 215 159 L 210 154 Z" opacity="1" class="highcharts-point highcharts-negative"></path><path fill="#d7bed2" d="M 243 131 L 248 136 L 243 141 L 238 136 Z" opacity="1" class="highcharts-point"></path><path fill="#d7bed2" d="M 271 130 L 276 135 L 271 140 L 266 135 Z" opacity="1" class="highcharts-point"></path><path fill="#d7bed2" d="M 299 25 L 304 30 L 299 35 L 294 30 Z" opacity="1" class="highcharts-point"></path><path fill="#d7bed2" d="M 327 113 L 332 118 L 327 123 L 322 118 Z" opacity="1" class="highcharts-point"></path><path fill="#d7bed2" d="M 356 110 L 361 115 L 356 120 L 351 115 Z" opacity="1" class="highcharts-point"></path><path fill="#d7bed2" d="M 384 117 L 389 122 L 384 127 L 379 122 Z" opacity="1" class="highcharts-point"></path></g><g class="highcharts-series highcharts-series-4 highcharts-line-series" data-z-index="2" opacity="1" transform="translate(73,139) scale(1 1)" clip-path="url(#highcharts-sljwz5e-106-)"><path fill="none" d="M 17.760168302948 142.5143276 L 45.950911640956 134.8494844 L 74.141654978964 138.0178032 L 102.33239831697 96.6036744 L 130.52314165498 143.535118 L 158.71388499299 127.2273864 L 186.904628331 137.7277408 L 215.095371669 119.28458 L 243.28611500701 118.8211488 L 271.47685834502 132.09413039999998 L 299.66760168303 130.4503904 L 327.85834502104 125.8745844 L 356.04908835904 134.14438760000002 L 384.23983169705 123.3967956" class="highcharts-graph" data-z-index="1" stroke-linejoin="round" stroke-linecap="round"></path></g><g class="highcharts-markers highcharts-series-4 highcharts-line-series" data-z-index="2" opacity="1" transform="translate(73,139) scale(1 1)" clip-path="none"><path fill="#fabd24" d="M 17 147 A 4 4 0 1 1 17.003999999333335 146.99999800000018 Z" opacity="1" class="highcharts-point highcharts-negative"></path><path fill="#fabd24" d="M 45 139 A 4 4 0 1 1 45.00399999933334 138.99999800000018 Z" opacity="1" class="highcharts-point"></path><path fill="#fabd24" d="M 74 142 A 4 4 0 1 1 74.00399999933333 141.99999800000018 Z" opacity="1" class="highcharts-point"></path><path fill="#fabd24" d="M 102 101 A 4 4 0 1 1 102.00399999933333 100.99999800000016 Z" opacity="1" class="highcharts-point"></path><path fill="#fabd24" d="M 130 148 A 4 4 0 1 1 130.00399999933333 147.99999800000018 Z" opacity="1" class="highcharts-point highcharts-negative"></path><path fill="#fabd24" d="M 158 131 A 4 4 0 1 1 158.00399999933333 130.99999800000018 Z" opacity="1" class="highcharts-point"></path><path fill="#fabd24" d="M 186 142 A 4 4 0 1 1 186.00399999933333 141.99999800000018 Z" opacity="1" class="highcharts-point"></path><path fill="#fabd24" d="M 215 123 A 4 4 0 1 1 215.00399999933333 122.99999800000016 Z" opacity="1" class="highcharts-point"></path><path fill="#fabd24" d="M 243 123 A 4 4 0 1 1 243.00399999933333 122.99999800000016 Z" opacity="1" class="highcharts-point"></path><path fill="#fabd24" d="M 271 136 A 4 4 0 1 1 271.00399999933336 135.99999800000018 Z" opacity="1" class="highcharts-point"></path><path fill="#fabd24" d="M 299 134 A 4 4 0 1 1 299.00399999933336 133.99999800000018 Z" opacity="1" class="highcharts-point"></path><path fill="#fabd24" d="M 327 130 A 4 4 0 1 1 327.00399999933336 129.99999800000018 Z" opacity="1" class="highcharts-point"></path><path fill="#fabd24" d="M 356 138 A 4 4 0 1 1 356.00399999933336 137.99999800000018 Z" opacity="1" class="highcharts-point"></path><path fill="#fabd24" d="M 384 127 A 4 4 0 1 1 384.00399999933336 126.99999800000016 Z" opacity="1" class="highcharts-point"></path></g></g><text x="10" text-anchor="start" class="highcharts-title" data-z-index="4" style="color:#000000;font-size:14px;font-weight:bold;fill:#000000;" y="21"><tspan>Steuerertrag durch Zu- und Wegzüger</tspan></text><text x="10" text-anchor="start" class="highcharts-subtitle" data-z-index="4" style="color:#000000;font-size:12px;font-weight:normal;fill:#000000;" y="40"><tspan>in Franken, Wohnviertel Rosental, nach Bezirk</tspan></text><text x="10" text-anchor="start" class="highcharts-caption" data-z-index="4" style="color:#666666;fill:#666666;" y="385"></text><g class="highcharts-legend" data-z-index="7" transform="translate(65,56)"><rect fill="none" class="highcharts-legend-box" rx="0" ry="0" x="0" y="0" width="348" height="71" visibility="visible"></rect><g data-z-index="1"><g><g class="highcharts-legend-item highcharts-column-series highcharts-color-undefined highcharts-series-0" data-z-index="1" transform="translate(8,3)"><text x="21" style="color:#333333;cursor:pointer;font-size:12px;font-weight:normal;fill:#333333;" text-anchor="start" data-z-index="2" y="15"><tspan>Zugezogene Messe</tspan></text><rect x="2" y="4" width="12" height="12" fill="#cd9c00" class="highcharts-point" data-z-index="3"></rect></g><g class="highcharts-legend-item highcharts-column-series highcharts-color-undefined highcharts-series-2" data-z-index="1" transform="translate(184,3)"><text x="21" y="15" style="color:#333333;cursor:pointer;font-size:12px;font-weight:normal;fill:#333333;" text-anchor="start" data-z-index="2"><tspan>Zugezogene Erlenmatt</tspan></text><rect x="2" y="4" width="12" height="12" fill="#b375ab" class="highcharts-point" data-z-index="3"></rect></g><g class="highcharts-legend-item highcharts-column-series highcharts-color-undefined highcharts-series-1" data-z-index="1" transform="translate(8,23)"><text x="21" y="15" style="color:#333333;cursor:pointer;font-size:12px;font-weight:normal;fill:#333333;" text-anchor="start" data-z-index="2"><tspan>Weggezogene Messe</tspan></text><rect x="2" y="4" width="12" height="12" fill="#7f5f1a" class="highcharts-point" data-z-index="3"></rect></g><g class="highcharts-legend-item highcharts-column-series highcharts-color-undefined highcharts-series-3" data-z-index="1" transform="translate(184,23)"><text x="21" y="15" style="color:#333333;cursor:pointer;font-size:12px;font-weight:normal;fill:#333333;" text-anchor="start" data-z-index="2"><tspan>Weggezogene Erlenmatt</tspan></text><rect x="2" y="4" width="12" height="12" fill="#923f8d" class="highcharts-point" data-z-index="3"></rect></g><g class="highcharts-legend-item highcharts-line-series highcharts-color-undefined highcharts-series-4" data-z-index="1" transform="translate(8,43)"><path fill="none" d="M 0 11 L 16 11" class="highcharts-graph"></path><path fill="#fabd24" d="M 8 15 A 4 4 0 1 1 8.003999999333336 14.999998000000167 Z" class="highcharts-point" opacity="1"></path><text x="21" y="15" style="color:#333333;cursor:pointer;font-size:12px;font-weight:normal;fill:#333333;" text-anchor="start" data-z-index="2"><tspan>Saldo Messe</tspan></text></g><g class="highcharts-legend-item highcharts-line-series highcharts-color-undefined highcharts-series-5" data-z-index="1" transform="translate(184,43)"><path fill="none" d="M 0 11 L 16 11" class="highcharts-graph"></path><path fill="#d7bed2" d="M 8 6 L 13 11 L 8 16 L 3 11 Z" class="highcharts-point" opacity="1"></path><text x="21" y="15" style="color:#333333;cursor:pointer;font-size:12px;font-weight:normal;fill:#333333;" text-anchor="start" data-z-index="2"><tspan>Saldo Erlenmatt</tspan></text></g></g></g></g><g class="highcharts-axis-labels highcharts-xaxis-labels" data-z-index="7"><text x="93.35289316729867" style="color:#000000;cursor:default;font-size:11px;fill:#000000;" text-anchor="end" transform="translate(0,0) rotate(-45 93.35289316729867 354)" y="354" opacity="1">2005</text><text x="121.54363650531067" style="color:#000000;cursor:default;font-size:11px;fill:#000000;" text-anchor="end" transform="translate(0,0) rotate(-45 121.54363650531067 354)" y="354" opacity="1">2006</text><text x="149.73437984331068" style="color:#000000;cursor:default;font-size:11px;fill:#000000;" text-anchor="end" transform="translate(0,0) rotate(-45 149.73437984331068 354)" y="354" opacity="1">2007</text><text x="177.92512318132069" style="color:#000000;cursor:default;font-size:11px;fill:#000000;" text-anchor="end" transform="translate(0,0) rotate(-45 177.92512318132069 354)" y="354" opacity="1">2008</text><text x="206.1158665193307" style="color:#000000;cursor:default;font-size:11px;fill:#000000;" text-anchor="end" transform="translate(0,0) rotate(-45 206.1158665193307 354)" y="354" opacity="1">2009</text><text x="234.30660985734067" style="color:#000000;cursor:default;font-size:11px;fill:#000000;" text-anchor="end" transform="translate(0,0) rotate(-45 234.30660985734067 354)" y="354" opacity="1">2010</text><text x="262.4973531953507" style="color:#000000;cursor:default;font-size:11px;fill:#000000;" text-anchor="end" transform="translate(0,0) rotate(-45 262.4973531953507 354)" y="354" opacity="1">2011</text><text x="290.68809653335063" style="color:#000000;cursor:default;font-size:11px;fill:#000000;" text-anchor="end" transform="translate(0,0) rotate(-45 290.68809653335063 354)" y="354" opacity="1">2012</text><text x="318.87883987136064" style="color:#000000;cursor:default;font-size:11px;fill:#000000;" text-anchor="end" transform="translate(0,0) rotate(-45 318.87883987136064 354)" y="354" opacity="1">2013</text><text x="347.06958320937065" style="color:#000000;cursor:default;font-size:11px;fill:#000000;" text-anchor="end" transform="translate(0,0) rotate(-45 347.06958320937065 354)" y="354" opacity="1">2014</text><text x="375.26032654738066" style="color:#000000;cursor:default;font-size:11px;fill:#000000;" text-anchor="end" transform="translate(0,0) rotate(-45 375.26032654738066 354)" y="354" opacity="1">2015</text><text x="403.45106988539067" style="color:#000000;cursor:default;font-size:11px;fill:#000000;" text-anchor="end" transform="translate(0,0) rotate(-45 403.45106988539067 354)" y="354" opacity="1">2016</text><text x="431.64181322339067" style="color:#000000;cursor:default;font-size:11px;fill:#000000;" text-anchor="end" transform="translate(0,0) rotate(-45 431.64181322339067 354)" y="354" opacity="1">2017</text><text x="459.8325565614007" style="color:#000000;cursor:default;font-size:11px;fill:#000000;" text-anchor="end" transform="translate(0,0) rotate(-45 459.8325565614007 354)" y="354" opacity="1">2018</text></g><g class="highcharts-axis-labels highcharts-yaxis-labels" data-z-index="7"><text x="58" style="color:#000000;cursor:default;font-size:11px;fill:#000000;" text-anchor="end" transform="translate(0,0)" y="342" opacity="1"><tspan>-750 000</tspan></text><text x="58" style="color:#000000;cursor:default;font-size:11px;fill:#000000;" text-anchor="end" transform="translate(0,0)" y="322" opacity="1"><tspan>-500 000</tspan></text><text x="58" style="color:#000000;cursor:default;font-size:11px;fill:#000000;" text-anchor="end" transform="translate(0,0)" y="302" opacity="1"><tspan>-250 000</tspan></text><text x="58" style="color:#000000;cursor:default;font-size:11px;fill:#000000;" text-anchor="end" transform="translate(0,0)" y="282" opacity="1">0</text><text x="58" style="color:#000000;cursor:default;font-size:11px;fill:#000000;" text-anchor="end" transform="translate(0,0)" y="262" opacity="1"><tspan>250 000</tspan></text><text x="58" style="color:#000000;cursor:default;font-size:11px;fill:#000000;" text-anchor="end" transform="translate(0,0)" y="243" opacity="1"><tspan>500 000</tspan></text><text x="58" style="color:#000000;cursor:default;font-size:11px;fill:#000000;" text-anchor="end" transform="translate(0,0)" y="223" opacity="1"><tspan>750 000</tspan></text><text x="58" style="color:#000000;cursor:default;font-size:11px;fill:#000000;" text-anchor="end" transform="translate(0,0)" y="203" opacity="1"><tspan>1 000 000</tspan></text><text x="58" style="color:#000000;cursor:default;font-size:11px;fill:#000000;" text-anchor="end" transform="translate(0,0)" y="183" opacity="1"><tspan>1 250 000</tspan></text><text x="58" style="color:#000000;cursor:default;font-size:11px;fill:#000000;" text-anchor="end" transform="translate(0,0)" y="163" opacity="1"><tspan>1 500 000</tspan></text><text x="58" style="color:#000000;cursor:default;font-size:11px;fill:#000000;" text-anchor="end" transform="translate(0,0)" y="143" opacity="1"><tspan>1 750 000</tspan></text></g><text x="10" class="highcharts-credits" text-anchor="start" data-z-index="8" style="cursor:default;color:#000000;font-size:10px;fill:#000000;" y="403"><tspan>Quelle: Statistisches Amt Basel-Stadt, Steuerstatistik.</tspan><tspan x="10" dy="13">Zuletzt geändert: 2021-11-24</tspan></text><g class="highcharts-control-points" data-z-index="99" clip-path="url(#highcharts-sljwz5e-177-)"></g></svg>