<?xml version="1.0" standalone="no"?><!DOCTYPE svg PUBLIC "-//W3C//DTD SVG 1.1//EN" "http://www.w3.org/Graphics/SVG/1.1/DTD/svg11.dtd"><svg xmlns:xlink="http://www.w3.org/1999/xlink" version="1.1" class="highcharts-root" style="font-family:Arial;font-size:12px;" xmlns="http://www.w3.org/2000/svg" viewBox="0 0 485 415"><desc>Created with Highcharts 8.2.0</desc><defs><clipPath id="highcharts-fr2jtdl-29-"><rect x="0" y="0" width="434" height="295" fill="none"></rect></clipPath><clipPath id="highcharts-fr2jtdl-52-"><rect x="0" y="0" width="434" height="295" fill="none"></rect></clipPath><clipPath id="highcharts-fr2jtdl-53-"><rect x="41" y="56" width="434" height="295" fill="none"></rect></clipPath></defs><rect fill="#fbfbfb" class="highcharts-background" x="0" y="0" width="485" height="428" rx="0" ry="0"></rect><rect fill="none" class="highcharts-plot-background" x="41" y="56" width="434" height="295"></rect><g class="highcharts-pane-group" data-z-index="0"></g><g class="highcharts-grid highcharts-xaxis-grid" data-z-index="1"><path fill="none" data-z-index="1" class="highcharts-grid-line" d="M 44.5 56 L 44.5 351" opacity="1"></path><path fill="none" data-z-index="1" class="highcharts-grid-line" d="M 85.5 56 L 85.5 351" opacity="1"></path><path fill="none" data-z-index="1" class="highcharts-grid-line" d="M 125.5 56 L 125.5 351" opacity="1"></path><path fill="none" data-z-index="1" class="highcharts-grid-line" d="M 166.5 56 L 166.5 351" opacity="1"></path><path fill="none" data-z-index="1" class="highcharts-grid-line" d="M 206.5 56 L 206.5 351" opacity="1"></path><path fill="none" data-z-index="1" class="highcharts-grid-line" d="M 247.5 56 L 247.5 351" opacity="1"></path><path fill="none" data-z-index="1" class="highcharts-grid-line" d="M 287.5 56 L 287.5 351" opacity="1"></path><path fill="none" data-z-index="1" class="highcharts-grid-line" d="M 328.5 56 L 328.5 351" opacity="1"></path><path fill="none" data-z-index="1" class="highcharts-grid-line" d="M 368.5 56 L 368.5 351" opacity="1"></path><path fill="none" data-z-index="1" class="highcharts-grid-line" d="M 409.5 56 L 409.5 351" opacity="1"></path><path fill="none" data-z-index="1" class="highcharts-grid-line" d="M 449.5 56 L 449.5 351" opacity="1"></path></g><g class="highcharts-grid highcharts-yaxis-grid" data-z-index="1"><path fill="none" stroke="#B9CFD7" stroke-width="0.5" data-z-index="1" class="highcharts-grid-line" d="M 41 351.25 L 475 351.25" opacity="1"></path><path fill="none" stroke="#B9CFD7" stroke-width="0.5" data-z-index="1" class="highcharts-grid-line" d="M 41 292.25 L 475 292.25" opacity="1"></path><path fill="none" stroke="#B9CFD7" stroke-width="0.5" data-z-index="1" class="highcharts-grid-line" d="M 41 233.25 L 475 233.25" opacity="1"></path><path fill="none" stroke="#B9CFD7" stroke-width="0.5" data-z-index="1" class="highcharts-grid-line" d="M 41 174.25 L 475 174.25" opacity="1"></path><path fill="none" stroke="#B9CFD7" stroke-width="0.5" data-z-index="1" class="highcharts-grid-line" d="M 41 115.25 L 475 115.25" opacity="1"></path><path fill="none" stroke="#B9CFD7" stroke-width="0.5" data-z-index="1" class="highcharts-grid-line" d="M 41 55.75 L 475 55.75" opacity="1"></path></g><rect fill="none" class="highcharts-plot-border" data-z-index="1" x="41" y="56" width="434" height="295"></rect><g class="highcharts-axis highcharts-xaxis" data-z-index="2"><path fill="none" class="highcharts-axis-line" stroke="#B9CFD7" stroke-width="0.5" data-z-index="7" d="M 41 351.25 L 475 351.25"></path></g><g class="highcharts-axis highcharts-yaxis" data-z-index="2"><path fill="none" class="highcharts-axis-line" data-z-index="7" d="M 41 56 L 41 351"></path></g><g class="highcharts-series-group" data-z-index="3"><g class="highcharts-series highcharts-series-0 highcharts-line-series" data-z-index="0.1" opacity="1" transform="translate(41,56) scale(1 1)" clip-path="url(#highcharts-fr2jtdl-52-)"><path fill="none" d="M 4.254901960785 90.055169595477 L 24.516339869282 111.68029435818599 L 44.777777777778 19.650977263691004 L 65.039215686275 41.03427660422901 L 85.300653594772 80.83964898289702 L 105.56209150327 33.77143996810497 L 125.82352941177 134.262820512878 L 146.08496732026 160.102286401931 L 166.34640522876 193.030546623835 L 186.60784313726 178.510054849469 L 206.86928104575 251.035516473517 L 227.13071895425 256.184210526322 L 247.39215686274 226.395348837234 L 267.65359477124 269.27325581400703 L 287.91503267974 280.21832498211 L 308.17647058823 269.130371236507 L 328.43790849673 270.410546504017 L 348.69934640523 267.850158182388 L 368.96078431372 233.263574660677 L 389.22222222222 85.748889936566 L 409.48366013072 222.286172048313 L 429.74509803921 203.718074657" class="highcharts-graph" data-z-index="1" stroke="#83522E" stroke-width="2" stroke-linejoin="round" stroke-linecap="round"></path></g><g class="highcharts-markers highcharts-series-0 highcharts-line-series" data-z-index="0.1" opacity="1" transform="translate(41,56) scale(1 1)" clip-path="none"></g></g><text x="10" text-anchor="start" class="highcharts-title" data-z-index="4" style="color:#000000;font-size:14px;font-weight:bold;fill:#000000;" y="21"><tspan>Leerwohnungsquote</tspan></text><text x="10" text-anchor="start" class="highcharts-subtitle" data-z-index="4" style="color:#000000;font-size:12px;font-weight:normal;fill:#000000;" y="40"><tspan>Wohnviertel Rosental</tspan></text><text x="10" text-anchor="start" class="highcharts-caption" data-z-index="4" style="color:#666666;fill:#666666;" y="385"></text><g class="highcharts-axis-labels highcharts-xaxis-labels" data-z-index="7"><text x="45.254901960785" style="color:#000000;cursor:default;font-size:11px;fill:#000000;" text-anchor="middle" transform="translate(0,0)" y="370" opacity="1">2000</text><text x="85.777777777778" style="color:#000000;cursor:default;font-size:11px;fill:#000000;" text-anchor="middle" transform="translate(0,0)" y="370" opacity="1">2002</text><text x="126.30065359477" style="color:#000000;cursor:default;font-size:11px;fill:#000000;" text-anchor="middle" transform="translate(0,0)" y="370" opacity="1">2004</text><text x="166.82352941177" style="color:#000000;cursor:default;font-size:11px;fill:#000000;" text-anchor="middle" transform="translate(0,0)" y="370" opacity="1">2006</text><text x="207.34640522876" style="color:#000000;cursor:default;font-size:11px;fill:#000000;" text-anchor="middle" transform="translate(0,0)" y="370" opacity="1">2008</text><text x="247.86928104575" style="color:#000000;cursor:default;font-size:11px;fill:#000000;" text-anchor="middle" transform="translate(0,0)" y="370" opacity="1">2010</text><text x="288.39215686274" style="color:#000000;cursor:default;font-size:11px;fill:#000000;" text-anchor="middle" transform="translate(0,0)" y="370" opacity="1">2012</text><text x="328.91503267974" style="color:#000000;cursor:default;font-size:11px;fill:#000000;" text-anchor="middle" transform="translate(0,0)" y="370" opacity="1">2014</text><text x="369.43790849673" style="color:#000000;cursor:default;font-size:11px;fill:#000000;" text-anchor="middle" transform="translate(0,0)" y="370" opacity="1">2016</text><text x="409.96078431372" style="color:#000000;cursor:default;font-size:11px;fill:#000000;" text-anchor="middle" transform="translate(0,0)" y="370" opacity="1">2018</text><text x="450.48366013072" style="color:#000000;cursor:default;font-size:11px;fill:#000000;" text-anchor="middle" transform="translate(0,0)" y="370" opacity="1">2020</text></g><g class="highcharts-axis-labels highcharts-yaxis-labels" data-z-index="7"><text x="26" style="color:#000000;cursor:default;font-size:11px;fill:#000000;" text-anchor="end" transform="translate(0,0)" y="355" opacity="1">0%</text><text x="26" style="color:#000000;cursor:default;font-size:11px;fill:#000000;" text-anchor="end" transform="translate(0,0)" y="296" opacity="1">1%</text><text x="26" style="color:#000000;cursor:default;font-size:11px;fill:#000000;" text-anchor="end" transform="translate(0,0)" y="237" opacity="1">2%</text><text x="26" style="color:#000000;cursor:default;font-size:11px;fill:#000000;" text-anchor="end" transform="translate(0,0)" y="178" opacity="1">3%</text><text x="26" style="color:#000000;cursor:default;font-size:11px;fill:#000000;" text-anchor="end" transform="translate(0,0)" y="119" opacity="1">4%</text><text x="26" style="color:#000000;cursor:default;font-size:11px;fill:#000000;" text-anchor="end" transform="translate(0,0)" y="60" opacity="1">5%</text></g><text x="10" class="highcharts-credits" text-anchor="start" data-z-index="8" style="cursor:default;color:#000000;font-size:10px;fill:#000000;" y="403"><tspan>Quelle: Statistisches Amt Basel-Stadt, Gebäude- und Wohnungsstatistik.</tspan><tspan x="10" dy="13">Zuletzt geändert: 2021-12-9</tspan></text><g class="highcharts-control-points" data-z-index="99" clip-path="url(#highcharts-fr2jtdl-53-)"></g></svg>