<?xml version="1.0" standalone="no"?><!DOCTYPE svg PUBLIC "-//W3C//DTD SVG 1.1//EN" "http://www.w3.org/Graphics/SVG/1.1/DTD/svg11.dtd"><svg xmlns:xlink="http://www.w3.org/1999/xlink" version="1.1" class="highcharts-root" style="font-family:Arial;font-size:12px;" xmlns="http://www.w3.org/2000/svg" viewBox="0 0 485 415"><desc>Created with Highcharts 8.2.0</desc><defs><clipPath id="highcharts-jtpegdr-251-"><rect x="0" y="0" width="438" height="247" fill="none"></rect></clipPath><clipPath id="highcharts-jtpegdr-313-"><rect x="0" y="0" width="438" height="247" fill="none"></rect></clipPath><clipPath id="highcharts-jtpegdr-497-"><rect x="37" y="119" width="438" height="247" fill="none"></rect></clipPath></defs><rect fill="#fbfbfb" class="highcharts-background" x="0" y="0" width="485" height="428" rx="0" ry="0"></rect><rect fill="none" class="highcharts-plot-background" x="37" y="119" width="438" height="247"></rect><g class="highcharts-pane-group" data-z-index="0"></g><g class="highcharts-grid highcharts-xaxis-grid" data-z-index="1"><path fill="none" data-z-index="1" class="highcharts-grid-line" d="M 76.5 119 L 76.5 366" opacity="1"></path><path fill="none" data-z-index="1" class="highcharts-grid-line" d="M 148.5 119 L 148.5 366" opacity="1"></path><path fill="none" data-z-index="1" class="highcharts-grid-line" d="M 219.5 119 L 219.5 366" opacity="1"></path><path fill="none" data-z-index="1" class="highcharts-grid-line" d="M 291.5 119 L 291.5 366" opacity="1"></path><path fill="none" data-z-index="1" class="highcharts-grid-line" d="M 362.5 119 L 362.5 366" opacity="1"></path><path fill="none" data-z-index="1" class="highcharts-grid-line" d="M 434.5 119 L 434.5 366" opacity="1"></path></g><g class="highcharts-grid highcharts-yaxis-grid" data-z-index="1"><path fill="none" stroke="#B9CFD7" stroke-width="0.5" data-z-index="1" class="highcharts-grid-line" d="M 37 366.25 L 475 366.25" opacity="1"></path><path fill="none" stroke="#B9CFD7" stroke-width="0.5" data-z-index="1" class="highcharts-grid-line" d="M 37 317.25 L 475 317.25" opacity="1"></path><path fill="none" stroke="#B9CFD7" stroke-width="0.5" data-z-index="1" class="highcharts-grid-line" d="M 37 267.25 L 475 267.25" opacity="1"></path><path fill="none" stroke="#B9CFD7" stroke-width="0.5" data-z-index="1" class="highcharts-grid-line" d="M 37 218.25 L 475 218.25" opacity="1"></path><path fill="none" stroke="#B9CFD7" stroke-width="0.5" data-z-index="1" class="highcharts-grid-line" d="M 37 168.25 L 475 168.25" opacity="1"></path><path fill="none" stroke="#B9CFD7" stroke-width="0.5" data-z-index="1" class="highcharts-grid-line" d="M 37 118.75 L 475 118.75" opacity="1"></path></g><rect fill="none" class="highcharts-plot-border" data-z-index="1" x="37" y="119" width="438" height="247"></rect><g class="highcharts-axis highcharts-xaxis" data-z-index="2"><path fill="none" class="highcharts-axis-line" stroke="#B9CFD7" stroke-width="0.5" data-z-index="7" d="M 37 366.25 L 475 366.25"></path></g><g class="highcharts-axis highcharts-yaxis" data-z-index="2"><path fill="none" class="highcharts-axis-line" data-z-index="7" d="M 37 119 L 37 366"></path></g><g class="highcharts-series-group" data-z-index="3"><g class="highcharts-series highcharts-series-0 highcharts-line-series" data-z-index="0.1" opacity="1" transform="translate(37,119) scale(1 1)" clip-path="url(#highcharts-jtpegdr-313-)"><path fill="none" d="M 4.2941176470582 58.54887999999997 L 11.450980392156 55.416920000000005 L 18.607843137254 53.119819999999976 L 25.764705882352 51.025259999999975 L 32.92156862745 49.98785999999998 L 40.078431372548 52.94197999999997 L 47.235294117647 52.29978 L 54.392156862745 52.946920000000006 L 61.549019607843 53.44586000000001 L 68.705882352941 52.99632 L 75.862745098039 51.85517999999999 L 83.019607843137 50.13112000000001 L 90.176470588235 48.555259999999976 L 97.333333333333 46.75710000000001 L 104.49019607843 45.12195999999997 L 111.64705882353 43.92648 L 118.80392156863 42.32591999999997 L 125.96078431373 41.95047999999997 L 133.11764705882 41.481179999999966 L 140.27450980392 41.15513999999999 L 147.43137254902 39.599039999999974 L 154.58823529412 38.61597999999998 L 161.74509803922 38.448019999999985 L 168.90196078431 39.55951999999999 L 176.05882352941 39.81145999999998 L 183.21568627451 38.86792 L 190.37254901961 39.37179999999998 L 197.52941176471 39.57434000000001 L 204.6862745098 39.42119999999997 L 211.8431372549 41.08104 L 219 42.2123 L 226.1568627451 43.08173999999997 L 233.3137254902 44.14877999999996 L 240.47058823529 44.23769999999999 L 247.62745098039 42.65689999999998 L 254.78431372549 41.985060000000004 L 261.94117647059 41.19465999999997 L 269.09803921569 41.703479999999985 L 276.25490196078 41.64913999999996 L 283.41176470588 41.89614" class="highcharts-graph" data-z-index="1" stroke="#007A2F" stroke-width="2" stroke-linejoin="round" stroke-linecap="round"></path></g><g class="highcharts-markers highcharts-series-0 highcharts-line-series" data-z-index="0.1" opacity="1" transform="translate(37,119) scale(1 1)" clip-path="none"></g><g class="highcharts-series highcharts-series-1 highcharts-line-series" data-z-index="0.1" opacity="1" transform="translate(37,119) scale(1 1)" clip-path="url(#highcharts-jtpegdr-313-)"><path fill="none" d="M 290.56862745098 43.476939999999985 L 297.72549019608 43.53127999999998 L 304.88235294118 43.58068 L 312.03921568627 43.63501999999997 L 319.19607843137 43.68441999999999 L 326.35294117647 43.73381999999998 L 333.50980392157 43.788159999999976 L 340.66666666667 43.837559999999996 L 347.82352941177 43.88695999999999 L 354.98039215686 43.94130000000001 L 362.13725490196 43.990699999999975 L 369.29411764706 44.04009999999997 L 376.45098039216 44.09443999999999 L 383.60784313726 44.14383999999998 L 390.76470588235 44.193239999999975 L 397.92156862745 44.24758 L 405.07843137255 44.29697999999999 L 412.23529411765 44.34637999999998 L 419.39215686275 44.40071999999998 L 426.54901960784 44.45011999999997 L 433.70588235294 44.504459999999995" class="highcharts-graph" data-z-index="1" stroke="#923F8D" stroke-width="2" stroke-linejoin="round" stroke-linecap="round"></path></g><g class="highcharts-markers highcharts-series-1 highcharts-line-series" data-z-index="0.1" opacity="1" transform="translate(37,119) scale(1 1)" clip-path="none"></g><g class="highcharts-series highcharts-series-2 highcharts-line-series" data-z-index="0.1" opacity="1" transform="translate(37,119) scale(1 1)" clip-path="url(#highcharts-jtpegdr-313-)"><path fill="none" d="M 290.56862745098 41.673839999999984 L 297.72549019608 41.451539999999966 L 304.88235294118 41.23417999999998 L 312.03921568627 41.01187999999999 L 319.19607843137 40.78957999999997 L 326.35294117647 40.56728000000001 L 333.50980392157 40.34497999999999 L 340.66666666667 40.12761999999998 L 347.82352941177 39.90531999999999 L 354.98039215686 39.68302 L 362.13725490196 39.46071999999998 L 369.29411764706 39.243359999999996 L 376.45098039216 39.02105999999998 L 383.60784313726 38.79875999999999 L 390.76470588235 38.57645999999997 L 397.92156862745 38.35416000000001 L 405.07843137255 38.136799999999965 L 412.23529411765 37.914499999999975 L 419.39215686275 37.692199999999985 L 426.54901960784 37.469899999999996 L 433.70588235294 37.24759999999998" class="highcharts-graph" data-z-index="1" stroke="#DC440E" stroke-width="2" stroke-linejoin="round" stroke-linecap="round"></path></g><g class="highcharts-markers highcharts-series-2 highcharts-line-series" data-z-index="0.1" opacity="1" transform="translate(37,119) scale(1 1)" clip-path="none"></g><g class="highcharts-series highcharts-series-3 highcharts-line-series" data-z-index="0.1" opacity="1" transform="translate(37,119) scale(1 1)" clip-path="url(#highcharts-jtpegdr-313-)"><path fill="none" d="M 290.56862745098 39.46565999999996 L 297.72549019608 38.57645999999997 L 304.88235294118 37.68725999999998 L 312.03921568627 36.798059999999964 L 319.19607843137 35.908859999999976 L 326.35294117647 35.01965999999999 L 333.50980392157 34.13045999999997 L 340.66666666667 33.23631999999998 L 347.82352941177 32.34711999999999 L 354.98039215686 31.45792 L 362.13725490196 30.568719999999985 L 369.29411764706 29.679519999999997 L 376.45098039216 28.79032000000001 L 383.60784313726 27.90111999999999 L 390.76470588235 27.011920000000003 L 397.92156862745 26.117779999999982 L 405.07843137255 25.228579999999965 L 412.23529411765 24.339379999999977 L 419.39215686275 23.45017999999999 L 426.54901960784 22.560979999999972 L 433.70588235294 21.671779999999984" class="highcharts-graph" data-z-index="1" stroke="#FFDA80" stroke-width="2" stroke-linejoin="round" stroke-linecap="round"></path></g><g class="highcharts-markers highcharts-series-3 highcharts-line-series" data-z-index="0.1" opacity="1" transform="translate(37,119) scale(1 1)" clip-path="none"></g></g><text x="10" text-anchor="start" class="highcharts-title" data-z-index="4" style="color:#000000;font-size:14px;font-weight:bold;fill:#000000;" y="21"><tspan>Wohnflächenverbrauch pro Person</tspan></text><text x="10" text-anchor="start" class="highcharts-subtitle" data-z-index="4" style="color:#000000;font-size:12px;font-weight:normal;fill:#000000;" y="40"><tspan>in m² pro Kopf, Bevölkerungsszenarien Basel-Stadt, 2025</tspan></text><text x="10" text-anchor="start" class="highcharts-caption" data-z-index="4" style="color:#666666;fill:#666666;" y="400"></text><g class="highcharts-legend" data-z-index="7" transform="translate(29,56)"><rect fill="none" class="highcharts-legend-box" rx="0" ry="0" x="0" y="0" width="296" height="51" visibility="visible"></rect><g data-z-index="1"><g><g class="highcharts-legend-item highcharts-line-series highcharts-color-undefined highcharts-series-0" data-z-index="1" transform="translate(8,3)"><path fill="none" d="M 0 11 L 16 11" class="highcharts-graph" stroke="#007A2F" stroke-width="2"></path><text x="21" style="color:#333333;cursor:pointer;font-size:12px;font-weight:normal;fill:#333333;" text-anchor="start" data-z-index="2" y="15"><tspan>Effektiv</tspan></text></g><g class="highcharts-legend-item highcharts-line-series highcharts-color-undefined highcharts-series-1" data-z-index="1" transform="translate(158,3)"><path fill="none" d="M 0 11 L 16 11" class="highcharts-graph" stroke="#923F8D" stroke-width="2"></path><text x="21" y="15" style="color:#333333;cursor:pointer;font-size:12px;font-weight:normal;fill:#333333;" text-anchor="start" data-z-index="2"><tspan>Hohes Szenario</tspan></text></g><g class="highcharts-legend-item highcharts-line-series highcharts-color-undefined highcharts-series-2" data-z-index="1" transform="translate(8,23)"><path fill="none" d="M 0 11 L 16 11" class="highcharts-graph" stroke="#DC440E" stroke-width="2"></path><text x="21" y="15" style="color:#333333;cursor:pointer;font-size:12px;font-weight:normal;fill:#333333;" text-anchor="start" data-z-index="2"><tspan>Mittleres Szenario</tspan></text></g><g class="highcharts-legend-item highcharts-line-series highcharts-color-undefined highcharts-series-3" data-z-index="1" transform="translate(158,23)"><path fill="none" d="M 0 11 L 16 11" class="highcharts-graph" stroke="#FFDA80" stroke-width="2"></path><text x="21" y="15" style="color:#333333;cursor:pointer;font-size:12px;font-weight:normal;fill:#333333;" text-anchor="start" data-z-index="2"><tspan>Tiefes Szenario</tspan></text></g></g></g></g><g class="highcharts-axis-labels highcharts-xaxis-labels" data-z-index="7"><text x="77.078431372548" style="color:#000000;cursor:default;font-size:11px;fill:#000000;" text-anchor="middle" transform="translate(0,0)" y="385" opacity="1">1990</text><text x="148.64705882353" style="color:#000000;cursor:default;font-size:11px;fill:#000000;" text-anchor="middle" transform="translate(0,0)" y="385" opacity="1">2000</text><text x="220.21568627451" style="color:#000000;cursor:default;font-size:11px;fill:#000000;" text-anchor="middle" transform="translate(0,0)" y="385" opacity="1">2010</text><text x="291.78431372549" style="color:#000000;cursor:default;font-size:11px;fill:#000000;" text-anchor="middle" transform="translate(0,0)" y="385" opacity="1">2020</text><text x="363.35294117647" style="color:#000000;cursor:default;font-size:11px;fill:#000000;" text-anchor="middle" transform="translate(0,0)" y="385" opacity="1">2030</text><text x="434.92156862745" style="color:#000000;cursor:default;font-size:11px;fill:#000000;" text-anchor="middle" transform="translate(0,0)" y="385" opacity="1">2040</text></g><g class="highcharts-axis-labels highcharts-yaxis-labels" data-z-index="7"><text x="22" style="color:#000000;cursor:default;font-size:11px;fill:#000000;" text-anchor="end" transform="translate(0,0)" y="370" opacity="1">0</text><text x="22" style="color:#000000;cursor:default;font-size:11px;fill:#000000;" text-anchor="end" transform="translate(0,0)" y="321" opacity="1">10</text><text x="22" style="color:#000000;cursor:default;font-size:11px;fill:#000000;" text-anchor="end" transform="translate(0,0)" y="271" opacity="1">20</text><text x="22" style="color:#000000;cursor:default;font-size:11px;fill:#000000;" text-anchor="end" transform="translate(0,0)" y="222" opacity="1">30</text><text x="22" style="color:#000000;cursor:default;font-size:11px;fill:#000000;" text-anchor="end" transform="translate(0,0)" y="172" opacity="1">40</text><text x="22" style="color:#000000;cursor:default;font-size:11px;fill:#000000;" text-anchor="end" transform="translate(0,0)" y="123" opacity="1">50</text></g><text x="10" class="highcharts-credits" text-anchor="start" data-z-index="8" style="cursor:default;color:#000000;font-size:10px;fill:#000000;" y="403"><tspan>Quelle: Statistisches Amt Basel-Stadt, Bevölkerungsszenarien.</tspan><tspan x="10" dy="13">Zuletzt geändert: 15.7.2025</tspan></text><g class="highcharts-control-points" data-z-index="99" clip-path="url(#highcharts-jtpegdr-497-)"></g></svg>