<?xml version="1.0" standalone="no"?><!DOCTYPE svg PUBLIC "-//W3C//DTD SVG 1.1//EN" "http://www.w3.org/Graphics/SVG/1.1/DTD/svg11.dtd"><svg xmlns:xlink="http://www.w3.org/1999/xlink" version="1.1" class="highcharts-root" style="font-family:Arial;font-size:12px;" xmlns="http://www.w3.org/2000/svg" viewBox="0 0 485 415"><desc>Created with Highcharts 8.2.0</desc><defs><clipPath id="highcharts-7yb08rz-251-"><rect x="0" y="0" width="417" height="247" fill="none"></rect></clipPath><clipPath id="highcharts-7yb08rz-313-"><rect x="0" y="0" width="417" height="247" fill="none"></rect></clipPath><clipPath id="highcharts-7yb08rz-497-"><rect x="58" y="119" width="417" height="247" fill="none"></rect></clipPath></defs><rect fill="#fbfbfb" class="highcharts-background" x="0" y="0" width="485" height="428" rx="0" ry="0"></rect><rect fill="none" class="highcharts-plot-background" x="58" y="119" width="417" height="247"></rect><g class="highcharts-pane-group" data-z-index="0"></g><g class="highcharts-grid highcharts-xaxis-grid" data-z-index="1"><path fill="none" data-z-index="1" class="highcharts-grid-line" d="M 95.5 119 L 95.5 366" opacity="1"></path><path fill="none" data-z-index="1" class="highcharts-grid-line" d="M 163.5 119 L 163.5 366" opacity="1"></path><path fill="none" data-z-index="1" class="highcharts-grid-line" d="M 231.5 119 L 231.5 366" opacity="1"></path><path fill="none" data-z-index="1" class="highcharts-grid-line" d="M 300.5 119 L 300.5 366" opacity="1"></path><path fill="none" data-z-index="1" class="highcharts-grid-line" d="M 368.5 119 L 368.5 366" opacity="1"></path><path fill="none" data-z-index="1" class="highcharts-grid-line" d="M 436.5 119 L 436.5 366" opacity="1"></path></g><g class="highcharts-grid highcharts-yaxis-grid" data-z-index="1"><path fill="none" stroke="#B9CFD7" stroke-width="0.5" data-z-index="1" class="highcharts-grid-line" d="M 58 366.25 L 475 366.25" opacity="1"></path><path fill="none" stroke="#B9CFD7" stroke-width="0.5" data-z-index="1" class="highcharts-grid-line" d="M 58 317.25 L 475 317.25" opacity="1"></path><path fill="none" stroke="#B9CFD7" stroke-width="0.5" data-z-index="1" class="highcharts-grid-line" d="M 58 267.25 L 475 267.25" opacity="1"></path><path fill="none" stroke="#B9CFD7" stroke-width="0.5" data-z-index="1" class="highcharts-grid-line" d="M 58 218.25 L 475 218.25" opacity="1"></path><path fill="none" stroke="#B9CFD7" stroke-width="0.5" data-z-index="1" class="highcharts-grid-line" d="M 58 168.25 L 475 168.25" opacity="1"></path><path fill="none" stroke="#B9CFD7" stroke-width="0.5" data-z-index="1" class="highcharts-grid-line" d="M 58 118.75 L 475 118.75" opacity="1"></path></g><rect fill="none" class="highcharts-plot-border" data-z-index="1" x="58" y="119" width="417" height="247"></rect><g class="highcharts-axis highcharts-xaxis" data-z-index="2"><path fill="none" class="highcharts-axis-line" stroke="#B9CFD7" stroke-width="0.5" data-z-index="7" d="M 58 366.25 L 475 366.25"></path></g><g class="highcharts-axis highcharts-yaxis" data-z-index="2"><path fill="none" class="highcharts-axis-line" data-z-index="7" d="M 58 119 L 58 366"></path></g><g class="highcharts-series-group" data-z-index="3"><g class="highcharts-series highcharts-series-0 highcharts-line-series" data-z-index="0.1" opacity="1" transform="translate(58,119) scale(1 1)" clip-path="url(#highcharts-7yb08rz-313-)"><path fill="none" d="M 4.088235294117 83.45142000000001 L 10.901960784313 88.59396000000001 L 17.715686274509 91.61724000000001 L 24.529411764705 93.54383999999999 L 31.343137254901 94.44785999999999 L 38.156862745098 93.03502 L 44.970588235294 88.75698 L 51.78431372549 86.17830000000001 L 58.598039215686 82.31522000000001 L 65.411764705882 81.23830000000001 L 72.225490196078 80.65044 L 79.039215686274 80.48248000000001 L 85.85294117647 81.44084000000001 L 92.666666666666 82.34979999999999 L 99.480392156862 83.4366 L 106.29411764706 86.96376000000001 L 113.10784313725 87.69981999999999 L 119.92156862745 87.81837999999999 L 126.73529411765 88.28273999999999 L 133.54901960784 90.19452000000001 L 140.36274509804 91.9828 L 147.17647058824 93.52408 L 153.99019607843 94.91221999999999 L 160.80392156863 93.98844 L 167.61764705882 94.26508000000001 L 174.43137254902 93.60311999999999 L 181.24509803922 92.90657999999999 L 188.05882352941 91.40976 L 194.87254901961 89.72028 L 201.6862745098 88.66311999999999 L 208.5 86.44999999999999 L 215.3137254902 84.60738 L 222.12745098039 82.48812000000001 L 228.94117647059 79.94896 L 235.75490196078 80.04776000000001 L 242.56862745098 78.37804 L 249.38235294118 76.42674 L 256.19607843137 72.51426000000001 L 263.00980392157 70.15294" class="highcharts-graph" data-z-index="1" stroke="#007A2F" stroke-width="2" stroke-linejoin="round" stroke-linecap="round"></path></g><g class="highcharts-markers highcharts-series-0 highcharts-line-series" data-z-index="0.1" opacity="1" transform="translate(58,119) scale(1 1)" clip-path="none"></g><g class="highcharts-series highcharts-series-1 highcharts-line-series" data-z-index="0.1" opacity="1" transform="translate(58,119) scale(1 1)" clip-path="url(#highcharts-7yb08rz-313-)"><path fill="none" d="M 269.82352941176 67.74222 L 276.63725490196 65.91936000000001 L 283.45098039216 64.31386 L 290.26470588235 62.792339999999996 L 297.07843137255 61.35973999999999 L 303.89215686275 59.769059999999996 L 310.70588235294 58.1191 L 317.51960784314 55.98501999999999 L 324.33333333333 53.98432 L 331.14705882353 51.4007 L 337.96078431373 49.05420000000001 L 344.77450980392 46.79661999999999 L 351.58823529412 44.593379999999996 L 358.40196078431 42.47412 L 365.21568627451 40.280760000000015 L 372.02941176471 38.31464 L 378.8431372549 36.33864 L 385.6568627451 34.81711999999999 L 392.47058823529 32.93992 L 399.28431372549 31.314660000000003 L 406.09803921569 30.267380000000003 L 412.91176470588 29.40288000000001" class="highcharts-graph" data-z-index="1" stroke="#923F8D" stroke-width="2" stroke-linejoin="round" stroke-linecap="round"></path></g><g class="highcharts-markers highcharts-series-1 highcharts-line-series" data-z-index="0.1" opacity="1" transform="translate(58,119) scale(1 1)" clip-path="none"></g><g class="highcharts-series highcharts-series-2 highcharts-line-series" data-z-index="0.1" opacity="1" transform="translate(58,119) scale(1 1)" clip-path="url(#highcharts-7yb08rz-313-)"><path fill="none" d="M 269.82352941176 68.88336000000001 L 276.63725490196 68.20658 L 283.45098039216 67.75210000000001 L 290.26470588235 67.40630000000002 L 297.07843137255 67.2087 L 303.89215686275 66.94688 L 310.70588235294 66.74928 L 317.51960784314 66.20094 L 324.33333333333 65.92924 L 331.14705882353 65.18824000000001 L 337.96078431373 64.77328 L 344.77450980392 64.48676 L 351.58823529412 64.25458 L 358.40196078431 64.08168 L 365.21568627451 63.760580000000004 L 372.02941176471 63.59262000000001 L 378.8431372549 63.315979999999996 L 385.6568627451 63.4049 L 392.47058823529 63.014640000000014 L 399.28431372549 62.772580000000005 L 406.09803921569 62.76764 L 412.91176470588 62.81703999999999" class="highcharts-graph" data-z-index="1" stroke="#DC440E" stroke-width="2" stroke-linejoin="round" stroke-linecap="round"></path></g><g class="highcharts-markers highcharts-series-2 highcharts-line-series" data-z-index="0.1" opacity="1" transform="translate(58,119) scale(1 1)" clip-path="none"></g><g class="highcharts-series highcharts-series-3 highcharts-line-series" data-z-index="0.1" opacity="1" transform="translate(58,119) scale(1 1)" clip-path="url(#highcharts-7yb08rz-313-)"><path fill="none" d="M 269.82352941176 70.14305999999999 L 276.63725490196 70.7655 L 283.45098039216 71.65964 L 290.26470588235 72.70692 L 297.07843137255 73.98143999999999 L 303.89215686275 75.29548 L 310.70588235294 76.79230000000001 L 317.51960784314 78.07669999999999 L 324.33333333333 79.74642 L 331.14705882353 81.03576000000001 L 337.96078431373 82.70053999999999 L 344.77450980392 84.49376000000001 L 351.58823529412 86.30673999999999 L 358.40196078431 88.10490000000001 L 365.21568627451 89.65606 L 372.02941176471 91.24180000000001 L 378.8431372549 92.6003 L 385.6568627451 94.21074000000002 L 392.47058823529 95.19874000000002 L 399.28431372549 96.22626 L 406.09803921569 97.11546000000001 L 412.91176470588 97.93549999999999" class="highcharts-graph" data-z-index="1" stroke="#FFDA80" stroke-width="2" stroke-linejoin="round" stroke-linecap="round"></path></g><g class="highcharts-markers highcharts-series-3 highcharts-line-series" data-z-index="0.1" opacity="1" transform="translate(58,119) scale(1 1)" clip-path="none"></g></g><text x="10" text-anchor="start" class="highcharts-title" data-z-index="4" style="color:#000000;font-size:14px;font-weight:bold;fill:#000000;" y="21"><tspan>Bevölkerung zwischen 0 und 19 Jahren</tspan></text><text x="10" text-anchor="start" class="highcharts-subtitle" data-z-index="4" style="color:#000000;font-size:12px;font-weight:normal;fill:#000000;" y="40"><tspan>Bevölkerungsszenarien Basel-Stadt, 2024</tspan></text><text x="10" text-anchor="start" class="highcharts-caption" data-z-index="4" style="color:#666666;fill:#666666;" y="400"></text><g class="highcharts-legend" data-z-index="7" transform="translate(50,56)"><rect fill="none" class="highcharts-legend-box" rx="0" ry="0" x="0" y="0" width="296" height="51" visibility="visible"></rect><g data-z-index="1"><g><g class="highcharts-legend-item highcharts-line-series highcharts-color-undefined highcharts-series-0" data-z-index="1" transform="translate(8,3)"><path fill="none" d="M 0 11 L 16 11" class="highcharts-graph" stroke="#007A2F" stroke-width="2"></path><text x="21" style="color:#333333;cursor:pointer;font-size:12px;font-weight:normal;fill:#333333;" text-anchor="start" data-z-index="2" y="15"><tspan>Effektiv</tspan></text></g><g class="highcharts-legend-item highcharts-line-series highcharts-color-undefined highcharts-series-1" data-z-index="1" transform="translate(158,3)"><path fill="none" d="M 0 11 L 16 11" class="highcharts-graph" stroke="#923F8D" stroke-width="2"></path><text x="21" y="15" style="color:#333333;cursor:pointer;font-size:12px;font-weight:normal;fill:#333333;" text-anchor="start" data-z-index="2"><tspan>Hohes Szenario</tspan></text></g><g class="highcharts-legend-item highcharts-line-series highcharts-color-undefined highcharts-series-2" data-z-index="1" transform="translate(8,23)"><path fill="none" d="M 0 11 L 16 11" class="highcharts-graph" stroke="#DC440E" stroke-width="2"></path><text x="21" y="15" style="color:#333333;cursor:pointer;font-size:12px;font-weight:normal;fill:#333333;" text-anchor="start" data-z-index="2"><tspan>Mittleres Szenario</tspan></text></g><g class="highcharts-legend-item highcharts-line-series highcharts-color-undefined highcharts-series-3" data-z-index="1" transform="translate(158,23)"><path fill="none" d="M 0 11 L 16 11" class="highcharts-graph" stroke="#FFDA80" stroke-width="2"></path><text x="21" y="15" style="color:#333333;cursor:pointer;font-size:12px;font-weight:normal;fill:#333333;" text-anchor="start" data-z-index="2"><tspan>Tiefes Szenario</tspan></text></g></g></g></g><g class="highcharts-axis-labels highcharts-xaxis-labels" data-z-index="7"><text x="96.156862745098" style="color:#000000;cursor:default;font-size:11px;fill:#000000;" text-anchor="middle" transform="translate(0,0)" y="385" opacity="1">1990</text><text x="164.29411764706" style="color:#000000;cursor:default;font-size:11px;fill:#000000;" text-anchor="middle" transform="translate(0,0)" y="385" opacity="1">2000</text><text x="232.43137254902" style="color:#000000;cursor:default;font-size:11px;fill:#000000;" text-anchor="middle" transform="translate(0,0)" y="385" opacity="1">2010</text><text x="300.56862745098" style="color:#000000;cursor:default;font-size:11px;fill:#000000;" text-anchor="middle" transform="translate(0,0)" y="385" opacity="1">2020</text><text x="368.70588235294" style="color:#000000;cursor:default;font-size:11px;fill:#000000;" text-anchor="middle" transform="translate(0,0)" y="385" opacity="1">2030</text><text x="436.8431372549" style="color:#000000;cursor:default;font-size:11px;fill:#000000;" text-anchor="middle" transform="translate(0,0)" y="385" opacity="1">2040</text></g><g class="highcharts-axis-labels highcharts-yaxis-labels" data-z-index="7"><text x="43" style="color:#000000;cursor:default;font-size:11px;fill:#000000;" text-anchor="end" transform="translate(0,0)" y="370" opacity="1">0</text><text x="43" style="color:#000000;cursor:default;font-size:11px;fill:#000000;" text-anchor="end" transform="translate(0,0)" y="321" opacity="1"><tspan>10 000</tspan></text><text x="43" style="color:#000000;cursor:default;font-size:11px;fill:#000000;" text-anchor="end" transform="translate(0,0)" y="271" opacity="1"><tspan>20 000</tspan></text><text x="43" style="color:#000000;cursor:default;font-size:11px;fill:#000000;" text-anchor="end" transform="translate(0,0)" y="222" opacity="1"><tspan>30 000</tspan></text><text x="43" style="color:#000000;cursor:default;font-size:11px;fill:#000000;" text-anchor="end" transform="translate(0,0)" y="172" opacity="1"><tspan>40 000</tspan></text><text x="43" style="color:#000000;cursor:default;font-size:11px;fill:#000000;" text-anchor="end" transform="translate(0,0)" y="123" opacity="1"><tspan>50 000</tspan></text></g><text x="10" class="highcharts-credits" text-anchor="start" data-z-index="8" style="cursor:default;color:#000000;font-size:10px;fill:#000000;" y="403"><tspan>Quelle: Statistisches Amt Basel-Stadt, Bevölkerungsszenarien.</tspan><tspan x="10" dy="13">Zuletzt geändert: 15.7.2024</tspan></text><g class="highcharts-control-points" data-z-index="99" clip-path="url(#highcharts-7yb08rz-497-)"></g></svg>