<svg version="1.1" class="highcharts-root" style="font-family: Inter, &quot;Helvetica Neue&quot;, Helvetica, Arial, sans-serif; font-size: 1rem;" xmlns="http://www.w3.org/2000/svg" width="600" height="400" viewBox="0 0 600 400" role="img" aria-label="Nettoerwerbsquote der 15- bis 64-Jährigen"><desc>Created with Highcharts 12.5.0</desc><defs><filter id="highcharts-drop-shadow-0"><feDropShadow dx="1" dy="1" flood-color="#000000" flood-opacity="0.75" stdDeviation="2.5"></feDropShadow></filter><clipPath id="highcharts-2qws862-21-"><rect x="0" y="0" width="532" height="157" fill="none"></rect></clipPath></defs><rect fill="#ffffff" class="highcharts-background" filter="none" x="0" y="0" width="600" height="400" rx="0" ry="0"></rect><rect fill="none" class="highcharts-plot-background" x="58" y="173" width="532" height="157" filter="none"></rect><g class="highcharts-pane-group" data-z-index="0"></g><g class="highcharts-grid highcharts-xaxis-grid" data-z-index="1"><path fill="none" stroke="#e6e6e6" stroke-width="0" stroke-dasharray="none" data-z-index="1" class="highcharts-grid-line" d="M 164.5 173 L 164.5 330" opacity="1"></path><path fill="none" stroke="#e6e6e6" stroke-width="0" stroke-dasharray="none" data-z-index="1" class="highcharts-grid-line" d="M 270.5 173 L 270.5 330" opacity="1"></path><path fill="none" stroke="#e6e6e6" stroke-width="0" stroke-dasharray="none" data-z-index="1" class="highcharts-grid-line" d="M 377.5 173 L 377.5 330" opacity="1"></path><path fill="none" stroke="#e6e6e6" stroke-width="0" stroke-dasharray="none" data-z-index="1" class="highcharts-grid-line" d="M 483.5 173 L 483.5 330" opacity="1"></path><path fill="none" stroke="#e6e6e6" stroke-width="0" stroke-dasharray="none" data-z-index="1" class="highcharts-grid-line" d="M 590.5 173 L 590.5 330" opacity="1"></path><path fill="none" stroke="#e6e6e6" stroke-width="0" stroke-dasharray="none" data-z-index="1" class="highcharts-grid-line" d="M 58.5 173 L 58.5 330" opacity="1"></path></g><g class="highcharts-grid highcharts-yaxis-grid" data-z-index="1"><path fill="none" stroke="#B9CFD7" stroke-width="0.5" stroke-dasharray="none" data-z-index="1" class="highcharts-grid-line" d="M 58 330.25 L 590 330.25" opacity="1"></path><path fill="none" stroke="#B9CFD7" stroke-width="0.5" stroke-dasharray="none" data-z-index="1" class="highcharts-grid-line" d="M 58 298.25 L 590 298.25" opacity="1"></path><path fill="none" stroke="#B9CFD7" stroke-width="0.5" stroke-dasharray="none" data-z-index="1" class="highcharts-grid-line" d="M 58 267.25 L 590 267.25" opacity="1"></path><path fill="none" stroke="#B9CFD7" stroke-width="0.5" stroke-dasharray="none" data-z-index="1" class="highcharts-grid-line" d="M 58 236.25 L 590 236.25" opacity="1"></path><path fill="none" stroke="#B9CFD7" stroke-width="0.5" stroke-dasharray="none" data-z-index="1" class="highcharts-grid-line" d="M 58 204.25 L 590 204.25" opacity="1"></path><path fill="none" stroke="#B9CFD7" stroke-width="0.5" stroke-dasharray="none" data-z-index="1" class="highcharts-grid-line" d="M 58 173.25 L 590 173.25" opacity="1"></path></g><rect fill="none" class="highcharts-plot-border" data-z-index="1" stroke="#cccccc" stroke-width="0" x="58" y="173" width="532" height="157"></rect><g class="highcharts-axis highcharts-xaxis" data-z-index="2"><path fill="none" class="highcharts-axis-line" stroke="#B9CFD7" stroke-width="0.5" data-z-index="7" d="M 58 330.25 L 590 330.25"></path></g><g class="highcharts-axis highcharts-yaxis" data-z-index="2"><path fill="none" class="highcharts-axis-line" stroke="#B9CFD7" stroke-width="0" data-z-index="7" d="M 58 173 L 58 330"></path></g><g class="highcharts-series-group" data-z-index="3" filter="none"><g class="highcharts-series highcharts-series-0 highcharts-column-series highcharts-tracker" data-z-index="0.1" opacity="1" transform="translate(58,173) scale(1 1)" clip-path="url(#highcharts-2qws862-21-)"><path fill="#73B97C" d="M 24 34 L 32 34 A 3 3 0 0 1 35 37 L 35 157 A 0 0 0 0 1 35 157 L 21 157 A 0 0 0 0 1 21 157 L 21 37 A 3 3 0 0 1 24 34 Z" stroke="#ffffff" stroke-width="0" opacity="1" filter="none" class="highcharts-point"></path><path fill="#73B97C" d="M 130 26 L 138 26 A 3 3 0 0 1 141 29 L 141 157 A 0 0 0 0 1 141 157 L 127 157 A 0 0 0 0 1 127 157 L 127 29 A 3 3 0 0 1 130 26 Z" stroke="#ffffff" stroke-width="0" opacity="1" filter="none" class="highcharts-point"></path><path fill="#73B97C" d="M 236 36 L 244 36 A 3 3 0 0 1 247 39 L 247 157 A 0 0 0 0 1 247 157 L 233 157 A 0 0 0 0 1 233 157 L 233 39 A 3 3 0 0 1 236 36 Z" stroke="#ffffff" stroke-width="0" opacity="1" filter="none" class="highcharts-point"></path><path fill="#73B97C" d="M 343 36 L 351 36 A 3 3 0 0 1 354 39 L 354 157 A 0 0 0 0 1 354 157 L 340 157 A 0 0 0 0 1 340 157 L 340 39 A 3 3 0 0 1 343 36 Z" stroke="#ffffff" stroke-width="0" opacity="1" filter="none" class="highcharts-point"></path><path fill="#73B97C" d="M 449 27 L 457 27 A 3 3 0 0 1 460 30 L 460 157 A 0 0 0 0 1 460 157 L 446 157 A 0 0 0 0 1 446 157 L 446 30 A 3 3 0 0 1 449 27 Z" stroke="#ffffff" stroke-width="0" opacity="1" filter="none" class="highcharts-point"></path></g><g class="highcharts-markers highcharts-series-0 highcharts-column-series" data-z-index="0.1" opacity="1" transform="translate(58,173) scale(1 1)" clip-path="none"></g><g class="highcharts-series highcharts-series-1 highcharts-column-series highcharts-tracker" data-z-index="0.1" opacity="1" transform="translate(58,173) scale(1 1)" clip-path="url(#highcharts-2qws862-21-)"><path fill="#FFBB58" d="M 36 35 L 44 35 A 3 3 0 0 1 47 38 L 47 157 A 0 0 0 0 1 47 157 L 33 157 A 0 0 0 0 1 33 157 L 33 38 A 3 3 0 0 1 36 35 Z" stroke="#ffffff" stroke-width="0" opacity="1" filter="none" class="highcharts-point"></path><path fill="#FFBB58" d="M 143 24 L 151 24 A 3 3 0 0 1 154 27 L 154 157 A 0 0 0 0 1 154 157 L 140 157 A 0 0 0 0 1 140 157 L 140 27 A 3 3 0 0 1 143 24 Z" stroke="#ffffff" stroke-width="0" opacity="1" filter="none" class="highcharts-point"></path><path fill="#FFBB58" d="M 249 39 L 257 39 A 3 3 0 0 1 260 42 L 260 157 A 0 0 0 0 1 260 157 L 246 157 A 0 0 0 0 1 246 157 L 246 42 A 3 3 0 0 1 249 39 Z" stroke="#ffffff" stroke-width="0" opacity="1" filter="none" class="highcharts-point"></path><path fill="#FFBB58" d="M 356 37 L 364 37 A 3 3 0 0 1 367 40 L 367 157 A 0 0 0 0 1 367 157 L 353 157 A 0 0 0 0 1 353 157 L 353 40 A 3 3 0 0 1 356 37 Z" stroke="#ffffff" stroke-width="0" opacity="1" filter="none" class="highcharts-point"></path><path fill="#FFBB58" d="M 462 25 L 470 25 A 3 3 0 0 1 473 28 L 473 157 A 0 0 0 0 1 473 157 L 459 157 A 0 0 0 0 1 459 157 L 459 28 A 3 3 0 0 1 462 25 Z" stroke="#ffffff" stroke-width="0" opacity="1" filter="none" class="highcharts-point"></path></g><g class="highcharts-markers highcharts-series-1 highcharts-column-series" data-z-index="0.1" opacity="1" transform="translate(58,173) scale(1 1)" clip-path="none"></g><g class="highcharts-series highcharts-series-2 highcharts-column-series highcharts-tracker" data-z-index="0.1" opacity="1" transform="translate(58,173) scale(1 1)" clip-path="url(#highcharts-2qws862-21-)"><path fill="#FF8028" d="M 49 34 L 57 34 A 3 3 0 0 1 60 37 L 60 157 A 0 0 0 0 1 60 157 L 46 157 A 0 0 0 0 1 46 157 L 46 37 A 3 3 0 0 1 49 34 Z" stroke="#ffffff" stroke-width="0" opacity="1" filter="none" class="highcharts-point"></path><path fill="#FF8028" d="M 156 27 L 164 27 A 3 3 0 0 1 167 30 L 167 157 A 0 0 0 0 1 167 157 L 153 157 A 0 0 0 0 1 153 157 L 153 30 A 3 3 0 0 1 156 27 Z" stroke="#ffffff" stroke-width="0" opacity="1" filter="none" class="highcharts-point"></path><path fill="#FF8028" d="M 262 42 L 270 42 A 3 3 0 0 1 273 45 L 273 157 A 0 0 0 0 1 273 157 L 259 157 A 0 0 0 0 1 259 157 L 259 45 A 3 3 0 0 1 262 42 Z" stroke="#ffffff" stroke-width="0" opacity="1" filter="none" class="highcharts-point"></path><path fill="#FF8028" d="M 368 35 L 376 35 A 3 3 0 0 1 379 38 L 379 157 A 0 0 0 0 1 379 157 L 365 157 A 0 0 0 0 1 365 157 L 365 38 A 3 3 0 0 1 368 35 Z" stroke="#ffffff" stroke-width="0" opacity="1" filter="none" class="highcharts-point"></path><path fill="#FF8028" d="M 475 29 L 483 29 A 3 3 0 0 1 486 32 L 486 157 A 0 0 0 0 1 486 157 L 472 157 A 0 0 0 0 1 472 157 L 472 32 A 3 3 0 0 1 475 29 Z" stroke="#ffffff" stroke-width="0" opacity="1" filter="none" class="highcharts-point"></path></g><g class="highcharts-markers highcharts-series-2 highcharts-column-series" data-z-index="0.1" opacity="1" transform="translate(58,173) scale(1 1)" clip-path="none"></g><g class="highcharts-series highcharts-series-3 highcharts-column-series highcharts-tracker" data-z-index="0.1" opacity="1" transform="translate(58,173) scale(1 1)" clip-path="url(#highcharts-2qws862-21-)"><path fill="#DC440E" d="M 62 34 L 70 34 A 3 3 0 0 1 73 37 L 73 157 A 0 0 0 0 1 73 157 L 59 157 A 0 0 0 0 1 59 157 L 59 37 A 3 3 0 0 1 62 34 Z" stroke="#ffffff" stroke-width="0" opacity="1" filter="none" class="highcharts-point"></path></g><g class="highcharts-markers highcharts-series-3 highcharts-column-series" data-z-index="0.1" opacity="1" transform="translate(58,173) scale(1 1)" clip-path="none"></g><g class="highcharts-series highcharts-series-4 highcharts-column-series highcharts-tracker" data-z-index="0.1" opacity="1" transform="translate(58,173) scale(1 1)" clip-path="url(#highcharts-2qws862-21-)"><path fill="#B00000" d="M 75 32 L 83 32 A 3 3 0 0 1 86 35 L 86 157 A 0 0 0 0 1 86 157 L 72 157 A 0 0 0 0 1 72 157 L 72 35 A 3 3 0 0 1 75 32 Z" stroke="#ffffff" stroke-width="0" opacity="1" filter="none" class="highcharts-point"></path><path fill="#B00000" d="M 288 30 L 296 30 A 3 3 0 0 1 299 33 L 299 157 A 0 0 0 0 1 299 157 L 285 157 A 0 0 0 0 1 285 157 L 285 33 A 3 3 0 0 1 288 30 Z" stroke="#ffffff" stroke-width="0" opacity="1" filter="none" class="highcharts-point"></path></g><g class="highcharts-markers highcharts-series-4 highcharts-column-series" data-z-index="0.1" opacity="1" transform="translate(58,173) scale(1 1)" clip-path="none"></g></g><text x="10" text-anchor="start" class="highcharts-caption" data-z-index="4" style="font-size: 0.8em; fill: rgb(102, 102, 102);" text-align="left" y="372" transform-origin="10 15" transform="translate(0,0) scale(1 1)"></text><g class="highcharts-legend highcharts-no-tooltip" data-z-index="7" text-align="left" transform="translate(10,55)"><rect fill="none" class="highcharts-legend-box" rx="0" ry="0" stroke="#999999" stroke-width="0" filter="none" x="0" y="0" width="296" height="106"></rect><g data-z-index="1"><g><g class="highcharts-legend-item highcharts-column-series highcharts-color-undefined highcharts-series-0" data-z-index="1" transform="translate(8,3)"><text x="21" text-anchor="start" data-z-index="2" style="cursor: pointer; font-size: 0.8em; text-decoration: none; font-weight: normal; fill: rgb(51, 51, 51);" y="17">Gesamte Agglomeration</text><rect x="2" y="6" rx="0" ry="0" width="12" height="12" fill="#73B97C" class="highcharts-point" data-z-index="3"></rect></g><g class="highcharts-legend-item highcharts-column-series highcharts-color-undefined highcharts-series-1" data-z-index="1" transform="translate(8,22)"><text x="21" y="17" text-anchor="start" data-z-index="2" style="cursor: pointer; font-size: 0.8em; text-decoration: none; font-weight: normal; fill: rgb(51, 51, 51);">Kernstadt</text><rect x="2" y="6" rx="0" ry="0" width="12" height="12" fill="#FFBB58" class="highcharts-point" data-z-index="3"></rect></g><g class="highcharts-legend-item highcharts-column-series highcharts-color-undefined highcharts-series-2" data-z-index="1" transform="translate(8,41)"><text x="21" y="17" text-anchor="start" data-z-index="2" style="cursor: pointer; font-size: 0.8em; text-decoration: none; font-weight: normal; fill: rgb(51, 51, 51);">Übrige Agglomerationsgemeinden Schweiz</text><rect x="2" y="6" rx="0" ry="0" width="12" height="12" fill="#FF8028" class="highcharts-point" data-z-index="3"></rect></g><g class="highcharts-legend-item highcharts-column-series highcharts-color-undefined highcharts-series-3" data-z-index="1" transform="translate(8,60)"><text x="21" y="17" text-anchor="start" data-z-index="2" style="cursor: pointer; font-size: 0.8em; text-decoration: none; font-weight: normal; fill: rgb(51, 51, 51);">Agglomerationsgemeinden Deutschland</text><rect x="2" y="6" rx="0" ry="0" width="12" height="12" fill="#DC440E" class="highcharts-point" data-z-index="3"></rect></g><g class="highcharts-legend-item highcharts-column-series highcharts-color-undefined highcharts-series-4" data-z-index="1" transform="translate(8,79)"><text x="21" y="17" text-anchor="start" data-z-index="2" style="cursor: pointer; font-size: 0.8em; text-decoration: none; font-weight: normal; fill: rgb(51, 51, 51);">Agglomerationsgemeinden Frankreich</text><rect x="2" y="6" rx="0" ry="0" width="12" height="12" fill="#B00000" class="highcharts-point" data-z-index="3"></rect></g></g></g></g><g class="highcharts-axis-labels highcharts-xaxis-labels" data-z-index="7"><text x="111.2" text-anchor="middle" transform="translate(0,0)" style="cursor: default; font-size: 0.8em; fill: rgb(0, 0, 0);" y="357" opacity="1">Basel</text><text x="217.60000000000002" text-anchor="middle" transform="translate(0,0)" style="cursor: default; font-size: 0.8em; fill: rgb(0, 0, 0);" y="357" opacity="1">Bern</text><text x="324" text-anchor="middle" transform="translate(0,0)" style="cursor: default; font-size: 0.8em; fill: rgb(0, 0, 0);" y="357" opacity="1">Genf</text><text x="430.40000000000003" text-anchor="middle" transform="translate(0,0)" style="cursor: default; font-size: 0.8em; fill: rgb(0, 0, 0);" y="357" opacity="1">Lausanne</text><text x="536.8" text-anchor="middle" transform="translate(0,0)" style="cursor: default; font-size: 0.8em; fill: rgb(0, 0, 0);" y="357" opacity="1">Zürich</text></g><g class="highcharts-axis-labels highcharts-yaxis-labels" data-z-index="7"><text x="43" text-anchor="end" transform="translate(0,0)" style="cursor: default; font-size: 0.8em; fill: rgb(0, 0, 0);" y="335" opacity="1">0%</text><text x="43" text-anchor="end" transform="translate(0,0)" style="cursor: default; font-size: 0.8em; fill: rgb(0, 0, 0);" y="303" opacity="1">20%</text><text x="43" text-anchor="end" transform="translate(0,0)" style="cursor: default; font-size: 0.8em; fill: rgb(0, 0, 0);" y="272" opacity="1">40%</text><text x="43" text-anchor="end" transform="translate(0,0)" style="cursor: default; font-size: 0.8em; fill: rgb(0, 0, 0);" y="240" opacity="1">60%</text><text x="43" text-anchor="end" transform="translate(0,0)" style="cursor: default; font-size: 0.8em; fill: rgb(0, 0, 0);" y="209" opacity="1">80%</text><text x="43" text-anchor="end" transform="translate(0,0)" style="cursor: default; font-size: 0.8em; fill: rgb(0, 0, 0);" y="178" opacity="1">100%</text></g></svg>