<svg version="1.1" class="highcharts-root" style="font-family: Inter, &quot;Helvetica Neue&quot;, Helvetica, Arial, sans-serif; font-size: 1rem;" xmlns="http://www.w3.org/2000/svg" width="600" height="400" viewBox="0 0 600 400" role="img" aria-label="Beschäftigte"><desc>Created with Highcharts 12.5.0</desc><defs><filter id="highcharts-drop-shadow-0"><feDropShadow dx="1" dy="1" flood-color="#000000" flood-opacity="0.75" stdDeviation="2.5"></feDropShadow></filter><clipPath id="highcharts-b2tp9r6-18-"><rect x="0" y="0" width="508" height="176" fill="none"></rect></clipPath></defs><rect fill="#ffffff" class="highcharts-background" filter="none" x="0" y="0" width="600" height="400" rx="0" ry="0"></rect><rect fill="none" class="highcharts-plot-background" x="82" y="154" width="508" height="176" filter="none"></rect><g class="highcharts-pane-group" data-z-index="0"></g><g class="highcharts-grid highcharts-xaxis-grid" data-z-index="1"><path fill="none" stroke="#e6e6e6" stroke-width="0" stroke-dasharray="none" data-z-index="1" class="highcharts-grid-line" d="M 183.5 154 L 183.5 330" opacity="1"></path><path fill="none" stroke="#e6e6e6" stroke-width="0" stroke-dasharray="none" data-z-index="1" class="highcharts-grid-line" d="M 285.5 154 L 285.5 330" opacity="1"></path><path fill="none" stroke="#e6e6e6" stroke-width="0" stroke-dasharray="none" data-z-index="1" class="highcharts-grid-line" d="M 386.5 154 L 386.5 330" opacity="1"></path><path fill="none" stroke="#e6e6e6" stroke-width="0" stroke-dasharray="none" data-z-index="1" class="highcharts-grid-line" d="M 488.5 154 L 488.5 330" opacity="1"></path><path fill="none" stroke="#e6e6e6" stroke-width="0" stroke-dasharray="none" data-z-index="1" class="highcharts-grid-line" d="M 590.5 154 L 590.5 330" opacity="1"></path><path fill="none" stroke="#e6e6e6" stroke-width="0" stroke-dasharray="none" data-z-index="1" class="highcharts-grid-line" d="M 82.5 154 L 82.5 330" opacity="1"></path></g><g class="highcharts-grid highcharts-yaxis-grid" data-z-index="1"><path fill="none" stroke="#B9CFD7" stroke-width="0.5" stroke-dasharray="none" data-z-index="1" class="highcharts-grid-line" d="M 82 330.25 L 590 330.25" opacity="1"></path><path fill="none" stroke="#B9CFD7" stroke-width="0.5" stroke-dasharray="none" data-z-index="1" class="highcharts-grid-line" d="M 82 300.25 L 590 300.25" opacity="1"></path><path fill="none" stroke="#B9CFD7" stroke-width="0.5" stroke-dasharray="none" data-z-index="1" class="highcharts-grid-line" d="M 82 271.25 L 590 271.25" opacity="1"></path><path fill="none" stroke="#B9CFD7" stroke-width="0.5" stroke-dasharray="none" data-z-index="1" class="highcharts-grid-line" d="M 82 242.25 L 590 242.25" opacity="1"></path><path fill="none" stroke="#B9CFD7" stroke-width="0.5" stroke-dasharray="none" data-z-index="1" class="highcharts-grid-line" d="M 82 212.25 L 590 212.25" opacity="1"></path><path fill="none" stroke="#B9CFD7" stroke-width="0.5" stroke-dasharray="none" data-z-index="1" class="highcharts-grid-line" d="M 82 183.25 L 590 183.25" opacity="1"></path><path fill="none" stroke="#B9CFD7" stroke-width="0.5" stroke-dasharray="none" data-z-index="1" class="highcharts-grid-line" d="M 82 154.25 L 590 154.25" opacity="1"></path></g><rect fill="none" class="highcharts-plot-border" data-z-index="1" stroke="#cccccc" stroke-width="0" x="82" y="154" width="508" height="176"></rect><g class="highcharts-axis highcharts-xaxis" data-z-index="2"><path fill="none" class="highcharts-axis-line" stroke="#B9CFD7" stroke-width="0.5" data-z-index="7" d="M 82 330.25 L 590 330.25"></path></g><g class="highcharts-axis highcharts-yaxis" data-z-index="2"><path fill="none" class="highcharts-axis-line" stroke="#B9CFD7" stroke-width="0" data-z-index="7" d="M 82 154 L 82 330"></path></g><g class="highcharts-series-group" data-z-index="3" filter="none"><g class="highcharts-series highcharts-series-0 highcharts-column-series highcharts-tracker" data-z-index="0.1" opacity="1" transform="translate(82,154) scale(1 1)" clip-path="url(#highcharts-b2tp9r6-18-)"><path fill="#FFBB58" d="M 26.00000005 148.00000005 L 75.00000005 148.00000005 A 0 0 0 0 1 75.00000005 148.00000005 L 75.00000005 176.00000005 A 0 0 0 0 1 75.00000005 176.00000005 L 26.00000005 176.00000005 A 0 0 0 0 1 26.00000005 176.00000005 L 26.00000005 148.00000005 A 0 0 0 0 1 26.00000005 148.00000005 Z" stroke="#ffffff" stroke-width="1e-7" opacity="1" filter="none" class="highcharts-point"></path><path fill="#FFBB58" d="M 128.00000005 147.00000005 L 177.00000005 147.00000005 A 0 0 0 0 1 177.00000005 147.00000005 L 177.00000005 176.00000005 A 0 0 0 0 1 177.00000005 176.00000005 L 128.00000005 176.00000005 A 0 0 0 0 1 128.00000005 176.00000005 L 128.00000005 147.00000005 A 0 0 0 0 1 128.00000005 147.00000005 Z" stroke="#ffffff" stroke-width="1e-7" opacity="1" filter="none" class="highcharts-point"></path><path fill="#FFBB58" d="M 230.00000005 148.00000005 L 279.00000005 148.00000005 A 0 0 0 0 1 279.00000005 148.00000005 L 279.00000005 176.00000005 A 0 0 0 0 1 279.00000005 176.00000005 L 230.00000005 176.00000005 A 0 0 0 0 1 230.00000005 176.00000005 L 230.00000005 148.00000005 A 0 0 0 0 1 230.00000005 148.00000005 Z" stroke="#ffffff" stroke-width="1e-7" opacity="1" filter="none" class="highcharts-point"></path><path fill="#FFBB58" d="M 331.00000005 157.00000005 L 380.00000005 157.00000005 A 0 0 0 0 1 380.00000005 157.00000005 L 380.00000005 176.00000005 A 0 0 0 0 1 380.00000005 176.00000005 L 331.00000005 176.00000005 A 0 0 0 0 1 331.00000005 176.00000005 L 331.00000005 157.00000005 A 0 0 0 0 1 331.00000005 157.00000005 Z" stroke="#ffffff" stroke-width="1e-7" opacity="1" filter="none" class="highcharts-point"></path><path fill="#FFBB58" d="M 433.00000005 97.00000005 L 482.00000005 97.00000005 A 0 0 0 0 1 482.00000005 97.00000005 L 482.00000005 176.00000005 A 0 0 0 0 1 482.00000005 176.00000005 L 433.00000005 176.00000005 A 0 0 0 0 1 433.00000005 176.00000005 L 433.00000005 97.00000005 A 0 0 0 0 1 433.00000005 97.00000005 Z" stroke="#ffffff" stroke-width="1e-7" opacity="1" filter="none" class="highcharts-point"></path></g><g class="highcharts-markers highcharts-series-0 highcharts-column-series" data-z-index="0.1" opacity="1" transform="translate(82,154) scale(1 1)" clip-path="none"></g><g class="highcharts-series highcharts-series-1 highcharts-column-series highcharts-tracker" data-z-index="0.1" opacity="1" transform="translate(82,154) scale(1 1)" clip-path="url(#highcharts-b2tp9r6-18-)"><path fill="#FF8028" d="M 26.00000005 119.00000005 L 75.00000005 119.00000005 A 0 0 0 0 1 75.00000005 119.00000005 L 75.00000005 148.00000005 A 0 0 0 0 1 75.00000005 148.00000005 L 26.00000005 148.00000005 A 0 0 0 0 1 26.00000005 148.00000005 L 26.00000005 119.00000005 A 0 0 0 0 1 26.00000005 119.00000005 Z" stroke="#ffffff" stroke-width="1e-7" opacity="1" filter="none" class="highcharts-point"></path><path fill="#FF8028" d="M 131.00000005 127.00000005 L 174.00000005 127.00000005 A 3 3 0 0 1 177.00000005 130.00000004999998 L 177.00000005 147.00000005 A 0 0 0 0 1 177.00000005 147.00000005 L 128.00000005 147.00000005 A 0 0 0 0 1 128.00000005 147.00000005 L 128.00000005 130.00000004999998 A 3 3 0 0 1 131.00000005 127.00000005 Z" stroke="#ffffff" stroke-width="1e-7" opacity="1" filter="none" class="highcharts-point"></path><path fill="#FF8028" d="M 230.00000005 113.00000005 L 279.00000005 113.00000005 A 0 0 0 0 1 279.00000005 113.00000005 L 279.00000005 148.00000005 A 0 0 0 0 1 279.00000005 148.00000005 L 230.00000005 148.00000005 A 0 0 0 0 1 230.00000005 148.00000005 L 230.00000005 113.00000005 A 0 0 0 0 1 230.00000005 113.00000005 Z" stroke="#ffffff" stroke-width="1e-7" opacity="1" filter="none" class="highcharts-point"></path><path fill="#FF8028" d="M 334.00000005 133.00000005 L 377.00000005 133.00000005 A 3 3 0 0 1 380.00000005 136.00000005 L 380.00000005 157.00000005 A 0 0 0 0 1 380.00000005 157.00000005 L 331.00000005 157.00000005 A 0 0 0 0 1 331.00000005 157.00000005 L 331.00000005 136.00000005 A 3 3 0 0 1 334.00000005 133.00000005 Z" stroke="#ffffff" stroke-width="1e-7" opacity="1" filter="none" class="highcharts-point"></path><path fill="#FF8028" d="M 436.00000005 21.00000005 L 479.00000005 21.00000005 A 3 3 0 0 1 482.00000005 24.00000005 L 482.00000005 97.00000005 A 0 0 0 0 1 482.00000005 97.00000005 L 433.00000005 97.00000005 A 0 0 0 0 1 433.00000005 97.00000005 L 433.00000005 24.00000005 A 3 3 0 0 1 436.00000005 21.00000005 Z" stroke="#ffffff" stroke-width="1e-7" opacity="1" filter="none" class="highcharts-point"></path></g><g class="highcharts-markers highcharts-series-1 highcharts-column-series" data-z-index="0.1" opacity="1" transform="translate(82,154) scale(1 1)" clip-path="none"></g><g class="highcharts-series highcharts-series-2 highcharts-column-series highcharts-tracker" data-z-index="0.1" opacity="1" transform="translate(82,154) scale(1 1)" clip-path="url(#highcharts-b2tp9r6-18-)"><path fill="#DC440E" d="M 26.00000005 108.00000005 L 75.00000005 108.00000005 A 0 0 0 0 1 75.00000005 108.00000005 L 75.00000005 119.00000005 A 0 0 0 0 1 75.00000005 119.00000005 L 26.00000005 119.00000005 A 0 0 0 0 1 26.00000005 119.00000005 L 26.00000005 108.00000005 A 0 0 0 0 1 26.00000005 108.00000005 Z" stroke="#ffffff" stroke-width="1e-7" opacity="1" filter="none" class="highcharts-point"></path></g><g class="highcharts-markers highcharts-series-2 highcharts-column-series" data-z-index="0.1" opacity="1" transform="translate(82,154) scale(1 1)" clip-path="none"></g><g class="highcharts-series highcharts-series-3 highcharts-column-series highcharts-tracker" data-z-index="0.1" opacity="1" transform="translate(82,154) scale(1 1)" clip-path="url(#highcharts-b2tp9r6-18-)"><path fill="#B00000" d="M 29.00000005 104.00000005 L 72.00000005 104.00000005 A 3 3 0 0 1 75.00000005 107.00000005 L 75.00000005 108.00000005 A 0 0 0 0 1 75.00000005 108.00000005 L 26.00000005 108.00000005 A 0 0 0 0 1 26.00000005 108.00000005 L 26.00000005 107.00000005 A 3 3 0 0 1 29.00000005 104.00000005 Z" stroke="#ffffff" stroke-width="1e-7" opacity="1" filter="none" class="highcharts-point"></path><path fill="#B00000" d="M 233.00000005 99.00000005 L 276.00000005 99.00000005 A 3 3 0 0 1 279.00000005 102.00000005 L 279.00000005 113.00000005 A 0 0 0 0 1 279.00000005 113.00000005 L 230.00000005 113.00000005 A 0 0 0 0 1 230.00000005 113.00000005 L 230.00000005 102.00000005 A 3 3 0 0 1 233.00000005 99.00000005 Z" stroke="#ffffff" stroke-width="1e-7" opacity="1" filter="none" class="highcharts-point"></path></g><g class="highcharts-markers highcharts-series-3 highcharts-column-series" data-z-index="0.1" opacity="1" transform="translate(82,154) scale(1 1)" clip-path="none"></g></g><text x="10" text-anchor="start" class="highcharts-caption" data-z-index="4" style="font-size: 0.8em; fill: rgb(102, 102, 102);" text-align="left" y="372" transform-origin="10 15" transform="translate(0,0) scale(1 1)"></text><g class="highcharts-axis-labels highcharts-xaxis-labels" data-z-index="7"><text x="132.8" text-anchor="middle" transform="translate(0,0)" style="cursor: default; font-size: 0.8em; fill: rgb(0, 0, 0);" y="357" opacity="1">Basel</text><text x="234.39999999999998" text-anchor="middle" transform="translate(0,0)" style="cursor: default; font-size: 0.8em; fill: rgb(0, 0, 0);" y="357" opacity="1">Bern</text><text x="336" text-anchor="middle" transform="translate(0,0)" style="cursor: default; font-size: 0.8em; fill: rgb(0, 0, 0);" y="357" opacity="1">Genf</text><text x="437.59999999999997" text-anchor="middle" transform="translate(0,0)" style="cursor: default; font-size: 0.8em; fill: rgb(0, 0, 0);" y="357" opacity="1">Lausanne</text><text x="539.2" text-anchor="middle" transform="translate(0,0)" style="cursor: default; font-size: 0.8em; fill: rgb(0, 0, 0);" y="357" opacity="1">Zürich</text></g><g class="highcharts-axis-labels highcharts-yaxis-labels" data-z-index="7"><text x="67" text-anchor="end" transform="translate(0,0)" style="cursor: default; font-size: 0.8em; fill: rgb(0, 0, 0);" y="335" opacity="1">0</text><text x="67" text-anchor="end" transform="translate(0,0)" style="cursor: default; font-size: 0.8em; fill: rgb(0, 0, 0);" y="305" opacity="1">200,000</text><text x="67" text-anchor="end" transform="translate(0,0)" style="cursor: default; font-size: 0.8em; fill: rgb(0, 0, 0);" y="276" opacity="1">400,000</text><text x="67" text-anchor="end" transform="translate(0,0)" style="cursor: default; font-size: 0.8em; fill: rgb(0, 0, 0);" y="247" opacity="1">600,000</text><text x="67" text-anchor="end" transform="translate(0,0)" style="cursor: default; font-size: 0.8em; fill: rgb(0, 0, 0);" y="217" opacity="1">800,000</text><text x="67" text-anchor="end" transform="translate(0,0)" style="cursor: default; font-size: 0.8em; fill: rgb(0, 0, 0);" y="188" opacity="1">1,000,000</text><text x="67" text-anchor="end" transform="translate(0,0)" style="cursor: default; font-size: 0.8em; fill: rgb(0, 0, 0);" y="159" opacity="1">1,200,000</text></g><g class="highcharts-legend highcharts-no-tooltip" data-z-index="7" text-align="left" transform="translate(74,55)"><rect fill="none" class="highcharts-legend-box" rx="0" ry="0" stroke="#999999" stroke-width="0" filter="none" x="0" y="0" width="296" height="87"></rect><g data-z-index="1"><g><g class="highcharts-legend-item highcharts-column-series highcharts-color-undefined highcharts-series-0" data-z-index="1" transform="translate(8,3)"><text x="21" text-anchor="start" data-z-index="2" style="cursor: pointer; font-size: 0.8em; text-decoration: none; font-weight: normal; fill: rgb(51, 51, 51);" y="17">Kernstadt</text><rect x="2" y="6" rx="0" ry="0" width="12" height="12" fill="#FFBB58" class="highcharts-point" data-z-index="3"></rect></g><g class="highcharts-legend-item highcharts-column-series highcharts-color-undefined highcharts-series-1" data-z-index="1" transform="translate(8,22)"><text x="21" y="17" text-anchor="start" data-z-index="2" style="cursor: pointer; font-size: 0.8em; text-decoration: none; font-weight: normal; fill: rgb(51, 51, 51);">Übrige Agglomerationsgemeinden Schweiz</text><rect x="2" y="6" rx="0" ry="0" width="12" height="12" fill="#FF8028" class="highcharts-point" data-z-index="3"></rect></g><g class="highcharts-legend-item highcharts-column-series highcharts-color-undefined highcharts-series-2" data-z-index="1" transform="translate(8,41)"><text x="21" y="17" text-anchor="start" data-z-index="2" style="cursor: pointer; font-size: 0.8em; text-decoration: none; font-weight: normal; fill: rgb(51, 51, 51);">Agglomerationsgemeinden Deutschland</text><rect x="2" y="6" rx="0" ry="0" width="12" height="12" fill="#DC440E" class="highcharts-point" data-z-index="3"></rect></g><g class="highcharts-legend-item highcharts-column-series highcharts-color-undefined highcharts-series-3" data-z-index="1" transform="translate(8,60)"><text x="21" y="17" text-anchor="start" data-z-index="2" style="cursor: pointer; font-size: 0.8em; text-decoration: none; font-weight: normal; fill: rgb(51, 51, 51);">Agglomerationsgemeinden Frankreich</text><rect x="2" y="6" rx="0" ry="0" width="12" height="12" fill="#B00000" class="highcharts-point" data-z-index="3"></rect></g></g></g></g></svg>