<?xml version="1.0" standalone="no"?><!DOCTYPE svg PUBLIC "-//W3C//DTD SVG 1.1//EN" "http://www.w3.org/Graphics/SVG/1.1/DTD/svg11.dtd"><svg xmlns:xlink="http://www.w3.org/1999/xlink" version="1.1" class="highcharts-root" style="font-family:Arial;font-size:12px;" xmlns="http://www.w3.org/2000/svg" viewBox="0 0 485 415"><desc>Created with Highcharts 8.2.0</desc><defs><clipPath id="highcharts-qb3sojf-70-"><rect x="0" y="0" width="438" height="239" fill="none"></rect></clipPath><clipPath id="highcharts-qb3sojf-92-"><rect x="0" y="0" width="438" height="239" fill="none"></rect></clipPath><clipPath id="highcharts-qb3sojf-135-"><rect x="37" y="99" width="438" height="239" fill="none"></rect></clipPath></defs><rect fill="#fbfbfb" class="highcharts-background" x="0" y="0" width="485" height="428" rx="0" ry="0"></rect><rect fill="none" class="highcharts-plot-background" x="37" y="99" width="438" height="239"></rect><g class="highcharts-pane-group" data-z-index="0"></g><g class="highcharts-grid highcharts-xaxis-grid" data-z-index="1"><path fill="none" data-z-index="1" class="highcharts-grid-line" d="M 40.5 99 L 40.5 338" opacity="1"></path><path fill="none" data-z-index="1" class="highcharts-grid-line" d="M 62.5 99 L 62.5 338" opacity="1"></path><path fill="none" data-z-index="1" class="highcharts-grid-line" d="M 83.5 99 L 83.5 338" opacity="1"></path><path fill="none" data-z-index="1" class="highcharts-grid-line" d="M 105.5 99 L 105.5 338" opacity="1"></path><path fill="none" data-z-index="1" class="highcharts-grid-line" d="M 126.5 99 L 126.5 338" opacity="1"></path><path fill="none" data-z-index="1" class="highcharts-grid-line" d="M 148.5 99 L 148.5 338" opacity="1"></path><path fill="none" data-z-index="1" class="highcharts-grid-line" d="M 169.5 99 L 169.5 338" opacity="1"></path><path fill="none" data-z-index="1" class="highcharts-grid-line" d="M 191.5 99 L 191.5 338" opacity="1"></path><path fill="none" data-z-index="1" class="highcharts-grid-line" d="M 212.5 99 L 212.5 338" opacity="1"></path><path fill="none" data-z-index="1" class="highcharts-grid-line" d="M 234.5 99 L 234.5 338" opacity="1"></path><path fill="none" data-z-index="1" class="highcharts-grid-line" d="M 255.5 99 L 255.5 338" opacity="1"></path><path fill="none" data-z-index="1" class="highcharts-grid-line" d="M 276.5 99 L 276.5 338" opacity="1"></path><path fill="none" data-z-index="1" class="highcharts-grid-line" d="M 298.5 99 L 298.5 338" opacity="1"></path><path fill="none" data-z-index="1" class="highcharts-grid-line" d="M 319.5 99 L 319.5 338" opacity="1"></path><path fill="none" data-z-index="1" class="highcharts-grid-line" d="M 341.5 99 L 341.5 338" opacity="1"></path><path fill="none" data-z-index="1" class="highcharts-grid-line" d="M 362.5 99 L 362.5 338" opacity="1"></path><path fill="none" data-z-index="1" class="highcharts-grid-line" d="M 384.5 99 L 384.5 338" opacity="1"></path><path fill="none" data-z-index="1" class="highcharts-grid-line" d="M 405.5 99 L 405.5 338" opacity="1"></path><path fill="none" data-z-index="1" class="highcharts-grid-line" d="M 427.5 99 L 427.5 338" opacity="1"></path><path fill="none" data-z-index="1" class="highcharts-grid-line" d="M 448.5 99 L 448.5 338" opacity="1"></path><path fill="none" data-z-index="1" class="highcharts-grid-line" d="M 470.5 99 L 470.5 338" opacity="1"></path></g><g class="highcharts-grid highcharts-yaxis-grid" data-z-index="1"><path fill="none" stroke="#B9CFD7" stroke-width="0.5" data-z-index="1" class="highcharts-grid-line" d="M 37 338.25 L 475 338.25" opacity="1"></path><path fill="none" stroke="#B9CFD7" stroke-width="0.5" data-z-index="1" class="highcharts-grid-line" d="M 37 278.25 L 475 278.25" opacity="1"></path><path fill="none" stroke="#B9CFD7" stroke-width="0.5" data-z-index="1" class="highcharts-grid-line" d="M 37 219.25 L 475 219.25" opacity="1"></path><path fill="none" stroke="#B9CFD7" stroke-width="0.5" data-z-index="1" class="highcharts-grid-line" d="M 37 159.25 L 475 159.25" opacity="1"></path><path fill="none" stroke="#B9CFD7" stroke-width="0.5" data-z-index="1" class="highcharts-grid-line" d="M 37 98.75 L 475 98.75" opacity="1"></path></g><rect fill="none" class="highcharts-plot-border" data-z-index="1" x="37" y="99" width="438" height="239"></rect><g class="highcharts-axis highcharts-xaxis" data-z-index="2"><path fill="none" class="highcharts-axis-line" stroke="#B9CFD7" stroke-width="0.5" data-z-index="7" d="M 37 338.25 L 475 338.25"></path></g><g class="highcharts-axis highcharts-yaxis" data-z-index="2"><path fill="none" class="highcharts-axis-line" data-z-index="7" d="M 37 99 L 37 338"></path></g><g class="highcharts-series-group" data-z-index="3"><g class="highcharts-series highcharts-series-0 highcharts-line-series" data-z-index="0.1" opacity="1" transform="translate(37,99) scale(1 1)" clip-path="url(#highcharts-qb3sojf-92-)"><path fill="none" d="M 4.2941176470598 44.215 L 25.764705882354 48.995000000000005 L 47.235294117648 51.982500000000016 L 68.705882352942 48.995000000000005 L 90.176470588236 56.76250000000002 L 111.64705882353 55.567500000000024 L 133.11764705882 60.347500000000025 L 154.58823529412 63.932500000000005 L 176.05882352941 63.33500000000001 L 197.52941176471 65.1275 L 219 66.92000000000002 L 240.47058823529 73.4925 L 261.94117647059 72.89500000000001 L 283.41176470588 65.72500000000002 L 304.88235294118 64.53 L 326.35294117647 68.11500000000001 L 347.82352941176 71.10249999999999 L 369.29411764706 80.065 L 390.76470588235 77.07750000000001 L 412.23529411765 80.065 L 433.70588235294 81.26000000000002" class="highcharts-graph" data-z-index="1" stroke="#cd9c00" stroke-width="2" stroke-linejoin="round" stroke-linecap="round"></path></g><g class="highcharts-markers highcharts-series-0 highcharts-line-series" data-z-index="0.1" opacity="1" transform="translate(37,99) scale(1 1)" clip-path="none"></g><g class="highcharts-series highcharts-series-1 highcharts-line-series" data-z-index="0.1" opacity="1" transform="translate(37,99) scale(1 1)" clip-path="url(#highcharts-qb3sojf-92-)"><path fill="none" d="M 4.2941176470598 50.78750000000002 L 25.764705882354 60.94499999999999 L 47.235294117648 60.347500000000025 L 68.705882352942 59.75 L 90.176470588236 62.73750000000001 L 111.64705882353 65.72500000000002 L 133.11764705882 61.54250000000002 L 154.58823529412 57.360000000000014 L 176.05882352941 57.95750000000001 L 197.52941176471 59.1525 L 219 54.37250000000003 L 240.47058823529 57.360000000000014 L 261.94117647059 51.982500000000016 L 283.41176470588 48.995000000000005 L 304.88235294118 48.39750000000001 L 326.35294117647 46.60499999999999 L 347.82352941176 49.59250000000003 L 369.29411764706 43.02000000000004 L 390.76470588235 47.80000000000001 L 412.23529411765 57.95750000000001 L 433.70588235294 61.54250000000002" class="highcharts-graph" data-z-index="1" stroke="#b375ab" stroke-width="2" stroke-linejoin="round" stroke-linecap="round"></path></g><g class="highcharts-markers highcharts-series-1 highcharts-line-series" data-z-index="0.1" opacity="1" transform="translate(37,99) scale(1 1)" clip-path="none"></g><g class="highcharts-series highcharts-series-2 highcharts-line-series" data-z-index="0.1" opacity="1" transform="translate(37,99) scale(1 1)" clip-path="url(#highcharts-qb3sojf-92-)"><path fill="none" d="M 4.2941176470598 81.26000000000002 L 25.764705882354 84.24750000000003 L 47.235294117648 85.44250000000002 L 68.705882352942 87.83250000000001 L 90.176470588236 90.22250000000003 L 111.64705882353 90.22250000000003 L 133.11764705882 92.01499999999999 L 154.58823529412 91.41750000000002 L 176.05882352941 92.61250000000001 L 197.52941176471 92.01499999999999 L 219 92.61250000000001 L 240.47058823529 92.01499999999999 L 261.94117647059 90.82 L 283.41176470588 90.22250000000003 L 304.88235294118 89.0275 L 326.35294117647 87.83250000000001 L 347.82352941176 87.83250000000001 L 369.29411764706 88.43 L 390.76470588235 86.63750000000002 L 412.23529411765 84.845 L 433.70588235294 84.24750000000003" class="highcharts-graph" data-z-index="1" stroke="#999999" stroke-width="2" stroke-linejoin="round" stroke-linecap="round"></path></g><g class="highcharts-markers highcharts-series-2 highcharts-line-series" data-z-index="0.1" opacity="1" transform="translate(37,99) scale(1 1)" clip-path="none"></g></g><text x="10" text-anchor="start" class="highcharts-title" data-z-index="4" style="color:#000000;font-size:14px;font-weight:bold;fill:#000000;" y="21"><tspan>Jugendquotient</tspan></text><text x="10" text-anchor="start" class="highcharts-subtitle" data-z-index="4" style="color:#000000;font-size:12px;font-weight:normal;fill:#000000;" y="40"><tspan>Wohnviertel Klybeck und Kleinhüningen</tspan></text><text x="10" text-anchor="start" class="highcharts-caption" data-z-index="4" style="color:#666666;fill:#666666;" y="385"></text><g class="highcharts-legend" data-z-index="7" transform="translate(29,56)"><rect fill="none" class="highcharts-legend-box" rx="0" ry="0" x="0" y="0" width="304" height="31" visibility="visible"></rect><g data-z-index="1"><g><g class="highcharts-legend-item highcharts-line-series highcharts-color-undefined highcharts-series-0" data-z-index="1" transform="translate(8,3)"><path fill="none" d="M 0 11 L 16 11" class="highcharts-graph" stroke="#cd9c00" stroke-width="2"></path><text x="21" style="color:#333333;cursor:pointer;font-size:12px;font-weight:normal;fill:#333333;" text-anchor="start" data-z-index="2" y="15"><tspan>Klybeck</tspan></text></g><g class="highcharts-legend-item highcharts-line-series highcharts-color-undefined highcharts-series-1" data-z-index="1" transform="translate(91,3)"><path fill="none" d="M 0 11 L 16 11" class="highcharts-graph" stroke="#b375ab" stroke-width="2"></path><text x="21" y="15" style="color:#333333;cursor:pointer;font-size:12px;font-weight:normal;fill:#333333;" text-anchor="start" data-z-index="2"><tspan>Kleinhüningen</tspan></text></g><g class="highcharts-legend-item highcharts-line-series highcharts-color-undefined highcharts-series-2" data-z-index="1" transform="translate(212,3)"><path fill="none" d="M 0 11 L 16 11" class="highcharts-graph" stroke="#999999" stroke-width="2"></path><text x="21" y="15" style="color:#333333;cursor:pointer;font-size:12px;font-weight:normal;fill:#333333;" text-anchor="start" data-z-index="2"><tspan>Stadt Basel</tspan></text></g></g></g></g><g class="highcharts-axis-labels highcharts-xaxis-labels" data-z-index="7"><text x="43.88684251141067" style="color:#000000;cursor:default;font-size:11px;fill:#000000;" text-anchor="end" transform="translate(0,0) rotate(-45 43.88684251141067 354)" y="354" opacity="1">2003</text><text x="65.35743074670468" style="color:#000000;cursor:default;font-size:11px;fill:#000000;" text-anchor="end" transform="translate(0,0) rotate(-45 65.35743074670468 354)" y="354" opacity="1">2004</text><text x="86.82801898199867" style="color:#000000;cursor:default;font-size:11px;fill:#000000;" text-anchor="end" transform="translate(0,0) rotate(-45 86.82801898199867 354)" y="354" opacity="1">2005</text><text x="108.29860721729067" style="color:#000000;cursor:default;font-size:11px;fill:#000000;" text-anchor="end" transform="translate(0,0) rotate(-45 108.29860721729067 354)" y="354" opacity="1">2006</text><text x="129.76919545259068" style="color:#000000;cursor:default;font-size:11px;fill:#000000;" text-anchor="end" transform="translate(0,0) rotate(-45 129.76919545259068 354)" y="354" opacity="1">2007</text><text x="151.23978368788067" style="color:#000000;cursor:default;font-size:11px;fill:#000000;" text-anchor="end" transform="translate(0,0) rotate(-45 151.23978368788067 354)" y="354" opacity="1">2008</text><text x="172.7103719231707" style="color:#000000;cursor:default;font-size:11px;fill:#000000;" text-anchor="end" transform="translate(0,0) rotate(-45 172.7103719231707 354)" y="354" opacity="1">2009</text><text x="194.1809601584707" style="color:#000000;cursor:default;font-size:11px;fill:#000000;" text-anchor="end" transform="translate(0,0) rotate(-45 194.1809601584707 354)" y="354" opacity="1">2010</text><text x="215.6515483937607" style="color:#000000;cursor:default;font-size:11px;fill:#000000;" text-anchor="end" transform="translate(0,0) rotate(-45 215.6515483937607 354)" y="354" opacity="1">2011</text><text x="237.1221366290607" style="color:#000000;cursor:default;font-size:11px;fill:#000000;" text-anchor="end" transform="translate(0,0) rotate(-45 237.1221366290607 354)" y="354" opacity="1">2012</text><text x="258.59272486435066" style="color:#000000;cursor:default;font-size:11px;fill:#000000;" text-anchor="end" transform="translate(0,0) rotate(-45 258.59272486435066 354)" y="354" opacity="1">2013</text><text x="280.06331309964065" style="color:#000000;cursor:default;font-size:11px;fill:#000000;" text-anchor="end" transform="translate(0,0) rotate(-45 280.06331309964065 354)" y="354" opacity="1">2014</text><text x="301.53390133494065" style="color:#000000;cursor:default;font-size:11px;fill:#000000;" text-anchor="end" transform="translate(0,0) rotate(-45 301.53390133494065 354)" y="354" opacity="1">2015</text><text x="323.00448957023065" style="color:#000000;cursor:default;font-size:11px;fill:#000000;" text-anchor="end" transform="translate(0,0) rotate(-45 323.00448957023065 354)" y="354" opacity="1">2016</text><text x="344.47507780553065" style="color:#000000;cursor:default;font-size:11px;fill:#000000;" text-anchor="end" transform="translate(0,0) rotate(-45 344.47507780553065 354)" y="354" opacity="1">2017</text><text x="365.94566604082064" style="color:#000000;cursor:default;font-size:11px;fill:#000000;" text-anchor="end" transform="translate(0,0) rotate(-45 365.94566604082064 354)" y="354" opacity="1">2018</text><text x="387.41625427611064" style="color:#000000;cursor:default;font-size:11px;fill:#000000;" text-anchor="end" transform="translate(0,0) rotate(-45 387.41625427611064 354)" y="354" opacity="1">2019</text><text x="408.88684251141063" style="color:#000000;cursor:default;font-size:11px;fill:#000000;" text-anchor="end" transform="translate(0,0) rotate(-45 408.88684251141063 354)" y="354" opacity="1">2020</text><text x="430.35743074670063" style="color:#000000;cursor:default;font-size:11px;fill:#000000;" text-anchor="end" transform="translate(0,0) rotate(-45 430.35743074670063 354)" y="354" opacity="1">2021</text><text x="451.8280189820007" style="color:#000000;cursor:default;font-size:11px;fill:#000000;" text-anchor="end" transform="translate(0,0) rotate(-45 451.8280189820007 354)" y="354" opacity="1">2022</text><text x="473.2986072172907" style="color:#000000;cursor:default;font-size:11px;fill:#000000;" text-anchor="end" transform="translate(0,0) rotate(-45 473.2986072172907 354)" y="354" opacity="1">2023</text></g><g class="highcharts-axis-labels highcharts-yaxis-labels" data-z-index="7"><text x="22" style="color:#000000;cursor:default;font-size:11px;fill:#000000;" text-anchor="end" transform="translate(0,0)" y="342" opacity="1">0</text><text x="22" style="color:#000000;cursor:default;font-size:11px;fill:#000000;" text-anchor="end" transform="translate(0,0)" y="282" opacity="1">10</text><text x="22" style="color:#000000;cursor:default;font-size:11px;fill:#000000;" text-anchor="end" transform="translate(0,0)" y="223" opacity="1">20</text><text x="22" style="color:#000000;cursor:default;font-size:11px;fill:#000000;" text-anchor="end" transform="translate(0,0)" y="163" opacity="1">30</text><text x="22" style="color:#000000;cursor:default;font-size:11px;fill:#000000;" text-anchor="end" transform="translate(0,0)" y="103" opacity="1">40</text></g><text x="10" class="highcharts-credits" text-anchor="start" data-z-index="8" style="cursor:default;color:#000000;font-size:10px;fill:#000000;" y="403"><tspan>Quelle: Statistisches Amt Basel-Stadt, Bevölkerungsstatistik.</tspan><tspan x="10" dy="13">Zuletzt geändert: 31.7.2024</tspan></text><g class="highcharts-control-points" data-z-index="99" clip-path="url(#highcharts-qb3sojf-135-)"></g></svg>