<?xml version="1.0" standalone="no"?><!DOCTYPE svg PUBLIC "-//W3C//DTD SVG 1.1//EN" "http://www.w3.org/Graphics/SVG/1.1/DTD/svg11.dtd"><svg xmlns:xlink="http://www.w3.org/1999/xlink" version="1.1" class="highcharts-root" style="font-family:Arial;font-size:12px;" xmlns="http://www.w3.org/2000/svg" viewBox="0 0 485 415"><desc>Created with Highcharts 8.2.0</desc><defs><clipPath id="highcharts-92dxuil-97-"><rect x="0" y="0" width="422" height="203" fill="none"></rect></clipPath><clipPath id="highcharts-92dxuil-128-"><rect x="0" y="0" width="422" height="203" fill="none"></rect></clipPath><clipPath id="highcharts-92dxuil-189-"><rect x="53" y="119" width="422" height="203" fill="none"></rect></clipPath></defs><rect fill="#fbfbfb" class="highcharts-background" x="0" y="0" width="485" height="428" rx="0" ry="0"></rect><rect fill="none" class="highcharts-plot-background" x="53" y="119" width="422" height="203"></rect><g class="highcharts-pane-group" data-z-index="0"></g><g class="highcharts-grid highcharts-xaxis-grid" data-z-index="1"><path fill="none" data-z-index="1" class="highcharts-grid-line" d="M 66.5 119 L 66.5 322" opacity="1"></path><path fill="none" data-z-index="1" class="highcharts-grid-line" d="M 80.5 119 L 80.5 322" opacity="1"></path><path fill="none" data-z-index="1" class="highcharts-grid-line" d="M 94.5 119 L 94.5 322" opacity="1"></path><path fill="none" data-z-index="1" class="highcharts-grid-line" d="M 108.5 119 L 108.5 322" opacity="1"></path><path fill="none" data-z-index="1" class="highcharts-grid-line" d="M 122.5 119 L 122.5 322" opacity="1"></path><path fill="none" data-z-index="1" class="highcharts-grid-line" d="M 136.5 119 L 136.5 322" opacity="1"></path><path fill="none" data-z-index="1" class="highcharts-grid-line" d="M 150.5 119 L 150.5 322" opacity="1"></path><path fill="none" data-z-index="1" class="highcharts-grid-line" d="M 165.5 119 L 165.5 322" opacity="1"></path><path fill="none" data-z-index="1" class="highcharts-grid-line" d="M 179.5 119 L 179.5 322" opacity="1"></path><path fill="none" data-z-index="1" class="highcharts-grid-line" d="M 193.5 119 L 193.5 322" opacity="1"></path><path fill="none" data-z-index="1" class="highcharts-grid-line" d="M 207.5 119 L 207.5 322" opacity="1"></path><path fill="none" data-z-index="1" class="highcharts-grid-line" d="M 221.5 119 L 221.5 322" opacity="1"></path><path fill="none" data-z-index="1" class="highcharts-grid-line" d="M 235.5 119 L 235.5 322" opacity="1"></path><path fill="none" data-z-index="1" class="highcharts-grid-line" d="M 249.5 119 L 249.5 322" opacity="1"></path><path fill="none" data-z-index="1" class="highcharts-grid-line" d="M 263.5 119 L 263.5 322" opacity="1"></path><path fill="none" data-z-index="1" class="highcharts-grid-line" d="M 277.5 119 L 277.5 322" opacity="1"></path><path fill="none" data-z-index="1" class="highcharts-grid-line" d="M 291.5 119 L 291.5 322" opacity="1"></path><path fill="none" data-z-index="1" class="highcharts-grid-line" d="M 305.5 119 L 305.5 322" opacity="1"></path><path fill="none" data-z-index="1" class="highcharts-grid-line" d="M 319.5 119 L 319.5 322" opacity="1"></path><path fill="none" data-z-index="1" class="highcharts-grid-line" d="M 333.5 119 L 333.5 322" opacity="1"></path><path fill="none" data-z-index="1" class="highcharts-grid-line" d="M 347.5 119 L 347.5 322" opacity="1"></path><path fill="none" data-z-index="1" class="highcharts-grid-line" d="M 361.5 119 L 361.5 322" opacity="1"></path><path fill="none" data-z-index="1" class="highcharts-grid-line" d="M 376.5 119 L 376.5 322" opacity="1"></path><path fill="none" data-z-index="1" class="highcharts-grid-line" d="M 390.5 119 L 390.5 322" opacity="1"></path><path fill="none" data-z-index="1" class="highcharts-grid-line" d="M 404.5 119 L 404.5 322" opacity="1"></path><path fill="none" data-z-index="1" class="highcharts-grid-line" d="M 418.5 119 L 418.5 322" opacity="1"></path><path fill="none" data-z-index="1" class="highcharts-grid-line" d="M 432.5 119 L 432.5 322" opacity="1"></path><path fill="none" data-z-index="1" class="highcharts-grid-line" d="M 446.5 119 L 446.5 322" opacity="1"></path><path fill="none" data-z-index="1" class="highcharts-grid-line" d="M 460.5 119 L 460.5 322" opacity="1"></path><path fill="none" data-z-index="1" class="highcharts-grid-line" d="M 474.5 119 L 474.5 322" opacity="1"></path><path fill="none" data-z-index="1" class="highcharts-grid-line" d="M 52.5 119 L 52.5 322" opacity="1"></path></g><g class="highcharts-grid highcharts-yaxis-grid" data-z-index="1"><path fill="none" stroke="#B9CFD7" stroke-width="0.5" data-z-index="1" class="highcharts-grid-line" d="M 53 322.25 L 475 322.25" opacity="1"></path><path fill="none" stroke="#B9CFD7" stroke-width="0.5" data-z-index="1" class="highcharts-grid-line" d="M 53 302.25 L 475 302.25" opacity="1"></path><path fill="none" stroke="#B9CFD7" stroke-width="0.5" data-z-index="1" class="highcharts-grid-line" d="M 53 281.25 L 475 281.25" opacity="1"></path><path fill="none" stroke="#B9CFD7" stroke-width="0.5" data-z-index="1" class="highcharts-grid-line" d="M 53 261.25 L 475 261.25" opacity="1"></path><path fill="none" stroke="#B9CFD7" stroke-width="0.5" data-z-index="1" class="highcharts-grid-line" d="M 53 241.25 L 475 241.25" opacity="1"></path><path fill="none" stroke="#B9CFD7" stroke-width="0.5" data-z-index="1" class="highcharts-grid-line" d="M 53 221.25 L 475 221.25" opacity="1"></path><path fill="none" stroke="#B9CFD7" stroke-width="0.5" data-z-index="1" class="highcharts-grid-line" d="M 53 200.25 L 475 200.25" opacity="1"></path><path fill="none" stroke="#B9CFD7" stroke-width="0.5" data-z-index="1" class="highcharts-grid-line" d="M 53 180.25 L 475 180.25" opacity="1"></path><path fill="none" stroke="#B9CFD7" stroke-width="0.5" data-z-index="1" class="highcharts-grid-line" d="M 53 160.25 L 475 160.25" opacity="1"></path><path fill="none" stroke="#B9CFD7" stroke-width="0.5" data-z-index="1" class="highcharts-grid-line" d="M 53 139.25 L 475 139.25" opacity="1"></path><path fill="none" stroke="#B9CFD7" stroke-width="0.5" data-z-index="1" class="highcharts-grid-line" d="M 53 118.75 L 475 118.75" opacity="1"></path></g><rect fill="none" class="highcharts-plot-border" data-z-index="1" x="53" y="119" width="422" height="203"></rect><g class="highcharts-axis highcharts-xaxis" data-z-index="2"><path fill="none" class="highcharts-axis-line" stroke="#B9CFD7" stroke-width="0.5" data-z-index="7" d="M 53 322.25 L 475 322.25"></path></g><g class="highcharts-axis highcharts-yaxis" data-z-index="2"><path fill="none" class="highcharts-axis-line" data-z-index="7" d="M 53 119 L 53 322"></path></g><g class="highcharts-series-group" data-z-index="3"><g class="highcharts-series highcharts-series-0 highcharts-column-series" data-z-index="0.1" opacity="1" transform="translate(53,119) scale(1 1)" clip-path="url(#highcharts-92dxuil-128-)"><rect x="3.5" y="-0.5" width="7" height="93" fill="#2f656b" stroke="#ffffff" stroke-width="1e-7" opacity="1" class="highcharts-point"></rect><rect x="17.5" y="-0.5" width="7" height="83" fill="#2f656b" stroke="#ffffff" stroke-width="1e-7" opacity="1" class="highcharts-point"></rect><rect x="45.5" y="-0.5" width="7" height="92" fill="#2f656b" stroke="#ffffff" stroke-width="1e-7" opacity="1" class="highcharts-point"></rect><rect x="59.5" y="-0.5" width="7" height="83" fill="#2f656b" stroke="#ffffff" stroke-width="1e-7" opacity="1" class="highcharts-point"></rect><rect x="87.5" y="-0.5" width="7" height="94" fill="#2f656b" stroke="#ffffff" stroke-width="1e-7" opacity="1" class="highcharts-point"></rect><rect x="101.5" y="-0.5" width="7" height="83" fill="#2f656b" stroke="#ffffff" stroke-width="1e-7" opacity="1" class="highcharts-point"></rect><rect x="129.5" y="-0.5" width="7" height="93" fill="#2f656b" stroke="#ffffff" stroke-width="1e-7" opacity="1" class="highcharts-point"></rect><rect x="143.5" y="-0.5" width="7" height="86" fill="#2f656b" stroke="#ffffff" stroke-width="1e-7" opacity="1" class="highcharts-point"></rect><rect x="171.5" y="-0.5" width="7" height="94" fill="#2f656b" stroke="#ffffff" stroke-width="1e-7" opacity="1" class="highcharts-point"></rect><rect x="186.5" y="-0.5" width="7" height="85" fill="#2f656b" stroke="#ffffff" stroke-width="1e-7" opacity="1" class="highcharts-point"></rect><rect x="214.5" y="-0.5" width="7" height="96" fill="#2f656b" stroke="#ffffff" stroke-width="1e-7" opacity="1" class="highcharts-point"></rect><rect x="228.5" y="-0.5" width="7" height="87" fill="#2f656b" stroke="#ffffff" stroke-width="1e-7" opacity="1" class="highcharts-point"></rect><rect x="256.5" y="-0.5" width="7" height="99" fill="#2f656b" stroke="#ffffff" stroke-width="1e-7" opacity="1" class="highcharts-point"></rect><rect x="270.5" y="-0.5" width="7" height="86" fill="#2f656b" stroke="#ffffff" stroke-width="1e-7" opacity="1" class="highcharts-point"></rect><rect x="298.5" y="-0.5" width="7" height="99" fill="#2f656b" stroke="#ffffff" stroke-width="1e-7" opacity="1" class="highcharts-point"></rect><rect x="312.5" y="-0.5" width="7" height="88" fill="#2f656b" stroke="#ffffff" stroke-width="1e-7" opacity="1" class="highcharts-point"></rect><rect x="340.5" y="-0.5" width="7" height="101" fill="#2f656b" stroke="#ffffff" stroke-width="1e-7" opacity="1" class="highcharts-point"></rect><rect x="354.5" y="-0.5" width="7" height="87" fill="#2f656b" stroke="#ffffff" stroke-width="1e-7" opacity="1" class="highcharts-point"></rect><rect x="382.5" y="-0.5" width="7" height="101" fill="#2f656b" stroke="#ffffff" stroke-width="1e-7" opacity="1" class="highcharts-point"></rect><rect x="397.5" y="-0.5" width="7" height="91" fill="#2f656b" stroke="#ffffff" stroke-width="1e-7" opacity="1" class="highcharts-point"></rect></g><g class="highcharts-markers highcharts-series-0 highcharts-column-series" data-z-index="0.1" opacity="1" transform="translate(53,119) scale(1 1)" clip-path="none"></g><g class="highcharts-series highcharts-series-1 highcharts-column-series" data-z-index="0.1" opacity="1" transform="translate(53,119) scale(1 1)" clip-path="url(#highcharts-92dxuil-128-)"><rect x="3.5" y="92.5" width="7" height="88" fill="#73b97c" stroke="#ffffff" stroke-width="1e-7" opacity="1" class="highcharts-point"></rect><rect x="17.5" y="82.5" width="7" height="102" fill="#73b97c" stroke="#ffffff" stroke-width="1e-7" opacity="1" class="highcharts-point"></rect><rect x="45.5" y="91.5" width="7" height="88" fill="#73b97c" stroke="#ffffff" stroke-width="1e-7" opacity="1" class="highcharts-point"></rect><rect x="59.5" y="82.5" width="7" height="100" fill="#73b97c" stroke="#ffffff" stroke-width="1e-7" opacity="1" class="highcharts-point"></rect><rect x="87.5" y="93.5" width="7" height="87" fill="#73b97c" stroke="#ffffff" stroke-width="1e-7" opacity="1" class="highcharts-point"></rect><rect x="101.5" y="82.5" width="7" height="101" fill="#73b97c" stroke="#ffffff" stroke-width="1e-7" opacity="1" class="highcharts-point"></rect><rect x="129.5" y="92.5" width="7" height="86" fill="#73b97c" stroke="#ffffff" stroke-width="1e-7" opacity="1" class="highcharts-point"></rect><rect x="143.5" y="85.5" width="7" height="99" fill="#73b97c" stroke="#ffffff" stroke-width="1e-7" opacity="1" class="highcharts-point"></rect><rect x="171.5" y="93.5" width="7" height="86" fill="#73b97c" stroke="#ffffff" stroke-width="1e-7" opacity="1" class="highcharts-point"></rect><rect x="186.5" y="84.5" width="7" height="100" fill="#73b97c" stroke="#ffffff" stroke-width="1e-7" opacity="1" class="highcharts-point"></rect><rect x="214.5" y="95.5" width="7" height="84" fill="#73b97c" stroke="#ffffff" stroke-width="1e-7" opacity="1" class="highcharts-point"></rect><rect x="228.5" y="86.5" width="7" height="100" fill="#73b97c" stroke="#ffffff" stroke-width="1e-7" opacity="1" class="highcharts-point"></rect><rect x="256.5" y="98.5" width="7" height="82" fill="#73b97c" stroke="#ffffff" stroke-width="1e-7" opacity="1" class="highcharts-point"></rect><rect x="270.5" y="85.5" width="7" height="99" fill="#73b97c" stroke="#ffffff" stroke-width="1e-7" opacity="1" class="highcharts-point"></rect><rect x="298.5" y="98.5" width="7" height="81" fill="#73b97c" stroke="#ffffff" stroke-width="1e-7" opacity="1" class="highcharts-point"></rect><rect x="312.5" y="87.5" width="7" height="96" fill="#73b97c" stroke="#ffffff" stroke-width="1e-7" opacity="1" class="highcharts-point"></rect><rect x="340.5" y="100.5" width="7" height="79" fill="#73b97c" stroke="#ffffff" stroke-width="1e-7" opacity="1" class="highcharts-point"></rect><rect x="354.5" y="86.5" width="7" height="97" fill="#73b97c" stroke="#ffffff" stroke-width="1e-7" opacity="1" class="highcharts-point"></rect><rect x="382.5" y="100.5" width="7" height="78" fill="#73b97c" stroke="#ffffff" stroke-width="1e-7" opacity="1" class="highcharts-point"></rect><rect x="397.5" y="90.5" width="7" height="95" fill="#73b97c" stroke="#ffffff" stroke-width="1e-7" opacity="1" class="highcharts-point"></rect></g><g class="highcharts-markers highcharts-series-1 highcharts-column-series" data-z-index="0.1" opacity="1" transform="translate(53,119) scale(1 1)" clip-path="none"></g><g class="highcharts-series highcharts-series-2 highcharts-column-series" data-z-index="0.1" opacity="1" transform="translate(53,119) scale(1 1)" clip-path="url(#highcharts-92dxuil-128-)"><rect x="3.5" y="180.5" width="7" height="23" fill="#d7e8d2" stroke="#ffffff" stroke-width="1e-7" opacity="1" class="highcharts-point"></rect><rect x="17.5" y="184.5" width="7" height="19" fill="#d7e8d2" stroke="#ffffff" stroke-width="1e-7" opacity="1" class="highcharts-point"></rect><rect x="45.5" y="179.5" width="7" height="24" fill="#d7e8d2" stroke="#ffffff" stroke-width="1e-7" opacity="1" class="highcharts-point"></rect><rect x="59.5" y="182.5" width="7" height="21" fill="#d7e8d2" stroke="#ffffff" stroke-width="1e-7" opacity="1" class="highcharts-point"></rect><rect x="87.5" y="180.5" width="7" height="23" fill="#d7e8d2" stroke="#ffffff" stroke-width="1e-7" opacity="1" class="highcharts-point"></rect><rect x="101.5" y="183.5" width="7" height="20" fill="#d7e8d2" stroke="#ffffff" stroke-width="1e-7" opacity="1" class="highcharts-point"></rect><rect x="129.5" y="178.5" width="7" height="25" fill="#d7e8d2" stroke="#ffffff" stroke-width="1e-7" opacity="1" class="highcharts-point"></rect><rect x="143.5" y="184.5" width="7" height="19" fill="#d7e8d2" stroke="#ffffff" stroke-width="1e-7" opacity="1" class="highcharts-point"></rect><rect x="171.5" y="179.5" width="7" height="24" fill="#d7e8d2" stroke="#ffffff" stroke-width="1e-7" opacity="1" class="highcharts-point"></rect><rect x="186.5" y="184.5" width="7" height="19" fill="#d7e8d2" stroke="#ffffff" stroke-width="1e-7" opacity="1" class="highcharts-point"></rect><rect x="214.5" y="179.5" width="7" height="24" fill="#d7e8d2" stroke="#ffffff" stroke-width="1e-7" opacity="1" class="highcharts-point"></rect><rect x="228.5" y="186.5" width="7" height="17" fill="#d7e8d2" stroke="#ffffff" stroke-width="1e-7" opacity="1" class="highcharts-point"></rect><rect x="256.5" y="180.5" width="7" height="23" fill="#d7e8d2" stroke="#ffffff" stroke-width="1e-7" opacity="1" class="highcharts-point"></rect><rect x="270.5" y="184.5" width="7" height="19" fill="#d7e8d2" stroke="#ffffff" stroke-width="1e-7" opacity="1" class="highcharts-point"></rect><rect x="298.5" y="179.5" width="7" height="24" fill="#d7e8d2" stroke="#ffffff" stroke-width="1e-7" opacity="1" class="highcharts-point"></rect><rect x="312.5" y="183.5" width="7" height="20" fill="#d7e8d2" stroke="#ffffff" stroke-width="1e-7" opacity="1" class="highcharts-point"></rect><rect x="340.5" y="179.5" width="7" height="24" fill="#d7e8d2" stroke="#ffffff" stroke-width="1e-7" opacity="1" class="highcharts-point"></rect><rect x="354.5" y="183.5" width="7" height="20" fill="#d7e8d2" stroke="#ffffff" stroke-width="1e-7" opacity="1" class="highcharts-point"></rect><rect x="382.5" y="178.5" width="7" height="25" fill="#d7e8d2" stroke="#ffffff" stroke-width="1e-7" opacity="1" class="highcharts-point"></rect><rect x="397.5" y="185.5" width="7" height="18" fill="#d7e8d2" stroke="#ffffff" stroke-width="1e-7" opacity="1" class="highcharts-point"></rect></g><g class="highcharts-markers highcharts-series-2 highcharts-column-series" data-z-index="0.1" opacity="1" transform="translate(53,119) scale(1 1)" clip-path="none"></g></g><text x="10" text-anchor="start" class="highcharts-title" data-z-index="4" style="color:#000000;font-size:14px;font-weight:bold;fill:#000000;" y="21"><tspan>Haushalte nach Art des Haushalts</tspan></text><text x="10" text-anchor="start" class="highcharts-subtitle" data-z-index="4" style="color:#000000;font-size:12px;font-weight:normal;fill:#000000;" y="40"><tspan>Wohnviertel Klybeck und Kleinhüningen</tspan></text><text x="10" text-anchor="start" class="highcharts-caption" data-z-index="4" style="color:#666666;fill:#666666;" y="400"></text><g class="highcharts-legend" data-z-index="7" transform="translate(45,56)"><rect fill="none" class="highcharts-legend-box" rx="0" ry="0" x="0" y="0" width="330" height="51" visibility="visible"></rect><g data-z-index="1"><g><g class="highcharts-legend-item highcharts-column-series highcharts-color-undefined highcharts-series-0" data-z-index="1" transform="translate(8,3)"><text x="21" style="color:#333333;cursor:pointer;font-size:12px;font-weight:normal;fill:#333333;" text-anchor="start" data-z-index="2" y="15"><tspan>Einpersonenhaushalte</tspan></text><rect x="2" y="4" width="12" height="12" fill="#2f656b" class="highcharts-point" data-z-index="3"></rect></g><g class="highcharts-legend-item highcharts-column-series highcharts-color-undefined highcharts-series-1" data-z-index="1" transform="translate(175,3)"><text x="21" y="15" style="color:#333333;cursor:pointer;font-size:12px;font-weight:normal;fill:#333333;" text-anchor="start" data-z-index="2"><tspan>Familienhaushalte</tspan></text><rect x="2" y="4" width="12" height="12" fill="#73b97c" class="highcharts-point" data-z-index="3"></rect></g><g class="highcharts-legend-item highcharts-column-series highcharts-color-undefined highcharts-series-2" data-z-index="1" transform="translate(8,23)"><text x="21" y="15" style="color:#333333;cursor:pointer;font-size:12px;font-weight:normal;fill:#333333;" text-anchor="start" data-z-index="2"><tspan>Andere Haushalte</tspan></text><rect x="2" y="4" width="12" height="12" fill="#d7e8d2" class="highcharts-point" data-z-index="3"></rect></g></g></g></g><g class="highcharts-axis-labels highcharts-xaxis-labels" data-z-index="7"><text x="62.626058197684344" style="color:#000000;cursor:default;font-size:11px;fill:#000000;" text-anchor="end" transform="translate(0,0) rotate(-45 62.626058197684344 338)" y="338" opacity="1"><tspan>2014: Klybeck</tspan></text><text x="76.69272486435034" style="color:#000000;cursor:default;font-size:11px;fill:#000000;" text-anchor="end" transform="translate(0,0) rotate(-45 76.69272486435034 338)" y="338" opacity="1"><tspan>2014: Kleinh.</tspan></text><text x="90.75939153101734" style="color:#000000;cursor:default;font-size:11px;fill:#000000;" text-anchor="end" transform="translate(0,0) rotate(-45 90.75939153101734 338)" y="338" opacity="1"></text><text x="104.82605819768735" style="color:#000000;cursor:default;font-size:11px;fill:#000000;" text-anchor="end" transform="translate(0,0) rotate(-45 104.82605819768735 338)" y="338" opacity="1"><tspan>2015: Klybeck</tspan></text><text x="118.89272486434734" style="color:#000000;cursor:default;font-size:11px;fill:#000000;" text-anchor="end" transform="translate(0,0) rotate(-45 118.89272486434734 338)" y="338" opacity="1"><tspan>2015: Kleinh.</tspan></text><text x="132.95939153101736" style="color:#000000;cursor:default;font-size:11px;fill:#000000;" text-anchor="end" transform="translate(0,0) rotate(-45 132.95939153101736 338)" y="338" opacity="1"></text><text x="147.02605819768735" style="color:#000000;cursor:default;font-size:11px;fill:#000000;" text-anchor="end" transform="translate(0,0) rotate(-45 147.02605819768735 338)" y="338" opacity="1"><tspan>2016: Klybeck</tspan></text><text x="161.09272486434736" style="color:#000000;cursor:default;font-size:11px;fill:#000000;" text-anchor="end" transform="translate(0,0) rotate(-45 161.09272486434736 338)" y="338" opacity="1"><tspan>2016: Kleinh.</tspan></text><text x="175.15939153101735" style="color:#000000;cursor:default;font-size:11px;fill:#000000;" text-anchor="end" transform="translate(0,0) rotate(-45 175.15939153101735 338)" y="338" opacity="1"></text><text x="189.22605819768737" style="color:#000000;cursor:default;font-size:11px;fill:#000000;" text-anchor="end" transform="translate(0,0) rotate(-45 189.22605819768737 338)" y="338" opacity="1"><tspan>2017: Klybeck</tspan></text><text x="203.29272486434735" style="color:#000000;cursor:default;font-size:11px;fill:#000000;" text-anchor="end" transform="translate(0,0) rotate(-45 203.29272486434735 338)" y="338" opacity="1"><tspan>2017: Kleinh.</tspan></text><text x="217.35939153101737" style="color:#000000;cursor:default;font-size:11px;fill:#000000;" text-anchor="end" transform="translate(0,0) rotate(-45 217.35939153101737 338)" y="338" opacity="1"></text><text x="231.42605819768735" style="color:#000000;cursor:default;font-size:11px;fill:#000000;" text-anchor="end" transform="translate(0,0) rotate(-45 231.42605819768735 338)" y="338" opacity="1"><tspan>2018: Klybeck</tspan></text><text x="245.49272486434737" style="color:#000000;cursor:default;font-size:11px;fill:#000000;" text-anchor="end" transform="translate(0,0) rotate(-45 245.49272486434737 338)" y="338" opacity="1"><tspan>2018: Kleinh.</tspan></text><text x="259.5593915310173" style="color:#000000;cursor:default;font-size:11px;fill:#000000;" text-anchor="end" transform="translate(0,0) rotate(-45 259.5593915310173 338)" y="338" opacity="1"></text><text x="273.6260581976873" style="color:#000000;cursor:default;font-size:11px;fill:#000000;" text-anchor="end" transform="translate(0,0) rotate(-45 273.6260581976873 338)" y="338" opacity="1"><tspan>2019: Klybeck</tspan></text><text x="287.69272486434727" style="color:#000000;cursor:default;font-size:11px;fill:#000000;" text-anchor="end" transform="translate(0,0) rotate(-45 287.69272486434727 338)" y="338" opacity="1"><tspan>2019: Kleinh.</tspan></text><text x="301.7593915310173" style="color:#000000;cursor:default;font-size:11px;fill:#000000;" text-anchor="end" transform="translate(0,0) rotate(-45 301.7593915310173 338)" y="338" opacity="1"></text><text x="315.8260581976873" style="color:#000000;cursor:default;font-size:11px;fill:#000000;" text-anchor="end" transform="translate(0,0) rotate(-45 315.8260581976873 338)" y="338" opacity="1"><tspan>2020: Klybeck</tspan></text><text x="329.8927248643473" style="color:#000000;cursor:default;font-size:11px;fill:#000000;" text-anchor="end" transform="translate(0,0) rotate(-45 329.8927248643473 338)" y="338" opacity="1"><tspan>2020: Kleinh.</tspan></text><text x="343.9593915310173" style="color:#000000;cursor:default;font-size:11px;fill:#000000;" text-anchor="end" transform="translate(0,0) rotate(-45 343.9593915310173 338)" y="338" opacity="1"></text><text x="358.0260581976873" style="color:#000000;cursor:default;font-size:11px;fill:#000000;" text-anchor="end" transform="translate(0,0) rotate(-45 358.0260581976873 338)" y="338" opacity="1"><tspan>2021: Klybeck</tspan></text><text x="372.0927248643473" style="color:#000000;cursor:default;font-size:11px;fill:#000000;" text-anchor="end" transform="translate(0,0) rotate(-45 372.0927248643473 338)" y="338" opacity="1"><tspan>2021: Kleinh.</tspan></text><text x="386.1593915310173" style="color:#000000;cursor:default;font-size:11px;fill:#000000;" text-anchor="end" transform="translate(0,0) rotate(-45 386.1593915310173 338)" y="338" opacity="1"></text><text x="400.2260581976873" style="color:#000000;cursor:default;font-size:11px;fill:#000000;" text-anchor="end" transform="translate(0,0) rotate(-45 400.2260581976873 338)" y="338" opacity="1"><tspan>2022: Klybeck</tspan></text><text x="414.2927248643473" style="color:#000000;cursor:default;font-size:11px;fill:#000000;" text-anchor="end" transform="translate(0,0) rotate(-45 414.2927248643473 338)" y="338" opacity="1"><tspan>2022: Kleinh.</tspan></text><text x="428.3593915310173" style="color:#000000;cursor:default;font-size:11px;fill:#000000;" text-anchor="end" transform="translate(0,0) rotate(-45 428.3593915310173 338)" y="338" opacity="1"></text><text x="442.4260581976873" style="color:#000000;cursor:default;font-size:11px;fill:#000000;" text-anchor="end" transform="translate(0,0) rotate(-45 442.4260581976873 338)" y="338" opacity="1"><tspan>2023: Klybeck</tspan></text><text x="456.4927248643473" style="color:#000000;cursor:default;font-size:11px;fill:#000000;" text-anchor="end" transform="translate(0,0) rotate(-45 456.4927248643473 338)" y="338" opacity="1"><tspan>2023: Kleinh.</tspan></text><text x="470.5593915310173" style="color:#000000;cursor:default;font-size:11px;fill:#000000;" text-anchor="end" transform="translate(0,0) rotate(-45 470.5593915310173 338)" y="338" opacity="1"></text></g><g class="highcharts-axis-labels highcharts-yaxis-labels" data-z-index="7"><text x="38" style="color:#000000;cursor:default;font-size:11px;fill:#000000;" text-anchor="end" transform="translate(0,0)" y="326" opacity="1">0%</text><text x="38" style="color:#000000;cursor:default;font-size:11px;fill:#000000;" text-anchor="end" transform="translate(0,0)" y="306" opacity="1">10%</text><text x="38" style="color:#000000;cursor:default;font-size:11px;fill:#000000;" text-anchor="end" transform="translate(0,0)" y="285" opacity="1">20%</text><text x="38" style="color:#000000;cursor:default;font-size:11px;fill:#000000;" text-anchor="end" transform="translate(0,0)" y="265" opacity="1">30%</text><text x="38" style="color:#000000;cursor:default;font-size:11px;fill:#000000;" text-anchor="end" transform="translate(0,0)" y="245" opacity="1">40%</text><text x="38" style="color:#000000;cursor:default;font-size:11px;fill:#000000;" text-anchor="end" transform="translate(0,0)" y="225" opacity="1">50%</text><text x="38" style="color:#000000;cursor:default;font-size:11px;fill:#000000;" text-anchor="end" transform="translate(0,0)" y="204" opacity="1">60%</text><text x="38" style="color:#000000;cursor:default;font-size:11px;fill:#000000;" text-anchor="end" transform="translate(0,0)" y="184" opacity="1">70%</text><text x="38" style="color:#000000;cursor:default;font-size:11px;fill:#000000;" text-anchor="end" transform="translate(0,0)" y="164" opacity="1">80%</text><text x="38" style="color:#000000;cursor:default;font-size:11px;fill:#000000;" text-anchor="end" transform="translate(0,0)" y="143" opacity="1">90%</text><text x="38" style="color:#000000;cursor:default;font-size:11px;fill:#000000;" text-anchor="end" transform="translate(0,0)" y="123" opacity="1">100%</text></g><text x="10" class="highcharts-credits" text-anchor="start" data-z-index="8" style="cursor:default;color:#000000;font-size:10px;fill:#000000;" y="403"><tspan>Quelle: Statistisches Amt Basel-Stadt, Bevölkerungsstatistik.</tspan><tspan x="10" dy="13">Zuletzt geändert: 31.7.2024</tspan></text><g class="highcharts-control-points" data-z-index="99" clip-path="url(#highcharts-92dxuil-189-)"></g></svg>