<?xml version="1.0" standalone="no"?><!DOCTYPE svg PUBLIC "-//W3C//DTD SVG 1.1//EN" "http://www.w3.org/Graphics/SVG/1.1/DTD/svg11.dtd"><svg xmlns:xlink="http://www.w3.org/1999/xlink" version="1.1" class="highcharts-root" style="font-family:Arial;font-size:12px;" xmlns="http://www.w3.org/2000/svg" viewBox="0 0 485 415"><desc>Created with Highcharts 8.2.0</desc><defs><clipPath id="highcharts-pb9aiuk-63-"><rect x="0" y="0" width="417" height="219" fill="none"></rect></clipPath><clipPath id="highcharts-pb9aiuk-78-"><rect x="0" y="0" width="417" height="219" fill="none"></rect></clipPath><clipPath id="highcharts-pb9aiuk-121-"><rect x="58" y="119" width="417" height="219" fill="none"></rect></clipPath></defs><rect fill="#fbfbfb" class="highcharts-background" x="0" y="0" width="485" height="428" rx="0" ry="0"></rect><rect fill="none" class="highcharts-plot-background" x="58" y="119" width="417" height="219"></rect><g class="highcharts-pane-group" data-z-index="0"></g><g class="highcharts-grid highcharts-xaxis-grid" data-z-index="1"><path fill="none" data-z-index="1" class="highcharts-grid-line" d="M 61.5 119 L 61.5 338" opacity="1"></path><path fill="none" data-z-index="1" class="highcharts-grid-line" d="M 93.5 119 L 93.5 338" opacity="1"></path><path fill="none" data-z-index="1" class="highcharts-grid-line" d="M 124.5 119 L 124.5 338" opacity="1"></path><path fill="none" data-z-index="1" class="highcharts-grid-line" d="M 155.5 119 L 155.5 338" opacity="1"></path><path fill="none" data-z-index="1" class="highcharts-grid-line" d="M 187.5 119 L 187.5 338" opacity="1"></path><path fill="none" data-z-index="1" class="highcharts-grid-line" d="M 218.5 119 L 218.5 338" opacity="1"></path><path fill="none" data-z-index="1" class="highcharts-grid-line" d="M 250.5 119 L 250.5 338" opacity="1"></path><path fill="none" data-z-index="1" class="highcharts-grid-line" d="M 281.5 119 L 281.5 338" opacity="1"></path><path fill="none" data-z-index="1" class="highcharts-grid-line" d="M 313.5 119 L 313.5 338" opacity="1"></path><path fill="none" data-z-index="1" class="highcharts-grid-line" d="M 344.5 119 L 344.5 338" opacity="1"></path><path fill="none" data-z-index="1" class="highcharts-grid-line" d="M 376.5 119 L 376.5 338" opacity="1"></path><path fill="none" data-z-index="1" class="highcharts-grid-line" d="M 407.5 119 L 407.5 338" opacity="1"></path><path fill="none" data-z-index="1" class="highcharts-grid-line" d="M 438.5 119 L 438.5 338" opacity="1"></path><path fill="none" data-z-index="1" class="highcharts-grid-line" d="M 470.5 119 L 470.5 338" opacity="1"></path></g><g class="highcharts-grid highcharts-yaxis-grid" data-z-index="1"><path fill="none" stroke="#B9CFD7" stroke-width="0.5" data-z-index="1" class="highcharts-grid-line" d="M 58 338.25 L 475 338.25" opacity="1"></path><path fill="none" stroke="#B9CFD7" stroke-width="0.5" data-z-index="1" class="highcharts-grid-line" d="M 58 294.25 L 475 294.25" opacity="1"></path><path fill="none" stroke="#B9CFD7" stroke-width="0.5" data-z-index="1" class="highcharts-grid-line" d="M 58 250.25 L 475 250.25" opacity="1"></path><path fill="none" stroke="#B9CFD7" stroke-width="0.5" data-z-index="1" class="highcharts-grid-line" d="M 58 207.25 L 475 207.25" opacity="1"></path><path fill="none" stroke="#B9CFD7" stroke-width="0.5" data-z-index="1" class="highcharts-grid-line" d="M 58 163.25 L 475 163.25" opacity="1"></path><path fill="none" stroke="#B9CFD7" stroke-width="0.5" data-z-index="1" class="highcharts-grid-line" d="M 58 118.75 L 475 118.75" opacity="1"></path></g><rect fill="none" class="highcharts-plot-border" data-z-index="1" x="58" y="119" width="417" height="219"></rect><g class="highcharts-axis highcharts-xaxis" data-z-index="2"><path fill="none" class="highcharts-axis-line" stroke="#B9CFD7" stroke-width="0.5" data-z-index="7" d="M 58 338.25 L 475 338.25"></path></g><g class="highcharts-axis highcharts-yaxis" data-z-index="2"><path fill="none" class="highcharts-axis-line" data-z-index="7" d="M 58 119 L 58 338"></path></g><g class="highcharts-series-group" data-z-index="3"><g class="highcharts-series highcharts-series-0 highcharts-line-series" data-z-index="0.1" opacity="1" transform="translate(58,119) scale(1 1)" clip-path="url(#highcharts-pb9aiuk-78-)"><path fill="none" d="M 4.088235294121 23.33663999999999 L 35.536199095025 24.904679999999985 L 66.98416289593 22.097099999999983 L 98.432126696834 31.268819999999977 L 129.88009049774 31.855739999999997 L 161.32805429864 33.27485999999999 L 192.77601809955 33.52014 L 224.22398190045 36.406559999999985 L 255.67194570136 32.539019999999994 L 287.11990950226 33.45882 L 318.56787330317 33.80921999999998 L 350.01583710407 36.34085999999999 L 381.46380090497 36.927779999999984 L 412.91176470588 34.62389999999999" class="highcharts-graph" data-z-index="1" stroke="#cd9c00" stroke-width="2" stroke-linejoin="round" stroke-linecap="round"></path></g><g class="highcharts-markers highcharts-series-0 highcharts-line-series" data-z-index="0.1" opacity="1" transform="translate(58,119) scale(1 1)" clip-path="none"></g><g class="highcharts-series highcharts-series-1 highcharts-line-series" data-z-index="0.1" opacity="1" transform="translate(58,119) scale(1 1)" clip-path="url(#highcharts-pb9aiuk-78-)"><path fill="none" d="M 4.088235294121 35.60720999999998 L 35.536199095025 36.9453 L 66.98416289593 36.448170000000005 L 98.432126696834 46.07102999999998 L 129.88009049774 46.25279999999998 L 161.32805429864 50.247359999999986 L 192.77601809955 50.41817999999998 L 224.22398190045 52.87316999999999 L 255.67194570136 51.460620000000006 L 287.11990950226 51.10584 L 318.56787330317 55.18799999999999 L 350.01583710407 57.805049999999994 L 381.46380090497 60.54035999999999 L 412.91176470588 59.21321999999998" class="highcharts-graph" data-z-index="1" stroke="#7f5f1a" stroke-width="2" stroke-linejoin="round" stroke-linecap="round"></path></g><g class="highcharts-markers highcharts-series-1 highcharts-line-series" data-z-index="0.1" opacity="1" transform="translate(58,119) scale(1 1)" clip-path="none"></g><g class="highcharts-series highcharts-series-2 highcharts-line-series" data-z-index="0.1" opacity="1" transform="translate(58,119) scale(1 1)" clip-path="url(#highcharts-pb9aiuk-78-)"><path fill="none" d="M 4.088235294121 19.473479999999995 L 35.536199095025 18.768299999999982 L 66.98416289593 17.896680000000003 L 98.432126696834 27.125339999999994 L 129.88009049774 29.78837999999999 L 161.32805429864 32.087879999999984 L 192.77601809955 27.401279999999986 L 224.22398190045 22.05329999999998 L 255.67194570136 14.725560000000002 L 287.11990950226 19.76255999999998 L 318.56787330317 17.717099999999988 L 350.01583710407 17.318519999999978 L 381.46380090497 18.991680000000002 L 412.91176470588 20.936399999999992" class="highcharts-graph" data-z-index="1" stroke="#b375ab" stroke-width="2" stroke-linejoin="round" stroke-linecap="round"></path></g><g class="highcharts-markers highcharts-series-2 highcharts-line-series" data-z-index="0.1" opacity="1" transform="translate(58,119) scale(1 1)" clip-path="none"></g><g class="highcharts-series highcharts-series-3 highcharts-line-series" data-z-index="0.1" opacity="1" transform="translate(58,119) scale(1 1)" clip-path="url(#highcharts-pb9aiuk-78-)"><path fill="none" d="M 4.088235294121 35.668530000000004 L 35.536199095025 36.86207999999999 L 66.98416289593 32.74706999999998 L 98.432126696834 42.21006 L 129.88009049774 42.86705999999998 L 161.32805429864 46.502459999999985 L 192.77601809955 41.13477 L 224.22398190045 39.560159999999996 L 255.67194570136 37.37016 L 287.11990950226 35.56121999999999 L 318.56787330317 37.654859999999985 L 350.01583710407 37.80815999999999 L 381.46380090497 42.4203 L 412.91176470588 44.41319999999999" class="highcharts-graph" data-z-index="1" stroke="#923f8d" stroke-width="2" stroke-linejoin="round" stroke-linecap="round"></path></g><g class="highcharts-markers highcharts-series-3 highcharts-line-series" data-z-index="0.1" opacity="1" transform="translate(58,119) scale(1 1)" clip-path="none"></g></g><text x="10" text-anchor="start" class="highcharts-title" data-z-index="4" style="color:#000000;font-size:14px;font-weight:bold;fill:#000000;" y="21"><tspan>Mittelwert und Median des Reineinkommens</tspan></text><text x="10" text-anchor="start" class="highcharts-subtitle" data-z-index="4" style="color:#000000;font-size:12px;font-weight:normal;fill:#000000;" y="40"><tspan>in Franken, Wohnviertel Klybeck und Kleinh체ningen</tspan></text><text x="10" text-anchor="start" class="highcharts-caption" data-z-index="4" style="color:#666666;fill:#666666;" y="385"></text><g class="highcharts-legend" data-z-index="7" transform="translate(50,56)"><rect fill="none" class="highcharts-legend-box" rx="0" ry="0" x="0" y="0" width="346" height="51" visibility="visible"></rect><g data-z-index="1"><g><g class="highcharts-legend-item highcharts-line-series highcharts-color-undefined highcharts-series-0" data-z-index="1" transform="translate(8,3)"><path fill="none" d="M 0 11 L 16 11" class="highcharts-graph" stroke="#cd9c00" stroke-width="2"></path><text x="21" style="color:#333333;cursor:pointer;font-size:12px;font-weight:normal;fill:#333333;" text-anchor="start" data-z-index="2" y="15"><tspan>Mittelwert Klybeck</tspan></text></g><g class="highcharts-legend-item highcharts-line-series highcharts-color-undefined highcharts-series-1" data-z-index="1" transform="translate(183,3)"><path fill="none" d="M 0 11 L 16 11" class="highcharts-graph" stroke="#7f5f1a" stroke-width="2"></path><text x="21" y="15" style="color:#333333;cursor:pointer;font-size:12px;font-weight:normal;fill:#333333;" text-anchor="start" data-z-index="2"><tspan>Median Klybeck</tspan></text></g><g class="highcharts-legend-item highcharts-line-series highcharts-color-undefined highcharts-series-2" data-z-index="1" transform="translate(8,23)"><path fill="none" d="M 0 11 L 16 11" class="highcharts-graph" stroke="#b375ab" stroke-width="2"></path><text x="21" y="15" style="color:#333333;cursor:pointer;font-size:12px;font-weight:normal;fill:#333333;" text-anchor="start" data-z-index="2"><tspan>Mittelwert Kleinh체ningen</tspan></text></g><g class="highcharts-legend-item highcharts-line-series highcharts-color-undefined highcharts-series-3" data-z-index="1" transform="translate(183,23)"><path fill="none" d="M 0 11 L 16 11" class="highcharts-graph" stroke="#923f8d" stroke-width="2"></path><text x="21" y="15" style="color:#333333;cursor:pointer;font-size:12px;font-weight:normal;fill:#333333;" text-anchor="start" data-z-index="2"><tspan>Median Kleinh체ningen</tspan></text></g></g></g></g><g class="highcharts-axis-labels highcharts-xaxis-labels" data-z-index="7"><text x="64.68096015847168" style="color:#000000;cursor:default;font-size:11px;fill:#000000;" text-anchor="end" transform="translate(0,0) rotate(-45 64.68096015847168 354)" y="354" opacity="1">2005</text><text x="96.12892395937567" style="color:#000000;cursor:default;font-size:11px;fill:#000000;" text-anchor="end" transform="translate(0,0) rotate(-45 96.12892395937567 354)" y="354" opacity="1">2006</text><text x="127.57688776028067" style="color:#000000;cursor:default;font-size:11px;fill:#000000;" text-anchor="end" transform="translate(0,0) rotate(-45 127.57688776028067 354)" y="354" opacity="1">2007</text><text x="159.0248515611807" style="color:#000000;cursor:default;font-size:11px;fill:#000000;" text-anchor="end" transform="translate(0,0) rotate(-45 159.0248515611807 354)" y="354" opacity="1">2008</text><text x="190.4728153620907" style="color:#000000;cursor:default;font-size:11px;fill:#000000;" text-anchor="end" transform="translate(0,0) rotate(-45 190.4728153620907 354)" y="354" opacity="1">2009</text><text x="221.9207791629907" style="color:#000000;cursor:default;font-size:11px;fill:#000000;" text-anchor="end" transform="translate(0,0) rotate(-45 221.9207791629907 354)" y="354" opacity="1">2010</text><text x="253.36874296390067" style="color:#000000;cursor:default;font-size:11px;fill:#000000;" text-anchor="end" transform="translate(0,0) rotate(-45 253.36874296390067 354)" y="354" opacity="1">2011</text><text x="284.81670676480064" style="color:#000000;cursor:default;font-size:11px;fill:#000000;" text-anchor="end" transform="translate(0,0) rotate(-45 284.81670676480064 354)" y="354" opacity="1">2012</text><text x="316.2646705657107" style="color:#000000;cursor:default;font-size:11px;fill:#000000;" text-anchor="end" transform="translate(0,0) rotate(-45 316.2646705657107 354)" y="354" opacity="1">2013</text><text x="347.71263436661064" style="color:#000000;cursor:default;font-size:11px;fill:#000000;" text-anchor="end" transform="translate(0,0) rotate(-45 347.71263436661064 354)" y="354" opacity="1">2014</text><text x="379.1605981675207" style="color:#000000;cursor:default;font-size:11px;fill:#000000;" text-anchor="end" transform="translate(0,0) rotate(-45 379.1605981675207 354)" y="354" opacity="1">2015</text><text x="410.60856196842064" style="color:#000000;cursor:default;font-size:11px;fill:#000000;" text-anchor="end" transform="translate(0,0) rotate(-45 410.60856196842064 354)" y="354" opacity="1">2016</text><text x="442.0565257693207" style="color:#000000;cursor:default;font-size:11px;fill:#000000;" text-anchor="end" transform="translate(0,0) rotate(-45 442.0565257693207 354)" y="354" opacity="1">2017</text><text x="473.50448957023065" style="color:#000000;cursor:default;font-size:11px;fill:#000000;" text-anchor="end" transform="translate(0,0) rotate(-45 473.50448957023065 354)" y="354" opacity="1">2018</text></g><g class="highcharts-axis-labels highcharts-yaxis-labels" data-z-index="7"><text x="43" style="color:#000000;cursor:default;font-size:11px;fill:#000000;" text-anchor="end" transform="translate(0,0)" y="342" opacity="1">0</text><text x="43" style="color:#000000;cursor:default;font-size:11px;fill:#000000;" text-anchor="end" transform="translate(0,0)" y="298" opacity="1"><tspan>10 000</tspan></text><text x="43" style="color:#000000;cursor:default;font-size:11px;fill:#000000;" text-anchor="end" transform="translate(0,0)" y="254" opacity="1"><tspan>20 000</tspan></text><text x="43" style="color:#000000;cursor:default;font-size:11px;fill:#000000;" text-anchor="end" transform="translate(0,0)" y="211" opacity="1"><tspan>30 000</tspan></text><text x="43" style="color:#000000;cursor:default;font-size:11px;fill:#000000;" text-anchor="end" transform="translate(0,0)" y="167" opacity="1"><tspan>40 000</tspan></text><text x="43" style="color:#000000;cursor:default;font-size:11px;fill:#000000;" text-anchor="end" transform="translate(0,0)" y="123" opacity="1"><tspan>50 000</tspan></text></g><text x="10" class="highcharts-credits" text-anchor="start" data-z-index="8" style="cursor:default;color:#000000;font-size:10px;fill:#000000;" y="403"><tspan>Quelle: Statistisches Amt Basel-Stadt, Steuerstatistik.</tspan><tspan x="10" dy="13">Zuletzt ge채ndert: 2021-11-24</tspan></text><g class="highcharts-control-points" data-z-index="99" clip-path="url(#highcharts-pb9aiuk-121-)"></g></svg>