<?xml version="1.0" standalone="no"?><!DOCTYPE svg PUBLIC "-//W3C//DTD SVG 1.1//EN" "http://www.w3.org/Graphics/SVG/1.1/DTD/svg11.dtd"><svg xmlns:xlink="http://www.w3.org/1999/xlink" version="1.1" class="highcharts-root" style="font-family:Arial;font-size:12px;" xmlns="http://www.w3.org/2000/svg" viewBox="0 0 485 415"><desc>Created with Highcharts 8.2.0</desc><defs><clipPath id="highcharts-ol86k7n-67-"><rect x="0" y="0" width="417" height="219" fill="none"></rect></clipPath><clipPath id="highcharts-ol86k7n-83-"><rect x="0" y="0" width="417" height="219" fill="none"></rect></clipPath><clipPath id="highcharts-ol86k7n-129-"><rect x="58" y="119" width="417" height="219" fill="none"></rect></clipPath></defs><rect fill="#fbfbfb" class="highcharts-background" x="0" y="0" width="485" height="428" rx="0" ry="0"></rect><rect fill="none" class="highcharts-plot-background" x="58" y="119" width="417" height="219"></rect><g class="highcharts-pane-group" data-z-index="0"></g><g class="highcharts-grid highcharts-xaxis-grid" data-z-index="1"><path fill="none" data-z-index="1" class="highcharts-grid-line" d="M 61.5 119 L 61.5 338" opacity="1"></path><path fill="none" data-z-index="1" class="highcharts-grid-line" d="M 90.5 119 L 90.5 338" opacity="1"></path><path fill="none" data-z-index="1" class="highcharts-grid-line" d="M 119.5 119 L 119.5 338" opacity="1"></path><path fill="none" data-z-index="1" class="highcharts-grid-line" d="M 149.5 119 L 149.5 338" opacity="1"></path><path fill="none" data-z-index="1" class="highcharts-grid-line" d="M 178.5 119 L 178.5 338" opacity="1"></path><path fill="none" data-z-index="1" class="highcharts-grid-line" d="M 207.5 119 L 207.5 338" opacity="1"></path><path fill="none" data-z-index="1" class="highcharts-grid-line" d="M 236.5 119 L 236.5 338" opacity="1"></path><path fill="none" data-z-index="1" class="highcharts-grid-line" d="M 266.5 119 L 266.5 338" opacity="1"></path><path fill="none" data-z-index="1" class="highcharts-grid-line" d="M 295.5 119 L 295.5 338" opacity="1"></path><path fill="none" data-z-index="1" class="highcharts-grid-line" d="M 324.5 119 L 324.5 338" opacity="1"></path><path fill="none" data-z-index="1" class="highcharts-grid-line" d="M 353.5 119 L 353.5 338" opacity="1"></path><path fill="none" data-z-index="1" class="highcharts-grid-line" d="M 382.5 119 L 382.5 338" opacity="1"></path><path fill="none" data-z-index="1" class="highcharts-grid-line" d="M 412.5 119 L 412.5 338" opacity="1"></path><path fill="none" data-z-index="1" class="highcharts-grid-line" d="M 441.5 119 L 441.5 338" opacity="1"></path><path fill="none" data-z-index="1" class="highcharts-grid-line" d="M 470.5 119 L 470.5 338" opacity="1"></path></g><g class="highcharts-grid highcharts-yaxis-grid" data-z-index="1"><path fill="none" stroke="#B9CFD7" stroke-width="0.5" data-z-index="1" class="highcharts-grid-line" d="M 58 338.25 L 475 338.25" opacity="1"></path><path fill="none" stroke="#B9CFD7" stroke-width="0.5" data-z-index="1" class="highcharts-grid-line" d="M 58 294.25 L 475 294.25" opacity="1"></path><path fill="none" stroke="#B9CFD7" stroke-width="0.5" data-z-index="1" class="highcharts-grid-line" d="M 58 250.25 L 475 250.25" opacity="1"></path><path fill="none" stroke="#B9CFD7" stroke-width="0.5" data-z-index="1" class="highcharts-grid-line" d="M 58 207.25 L 475 207.25" opacity="1"></path><path fill="none" stroke="#B9CFD7" stroke-width="0.5" data-z-index="1" class="highcharts-grid-line" d="M 58 163.25 L 475 163.25" opacity="1"></path><path fill="none" stroke="#B9CFD7" stroke-width="0.5" data-z-index="1" class="highcharts-grid-line" d="M 58 118.75 L 475 118.75" opacity="1"></path></g><rect fill="none" class="highcharts-plot-border" data-z-index="1" x="58" y="119" width="417" height="219"></rect><g class="highcharts-axis highcharts-xaxis" data-z-index="2"><path fill="none" class="highcharts-axis-line" stroke="#B9CFD7" stroke-width="0.5" data-z-index="7" d="M 58 338.25 L 475 338.25"></path></g><g class="highcharts-axis highcharts-yaxis" data-z-index="2"><path fill="none" class="highcharts-axis-line" data-z-index="7" d="M 58 119 L 58 338"></path></g><g class="highcharts-series-group" data-z-index="3"><g class="highcharts-series highcharts-series-0 highcharts-line-series" data-z-index="0.1" opacity="1" transform="translate(58,119) scale(1 1)" clip-path="url(#highcharts-ol86k7n-83-)"><path fill="none" d="M 4.0882352941205 23.33663999999999 L 33.289915966389 24.904679999999985 L 62.491596638658 22.097099999999983 L 91.693277310926 31.268819999999977 L 120.89495798319 31.855739999999997 L 150.09663865546 33.27485999999999 L 179.29831932773 33.52014 L 208.5 36.406559999999985 L 237.70168067227 32.539019999999994 L 266.90336134454 33.45882 L 296.10504201681 33.80921999999998 L 325.30672268907 36.34085999999999 L 354.50840336134 36.927779999999984 L 383.71008403361 34.62389999999999 L 412.91176470588 35.16701999999998" class="highcharts-graph" data-z-index="1" stroke="#cd9c00" stroke-width="2" stroke-linejoin="round" stroke-linecap="round"></path></g><g class="highcharts-markers highcharts-series-0 highcharts-line-series" data-z-index="0.1" opacity="1" transform="translate(58,119) scale(1 1)" clip-path="none"></g><g class="highcharts-series highcharts-series-1 highcharts-line-series" data-z-index="0.1" opacity="1" transform="translate(58,119) scale(1 1)" clip-path="url(#highcharts-ol86k7n-83-)"><path fill="none" d="M 4.0882352941205 35.60720999999998 L 33.289915966389 36.9453 L 62.491596638658 36.448170000000005 L 91.693277310926 46.07102999999998 L 120.89495798319 46.25279999999998 L 150.09663865546 50.247359999999986 L 179.29831932773 50.41817999999998 L 208.5 52.87316999999999 L 237.70168067227 51.460620000000006 L 266.90336134454 51.10584 L 296.10504201681 55.18799999999999 L 325.30672268907 57.805049999999994 L 354.50840336134 60.54035999999999 L 383.71008403361 59.21321999999998 L 412.91176470588 59.22636" class="highcharts-graph" data-z-index="1" stroke="#7f5f1a" stroke-width="2" stroke-linejoin="round" stroke-linecap="round"></path></g><g class="highcharts-markers highcharts-series-1 highcharts-line-series" data-z-index="0.1" opacity="1" transform="translate(58,119) scale(1 1)" clip-path="none"></g><g class="highcharts-series highcharts-series-2 highcharts-line-series" data-z-index="0.1" opacity="1" transform="translate(58,119) scale(1 1)" clip-path="url(#highcharts-ol86k7n-83-)"><path fill="none" d="M 4.0882352941205 19.473479999999995 L 33.289915966389 18.768299999999982 L 62.491596638658 17.896680000000003 L 91.693277310926 27.125339999999994 L 120.89495798319 29.78837999999999 L 150.09663865546 32.087879999999984 L 179.29831932773 27.401279999999986 L 208.5 22.05329999999998 L 237.70168067227 14.725560000000002 L 266.90336134454 19.76255999999998 L 296.10504201681 17.717099999999988 L 325.30672268907 17.318519999999978 L 354.50840336134 18.991680000000002 L 383.71008403361 20.936399999999992 L 412.91176470588 21.729179999999985" class="highcharts-graph" data-z-index="1" stroke="#b375ab" stroke-width="2" stroke-linejoin="round" stroke-linecap="round"></path></g><g class="highcharts-markers highcharts-series-2 highcharts-line-series" data-z-index="0.1" opacity="1" transform="translate(58,119) scale(1 1)" clip-path="none"></g><g class="highcharts-series highcharts-series-3 highcharts-line-series" data-z-index="0.1" opacity="1" transform="translate(58,119) scale(1 1)" clip-path="url(#highcharts-ol86k7n-83-)"><path fill="none" d="M 4.0882352941205 35.668530000000004 L 33.289915966389 36.86207999999999 L 62.491596638658 32.74706999999998 L 91.693277310926 42.21006 L 120.89495798319 42.86705999999998 L 150.09663865546 46.502459999999985 L 179.29831932773 41.13477 L 208.5 39.560159999999996 L 237.70168067227 37.37016 L 266.90336134454 35.56121999999999 L 296.10504201681 37.654859999999985 L 325.30672268907 37.80815999999999 L 354.50840336134 42.4203 L 383.71008403361 44.41319999999999 L 412.91176470588 44.46575999999999" class="highcharts-graph" data-z-index="1" stroke="#923f8d" stroke-width="2" stroke-linejoin="round" stroke-linecap="round"></path></g><g class="highcharts-markers highcharts-series-3 highcharts-line-series" data-z-index="0.1" opacity="1" transform="translate(58,119) scale(1 1)" clip-path="none"></g></g><text x="10" text-anchor="start" class="highcharts-title" data-z-index="4" style="color:#000000;font-size:14px;font-weight:bold;fill:#000000;" y="21"><tspan>Mittelwert und Median des Reineinkommens</tspan></text><text x="10" text-anchor="start" class="highcharts-subtitle" data-z-index="4" style="color:#000000;font-size:12px;font-weight:normal;fill:#000000;" y="40"><tspan>in Franken, Wohnviertel Klybeck und Kleinh체ningen</tspan></text><text x="10" text-anchor="start" class="highcharts-caption" data-z-index="4" style="color:#666666;fill:#666666;" y="385"></text><g class="highcharts-legend" data-z-index="7" transform="translate(50,56)"><rect fill="none" class="highcharts-legend-box" rx="0" ry="0" x="0" y="0" width="346" height="51" visibility="visible"></rect><g data-z-index="1"><g><g class="highcharts-legend-item highcharts-line-series highcharts-color-undefined highcharts-series-0" data-z-index="1" transform="translate(8,3)"><path fill="none" d="M 0 11 L 16 11" class="highcharts-graph" stroke="#cd9c00" stroke-width="2"></path><text x="21" style="color:#333333;cursor:pointer;font-size:12px;font-weight:normal;fill:#333333;" text-anchor="start" data-z-index="2" y="15"><tspan>Mittelwert Klybeck</tspan></text></g><g class="highcharts-legend-item highcharts-line-series highcharts-color-undefined highcharts-series-1" data-z-index="1" transform="translate(183,3)"><path fill="none" d="M 0 11 L 16 11" class="highcharts-graph" stroke="#7f5f1a" stroke-width="2"></path><text x="21" y="15" style="color:#333333;cursor:pointer;font-size:12px;font-weight:normal;fill:#333333;" text-anchor="start" data-z-index="2"><tspan>Median Klybeck</tspan></text></g><g class="highcharts-legend-item highcharts-line-series highcharts-color-undefined highcharts-series-2" data-z-index="1" transform="translate(8,23)"><path fill="none" d="M 0 11 L 16 11" class="highcharts-graph" stroke="#b375ab" stroke-width="2"></path><text x="21" y="15" style="color:#333333;cursor:pointer;font-size:12px;font-weight:normal;fill:#333333;" text-anchor="start" data-z-index="2"><tspan>Mittelwert Kleinh체ningen</tspan></text></g><g class="highcharts-legend-item highcharts-line-series highcharts-color-undefined highcharts-series-3" data-z-index="1" transform="translate(183,23)"><path fill="none" d="M 0 11 L 16 11" class="highcharts-graph" stroke="#923f8d" stroke-width="2"></path><text x="21" y="15" style="color:#333333;cursor:pointer;font-size:12px;font-weight:normal;fill:#333333;" text-anchor="start" data-z-index="2"><tspan>Median Kleinh체ningen</tspan></text></g></g></g></g><g class="highcharts-axis-labels highcharts-xaxis-labels" data-z-index="7"><text x="64.68096015847168" style="color:#000000;cursor:default;font-size:11px;fill:#000000;" text-anchor="end" transform="translate(0,0) rotate(-45 64.68096015847168 354)" y="354" opacity="1">2005</text><text x="93.88264083073967" style="color:#000000;cursor:default;font-size:11px;fill:#000000;" text-anchor="end" transform="translate(0,0) rotate(-45 93.88264083073967 354)" y="354" opacity="1">2006</text><text x="123.08432150301067" style="color:#000000;cursor:default;font-size:11px;fill:#000000;" text-anchor="end" transform="translate(0,0) rotate(-45 123.08432150301067 354)" y="354" opacity="1">2007</text><text x="152.2860021752807" style="color:#000000;cursor:default;font-size:11px;fill:#000000;" text-anchor="end" transform="translate(0,0) rotate(-45 152.2860021752807 354)" y="354" opacity="1">2008</text><text x="181.4876828475407" style="color:#000000;cursor:default;font-size:11px;fill:#000000;" text-anchor="end" transform="translate(0,0) rotate(-45 181.4876828475407 354)" y="354" opacity="1">2009</text><text x="210.68936351981068" style="color:#000000;cursor:default;font-size:11px;fill:#000000;" text-anchor="end" transform="translate(0,0) rotate(-45 210.68936351981068 354)" y="354" opacity="1">2010</text><text x="239.8910441920807" style="color:#000000;cursor:default;font-size:11px;fill:#000000;" text-anchor="end" transform="translate(0,0) rotate(-45 239.8910441920807 354)" y="354" opacity="1">2011</text><text x="269.09272486435066" style="color:#000000;cursor:default;font-size:11px;fill:#000000;" text-anchor="end" transform="translate(0,0) rotate(-45 269.09272486435066 354)" y="354" opacity="1">2012</text><text x="298.2944055366207" style="color:#000000;cursor:default;font-size:11px;fill:#000000;" text-anchor="end" transform="translate(0,0) rotate(-45 298.2944055366207 354)" y="354" opacity="1">2013</text><text x="327.49608620889063" style="color:#000000;cursor:default;font-size:11px;fill:#000000;" text-anchor="end" transform="translate(0,0) rotate(-45 327.49608620889063 354)" y="354" opacity="1">2014</text><text x="356.69776688116065" style="color:#000000;cursor:default;font-size:11px;fill:#000000;" text-anchor="end" transform="translate(0,0) rotate(-45 356.69776688116065 354)" y="354" opacity="1">2015</text><text x="385.89944755342066" style="color:#000000;cursor:default;font-size:11px;fill:#000000;" text-anchor="end" transform="translate(0,0) rotate(-45 385.89944755342066 354)" y="354" opacity="1">2016</text><text x="415.1011282256907" style="color:#000000;cursor:default;font-size:11px;fill:#000000;" text-anchor="end" transform="translate(0,0) rotate(-45 415.1011282256907 354)" y="354" opacity="1">2017</text><text x="444.30280889796063" style="color:#000000;cursor:default;font-size:11px;fill:#000000;" text-anchor="end" transform="translate(0,0) rotate(-45 444.30280889796063 354)" y="354" opacity="1">2018</text><text x="473.50448957023065" style="color:#000000;cursor:default;font-size:11px;fill:#000000;" text-anchor="end" transform="translate(0,0) rotate(-45 473.50448957023065 354)" y="354" opacity="1">2019</text></g><g class="highcharts-axis-labels highcharts-yaxis-labels" data-z-index="7"><text x="43" style="color:#000000;cursor:default;font-size:11px;fill:#000000;" text-anchor="end" transform="translate(0,0)" y="342" opacity="1">0</text><text x="43" style="color:#000000;cursor:default;font-size:11px;fill:#000000;" text-anchor="end" transform="translate(0,0)" y="298" opacity="1"><tspan>10 000</tspan></text><text x="43" style="color:#000000;cursor:default;font-size:11px;fill:#000000;" text-anchor="end" transform="translate(0,0)" y="254" opacity="1"><tspan>20 000</tspan></text><text x="43" style="color:#000000;cursor:default;font-size:11px;fill:#000000;" text-anchor="end" transform="translate(0,0)" y="211" opacity="1"><tspan>30 000</tspan></text><text x="43" style="color:#000000;cursor:default;font-size:11px;fill:#000000;" text-anchor="end" transform="translate(0,0)" y="167" opacity="1"><tspan>40 000</tspan></text><text x="43" style="color:#000000;cursor:default;font-size:11px;fill:#000000;" text-anchor="end" transform="translate(0,0)" y="123" opacity="1"><tspan>50 000</tspan></text></g><text x="10" class="highcharts-credits" text-anchor="start" data-z-index="8" style="cursor:default;color:#000000;font-size:10px;fill:#000000;" y="403"><tspan>Quelle: Statistisches Amt Basel-Stadt, Steuerstatistik.</tspan><tspan x="10" dy="13">Zuletzt ge채ndert: 24.11.2022</tspan></text><g class="highcharts-control-points" data-z-index="99" clip-path="url(#highcharts-ol86k7n-129-)"></g></svg>