<?xml version="1.0" standalone="no"?><!DOCTYPE svg PUBLIC "-//W3C//DTD SVG 1.1//EN" "http://www.w3.org/Graphics/SVG/1.1/DTD/svg11.dtd"><svg xmlns:xlink="http://www.w3.org/1999/xlink" version="1.1" class="highcharts-root" style="font-family:Arial;font-size:12px;" xmlns="http://www.w3.org/2000/svg" viewBox="0 0 485 415"><desc>Created with Highcharts 8.2.2</desc><defs><clipPath id="highcharts-8vdfmta-103-"><rect x="0" y="0" width="398" height="199" fill="none"></rect></clipPath><clipPath id="highcharts-8vdfmta-120-"><rect x="0" y="0" width="398" height="199" fill="none"></rect></clipPath><clipPath id="highcharts-8vdfmta-201-"><rect x="77" y="139" width="398" height="199" fill="none"></rect></clipPath></defs><rect fill="#fbfbfb" class="highcharts-background" x="0" y="0" width="485" height="428" rx="0" ry="0"></rect><rect fill="none" class="highcharts-plot-background" x="77" y="139" width="398" height="199"></rect><g class="highcharts-pane-group" data-z-index="0"></g><g class="highcharts-plot-lines-0" data-z-index="0"><path fill="none" class="highcharts-plot-line " stroke="#B9CFD7" stroke-width="2" d="M 77 227 L 475 227"></path></g><g class="highcharts-grid highcharts-xaxis-grid" data-z-index="1"><path fill="none" data-z-index="1" class="highcharts-grid-line" d="M 92.5 139 L 92.5 338" opacity="1"></path><path fill="none" data-z-index="1" class="highcharts-grid-line" d="M 116.5 139 L 116.5 338" opacity="1"></path><path fill="none" data-z-index="1" class="highcharts-grid-line" d="M 141.5 139 L 141.5 338" opacity="1"></path><path fill="none" data-z-index="1" class="highcharts-grid-line" d="M 165.5 139 L 165.5 338" opacity="1"></path><path fill="none" data-z-index="1" class="highcharts-grid-line" d="M 190.5 139 L 190.5 338" opacity="1"></path><path fill="none" data-z-index="1" class="highcharts-grid-line" d="M 214.5 139 L 214.5 338" opacity="1"></path><path fill="none" data-z-index="1" class="highcharts-grid-line" d="M 238.5 139 L 238.5 338" opacity="1"></path><path fill="none" data-z-index="1" class="highcharts-grid-line" d="M 263.5 139 L 263.5 338" opacity="1"></path><path fill="none" data-z-index="1" class="highcharts-grid-line" d="M 287.5 139 L 287.5 338" opacity="1"></path><path fill="none" data-z-index="1" class="highcharts-grid-line" d="M 312.5 139 L 312.5 338" opacity="1"></path><path fill="none" data-z-index="1" class="highcharts-grid-line" d="M 336.5 139 L 336.5 338" opacity="1"></path><path fill="none" data-z-index="1" class="highcharts-grid-line" d="M 360.5 139 L 360.5 338" opacity="1"></path><path fill="none" data-z-index="1" class="highcharts-grid-line" d="M 385.5 139 L 385.5 338" opacity="1"></path><path fill="none" data-z-index="1" class="highcharts-grid-line" d="M 409.5 139 L 409.5 338" opacity="1"></path><path fill="none" data-z-index="1" class="highcharts-grid-line" d="M 434.5 139 L 434.5 338" opacity="1"></path><path fill="none" data-z-index="1" class="highcharts-grid-line" d="M 458.5 139 L 458.5 338" opacity="1"></path></g><g class="highcharts-grid highcharts-yaxis-grid" data-z-index="1"><path fill="none" stroke="#B9CFD7" stroke-width="0.5" data-z-index="1" class="highcharts-grid-line" d="M 77 338.25 L 475 338.25" opacity="1"></path><path fill="none" stroke="#B9CFD7" stroke-width="0.5" data-z-index="1" class="highcharts-grid-line" d="M 77 316.25 L 475 316.25" opacity="1"></path><path fill="none" stroke="#B9CFD7" stroke-width="0.5" data-z-index="1" class="highcharts-grid-line" d="M 77 294.25 L 475 294.25" opacity="1"></path><path fill="none" stroke="#B9CFD7" stroke-width="0.5" data-z-index="1" class="highcharts-grid-line" d="M 77 272.25 L 475 272.25" opacity="1"></path><path fill="none" stroke="#B9CFD7" stroke-width="0.5" data-z-index="1" class="highcharts-grid-line" d="M 77 250.25 L 475 250.25" opacity="1"></path><path fill="none" stroke="#B9CFD7" stroke-width="0.5" data-z-index="1" class="highcharts-grid-line" d="M 77 227.25 L 475 227.25" opacity="1"></path><path fill="none" stroke="#B9CFD7" stroke-width="0.5" data-z-index="1" class="highcharts-grid-line" d="M 77 205.25 L 475 205.25" opacity="1"></path><path fill="none" stroke="#B9CFD7" stroke-width="0.5" data-z-index="1" class="highcharts-grid-line" d="M 77 183.25 L 475 183.25" opacity="1"></path><path fill="none" stroke="#B9CFD7" stroke-width="0.5" data-z-index="1" class="highcharts-grid-line" d="M 77 161.25 L 475 161.25" opacity="1"></path><path fill="none" stroke="#B9CFD7" stroke-width="0.5" data-z-index="1" class="highcharts-grid-line" d="M 77 138.75 L 475 138.75" opacity="1"></path></g><rect fill="none" class="highcharts-plot-border" data-z-index="1" x="77" y="139" width="398" height="199"></rect><g class="highcharts-axis highcharts-xaxis" data-z-index="2"><path fill="none" class="highcharts-axis-line" stroke="#B9CFD7" stroke-width="0.5" data-z-index="7" d="M 77 338.25 L 475 338.25"></path></g><g class="highcharts-axis highcharts-yaxis" data-z-index="2"><path fill="none" class="highcharts-axis-line" data-z-index="7" d="M 77 139 L 77 338"></path></g><g class="highcharts-series-group" data-z-index="3"><g class="highcharts-series highcharts-series-0 highcharts-column-series" data-z-index="0.1" opacity="1" transform="translate(77,139) scale(1 1)" clip-path="url(#highcharts-8vdfmta-120-)"><rect x="9" y="50" width="6" height="39" fill="#cd9c00" opacity="1" class="highcharts-point"></rect><rect x="34" y="40" width="6" height="49" fill="#cd9c00" opacity="1" class="highcharts-point"></rect><rect x="58" y="17" width="6" height="72" fill="#cd9c00" opacity="1" class="highcharts-point"></rect><rect x="83" y="20" width="6" height="69" fill="#cd9c00" opacity="1" class="highcharts-point"></rect><rect x="107" y="31" width="6" height="58" fill="#cd9c00" opacity="1" class="highcharts-point"></rect><rect x="131" y="22" width="6" height="67" fill="#cd9c00" opacity="1" class="highcharts-point"></rect><rect x="156" y="23" width="6" height="66" fill="#cd9c00" opacity="1" class="highcharts-point"></rect><rect x="180" y="25" width="6" height="64" fill="#cd9c00" opacity="1" class="highcharts-point"></rect><rect x="205" y="5" width="6" height="84" fill="#cd9c00" opacity="1" class="highcharts-point"></rect><rect x="229" y="31" width="6" height="58" fill="#cd9c00" opacity="1" class="highcharts-point"></rect><rect x="253" y="27" width="6" height="62" fill="#cd9c00" opacity="1" class="highcharts-point"></rect><rect x="278" y="30" width="6" height="59" fill="#cd9c00" opacity="1" class="highcharts-point"></rect><rect x="302" y="18" width="6" height="71" fill="#cd9c00" opacity="1" class="highcharts-point"></rect><rect x="327" y="21" width="6" height="68" fill="#cd9c00" opacity="1" class="highcharts-point"></rect><rect x="351" y="26" width="6" height="63" fill="#cd9c00" opacity="1" class="highcharts-point"></rect><rect x="376" y="30" width="6" height="59" fill="#cd9c00" opacity="1" class="highcharts-point"></rect></g><g class="highcharts-markers highcharts-series-0 highcharts-column-series" data-z-index="0.1" opacity="1" transform="translate(77,139) scale(1 1)" clip-path="none"></g><g class="highcharts-series highcharts-series-1 highcharts-column-series" data-z-index="0.1" opacity="1" transform="translate(77,139) scale(1 1)" clip-path="url(#highcharts-8vdfmta-120-)"><rect x="9" y="89" width="6" height="88" fill="#7f5f1a" opacity="1" class="highcharts-point highcharts-negative"></rect><rect x="34" y="89" width="6" height="85" fill="#7f5f1a" opacity="1" class="highcharts-point highcharts-negative"></rect><rect x="58" y="89" width="6" height="88" fill="#7f5f1a" opacity="1" class="highcharts-point highcharts-negative"></rect><rect x="83" y="89" width="6" height="76" fill="#7f5f1a" opacity="1" class="highcharts-point highcharts-negative"></rect><rect x="107" y="89" width="6" height="74" fill="#7f5f1a" opacity="1" class="highcharts-point highcharts-negative"></rect><rect x="131" y="89" width="6" height="54" fill="#7f5f1a" opacity="1" class="highcharts-point highcharts-negative"></rect><rect x="156" y="89" width="6" height="79" fill="#7f5f1a" opacity="1" class="highcharts-point highcharts-negative"></rect><rect x="180" y="89" width="6" height="73" fill="#7f5f1a" opacity="1" class="highcharts-point highcharts-negative"></rect><rect x="205" y="89" width="6" height="73" fill="#7f5f1a" opacity="1" class="highcharts-point highcharts-negative"></rect><rect x="229" y="89" width="6" height="57" fill="#7f5f1a" opacity="1" class="highcharts-point highcharts-negative"></rect><rect x="253" y="89" width="6" height="72" fill="#7f5f1a" opacity="1" class="highcharts-point highcharts-negative"></rect><rect x="278" y="89" width="6" height="66" fill="#7f5f1a" opacity="1" class="highcharts-point highcharts-negative"></rect><rect x="302" y="89" width="6" height="71" fill="#7f5f1a" opacity="1" class="highcharts-point highcharts-negative"></rect><rect x="327" y="89" width="6" height="47" fill="#7f5f1a" opacity="1" class="highcharts-point highcharts-negative"></rect><rect x="351" y="89" width="6" height="77" fill="#7f5f1a" opacity="1" class="highcharts-point highcharts-negative"></rect><rect x="376" y="89" width="6" height="66" fill="#7f5f1a" opacity="1" class="highcharts-point highcharts-negative"></rect></g><g class="highcharts-markers highcharts-series-1 highcharts-column-series" data-z-index="0.1" opacity="1" transform="translate(77,139) scale(1 1)" clip-path="none"></g><g class="highcharts-series highcharts-series-2 highcharts-column-series" data-z-index="0.1" opacity="1" transform="translate(77,139) scale(1 1)" clip-path="url(#highcharts-8vdfmta-120-)"><rect x="17" y="76" width="6" height="13" fill="#b375ab" opacity="1" class="highcharts-point"></rect><rect x="41" y="73" width="6" height="16" fill="#b375ab" opacity="1" class="highcharts-point"></rect><rect x="65" y="72" width="6" height="17" fill="#b375ab" opacity="1" class="highcharts-point"></rect><rect x="90" y="76" width="6" height="13" fill="#b375ab" opacity="1" class="highcharts-point"></rect><rect x="114" y="72" width="6" height="17" fill="#b375ab" opacity="1" class="highcharts-point"></rect><rect x="139" y="75" width="6" height="14" fill="#b375ab" opacity="1" class="highcharts-point"></rect><rect x="163" y="71" width="6" height="18" fill="#b375ab" opacity="1" class="highcharts-point"></rect><rect x="188" y="41" width="6" height="48" fill="#b375ab" opacity="1" class="highcharts-point"></rect><rect x="212" y="64" width="6" height="25" fill="#b375ab" opacity="1" class="highcharts-point"></rect><rect x="236" y="73" width="6" height="16" fill="#b375ab" opacity="1" class="highcharts-point"></rect><rect x="261" y="65" width="6" height="24" fill="#b375ab" opacity="1" class="highcharts-point"></rect><rect x="285" y="63" width="6" height="26" fill="#b375ab" opacity="1" class="highcharts-point"></rect><rect x="310" y="57" width="6" height="32" fill="#b375ab" opacity="1" class="highcharts-point"></rect><rect x="334" y="69" width="6" height="20" fill="#b375ab" opacity="1" class="highcharts-point"></rect><rect x="358" y="73" width="6" height="16" fill="#b375ab" opacity="1" class="highcharts-point"></rect><rect x="383" y="59" width="6" height="30" fill="#b375ab" opacity="1" class="highcharts-point"></rect></g><g class="highcharts-markers highcharts-series-2 highcharts-column-series" data-z-index="0.1" opacity="1" transform="translate(77,139) scale(1 1)" clip-path="none"></g><g class="highcharts-series highcharts-series-3 highcharts-column-series" data-z-index="0.1" opacity="1" transform="translate(77,139) scale(1 1)" clip-path="url(#highcharts-8vdfmta-120-)"><rect x="17" y="89" width="6" height="27" fill="#923f8d" opacity="1" class="highcharts-point highcharts-negative"></rect><rect x="41" y="89" width="6" height="25" fill="#923f8d" opacity="1" class="highcharts-point highcharts-negative"></rect><rect x="65" y="89" width="6" height="32" fill="#923f8d" opacity="1" class="highcharts-point highcharts-negative"></rect><rect x="90" y="89" width="6" height="21" fill="#923f8d" opacity="1" class="highcharts-point highcharts-negative"></rect><rect x="114" y="89" width="6" height="29" fill="#923f8d" opacity="1" class="highcharts-point highcharts-negative"></rect><rect x="139" y="89" width="6" height="15" fill="#923f8d" opacity="1" class="highcharts-point highcharts-negative"></rect><rect x="163" y="89" width="6" height="16" fill="#923f8d" opacity="1" class="highcharts-point highcharts-negative"></rect><rect x="188" y="89" width="6" height="21" fill="#923f8d" opacity="1" class="highcharts-point highcharts-negative"></rect><rect x="212" y="89" width="6" height="19" fill="#923f8d" opacity="1" class="highcharts-point highcharts-negative"></rect><rect x="236" y="89" width="6" height="25" fill="#923f8d" opacity="1" class="highcharts-point highcharts-negative"></rect><rect x="261" y="89" width="6" height="23" fill="#923f8d" opacity="1" class="highcharts-point highcharts-negative"></rect><rect x="285" y="89" width="6" height="40" fill="#923f8d" opacity="1" class="highcharts-point highcharts-negative"></rect><rect x="310" y="89" width="6" height="34" fill="#923f8d" opacity="1" class="highcharts-point highcharts-negative"></rect><rect x="334" y="89" width="6" height="23" fill="#923f8d" opacity="1" class="highcharts-point highcharts-negative"></rect><rect x="358" y="89" width="6" height="28" fill="#923f8d" opacity="1" class="highcharts-point highcharts-negative"></rect><rect x="383" y="89" width="6" height="34" fill="#923f8d" opacity="1" class="highcharts-point highcharts-negative"></rect></g><g class="highcharts-markers highcharts-series-3 highcharts-column-series" data-z-index="0.1" opacity="1" transform="translate(77,139) scale(1 1)" clip-path="none"></g><g class="highcharts-series highcharts-series-5 highcharts-line-series" data-z-index="1" opacity="1" transform="translate(77,139) scale(1 1)" clip-path="url(#highcharts-8vdfmta-120-)"><path fill="none" d="M 15.871165644174 101.67776755555555 L 40.288343558284 96.49554222222223 L 64.705521472394 102.66312711111111 L 89.122699386504 95.825664 L 113.53987730061 98.79421333333333 L 137.95705521472 88.64149866666666 L 162.37423312883 85.44140177777777 L 186.79141104294 60.76964711111111 L 211.20858895706 81.01095422222222 L 235.62576687117 96.66889333333333 L 260.04294478528 86.549876 L 284.46012269939 100.82286355555556 L 308.8773006135 89.16809688888888 L 333.29447852761 90.91098311111111 L 357.71165644172 99.10368044444445 L 382.12883435583 90.8640191111111" class="highcharts-graph" data-z-index="1" stroke-linejoin="round" stroke-linecap="round"></path></g><g class="highcharts-markers highcharts-series-5 highcharts-line-series" data-z-index="1" opacity="1" transform="translate(77,139) scale(1 1)" clip-path="none"><path fill="#d7bed2" d="M 15 97 L 20 102 L 15 107 L 10 102 Z" opacity="1" class="highcharts-point highcharts-negative"></path><path fill="#d7bed2" d="M 40 91 L 45 96 L 40 101 L 35 96 Z" opacity="1" class="highcharts-point highcharts-negative"></path><path fill="#d7bed2" d="M 64 98 L 69 103 L 64 108 L 59 103 Z" opacity="1" class="highcharts-point highcharts-negative"></path><path fill="#d7bed2" d="M 89 91 L 94 96 L 89 101 L 84 96 Z" opacity="1" class="highcharts-point highcharts-negative"></path><path fill="#d7bed2" d="M 113 94 L 118 99 L 113 104 L 108 99 Z" opacity="1" class="highcharts-point highcharts-negative"></path><path fill="#d7bed2" d="M 137 84 L 142 89 L 137 94 L 132 89 Z" opacity="1" class="highcharts-point highcharts-negative"></path><path fill="#d7bed2" d="M 162 80 L 167 85 L 162 90 L 157 85 Z" opacity="1" class="highcharts-point"></path><path fill="#d7bed2" d="M 186 56 L 191 61 L 186 66 L 181 61 Z" opacity="1" class="highcharts-point"></path><path fill="#d7bed2" d="M 211 76 L 216 81 L 211 86 L 206 81 Z" opacity="1" class="highcharts-point"></path><path fill="#d7bed2" d="M 235 92 L 240 97 L 235 102 L 230 97 Z" opacity="1" class="highcharts-point highcharts-negative"></path><path fill="#d7bed2" d="M 260 82 L 265 87 L 260 92 L 255 87 Z" opacity="1" class="highcharts-point"></path><path fill="#d7bed2" d="M 284 96 L 289 101 L 284 106 L 279 101 Z" opacity="1" class="highcharts-point highcharts-negative"></path><path fill="#d7bed2" d="M 308 84 L 313 89 L 308 94 L 303 89 Z" opacity="1" class="highcharts-point highcharts-negative"></path><path fill="#d7bed2" d="M 333 86 L 338 91 L 333 96 L 328 91 Z" opacity="1" class="highcharts-point highcharts-negative"></path><path fill="#d7bed2" d="M 357 94 L 362 99 L 357 104 L 352 99 Z" opacity="1" class="highcharts-point highcharts-negative"></path><path fill="#d7bed2" d="M 382 86 L 387 91 L 382 96 L 377 91 Z" opacity="1" class="highcharts-point highcharts-negative"></path></g><g class="highcharts-series highcharts-series-4 highcharts-line-series" data-z-index="2" opacity="1" transform="translate(77,139) scale(1 1)" clip-path="url(#highcharts-8vdfmta-120-)"><path fill="none" d="M 15.871165644174 136.93588 L 40.288343558284 123.65462 L 64.705521472394 103.93831911111111 L 89.122699386504 94.716836 L 113.53987730061 103.930536 L 137.95705521472 74.8548671111111 L 162.37423312883 100.95606088888889 L 186.79141104294 96.66270222222222 L 211.20858895706 76.55804177777777 L 235.62576687117 85.85939022222222 L 260.04294478528 98.17324488888889 L 284.46012269939 95.01339022222223 L 308.8773006135 87.67789644444444 L 333.29447852761 66.81119866666666 L 357.71165644172 100.7522848888889 L 382.12883435583 94.46140844444444" class="highcharts-graph" data-z-index="1" stroke-linejoin="round" stroke-linecap="round"></path></g><g class="highcharts-markers highcharts-series-4 highcharts-line-series" data-z-index="2" opacity="1" transform="translate(77,139) scale(1 1)" clip-path="none"><path fill="#fabd24" d="M 15 141 A 4 4 0 1 1 15.003999999333336 140.99999800000018 Z" opacity="1" class="highcharts-point highcharts-negative"></path><path fill="#fabd24" d="M 40 128 A 4 4 0 1 1 40.00399999933334 127.99999800000016 Z" opacity="1" class="highcharts-point highcharts-negative"></path><path fill="#fabd24" d="M 64 108 A 4 4 0 1 1 64.00399999933333 107.99999800000016 Z" opacity="1" class="highcharts-point highcharts-negative"></path><path fill="#fabd24" d="M 89 99 A 4 4 0 1 1 89.00399999933333 98.99999800000016 Z" opacity="1" class="highcharts-point highcharts-negative"></path><path fill="#fabd24" d="M 113 108 A 4 4 0 1 1 113.00399999933333 107.99999800000016 Z" opacity="1" class="highcharts-point highcharts-negative"></path><path fill="#fabd24" d="M 137 79 A 4 4 0 1 1 137.00399999933333 78.99999800000016 Z" opacity="1" class="highcharts-point"></path><path fill="#fabd24" d="M 162 105 A 4 4 0 1 1 162.00399999933333 104.99999800000016 Z" opacity="1" class="highcharts-point highcharts-negative"></path><path fill="#fabd24" d="M 186 101 A 4 4 0 1 1 186.00399999933333 100.99999800000016 Z" opacity="1" class="highcharts-point highcharts-negative"></path><path fill="#fabd24" d="M 211 81 A 4 4 0 1 1 211.00399999933333 80.99999800000016 Z" opacity="1" class="highcharts-point"></path><path fill="#fabd24" d="M 235 90 A 4 4 0 1 1 235.00399999933333 89.99999800000016 Z" opacity="1" class="highcharts-point"></path><path fill="#fabd24" d="M 260 102 A 4 4 0 1 1 260.00399999933336 101.99999800000016 Z" opacity="1" class="highcharts-point highcharts-negative"></path><path fill="#fabd24" d="M 284 99 A 4 4 0 1 1 284.00399999933336 98.99999800000016 Z" opacity="1" class="highcharts-point highcharts-negative"></path><path fill="#fabd24" d="M 308 92 A 4 4 0 1 1 308.00399999933336 91.99999800000016 Z" opacity="1" class="highcharts-point"></path><path fill="#fabd24" d="M 333 71 A 4 4 0 1 1 333.00399999933336 70.99999800000016 Z" opacity="1" class="highcharts-point"></path><path fill="#fabd24" d="M 357 105 A 4 4 0 1 1 357.00399999933336 104.99999800000016 Z" opacity="1" class="highcharts-point highcharts-negative"></path><path fill="#fabd24" d="M 382 98 A 4 4 0 1 1 382.00399999933336 97.99999800000016 Z" opacity="1" class="highcharts-point highcharts-negative"></path></g></g><text x="10" text-anchor="start" class="highcharts-title" data-z-index="4" style="color:#000000;font-size:14px;font-weight:bold;fill:#000000;" y="21"><tspan>Steuerertrag durch Zu- und Wegzüger</tspan></text><text x="10" text-anchor="start" class="highcharts-subtitle" data-z-index="4" style="color:#000000;font-size:12px;font-weight:normal;fill:#000000;" y="40"><tspan>in Franken, Wohnviertel Klybeck und Kleinhüningen</tspan></text><text x="10" text-anchor="start" class="highcharts-caption" data-z-index="4" style="color:#666666;fill:#666666;" y="385"></text><g class="highcharts-legend" data-z-index="7" transform="translate(69,56)"><rect fill="none" class="highcharts-legend-box" rx="0" ry="0" x="0" y="0" width="392" height="71" visibility="visible"></rect><g data-z-index="1"><g><g class="highcharts-legend-item highcharts-column-series highcharts-color-undefined highcharts-series-0" data-z-index="1" transform="translate(8,3)"><text x="21" style="color:#333333;cursor:pointer;font-size:12px;font-weight:normal;fill:#333333;" text-anchor="start" data-z-index="2" y="15"><tspan>Zugezogene Klybeck</tspan></text><rect x="2" y="4" width="12" height="12" fill="#cd9c00" class="highcharts-point" data-z-index="3"></rect></g><g class="highcharts-legend-item highcharts-column-series highcharts-color-undefined highcharts-series-2" data-z-index="1" transform="translate(198,3)"><text x="21" y="15" style="color:#333333;cursor:pointer;font-size:12px;font-weight:normal;fill:#333333;" text-anchor="start" data-z-index="2"><tspan>Zugezogene Kleinhüningen</tspan></text><rect x="2" y="4" width="12" height="12" fill="#b375ab" class="highcharts-point" data-z-index="3"></rect></g><g class="highcharts-legend-item highcharts-column-series highcharts-color-undefined highcharts-series-1" data-z-index="1" transform="translate(8,23)"><text x="21" y="15" style="color:#333333;cursor:pointer;font-size:12px;font-weight:normal;fill:#333333;" text-anchor="start" data-z-index="2"><tspan>Weggezogene Klybeck</tspan></text><rect x="2" y="4" width="12" height="12" fill="#7f5f1a" class="highcharts-point" data-z-index="3"></rect></g><g class="highcharts-legend-item highcharts-column-series highcharts-color-undefined highcharts-series-3" data-z-index="1" transform="translate(198,23)"><text x="21" y="15" style="color:#333333;cursor:pointer;font-size:12px;font-weight:normal;fill:#333333;" text-anchor="start" data-z-index="2"><tspan>Weggezogene Kleinhüning…</tspan><title>Weggezogene Kleinhüningen</title></text><rect x="2" y="4" width="12" height="12" fill="#923f8d" class="highcharts-point" data-z-index="3"></rect></g><g class="highcharts-legend-item highcharts-line-series highcharts-color-undefined highcharts-series-4" data-z-index="1" transform="translate(8,43)"><path fill="none" d="M 0 11 L 16 11" class="highcharts-graph"></path><path fill="#fabd24" d="M 8 15 A 4 4 0 1 1 8.003999999333336 14.999998000000167 Z" class="highcharts-point" opacity="1"></path><text x="21" y="15" style="color:#333333;cursor:pointer;font-size:12px;font-weight:normal;fill:#333333;" text-anchor="start" data-z-index="2"><tspan>Saldo Klybeck</tspan></text></g><g class="highcharts-legend-item highcharts-line-series highcharts-color-undefined highcharts-series-5" data-z-index="1" transform="translate(198,43)"><path fill="none" d="M 0 11 L 16 11" class="highcharts-graph"></path><path fill="#d7bed2" d="M 8 6 L 13 11 L 8 16 L 3 11 Z" class="highcharts-point" opacity="1"></path><text x="21" y="15" style="color:#333333;cursor:pointer;font-size:12px;font-weight:normal;fill:#333333;" text-anchor="start" data-z-index="2"><tspan>Saldo Kleinhüningen</tspan></text></g></g></g></g><g class="highcharts-axis-labels highcharts-xaxis-labels" data-z-index="7"><text x="95.46389050852467" style="color:#000000;cursor:default;font-size:11px;fill:#000000;" text-anchor="end" transform="translate(0,0) rotate(-45 95.46389050852467 354)" y="354" opacity="1">2005</text><text x="119.88106842263068" style="color:#000000;cursor:default;font-size:11px;fill:#000000;" text-anchor="end" transform="translate(0,0) rotate(-45 119.88106842263068 354)" y="354" opacity="1">2006</text><text x="144.29824633674068" style="color:#000000;cursor:default;font-size:11px;fill:#000000;" text-anchor="end" transform="translate(0,0) rotate(-45 144.29824633674068 354)" y="354" opacity="1">2007</text><text x="168.71542425085067" style="color:#000000;cursor:default;font-size:11px;fill:#000000;" text-anchor="end" transform="translate(0,0) rotate(-45 168.71542425085067 354)" y="354" opacity="1">2008</text><text x="193.13260216496067" style="color:#000000;cursor:default;font-size:11px;fill:#000000;" text-anchor="end" transform="translate(0,0) rotate(-45 193.13260216496067 354)" y="354" opacity="1">2009</text><text x="217.54978007907067" style="color:#000000;cursor:default;font-size:11px;fill:#000000;" text-anchor="end" transform="translate(0,0) rotate(-45 217.54978007907067 354)" y="354" opacity="1">2010</text><text x="241.9669579931807" style="color:#000000;cursor:default;font-size:11px;fill:#000000;" text-anchor="end" transform="translate(0,0) rotate(-45 241.9669579931807 354)" y="354" opacity="1">2011</text><text x="266.38413590729067" style="color:#000000;cursor:default;font-size:11px;fill:#000000;" text-anchor="end" transform="translate(0,0) rotate(-45 266.38413590729067 354)" y="354" opacity="1">2012</text><text x="290.80131382141064" style="color:#000000;cursor:default;font-size:11px;fill:#000000;" text-anchor="end" transform="translate(0,0) rotate(-45 290.80131382141064 354)" y="354" opacity="1">2013</text><text x="315.2184917355207" style="color:#000000;cursor:default;font-size:11px;fill:#000000;" text-anchor="end" transform="translate(0,0) rotate(-45 315.2184917355207 354)" y="354" opacity="1">2014</text><text x="339.63566964963064" style="color:#000000;cursor:default;font-size:11px;fill:#000000;" text-anchor="end" transform="translate(0,0) rotate(-45 339.63566964963064 354)" y="354" opacity="1">2015</text><text x="364.05284756374067" style="color:#000000;cursor:default;font-size:11px;fill:#000000;" text-anchor="end" transform="translate(0,0) rotate(-45 364.05284756374067 354)" y="354" opacity="1">2016</text><text x="388.47002547785064" style="color:#000000;cursor:default;font-size:11px;fill:#000000;" text-anchor="end" transform="translate(0,0) rotate(-45 388.47002547785064 354)" y="354" opacity="1">2017</text><text x="412.88720339196067" style="color:#000000;cursor:default;font-size:11px;fill:#000000;" text-anchor="end" transform="translate(0,0) rotate(-45 412.88720339196067 354)" y="354" opacity="1">2018</text><text x="437.30438130607064" style="color:#000000;cursor:default;font-size:11px;fill:#000000;" text-anchor="end" transform="translate(0,0) rotate(-45 437.30438130607064 354)" y="354" opacity="1">2019</text><text x="461.72155922018067" style="color:#000000;cursor:default;font-size:11px;fill:#000000;" text-anchor="end" transform="translate(0,0) rotate(-45 461.72155922018067 354)" y="354" opacity="1">2020</text></g><g class="highcharts-axis-labels highcharts-yaxis-labels" data-z-index="7"><text x="62" style="color:#000000;cursor:default;font-size:11px;fill:#000000;" text-anchor="end" transform="translate(0,0)" y="342" opacity="1"><tspan>-1 250 000</tspan></text><text x="62" style="color:#000000;cursor:default;font-size:11px;fill:#000000;" text-anchor="end" transform="translate(0,0)" y="320" opacity="1"><tspan>-1 000 000</tspan></text><text x="62" style="color:#000000;cursor:default;font-size:11px;fill:#000000;" text-anchor="end" transform="translate(0,0)" y="298" opacity="1"><tspan>-750 000</tspan></text><text x="62" style="color:#000000;cursor:default;font-size:11px;fill:#000000;" text-anchor="end" transform="translate(0,0)" y="276" opacity="1"><tspan>-500 000</tspan></text><text x="62" style="color:#000000;cursor:default;font-size:11px;fill:#000000;" text-anchor="end" transform="translate(0,0)" y="254" opacity="1"><tspan>-250 000</tspan></text><text x="62" style="color:#000000;cursor:default;font-size:11px;fill:#000000;" text-anchor="end" transform="translate(0,0)" y="231" opacity="1">0</text><text x="62" style="color:#000000;cursor:default;font-size:11px;fill:#000000;" text-anchor="end" transform="translate(0,0)" y="209" opacity="1"><tspan>250 000</tspan></text><text x="62" style="color:#000000;cursor:default;font-size:11px;fill:#000000;" text-anchor="end" transform="translate(0,0)" y="187" opacity="1"><tspan>500 000</tspan></text><text x="62" style="color:#000000;cursor:default;font-size:11px;fill:#000000;" text-anchor="end" transform="translate(0,0)" y="165" opacity="1"><tspan>750 000</tspan></text><text x="62" style="color:#000000;cursor:default;font-size:11px;fill:#000000;" text-anchor="end" transform="translate(0,0)" y="143" opacity="1"><tspan>1 000 000</tspan></text></g><text x="10" class="highcharts-credits" text-anchor="start" data-z-index="8" style="cursor:default;color:#000000;font-size:10px;fill:#000000;" y="403"><tspan>Quelle: Statistisches Amt Basel-Stadt, Steuerstatistik.</tspan><tspan x="10" dy="13">Zuletzt geändert: 19.8.2025</tspan></text><g class="highcharts-control-points" data-z-index="99" clip-path="url(#highcharts-8vdfmta-201-)"></g></svg>