<?xml version="1.0" standalone="no"?><!DOCTYPE svg PUBLIC "-//W3C//DTD SVG 1.1//EN" "http://www.w3.org/Graphics/SVG/1.1/DTD/svg11.dtd"><svg xmlns:xlink="http://www.w3.org/1999/xlink" version="1.1" class="highcharts-root" style="font-family:Arial;font-size:12px;" xmlns="http://www.w3.org/2000/svg" viewBox="0 0 485 415"><desc>Created with Highcharts 8.2.2</desc><defs><clipPath id="highcharts-mdfqxcq-181-"><rect x="0" y="0" width="294" height="266" fill="none"></rect></clipPath><clipPath id="highcharts-mdfqxcq-211-"><rect x="0" y="0" width="294" height="266" fill="none"></rect></clipPath><clipPath id="highcharts-mdfqxcq-357-"><rect x="52" y="56" width="294" height="266" fill="none"></rect></clipPath></defs><rect fill="#fbfbfb" class="highcharts-background" x="0" y="0" width="485" height="428" rx="0" ry="0"></rect><rect fill="none" class="highcharts-plot-background" x="52" y="56" width="294" height="266"></rect><g class="highcharts-pane-group" data-z-index="0"></g><g class="highcharts-grid highcharts-xaxis-grid" data-z-index="1"><path fill="none" data-z-index="1" class="highcharts-grid-line" d="M 61.5 56 L 61.5 322" opacity="1"></path><path fill="none" data-z-index="1" class="highcharts-grid-line" d="M 71.5 56 L 71.5 322" opacity="1"></path><path fill="none" data-z-index="1" class="highcharts-grid-line" d="M 81.5 56 L 81.5 322" opacity="1"></path><path fill="none" data-z-index="1" class="highcharts-grid-line" d="M 92.5 56 L 92.5 322" opacity="1"></path><path fill="none" data-z-index="1" class="highcharts-grid-line" d="M 102.5 56 L 102.5 322" opacity="1"></path><path fill="none" data-z-index="1" class="highcharts-grid-line" d="M 112.5 56 L 112.5 322" opacity="1"></path><path fill="none" data-z-index="1" class="highcharts-grid-line" d="M 122.5 56 L 122.5 322" opacity="1"></path><path fill="none" data-z-index="1" class="highcharts-grid-line" d="M 132.5 56 L 132.5 322" opacity="1"></path><path fill="none" data-z-index="1" class="highcharts-grid-line" d="M 142.5 56 L 142.5 322" opacity="1"></path><path fill="none" data-z-index="1" class="highcharts-grid-line" d="M 152.5 56 L 152.5 322" opacity="1"></path><path fill="none" data-z-index="1" class="highcharts-grid-line" d="M 163.5 56 L 163.5 322" opacity="1"></path><path fill="none" data-z-index="1" class="highcharts-grid-line" d="M 173.5 56 L 173.5 322" opacity="1"></path><path fill="none" data-z-index="1" class="highcharts-grid-line" d="M 183.5 56 L 183.5 322" opacity="1"></path><path fill="none" data-z-index="1" class="highcharts-grid-line" d="M 193.5 56 L 193.5 322" opacity="1"></path><path fill="none" data-z-index="1" class="highcharts-grid-line" d="M 203.5 56 L 203.5 322" opacity="1"></path><path fill="none" data-z-index="1" class="highcharts-grid-line" d="M 213.5 56 L 213.5 322" opacity="1"></path><path fill="none" data-z-index="1" class="highcharts-grid-line" d="M 223.5 56 L 223.5 322" opacity="1"></path><path fill="none" data-z-index="1" class="highcharts-grid-line" d="M 233.5 56 L 233.5 322" opacity="1"></path><path fill="none" data-z-index="1" class="highcharts-grid-line" d="M 244.5 56 L 244.5 322" opacity="1"></path><path fill="none" data-z-index="1" class="highcharts-grid-line" d="M 254.5 56 L 254.5 322" opacity="1"></path><path fill="none" data-z-index="1" class="highcharts-grid-line" d="M 264.5 56 L 264.5 322" opacity="1"></path><path fill="none" data-z-index="1" class="highcharts-grid-line" d="M 274.5 56 L 274.5 322" opacity="1"></path><path fill="none" data-z-index="1" class="highcharts-grid-line" d="M 284.5 56 L 284.5 322" opacity="1"></path><path fill="none" data-z-index="1" class="highcharts-grid-line" d="M 294.5 56 L 294.5 322" opacity="1"></path><path fill="none" data-z-index="1" class="highcharts-grid-line" d="M 304.5 56 L 304.5 322" opacity="1"></path><path fill="none" data-z-index="1" class="highcharts-grid-line" d="M 315.5 56 L 315.5 322" opacity="1"></path><path fill="none" data-z-index="1" class="highcharts-grid-line" d="M 325.5 56 L 325.5 322" opacity="1"></path><path fill="none" data-z-index="1" class="highcharts-grid-line" d="M 335.5 56 L 335.5 322" opacity="1"></path><path fill="none" data-z-index="1" class="highcharts-grid-line" d="M 345.5 56 L 345.5 322" opacity="1"></path><path fill="none" data-z-index="1" class="highcharts-grid-line" d="M 51.5 56 L 51.5 322" opacity="1"></path></g><g class="highcharts-grid highcharts-yaxis-grid" data-z-index="1"><path fill="none" stroke="#B9CFD7" stroke-width="0.5" data-z-index="1" class="highcharts-grid-line" d="M 52 322.25 L 346 322.25" opacity="1"></path><path fill="none" stroke="#B9CFD7" stroke-width="0.5" data-z-index="1" class="highcharts-grid-line" d="M 52 289.25 L 346 289.25" opacity="1"></path><path fill="none" stroke="#B9CFD7" stroke-width="0.5" data-z-index="1" class="highcharts-grid-line" d="M 52 256.25 L 346 256.25" opacity="1"></path><path fill="none" stroke="#B9CFD7" stroke-width="0.5" data-z-index="1" class="highcharts-grid-line" d="M 52 222.25 L 346 222.25" opacity="1"></path><path fill="none" stroke="#B9CFD7" stroke-width="0.5" data-z-index="1" class="highcharts-grid-line" d="M 52 189.25 L 346 189.25" opacity="1"></path><path fill="none" stroke="#B9CFD7" stroke-width="0.5" data-z-index="1" class="highcharts-grid-line" d="M 52 156.25 L 346 156.25" opacity="1"></path><path fill="none" stroke="#B9CFD7" stroke-width="0.5" data-z-index="1" class="highcharts-grid-line" d="M 52 123.25 L 346 123.25" opacity="1"></path><path fill="none" stroke="#B9CFD7" stroke-width="0.5" data-z-index="1" class="highcharts-grid-line" d="M 52 89.25 L 346 89.25" opacity="1"></path><path fill="none" stroke="#B9CFD7" stroke-width="0.5" data-z-index="1" class="highcharts-grid-line" d="M 52 55.75 L 346 55.75" opacity="1"></path></g><rect fill="none" class="highcharts-plot-border" data-z-index="1" x="52" y="56" width="294" height="266"></rect><g class="highcharts-axis highcharts-xaxis" data-z-index="2"><path fill="none" class="highcharts-axis-line" stroke="#B9CFD7" stroke-width="0.5" data-z-index="7" d="M 52 322.25 L 346 322.25"></path></g><g class="highcharts-axis highcharts-yaxis" data-z-index="2"><path fill="none" class="highcharts-axis-line" data-z-index="7" d="M 52 56 L 52 322"></path></g><g class="highcharts-series-group" data-z-index="3"><g class="highcharts-series highcharts-series-0 highcharts-column-series" data-z-index="0.1" opacity="1" transform="translate(52,56) scale(1 1)" clip-path="url(#highcharts-mdfqxcq-211-)"><rect x="0.5" y="243.5" width="9" height="23" fill="#DC440E" stroke="#ffffff" stroke-width="1e-7" opacity="1" class="highcharts-point"></rect><rect x="10.5" y="260.5" width="9" height="6" fill="#DC440E" stroke="#ffffff" stroke-width="1e-7" opacity="1" class="highcharts-point"></rect><rect x="30.5" y="243.5" width="9" height="23" fill="#DC440E" stroke="#ffffff" stroke-width="1e-7" opacity="1" class="highcharts-point"></rect><rect x="40.5" y="260.5" width="9" height="6" fill="#DC440E" stroke="#ffffff" stroke-width="1e-7" opacity="1" class="highcharts-point"></rect><rect x="61.5" y="242.5" width="9" height="24" fill="#DC440E" stroke="#ffffff" stroke-width="1e-7" opacity="1" class="highcharts-point"></rect><rect x="71.5" y="260.5" width="9" height="6" fill="#DC440E" stroke="#ffffff" stroke-width="1e-7" opacity="1" class="highcharts-point"></rect><rect x="91.5" y="242.5" width="9" height="24" fill="#DC440E" stroke="#ffffff" stroke-width="1e-7" opacity="1" class="highcharts-point"></rect><rect x="101.5" y="260.5" width="9" height="6" fill="#DC440E" stroke="#ffffff" stroke-width="1e-7" opacity="1" class="highcharts-point"></rect><rect x="121.5" y="242.5" width="9" height="24" fill="#DC440E" stroke="#ffffff" stroke-width="1e-7" opacity="1" class="highcharts-point"></rect><rect x="131.5" y="260.5" width="9" height="6" fill="#DC440E" stroke="#ffffff" stroke-width="1e-7" opacity="1" class="highcharts-point"></rect><rect x="152.5" y="239.5" width="9" height="27" fill="#DC440E" stroke="#ffffff" stroke-width="1e-7" opacity="1" class="highcharts-point"></rect><rect x="162.5" y="260.5" width="9" height="6" fill="#DC440E" stroke="#ffffff" stroke-width="1e-7" opacity="1" class="highcharts-point"></rect><rect x="182.5" y="239.5" width="9" height="27" fill="#DC440E" stroke="#ffffff" stroke-width="1e-7" opacity="1" class="highcharts-point"></rect><rect x="192.5" y="260.5" width="9" height="6" fill="#DC440E" stroke="#ffffff" stroke-width="1e-7" opacity="1" class="highcharts-point"></rect><rect x="213.5" y="238.5" width="9" height="28" fill="#DC440E" stroke="#ffffff" stroke-width="1e-7" opacity="1" class="highcharts-point"></rect><rect x="223.5" y="259.5" width="9" height="7" fill="#DC440E" stroke="#ffffff" stroke-width="1e-7" opacity="1" class="highcharts-point"></rect><rect x="233.5" y="266.5" width="9" height="0" fill="#DC440E" stroke="#ffffff" stroke-width="1e-7" opacity="1" class="highcharts-point highcharts-null-point"></rect><rect x="243.5" y="236.5" width="9" height="30" fill="#DC440E" stroke="#ffffff" stroke-width="1e-7" opacity="1" class="highcharts-point"></rect><rect x="253.5" y="251.5" width="9" height="15" fill="#DC440E" stroke="#ffffff" stroke-width="1e-7" opacity="1" class="highcharts-point"></rect><rect x="263.5" y="266.5" width="9" height="0" fill="#DC440E" stroke="#ffffff" stroke-width="1e-7" opacity="1" class="highcharts-point highcharts-null-point"></rect><rect x="273.5" y="235.5" width="9" height="31" fill="#DC440E" stroke="#ffffff" stroke-width="1e-7" opacity="1" class="highcharts-point"></rect><rect x="284.5" y="252.5" width="9" height="14" fill="#DC440E" stroke="#ffffff" stroke-width="1e-7" opacity="1" class="highcharts-point"></rect></g><g class="highcharts-markers highcharts-series-0 highcharts-column-series" data-z-index="0.1" opacity="1" transform="translate(52,56) scale(1 1)" clip-path="none"></g><g class="highcharts-series highcharts-series-1 highcharts-column-series" data-z-index="0.1" opacity="1" transform="translate(52,56) scale(1 1)" clip-path="url(#highcharts-mdfqxcq-211-)"><rect x="0.5" y="154.5" width="9" height="89" fill="#923F8D" stroke="#ffffff" stroke-width="1e-7" opacity="1" class="highcharts-point"></rect><rect x="10.5" y="237.5" width="9" height="23" fill="#923F8D" stroke="#ffffff" stroke-width="1e-7" opacity="1" class="highcharts-point"></rect><rect x="30.5" y="154.5" width="9" height="89" fill="#923F8D" stroke="#ffffff" stroke-width="1e-7" opacity="1" class="highcharts-point"></rect><rect x="40.5" y="237.5" width="9" height="23" fill="#923F8D" stroke="#ffffff" stroke-width="1e-7" opacity="1" class="highcharts-point"></rect><rect x="61.5" y="153.5" width="9" height="89" fill="#923F8D" stroke="#ffffff" stroke-width="1e-7" opacity="1" class="highcharts-point"></rect><rect x="71.5" y="237.5" width="9" height="23" fill="#923F8D" stroke="#ffffff" stroke-width="1e-7" opacity="1" class="highcharts-point"></rect><rect x="91.5" y="152.5" width="9" height="90" fill="#923F8D" stroke="#ffffff" stroke-width="1e-7" opacity="1" class="highcharts-point"></rect><rect x="101.5" y="237.5" width="9" height="23" fill="#923F8D" stroke="#ffffff" stroke-width="1e-7" opacity="1" class="highcharts-point"></rect><rect x="121.5" y="152.5" width="9" height="90" fill="#923F8D" stroke="#ffffff" stroke-width="1e-7" opacity="1" class="highcharts-point"></rect><rect x="131.5" y="237.5" width="9" height="23" fill="#923F8D" stroke="#ffffff" stroke-width="1e-7" opacity="1" class="highcharts-point"></rect><rect x="152.5" y="148.5" width="9" height="91" fill="#923F8D" stroke="#ffffff" stroke-width="1e-7" opacity="1" class="highcharts-point"></rect><rect x="162.5" y="237.5" width="9" height="23" fill="#923F8D" stroke="#ffffff" stroke-width="1e-7" opacity="1" class="highcharts-point"></rect><rect x="182.5" y="149.5" width="9" height="90" fill="#923F8D" stroke="#ffffff" stroke-width="1e-7" opacity="1" class="highcharts-point"></rect><rect x="192.5" y="235.5" width="9" height="25" fill="#923F8D" stroke="#ffffff" stroke-width="1e-7" opacity="1" class="highcharts-point"></rect><rect x="213.5" y="148.5" width="9" height="90" fill="#923F8D" stroke="#ffffff" stroke-width="1e-7" opacity="1" class="highcharts-point"></rect><rect x="223.5" y="234.5" width="9" height="25" fill="#923F8D" stroke="#ffffff" stroke-width="1e-7" opacity="1" class="highcharts-point"></rect><rect x="233.5" y="266.5" width="9" height="0" fill="#923F8D" stroke="#ffffff" stroke-width="1e-7" opacity="1" class="highcharts-point highcharts-null-point"></rect><rect x="243.5" y="145.5" width="9" height="91" fill="#923F8D" stroke="#ffffff" stroke-width="1e-7" opacity="1" class="highcharts-point"></rect><rect x="253.5" y="225.5" width="9" height="26" fill="#923F8D" stroke="#ffffff" stroke-width="1e-7" opacity="1" class="highcharts-point"></rect><rect x="263.5" y="266.5" width="9" height="0" fill="#923F8D" stroke="#ffffff" stroke-width="1e-7" opacity="1" class="highcharts-point highcharts-null-point"></rect><rect x="273.5" y="144.5" width="9" height="91" fill="#923F8D" stroke="#ffffff" stroke-width="1e-7" opacity="1" class="highcharts-point"></rect><rect x="284.5" y="226.5" width="9" height="26" fill="#923F8D" stroke="#ffffff" stroke-width="1e-7" opacity="1" class="highcharts-point"></rect></g><g class="highcharts-markers highcharts-series-1 highcharts-column-series" data-z-index="0.1" opacity="1" transform="translate(52,56) scale(1 1)" clip-path="none"></g><g class="highcharts-series highcharts-series-2 highcharts-column-series" data-z-index="0.1" opacity="1" transform="translate(52,56) scale(1 1)" clip-path="url(#highcharts-mdfqxcq-211-)"><rect x="0.5" y="60.5" width="9" height="94" fill="#68AB2B" stroke="#ffffff" stroke-width="1e-7" opacity="1" class="highcharts-point"></rect><rect x="10.5" y="193.5" width="9" height="44" fill="#68AB2B" stroke="#ffffff" stroke-width="1e-7" opacity="1" class="highcharts-point"></rect><rect x="30.5" y="60.5" width="9" height="94" fill="#68AB2B" stroke="#ffffff" stroke-width="1e-7" opacity="1" class="highcharts-point"></rect><rect x="40.5" y="192.5" width="9" height="45" fill="#68AB2B" stroke="#ffffff" stroke-width="1e-7" opacity="1" class="highcharts-point"></rect><rect x="61.5" y="59.5" width="9" height="94" fill="#68AB2B" stroke="#ffffff" stroke-width="1e-7" opacity="1" class="highcharts-point"></rect><rect x="71.5" y="192.5" width="9" height="45" fill="#68AB2B" stroke="#ffffff" stroke-width="1e-7" opacity="1" class="highcharts-point"></rect><rect x="91.5" y="59.5" width="9" height="93" fill="#68AB2B" stroke="#ffffff" stroke-width="1e-7" opacity="1" class="highcharts-point"></rect><rect x="101.5" y="192.5" width="9" height="45" fill="#68AB2B" stroke="#ffffff" stroke-width="1e-7" opacity="1" class="highcharts-point"></rect><rect x="121.5" y="58.5" width="9" height="94" fill="#68AB2B" stroke="#ffffff" stroke-width="1e-7" opacity="1" class="highcharts-point"></rect><rect x="131.5" y="192.5" width="9" height="45" fill="#68AB2B" stroke="#ffffff" stroke-width="1e-7" opacity="1" class="highcharts-point"></rect><rect x="152.5" y="54.5" width="9" height="94" fill="#68AB2B" stroke="#ffffff" stroke-width="1e-7" opacity="1" class="highcharts-point"></rect><rect x="162.5" y="192.5" width="9" height="45" fill="#68AB2B" stroke="#ffffff" stroke-width="1e-7" opacity="1" class="highcharts-point"></rect><rect x="182.5" y="55.5" width="9" height="94" fill="#68AB2B" stroke="#ffffff" stroke-width="1e-7" opacity="1" class="highcharts-point"></rect><rect x="192.5" y="190.5" width="9" height="45" fill="#68AB2B" stroke="#ffffff" stroke-width="1e-7" opacity="1" class="highcharts-point"></rect><rect x="213.5" y="54.5" width="9" height="94" fill="#68AB2B" stroke="#ffffff" stroke-width="1e-7" opacity="1" class="highcharts-point"></rect><rect x="223.5" y="190.5" width="9" height="44" fill="#68AB2B" stroke="#ffffff" stroke-width="1e-7" opacity="1" class="highcharts-point"></rect><rect x="233.5" y="266.5" width="9" height="0" fill="#68AB2B" stroke="#ffffff" stroke-width="1e-7" opacity="1" class="highcharts-point highcharts-null-point"></rect><rect x="243.5" y="49.5" width="9" height="96" fill="#68AB2B" stroke="#ffffff" stroke-width="1e-7" opacity="1" class="highcharts-point"></rect><rect x="253.5" y="181.5" width="9" height="44" fill="#68AB2B" stroke="#ffffff" stroke-width="1e-7" opacity="1" class="highcharts-point"></rect><rect x="263.5" y="266.5" width="9" height="0" fill="#68AB2B" stroke="#ffffff" stroke-width="1e-7" opacity="1" class="highcharts-point highcharts-null-point"></rect><rect x="273.5" y="48.5" width="9" height="96" fill="#68AB2B" stroke="#ffffff" stroke-width="1e-7" opacity="1" class="highcharts-point"></rect><rect x="284.5" y="182.5" width="9" height="44" fill="#68AB2B" stroke="#ffffff" stroke-width="1e-7" opacity="1" class="highcharts-point"></rect></g><g class="highcharts-markers highcharts-series-2 highcharts-column-series" data-z-index="0.1" opacity="1" transform="translate(52,56) scale(1 1)" clip-path="none"></g><g class="highcharts-series highcharts-series-3 highcharts-column-series" data-z-index="0.1" opacity="1" transform="translate(52,56) scale(1 1)" clip-path="url(#highcharts-mdfqxcq-211-)"><rect x="0.5" y="27.5" width="9" height="33" fill="#689199" stroke="#ffffff" stroke-width="1e-7" opacity="1" class="highcharts-point"></rect><rect x="10.5" y="179.5" width="9" height="14" fill="#689199" stroke="#ffffff" stroke-width="1e-7" opacity="1" class="highcharts-point"></rect><rect x="20.5" y="266.5" width="9" height="0" fill="#689199" stroke="#ffffff" stroke-width="1e-7" opacity="1" class="highcharts-point highcharts-null-point"></rect><rect x="30.5" y="27.5" width="9" height="33" fill="#689199" stroke="#ffffff" stroke-width="1e-7" opacity="1" class="highcharts-point"></rect><rect x="40.5" y="179.5" width="9" height="13" fill="#689199" stroke="#ffffff" stroke-width="1e-7" opacity="1" class="highcharts-point"></rect><rect x="50.5" y="266.5" width="9" height="0" fill="#689199" stroke="#ffffff" stroke-width="1e-7" opacity="1" class="highcharts-point highcharts-null-point"></rect><rect x="61.5" y="26.5" width="9" height="33" fill="#689199" stroke="#ffffff" stroke-width="1e-7" opacity="1" class="highcharts-point"></rect><rect x="71.5" y="179.5" width="9" height="13" fill="#689199" stroke="#ffffff" stroke-width="1e-7" opacity="1" class="highcharts-point"></rect><rect x="81.5" y="266.5" width="9" height="0" fill="#689199" stroke="#ffffff" stroke-width="1e-7" opacity="1" class="highcharts-point highcharts-null-point"></rect><rect x="91.5" y="25.5" width="9" height="34" fill="#689199" stroke="#ffffff" stroke-width="1e-7" opacity="1" class="highcharts-point"></rect><rect x="101.5" y="179.5" width="9" height="13" fill="#689199" stroke="#ffffff" stroke-width="1e-7" opacity="1" class="highcharts-point"></rect><rect x="111.5" y="266.5" width="9" height="0" fill="#689199" stroke="#ffffff" stroke-width="1e-7" opacity="1" class="highcharts-point highcharts-null-point"></rect><rect x="121.5" y="24.5" width="9" height="34" fill="#689199" stroke="#ffffff" stroke-width="1e-7" opacity="1" class="highcharts-point"></rect><rect x="131.5" y="179.5" width="9" height="13" fill="#689199" stroke="#ffffff" stroke-width="1e-7" opacity="1" class="highcharts-point"></rect><rect x="142.5" y="266.5" width="9" height="0" fill="#689199" stroke="#ffffff" stroke-width="1e-7" opacity="1" class="highcharts-point highcharts-null-point"></rect><rect x="152.5" y="20.5" width="9" height="34" fill="#689199" stroke="#ffffff" stroke-width="1e-7" opacity="1" class="highcharts-point"></rect><rect x="162.5" y="179.5" width="9" height="13" fill="#689199" stroke="#ffffff" stroke-width="1e-7" opacity="1" class="highcharts-point"></rect><rect x="172.5" y="266.5" width="9" height="0" fill="#689199" stroke="#ffffff" stroke-width="1e-7" opacity="1" class="highcharts-point highcharts-null-point"></rect><rect x="182.5" y="21.5" width="9" height="34" fill="#689199" stroke="#ffffff" stroke-width="1e-7" opacity="1" class="highcharts-point"></rect><rect x="192.5" y="176.5" width="9" height="14" fill="#689199" stroke="#ffffff" stroke-width="1e-7" opacity="1" class="highcharts-point"></rect><rect x="202.5" y="266.5" width="9" height="0" fill="#689199" stroke="#ffffff" stroke-width="1e-7" opacity="1" class="highcharts-point highcharts-null-point"></rect><rect x="213.5" y="20.5" width="9" height="34" fill="#689199" stroke="#ffffff" stroke-width="1e-7" opacity="1" class="highcharts-point"></rect><rect x="223.5" y="175.5" width="9" height="15" fill="#689199" stroke="#ffffff" stroke-width="1e-7" opacity="1" class="highcharts-point"></rect><rect x="233.5" y="266.5" width="9" height="0" fill="#689199" stroke="#ffffff" stroke-width="1e-7" opacity="1" class="highcharts-point highcharts-null-point"></rect><rect x="243.5" y="16.5" width="9" height="33" fill="#689199" stroke="#ffffff" stroke-width="1e-7" opacity="1" class="highcharts-point"></rect><rect x="253.5" y="167.5" width="9" height="14" fill="#689199" stroke="#ffffff" stroke-width="1e-7" opacity="1" class="highcharts-point"></rect><rect x="263.5" y="266.5" width="9" height="0" fill="#689199" stroke="#ffffff" stroke-width="1e-7" opacity="1" class="highcharts-point highcharts-null-point"></rect><rect x="273.5" y="14.5" width="9" height="34" fill="#689199" stroke="#ffffff" stroke-width="1e-7" opacity="1" class="highcharts-point"></rect><rect x="284.5" y="167.5" width="9" height="15" fill="#689199" stroke="#ffffff" stroke-width="1e-7" opacity="1" class="highcharts-point"></rect></g><g class="highcharts-markers highcharts-series-3 highcharts-column-series" data-z-index="0.1" opacity="1" transform="translate(52,56) scale(1 1)" clip-path="none"></g><g class="highcharts-series highcharts-series-4 highcharts-column-series" data-z-index="0.1" opacity="1" transform="translate(52,56) scale(1 1)" clip-path="url(#highcharts-mdfqxcq-211-)"><rect x="0.5" y="20.5" width="9" height="7" fill="#CD9C00" stroke="#ffffff" stroke-width="1e-7" opacity="1" class="highcharts-point"></rect><rect x="10.5" y="177.5" width="9" height="2" fill="#CD9C00" stroke="#ffffff" stroke-width="1e-7" opacity="1" class="highcharts-point"></rect><rect x="20.5" y="266.5" width="9" height="0" fill="#CD9C00" stroke="#ffffff" stroke-width="1e-7" opacity="1" class="highcharts-point highcharts-null-point"></rect><rect x="30.5" y="20.5" width="9" height="7" fill="#CD9C00" stroke="#ffffff" stroke-width="1e-7" opacity="1" class="highcharts-point"></rect><rect x="40.5" y="177.5" width="9" height="2" fill="#CD9C00" stroke="#ffffff" stroke-width="1e-7" opacity="1" class="highcharts-point"></rect><rect x="50.5" y="266.5" width="9" height="0" fill="#CD9C00" stroke="#ffffff" stroke-width="1e-7" opacity="1" class="highcharts-point highcharts-null-point"></rect><rect x="61.5" y="19.5" width="9" height="7" fill="#CD9C00" stroke="#ffffff" stroke-width="1e-7" opacity="1" class="highcharts-point"></rect><rect x="71.5" y="177.5" width="9" height="2" fill="#CD9C00" stroke="#ffffff" stroke-width="1e-7" opacity="1" class="highcharts-point"></rect><rect x="81.5" y="266.5" width="9" height="0" fill="#CD9C00" stroke="#ffffff" stroke-width="1e-7" opacity="1" class="highcharts-point highcharts-null-point"></rect><rect x="91.5" y="19.5" width="9" height="6" fill="#CD9C00" stroke="#ffffff" stroke-width="1e-7" opacity="1" class="highcharts-point"></rect><rect x="101.5" y="177.5" width="9" height="2" fill="#CD9C00" stroke="#ffffff" stroke-width="1e-7" opacity="1" class="highcharts-point"></rect><rect x="111.5" y="266.5" width="9" height="0" fill="#CD9C00" stroke="#ffffff" stroke-width="1e-7" opacity="1" class="highcharts-point highcharts-null-point"></rect><rect x="121.5" y="17.5" width="9" height="7" fill="#CD9C00" stroke="#ffffff" stroke-width="1e-7" opacity="1" class="highcharts-point"></rect><rect x="131.5" y="177.5" width="9" height="2" fill="#CD9C00" stroke="#ffffff" stroke-width="1e-7" opacity="1" class="highcharts-point"></rect><rect x="142.5" y="266.5" width="9" height="0" fill="#CD9C00" stroke="#ffffff" stroke-width="1e-7" opacity="1" class="highcharts-point highcharts-null-point"></rect><rect x="152.5" y="13.5" width="9" height="7" fill="#CD9C00" stroke="#ffffff" stroke-width="1e-7" opacity="1" class="highcharts-point"></rect><rect x="162.5" y="177.5" width="9" height="2" fill="#CD9C00" stroke="#ffffff" stroke-width="1e-7" opacity="1" class="highcharts-point"></rect><rect x="172.5" y="266.5" width="9" height="0" fill="#CD9C00" stroke="#ffffff" stroke-width="1e-7" opacity="1" class="highcharts-point highcharts-null-point"></rect><rect x="182.5" y="14.5" width="9" height="7" fill="#CD9C00" stroke="#ffffff" stroke-width="1e-7" opacity="1" class="highcharts-point"></rect><rect x="192.5" y="174.5" width="9" height="2" fill="#CD9C00" stroke="#ffffff" stroke-width="1e-7" opacity="1" class="highcharts-point"></rect><rect x="202.5" y="266.5" width="9" height="0" fill="#CD9C00" stroke="#ffffff" stroke-width="1e-7" opacity="1" class="highcharts-point highcharts-null-point"></rect><rect x="213.5" y="13.5" width="9" height="7" fill="#CD9C00" stroke="#ffffff" stroke-width="1e-7" opacity="1" class="highcharts-point"></rect><rect x="223.5" y="173.5" width="9" height="2" fill="#CD9C00" stroke="#ffffff" stroke-width="1e-7" opacity="1" class="highcharts-point"></rect><rect x="233.5" y="266.5" width="9" height="0" fill="#CD9C00" stroke="#ffffff" stroke-width="1e-7" opacity="1" class="highcharts-point highcharts-null-point"></rect><rect x="243.5" y="8.5" width="9" height="8" fill="#CD9C00" stroke="#ffffff" stroke-width="1e-7" opacity="1" class="highcharts-point"></rect><rect x="253.5" y="165.5" width="9" height="2" fill="#CD9C00" stroke="#ffffff" stroke-width="1e-7" opacity="1" class="highcharts-point"></rect><rect x="263.5" y="266.5" width="9" height="0" fill="#CD9C00" stroke="#ffffff" stroke-width="1e-7" opacity="1" class="highcharts-point highcharts-null-point"></rect><rect x="273.5" y="7.5" width="9" height="7" fill="#CD9C00" stroke="#ffffff" stroke-width="1e-7" opacity="1" class="highcharts-point"></rect><rect x="284.5" y="165.5" width="9" height="2" fill="#CD9C00" stroke="#ffffff" stroke-width="1e-7" opacity="1" class="highcharts-point"></rect></g><g class="highcharts-markers highcharts-series-4 highcharts-column-series" data-z-index="0.1" opacity="1" transform="translate(52,56) scale(1 1)" clip-path="none"></g><g class="highcharts-series highcharts-series-5 highcharts-column-series" data-z-index="0.1" opacity="1" transform="translate(52,56) scale(1 1)" clip-path="url(#highcharts-mdfqxcq-211-)"><rect x="0.5" y="19.5" width="9" height="1" fill="#B00000" stroke="#ffffff" stroke-width="1e-7" opacity="1" class="highcharts-point"></rect><rect x="10.5" y="176.5" width="9" height="1" fill="#B00000" stroke="#ffffff" stroke-width="1e-7" opacity="1" class="highcharts-point"></rect><rect x="20.5" y="266.5" width="9" height="0" fill="#B00000" stroke="#ffffff" stroke-width="1e-7" opacity="1" class="highcharts-point highcharts-null-point"></rect><rect x="30.5" y="18.5" width="9" height="2" fill="#B00000" stroke="#ffffff" stroke-width="1e-7" opacity="1" class="highcharts-point"></rect><rect x="40.5" y="176.5" width="9" height="1" fill="#B00000" stroke="#ffffff" stroke-width="1e-7" opacity="1" class="highcharts-point"></rect><rect x="50.5" y="266.5" width="9" height="0" fill="#B00000" stroke="#ffffff" stroke-width="1e-7" opacity="1" class="highcharts-point highcharts-null-point"></rect><rect x="61.5" y="17.5" width="9" height="2" fill="#B00000" stroke="#ffffff" stroke-width="1e-7" opacity="1" class="highcharts-point"></rect><rect x="71.5" y="176.5" width="9" height="1" fill="#B00000" stroke="#ffffff" stroke-width="1e-7" opacity="1" class="highcharts-point"></rect><rect x="81.5" y="266.5" width="9" height="0" fill="#B00000" stroke="#ffffff" stroke-width="1e-7" opacity="1" class="highcharts-point highcharts-null-point"></rect><rect x="91.5" y="17.5" width="9" height="2" fill="#B00000" stroke="#ffffff" stroke-width="1e-7" opacity="1" class="highcharts-point"></rect><rect x="101.5" y="175.5" width="9" height="2" fill="#B00000" stroke="#ffffff" stroke-width="1e-7" opacity="1" class="highcharts-point"></rect><rect x="111.5" y="266.5" width="9" height="0" fill="#B00000" stroke="#ffffff" stroke-width="1e-7" opacity="1" class="highcharts-point highcharts-null-point"></rect><rect x="121.5" y="16.5" width="9" height="1" fill="#B00000" stroke="#ffffff" stroke-width="1e-7" opacity="1" class="highcharts-point"></rect><rect x="131.5" y="175.5" width="9" height="2" fill="#B00000" stroke="#ffffff" stroke-width="1e-7" opacity="1" class="highcharts-point"></rect><rect x="142.5" y="266.5" width="9" height="0" fill="#B00000" stroke="#ffffff" stroke-width="1e-7" opacity="1" class="highcharts-point highcharts-null-point"></rect><rect x="152.5" y="10.5" width="9" height="3" fill="#B00000" stroke="#ffffff" stroke-width="1e-7" opacity="1" class="highcharts-point"></rect><rect x="162.5" y="175.5" width="9" height="2" fill="#B00000" stroke="#ffffff" stroke-width="1e-7" opacity="1" class="highcharts-point"></rect><rect x="172.5" y="266.5" width="9" height="0" fill="#B00000" stroke="#ffffff" stroke-width="1e-7" opacity="1" class="highcharts-point highcharts-null-point"></rect><rect x="182.5" y="12.5" width="9" height="2" fill="#B00000" stroke="#ffffff" stroke-width="1e-7" opacity="1" class="highcharts-point"></rect><rect x="192.5" y="173.5" width="9" height="1" fill="#B00000" stroke="#ffffff" stroke-width="1e-7" opacity="1" class="highcharts-point"></rect><rect x="202.5" y="266.5" width="9" height="0" fill="#B00000" stroke="#ffffff" stroke-width="1e-7" opacity="1" class="highcharts-point highcharts-null-point"></rect><rect x="213.5" y="11.5" width="9" height="2" fill="#B00000" stroke="#ffffff" stroke-width="1e-7" opacity="1" class="highcharts-point"></rect><rect x="223.5" y="172.5" width="9" height="1" fill="#B00000" stroke="#ffffff" stroke-width="1e-7" opacity="1" class="highcharts-point"></rect><rect x="233.5" y="266.5" width="9" height="0" fill="#B00000" stroke="#ffffff" stroke-width="1e-7" opacity="1" class="highcharts-point highcharts-null-point"></rect><rect x="243.5" y="7.5" width="9" height="1" fill="#B00000" stroke="#ffffff" stroke-width="1e-7" opacity="1" class="highcharts-point"></rect><rect x="253.5" y="163.5" width="9" height="2" fill="#B00000" stroke="#ffffff" stroke-width="1e-7" opacity="1" class="highcharts-point"></rect><rect x="263.5" y="266.5" width="9" height="0" fill="#B00000" stroke="#ffffff" stroke-width="1e-7" opacity="1" class="highcharts-point highcharts-null-point"></rect><rect x="273.5" y="5.5" width="9" height="2" fill="#B00000" stroke="#ffffff" stroke-width="1e-7" opacity="1" class="highcharts-point"></rect><rect x="284.5" y="164.5" width="9" height="1" fill="#B00000" stroke="#ffffff" stroke-width="1e-7" opacity="1" class="highcharts-point"></rect></g><g class="highcharts-markers highcharts-series-5 highcharts-column-series" data-z-index="0.1" opacity="1" transform="translate(52,56) scale(1 1)" clip-path="none"></g></g><text x="10" text-anchor="start" class="highcharts-title" data-z-index="4" style="color:#000000;font-size:14px;font-weight:bold;fill:#000000;" y="21"><tspan>Wohnungen nach Zimmerzahl</tspan></text><text x="10" text-anchor="start" class="highcharts-subtitle" data-z-index="4" style="color:#000000;font-size:12px;font-weight:normal;fill:#000000;" y="40"><tspan>Wohnviertel Klybeck und Kleinhüningen</tspan></text><text x="10" text-anchor="start" class="highcharts-caption" data-z-index="4" style="color:#666666;fill:#666666;" y="400"></text><g class="highcharts-legend" data-z-index="7" transform="translate(358,134)"><rect fill="none" class="highcharts-legend-box" rx="0" ry="0" x="0" y="0" width="117" height="131" visibility="visible"></rect><g data-z-index="1"><g><g class="highcharts-legend-item highcharts-column-series highcharts-color-undefined highcharts-series-5" data-z-index="1" transform="translate(8,3)"><text x="21" style="color:#333333;cursor:pointer;font-size:12px;font-weight:normal;fill:#333333;" text-anchor="start" data-z-index="2" y="15"><tspan>6 Zimmer u.m.</tspan></text><rect x="2" y="4" width="12" height="12" fill="#B00000" class="highcharts-point" data-z-index="3"></rect></g><g class="highcharts-legend-item highcharts-column-series highcharts-color-undefined highcharts-series-4" data-z-index="1" transform="translate(8,23)"><text x="21" y="15" style="color:#333333;cursor:pointer;font-size:12px;font-weight:normal;fill:#333333;" text-anchor="start" data-z-index="2"><tspan>5 Zimmer</tspan></text><rect x="2" y="4" width="12" height="12" fill="#CD9C00" class="highcharts-point" data-z-index="3"></rect></g><g class="highcharts-legend-item highcharts-column-series highcharts-color-undefined highcharts-series-3" data-z-index="1" transform="translate(8,43)"><text x="21" y="15" style="color:#333333;cursor:pointer;font-size:12px;font-weight:normal;fill:#333333;" text-anchor="start" data-z-index="2"><tspan>4 Zimmer</tspan></text><rect x="2" y="4" width="12" height="12" fill="#689199" class="highcharts-point" data-z-index="3"></rect></g><g class="highcharts-legend-item highcharts-column-series highcharts-color-undefined highcharts-series-2" data-z-index="1" transform="translate(8,63)"><text x="21" y="15" style="color:#333333;cursor:pointer;font-size:12px;font-weight:normal;fill:#333333;" text-anchor="start" data-z-index="2"><tspan>3 Zimmer</tspan></text><rect x="2" y="4" width="12" height="12" fill="#68AB2B" class="highcharts-point" data-z-index="3"></rect></g><g class="highcharts-legend-item highcharts-column-series highcharts-color-undefined highcharts-series-1" data-z-index="1" transform="translate(8,83)"><text x="21" y="15" style="color:#333333;cursor:pointer;font-size:12px;font-weight:normal;fill:#333333;" text-anchor="start" data-z-index="2"><tspan>2 Zimmer</tspan></text><rect x="2" y="4" width="12" height="12" fill="#923F8D" class="highcharts-point" data-z-index="3"></rect></g><g class="highcharts-legend-item highcharts-column-series highcharts-color-undefined highcharts-series-0" data-z-index="1" transform="translate(8,103)"><text x="21" y="15" style="color:#333333;cursor:pointer;font-size:12px;font-weight:normal;fill:#333333;" text-anchor="start" data-z-index="2"><tspan>1 Zimmer</tspan></text><rect x="2" y="4" width="12" height="12" fill="#DC440E" class="highcharts-point" data-z-index="3"></rect></g></g></g></g><g class="highcharts-axis-labels highcharts-xaxis-labels" data-z-index="7"><text x="59.661690381592294" style="color:#000000;cursor:default;font-size:11px;fill:#000000;" text-anchor="end" transform="translate(0,0) rotate(-45 59.661690381592294 338)" y="338" opacity="1"><tspan>2014: Klybeck</tspan></text><text x="69.7996214160753" style="color:#000000;cursor:default;font-size:11px;fill:#000000;" text-anchor="end" transform="translate(0,0) rotate(-45 69.7996214160753 338)" y="338" opacity="1"><tspan>2014: Kleinh.</tspan></text><text x="79.93755245055729" style="color:#000000;cursor:default;font-size:11px;fill:#000000;" text-anchor="end" transform="translate(0,0) rotate(-45 79.93755245055729 338)" y="338" opacity="1"></text><text x="90.0754834850403" style="color:#000000;cursor:default;font-size:11px;fill:#000000;" text-anchor="end" transform="translate(0,0) rotate(-45 90.0754834850403 338)" y="338" opacity="1"><tspan>2015: Klybeck</tspan></text><text x="100.21341451951929" style="color:#000000;cursor:default;font-size:11px;fill:#000000;" text-anchor="end" transform="translate(0,0) rotate(-45 100.21341451951929 338)" y="338" opacity="1"><tspan>2015: Kleinh.</tspan></text><text x="110.35134555400928" style="color:#000000;cursor:default;font-size:11px;fill:#000000;" text-anchor="end" transform="translate(0,0) rotate(-45 110.35134555400928 338)" y="338" opacity="1"></text><text x="120.48927658848929" style="color:#000000;cursor:default;font-size:11px;fill:#000000;" text-anchor="end" transform="translate(0,0) rotate(-45 120.48927658848929 338)" y="338" opacity="1"><tspan>2016: Klybeck</tspan></text><text x="130.6272076229693" style="color:#000000;cursor:default;font-size:11px;fill:#000000;" text-anchor="end" transform="translate(0,0) rotate(-45 130.6272076229693 338)" y="338" opacity="1"><tspan>2016: Kleinh.</tspan></text><text x="140.7651386574493" style="color:#000000;cursor:default;font-size:11px;fill:#000000;" text-anchor="end" transform="translate(0,0) rotate(-45 140.7651386574493 338)" y="338" opacity="1"></text><text x="150.90306969193932" style="color:#000000;cursor:default;font-size:11px;fill:#000000;" text-anchor="end" transform="translate(0,0) rotate(-45 150.90306969193932 338)" y="338" opacity="1"><tspan>2017: Klybeck</tspan></text><text x="161.04100072641933" style="color:#000000;cursor:default;font-size:11px;fill:#000000;" text-anchor="end" transform="translate(0,0) rotate(-45 161.04100072641933 338)" y="338" opacity="1"><tspan>2017: Kleinh.</tspan></text><text x="171.17893176089933" style="color:#000000;cursor:default;font-size:11px;fill:#000000;" text-anchor="end" transform="translate(0,0) rotate(-45 171.17893176089933 338)" y="338" opacity="1"></text><text x="181.3168627953893" style="color:#000000;cursor:default;font-size:11px;fill:#000000;" text-anchor="end" transform="translate(0,0) rotate(-45 181.3168627953893 338)" y="338" opacity="1"><tspan>2018: Klybeck</tspan></text><text x="191.45479382986932" style="color:#000000;cursor:default;font-size:11px;fill:#000000;" text-anchor="end" transform="translate(0,0) rotate(-45 191.45479382986932 338)" y="338" opacity="1"><tspan>2018: Kleinh.</tspan></text><text x="201.59272486434932" style="color:#000000;cursor:default;font-size:11px;fill:#000000;" text-anchor="end" transform="translate(0,0) rotate(-45 201.59272486434932 338)" y="338" opacity="1"></text><text x="211.73065589882933" style="color:#000000;cursor:default;font-size:11px;fill:#000000;" text-anchor="end" transform="translate(0,0) rotate(-45 211.73065589882933 338)" y="338" opacity="1"><tspan>2019: Klybeck</tspan></text><text x="221.8685869333193" style="color:#000000;cursor:default;font-size:11px;fill:#000000;" text-anchor="end" transform="translate(0,0) rotate(-45 221.8685869333193 338)" y="338" opacity="1"><tspan>2019: Kleinh.</tspan></text><text x="232.0065179677993" style="color:#000000;cursor:default;font-size:11px;fill:#000000;" text-anchor="end" transform="translate(0,0) rotate(-45 232.0065179677993 338)" y="338" opacity="1"></text><text x="242.14444900227932" style="color:#000000;cursor:default;font-size:11px;fill:#000000;" text-anchor="end" transform="translate(0,0) rotate(-45 242.14444900227932 338)" y="338" opacity="1"><tspan>2020: Klybeck</tspan></text><text x="252.2823800367693" style="color:#000000;cursor:default;font-size:11px;fill:#000000;" text-anchor="end" transform="translate(0,0) rotate(-45 252.2823800367693 338)" y="338" opacity="1"><tspan>2020: Kleinh.</tspan></text><text x="262.4203110712493" style="color:#000000;cursor:default;font-size:11px;fill:#000000;" text-anchor="end" transform="translate(0,0) rotate(-45 262.4203110712493 338)" y="338" opacity="1"></text><text x="272.5582421057293" style="color:#000000;cursor:default;font-size:11px;fill:#000000;" text-anchor="end" transform="translate(0,0) rotate(-45 272.5582421057293 338)" y="338" opacity="1"><tspan>2021: Klybeck</tspan></text><text x="282.6961731402093" style="color:#000000;cursor:default;font-size:11px;fill:#000000;" text-anchor="end" transform="translate(0,0) rotate(-45 282.6961731402093 338)" y="338" opacity="1"><tspan>2021: Kleinh.</tspan></text><text x="292.83410417469923" style="color:#000000;cursor:default;font-size:11px;fill:#000000;" text-anchor="end" transform="translate(0,0) rotate(-45 292.83410417469923 338)" y="338" opacity="1"></text><text x="302.97203520917924" style="color:#000000;cursor:default;font-size:11px;fill:#000000;" text-anchor="end" transform="translate(0,0) rotate(-45 302.97203520917924 338)" y="338" opacity="1"><tspan>2022: Klybeck</tspan></text><text x="313.10996624365924" style="color:#000000;cursor:default;font-size:11px;fill:#000000;" text-anchor="end" transform="translate(0,0) rotate(-45 313.10996624365924 338)" y="338" opacity="1"><tspan>2022: Kleinh.</tspan></text><text x="323.24789727813925" style="color:#000000;cursor:default;font-size:11px;fill:#000000;" text-anchor="end" transform="translate(0,0) rotate(-45 323.24789727813925 338)" y="338" opacity="1"></text><text x="333.38582831262926" style="color:#000000;cursor:default;font-size:11px;fill:#000000;" text-anchor="end" transform="translate(0,0) rotate(-45 333.38582831262926 338)" y="338" opacity="1"><tspan>2023: Klybeck</tspan></text><text x="343.52375934710926" style="color:#000000;cursor:default;font-size:11px;fill:#000000;" text-anchor="end" transform="translate(0,0) rotate(-45 343.52375934710926 338)" y="338" opacity="1"><tspan>2023: Kleinh.</tspan></text></g><g class="highcharts-axis-labels highcharts-yaxis-labels" data-z-index="7"><text x="37" style="color:#000000;cursor:default;font-size:11px;fill:#000000;" text-anchor="end" transform="translate(0,0)" y="326" opacity="1">0</text><text x="37" style="color:#000000;cursor:default;font-size:11px;fill:#000000;" text-anchor="end" transform="translate(0,0)" y="293" opacity="1">500</text><text x="37" style="color:#000000;cursor:default;font-size:11px;fill:#000000;" text-anchor="end" transform="translate(0,0)" y="260" opacity="1"><tspan>1 000</tspan></text><text x="37" style="color:#000000;cursor:default;font-size:11px;fill:#000000;" text-anchor="end" transform="translate(0,0)" y="226" opacity="1"><tspan>1 500</tspan></text><text x="37" style="color:#000000;cursor:default;font-size:11px;fill:#000000;" text-anchor="end" transform="translate(0,0)" y="193" opacity="1"><tspan>2 000</tspan></text><text x="37" style="color:#000000;cursor:default;font-size:11px;fill:#000000;" text-anchor="end" transform="translate(0,0)" y="160" opacity="1"><tspan>2 500</tspan></text><text x="37" style="color:#000000;cursor:default;font-size:11px;fill:#000000;" text-anchor="end" transform="translate(0,0)" y="127" opacity="1"><tspan>3 000</tspan></text><text x="37" style="color:#000000;cursor:default;font-size:11px;fill:#000000;" text-anchor="end" transform="translate(0,0)" y="93" opacity="1"><tspan>3 500</tspan></text><text x="37" style="color:#000000;cursor:default;font-size:11px;fill:#000000;" text-anchor="end" transform="translate(0,0)" y="60" opacity="1"><tspan>4 000</tspan></text></g><text x="10" class="highcharts-credits" text-anchor="start" data-z-index="8" style="cursor:default;color:#000000;font-size:10px;fill:#000000;" y="403"><tspan>Quelle: Statistisches Amt Basel-Stadt, Gebäude- und Wohnungsstatistik.</tspan><tspan x="10" dy="13">Zuletzt geändert: 19.8.2025</tspan></text><g class="highcharts-control-points" data-z-index="99" clip-path="url(#highcharts-mdfqxcq-357-)"></g></svg>