<?xml version="1.0" standalone="no"?><!DOCTYPE svg PUBLIC "-//W3C//DTD SVG 1.1//EN" "http://www.w3.org/Graphics/SVG/1.1/DTD/svg11.dtd"><svg xmlns:xlink="http://www.w3.org/1999/xlink" version="1.1" class="highcharts-root" style="font-family:Arial;font-size:12px;" xmlns="http://www.w3.org/2000/svg" viewBox="0 0 485 415"><desc>Created with Highstock 6.1.1</desc><defs><clipPath id="highcharts-7twvsc2-6"><rect x="0" y="0" width="245" height="266" fill="none"></rect></clipPath><clipPath id="highcharts-7twvsc2-7"><rect x="0" y="0" width="245" height="266" fill="none"></rect></clipPath></defs><rect fill="#fbfbfb" class="highcharts-background" x="0" y="0" width="485" height="428" rx="0" ry="0"></rect><rect fill="none" class="highcharts-plot-background" x="52" y="56" width="245" height="266"></rect><g class="highcharts-pane-group" data-z-index="0"></g><g class="highcharts-grid highcharts-xaxis-grid " data-z-index="1"><path fill="none" data-z-index="1" class="highcharts-grid-line" d="M 65.5 56 L 65.5 322" opacity="1"></path><path fill="none" data-z-index="1" class="highcharts-grid-line" d="M 80.5 56 L 80.5 322" opacity="1"></path><path fill="none" data-z-index="1" class="highcharts-grid-line" d="M 94.5 56 L 94.5 322" opacity="1"></path><path fill="none" data-z-index="1" class="highcharts-grid-line" d="M 109.5 56 L 109.5 322" opacity="1"></path><path fill="none" data-z-index="1" class="highcharts-grid-line" d="M 123.5 56 L 123.5 322" opacity="1"></path><path fill="none" data-z-index="1" class="highcharts-grid-line" d="M 137.5 56 L 137.5 322" opacity="1"></path><path fill="none" data-z-index="1" class="highcharts-grid-line" d="M 152.5 56 L 152.5 322" opacity="1"></path><path fill="none" data-z-index="1" class="highcharts-grid-line" d="M 166.5 56 L 166.5 322" opacity="1"></path><path fill="none" data-z-index="1" class="highcharts-grid-line" d="M 181.5 56 L 181.5 322" opacity="1"></path><path fill="none" data-z-index="1" class="highcharts-grid-line" d="M 195.5 56 L 195.5 322" opacity="1"></path><path fill="none" data-z-index="1" class="highcharts-grid-line" d="M 210.5 56 L 210.5 322" opacity="1"></path><path fill="none" data-z-index="1" class="highcharts-grid-line" d="M 224.5 56 L 224.5 322" opacity="1"></path><path fill="none" data-z-index="1" class="highcharts-grid-line" d="M 238.5 56 L 238.5 322" opacity="1"></path><path fill="none" data-z-index="1" class="highcharts-grid-line" d="M 253.5 56 L 253.5 322" opacity="1"></path><path fill="none" data-z-index="1" class="highcharts-grid-line" d="M 267.5 56 L 267.5 322" opacity="1"></path><path fill="none" data-z-index="1" class="highcharts-grid-line" d="M 282.5 56 L 282.5 322" opacity="1"></path><path fill="none" data-z-index="1" class="highcharts-grid-line" d="M 296.5 56 L 296.5 322" opacity="1"></path><path fill="none" data-z-index="1" class="highcharts-grid-line" d="M 51.5 56 L 51.5 322" opacity="1"></path></g><g class="highcharts-grid highcharts-yaxis-grid " data-z-index="1"><path fill="none" stroke="#B9CFD7" stroke-width="0.5" data-z-index="1" class="highcharts-grid-line" d="M 52 322.25 L 297 322.25" opacity="1"></path><path fill="none" stroke="#B9CFD7" stroke-width="0.5" data-z-index="1" class="highcharts-grid-line" d="M 52 289.25 L 297 289.25" opacity="1"></path><path fill="none" stroke="#B9CFD7" stroke-width="0.5" data-z-index="1" class="highcharts-grid-line" d="M 52 256.25 L 297 256.25" opacity="1"></path><path fill="none" stroke="#B9CFD7" stroke-width="0.5" data-z-index="1" class="highcharts-grid-line" d="M 52 222.25 L 297 222.25" opacity="1"></path><path fill="none" stroke="#B9CFD7" stroke-width="0.5" data-z-index="1" class="highcharts-grid-line" d="M 52 189.25 L 297 189.25" opacity="1"></path><path fill="none" stroke="#B9CFD7" stroke-width="0.5" data-z-index="1" class="highcharts-grid-line" d="M 52 156.25 L 297 156.25" opacity="1"></path><path fill="none" stroke="#B9CFD7" stroke-width="0.5" data-z-index="1" class="highcharts-grid-line" d="M 52 123.25 L 297 123.25" opacity="1"></path><path fill="none" stroke="#B9CFD7" stroke-width="0.5" data-z-index="1" class="highcharts-grid-line" d="M 52 89.25 L 297 89.25" opacity="1"></path><path fill="none" stroke="#B9CFD7" stroke-width="0.5" data-z-index="1" class="highcharts-grid-line" d="M 52 55.75 L 297 55.75" opacity="1"></path></g><rect fill="none" class="highcharts-plot-border" data-z-index="1" x="52" y="56" width="245" height="266"></rect><g class="highcharts-axis highcharts-xaxis " data-z-index="2"><path fill="none" class="highcharts-axis-line" stroke="#B9CFD7" stroke-width="0.5" data-z-index="7" d="M 52 322.25 L 297 322.25"></path></g><g class="highcharts-axis highcharts-yaxis " data-z-index="2"><path fill="none" class="highcharts-axis-line" data-z-index="7" d="M 52 56 L 52 322"></path></g><g class="highcharts-series-group" data-z-index="3"><g data-z-index="0.1" class="highcharts-series highcharts-series-0 highcharts-column-series " transform="translate(52,56) scale(1 1)" clip-path="url(#highcharts-7twvsc2-7)"><rect x="1" y="75" width="13" height="192" fill="#ffbb58" class="highcharts-point"></rect><rect x="15" y="205" width="13" height="62" fill="#ffbb58" class="highcharts-point"></rect><rect x="44" y="75" width="13" height="192" fill="#ffbb58" class="highcharts-point"></rect><rect x="59" y="205" width="13" height="62" fill="#ffbb58" class="highcharts-point"></rect><rect x="87" y="77" width="13" height="190" fill="#ffbb58" class="highcharts-point"></rect><rect x="102" y="205" width="13" height="62" fill="#ffbb58" class="highcharts-point"></rect><rect x="131" y="79" width="13" height="188" fill="#ffbb58" class="highcharts-point"></rect><rect x="145" y="205" width="13" height="62" fill="#ffbb58" class="highcharts-point"></rect><rect x="174" y="76" width="13" height="191" fill="#ffbb58" class="highcharts-point"></rect><rect x="188" y="205" width="13" height="62" fill="#ffbb58" class="highcharts-point"></rect><rect x="217" y="77" width="13" height="190" fill="#ffbb58" class="highcharts-point"></rect><rect x="232" y="208" width="13" height="59" fill="#ffbb58" class="highcharts-point"></rect></g><g data-z-index="0.1" class="highcharts-markers highcharts-series-0 highcharts-column-series " transform="translate(52,56) scale(1 1)" clip-path="none"></g><g data-z-index="0.1" class="highcharts-series highcharts-series-1 highcharts-column-series " transform="translate(52,56) scale(1 1)" clip-path="url(#highcharts-7twvsc2-7)"><rect x="1" y="42" width="13" height="33" fill="#008AC3" class="highcharts-point"></rect><rect x="15" y="184" width="13" height="21" fill="#008AC3" class="highcharts-point"></rect><rect x="44" y="42" width="13" height="33" fill="#008AC3" class="highcharts-point"></rect><rect x="59" y="185" width="13" height="20" fill="#008AC3" class="highcharts-point"></rect><rect x="87" y="45" width="13" height="32" fill="#008AC3" class="highcharts-point"></rect><rect x="102" y="185" width="13" height="20" fill="#008AC3" class="highcharts-point"></rect><rect x="131" y="47" width="13" height="32" fill="#008AC3" class="highcharts-point"></rect><rect x="145" y="185" width="13" height="20" fill="#008AC3" class="highcharts-point"></rect><rect x="174" y="45" width="13" height="31" fill="#008AC3" class="highcharts-point"></rect><rect x="188" y="185" width="13" height="20" fill="#008AC3" class="highcharts-point"></rect><rect x="217" y="46" width="13" height="31" fill="#008AC3" class="highcharts-point"></rect><rect x="232" y="187" width="13" height="21" fill="#008AC3" class="highcharts-point"></rect></g><g data-z-index="0.1" class="highcharts-markers highcharts-series-1 highcharts-column-series " transform="translate(52,56) scale(1 1)" clip-path="none"></g><g data-z-index="0.1" class="highcharts-series highcharts-series-2 highcharts-column-series " transform="translate(52,56) scale(1 1)" clip-path="url(#highcharts-7twvsc2-7)"><rect x="1" y="37" width="13" height="5" fill="#73B97C" class="highcharts-point"></rect><rect x="15" y="182" width="13" height="2" fill="#73B97C" class="highcharts-point"></rect><rect x="44" y="37" width="13" height="5" fill="#73B97C" class="highcharts-point"></rect><rect x="59" y="182" width="13" height="3" fill="#73B97C" class="highcharts-point"></rect><rect x="87" y="40" width="13" height="5" fill="#73B97C" class="highcharts-point"></rect><rect x="102" y="182" width="13" height="3" fill="#73B97C" class="highcharts-point"></rect><rect x="131" y="41" width="13" height="6" fill="#73B97C" class="highcharts-point"></rect><rect x="145" y="182" width="13" height="3" fill="#73B97C" class="highcharts-point"></rect><rect x="174" y="40" width="13" height="5" fill="#73B97C" class="highcharts-point"></rect><rect x="188" y="183" width="13" height="2" fill="#73B97C" class="highcharts-point"></rect><rect x="217" y="41" width="13" height="5" fill="#73B97C" class="highcharts-point"></rect><rect x="232" y="185" width="13" height="2" fill="#73B97C" class="highcharts-point"></rect></g><g data-z-index="0.1" class="highcharts-markers highcharts-series-2 highcharts-column-series " transform="translate(52,56) scale(1 1)" clip-path="none"></g><g data-z-index="0.1" class="highcharts-series highcharts-series-3 highcharts-column-series " transform="translate(52,56) scale(1 1)" clip-path="url(#highcharts-7twvsc2-7)"><rect x="1" y="36" width="13" height="1" fill="#662673" class="highcharts-point"></rect><rect x="15" y="181" width="13" height="1" fill="#662673" class="highcharts-point"></rect><rect x="44" y="36" width="13" height="1" fill="#662673" class="highcharts-point"></rect><rect x="59" y="182" width="13" height="0" fill="#662673" class="highcharts-point"></rect><rect x="87" y="39" width="13" height="1" fill="#662673" class="highcharts-point"></rect><rect x="102" y="182" width="13" height="0" fill="#662673" class="highcharts-point"></rect><rect x="131" y="41" width="13" height="0" fill="#662673" class="highcharts-point"></rect><rect x="145" y="182" width="13" height="0" fill="#662673" class="highcharts-point"></rect><rect x="174" y="40" width="13" height="0" fill="#662673" class="highcharts-point"></rect><rect x="188" y="182" width="13" height="1" fill="#662673" class="highcharts-point"></rect><rect x="217" y="39" width="13" height="2" fill="#662673" class="highcharts-point"></rect><rect x="232" y="183" width="13" height="2" fill="#662673" class="highcharts-point"></rect></g><g data-z-index="0.1" class="highcharts-markers highcharts-series-3 highcharts-column-series " transform="translate(52,56) scale(1 1)" clip-path="none"></g></g><text x="10" text-anchor="start" class="highcharts-title" data-z-index="4" style="color:#000000;font-size:14px;font-weight:bold;fill:#000000;" y="21"><tspan>Wohnungen nach Belegungsart</tspan></text><text x="10" text-anchor="start" class="highcharts-subtitle" data-z-index="4" style="color:#000000;font-size:12px;font-weight:normal;font-family:Arial;fill:#000000;" y="40"><tspan>Wohnviertel Klybeck und Kleinh체ningen</tspan></text><g class="highcharts-legend" data-z-index="7" transform="translate(309,139)"><rect fill="none" class="highcharts-legend-box" rx="0" ry="0" x="0" y="0" width="166" height="121" visibility="visible"></rect><g data-z-index="1"><g><g class="highcharts-legend-item highcharts-column-series highcharts-color-undefined highcharts-series-3" data-z-index="1" transform="translate(8,3)"><text x="21" style="color:#333333;font-size:12px;font-weight:normal;cursor:pointer;fill:#333333;" text-anchor="start" data-z-index="2" y="15"><tspan>Sonstige Wohnungen</tspan></text><rect x="2" y="4" width="12" height="12" fill="#662673" class="highcharts-point" data-z-index="3"></rect></g><g class="highcharts-legend-item highcharts-column-series highcharts-color-undefined highcharts-series-2" data-z-index="1" transform="translate(8,23)"><text x="21" y="15" style="color:#333333;font-size:12px;font-weight:normal;cursor:pointer;fill:#333333;" text-anchor="start" data-z-index="2"><tspan>Selbstbewohnte</tspan><tspan x="21" dy="15">Eigent체merwohnungen</tspan></text><rect x="2" y="4" width="12" height="12" fill="#73B97C" class="highcharts-point" data-z-index="3"></rect></g><g class="highcharts-legend-item highcharts-column-series highcharts-color-undefined highcharts-series-1" data-z-index="1" transform="translate(8,58)"><text x="21" y="15" style="color:#333333;font-size:12px;font-weight:normal;cursor:pointer;fill:#333333;" text-anchor="start" data-z-index="2"><tspan>Genossenschafts-</tspan><tspan x="21" dy="15">wohnungen</tspan></text><rect x="2" y="4" width="12" height="12" fill="#008AC3" class="highcharts-point" data-z-index="3"></rect></g><g class="highcharts-legend-item highcharts-column-series highcharts-color-undefined highcharts-series-0" data-z-index="1" transform="translate(8,93)"><text x="21" y="15" style="color:#333333;font-size:12px;font-weight:normal;cursor:pointer;fill:#333333;" text-anchor="start" data-z-index="2"><tspan>Mietwohnungen</tspan></text><rect x="2" y="4" width="12" height="12" fill="#ffbb58" class="highcharts-point" data-z-index="3"></rect></g></g></g></g><g class="highcharts-axis-labels highcharts-xaxis-labels " data-z-index="7"><text x="61.798607217291504" style="color:#000000;cursor:default;font-size:11px;fill:#000000;" text-anchor="end" transform="translate(0,0) rotate(-45 61.798607217291504 338)" y="338" opacity="1"><tspan>2013: Klybeck</tspan></text><text x="76.21037192317449" style="color:#000000;cursor:default;font-size:11px;fill:#000000;" text-anchor="end" transform="translate(0,0) rotate(-45 76.21037192317449 338)" y="338" opacity="1"><tspan>2013: Kleinh.</tspan></text><text x="90.6221366290565" style="color:#000000;cursor:default;font-size:11px;fill:#000000;" text-anchor="end" transform="translate(0,0) rotate(-45 90.6221366290565 338)" y="338" opacity="1"></text><text x="105.0339013349395" style="color:#000000;cursor:default;font-size:11px;fill:#000000;" text-anchor="end" transform="translate(0,0) rotate(-45 105.0339013349395 338)" y="338" opacity="1"><tspan>2014: Klybeck</tspan></text><text x="119.4456660408195" style="color:#000000;cursor:default;font-size:11px;fill:#000000;" text-anchor="end" transform="translate(0,0) rotate(-45 119.4456660408195 338)" y="338" opacity="1"><tspan>2014: Kleinh.</tspan></text><text x="133.8574307466995" style="color:#000000;cursor:default;font-size:11px;fill:#000000;" text-anchor="end" transform="translate(0,0) rotate(-45 133.8574307466995 338)" y="338" opacity="1"></text><text x="148.26919545258949" style="color:#000000;cursor:default;font-size:11px;fill:#000000;" text-anchor="end" transform="translate(0,0) rotate(-45 148.26919545258949 338)" y="338" opacity="1"><tspan>2015: Klybeck</tspan></text><text x="162.6809601584695" style="color:#000000;cursor:default;font-size:11px;fill:#000000;" text-anchor="end" transform="translate(0,0) rotate(-45 162.6809601584695 338)" y="338" opacity="1"><tspan>2015: Kleinh.</tspan></text><text x="177.0927248643495" style="color:#000000;cursor:default;font-size:11px;fill:#000000;" text-anchor="end" transform="translate(0,0) rotate(-45 177.0927248643495 338)" y="338" opacity="1"></text><text x="191.5044895702295" style="color:#000000;cursor:default;font-size:11px;fill:#000000;" text-anchor="end" transform="translate(0,0) rotate(-45 191.5044895702295 338)" y="338" opacity="1"><tspan>2016: Klybeck</tspan></text><text x="205.9162542761195" style="color:#000000;cursor:default;font-size:11px;fill:#000000;" text-anchor="end" transform="translate(0,0) rotate(-45 205.9162542761195 338)" y="338" opacity="1"><tspan>2016: Kleinh.</tspan></text><text x="220.3280189819995" style="color:#000000;cursor:default;font-size:11px;fill:#000000;" text-anchor="end" transform="translate(0,0) rotate(-45 220.3280189819995 338)" y="338" opacity="1"></text><text x="234.7397836878795" style="color:#000000;cursor:default;font-size:11px;fill:#000000;" text-anchor="end" transform="translate(0,0) rotate(-45 234.7397836878795 338)" y="338" opacity="1"><tspan>2017: Klybeck</tspan></text><text x="249.1515483937595" style="color:#000000;cursor:default;font-size:11px;fill:#000000;" text-anchor="end" transform="translate(0,0) rotate(-45 249.1515483937595 338)" y="338" opacity="1"><tspan>2017: Kleinh.</tspan></text><text x="263.5633130996495" style="color:#000000;cursor:default;font-size:11px;fill:#000000;" text-anchor="end" transform="translate(0,0) rotate(-45 263.5633130996495 338)" y="338" opacity="1"></text><text x="277.9750778055295" style="color:#000000;cursor:default;font-size:11px;fill:#000000;" text-anchor="end" transform="translate(0,0) rotate(-45 277.9750778055295 338)" y="338" opacity="1"><tspan>2018: Klybeck</tspan></text><text x="292.3868425114095" style="color:#000000;cursor:default;font-size:11px;fill:#000000;" text-anchor="end" transform="translate(0,0) rotate(-45 292.3868425114095 338)" y="338" opacity="1"><tspan>2018: Kleinh.</tspan></text></g><g class="highcharts-axis-labels highcharts-yaxis-labels " data-z-index="7"><text x="37" style="color:#000000;cursor:default;font-size:11px;fill:#000000;" text-anchor="end" transform="translate(0,0)" y="326" opacity="1">0</text><text x="37" style="color:#000000;cursor:default;font-size:11px;fill:#000000;" text-anchor="end" transform="translate(0,0)" y="293" opacity="1">500</text><text x="37" style="color:#000000;cursor:default;font-size:11px;fill:#000000;" text-anchor="end" transform="translate(0,0)" y="260" opacity="1"><tspan>1 000</tspan></text><text x="37" style="color:#000000;cursor:default;font-size:11px;fill:#000000;" text-anchor="end" transform="translate(0,0)" y="226" opacity="1"><tspan>1 500</tspan></text><text x="37" style="color:#000000;cursor:default;font-size:11px;fill:#000000;" text-anchor="end" transform="translate(0,0)" y="193" opacity="1"><tspan>2 000</tspan></text><text x="37" style="color:#000000;cursor:default;font-size:11px;fill:#000000;" text-anchor="end" transform="translate(0,0)" y="160" opacity="1"><tspan>2 500</tspan></text><text x="37" style="color:#000000;cursor:default;font-size:11px;fill:#000000;" text-anchor="end" transform="translate(0,0)" y="127" opacity="1"><tspan>3 000</tspan></text><text x="37" style="color:#000000;cursor:default;font-size:11px;fill:#000000;" text-anchor="end" transform="translate(0,0)" y="93" opacity="1"><tspan>3 500</tspan></text><text x="37" style="color:#000000;cursor:default;font-size:11px;fill:#000000;" text-anchor="end" transform="translate(0,0)" y="60" opacity="1"><tspan>4 000</tspan></text></g><text x="10" class="highcharts-credits" text-anchor="start" data-z-index="8" style="cursor:default;color:#000000;font-size:10px;fill:#000000;" y="403"><tspan>Quelle: Statistisches Amt Basel-Stadt, Geb채ude- und Wohnungsstatistik.</tspan><tspan x="10" dy="13">Zuletzt ge채ndert: 2020-2-19</tspan></text></svg>