<?xml version="1.0" standalone="no"?><!DOCTYPE svg PUBLIC "-//W3C//DTD SVG 1.1//EN" "http://www.w3.org/Graphics/SVG/1.1/DTD/svg11.dtd"><svg xmlns:xlink="http://www.w3.org/1999/xlink" version="1.1" class="highcharts-root" style="font-family:Arial;font-size:12px;" xmlns="http://www.w3.org/2000/svg" viewBox="0 0 485 415"><desc>Created with Highstock 6.1.1</desc><defs><clipPath id="highcharts-vgzvnfm-6"><rect x="0" y="0" width="245" height="266" fill="none"></rect></clipPath><clipPath id="highcharts-vgzvnfm-7"><rect x="0" y="0" width="245" height="266" fill="none"></rect></clipPath></defs><rect fill="#fbfbfb" class="highcharts-background" x="0" y="0" width="485" height="428" rx="0" ry="0"></rect><rect fill="none" class="highcharts-plot-background" x="52" y="56" width="245" height="266"></rect><g class="highcharts-pane-group" data-z-index="0"></g><g class="highcharts-grid highcharts-xaxis-grid " data-z-index="1"><path fill="none" data-z-index="1" class="highcharts-grid-line" d="M 63.5 56 L 63.5 322" opacity="1"></path><path fill="none" data-z-index="1" class="highcharts-grid-line" d="M 74.5 56 L 74.5 322" opacity="1"></path><path fill="none" data-z-index="1" class="highcharts-grid-line" d="M 86.5 56 L 86.5 322" opacity="1"></path><path fill="none" data-z-index="1" class="highcharts-grid-line" d="M 98.5 56 L 98.5 322" opacity="1"></path><path fill="none" data-z-index="1" class="highcharts-grid-line" d="M 109.5 56 L 109.5 322" opacity="1"></path><path fill="none" data-z-index="1" class="highcharts-grid-line" d="M 121.5 56 L 121.5 322" opacity="1"></path><path fill="none" data-z-index="1" class="highcharts-grid-line" d="M 133.5 56 L 133.5 322" opacity="1"></path><path fill="none" data-z-index="1" class="highcharts-grid-line" d="M 144.5 56 L 144.5 322" opacity="1"></path><path fill="none" data-z-index="1" class="highcharts-grid-line" d="M 156.5 56 L 156.5 322" opacity="1"></path><path fill="none" data-z-index="1" class="highcharts-grid-line" d="M 168.5 56 L 168.5 322" opacity="1"></path><path fill="none" data-z-index="1" class="highcharts-grid-line" d="M 179.5 56 L 179.5 322" opacity="1"></path><path fill="none" data-z-index="1" class="highcharts-grid-line" d="M 191.5 56 L 191.5 322" opacity="1"></path><path fill="none" data-z-index="1" class="highcharts-grid-line" d="M 203.5 56 L 203.5 322" opacity="1"></path><path fill="none" data-z-index="1" class="highcharts-grid-line" d="M 214.5 56 L 214.5 322" opacity="1"></path><path fill="none" data-z-index="1" class="highcharts-grid-line" d="M 226.5 56 L 226.5 322" opacity="1"></path><path fill="none" data-z-index="1" class="highcharts-grid-line" d="M 238.5 56 L 238.5 322" opacity="1"></path><path fill="none" data-z-index="1" class="highcharts-grid-line" d="M 249.5 56 L 249.5 322" opacity="1"></path><path fill="none" data-z-index="1" class="highcharts-grid-line" d="M 261.5 56 L 261.5 322" opacity="1"></path><path fill="none" data-z-index="1" class="highcharts-grid-line" d="M 273.5 56 L 273.5 322" opacity="1"></path><path fill="none" data-z-index="1" class="highcharts-grid-line" d="M 284.5 56 L 284.5 322" opacity="1"></path><path fill="none" data-z-index="1" class="highcharts-grid-line" d="M 296.5 56 L 296.5 322" opacity="1"></path><path fill="none" data-z-index="1" class="highcharts-grid-line" d="M 51.5 56 L 51.5 322" opacity="1"></path></g><g class="highcharts-grid highcharts-yaxis-grid " data-z-index="1"><path fill="none" stroke="#B9CFD7" stroke-width="0.5" data-z-index="1" class="highcharts-grid-line" d="M 52 322.25 L 297 322.25" opacity="1"></path><path fill="none" stroke="#B9CFD7" stroke-width="0.5" data-z-index="1" class="highcharts-grid-line" d="M 52 289.25 L 297 289.25" opacity="1"></path><path fill="none" stroke="#B9CFD7" stroke-width="0.5" data-z-index="1" class="highcharts-grid-line" d="M 52 256.25 L 297 256.25" opacity="1"></path><path fill="none" stroke="#B9CFD7" stroke-width="0.5" data-z-index="1" class="highcharts-grid-line" d="M 52 222.25 L 297 222.25" opacity="1"></path><path fill="none" stroke="#B9CFD7" stroke-width="0.5" data-z-index="1" class="highcharts-grid-line" d="M 52 189.25 L 297 189.25" opacity="1"></path><path fill="none" stroke="#B9CFD7" stroke-width="0.5" data-z-index="1" class="highcharts-grid-line" d="M 52 156.25 L 297 156.25" opacity="1"></path><path fill="none" stroke="#B9CFD7" stroke-width="0.5" data-z-index="1" class="highcharts-grid-line" d="M 52 123.25 L 297 123.25" opacity="1"></path><path fill="none" stroke="#B9CFD7" stroke-width="0.5" data-z-index="1" class="highcharts-grid-line" d="M 52 89.25 L 297 89.25" opacity="1"></path><path fill="none" stroke="#B9CFD7" stroke-width="0.5" data-z-index="1" class="highcharts-grid-line" d="M 52 55.75 L 297 55.75" opacity="1"></path></g><rect fill="none" class="highcharts-plot-border" data-z-index="1" x="52" y="56" width="245" height="266"></rect><g class="highcharts-axis highcharts-xaxis " data-z-index="2"><path fill="none" class="highcharts-axis-line" stroke="#B9CFD7" stroke-width="0.5" data-z-index="7" d="M 52 322.25 L 297 322.25"></path></g><g class="highcharts-axis highcharts-yaxis " data-z-index="2"><path fill="none" class="highcharts-axis-line" data-z-index="7" d="M 52 56 L 52 322"></path></g><g class="highcharts-series-group" data-z-index="3"><g data-z-index="0.1" class="highcharts-series highcharts-series-0 highcharts-column-series " transform="translate(52,56) scale(1 1)" clip-path="url(#highcharts-vgzvnfm-7)"><rect x="0.5" y="74.5" width="11" height="192" fill="#ffbb58" stroke="#ffffff" stroke-width="1e-7" class="highcharts-point"></rect><rect x="11.5" y="204.5" width="11" height="62" fill="#ffbb58" stroke="#ffffff" stroke-width="1e-7" class="highcharts-point"></rect><rect x="35.5" y="74.5" width="11" height="192" fill="#ffbb58" stroke="#ffffff" stroke-width="1e-7" class="highcharts-point"></rect><rect x="46.5" y="204.5" width="11" height="62" fill="#ffbb58" stroke="#ffffff" stroke-width="1e-7" class="highcharts-point"></rect><rect x="70.5" y="76.5" width="11" height="190" fill="#ffbb58" stroke="#ffffff" stroke-width="1e-7" class="highcharts-point"></rect><rect x="81.5" y="204.5" width="11" height="62" fill="#ffbb58" stroke="#ffffff" stroke-width="1e-7" class="highcharts-point"></rect><rect x="105.5" y="78.5" width="11" height="188" fill="#ffbb58" stroke="#ffffff" stroke-width="1e-7" class="highcharts-point"></rect><rect x="116.5" y="204.5" width="11" height="62" fill="#ffbb58" stroke="#ffffff" stroke-width="1e-7" class="highcharts-point"></rect><rect x="140.5" y="75.5" width="11" height="191" fill="#ffbb58" stroke="#ffffff" stroke-width="1e-7" class="highcharts-point"></rect><rect x="151.5" y="204.5" width="11" height="62" fill="#ffbb58" stroke="#ffffff" stroke-width="1e-7" class="highcharts-point"></rect><rect x="175.5" y="76.5" width="11" height="190" fill="#ffbb58" stroke="#ffffff" stroke-width="1e-7" class="highcharts-point"></rect><rect x="186.5" y="207.5" width="11" height="59" fill="#ffbb58" stroke="#ffffff" stroke-width="1e-7" class="highcharts-point"></rect><rect x="210.5" y="72.5" width="11" height="194" fill="#ffbb58" stroke="#ffffff" stroke-width="1e-7" class="highcharts-point"></rect><rect x="221.5" y="206.5" width="11" height="60" fill="#ffbb58" stroke="#ffffff" stroke-width="1e-7" class="highcharts-point"></rect></g><g data-z-index="0.1" class="highcharts-markers highcharts-series-0 highcharts-column-series " transform="translate(52,56) scale(1 1)" clip-path="none"></g><g data-z-index="0.1" class="highcharts-series highcharts-series-1 highcharts-column-series " transform="translate(52,56) scale(1 1)" clip-path="url(#highcharts-vgzvnfm-7)"><rect x="0.5" y="41.5" width="11" height="33" fill="#008AC3" stroke="#ffffff" stroke-width="1e-7" class="highcharts-point"></rect><rect x="11.5" y="183.5" width="11" height="21" fill="#008AC3" stroke="#ffffff" stroke-width="1e-7" class="highcharts-point"></rect><rect x="35.5" y="41.5" width="11" height="33" fill="#008AC3" stroke="#ffffff" stroke-width="1e-7" class="highcharts-point"></rect><rect x="46.5" y="184.5" width="11" height="20" fill="#008AC3" stroke="#ffffff" stroke-width="1e-7" class="highcharts-point"></rect><rect x="70.5" y="44.5" width="11" height="32" fill="#008AC3" stroke="#ffffff" stroke-width="1e-7" class="highcharts-point"></rect><rect x="81.5" y="184.5" width="11" height="20" fill="#008AC3" stroke="#ffffff" stroke-width="1e-7" class="highcharts-point"></rect><rect x="105.5" y="46.5" width="11" height="32" fill="#008AC3" stroke="#ffffff" stroke-width="1e-7" class="highcharts-point"></rect><rect x="116.5" y="184.5" width="11" height="20" fill="#008AC3" stroke="#ffffff" stroke-width="1e-7" class="highcharts-point"></rect><rect x="140.5" y="44.5" width="11" height="31" fill="#008AC3" stroke="#ffffff" stroke-width="1e-7" class="highcharts-point"></rect><rect x="151.5" y="184.5" width="11" height="20" fill="#008AC3" stroke="#ffffff" stroke-width="1e-7" class="highcharts-point"></rect><rect x="175.5" y="45.5" width="11" height="31" fill="#008AC3" stroke="#ffffff" stroke-width="1e-7" class="highcharts-point"></rect><rect x="186.5" y="186.5" width="11" height="21" fill="#008AC3" stroke="#ffffff" stroke-width="1e-7" class="highcharts-point"></rect><rect x="210.5" y="41.5" width="11" height="31" fill="#008AC3" stroke="#ffffff" stroke-width="1e-7" class="highcharts-point"></rect><rect x="221.5" y="187.5" width="11" height="19" fill="#008AC3" stroke="#ffffff" stroke-width="1e-7" class="highcharts-point"></rect></g><g data-z-index="0.1" class="highcharts-markers highcharts-series-1 highcharts-column-series " transform="translate(52,56) scale(1 1)" clip-path="none"></g><g data-z-index="0.1" class="highcharts-series highcharts-series-2 highcharts-column-series " transform="translate(52,56) scale(1 1)" clip-path="url(#highcharts-vgzvnfm-7)"><rect x="0.5" y="36.5" width="11" height="5" fill="#73B97C" stroke="#ffffff" stroke-width="1e-7" class="highcharts-point"></rect><rect x="11.5" y="181.5" width="11" height="2" fill="#73B97C" stroke="#ffffff" stroke-width="1e-7" class="highcharts-point"></rect><rect x="35.5" y="36.5" width="11" height="5" fill="#73B97C" stroke="#ffffff" stroke-width="1e-7" class="highcharts-point"></rect><rect x="46.5" y="181.5" width="11" height="3" fill="#73B97C" stroke="#ffffff" stroke-width="1e-7" class="highcharts-point"></rect><rect x="70.5" y="39.5" width="11" height="5" fill="#73B97C" stroke="#ffffff" stroke-width="1e-7" class="highcharts-point"></rect><rect x="81.5" y="181.5" width="11" height="3" fill="#73B97C" stroke="#ffffff" stroke-width="1e-7" class="highcharts-point"></rect><rect x="105.5" y="40.5" width="11" height="6" fill="#73B97C" stroke="#ffffff" stroke-width="1e-7" class="highcharts-point"></rect><rect x="116.5" y="181.5" width="11" height="3" fill="#73B97C" stroke="#ffffff" stroke-width="1e-7" class="highcharts-point"></rect><rect x="140.5" y="39.5" width="11" height="5" fill="#73B97C" stroke="#ffffff" stroke-width="1e-7" class="highcharts-point"></rect><rect x="151.5" y="182.5" width="11" height="2" fill="#73B97C" stroke="#ffffff" stroke-width="1e-7" class="highcharts-point"></rect><rect x="175.5" y="40.5" width="11" height="5" fill="#73B97C" stroke="#ffffff" stroke-width="1e-7" class="highcharts-point"></rect><rect x="186.5" y="184.5" width="11" height="2" fill="#73B97C" stroke="#ffffff" stroke-width="1e-7" class="highcharts-point"></rect><rect x="210.5" y="36.5" width="11" height="5" fill="#73B97C" stroke="#ffffff" stroke-width="1e-7" class="highcharts-point"></rect><rect x="221.5" y="184.5" width="11" height="3" fill="#73B97C" stroke="#ffffff" stroke-width="1e-7" class="highcharts-point"></rect></g><g data-z-index="0.1" class="highcharts-markers highcharts-series-2 highcharts-column-series " transform="translate(52,56) scale(1 1)" clip-path="none"></g><g data-z-index="0.1" class="highcharts-series highcharts-series-3 highcharts-column-series " transform="translate(52,56) scale(1 1)" clip-path="url(#highcharts-vgzvnfm-7)"><rect x="0.5" y="35.5" width="11" height="1" fill="#662673" stroke="#ffffff" stroke-width="1e-7" class="highcharts-point"></rect><rect x="11.5" y="180.5" width="11" height="1" fill="#662673" stroke="#ffffff" stroke-width="1e-7" class="highcharts-point"></rect><rect x="35.5" y="35.5" width="11" height="1" fill="#662673" stroke="#ffffff" stroke-width="1e-7" class="highcharts-point"></rect><rect x="46.5" y="181.5" width="11" height="0" fill="#662673" stroke="#ffffff" stroke-width="1e-7" class="highcharts-point"></rect><rect x="70.5" y="38.5" width="11" height="1" fill="#662673" stroke="#ffffff" stroke-width="1e-7" class="highcharts-point"></rect><rect x="81.5" y="181.5" width="11" height="0" fill="#662673" stroke="#ffffff" stroke-width="1e-7" class="highcharts-point"></rect><rect x="105.5" y="40.5" width="11" height="0" fill="#662673" stroke="#ffffff" stroke-width="1e-7" class="highcharts-point"></rect><rect x="116.5" y="181.5" width="11" height="0" fill="#662673" stroke="#ffffff" stroke-width="1e-7" class="highcharts-point"></rect><rect x="140.5" y="39.5" width="11" height="0" fill="#662673" stroke="#ffffff" stroke-width="1e-7" class="highcharts-point"></rect><rect x="151.5" y="181.5" width="11" height="1" fill="#662673" stroke="#ffffff" stroke-width="1e-7" class="highcharts-point"></rect><rect x="175.5" y="38.5" width="11" height="2" fill="#662673" stroke="#ffffff" stroke-width="1e-7" class="highcharts-point"></rect><rect x="186.5" y="182.5" width="11" height="2" fill="#662673" stroke="#ffffff" stroke-width="1e-7" class="highcharts-point"></rect><rect x="210.5" y="34.5" width="11" height="2" fill="#662673" stroke="#ffffff" stroke-width="1e-7" class="highcharts-point"></rect><rect x="221.5" y="182.5" width="11" height="2" fill="#662673" stroke="#ffffff" stroke-width="1e-7" class="highcharts-point"></rect></g><g data-z-index="0.1" class="highcharts-markers highcharts-series-3 highcharts-column-series " transform="translate(52,56) scale(1 1)" clip-path="none"></g></g><text x="10" text-anchor="start" class="highcharts-title" data-z-index="4" style="color:#000000;font-size:14px;font-weight:bold;fill:#000000;" y="21"><tspan>Wohnungen nach Belegungsart</tspan></text><text x="10" text-anchor="start" class="highcharts-subtitle" data-z-index="4" style="color:#000000;font-size:12px;font-weight:normal;fill:#000000;" y="40"><tspan>Wohnviertel Klybeck und Kleinh체ningen</tspan></text><g class="highcharts-legend" data-z-index="7" transform="translate(309,139)"><rect fill="none" class="highcharts-legend-box" rx="0" ry="0" x="0" y="0" width="166" height="121" visibility="visible"></rect><g data-z-index="1"><g><g class="highcharts-legend-item highcharts-column-series highcharts-color-undefined highcharts-series-3" data-z-index="1" transform="translate(8,3)"><text x="21" style="color:#333333;font-size:12px;font-weight:normal;cursor:pointer;fill:#333333;" text-anchor="start" data-z-index="2" y="15"><tspan>Sonstige Wohnungen</tspan></text><rect x="2" y="4" width="12" height="12" fill="#662673" class="highcharts-point" data-z-index="3"></rect></g><g class="highcharts-legend-item highcharts-column-series highcharts-color-undefined highcharts-series-2" data-z-index="1" transform="translate(8,23)"><text x="21" y="15" style="color:#333333;font-size:12px;font-weight:normal;cursor:pointer;fill:#333333;" text-anchor="start" data-z-index="2"><tspan>Selbstbewohnte</tspan><tspan x="21" dy="15">Eigent체merwohnungen</tspan></text><rect x="2" y="4" width="12" height="12" fill="#73B97C" class="highcharts-point" data-z-index="3"></rect></g><g class="highcharts-legend-item highcharts-column-series highcharts-color-undefined highcharts-series-1" data-z-index="1" transform="translate(8,58)"><text x="21" y="15" style="color:#333333;font-size:12px;font-weight:normal;cursor:pointer;fill:#333333;" text-anchor="start" data-z-index="2"><tspan>Genossenschafts-</tspan><tspan x="21" dy="15">wohnungen</tspan></text><rect x="2" y="4" width="12" height="12" fill="#008AC3" class="highcharts-point" data-z-index="3"></rect></g><g class="highcharts-legend-item highcharts-column-series highcharts-color-undefined highcharts-series-0" data-z-index="1" transform="translate(8,93)"><text x="21" y="15" style="color:#333333;font-size:12px;font-weight:normal;cursor:pointer;fill:#333333;" text-anchor="start" data-z-index="2"><tspan>Mietwohnungen</tspan></text><rect x="2" y="4" width="12" height="12" fill="#ffbb58" class="highcharts-point" data-z-index="3"></rect></g></g></g></g><g class="highcharts-axis-labels highcharts-xaxis-labels " data-z-index="7"><text x="60.426058197684334" style="color:#000000;cursor:default;font-size:11px;fill:#000000;" text-anchor="end" transform="translate(0,0) rotate(-45 60.426058197684334 338)" y="338" opacity="1"><tspan>2013: Klybeck</tspan></text><text x="72.09272486435034" style="color:#000000;cursor:default;font-size:11px;fill:#000000;" text-anchor="end" transform="translate(0,0) rotate(-45 72.09272486435034 338)" y="338" opacity="1"><tspan>2013: Kleinh.</tspan></text><text x="83.75939153101734" style="color:#000000;cursor:default;font-size:11px;fill:#000000;" text-anchor="end" transform="translate(0,0) rotate(-45 83.75939153101734 338)" y="338" opacity="1"></text><text x="95.42605819768434" style="color:#000000;cursor:default;font-size:11px;fill:#000000;" text-anchor="end" transform="translate(0,0) rotate(-45 95.42605819768434 338)" y="338" opacity="1"><tspan>2014: Klybeck</tspan></text><text x="107.09272486434735" style="color:#000000;cursor:default;font-size:11px;fill:#000000;" text-anchor="end" transform="translate(0,0) rotate(-45 107.09272486434735 338)" y="338" opacity="1"><tspan>2014: Kleinh.</tspan></text><text x="118.75939153101734" style="color:#000000;cursor:default;font-size:11px;fill:#000000;" text-anchor="end" transform="translate(0,0) rotate(-45 118.75939153101734 338)" y="338" opacity="1"></text><text x="130.42605819768735" style="color:#000000;cursor:default;font-size:11px;fill:#000000;" text-anchor="end" transform="translate(0,0) rotate(-45 130.42605819768735 338)" y="338" opacity="1"><tspan>2015: Klybeck</tspan></text><text x="142.09272486434733" style="color:#000000;cursor:default;font-size:11px;fill:#000000;" text-anchor="end" transform="translate(0,0) rotate(-45 142.09272486434733 338)" y="338" opacity="1"><tspan>2015: Kleinh.</tspan></text><text x="153.75939153101734" style="color:#000000;cursor:default;font-size:11px;fill:#000000;" text-anchor="end" transform="translate(0,0) rotate(-45 153.75939153101734 338)" y="338" opacity="1"></text><text x="165.42605819768735" style="color:#000000;cursor:default;font-size:11px;fill:#000000;" text-anchor="end" transform="translate(0,0) rotate(-45 165.42605819768735 338)" y="338" opacity="1"><tspan>2016: Klybeck</tspan></text><text x="177.09272486434733" style="color:#000000;cursor:default;font-size:11px;fill:#000000;" text-anchor="end" transform="translate(0,0) rotate(-45 177.09272486434733 338)" y="338" opacity="1"><tspan>2016: Kleinh.</tspan></text><text x="188.75939153101734" style="color:#000000;cursor:default;font-size:11px;fill:#000000;" text-anchor="end" transform="translate(0,0) rotate(-45 188.75939153101734 338)" y="338" opacity="1"></text><text x="200.42605819768735" style="color:#000000;cursor:default;font-size:11px;fill:#000000;" text-anchor="end" transform="translate(0,0) rotate(-45 200.42605819768735 338)" y="338" opacity="1"><tspan>2017: Klybeck</tspan></text><text x="212.09272486434733" style="color:#000000;cursor:default;font-size:11px;fill:#000000;" text-anchor="end" transform="translate(0,0) rotate(-45 212.09272486434733 338)" y="338" opacity="1"><tspan>2017: Kleinh.</tspan></text><text x="223.75939153101734" style="color:#000000;cursor:default;font-size:11px;fill:#000000;" text-anchor="end" transform="translate(0,0) rotate(-45 223.75939153101734 338)" y="338" opacity="1"></text><text x="235.42605819768735" style="color:#000000;cursor:default;font-size:11px;fill:#000000;" text-anchor="end" transform="translate(0,0) rotate(-45 235.42605819768735 338)" y="338" opacity="1"><tspan>2018: Klybeck</tspan></text><text x="247.09272486434733" style="color:#000000;cursor:default;font-size:11px;fill:#000000;" text-anchor="end" transform="translate(0,0) rotate(-45 247.09272486434733 338)" y="338" opacity="1"><tspan>2018: Kleinh.</tspan></text><text x="258.75939153101734" style="color:#000000;cursor:default;font-size:11px;fill:#000000;" text-anchor="end" transform="translate(0,0) rotate(-45 258.75939153101734 338)" y="338" opacity="1"></text><text x="270.4260581976873" style="color:#000000;cursor:default;font-size:11px;fill:#000000;" text-anchor="end" transform="translate(0,0) rotate(-45 270.4260581976873 338)" y="338" opacity="1"><tspan>2019: Klybeck</tspan></text><text x="282.09272486434736" style="color:#000000;cursor:default;font-size:11px;fill:#000000;" text-anchor="end" transform="translate(0,0) rotate(-45 282.09272486434736 338)" y="338" opacity="1"><tspan>2019: Kleinh.</tspan></text><text x="293.75939153101734" style="color:#000000;cursor:default;font-size:11px;fill:#000000;" text-anchor="end" transform="translate(0,0) rotate(-45 293.75939153101734 338)" y="338" opacity="1"></text></g><g class="highcharts-axis-labels highcharts-yaxis-labels " data-z-index="7"><text x="37" style="color:#000000;cursor:default;font-size:11px;fill:#000000;" text-anchor="end" transform="translate(0,0)" y="326" opacity="1">0</text><text x="37" style="color:#000000;cursor:default;font-size:11px;fill:#000000;" text-anchor="end" transform="translate(0,0)" y="293" opacity="1">500</text><text x="37" style="color:#000000;cursor:default;font-size:11px;fill:#000000;" text-anchor="end" transform="translate(0,0)" y="260" opacity="1"><tspan>1 000</tspan></text><text x="37" style="color:#000000;cursor:default;font-size:11px;fill:#000000;" text-anchor="end" transform="translate(0,0)" y="226" opacity="1"><tspan>1 500</tspan></text><text x="37" style="color:#000000;cursor:default;font-size:11px;fill:#000000;" text-anchor="end" transform="translate(0,0)" y="193" opacity="1"><tspan>2 000</tspan></text><text x="37" style="color:#000000;cursor:default;font-size:11px;fill:#000000;" text-anchor="end" transform="translate(0,0)" y="160" opacity="1"><tspan>2 500</tspan></text><text x="37" style="color:#000000;cursor:default;font-size:11px;fill:#000000;" text-anchor="end" transform="translate(0,0)" y="127" opacity="1"><tspan>3 000</tspan></text><text x="37" style="color:#000000;cursor:default;font-size:11px;fill:#000000;" text-anchor="end" transform="translate(0,0)" y="93" opacity="1"><tspan>3 500</tspan></text><text x="37" style="color:#000000;cursor:default;font-size:11px;fill:#000000;" text-anchor="end" transform="translate(0,0)" y="60" opacity="1"><tspan>4 000</tspan></text></g><text x="10" class="highcharts-credits" text-anchor="start" data-z-index="8" style="cursor:default;color:#000000;font-size:10px;fill:#000000;" y="403"><tspan>Quelle: Statistisches Amt Basel-Stadt, Geb채ude- und Wohnungsstatistik.</tspan><tspan x="10" dy="13">Zuletzt ge채ndert: 2020-7-9</tspan></text></svg>