<?xml version="1.0" standalone="no"?><!DOCTYPE svg PUBLIC "-//W3C//DTD SVG 1.1//EN" "http://www.w3.org/Graphics/SVG/1.1/DTD/svg11.dtd"><svg xmlns:xlink="http://www.w3.org/1999/xlink" version="1.1" class="highcharts-root" style="font-family:Arial;font-size:12px;" xmlns="http://www.w3.org/2000/svg" viewBox="0 0 485 415"><desc>Created with Highcharts 8.2.2</desc><defs><clipPath id="highcharts-74mfvad-37-"><rect x="0" y="0" width="257" height="305" fill="none"></rect></clipPath><clipPath id="highcharts-74mfvad-48-"><rect x="0" y="0" width="257" height="305" fill="none"></rect></clipPath><clipPath id="highcharts-74mfvad-69-"><rect x="130" y="94" width="305" height="257" fill="none"></rect></clipPath></defs><rect fill="#fbfbfb" class="highcharts-background" x="0" y="0" width="485" height="428" rx="0" ry="0"></rect><rect fill="none" class="highcharts-plot-background" x="130" y="94" width="305" height="257"></rect><g class="highcharts-pane-group" data-z-index="0"></g><g class="highcharts-grid highcharts-xaxis-grid" data-z-index="1"><path fill="none" data-z-index="1" class="highcharts-grid-line" d="M 130 120.5 L 435 120.5" opacity="1"></path><path fill="none" data-z-index="1" class="highcharts-grid-line" d="M 130 145.5 L 435 145.5" opacity="1"></path><path fill="none" data-z-index="1" class="highcharts-grid-line" d="M 130 171.5 L 435 171.5" opacity="1"></path><path fill="none" data-z-index="1" class="highcharts-grid-line" d="M 130 197.5 L 435 197.5" opacity="1"></path><path fill="none" data-z-index="1" class="highcharts-grid-line" d="M 130 223.5 L 435 223.5" opacity="1"></path><path fill="none" data-z-index="1" class="highcharts-grid-line" d="M 130 248.5 L 435 248.5" opacity="1"></path><path fill="none" data-z-index="1" class="highcharts-grid-line" d="M 130 274.5 L 435 274.5" opacity="1"></path><path fill="none" data-z-index="1" class="highcharts-grid-line" d="M 130 300.5 L 435 300.5" opacity="1"></path><path fill="none" data-z-index="1" class="highcharts-grid-line" d="M 130 325.5 L 435 325.5" opacity="1"></path><path fill="none" data-z-index="1" class="highcharts-grid-line" d="M 130 351.5 L 435 351.5" opacity="1"></path><path fill="none" data-z-index="1" class="highcharts-grid-line" d="M 130 94.5 L 435 94.5" opacity="1"></path></g><g class="highcharts-grid highcharts-yaxis-grid" data-z-index="1"><path fill="none" stroke="#B9CFD7" stroke-width="0.5" data-z-index="1" class="highcharts-grid-line" d="M 129.75 94 L 129.75 351" opacity="1"></path><path fill="none" stroke="#B9CFD7" stroke-width="0.5" data-z-index="1" class="highcharts-grid-line" d="M 190.75 94 L 190.75 351" opacity="1"></path><path fill="none" stroke="#B9CFD7" stroke-width="0.5" data-z-index="1" class="highcharts-grid-line" d="M 251.75 94 L 251.75 351" opacity="1"></path><path fill="none" stroke="#B9CFD7" stroke-width="0.5" data-z-index="1" class="highcharts-grid-line" d="M 312.75 94 L 312.75 351" opacity="1"></path><path fill="none" stroke="#B9CFD7" stroke-width="0.5" data-z-index="1" class="highcharts-grid-line" d="M 373.75 94 L 373.75 351" opacity="1"></path><path fill="none" stroke="#B9CFD7" stroke-width="0.5" data-z-index="1" class="highcharts-grid-line" d="M 435.25 94 L 435.25 351" opacity="1"></path></g><rect fill="none" class="highcharts-plot-border" data-z-index="1" x="130" y="94" width="305" height="257"></rect><g class="highcharts-axis highcharts-xaxis" data-z-index="2"><path fill="none" class="highcharts-axis-line" stroke="#B9CFD7" stroke-width="0.5" data-z-index="7" d="M 129.75 94 L 129.75 351"></path></g><g class="highcharts-axis highcharts-yaxis" data-z-index="2"><path fill="none" class="highcharts-axis-line" data-z-index="7" d="M 130 351 L 435 351"></path></g><g class="highcharts-series-group" data-z-index="3"><g class="highcharts-series highcharts-series-0 highcharts-column-series" data-z-index="0.1" opacity="1" transform="translate(435,351) rotate(90) scale(-1,1) scale(1 1)" clip-path="url(#highcharts-74mfvad-48-)"><rect x="247" y="180" width="5" height="126" fill="#A8C3CA" opacity="1" class="highcharts-point"></rect><rect x="221" y="42" width="5" height="264" fill="#A8C3CA" opacity="1" class="highcharts-point"></rect><rect x="195" y="173" width="5" height="133" fill="#A8C3CA" opacity="1" class="highcharts-point"></rect><rect x="170" y="234" width="5" height="72" fill="#A8C3CA" opacity="1" class="highcharts-point"></rect><rect x="144" y="298" width="5" height="8" fill="#A8C3CA" opacity="1" class="highcharts-point"></rect><rect x="118" y="241" width="5" height="65" fill="#A8C3CA" opacity="1" class="highcharts-point"></rect><rect x="93" y="251" width="5" height="55" fill="#A8C3CA" opacity="1" class="highcharts-point"></rect><rect x="67" y="299" width="5" height="7" fill="#A8C3CA" opacity="1" class="highcharts-point"></rect><rect x="41" y="243" width="5" height="63" fill="#A8C3CA" opacity="1" class="highcharts-point"></rect><rect x="15" y="266" width="6" height="40" fill="#A8C3CA" opacity="1" class="highcharts-point"></rect></g><g class="highcharts-markers highcharts-series-0 highcharts-column-series" data-z-index="0.1" opacity="1" transform="translate(435,351) rotate(90) scale(-1,1) scale(1 1)" clip-path="none"></g><g class="highcharts-series highcharts-series-1 highcharts-column-series" data-z-index="0.1" opacity="1" transform="translate(435,351) rotate(90) scale(-1,1) scale(1 1)" clip-path="url(#highcharts-74mfvad-48-)"><rect x="242" y="83" width="5" height="223" fill="#689199" opacity="1" class="highcharts-point"></rect><rect x="216" y="32" width="5" height="274" fill="#689199" opacity="1" class="highcharts-point"></rect><rect x="190" y="137" width="5" height="169" fill="#689199" opacity="1" class="highcharts-point"></rect><rect x="164" y="232" width="6" height="74" fill="#689199" opacity="1" class="highcharts-point"></rect><rect x="139" y="298" width="5" height="8" fill="#689199" opacity="1" class="highcharts-point"></rect><rect x="113" y="242" width="5" height="64" fill="#689199" opacity="1" class="highcharts-point"></rect><rect x="87" y="245" width="6" height="61" fill="#689199" opacity="1" class="highcharts-point"></rect><rect x="62" y="246" width="5" height="60" fill="#689199" opacity="1" class="highcharts-point"></rect><rect x="36" y="245" width="5" height="61" fill="#689199" opacity="1" class="highcharts-point"></rect><rect x="10" y="259" width="5" height="47" fill="#689199" opacity="1" class="highcharts-point"></rect></g><g class="highcharts-markers highcharts-series-1 highcharts-column-series" data-z-index="0.1" opacity="1" transform="translate(435,351) rotate(90) scale(-1,1) scale(1 1)" clip-path="none"></g><g class="highcharts-series highcharts-series-2 highcharts-column-series" data-z-index="0.1" opacity="1" transform="translate(435,351) rotate(90) scale(-1,1) scale(1 1)" clip-path="url(#highcharts-74mfvad-48-)"><rect x="236" y="35" width="6" height="271" fill="#246370" opacity="1" class="highcharts-point"></rect><rect x="211" y="46" width="5" height="260" fill="#246370" opacity="1" class="highcharts-point"></rect><rect x="185" y="128" width="5" height="178" fill="#246370" opacity="1" class="highcharts-point"></rect><rect x="159" y="224" width="5" height="82" fill="#246370" opacity="1" class="highcharts-point"></rect><rect x="134" y="238" width="5" height="68" fill="#246370" opacity="1" class="highcharts-point"></rect><rect x="108" y="242" width="5" height="64" fill="#246370" opacity="1" class="highcharts-point"></rect><rect x="82" y="249" width="5" height="57" fill="#246370" opacity="1" class="highcharts-point"></rect><rect x="57" y="249" width="5" height="57" fill="#246370" opacity="1" class="highcharts-point"></rect><rect x="31" y="249" width="5" height="57" fill="#246370" opacity="1" class="highcharts-point"></rect><rect x="5" y="253" width="5" height="53" fill="#246370" opacity="1" class="highcharts-point"></rect></g><g class="highcharts-markers highcharts-series-2 highcharts-column-series" data-z-index="0.1" opacity="1" transform="translate(435,351) rotate(90) scale(-1,1) scale(1 1)" clip-path="none"></g></g><text x="10" text-anchor="start" class="highcharts-title" data-z-index="4" style="color:#000000;font-size:14px;font-weight:bold;fill:#000000;" y="21"><tspan>Beschäftigung nach ausgewählten Branchen</tspan></text><text x="10" text-anchor="start" class="highcharts-subtitle" data-z-index="4" style="color:#000000;font-size:12px;font-weight:normal;fill:#000000;" y="40"><tspan>Wohnviertel Klybeck und Kleinhüningen</tspan></text><text x="10" text-anchor="start" class="highcharts-caption" data-z-index="4" style="color:#666666;fill:#666666;" y="385"></text><g class="highcharts-legend" data-z-index="7" transform="translate(122,56)"><rect fill="none" class="highcharts-legend-box" rx="0" ry="0" x="0" y="0" width="203" height="26" visibility="visible"></rect><g data-z-index="1"><g><g class="highcharts-legend-item highcharts-column-series highcharts-color-undefined highcharts-series-0" data-z-index="1" transform="translate(8,3)"><text x="21" style="color:#333333;cursor:pointer;font-size:12px;font-weight:normal;fill:#333333;" text-anchor="start" data-z-index="2" y="15"><tspan>2021</tspan></text><rect x="2" y="4" width="12" height="12" fill="#A8C3CA" class="highcharts-point" data-z-index="3"></rect></g><g class="highcharts-legend-item highcharts-column-series highcharts-color-undefined highcharts-series-1" data-z-index="1" transform="translate(77,3)"><text x="21" y="15" style="color:#333333;cursor:pointer;font-size:12px;font-weight:normal;fill:#333333;" text-anchor="start" data-z-index="2"><tspan>2022</tspan></text><rect x="2" y="4" width="12" height="12" fill="#689199" class="highcharts-point" data-z-index="3"></rect></g><g class="highcharts-legend-item highcharts-column-series highcharts-color-undefined highcharts-series-2" data-z-index="1" transform="translate(146,3)"><text x="21" y="15" style="color:#333333;cursor:pointer;font-size:12px;font-weight:normal;fill:#333333;" text-anchor="start" data-z-index="2"><tspan>2023</tspan></text><rect x="2" y="4" width="12" height="12" fill="#246370" class="highcharts-point" data-z-index="3"></rect></g></g></g></g><g class="highcharts-axis-labels highcharts-xaxis-labels" data-z-index="7"><text x="20" style="color:#000000;cursor:default;font-size:11px;fill:#000000;" text-anchor="start" transform="translate(0,0)" y="111" opacity="1">Gastronomie</text><text x="20" style="color:#000000;cursor:default;font-size:11px;fill:#000000;" text-anchor="start" transform="translate(0,0)" y="137" opacity="1"><tspan>Sonst. wirtsch. DL</tspan></text><text x="20" style="color:#000000;cursor:default;font-size:11px;fill:#000000;" text-anchor="start" transform="translate(0,0)" y="162" opacity="1"><tspan>Schifffahrt, Luftfahrt</tspan></text><text x="20" style="color:#000000;cursor:default;font-size:11px;fill:#000000;" text-anchor="start" transform="translate(0,0)" y="181" opacity="1"><tspan>Architektur- und</tspan><tspan x="20" dy="14">Ingenieurbüros</tspan></text><text x="20" style="color:#000000;cursor:default;font-size:11px;fill:#000000;" text-anchor="start" transform="translate(0,0)" y="207" opacity="1"><tspan>Pharmazeutische</tspan><tspan dy="14" x="20">Industrie</tspan></text><text x="20" style="color:#000000;cursor:default;font-size:11px;fill:#000000;" text-anchor="start" transform="translate(0,0)" y="239" opacity="1">Baunebengewerbe</text><text x="20" style="color:#000000;cursor:default;font-size:11px;fill:#000000;" text-anchor="start" transform="translate(0,0)" y="265" opacity="1">Lagerei</text><text x="20" style="color:#000000;cursor:default;font-size:11px;fill:#000000;" text-anchor="start" transform="translate(0,0)" y="284" opacity="1"><tspan>Post-, Kurier-,</tspan><tspan dy="14" x="20">Expressdienste</tspan></text><text x="20" style="color:#000000;cursor:default;font-size:11px;fill:#000000;" text-anchor="start" transform="translate(0,0)" y="309" opacity="1"><tspan>Personalvermittlung,</tspan><tspan x="20" dy="14">-überlassung</tspan></text><text x="20" style="color:#000000;cursor:default;font-size:11px;fill:#000000;" text-anchor="start" transform="translate(0,0)" y="342" opacity="1">Heime</text></g><g class="highcharts-axis-labels highcharts-yaxis-labels" data-z-index="7"><text x="130" style="color:#000000;cursor:default;font-size:11px;fill:#000000;" text-anchor="middle" transform="translate(0,0)" y="370" opacity="1">0</text><text x="191" style="color:#000000;cursor:default;font-size:11px;fill:#000000;" text-anchor="middle" transform="translate(0,0)" y="370" opacity="1">500</text><text x="252" style="color:#000000;cursor:default;font-size:11px;fill:#000000;" text-anchor="middle" transform="translate(0,0)" y="370" opacity="1"><tspan>1 000</tspan></text><text x="313" style="color:#000000;cursor:default;font-size:11px;fill:#000000;" text-anchor="middle" transform="translate(0,0)" y="370" opacity="1"><tspan>1 500</tspan></text><text x="374" style="color:#000000;cursor:default;font-size:11px;fill:#000000;" text-anchor="middle" transform="translate(0,0)" y="370" opacity="1"><tspan>2 000</tspan></text><text x="435" style="color:#000000;cursor:default;font-size:11px;fill:#000000;" text-anchor="middle" transform="translate(0,0)" y="370" opacity="1"><tspan>2 500</tspan></text></g><text x="10" class="highcharts-credits" text-anchor="start" data-z-index="8" style="cursor:default;color:#000000;font-size:10px;fill:#000000;" y="403"><tspan>Quelle: Bundesamt für Statistik (BFS), Statistik der Unternehmensstruktur (STATENT).</tspan><tspan x="10" dy="13">Zuletzt geändert: 19.12.2025</tspan></text><g class="highcharts-control-points" data-z-index="99" clip-path="url(#highcharts-74mfvad-69-)"></g></svg>