<?xml version="1.0" standalone="no"?><!DOCTYPE svg PUBLIC "-//W3C//DTD SVG 1.1//EN" "http://www.w3.org/Graphics/SVG/1.1/DTD/svg11.dtd"><svg xmlns:xlink="http://www.w3.org/1999/xlink" version="1.1" class="highcharts-root" style="font-family:Arial;font-size:12px;" xmlns="http://www.w3.org/2000/svg" viewBox="0 0 485 415"><desc>Created with Highcharts 8.2.0</desc><defs><clipPath id="highcharts-zova1pr-47-"><rect x="0" y="0" width="295" height="362" fill="none"></rect></clipPath><clipPath id="highcharts-zova1pr-68-"><rect x="0" y="0" width="295" height="362" fill="none"></rect></clipPath><clipPath id="highcharts-zova1pr-89-"><rect x="113" y="56" width="362" height="295" fill="none"></rect></clipPath></defs><rect fill="#fbfbfb" class="highcharts-background" x="0" y="0" width="485" height="428" rx="0" ry="0"></rect><rect fill="none" class="highcharts-plot-background" x="113" y="56" width="362" height="295"></rect><g class="highcharts-pane-group" data-z-index="0"></g><g class="highcharts-grid highcharts-xaxis-grid" data-z-index="1"><path fill="none" data-z-index="1" class="highcharts-grid-line" d="M 113 71.5 L 475 71.5" opacity="1"></path><path fill="none" data-z-index="1" class="highcharts-grid-line" d="M 113 86.5 L 475 86.5" opacity="1"></path><path fill="none" data-z-index="1" class="highcharts-grid-line" d="M 113 100.5 L 475 100.5" opacity="1"></path><path fill="none" data-z-index="1" class="highcharts-grid-line" d="M 113 115.5 L 475 115.5" opacity="1"></path><path fill="none" data-z-index="1" class="highcharts-grid-line" d="M 113 130.5 L 475 130.5" opacity="1"></path><path fill="none" data-z-index="1" class="highcharts-grid-line" d="M 113 145.5 L 475 145.5" opacity="1"></path><path fill="none" data-z-index="1" class="highcharts-grid-line" d="M 113 159.5 L 475 159.5" opacity="1"></path><path fill="none" data-z-index="1" class="highcharts-grid-line" d="M 113 174.5 L 475 174.5" opacity="1"></path><path fill="none" data-z-index="1" class="highcharts-grid-line" d="M 113 189.5 L 475 189.5" opacity="1"></path><path fill="none" data-z-index="1" class="highcharts-grid-line" d="M 113 204.5 L 475 204.5" opacity="1"></path><path fill="none" data-z-index="1" class="highcharts-grid-line" d="M 113 218.5 L 475 218.5" opacity="1"></path><path fill="none" data-z-index="1" class="highcharts-grid-line" d="M 113 233.5 L 475 233.5" opacity="1"></path><path fill="none" data-z-index="1" class="highcharts-grid-line" d="M 113 248.5 L 475 248.5" opacity="1"></path><path fill="none" data-z-index="1" class="highcharts-grid-line" d="M 113 263.5 L 475 263.5" opacity="1"></path><path fill="none" data-z-index="1" class="highcharts-grid-line" d="M 113 277.5 L 475 277.5" opacity="1"></path><path fill="none" data-z-index="1" class="highcharts-grid-line" d="M 113 292.5 L 475 292.5" opacity="1"></path><path fill="none" data-z-index="1" class="highcharts-grid-line" d="M 113 307.5 L 475 307.5" opacity="1"></path><path fill="none" data-z-index="1" class="highcharts-grid-line" d="M 113 322.5 L 475 322.5" opacity="1"></path><path fill="none" data-z-index="1" class="highcharts-grid-line" d="M 113 336.5 L 475 336.5" opacity="1"></path><path fill="none" data-z-index="1" class="highcharts-grid-line" d="M 113 351.5 L 475 351.5" opacity="1"></path><path fill="none" data-z-index="1" class="highcharts-grid-line" d="M 113 56.5 L 475 56.5" opacity="1"></path></g><g class="highcharts-grid highcharts-yaxis-grid" data-z-index="1"><path fill="none" stroke="#B9CFD7" stroke-width="0.5" data-z-index="1" class="highcharts-grid-line" d="M 112.75 56 L 112.75 351" opacity="1"></path><path fill="none" stroke="#B9CFD7" stroke-width="0.5" data-z-index="1" class="highcharts-grid-line" d="M 164.75 56 L 164.75 351" opacity="1"></path><path fill="none" stroke="#B9CFD7" stroke-width="0.5" data-z-index="1" class="highcharts-grid-line" d="M 215.75 56 L 215.75 351" opacity="1"></path><path fill="none" stroke="#B9CFD7" stroke-width="0.5" data-z-index="1" class="highcharts-grid-line" d="M 267.75 56 L 267.75 351" opacity="1"></path><path fill="none" stroke="#B9CFD7" stroke-width="0.5" data-z-index="1" class="highcharts-grid-line" d="M 319.75 56 L 319.75 351" opacity="1"></path><path fill="none" stroke="#B9CFD7" stroke-width="0.5" data-z-index="1" class="highcharts-grid-line" d="M 371.75 56 L 371.75 351" opacity="1"></path><path fill="none" stroke="#B9CFD7" stroke-width="0.5" data-z-index="1" class="highcharts-grid-line" d="M 422.75 56 L 422.75 351" opacity="1"></path><path fill="none" stroke="#B9CFD7" stroke-width="0.5" data-z-index="1" class="highcharts-grid-line" d="M 475.25 56 L 475.25 351" opacity="1"></path></g><rect fill="none" class="highcharts-plot-border" data-z-index="1" x="113" y="56" width="362" height="295"></rect><g class="highcharts-axis highcharts-xaxis" data-z-index="2"><path fill="none" class="highcharts-axis-line" stroke="#B9CFD7" stroke-width="0.5" data-z-index="7" d="M 112.75 56 L 112.75 351"></path></g><g class="highcharts-axis highcharts-yaxis" data-z-index="2"><path fill="none" class="highcharts-axis-line" data-z-index="7" d="M 113 351 L 475 351"></path></g><g class="highcharts-series-group" data-z-index="3"><g class="highcharts-series highcharts-series-0 highcharts-column-series" data-z-index="0.1" opacity="1" transform="translate(475,351) rotate(90) scale(-1,1) scale(1 1)" clip-path="url(#highcharts-zova1pr-68-)"><rect x="283.5" y="14.5" width="8" height="348" fill="#73b97c" stroke="#ffffff" stroke-width="1" opacity="1" class="highcharts-point highcharts-color-0"></rect><rect x="268.5" y="61.5" width="8" height="301" fill="#73b97c" stroke="#ffffff" stroke-width="1" opacity="1" class="highcharts-point highcharts-color-1"></rect><rect x="254.5" y="67.5" width="8" height="295" fill="#73b97c" stroke="#ffffff" stroke-width="1" opacity="1" class="highcharts-point highcharts-color-2"></rect><rect x="239.5" y="73.5" width="8" height="289" fill="#73b97c" stroke="#ffffff" stroke-width="1" opacity="1" class="highcharts-point highcharts-color-3"></rect><rect x="224.5" y="90.5" width="8" height="272" fill="#73b97c" stroke="#ffffff" stroke-width="1" opacity="1" class="highcharts-point highcharts-color-4"></rect><rect x="209.5" y="95.5" width="8" height="267" fill="#73b97c" stroke="#ffffff" stroke-width="1" opacity="1" class="highcharts-point highcharts-color-5"></rect><rect x="195.5" y="102.5" width="8" height="260" fill="#73b97c" stroke="#ffffff" stroke-width="1" opacity="1" class="highcharts-point highcharts-color-6"></rect><rect x="180.5" y="109.5" width="8" height="253" fill="#73b97c" stroke="#ffffff" stroke-width="1" opacity="1" class="highcharts-point highcharts-color-7"></rect><rect x="165.5" y="128.5" width="8" height="234" fill="#73b97c" stroke="#ffffff" stroke-width="1" opacity="1" class="highcharts-point highcharts-color-8"></rect><rect x="150.5" y="130.5" width="8" height="232" fill="#73b97c" stroke="#ffffff" stroke-width="1" opacity="1" class="highcharts-point highcharts-color-9"></rect><rect x="136.5" y="142.5" width="8" height="220" fill="#73b97c" stroke="#ffffff" stroke-width="1" opacity="1" class="highcharts-point highcharts-color-10"></rect><rect x="121.5" y="145.5" width="8" height="217" fill="#73b97c" stroke="#ffffff" stroke-width="1" opacity="1" class="highcharts-point highcharts-color-11"></rect><rect x="106.5" y="150.5" width="8" height="212" fill="#73b97c" stroke="#ffffff" stroke-width="1" opacity="1" class="highcharts-point highcharts-color-12"></rect><rect x="91.5" y="164.5" width="8" height="198" fill="#73b97c" stroke="#ffffff" stroke-width="1" opacity="1" class="highcharts-point highcharts-color-13"></rect><rect x="77.5" y="171.5" width="8" height="191" fill="#73b97c" stroke="#ffffff" stroke-width="1" opacity="1" class="highcharts-point highcharts-color-14"></rect><rect x="62.5" y="172.5" width="8" height="190" fill="#73b97c" stroke="#ffffff" stroke-width="1" opacity="1" class="highcharts-point highcharts-color-15"></rect><rect x="47.5" y="190.5" width="8" height="172" fill="#73b97c" stroke="#ffffff" stroke-width="1" opacity="1" class="highcharts-point highcharts-color-16"></rect><rect x="32.5" y="198.5" width="8" height="164" fill="#73b97c" stroke="#ffffff" stroke-width="1" opacity="1" class="highcharts-point highcharts-color-17"></rect><rect x="18.5" y="241.5" width="8" height="121" fill="#007a2f" stroke="#ffffff" stroke-width="1" opacity="1" class="highcharts-point highcharts-color-18"></rect><rect x="3.5" y="265.5" width="8" height="97" fill="#007a2f" stroke="#ffffff" stroke-width="1" opacity="1" class="highcharts-point highcharts-color-19"></rect></g><g class="highcharts-markers highcharts-series-0 highcharts-column-series" data-z-index="0.1" opacity="1" transform="translate(475,351) rotate(90) scale(-1,1) scale(1 1)" clip-path="none"></g><g class="highcharts-series highcharts-series-1 highcharts-errorbar-series" data-z-index="0.1" opacity="1" transform="translate(475,351) rotate(90) scale(-1,1) scale(1 1)" clip-path="url(#highcharts-zova1pr-68-)"><g class="highcharts-point"><path fill="none" class="highcharts-boxplot-stem" stroke="#000000" stroke-width="1" d="M 287.5 40 L 287.5 -12 M 287.5 40 L 287.5 40"></path><path fill="none" class="highcharts-boxplot-whisker" stroke="#000000" stroke-width="1" d="M 285.5 -11.5 L 289.5 -11.5 M 285.5 40.5 L 289.5 40.5"></path><path fill="none" class="highcharts-boxplot-median" stroke="#000000" stroke-width="2" d="M 0 0"></path></g><g class="highcharts-point"><path fill="none" class="highcharts-boxplot-stem" stroke="#000000" stroke-width="1" d="M 272.5 74 L 272.5 46 M 272.5 74 L 272.5 74"></path><path fill="none" class="highcharts-boxplot-whisker" stroke="#000000" stroke-width="1" d="M 270.5 46.5 L 274.5 46.5 M 270.5 74.5 L 274.5 74.5"></path><path fill="none" class="highcharts-boxplot-median" stroke="#000000" stroke-width="2" d="M 0 0"></path></g><g class="highcharts-point"><path fill="none" class="highcharts-boxplot-stem" stroke="#000000" stroke-width="1" d="M 258.5 86 L 258.5 46 M 258.5 86 L 258.5 86"></path><path fill="none" class="highcharts-boxplot-whisker" stroke="#000000" stroke-width="1" d="M 256.5 46.5 L 260.5 46.5 M 256.5 86.5 L 260.5 86.5"></path><path fill="none" class="highcharts-boxplot-median" stroke="#000000" stroke-width="2" d="M 0 0"></path></g><g class="highcharts-point"><path fill="none" class="highcharts-boxplot-stem" stroke="#000000" stroke-width="1" d="M 243.5 103 L 243.5 42 M 243.5 103 L 243.5 103"></path><path fill="none" class="highcharts-boxplot-whisker" stroke="#000000" stroke-width="1" d="M 241.5 42.5 L 245.5 42.5 M 241.5 103.5 L 245.5 103.5"></path><path fill="none" class="highcharts-boxplot-median" stroke="#000000" stroke-width="2" d="M 0 0"></path></g><g class="highcharts-point"><path fill="none" class="highcharts-boxplot-stem" stroke="#000000" stroke-width="1" d="M 228.5 103 L 228.5 77 M 228.5 103 L 228.5 103"></path><path fill="none" class="highcharts-boxplot-whisker" stroke="#000000" stroke-width="1" d="M 226.5 77.5 L 230.5 77.5 M 226.5 103.5 L 230.5 103.5"></path><path fill="none" class="highcharts-boxplot-median" stroke="#000000" stroke-width="2" d="M 0 0"></path></g><g class="highcharts-point"><path fill="none" class="highcharts-boxplot-stem" stroke="#000000" stroke-width="1" d="M 213.5 109 L 213.5 81 M 213.5 109 L 213.5 109"></path><path fill="none" class="highcharts-boxplot-whisker" stroke="#000000" stroke-width="1" d="M 211.5 81.5 L 215.5 81.5 M 211.5 109.5 L 215.5 109.5"></path><path fill="none" class="highcharts-boxplot-median" stroke="#000000" stroke-width="2" d="M 0 0"></path></g><g class="highcharts-point"><path fill="none" class="highcharts-boxplot-stem" stroke="#000000" stroke-width="1" d="M 199.5 120 L 199.5 83 M 199.5 120 L 199.5 120"></path><path fill="none" class="highcharts-boxplot-whisker" stroke="#000000" stroke-width="1" d="M 197.5 83.5 L 201.5 83.5 M 197.5 120.5 L 201.5 120.5"></path><path fill="none" class="highcharts-boxplot-median" stroke="#000000" stroke-width="2" d="M 0 0"></path></g><g class="highcharts-point"><path fill="none" class="highcharts-boxplot-stem" stroke="#000000" stroke-width="1" d="M 184.5 121 L 184.5 97 M 184.5 121 L 184.5 121"></path><path fill="none" class="highcharts-boxplot-whisker" stroke="#000000" stroke-width="1" d="M 182.5 97.5 L 186.5 97.5 M 182.5 121.5 L 186.5 121.5"></path><path fill="none" class="highcharts-boxplot-median" stroke="#000000" stroke-width="2" d="M 0 0"></path></g><g class="highcharts-point"><path fill="none" class="highcharts-boxplot-stem" stroke="#000000" stroke-width="1" d="M 169.5 143 L 169.5 111 M 169.5 143 L 169.5 143"></path><path fill="none" class="highcharts-boxplot-whisker" stroke="#000000" stroke-width="1" d="M 167.5 111.5 L 171.5 111.5 M 167.5 143.5 L 171.5 143.5"></path><path fill="none" class="highcharts-boxplot-median" stroke="#000000" stroke-width="2" d="M 0 0"></path></g><g class="highcharts-point"><path fill="none" class="highcharts-boxplot-stem" stroke="#000000" stroke-width="1" d="M 154.5 140 L 154.5 119 M 154.5 140 L 154.5 140"></path><path fill="none" class="highcharts-boxplot-whisker" stroke="#000000" stroke-width="1" d="M 152.5 119.5 L 156.5 119.5 M 152.5 140.5 L 156.5 140.5"></path><path fill="none" class="highcharts-boxplot-median" stroke="#000000" stroke-width="2" d="M 0 0"></path></g><g class="highcharts-point"><path fill="none" class="highcharts-boxplot-stem" stroke="#000000" stroke-width="1" d="M 140.5 152 L 140.5 131 M 140.5 152 L 140.5 152"></path><path fill="none" class="highcharts-boxplot-whisker" stroke="#000000" stroke-width="1" d="M 138.5 131.5 L 142.5 131.5 M 138.5 152.5 L 142.5 152.5"></path><path fill="none" class="highcharts-boxplot-median" stroke="#000000" stroke-width="2" d="M 0 0"></path></g><g class="highcharts-point"><path fill="none" class="highcharts-boxplot-stem" stroke="#000000" stroke-width="1" d="M 125.5 156 L 125.5 133 M 125.5 156 L 125.5 156"></path><path fill="none" class="highcharts-boxplot-whisker" stroke="#000000" stroke-width="1" d="M 123.5 133.5 L 127.5 133.5 M 123.5 156.5 L 127.5 156.5"></path><path fill="none" class="highcharts-boxplot-median" stroke="#000000" stroke-width="2" d="M 0 0"></path></g><g class="highcharts-point"><path fill="none" class="highcharts-boxplot-stem" stroke="#000000" stroke-width="1" d="M 110.5 158 L 110.5 141 M 110.5 158 L 110.5 158"></path><path fill="none" class="highcharts-boxplot-whisker" stroke="#000000" stroke-width="1" d="M 108.5 141.5 L 112.5 141.5 M 108.5 158.5 L 112.5 158.5"></path><path fill="none" class="highcharts-boxplot-median" stroke="#000000" stroke-width="2" d="M 0 0"></path></g><g class="highcharts-point"><path fill="none" class="highcharts-boxplot-stem" stroke="#000000" stroke-width="1" d="M 95.5 181 L 95.5 145 M 95.5 181 L 95.5 181"></path><path fill="none" class="highcharts-boxplot-whisker" stroke="#000000" stroke-width="1" d="M 93.5 145.5 L 97.5 145.5 M 93.5 181.5 L 97.5 181.5"></path><path fill="none" class="highcharts-boxplot-median" stroke="#000000" stroke-width="2" d="M 0 0"></path></g><g class="highcharts-point"><path fill="none" class="highcharts-boxplot-stem" stroke="#000000" stroke-width="1" d="M 81.5 193 L 81.5 148 M 81.5 193 L 81.5 193"></path><path fill="none" class="highcharts-boxplot-whisker" stroke="#000000" stroke-width="1" d="M 79.5 148.5 L 83.5 148.5 M 79.5 193.5 L 83.5 193.5"></path><path fill="none" class="highcharts-boxplot-median" stroke="#000000" stroke-width="2" d="M 0 0"></path></g><g class="highcharts-point"><path fill="none" class="highcharts-boxplot-stem" stroke="#000000" stroke-width="1" d="M 66.5 182 L 66.5 161 M 66.5 182 L 66.5 182"></path><path fill="none" class="highcharts-boxplot-whisker" stroke="#000000" stroke-width="1" d="M 64.5 161.5 L 68.5 161.5 M 64.5 182.5 L 68.5 182.5"></path><path fill="none" class="highcharts-boxplot-median" stroke="#000000" stroke-width="2" d="M 0 0"></path></g><g class="highcharts-point"><path fill="none" class="highcharts-boxplot-stem" stroke="#000000" stroke-width="1" d="M 51.5 203 L 51.5 175 M 51.5 203 L 51.5 203"></path><path fill="none" class="highcharts-boxplot-whisker" stroke="#000000" stroke-width="1" d="M 49.5 175.5 L 53.5 175.5 M 49.5 203.5 L 53.5 203.5"></path><path fill="none" class="highcharts-boxplot-median" stroke="#000000" stroke-width="2" d="M 0 0"></path></g><g class="highcharts-point"><path fill="none" class="highcharts-boxplot-stem" stroke="#000000" stroke-width="1" d="M 36.5 210 L 36.5 184 M 36.5 210 L 36.5 210"></path><path fill="none" class="highcharts-boxplot-whisker" stroke="#000000" stroke-width="1" d="M 34.5 184.5 L 38.5 184.5 M 34.5 210.5 L 38.5 210.5"></path><path fill="none" class="highcharts-boxplot-median" stroke="#000000" stroke-width="2" d="M 0 0"></path></g><g class="highcharts-point"><path fill="none" class="highcharts-boxplot-stem" stroke="#000000" stroke-width="1" d="M 22.5 255 L 22.5 226 M 22.5 255 L 22.5 255"></path><path fill="none" class="highcharts-boxplot-whisker" stroke="#000000" stroke-width="1" d="M 20.5 226.5 L 24.5 226.5 M 20.5 255.5 L 24.5 255.5"></path><path fill="none" class="highcharts-boxplot-median" stroke="#000000" stroke-width="2" d="M 0 0"></path></g><g class="highcharts-point"><path fill="none" class="highcharts-boxplot-stem" stroke="#000000" stroke-width="1" d="M 7.5 286 L 7.5 243 M 7.5 286 L 7.5 286"></path><path fill="none" class="highcharts-boxplot-whisker" stroke="#000000" stroke-width="1" d="M 5.5 243.5 L 9.5 243.5 M 5.5 286.5 L 9.5 286.5"></path><path fill="none" class="highcharts-boxplot-median" stroke="#000000" stroke-width="2" d="M 0 0"></path></g></g><g class="highcharts-markers highcharts-series-1 highcharts-errorbar-series" data-z-index="0.1" opacity="1" transform="translate(475,351) rotate(90) scale(-1,1) scale(1 1)" clip-path="none"></g></g><text x="10" text-anchor="start" class="highcharts-title" data-z-index="4" style="color:#000000;font-size:14px;font-weight:bold;fill:#000000;" y="21"><tspan>Anteil der Bevölkerung mit tertiärem Bildungsabschluss</tspan></text><text x="10" text-anchor="start" class="highcharts-subtitle" data-z-index="4" style="color:#000000;font-size:12px;font-weight:normal;fill:#000000;" y="40"><tspan>nach Wohnviertel, Basel-Stadt, 2017-2021</tspan></text><text x="10" text-anchor="start" class="highcharts-caption" data-z-index="4" style="color:#666666;fill:#666666;" y="385"></text><g class="highcharts-axis-labels highcharts-xaxis-labels" data-z-index="7"><text x="98" style="color:#000000;cursor:default;font-size:10px;fill:#000000;" text-anchor="end" transform="translate(0,0)" y="67" opacity="1"><tspan>Altstadt Grossbasel</tspan></text><text x="98" style="color:#000000;cursor:default;font-size:10px;fill:#000000;" text-anchor="end" transform="translate(0,0)" y="82" opacity="1"><tspan>Am Ring</tspan></text><text x="98" style="color:#000000;cursor:default;font-size:10px;fill:#000000;" text-anchor="end" transform="translate(0,0)" y="96" opacity="1">Vorstädte</text><text x="98" style="color:#000000;cursor:default;font-size:10px;fill:#000000;" text-anchor="end" transform="translate(0,0)" y="111" opacity="1"><tspan>Altstadt Kleinbasel</tspan></text><text x="98" style="color:#000000;cursor:default;font-size:10px;fill:#000000;" text-anchor="end" transform="translate(0,0)" y="126" opacity="1"><tspan>St. Alban</tspan></text><text x="98" style="color:#000000;cursor:default;font-size:10px;fill:#000000;" text-anchor="end" transform="translate(0,0)" y="141" opacity="1">Bruderholz</text><text x="98" style="color:#000000;cursor:default;font-size:10px;fill:#000000;" text-anchor="end" transform="translate(0,0)" y="155" opacity="1">Wettstein</text><text x="98" style="color:#000000;cursor:default;font-size:10px;fill:#000000;" text-anchor="end" transform="translate(0,0)" y="170" opacity="1">Bachletten</text><text x="98" style="color:#000000;cursor:default;font-size:10px;fill:#000000;" text-anchor="end" transform="translate(0,0)" y="185" opacity="1">Gotthelf</text><text x="98" style="color:#000000;cursor:default;font-size:10px;fill:#000000;" text-anchor="end" transform="translate(0,0)" y="200" opacity="1">Gundeldingen</text><text x="98" style="color:#000000;cursor:default;font-size:10px;fill:#000000;" text-anchor="end" transform="translate(0,0)" y="214" opacity="1"><tspan>St. Johann</tspan></text><text x="98" style="color:#000000;cursor:default;font-size:10px;fill:#000000;" text-anchor="end" transform="translate(0,0)" y="229" opacity="1">Matthäus</text><text x="98" style="color:#000000;cursor:default;font-size:10px;fill:#000000;" text-anchor="end" transform="translate(0,0)" y="244" opacity="1">Riehen/Bettingen</text><text x="98" style="color:#000000;cursor:default;font-size:10px;fill:#000000;" text-anchor="end" transform="translate(0,0)" y="259" opacity="1">Rosental</text><text x="98" style="color:#000000;cursor:default;font-size:10px;fill:#000000;" text-anchor="end" transform="translate(0,0)" y="273" opacity="1">Clara</text><text x="98" style="color:#000000;cursor:default;font-size:10px;fill:#000000;" text-anchor="end" transform="translate(0,0)" y="288" opacity="1">Iselin</text><text x="98" style="color:#000000;cursor:default;font-size:10px;fill:#000000;" text-anchor="end" transform="translate(0,0)" y="303" opacity="1">Breite</text><text x="98" style="color:#000000;cursor:default;font-size:10px;fill:#000000;" text-anchor="end" transform="translate(0,0)" y="318" opacity="1">Hirzbrunnen</text><text x="98" style="color:#000000;cursor:default;font-size:10px;fill:#000000;" text-anchor="end" transform="translate(0,0)" y="332" opacity="1">Klybeck</text><text x="98" style="color:#000000;cursor:default;font-size:10px;fill:#000000;" text-anchor="end" transform="translate(0,0)" y="347" opacity="1">Kleinhüningen</text></g><g class="highcharts-axis-labels highcharts-yaxis-labels" data-z-index="7"><text x="113" style="color:#000000;cursor:default;font-size:11px;fill:#000000;" text-anchor="middle" transform="translate(0,0)" y="370" opacity="1">0%</text><text x="164.71428571429" style="color:#000000;cursor:default;font-size:11px;fill:#000000;" text-anchor="middle" transform="translate(0,0)" y="370" opacity="1">10%</text><text x="216.42857142857" style="color:#000000;cursor:default;font-size:11px;fill:#000000;" text-anchor="middle" transform="translate(0,0)" y="370" opacity="1">20%</text><text x="268.14285714286" style="color:#000000;cursor:default;font-size:11px;fill:#000000;" text-anchor="middle" transform="translate(0,0)" y="370" opacity="1">30%</text><text x="319.85714285714" style="color:#000000;cursor:default;font-size:11px;fill:#000000;" text-anchor="middle" transform="translate(0,0)" y="370" opacity="1">40%</text><text x="371.57142857143" style="color:#000000;cursor:default;font-size:11px;fill:#000000;" text-anchor="middle" transform="translate(0,0)" y="370" opacity="1">50%</text><text x="423.28571428571" style="color:#000000;cursor:default;font-size:11px;fill:#000000;" text-anchor="middle" transform="translate(0,0)" y="370" opacity="1">60%</text><text x="464" style="color:#000000;cursor:default;font-size:11px;fill:#000000;" text-anchor="middle" transform="translate(0,0)" y="370" opacity="1">70%</text></g><text x="10" class="highcharts-credits" text-anchor="start" data-z-index="8" style="cursor:default;color:#000000;font-size:10px;fill:#000000;" y="403"><tspan>Quelle: Bundesamt für Statistik (BFS), Strukturerhebung (SE).</tspan><tspan x="10" dy="13">Zuletzt geändert: 25.1.2024</tspan></text><g class="highcharts-control-points" data-z-index="99" clip-path="url(#highcharts-zova1pr-89-)"></g></svg>