<?xml version="1.0" standalone="no"?><!DOCTYPE svg PUBLIC "-//W3C//DTD SVG 1.1//EN" "http://www.w3.org/Graphics/SVG/1.1/DTD/svg11.dtd"><svg xmlns:xlink="http://www.w3.org/1999/xlink" version="1.1" class="highcharts-root" style="font-family:Arial;font-size:12px;" xmlns="http://www.w3.org/2000/svg" viewBox="0 0 485 415"><desc>Created with Highcharts 8.2.0</desc><defs><clipPath id="highcharts-xl5b9lb-82-"><rect x="0" y="0" width="413" height="212" fill="none"></rect></clipPath><clipPath id="highcharts-xl5b9lb-98-"><rect x="0" y="0" width="413" height="212" fill="none"></rect></clipPath><clipPath id="highcharts-xl5b9lb-159-"><rect x="47" y="139" width="413" height="212" fill="none"></rect></clipPath></defs><rect fill="#fbfbfb" class="highcharts-background" x="0" y="0" width="485" height="428" rx="0" ry="0"></rect><rect fill="none" class="highcharts-plot-background" x="47" y="139" width="413" height="212"></rect><g class="highcharts-pane-group" data-z-index="0"></g><g class="highcharts-grid highcharts-xaxis-grid" data-z-index="1"><path fill="none" data-z-index="1" class="highcharts-grid-line" d="M 50.5 139 L 50.5 351" opacity="1"></path><path fill="none" data-z-index="1" class="highcharts-grid-line" d="M 108.5 139 L 108.5 351" opacity="1"></path><path fill="none" data-z-index="1" class="highcharts-grid-line" d="M 166.5 139 L 166.5 351" opacity="1"></path><path fill="none" data-z-index="1" class="highcharts-grid-line" d="M 224.5 139 L 224.5 351" opacity="1"></path><path fill="none" data-z-index="1" class="highcharts-grid-line" d="M 281.5 139 L 281.5 351" opacity="1"></path><path fill="none" data-z-index="1" class="highcharts-grid-line" d="M 339.5 139 L 339.5 351" opacity="1"></path><path fill="none" data-z-index="1" class="highcharts-grid-line" d="M 397.5 139 L 397.5 351" opacity="1"></path><path fill="none" data-z-index="1" class="highcharts-grid-line" d="M 455.5 139 L 455.5 351" opacity="1"></path></g><g class="highcharts-grid highcharts-yaxis-grid" data-z-index="1"><path fill="none" stroke="#B9CFD7" stroke-width="0.5" data-z-index="1" class="highcharts-grid-line" d="M 47 351.25 L 460 351.25" opacity="1"></path><path fill="none" stroke="#B9CFD7" stroke-width="0.5" data-z-index="1" class="highcharts-grid-line" d="M 47 298.25 L 460 298.25" opacity="1"></path><path fill="none" stroke="#B9CFD7" stroke-width="0.5" data-z-index="1" class="highcharts-grid-line" d="M 47 245.25 L 460 245.25" opacity="1"></path><path fill="none" stroke="#B9CFD7" stroke-width="0.5" data-z-index="1" class="highcharts-grid-line" d="M 47 192.25 L 460 192.25" opacity="1"></path><path fill="none" stroke="#B9CFD7" stroke-width="0.5" data-z-index="1" class="highcharts-grid-line" d="M 47 138.75 L 460 138.75" opacity="1"></path></g><rect fill="none" class="highcharts-plot-border" data-z-index="1" x="47" y="139" width="413" height="212"></rect><g class="highcharts-axis highcharts-xaxis" data-z-index="2"><path fill="none" class="highcharts-axis-line" stroke="#B9CFD7" stroke-width="0.5" data-z-index="7" d="M 47 351.25 L 460 351.25"></path></g><g class="highcharts-axis highcharts-yaxis" data-z-index="2"><path fill="none" class="highcharts-axis-line" data-z-index="7" d="M 47 139 L 47 351"></path></g><g class="highcharts-series-group" data-z-index="3"><g class="highcharts-series highcharts-series-0 highcharts-line-series" data-z-index="0.1" opacity="1" transform="translate(47,139) scale(1 1)" clip-path="url(#highcharts-xl5b9lb-98-)"><path fill="none" d="M 4.049019607846 97.52 L 32.970588235297 97.52 L 61.892156862747 99.64 L 90.813725490198 93.28000000000002 L 119.73529411765 107.06 L 148.6568627451 84.80000000000001 L 177.57843137255 87.98000000000002 L 206.5 96.46 L 235.42156862745 109.18 L 264.3431372549 91.16 L 293.26470588235 101.76 L 322.1862745098 89.04 L 351.10784313725 102.82 L 380.0294117647 77.38000000000002 L 408.95098039215 82.68" class="highcharts-graph" data-z-index="1" stroke="#FABD24" stroke-width="2" stroke-linejoin="round" stroke-linecap="round"></path></g><g class="highcharts-markers highcharts-series-0 highcharts-line-series" data-z-index="0.1" opacity="1" transform="translate(47,139) scale(1 1)" clip-path="none"></g><g class="highcharts-series highcharts-series-1 highcharts-line-series" data-z-index="0.1" opacity="1" transform="translate(47,139) scale(1 1)" clip-path="url(#highcharts-xl5b9lb-98-)"><path fill="none" d="M 4.049019607846 104.94000000000001 L 32.970588235297 127.2 L 61.892156862747 96.46 L 90.813725490198 101.76 L 119.73529411765 112.36 L 148.6568627451 112.36 L 177.57843137255 97.52 L 206.5 101.76 L 235.42156862745 116.60000000000001 L 264.3431372549 99.64 L 293.26470588235 106 L 322.1862745098 103.88000000000001 L 351.10784313725 115.54 L 380.0294117647 87.98000000000002 L 408.95098039215 87.98000000000002" class="highcharts-graph" data-z-index="1" stroke="#FFDA80" stroke-width="2" stroke-linejoin="round" stroke-linecap="round"></path></g><g class="highcharts-markers highcharts-series-1 highcharts-line-series" data-z-index="0.1" opacity="1" transform="translate(47,139) scale(1 1)" clip-path="none"></g><g class="highcharts-series highcharts-series-2 highcharts-line-series" data-z-index="0.1" opacity="1" transform="translate(47,139) scale(1 1)" clip-path="url(#highcharts-xl5b9lb-98-)"><path fill="none" d="M 4.049019607846 85.86 L 32.970588235297 72.08000000000001 L 61.892156862747 41.34 L 90.813725490198 82.68 L 119.73529411765 102.82 L 148.6568627451 53 L 177.57843137255 72.08000000000001 L 206.5 72.08000000000001 L 235.42156862745 103.88000000000001 L 264.3431372549 91.16 L 293.26470588235 72.08000000000001 L 322.1862745098 73.14000000000001 L 351.10784313725 60.41999999999999 L 380.0294117647 45.58000000000001 L 408.95098039215 24.380000000000024" class="highcharts-graph" data-z-index="1" stroke="#B375AB" stroke-width="2" stroke-linejoin="round" stroke-linecap="round"></path></g><g class="highcharts-markers highcharts-series-2 highcharts-line-series" data-z-index="0.1" opacity="1" transform="translate(47,139) scale(1 1)" clip-path="none"></g><g class="highcharts-series highcharts-series-3 highcharts-line-series" data-z-index="0.1" opacity="1" transform="translate(47,139) scale(1 1)" clip-path="url(#highcharts-xl5b9lb-98-)"><path fill="none" d="M 4.049019607846 108.11999999999999 L 32.970588235297 109.18 L 61.892156862747 129.32 L 90.813725490198 99.64 L 119.73529411765 94.34 L 148.6568627451 92.22 L 177.57843137255 78.44 L 206.5 84.80000000000001 L 235.42156862745 106 L 264.3431372549 91.16 L 293.26470588235 102.82 L 322.1862745098 92.22 L 351.10784313725 80.56 L 380.0294117647 73.14000000000001 L 408.95098039215 77.38000000000002" class="highcharts-graph" data-z-index="1" stroke="#E7CEE2" stroke-width="2" stroke-linejoin="round" stroke-linecap="round"></path></g><g class="highcharts-markers highcharts-series-3 highcharts-line-series" data-z-index="0.1" opacity="1" transform="translate(47,139) scale(1 1)" clip-path="none"></g><g class="highcharts-series highcharts-series-4 highcharts-line-series" data-z-index="0.1" opacity="1" transform="translate(47,139) scale(1 1)" clip-path="url(#highcharts-xl5b9lb-98-)"><path fill="none" d="M 4.049019607846 99.64 L 32.970588235297 106 L 61.892156862747 94.34 L 90.813725490198 95.4 L 119.73529411765 107.06 L 148.6568627451 91.16 L 177.57843137255 87.98000000000002 L 206.5 93.28000000000002 L 235.42156862745 110.24000000000001 L 264.3431372549 93.28000000000002 L 293.26470588235 98.58000000000001 L 322.1862745098 91.16 L 351.10784313725 96.46 L 380.0294117647 74.20000000000002 L 408.95098039215 74.20000000000002" class="highcharts-graph" data-z-index="1" stroke="#689199" stroke-width="2" stroke-linejoin="round" stroke-linecap="round"></path></g><g class="highcharts-markers highcharts-series-4 highcharts-line-series" data-z-index="0.1" opacity="1" transform="translate(47,139) scale(1 1)" clip-path="none"></g></g><text x="10" text-anchor="start" class="highcharts-title" data-z-index="4" style="color:#000000;font-size:14px;font-weight:bold;fill:#000000;" y="21"><tspan>Lehrabbruchquote nach Herkunft und Geschlecht</tspan></text><text x="10" text-anchor="start" class="highcharts-subtitle" data-z-index="4" style="color:#000000;font-size:12px;font-weight:normal;fill:#000000;" y="40"><tspan>in Prozent</tspan></text><text x="10" text-anchor="start" class="highcharts-caption" data-z-index="4" style="color:#666666;fill:#666666;" y="385"></text><g class="highcharts-legend" data-z-index="7" transform="translate(39,56)"><rect fill="none" class="highcharts-legend-box" rx="0" ry="0" x="0" y="0" width="396" height="71" visibility="visible"></rect><g data-z-index="1"><g><g class="highcharts-legend-item highcharts-line-series highcharts-color-undefined highcharts-series-0" data-z-index="1" transform="translate(8,3)"><path fill="none" d="M 0 11 L 16 11" class="highcharts-graph" stroke="#FABD24" stroke-width="2"></path><text x="21" style="color:#333333;cursor:pointer;font-size:12px;font-weight:normal;fill:#333333;" text-anchor="start" data-z-index="2" y="15"><tspan>Schweizer</tspan></text></g><g class="highcharts-legend-item highcharts-line-series highcharts-color-undefined highcharts-series-1" data-z-index="1" transform="translate(208,3)"><path fill="none" d="M 0 11 L 16 11" class="highcharts-graph" stroke="#FFDA80" stroke-width="2"></path><text x="21" y="15" style="color:#333333;cursor:pointer;font-size:12px;font-weight:normal;fill:#333333;" text-anchor="start" data-z-index="2"><tspan>Schweizerinnen</tspan></text></g><g class="highcharts-legend-item highcharts-line-series highcharts-color-undefined highcharts-series-2" data-z-index="1" transform="translate(8,23)"><path fill="none" d="M 0 11 L 16 11" class="highcharts-graph" stroke="#B375AB" stroke-width="2"></path><text x="21" y="15" style="color:#333333;cursor:pointer;font-size:12px;font-weight:normal;fill:#333333;" text-anchor="start" data-z-index="2"><tspan>Ausländer</tspan></text></g><g class="highcharts-legend-item highcharts-line-series highcharts-color-undefined highcharts-series-3" data-z-index="1" transform="translate(208,23)"><path fill="none" d="M 0 11 L 16 11" class="highcharts-graph" stroke="#E7CEE2" stroke-width="2"></path><text x="21" y="15" style="color:#333333;cursor:pointer;font-size:12px;font-weight:normal;fill:#333333;" text-anchor="start" data-z-index="2"><tspan>Ausländerinnen</tspan></text></g><g class="highcharts-legend-item highcharts-line-series highcharts-color-undefined highcharts-series-4" data-z-index="1" transform="translate(8,43)"><path fill="none" d="M 0 11 L 16 11" class="highcharts-graph" stroke="#689199" stroke-width="2"></path><text x="21" y="15" style="color:#333333;cursor:pointer;font-size:12px;font-weight:normal;fill:#333333;" text-anchor="start" data-z-index="2"><tspan>Total</tspan></text></g></g></g></g><g class="highcharts-axis-labels highcharts-xaxis-labels" data-z-index="7"><text x="51.049019607846" style="color:#000000;cursor:default;font-size:11px;fill:#000000;" text-anchor="middle" transform="translate(0,0)" y="370" opacity="1">2008</text><text x="108.89215686275" style="color:#000000;cursor:default;font-size:11px;fill:#000000;" text-anchor="middle" transform="translate(0,0)" y="370" opacity="1">2010</text><text x="166.73529411765" style="color:#000000;cursor:default;font-size:11px;fill:#000000;" text-anchor="middle" transform="translate(0,0)" y="370" opacity="1">2012</text><text x="224.57843137255" style="color:#000000;cursor:default;font-size:11px;fill:#000000;" text-anchor="middle" transform="translate(0,0)" y="370" opacity="1">2014</text><text x="282.42156862745" style="color:#000000;cursor:default;font-size:11px;fill:#000000;" text-anchor="middle" transform="translate(0,0)" y="370" opacity="1">2016</text><text x="340.26470588235" style="color:#000000;cursor:default;font-size:11px;fill:#000000;" text-anchor="middle" transform="translate(0,0)" y="370" opacity="1">2018</text><text x="398.10784313725" style="color:#000000;cursor:default;font-size:11px;fill:#000000;" text-anchor="middle" transform="translate(0,0)" y="370" opacity="1">2020</text><text x="455.95098039215" style="color:#000000;cursor:default;font-size:11px;fill:#000000;" text-anchor="middle" transform="translate(0,0)" y="370" opacity="1">2022</text></g><g class="highcharts-axis-labels highcharts-yaxis-labels" data-z-index="7"><text x="32" style="color:#000000;cursor:default;font-size:11px;fill:#000000;" text-anchor="end" transform="translate(0,0)" y="355" opacity="1">0%</text><text x="32" style="color:#000000;cursor:default;font-size:11px;fill:#000000;" text-anchor="end" transform="translate(0,0)" y="302" opacity="1">5%</text><text x="32" style="color:#000000;cursor:default;font-size:11px;fill:#000000;" text-anchor="end" transform="translate(0,0)" y="249" opacity="1">10%</text><text x="32" style="color:#000000;cursor:default;font-size:11px;fill:#000000;" text-anchor="end" transform="translate(0,0)" y="196" opacity="1">15%</text><text x="32" style="color:#000000;cursor:default;font-size:11px;fill:#000000;" text-anchor="end" transform="translate(0,0)" y="143" opacity="1">20%</text></g><text x="10" class="highcharts-credits" text-anchor="start" data-z-index="8" style="cursor:default;color:#000000;font-size:10px;fill:#000000;" y="403"><tspan>Quelle: Erziehungsdepartement Basel-Stadt, Fachstelle Lehraufsicht.</tspan><tspan x="10" dy="13">Zuletzt geändert: 29.12.2023</tspan></text><g class="highcharts-control-points" data-z-index="99" clip-path="url(#highcharts-xl5b9lb-159-)"></g></svg>