<?xml version="1.0" standalone="no"?><!DOCTYPE svg PUBLIC "-//W3C//DTD SVG 1.1//EN" "http://www.w3.org/Graphics/SVG/1.1/DTD/svg11.dtd"><svg xmlns:xlink="http://www.w3.org/1999/xlink" version="1.1" class="highcharts-root" style="font-family:Arial;font-size:12px;" xmlns="http://www.w3.org/2000/svg" viewBox="0 0 485 415"><desc>Created with Highcharts 8.2.0</desc><defs><clipPath id="highcharts-4wt0tk7-21-"><rect x="0" y="0" width="408" height="282" fill="none"></rect></clipPath><clipPath id="highcharts-4wt0tk7-36-"><rect x="0" y="0" width="408" height="282" fill="none"></rect></clipPath><clipPath id="highcharts-4wt0tk7-37-"><rect x="52" y="56" width="408" height="282" fill="none"></rect></clipPath></defs><rect fill="#fbfbfb" class="highcharts-background" x="0" y="0" width="485" height="428" rx="0" ry="0"></rect><rect fill="none" class="highcharts-plot-background" x="52" y="56" width="408" height="282"></rect><g class="highcharts-pane-group" data-z-index="0"></g><g class="highcharts-grid highcharts-xaxis-grid" data-z-index="1"><path fill="none" data-z-index="1" class="highcharts-grid-line" d="M 55.5 56 L 55.5 338" opacity="1"></path><path fill="none" data-z-index="1" class="highcharts-grid-line" d="M 86.5 56 L 86.5 338" opacity="1"></path><path fill="none" data-z-index="1" class="highcharts-grid-line" d="M 117.5 56 L 117.5 338" opacity="1"></path><path fill="none" data-z-index="1" class="highcharts-grid-line" d="M 147.5 56 L 147.5 338" opacity="1"></path><path fill="none" data-z-index="1" class="highcharts-grid-line" d="M 178.5 56 L 178.5 338" opacity="1"></path><path fill="none" data-z-index="1" class="highcharts-grid-line" d="M 209.5 56 L 209.5 338" opacity="1"></path><path fill="none" data-z-index="1" class="highcharts-grid-line" d="M 240.5 56 L 240.5 338" opacity="1"></path><path fill="none" data-z-index="1" class="highcharts-grid-line" d="M 270.5 56 L 270.5 338" opacity="1"></path><path fill="none" data-z-index="1" class="highcharts-grid-line" d="M 301.5 56 L 301.5 338" opacity="1"></path><path fill="none" data-z-index="1" class="highcharts-grid-line" d="M 332.5 56 L 332.5 338" opacity="1"></path><path fill="none" data-z-index="1" class="highcharts-grid-line" d="M 363.5 56 L 363.5 338" opacity="1"></path><path fill="none" data-z-index="1" class="highcharts-grid-line" d="M 393.5 56 L 393.5 338" opacity="1"></path><path fill="none" data-z-index="1" class="highcharts-grid-line" d="M 424.5 56 L 424.5 338" opacity="1"></path><path fill="none" data-z-index="1" class="highcharts-grid-line" d="M 455.5 56 L 455.5 338" opacity="1"></path></g><g class="highcharts-grid highcharts-yaxis-grid" data-z-index="1"><path fill="none" stroke="#B9CFD7" stroke-width="0.5" data-z-index="1" class="highcharts-grid-line" d="M 52 338.25 L 460 338.25" opacity="1"></path><path fill="none" stroke="#B9CFD7" stroke-width="0.5" data-z-index="1" class="highcharts-grid-line" d="M 52 282.25 L 460 282.25" opacity="1"></path><path fill="none" stroke="#B9CFD7" stroke-width="0.5" data-z-index="1" class="highcharts-grid-line" d="M 52 225.25 L 460 225.25" opacity="1"></path><path fill="none" stroke="#B9CFD7" stroke-width="0.5" data-z-index="1" class="highcharts-grid-line" d="M 52 169.25 L 460 169.25" opacity="1"></path><path fill="none" stroke="#B9CFD7" stroke-width="0.5" data-z-index="1" class="highcharts-grid-line" d="M 52 112.25 L 460 112.25" opacity="1"></path><path fill="none" stroke="#B9CFD7" stroke-width="0.5" data-z-index="1" class="highcharts-grid-line" d="M 52 55.75 L 460 55.75" opacity="1"></path></g><rect fill="none" class="highcharts-plot-border" data-z-index="1" x="52" y="56" width="408" height="282"></rect><g class="highcharts-axis highcharts-xaxis" data-z-index="2"><path fill="none" class="highcharts-axis-line" stroke="#B9CFD7" stroke-width="0.5" data-z-index="7" d="M 52 338.25 L 460 338.25"></path></g><g class="highcharts-axis highcharts-yaxis" data-z-index="2"><path fill="none" class="highcharts-axis-line" data-z-index="7" d="M 52 56 L 52 338"></path></g><g class="highcharts-series-group" data-z-index="3"><g class="highcharts-series highcharts-series-0 highcharts-line-series" data-z-index="0.1" opacity="1" transform="translate(52,56) scale(1 1)" clip-path="url(#highcharts-4wt0tk7-36-)"><path fill="none" d="M 4.0000000000033 79.80600000000001 L 34.769230769234 74.16600000000003 L 65.538461538464 42.30000000000001 L 96.307692307694 65.42400000000004 L 127.07692307692 61.19400000000002 L 157.84615384615 64.29600000000002 L 188.61538461538 56.96400000000003 L 219.38461538462 82.62600000000003 L 250.15384615385 76.42200000000003 L 280.92307692308 83.75400000000002 L 311.69230769231 71.62800000000001 L 342.46153846154 72.47400000000002 L 373.23076923077 82.06200000000001 L 404 78.96000000000001" class="highcharts-graph" data-z-index="1" stroke="#246370" stroke-width="2" stroke-linejoin="round" stroke-linecap="round"></path></g><g class="highcharts-markers highcharts-series-0 highcharts-line-series" data-z-index="0.1" opacity="1" transform="translate(52,56) scale(1 1)" clip-path="none"></g></g><text x="10" text-anchor="start" class="highcharts-title" data-z-index="4" style="color:#000000;font-size:14px;font-weight:bold;fill:#000000;" y="21"><tspan>Anzahl Straftaten im Bereich häusliche Gewalt</tspan></text><text x="10" text-anchor="start" class="highcharts-subtitle" data-z-index="4" style="color:#000000;font-size:12px;font-weight:normal;fill:#000000;" y="40"><tspan>Basel-Stadt</tspan></text><text x="10" text-anchor="start" class="highcharts-caption" data-z-index="4" style="color:#666666;fill:#666666;" y="385"></text><g class="highcharts-axis-labels highcharts-xaxis-labels" data-z-index="7"><text x="58.59272486435367" style="color:#000000;cursor:default;font-size:11px;fill:#000000;" text-anchor="end" transform="translate(0,0) rotate(-45 58.59272486435367 354)" y="354" opacity="1">2009</text><text x="89.36195563358467" style="color:#000000;cursor:default;font-size:11px;fill:#000000;" text-anchor="end" transform="translate(0,0) rotate(-45 89.36195563358467 354)" y="354" opacity="1">2010</text><text x="120.13118640281067" style="color:#000000;cursor:default;font-size:11px;fill:#000000;" text-anchor="end" transform="translate(0,0) rotate(-45 120.13118640281067 354)" y="354" opacity="1">2011</text><text x="150.90041717204068" style="color:#000000;cursor:default;font-size:11px;fill:#000000;" text-anchor="end" transform="translate(0,0) rotate(-45 150.90041717204068 354)" y="354" opacity="1">2012</text><text x="181.66964794127068" style="color:#000000;cursor:default;font-size:11px;fill:#000000;" text-anchor="end" transform="translate(0,0) rotate(-45 181.66964794127068 354)" y="354" opacity="1">2013</text><text x="212.4388787105007" style="color:#000000;cursor:default;font-size:11px;fill:#000000;" text-anchor="end" transform="translate(0,0) rotate(-45 212.4388787105007 354)" y="354" opacity="1">2014</text><text x="243.2081094797307" style="color:#000000;cursor:default;font-size:11px;fill:#000000;" text-anchor="end" transform="translate(0,0) rotate(-45 243.2081094797307 354)" y="354" opacity="1">2015</text><text x="273.9773402489707" style="color:#000000;cursor:default;font-size:11px;fill:#000000;" text-anchor="end" transform="translate(0,0) rotate(-45 273.9773402489707 354)" y="354" opacity="1">2016</text><text x="304.74657101820065" style="color:#000000;cursor:default;font-size:11px;fill:#000000;" text-anchor="end" transform="translate(0,0) rotate(-45 304.74657101820065 354)" y="354" opacity="1">2017</text><text x="335.51580178743063" style="color:#000000;cursor:default;font-size:11px;fill:#000000;" text-anchor="end" transform="translate(0,0) rotate(-45 335.51580178743063 354)" y="354" opacity="1">2018</text><text x="366.28503255666067" style="color:#000000;cursor:default;font-size:11px;fill:#000000;" text-anchor="end" transform="translate(0,0) rotate(-45 366.28503255666067 354)" y="354" opacity="1">2019</text><text x="397.05426332589064" style="color:#000000;cursor:default;font-size:11px;fill:#000000;" text-anchor="end" transform="translate(0,0) rotate(-45 397.05426332589064 354)" y="354" opacity="1">2020</text><text x="427.8234940951207" style="color:#000000;cursor:default;font-size:11px;fill:#000000;" text-anchor="end" transform="translate(0,0) rotate(-45 427.8234940951207 354)" y="354" opacity="1">2021</text><text x="458.59272486435066" style="color:#000000;cursor:default;font-size:11px;fill:#000000;" text-anchor="end" transform="translate(0,0) rotate(-45 458.59272486435066 354)" y="354" opacity="1">2022</text></g><g class="highcharts-axis-labels highcharts-yaxis-labels" data-z-index="7"><text x="37" style="color:#000000;cursor:default;font-size:11px;fill:#000000;" text-anchor="end" transform="translate(0,0)" y="342" opacity="1">0</text><text x="37" style="color:#000000;cursor:default;font-size:11px;fill:#000000;" text-anchor="end" transform="translate(0,0)" y="286" opacity="1">200</text><text x="37" style="color:#000000;cursor:default;font-size:11px;fill:#000000;" text-anchor="end" transform="translate(0,0)" y="229" opacity="1">400</text><text x="37" style="color:#000000;cursor:default;font-size:11px;fill:#000000;" text-anchor="end" transform="translate(0,0)" y="173" opacity="1">600</text><text x="37" style="color:#000000;cursor:default;font-size:11px;fill:#000000;" text-anchor="end" transform="translate(0,0)" y="116" opacity="1">800</text><text x="37" style="color:#000000;cursor:default;font-size:11px;fill:#000000;" text-anchor="end" transform="translate(0,0)" y="60" opacity="1"><tspan>1 000</tspan></text></g><text x="10" class="highcharts-credits" text-anchor="start" data-z-index="8" style="cursor:default;color:#000000;font-size:10px;fill:#000000;" y="403"><tspan>Quelle: Bundesamt für Statistik (BFS), Polizeiliche Kriminalstatistik (PKS).</tspan><tspan x="10" dy="13">Zuletzt geändert: 12.4.2024</tspan></text><g class="highcharts-control-points" data-z-index="99" clip-path="url(#highcharts-4wt0tk7-37-)"></g></svg>