<?xml version="1.0" standalone="no"?><!DOCTYPE svg PUBLIC "-//W3C//DTD SVG 1.1//EN" "http://www.w3.org/Graphics/SVG/1.1/DTD/svg11.dtd"><svg xmlns:xlink="http://www.w3.org/1999/xlink" version="1.1" class="highcharts-root" style="font-family:Arial;font-size:12px;" xmlns="http://www.w3.org/2000/svg" viewBox="0 0 485 415"><desc>Created with Highstock 6.1.1</desc><defs><clipPath id="highcharts-qfi0527-6"><rect x="0" y="0" width="500" height="290" fill="none"></rect></clipPath><clipPath id="highcharts-qfi0527-7"><rect x="0" y="0" width="500" height="290" fill="none"></rect></clipPath></defs><rect fill="#fbfbfb" class="highcharts-background" x="0" y="0" width="485" height="713" rx="0" ry="0"></rect><rect fill="none" class="highcharts-plot-background" x="170" y="151" width="290" height="500"></rect><g class="highcharts-pane-group" data-z-index="0"></g><g class="highcharts-grid highcharts-xaxis-grid " data-z-index="1"><path fill="none" data-z-index="1" class="highcharts-grid-line" d="M 170 171.5 L 460 171.5" opacity="1"></path><path fill="none" data-z-index="1" class="highcharts-grid-line" d="M 170 191.5 L 460 191.5" opacity="1"></path><path fill="none" data-z-index="1" class="highcharts-grid-line" d="M 170 211.5 L 460 211.5" opacity="1"></path><path fill="none" data-z-index="1" class="highcharts-grid-line" d="M 170 231.5 L 460 231.5" opacity="1"></path><path fill="none" data-z-index="1" class="highcharts-grid-line" d="M 170 251.5 L 460 251.5" opacity="1"></path><path fill="none" data-z-index="1" class="highcharts-grid-line" d="M 170 271.5 L 460 271.5" opacity="1"></path><path fill="none" data-z-index="1" class="highcharts-grid-line" d="M 170 291.5 L 460 291.5" opacity="1"></path><path fill="none" data-z-index="1" class="highcharts-grid-line" d="M 170 311.5 L 460 311.5" opacity="1"></path><path fill="none" data-z-index="1" class="highcharts-grid-line" d="M 170 331.5 L 460 331.5" opacity="1"></path><path fill="none" data-z-index="1" class="highcharts-grid-line" d="M 170 351.5 L 460 351.5" opacity="1"></path><path fill="none" data-z-index="1" class="highcharts-grid-line" d="M 170 371.5 L 460 371.5" opacity="1"></path><path fill="none" data-z-index="1" class="highcharts-grid-line" d="M 170 391.5 L 460 391.5" opacity="1"></path><path fill="none" data-z-index="1" class="highcharts-grid-line" d="M 170 411.5 L 460 411.5" opacity="1"></path><path fill="none" data-z-index="1" class="highcharts-grid-line" d="M 170 431.5 L 460 431.5" opacity="1"></path><path fill="none" data-z-index="1" class="highcharts-grid-line" d="M 170 451.5 L 460 451.5" opacity="1"></path><path fill="none" data-z-index="1" class="highcharts-grid-line" d="M 170 471.5 L 460 471.5" opacity="1"></path><path fill="none" data-z-index="1" class="highcharts-grid-line" d="M 170 491.5 L 460 491.5" opacity="1"></path><path fill="none" data-z-index="1" class="highcharts-grid-line" d="M 170 511.5 L 460 511.5" opacity="1"></path><path fill="none" data-z-index="1" class="highcharts-grid-line" d="M 170 531.5 L 460 531.5" opacity="1"></path><path fill="none" data-z-index="1" class="highcharts-grid-line" d="M 170 551.5 L 460 551.5" opacity="1"></path><path fill="none" data-z-index="1" class="highcharts-grid-line" d="M 170 571.5 L 460 571.5" opacity="1"></path><path fill="none" data-z-index="1" class="highcharts-grid-line" d="M 170 591.5 L 460 591.5" opacity="1"></path><path fill="none" data-z-index="1" class="highcharts-grid-line" d="M 170 611.5 L 460 611.5" opacity="1"></path><path fill="none" data-z-index="1" class="highcharts-grid-line" d="M 170 631.5 L 460 631.5" opacity="1"></path><path fill="none" data-z-index="1" class="highcharts-grid-line" d="M 170 651.5 L 460 651.5" opacity="1"></path><path fill="none" data-z-index="1" class="highcharts-grid-line" d="M 170 151.5 L 460 151.5" opacity="1"></path></g><g class="highcharts-grid highcharts-yaxis-grid " data-z-index="1"><path fill="none" stroke="#B9CFD7" stroke-width="0.5" data-z-index="1" class="highcharts-grid-line" d="M 169.75 151 L 169.75 651" opacity="1"></path><path fill="none" stroke="#B9CFD7" stroke-width="0.5" data-z-index="1" class="highcharts-grid-line" d="M 227.75 151 L 227.75 651" opacity="1"></path><path fill="none" stroke="#B9CFD7" stroke-width="0.5" data-z-index="1" class="highcharts-grid-line" d="M 285.75 151 L 285.75 651" opacity="1"></path><path fill="none" stroke="#B9CFD7" stroke-width="0.5" data-z-index="1" class="highcharts-grid-line" d="M 343.75 151 L 343.75 651" opacity="1"></path><path fill="none" stroke="#B9CFD7" stroke-width="0.5" data-z-index="1" class="highcharts-grid-line" d="M 401.75 151 L 401.75 651" opacity="1"></path><path fill="none" stroke="#B9CFD7" stroke-width="0.5" data-z-index="1" class="highcharts-grid-line" d="M 460.25 151 L 460.25 651" opacity="1"></path></g><rect fill="none" class="highcharts-plot-border" data-z-index="1" x="170" y="151" width="290" height="500"></rect><g class="highcharts-axis highcharts-xaxis " data-z-index="2"><path fill="none" class="highcharts-axis-line" stroke="#B9CFD7" stroke-width="0.5" data-z-index="7" d="M 169.75 151 L 169.75 651"></path></g><g class="highcharts-axis highcharts-yaxis " data-z-index="2"><path fill="none" class="highcharts-axis-line" data-z-index="7" d="M 170 651 L 460 651"></path></g><g class="highcharts-series-group" data-z-index="3"><g data-z-index="0.1" class="highcharts-series highcharts-series-0 highcharts-column-series " transform="translate(460,651) rotate(90) scale(-1,1) scale(1 1)" clip-path="url(#highcharts-qfi0527-7)"><rect x="465" y="281" width="10" height="10" fill="#083038" class="highcharts-point"></rect><rect x="445" y="281" width="10" height="10" fill="#083038" class="highcharts-point"></rect><rect x="405" y="283" width="10" height="8" fill="#083038" class="highcharts-point"></rect><rect x="385" y="280" width="10" height="11" fill="#083038" class="highcharts-point"></rect><rect x="345" y="279" width="10" height="12" fill="#083038" class="highcharts-point"></rect><rect x="325" y="279" width="10" height="12" fill="#083038" class="highcharts-point"></rect><rect x="305" y="286" width="10" height="5" fill="#083038" class="highcharts-point"></rect><rect x="265" y="281" width="10" height="10" fill="#083038" class="highcharts-point"></rect><rect x="245" y="280" width="10" height="11" fill="#083038" class="highcharts-point"></rect><rect x="205" y="282" width="10" height="9" fill="#083038" class="highcharts-point"></rect><rect x="185" y="279" width="10" height="12" fill="#083038" class="highcharts-point"></rect><rect x="165" y="279" width="10" height="12" fill="#083038" class="highcharts-point"></rect><rect x="125" y="283" width="10" height="8" fill="#083038" class="highcharts-point"></rect><rect x="105" y="279" width="10" height="12" fill="#083038" class="highcharts-point"></rect><rect x="85" y="280" width="10" height="11" fill="#083038" class="highcharts-point"></rect><rect x="65" y="284" width="10" height="7" fill="#083038" class="highcharts-point"></rect><rect x="25" y="285" width="10" height="6" fill="#083038" class="highcharts-point"></rect><rect x="5" y="281" width="10" height="10" fill="#083038" class="highcharts-point"></rect></g><g data-z-index="0.1" class="highcharts-markers highcharts-series-0 highcharts-column-series " transform="translate(460,651) rotate(90) scale(-1,1) scale(1 1)" clip-path="none"></g><g data-z-index="0.1" class="highcharts-series highcharts-series-1 highcharts-column-series " transform="translate(460,651) rotate(90) scale(-1,1) scale(1 1)" clip-path="url(#highcharts-qfi0527-7)"><rect x="465" y="231" width="10" height="50" fill="#A8C3CA" class="highcharts-point"></rect><rect x="445" y="233" width="10" height="48" fill="#A8C3CA" class="highcharts-point"></rect><rect x="405" y="236" width="10" height="47" fill="#A8C3CA" class="highcharts-point"></rect><rect x="385" y="229" width="10" height="51" fill="#A8C3CA" class="highcharts-point"></rect><rect x="345" y="217" width="10" height="62" fill="#A8C3CA" class="highcharts-point"></rect><rect x="325" y="222" width="10" height="57" fill="#A8C3CA" class="highcharts-point"></rect><rect x="305" y="259" width="10" height="27" fill="#A8C3CA" class="highcharts-point"></rect><rect x="265" y="231" width="10" height="50" fill="#A8C3CA" class="highcharts-point"></rect><rect x="245" y="242" width="10" height="38" fill="#A8C3CA" class="highcharts-point"></rect><rect x="205" y="237" width="10" height="45" fill="#A8C3CA" class="highcharts-point"></rect><rect x="185" y="228" width="10" height="51" fill="#A8C3CA" class="highcharts-point"></rect><rect x="165" y="223" width="10" height="56" fill="#A8C3CA" class="highcharts-point"></rect><rect x="125" y="237" width="10" height="46" fill="#A8C3CA" class="highcharts-point"></rect><rect x="105" y="227" width="10" height="52" fill="#A8C3CA" class="highcharts-point"></rect><rect x="85" y="231" width="10" height="49" fill="#A8C3CA" class="highcharts-point"></rect><rect x="65" y="231" width="10" height="53" fill="#A8C3CA" class="highcharts-point"></rect><rect x="25" y="252" width="10" height="33" fill="#A8C3CA" class="highcharts-point"></rect><rect x="5" y="232" width="10" height="49" fill="#A8C3CA" class="highcharts-point"></rect></g><g data-z-index="0.1" class="highcharts-markers highcharts-series-1 highcharts-column-series " transform="translate(460,651) rotate(90) scale(-1,1) scale(1 1)" clip-path="none"></g><g data-z-index="0.1" class="highcharts-series highcharts-series-2 highcharts-column-series " transform="translate(460,651) rotate(90) scale(-1,1) scale(1 1)" clip-path="url(#highcharts-qfi0527-7)"><rect x="465" y="188" width="10" height="43" fill="#FFBB58" class="highcharts-point"></rect><rect x="445" y="181" width="10" height="52" fill="#FFBB58" class="highcharts-point"></rect><rect x="405" y="182" width="10" height="54" fill="#FFBB58" class="highcharts-point"></rect><rect x="385" y="184" width="10" height="45" fill="#FFBB58" class="highcharts-point"></rect><rect x="345" y="151" width="10" height="66" fill="#FFBB58" class="highcharts-point"></rect><rect x="325" y="172" width="10" height="50" fill="#FFBB58" class="highcharts-point"></rect><rect x="305" y="229" width="10" height="30" fill="#FFBB58" class="highcharts-point"></rect><rect x="265" y="182" width="10" height="49" fill="#FFBB58" class="highcharts-point"></rect><rect x="245" y="196" width="10" height="46" fill="#FFBB58" class="highcharts-point"></rect><rect x="205" y="196" width="10" height="41" fill="#FFBB58" class="highcharts-point"></rect><rect x="185" y="179" width="10" height="49" fill="#FFBB58" class="highcharts-point"></rect><rect x="165" y="167" width="10" height="56" fill="#FFBB58" class="highcharts-point"></rect><rect x="125" y="187" width="10" height="50" fill="#FFBB58" class="highcharts-point"></rect><rect x="105" y="180" width="10" height="47" fill="#FFBB58" class="highcharts-point"></rect><rect x="85" y="178" width="10" height="53" fill="#FFBB58" class="highcharts-point"></rect><rect x="65" y="185" width="10" height="46" fill="#FFBB58" class="highcharts-point"></rect><rect x="25" y="218" width="10" height="34" fill="#FFBB58" class="highcharts-point"></rect><rect x="5" y="184" width="10" height="48" fill="#FFBB58" class="highcharts-point"></rect></g><g data-z-index="0.1" class="highcharts-markers highcharts-series-2 highcharts-column-series " transform="translate(460,651) rotate(90) scale(-1,1) scale(1 1)" clip-path="none"></g><g data-z-index="0.1" class="highcharts-series highcharts-series-3 highcharts-column-series " transform="translate(460,651) rotate(90) scale(-1,1) scale(1 1)" clip-path="url(#highcharts-qfi0527-7)"><rect x="465" y="91" width="10" height="97" fill="#B00000" class="highcharts-point"></rect><rect x="445" y="72" width="10" height="109" fill="#B00000" class="highcharts-point"></rect><rect x="405" y="67" width="10" height="115" fill="#B00000" class="highcharts-point"></rect><rect x="385" y="88" width="10" height="96" fill="#B00000" class="highcharts-point"></rect><rect x="345" y="47" width="10" height="104" fill="#B00000" class="highcharts-point"></rect><rect x="325" y="64" width="10" height="108" fill="#B00000" class="highcharts-point"></rect><rect x="305" y="127" width="10" height="102" fill="#B00000" class="highcharts-point"></rect><rect x="265" y="80" width="10" height="102" fill="#B00000" class="highcharts-point"></rect><rect x="245" y="66" width="10" height="130" fill="#B00000" class="highcharts-point"></rect><rect x="205" y="90" width="10" height="106" fill="#B00000" class="highcharts-point"></rect><rect x="185" y="69" width="10" height="110" fill="#B00000" class="highcharts-point"></rect><rect x="165" y="59" width="10" height="108" fill="#B00000" class="highcharts-point"></rect><rect x="125" y="77" width="10" height="110" fill="#B00000" class="highcharts-point"></rect><rect x="105" y="70" width="10" height="110" fill="#B00000" class="highcharts-point"></rect><rect x="85" y="89" width="10" height="89" fill="#B00000" class="highcharts-point"></rect><rect x="65" y="76" width="10" height="109" fill="#B00000" class="highcharts-point"></rect><rect x="25" y="104" width="10" height="114" fill="#B00000" class="highcharts-point"></rect><rect x="5" y="79" width="10" height="105" fill="#B00000" class="highcharts-point"></rect></g><g data-z-index="0.1" class="highcharts-markers highcharts-series-3 highcharts-column-series " transform="translate(460,651) rotate(90) scale(-1,1) scale(1 1)" clip-path="none"></g><g data-z-index="0.1" class="highcharts-series highcharts-series-4 highcharts-column-series " transform="translate(460,651) rotate(90) scale(-1,1) scale(1 1)" clip-path="url(#highcharts-qfi0527-7)"><rect x="465" y="62" width="10" height="29" fill="#C8C8C8" class="highcharts-point"></rect><rect x="445" y="55" width="10" height="17" fill="#C8C8C8" class="highcharts-point"></rect><rect x="405" y="49" width="10" height="18" fill="#C8C8C8" class="highcharts-point"></rect><rect x="385" y="64" width="10" height="24" fill="#C8C8C8" class="highcharts-point"></rect><rect x="345" y="32" width="10" height="15" fill="#C8C8C8" class="highcharts-point"></rect><rect x="325" y="43" width="10" height="21" fill="#C8C8C8" class="highcharts-point"></rect><rect x="305" y="99" width="10" height="28" fill="#C8C8C8" class="highcharts-point"></rect><rect x="265" y="59" width="10" height="21" fill="#C8C8C8" class="highcharts-point"></rect><rect x="245" y="39" width="10" height="27" fill="#C8C8C8" class="highcharts-point"></rect><rect x="205" y="61" width="10" height="29" fill="#C8C8C8" class="highcharts-point"></rect><rect x="185" y="57" width="10" height="12" fill="#C8C8C8" class="highcharts-point"></rect><rect x="165" y="43" width="10" height="16" fill="#C8C8C8" class="highcharts-point"></rect><rect x="125" y="52" width="10" height="25" fill="#C8C8C8" class="highcharts-point"></rect><rect x="105" y="53" width="10" height="17" fill="#C8C8C8" class="highcharts-point"></rect><rect x="85" y="63" width="10" height="26" fill="#C8C8C8" class="highcharts-point"></rect><rect x="65" y="62" width="10" height="14" fill="#C8C8C8" class="highcharts-point"></rect><rect x="25" y="84" width="10" height="20" fill="#C8C8C8" class="highcharts-point"></rect><rect x="5" y="58" width="10" height="21" fill="#C8C8C8" class="highcharts-point"></rect></g><g data-z-index="0.1" class="highcharts-markers highcharts-series-4 highcharts-column-series " transform="translate(460,651) rotate(90) scale(-1,1) scale(1 1)" clip-path="none"></g><g data-z-index="0.1" class="highcharts-series highcharts-series-5 highcharts-column-series " transform="translate(460,651) rotate(90) scale(-1,1) scale(1 1)" clip-path="url(#highcharts-qfi0527-7)"><rect x="465" y="0" width="10" height="62" fill="#6F6F6F" class="highcharts-point"></rect><rect x="445" y="0" width="10" height="55" fill="#6F6F6F" class="highcharts-point"></rect><rect x="405" y="0" width="10" height="49" fill="#6F6F6F" class="highcharts-point"></rect><rect x="385" y="0" width="10" height="64" fill="#6F6F6F" class="highcharts-point"></rect><rect x="345" y="0" width="10" height="32" fill="#6F6F6F" class="highcharts-point"></rect><rect x="325" y="0" width="10" height="43" fill="#6F6F6F" class="highcharts-point"></rect><rect x="305" y="0" width="10" height="99" fill="#6F6F6F" class="highcharts-point"></rect><rect x="265" y="0" width="10" height="59" fill="#6F6F6F" class="highcharts-point"></rect><rect x="245" y="0" width="10" height="39" fill="#6F6F6F" class="highcharts-point"></rect><rect x="205" y="0" width="10" height="61" fill="#6F6F6F" class="highcharts-point"></rect><rect x="185" y="0" width="10" height="57" fill="#6F6F6F" class="highcharts-point"></rect><rect x="165" y="0" width="10" height="43" fill="#6F6F6F" class="highcharts-point"></rect><rect x="125" y="0" width="10" height="52" fill="#6F6F6F" class="highcharts-point"></rect><rect x="105" y="0" width="10" height="53" fill="#6F6F6F" class="highcharts-point"></rect><rect x="85" y="0" width="10" height="63" fill="#6F6F6F" class="highcharts-point"></rect><rect x="65" y="0" width="10" height="62" fill="#6F6F6F" class="highcharts-point"></rect><rect x="25" y="0" width="10" height="84" fill="#6F6F6F" class="highcharts-point"></rect><rect x="5" y="0" width="10" height="58" fill="#6F6F6F" class="highcharts-point"></rect></g><g data-z-index="0.1" class="highcharts-markers highcharts-series-5 highcharts-column-series " transform="translate(460,651) rotate(90) scale(-1,1) scale(1 1)" clip-path="none"></g></g><text x="10" text-anchor="start" class="highcharts-title" data-z-index="4" style="color:#000000;font-size:14px;font-weight:bold;fill:#000000;" y="21"><tspan>Materielle Unterstützung von Freunden</tspan></text><text x="10" text-anchor="start" class="highcharts-subtitle" data-z-index="4" style="color:#000000;font-size:12px;fill:#000000;" y="40"><tspan>«Wie häufig unterstützen Sie oder ein anderes Mitglied Ihres Haushalts</tspan><tspan dy="15" x="10">Freunde/Bekannte materiell?» Stand: 2015</tspan></text><g class="highcharts-legend" data-z-index="7" transform="translate(165,71)"><rect fill="none" class="highcharts-legend-box" rx="0" ry="0" x="0" y="0" width="270" height="80" visibility="visible"></rect><g data-z-index="1"><g><g class="highcharts-legend-item highcharts-column-series highcharts-color-undefined highcharts-series-0" data-z-index="1" transform="translate(5,0)"><text x="21" style="color:#000000;font-size:12px;font-weight:normal;cursor:pointer;fill:#000000;" text-anchor="start" data-z-index="2" y="15"><tspan>Regelmässig</tspan></text><rect x="2" y="4" width="12" height="12" fill="#083038" class="highcharts-point" data-z-index="3"></rect></g><g class="highcharts-legend-item highcharts-column-series highcharts-color-undefined highcharts-series-1" data-z-index="1" transform="translate(140,0)"><text x="21" y="15" style="color:#000000;font-size:12px;font-weight:normal;cursor:pointer;fill:#000000;" text-anchor="start" data-z-index="2"><tspan>Hin und wieder</tspan></text><rect x="2" y="4" width="12" height="12" fill="#A8C3CA" class="highcharts-point" data-z-index="3"></rect></g><g class="highcharts-legend-item highcharts-column-series highcharts-color-undefined highcharts-series-2" data-z-index="1" transform="translate(5,20)"><text x="21" y="15" style="color:#000000;font-size:12px;font-weight:normal;cursor:pointer;fill:#000000;" text-anchor="start" data-z-index="2"><tspan>Selten</tspan></text><rect x="2" y="4" width="12" height="12" fill="#FFBB58" class="highcharts-point" data-z-index="3"></rect></g><g class="highcharts-legend-item highcharts-column-series highcharts-color-undefined highcharts-series-3" data-z-index="1" transform="translate(140,20)"><text x="21" y="15" style="color:#000000;font-size:12px;font-weight:normal;cursor:pointer;fill:#000000;" text-anchor="start" data-z-index="2"><tspan>Nie</tspan></text><rect x="2" y="4" width="12" height="12" fill="#B00000" class="highcharts-point" data-z-index="3"></rect></g><g class="highcharts-legend-item highcharts-column-series highcharts-color-undefined highcharts-series-4" data-z-index="1" transform="translate(5,40)"><text x="21" y="15" style="color:#000000;font-size:12px;font-weight:normal;cursor:pointer;fill:#000000;" text-anchor="start" data-z-index="2"><tspan>Nicht möglich/nicht</tspan><tspan dy="15" x="21">vorhanden</tspan></text><rect x="2" y="4" width="12" height="12" fill="#C8C8C8" class="highcharts-point" data-z-index="3"></rect></g><g class="highcharts-legend-item highcharts-column-series highcharts-color-undefined highcharts-series-5" data-z-index="1" transform="translate(140,40)"><text x="21" y="15" style="color:#000000;font-size:12px;font-weight:normal;cursor:pointer;fill:#000000;" text-anchor="start" data-z-index="2"><tspan>Keine Angabe</tspan></text><rect x="2" y="4" width="12" height="12" fill="#6F6F6F" class="highcharts-point" data-z-index="3"></rect></g></g></g></g><g class="highcharts-axis-labels highcharts-xaxis-labels " data-z-index="7"><text x="10" style="color:#000000;cursor:default;font-size:11px;white-space:nowrap;fill:#000000;" text-anchor="start" transform="translate(0,0)" y="165" opacity="1">Haushaltsform</text><text x="10" style="color:#000000;cursor:default;font-size:11px;white-space:nowrap;fill:#000000;" text-anchor="start" transform="translate(0,0)" y="185" opacity="1"><tspan>&amp;nbsp;&amp;nbsp;&amp;nbsp;Einpersonen-HH (n=506)</tspan></text><text x="10" style="color:#000000;cursor:default;font-size:11px;white-space:nowrap;fill:#000000;" text-anchor="start" transform="translate(0,0)" y="205" opacity="1"><tspan>&amp;nbsp;&amp;nbsp;&amp;nbsp;Mehrpersonen-HH (n=921)</tspan></text><text x="10" style="color:#000000;cursor:default;font-size:11px;white-space:nowrap;fill:#000000;" text-anchor="start" transform="translate(0,0)" y="225" opacity="1">Geschlecht</text><text x="10" style="color:#000000;cursor:default;font-size:11px;white-space:nowrap;fill:#000000;" text-anchor="start" transform="translate(0,0)" y="245" opacity="1"><tspan>&amp;nbsp;&amp;nbsp;&amp;nbsp;Männlich (n=627)</tspan></text><text x="10" style="color:#000000;cursor:default;font-size:11px;white-space:nowrap;fill:#000000;" text-anchor="start" transform="translate(0,0)" y="265" opacity="1"><tspan>&amp;nbsp;&amp;nbsp;&amp;nbsp;Weiblich (n=793)</tspan></text><text x="10" style="color:#000000;cursor:default;font-size:11px;white-space:nowrap;fill:#000000;" text-anchor="start" transform="translate(0,0)" y="285" opacity="1">Alter</text><text x="10" style="color:#000000;cursor:default;font-size:11px;white-space:nowrap;fill:#000000;" text-anchor="start" transform="translate(0,0)" y="305" opacity="1"><tspan>&amp;nbsp;&amp;nbsp;&amp;nbsp;55-64 Jahre (n=477)</tspan></text><text x="10" style="color:#000000;cursor:default;font-size:11px;white-space:nowrap;fill:#000000;" text-anchor="start" transform="translate(0,0)" y="325" opacity="1"><tspan>&amp;nbsp;&amp;nbsp;&amp;nbsp;65-74 Jahre (n=475)</tspan></text><text x="10" style="color:#000000;cursor:default;font-size:11px;white-space:nowrap;fill:#000000;" text-anchor="start" transform="translate(0,0)" y="345" opacity="1"><tspan>&amp;nbsp;&amp;nbsp;&amp;nbsp;&gt;74 Jahre (n=463)</tspan></text><text x="10" style="color:#000000;cursor:default;font-size:11px;white-space:nowrap;fill:#000000;" text-anchor="start" transform="translate(0,0)" y="365" opacity="1">Staatsangehörigkeit</text><text x="10" style="color:#000000;cursor:default;font-size:11px;white-space:nowrap;fill:#000000;" text-anchor="start" transform="translate(0,0)" y="385" opacity="1"><tspan>&amp;nbsp;&amp;nbsp;&amp;nbsp;Schweiz (n=1 309)</tspan></text><text x="10" style="color:#000000;cursor:default;font-size:11px;white-space:nowrap;fill:#000000;" text-anchor="start" transform="translate(0,0)" y="405" opacity="1"><tspan>&amp;nbsp;&amp;nbsp;&amp;nbsp;Ausland (n=107)</tspan></text><text x="10" style="color:#000000;cursor:default;font-size:11px;white-space:nowrap;fill:#000000;" text-anchor="start" transform="translate(0,0)" y="425" opacity="1">Haushaltseinkommen</text><text x="10" style="color:#000000;cursor:default;font-size:11px;white-space:nowrap;fill:#000000;" text-anchor="start" transform="translate(0,0)" y="445" opacity="1"><tspan>&amp;nbsp;&amp;nbsp;&amp;nbsp;&lt;5 000 Fr. (n=447)</tspan></text><text x="10" style="color:#000000;cursor:default;font-size:11px;white-space:nowrap;fill:#000000;" text-anchor="start" transform="translate(0,0)" y="465" opacity="1"><tspan>&amp;nbsp;&amp;nbsp;&amp;nbsp;5 000-7 499 Fr. (n=327)</tspan></text><text x="10" style="color:#000000;cursor:default;font-size:11px;white-space:nowrap;fill:#000000;" text-anchor="start" transform="translate(0,0)" y="485" opacity="1"><tspan>&amp;nbsp;&amp;nbsp;&amp;nbsp;&gt;7 499 Fr. (n=449)</tspan></text><text x="10" style="color:#000000;cursor:default;font-size:11px;white-space:nowrap;fill:#000000;" text-anchor="start" transform="translate(0,0)" y="505" opacity="1">Wahlkreis</text><text x="10" style="color:#000000;cursor:default;font-size:11px;white-space:nowrap;fill:#000000;" text-anchor="start" transform="translate(0,0)" y="525" opacity="1"><tspan>&amp;nbsp;&amp;nbsp;&amp;nbsp;Grossbasel Ost (n=404)</tspan></text><text x="10" style="color:#000000;cursor:default;font-size:11px;white-space:nowrap;fill:#000000;" text-anchor="start" transform="translate(0,0)" y="545" opacity="1"><tspan>&amp;nbsp;&amp;nbsp;&amp;nbsp;Grossbasel West (n=438)</tspan></text><text x="10" style="color:#000000;cursor:default;font-size:11px;white-space:nowrap;fill:#000000;" text-anchor="start" transform="translate(0,0)" y="565" opacity="1"><tspan>&amp;nbsp;&amp;nbsp;&amp;nbsp;Kleinbasel (n=288)</tspan></text><text x="10" style="color:#000000;cursor:default;font-size:11px;white-space:nowrap;fill:#000000;" text-anchor="start" transform="translate(0,0)" y="585" opacity="1"><tspan>&amp;nbsp;&amp;nbsp;&amp;nbsp;Riehen, Bettingen (n=252)</tspan></text><text x="10" style="color:#000000;cursor:default;font-size:11px;white-space:nowrap;fill:#000000;" text-anchor="start" transform="translate(0,0)" y="605" opacity="1">Befragungsjahr</text><text x="10" style="color:#000000;cursor:default;font-size:11px;white-space:nowrap;fill:#000000;" text-anchor="start" transform="translate(0,0)" y="625" opacity="1"><tspan>&amp;nbsp;&amp;nbsp;&amp;nbsp;2011 (N=1 689)</tspan></text><text x="10" style="color:#000000;cursor:default;font-size:11px;white-space:nowrap;fill:#000000;" text-anchor="start" transform="translate(0,0)" y="645" opacity="1"><tspan>&amp;nbsp;&amp;nbsp;&amp;nbsp;2015 (N=1 427)</tspan></text></g><g class="highcharts-axis-labels highcharts-yaxis-labels " data-z-index="7"><text x="170" style="color:#000000;cursor:default;font-size:11px;fill:#000000;" text-anchor="middle" transform="translate(0,0)" y="670" opacity="1">0%</text><text x="228" style="color:#000000;cursor:default;font-size:11px;fill:#000000;" text-anchor="middle" transform="translate(0,0)" y="670" opacity="1">20%</text><text x="286" style="color:#000000;cursor:default;font-size:11px;fill:#000000;" text-anchor="middle" transform="translate(0,0)" y="670" opacity="1">40%</text><text x="344" style="color:#000000;cursor:default;font-size:11px;fill:#000000;" text-anchor="middle" transform="translate(0,0)" y="670" opacity="1">60%</text><text x="402" style="color:#000000;cursor:default;font-size:11px;fill:#000000;" text-anchor="middle" transform="translate(0,0)" y="670" opacity="1">80%</text><text x="460" style="color:#000000;cursor:default;font-size:11px;fill:#000000;" text-anchor="middle" transform="translate(0,0)" y="670" opacity="1">100%</text></g><text x="10" class="highcharts-credits" text-anchor="start" data-z-index="8" style="cursor:default;color:#000000;font-size:10px;fill:#000000;" y="688"><tspan>Quelle: Statistisches Amt Basel-Stadt, kantonale Befragung 55plus.</tspan><tspan x="10" dy="13">Zuletzt geändert: 2020-5-18</tspan></text></svg>