<?xml version="1.0" standalone="no"?><!DOCTYPE svg PUBLIC "-//W3C//DTD SVG 1.1//EN" "http://www.w3.org/Graphics/SVG/1.1/DTD/svg11.dtd"><svg xmlns:xlink="http://www.w3.org/1999/xlink" version="1.1" class="highcharts-root" style="font-family:Arial;font-size:10px;color:#000000;fill:#000000;" xmlns="http://www.w3.org/2000/svg" viewBox="0 0 485 415"><desc>Created with Highcharts 8.2.0</desc><defs><clipPath id="highcharts-voj3qkr-17-"><rect x="0" y="0" width="270" height="157" fill="none"></rect></clipPath><clipPath id="highcharts-voj3qkr-29-"><rect x="0" y="0" width="270" height="157" fill="none"></rect></clipPath></defs><rect fill="#fbfbfb" class="highcharts-background" x="0" y="0" width="320" height="221" rx="0" ry="0"></rect><rect fill="none" class="highcharts-plot-background" x="35" y="7" width="270" height="157"></rect><g class="highcharts-pane-group" data-z-index="0"></g><g class="highcharts-grid highcharts-xaxis-grid" data-z-index="1"><path fill="none" data-z-index="1" class="highcharts-grid-line" d="M 48.5 7 L 48.5 164" opacity="1"></path><path fill="none" data-z-index="1" class="highcharts-grid-line" d="M 73.5 7 L 73.5 164" opacity="1"></path><path fill="none" data-z-index="1" class="highcharts-grid-line" d="M 97.5 7 L 97.5 164" opacity="1"></path><path fill="none" data-z-index="1" class="highcharts-grid-line" d="M 121.5 7 L 121.5 164" opacity="1"></path><path fill="none" data-z-index="1" class="highcharts-grid-line" d="M 145.5 7 L 145.5 164" opacity="1"></path><path fill="none" data-z-index="1" class="highcharts-grid-line" d="M 169.5 7 L 169.5 164" opacity="1"></path><path fill="none" data-z-index="1" class="highcharts-grid-line" d="M 193.5 7 L 193.5 164" opacity="1"></path><path fill="none" data-z-index="1" class="highcharts-grid-line" d="M 217.5 7 L 217.5 164" opacity="1"></path><path fill="none" data-z-index="1" class="highcharts-grid-line" d="M 241.5 7 L 241.5 164" opacity="1"></path><path fill="none" data-z-index="1" class="highcharts-grid-line" d="M 265.5 7 L 265.5 164" opacity="1"></path><path fill="none" data-z-index="1" class="highcharts-grid-line" d="M 290.5 7 L 290.5 164" opacity="1"></path></g><g class="highcharts-grid highcharts-yaxis-grid" data-z-index="1"><path fill="none" stroke="#B9CFD7" stroke-width="0.5" data-z-index="1" class="highcharts-grid-line" d="M 35 164.25 L 305 164.25" opacity="1"></path><path fill="none" stroke="#B9CFD7" stroke-width="0.5" data-z-index="1" class="highcharts-grid-line" d="M 35 112.25 L 305 112.25" opacity="1"></path><path fill="none" stroke="#B9CFD7" stroke-width="0.5" data-z-index="1" class="highcharts-grid-line" d="M 35 59.25 L 305 59.25" opacity="1"></path><path fill="none" stroke="#B9CFD7" stroke-width="0.5" data-z-index="1" class="highcharts-grid-line" d="M 35 6.75 L 305 6.75" opacity="1"></path></g><rect fill="none" class="highcharts-plot-border" data-z-index="1" x="35" y="7" width="270" height="157"></rect><g class="highcharts-axis highcharts-xaxis" data-z-index="2"><path fill="none" class="highcharts-axis-line" stroke="#B9CFD7" stroke-width="0.5" data-z-index="7" d="M 35 164.25 L 305 164.25"></path></g><g class="highcharts-axis highcharts-yaxis" data-z-index="2"><path fill="none" class="highcharts-axis-line" data-z-index="7" d="M 35 7 L 35 164"></path></g><g class="highcharts-series-group" data-z-index="3"><g class="highcharts-series highcharts-series-0 highcharts-column-series" data-z-index="0.1" opacity="1" transform="translate(35,7) scale(1 1)" clip-path="url(#highcharts-voj3qkr-29-)"><rect x="9" y="45" width="12" height="113" fill="#73BA7C" opacity="1" class="highcharts-point"></rect><rect x="33" y="49" width="12" height="109" fill="#73BA7C" opacity="1" class="highcharts-point"></rect><rect x="57" y="38" width="12" height="120" fill="#73BA7C" opacity="1" class="highcharts-point"></rect><rect x="81" y="12" width="12" height="146" fill="#73BA7C" opacity="1" class="highcharts-point"></rect><rect x="105" y="29" width="12" height="129" fill="#73BA7C" opacity="1" class="highcharts-point"></rect><rect x="129" y="43" width="12" height="115" fill="#73BA7C" opacity="1" class="highcharts-point"></rect><rect x="153" y="47" width="12" height="111" fill="#73BA7C" opacity="1" class="highcharts-point"></rect><rect x="177" y="47" width="12" height="111" fill="#73BA7C" opacity="1" class="highcharts-point"></rect><rect x="202" y="43" width="12" height="115" fill="#73BA7C" opacity="1" class="highcharts-point"></rect><rect x="226" y="50" width="12" height="108" fill="#73BA7C" opacity="1" class="highcharts-point"></rect><rect x="250" y="47" width="12" height="111" fill="#73BA7C" opacity="1" class="highcharts-point"></rect></g><g class="highcharts-markers highcharts-series-0 highcharts-column-series" data-z-index="0.1" opacity="1" transform="translate(35,7) scale(1 1)" clip-path="none"></g></g><text x="2" text-anchor="start" class="highcharts-title" data-z-index="4" style="color:#000000;font-size:10px;font-weight:bold;fill:#000000;" y="9"><tspan>Angezeigte Straftaten betreffend Strafgesetzbuch</tspan></text><text x="2" text-anchor="start" class="highcharts-subtitle" data-z-index="4" style="color:#000000;font-size:10px;font-weight:normal;font-family:Arial;fill:#000000;" y="26"><tspan>pro 1000 Einwohner, Basel-Stadt</tspan></text><text x="2" text-anchor="start" class="highcharts-caption" data-z-index="4" style="color:#666666;fill:#666666;" y="209"></text><g class="highcharts-axis-labels highcharts-xaxis-labels" data-z-index="7"><text x="52.0547722524739" style="color:#000000;cursor:default;font-size:10px;fill:#000000;" text-anchor="end" transform="translate(0,0) rotate(309 52.0547722524739 178)" y="178" opacity="1">2009</text><text x="76.16191510961691" style="color:#000000;cursor:default;font-size:10px;fill:#000000;" text-anchor="end" transform="translate(0,0) rotate(309 76.16191510961691 178)" y="178" opacity="1">2010</text><text x="100.2690579667599" style="color:#000000;cursor:default;font-size:10px;fill:#000000;" text-anchor="end" transform="translate(0,0) rotate(309 100.2690579667599 178)" y="178" opacity="1">2011</text><text x="124.37620082389991" style="color:#000000;cursor:default;font-size:10px;fill:#000000;" text-anchor="end" transform="translate(0,0) rotate(309 124.37620082389991 178)" y="178" opacity="1">2012</text><text x="148.48334368104992" style="color:#000000;cursor:default;font-size:10px;fill:#000000;" text-anchor="end" transform="translate(0,0) rotate(309 148.48334368104992 178)" y="178" opacity="1">2013</text><text x="172.5904865381899" style="color:#000000;cursor:default;font-size:10px;fill:#000000;" text-anchor="end" transform="translate(0,0) rotate(309 172.5904865381899 178)" y="178" opacity="1">2014</text><text x="196.6976293953299" style="color:#000000;cursor:default;font-size:10px;fill:#000000;" text-anchor="end" transform="translate(0,0) rotate(309 196.6976293953299 178)" y="178" opacity="1">2015</text><text x="220.80477225247992" style="color:#000000;cursor:default;font-size:10px;fill:#000000;" text-anchor="end" transform="translate(0,0) rotate(309 220.80477225247992 178)" y="178" opacity="1">2016</text><text x="244.9119151096199" style="color:#000000;cursor:default;font-size:10px;fill:#000000;" text-anchor="end" transform="translate(0,0) rotate(309 244.9119151096199 178)" y="178" opacity="1">2017</text><text x="269.01905796675993" style="color:#000000;cursor:default;font-size:10px;fill:#000000;" text-anchor="end" transform="translate(0,0) rotate(309 269.01905796675993 178)" y="178" opacity="1">2018</text><text x="293.1262008239099" style="color:#000000;cursor:default;font-size:10px;fill:#000000;" text-anchor="end" transform="translate(0,0) rotate(309 293.1262008239099 178)" y="178" opacity="1">2019</text></g><g class="highcharts-axis-labels highcharts-yaxis-labels" data-z-index="7"><text x="20" style="color:#000000;cursor:default;font-size:10px;fill:#000000;" text-anchor="end" transform="translate(0,0)" y="167" opacity="1">0</text><text x="20" style="color:#000000;cursor:default;font-size:10px;fill:#000000;" text-anchor="end" transform="translate(0,0)" y="115" opacity="1">50</text><text x="20" style="color:#000000;cursor:default;font-size:10px;fill:#000000;" text-anchor="end" transform="translate(0,0)" y="62" opacity="1">100</text><text x="20" style="color:#000000;cursor:default;font-size:10px;fill:#000000;" text-anchor="end" transform="translate(0,0)" y="10" opacity="1">150</text></g><text x="10" class="highcharts-credits" text-anchor="start" data-z-index="8" style="cursor:default;color:#000000;font-size:10px;fill:#000000;" y="186"><tspan>Quelle: Statistisches Amt Basel-Stadt, Bevölkerungsstatistik;</tspan><tspan x="10" dy="13">Bundesamt für Statistik (BFS), Polizeiliche Kriminalstatistik (PKS).</tspan><tspan x="10" dy="13">Zuletzt geändert: 2020-12-18</tspan></text></svg>