<?xml version="1.0" standalone="no"?><!DOCTYPE svg PUBLIC "-//W3C//DTD SVG 1.1//EN" "http://www.w3.org/Graphics/SVG/1.1/DTD/svg11.dtd"><svg xmlns:xlink="http://www.w3.org/1999/xlink" version="1.1" class="highcharts-root" style="font-family:Arial;font-size:12px;" xmlns="http://www.w3.org/2000/svg" viewBox="0 0 485 415"><desc>Created with Highstock 6.1.1</desc><defs><clipPath id="highcharts-57go1b5-6"><rect x="0" y="0" width="264" height="167" fill="none"></rect></clipPath><clipPath id="highcharts-57go1b5-7"><rect x="0" y="0" width="264" height="167" fill="none"></rect></clipPath></defs><rect fill="#fbfbfb" class="highcharts-background" x="0" y="0" width="320" height="221" rx="0" ry="0"></rect><rect fill="none" class="highcharts-plot-background" x="56" y="7" width="264" height="167"></rect><g class="highcharts-pane-group" data-z-index="0"></g><g class="highcharts-grid highcharts-xaxis-grid " data-z-index="1"><path fill="none" data-z-index="1" class="highcharts-grid-line" d="M 65.5 7 L 65.5 174" opacity="1"></path><path fill="none" data-z-index="1" class="highcharts-grid-line" d="M 90.5 7 L 90.5 174" opacity="1"></path><path fill="none" data-z-index="1" class="highcharts-grid-line" d="M 115.5 7 L 115.5 174" opacity="1"></path><path fill="none" data-z-index="1" class="highcharts-grid-line" d="M 140.5 7 L 140.5 174" opacity="1"></path><path fill="none" data-z-index="1" class="highcharts-grid-line" d="M 165.5 7 L 165.5 174" opacity="1"></path><path fill="none" data-z-index="1" class="highcharts-grid-line" d="M 191.5 7 L 191.5 174" opacity="1"></path><path fill="none" data-z-index="1" class="highcharts-grid-line" d="M 216.5 7 L 216.5 174" opacity="1"></path><path fill="none" data-z-index="1" class="highcharts-grid-line" d="M 241.5 7 L 241.5 174" opacity="1"></path><path fill="none" data-z-index="1" class="highcharts-grid-line" d="M 266.5 7 L 266.5 174" opacity="1"></path><path fill="none" data-z-index="1" class="highcharts-grid-line" d="M 291.5 7 L 291.5 174" opacity="1"></path><path fill="none" data-z-index="1" class="highcharts-grid-line" d="M 316.5 7 L 316.5 174" opacity="1"></path></g><g class="highcharts-grid highcharts-yaxis-grid " data-z-index="1"><path fill="none" stroke="#B9CFD7" stroke-width="0.5" data-z-index="1" class="highcharts-grid-line" d="M 56 174.25 L 320 174.25" opacity="1"></path><path fill="none" stroke="#B9CFD7" stroke-width="0.5" data-z-index="1" class="highcharts-grid-line" d="M 56 141.25 L 320 141.25" opacity="1"></path><path fill="none" stroke="#B9CFD7" stroke-width="0.5" data-z-index="1" class="highcharts-grid-line" d="M 56 107.25 L 320 107.25" opacity="1"></path><path fill="none" stroke="#B9CFD7" stroke-width="0.5" data-z-index="1" class="highcharts-grid-line" d="M 56 74.25 L 320 74.25" opacity="1"></path><path fill="none" stroke="#B9CFD7" stroke-width="0.5" data-z-index="1" class="highcharts-grid-line" d="M 56 40.25 L 320 40.25" opacity="1"></path><path fill="none" stroke="#B9CFD7" stroke-width="0.5" data-z-index="1" class="highcharts-grid-line" d="M 56 6.75 L 320 6.75" opacity="1"></path></g><rect fill="none" class="highcharts-plot-border" data-z-index="1" x="56" y="7" width="264" height="167"></rect><g class="highcharts-axis highcharts-xaxis " data-z-index="2"><path fill="none" class="highcharts-axis-line" stroke="#B9CFD7" stroke-width="0.5" data-z-index="7" d="M 56 174.25 L 320 174.25"></path></g><g class="highcharts-axis highcharts-yaxis " data-z-index="2"><path fill="none" class="highcharts-axis-line" data-z-index="7" d="M 56 7 L 56 174"></path></g><g class="highcharts-series-group" data-z-index="3"><g data-z-index="0.1" class="highcharts-series highcharts-series-0 highcharts-area-series highcharts-color-0 " transform="translate(56,7) scale(1 1)" clip-path="url(#highcharts-57go1b5-7)"><path fill="rgb(124,181,236)" fill-opacity="0.75" d="M -972.06200923842 155.827032 L -765.66027746581 154.73218 L -664.96810098665 151.466328 L -654.89199133487 150.756912 L -604.55279509916 148.25124399999999 L -589.44552262535 147.25726 L -539.09254238191 139.82576 L -488.7533461462 135.57728 L -438.40036590275 124.109724 L -398.12349531109 117.735668 L -337.72197343133 92.032364 L -332.6908106093 90.75448 L -327.65964778728 89.09784 L -322.62848496525 87.53472000000001 L -317.58353813549 85.78456 L -312.55237531347 84.21476 L -307.52121249144 82.21076000000001 L -302.49004966942 80.57416 L -297.44510283966 79.5922 L -292.41394001764 78.03576000000001 L -287.38277719561 76.037772 L -282.35161437359 74.65835200000001 L -277.30666754383 72.478668 L -272.27550472181 70.81868800000001 L -267.24434189978 72.50939600000001 L -262.21317907776 73.6804 L -257.168232248 73.78527600000001 L -252.13706942597 73.998368 L -247.10590660395 75.097896 L -242.07474378192 74.078528 L -237.02979695217 72.86544 L -231.99863413014 73.08254000000001 L -226.96747130812 72.81133200000001 L -221.93630848609 72.24086 L -216.89136165634 71.721824 L -211.86019883431 70.832048 L -206.82903601229 68.978348 L -201.79787319026 68.087236 L -196.75292636051 66.44596 L -191.72176353848 64.549508 L -186.69060071646 63.399212000000006 L -181.65943789443 60.75192800000001 L -176.61449106467 58.028492 L -171.58332824265 56.619012 L -166.55216542062 55.333780000000004 L -161.5210025986 54.42329600000001 L -156.47605576884 54.22356400000001 L -151.44489294682 54.243604000000005 L -146.41373012479 53.6404 L -141.38256730277 53.395244000000005 L -136.33762047301 54.020492000000004 L -131.30645765099 53.466052000000005 L -126.27529482896 52.877544 L -121.24413200694 52.16812800000001 L -116.19918517718 50.816096 L -111.16802235515 48.90160800000001 L -106.13685953313 45.69454 L -101.1056967111 42.425348 L -96.060749881348 39.563636 L -91.029587059323 37.83618799999999 L -85.998424237298 35.858908000000014 L -80.967261415273 33.742684 L -75.922314585516 32.259724000000006 L -70.891151763491 30.472156000000012 L -65.859988941467 29.114779999999996 L -60.828826119442 27.595748000000015 L -55.783879289685 25.85360400000002 L -50.75271646766 23.255752 L -45.721553645635 21.11214000000001 L -40.69039082361 19.97587200000001 L -35.645443993854 18.377348000000012 L -30.614281171829 16.62585200000001 L -25.583118349804 14.565740000000005 L -20.551955527779 12.959868 L -15.507008698022 12.150920000000013 L -10.475845875997 12.181647999999996 L -5.4446830539722 11.963211999999999 L -0.41352023194726 12.528340000000014 L 4.6314265978093 11.61184400000002 L 9.6625894198342 11.492940000000004 L 14.693752241859 9.205708000000016 L 19.724915063884 11.770827999999995 L 24.769861893641 13.382711999999998 L 29.801024715666 15.13487600000002 L 34.832187537691 17.476884000000013 L 39.863350359716 19.816888000000006 L 44.908297189472 22.709328 L 49.939460011497 25.086072 L 54.970622833522 26.698623999999995 L 60.001785655547 28.003228000000007 L 65.046732485304 29.035956 L 70.077895307329 30.055992000000003 L 75.109058129354 30.848907999999994 L 80.140220951378 31.326527999999996 L 85.185167781135 31.871616000000017 L 90.21633060316 32.128795999999994 L 95.247493425185 33.70193600000002 L 100.27865624721 34.599728 L 105.32360307697 35.80145999999999 L 110.35476589899 36.166188000000005 L 115.38592872102 35.79210800000001 L 120.41709154304 34.67320800000002 L 125.4620383728 34.43139200000002 L 130.49320119482 33.94375200000002 L 135.52436401685 34.24902800000001 L 140.55552683887 34.86826400000001 L 145.60047366863 35.74534800000001 L 150.63163649065 37.238996000000014 L 155.66279931268 38.663172 L 160.6939621347 39.98581200000001 L 165.73890896446 41.02789200000001 L 170.77007178649 41.777388 L 175.80123460851 41.40598 L 180.83239743054 41.27371600000001 L 185.87734426029 41.097364 L 190.90850708232 41.469440000000006 L 195.93966990434 41.554944000000006 L 200.97083272637 41.41600000000001 L 206.01577955612 40.376592 L 211.04694237815 39.53558000000001 L 216.07810520017 39.54626800000001 L 221.1092680222 38.617080000000016 L 226.15421485196 37.76938799999999 L 231.18537767398 36.43338800000001 L 236.216540496 35.757372000000004 L 241.24770331803 35.267728000000005 L 246.29265014779 34.59839200000002 L 251.32381296981 34.07601600000001 L 256.35497579184 33.228992000000005 L 261.38613861386 33.128124000000014 L 261.38613861386 167 L 256.35497579184 167 L 251.32381296981 167 L 246.29265014779 167 L 241.24770331803 167 L 236.216540496 167 L 231.18537767398 167 L 226.15421485196 167 L 221.1092680222 167 L 216.07810520017 167 L 211.04694237815 167 L 206.01577955612 167 L 200.97083272637 167 L 195.93966990434 167 L 190.90850708232 167 L 185.87734426029 167 L 180.83239743054 167 L 175.80123460851 167 L 170.77007178649 167 L 165.73890896446 167 L 160.6939621347 167 L 155.66279931268 167 L 150.63163649065 167 L 145.60047366863 167 L 140.55552683887 167 L 135.52436401685 167 L 130.49320119482 167 L 125.4620383728 167 L 120.41709154304 167 L 115.38592872102 167 L 110.35476589899 167 L 105.32360307697 167 L 100.27865624721 167 L 95.247493425185 167 L 90.21633060316 167 L 85.185167781135 167 L 80.140220951378 167 L 75.109058129354 167 L 70.077895307329 167 L 65.046732485304 167 L 60.001785655547 167 L 54.970622833522 167 L 49.939460011497 167 L 44.908297189472 167 L 39.863350359716 167 L 34.832187537691 167 L 29.801024715666 167 L 24.769861893641 167 L 19.724915063884 167 L 14.693752241859 167 L 9.6625894198342 167 L 4.6314265978093 167 L -0.41352023194726 167 L -5.4446830539722 167 L -10.475845875997 167 L -15.507008698022 167 L -20.551955527779 167 L -25.583118349804 167 L -30.614281171829 167 L -35.645443993854 167 L -40.69039082361 167 L -45.721553645635 167 L -50.75271646766 167 L -55.783879289685 167 L -60.828826119442 167 L -65.859988941467 167 L -70.891151763491 167 L -75.922314585516 167 L -80.967261415273 167 L -85.998424237298 167 L -91.029587059323 167 L -96.060749881348 167 L -101.1056967111 167 L -106.13685953313 167 L -111.16802235515 167 L -116.19918517718 167 L -121.24413200694 167 L -126.27529482896 167 L -131.30645765099 167 L -136.33762047301 167 L -141.38256730277 167 L -146.41373012479 167 L -151.44489294682 167 L -156.47605576884 167 L -161.5210025986 167 L -166.55216542062 167 L -171.58332824265 167 L -176.61449106467 167 L -181.65943789443 167 L -186.69060071646 167 L -191.72176353848 167 L -196.75292636051 167 L -201.79787319026 167 L -206.82903601229 167 L -211.86019883431 167 L -216.89136165634 167 L -221.93630848609 167 L -226.96747130812 167 L -231.99863413014 167 L -237.02979695217 167 L -242.07474378192 167 L -247.10590660395 167 L -252.13706942597 167 L -257.168232248 167 L -262.21317907776 167 L -267.24434189978 167 L -272.27550472181 167 L -277.30666754383 167 L -282.35161437359 167 L -287.38277719561 167 L -292.41394001764 167 L -297.44510283966 167 L -302.49004966942 167 L -307.52121249144 167 L -312.55237531347 167 L -317.58353813549 167 L -322.62848496525 167 L -327.65964778728 167 L -332.6908106093 167 L -337.72197343133 167 L -398.12349531109 167 L -438.40036590275 167 L -488.7533461462 167 L -539.09254238191 167 L -589.44552262535 167 L -604.55279509916 167 L -654.89199133487 167 L -664.96810098665 167 L -765.66027746581 167 L -972.06200923842 167" class="highcharts-area" data-z-index="0"></path><path fill="none" d="M -972.06200923842 155.827032 L -765.66027746581 154.73218 L -664.96810098665 151.466328 L -654.89199133487 150.756912 L -604.55279509916 148.25124399999999 L -589.44552262535 147.25726 L -539.09254238191 139.82576 L -488.7533461462 135.57728 L -438.40036590275 124.109724 L -398.12349531109 117.735668 L -337.72197343133 92.032364 L -332.6908106093 90.75448 L -327.65964778728 89.09784 L -322.62848496525 87.53472000000001 L -317.58353813549 85.78456 L -312.55237531347 84.21476 L -307.52121249144 82.21076000000001 L -302.49004966942 80.57416 L -297.44510283966 79.5922 L -292.41394001764 78.03576000000001 L -287.38277719561 76.037772 L -282.35161437359 74.65835200000001 L -277.30666754383 72.478668 L -272.27550472181 70.81868800000001 L -267.24434189978 72.50939600000001 L -262.21317907776 73.6804 L -257.168232248 73.78527600000001 L -252.13706942597 73.998368 L -247.10590660395 75.097896 L -242.07474378192 74.078528 L -237.02979695217 72.86544 L -231.99863413014 73.08254000000001 L -226.96747130812 72.81133200000001 L -221.93630848609 72.24086 L -216.89136165634 71.721824 L -211.86019883431 70.832048 L -206.82903601229 68.978348 L -201.79787319026 68.087236 L -196.75292636051 66.44596 L -191.72176353848 64.549508 L -186.69060071646 63.399212000000006 L -181.65943789443 60.75192800000001 L -176.61449106467 58.028492 L -171.58332824265 56.619012 L -166.55216542062 55.333780000000004 L -161.5210025986 54.42329600000001 L -156.47605576884 54.22356400000001 L -151.44489294682 54.243604000000005 L -146.41373012479 53.6404 L -141.38256730277 53.395244000000005 L -136.33762047301 54.020492000000004 L -131.30645765099 53.466052000000005 L -126.27529482896 52.877544 L -121.24413200694 52.16812800000001 L -116.19918517718 50.816096 L -111.16802235515 48.90160800000001 L -106.13685953313 45.69454 L -101.1056967111 42.425348 L -96.060749881348 39.563636 L -91.029587059323 37.83618799999999 L -85.998424237298 35.858908000000014 L -80.967261415273 33.742684 L -75.922314585516 32.259724000000006 L -70.891151763491 30.472156000000012 L -65.859988941467 29.114779999999996 L -60.828826119442 27.595748000000015 L -55.783879289685 25.85360400000002 L -50.75271646766 23.255752 L -45.721553645635 21.11214000000001 L -40.69039082361 19.97587200000001 L -35.645443993854 18.377348000000012 L -30.614281171829 16.62585200000001 L -25.583118349804 14.565740000000005 L -20.551955527779 12.959868 L -15.507008698022 12.150920000000013 L -10.475845875997 12.181647999999996 L -5.4446830539722 11.963211999999999 L -0.41352023194726 12.528340000000014 L 4.6314265978093 11.61184400000002 L 9.6625894198342 11.492940000000004 L 14.693752241859 9.205708000000016 L 19.724915063884 11.770827999999995 L 24.769861893641 13.382711999999998 L 29.801024715666 15.13487600000002 L 34.832187537691 17.476884000000013 L 39.863350359716 19.816888000000006 L 44.908297189472 22.709328 L 49.939460011497 25.086072 L 54.970622833522 26.698623999999995 L 60.001785655547 28.003228000000007 L 65.046732485304 29.035956 L 70.077895307329 30.055992000000003 L 75.109058129354 30.848907999999994 L 80.140220951378 31.326527999999996 L 85.185167781135 31.871616000000017 L 90.21633060316 32.128795999999994 L 95.247493425185 33.70193600000002 L 100.27865624721 34.599728 L 105.32360307697 35.80145999999999 L 110.35476589899 36.166188000000005 L 115.38592872102 35.79210800000001 L 120.41709154304 34.67320800000002 L 125.4620383728 34.43139200000002 L 130.49320119482 33.94375200000002 L 135.52436401685 34.24902800000001 L 140.55552683887 34.86826400000001 L 145.60047366863 35.74534800000001 L 150.63163649065 37.238996000000014 L 155.66279931268 38.663172 L 160.6939621347 39.98581200000001 L 165.73890896446 41.02789200000001 L 170.77007178649 41.777388 L 175.80123460851 41.40598 L 180.83239743054 41.27371600000001 L 185.87734426029 41.097364 L 190.90850708232 41.469440000000006 L 195.93966990434 41.554944000000006 L 200.97083272637 41.41600000000001 L 206.01577955612 40.376592 L 211.04694237815 39.53558000000001 L 216.07810520017 39.54626800000001 L 221.1092680222 38.617080000000016 L 226.15421485196 37.76938799999999 L 231.18537767398 36.43338800000001 L 236.216540496 35.757372000000004 L 241.24770331803 35.267728000000005 L 246.29265014779 34.59839200000002 L 251.32381296981 34.07601600000001 L 256.35497579184 33.228992000000005 L 261.38613861386 33.128124000000014" class="highcharts-graph" data-z-index="1" stroke="#7cb5ec" stroke-width="2" stroke-linejoin="round" stroke-linecap="round"></path></g><g data-z-index="0.1" class="highcharts-markers highcharts-series-0 highcharts-area-series highcharts-color-0 " transform="translate(56,7) scale(1 1)" clip-path="none"></g></g><text x="2" text-anchor="start" class="highcharts-title" data-z-index="4" style="color:#000000;font-size:10px;font-weight:bold;fill:#000000;" y="13"><tspan>Bevölkerungsbestand am Jahresende</tspan></text><text x="2" text-anchor="start" class="highcharts-subtitle" data-z-index="4" style="color:#000000;font-size:10px;font-weight:normal;font-family:Arial;fill:#000000;" y="30"><tspan>Basel-Stadt</tspan></text><g class="highcharts-axis-labels highcharts-xaxis-labels " data-z-index="7"><text x="68.03339603152116" style="color:#000000;cursor:default;font-size:10px;white-space:nowrap;fill:#000000;" text-anchor="end" transform="translate(0,0) rotate(-45 68.03339603152116 189)" y="189" opacity="1">1970</text><text x="93.20299414937716" style="color:#000000;cursor:default;font-size:10px;white-space:nowrap;fill:#000000;" text-anchor="end" transform="translate(0,0) rotate(-45 93.20299414937716 189)" y="189" opacity="1">1975</text><text x="118.37259226723516" style="color:#000000;cursor:default;font-size:10px;white-space:nowrap;fill:#000000;" text-anchor="end" transform="translate(0,0) rotate(-45 118.37259226723516 189)" y="189" opacity="1">1980</text><text x="143.55597439282516" style="color:#000000;cursor:default;font-size:10px;white-space:nowrap;fill:#000000;" text-anchor="end" transform="translate(0,0) rotate(-45 143.55597439282516 189)" y="189" opacity="1">1985</text><text x="168.72557251067516" style="color:#000000;cursor:default;font-size:10px;white-space:nowrap;fill:#000000;" text-anchor="end" transform="translate(0,0) rotate(-45 168.72557251067516 189)" y="189" opacity="1">1990</text><text x="193.89517062853517" style="color:#000000;cursor:default;font-size:10px;white-space:nowrap;fill:#000000;" text-anchor="end" transform="translate(0,0) rotate(-45 193.89517062853517 189)" y="189" opacity="1">1995</text><text x="219.06476874639515" style="color:#000000;cursor:default;font-size:10px;white-space:nowrap;fill:#000000;" text-anchor="end" transform="translate(0,0) rotate(-45 219.06476874639515 189)" y="189" opacity="1">2000</text><text x="244.24815087197516" style="color:#000000;cursor:default;font-size:10px;white-space:nowrap;fill:#000000;" text-anchor="end" transform="translate(0,0) rotate(-45 244.24815087197516 189)" y="189" opacity="1">2005</text><text x="269.41774898983516" style="color:#000000;cursor:default;font-size:10px;white-space:nowrap;fill:#000000;" text-anchor="end" transform="translate(0,0) rotate(-45 269.41774898983516 189)" y="189" opacity="1">2010</text><text x="294.58734710769517" style="color:#000000;cursor:default;font-size:10px;white-space:nowrap;fill:#000000;" text-anchor="end" transform="translate(0,0) rotate(-45 294.58734710769517 189)" y="189" opacity="1">2015</text><text x="319.75694522554517" style="color:#000000;cursor:default;font-size:10px;white-space:nowrap;fill:#000000;" text-anchor="end" transform="translate(0,0) rotate(-45 319.75694522554517 189)" y="189" opacity="1">2020</text></g><g class="highcharts-axis-labels highcharts-yaxis-labels " data-z-index="7"><text x="41" style="color:#000000;cursor:default;font-size:10px;fill:#000000;" text-anchor="end" transform="translate(0,0)" y="177" opacity="1">0</text><text x="41" style="color:#000000;cursor:default;font-size:10px;fill:#000000;" text-anchor="end" transform="translate(0,0)" y="144" opacity="1"><tspan>50 000</tspan></text><text x="41" style="color:#000000;cursor:default;font-size:10px;fill:#000000;" text-anchor="end" transform="translate(0,0)" y="110" opacity="1"><tspan>100 000</tspan></text><text x="41" style="color:#000000;cursor:default;font-size:10px;fill:#000000;" text-anchor="end" transform="translate(0,0)" y="77" opacity="1"><tspan>150 000</tspan></text><text x="41" style="color:#000000;cursor:default;font-size:10px;fill:#000000;" text-anchor="end" transform="translate(0,0)" y="43" opacity="1"><tspan>200 000</tspan></text><text x="41" style="color:#000000;cursor:default;font-size:10px;fill:#000000;" text-anchor="end" transform="translate(0,0)" y="10" opacity="1"><tspan>250 000</tspan></text></g><text x="10" class="highcharts-credits" text-anchor="start" data-z-index="8" style="cursor:default;color:#000000;font-size:10px;fill:#000000;" y="196"><tspan>Quelle: Statistisches Amt Basel-Stadt, Bevölkerungsstatistik.</tspan><tspan x="10" dy="13">Zuletzt geändert: 2020-9-3</tspan></text></svg>