<?xml version="1.0" standalone="no"?><!DOCTYPE svg PUBLIC "-//W3C//DTD SVG 1.1//EN" "http://www.w3.org/Graphics/SVG/1.1/DTD/svg11.dtd"><svg xmlns:xlink="http://www.w3.org/1999/xlink" version="1.1" class="highcharts-root" style="font-family:Arial;font-size:12px;" xmlns="http://www.w3.org/2000/svg" viewBox="0 0 485 415"><desc>Created with Highcharts 8.2.0</desc><defs><clipPath id="highcharts-x83kjbx-31-"><rect x="0" y="0" width="428" height="272" fill="none"></rect></clipPath><clipPath id="highcharts-x83kjbx-44-"><rect x="0" y="0" width="428" height="272" fill="none"></rect></clipPath><clipPath id="highcharts-x83kjbx-57-"><rect x="47" y="94" width="428" height="272" fill="none"></rect></clipPath></defs><rect fill="#fbfbfb" class="highcharts-background" x="0" y="0" width="485" height="428" rx="0" ry="0"></rect><rect fill="none" class="highcharts-plot-background" x="47" y="94" width="428" height="272"></rect><g class="highcharts-pane-group" data-z-index="0"></g><g class="highcharts-grid highcharts-xaxis-grid" data-z-index="1"><path fill="none" data-z-index="1" class="highcharts-grid-line" d="M 82.5 94 L 82.5 366" opacity="1"></path><path fill="none" data-z-index="1" class="highcharts-grid-line" d="M 117.5 94 L 117.5 366" opacity="1"></path><path fill="none" data-z-index="1" class="highcharts-grid-line" d="M 153.5 94 L 153.5 366" opacity="1"></path><path fill="none" data-z-index="1" class="highcharts-grid-line" d="M 189.5 94 L 189.5 366" opacity="1"></path><path fill="none" data-z-index="1" class="highcharts-grid-line" d="M 224.5 94 L 224.5 366" opacity="1"></path><path fill="none" data-z-index="1" class="highcharts-grid-line" d="M 260.5 94 L 260.5 366" opacity="1"></path><path fill="none" data-z-index="1" class="highcharts-grid-line" d="M 296.5 94 L 296.5 366" opacity="1"></path><path fill="none" data-z-index="1" class="highcharts-grid-line" d="M 331.5 94 L 331.5 366" opacity="1"></path><path fill="none" data-z-index="1" class="highcharts-grid-line" d="M 367.5 94 L 367.5 366" opacity="1"></path><path fill="none" data-z-index="1" class="highcharts-grid-line" d="M 403.5 94 L 403.5 366" opacity="1"></path><path fill="none" data-z-index="1" class="highcharts-grid-line" d="M 438.5 94 L 438.5 366" opacity="1"></path><path fill="none" data-z-index="1" class="highcharts-grid-line" d="M 474.5 94 L 474.5 366" opacity="1"></path><path fill="none" data-z-index="1" class="highcharts-grid-line" d="M 46.5 94 L 46.5 366" opacity="1"></path></g><g class="highcharts-grid highcharts-yaxis-grid" data-z-index="1"><path fill="none" stroke="#B9CFD7" stroke-width="0.5" data-z-index="1" class="highcharts-grid-line" d="M 47 366.25 L 475 366.25" opacity="1"></path><path fill="none" stroke="#B9CFD7" stroke-width="0.5" data-z-index="1" class="highcharts-grid-line" d="M 47 343.25 L 475 343.25" opacity="1"></path><path fill="none" stroke="#B9CFD7" stroke-width="0.5" data-z-index="1" class="highcharts-grid-line" d="M 47 321.25 L 475 321.25" opacity="1"></path><path fill="none" stroke="#B9CFD7" stroke-width="0.5" data-z-index="1" class="highcharts-grid-line" d="M 47 298.25 L 475 298.25" opacity="1"></path><path fill="none" stroke="#B9CFD7" stroke-width="0.5" data-z-index="1" class="highcharts-grid-line" d="M 47 275.25 L 475 275.25" opacity="1"></path><path fill="none" stroke="#B9CFD7" stroke-width="0.5" data-z-index="1" class="highcharts-grid-line" d="M 47 253.25 L 475 253.25" opacity="1"></path><path fill="none" stroke="#B9CFD7" stroke-width="0.5" data-z-index="1" class="highcharts-grid-line" d="M 47 230.25 L 475 230.25" opacity="1"></path><path fill="none" stroke="#B9CFD7" stroke-width="0.5" data-z-index="1" class="highcharts-grid-line" d="M 47 207.25 L 475 207.25" opacity="1"></path><path fill="none" stroke="#B9CFD7" stroke-width="0.5" data-z-index="1" class="highcharts-grid-line" d="M 47 185.25 L 475 185.25" opacity="1"></path><path fill="none" stroke="#B9CFD7" stroke-width="0.5" data-z-index="1" class="highcharts-grid-line" d="M 47 162.25 L 475 162.25" opacity="1"></path><path fill="none" stroke="#B9CFD7" stroke-width="0.5" data-z-index="1" class="highcharts-grid-line" d="M 47 139.25 L 475 139.25" opacity="1"></path><path fill="none" stroke="#B9CFD7" stroke-width="0.5" data-z-index="1" class="highcharts-grid-line" d="M 47 117.25 L 475 117.25" opacity="1"></path><path fill="none" stroke="#B9CFD7" stroke-width="0.5" data-z-index="1" class="highcharts-grid-line" d="M 47 93.75 L 475 93.75" opacity="1"></path></g><rect fill="none" class="highcharts-plot-border" data-z-index="1" x="47" y="94" width="428" height="272"></rect><g class="highcharts-axis highcharts-xaxis" data-z-index="2"><path fill="none" class="highcharts-axis-line" stroke="#B9CFD7" stroke-width="0.5" data-z-index="7" d="M 47 366.25 L 475 366.25"></path></g><g class="highcharts-axis highcharts-yaxis" data-z-index="2"><path fill="none" class="highcharts-axis-line" data-z-index="7" d="M 47 94 L 47 366"></path></g><g class="highcharts-series-group" data-z-index="3"><g class="highcharts-series highcharts-series-0 highcharts-column-series" data-z-index="0.1" opacity="1" transform="translate(47,94) scale(1 1)" clip-path="url(#highcharts-x83kjbx-44-)"><rect x="4" y="112" width="14" height="161" fill="#B375AB" opacity="1" class="highcharts-point"></rect><rect x="39" y="221" width="15" height="52" fill="#B375AB" opacity="1" class="highcharts-point"></rect><rect x="75" y="217" width="14" height="56" fill="#B375AB" opacity="1" class="highcharts-point"></rect><rect x="111" y="206" width="14" height="67" fill="#B375AB" opacity="1" class="highcharts-point"></rect><rect x="146" y="195" width="15" height="78" fill="#B375AB" opacity="1" class="highcharts-point"></rect><rect x="182" y="193" width="14" height="80" fill="#B375AB" opacity="1" class="highcharts-point"></rect><rect x="218" y="195" width="14" height="78" fill="#B375AB" opacity="1" class="highcharts-point"></rect><rect x="253" y="198" width="15" height="75" fill="#B375AB" opacity="1" class="highcharts-point"></rect><rect x="289" y="193" width="14" height="80" fill="#B375AB" opacity="1" class="highcharts-point"></rect><rect x="325" y="187" width="14" height="86" fill="#B375AB" opacity="1" class="highcharts-point"></rect><rect x="360" y="198" width="15" height="75" fill="#B375AB" opacity="1" class="highcharts-point"></rect><rect x="396" y="27" width="14" height="246" fill="#B375AB" opacity="1" class="highcharts-point"></rect></g><g class="highcharts-markers highcharts-series-0 highcharts-column-series" data-z-index="0.1" opacity="1" transform="translate(47,94) scale(1 1)" clip-path="none"></g><g class="highcharts-series highcharts-series-1 highcharts-column-series" data-z-index="0.1" opacity="1" transform="translate(47,94) scale(1 1)" clip-path="url(#highcharts-x83kjbx-44-)"><rect x="18" y="102" width="14" height="171" fill="#990300" opacity="1" class="highcharts-point"></rect><rect x="54" y="218" width="14" height="55" fill="#990300" opacity="1" class="highcharts-point"></rect><rect x="89" y="213" width="14" height="60" fill="#990300" opacity="1" class="highcharts-point"></rect><rect x="125" y="202" width="14" height="71" fill="#990300" opacity="1" class="highcharts-point"></rect><rect x="161" y="191" width="14" height="82" fill="#990300" opacity="1" class="highcharts-point"></rect><rect x="196" y="191" width="14" height="82" fill="#990300" opacity="1" class="highcharts-point"></rect><rect x="232" y="193" width="14" height="80" fill="#990300" opacity="1" class="highcharts-point"></rect><rect x="268" y="196" width="14" height="77" fill="#990300" opacity="1" class="highcharts-point"></rect><rect x="303" y="191" width="14" height="82" fill="#990300" opacity="1" class="highcharts-point"></rect><rect x="339" y="188" width="14" height="85" fill="#990300" opacity="1" class="highcharts-point"></rect><rect x="375" y="201" width="14" height="72" fill="#990300" opacity="1" class="highcharts-point"></rect><rect x="410" y="56" width="14" height="217" fill="#990300" opacity="1" class="highcharts-point"></rect></g><g class="highcharts-markers highcharts-series-1 highcharts-column-series" data-z-index="0.1" opacity="1" transform="translate(47,94) scale(1 1)" clip-path="none"></g></g><text x="10" text-anchor="start" class="highcharts-title" data-z-index="4" style="color:#000000;font-size:14px;font-weight:bold;fill:#000000;" y="21"><tspan>Altersklassen; BS/BL/JU und Schweiz</tspan></text><text x="10" text-anchor="start" class="highcharts-subtitle" data-z-index="4" style="color:#000000;font-size:12px;font-weight:normal;fill:#000000;" y="40"><tspan>Anteil an der Gesamtbevölkerung, 2022</tspan></text><text x="10" text-anchor="start" class="highcharts-caption" data-z-index="4" style="color:#666666;fill:#666666;" y="400"></text><g class="highcharts-legend" data-z-index="7" transform="translate(39,56)"><rect fill="none" class="highcharts-legend-box" rx="0" ry="0" x="0" y="0" width="175" height="26" visibility="visible"></rect><g data-z-index="1"><g><g class="highcharts-legend-item highcharts-column-series highcharts-color-undefined highcharts-series-0" data-z-index="1" transform="translate(8,3)"><text x="21" style="color:#333333;cursor:pointer;font-size:12px;font-weight:normal;fill:#333333;" text-anchor="start" data-z-index="2" y="15"><tspan>BS/BL/JU</tspan></text><rect x="2" y="4" width="12" height="12" fill="#B375AB" class="highcharts-point" data-z-index="3"></rect></g><g class="highcharts-legend-item highcharts-column-series highcharts-color-undefined highcharts-series-1" data-z-index="1" transform="translate(101,3)"><text x="21" y="15" style="color:#333333;cursor:pointer;font-size:12px;font-weight:normal;fill:#333333;" text-anchor="start" data-z-index="2"><tspan>Schweiz</tspan></text><rect x="2" y="4" width="12" height="12" fill="#990300" class="highcharts-point" data-z-index="3"></rect></g></g></g></g><g class="highcharts-axis-labels highcharts-xaxis-labels" data-z-index="7"><text x="64.83333333333367" style="color:#000000;cursor:default;font-size:11px;fill:#000000;" text-anchor="middle" transform="translate(0,0)" y="385" opacity="1">≤14</text><text x="100.49999999999667" style="color:#000000;cursor:default;font-size:11px;fill:#000000;" text-anchor="middle" transform="translate(0,0)" y="385" opacity="1">15-19</text><text x="136.16666666666666" style="color:#000000;cursor:default;font-size:11px;fill:#000000;" text-anchor="middle" transform="translate(0,0)" y="385" opacity="1">20-24</text><text x="171.83333333333667" style="color:#000000;cursor:default;font-size:11px;fill:#000000;" text-anchor="middle" transform="translate(0,0)" y="385" opacity="1">25-29</text><text x="207.49999999999665" style="color:#000000;cursor:default;font-size:11px;fill:#000000;" text-anchor="middle" transform="translate(0,0)" y="385" opacity="1">30-34</text><text x="243.16666666666666" style="color:#000000;cursor:default;font-size:11px;fill:#000000;" text-anchor="middle" transform="translate(0,0)" y="385" opacity="1">35-39</text><text x="278.83333333333667" style="color:#000000;cursor:default;font-size:11px;fill:#000000;" text-anchor="middle" transform="translate(0,0)" y="385" opacity="1">40-44</text><text x="314.4999999999967" style="color:#000000;cursor:default;font-size:11px;fill:#000000;" text-anchor="middle" transform="translate(0,0)" y="385" opacity="1">45-49</text><text x="350.1666666666667" style="color:#000000;cursor:default;font-size:11px;fill:#000000;" text-anchor="middle" transform="translate(0,0)" y="385" opacity="1">50-54</text><text x="385.83333333333667" style="color:#000000;cursor:default;font-size:11px;fill:#000000;" text-anchor="middle" transform="translate(0,0)" y="385" opacity="1">55-59</text><text x="421.4999999999967" style="color:#000000;cursor:default;font-size:11px;fill:#000000;" text-anchor="middle" transform="translate(0,0)" y="385" opacity="1">60-64</text><text x="457.1666666666667" style="color:#000000;cursor:default;font-size:11px;fill:#000000;" text-anchor="middle" transform="translate(0,0)" y="385" opacity="1">≥65</text></g><g class="highcharts-axis-labels highcharts-yaxis-labels" data-z-index="7"><text x="32" style="color:#000000;cursor:default;font-size:11px;fill:#000000;" text-anchor="end" transform="translate(0,0)" y="370" opacity="1">0%</text><text x="32" style="color:#000000;cursor:default;font-size:11px;fill:#000000;" text-anchor="end" transform="translate(0,0)" y="347" opacity="1">2%</text><text x="32" style="color:#000000;cursor:default;font-size:11px;fill:#000000;" text-anchor="end" transform="translate(0,0)" y="325" opacity="1">4%</text><text x="32" style="color:#000000;cursor:default;font-size:11px;fill:#000000;" text-anchor="end" transform="translate(0,0)" y="302" opacity="1">6%</text><text x="32" style="color:#000000;cursor:default;font-size:11px;fill:#000000;" text-anchor="end" transform="translate(0,0)" y="279" opacity="1">8%</text><text x="32" style="color:#000000;cursor:default;font-size:11px;fill:#000000;" text-anchor="end" transform="translate(0,0)" y="257" opacity="1">10%</text><text x="32" style="color:#000000;cursor:default;font-size:11px;fill:#000000;" text-anchor="end" transform="translate(0,0)" y="234" opacity="1">12%</text><text x="32" style="color:#000000;cursor:default;font-size:11px;fill:#000000;" text-anchor="end" transform="translate(0,0)" y="211" opacity="1">14%</text><text x="32" style="color:#000000;cursor:default;font-size:11px;fill:#000000;" text-anchor="end" transform="translate(0,0)" y="189" opacity="1">16%</text><text x="32" style="color:#000000;cursor:default;font-size:11px;fill:#000000;" text-anchor="end" transform="translate(0,0)" y="166" opacity="1">18%</text><text x="32" style="color:#000000;cursor:default;font-size:11px;fill:#000000;" text-anchor="end" transform="translate(0,0)" y="143" opacity="1">20%</text><text x="32" style="color:#000000;cursor:default;font-size:11px;fill:#000000;" text-anchor="end" transform="translate(0,0)" y="121" opacity="1">22%</text><text x="32" style="color:#000000;cursor:default;font-size:11px;fill:#000000;" text-anchor="end" transform="translate(0,0)" y="98" opacity="1">24%</text></g><text x="10" class="highcharts-credits" text-anchor="start" data-z-index="8" style="cursor:default;color:#000000;font-size:10px;fill:#000000;" y="403"><tspan>Quelle: Bundesamt für Statistik (BFS), Statistik der Bevölkerung und der Haushalte (STATPOP).</tspan><tspan x="10" dy="13">Zuletzt geändert: 27.11.2023</tspan></text><g class="highcharts-control-points" data-z-index="99" clip-path="url(#highcharts-x83kjbx-57-)"></g></svg>