<?xml version="1.0" standalone="no"?><!DOCTYPE svg PUBLIC "-//W3C//DTD SVG 1.1//EN" "http://www.w3.org/Graphics/SVG/1.1/DTD/svg11.dtd"><svg xmlns:xlink="http://www.w3.org/1999/xlink" version="1.1" class="highcharts-root" style="font-family:Arial;font-size:12px;" xmlns="http://www.w3.org/2000/svg" viewBox="0 0 485 415"><desc>Created with Highcharts 8.2.0</desc><defs><clipPath id="highcharts-lj1gals-181-"><rect x="0" y="0" width="428" height="134" fill="none"></rect></clipPath><clipPath id="highcharts-lj1gals-211-"><rect x="0" y="0" width="428" height="134" fill="none"></rect></clipPath><clipPath id="highcharts-lj1gals-357-"><rect x="37" y="187" width="428" height="134" fill="none"></rect></clipPath></defs><rect fill="#fbfbfb" class="highcharts-background" x="0" y="0" width="485" height="428" rx="0" ry="0"></rect><rect fill="none" class="highcharts-plot-background" x="37" y="187" width="428" height="134"></rect><g class="highcharts-pane-group" data-z-index="0"></g><g class="highcharts-grid highcharts-xaxis-grid" data-z-index="1"><path fill="none" data-z-index="1" class="highcharts-grid-line" d="M 40.5 187 L 40.5 321" opacity="1"></path><path fill="none" data-z-index="1" class="highcharts-grid-line" d="M 115.5 187 L 115.5 321" opacity="1"></path><path fill="none" data-z-index="1" class="highcharts-grid-line" d="M 190.5 187 L 190.5 321" opacity="1"></path><path fill="none" data-z-index="1" class="highcharts-grid-line" d="M 265.5 187 L 265.5 321" opacity="1"></path><path fill="none" data-z-index="1" class="highcharts-grid-line" d="M 340.5 187 L 340.5 321" opacity="1"></path><path fill="none" data-z-index="1" class="highcharts-grid-line" d="M 415.5 187 L 415.5 321" opacity="1"></path></g><g class="highcharts-grid highcharts-yaxis-grid" data-z-index="1"><path fill="none" stroke="#B9CFD7" stroke-width="0.5" data-z-index="1" class="highcharts-grid-line" d="M 37 321.25 L 465 321.25" opacity="1"></path><path fill="none" stroke="#B9CFD7" stroke-width="0.5" data-z-index="1" class="highcharts-grid-line" d="M 37 294.25 L 465 294.25" opacity="1"></path><path fill="none" stroke="#B9CFD7" stroke-width="0.5" data-z-index="1" class="highcharts-grid-line" d="M 37 267.25 L 465 267.25" opacity="1"></path><path fill="none" stroke="#B9CFD7" stroke-width="0.5" data-z-index="1" class="highcharts-grid-line" d="M 37 241.25 L 465 241.25" opacity="1"></path><path fill="none" stroke="#B9CFD7" stroke-width="0.5" data-z-index="1" class="highcharts-grid-line" d="M 37 214.25 L 465 214.25" opacity="1"></path><path fill="none" stroke="#B9CFD7" stroke-width="0.5" data-z-index="1" class="highcharts-grid-line" d="M 37 186.75 L 465 186.75" opacity="1"></path></g><rect fill="none" class="highcharts-plot-border" data-z-index="1" x="37" y="187" width="428" height="134"></rect><g class="highcharts-axis highcharts-xaxis" data-z-index="2"><path fill="none" class="highcharts-axis-line" stroke="#B9CFD7" stroke-width="0.5" data-z-index="7" d="M 37 321.25 L 465 321.25"></path></g><g class="highcharts-axis highcharts-yaxis" data-z-index="2"><path fill="none" class="highcharts-axis-line" data-z-index="7" d="M 37 187 L 37 321"></path></g><g class="highcharts-series-group" data-z-index="3"><g class="highcharts-series highcharts-series-0 highcharts-line-series" data-z-index="0.1" opacity="1" transform="translate(37,187) scale(1 1)" clip-path="url(#highcharts-lj1gals-211-)"><path fill="none" d="M 4.1960784313721 131.32 L 19.182072829131 134 L 34.16806722689 134 L 49.15406162465 125.96 L 64.140056022409 131.32 L 79.126050420168 134 L 94.112044817927 134 L 109.09803921569 134 L 124.08403361345 112.56 L 139.0700280112 131.32 L 154.05602240896 128.64 L 169.04201680672 123.28 L 184.02801120448 134 L 199.01400560224 131.32 L 214 131.32 L 228.98599439776 128.64 L 243.97198879552 128.64 L 258.95798319328 123.28 L 273.94397759104 123.28 L 288.9299719888 134 L 303.91596638655 104.52 L 318.90196078431 131.32 L 333.88795518207 117.92 L 348.87394957983 125.96 L 363.85994397759 117.92 L 378.84593837535 125.96 L 393.83193277311 131.32 L 408.81792717087 120.6 L 423.80392156863 125.96" class="highcharts-graph" data-z-index="1" stroke="#007a2f" stroke-width="2" stroke-linejoin="round" stroke-linecap="round"></path></g><g class="highcharts-markers highcharts-series-0 highcharts-line-series" data-z-index="0.1" opacity="1" transform="translate(37,187) scale(1 1)" clip-path="none"></g><g class="highcharts-series highcharts-series-1 highcharts-line-series" data-z-index="0.1" opacity="1" transform="translate(37,187) scale(1 1)" clip-path="url(#highcharts-lj1gals-211-)"><path fill="none" d="M 228.98599439776 75.03999999999999 L 243.97198879552 96.47999999999999 L 258.95798319328 88.44 L 273.94397759104 72.36 L 288.9299719888 101.84 L 303.91596638655 26.799999999999997 L 318.90196078431 72.36 L 333.88795518207 26.799999999999997 L 348.87394957983 18.75999999999999 L 363.85994397759 42.879999999999995 L 378.84593837535 58.959999999999994 L 393.83193277311 117.92 L 408.81792717087 83.08 L 423.80392156863 69.67999999999999" class="highcharts-graph" data-z-index="1" stroke="#2f656b" stroke-width="2" stroke-linejoin="round" stroke-linecap="round"></path></g><g class="highcharts-markers highcharts-series-1 highcharts-line-series" data-z-index="0.1" opacity="1" transform="translate(37,187) scale(1 1)" clip-path="none"></g><g class="highcharts-series highcharts-series-2 highcharts-line-series" data-z-index="0.1" opacity="1" transform="translate(37,187) scale(1 1)" clip-path="url(#highcharts-lj1gals-211-)"><path fill="none" d="M 228.98599439776 91.12 L 243.97198879552 96.47999999999999 L 258.95798319328 91.12 L 273.94397759104 85.75999999999999 L 288.9299719888 104.52 L 303.91596638655 42.879999999999995 L 318.90196078431 83.08 L 333.88795518207 40.19999999999999 L 348.87394957983 32.16 L 363.85994397759 50.92 L 378.84593837535 69.67999999999999 L 393.83193277311 117.92 L 408.81792717087 99.16 L 423.80392156863 88.44" class="highcharts-graph" data-z-index="1" stroke="#923f8d" stroke-width="2" stroke-linejoin="round" stroke-linecap="round"></path></g><g class="highcharts-markers highcharts-series-2 highcharts-line-series" data-z-index="0.1" opacity="1" transform="translate(37,187) scale(1 1)" clip-path="none"></g><g class="highcharts-series highcharts-series-3 highcharts-line-series" data-z-index="0.1" opacity="1" transform="translate(37,187) scale(1 1)" clip-path="url(#highcharts-lj1gals-211-)"><path fill="none" d="M 228.98599439776 120.6 L 243.97198879552 117.92 L 258.95798319328 117.92 L 273.94397759104 117.92 L 288.9299719888 131.32 L 303.91596638655 77.72 L 318.90196078431 131.32 L 333.88795518207 104.52 L 348.87394957983 109.88 L 363.85994397759 107.2 L 378.84593837535 112.56 L 393.83193277311 120.6 L 408.81792717087 104.52 L 423.80392156863 101.84" class="highcharts-graph" data-z-index="1" stroke="#990300" stroke-width="2" stroke-linejoin="round" stroke-linecap="round"></path></g><g class="highcharts-markers highcharts-series-3 highcharts-line-series" data-z-index="0.1" opacity="1" transform="translate(37,187) scale(1 1)" clip-path="none"></g><g class="highcharts-series highcharts-series-4 highcharts-line-series" data-z-index="0.1" opacity="1" transform="translate(37,187) scale(1 1)" clip-path="url(#highcharts-lj1gals-211-)"><path fill="none" d="M 228.98599439776 134 L 243.97198879552 128.64 L 258.95798319328 125.96 L 273.94397759104 123.28 L 288.9299719888 134 L 303.91596638655 131.32 L 318.90196078431 134 L 333.88795518207 131.32 L 348.87394957983 134 L 363.85994397759 125.96 L 378.84593837535 131.32 L 393.83193277311 134 L 408.81792717087 128.64 L 423.80392156863 131.32" class="highcharts-graph" data-z-index="1" stroke="#73b97c" stroke-width="2" stroke-linejoin="round" stroke-linecap="round"></path></g><g class="highcharts-markers highcharts-series-4 highcharts-line-series" data-z-index="0.1" opacity="1" transform="translate(37,187) scale(1 1)" clip-path="none"></g><g class="highcharts-series highcharts-series-5 highcharts-line-series" data-z-index="0.1" opacity="1" transform="translate(37,187) scale(1 1)" clip-path="url(#highcharts-lj1gals-211-)"><path fill="none" d="M 228.98599439776 115.24 L 243.97198879552 125.96 L 258.95798319328 123.28 L 273.94397759104 115.24 L 288.9299719888 131.32 L 303.91596638655 75.03999999999999 L 318.90196078431 123.28 L 333.88795518207 109.88 L 348.87394957983 117.92 L 363.85994397759 107.2 L 378.84593837535 115.24 L 393.83193277311 134 L 408.81792717087 123.28 L 423.80392156863 117.92" class="highcharts-graph" data-z-index="1" stroke="#fabd24" stroke-width="2" stroke-linejoin="round" stroke-linecap="round"></path></g><g class="highcharts-markers highcharts-series-5 highcharts-line-series" data-z-index="0.1" opacity="1" transform="translate(37,187) scale(1 1)" clip-path="none"></g></g><text x="10" text-anchor="start" class="highcharts-title" data-z-index="4" style="color:#000000;font-size:14px;font-weight:bold;fill:#000000;" y="21"><tspan>Tropennächte</tspan></text><text x="10" text-anchor="start" class="highcharts-subtitle" data-z-index="4" style="color:#000000;font-size:12px;font-weight:normal;fill:#000000;" y="40"><tspan>Anzahl Nächte, Basel-Stadt</tspan></text><text x="10" text-anchor="start" class="highcharts-caption" data-z-index="4" style="color:#666666;fill:#666666;" y="355"></text><g class="highcharts-legend" data-z-index="7" transform="translate(29,56)"><rect fill="none" class="highcharts-legend-box" rx="0" ry="0" x="0" y="0" width="394" height="119" visibility="visible"></rect><g data-z-index="1"><g><g class="highcharts-legend-item highcharts-line-series highcharts-color-undefined highcharts-series-0" data-z-index="1" transform="translate(8,3)"><path fill="none" d="M 0 11 L 16 11" class="highcharts-graph" stroke="#007a2f" stroke-width="2"></path><text x="21" style="color:#333333;cursor:pointer;font-size:12px;font-weight:normal;fill:#333333;" text-anchor="start" data-z-index="2" y="15"><tspan>Basel-Binningen (vorstädtisch, keine Bebauung)</tspan></text></g><g class="highcharts-legend-item highcharts-line-series highcharts-color-undefined highcharts-series-1" data-z-index="1" transform="translate(8,21)"><path fill="none" d="M 0 11 L 16 11" class="highcharts-graph" stroke="#2f656b" stroke-width="2"></path><text x="21" y="15" style="color:#333333;cursor:pointer;font-size:12px;font-weight:normal;fill:#333333;" text-anchor="start" data-z-index="2"><tspan>Feldbergstrasse, Basel (Stadtzentrum, geschlossene Bebauung)</tspan></text></g><g class="highcharts-legend-item highcharts-line-series highcharts-color-undefined highcharts-series-2" data-z-index="1" transform="translate(8,39)"><path fill="none" d="M 0 11 L 16 11" class="highcharts-graph" stroke="#923f8d" stroke-width="2"></path><text x="21" y="15" style="color:#333333;cursor:pointer;font-size:12px;font-weight:normal;fill:#333333;" text-anchor="start" data-z-index="2"><tspan>St. Johann, Basel (Stadtzentrum, offene Bebauung)</tspan></text></g><g class="highcharts-legend-item highcharts-line-series highcharts-color-undefined highcharts-series-3" data-z-index="1" transform="translate(8,57)"><path fill="none" d="M 0 11 L 16 11" class="highcharts-graph" stroke="#990300" stroke-width="2"></path><text x="21" y="15" style="color:#333333;cursor:pointer;font-size:12px;font-weight:normal;fill:#333333;" text-anchor="start" data-z-index="2"><tspan>Klingelbergstrasse, Basel (Stadtzentrum, 38 m über Grund)</tspan></text></g><g class="highcharts-legend-item highcharts-line-series highcharts-color-undefined highcharts-series-4" data-z-index="1" transform="translate(8,75)"><path fill="none" d="M 0 11 L 16 11" class="highcharts-graph" stroke="#73b97c" stroke-width="2"></path><text x="21" y="15" style="color:#333333;cursor:pointer;font-size:12px;font-weight:normal;fill:#333333;" text-anchor="start" data-z-index="2"><tspan>Sissach (vorstädtisch, offene Bebauung)</tspan></text></g><g class="highcharts-legend-item highcharts-line-series highcharts-color-undefined highcharts-series-5" data-z-index="1" transform="translate(8,93)"><path fill="none" d="M 0 11 L 16 11" class="highcharts-graph" stroke="#fabd24" stroke-width="2"></path><text x="21" y="15" style="color:#333333;cursor:pointer;font-size:12px;font-weight:normal;fill:#333333;" text-anchor="start" data-z-index="2"><tspan>Dornach (vorstädtisch, offene Bebauung)</tspan></text></g></g></g></g><g class="highcharts-axis-labels highcharts-xaxis-labels" data-z-index="7"><text x="41.196078431372" style="color:#000000;cursor:default;font-size:11px;fill:#000000;" text-anchor="middle" transform="translate(0,0)" y="340" opacity="1">1995</text><text x="116.12605042017" style="color:#000000;cursor:default;font-size:11px;fill:#000000;" text-anchor="middle" transform="translate(0,0)" y="340" opacity="1">2000</text><text x="191.05602240896" style="color:#000000;cursor:default;font-size:11px;fill:#000000;" text-anchor="middle" transform="translate(0,0)" y="340" opacity="1">2005</text><text x="265.98599439776" style="color:#000000;cursor:default;font-size:11px;fill:#000000;" text-anchor="middle" transform="translate(0,0)" y="340" opacity="1">2010</text><text x="340.91596638655" style="color:#000000;cursor:default;font-size:11px;fill:#000000;" text-anchor="middle" transform="translate(0,0)" y="340" opacity="1">2015</text><text x="415.84593837535" style="color:#000000;cursor:default;font-size:11px;fill:#000000;" text-anchor="middle" transform="translate(0,0)" y="340" opacity="1">2020</text></g><g class="highcharts-axis-labels highcharts-yaxis-labels" data-z-index="7"><text x="22" style="color:#000000;cursor:default;font-size:11px;fill:#000000;" text-anchor="end" transform="translate(0,0)" y="325" opacity="1">0</text><text x="22" style="color:#000000;cursor:default;font-size:11px;fill:#000000;" text-anchor="end" transform="translate(0,0)" y="298" opacity="1">10</text><text x="22" style="color:#000000;cursor:default;font-size:11px;fill:#000000;" text-anchor="end" transform="translate(0,0)" y="271" opacity="1">20</text><text x="22" style="color:#000000;cursor:default;font-size:11px;fill:#000000;" text-anchor="end" transform="translate(0,0)" y="245" opacity="1">30</text><text x="22" style="color:#000000;cursor:default;font-size:11px;fill:#000000;" text-anchor="end" transform="translate(0,0)" y="218" opacity="1">40</text><text x="22" style="color:#000000;cursor:default;font-size:11px;fill:#000000;" text-anchor="end" transform="translate(0,0)" y="191" opacity="1">50</text></g><text x="10" class="highcharts-credits" text-anchor="start" data-z-index="8" style="cursor:default;color:#000000;font-size:10px;fill:#000000;" y="373"><tspan>Quelle: Universität Basel;</tspan><tspan x="10" dy="13">Lufthygieneamt beider Basel;</tspan><tspan x="10" dy="13">Meteorologischer Verein der Region Basel;</tspan><tspan x="10" dy="13">MeteoSchweiz.</tspan><tspan x="10" dy="13">Zuletzt geändert: 4.3.2024</tspan></text><g class="highcharts-control-points" data-z-index="99" clip-path="url(#highcharts-lj1gals-357-)"></g></svg>