<?xml version="1.0" standalone="no"?><!DOCTYPE svg PUBLIC "-//W3C//DTD SVG 1.1//EN" "http://www.w3.org/Graphics/SVG/1.1/DTD/svg11.dtd"><svg xmlns:xlink="http://www.w3.org/1999/xlink" version="1.1" class="highcharts-root" style="font-family:Arial;font-size:12px;" xmlns="http://www.w3.org/2000/svg" viewBox="0 0 485 415"><desc>Created with Highcharts 8.2.2</desc><defs><clipPath id="highcharts-1zs7pik-193-"><rect x="0" y="0" width="428" height="134" fill="none"></rect></clipPath><clipPath id="highcharts-1zs7pik-225-"><rect x="0" y="0" width="428" height="134" fill="none"></rect></clipPath><clipPath id="highcharts-1zs7pik-381-"><rect x="37" y="187" width="428" height="134" fill="none"></rect></clipPath></defs><rect fill="#fbfbfb" class="highcharts-background" x="0" y="0" width="485" height="428" rx="0" ry="0"></rect><rect fill="none" class="highcharts-plot-background" x="37" y="187" width="428" height="134"></rect><g class="highcharts-pane-group" data-z-index="0"></g><g class="highcharts-grid highcharts-xaxis-grid" data-z-index="1"><path fill="none" data-z-index="1" class="highcharts-grid-line" d="M 40.5 187 L 40.5 321" opacity="1"></path><path fill="none" data-z-index="1" class="highcharts-grid-line" d="M 110.5 187 L 110.5 321" opacity="1"></path><path fill="none" data-z-index="1" class="highcharts-grid-line" d="M 180.5 187 L 180.5 321" opacity="1"></path><path fill="none" data-z-index="1" class="highcharts-grid-line" d="M 250.5 187 L 250.5 321" opacity="1"></path><path fill="none" data-z-index="1" class="highcharts-grid-line" d="M 320.5 187 L 320.5 321" opacity="1"></path><path fill="none" data-z-index="1" class="highcharts-grid-line" d="M 390.5 187 L 390.5 321" opacity="1"></path><path fill="none" data-z-index="1" class="highcharts-grid-line" d="M 460.5 187 L 460.5 321" opacity="1"></path></g><g class="highcharts-grid highcharts-yaxis-grid" data-z-index="1"><path fill="none" stroke="#B9CFD7" stroke-width="0.5" data-z-index="1" class="highcharts-grid-line" d="M 37 321.25 L 465 321.25" opacity="1"></path><path fill="none" stroke="#B9CFD7" stroke-width="0.5" data-z-index="1" class="highcharts-grid-line" d="M 37 294.25 L 465 294.25" opacity="1"></path><path fill="none" stroke="#B9CFD7" stroke-width="0.5" data-z-index="1" class="highcharts-grid-line" d="M 37 267.25 L 465 267.25" opacity="1"></path><path fill="none" stroke="#B9CFD7" stroke-width="0.5" data-z-index="1" class="highcharts-grid-line" d="M 37 241.25 L 465 241.25" opacity="1"></path><path fill="none" stroke="#B9CFD7" stroke-width="0.5" data-z-index="1" class="highcharts-grid-line" d="M 37 214.25 L 465 214.25" opacity="1"></path><path fill="none" stroke="#B9CFD7" stroke-width="0.5" data-z-index="1" class="highcharts-grid-line" d="M 37 186.75 L 465 186.75" opacity="1"></path></g><rect fill="none" class="highcharts-plot-border" data-z-index="1" x="37" y="187" width="428" height="134"></rect><g class="highcharts-axis highcharts-xaxis" data-z-index="2"><path fill="none" class="highcharts-axis-line" stroke="#B9CFD7" stroke-width="0.5" data-z-index="7" d="M 37 321.25 L 465 321.25"></path></g><g class="highcharts-axis highcharts-yaxis" data-z-index="2"><path fill="none" class="highcharts-axis-line" data-z-index="7" d="M 37 187 L 37 321"></path></g><g class="highcharts-series-group" data-z-index="3"><g class="highcharts-series highcharts-series-0 highcharts-line-series" data-z-index="0.1" opacity="1" transform="translate(37,187) scale(1 1)" clip-path="url(#highcharts-1zs7pik-225-)"><path fill="none" d="M 4.1960784313719 131.32 L 18.183006535947 134 L 32.169934640522 134 L 46.156862745098 125.96 L 60.143790849673 131.32 L 74.130718954248 134 L 88.117647058823 134 L 102.1045751634 134 L 116.09150326797 112.56 L 130.07843137255 131.32 L 144.06535947712 128.64 L 158.0522875817 123.28 L 172.03921568627 134 L 186.02614379085 131.32 L 200.01307189542 131.32 L 214 128.64 L 227.98692810458 128.64 L 241.97385620915 123.28 L 255.96078431373 123.28 L 269.9477124183 134 L 283.93464052288 104.52 L 297.92156862745 131.32 L 311.90849673203 117.92 L 325.8954248366 125.96 L 339.88235294118 117.92 L 353.86928104575 125.96 L 367.85620915033 131.32 L 381.8431372549 120.6 L 395.83006535948 125.96 L 409.81699346405 128.64 L 423.80392156863 117.92" class="highcharts-graph" data-z-index="1" stroke="#007a2f" stroke-width="2" stroke-linejoin="round" stroke-linecap="round"></path></g><g class="highcharts-markers highcharts-series-0 highcharts-line-series" data-z-index="0.1" opacity="1" transform="translate(37,187) scale(1 1)" clip-path="none"></g><g class="highcharts-series highcharts-series-1 highcharts-line-series" data-z-index="0.1" opacity="1" transform="translate(37,187) scale(1 1)" clip-path="url(#highcharts-1zs7pik-225-)"><path fill="none" d="M 214 75.03999999999999 L 227.98692810458 96.47999999999999 L 241.97385620915 88.44 L 255.96078431373 72.36 L 269.9477124183 101.84 L 283.93464052288 26.799999999999997 L 297.92156862745 72.36 L 311.90849673203 26.799999999999997 L 325.8954248366 18.75999999999999 L 339.88235294118 42.879999999999995 L 353.86928104575 58.959999999999994 L 367.85620915033 117.92 L 381.8431372549 83.08 L 395.83006535948 69.67999999999999 L 409.81699346405 77.72 L 423.80392156863 77.72" class="highcharts-graph" data-z-index="1" stroke="#2f656b" stroke-width="2" stroke-linejoin="round" stroke-linecap="round"></path></g><g class="highcharts-markers highcharts-series-1 highcharts-line-series" data-z-index="0.1" opacity="1" transform="translate(37,187) scale(1 1)" clip-path="none"></g><g class="highcharts-series highcharts-series-2 highcharts-line-series" data-z-index="0.1" opacity="1" transform="translate(37,187) scale(1 1)" clip-path="url(#highcharts-1zs7pik-225-)"><path fill="none" d="M 214 91.12 L 227.98692810458 96.47999999999999 L 241.97385620915 91.12 L 255.96078431373 85.75999999999999 L 269.9477124183 104.52 L 283.93464052288 42.879999999999995 L 297.92156862745 83.08 L 311.90849673203 40.19999999999999 L 325.8954248366 32.16 L 339.88235294118 50.92 L 353.86928104575 69.67999999999999 L 367.85620915033 117.92 L 381.8431372549 99.16 L 395.83006535948 88.44 L 409.81699346405 72.36 L 423.80392156863 91.12" class="highcharts-graph" data-z-index="1" stroke="#923f8d" stroke-width="2" stroke-linejoin="round" stroke-linecap="round"></path></g><g class="highcharts-markers highcharts-series-2 highcharts-line-series" data-z-index="0.1" opacity="1" transform="translate(37,187) scale(1 1)" clip-path="none"></g><g class="highcharts-series highcharts-series-3 highcharts-line-series" data-z-index="0.1" opacity="1" transform="translate(37,187) scale(1 1)" clip-path="url(#highcharts-1zs7pik-225-)"><path fill="none" d="M 214 120.6 L 227.98692810458 117.92 L 241.97385620915 117.92 L 255.96078431373 117.92 L 269.9477124183 131.32 L 283.93464052288 77.72 L 297.92156862745 131.32 L 311.90849673203 104.52 L 325.8954248366 109.88 L 339.88235294118 107.2 L 353.86928104575 112.56 L 367.85620915033 120.6 L 381.8431372549 104.52 L 395.83006535948 101.84 L 409.81699346405 99.16" class="highcharts-graph" data-z-index="1" stroke="#990300" stroke-width="2" stroke-linejoin="round" stroke-linecap="round"></path></g><g class="highcharts-markers highcharts-series-3 highcharts-line-series" data-z-index="0.1" opacity="1" transform="translate(37,187) scale(1 1)" clip-path="none"></g><g class="highcharts-series highcharts-series-4 highcharts-line-series" data-z-index="0.1" opacity="1" transform="translate(37,187) scale(1 1)" clip-path="url(#highcharts-1zs7pik-225-)"><path fill="none" d="M 214 134 L 227.98692810458 128.64 L 241.97385620915 125.96 L 255.96078431373 123.28 L 269.9477124183 134 L 283.93464052288 131.32 L 297.92156862745 134 L 311.90849673203 131.32 L 325.8954248366 134 L 339.88235294118 125.96 L 353.86928104575 131.32 L 367.85620915033 134 L 381.8431372549 128.64 L 395.83006535948 131.32 L 409.81699346405 125.96 L 423.80392156863 128.64" class="highcharts-graph" data-z-index="1" stroke="#73b97c" stroke-width="2" stroke-linejoin="round" stroke-linecap="round"></path></g><g class="highcharts-markers highcharts-series-4 highcharts-line-series" data-z-index="0.1" opacity="1" transform="translate(37,187) scale(1 1)" clip-path="none"></g><g class="highcharts-series highcharts-series-5 highcharts-line-series" data-z-index="0.1" opacity="1" transform="translate(37,187) scale(1 1)" clip-path="url(#highcharts-1zs7pik-225-)"><path fill="none" d="M 214 115.24 L 227.98692810458 125.96 L 241.97385620915 123.28 L 255.96078431373 115.24 L 269.9477124183 131.32 L 283.93464052288 75.03999999999999 L 297.92156862745 123.28 L 311.90849673203 109.88 L 325.8954248366 117.92 L 339.88235294118 107.2 L 353.86928104575 115.24 L 367.85620915033 134 L 381.8431372549 123.28 L 395.83006535948 117.92 L 409.81699346405 123.28" class="highcharts-graph" data-z-index="1" stroke="#fabd24" stroke-width="2" stroke-linejoin="round" stroke-linecap="round"></path></g><g class="highcharts-markers highcharts-series-5 highcharts-line-series" data-z-index="0.1" opacity="1" transform="translate(37,187) scale(1 1)" clip-path="none"></g></g><text x="10" text-anchor="start" class="highcharts-title" data-z-index="4" style="color:#000000;font-size:14px;font-weight:bold;fill:#000000;" y="21"><tspan>Tropennächte</tspan></text><text x="10" text-anchor="start" class="highcharts-subtitle" data-z-index="4" style="color:#000000;font-size:12px;font-weight:normal;fill:#000000;" y="40"><tspan>Anzahl Nächte, Basel-Stadt</tspan></text><text x="10" text-anchor="start" class="highcharts-caption" data-z-index="4" style="color:#666666;fill:#666666;" y="355"></text><g class="highcharts-legend" data-z-index="7" transform="translate(29,56)"><rect fill="none" class="highcharts-legend-box" rx="0" ry="0" x="0" y="0" width="394" height="119" visibility="visible"></rect><g data-z-index="1"><g><g class="highcharts-legend-item highcharts-line-series highcharts-color-undefined highcharts-series-0" data-z-index="1" transform="translate(8,3)"><path fill="none" d="M 0 11 L 16 11" class="highcharts-graph" stroke="#007a2f" stroke-width="2"></path><text x="21" style="color:#333333;cursor:pointer;font-size:12px;font-weight:normal;fill:#333333;" text-anchor="start" data-z-index="2" y="15"><tspan>Basel-Binningen (vorstädtisch, keine Bebauung)</tspan></text></g><g class="highcharts-legend-item highcharts-line-series highcharts-color-undefined highcharts-series-1" data-z-index="1" transform="translate(8,21)"><path fill="none" d="M 0 11 L 16 11" class="highcharts-graph" stroke="#2f656b" stroke-width="2"></path><text x="21" y="15" style="color:#333333;cursor:pointer;font-size:12px;font-weight:normal;fill:#333333;" text-anchor="start" data-z-index="2"><tspan>Feldbergstrasse, Basel (Stadtzentrum, geschlossene Bebauung)</tspan></text></g><g class="highcharts-legend-item highcharts-line-series highcharts-color-undefined highcharts-series-2" data-z-index="1" transform="translate(8,39)"><path fill="none" d="M 0 11 L 16 11" class="highcharts-graph" stroke="#923f8d" stroke-width="2"></path><text x="21" y="15" style="color:#333333;cursor:pointer;font-size:12px;font-weight:normal;fill:#333333;" text-anchor="start" data-z-index="2"><tspan>St. Johann, Basel (Stadtzentrum, offene Bebauung)</tspan></text></g><g class="highcharts-legend-item highcharts-line-series highcharts-color-undefined highcharts-series-3" data-z-index="1" transform="translate(8,57)"><path fill="none" d="M 0 11 L 16 11" class="highcharts-graph" stroke="#990300" stroke-width="2"></path><text x="21" y="15" style="color:#333333;cursor:pointer;font-size:12px;font-weight:normal;fill:#333333;" text-anchor="start" data-z-index="2"><tspan>Klingelbergstrasse, Basel (Stadtzentrum, 38 m über Grund)</tspan></text></g><g class="highcharts-legend-item highcharts-line-series highcharts-color-undefined highcharts-series-4" data-z-index="1" transform="translate(8,75)"><path fill="none" d="M 0 11 L 16 11" class="highcharts-graph" stroke="#73b97c" stroke-width="2"></path><text x="21" y="15" style="color:#333333;cursor:pointer;font-size:12px;font-weight:normal;fill:#333333;" text-anchor="start" data-z-index="2"><tspan>Sissach (vorstädtisch, offene Bebauung)</tspan></text></g><g class="highcharts-legend-item highcharts-line-series highcharts-color-undefined highcharts-series-5" data-z-index="1" transform="translate(8,93)"><path fill="none" d="M 0 11 L 16 11" class="highcharts-graph" stroke="#fabd24" stroke-width="2"></path><text x="21" y="15" style="color:#333333;cursor:pointer;font-size:12px;font-weight:normal;fill:#333333;" text-anchor="start" data-z-index="2"><tspan>Dornach (vorstädtisch, offene Bebauung)</tspan></text></g></g></g></g><g class="highcharts-axis-labels highcharts-xaxis-labels" data-z-index="7"><text x="41.196078431372" style="color:#000000;cursor:default;font-size:11px;fill:#000000;" text-anchor="middle" transform="translate(0,0)" y="340" opacity="1">1995</text><text x="111.13071895425" style="color:#000000;cursor:default;font-size:11px;fill:#000000;" text-anchor="middle" transform="translate(0,0)" y="340" opacity="1">2000</text><text x="181.06535947712" style="color:#000000;cursor:default;font-size:11px;fill:#000000;" text-anchor="middle" transform="translate(0,0)" y="340" opacity="1">2005</text><text x="251" style="color:#000000;cursor:default;font-size:11px;fill:#000000;" text-anchor="middle" transform="translate(0,0)" y="340" opacity="1">2010</text><text x="320.93464052288" style="color:#000000;cursor:default;font-size:11px;fill:#000000;" text-anchor="middle" transform="translate(0,0)" y="340" opacity="1">2015</text><text x="390.86928104575" style="color:#000000;cursor:default;font-size:11px;fill:#000000;" text-anchor="middle" transform="translate(0,0)" y="340" opacity="1">2020</text><text x="460.80392156863" style="color:#000000;cursor:default;font-size:11px;fill:#000000;" text-anchor="middle" transform="translate(0,0)" y="340" opacity="1">2025</text></g><g class="highcharts-axis-labels highcharts-yaxis-labels" data-z-index="7"><text x="22" style="color:#000000;cursor:default;font-size:11px;fill:#000000;" text-anchor="end" transform="translate(0,0)" y="325" opacity="1">0</text><text x="22" style="color:#000000;cursor:default;font-size:11px;fill:#000000;" text-anchor="end" transform="translate(0,0)" y="298" opacity="1">10</text><text x="22" style="color:#000000;cursor:default;font-size:11px;fill:#000000;" text-anchor="end" transform="translate(0,0)" y="271" opacity="1">20</text><text x="22" style="color:#000000;cursor:default;font-size:11px;fill:#000000;" text-anchor="end" transform="translate(0,0)" y="245" opacity="1">30</text><text x="22" style="color:#000000;cursor:default;font-size:11px;fill:#000000;" text-anchor="end" transform="translate(0,0)" y="218" opacity="1">40</text><text x="22" style="color:#000000;cursor:default;font-size:11px;fill:#000000;" text-anchor="end" transform="translate(0,0)" y="191" opacity="1">50</text></g><text x="10" class="highcharts-credits" text-anchor="start" data-z-index="8" style="cursor:default;color:#000000;font-size:10px;fill:#000000;" y="373"><tspan>Quelle: Universität Basel;</tspan><tspan x="10" dy="13">Lufthygieneamt beider Basel;</tspan><tspan x="10" dy="13">Meteorologischer Verein der Region Basel;</tspan><tspan x="10" dy="13">MeteoSchweiz.</tspan><tspan x="10" dy="13">Zuletzt geändert: 23.4.2026</tspan></text><g class="highcharts-control-points" data-z-index="99" clip-path="url(#highcharts-1zs7pik-381-)"></g></svg>