<?xml version="1.0" standalone="no"?><!DOCTYPE svg PUBLIC "-//W3C//DTD SVG 1.1//EN" "http://www.w3.org/Graphics/SVG/1.1/DTD/svg11.dtd"><svg xmlns:xlink="http://www.w3.org/1999/xlink" version="1.1" class="highcharts-root" style="font-family:Arial;font-size:10px;color:#000000;fill:#000000;" xmlns="http://www.w3.org/2000/svg" viewBox="0 0 485 415"><desc>Created with Highstock 6.1.1</desc><defs><clipPath id="highcharts-pum8fif-6"><rect x="0" y="0" width="271" height="44" fill="none"></rect></clipPath><clipPath id="highcharts-pum8fif-7"><rect x="0" y="0" width="271" height="44" fill="none"></rect></clipPath></defs><rect fill="#fbfbfb" class="highcharts-background" x="0" y="0" width="320" height="221" rx="0" ry="0"></rect><rect fill="none" class="highcharts-plot-background" x="34" y="103" width="271" height="44"></rect><g class="highcharts-pane-group" data-z-index="0"></g><g class="highcharts-grid highcharts-xaxis-grid " data-z-index="1"><path fill="none" data-z-index="1" class="highcharts-grid-line" d="M 60.5 103 L 60.5 147" opacity="1"></path><path fill="none" data-z-index="1" class="highcharts-grid-line" d="M 87.5 103 L 87.5 147" opacity="1"></path><path fill="none" data-z-index="1" class="highcharts-grid-line" d="M 114.5 103 L 114.5 147" opacity="1"></path><path fill="none" data-z-index="1" class="highcharts-grid-line" d="M 141.5 103 L 141.5 147" opacity="1"></path><path fill="none" data-z-index="1" class="highcharts-grid-line" d="M 169.5 103 L 169.5 147" opacity="1"></path><path fill="none" data-z-index="1" class="highcharts-grid-line" d="M 196.5 103 L 196.5 147" opacity="1"></path><path fill="none" data-z-index="1" class="highcharts-grid-line" d="M 223.5 103 L 223.5 147" opacity="1"></path><path fill="none" data-z-index="1" class="highcharts-grid-line" d="M 250.5 103 L 250.5 147" opacity="1"></path><path fill="none" data-z-index="1" class="highcharts-grid-line" d="M 277.5 103 L 277.5 147" opacity="1"></path><path fill="none" data-z-index="1" class="highcharts-grid-line" d="M 304.5 103 L 304.5 147" opacity="1"></path><path fill="none" data-z-index="1" class="highcharts-grid-line" d="M 33.5 103 L 33.5 147" opacity="1"></path></g><g class="highcharts-grid highcharts-yaxis-grid " data-z-index="1"><path fill="none" stroke="#B9CFD7" stroke-width="0.5" data-z-index="1" class="highcharts-grid-line" d="M 34 147.25 L 305 147.25" opacity="1"></path><path fill="none" stroke="#B9CFD7" stroke-width="0.5" data-z-index="1" class="highcharts-grid-line" d="M 34 132.25 L 305 132.25" opacity="1"></path><path fill="none" stroke="#B9CFD7" stroke-width="0.5" data-z-index="1" class="highcharts-grid-line" d="M 34 118.25 L 305 118.25" opacity="1"></path><path fill="none" stroke="#B9CFD7" stroke-width="0.5" data-z-index="1" class="highcharts-grid-line" d="M 34 102.75 L 305 102.75" opacity="1"></path></g><rect fill="none" class="highcharts-plot-border" data-z-index="1" x="34" y="103" width="271" height="44"></rect><g class="highcharts-axis highcharts-xaxis " data-z-index="2"><path fill="none" class="highcharts-axis-line" stroke="#B9CFD7" stroke-width="0.5" data-z-index="7" d="M 34 147.25 L 305 147.25"></path></g><g class="highcharts-axis highcharts-yaxis " data-z-index="2"><path fill="none" class="highcharts-axis-line" data-z-index="7" d="M 34 103 L 34 147"></path></g><g class="highcharts-series-group" data-z-index="3"><g data-z-index="0.1" class="highcharts-series highcharts-series-0 highcharts-column-series " transform="translate(34,103) scale(1 1)" clip-path="url(#highcharts-pum8fif-7)"><rect x="7" y="8" width="14" height="2" fill="#661200" class="highcharts-point"></rect><rect x="34" y="8" width="14" height="2" fill="#661200" class="highcharts-point"></rect><rect x="61" y="8" width="14" height="2" fill="#661200" class="highcharts-point"></rect><rect x="88" y="8" width="14" height="2" fill="#661200" class="highcharts-point"></rect><rect x="115" y="8" width="14" height="3" fill="#661200" class="highcharts-point"></rect><rect x="143" y="8" width="14" height="3" fill="#661200" class="highcharts-point"></rect><rect x="170" y="8" width="14" height="3" fill="#661200" class="highcharts-point"></rect><rect x="197" y="8" width="14" height="3" fill="#661200" class="highcharts-point"></rect><rect x="224" y="8" width="14" height="3" fill="#661200" class="highcharts-point"></rect><rect x="251" y="8" width="14" height="3" fill="#661200" class="highcharts-point"></rect></g><g data-z-index="0.1" class="highcharts-markers highcharts-series-0 highcharts-column-series " transform="translate(34,103) scale(1 1)" clip-path="none"></g><g data-z-index="0.1" class="highcharts-series highcharts-series-1 highcharts-column-series " transform="translate(34,103) scale(1 1)" clip-path="url(#highcharts-pum8fif-7)"><rect x="7" y="10" width="14" height="5" fill="#B00000" class="highcharts-point"></rect><rect x="34" y="10" width="14" height="6" fill="#B00000" class="highcharts-point"></rect><rect x="61" y="10" width="14" height="5" fill="#B00000" class="highcharts-point"></rect><rect x="88" y="10" width="14" height="6" fill="#B00000" class="highcharts-point"></rect><rect x="115" y="11" width="14" height="5" fill="#B00000" class="highcharts-point"></rect><rect x="143" y="11" width="14" height="5" fill="#B00000" class="highcharts-point"></rect><rect x="170" y="11" width="14" height="6" fill="#B00000" class="highcharts-point"></rect><rect x="197" y="11" width="14" height="7" fill="#B00000" class="highcharts-point"></rect><rect x="224" y="11" width="14" height="8" fill="#B00000" class="highcharts-point"></rect><rect x="251" y="11" width="14" height="7" fill="#B00000" class="highcharts-point"></rect></g><g data-z-index="0.1" class="highcharts-markers highcharts-series-1 highcharts-column-series " transform="translate(34,103) scale(1 1)" clip-path="none"></g><g data-z-index="0.1" class="highcharts-series highcharts-series-2 highcharts-column-series " transform="translate(34,103) scale(1 1)" clip-path="url(#highcharts-pum8fif-7)"><rect x="7" y="15" width="14" height="9" fill="#FF8028" class="highcharts-point"></rect><rect x="34" y="16" width="14" height="8" fill="#FF8028" class="highcharts-point"></rect><rect x="61" y="15" width="14" height="9" fill="#FF8028" class="highcharts-point"></rect><rect x="88" y="16" width="14" height="8" fill="#FF8028" class="highcharts-point"></rect><rect x="115" y="16" width="14" height="10" fill="#FF8028" class="highcharts-point"></rect><rect x="143" y="16" width="14" height="12" fill="#FF8028" class="highcharts-point"></rect><rect x="170" y="17" width="14" height="10" fill="#FF8028" class="highcharts-point"></rect><rect x="197" y="18" width="14" height="10" fill="#FF8028" class="highcharts-point"></rect><rect x="224" y="19" width="14" height="9" fill="#FF8028" class="highcharts-point"></rect><rect x="251" y="18" width="14" height="9" fill="#FF8028" class="highcharts-point"></rect></g><g data-z-index="0.1" class="highcharts-markers highcharts-series-2 highcharts-column-series " transform="translate(34,103) scale(1 1)" clip-path="none"></g><g data-z-index="0.1" class="highcharts-series highcharts-series-3 highcharts-column-series " transform="translate(34,103) scale(1 1)" clip-path="url(#highcharts-pum8fif-7)"><rect x="7" y="24" width="14" height="9" fill="#7F5F1A" class="highcharts-point"></rect><rect x="34" y="24" width="14" height="10" fill="#7F5F1A" class="highcharts-point"></rect><rect x="61" y="24" width="14" height="10" fill="#7F5F1A" class="highcharts-point"></rect><rect x="88" y="24" width="14" height="10" fill="#7F5F1A" class="highcharts-point"></rect><rect x="115" y="26" width="14" height="10" fill="#7F5F1A" class="highcharts-point"></rect><rect x="143" y="28" width="14" height="8" fill="#7F5F1A" class="highcharts-point"></rect><rect x="170" y="27" width="14" height="10" fill="#7F5F1A" class="highcharts-point"></rect><rect x="197" y="28" width="14" height="8" fill="#7F5F1A" class="highcharts-point"></rect><rect x="224" y="28" width="14" height="8" fill="#7F5F1A" class="highcharts-point"></rect><rect x="251" y="27" width="14" height="9" fill="#7F5F1A" class="highcharts-point"></rect></g><g data-z-index="0.1" class="highcharts-markers highcharts-series-3 highcharts-column-series " transform="translate(34,103) scale(1 1)" clip-path="none"></g><g data-z-index="0.1" class="highcharts-series highcharts-series-4 highcharts-column-series " transform="translate(34,103) scale(1 1)" clip-path="url(#highcharts-pum8fif-7)"><rect x="7" y="33" width="14" height="5" fill="#CD9C00" class="highcharts-point"></rect><rect x="34" y="34" width="14" height="5" fill="#CD9C00" class="highcharts-point"></rect><rect x="61" y="34" width="14" height="5" fill="#CD9C00" class="highcharts-point"></rect><rect x="88" y="34" width="14" height="5" fill="#CD9C00" class="highcharts-point"></rect><rect x="115" y="36" width="14" height="4" fill="#CD9C00" class="highcharts-point"></rect><rect x="143" y="36" width="14" height="4" fill="#CD9C00" class="highcharts-point"></rect><rect x="170" y="37" width="14" height="4" fill="#CD9C00" class="highcharts-point"></rect><rect x="197" y="36" width="14" height="4" fill="#CD9C00" class="highcharts-point"></rect><rect x="224" y="36" width="14" height="5" fill="#CD9C00" class="highcharts-point"></rect><rect x="251" y="36" width="14" height="3" fill="#CD9C00" class="highcharts-point"></rect></g><g data-z-index="0.1" class="highcharts-markers highcharts-series-4 highcharts-column-series " transform="translate(34,103) scale(1 1)" clip-path="none"></g><g data-z-index="0.1" class="highcharts-series highcharts-series-5 highcharts-column-series " transform="translate(34,103) scale(1 1)" clip-path="url(#highcharts-pum8fif-7)"><rect x="7" y="38" width="14" height="7" fill="#FFBB58" class="highcharts-point"></rect><rect x="34" y="39" width="14" height="6" fill="#FFBB58" class="highcharts-point"></rect><rect x="61" y="39" width="14" height="6" fill="#FFBB58" class="highcharts-point"></rect><rect x="88" y="39" width="14" height="6" fill="#FFBB58" class="highcharts-point"></rect><rect x="115" y="40" width="14" height="5" fill="#FFBB58" class="highcharts-point"></rect><rect x="143" y="40" width="14" height="5" fill="#FFBB58" class="highcharts-point"></rect><rect x="170" y="41" width="14" height="4" fill="#FFBB58" class="highcharts-point"></rect><rect x="197" y="40" width="14" height="5" fill="#FFBB58" class="highcharts-point"></rect><rect x="224" y="41" width="14" height="4" fill="#FFBB58" class="highcharts-point"></rect><rect x="251" y="39" width="14" height="6" fill="#FFBB58" class="highcharts-point"></rect></g><g data-z-index="0.1" class="highcharts-markers highcharts-series-5 highcharts-column-series " transform="translate(34,103) scale(1 1)" clip-path="none"></g></g><text x="2" text-anchor="start" class="highcharts-title" data-z-index="4" style="color:#000000;font-size:10px;font-weight:bold;fill:#000000;" y="9"><tspan>In der Notschlafstelle Übernachtende nach Alter</tspan></text><text x="2" text-anchor="start" class="highcharts-subtitle" data-z-index="4" style="color:#000000;font-size:10px;font-weight:normal;font-family:Arial;fill:#000000;" y="26"><tspan>Basel-Stadt</tspan></text><g class="highcharts-legend" data-z-index="7" transform="translate(31,42)"><rect fill="none" class="highcharts-legend-box" rx="0" ry="0" x="0" y="0" width="206" height="49" visibility="visible"></rect><g data-z-index="1"><g><g class="highcharts-legend-item highcharts-column-series highcharts-color-undefined highcharts-series-5" data-z-index="1" transform="translate(0,-5)"><text x="21" style="color:#333333;font-size:10px;font-weight:normal;cursor:pointer;fill:#333333;" text-anchor="start" data-z-index="2" y="13"><tspan>18 bis 25 Jahre</tspan></text><rect x="3" y="4" width="10" height="10" fill="#FFBB58" class="highcharts-point" data-z-index="3"></rect></g><g class="highcharts-legend-item highcharts-column-series highcharts-color-undefined highcharts-series-4" data-z-index="1" transform="translate(113,-5)"><text x="21" y="13" style="color:#333333;font-size:10px;font-weight:normal;cursor:pointer;fill:#333333;" text-anchor="start" data-z-index="2"><tspan>26 bis 30 Jahre</tspan></text><rect x="3" y="4" width="10" height="10" fill="#CD9C00" class="highcharts-point" data-z-index="3"></rect></g><g class="highcharts-legend-item highcharts-column-series highcharts-color-undefined highcharts-series-3" data-z-index="1" transform="translate(0,13)"><text x="21" y="13" style="color:#333333;font-size:10px;font-weight:normal;cursor:pointer;fill:#333333;" text-anchor="start" data-z-index="2"><tspan>31 bis 40 Jahre</tspan></text><rect x="3" y="4" width="10" height="10" fill="#7F5F1A" class="highcharts-point" data-z-index="3"></rect></g><g class="highcharts-legend-item highcharts-column-series highcharts-color-undefined highcharts-series-2" data-z-index="1" transform="translate(113,13)"><text x="21" y="13" style="color:#333333;font-size:10px;font-weight:normal;cursor:pointer;fill:#333333;" text-anchor="start" data-z-index="2"><tspan>41 bis 50 Jahre</tspan></text><rect x="3" y="4" width="10" height="10" fill="#FF8028" class="highcharts-point" data-z-index="3"></rect></g><g class="highcharts-legend-item highcharts-column-series highcharts-color-undefined highcharts-series-1" data-z-index="1" transform="translate(0,31)"><text x="21" y="13" style="color:#333333;font-size:10px;font-weight:normal;cursor:pointer;fill:#333333;" text-anchor="start" data-z-index="2"><tspan>51 bis 60 Jahre</tspan></text><rect x="3" y="4" width="10" height="10" fill="#B00000" class="highcharts-point" data-z-index="3"></rect></g><g class="highcharts-legend-item highcharts-column-series highcharts-color-undefined highcharts-series-0" data-z-index="1" transform="translate(113,31)"><text x="21" y="13" style="color:#333333;font-size:10px;font-weight:normal;cursor:pointer;fill:#333333;" text-anchor="start" data-z-index="2"><tspan>61 bis 70 Jahre</tspan></text><rect x="3" y="4" width="10" height="10" fill="#661200" class="highcharts-point" data-z-index="3"></rect></g></g></g></g><g class="highcharts-axis-labels highcharts-xaxis-labels " data-z-index="7"><text x="49.907022603955156" style="color:#000000;cursor:default;font-size:10px;fill:#000000;" text-anchor="end" transform="translate(0,0) rotate(-45 49.907022603955156 162)" y="162" opacity="1"><tspan>2009 (N=355)</tspan></text><text x="77.00702260395516" style="color:#000000;cursor:default;font-size:10px;fill:#000000;" text-anchor="end" transform="translate(0,0) rotate(-45 77.00702260395516 162)" y="162" opacity="1"><tspan>2010 (N=358)</tspan></text><text x="104.10702260395516" style="color:#000000;cursor:default;font-size:10px;fill:#000000;" text-anchor="end" transform="translate(0,0) rotate(-45 104.10702260395516 162)" y="162" opacity="1"><tspan>2011 (N=374)</tspan></text><text x="131.20702260395515" style="color:#000000;cursor:default;font-size:10px;fill:#000000;" text-anchor="end" transform="translate(0,0) rotate(-45 131.20702260395515 162)" y="162" opacity="1"><tspan>2012 (N=361)</tspan></text><text x="158.30702260395515" style="color:#000000;cursor:default;font-size:10px;fill:#000000;" text-anchor="end" transform="translate(0,0) rotate(-45 158.30702260395515 162)" y="162" opacity="1"><tspan>2013 (N=438)</tspan></text><text x="185.40702260395514" style="color:#000000;cursor:default;font-size:10px;fill:#000000;" text-anchor="end" transform="translate(0,0) rotate(-45 185.40702260395514 162)" y="162" opacity="1"><tspan>2014 (N=454)</tspan></text><text x="212.50702260395514" style="color:#000000;cursor:default;font-size:10px;fill:#000000;" text-anchor="end" transform="translate(0,0) rotate(-45 212.50702260395514 162)" y="162" opacity="1"><tspan>2015 (N=417)</tspan></text><text x="239.60702260395516" style="color:#000000;cursor:default;font-size:10px;fill:#000000;" text-anchor="end" transform="translate(0,0) rotate(-45 239.60702260395516 162)" y="162" opacity="1"><tspan>2016 (N=466)</tspan></text><text x="266.7070226039551" style="color:#000000;cursor:default;font-size:10px;fill:#000000;" text-anchor="end" transform="translate(0,0) rotate(-45 266.7070226039551 162)" y="162" opacity="1"><tspan>2017 (N=415)</tspan></text><text x="293.80702260395515" style="color:#000000;cursor:default;font-size:10px;fill:#000000;" text-anchor="end" transform="translate(0,0) rotate(-45 293.80702260395515 162)" y="162" opacity="1"><tspan>2018 (N=407)</tspan></text></g><g class="highcharts-axis-labels highcharts-yaxis-labels " data-z-index="7"><text x="29" style="color:#000000;cursor:default;font-size:10px;fill:#000000;" text-anchor="end" transform="translate(0,0)" y="150" opacity="1">0%</text><text x="29" style="color:#000000;cursor:default;font-size:10px;fill:#000000;" text-anchor="end" transform="translate(0,0)" y="135" opacity="1">40%</text><text x="29" style="color:#000000;cursor:default;font-size:10px;fill:#000000;" text-anchor="end" transform="translate(0,0)" y="121" opacity="1">80%</text><text x="29" style="color:#000000;cursor:default;font-size:10px;fill:#000000;" text-anchor="end" transform="translate(0,0)" y="106" opacity="1">120%</text></g><text x="10" class="highcharts-credits" text-anchor="start" data-z-index="8" style="cursor:default;color:#000000;font-size:10;fill:#000000;" y="196"><tspan>Quelle: Sozialhilfe des Kantons Basel-Stadt, Notschlafstellen und Notwohnungen.</tspan><tspan x="10" dy="15">Zuletzt geändert: 2020-5-18</tspan></text></svg>