<?xml version="1.0" standalone="no"?><!DOCTYPE svg PUBLIC "-//W3C//DTD SVG 1.1//EN" "http://www.w3.org/Graphics/SVG/1.1/DTD/svg11.dtd"><svg xmlns:xlink="http://www.w3.org/1999/xlink" version="1.1" class="highcharts-root" style="font-family:Arial;font-size:12px;" xmlns="http://www.w3.org/2000/svg" viewBox="0 0 485 415"><desc>Created with Highstock 6.1.1</desc><defs><clipPath id="highcharts-oz7u1cv-6"><rect x="0" y="0" width="274" height="20" fill="none"></rect></clipPath><clipPath id="highcharts-oz7u1cv-7"><rect x="0" y="0" width="274" height="20" fill="none"></rect></clipPath></defs><rect fill="#fbfbfb" class="highcharts-background" x="0" y="0" width="320" height="221" rx="0" ry="0"></rect><rect fill="none" class="highcharts-plot-background" x="44" y="116" width="274" height="20"></rect><g class="highcharts-pane-group" data-z-index="0"></g><g class="highcharts-grid highcharts-xaxis-grid " data-z-index="1"><path fill="none" data-z-index="1" class="highcharts-grid-line" d="M 63.5 116 L 63.5 136" opacity="1"></path><path fill="none" data-z-index="1" class="highcharts-grid-line" d="M 82.5 116 L 82.5 136" opacity="1"></path><path fill="none" data-z-index="1" class="highcharts-grid-line" d="M 102.5 116 L 102.5 136" opacity="1"></path><path fill="none" data-z-index="1" class="highcharts-grid-line" d="M 121.5 116 L 121.5 136" opacity="1"></path><path fill="none" data-z-index="1" class="highcharts-grid-line" d="M 141.5 116 L 141.5 136" opacity="1"></path><path fill="none" data-z-index="1" class="highcharts-grid-line" d="M 160.5 116 L 160.5 136" opacity="1"></path><path fill="none" data-z-index="1" class="highcharts-grid-line" d="M 180.5 116 L 180.5 136" opacity="1"></path><path fill="none" data-z-index="1" class="highcharts-grid-line" d="M 200.5 116 L 200.5 136" opacity="1"></path><path fill="none" data-z-index="1" class="highcharts-grid-line" d="M 219.5 116 L 219.5 136" opacity="1"></path><path fill="none" data-z-index="1" class="highcharts-grid-line" d="M 239.5 116 L 239.5 136" opacity="1"></path><path fill="none" data-z-index="1" class="highcharts-grid-line" d="M 258.5 116 L 258.5 136" opacity="1"></path><path fill="none" data-z-index="1" class="highcharts-grid-line" d="M 278.5 116 L 278.5 136" opacity="1"></path><path fill="none" data-z-index="1" class="highcharts-grid-line" d="M 297.5 116 L 297.5 136" opacity="1"></path><path fill="none" data-z-index="1" class="highcharts-grid-line" d="M 317.5 116 L 317.5 136" opacity="1"></path><path fill="none" data-z-index="1" class="highcharts-grid-line" d="M 43.5 116 L 43.5 136" opacity="1"></path></g><g class="highcharts-grid highcharts-yaxis-grid " data-z-index="1"><path fill="none" stroke="#B9CFD7" stroke-width="0.5" data-z-index="1" class="highcharts-grid-line" d="M 44 136.25 L 318 136.25" opacity="1"></path><path fill="none" stroke="#B9CFD7" stroke-width="0.5" data-z-index="1" class="highcharts-grid-line" d="M 44 126.25 L 318 126.25" opacity="1"></path><path fill="none" stroke="#B9CFD7" stroke-width="0.5" data-z-index="1" class="highcharts-grid-line" d="M 44 115.75 L 318 115.75" opacity="1"></path></g><rect fill="none" class="highcharts-plot-border" data-z-index="1" x="44" y="116" width="274" height="20"></rect><g class="highcharts-axis highcharts-xaxis " data-z-index="2"><path fill="none" class="highcharts-axis-line" stroke="#B9CFD7" stroke-width="0.5" data-z-index="7" d="M 44 136.25 L 318 136.25"></path></g><g class="highcharts-axis highcharts-yaxis " data-z-index="2"><path fill="none" class="highcharts-axis-line" data-z-index="7" d="M 44 116 L 44 136"></path></g><g class="highcharts-series-group" data-z-index="3"><g data-z-index="0.1" class="highcharts-series highcharts-series-0 highcharts-column-series " transform="translate(44,116) scale(1 1)" clip-path="url(#highcharts-oz7u1cv-7)"><rect x="5" y="9" width="10" height="1" fill="#661200" class="highcharts-point"></rect><rect x="25" y="9" width="10" height="1" fill="#661200" class="highcharts-point"></rect><rect x="64" y="9" width="10" height="1" fill="#661200" class="highcharts-point"></rect><rect x="83" y="9" width="10" height="1" fill="#661200" class="highcharts-point"></rect><rect x="123" y="9" width="10" height="0" fill="#661200" class="highcharts-point"></rect><rect x="142" y="9" width="10" height="0" fill="#661200" class="highcharts-point"></rect><rect x="181" y="9" width="10" height="1" fill="#661200" class="highcharts-point"></rect><rect x="201" y="9" width="10" height="1" fill="#661200" class="highcharts-point"></rect><rect x="240" y="9" width="10" height="0" fill="#661200" class="highcharts-point"></rect><rect x="260" y="9" width="10" height="1" fill="#661200" class="highcharts-point"></rect></g><g data-z-index="0.1" class="highcharts-markers highcharts-series-0 highcharts-column-series " transform="translate(44,116) scale(1 1)" clip-path="none"></g><g data-z-index="0.1" class="highcharts-series highcharts-series-1 highcharts-column-series " transform="translate(44,116) scale(1 1)" clip-path="url(#highcharts-oz7u1cv-7)"><rect x="5" y="10" width="10" height="1" fill="#B00000" class="highcharts-point"></rect><rect x="25" y="10" width="10" height="1" fill="#B00000" class="highcharts-point"></rect><rect x="64" y="10" width="10" height="1" fill="#B00000" class="highcharts-point"></rect><rect x="83" y="10" width="10" height="1" fill="#B00000" class="highcharts-point"></rect><rect x="123" y="9" width="10" height="1" fill="#B00000" class="highcharts-point"></rect><rect x="142" y="9" width="10" height="1" fill="#B00000" class="highcharts-point"></rect><rect x="181" y="10" width="10" height="1" fill="#B00000" class="highcharts-point"></rect><rect x="201" y="10" width="10" height="1" fill="#B00000" class="highcharts-point"></rect><rect x="240" y="9" width="10" height="2" fill="#B00000" class="highcharts-point"></rect><rect x="260" y="10" width="10" height="1" fill="#B00000" class="highcharts-point"></rect></g><g data-z-index="0.1" class="highcharts-markers highcharts-series-1 highcharts-column-series " transform="translate(44,116) scale(1 1)" clip-path="none"></g><g data-z-index="0.1" class="highcharts-series highcharts-series-2 highcharts-column-series " transform="translate(44,116) scale(1 1)" clip-path="url(#highcharts-oz7u1cv-7)"><rect x="5" y="11" width="10" height="1" fill="#FF8028" class="highcharts-point"></rect><rect x="25" y="11" width="10" height="1" fill="#FF8028" class="highcharts-point"></rect><rect x="64" y="11" width="10" height="1" fill="#FF8028" class="highcharts-point"></rect><rect x="83" y="11" width="10" height="1" fill="#FF8028" class="highcharts-point"></rect><rect x="123" y="10" width="10" height="1" fill="#FF8028" class="highcharts-point"></rect><rect x="142" y="10" width="10" height="1" fill="#FF8028" class="highcharts-point"></rect><rect x="181" y="11" width="10" height="1" fill="#FF8028" class="highcharts-point"></rect><rect x="201" y="11" width="10" height="1" fill="#FF8028" class="highcharts-point"></rect><rect x="240" y="11" width="10" height="1" fill="#FF8028" class="highcharts-point"></rect><rect x="260" y="11" width="10" height="2" fill="#FF8028" class="highcharts-point"></rect></g><g data-z-index="0.1" class="highcharts-markers highcharts-series-2 highcharts-column-series " transform="translate(44,116) scale(1 1)" clip-path="none"></g><g data-z-index="0.1" class="highcharts-series highcharts-series-3 highcharts-column-series " transform="translate(44,116) scale(1 1)" clip-path="url(#highcharts-oz7u1cv-7)"><rect x="5" y="12" width="10" height="2" fill="#7F5F1A" class="highcharts-point"></rect><rect x="25" y="12" width="10" height="1" fill="#7F5F1A" class="highcharts-point"></rect><rect x="64" y="12" width="10" height="1" fill="#7F5F1A" class="highcharts-point"></rect><rect x="83" y="12" width="10" height="1" fill="#7F5F1A" class="highcharts-point"></rect><rect x="123" y="11" width="10" height="2" fill="#7F5F1A" class="highcharts-point"></rect><rect x="142" y="11" width="10" height="2" fill="#7F5F1A" class="highcharts-point"></rect><rect x="181" y="12" width="10" height="1" fill="#7F5F1A" class="highcharts-point"></rect><rect x="201" y="12" width="10" height="2" fill="#7F5F1A" class="highcharts-point"></rect><rect x="240" y="12" width="10" height="1" fill="#7F5F1A" class="highcharts-point"></rect><rect x="260" y="13" width="10" height="1" fill="#7F5F1A" class="highcharts-point"></rect></g><g data-z-index="0.1" class="highcharts-markers highcharts-series-3 highcharts-column-series " transform="translate(44,116) scale(1 1)" clip-path="none"></g><g data-z-index="0.1" class="highcharts-series highcharts-series-4 highcharts-column-series " transform="translate(44,116) scale(1 1)" clip-path="url(#highcharts-oz7u1cv-7)"><rect x="5" y="14" width="10" height="1" fill="#CD9C00" class="highcharts-point"></rect><rect x="25" y="13" width="10" height="1" fill="#CD9C00" class="highcharts-point"></rect><rect x="64" y="13" width="10" height="1" fill="#CD9C00" class="highcharts-point"></rect><rect x="83" y="13" width="10" height="2" fill="#CD9C00" class="highcharts-point"></rect><rect x="123" y="13" width="10" height="1" fill="#CD9C00" class="highcharts-point"></rect><rect x="142" y="13" width="10" height="1" fill="#CD9C00" class="highcharts-point"></rect><rect x="181" y="13" width="10" height="1" fill="#CD9C00" class="highcharts-point"></rect><rect x="201" y="14" width="10" height="1" fill="#CD9C00" class="highcharts-point"></rect><rect x="240" y="13" width="10" height="1" fill="#CD9C00" class="highcharts-point"></rect><rect x="260" y="14" width="10" height="1" fill="#CD9C00" class="highcharts-point"></rect></g><g data-z-index="0.1" class="highcharts-markers highcharts-series-4 highcharts-column-series " transform="translate(44,116) scale(1 1)" clip-path="none"></g><g data-z-index="0.1" class="highcharts-series highcharts-series-5 highcharts-column-series " transform="translate(44,116) scale(1 1)" clip-path="url(#highcharts-oz7u1cv-7)"><rect x="5" y="15" width="10" height="6" fill="#FFBB58" class="highcharts-point"></rect><rect x="25" y="14" width="10" height="7" fill="#FFBB58" class="highcharts-point"></rect><rect x="64" y="14" width="10" height="7" fill="#FFBB58" class="highcharts-point"></rect><rect x="83" y="15" width="10" height="6" fill="#FFBB58" class="highcharts-point"></rect><rect x="123" y="14" width="10" height="7" fill="#FFBB58" class="highcharts-point"></rect><rect x="142" y="14" width="10" height="7" fill="#FFBB58" class="highcharts-point"></rect><rect x="181" y="14" width="10" height="7" fill="#FFBB58" class="highcharts-point"></rect><rect x="201" y="15" width="10" height="6" fill="#FFBB58" class="highcharts-point"></rect><rect x="240" y="14" width="10" height="7" fill="#FFBB58" class="highcharts-point"></rect><rect x="260" y="15" width="10" height="6" fill="#FFBB58" class="highcharts-point"></rect></g><g data-z-index="0.1" class="highcharts-markers highcharts-series-5 highcharts-column-series " transform="translate(44,116) scale(1 1)" clip-path="none"></g></g><text x="2" text-anchor="start" class="highcharts-title" data-z-index="4" style="color:#000000;font-size:10px;font-weight:bold;fill:#000000;" y="9"><tspan>In der Notschlafstelle Übernachtende nach Geschlecht</tspan><tspan dy="13" x="2">und Anzahl Nächten</tspan></text><text x="2" text-anchor="start" class="highcharts-subtitle" data-z-index="4" style="color:#000000;font-size:10px;font-weight:normal;font-family:Arial;fill:#000000;" y="39"><tspan>Basel-Stadt</tspan></text><g class="highcharts-legend" data-z-index="7" transform="translate(41,55)"><rect fill="none" class="highcharts-legend-box" rx="0" ry="0" x="0" y="0" width="232" height="49" visibility="visible"></rect><g data-z-index="1"><g><g class="highcharts-legend-item highcharts-column-series highcharts-color-undefined highcharts-series-5" data-z-index="1" transform="translate(0,-5)"><text x="21" style="color:#333333;font-size:10px;font-weight:normal;cursor:pointer;fill:#333333;" text-anchor="start" data-z-index="2" y="13"><tspan>1 bis 7 Nächte</tspan></text><rect x="3" y="4" width="10" height="10" fill="#FFBB58" class="highcharts-point" data-z-index="3"></rect></g><g class="highcharts-legend-item highcharts-column-series highcharts-color-undefined highcharts-series-4" data-z-index="1" transform="translate(126,-5)"><text x="21" y="13" style="color:#333333;font-size:10px;font-weight:normal;cursor:pointer;fill:#333333;" text-anchor="start" data-z-index="2"><tspan>8 bis 14 Nächte</tspan></text><rect x="3" y="4" width="10" height="10" fill="#CD9C00" class="highcharts-point" data-z-index="3"></rect></g><g class="highcharts-legend-item highcharts-column-series highcharts-color-undefined highcharts-series-3" data-z-index="1" transform="translate(0,13)"><text x="21" y="13" style="color:#333333;font-size:10px;font-weight:normal;cursor:pointer;fill:#333333;" text-anchor="start" data-z-index="2"><tspan>15 bis 30 Nächte</tspan></text><rect x="3" y="4" width="10" height="10" fill="#7F5F1A" class="highcharts-point" data-z-index="3"></rect></g><g class="highcharts-legend-item highcharts-column-series highcharts-color-undefined highcharts-series-2" data-z-index="1" transform="translate(126,13)"><text x="21" y="13" style="color:#333333;font-size:10px;font-weight:normal;cursor:pointer;fill:#333333;" text-anchor="start" data-z-index="2"><tspan>31 bis 60 Nächte</tspan></text><rect x="3" y="4" width="10" height="10" fill="#FF8028" class="highcharts-point" data-z-index="3"></rect></g><g class="highcharts-legend-item highcharts-column-series highcharts-color-undefined highcharts-series-1" data-z-index="1" transform="translate(0,31)"><text x="21" y="13" style="color:#333333;font-size:10px;font-weight:normal;cursor:pointer;fill:#333333;" text-anchor="start" data-z-index="2"><tspan>61 bis 150 Nächte</tspan></text><rect x="3" y="4" width="10" height="10" fill="#B00000" class="highcharts-point" data-z-index="3"></rect></g><g class="highcharts-legend-item highcharts-column-series highcharts-color-undefined highcharts-series-0" data-z-index="1" transform="translate(126,31)"><text x="21" y="13" style="color:#333333;font-size:10px;font-weight:normal;cursor:pointer;fill:#333333;" text-anchor="start" data-z-index="2"><tspan>&gt;150 Nächte</tspan></text><rect x="3" y="4" width="10" height="10" fill="#661200" class="highcharts-point" data-z-index="3"></rect></g></g></g></g><g class="highcharts-axis-labels highcharts-xaxis-labels " data-z-index="7"><text x="56.142736889669884" style="color:#000000;cursor:default;font-size:10px;fill:#000000;" text-anchor="end" transform="translate(0,0) rotate(-45 56.142736889669884 151)" y="151" opacity="1"><tspan>2014: M (N=378)</tspan></text><text x="75.71416546109786" style="color:#000000;cursor:default;font-size:10px;fill:#000000;" text-anchor="end" transform="translate(0,0) rotate(-45 75.71416546109786 151)" y="151" opacity="1"><tspan>2014: F (N=76)</tspan></text><text x="95.28559403253087" style="color:#000000;cursor:default;font-size:10px;fill:#000000;" text-anchor="end" transform="translate(0,0) rotate(-45 95.28559403253087 151)" y="151" opacity="1"></text><text x="114.85702260395087" style="color:#000000;cursor:default;font-size:10px;fill:#000000;" text-anchor="end" transform="translate(0,0) rotate(-45 114.85702260395087 151)" y="151" opacity="1"><tspan>2015: M (N=342)</tspan></text><text x="134.42845117538087" style="color:#000000;cursor:default;font-size:10px;fill:#000000;" text-anchor="end" transform="translate(0,0) rotate(-45 134.42845117538087 151)" y="151" opacity="1"><tspan>2015: F (N=75)</tspan></text><text x="153.99987974681088" style="color:#000000;cursor:default;font-size:10px;fill:#000000;" text-anchor="end" transform="translate(0,0) rotate(-45 153.99987974681088 151)" y="151" opacity="1"></text><text x="173.57130831824088" style="color:#000000;cursor:default;font-size:10px;fill:#000000;" text-anchor="end" transform="translate(0,0) rotate(-45 173.57130831824088 151)" y="151" opacity="1"><tspan>2016: M (N=392)</tspan></text><text x="193.14273688967089" style="color:#000000;cursor:default;font-size:10px;fill:#000000;" text-anchor="end" transform="translate(0,0) rotate(-45 193.14273688967089 151)" y="151" opacity="1"><tspan>2016: F (N=74)</tspan></text><text x="212.7141654611009" style="color:#000000;cursor:default;font-size:10px;fill:#000000;" text-anchor="end" transform="translate(0,0) rotate(-45 212.7141654611009 151)" y="151" opacity="1"></text><text x="232.2855940325309" style="color:#000000;cursor:default;font-size:10px;fill:#000000;" text-anchor="end" transform="translate(0,0) rotate(-45 232.2855940325309 151)" y="151" opacity="1"><tspan>2017: M (N=348)</tspan></text><text x="251.8570226039509" style="color:#000000;cursor:default;font-size:10px;fill:#000000;" text-anchor="end" transform="translate(0,0) rotate(-45 251.8570226039509 151)" y="151" opacity="1"><tspan>2017: F (N=67)</tspan></text><text x="271.42845117538087" style="color:#000000;cursor:default;font-size:10px;fill:#000000;" text-anchor="end" transform="translate(0,0) rotate(-45 271.42845117538087 151)" y="151" opacity="1"></text><text x="290.9998797468109" style="color:#000000;cursor:default;font-size:10px;fill:#000000;" text-anchor="end" transform="translate(0,0) rotate(-45 290.9998797468109 151)" y="151" opacity="1"><tspan>2018: M (N=339)</tspan></text><text x="310.5713083182409" style="color:#000000;cursor:default;font-size:10px;fill:#000000;" text-anchor="end" transform="translate(0,0) rotate(-45 310.5713083182409 151)" y="151" opacity="1"><tspan>2018: F (N=68)</tspan></text></g><g class="highcharts-axis-labels highcharts-yaxis-labels " data-z-index="7"><text x="29" style="color:#000000;cursor:default;font-size:10px;fill:#000000;" text-anchor="end" transform="translate(0,0)" y="139" opacity="1">0%</text><text x="29" style="color:#000000;cursor:default;font-size:10px;fill:#000000;" text-anchor="end" transform="translate(0,0)" y="129" opacity="1">80%</text><text x="29" style="color:#000000;cursor:default;font-size:10px;fill:#000000;" text-anchor="end" transform="translate(0,0)" y="119" opacity="1">160%</text></g><text x="10" class="highcharts-credits" text-anchor="start" data-z-index="8" style="cursor:default;color:#000000;font-size:10;fill:#000000;" y="196"><tspan>Quelle: Sozialhilfe des Kantons Basel-Stadt, Notschlafstellen und Notwohnungen.</tspan><tspan x="10" dy="15">Zuletzt geändert: 2020-5-18</tspan></text></svg>