<?xml version="1.0" standalone="no"?><!DOCTYPE svg PUBLIC "-//W3C//DTD SVG 1.1//EN" "http://www.w3.org/Graphics/SVG/1.1/DTD/svg11.dtd"><svg xmlns:xlink="http://www.w3.org/1999/xlink" version="1.1" class="highcharts-root" style="font-family:Arial;font-size:12px;" xmlns="http://www.w3.org/2000/svg" viewBox="0 0 485 415"><desc>Created with Highcharts 8.2.0</desc><defs><clipPath id="highcharts-05ezc42-36-"><rect x="0" y="0" width="127" height="480" fill="none"></rect></clipPath><clipPath id="highcharts-05ezc42-47-"><rect x="0" y="0" width="127" height="480" fill="none"></rect></clipPath></defs><rect fill="#fbfbfb" class="highcharts-background" x="0" y="0" width="665" height="221" rx="0" ry="0"></rect><rect fill="none" class="highcharts-plot-background" x="170" y="64" width="480" height="127"></rect><g class="highcharts-pane-group" data-z-index="0"></g><g class="highcharts-grid highcharts-xaxis-grid" data-z-index="1"><path fill="none" data-z-index="1" class="highcharts-grid-line" d="M 170 70.5 L 650 70.5" opacity="1"></path><path fill="none" data-z-index="1" class="highcharts-grid-line" d="M 170 96.5 L 650 96.5" opacity="1"></path><path fill="none" data-z-index="1" class="highcharts-grid-line" d="M 170 121.5 L 650 121.5" opacity="1"></path><path fill="none" data-z-index="1" class="highcharts-grid-line" d="M 170 147.5 L 650 147.5" opacity="1"></path><path fill="none" data-z-index="1" class="highcharts-grid-line" d="M 170 172.5 L 650 172.5" opacity="1"></path></g><g class="highcharts-grid highcharts-yaxis-grid" data-z-index="1"><path fill="none" stroke="#B9CFD7" stroke-width="0.5" data-z-index="1" class="highcharts-grid-line" d="M 169.75 64 L 169.75 191" opacity="1"></path><path fill="none" stroke="#B9CFD7" stroke-width="0.5" data-z-index="1" class="highcharts-grid-line" d="M 222.75 64 L 222.75 191" opacity="1"></path><path fill="none" stroke="#B9CFD7" stroke-width="0.5" data-z-index="1" class="highcharts-grid-line" d="M 276.75 64 L 276.75 191" opacity="1"></path><path fill="none" stroke="#B9CFD7" stroke-width="0.5" data-z-index="1" class="highcharts-grid-line" d="M 329.75 64 L 329.75 191" opacity="1"></path><path fill="none" stroke="#B9CFD7" stroke-width="0.5" data-z-index="1" class="highcharts-grid-line" d="M 382.75 64 L 382.75 191" opacity="1"></path><path fill="none" stroke="#B9CFD7" stroke-width="0.5" data-z-index="1" class="highcharts-grid-line" d="M 436.75 64 L 436.75 191" opacity="1"></path><path fill="none" stroke="#B9CFD7" stroke-width="0.5" data-z-index="1" class="highcharts-grid-line" d="M 489.75 64 L 489.75 191" opacity="1"></path><path fill="none" stroke="#B9CFD7" stroke-width="0.5" data-z-index="1" class="highcharts-grid-line" d="M 542.75 64 L 542.75 191" opacity="1"></path><path fill="none" stroke="#B9CFD7" stroke-width="0.5" data-z-index="1" class="highcharts-grid-line" d="M 596.75 64 L 596.75 191" opacity="1"></path><path fill="none" stroke="#B9CFD7" stroke-width="0.5" data-z-index="1" class="highcharts-grid-line" d="M 650.25 64 L 650.25 191" opacity="1"></path></g><rect fill="none" class="highcharts-plot-border" data-z-index="1" x="170" y="64" width="480" height="127"></rect><g class="highcharts-axis highcharts-xaxis" data-z-index="2"><path fill="none" class="highcharts-axis-line" stroke="#B9CFD7" stroke-width="0.5" data-z-index="7" d="M 169.75 64 L 169.75 191"></path></g><g class="highcharts-axis highcharts-yaxis" data-z-index="2"><path fill="none" class="highcharts-axis-line" data-z-index="7" d="M 170 191 L 650 191"></path></g><g class="highcharts-series-group" data-z-index="3"><g class="highcharts-series highcharts-series-0 highcharts-column-series" data-z-index="0.1" opacity="1" transform="translate(650,191) rotate(90) scale(-1,1) scale(1 1)" clip-path="url(#highcharts-05ezc42-47-)"><rect x="122" y="38" width="2" height="443" fill="#A8C3CA" opacity="1" class="highcharts-point"></rect><rect x="109" y="190" width="3" height="291" fill="#A8C3CA" opacity="1" class="highcharts-point"></rect><rect x="97" y="268" width="2" height="213" fill="#A8C3CA" opacity="1" class="highcharts-point"></rect><rect x="84" y="297" width="2" height="184" fill="#A8C3CA" opacity="1" class="highcharts-point"></rect><rect x="71" y="369" width="3" height="112" fill="#A8C3CA" opacity="1" class="highcharts-point"></rect><rect x="58" y="417" width="3" height="64" fill="#A8C3CA" opacity="1" class="highcharts-point"></rect><rect x="46" y="389" width="2" height="92" fill="#A8C3CA" opacity="1" class="highcharts-point"></rect><rect x="33" y="374" width="3" height="107" fill="#A8C3CA" opacity="1" class="highcharts-point"></rect><rect x="20" y="379" width="3" height="102" fill="#A8C3CA" opacity="1" class="highcharts-point"></rect><rect x="8" y="437" width="2" height="44" fill="#A8C3CA" opacity="1" class="highcharts-point"></rect></g><g class="highcharts-markers highcharts-series-0 highcharts-column-series" data-z-index="0.1" opacity="1" transform="translate(650,191) rotate(90) scale(-1,1) scale(1 1)" clip-path="none"></g><g class="highcharts-series highcharts-series-1 highcharts-column-series" data-z-index="0.1" opacity="1" transform="translate(650,191) rotate(90) scale(-1,1) scale(1 1)" clip-path="url(#highcharts-05ezc42-47-)"><rect x="119" y="38" width="3" height="443" fill="#689199" opacity="1" class="highcharts-point"></rect><rect x="107" y="252" width="2" height="229" fill="#689199" opacity="1" class="highcharts-point"></rect><rect x="94" y="294" width="3" height="187" fill="#689199" opacity="1" class="highcharts-point"></rect><rect x="81" y="305" width="3" height="176" fill="#689199" opacity="1" class="highcharts-point"></rect><rect x="69" y="366" width="2" height="115" fill="#689199" opacity="1" class="highcharts-point"></rect><rect x="56" y="402" width="2" height="79" fill="#689199" opacity="1" class="highcharts-point"></rect><rect x="43" y="391" width="3" height="90" fill="#689199" opacity="1" class="highcharts-point"></rect><rect x="30" y="383" width="3" height="98" fill="#689199" opacity="1" class="highcharts-point"></rect><rect x="18" y="378" width="2" height="103" fill="#689199" opacity="1" class="highcharts-point"></rect><rect x="5" y="414" width="3" height="67" fill="#689199" opacity="1" class="highcharts-point"></rect></g><g class="highcharts-markers highcharts-series-1 highcharts-column-series" data-z-index="0.1" opacity="1" transform="translate(650,191) rotate(90) scale(-1,1) scale(1 1)" clip-path="none"></g><g class="highcharts-series highcharts-series-2 highcharts-column-series" data-z-index="0.1" opacity="1" transform="translate(650,191) rotate(90) scale(-1,1) scale(1 1)" clip-path="url(#highcharts-05ezc42-47-)"><rect x="117" y="25" width="2" height="456" fill="#246370" opacity="1" class="highcharts-point"></rect><rect x="104" y="274" width="3" height="207" fill="#246370" opacity="1" class="highcharts-point"></rect><rect x="91" y="283" width="3" height="198" fill="#246370" opacity="1" class="highcharts-point"></rect><rect x="79" y="322" width="2" height="159" fill="#246370" opacity="1" class="highcharts-point"></rect><rect x="66" y="356" width="3" height="125" fill="#246370" opacity="1" class="highcharts-point"></rect><rect x="53" y="375" width="3" height="106" fill="#246370" opacity="1" class="highcharts-point"></rect><rect x="41" y="386" width="2" height="95" fill="#246370" opacity="1" class="highcharts-point"></rect><rect x="28" y="392" width="2" height="89" fill="#246370" opacity="1" class="highcharts-point"></rect><rect x="15" y="395" width="3" height="86" fill="#246370" opacity="1" class="highcharts-point"></rect><rect x="3" y="396" width="2" height="85" fill="#246370" opacity="1" class="highcharts-point"></rect></g><g class="highcharts-markers highcharts-series-2 highcharts-column-series" data-z-index="0.1" opacity="1" transform="translate(650,191) rotate(90) scale(-1,1) scale(1 1)" clip-path="none"></g></g><text x="2" text-anchor="start" class="highcharts-title" data-z-index="4" style="color:#000000;font-size:10px;font-weight:bold;fill:#000000;" y="9"><tspan>Beschäftigung nach ausgewählten Branchen</tspan></text><text x="2" text-anchor="start" class="highcharts-subtitle" data-z-index="4" style="color:#000000;font-size:10px;font-weight:normal;font-family:Arial;fill:#000000;" y="26"><tspan>Wohnviertel Klybeck und Kleinhüningen</tspan></text><text x="2" text-anchor="start" class="highcharts-caption" data-z-index="4" style="color:#666666;fill:#666666;" y="221"></text><g class="highcharts-legend" data-z-index="7" transform="translate(167,42)"><rect fill="none" class="highcharts-legend-box" rx="0" ry="0" x="0" y="0" width="175" height="10" visibility="visible"></rect><g data-z-index="1"><g><g class="highcharts-legend-item highcharts-column-series highcharts-color-undefined highcharts-series-0" data-z-index="1" transform="translate(0,-5)"><text x="21" style="color:#333333;cursor:pointer;font-size:10px;font-weight:normal;fill:#333333;" text-anchor="start" data-z-index="2" y="13"><tspan>2015</tspan></text><rect x="3" y="4" width="10" height="10" fill="#A8C3CA" class="highcharts-point" data-z-index="3"></rect></g><g class="highcharts-legend-item highcharts-column-series highcharts-color-undefined highcharts-series-1" data-z-index="1" transform="translate(65,-5)"><text x="21" y="13" style="color:#333333;cursor:pointer;font-size:10px;font-weight:normal;fill:#333333;" text-anchor="start" data-z-index="2"><tspan>2016</tspan></text><rect x="3" y="4" width="10" height="10" fill="#689199" class="highcharts-point" data-z-index="3"></rect></g><g class="highcharts-legend-item highcharts-column-series highcharts-color-undefined highcharts-series-2" data-z-index="1" transform="translate(130,-5)"><text x="21" y="13" style="color:#333333;cursor:pointer;font-size:10px;font-weight:normal;fill:#333333;" text-anchor="start" data-z-index="2"><tspan>2017</tspan></text><rect x="3" y="4" width="10" height="10" fill="#246370" class="highcharts-point" data-z-index="3"></rect></g></g></g></g><g class="highcharts-axis-labels highcharts-xaxis-labels" data-z-index="7"><text x="160" style="color:#000000;cursor:default;font-size:10px;white-space:nowrap;fill:#000000;" text-anchor="end" transform="translate(0,0)" y="74" opacity="1">Sonst. wirtsch. DL</text><text x="160" style="color:#000000;cursor:default;font-size:10px;white-space:nowrap;fill:#000000;" text-anchor="end" transform="translate(0,0)" y="99" opacity="1">Schiffahrt, Luftfahrt</text><text x="160" style="color:#000000;cursor:default;font-size:10px;white-space:nowrap;fill:#000000;" text-anchor="end" transform="translate(0,0)" y="125" opacity="1">Landverkehr</text><text x="160" style="color:#000000;cursor:default;font-size:10px;white-space:nowrap;fill:#000000;" text-anchor="end" transform="translate(0,0)" y="150" opacity="1">Baunebengewerbe</text><text x="160" style="color:#000000;cursor:default;font-size:10px;white-space:nowrap;fill:#000000;" text-anchor="end" transform="translate(0,0)" y="175" opacity="1">Lagerei</text></g><g class="highcharts-axis-labels highcharts-yaxis-labels" data-z-index="7"><text x="170" style="color:#000000;cursor:default;font-size:10px;fill:#000000;" text-anchor="middle" transform="translate(0,0)" y="206" opacity="1">0</text><text x="223.33333333333" style="color:#000000;cursor:default;font-size:10px;fill:#000000;" text-anchor="middle" transform="translate(0,0)" y="206" opacity="1">250</text><text x="276.66666666667" style="color:#000000;cursor:default;font-size:10px;fill:#000000;" text-anchor="middle" transform="translate(0,0)" y="206" opacity="1">500</text><text x="330" style="color:#000000;cursor:default;font-size:10px;fill:#000000;" text-anchor="middle" transform="translate(0,0)" y="206" opacity="1">750</text><text x="383.33333333333" style="color:#000000;cursor:default;font-size:10px;fill:#000000;" text-anchor="middle" transform="translate(0,0)" y="206" opacity="1"><tspan>1 000</tspan></text><text x="436.66666666667" style="color:#000000;cursor:default;font-size:10px;fill:#000000;" text-anchor="middle" transform="translate(0,0)" y="206" opacity="1"><tspan>1 250</tspan></text><text x="490" style="color:#000000;cursor:default;font-size:10px;fill:#000000;" text-anchor="middle" transform="translate(0,0)" y="206" opacity="1"><tspan>1 500</tspan></text><text x="543.33333333333" style="color:#000000;cursor:default;font-size:10px;fill:#000000;" text-anchor="middle" transform="translate(0,0)" y="206" opacity="1"><tspan>1 750</tspan></text><text x="596.66666666667" style="color:#000000;cursor:default;font-size:10px;fill:#000000;" text-anchor="middle" transform="translate(0,0)" y="206" opacity="1"><tspan>2 000</tspan></text><text x="649.5" style="color:#000000;cursor:default;font-size:10px;fill:#000000;" text-anchor="middle" transform="translate(0,0)" y="206" opacity="1"><tspan>2 250</tspan></text></g><text x="10" class="highcharts-credits" text-anchor="start" data-z-index="8" style="cursor:default;color:#000000;font-size:10px;fill:#000000;" y="196"><tspan>Quelle: Bundesamt für Statistik (BFS), Statistik der Unternehmensstruktur (STATENT).</tspan><tspan x="10" dy="13">Zuletzt geändert: 2020-2-19</tspan></text></svg>