<?xml version="1.0" standalone="no"?><!DOCTYPE svg PUBLIC "-//W3C//DTD SVG 1.1//EN" "http://www.w3.org/Graphics/SVG/1.1/DTD/svg11.dtd"><svg xmlns:xlink="http://www.w3.org/1999/xlink" version="1.1" class="highcharts-root" style="font-family:Arial;font-size:10px;color:#000000;fill:#000000;" xmlns="http://www.w3.org/2000/svg" viewBox="0 0 485 415"><desc>Created with Highstock 6.1.1</desc><defs><clipPath id="highcharts-acpepx6-6"><rect x="0" y="0" width="261" height="111" fill="none"></rect></clipPath><clipPath id="highcharts-acpepx6-7"><rect x="0" y="0" width="261" height="111" fill="none"></rect></clipPath></defs><rect fill="#fbfbfb" class="highcharts-background" x="0" y="0" width="320" height="221" rx="0" ry="0"></rect><rect fill="none" class="highcharts-plot-background" x="44" y="67" width="261" height="111"></rect><g class="highcharts-pane-group" data-z-index="0"></g><g class="highcharts-grid highcharts-xaxis-grid " data-z-index="1"><path fill="none" data-z-index="1" class="highcharts-grid-line" d="M 87.5 67 L 87.5 178" opacity="1"></path><path fill="none" data-z-index="1" class="highcharts-grid-line" d="M 130.5 67 L 130.5 178" opacity="1"></path><path fill="none" data-z-index="1" class="highcharts-grid-line" d="M 174.5 67 L 174.5 178" opacity="1"></path><path fill="none" data-z-index="1" class="highcharts-grid-line" d="M 217.5 67 L 217.5 178" opacity="1"></path><path fill="none" data-z-index="1" class="highcharts-grid-line" d="M 261.5 67 L 261.5 178" opacity="1"></path><path fill="none" data-z-index="1" class="highcharts-grid-line" d="M 304.5 67 L 304.5 178" opacity="1"></path><path fill="none" data-z-index="1" class="highcharts-grid-line" d="M 43.5 67 L 43.5 178" opacity="1"></path></g><g class="highcharts-grid highcharts-yaxis-grid " data-z-index="1"><path fill="none" stroke="#B9CFD7" stroke-width="0.5" data-z-index="1" class="highcharts-grid-line" d="M 44 178.25 L 305 178.25" opacity="1"></path><path fill="none" stroke="#B9CFD7" stroke-width="0.5" data-z-index="1" class="highcharts-grid-line" d="M 44 150.25 L 305 150.25" opacity="1"></path><path fill="none" stroke="#B9CFD7" stroke-width="0.5" data-z-index="1" class="highcharts-grid-line" d="M 44 123.25 L 305 123.25" opacity="1"></path><path fill="none" stroke="#B9CFD7" stroke-width="0.5" data-z-index="1" class="highcharts-grid-line" d="M 44 95.25 L 305 95.25" opacity="1"></path><path fill="none" stroke="#B9CFD7" stroke-width="0.5" data-z-index="1" class="highcharts-grid-line" d="M 44 66.75 L 305 66.75" opacity="1"></path></g><rect fill="none" class="highcharts-plot-border" data-z-index="1" x="44" y="67" width="261" height="111"></rect><g class="highcharts-axis highcharts-xaxis " data-z-index="2"><path fill="none" class="highcharts-axis-line" stroke="#B9CFD7" stroke-width="0.5" data-z-index="7" d="M 44 178.25 L 305 178.25"></path></g><g class="highcharts-axis highcharts-yaxis " data-z-index="2"><path fill="none" class="highcharts-axis-line" data-z-index="7" d="M 44 67 L 44 178"></path></g><g class="highcharts-series-group" data-z-index="3"><g data-z-index="0.1" class="highcharts-series highcharts-series-0 highcharts-column-series " transform="translate(44,67) scale(1 1)" clip-path="url(#highcharts-acpepx6-7)"><rect x="4" y="12" width="12" height="100" fill="#008AC3" class="highcharts-point"></rect><rect x="48" y="16" width="11" height="96" fill="#008AC3" class="highcharts-point"></rect><rect x="91" y="18" width="12" height="94" fill="#008AC3" class="highcharts-point"></rect><rect x="135" y="24" width="11" height="88" fill="#008AC3" class="highcharts-point"></rect><rect x="178" y="28" width="12" height="84" fill="#008AC3" class="highcharts-point"></rect><rect x="222" y="27" width="11" height="85" fill="#008AC3" class="highcharts-point"></rect></g><g data-z-index="0.1" class="highcharts-markers highcharts-series-0 highcharts-column-series " transform="translate(44,67) scale(1 1)" clip-path="none"></g><g data-z-index="0.1" class="highcharts-series highcharts-series-1 highcharts-column-series " transform="translate(44,67) scale(1 1)" clip-path="url(#highcharts-acpepx6-7)"><rect x="16" y="54" width="12" height="58" fill="#DC440E" class="highcharts-point"></rect><rect x="59" y="51" width="12" height="61" fill="#DC440E" class="highcharts-point"></rect><rect x="103" y="45" width="12" height="67" fill="#DC440E" class="highcharts-point"></rect><rect x="146" y="38" width="12" height="74" fill="#DC440E" class="highcharts-point"></rect><rect x="190" y="36" width="12" height="76" fill="#DC440E" class="highcharts-point"></rect><rect x="233" y="31" width="12" height="81" fill="#DC440E" class="highcharts-point"></rect></g><g data-z-index="0.1" class="highcharts-markers highcharts-series-1 highcharts-column-series " transform="translate(44,67) scale(1 1)" clip-path="none"></g><g data-z-index="0.1" class="highcharts-series highcharts-series-2 highcharts-column-series " visibility="hidden" transform="translate(44,67) scale(1 1)" clip-path="url(#highcharts-acpepx6-7)"></g><g data-z-index="0.1" class="highcharts-markers highcharts-series-2 highcharts-column-series " visibility="hidden" transform="translate(44,67) scale(1 1)" clip-path="none"></g><g data-z-index="0.1" class="highcharts-series highcharts-series-3 highcharts-column-series " visibility="hidden" transform="translate(44,67) scale(1 1)" clip-path="url(#highcharts-acpepx6-7)"></g><g data-z-index="0.1" class="highcharts-markers highcharts-series-3 highcharts-column-series " visibility="hidden" transform="translate(44,67) scale(1 1)" clip-path="none"></g><g data-z-index="0.1" class="highcharts-series highcharts-series-4 highcharts-column-series " transform="translate(44,67) scale(1 1)" clip-path="url(#highcharts-acpepx6-7)"><rect x="28" y="33" width="11" height="79" fill="#474747" class="highcharts-point"></rect><rect x="71" y="34" width="12" height="78" fill="#474747" class="highcharts-point"></rect><rect x="115" y="32" width="11" height="80" fill="#474747" class="highcharts-point"></rect><rect x="158" y="31" width="12" height="81" fill="#474747" class="highcharts-point"></rect><rect x="202" y="32" width="11" height="80" fill="#474747" class="highcharts-point"></rect><rect x="245" y="29" width="12" height="83" fill="#474747" class="highcharts-point"></rect></g><g data-z-index="0.1" class="highcharts-markers highcharts-series-4 highcharts-column-series " transform="translate(44,67) scale(1 1)" clip-path="none"></g></g><text x="2" text-anchor="start" class="highcharts-title" data-z-index="4" style="color:#000000;font-size:10px;font-weight:bold;fill:#000000;" y="9"><tspan>Nettoerwerbstätigenquote nach Geschlecht</tspan></text><text x="2" text-anchor="start" class="highcharts-subtitle" data-z-index="4" style="color:#000000;font-size:10px;font-weight:normal;font-family:Arial;fill:#000000;" y="26"><tspan>Basel-Stadt</tspan></text><g class="highcharts-legend" data-z-index="7" transform="translate(41,42)"><rect fill="none" class="highcharts-legend-box" rx="0" ry="0" x="0" y="0" width="197" height="13" visibility="visible"></rect><g data-z-index="1"><g><g class="highcharts-legend-item highcharts-column-series highcharts-color-undefined highcharts-series-0" data-z-index="1" transform="translate(0,-5)"><text x="21" style="color:#333333;font-size:10px;font-weight:normal;cursor:pointer;fill:#333333;" text-anchor="start" data-z-index="2" y="13"><tspan>Männer</tspan></text><rect x="3" y="4" width="10" height="10" fill="#008AC3" class="highcharts-point" data-z-index="3"></rect></g><g class="highcharts-legend-item highcharts-column-series highcharts-color-undefined highcharts-series-1" data-z-index="1" transform="translate(77,-5)"><text x="21" y="13" style="color:#333333;font-size:10px;font-weight:normal;cursor:pointer;fill:#333333;" text-anchor="start" data-z-index="2"><tspan>Frauen</tspan></text><rect x="3" y="4" width="10" height="10" fill="#DC440E" class="highcharts-point" data-z-index="3"></rect></g><g class="highcharts-legend-item highcharts-column-series highcharts-color-undefined highcharts-series-4" data-z-index="1" transform="translate(151,-5)"><text x="21" y="13" style="color:#333333;font-size:10px;font-weight:normal;cursor:pointer;fill:#333333;" text-anchor="start" data-z-index="2"><tspan>Total</tspan></text><rect x="3" y="4" width="10" height="10" fill="#474747" class="highcharts-point" data-z-index="3"></rect></g></g></g></g><g class="highcharts-axis-labels highcharts-xaxis-labels " data-z-index="7"><text x="65.75" style="color:#000000;cursor:default;font-size:10px;fill:#000000;" text-anchor="middle" transform="translate(0,0)" y="196" opacity="1">1970</text><text x="109.25" style="color:#000000;cursor:default;font-size:10px;fill:#000000;" text-anchor="middle" transform="translate(0,0)" y="196" opacity="1">1980</text><text x="152.75" style="color:#000000;cursor:default;font-size:10px;fill:#000000;" text-anchor="middle" transform="translate(0,0)" y="196" opacity="1">1990</text><text x="196.25" style="color:#000000;cursor:default;font-size:10px;fill:#000000;" text-anchor="middle" transform="translate(0,0)" y="196" opacity="1">2000</text><text x="239.75" style="color:#000000;cursor:default;font-size:10px;fill:#000000;" text-anchor="middle" transform="translate(0,0)" y="196" opacity="1">2010</text><text x="283.25" style="color:#000000;cursor:default;font-size:10px;fill:#000000;" text-anchor="middle" transform="translate(0,0)" y="196" opacity="1">2017</text></g><g class="highcharts-axis-labels highcharts-yaxis-labels " data-z-index="7"><text x="29" style="color:#000000;cursor:default;font-size:10px;fill:#000000;" text-anchor="end" transform="translate(0,0)" y="181" opacity="1">0%</text><text x="29" style="color:#000000;cursor:default;font-size:10px;fill:#000000;" text-anchor="end" transform="translate(0,0)" y="153" opacity="1">25%</text><text x="29" style="color:#000000;cursor:default;font-size:10px;fill:#000000;" text-anchor="end" transform="translate(0,0)" y="126" opacity="1">50%</text><text x="29" style="color:#000000;cursor:default;font-size:10px;fill:#000000;" text-anchor="end" transform="translate(0,0)" y="98" opacity="1">75%</text><text x="29" style="color:#000000;cursor:default;font-size:10px;fill:#000000;" text-anchor="end" transform="translate(0,0)" y="70" opacity="1">100%</text></g><text x="10" class="highcharts-credits" text-anchor="start" data-z-index="8" style="cursor:default;color:#000000;font-size:10;fill:#000000;" y="186"><tspan>Quelle: Bundesamt für Statistik (BFS), Strukturerhebung (SE);</tspan><tspan x="10" dy="15">Bundesamt für Statistik (BFS), Volkszählung (VZ).</tspan><tspan x="10" dy="15">Zuletzt geändert: 2020-6-19</tspan></text></svg>