<?xml version="1.0" standalone="no"?><!DOCTYPE svg PUBLIC "-//W3C//DTD SVG 1.1//EN" "http://www.w3.org/Graphics/SVG/1.1/DTD/svg11.dtd"><svg xmlns:xlink="http://www.w3.org/1999/xlink" version="1.1" class="highcharts-root" style="font-family:Arial;font-size:12px;" xmlns="http://www.w3.org/2000/svg" viewBox="0 0 485 415"><desc>Created with Highstock 6.1.1</desc><defs><clipPath id="highcharts-jpua2t8-6"><rect x="0" y="0" width="267" height="122" fill="none"></rect></clipPath><clipPath id="highcharts-jpua2t8-7"><rect x="0" y="0" width="267" height="122" fill="none"></rect></clipPath></defs><rect fill="#fbfbfb" class="highcharts-background" x="0" y="0" width="320" height="221" rx="0" ry="0"></rect><rect fill="none" class="highcharts-plot-background" x="38" y="64" width="267" height="122"></rect><g class="highcharts-pane-group" data-z-index="0"></g><g class="highcharts-grid highcharts-xaxis-grid " data-z-index="1"><path fill="none" data-z-index="1" class="highcharts-grid-line" d="M 90.5 64 L 90.5 186" opacity="1"></path><path fill="none" data-z-index="1" class="highcharts-grid-line" d="M 144.5 64 L 144.5 186" opacity="1"></path><path fill="none" data-z-index="1" class="highcharts-grid-line" d="M 197.5 64 L 197.5 186" opacity="1"></path><path fill="none" data-z-index="1" class="highcharts-grid-line" d="M 251.5 64 L 251.5 186" opacity="1"></path><path fill="none" data-z-index="1" class="highcharts-grid-line" d="M 304.5 64 L 304.5 186" opacity="1"></path><path fill="none" data-z-index="1" class="highcharts-grid-line" d="M 37.5 64 L 37.5 186" opacity="1"></path></g><g class="highcharts-grid highcharts-yaxis-grid " data-z-index="1"><path fill="none" stroke="#B9CFD7" stroke-width="0.5" data-z-index="1" class="highcharts-grid-line" d="M 38 186.25 L 305 186.25" opacity="1"></path><path fill="none" stroke="#B9CFD7" stroke-width="0.5" data-z-index="1" class="highcharts-grid-line" d="M 38 162.25 L 305 162.25" opacity="1"></path><path fill="none" stroke="#B9CFD7" stroke-width="0.5" data-z-index="1" class="highcharts-grid-line" d="M 38 137.25 L 305 137.25" opacity="1"></path><path fill="none" stroke="#B9CFD7" stroke-width="0.5" data-z-index="1" class="highcharts-grid-line" d="M 38 113.25 L 305 113.25" opacity="1"></path><path fill="none" stroke="#B9CFD7" stroke-width="0.5" data-z-index="1" class="highcharts-grid-line" d="M 38 88.25 L 305 88.25" opacity="1"></path><path fill="none" stroke="#B9CFD7" stroke-width="0.5" data-z-index="1" class="highcharts-grid-line" d="M 38 63.75 L 305 63.75" opacity="1"></path></g><rect fill="none" class="highcharts-plot-border" data-z-index="1" x="38" y="64" width="267" height="122"></rect><g class="highcharts-axis highcharts-xaxis " data-z-index="2"><path fill="none" class="highcharts-axis-line" stroke="#B9CFD7" stroke-width="0.5" data-z-index="7" d="M 38 186.25 L 305 186.25"></path></g><g class="highcharts-axis highcharts-yaxis " data-z-index="2"><path fill="none" class="highcharts-axis-line" data-z-index="7" d="M 38 64 L 38 186"></path></g><g class="highcharts-series-group" data-z-index="3"><g data-z-index="0.1" class="highcharts-series highcharts-series-0 highcharts-column-series " transform="translate(38,64) scale(1 1)" clip-path="url(#highcharts-jpua2t8-7)"><rect x="11" y="13" width="8" height="110" fill="#246370" class="highcharts-point"></rect><rect x="64" y="19" width="8" height="104" fill="#246370" class="highcharts-point"></rect><rect x="117" y="55" width="8" height="68" fill="#246370" class="highcharts-point"></rect><rect x="171" y="22" width="8" height="101" fill="#246370" class="highcharts-point"></rect><rect x="224" y="27" width="8" height="96" fill="#246370" class="highcharts-point"></rect></g><g data-z-index="0.1" class="highcharts-markers highcharts-series-0 highcharts-column-series " transform="translate(38,64) scale(1 1)" clip-path="none"></g><g data-z-index="0.1" class="highcharts-series highcharts-series-1 highcharts-column-series " transform="translate(38,64) scale(1 1)" clip-path="url(#highcharts-jpua2t8-7)"><rect x="19" y="30" width="8" height="93" fill="#0F7399" class="highcharts-point"></rect><rect x="72" y="44" width="8" height="79" fill="#0F7399" class="highcharts-point"></rect><rect x="125" y="53" width="9" height="70" fill="#0F7399" class="highcharts-point"></rect><rect x="179" y="39" width="8" height="84" fill="#0F7399" class="highcharts-point"></rect><rect x="232" y="35" width="8" height="88" fill="#0F7399" class="highcharts-point"></rect></g><g data-z-index="0.1" class="highcharts-markers highcharts-series-1 highcharts-column-series " transform="translate(38,64) scale(1 1)" clip-path="none"></g><g data-z-index="0.1" class="highcharts-series highcharts-series-2 highcharts-column-series " transform="translate(38,64) scale(1 1)" clip-path="url(#highcharts-jpua2t8-7)"><rect x="27" y="39" width="8" height="84" fill="#689199" class="highcharts-point"></rect><rect x="80" y="49" width="8" height="74" fill="#689199" class="highcharts-point"></rect><rect x="134" y="51" width="8" height="72" fill="#689199" class="highcharts-point"></rect><rect x="187" y="45" width="8" height="78" fill="#689199" class="highcharts-point"></rect><rect x="240" y="36" width="8" height="87" fill="#689199" class="highcharts-point"></rect></g><g data-z-index="0.1" class="highcharts-markers highcharts-series-2 highcharts-column-series " transform="translate(38,64) scale(1 1)" clip-path="none"></g><g data-z-index="0.1" class="highcharts-series highcharts-series-3 highcharts-column-series " transform="translate(38,64) scale(1 1)" clip-path="url(#highcharts-jpua2t8-7)"><rect x="35" y="35" width="8" height="88" fill="#A8C3CA" class="highcharts-point"></rect><rect x="88" y="50" width="8" height="73" fill="#A8C3CA" class="highcharts-point"></rect><rect x="142" y="47" width="8" height="76" fill="#A8C3CA" class="highcharts-point"></rect><rect x="195" y="44" width="8" height="79" fill="#A8C3CA" class="highcharts-point"></rect><rect x="248" y="36" width="8" height="87" fill="#A8C3CA" class="highcharts-point"></rect></g><g data-z-index="0.1" class="highcharts-markers highcharts-series-3 highcharts-column-series " transform="translate(38,64) scale(1 1)" clip-path="none"></g></g><text x="2" text-anchor="start" class="highcharts-title" data-z-index="4" style="color:#000000;font-size:10px;font-weight:bold;fill:#000000;" y="9"><tspan>Entwicklung Neugründungsrate</tspan></text><text x="2" text-anchor="start" class="highcharts-subtitle" data-z-index="4" style="color:#000000;font-size:10px;font-weight:normal;font-family:Arial;fill:#000000;" y="26"><tspan>Anteil am Unternehmensbestand</tspan></text><g class="highcharts-legend" data-z-index="7" transform="translate(35,42)"><rect fill="none" class="highcharts-legend-box" rx="0" ry="0" x="0" y="0" width="210" height="10" visibility="visible"></rect><g data-z-index="1"><g><g class="highcharts-legend-item highcharts-column-series highcharts-color-undefined highcharts-series-0" data-z-index="1" transform="translate(0,-5)"><text x="21" style="color:#333333;font-size:10px;font-weight:normal;cursor:pointer;fill:#333333;" text-anchor="start" data-z-index="2" y="13"><tspan>2014</tspan></text><rect x="3" y="4" width="10" height="10" fill="#246370" class="highcharts-point" data-z-index="3"></rect></g><g class="highcharts-legend-item highcharts-column-series highcharts-color-undefined highcharts-series-1" data-z-index="1" transform="translate(55,-5)"><text x="21" y="13" style="color:#333333;font-size:10px;font-weight:normal;cursor:pointer;fill:#333333;" text-anchor="start" data-z-index="2"><tspan>2015</tspan></text><rect x="3" y="4" width="10" height="10" fill="#0F7399" class="highcharts-point" data-z-index="3"></rect></g><g class="highcharts-legend-item highcharts-column-series highcharts-color-undefined highcharts-series-2" data-z-index="1" transform="translate(110,-5)"><text x="21" y="13" style="color:#333333;font-size:10px;font-weight:normal;cursor:pointer;fill:#333333;" text-anchor="start" data-z-index="2"><tspan>2016</tspan></text><rect x="3" y="4" width="10" height="10" fill="#689199" class="highcharts-point" data-z-index="3"></rect></g><g class="highcharts-legend-item highcharts-column-series highcharts-color-undefined highcharts-series-3" data-z-index="1" transform="translate(165,-5)"><text x="21" y="13" style="color:#333333;font-size:10px;font-weight:normal;cursor:pointer;fill:#333333;" text-anchor="start" data-z-index="2"><tspan>2017</tspan></text><rect x="3" y="4" width="10" height="10" fill="#A8C3CA" class="highcharts-point" data-z-index="3"></rect></g></g></g></g><g class="highcharts-axis-labels highcharts-xaxis-labels " data-z-index="7"><text x="64.7" style="color:#000000;cursor:default;font-size:10px;white-space:nowrap;fill:#000000;" text-anchor="middle" transform="translate(0,0)" y="204" opacity="1">BS</text><text x="118.10000000000001" style="color:#000000;cursor:default;font-size:10px;white-space:nowrap;fill:#000000;" text-anchor="middle" transform="translate(0,0)" y="204" opacity="1">BL</text><text x="171.5" style="color:#000000;cursor:default;font-size:10px;white-space:nowrap;fill:#000000;" text-anchor="middle" transform="translate(0,0)" y="204" opacity="1">JU</text><text x="224.9" style="color:#000000;cursor:default;font-size:10px;white-space:nowrap;fill:#000000;" text-anchor="middle" transform="translate(0,0)" y="204" opacity="1">BS/BL/JU</text><text x="278.3" style="color:#000000;cursor:default;font-size:10px;white-space:nowrap;fill:#000000;" text-anchor="middle" transform="translate(0,0)" y="204" opacity="1">CH</text></g><g class="highcharts-axis-labels highcharts-yaxis-labels " data-z-index="7"><text x="23" style="color:#000000;cursor:default;font-size:10px;fill:#000000;" text-anchor="end" transform="translate(0,0)" y="189" opacity="1">0%</text><text x="23" style="color:#000000;cursor:default;font-size:10px;fill:#000000;" text-anchor="end" transform="translate(0,0)" y="165" opacity="1">2%</text><text x="23" style="color:#000000;cursor:default;font-size:10px;fill:#000000;" text-anchor="end" transform="translate(0,0)" y="140" opacity="1">4%</text><text x="23" style="color:#000000;cursor:default;font-size:10px;fill:#000000;" text-anchor="end" transform="translate(0,0)" y="116" opacity="1">6%</text><text x="23" style="color:#000000;cursor:default;font-size:10px;fill:#000000;" text-anchor="end" transform="translate(0,0)" y="91" opacity="1">8%</text><text x="23" style="color:#000000;cursor:default;font-size:10px;fill:#000000;" text-anchor="end" transform="translate(0,0)" y="67" opacity="1">10%</text></g><text x="10" class="highcharts-credits" text-anchor="start" data-z-index="8" style="cursor:default;color:#000000;font-size:10px;fill:#000000;" y="196"><tspan>Quelle: Bundesamt für Statistik (BFS), Statistik der Unternehmensdemografie (UDEMO).</tspan><tspan x="10" dy="13">Zuletzt geändert: 2020-7-9</tspan></text></svg>