<?xml version="1.0" standalone="no"?><!DOCTYPE svg PUBLIC "-//W3C//DTD SVG 1.1//EN" "http://www.w3.org/Graphics/SVG/1.1/DTD/svg11.dtd"><svg xmlns:xlink="http://www.w3.org/1999/xlink" version="1.1" class="highcharts-root" style="font-family:Arial;font-size:12px;" xmlns="http://www.w3.org/2000/svg" viewBox="0 0 485 415"><desc>Created with Highcharts 8.2.0</desc><defs><clipPath id="highcharts-j1dqv9a-135-"><rect x="0" y="0" width="409" height="293" fill="none"></rect></clipPath><clipPath id="highcharts-j1dqv9a-264-"><rect x="0" y="0" width="409" height="293" fill="none"></rect></clipPath><clipPath id="highcharts-j1dqv9a-265-"><rect x="56" y="73" width="409" height="293" fill="none"></rect></clipPath></defs><rect fill="#fbfbfb" class="highcharts-background" x="0" y="0" width="485" height="428" rx="0" ry="0"></rect><rect fill="none" class="highcharts-plot-background" x="56" y="73" width="409" height="293"></rect><g class="highcharts-pane-group" data-z-index="0"></g><g class="highcharts-grid highcharts-xaxis-grid" data-z-index="1"><path fill="none" data-z-index="1" class="highcharts-grid-line" d="M 57.5 73 L 57.5 366" opacity="1"></path><path fill="none" data-z-index="1" class="highcharts-grid-line" d="M 95.5 73 L 95.5 366" opacity="1"></path><path fill="none" data-z-index="1" class="highcharts-grid-line" d="M 133.5 73 L 133.5 366" opacity="1"></path><path fill="none" data-z-index="1" class="highcharts-grid-line" d="M 172.5 73 L 172.5 366" opacity="1"></path><path fill="none" data-z-index="1" class="highcharts-grid-line" d="M 210.5 73 L 210.5 366" opacity="1"></path><path fill="none" data-z-index="1" class="highcharts-grid-line" d="M 248.5 73 L 248.5 366" opacity="1"></path><path fill="none" data-z-index="1" class="highcharts-grid-line" d="M 287.5 73 L 287.5 366" opacity="1"></path><path fill="none" data-z-index="1" class="highcharts-grid-line" d="M 325.5 73 L 325.5 366" opacity="1"></path><path fill="none" data-z-index="1" class="highcharts-grid-line" d="M 363.5 73 L 363.5 366" opacity="1"></path><path fill="none" data-z-index="1" class="highcharts-grid-line" d="M 402.5 73 L 402.5 366" opacity="1"></path><path fill="none" data-z-index="1" class="highcharts-grid-line" d="M 440.5 73 L 440.5 366" opacity="1"></path></g><g class="highcharts-grid highcharts-yaxis-grid" data-z-index="1"><path fill="none" stroke="#B9CFD7" stroke-width="0.5" data-z-index="1" class="highcharts-grid-line" d="M 56 366.25 L 465 366.25" opacity="1"></path><path fill="none" stroke="#B9CFD7" stroke-width="0.5" data-z-index="1" class="highcharts-grid-line" d="M 56 346.25 L 465 346.25" opacity="1"></path><path fill="none" stroke="#B9CFD7" stroke-width="0.5" data-z-index="1" class="highcharts-grid-line" d="M 56 327.25 L 465 327.25" opacity="1"></path><path fill="none" stroke="#B9CFD7" stroke-width="0.5" data-z-index="1" class="highcharts-grid-line" d="M 56 307.25 L 465 307.25" opacity="1"></path><path fill="none" stroke="#B9CFD7" stroke-width="0.5" data-z-index="1" class="highcharts-grid-line" d="M 56 288.25 L 465 288.25" opacity="1"></path><path fill="none" stroke="#B9CFD7" stroke-width="0.5" data-z-index="1" class="highcharts-grid-line" d="M 56 268.25 L 465 268.25" opacity="1"></path><path fill="none" stroke="#B9CFD7" stroke-width="0.5" data-z-index="1" class="highcharts-grid-line" d="M 56 249.25 L 465 249.25" opacity="1"></path><path fill="none" stroke="#B9CFD7" stroke-width="0.5" data-z-index="1" class="highcharts-grid-line" d="M 56 229.25 L 465 229.25" opacity="1"></path><path fill="none" stroke="#B9CFD7" stroke-width="0.5" data-z-index="1" class="highcharts-grid-line" d="M 56 210.25 L 465 210.25" opacity="1"></path><path fill="none" stroke="#B9CFD7" stroke-width="0.5" data-z-index="1" class="highcharts-grid-line" d="M 56 190.25 L 465 190.25" opacity="1"></path><path fill="none" stroke="#B9CFD7" stroke-width="0.5" data-z-index="1" class="highcharts-grid-line" d="M 56 171.25 L 465 171.25" opacity="1"></path><path fill="none" stroke="#B9CFD7" stroke-width="0.5" data-z-index="1" class="highcharts-grid-line" d="M 56 151.25 L 465 151.25" opacity="1"></path><path fill="none" stroke="#B9CFD7" stroke-width="0.5" data-z-index="1" class="highcharts-grid-line" d="M 56 132.25 L 465 132.25" opacity="1"></path><path fill="none" stroke="#B9CFD7" stroke-width="0.5" data-z-index="1" class="highcharts-grid-line" d="M 56 112.25 L 465 112.25" opacity="1"></path><path fill="none" stroke="#B9CFD7" stroke-width="0.5" data-z-index="1" class="highcharts-grid-line" d="M 56 93.25 L 465 93.25" opacity="1"></path><path fill="none" stroke="#B9CFD7" stroke-width="0.5" data-z-index="1" class="highcharts-grid-line" d="M 56 72.75 L 465 72.75" opacity="1"></path></g><rect fill="none" class="highcharts-plot-border" data-z-index="1" x="56" y="73" width="409" height="293"></rect><g class="highcharts-axis highcharts-xaxis" data-z-index="2"><path fill="none" class="highcharts-axis-line" stroke="#B9CFD7" stroke-width="0.5" data-z-index="7" d="M 56 366.25 L 465 366.25"></path></g><g class="highcharts-axis highcharts-yaxis" data-z-index="2"><path fill="none" class="highcharts-axis-line" data-z-index="7" d="M 56 73 L 56 366"></path></g><g class="highcharts-series-group" data-z-index="3"><g class="highcharts-series highcharts-series-0 highcharts-column-series" data-z-index="0.1" opacity="1" transform="translate(56,73) scale(1 1)" clip-path="url(#highcharts-j1dqv9a-264-)"><rect x="0.5" y="156.5" width="2" height="14" fill="#B00000" stroke="#ffffff" stroke-width="1e-7" opacity="1" class="highcharts-point highcharts-negative"></rect><rect x="3.5" y="156.5" width="2" height="15" fill="#B00000" stroke="#ffffff" stroke-width="1e-7" opacity="1" class="highcharts-point highcharts-negative"></rect><rect x="6.5" y="156.5" width="2" height="14" fill="#B00000" stroke="#ffffff" stroke-width="1e-7" opacity="1" class="highcharts-point highcharts-negative"></rect><rect x="9.5" y="156.5" width="2" height="13" fill="#B00000" stroke="#ffffff" stroke-width="1e-7" opacity="1" class="highcharts-point highcharts-negative"></rect><rect x="13.5" y="156.5" width="2" height="18" fill="#B00000" stroke="#ffffff" stroke-width="1e-7" opacity="1" class="highcharts-point highcharts-negative"></rect><rect x="16.5" y="156.5" width="2" height="19" fill="#B00000" stroke="#ffffff" stroke-width="1e-7" opacity="1" class="highcharts-point highcharts-negative"></rect><rect x="19.5" y="156.5" width="2" height="21" fill="#B00000" stroke="#ffffff" stroke-width="1e-7" opacity="1" class="highcharts-point highcharts-negative"></rect><rect x="22.5" y="156.5" width="2" height="21" fill="#B00000" stroke="#ffffff" stroke-width="1e-7" opacity="1" class="highcharts-point highcharts-negative"></rect><rect x="25.5" y="156.5" width="2" height="17" fill="#B00000" stroke="#ffffff" stroke-width="1e-7" opacity="1" class="highcharts-point highcharts-negative"></rect><rect x="29.5" y="156.5" width="2" height="12" fill="#B00000" stroke="#ffffff" stroke-width="1e-7" opacity="1" class="highcharts-point highcharts-negative"></rect><rect x="32.5" y="156.5" width="2" height="3" fill="#B00000" stroke="#ffffff" stroke-width="1e-7" opacity="1" class="highcharts-point highcharts-negative"></rect><rect x="35.5" y="156.5" width="2" height="3" fill="#B00000" stroke="#ffffff" stroke-width="1e-7" opacity="1" class="highcharts-point highcharts-negative"></rect><rect x="38.5" y="143.5" width="2" height="13" fill="#B00000" stroke="#ffffff" stroke-width="1e-7" opacity="1" class="highcharts-point"></rect><rect x="41.5" y="144.5" width="2" height="12" fill="#B00000" stroke="#ffffff" stroke-width="1e-7" opacity="1" class="highcharts-point"></rect><rect x="45.5" y="138.5" width="2" height="18" fill="#B00000" stroke="#ffffff" stroke-width="1e-7" opacity="1" class="highcharts-point"></rect><rect x="48.5" y="135.5" width="2" height="21" fill="#B00000" stroke="#ffffff" stroke-width="1e-7" opacity="1" class="highcharts-point"></rect><rect x="51.5" y="126.5" width="2" height="30" fill="#B00000" stroke="#ffffff" stroke-width="1e-7" opacity="1" class="highcharts-point"></rect><rect x="54.5" y="120.5" width="2" height="36" fill="#B00000" stroke="#ffffff" stroke-width="1e-7" opacity="1" class="highcharts-point"></rect><rect x="57.5" y="130.5" width="2" height="26" fill="#B00000" stroke="#ffffff" stroke-width="1e-7" opacity="1" class="highcharts-point"></rect><rect x="61.5" y="122.5" width="2" height="34" fill="#B00000" stroke="#ffffff" stroke-width="1e-7" opacity="1" class="highcharts-point"></rect><rect x="64.5" y="115.5" width="2" height="41" fill="#B00000" stroke="#ffffff" stroke-width="1e-7" opacity="1" class="highcharts-point"></rect><rect x="67.5" y="122.5" width="2" height="34" fill="#B00000" stroke="#ffffff" stroke-width="1e-7" opacity="1" class="highcharts-point"></rect><rect x="70.5" y="133.5" width="2" height="23" fill="#B00000" stroke="#ffffff" stroke-width="1e-7" opacity="1" class="highcharts-point"></rect><rect x="73.5" y="145.5" width="2" height="11" fill="#B00000" stroke="#ffffff" stroke-width="1e-7" opacity="1" class="highcharts-point"></rect><rect x="77.5" y="147.5" width="2" height="9" fill="#B00000" stroke="#ffffff" stroke-width="1e-7" opacity="1" class="highcharts-point"></rect><rect x="80.5" y="127.5" width="2" height="29" fill="#B00000" stroke="#ffffff" stroke-width="1e-7" opacity="1" class="highcharts-point"></rect><rect x="83.5" y="137.5" width="2" height="19" fill="#B00000" stroke="#ffffff" stroke-width="1e-7" opacity="1" class="highcharts-point"></rect><rect x="86.5" y="121.5" width="2" height="35" fill="#B00000" stroke="#ffffff" stroke-width="1e-7" opacity="1" class="highcharts-point"></rect><rect x="89.5" y="123.5" width="2" height="33" fill="#B00000" stroke="#ffffff" stroke-width="1e-7" opacity="1" class="highcharts-point"></rect><rect x="92.5" y="131.5" width="2" height="25" fill="#B00000" stroke="#ffffff" stroke-width="1e-7" opacity="1" class="highcharts-point"></rect><rect x="96.5" y="134.5" width="2" height="22" fill="#B00000" stroke="#ffffff" stroke-width="1e-7" opacity="1" class="highcharts-point"></rect><rect x="99.5" y="136.5" width="2" height="20" fill="#B00000" stroke="#ffffff" stroke-width="1e-7" opacity="1" class="highcharts-point"></rect><rect x="102.5" y="151.5" width="2" height="5" fill="#B00000" stroke="#ffffff" stroke-width="1e-7" opacity="1" class="highcharts-point"></rect><rect x="105.5" y="149.5" width="2" height="7" fill="#B00000" stroke="#ffffff" stroke-width="1e-7" opacity="1" class="highcharts-point"></rect><rect x="108.5" y="139.5" width="2" height="17" fill="#B00000" stroke="#ffffff" stroke-width="1e-7" opacity="1" class="highcharts-point"></rect><rect x="112.5" y="132.5" width="2" height="24" fill="#B00000" stroke="#ffffff" stroke-width="1e-7" opacity="1" class="highcharts-point"></rect><rect x="115.5" y="133.5" width="2" height="23" fill="#B00000" stroke="#ffffff" stroke-width="1e-7" opacity="1" class="highcharts-point"></rect><rect x="118.5" y="155.5" width="2" height="1" fill="#B00000" stroke="#ffffff" stroke-width="1e-7" opacity="1" class="highcharts-point"></rect><rect x="121.5" y="151.5" width="2" height="5" fill="#B00000" stroke="#ffffff" stroke-width="1e-7" opacity="1" class="highcharts-point"></rect><rect x="124.5" y="156.5" width="2" height="12" fill="#B00000" stroke="#ffffff" stroke-width="1e-7" opacity="1" class="highcharts-point highcharts-negative"></rect><rect x="128.5" y="156.5" width="2" height="20" fill="#B00000" stroke="#ffffff" stroke-width="1e-7" opacity="1" class="highcharts-point highcharts-negative"></rect><rect x="131.5" y="156.5" width="2" height="14" fill="#B00000" stroke="#ffffff" stroke-width="1e-7" opacity="1" class="highcharts-point highcharts-negative"></rect><rect x="134.5" y="156.5" width="2" height="9" fill="#B00000" stroke="#ffffff" stroke-width="1e-7" opacity="1" class="highcharts-point highcharts-negative"></rect><rect x="137.5" y="156.5" width="2" height="4" fill="#B00000" stroke="#ffffff" stroke-width="1e-7" opacity="1" class="highcharts-point highcharts-negative"></rect><rect x="140.5" y="156.5" width="2" height="19" fill="#B00000" stroke="#ffffff" stroke-width="1e-7" opacity="1" class="highcharts-point highcharts-negative"></rect><rect x="144.5" y="156.5" width="2" height="16" fill="#B00000" stroke="#ffffff" stroke-width="1e-7" opacity="1" class="highcharts-point highcharts-negative"></rect><rect x="147.5" y="156.5" width="2" height="31" fill="#B00000" stroke="#ffffff" stroke-width="1e-7" opacity="1" class="highcharts-point highcharts-negative"></rect><rect x="150.5" y="156.5" width="2" height="31" fill="#B00000" stroke="#ffffff" stroke-width="1e-7" opacity="1" class="highcharts-point highcharts-negative"></rect><rect x="153.5" y="156.5" width="2" height="38" fill="#B00000" stroke="#ffffff" stroke-width="1e-7" opacity="1" class="highcharts-point highcharts-negative"></rect><rect x="156.5" y="156.5" width="2" height="41" fill="#B00000" stroke="#ffffff" stroke-width="1e-7" opacity="1" class="highcharts-point highcharts-negative"></rect><rect x="160.5" y="156.5" width="2" height="37" fill="#B00000" stroke="#ffffff" stroke-width="1e-7" opacity="1" class="highcharts-point highcharts-negative"></rect><rect x="163.5" y="156.5" width="2" height="41" fill="#B00000" stroke="#ffffff" stroke-width="1e-7" opacity="1" class="highcharts-point highcharts-negative"></rect><rect x="166.5" y="156.5" width="2" height="32" fill="#B00000" stroke="#ffffff" stroke-width="1e-7" opacity="1" class="highcharts-point highcharts-negative"></rect><rect x="169.5" y="156.5" width="2" height="36" fill="#B00000" stroke="#ffffff" stroke-width="1e-7" opacity="1" class="highcharts-point highcharts-negative"></rect><rect x="172.5" y="156.5" width="2" height="31" fill="#B00000" stroke="#ffffff" stroke-width="1e-7" opacity="1" class="highcharts-point highcharts-negative"></rect><rect x="176.5" y="156.5" width="2" height="42" fill="#B00000" stroke="#ffffff" stroke-width="1e-7" opacity="1" class="highcharts-point highcharts-negative"></rect><rect x="179.5" y="156.5" width="2" height="32" fill="#B00000" stroke="#ffffff" stroke-width="1e-7" opacity="1" class="highcharts-point highcharts-negative"></rect><rect x="182.5" y="156.5" width="2" height="37" fill="#B00000" stroke="#ffffff" stroke-width="1e-7" opacity="1" class="highcharts-point highcharts-negative"></rect><rect x="185.5" y="156.5" width="2" height="33" fill="#B00000" stroke="#ffffff" stroke-width="1e-7" opacity="1" class="highcharts-point highcharts-negative"></rect><rect x="188.5" y="156.5" width="2" height="28" fill="#B00000" stroke="#ffffff" stroke-width="1e-7" opacity="1" class="highcharts-point highcharts-negative"></rect><rect x="192.5" y="156.5" width="2" height="23" fill="#B00000" stroke="#ffffff" stroke-width="1e-7" opacity="1" class="highcharts-point highcharts-negative"></rect><rect x="195.5" y="156.5" width="2" height="27" fill="#B00000" stroke="#ffffff" stroke-width="1e-7" opacity="1" class="highcharts-point highcharts-negative"></rect><rect x="198.5" y="156.5" width="2" height="29" fill="#B00000" stroke="#ffffff" stroke-width="1e-7" opacity="1" class="highcharts-point highcharts-negative"></rect><rect x="201.5" y="156.5" width="2" height="28" fill="#B00000" stroke="#ffffff" stroke-width="1e-7" opacity="1" class="highcharts-point highcharts-negative"></rect><rect x="204.5" y="156.5" width="2" height="31" fill="#B00000" stroke="#ffffff" stroke-width="1e-7" opacity="1" class="highcharts-point highcharts-negative"></rect><rect x="208.5" y="156.5" width="2" height="31" fill="#B00000" stroke="#ffffff" stroke-width="1e-7" opacity="1" class="highcharts-point highcharts-negative"></rect><rect x="211.5" y="156.5" width="2" height="33" fill="#B00000" stroke="#ffffff" stroke-width="1e-7" opacity="1" class="highcharts-point highcharts-negative"></rect><rect x="214.5" y="156.5" width="2" height="32" fill="#B00000" stroke="#ffffff" stroke-width="1e-7" opacity="1" class="highcharts-point highcharts-negative"></rect><rect x="217.5" y="156.5" width="2" height="35" fill="#B00000" stroke="#ffffff" stroke-width="1e-7" opacity="1" class="highcharts-point highcharts-negative"></rect><rect x="220.5" y="156.5" width="2" height="29" fill="#B00000" stroke="#ffffff" stroke-width="1e-7" opacity="1" class="highcharts-point highcharts-negative"></rect><rect x="224.5" y="156.5" width="2" height="19" fill="#B00000" stroke="#ffffff" stroke-width="1e-7" opacity="1" class="highcharts-point highcharts-negative"></rect><rect x="227.5" y="156.5" width="2" height="18" fill="#B00000" stroke="#ffffff" stroke-width="1e-7" opacity="1" class="highcharts-point highcharts-negative"></rect><rect x="230.5" y="156.5" width="2" height="21" fill="#B00000" stroke="#ffffff" stroke-width="1e-7" opacity="1" class="highcharts-point highcharts-negative"></rect><rect x="233.5" y="156.5" width="2" height="9" fill="#B00000" stroke="#ffffff" stroke-width="1e-7" opacity="1" class="highcharts-point highcharts-negative"></rect><rect x="236.5" y="123.5" width="2" height="33" fill="#B00000" stroke="#ffffff" stroke-width="1e-7" opacity="1" class="highcharts-point"></rect><rect x="239.5" y="76.5" width="2" height="80" fill="#B00000" stroke="#ffffff" stroke-width="1e-7" opacity="1" class="highcharts-point"></rect><rect x="243.5" y="49.5" width="2" height="107" fill="#B00000" stroke="#ffffff" stroke-width="1e-7" opacity="1" class="highcharts-point"></rect><rect x="246.5" y="33.5" width="2" height="123" fill="#B00000" stroke="#ffffff" stroke-width="1e-7" opacity="1" class="highcharts-point"></rect><rect x="249.5" y="21.5" width="2" height="135" fill="#B00000" stroke="#ffffff" stroke-width="1e-7" opacity="1" class="highcharts-point"></rect><rect x="252.5" y="32.5" width="2" height="124" fill="#B00000" stroke="#ffffff" stroke-width="1e-7" opacity="1" class="highcharts-point"></rect><rect x="255.5" y="31.5" width="2" height="125" fill="#B00000" stroke="#ffffff" stroke-width="1e-7" opacity="1" class="highcharts-point"></rect><rect x="259.5" y="38.5" width="2" height="118" fill="#B00000" stroke="#ffffff" stroke-width="1e-7" opacity="1" class="highcharts-point"></rect><rect x="262.5" y="50.5" width="2" height="106" fill="#B00000" stroke="#ffffff" stroke-width="1e-7" opacity="1" class="highcharts-point"></rect><rect x="265.5" y="43.5" width="2" height="113" fill="#B00000" stroke="#ffffff" stroke-width="1e-7" opacity="1" class="highcharts-point"></rect><rect x="268.5" y="42.5" width="2" height="114" fill="#B00000" stroke="#ffffff" stroke-width="1e-7" opacity="1" class="highcharts-point"></rect><rect x="271.5" y="41.5" width="2" height="115" fill="#B00000" stroke="#ffffff" stroke-width="1e-7" opacity="1" class="highcharts-point"></rect><rect x="275.5" y="80.5" width="2" height="76" fill="#B00000" stroke="#ffffff" stroke-width="1e-7" opacity="1" class="highcharts-point"></rect><rect x="278.5" y="131.5" width="2" height="25" fill="#B00000" stroke="#ffffff" stroke-width="1e-7" opacity="1" class="highcharts-point"></rect><rect x="281.5" y="156.5" width="2" height="7" fill="#B00000" stroke="#ffffff" stroke-width="1e-7" opacity="1" class="highcharts-point highcharts-negative"></rect><rect x="284.5" y="156.5" width="2" height="23" fill="#B00000" stroke="#ffffff" stroke-width="1e-7" opacity="1" class="highcharts-point highcharts-negative"></rect><rect x="287.5" y="156.5" width="2" height="43" fill="#B00000" stroke="#ffffff" stroke-width="1e-7" opacity="1" class="highcharts-point highcharts-negative"></rect><rect x="291.5" y="156.5" width="2" height="43" fill="#B00000" stroke="#ffffff" stroke-width="1e-7" opacity="1" class="highcharts-point highcharts-negative"></rect><rect x="294.5" y="156.5" width="2" height="56" fill="#B00000" stroke="#ffffff" stroke-width="1e-7" opacity="1" class="highcharts-point highcharts-negative"></rect><rect x="297.5" y="156.5" width="2" height="68" fill="#B00000" stroke="#ffffff" stroke-width="1e-7" opacity="1" class="highcharts-point highcharts-negative"></rect><rect x="300.5" y="156.5" width="2" height="74" fill="#B00000" stroke="#ffffff" stroke-width="1e-7" opacity="1" class="highcharts-point highcharts-negative"></rect><rect x="303.5" y="156.5" width="2" height="94" fill="#B00000" stroke="#ffffff" stroke-width="1e-7" opacity="1" class="highcharts-point highcharts-negative"></rect><rect x="307.5" y="156.5" width="2" height="98" fill="#B00000" stroke="#ffffff" stroke-width="1e-7" opacity="1" class="highcharts-point highcharts-negative"></rect><rect x="310.5" y="156.5" width="2" height="100" fill="#B00000" stroke="#ffffff" stroke-width="1e-7" opacity="1" class="highcharts-point highcharts-negative"></rect><rect x="313.5" y="156.5" width="2" height="114" fill="#B00000" stroke="#ffffff" stroke-width="1e-7" opacity="1" class="highcharts-point highcharts-negative"></rect><rect x="316.5" y="156.5" width="2" height="102" fill="#B00000" stroke="#ffffff" stroke-width="1e-7" opacity="1" class="highcharts-point highcharts-negative"></rect><rect x="319.5" y="156.5" width="2" height="93" fill="#B00000" stroke="#ffffff" stroke-width="1e-7" opacity="1" class="highcharts-point highcharts-negative"></rect><rect x="323.5" y="156.5" width="2" height="91" fill="#B00000" stroke="#ffffff" stroke-width="1e-7" opacity="1" class="highcharts-point highcharts-negative"></rect><rect x="326.5" y="156.5" width="2" height="87" fill="#B00000" stroke="#ffffff" stroke-width="1e-7" opacity="1" class="highcharts-point highcharts-negative"></rect><rect x="329.5" y="156.5" width="2" height="76" fill="#B00000" stroke="#ffffff" stroke-width="1e-7" opacity="1" class="highcharts-point highcharts-negative"></rect><rect x="332.5" y="156.5" width="2" height="63" fill="#B00000" stroke="#ffffff" stroke-width="1e-7" opacity="1" class="highcharts-point highcharts-negative"></rect><rect x="335.5" y="156.5" width="2" height="50" fill="#B00000" stroke="#ffffff" stroke-width="1e-7" opacity="1" class="highcharts-point highcharts-negative"></rect><rect x="339.5" y="156.5" width="2" height="44" fill="#B00000" stroke="#ffffff" stroke-width="1e-7" opacity="1" class="highcharts-point highcharts-negative"></rect><rect x="342.5" y="156.5" width="2" height="47" fill="#B00000" stroke="#ffffff" stroke-width="1e-7" opacity="1" class="highcharts-point highcharts-negative"></rect><rect x="345.5" y="156.5" width="2" height="41" fill="#B00000" stroke="#ffffff" stroke-width="1e-7" opacity="1" class="highcharts-point highcharts-negative"></rect><rect x="348.5" y="156.5" width="2" height="33" fill="#B00000" stroke="#ffffff" stroke-width="1e-7" opacity="1" class="highcharts-point highcharts-negative"></rect><rect x="351.5" y="156.5" width="2" height="24" fill="#B00000" stroke="#ffffff" stroke-width="1e-7" opacity="1" class="highcharts-point highcharts-negative"></rect><rect x="355.5" y="156.5" width="2" height="17" fill="#B00000" stroke="#ffffff" stroke-width="1e-7" opacity="1" class="highcharts-point highcharts-negative"></rect><rect x="358.5" y="156.5" width="2" height="20" fill="#B00000" stroke="#ffffff" stroke-width="1e-7" opacity="1" class="highcharts-point highcharts-negative"></rect><rect x="361.5" y="156.5" width="2" height="10" fill="#B00000" stroke="#ffffff" stroke-width="1e-7" opacity="1" class="highcharts-point highcharts-negative"></rect><rect x="364.5" y="150.5" width="2" height="6" fill="#B00000" stroke="#ffffff" stroke-width="1e-7" opacity="1" class="highcharts-point"></rect><rect x="367.5" y="146.5" width="2" height="10" fill="#B00000" stroke="#ffffff" stroke-width="1e-7" opacity="1" class="highcharts-point"></rect><rect x="370.5" y="141.5" width="2" height="15" fill="#B00000" stroke="#ffffff" stroke-width="1e-7" opacity="1" class="highcharts-point"></rect><rect x="374.5" y="128.5" width="2" height="28" fill="#B00000" stroke="#ffffff" stroke-width="1e-7" opacity="1" class="highcharts-point"></rect><rect x="377.5" y="118.5" width="2" height="38" fill="#B00000" stroke="#ffffff" stroke-width="1e-7" opacity="1" class="highcharts-point"></rect><rect x="380.5" y="97.5" width="2" height="59" fill="#B00000" stroke="#ffffff" stroke-width="1e-7" opacity="1" class="highcharts-point"></rect><rect x="383.5" y="73.5" width="2" height="83" fill="#B00000" stroke="#ffffff" stroke-width="1e-7" opacity="1" class="highcharts-point"></rect><rect x="386.5" y="83.5" width="2" height="73" fill="#B00000" stroke="#ffffff" stroke-width="1e-7" opacity="1" class="highcharts-point"></rect><rect x="390.5" y="78.5" width="2" height="78" fill="#B00000" stroke="#ffffff" stroke-width="1e-7" opacity="1" class="highcharts-point"></rect><rect x="393.5" y="81.5" width="2" height="75" fill="#B00000" stroke="#ffffff" stroke-width="1e-7" opacity="1" class="highcharts-point"></rect><rect x="396.5" y="83.5" width="2" height="73" fill="#B00000" stroke="#ffffff" stroke-width="1e-7" opacity="1" class="highcharts-point"></rect><rect x="399.5" y="88.5" width="2" height="68" fill="#B00000" stroke="#ffffff" stroke-width="1e-7" opacity="1" class="highcharts-point"></rect><rect x="402.5" y="78.5" width="2" height="78" fill="#B00000" stroke="#ffffff" stroke-width="1e-7" opacity="1" class="highcharts-point"></rect><rect x="406.5" y="77.5" width="2" height="79" fill="#B00000" stroke="#ffffff" stroke-width="1e-7" opacity="1" class="highcharts-point"></rect></g><g class="highcharts-markers highcharts-series-0 highcharts-column-series" data-z-index="0.1" opacity="1" transform="translate(56,73) scale(1 1)" clip-path="none"></g></g><text x="10" text-anchor="start" class="highcharts-title" data-z-index="4" style="color:#000000;font-size:14px;font-weight:bold;fill:#000000;" y="21"><tspan>Veränderung der Arbeitslosenzahl im Vergleich zum</tspan><tspan dy="17" x="10">Vorjahresmonat</tspan></text><text x="10" text-anchor="start" class="highcharts-subtitle" data-z-index="4" style="color:#000000;font-size:12px;font-weight:normal;fill:#000000;" y="57"><tspan>Basel-Stadt</tspan></text><text x="10" text-anchor="start" class="highcharts-caption" data-z-index="4" style="color:#666666;fill:#666666;" y="400"></text><g class="highcharts-axis-labels highcharts-xaxis-labels" data-z-index="7"><text x="57.59765625" style="color:#000000;cursor:default;font-size:11px;fill:#000000;" text-anchor="middle" transform="translate(0,0)" y="385" opacity="1">2014</text><text x="95.94140625" style="color:#000000;cursor:default;font-size:11px;fill:#000000;" text-anchor="middle" transform="translate(0,0)" y="385" opacity="1">2015</text><text x="134.28515625" style="color:#000000;cursor:default;font-size:11px;fill:#000000;" text-anchor="middle" transform="translate(0,0)" y="385" opacity="1">2016</text><text x="172.62890625" style="color:#000000;cursor:default;font-size:11px;fill:#000000;" text-anchor="middle" transform="translate(0,0)" y="385" opacity="1">2017</text><text x="210.97265625" style="color:#000000;cursor:default;font-size:11px;fill:#000000;" text-anchor="middle" transform="translate(0,0)" y="385" opacity="1">2018</text><text x="249.31640625" style="color:#000000;cursor:default;font-size:11px;fill:#000000;" text-anchor="middle" transform="translate(0,0)" y="385" opacity="1">2019</text><text x="287.66015625" style="color:#000000;cursor:default;font-size:11px;fill:#000000;" text-anchor="middle" transform="translate(0,0)" y="385" opacity="1">2020</text><text x="326.00390625" style="color:#000000;cursor:default;font-size:11px;fill:#000000;" text-anchor="middle" transform="translate(0,0)" y="385" opacity="1">2021</text><text x="364.34765625" style="color:#000000;cursor:default;font-size:11px;fill:#000000;" text-anchor="middle" transform="translate(0,0)" y="385" opacity="1">2022</text><text x="402.69140625" style="color:#000000;cursor:default;font-size:11px;fill:#000000;" text-anchor="middle" transform="translate(0,0)" y="385" opacity="1">2023</text><text x="441.03515625" style="color:#000000;cursor:default;font-size:11px;fill:#000000;" text-anchor="middle" transform="translate(0,0)" y="385" opacity="1">2024</text></g><g class="highcharts-axis-labels highcharts-yaxis-labels" data-z-index="7"><text x="41" style="color:#000000;cursor:default;font-size:11px;fill:#000000;" text-anchor="end" transform="translate(0,0)" y="370" opacity="1"><tspan>-1 400</tspan></text><text x="41" style="color:#000000;cursor:default;font-size:11px;fill:#000000;" text-anchor="end" transform="translate(0,0)" y="350" opacity="1"><tspan>-1 200</tspan></text><text x="41" style="color:#000000;cursor:default;font-size:11px;fill:#000000;" text-anchor="end" transform="translate(0,0)" y="331" opacity="1"><tspan>-1 000</tspan></text><text x="41" style="color:#000000;cursor:default;font-size:11px;fill:#000000;" text-anchor="end" transform="translate(0,0)" y="311" opacity="1">-800</text><text x="41" style="color:#000000;cursor:default;font-size:11px;fill:#000000;" text-anchor="end" transform="translate(0,0)" y="292" opacity="1">-600</text><text x="41" style="color:#000000;cursor:default;font-size:11px;fill:#000000;" text-anchor="end" transform="translate(0,0)" y="272" opacity="1">-400</text><text x="41" style="color:#000000;cursor:default;font-size:11px;fill:#000000;" text-anchor="end" transform="translate(0,0)" y="253" opacity="1">-200</text><text x="41" style="color:#000000;cursor:default;font-size:11px;fill:#000000;" text-anchor="end" transform="translate(0,0)" y="233" opacity="1">0</text><text x="41" style="color:#000000;cursor:default;font-size:11px;fill:#000000;" text-anchor="end" transform="translate(0,0)" y="214" opacity="1">200</text><text x="41" style="color:#000000;cursor:default;font-size:11px;fill:#000000;" text-anchor="end" transform="translate(0,0)" y="194" opacity="1">400</text><text x="41" style="color:#000000;cursor:default;font-size:11px;fill:#000000;" text-anchor="end" transform="translate(0,0)" y="175" opacity="1">600</text><text x="41" style="color:#000000;cursor:default;font-size:11px;fill:#000000;" text-anchor="end" transform="translate(0,0)" y="155" opacity="1">800</text><text x="41" style="color:#000000;cursor:default;font-size:11px;fill:#000000;" text-anchor="end" transform="translate(0,0)" y="136" opacity="1"><tspan>1 000</tspan></text><text x="41" style="color:#000000;cursor:default;font-size:11px;fill:#000000;" text-anchor="end" transform="translate(0,0)" y="116" opacity="1"><tspan>1 200</tspan></text><text x="41" style="color:#000000;cursor:default;font-size:11px;fill:#000000;" text-anchor="end" transform="translate(0,0)" y="97" opacity="1"><tspan>1 400</tspan></text><text x="41" style="color:#000000;cursor:default;font-size:11px;fill:#000000;" text-anchor="end" transform="translate(0,0)" y="77" opacity="1"><tspan>1 600</tspan></text></g><text x="10" class="highcharts-credits" text-anchor="start" data-z-index="8" style="cursor:default;color:#000000;font-size:10px;fill:#000000;" y="403"><tspan>Quelle: Staatssekretariat für Wirtschaft SECO, Arbeitslosenstatistik.</tspan><tspan x="10" dy="13">Zuletzt geändert: 5.9.2024</tspan></text><g class="highcharts-control-points" data-z-index="99" clip-path="url(#highcharts-j1dqv9a-265-)"></g></svg>