<?xml version="1.0" standalone="no"?><!DOCTYPE svg PUBLIC "-//W3C//DTD SVG 1.1//EN" "http://www.w3.org/Graphics/SVG/1.1/DTD/svg11.dtd"><svg xmlns:xlink="http://www.w3.org/1999/xlink" version="1.1" class="highcharts-root" style="font-family:Arial;font-size:12px;" xmlns="http://www.w3.org/2000/svg" width="485" height="428"><desc>Created with Highcharts 8.2.0</desc><defs><clipPath id="highcharts-dhf6gfp-27-"><rect x="0" y="0" width="280" height="260" fill="none"></rect></clipPath><clipPath id="highcharts-dhf6gfp-33-"><rect x="0" y="0" width="280" height="260" fill="none"></rect></clipPath><clipPath id="highcharts-dhf6gfp-49-"><rect x="210" y="93" width="260" height="280" fill="none"></rect></clipPath></defs><rect fill="#fbfbfb" class="highcharts-background" x="0" y="0" width="485" height="428" rx="0" ry="0"></rect><rect fill="none" class="highcharts-plot-background" x="210" y="93" width="260" height="280"></rect><g class="highcharts-pane-group" data-z-index="0"></g><g class="highcharts-grid highcharts-xaxis-grid" data-z-index="1"><path fill="none" data-z-index="1" class="highcharts-grid-line" d="M 210 149.5 L 470 149.5" opacity="1"></path><path fill="none" data-z-index="1" class="highcharts-grid-line" d="M 210 205.5 L 470 205.5" opacity="1"></path><path fill="none" data-z-index="1" class="highcharts-grid-line" d="M 210 261.5 L 470 261.5" opacity="1"></path><path fill="none" data-z-index="1" class="highcharts-grid-line" d="M 210 317.5 L 470 317.5" opacity="1"></path><path fill="none" data-z-index="1" class="highcharts-grid-line" d="M 210 373.5 L 470 373.5" opacity="1"></path><path fill="none" data-z-index="1" class="highcharts-grid-line" d="M 210 93.5 L 470 93.5" opacity="1"></path></g><g class="highcharts-grid highcharts-yaxis-grid" data-z-index="1"><path fill="none" stroke="#B9CFD7" stroke-width="0.5" data-z-index="1" class="highcharts-grid-line" d="M 209.75 93 L 209.75 373" opacity="1"></path><path fill="none" stroke="#B9CFD7" stroke-width="0.5" data-z-index="1" class="highcharts-grid-line" d="M 274.75 93 L 274.75 373" opacity="1"></path><path fill="none" stroke="#B9CFD7" stroke-width="0.5" data-z-index="1" class="highcharts-grid-line" d="M 339.75 93 L 339.75 373" opacity="1"></path><path fill="none" stroke="#B9CFD7" stroke-width="0.5" data-z-index="1" class="highcharts-grid-line" d="M 404.75 93 L 404.75 373" opacity="1"></path><path fill="none" stroke="#B9CFD7" stroke-width="0.5" data-z-index="1" class="highcharts-grid-line" d="M 470.25 93 L 470.25 373" opacity="1"></path></g><rect fill="none" class="highcharts-plot-border" data-z-index="1" x="210" y="93" width="260" height="280"></rect><g class="highcharts-axis highcharts-xaxis" data-z-index="2"><path fill="none" class="highcharts-axis-line" stroke="#B9CFD7" stroke-width="0.5" data-z-index="7" d="M 209.75 93 L 209.75 373"></path></g><g class="highcharts-axis highcharts-yaxis" data-z-index="2"><path fill="none" class="highcharts-axis-line" data-z-index="7" d="M 210 373 L 470 373"></path></g><g class="highcharts-series-group" data-z-index="3"><g class="highcharts-series highcharts-series-0 highcharts-column-series" data-z-index="0.1" opacity="1" transform="translate(470,373) rotate(90) scale(-1,1) scale(1 1)" clip-path="url(#highcharts-dhf6gfp-33-)"><rect x="263" y="57" width="11" height="204" fill="#3C3C3C" opacity="1" class="highcharts-point"></rect><rect x="207" y="30" width="11" height="231" fill="#3C3C3C" opacity="1" class="highcharts-point"></rect><rect x="151" y="23" width="11" height="238" fill="#3C3C3C" opacity="1" class="highcharts-point"></rect><rect x="95" y="93" width="11" height="168" fill="#3C3C3C" opacity="1" class="highcharts-point"></rect><rect x="39" y="11" width="11" height="250" fill="#3C3C3C" opacity="1" class="highcharts-point"></rect></g><g class="highcharts-markers highcharts-series-0 highcharts-column-series" data-z-index="0.1" opacity="1" transform="translate(470,373) rotate(90) scale(-1,1) scale(1 1)" clip-path="none"></g><g class="highcharts-series highcharts-series-1 highcharts-column-series" data-z-index="0.1" opacity="1" transform="translate(470,373) rotate(90) scale(-1,1) scale(1 1)" clip-path="url(#highcharts-dhf6gfp-33-)"><rect x="252" y="38" width="11" height="223" fill="#b00000" opacity="1" class="highcharts-point"></rect><rect x="196" y="15" width="11" height="246" fill="#b00000" opacity="1" class="highcharts-point"></rect><rect x="140" y="26" width="11" height="235" fill="#b00000" opacity="1" class="highcharts-point"></rect><rect x="84" y="118" width="11" height="143" fill="#b00000" opacity="1" class="highcharts-point"></rect><rect x="28" y="7" width="11" height="254" fill="#b00000" opacity="1" class="highcharts-point"></rect></g><g class="highcharts-markers highcharts-series-1 highcharts-column-series" data-z-index="0.1" opacity="1" transform="translate(470,373) rotate(90) scale(-1,1) scale(1 1)" clip-path="none"></g><g class="highcharts-series highcharts-series-2 highcharts-column-series" data-z-index="0.1" opacity="1" transform="translate(470,373) rotate(90) scale(-1,1) scale(1 1)" clip-path="url(#highcharts-dhf6gfp-33-)"><rect x="241" y="97" width="11" height="164" fill="#A0BEC8" opacity="1" class="highcharts-point"></rect><rect x="129" y="23" width="11" height="238" fill="#A0BEC8" opacity="1" class="highcharts-point"></rect><rect x="17" y="34" width="11" height="227" fill="#A0BEC8" opacity="1" class="highcharts-point"></rect></g><g class="highcharts-markers highcharts-series-2 highcharts-column-series" data-z-index="0.1" opacity="1" transform="translate(470,373) rotate(90) scale(-1,1) scale(1 1)" clip-path="none"></g><g class="highcharts-series highcharts-series-3 highcharts-column-series" data-z-index="0.1" opacity="1" transform="translate(470,373) rotate(90) scale(-1,1) scale(1 1)" clip-path="url(#highcharts-dhf6gfp-33-)"><rect x="230" y="84" width="11" height="177" fill="#008AC3" opacity="1" class="highcharts-point"></rect><rect x="174" y="47" width="11" height="214" fill="#008AC3" opacity="1" class="highcharts-point"></rect><rect x="118" y="25" width="11" height="236" fill="#008AC3" opacity="1" class="highcharts-point"></rect><rect x="62" y="183" width="11" height="78" fill="#008AC3" opacity="1" class="highcharts-point"></rect><rect x="6" y="23" width="11" height="238" fill="#008AC3" opacity="1" class="highcharts-point"></rect></g><g class="highcharts-markers highcharts-series-3 highcharts-column-series" data-z-index="0.1" opacity="1" transform="translate(470,373) rotate(90) scale(-1,1) scale(1 1)" clip-path="none"></g></g><text x="10" text-anchor="start" class="highcharts-title" data-z-index="4" style="color:#000000;font-size:14px;font-weight:bold;fill:#000000;" y="21"><tspan>Zufriedenheit mit…</tspan></text><text x="10" text-anchor="start" class="highcharts-subtitle" data-z-index="4" style="color:#000000;font-size:12px;font-weight:normal;fill:#000000;" y="40"><tspan>«Wie zufrieden sind Sie mit folgenden Aspekten an Ihrem Wohnort?», Anteil</tspan><tspan dy="15" x="10">Zufriedene, 2019</tspan></text><text x="10" text-anchor="start" class="highcharts-caption" data-z-index="4" style="color:#666666;fill:#666666;" y="400"></text><g class="highcharts-legend" data-z-index="7" transform="translate(210,71)"><rect fill="none" class="highcharts-legend-box" rx="0" ry="0" x="0" y="0" width="212" height="10" visibility="visible"></rect><g data-z-index="1"><g><g class="highcharts-legend-item highcharts-column-series highcharts-color-undefined highcharts-series-0" data-z-index="1" transform="translate(0,-5)"><text x="17" style="color:#333333;cursor:pointer;font-size:12px;font-weight:normal;whitspace:nowrap;fill:#333333;" text-anchor="start" data-z-index="2" y="15"><tspan>Basel</tspan></text><rect x="2" y="4" width="12" height="12" fill="#3C3C3C" class="highcharts-point" data-z-index="3"></rect></g><g class="highcharts-legend-item highcharts-column-series highcharts-color-undefined highcharts-series-1" data-z-index="1" transform="translate(54,-5)"><text x="17" y="15" style="color:#333333;cursor:pointer;font-size:12px;font-weight:normal;whitspace:nowrap;fill:#333333;" text-anchor="start" data-z-index="2"><tspan>Bern</tspan></text><rect x="2" y="4" width="12" height="12" fill="#b00000" class="highcharts-point" data-z-index="3"></rect></g><g class="highcharts-legend-item highcharts-column-series highcharts-color-undefined highcharts-series-2" data-z-index="1" transform="translate(102,-5)"><text x="17" y="15" style="color:#333333;cursor:pointer;font-size:12px;font-weight:normal;whitspace:nowrap;fill:#333333;" text-anchor="start" data-z-index="2"><tspan>Luzern</tspan></text><rect x="2" y="4" width="12" height="12" fill="#A0BEC8" class="highcharts-point" data-z-index="3"></rect></g><g class="highcharts-legend-item highcharts-column-series highcharts-color-undefined highcharts-series-3" data-z-index="1" transform="translate(161,-5)"><text x="17" y="15" style="color:#333333;cursor:pointer;font-size:12px;font-weight:normal;whitspace:nowrap;fill:#333333;" text-anchor="start" data-z-index="2"><tspan>Zürich</tspan></text><rect x="2" y="4" width="12" height="12" fill="#008AC3" class="highcharts-point" data-z-index="3"></rect></g></g></g></g><g class="highcharts-axis-labels highcharts-xaxis-labels" data-z-index="7"><text x="195" style="color:#000000;cursor:default;font-size:11px;fill:#000000;" text-anchor="end" transform="translate(0,0)" y="125" opacity="1">Kinderbetreuungsangebot</text><text x="195" style="color:#000000;cursor:default;font-size:11px;fill:#000000;" text-anchor="end" transform="translate(0,0)" y="181" opacity="1"><tspan>Angebot an Grünanlagen und Parks</tspan></text><text x="195" style="color:#000000;cursor:default;font-size:11px;fill:#000000;" text-anchor="end" transform="translate(0,0)" y="237" opacity="1">Kulturangebot</text><text x="195" style="color:#000000;cursor:default;font-size:11px;fill:#000000;" text-anchor="end" transform="translate(0,0)" y="293" opacity="1">Wohnungsangebot</text><text x="195" style="color:#000000;cursor:default;font-size:11px;fill:#000000;" text-anchor="end" transform="translate(0,0)" y="349" opacity="1"><tspan>Öffentliche Verkehrsmittel</tspan></text></g><g class="highcharts-axis-labels highcharts-yaxis-labels" data-z-index="7"><text x="210" style="color:#000000;cursor:default;font-size:11px;fill:#000000;" text-anchor="middle" transform="translate(0,0)" y="392" opacity="1">0%</text><text x="275" style="color:#000000;cursor:default;font-size:11px;fill:#000000;" text-anchor="middle" transform="translate(0,0)" y="392" opacity="1">25%</text><text x="340" style="color:#000000;cursor:default;font-size:11px;fill:#000000;" text-anchor="middle" transform="translate(0,0)" y="392" opacity="1">50%</text><text x="405" style="color:#000000;cursor:default;font-size:11px;fill:#000000;" text-anchor="middle" transform="translate(0,0)" y="392" opacity="1">75%</text><text x="461" style="color:#000000;cursor:default;font-size:11px;fill:#000000;" text-anchor="middle" transform="translate(0,0)" y="392" opacity="1">100%</text></g><text x="10" class="highcharts-credits" text-anchor="start" data-z-index="8" style="cursor:default;color:#000000;font-size:10px;fill:#000000;" y="403"><tspan>Quelle: Bevölkerungsbefragungen der Kantone Basel-Stadt, Luzern und der Städte Bern und Zürich.</tspan><tspan x="10" dy="13">Zuletzt geändert: 2020-10-27</tspan></text><g class="highcharts-control-points" data-z-index="99" clip-path="url(#highcharts-dhf6gfp-49-)"></g></svg>