<?xml version="1.0" standalone="no"?><!DOCTYPE svg PUBLIC "-//W3C//DTD SVG 1.1//EN" "http://www.w3.org/Graphics/SVG/1.1/DTD/svg11.dtd"><svg xmlns:xlink="http://www.w3.org/1999/xlink" version="1.1" class="highcharts-root" style="font-family:Arial;font-size:12px;" xmlns="http://www.w3.org/2000/svg" viewBox="0 0 485 415"><desc>Created with Highcharts 8.2.0</desc><defs><clipPath id="highcharts-rgz2pih-51-"><rect x="0" y="0" width="438" height="217" fill="none"></rect></clipPath><clipPath id="highcharts-rgz2pih-74-"><rect x="0" y="0" width="438" height="217" fill="none"></rect></clipPath><clipPath id="highcharts-rgz2pih-97-"><rect x="37" y="94" width="438" height="217" fill="none"></rect></clipPath></defs><rect fill="#fbfbfb" class="highcharts-background" x="0" y="0" width="485" height="428" rx="0" ry="0"></rect><rect fill="none" class="highcharts-plot-background" x="37" y="94" width="438" height="217"></rect><g class="highcharts-pane-group" data-z-index="0"></g><g class="highcharts-grid highcharts-xaxis-grid" data-z-index="1"><path fill="none" data-z-index="1" class="highcharts-grid-line" d="M 56.5 94 L 56.5 311" opacity="1"></path><path fill="none" data-z-index="1" class="highcharts-grid-line" d="M 76.5 94 L 76.5 311" opacity="1"></path><path fill="none" data-z-index="1" class="highcharts-grid-line" d="M 96.5 94 L 96.5 311" opacity="1"></path><path fill="none" data-z-index="1" class="highcharts-grid-line" d="M 116.5 94 L 116.5 311" opacity="1"></path><path fill="none" data-z-index="1" class="highcharts-grid-line" d="M 136.5 94 L 136.5 311" opacity="1"></path><path fill="none" data-z-index="1" class="highcharts-grid-line" d="M 155.5 94 L 155.5 311" opacity="1"></path><path fill="none" data-z-index="1" class="highcharts-grid-line" d="M 175.5 94 L 175.5 311" opacity="1"></path><path fill="none" data-z-index="1" class="highcharts-grid-line" d="M 195.5 94 L 195.5 311" opacity="1"></path><path fill="none" data-z-index="1" class="highcharts-grid-line" d="M 215.5 94 L 215.5 311" opacity="1"></path><path fill="none" data-z-index="1" class="highcharts-grid-line" d="M 235.5 94 L 235.5 311" opacity="1"></path><path fill="none" data-z-index="1" class="highcharts-grid-line" d="M 255.5 94 L 255.5 311" opacity="1"></path><path fill="none" data-z-index="1" class="highcharts-grid-line" d="M 275.5 94 L 275.5 311" opacity="1"></path><path fill="none" data-z-index="1" class="highcharts-grid-line" d="M 295.5 94 L 295.5 311" opacity="1"></path><path fill="none" data-z-index="1" class="highcharts-grid-line" d="M 315.5 94 L 315.5 311" opacity="1"></path><path fill="none" data-z-index="1" class="highcharts-grid-line" d="M 335.5 94 L 335.5 311" opacity="1"></path><path fill="none" data-z-index="1" class="highcharts-grid-line" d="M 355.5 94 L 355.5 311" opacity="1"></path><path fill="none" data-z-index="1" class="highcharts-grid-line" d="M 374.5 94 L 374.5 311" opacity="1"></path><path fill="none" data-z-index="1" class="highcharts-grid-line" d="M 394.5 94 L 394.5 311" opacity="1"></path><path fill="none" data-z-index="1" class="highcharts-grid-line" d="M 414.5 94 L 414.5 311" opacity="1"></path><path fill="none" data-z-index="1" class="highcharts-grid-line" d="M 434.5 94 L 434.5 311" opacity="1"></path><path fill="none" data-z-index="1" class="highcharts-grid-line" d="M 454.5 94 L 454.5 311" opacity="1"></path><path fill="none" data-z-index="1" class="highcharts-grid-line" d="M 474.5 94 L 474.5 311" opacity="1"></path><path fill="none" data-z-index="1" class="highcharts-grid-line" d="M 36.5 94 L 36.5 311" opacity="1"></path></g><g class="highcharts-grid highcharts-yaxis-grid" data-z-index="1"><path fill="none" stroke="#B9CFD7" stroke-width="0.5" data-z-index="1" class="highcharts-grid-line" d="M 37 311.25 L 475 311.25" opacity="1"></path><path fill="none" stroke="#B9CFD7" stroke-width="0.5" data-z-index="1" class="highcharts-grid-line" d="M 37 268.25 L 475 268.25" opacity="1"></path><path fill="none" stroke="#B9CFD7" stroke-width="0.5" data-z-index="1" class="highcharts-grid-line" d="M 37 224.25 L 475 224.25" opacity="1"></path><path fill="none" stroke="#B9CFD7" stroke-width="0.5" data-z-index="1" class="highcharts-grid-line" d="M 37 181.25 L 475 181.25" opacity="1"></path><path fill="none" stroke="#B9CFD7" stroke-width="0.5" data-z-index="1" class="highcharts-grid-line" d="M 37 137.25 L 475 137.25" opacity="1"></path><path fill="none" stroke="#B9CFD7" stroke-width="0.5" data-z-index="1" class="highcharts-grid-line" d="M 37 93.75 L 475 93.75" opacity="1"></path></g><rect fill="none" class="highcharts-plot-border" data-z-index="1" x="37" y="94" width="438" height="217"></rect><g class="highcharts-axis highcharts-xaxis" data-z-index="2"><path fill="none" class="highcharts-axis-line" stroke="#B9CFD7" stroke-width="0.5" data-z-index="7" d="M 37 311.25 L 475 311.25"></path></g><g class="highcharts-axis highcharts-yaxis" data-z-index="2"><path fill="none" class="highcharts-axis-line" data-z-index="7" d="M 37 94 L 37 311"></path></g><g class="highcharts-series-group" data-z-index="3"><g class="highcharts-series highcharts-series-0 highcharts-column-series" data-z-index="0.1" opacity="1" transform="translate(37,94) scale(1 1)" clip-path="url(#highcharts-rgz2pih-74-)"><rect x="4" y="80" width="6" height="138" fill="#246370" opacity="1" class="highcharts-point"></rect><rect x="24" y="71" width="6" height="147" fill="#246370" opacity="1" class="highcharts-point"></rect><rect x="44" y="54" width="6" height="164" fill="#246370" opacity="1" class="highcharts-point"></rect><rect x="64" y="57" width="6" height="161" fill="#246370" opacity="1" class="highcharts-point"></rect><rect x="84" y="60" width="6" height="158" fill="#246370" opacity="1" class="highcharts-point"></rect><rect x="104" y="73" width="6" height="145" fill="#246370" opacity="1" class="highcharts-point"></rect><rect x="123" y="73" width="6" height="145" fill="#246370" opacity="1" class="highcharts-point"></rect><rect x="143" y="88" width="6" height="130" fill="#246370" opacity="1" class="highcharts-point"></rect><rect x="163" y="59" width="6" height="159" fill="#246370" opacity="1" class="highcharts-point"></rect><rect x="183" y="73" width="6" height="145" fill="#246370" opacity="1" class="highcharts-point"></rect><rect x="203" y="30" width="6" height="188" fill="#246370" opacity="1" class="highcharts-point"></rect><rect x="223" y="15" width="6" height="203" fill="#246370" opacity="1" class="highcharts-point"></rect><rect x="243" y="59" width="6" height="159" fill="#246370" opacity="1" class="highcharts-point"></rect><rect x="263" y="15" width="6" height="203" fill="#246370" opacity="1" class="highcharts-point"></rect><rect x="283" y="44" width="6" height="174" fill="#246370" opacity="1" class="highcharts-point"></rect><rect x="303" y="117" width="6" height="101" fill="#246370" opacity="1" class="highcharts-point"></rect><rect x="323" y="117" width="6" height="101" fill="#246370" opacity="1" class="highcharts-point"></rect><rect x="342" y="73" width="6" height="145" fill="#246370" opacity="1" class="highcharts-point"></rect><rect x="362" y="102" width="6" height="116" fill="#246370" opacity="1" class="highcharts-point"></rect><rect x="382" y="102" width="6" height="116" fill="#246370" opacity="1" class="highcharts-point"></rect><rect x="402" y="102" width="6" height="116" fill="#246370" opacity="1" class="highcharts-point"></rect><rect x="422" y="30" width="6" height="188" fill="#246370" opacity="1" class="highcharts-point"></rect></g><g class="highcharts-markers highcharts-series-0 highcharts-column-series" data-z-index="0.1" opacity="1" transform="translate(37,94) scale(1 1)" clip-path="none"></g><g class="highcharts-series highcharts-series-1 highcharts-column-series" data-z-index="0.1" opacity="1" transform="translate(37,94) scale(1 1)" clip-path="url(#highcharts-rgz2pih-74-)"><rect x="10" y="83" width="6" height="135" fill="#990300" opacity="1" class="highcharts-point"></rect><rect x="30" y="89" width="6" height="129" fill="#990300" opacity="1" class="highcharts-point"></rect><rect x="50" y="132" width="6" height="86" fill="#990300" opacity="1" class="highcharts-point"></rect><rect x="70" y="125" width="6" height="93" fill="#990300" opacity="1" class="highcharts-point"></rect><rect x="90" y="112" width="6" height="106" fill="#990300" opacity="1" class="highcharts-point"></rect><rect x="110" y="73" width="5" height="145" fill="#990300" opacity="1" class="highcharts-point"></rect><rect x="129" y="88" width="6" height="130" fill="#990300" opacity="1" class="highcharts-point"></rect><rect x="149" y="73" width="6" height="145" fill="#990300" opacity="1" class="highcharts-point"></rect><rect x="169" y="102" width="6" height="116" fill="#990300" opacity="1" class="highcharts-point"></rect><rect x="189" y="88" width="6" height="130" fill="#990300" opacity="1" class="highcharts-point"></rect><rect x="209" y="102" width="6" height="116" fill="#990300" opacity="1" class="highcharts-point"></rect><rect x="229" y="117" width="6" height="101" fill="#990300" opacity="1" class="highcharts-point"></rect><rect x="249" y="88" width="6" height="130" fill="#990300" opacity="1" class="highcharts-point"></rect><rect x="269" y="131" width="6" height="87" fill="#990300" opacity="1" class="highcharts-point"></rect><rect x="289" y="102" width="6" height="116" fill="#990300" opacity="1" class="highcharts-point"></rect><rect x="309" y="73" width="6" height="145" fill="#990300" opacity="1" class="highcharts-point"></rect><rect x="329" y="59" width="5" height="159" fill="#990300" opacity="1" class="highcharts-point"></rect><rect x="348" y="73" width="6" height="145" fill="#990300" opacity="1" class="highcharts-point"></rect><rect x="368" y="88" width="6" height="130" fill="#990300" opacity="1" class="highcharts-point"></rect><rect x="388" y="102" width="6" height="116" fill="#990300" opacity="1" class="highcharts-point"></rect><rect x="408" y="117" width="6" height="101" fill="#990300" opacity="1" class="highcharts-point"></rect><rect x="428" y="117" width="6" height="101" fill="#990300" opacity="1" class="highcharts-point"></rect></g><g class="highcharts-markers highcharts-series-1 highcharts-column-series" data-z-index="0.1" opacity="1" transform="translate(37,94) scale(1 1)" clip-path="none"></g></g><text x="10" text-anchor="start" class="highcharts-title" data-z-index="4" style="color:#000000;font-size:14px;font-weight:bold;fill:#000000;" y="21"><tspan>Geburten- und Sterberate</tspan></text><text x="10" text-anchor="start" class="highcharts-subtitle" data-z-index="4" style="color:#000000;font-size:12px;font-weight:normal;fill:#000000;" y="40"><tspan>Fälle pro 1000 Einwohner, 2019</tspan></text><text x="10" text-anchor="start" class="highcharts-caption" data-z-index="4" style="color:#666666;fill:#666666;" y="390"></text><g class="highcharts-legend" data-z-index="7" transform="translate(29,56)"><rect fill="none" class="highcharts-legend-box" rx="0" ry="0" x="0" y="0" width="207" height="26" visibility="visible"></rect><g data-z-index="1"><g><g class="highcharts-legend-item highcharts-column-series highcharts-color-undefined highcharts-series-0" data-z-index="1" transform="translate(8,3)"><text x="21" style="color:#333333;cursor:pointer;font-size:12px;font-weight:normal;fill:#333333;" text-anchor="start" data-z-index="2" y="15"><tspan>Geburtenrate</tspan></text><rect x="2" y="4" width="12" height="12" fill="#246370" class="highcharts-point" data-z-index="3"></rect></g><g class="highcharts-legend-item highcharts-column-series highcharts-color-undefined highcharts-series-1" data-z-index="1" transform="translate(121,3)"><text x="21" y="15" style="color:#333333;cursor:pointer;font-size:12px;font-weight:normal;fill:#333333;" text-anchor="start" data-z-index="2"><tspan>Sterberate</tspan></text><rect x="2" y="4" width="12" height="12" fill="#990300" class="highcharts-point" data-z-index="3"></rect></g></g></g></g><g class="highcharts-axis-labels highcharts-xaxis-labels" data-z-index="7"><text x="49.54727031889622" style="color:#000000;cursor:default;font-size:11px;fill:#000000;" text-anchor="end" transform="translate(0,0) rotate(-45 49.54727031889622 327)" y="327" opacity="1">Basel</text><text x="69.45636122798722" style="color:#000000;cursor:default;font-size:11px;fill:#000000;" text-anchor="end" transform="translate(0,0) rotate(-45 69.45636122798722 327)" y="327" opacity="1">Bern</text><text x="89.36545213707822" style="color:#000000;cursor:default;font-size:11px;fill:#000000;" text-anchor="end" transform="translate(0,0) rotate(-45 89.36545213707822 327)" y="327" opacity="1">Genf</text><text x="109.27454304616522" style="color:#000000;cursor:default;font-size:11px;fill:#000000;" text-anchor="end" transform="translate(0,0) rotate(-45 109.27454304616522 327)" y="327" opacity="1">Lausanne</text><text x="129.18363395525523" style="color:#000000;cursor:default;font-size:11px;fill:#000000;" text-anchor="end" transform="translate(0,0) rotate(-45 129.18363395525523 327)" y="327" opacity="1">Zürich</text><text x="149.0927248643552" style="color:#000000;cursor:default;font-size:11px;fill:#000000;" text-anchor="end" transform="translate(0,0) rotate(-45 149.0927248643552 327)" y="327" opacity="1"><tspan>Frankfurt a. M.</tspan></text><text x="169.00181577344523" style="color:#000000;cursor:default;font-size:11px;fill:#000000;" text-anchor="end" transform="translate(0,0) rotate(-45 169.00181577344523 327)" y="327" opacity="1"><tspan>Freiburg i. Br.</tspan></text><text x="188.91090668253523" style="color:#000000;cursor:default;font-size:11px;fill:#000000;" text-anchor="end" transform="translate(0,0) rotate(-45 188.91090668253523 327)" y="327" opacity="1">Karlsruhe</text><text x="208.81999759162522" style="color:#000000;cursor:default;font-size:11px;fill:#000000;" text-anchor="end" transform="translate(0,0) rotate(-45 208.81999759162522 327)" y="327" opacity="1">München</text><text x="228.72908850071522" style="color:#000000;cursor:default;font-size:11px;fill:#000000;" text-anchor="end" transform="translate(0,0) rotate(-45 228.72908850071522 327)" y="327" opacity="1">Stuttgart</text><text x="248.6381794098052" style="color:#000000;cursor:default;font-size:11px;fill:#000000;" text-anchor="end" transform="translate(0,0) rotate(-45 248.6381794098052 327)" y="327" opacity="1">Lille</text><text x="268.54727031889524" style="color:#000000;cursor:default;font-size:11px;fill:#000000;" text-anchor="end" transform="translate(0,0) rotate(-45 268.54727031889524 327)" y="327" opacity="1">Lyon</text><text x="288.4563612279852" style="color:#000000;cursor:default;font-size:11px;fill:#000000;" text-anchor="end" transform="translate(0,0) rotate(-45 288.4563612279852 327)" y="327" opacity="1">Metz</text><text x="308.36545213707524" style="color:#000000;cursor:default;font-size:11px;fill:#000000;" text-anchor="end" transform="translate(0,0) rotate(-45 308.36545213707524 327)" y="327" opacity="1">Paris</text><text x="328.2745430461652" style="color:#000000;cursor:default;font-size:11px;fill:#000000;" text-anchor="end" transform="translate(0,0) rotate(-45 328.2745430461652 327)" y="327" opacity="1">Strassburg</text><text x="348.18363395525523" style="color:#000000;cursor:default;font-size:11px;fill:#000000;" text-anchor="end" transform="translate(0,0) rotate(-45 348.18363395525523 327)" y="327" opacity="1">Mailand</text><text x="368.0927248643552" style="color:#000000;cursor:default;font-size:11px;fill:#000000;" text-anchor="end" transform="translate(0,0) rotate(-45 368.0927248643552 327)" y="327" opacity="1">Bologna</text><text x="388.00181577344523" style="color:#000000;cursor:default;font-size:11px;fill:#000000;" text-anchor="end" transform="translate(0,0) rotate(-45 388.00181577344523 327)" y="327" opacity="1">Lissabon</text><text x="407.9109066825352" style="color:#000000;cursor:default;font-size:11px;fill:#000000;" text-anchor="end" transform="translate(0,0) rotate(-45 407.9109066825352 327)" y="327" opacity="1">Porto</text><text x="427.8199975916252" style="color:#000000;cursor:default;font-size:11px;fill:#000000;" text-anchor="end" transform="translate(0,0) rotate(-45 427.8199975916252 327)" y="327" opacity="1">Barcelona</text><text x="447.7290885007152" style="color:#000000;cursor:default;font-size:11px;fill:#000000;" text-anchor="end" transform="translate(0,0) rotate(-45 447.7290885007152 327)" y="327" opacity="1">Madrid</text><text x="467.6381794098052" style="color:#000000;cursor:default;font-size:11px;fill:#000000;" text-anchor="end" transform="translate(0,0) rotate(-45 467.6381794098052 327)" y="327" opacity="1">London</text></g><g class="highcharts-axis-labels highcharts-yaxis-labels" data-z-index="7"><text x="22" style="color:#000000;cursor:default;font-size:11px;fill:#000000;" text-anchor="end" transform="translate(0,0)" y="315" opacity="1">0</text><text x="22" style="color:#000000;cursor:default;font-size:11px;fill:#000000;" text-anchor="end" transform="translate(0,0)" y="272" opacity="1">3</text><text x="22" style="color:#000000;cursor:default;font-size:11px;fill:#000000;" text-anchor="end" transform="translate(0,0)" y="228" opacity="1">6</text><text x="22" style="color:#000000;cursor:default;font-size:11px;fill:#000000;" text-anchor="end" transform="translate(0,0)" y="185" opacity="1">9</text><text x="22" style="color:#000000;cursor:default;font-size:11px;fill:#000000;" text-anchor="end" transform="translate(0,0)" y="141" opacity="1">12</text><text x="22" style="color:#000000;cursor:default;font-size:11px;fill:#000000;" text-anchor="end" transform="translate(0,0)" y="98" opacity="1">15</text></g><text x="10" class="highcharts-credits" text-anchor="start" data-z-index="8" style="cursor:default;color:#000000;font-size:10px;fill:#000000;" y="393"><tspan>Quelle: Bundesamt für Statistik (BFS), City Statistics;</tspan><tspan x="10" dy="13">Eurostat.</tspan><tspan x="10" dy="13">Zuletzt geändert: 26.1.2023</tspan></text><g class="highcharts-control-points" data-z-index="99" clip-path="url(#highcharts-rgz2pih-97-)"></g></svg>