<?xml version="1.0" standalone="no"?><!DOCTYPE svg PUBLIC "-//W3C//DTD SVG 1.1//EN" "http://www.w3.org/Graphics/SVG/1.1/DTD/svg11.dtd"><svg xmlns:xlink="http://www.w3.org/1999/xlink" version="1.1" class="highcharts-root" style="font-family:Arial;font-size:12px;" xmlns="http://www.w3.org/2000/svg" viewBox="0 0 485 415"><desc>Created with Highcharts 8.2.0</desc><defs><clipPath id="highcharts-58sjbv8-213-"><rect x="0" y="0" width="403" height="257" fill="none"></rect></clipPath><clipPath id="highcharts-58sjbv8-316-"><rect x="0" y="0" width="403" height="257" fill="none"></rect></clipPath><clipPath id="highcharts-58sjbv8-419-"><rect x="0" y="0" width="403" height="257" fill="none"></rect></clipPath><clipPath id="highcharts-58sjbv8-420-"><rect x="52" y="94" width="403" height="257" fill="none"></rect></clipPath></defs><rect fill="#fbfbfb" class="highcharts-background" x="0" y="0" width="485" height="428" rx="0" ry="0"></rect><rect fill="none" class="highcharts-plot-background" x="52" y="94" width="403" height="257"></rect><g class="highcharts-pane-group" data-z-index="0"></g><g class="highcharts-grid highcharts-xaxis-grid" data-z-index="1"><path fill="none" data-z-index="1" class="highcharts-grid-line" d="M 75.5 94 L 75.5 351" opacity="1"></path><path fill="none" data-z-index="1" class="highcharts-grid-line" d="M 106.5 94 L 106.5 351" opacity="1"></path><path fill="none" data-z-index="1" class="highcharts-grid-line" d="M 137.5 94 L 137.5 351" opacity="1"></path><path fill="none" data-z-index="1" class="highcharts-grid-line" d="M 168.5 94 L 168.5 351" opacity="1"></path><path fill="none" data-z-index="1" class="highcharts-grid-line" d="M 200.5 94 L 200.5 351" opacity="1"></path><path fill="none" data-z-index="1" class="highcharts-grid-line" d="M 231.5 94 L 231.5 351" opacity="1"></path><path fill="none" data-z-index="1" class="highcharts-grid-line" d="M 262.5 94 L 262.5 351" opacity="1"></path><path fill="none" data-z-index="1" class="highcharts-grid-line" d="M 294.5 94 L 294.5 351" opacity="1"></path><path fill="none" data-z-index="1" class="highcharts-grid-line" d="M 325.5 94 L 325.5 351" opacity="1"></path><path fill="none" data-z-index="1" class="highcharts-grid-line" d="M 356.5 94 L 356.5 351" opacity="1"></path><path fill="none" data-z-index="1" class="highcharts-grid-line" d="M 387.5 94 L 387.5 351" opacity="1"></path><path fill="none" data-z-index="1" class="highcharts-grid-line" d="M 419.5 94 L 419.5 351" opacity="1"></path><path fill="none" data-z-index="1" class="highcharts-grid-line" d="M 450.5 94 L 450.5 351" opacity="1"></path></g><g class="highcharts-grid highcharts-yaxis-grid" data-z-index="1"><path fill="none" stroke="#B9CFD7" stroke-width="0.5" data-z-index="1" class="highcharts-grid-line" d="M 52 351.25 L 455 351.25" opacity="1"></path><path fill="none" stroke="#B9CFD7" stroke-width="0.5" data-z-index="1" class="highcharts-grid-line" d="M 52 308.25 L 455 308.25" opacity="1"></path><path fill="none" stroke="#B9CFD7" stroke-width="0.5" data-z-index="1" class="highcharts-grid-line" d="M 52 265.25 L 455 265.25" opacity="1"></path><path fill="none" stroke="#B9CFD7" stroke-width="0.5" data-z-index="1" class="highcharts-grid-line" d="M 52 223.25 L 455 223.25" opacity="1"></path><path fill="none" stroke="#B9CFD7" stroke-width="0.5" data-z-index="1" class="highcharts-grid-line" d="M 52 180.25 L 455 180.25" opacity="1"></path><path fill="none" stroke="#B9CFD7" stroke-width="0.5" data-z-index="1" class="highcharts-grid-line" d="M 52 137.25 L 455 137.25" opacity="1"></path><path fill="none" stroke="#B9CFD7" stroke-width="0.5" data-z-index="1" class="highcharts-grid-line" d="M 52 93.75 L 455 93.75" opacity="1"></path></g><g class="highcharts-grid highcharts-yaxis-grid" data-z-index="1"><path fill="none" stroke="#B9CFD7" stroke-width="0.5" data-z-index="1" class="highcharts-grid-line" d="M 52 351.25 L 455 351.25" opacity="1"></path><path fill="none" stroke="#B9CFD7" stroke-width="0.5" data-z-index="1" class="highcharts-grid-line" d="M 52 308.25 L 455 308.25" opacity="1"></path><path fill="none" stroke="#B9CFD7" stroke-width="0.5" data-z-index="1" class="highcharts-grid-line" d="M 52 265.25 L 455 265.25" opacity="1"></path><path fill="none" stroke="#B9CFD7" stroke-width="0.5" data-z-index="1" class="highcharts-grid-line" d="M 52 223.25 L 455 223.25" opacity="1"></path><path fill="none" stroke="#B9CFD7" stroke-width="0.5" data-z-index="1" class="highcharts-grid-line" d="M 52 180.25 L 455 180.25" opacity="1"></path><path fill="none" stroke="#B9CFD7" stroke-width="0.5" data-z-index="1" class="highcharts-grid-line" d="M 52 137.25 L 455 137.25" opacity="1"></path><path fill="none" stroke="#B9CFD7" stroke-width="0.5" data-z-index="1" class="highcharts-grid-line" d="M 52 93.75 L 455 93.75" opacity="1"></path></g><rect fill="none" class="highcharts-plot-border" data-z-index="1" x="52" y="94" width="403" height="257"></rect><g class="highcharts-axis highcharts-xaxis" data-z-index="2"><path fill="none" class="highcharts-axis-line" stroke="#B9CFD7" stroke-width="0.5" data-z-index="7" d="M 52 351.25 L 455 351.25"></path></g><g class="highcharts-axis highcharts-yaxis" data-z-index="2"><path fill="none" class="highcharts-axis-line" data-z-index="7" d="M 52 94 L 52 351"></path></g><g class="highcharts-axis highcharts-yaxis" data-z-index="2"><path fill="none" class="highcharts-axis-line" data-z-index="7" d="M 455 94 L 455 351"></path></g><g class="highcharts-series-group" data-z-index="3"><g class="highcharts-series highcharts-series-0 highcharts-line-series" data-z-index="0.1" opacity="1" transform="translate(52,94) scale(1 1)" clip-path="url(#highcharts-58sjbv8-316-)"><path fill="none" d="M 3.9509803921568 235.58333333333334 L 7.8628421665696 218.45 L 11.774703940982 227.01666666666665 L 15.686565715395 201.31666666666666 L 19.598427489808 184.18333333333334 L 23.510289264221 192.75 L 27.422151038633 184.18333333333334 L 31.334012813046 197.03333333333333 L 35.245874587459 214.16666666666669 L 39.157736361871 158.48333333333335 L 43.069598136284 158.48333333333335 L 46.981459910697 188.46666666666667 L 50.89332168511 179.9 L 54.805183459522 184.18333333333334 L 58.717045233935 209.88333333333333 L 62.628907008348 209.88333333333333 L 66.540768782761 201.31666666666666 L 70.452630557173 231.3 L 74.364492331586 197.03333333333333 L 78.276354105999 231.3 L 82.188215880412 201.31666666666666 L 86.100077654824 222.73333333333335 L 90.011939429237 188.46666666666667 L 93.92380120365 149.91666666666669 L 97.835662978063 188.46666666666667 L 101.74752475248 197.03333333333333 L 105.65938652689 188.46666666666667 L 109.5712483013 175.61666666666667 L 113.48311007571 158.48333333333335 L 117.39497185013 154.2 L 121.30683362454 132.78333333333333 L 125.21869539895 201.31666666666666 L 129.13055717336 188.46666666666667 L 133.04241894778 158.48333333333335 L 136.95428072219 171.33333333333334 L 140.8661424966 162.76666666666665 L 144.77800427102 205.6 L 148.68986604543 154.2 L 152.60172781984 124.21666666666667 L 156.51358959425 184.18333333333334 L 160.42545136867 167.05 L 164.33731314308 175.61666666666667 L 168.24917491749 154.2 L 172.1610366919 192.75 L 176.07289846632 162.76666666666665 L 179.98476024073 192.75 L 183.89662201514 141.35000000000002 L 187.80848378956 154.2 L 191.72034556397 162.76666666666665 L 195.63220733838 188.46666666666667 L 199.54406911279 205.6 L 203.45593088721 201.31666666666666 L 207.36779266162 184.18333333333334 L 211.27965443603 188.46666666666667 L 215.19151621044 184.18333333333334 L 219.10337798486 171.33333333333334 L 223.01523975927 188.46666666666667 L 226.92710153368 227.01666666666665 L 230.8389633081 179.9 L 234.75082508251 197.03333333333333 L 238.66268685692 214.16666666666669 L 242.57454863133 214.16666666666669 L 246.48641040575 222.73333333333335 L 250.39827218016 192.75 L 254.31013395457 205.6 L 258.22199572898 222.73333333333335 L 262.1338575034 227.01666666666665 L 266.04571927781 218.45 L 269.95758105222 209.88333333333333 L 273.86944282664 218.45 L 277.78130460105 218.45 L 281.69316637546 218.45 L 285.60502814987 231.3 L 289.51688992429 218.45 L 293.4287516987 218.45 L 297.34061347311 218.45 L 301.25247524752 244.15 L 305.16433702194 205.6 L 309.07619879635 222.73333333333335 L 312.98806057076 227.01666666666665 L 316.89992234518 244.15 L 320.81178411959 231.3 L 324.723645894 248.43333333333334 L 328.63550766841 244.15 L 332.54736944283 231.3 L 336.45923121724 239.86666666666667 L 340.37109299165 239.86666666666667 L 344.28295476606 244.15 L 348.19481654048 235.58333333333334 L 352.10667831489 248.43333333333334 L 356.0185400893 248.43333333333334 L 359.93040186372 244.15 L 363.84226363813 239.86666666666667 L 367.75412541254 252.71666666666667 L 371.66598718695 248.43333333333334 L 375.57784896137 248.43333333333334 L 379.48971073578 244.15 L 383.40157251019 235.58333333333334 L 387.3134342846 248.43333333333334 L 391.22529605902 244.15 L 395.13715783343 235.58333333333334 L 399.04901960784 235.58333333333334" class="highcharts-graph" data-z-index="1" stroke="#B00000" stroke-width="2" stroke-linejoin="round" stroke-linecap="round"></path></g><g class="highcharts-markers highcharts-series-0 highcharts-line-series" data-z-index="0.1" opacity="1" transform="translate(52,94) scale(1 1)" clip-path="none"></g><g class="highcharts-series highcharts-series-1 highcharts-line-series" data-z-index="0.1" opacity="1" transform="translate(52,94) scale(1 1)" clip-path="url(#highcharts-58sjbv8-419-)"><path fill="none" d="M 3.9509803921568 248.43333333333334 L 7.8628421665696 232.7277777777778 L 11.774703940982 227.73055555555555 L 15.686565715395 226.58833333333334 L 19.598427489808 213.73833333333334 L 23.510289264221 202.03055555555557 L 27.422151038633 191.03666666666666 L 31.334012813046 193.74944444444444 L 35.245874587459 179.61444444444444 L 39.157736361871 188.03833333333333 L 43.069598136284 185.61111111111111 L 46.981459910697 183.18388888888887 L 50.89332168511 181.04222222222222 L 54.805183459522 177.1872222222222 L 58.717045233935 161.3388888888889 L 62.628907008348 166.62166666666667 L 66.540768782761 196.17666666666668 L 70.452630557173 193.17833333333334 L 74.364492331586 193.4638888888889 L 78.276354105999 197.7472222222222 L 82.188215880412 196.17666666666668 L 86.100077654824 187.7527777777778 L 90.011939429237 150.7733333333333 L 93.92380120365 134.78222222222223 L 97.835662978063 138.92277777777778 L 101.74752475248 127.07222222222222 L 105.65938652689 118.64833333333334 L 109.5712483013 110.93833333333333 L 113.48311007571 112.50888888888889 L 117.39497185013 78.24222222222221 L 121.30683362454 83.09666666666666 L 125.21869539895 80.24111111111111 L 129.13055717336 74.67277777777778 L 133.04241894778 58.82444444444445 L 136.95428072219 52.97055555555556 L 140.8661424966 43.69 L 144.77800427102 41.40555555555554 L 148.68986604543 42.405 L 152.60172781984 37.69333333333333 L 156.51358959425 72.5311111111111 L 160.42545136867 69.53277777777777 L 164.33731314308 67.67666666666665 L 168.24917491749 89.09333333333333 L 172.1610366919 83.525 L 176.07289846632 88.80777777777777 L 179.98476024073 69.81833333333333 L 183.89662201514 84.81 L 187.80848378956 65.82055555555556 L 191.72034556397 68.39055555555555 L 195.63220733838 91.23499999999999 L 199.54406911279 98.51666666666665 L 203.45593088721 92.66277777777776 L 207.36779266162 99.80166666666668 L 211.27965443603 101.3722222222222 L 215.19151621044 92.37722222222223 L 219.10337798486 91.52055555555555 L 223.01523975927 109.65333333333334 L 226.92710153368 118.07722222222222 L 230.8389633081 118.22 L 234.75082508251 117.5061111111111 L 238.66268685692 124.93055555555554 L 242.57454863133 135.0677777777778 L 246.48641040575 128.21444444444444 L 250.39827218016 143.92000000000002 L 254.31013395457 136.20999999999998 L 258.22199572898 146.77555555555557 L 262.1338575034 151.63 L 266.04571927781 150.20222222222222 L 269.95758105222 139.63666666666666 L 273.86944282664 133.64 L 277.78130460105 119.07666666666665 L 281.69316637546 118.36277777777778 L 285.60502814987 136.20999999999998 L 289.51688992429 124.78777777777776 L 293.4287516987 135.21055555555557 L 297.34061347311 135.78166666666667 L 301.25247524752 148.91722222222222 L 305.16433702194 157.62666666666667 L 309.07619879635 164.05166666666668 L 312.98806057076 162.90944444444443 L 316.89992234518 171.4761111111111 L 320.81178411959 158.76888888888888 L 324.723645894 163.195 L 328.63550766841 171.33333333333331 L 332.54736944283 173.76055555555556 L 336.45923121724 176.6161111111111 L 340.37109299165 191.60777777777776 L 344.28295476606 201.60222222222222 L 348.19481654048 213.88111111111112 L 352.10667831489 200.31722222222223 L 356.0185400893 194.89166666666665 L 359.93040186372 189.89444444444445 L 363.84226363813 187.61 L 367.75412541254 193.4638888888889 L 371.66598718695 189.75166666666667 L 375.57784896137 190.03722222222223 L 379.48971073578 205.17166666666668 L 383.40157251019 203.88666666666666 L 387.3134342846 208.17000000000002 L 391.22529605902 198.88944444444445 L 395.13715783343 205.6 L 399.04901960784 209.16944444444445" class="highcharts-graph" data-z-index="1" stroke="#FABD24" stroke-width="2" stroke-linejoin="round" stroke-linecap="round"></path></g><g class="highcharts-markers highcharts-series-1 highcharts-line-series" data-z-index="0.1" opacity="1" transform="translate(52,94) scale(1 1)" clip-path="none"></g></g><text x="10" text-anchor="start" class="highcharts-title" data-z-index="4" style="color:#000000;font-size:14px;font-weight:bold;fill:#000000;" y="21"><tspan>Anzahl Verletzte und Verkehrstote</tspan></text><text x="10" text-anchor="start" class="highcharts-subtitle" data-z-index="4" style="color:#000000;font-size:12px;font-weight:normal;fill:#000000;" y="40"><tspan>Basel-Stadt</tspan></text><text x="10" text-anchor="start" class="highcharts-caption" data-z-index="4" style="color:#666666;fill:#666666;" y="385"></text><g class="highcharts-legend" data-z-index="7" transform="translate(44,56)"><rect fill="none" class="highcharts-legend-box" rx="0" ry="0" x="0" y="0" width="272" height="26" visibility="visible"></rect><g data-z-index="1"><g><g class="highcharts-legend-item highcharts-line-series highcharts-color-undefined highcharts-series-1" data-z-index="1" transform="translate(8,3)"><path fill="none" d="M 0 11 L 16 11" class="highcharts-graph" stroke="#FABD24" stroke-width="2"></path><text x="21" style="color:#333333;cursor:pointer;font-size:12px;font-weight:normal;fill:#333333;" text-anchor="start" data-z-index="2" y="15"><tspan>Verletzte</tspan></text></g><g class="highcharts-legend-item highcharts-line-series highcharts-color-undefined highcharts-series-0" data-z-index="1" transform="translate(95,3)"><path fill="none" d="M 0 11 L 16 11" class="highcharts-graph" stroke="#B00000" stroke-width="2"></path><text x="21" y="15" style="color:#333333;cursor:pointer;font-size:12px;font-weight:normal;fill:#333333;" text-anchor="start" data-z-index="2"><tspan>Verkehrstote (rechte Skala)</tspan></text></g></g></g></g><g class="highcharts-axis-labels highcharts-xaxis-labels" data-z-index="7"><text x="75.510289264221" style="color:#000000;cursor:default;font-size:11px;fill:#000000;" text-anchor="middle" transform="translate(0,0)" y="370" opacity="1">1929</text><text x="106.80518345952" style="color:#000000;cursor:default;font-size:11px;fill:#000000;" text-anchor="middle" transform="translate(0,0)" y="370" opacity="1">1937</text><text x="138.10007765482" style="color:#000000;cursor:default;font-size:11px;fill:#000000;" text-anchor="middle" transform="translate(0,0)" y="370" opacity="1">1945</text><text x="169.39497185013" style="color:#000000;cursor:default;font-size:11px;fill:#000000;" text-anchor="middle" transform="translate(0,0)" y="370" opacity="1">1953</text><text x="200.68986604543" style="color:#000000;cursor:default;font-size:11px;fill:#000000;" text-anchor="middle" transform="translate(0,0)" y="370" opacity="1">1961</text><text x="231.98476024073" style="color:#000000;cursor:default;font-size:11px;fill:#000000;" text-anchor="middle" transform="translate(0,0)" y="370" opacity="1">1969</text><text x="263.27965443603" style="color:#000000;cursor:default;font-size:11px;fill:#000000;" text-anchor="middle" transform="translate(0,0)" y="370" opacity="1">1977</text><text x="294.57454863133" style="color:#000000;cursor:default;font-size:11px;fill:#000000;" text-anchor="middle" transform="translate(0,0)" y="370" opacity="1">1985</text><text x="325.86944282664" style="color:#000000;cursor:default;font-size:11px;fill:#000000;" text-anchor="middle" transform="translate(0,0)" y="370" opacity="1">1993</text><text x="357.16433702194" style="color:#000000;cursor:default;font-size:11px;fill:#000000;" text-anchor="middle" transform="translate(0,0)" y="370" opacity="1">2001</text><text x="388.45923121724" style="color:#000000;cursor:default;font-size:11px;fill:#000000;" text-anchor="middle" transform="translate(0,0)" y="370" opacity="1">2009</text><text x="419.75412541254" style="color:#000000;cursor:default;font-size:11px;fill:#000000;" text-anchor="middle" transform="translate(0,0)" y="370" opacity="1">2017</text><text x="451.04901960784" style="color:#000000;cursor:default;font-size:11px;fill:#000000;" text-anchor="middle" transform="translate(0,0)" y="370" opacity="1">2025</text></g><g class="highcharts-axis-labels highcharts-yaxis-labels" data-z-index="7"><text x="37" style="color:#000000;cursor:default;font-size:11px;fill:#000000;" text-anchor="end" transform="translate(0,0)" y="355" opacity="1">0</text><text x="37" style="color:#000000;cursor:default;font-size:11px;fill:#000000;" text-anchor="end" transform="translate(0,0)" y="312" opacity="1">300</text><text x="37" style="color:#000000;cursor:default;font-size:11px;fill:#000000;" text-anchor="end" transform="translate(0,0)" y="269" opacity="1">600</text><text x="37" style="color:#000000;cursor:default;font-size:11px;fill:#000000;" text-anchor="end" transform="translate(0,0)" y="227" opacity="1">900</text><text x="37" style="color:#000000;cursor:default;font-size:11px;fill:#000000;" text-anchor="end" transform="translate(0,0)" y="184" opacity="1"><tspan>1 200</tspan></text><text x="37" style="color:#000000;cursor:default;font-size:11px;fill:#000000;" text-anchor="end" transform="translate(0,0)" y="141" opacity="1"><tspan>1 500</tspan></text><text x="37" style="color:#000000;cursor:default;font-size:11px;fill:#000000;" text-anchor="end" transform="translate(0,0)" y="98" opacity="1"><tspan>1 800</tspan></text></g><g class="highcharts-axis-labels highcharts-yaxis-labels" data-z-index="7"><text x="470" style="color:#000000;cursor:default;font-size:11px;fill:#000000;" text-anchor="start" transform="translate(0,0)" y="355" opacity="1">0</text><text x="470" style="color:#000000;cursor:default;font-size:11px;fill:#000000;" text-anchor="start" transform="translate(0,0)" y="312" opacity="1">10</text><text x="470" style="color:#000000;cursor:default;font-size:11px;fill:#000000;" text-anchor="start" transform="translate(0,0)" y="269" opacity="1">20</text><text x="470" style="color:#000000;cursor:default;font-size:11px;fill:#000000;" text-anchor="start" transform="translate(0,0)" y="227" opacity="1">30</text><text x="470" style="color:#000000;cursor:default;font-size:11px;fill:#000000;" text-anchor="start" transform="translate(0,0)" y="184" opacity="1">40</text><text x="470" style="color:#000000;cursor:default;font-size:11px;fill:#000000;" text-anchor="start" transform="translate(0,0)" y="141" opacity="1">50</text><text x="470" style="color:#000000;cursor:default;font-size:11px;fill:#000000;" text-anchor="start" transform="translate(0,0)" y="98" opacity="1">60</text></g><text x="10" class="highcharts-credits" text-anchor="start" data-z-index="8" style="cursor:default;color:#000000;font-size:10px;fill:#000000;" y="403"><tspan>Quelle: Kantonspolizei Basel-Stadt, Bundesamt für Strassen ASTRA.</tspan><tspan x="10" dy="13">Zuletzt geändert: 19.3.2026</tspan></text><g class="highcharts-control-points" data-z-index="99" clip-path="url(#highcharts-58sjbv8-420-)"></g></svg>