<?xml version="1.0" standalone="no"?><!DOCTYPE svg PUBLIC "-//W3C//DTD SVG 1.1//EN" "http://www.w3.org/Graphics/SVG/1.1/DTD/svg11.dtd"><svg xmlns:xlink="http://www.w3.org/1999/xlink" version="1.1" class="highcharts-root" style="font-family:Arial;font-size:12px;" xmlns="http://www.w3.org/2000/svg" viewBox="0 0 485 415"><desc>Created with Highcharts 8.2.0</desc><defs><clipPath id="highcharts-77p8s36-67-"><rect x="0" y="0" width="424" height="267" fill="none"></rect></clipPath><clipPath id="highcharts-77p8s36-78-"><rect x="0" y="0" width="424" height="267" fill="none"></rect></clipPath><clipPath id="highcharts-77p8s36-129-"><rect x="41" y="84" width="424" height="267" fill="none"></rect></clipPath></defs><rect fill="#fbfbfb" class="highcharts-background" x="0" y="0" width="485" height="428" rx="0" ry="0"></rect><rect fill="none" class="highcharts-plot-background" x="41" y="84" width="424" height="267"></rect><g class="highcharts-pane-group" data-z-index="0"></g><g class="highcharts-grid highcharts-xaxis-grid" data-z-index="1"><path fill="none" data-z-index="1" class="highcharts-grid-line" d="M 44.5 84 L 44.5 351" opacity="1"></path><path fill="none" data-z-index="1" class="highcharts-grid-line" d="M 90.5 84 L 90.5 351" opacity="1"></path><path fill="none" data-z-index="1" class="highcharts-grid-line" d="M 137.5 84 L 137.5 351" opacity="1"></path><path fill="none" data-z-index="1" class="highcharts-grid-line" d="M 183.5 84 L 183.5 351" opacity="1"></path><path fill="none" data-z-index="1" class="highcharts-grid-line" d="M 229.5 84 L 229.5 351" opacity="1"></path><path fill="none" data-z-index="1" class="highcharts-grid-line" d="M 275.5 84 L 275.5 351" opacity="1"></path><path fill="none" data-z-index="1" class="highcharts-grid-line" d="M 321.5 84 L 321.5 351" opacity="1"></path><path fill="none" data-z-index="1" class="highcharts-grid-line" d="M 367.5 84 L 367.5 351" opacity="1"></path><path fill="none" data-z-index="1" class="highcharts-grid-line" d="M 414.5 84 L 414.5 351" opacity="1"></path><path fill="none" data-z-index="1" class="highcharts-grid-line" d="M 460.5 84 L 460.5 351" opacity="1"></path></g><g class="highcharts-grid highcharts-yaxis-grid" data-z-index="1"><path fill="none" stroke="#B9CFD7" stroke-width="0.5" data-z-index="1" class="highcharts-grid-line" d="M 41 351.25 L 465 351.25" opacity="1"></path><path fill="none" stroke="#B9CFD7" stroke-width="0.5" data-z-index="1" class="highcharts-grid-line" d="M 41 284.25 L 465 284.25" opacity="1"></path><path fill="none" stroke="#B9CFD7" stroke-width="0.5" data-z-index="1" class="highcharts-grid-line" d="M 41 218.25 L 465 218.25" opacity="1"></path><path fill="none" stroke="#B9CFD7" stroke-width="0.5" data-z-index="1" class="highcharts-grid-line" d="M 41 151.25 L 465 151.25" opacity="1"></path><path fill="none" stroke="#B9CFD7" stroke-width="0.5" data-z-index="1" class="highcharts-grid-line" d="M 41 83.75 L 465 83.75" opacity="1"></path></g><rect fill="none" class="highcharts-plot-border" data-z-index="1" x="41" y="84" width="424" height="267"></rect><g class="highcharts-axis highcharts-xaxis" data-z-index="2"><path fill="none" class="highcharts-axis-line" stroke="#B9CFD7" stroke-width="0.5" data-z-index="7" d="M 41 351.25 L 465 351.25"></path></g><g class="highcharts-axis highcharts-yaxis" data-z-index="2"><path fill="none" class="highcharts-axis-line" data-z-index="7" d="M 41 84 L 41 351"></path></g><g class="highcharts-series-group" data-z-index="3"><g class="highcharts-series highcharts-series-0 highcharts-line-series" data-z-index="0.1" opacity="1" transform="translate(41,84) scale(1 1)" clip-path="url(#highcharts-77p8s36-78-)"><path fill="none" d="M 4.1568627450943 30.037500000000023 L 50.344226579518 30.037500000000023 L 96.531590413941 30.037500000000023 L 142.71895424836 23.36250000000001 L 188.90631808279 20.024999999999977" class="highcharts-graph" data-z-index="1" stroke="#3C3C3C" stroke-width="2" stroke-linejoin="round" stroke-linecap="round"></path></g><g class="highcharts-markers highcharts-series-0 highcharts-line-series" data-z-index="0.1" opacity="1" transform="translate(41,84) scale(1 1)" clip-path="none"></g><g class="highcharts-series highcharts-series-1 highcharts-line-series" data-z-index="0.1" opacity="1" transform="translate(41,84) scale(1 1)" clip-path="url(#highcharts-77p8s36-78-)"><path fill="none" d="M 188.90631808279 43.38749999999999 L 235.09368191721 50.0625 L 281.28104575164 56.73750000000001 L 327.46840958606 63.41250000000002 L 373.65577342048 76.76249999999999 L 419.84313725491 90.11250000000001" class="highcharts-graph" data-z-index="1" stroke="#3C3C3C" stroke-width="2" stroke-linejoin="round" stroke-linecap="round"></path></g><g class="highcharts-markers highcharts-series-1 highcharts-line-series" data-z-index="0.1" opacity="1" transform="translate(41,84) scale(1 1)" clip-path="none"></g><g class="highcharts-series highcharts-series-2 highcharts-line-series" data-z-index="0.1" opacity="1" transform="translate(41,84) scale(1 1)" clip-path="url(#highcharts-77p8s36-78-)"><path fill="none" d="M 4.1568627450943 153.525 L 50.344226579518 156.8625 L 96.531590413941 153.525 L 142.71895424836 150.1875 L 188.90631808279 143.5125 L 235.09368191721 143.5125 L 281.28104575164 153.525 L 327.46840958606 156.8625 L 373.65577342048 163.5375 L 419.84313725491 176.8875" class="highcharts-graph" data-z-index="1" stroke="#246370" stroke-width="2" stroke-linejoin="round" stroke-linecap="round"></path></g><g class="highcharts-markers highcharts-series-2 highcharts-line-series" data-z-index="0.1" opacity="1" transform="translate(41,84) scale(1 1)" clip-path="none"></g><g class="highcharts-series highcharts-series-3 highcharts-line-series" data-z-index="0.1" opacity="1" transform="translate(41,84) scale(1 1)" clip-path="url(#highcharts-77p8s36-78-)"><path fill="none" d="M 4.1568627450943 216.9375 L 50.344226579518 216.9375 L 96.531590413941 223.6125 L 142.71895424836 223.6125 L 188.90631808279 213.6 L 235.09368191721 216.9375 L 281.28104575164 203.5875 L 327.46840958606 216.9375 L 373.65577342048 230.2875 L 419.84313725491 210.2625" class="highcharts-graph" data-z-index="1" stroke="#B00000" stroke-width="2" stroke-linejoin="round" stroke-linecap="round"></path></g><g class="highcharts-markers highcharts-series-3 highcharts-line-series" data-z-index="0.1" opacity="1" transform="translate(41,84) scale(1 1)" clip-path="none"></g><g class="highcharts-series highcharts-series-4 highcharts-line-series" data-z-index="0.1" opacity="1" transform="translate(41,84) scale(1 1)" clip-path="url(#highcharts-77p8s36-78-)"><path fill="none" d="M 4.1568627450943 43.38749999999999 L 50.344226579518 46.72500000000002 L 96.531590413941 43.38749999999999 L 142.71895424836 36.71249999999998 L 188.90631808279 33.375" class="highcharts-graph" data-z-index="1" stroke="#FF8028" stroke-width="2" stroke-linejoin="round" stroke-linecap="round"></path></g><g class="highcharts-markers highcharts-series-4 highcharts-line-series" data-z-index="0.1" opacity="1" transform="translate(41,84) scale(1 1)" clip-path="none"></g><g class="highcharts-series highcharts-series-5 highcharts-line-series" data-z-index="0.1" opacity="1" transform="translate(41,84) scale(1 1)" clip-path="url(#highcharts-77p8s36-78-)"><path fill="none" d="M 188.90631808279 56.73750000000001 L 235.09368191721 60.07499999999999 L 281.28104575164 66.75 L 327.46840958606 73.42500000000001 L 373.65577342048 86.77499999999998 L 419.84313725491 100.125" class="highcharts-graph" data-z-index="1" stroke="#FF8028" stroke-width="2" stroke-linejoin="round" stroke-linecap="round"></path></g><g class="highcharts-markers highcharts-series-5 highcharts-line-series" data-z-index="0.1" opacity="1" transform="translate(41,84) scale(1 1)" clip-path="none"></g></g><text x="10" text-anchor="start" class="highcharts-title" data-z-index="4" style="color:#000000;font-size:14px;font-weight:bold;fill:#000000;" y="21"><tspan>Sozialhilfequote nach Gemeinde</tspan></text><text x="10" text-anchor="start" class="highcharts-subtitle" data-z-index="4" style="color:#000000;font-size:12px;font-weight:normal;fill:#000000;" y="40"></text><text x="10" text-anchor="start" class="highcharts-caption" data-z-index="4" style="color:#666666;fill:#666666;" y="385"></text><g class="highcharts-legend" data-z-index="7" transform="translate(33,41)"><rect fill="none" class="highcharts-legend-box" rx="0" ry="0" x="0" y="0" width="390" height="31" visibility="visible"></rect><g data-z-index="1"><g><g class="highcharts-legend-item highcharts-line-series highcharts-color-undefined highcharts-series-0" data-z-index="1" transform="translate(8,3)"><path fill="none" d="M 0 11 L 16 11" class="highcharts-graph" stroke="#3C3C3C" stroke-width="2"></path><text x="21" style="color:#333333;cursor:pointer;font-size:12px;font-weight:normal;fill:#333333;" text-anchor="start" data-z-index="2" y="15"><tspan>Basel</tspan></text></g><g class="highcharts-legend-item highcharts-line-series highcharts-color-undefined highcharts-series-2" data-z-index="1" transform="translate(81,3)"><path fill="none" d="M 0 11 L 16 11" class="highcharts-graph" stroke="#246370" stroke-width="2"></path><text x="21" y="15" style="color:#333333;cursor:pointer;font-size:12px;font-weight:normal;fill:#333333;" text-anchor="start" data-z-index="2"><tspan>Riehen</tspan></text></g><g class="highcharts-legend-item highcharts-line-series highcharts-color-undefined highcharts-series-3" data-z-index="1" transform="translate(162,3)"><path fill="none" d="M 0 11 L 16 11" class="highcharts-graph" stroke="#B00000" stroke-width="2"></path><text x="21" y="15" style="color:#333333;cursor:pointer;font-size:12px;font-weight:normal;fill:#333333;" text-anchor="start" data-z-index="2"><tspan>Bettingen</tspan></text></g><g class="highcharts-legend-item highcharts-line-series highcharts-color-undefined highcharts-series-4" data-z-index="1" transform="translate(255,3)"><path fill="none" d="M 0 11 L 16 11" class="highcharts-graph" stroke="#FF8028" stroke-width="2"></path><text x="21" y="15" style="color:#333333;cursor:pointer;font-size:12px;font-weight:normal;fill:#333333;" text-anchor="start" data-z-index="2"><tspan>Kanton Basel-Stadt</tspan></text></g></g></g></g><g class="highcharts-axis-labels highcharts-xaxis-labels" data-z-index="7"><text x="45.156862745094" style="color:#000000;cursor:default;font-size:11px;fill:#000000;" text-anchor="middle" transform="translate(0,0)" y="370" opacity="1">2013</text><text x="91.344226579518" style="color:#000000;cursor:default;font-size:11px;fill:#000000;" text-anchor="middle" transform="translate(0,0)" y="370" opacity="1">2014</text><text x="137.53159041394" style="color:#000000;cursor:default;font-size:11px;fill:#000000;" text-anchor="middle" transform="translate(0,0)" y="370" opacity="1">2015</text><text x="183.71895424836" style="color:#000000;cursor:default;font-size:11px;fill:#000000;" text-anchor="middle" transform="translate(0,0)" y="370" opacity="1">2016</text><text x="229.90631808279" style="color:#000000;cursor:default;font-size:11px;fill:#000000;" text-anchor="middle" transform="translate(0,0)" y="370" opacity="1">2017</text><text x="276.09368191721" style="color:#000000;cursor:default;font-size:11px;fill:#000000;" text-anchor="middle" transform="translate(0,0)" y="370" opacity="1">2018</text><text x="322.28104575164" style="color:#000000;cursor:default;font-size:11px;fill:#000000;" text-anchor="middle" transform="translate(0,0)" y="370" opacity="1">2019</text><text x="368.46840958606" style="color:#000000;cursor:default;font-size:11px;fill:#000000;" text-anchor="middle" transform="translate(0,0)" y="370" opacity="1">2020</text><text x="414.65577342048" style="color:#000000;cursor:default;font-size:11px;fill:#000000;" text-anchor="middle" transform="translate(0,0)" y="370" opacity="1">2021</text><text x="460.84313725491" style="color:#000000;cursor:default;font-size:11px;fill:#000000;" text-anchor="middle" transform="translate(0,0)" y="370" opacity="1">2022</text></g><g class="highcharts-axis-labels highcharts-yaxis-labels" data-z-index="7"><text x="26" style="color:#000000;cursor:default;font-size:11px;fill:#000000;" text-anchor="end" transform="translate(0,0)" y="355" opacity="1">0%</text><text x="26" style="color:#000000;cursor:default;font-size:11px;fill:#000000;" text-anchor="end" transform="translate(0,0)" y="288" opacity="1">2%</text><text x="26" style="color:#000000;cursor:default;font-size:11px;fill:#000000;" text-anchor="end" transform="translate(0,0)" y="222" opacity="1">4%</text><text x="26" style="color:#000000;cursor:default;font-size:11px;fill:#000000;" text-anchor="end" transform="translate(0,0)" y="155" opacity="1">6%</text><text x="26" style="color:#000000;cursor:default;font-size:11px;fill:#000000;" text-anchor="end" transform="translate(0,0)" y="88" opacity="1">8%</text></g><text x="10" class="highcharts-credits" text-anchor="start" data-z-index="8" style="cursor:default;color:#000000;font-size:10px;fill:#000000;" y="403"><tspan>Quelle: Statistisches Amt Basel-Stadt, Sozialhilfestatistik.</tspan><tspan x="10" dy="13">Zuletzt geändert: 25.5.2023</tspan></text><g class="highcharts-control-points" data-z-index="99" clip-path="url(#highcharts-77p8s36-129-)"></g></svg>