<?xml version="1.0" standalone="no"?><!DOCTYPE svg PUBLIC "-//W3C//DTD SVG 1.1//EN" "http://www.w3.org/Graphics/SVG/1.1/DTD/svg11.dtd"><svg xmlns:xlink="http://www.w3.org/1999/xlink" version="1.1" class="highcharts-root" style="font-family:Arial;font-size:12px;" xmlns="http://www.w3.org/2000/svg" viewBox="0 0 485 415"><desc>Created with Highcharts 8.2.0</desc><defs><clipPath id="highcharts-rk25mow-126-"><rect x="0" y="0" width="411" height="219" fill="none"></rect></clipPath><clipPath id="highcharts-rk25mow-144-"><rect x="0" y="0" width="411" height="219" fill="none"></rect></clipPath><clipPath id="highcharts-rk25mow-247-"><rect x="64" y="124" width="411" height="219" fill="none"></rect></clipPath></defs><rect fill="#fbfbfb" class="highcharts-background" x="0" y="0" width="485" height="428" rx="0" ry="0"></rect><rect fill="none" class="highcharts-plot-background" x="64" y="124" width="411" height="219"></rect><g class="highcharts-pane-group" data-z-index="0"></g><g class="highcharts-plot-lines-0" data-z-index="0"><path fill="none" class="highcharts-plot-line " stroke="#B9CFD7" stroke-width="2" d="M 64 288 L 475 288"></path></g><g class="highcharts-grid highcharts-xaxis-grid" data-z-index="1"><path fill="none" data-z-index="1" class="highcharts-grid-line" d="M 87.5 124 L 87.5 343" opacity="1"></path><path fill="none" data-z-index="1" class="highcharts-grid-line" d="M 111.5 124 L 111.5 343" opacity="1"></path><path fill="none" data-z-index="1" class="highcharts-grid-line" d="M 136.5 124 L 136.5 343" opacity="1"></path><path fill="none" data-z-index="1" class="highcharts-grid-line" d="M 160.5 124 L 160.5 343" opacity="1"></path><path fill="none" data-z-index="1" class="highcharts-grid-line" d="M 184.5 124 L 184.5 343" opacity="1"></path><path fill="none" data-z-index="1" class="highcharts-grid-line" d="M 208.5 124 L 208.5 343" opacity="1"></path><path fill="none" data-z-index="1" class="highcharts-grid-line" d="M 232.5 124 L 232.5 343" opacity="1"></path><path fill="none" data-z-index="1" class="highcharts-grid-line" d="M 256.5 124 L 256.5 343" opacity="1"></path><path fill="none" data-z-index="1" class="highcharts-grid-line" d="M 281.5 124 L 281.5 343" opacity="1"></path><path fill="none" data-z-index="1" class="highcharts-grid-line" d="M 305.5 124 L 305.5 343" opacity="1"></path><path fill="none" data-z-index="1" class="highcharts-grid-line" d="M 329.5 124 L 329.5 343" opacity="1"></path><path fill="none" data-z-index="1" class="highcharts-grid-line" d="M 353.5 124 L 353.5 343" opacity="1"></path><path fill="none" data-z-index="1" class="highcharts-grid-line" d="M 377.5 124 L 377.5 343" opacity="1"></path><path fill="none" data-z-index="1" class="highcharts-grid-line" d="M 401.5 124 L 401.5 343" opacity="1"></path><path fill="none" data-z-index="1" class="highcharts-grid-line" d="M 426.5 124 L 426.5 343" opacity="1"></path><path fill="none" data-z-index="1" class="highcharts-grid-line" d="M 450.5 124 L 450.5 343" opacity="1"></path><path fill="none" data-z-index="1" class="highcharts-grid-line" d="M 474.5 124 L 474.5 343" opacity="1"></path><path fill="none" data-z-index="1" class="highcharts-grid-line" d="M 63.5 124 L 63.5 343" opacity="1"></path></g><g class="highcharts-grid highcharts-yaxis-grid" data-z-index="1"><path fill="none" stroke="#B9CFD7" stroke-width="0.5" data-z-index="1" class="highcharts-grid-line" d="M 64 343.25 L 475 343.25" opacity="1"></path><path fill="none" stroke="#B9CFD7" stroke-width="0.5" data-z-index="1" class="highcharts-grid-line" d="M 64 316.25 L 475 316.25" opacity="1"></path><path fill="none" stroke="#B9CFD7" stroke-width="0.5" data-z-index="1" class="highcharts-grid-line" d="M 64 288.25 L 475 288.25" opacity="1"></path><path fill="none" stroke="#B9CFD7" stroke-width="0.5" data-z-index="1" class="highcharts-grid-line" d="M 64 261.25 L 475 261.25" opacity="1"></path><path fill="none" stroke="#B9CFD7" stroke-width="0.5" data-z-index="1" class="highcharts-grid-line" d="M 64 234.25 L 475 234.25" opacity="1"></path><path fill="none" stroke="#B9CFD7" stroke-width="0.5" data-z-index="1" class="highcharts-grid-line" d="M 64 206.25 L 475 206.25" opacity="1"></path><path fill="none" stroke="#B9CFD7" stroke-width="0.5" data-z-index="1" class="highcharts-grid-line" d="M 64 179.25 L 475 179.25" opacity="1"></path><path fill="none" stroke="#B9CFD7" stroke-width="0.5" data-z-index="1" class="highcharts-grid-line" d="M 64 151.25 L 475 151.25" opacity="1"></path><path fill="none" stroke="#B9CFD7" stroke-width="0.5" data-z-index="1" class="highcharts-grid-line" d="M 64 123.75 L 475 123.75" opacity="1"></path></g><rect fill="none" class="highcharts-plot-border" data-z-index="1" x="64" y="124" width="411" height="219"></rect><g class="highcharts-axis highcharts-xaxis" data-z-index="2"><path fill="none" class="highcharts-axis-line" stroke="#B9CFD7" stroke-width="0.5" data-z-index="7" d="M 64 343.25 L 475 343.25"></path></g><g class="highcharts-axis highcharts-yaxis" data-z-index="2"><path fill="none" class="highcharts-axis-line" data-z-index="7" d="M 64 124 L 64 343"></path></g><g class="highcharts-series-group" data-z-index="3"><g class="highcharts-series highcharts-series-0 highcharts-column-series" data-z-index="0.1" opacity="1" transform="translate(64,124) scale(1 1)" clip-path="url(#highcharts-rk25mow-144-)"><rect x="5.5" y="184.5" width="12" height="1" fill="#344549" stroke="#ffffff" stroke-width="1e-7" opacity="1" class="highcharts-point highcharts-negative"></rect><rect x="29.5" y="188.5" width="12" height="0" fill="#344549" stroke="#ffffff" stroke-width="1e-7" opacity="1" class="highcharts-point highcharts-negative"></rect><rect x="78.5" y="195.5" width="12" height="0" fill="#344549" stroke="#ffffff" stroke-width="1e-7" opacity="1" class="highcharts-point highcharts-negative"></rect><rect x="102.5" y="194.5" width="12" height="1" fill="#344549" stroke="#ffffff" stroke-width="1e-7" opacity="1" class="highcharts-point highcharts-negative"></rect><rect x="126.5" y="196.5" width="12" height="0" fill="#344549" stroke="#ffffff" stroke-width="1e-7" opacity="1" class="highcharts-point highcharts-negative"></rect><rect x="150.5" y="197.5" width="12" height="0" fill="#344549" stroke="#ffffff" stroke-width="1e-7" opacity="1" class="highcharts-point highcharts-negative"></rect><rect x="175.5" y="198.5" width="12" height="1" fill="#344549" stroke="#ffffff" stroke-width="1e-7" opacity="1" class="highcharts-point highcharts-negative"></rect><rect x="199.5" y="197.5" width="12" height="1" fill="#344549" stroke="#ffffff" stroke-width="1e-7" opacity="1" class="highcharts-point highcharts-negative"></rect><rect x="223.5" y="197.5" width="12" height="1" fill="#344549" stroke="#ffffff" stroke-width="1e-7" opacity="1" class="highcharts-point highcharts-negative"></rect><rect x="247.5" y="200.5" width="12" height="1" fill="#344549" stroke="#ffffff" stroke-width="1e-7" opacity="1" class="highcharts-point highcharts-negative"></rect><rect x="271.5" y="198.5" width="12" height="0" fill="#344549" stroke="#ffffff" stroke-width="1e-7" opacity="1" class="highcharts-point highcharts-negative"></rect><rect x="295.5" y="196.5" width="12" height="1" fill="#344549" stroke="#ffffff" stroke-width="1e-7" opacity="1" class="highcharts-point highcharts-negative"></rect><rect x="320.5" y="193.5" width="12" height="1" fill="#344549" stroke="#ffffff" stroke-width="1e-7" opacity="1" class="highcharts-point highcharts-negative"></rect><rect x="344.5" y="192.5" width="12" height="1" fill="#344549" stroke="#ffffff" stroke-width="1e-7" opacity="1" class="highcharts-point highcharts-negative"></rect><rect x="368.5" y="197.5" width="12" height="1" fill="#344549" stroke="#ffffff" stroke-width="1e-7" opacity="1" class="highcharts-point highcharts-negative"></rect><rect x="392.5" y="198.5" width="12" height="1" fill="#344549" stroke="#ffffff" stroke-width="1e-7" opacity="1" class="highcharts-point highcharts-negative"></rect></g><g class="highcharts-markers highcharts-series-0 highcharts-column-series" data-z-index="0.1" opacity="1" transform="translate(64,124) scale(1 1)" clip-path="none"></g><g class="highcharts-series highcharts-series-1 highcharts-column-series" data-z-index="0.1" opacity="1" transform="translate(64,124) scale(1 1)" clip-path="url(#highcharts-rk25mow-144-)"><rect x="5.5" y="182.5" width="12" height="2" fill="#689199" stroke="#ffffff" stroke-width="1e-7" opacity="1" class="highcharts-point highcharts-negative"></rect><rect x="29.5" y="184.5" width="12" height="4" fill="#689199" stroke="#ffffff" stroke-width="1e-7" opacity="1" class="highcharts-point highcharts-negative"></rect><rect x="78.5" y="188.5" width="12" height="7" fill="#689199" stroke="#ffffff" stroke-width="1e-7" opacity="1" class="highcharts-point highcharts-negative"></rect><rect x="102.5" y="187.5" width="12" height="7" fill="#689199" stroke="#ffffff" stroke-width="1e-7" opacity="1" class="highcharts-point highcharts-negative"></rect><rect x="126.5" y="188.5" width="12" height="8" fill="#689199" stroke="#ffffff" stroke-width="1e-7" opacity="1" class="highcharts-point highcharts-negative"></rect><rect x="150.5" y="189.5" width="12" height="8" fill="#689199" stroke="#ffffff" stroke-width="1e-7" opacity="1" class="highcharts-point highcharts-negative"></rect><rect x="175.5" y="191.5" width="12" height="7" fill="#689199" stroke="#ffffff" stroke-width="1e-7" opacity="1" class="highcharts-point highcharts-negative"></rect><rect x="199.5" y="189.5" width="12" height="8" fill="#689199" stroke="#ffffff" stroke-width="1e-7" opacity="1" class="highcharts-point highcharts-negative"></rect><rect x="223.5" y="189.5" width="12" height="8" fill="#689199" stroke="#ffffff" stroke-width="1e-7" opacity="1" class="highcharts-point highcharts-negative"></rect><rect x="247.5" y="191.5" width="12" height="9" fill="#689199" stroke="#ffffff" stroke-width="1e-7" opacity="1" class="highcharts-point highcharts-negative"></rect><rect x="271.5" y="191.5" width="12" height="7" fill="#689199" stroke="#ffffff" stroke-width="1e-7" opacity="1" class="highcharts-point highcharts-negative"></rect><rect x="295.5" y="189.5" width="12" height="7" fill="#689199" stroke="#ffffff" stroke-width="1e-7" opacity="1" class="highcharts-point highcharts-negative"></rect><rect x="320.5" y="187.5" width="12" height="6" fill="#689199" stroke="#ffffff" stroke-width="1e-7" opacity="1" class="highcharts-point highcharts-negative"></rect><rect x="344.5" y="187.5" width="12" height="5" fill="#689199" stroke="#ffffff" stroke-width="1e-7" opacity="1" class="highcharts-point highcharts-negative"></rect><rect x="368.5" y="189.5" width="12" height="8" fill="#689199" stroke="#ffffff" stroke-width="1e-7" opacity="1" class="highcharts-point highcharts-negative"></rect><rect x="392.5" y="191.5" width="12" height="7" fill="#689199" stroke="#ffffff" stroke-width="1e-7" opacity="1" class="highcharts-point highcharts-negative"></rect></g><g class="highcharts-markers highcharts-series-1 highcharts-column-series" data-z-index="0.1" opacity="1" transform="translate(64,124) scale(1 1)" clip-path="none"></g><g class="highcharts-series highcharts-series-2 highcharts-column-series" data-z-index="0.1" opacity="1" transform="translate(64,124) scale(1 1)" clip-path="url(#highcharts-rk25mow-144-)"><rect x="5.5" y="164.5" width="12" height="18" fill="#A8C3CA" stroke="#ffffff" stroke-width="1e-7" opacity="1" class="highcharts-point highcharts-negative"></rect><rect x="29.5" y="164.5" width="12" height="20" fill="#A8C3CA" stroke="#ffffff" stroke-width="1e-7" opacity="1" class="highcharts-point highcharts-negative"></rect><rect x="78.5" y="164.5" width="12" height="24" fill="#A8C3CA" stroke="#ffffff" stroke-width="1e-7" opacity="1" class="highcharts-point highcharts-negative"></rect><rect x="102.5" y="164.5" width="12" height="23" fill="#A8C3CA" stroke="#ffffff" stroke-width="1e-7" opacity="1" class="highcharts-point highcharts-negative"></rect><rect x="126.5" y="164.5" width="12" height="24" fill="#A8C3CA" stroke="#ffffff" stroke-width="1e-7" opacity="1" class="highcharts-point highcharts-negative"></rect><rect x="150.5" y="164.5" width="12" height="25" fill="#A8C3CA" stroke="#ffffff" stroke-width="1e-7" opacity="1" class="highcharts-point highcharts-negative"></rect><rect x="175.5" y="164.5" width="12" height="27" fill="#A8C3CA" stroke="#ffffff" stroke-width="1e-7" opacity="1" class="highcharts-point highcharts-negative"></rect><rect x="199.5" y="164.5" width="12" height="25" fill="#A8C3CA" stroke="#ffffff" stroke-width="1e-7" opacity="1" class="highcharts-point highcharts-negative"></rect><rect x="223.5" y="164.5" width="12" height="25" fill="#A8C3CA" stroke="#ffffff" stroke-width="1e-7" opacity="1" class="highcharts-point highcharts-negative"></rect><rect x="247.5" y="164.5" width="12" height="27" fill="#A8C3CA" stroke="#ffffff" stroke-width="1e-7" opacity="1" class="highcharts-point highcharts-negative"></rect><rect x="271.5" y="164.5" width="12" height="27" fill="#A8C3CA" stroke="#ffffff" stroke-width="1e-7" opacity="1" class="highcharts-point highcharts-negative"></rect><rect x="295.5" y="164.5" width="12" height="25" fill="#A8C3CA" stroke="#ffffff" stroke-width="1e-7" opacity="1" class="highcharts-point highcharts-negative"></rect><rect x="320.5" y="164.5" width="12" height="23" fill="#A8C3CA" stroke="#ffffff" stroke-width="1e-7" opacity="1" class="highcharts-point highcharts-negative"></rect><rect x="344.5" y="164.5" width="12" height="23" fill="#A8C3CA" stroke="#ffffff" stroke-width="1e-7" opacity="1" class="highcharts-point highcharts-negative"></rect><rect x="368.5" y="164.5" width="12" height="25" fill="#A8C3CA" stroke="#ffffff" stroke-width="1e-7" opacity="1" class="highcharts-point highcharts-negative"></rect><rect x="392.5" y="164.5" width="12" height="27" fill="#A8C3CA" stroke="#ffffff" stroke-width="1e-7" opacity="1" class="highcharts-point highcharts-negative"></rect></g><g class="highcharts-markers highcharts-series-2 highcharts-column-series" data-z-index="0.1" opacity="1" transform="translate(64,124) scale(1 1)" clip-path="none"></g><g class="highcharts-series highcharts-series-3 highcharts-column-series" data-z-index="0.1" opacity="1" transform="translate(64,124) scale(1 1)" clip-path="url(#highcharts-rk25mow-144-)"><rect x="5.5" y="46.5" width="12" height="40" fill="#0A3B19" stroke="#ffffff" stroke-width="1e-7" opacity="1" class="highcharts-point"></rect><rect x="29.5" y="49.5" width="12" height="41" fill="#0A3B19" stroke="#ffffff" stroke-width="1e-7" opacity="1" class="highcharts-point"></rect><rect x="78.5" y="39.5" width="12" height="42" fill="#0A3B19" stroke="#ffffff" stroke-width="1e-7" opacity="1" class="highcharts-point"></rect><rect x="102.5" y="34.5" width="12" height="44" fill="#0A3B19" stroke="#ffffff" stroke-width="1e-7" opacity="1" class="highcharts-point"></rect><rect x="126.5" y="33.5" width="12" height="45" fill="#0A3B19" stroke="#ffffff" stroke-width="1e-7" opacity="1" class="highcharts-point"></rect><rect x="150.5" y="32.5" width="12" height="46" fill="#0A3B19" stroke="#ffffff" stroke-width="1e-7" opacity="1" class="highcharts-point"></rect><rect x="175.5" y="28.5" width="12" height="48" fill="#0A3B19" stroke="#ffffff" stroke-width="1e-7" opacity="1" class="highcharts-point"></rect><rect x="199.5" y="28.5" width="12" height="48" fill="#0A3B19" stroke="#ffffff" stroke-width="1e-7" opacity="1" class="highcharts-point"></rect><rect x="223.5" y="25.5" width="12" height="49" fill="#0A3B19" stroke="#ffffff" stroke-width="1e-7" opacity="1" class="highcharts-point"></rect><rect x="247.5" y="25.5" width="12" height="49" fill="#0A3B19" stroke="#ffffff" stroke-width="1e-7" opacity="1" class="highcharts-point"></rect><rect x="271.5" y="37.5" width="12" height="47" fill="#0A3B19" stroke="#ffffff" stroke-width="1e-7" opacity="1" class="highcharts-point"></rect><rect x="295.5" y="39.5" width="12" height="48" fill="#0A3B19" stroke="#ffffff" stroke-width="1e-7" opacity="1" class="highcharts-point"></rect><rect x="320.5" y="43.5" width="12" height="47" fill="#0A3B19" stroke="#ffffff" stroke-width="1e-7" opacity="1" class="highcharts-point"></rect><rect x="344.5" y="46.5" width="12" height="47" fill="#0A3B19" stroke="#ffffff" stroke-width="1e-7" opacity="1" class="highcharts-point"></rect><rect x="368.5" y="39.5" width="12" height="49" fill="#0A3B19" stroke="#ffffff" stroke-width="1e-7" opacity="1" class="highcharts-point"></rect><rect x="392.5" y="37.5" width="12" height="48" fill="#0A3B19" stroke="#ffffff" stroke-width="1e-7" opacity="1" class="highcharts-point"></rect></g><g class="highcharts-markers highcharts-series-3 highcharts-column-series" data-z-index="0.1" opacity="1" transform="translate(64,124) scale(1 1)" clip-path="none"></g><g class="highcharts-series highcharts-series-4 highcharts-column-series" data-z-index="0.1" opacity="1" transform="translate(64,124) scale(1 1)" clip-path="url(#highcharts-rk25mow-144-)"><rect x="5.5" y="86.5" width="12" height="8" fill="#007A2F" stroke="#ffffff" stroke-width="1e-7" opacity="1" class="highcharts-point"></rect><rect x="29.5" y="90.5" width="12" height="10" fill="#007A2F" stroke="#ffffff" stroke-width="1e-7" opacity="1" class="highcharts-point"></rect><rect x="78.5" y="81.5" width="12" height="15" fill="#007A2F" stroke="#ffffff" stroke-width="1e-7" opacity="1" class="highcharts-point"></rect><rect x="102.5" y="78.5" width="12" height="16" fill="#007A2F" stroke="#ffffff" stroke-width="1e-7" opacity="1" class="highcharts-point"></rect><rect x="126.5" y="78.5" width="12" height="14" fill="#007A2F" stroke="#ffffff" stroke-width="1e-7" opacity="1" class="highcharts-point"></rect><rect x="150.5" y="78.5" width="12" height="15" fill="#007A2F" stroke="#ffffff" stroke-width="1e-7" opacity="1" class="highcharts-point"></rect><rect x="175.5" y="76.5" width="12" height="15" fill="#007A2F" stroke="#ffffff" stroke-width="1e-7" opacity="1" class="highcharts-point"></rect><rect x="199.5" y="76.5" width="12" height="16" fill="#007A2F" stroke="#ffffff" stroke-width="1e-7" opacity="1" class="highcharts-point"></rect><rect x="223.5" y="74.5" width="12" height="18" fill="#007A2F" stroke="#ffffff" stroke-width="1e-7" opacity="1" class="highcharts-point"></rect><rect x="247.5" y="74.5" width="12" height="17" fill="#007A2F" stroke="#ffffff" stroke-width="1e-7" opacity="1" class="highcharts-point"></rect><rect x="271.5" y="84.5" width="12" height="13" fill="#007A2F" stroke="#ffffff" stroke-width="1e-7" opacity="1" class="highcharts-point"></rect><rect x="295.5" y="87.5" width="12" height="13" fill="#007A2F" stroke="#ffffff" stroke-width="1e-7" opacity="1" class="highcharts-point"></rect><rect x="320.5" y="90.5" width="12" height="13" fill="#007A2F" stroke="#ffffff" stroke-width="1e-7" opacity="1" class="highcharts-point"></rect><rect x="344.5" y="93.5" width="12" height="12" fill="#007A2F" stroke="#ffffff" stroke-width="1e-7" opacity="1" class="highcharts-point"></rect><rect x="368.5" y="88.5" width="12" height="13" fill="#007A2F" stroke="#ffffff" stroke-width="1e-7" opacity="1" class="highcharts-point"></rect><rect x="392.5" y="85.5" width="12" height="14" fill="#007A2F" stroke="#ffffff" stroke-width="1e-7" opacity="1" class="highcharts-point"></rect></g><g class="highcharts-markers highcharts-series-4 highcharts-column-series" data-z-index="0.1" opacity="1" transform="translate(64,124) scale(1 1)" clip-path="none"></g><g class="highcharts-series highcharts-series-5 highcharts-column-series" data-z-index="0.1" opacity="1" transform="translate(64,124) scale(1 1)" clip-path="url(#highcharts-rk25mow-144-)"><rect x="5.5" y="94.5" width="12" height="70" fill="#68AB2B" stroke="#ffffff" stroke-width="1e-7" opacity="1" class="highcharts-point"></rect><rect x="29.5" y="100.5" width="12" height="64" fill="#68AB2B" stroke="#ffffff" stroke-width="1e-7" opacity="1" class="highcharts-point"></rect><rect x="78.5" y="96.5" width="12" height="68" fill="#68AB2B" stroke="#ffffff" stroke-width="1e-7" opacity="1" class="highcharts-point"></rect><rect x="102.5" y="94.5" width="12" height="70" fill="#68AB2B" stroke="#ffffff" stroke-width="1e-7" opacity="1" class="highcharts-point"></rect><rect x="126.5" y="92.5" width="12" height="72" fill="#68AB2B" stroke="#ffffff" stroke-width="1e-7" opacity="1" class="highcharts-point"></rect><rect x="150.5" y="93.5" width="12" height="71" fill="#68AB2B" stroke="#ffffff" stroke-width="1e-7" opacity="1" class="highcharts-point"></rect><rect x="175.5" y="91.5" width="12" height="73" fill="#68AB2B" stroke="#ffffff" stroke-width="1e-7" opacity="1" class="highcharts-point"></rect><rect x="199.5" y="92.5" width="12" height="72" fill="#68AB2B" stroke="#ffffff" stroke-width="1e-7" opacity="1" class="highcharts-point"></rect><rect x="223.5" y="92.5" width="12" height="72" fill="#68AB2B" stroke="#ffffff" stroke-width="1e-7" opacity="1" class="highcharts-point"></rect><rect x="247.5" y="91.5" width="12" height="73" fill="#68AB2B" stroke="#ffffff" stroke-width="1e-7" opacity="1" class="highcharts-point"></rect><rect x="271.5" y="97.5" width="12" height="67" fill="#68AB2B" stroke="#ffffff" stroke-width="1e-7" opacity="1" class="highcharts-point"></rect><rect x="295.5" y="100.5" width="12" height="64" fill="#68AB2B" stroke="#ffffff" stroke-width="1e-7" opacity="1" class="highcharts-point"></rect><rect x="320.5" y="103.5" width="12" height="61" fill="#68AB2B" stroke="#ffffff" stroke-width="1e-7" opacity="1" class="highcharts-point"></rect><rect x="344.5" y="105.5" width="12" height="59" fill="#68AB2B" stroke="#ffffff" stroke-width="1e-7" opacity="1" class="highcharts-point"></rect><rect x="368.5" y="101.5" width="12" height="63" fill="#68AB2B" stroke="#ffffff" stroke-width="1e-7" opacity="1" class="highcharts-point"></rect><rect x="392.5" y="99.5" width="12" height="65" fill="#68AB2B" stroke="#ffffff" stroke-width="1e-7" opacity="1" class="highcharts-point"></rect></g><g class="highcharts-markers highcharts-series-5 highcharts-column-series" data-z-index="0.1" opacity="1" transform="translate(64,124) scale(1 1)" clip-path="none"></g><g class="highcharts-series highcharts-series-6 highcharts-line-series" data-z-index="0.1" opacity="1" transform="translate(64,124) scale(1 1)" clip-path="url(#highcharts-rk25mow-144-)"><path fill="none" d="M 12.088235294118 66.942825 L 36.264705882353 72.64640625000001 M 84.617647058824 70.38933750000001 L 108.79411764706 64.719975 L 132.97058823529 64.9088625 L 157.14705882353 65.0347875 L 181.32352941176 62.8119375 L 205.5 61.7771625 L 229.67647058824 58.664625 L 253.85294117647 61.6704 L 278.02941176471 70.8547125 L 302.20588235294 71.78820000000002 L 326.38235294118 73.36226250000001 L 350.55882352941 74.83914375 L 374.73529411765 72.70936875000001 L 398.91176470588 71.29955625" class="highcharts-graph" data-z-index="1" stroke="#000000" stroke-width="2" stroke-linejoin="round" stroke-linecap="round"></path></g><g class="highcharts-markers highcharts-series-6 highcharts-line-series" data-z-index="0.1" opacity="1" transform="translate(64,124) scale(1 1)" clip-path="none"></g></g><text x="10" text-anchor="start" class="highcharts-title" data-z-index="4" style="color:#000000;font-size:14px;font-weight:bold;fill:#000000;" y="21"><tspan>Grenzgänger und Pendler aus und nach Basel-Stadt</tspan></text><text x="10" text-anchor="start" class="highcharts-subtitle" data-z-index="4" style="color:#000000;font-size:12px;font-weight:normal;fill:#000000;" y="40"></text><text x="10" text-anchor="start" class="highcharts-caption" data-z-index="4" style="color:#666666;fill:#666666;" y="390"></text><g class="highcharts-legend" data-z-index="7" transform="translate(56,41)"><rect fill="none" class="highcharts-legend-box" rx="0" ry="0" x="0" y="0" width="458" height="71" visibility="visible"></rect><g data-z-index="1"><g><g class="highcharts-legend-item highcharts-column-series highcharts-color-undefined highcharts-series-3" data-z-index="1" transform="translate(8,3)"><text x="21" style="color:#333333;cursor:pointer;font-size:12px;font-weight:normal;fill:#333333;" text-anchor="start" data-z-index="2" y="15"><tspan>Zupendler aus dem Ausland</tspan></text><rect x="2" y="4" width="12" height="12" fill="#0A3B19" class="highcharts-point" data-z-index="3"></rect></g><g class="highcharts-legend-item highcharts-column-series highcharts-color-undefined highcharts-series-2" data-z-index="1" transform="translate(218,3)"><text x="21" y="15" style="color:#333333;cursor:pointer;font-size:12px;font-weight:normal;fill:#333333;" text-anchor="start" data-z-index="2"><tspan>Wegpendler in die NWCH</tspan></text><rect x="2" y="4" width="12" height="12" fill="#A8C3CA" class="highcharts-point" data-z-index="3"></rect></g><g class="highcharts-legend-item highcharts-column-series highcharts-color-undefined highcharts-series-4" data-z-index="1" transform="translate(8,18)"><text x="21" y="15" style="color:#333333;cursor:pointer;font-size:12px;font-weight:normal;fill:#333333;" text-anchor="start" data-z-index="2"><tspan>Zupendler aus der übrigen CH</tspan></text><rect x="2" y="4" width="12" height="12" fill="#007A2F" class="highcharts-point" data-z-index="3"></rect></g><g class="highcharts-legend-item highcharts-column-series highcharts-color-undefined highcharts-series-1" data-z-index="1" transform="translate(218,18)"><text x="21" y="15" style="color:#333333;cursor:pointer;font-size:12px;font-weight:normal;fill:#333333;" text-anchor="start" data-z-index="2"><tspan>Wegpendler in die übrige CH</tspan></text><rect x="2" y="4" width="12" height="12" fill="#689199" class="highcharts-point" data-z-index="3"></rect></g><g class="highcharts-legend-item highcharts-column-series highcharts-color-undefined highcharts-series-5" data-z-index="1" transform="translate(8,33)"><text x="21" y="15" style="color:#333333;cursor:pointer;font-size:12px;font-weight:normal;fill:#333333;" text-anchor="start" data-z-index="2"><tspan>Zupendler aus der NWCH</tspan></text><rect x="2" y="4" width="12" height="12" fill="#68AB2B" class="highcharts-point" data-z-index="3"></rect></g><g class="highcharts-legend-item highcharts-column-series highcharts-color-undefined highcharts-series-0" data-z-index="1" transform="translate(218,33)"><text x="21" y="15" style="color:#333333;cursor:pointer;font-size:12px;font-weight:normal;fill:#333333;" text-anchor="start" data-z-index="2"><tspan>Wegpendler ins Ausland</tspan></text><rect x="2" y="4" width="12" height="12" fill="#344549" class="highcharts-point" data-z-index="3"></rect></g><g class="highcharts-legend-item highcharts-line-series highcharts-color-undefined highcharts-series-6" data-z-index="1" transform="translate(8,48)"><path fill="none" d="M 0 11 L 16 11" class="highcharts-graph" stroke="#000000" stroke-width="2"></path><text x="21" y="15" style="color:#333333;cursor:pointer;font-size:12px;font-weight:normal;fill:#333333;" text-anchor="start" data-z-index="2"><tspan>Saldo</tspan></text></g></g></g></g><g class="highcharts-axis-labels highcharts-xaxis-labels" data-z-index="7"><text x="78.68096015846803" style="color:#000000;cursor:default;font-size:11px;fill:#000000;" text-anchor="end" transform="translate(0,0) rotate(-45 78.68096015846803 359)" y="359" opacity="1">1990</text><text x="102.85743074670302" style="color:#000000;cursor:default;font-size:11px;fill:#000000;" text-anchor="end" transform="translate(0,0) rotate(-45 102.85743074670302 359)" y="359" opacity="1">2000</text><text x="127.03390133494304" style="color:#000000;cursor:default;font-size:11px;fill:#000000;" text-anchor="end" transform="translate(0,0) rotate(-45 127.03390133494304 359)" y="359" opacity="1"></text><text x="151.21037192317303" style="color:#000000;cursor:default;font-size:11px;fill:#000000;" text-anchor="end" transform="translate(0,0) rotate(-45 151.21037192317303 359)" y="359" opacity="1">2010</text><text x="175.38684251141302" style="color:#000000;cursor:default;font-size:11px;fill:#000000;" text-anchor="end" transform="translate(0,0) rotate(-45 175.38684251141302 359)" y="359" opacity="1">2011</text><text x="199.56331309964304" style="color:#000000;cursor:default;font-size:11px;fill:#000000;" text-anchor="end" transform="translate(0,0) rotate(-45 199.56331309964304 359)" y="359" opacity="1">2012</text><text x="223.73978368788303" style="color:#000000;cursor:default;font-size:11px;fill:#000000;" text-anchor="end" transform="translate(0,0) rotate(-45 223.73978368788303 359)" y="359" opacity="1">2013</text><text x="247.916254276113" style="color:#000000;cursor:default;font-size:11px;fill:#000000;" text-anchor="end" transform="translate(0,0) rotate(-45 247.916254276113 359)" y="359" opacity="1">2014</text><text x="272.09272486435304" style="color:#000000;cursor:default;font-size:11px;fill:#000000;" text-anchor="end" transform="translate(0,0) rotate(-45 272.09272486435304 359)" y="359" opacity="1">2015</text><text x="296.269195452583" style="color:#000000;cursor:default;font-size:11px;fill:#000000;" text-anchor="end" transform="translate(0,0) rotate(-45 296.269195452583 359)" y="359" opacity="1">2016</text><text x="320.445666040823" style="color:#000000;cursor:default;font-size:11px;fill:#000000;" text-anchor="end" transform="translate(0,0) rotate(-45 320.445666040823 359)" y="359" opacity="1">2017</text><text x="344.62213662905305" style="color:#000000;cursor:default;font-size:11px;fill:#000000;" text-anchor="end" transform="translate(0,0) rotate(-45 344.62213662905305 359)" y="359" opacity="1">2018</text><text x="368.798607217293" style="color:#000000;cursor:default;font-size:11px;fill:#000000;" text-anchor="end" transform="translate(0,0) rotate(-45 368.798607217293 359)" y="359" opacity="1">2019</text><text x="392.97507780552303" style="color:#000000;cursor:default;font-size:11px;fill:#000000;" text-anchor="end" transform="translate(0,0) rotate(-45 392.97507780552303 359)" y="359" opacity="1">2020</text><text x="417.15154839376305" style="color:#000000;cursor:default;font-size:11px;fill:#000000;" text-anchor="end" transform="translate(0,0) rotate(-45 417.15154839376305 359)" y="359" opacity="1">2021</text><text x="441.328018981993" style="color:#000000;cursor:default;font-size:11px;fill:#000000;" text-anchor="end" transform="translate(0,0) rotate(-45 441.328018981993 359)" y="359" opacity="1">2022</text><text x="465.50448957023303" style="color:#000000;cursor:default;font-size:11px;fill:#000000;" text-anchor="end" transform="translate(0,0) rotate(-45 465.50448957023303 359)" y="359" opacity="1">2023</text></g><g class="highcharts-axis-labels highcharts-yaxis-labels" data-z-index="7"><text x="49" style="color:#000000;cursor:default;font-size:11px;fill:#000000;" text-anchor="end" transform="translate(0,0)" y="347" opacity="1"><tspan>-40 000</tspan></text><text x="49" style="color:#000000;cursor:default;font-size:11px;fill:#000000;" text-anchor="end" transform="translate(0,0)" y="320" opacity="1"><tspan>-20 000</tspan></text><text x="49" style="color:#000000;cursor:default;font-size:11px;fill:#000000;" text-anchor="end" transform="translate(0,0)" y="292" opacity="1">0</text><text x="49" style="color:#000000;cursor:default;font-size:11px;fill:#000000;" text-anchor="end" transform="translate(0,0)" y="265" opacity="1"><tspan>20 000</tspan></text><text x="49" style="color:#000000;cursor:default;font-size:11px;fill:#000000;" text-anchor="end" transform="translate(0,0)" y="238" opacity="1"><tspan>40 000</tspan></text><text x="49" style="color:#000000;cursor:default;font-size:11px;fill:#000000;" text-anchor="end" transform="translate(0,0)" y="210" opacity="1"><tspan>60 000</tspan></text><text x="49" style="color:#000000;cursor:default;font-size:11px;fill:#000000;" text-anchor="end" transform="translate(0,0)" y="183" opacity="1"><tspan>80 000</tspan></text><text x="49" style="color:#000000;cursor:default;font-size:11px;fill:#000000;" text-anchor="end" transform="translate(0,0)" y="155" opacity="1"><tspan>100 000</tspan></text><text x="49" style="color:#000000;cursor:default;font-size:11px;fill:#000000;" text-anchor="end" transform="translate(0,0)" y="128" opacity="1"><tspan>120 000</tspan></text></g><text x="10" class="highcharts-credits" text-anchor="start" data-z-index="8" style="cursor:default;color:#000000;font-size:10px;fill:#000000;" y="393"><tspan>Quelle: Bundesamt für Statistik (BFS), Strukturerhebung (SE);</tspan><tspan x="10" dy="13">Bundesamt für Statistik (BFS), Grenzgängerstatistik (GGS).</tspan><tspan x="10" dy="13">Zuletzt geändert: 20.3.2026</tspan></text><g class="highcharts-control-points" data-z-index="99" clip-path="url(#highcharts-rk25mow-247-)"></g></svg>