<?xml version="1.0" standalone="no"?><!DOCTYPE svg PUBLIC "-//W3C//DTD SVG 1.1//EN" "http://www.w3.org/Graphics/SVG/1.1/DTD/svg11.dtd"><svg xmlns:xlink="http://www.w3.org/1999/xlink" version="1.1" class="highcharts-root" style="font-family:Arial;font-size:12px;" xmlns="http://www.w3.org/2000/svg" viewBox="0 0 485 415"><desc>Created with Highcharts 8.2.0</desc><defs><clipPath id="highcharts-opssqhg-127-"><rect x="0" y="0" width="428" height="242" fill="none"></rect></clipPath><clipPath id="highcharts-opssqhg-188-"><rect x="0" y="0" width="428" height="242" fill="none"></rect></clipPath><clipPath id="highcharts-opssqhg-249-"><rect x="37" y="99" width="428" height="242" fill="none"></rect></clipPath></defs><rect fill="#fbfbfb" class="highcharts-background" x="0" y="0" width="485" height="428" rx="0" ry="0"></rect><rect fill="none" class="highcharts-plot-background" x="37" y="99" width="428" height="242"></rect><g class="highcharts-pane-group" data-z-index="0"></g><g class="highcharts-grid highcharts-xaxis-grid" data-z-index="1"><path fill="none" data-z-index="1" class="highcharts-grid-line" d="M 69.5 99 L 69.5 341" opacity="1"></path><path fill="none" data-z-index="1" class="highcharts-grid-line" d="M 104.5 99 L 104.5 341" opacity="1"></path><path fill="none" data-z-index="1" class="highcharts-grid-line" d="M 140.5 99 L 140.5 341" opacity="1"></path><path fill="none" data-z-index="1" class="highcharts-grid-line" d="M 175.5 99 L 175.5 341" opacity="1"></path><path fill="none" data-z-index="1" class="highcharts-grid-line" d="M 211.5 99 L 211.5 341" opacity="1"></path><path fill="none" data-z-index="1" class="highcharts-grid-line" d="M 246.5 99 L 246.5 341" opacity="1"></path><path fill="none" data-z-index="1" class="highcharts-grid-line" d="M 282.5 99 L 282.5 341" opacity="1"></path><path fill="none" data-z-index="1" class="highcharts-grid-line" d="M 318.5 99 L 318.5 341" opacity="1"></path><path fill="none" data-z-index="1" class="highcharts-grid-line" d="M 353.5 99 L 353.5 341" opacity="1"></path><path fill="none" data-z-index="1" class="highcharts-grid-line" d="M 389.5 99 L 389.5 341" opacity="1"></path><path fill="none" data-z-index="1" class="highcharts-grid-line" d="M 424.5 99 L 424.5 341" opacity="1"></path><path fill="none" data-z-index="1" class="highcharts-grid-line" d="M 460.5 99 L 460.5 341" opacity="1"></path></g><g class="highcharts-grid highcharts-yaxis-grid" data-z-index="1"><path fill="none" stroke="#B9CFD7" stroke-width="0.5" data-z-index="1" class="highcharts-grid-line" d="M 37 341.25 L 465 341.25" opacity="1"></path><path fill="none" stroke="#B9CFD7" stroke-width="0.5" data-z-index="1" class="highcharts-grid-line" d="M 37 293.25 L 465 293.25" opacity="1"></path><path fill="none" stroke="#B9CFD7" stroke-width="0.5" data-z-index="1" class="highcharts-grid-line" d="M 37 244.25 L 465 244.25" opacity="1"></path><path fill="none" stroke="#B9CFD7" stroke-width="0.5" data-z-index="1" class="highcharts-grid-line" d="M 37 196.25 L 465 196.25" opacity="1"></path><path fill="none" stroke="#B9CFD7" stroke-width="0.5" data-z-index="1" class="highcharts-grid-line" d="M 37 147.25 L 465 147.25" opacity="1"></path><path fill="none" stroke="#B9CFD7" stroke-width="0.5" data-z-index="1" class="highcharts-grid-line" d="M 37 98.75 L 465 98.75" opacity="1"></path></g><rect fill="none" class="highcharts-plot-border" data-z-index="1" x="37" y="99" width="428" height="242"></rect><g class="highcharts-axis highcharts-xaxis" data-z-index="2"><path fill="none" class="highcharts-axis-line" stroke="#B9CFD7" stroke-width="0.5" data-z-index="7" d="M 37 341.25 L 465 341.25"></path></g><g class="highcharts-axis highcharts-yaxis" data-z-index="2"><path fill="none" class="highcharts-axis-line" data-z-index="7" d="M 37 99 L 37 341"></path></g><g class="highcharts-series-group" data-z-index="3"><g class="highcharts-series highcharts-series-0 highcharts-line-series" data-z-index="0.1" opacity="1" transform="translate(37,99) scale(1 1)" clip-path="url(#highcharts-opssqhg-188-)"><path fill="none" d="M 4.196078431372 154.88 L 11.308075772681 145.2 L 18.420073113991 198.44 L 25.5320704553 125.84 L 32.64406779661 212.96 L 39.756065137919 208.12 L 46.868062479229 183.92000000000002 L 53.980059820538 212.96 L 61.092057161847 208.12 L 68.204054503157 222.64 L 75.316051844466 174.24 L 82.428049185776 222.64 L 89.540046527085 193.6 L 96.652043868395 208.12 L 103.7640412097 188.76 L 110.87603855101 130.68 L 117.98803589232 237.16 L 125.10003323363 232.32 L 132.21203057494 208.12 L 139.32402791625 217.8 L 146.43602525756 203.28 L 153.54802259887 193.6 L 160.66001994018 130.68 L 167.77201728149 198.44 L 174.8840146228 193.6 L 181.99601196411 164.56 L 189.10800930542 183.92000000000002 L 196.22000664673 203.28 L 203.33200398804 193.6 L 210.44400132935 164.56 L 217.55599867065 164.56 L 224.66799601196 135.52 L 231.77999335327 188.76 L 238.89199069458 106.48000000000002 L 246.00398803589 145.2 L 253.1159853772 212.96 L 260.22798271851 179.07999999999998 L 267.33998005982 154.88 L 274.45197740113 208.12 L 281.56397474244 169.4 L 288.67597208375 174.24 L 295.78796942506 183.92000000000002 L 302.89996676637 33.879999999999995 L 310.01196410768 174.24 L 317.12396144899 150.04000000000002 L 324.2359587903 121 L 331.34795613161 203.28 L 338.45995347291 198.44 L 345.57195081422 159.72 L 352.68394815553 150.04000000000002 L 359.79594549684 169.4 L 366.90794283815 179.07999999999998 L 374.01994017946 169.4 L 381.13193752077 198.44 L 388.24393486208 87.12 L 395.35593220339 179.07999999999998 L 402.4679295447 106.48000000000002 L 409.57992688601 91.96000000000001 L 416.69192422732 121 L 423.80392156863 135.52" class="highcharts-graph" data-z-index="1" stroke="#cd9c00" stroke-width="2" stroke-linejoin="round" stroke-linecap="round"></path></g><g class="highcharts-markers highcharts-series-0 highcharts-line-series" data-z-index="0.1" opacity="1" transform="translate(37,99) scale(1 1)" clip-path="none"></g><g class="highcharts-series highcharts-series-1 highcharts-line-series" data-z-index="0.1" opacity="1" transform="translate(37,99) scale(1 1)" clip-path="url(#highcharts-opssqhg-188-)"><path fill="none" d="M 246.00398803589 237.16 L 253.1159853772 242 L 260.22798271851 242 L 267.33998005982 227.48 L 274.45197740113 237.16 L 281.56397474244 242 L 288.67597208375 242 L 295.78796942506 242 L 302.89996676637 203.28 L 310.01196410768 237.16 L 317.12396144899 232.32 L 324.2359587903 222.64 L 331.34795613161 242 L 338.45995347291 237.16 L 345.57195081422 237.16 L 352.68394815553 232.32 L 359.79594549684 232.32 L 366.90794283815 222.64 L 374.01994017946 222.64 L 381.13193752077 242 L 388.24393486208 188.76 L 395.35593220339 237.16 L 402.4679295447 212.96 L 409.57992688601 227.48 L 416.69192422732 212.96 L 423.80392156863 227.48" class="highcharts-graph" data-z-index="1" stroke="#b375ab" stroke-width="2" stroke-linejoin="round" stroke-linecap="round"></path></g><g class="highcharts-markers highcharts-series-1 highcharts-line-series" data-z-index="0.1" opacity="1" transform="translate(37,99) scale(1 1)" clip-path="none"></g></g><text x="10" text-anchor="start" class="highcharts-title" data-z-index="4" style="color:#000000;font-size:14px;font-weight:bold;fill:#000000;" y="21"><tspan>Hitzetage und Tropennächte</tspan></text><text x="10" text-anchor="start" class="highcharts-subtitle" data-z-index="4" style="color:#000000;font-size:12px;font-weight:normal;fill:#000000;" y="40"><tspan>Anzahl Tage, Basel-Stadt</tspan></text><text x="10" text-anchor="start" class="highcharts-caption" data-z-index="4" style="color:#666666;fill:#666666;" y="375"></text><g class="highcharts-legend" data-z-index="7" transform="translate(29,56)"><rect fill="none" class="highcharts-legend-box" rx="0" ry="0" x="0" y="0" width="205" height="31" visibility="visible"></rect><g data-z-index="1"><g><g class="highcharts-legend-item highcharts-line-series highcharts-color-undefined highcharts-series-0" data-z-index="1" transform="translate(8,3)"><path fill="none" d="M 0 11 L 16 11" class="highcharts-graph" stroke="#cd9c00" stroke-width="2"></path><text x="21" style="color:#333333;cursor:pointer;font-size:12px;font-weight:normal;fill:#333333;" text-anchor="start" data-z-index="2" y="15"><tspan>Hitzetage</tspan></text></g><g class="highcharts-legend-item highcharts-line-series highcharts-color-undefined highcharts-series-1" data-z-index="1" transform="translate(100,3)"><path fill="none" d="M 0 11 L 16 11" class="highcharts-graph" stroke="#b375ab" stroke-width="2"></path><text x="21" y="15" style="color:#333333;cursor:pointer;font-size:12px;font-weight:normal;fill:#333333;" text-anchor="start" data-z-index="2"><tspan>Tropennächte</tspan></text></g></g></g></g><g class="highcharts-axis-labels highcharts-xaxis-labels" data-z-index="7"><text x="69.64406779661" style="color:#000000;cursor:default;font-size:11px;fill:#000000;" text-anchor="middle" transform="translate(0,0)" y="360" opacity="1">1965</text><text x="105.20405450316" style="color:#000000;cursor:default;font-size:11px;fill:#000000;" text-anchor="middle" transform="translate(0,0)" y="360" opacity="1">1970</text><text x="140.7640412097" style="color:#000000;cursor:default;font-size:11px;fill:#000000;" text-anchor="middle" transform="translate(0,0)" y="360" opacity="1">1975</text><text x="176.32402791625" style="color:#000000;cursor:default;font-size:11px;fill:#000000;" text-anchor="middle" transform="translate(0,0)" y="360" opacity="1">1980</text><text x="211.8840146228" style="color:#000000;cursor:default;font-size:11px;fill:#000000;" text-anchor="middle" transform="translate(0,0)" y="360" opacity="1">1985</text><text x="247.44400132935" style="color:#000000;cursor:default;font-size:11px;fill:#000000;" text-anchor="middle" transform="translate(0,0)" y="360" opacity="1">1990</text><text x="283.00398803589" style="color:#000000;cursor:default;font-size:11px;fill:#000000;" text-anchor="middle" transform="translate(0,0)" y="360" opacity="1">1995</text><text x="318.56397474244" style="color:#000000;cursor:default;font-size:11px;fill:#000000;" text-anchor="middle" transform="translate(0,0)" y="360" opacity="1">2000</text><text x="354.12396144899" style="color:#000000;cursor:default;font-size:11px;fill:#000000;" text-anchor="middle" transform="translate(0,0)" y="360" opacity="1">2005</text><text x="389.68394815553" style="color:#000000;cursor:default;font-size:11px;fill:#000000;" text-anchor="middle" transform="translate(0,0)" y="360" opacity="1">2010</text><text x="425.24393486208" style="color:#000000;cursor:default;font-size:11px;fill:#000000;" text-anchor="middle" transform="translate(0,0)" y="360" opacity="1">2015</text><text x="460.80392156863" style="color:#000000;cursor:default;font-size:11px;fill:#000000;" text-anchor="middle" transform="translate(0,0)" y="360" opacity="1">2020</text></g><g class="highcharts-axis-labels highcharts-yaxis-labels" data-z-index="7"><text x="22" style="color:#000000;cursor:default;font-size:11px;fill:#000000;" text-anchor="end" transform="translate(0,0)" y="345" opacity="1">0</text><text x="22" style="color:#000000;cursor:default;font-size:11px;fill:#000000;" text-anchor="end" transform="translate(0,0)" y="297" opacity="1">10</text><text x="22" style="color:#000000;cursor:default;font-size:11px;fill:#000000;" text-anchor="end" transform="translate(0,0)" y="248" opacity="1">20</text><text x="22" style="color:#000000;cursor:default;font-size:11px;fill:#000000;" text-anchor="end" transform="translate(0,0)" y="200" opacity="1">30</text><text x="22" style="color:#000000;cursor:default;font-size:11px;fill:#000000;" text-anchor="end" transform="translate(0,0)" y="151" opacity="1">40</text><text x="22" style="color:#000000;cursor:default;font-size:11px;fill:#000000;" text-anchor="end" transform="translate(0,0)" y="103" opacity="1">50</text></g><text x="10" class="highcharts-credits" text-anchor="start" data-z-index="8" style="cursor:default;color:#000000;font-size:10px;fill:#000000;" y="393"><tspan>Quelle: Meteorologischer Verein der Region Basel;</tspan><tspan x="10" dy="13">Bundesamt für Umwelt (BAFU), Nationales Beobachtungsnetz für Luftfremdstoffe (NABEL).</tspan><tspan x="10" dy="13">Zuletzt geändert: 2021-12-23</tspan></text><g class="highcharts-control-points" data-z-index="99" clip-path="url(#highcharts-opssqhg-249-)"></g></svg>