<?xml version="1.0" standalone="no"?><!DOCTYPE svg PUBLIC "-//W3C//DTD SVG 1.1//EN" "http://www.w3.org/Graphics/SVG/1.1/DTD/svg11.dtd"><svg xmlns:xlink="http://www.w3.org/1999/xlink" version="1.1" class="highcharts-root" style="font-family:Arial;font-size:12px;" xmlns="http://www.w3.org/2000/svg" viewBox="0 0 485 415"><desc>Created with Highcharts 8.2.2</desc><defs><clipPath id="highcharts-52u6c0e-53-"><rect x="0" y="0" width="438" height="244" fill="none"></rect></clipPath><clipPath id="highcharts-52u6c0e-77-"><rect x="0" y="0" width="438" height="244" fill="none"></rect></clipPath><clipPath id="highcharts-52u6c0e-101-"><rect x="37" y="94" width="438" height="244" fill="none"></rect></clipPath></defs><rect fill="#fbfbfb" class="highcharts-background" x="0" y="0" width="485" height="428" rx="0" ry="0"></rect><rect fill="none" class="highcharts-plot-background" x="37" y="94" width="438" height="244"></rect><g class="highcharts-pane-group" data-z-index="0"></g><g class="highcharts-grid highcharts-xaxis-grid" data-z-index="1"><path fill="none" data-z-index="1" class="highcharts-grid-line" d="M 55.5 94 L 55.5 338" opacity="1"></path><path fill="none" data-z-index="1" class="highcharts-grid-line" d="M 74.5 94 L 74.5 338" opacity="1"></path><path fill="none" data-z-index="1" class="highcharts-grid-line" d="M 93.5 94 L 93.5 338" opacity="1"></path><path fill="none" data-z-index="1" class="highcharts-grid-line" d="M 112.5 94 L 112.5 338" opacity="1"></path><path fill="none" data-z-index="1" class="highcharts-grid-line" d="M 131.5 94 L 131.5 338" opacity="1"></path><path fill="none" data-z-index="1" class="highcharts-grid-line" d="M 150.5 94 L 150.5 338" opacity="1"></path><path fill="none" data-z-index="1" class="highcharts-grid-line" d="M 169.5 94 L 169.5 338" opacity="1"></path><path fill="none" data-z-index="1" class="highcharts-grid-line" d="M 188.5 94 L 188.5 338" opacity="1"></path><path fill="none" data-z-index="1" class="highcharts-grid-line" d="M 207.5 94 L 207.5 338" opacity="1"></path><path fill="none" data-z-index="1" class="highcharts-grid-line" d="M 226.5 94 L 226.5 338" opacity="1"></path><path fill="none" data-z-index="1" class="highcharts-grid-line" d="M 245.5 94 L 245.5 338" opacity="1"></path><path fill="none" data-z-index="1" class="highcharts-grid-line" d="M 265.5 94 L 265.5 338" opacity="1"></path><path fill="none" data-z-index="1" class="highcharts-grid-line" d="M 284.5 94 L 284.5 338" opacity="1"></path><path fill="none" data-z-index="1" class="highcharts-grid-line" d="M 303.5 94 L 303.5 338" opacity="1"></path><path fill="none" data-z-index="1" class="highcharts-grid-line" d="M 322.5 94 L 322.5 338" opacity="1"></path><path fill="none" data-z-index="1" class="highcharts-grid-line" d="M 341.5 94 L 341.5 338" opacity="1"></path><path fill="none" data-z-index="1" class="highcharts-grid-line" d="M 360.5 94 L 360.5 338" opacity="1"></path><path fill="none" data-z-index="1" class="highcharts-grid-line" d="M 379.5 94 L 379.5 338" opacity="1"></path><path fill="none" data-z-index="1" class="highcharts-grid-line" d="M 398.5 94 L 398.5 338" opacity="1"></path><path fill="none" data-z-index="1" class="highcharts-grid-line" d="M 417.5 94 L 417.5 338" opacity="1"></path><path fill="none" data-z-index="1" class="highcharts-grid-line" d="M 436.5 94 L 436.5 338" opacity="1"></path><path fill="none" data-z-index="1" class="highcharts-grid-line" d="M 455.5 94 L 455.5 338" opacity="1"></path><path fill="none" data-z-index="1" class="highcharts-grid-line" d="M 474.5 94 L 474.5 338" opacity="1"></path><path fill="none" data-z-index="1" class="highcharts-grid-line" d="M 36.5 94 L 36.5 338" opacity="1"></path></g><g class="highcharts-grid highcharts-yaxis-grid" data-z-index="1"><path fill="none" stroke="#B9CFD7" stroke-width="0.5" data-z-index="1" class="highcharts-grid-line" d="M 37 338.25 L 475 338.25" opacity="1"></path><path fill="none" stroke="#B9CFD7" stroke-width="0.5" data-z-index="1" class="highcharts-grid-line" d="M 37 277.25 L 475 277.25" opacity="1"></path><path fill="none" stroke="#B9CFD7" stroke-width="0.5" data-z-index="1" class="highcharts-grid-line" d="M 37 216.25 L 475 216.25" opacity="1"></path><path fill="none" stroke="#B9CFD7" stroke-width="0.5" data-z-index="1" class="highcharts-grid-line" d="M 37 155.25 L 475 155.25" opacity="1"></path><path fill="none" stroke="#B9CFD7" stroke-width="0.5" data-z-index="1" class="highcharts-grid-line" d="M 37 93.75 L 475 93.75" opacity="1"></path></g><rect fill="none" class="highcharts-plot-border" data-z-index="1" x="37" y="94" width="438" height="244"></rect><g class="highcharts-axis highcharts-xaxis" data-z-index="2"><path fill="none" class="highcharts-axis-line" stroke="#B9CFD7" stroke-width="0.5" data-z-index="7" d="M 37 338.25 L 475 338.25"></path></g><g class="highcharts-axis highcharts-yaxis" data-z-index="2"><path fill="none" class="highcharts-axis-line" data-z-index="7" d="M 37 94 L 37 338"></path></g><g class="highcharts-series-group" data-z-index="3"><g class="highcharts-series highcharts-series-0 highcharts-column-series" data-z-index="0.1" opacity="1" transform="translate(37,94) scale(1 1)" clip-path="url(#highcharts-52u6c0e-77-)"><rect x="4" y="243" width="6" height="2" fill="#2F656B" opacity="1" class="highcharts-point"></rect><rect x="23" y="243" width="6" height="2" fill="#2F656B" opacity="1" class="highcharts-point"></rect><rect x="42" y="242" width="6" height="3" fill="#2F656B" opacity="1" class="highcharts-point"></rect><rect x="61" y="240" width="6" height="5" fill="#2F656B" opacity="1" class="highcharts-point"></rect><rect x="80" y="239" width="6" height="6" fill="#2F656B" opacity="1" class="highcharts-point"></rect><rect x="99" y="238" width="6" height="7" fill="#2F656B" opacity="1" class="highcharts-point"></rect><rect x="118" y="236" width="6" height="9" fill="#2F656B" opacity="1" class="highcharts-point"></rect><rect x="137" y="234" width="6" height="11" fill="#2F656B" opacity="1" class="highcharts-point"></rect><rect x="156" y="232" width="6" height="13" fill="#2F656B" opacity="1" class="highcharts-point"></rect><rect x="175" y="229" width="6" height="16" fill="#2F656B" opacity="1" class="highcharts-point"></rect><rect x="194" y="223" width="6" height="22" fill="#2F656B" opacity="1" class="highcharts-point"></rect><rect x="213" y="209" width="6" height="36" fill="#2F656B" opacity="1" class="highcharts-point"></rect><rect x="232" y="202" width="6" height="43" fill="#2F656B" opacity="1" class="highcharts-point"></rect><rect x="251" y="180" width="6" height="65" fill="#2F656B" opacity="1" class="highcharts-point"></rect><rect x="270" y="174" width="6" height="71" fill="#2F656B" opacity="1" class="highcharts-point"></rect><rect x="289" y="164" width="6" height="81" fill="#2F656B" opacity="1" class="highcharts-point"></rect><rect x="309" y="157" width="5" height="88" fill="#2F656B" opacity="1" class="highcharts-point"></rect><rect x="328" y="144" width="5" height="101" fill="#2F656B" opacity="1" class="highcharts-point"></rect><rect x="347" y="130" width="5" height="115" fill="#2F656B" opacity="1" class="highcharts-point"></rect><rect x="366" y="121" width="5" height="124" fill="#2F656B" opacity="1" class="highcharts-point"></rect><rect x="385" y="99" width="5" height="146" fill="#2F656B" opacity="1" class="highcharts-point"></rect><rect x="404" y="73" width="5" height="172" fill="#2F656B" opacity="1" class="highcharts-point"></rect><rect x="423" y="44" width="5" height="201" fill="#2F656B" opacity="1" class="highcharts-point"></rect></g><g class="highcharts-markers highcharts-series-0 highcharts-column-series" data-z-index="0.1" opacity="1" transform="translate(37,94) scale(1 1)" clip-path="none"></g><g class="highcharts-series highcharts-series-1 highcharts-column-series" data-z-index="0.1" opacity="1" transform="translate(37,94) scale(1 1)" clip-path="url(#highcharts-52u6c0e-77-)"><rect x="200" y="209" width="6" height="36" fill="#8B2223" opacity="1" class="highcharts-point"></rect><rect x="238" y="198" width="6" height="47" fill="#8B2223" opacity="1" class="highcharts-point"></rect><rect x="276" y="185" width="6" height="60" fill="#8B2223" opacity="1" class="highcharts-point"></rect><rect x="314" y="170" width="6" height="75" fill="#8B2223" opacity="1" class="highcharts-point"></rect><rect x="352" y="143" width="6" height="102" fill="#8B2223" opacity="1" class="highcharts-point"></rect><rect x="390" y="139" width="6" height="106" fill="#8B2223" opacity="1" class="highcharts-point"></rect><rect x="428" y="139" width="6" height="106" fill="#8B2223" opacity="1" class="highcharts-point"></rect></g><g class="highcharts-markers highcharts-series-1 highcharts-column-series" data-z-index="0.1" opacity="1" transform="translate(37,94) scale(1 1)" clip-path="none"></g></g><text x="10" text-anchor="start" class="highcharts-title" data-z-index="4" style="color:#000000;font-size:14px;font-weight:bold;fill:#000000;" y="21"><tspan>Solarenergie</tspan></text><text x="10" text-anchor="start" class="highcharts-subtitle" data-z-index="4" style="color:#000000;font-size:12px;font-weight:normal;fill:#000000;" y="40"><tspan>Produktion in GWh, Basel-Stadt</tspan></text><text x="10" text-anchor="start" class="highcharts-caption" data-z-index="4" style="color:#666666;fill:#666666;" y="385"></text><g class="highcharts-legend" data-z-index="7" transform="translate(29,56)"><rect fill="none" class="highcharts-legend-box" rx="0" ry="0" x="0" y="0" width="207" height="26" visibility="visible"></rect><g data-z-index="1"><g><g class="highcharts-legend-item highcharts-column-series highcharts-color-undefined highcharts-series-0" data-z-index="1" transform="translate(8,3)"><text x="21" style="color:#333333;cursor:pointer;font-size:12px;font-weight:normal;fill:#333333;" text-anchor="start" data-z-index="2" y="15"><tspan>Fotovoltaik</tspan></text><rect x="2" y="4" width="12" height="12" fill="#2F656B" class="highcharts-point" data-z-index="3"></rect></g><g class="highcharts-legend-item highcharts-column-series highcharts-color-undefined highcharts-series-1" data-z-index="1" transform="translate(107,3)"><text x="21" y="15" style="color:#333333;cursor:pointer;font-size:12px;font-weight:normal;fill:#333333;" text-anchor="start" data-z-index="2"><tspan>Solarthermie</tspan></text><rect x="2" y="4" width="12" height="12" fill="#8B2223" class="highcharts-point" data-z-index="3"></rect></g></g></g></g><g class="highcharts-axis-labels highcharts-xaxis-labels" data-z-index="7"><text x="49.11446399478589" style="color:#000000;cursor:default;font-size:11px;fill:#000000;" text-anchor="end" transform="translate(0,0) rotate(-45 49.11446399478589 354)" y="354" opacity="1">2000</text><text x="68.15794225565489" style="color:#000000;cursor:default;font-size:11px;fill:#000000;" text-anchor="end" transform="translate(0,0) rotate(-45 68.15794225565489 354)" y="354" opacity="1">2001</text><text x="87.20142051652489" style="color:#000000;cursor:default;font-size:11px;fill:#000000;" text-anchor="end" transform="translate(0,0) rotate(-45 87.20142051652489 354)" y="354" opacity="1">2002</text><text x="106.24489877739589" style="color:#000000;cursor:default;font-size:11px;fill:#000000;" text-anchor="end" transform="translate(0,0) rotate(-45 106.24489877739589 354)" y="354" opacity="1">2003</text><text x="125.2883770382659" style="color:#000000;cursor:default;font-size:11px;fill:#000000;" text-anchor="end" transform="translate(0,0) rotate(-45 125.2883770382659 354)" y="354" opacity="1">2004</text><text x="144.3318552991359" style="color:#000000;cursor:default;font-size:11px;fill:#000000;" text-anchor="end" transform="translate(0,0) rotate(-45 144.3318552991359 354)" y="354" opacity="1">2005</text><text x="163.3753335600059" style="color:#000000;cursor:default;font-size:11px;fill:#000000;" text-anchor="end" transform="translate(0,0) rotate(-45 163.3753335600059 354)" y="354" opacity="1">2006</text><text x="182.4188118208759" style="color:#000000;cursor:default;font-size:11px;fill:#000000;" text-anchor="end" transform="translate(0,0) rotate(-45 182.4188118208759 354)" y="354" opacity="1">2007</text><text x="201.4622900817459" style="color:#000000;cursor:default;font-size:11px;fill:#000000;" text-anchor="end" transform="translate(0,0) rotate(-45 201.4622900817459 354)" y="354" opacity="1">2008</text><text x="220.5057683426159" style="color:#000000;cursor:default;font-size:11px;fill:#000000;" text-anchor="end" transform="translate(0,0) rotate(-45 220.5057683426159 354)" y="354" opacity="1">2009</text><text x="239.5492466034859" style="color:#000000;cursor:default;font-size:11px;fill:#000000;" text-anchor="end" transform="translate(0,0) rotate(-45 239.5492466034859 354)" y="354" opacity="1">2010</text><text x="258.5927248643458" style="color:#000000;cursor:default;font-size:11px;fill:#000000;" text-anchor="end" transform="translate(0,0) rotate(-45 258.5927248643458 354)" y="354" opacity="1">2011</text><text x="277.63620312521584" style="color:#000000;cursor:default;font-size:11px;fill:#000000;" text-anchor="end" transform="translate(0,0) rotate(-45 277.63620312521584 354)" y="354" opacity="1">2012</text><text x="296.67968138608586" style="color:#000000;cursor:default;font-size:11px;fill:#000000;" text-anchor="end" transform="translate(0,0) rotate(-45 296.67968138608586 354)" y="354" opacity="1">2013</text><text x="315.7231596469558" style="color:#000000;cursor:default;font-size:11px;fill:#000000;" text-anchor="end" transform="translate(0,0) rotate(-45 315.7231596469558 354)" y="354" opacity="1">2014</text><text x="334.76663790782584" style="color:#000000;cursor:default;font-size:11px;fill:#000000;" text-anchor="end" transform="translate(0,0) rotate(-45 334.76663790782584 354)" y="354" opacity="1">2015</text><text x="353.81011616869586" style="color:#000000;cursor:default;font-size:11px;fill:#000000;" text-anchor="end" transform="translate(0,0) rotate(-45 353.81011616869586 354)" y="354" opacity="1">2016</text><text x="372.8535944295659" style="color:#000000;cursor:default;font-size:11px;fill:#000000;" text-anchor="end" transform="translate(0,0) rotate(-45 372.8535944295659 354)" y="354" opacity="1">2017</text><text x="391.89707269043583" style="color:#000000;cursor:default;font-size:11px;fill:#000000;" text-anchor="end" transform="translate(0,0) rotate(-45 391.89707269043583 354)" y="354" opacity="1">2018</text><text x="410.94055095130585" style="color:#000000;cursor:default;font-size:11px;fill:#000000;" text-anchor="end" transform="translate(0,0) rotate(-45 410.94055095130585 354)" y="354" opacity="1">2019</text><text x="429.98402921217587" style="color:#000000;cursor:default;font-size:11px;fill:#000000;" text-anchor="end" transform="translate(0,0) rotate(-45 429.98402921217587 354)" y="354" opacity="1">2020</text><text x="449.02750747304583" style="color:#000000;cursor:default;font-size:11px;fill:#000000;" text-anchor="end" transform="translate(0,0) rotate(-45 449.02750747304583 354)" y="354" opacity="1">2021</text><text x="468.07098573391585" style="color:#000000;cursor:default;font-size:11px;fill:#000000;" text-anchor="end" transform="translate(0,0) rotate(-45 468.07098573391585 354)" y="354" opacity="1">2022</text></g><g class="highcharts-axis-labels highcharts-yaxis-labels" data-z-index="7"><text x="22" style="color:#000000;cursor:default;font-size:11px;fill:#000000;" text-anchor="end" transform="translate(0,0)" y="342" opacity="1">0</text><text x="22" style="color:#000000;cursor:default;font-size:11px;fill:#000000;" text-anchor="end" transform="translate(0,0)" y="281" opacity="1">12</text><text x="22" style="color:#000000;cursor:default;font-size:11px;fill:#000000;" text-anchor="end" transform="translate(0,0)" y="220" opacity="1">24</text><text x="22" style="color:#000000;cursor:default;font-size:11px;fill:#000000;" text-anchor="end" transform="translate(0,0)" y="159" opacity="1">36</text><text x="22" style="color:#000000;cursor:default;font-size:11px;fill:#000000;" text-anchor="end" transform="translate(0,0)" y="98" opacity="1">48</text></g><text x="10" class="highcharts-credits" text-anchor="start" data-z-index="8" style="cursor:default;color:#000000;font-size:10px;fill:#000000;" y="403"><tspan>Quelle: Statistisches Amt Basel-Stadt, Energiestatistik.</tspan><tspan x="10" dy="13">Zuletzt geändert: 12.3.2025</tspan></text><g class="highcharts-control-points" data-z-index="99" clip-path="url(#highcharts-52u6c0e-101-)"></g></svg>