<?xml version="1.0" standalone="no"?><!DOCTYPE svg PUBLIC "-//W3C//DTD SVG 1.1//EN" "http://www.w3.org/Graphics/SVG/1.1/DTD/svg11.dtd"><svg xmlns:xlink="http://www.w3.org/1999/xlink" version="1.1" class="highcharts-root" style="font-family:Arial;font-size:12px;" xmlns="http://www.w3.org/2000/svg" viewBox="0 0 485 415"><desc>Created with Highcharts 8.2.0</desc><defs><clipPath id="highcharts-jpvcx8b-216-"><rect x="0" y="0" width="380" height="215" fill="none"></rect></clipPath><clipPath id="highcharts-jpvcx8b-286-"><rect x="0" y="0" width="380" height="215" fill="none"></rect></clipPath><clipPath id="highcharts-jpvcx8b-425-"><rect x="0" y="0" width="380" height="215" fill="none"></rect></clipPath><clipPath id="highcharts-jpvcx8b-426-"><rect x="58" y="141" width="380" height="215" fill="none"></rect></clipPath></defs><rect fill="#fbfbfb" class="highcharts-background" x="0" y="0" width="485" height="428" rx="0" ry="0"></rect><rect fill="none" class="highcharts-plot-background" x="58" y="141" width="380" height="215"></rect><g class="highcharts-pane-group" data-z-index="0"></g><g class="highcharts-grid highcharts-xaxis-grid" data-z-index="1"><path fill="none" data-z-index="1" class="highcharts-grid-line" d="M 74.5 141 L 74.5 356" opacity="1"></path><path fill="none" data-z-index="1" class="highcharts-grid-line" d="M 107.5 141 L 107.5 356" opacity="1"></path><path fill="none" data-z-index="1" class="highcharts-grid-line" d="M 140.5 141 L 140.5 356" opacity="1"></path><path fill="none" data-z-index="1" class="highcharts-grid-line" d="M 173.5 141 L 173.5 356" opacity="1"></path><path fill="none" data-z-index="1" class="highcharts-grid-line" d="M 206.5 141 L 206.5 356" opacity="1"></path><path fill="none" data-z-index="1" class="highcharts-grid-line" d="M 239.5 141 L 239.5 356" opacity="1"></path><path fill="none" data-z-index="1" class="highcharts-grid-line" d="M 272.5 141 L 272.5 356" opacity="1"></path><path fill="none" data-z-index="1" class="highcharts-grid-line" d="M 305.5 141 L 305.5 356" opacity="1"></path><path fill="none" data-z-index="1" class="highcharts-grid-line" d="M 338.5 141 L 338.5 356" opacity="1"></path><path fill="none" data-z-index="1" class="highcharts-grid-line" d="M 371.5 141 L 371.5 356" opacity="1"></path><path fill="none" data-z-index="1" class="highcharts-grid-line" d="M 404.5 141 L 404.5 356" opacity="1"></path><path fill="none" data-z-index="1" class="highcharts-grid-line" d="M 437.5 141 L 437.5 356" opacity="1"></path><path fill="none" data-z-index="1" class="highcharts-grid-line" d="M 57.5 141 L 57.5 356" opacity="1"></path></g><g class="highcharts-grid highcharts-yaxis-grid" data-z-index="1"><path fill="none" stroke="#e6e6e6" stroke-width="1" data-z-index="1" class="highcharts-grid-line" d="M 58 356.5 L 438 356.5" opacity="1"></path><path fill="none" stroke="#e6e6e6" stroke-width="1" data-z-index="1" class="highcharts-grid-line" d="M 58 313.5 L 438 313.5" opacity="1"></path><path fill="none" stroke="#e6e6e6" stroke-width="1" data-z-index="1" class="highcharts-grid-line" d="M 58 270.5 L 438 270.5" opacity="1"></path><path fill="none" stroke="#e6e6e6" stroke-width="1" data-z-index="1" class="highcharts-grid-line" d="M 58 227.5 L 438 227.5" opacity="1"></path><path fill="none" stroke="#e6e6e6" stroke-width="1" data-z-index="1" class="highcharts-grid-line" d="M 58 184.5 L 438 184.5" opacity="1"></path><path fill="none" stroke="#e6e6e6" stroke-width="1" data-z-index="1" class="highcharts-grid-line" d="M 58 140.5 L 438 140.5" opacity="1"></path></g><g class="highcharts-grid highcharts-yaxis-grid" data-z-index="1"><path fill="none" stroke="#e6e6e6" stroke-width="1" data-z-index="1" class="highcharts-grid-line" d="M 58 356.5 L 438 356.5" opacity="1"></path><path fill="none" stroke="#e6e6e6" stroke-width="1" data-z-index="1" class="highcharts-grid-line" d="M 58 313.5 L 438 313.5" opacity="1"></path><path fill="none" stroke="#e6e6e6" stroke-width="1" data-z-index="1" class="highcharts-grid-line" d="M 58 270.5 L 438 270.5" opacity="1"></path><path fill="none" stroke="#e6e6e6" stroke-width="1" data-z-index="1" class="highcharts-grid-line" d="M 58 227.5 L 438 227.5" opacity="1"></path><path fill="none" stroke="#e6e6e6" stroke-width="1" data-z-index="1" class="highcharts-grid-line" d="M 58 184.5 L 438 184.5" opacity="1"></path><path fill="none" stroke="#e6e6e6" stroke-width="1" data-z-index="1" class="highcharts-grid-line" d="M 58 140.5 L 438 140.5" opacity="1"></path></g><rect fill="none" class="highcharts-plot-border" data-z-index="1" x="58" y="141" width="380" height="215"></rect><g class="highcharts-axis highcharts-xaxis" data-z-index="2"><path fill="none" class="highcharts-axis-line" stroke="#B9CFD7" stroke-width="0.5" data-z-index="7" d="M 58 356.25 L 438 356.25"></path></g><g class="highcharts-axis highcharts-yaxis" data-z-index="2"><path fill="none" class="highcharts-axis-line" data-z-index="7" d="M 58 141 L 58 356"></path></g><g class="highcharts-axis highcharts-yaxis" data-z-index="2"><path fill="none" class="highcharts-axis-line" data-z-index="7" d="M 438 141 L 438 356"></path></g><g class="highcharts-series-group" data-z-index="3"><g class="highcharts-series highcharts-series-0 highcharts-column-series" data-z-index="0.1" opacity="1" transform="translate(58,141) scale(1 1)" clip-path="url(#highcharts-jpvcx8b-286-)"><rect x="0.5" y="180.5" width="2" height="35" fill="#A0BEC8" stroke="#ffffff" stroke-width="1e-7" opacity="1" class="highcharts-point"></rect><rect x="6.5" y="175.5" width="2" height="40" fill="#A0BEC8" stroke="#ffffff" stroke-width="1e-7" opacity="1" class="highcharts-point"></rect><rect x="11.5" y="174.5" width="2" height="41" fill="#A0BEC8" stroke="#ffffff" stroke-width="1e-7" opacity="1" class="highcharts-point"></rect><rect x="17.5" y="178.5" width="2" height="37" fill="#A0BEC8" stroke="#ffffff" stroke-width="1e-7" opacity="1" class="highcharts-point"></rect><rect x="22.5" y="175.5" width="2" height="40" fill="#A0BEC8" stroke="#ffffff" stroke-width="1e-7" opacity="1" class="highcharts-point"></rect><rect x="28.5" y="167.5" width="2" height="48" fill="#A0BEC8" stroke="#ffffff" stroke-width="1e-7" opacity="1" class="highcharts-point"></rect><rect x="33.5" y="161.5" width="2" height="54" fill="#A0BEC8" stroke="#ffffff" stroke-width="1e-7" opacity="1" class="highcharts-point"></rect><rect x="39.5" y="156.5" width="2" height="59" fill="#A0BEC8" stroke="#ffffff" stroke-width="1e-7" opacity="1" class="highcharts-point"></rect><rect x="44.5" y="149.5" width="2" height="66" fill="#A0BEC8" stroke="#ffffff" stroke-width="1e-7" opacity="1" class="highcharts-point"></rect><rect x="50.5" y="147.5" width="2" height="68" fill="#A0BEC8" stroke="#ffffff" stroke-width="1e-7" opacity="1" class="highcharts-point"></rect><rect x="55.5" y="143.5" width="2" height="72" fill="#A0BEC8" stroke="#ffffff" stroke-width="1e-7" opacity="1" class="highcharts-point"></rect><rect x="61.5" y="143.5" width="2" height="72" fill="#A0BEC8" stroke="#ffffff" stroke-width="1e-7" opacity="1" class="highcharts-point"></rect><rect x="66.5" y="140.5" width="2" height="75" fill="#A0BEC8" stroke="#ffffff" stroke-width="1e-7" opacity="1" class="highcharts-point"></rect><rect x="72.5" y="133.5" width="2" height="82" fill="#A0BEC8" stroke="#ffffff" stroke-width="1e-7" opacity="1" class="highcharts-point"></rect><rect x="77.5" y="126.5" width="2" height="89" fill="#A0BEC8" stroke="#ffffff" stroke-width="1e-7" opacity="1" class="highcharts-point"></rect><rect x="83.5" y="117.5" width="2" height="98" fill="#A0BEC8" stroke="#ffffff" stroke-width="1e-7" opacity="1" class="highcharts-point"></rect><rect x="88.5" y="114.5" width="2" height="101" fill="#A0BEC8" stroke="#ffffff" stroke-width="1e-7" opacity="1" class="highcharts-point"></rect><rect x="94.5" y="106.5" width="2" height="109" fill="#A0BEC8" stroke="#ffffff" stroke-width="1e-7" opacity="1" class="highcharts-point"></rect><rect x="99.5" y="97.5" width="2" height="118" fill="#A0BEC8" stroke="#ffffff" stroke-width="1e-7" opacity="1" class="highcharts-point"></rect><rect x="105.5" y="103.5" width="2" height="112" fill="#A0BEC8" stroke="#ffffff" stroke-width="1e-7" opacity="1" class="highcharts-point"></rect><rect x="110.5" y="122.5" width="2" height="93" fill="#A0BEC8" stroke="#ffffff" stroke-width="1e-7" opacity="1" class="highcharts-point"></rect><rect x="116.5" y="117.5" width="2" height="98" fill="#A0BEC8" stroke="#ffffff" stroke-width="1e-7" opacity="1" class="highcharts-point"></rect><rect x="121.5" y="113.5" width="2" height="102" fill="#A0BEC8" stroke="#ffffff" stroke-width="1e-7" opacity="1" class="highcharts-point"></rect><rect x="127.5" y="109.5" width="2" height="106" fill="#A0BEC8" stroke="#ffffff" stroke-width="1e-7" opacity="1" class="highcharts-point"></rect><rect x="132.5" y="103.5" width="2" height="112" fill="#A0BEC8" stroke="#ffffff" stroke-width="1e-7" opacity="1" class="highcharts-point"></rect><rect x="138.5" y="98.5" width="2" height="117" fill="#A0BEC8" stroke="#ffffff" stroke-width="1e-7" opacity="1" class="highcharts-point"></rect><rect x="143.5" y="103.5" width="2" height="112" fill="#A0BEC8" stroke="#ffffff" stroke-width="1e-7" opacity="1" class="highcharts-point"></rect><rect x="149.5" y="107.5" width="2" height="108" fill="#A0BEC8" stroke="#ffffff" stroke-width="1e-7" opacity="1" class="highcharts-point"></rect><rect x="154.5" y="96.5" width="2" height="119" fill="#A0BEC8" stroke="#ffffff" stroke-width="1e-7" opacity="1" class="highcharts-point"></rect><rect x="160.5" y="94.5" width="2" height="121" fill="#A0BEC8" stroke="#ffffff" stroke-width="1e-7" opacity="1" class="highcharts-point"></rect><rect x="165.5" y="91.5" width="2" height="124" fill="#A0BEC8" stroke="#ffffff" stroke-width="1e-7" opacity="1" class="highcharts-point"></rect><rect x="171.5" y="83.5" width="2" height="132" fill="#A0BEC8" stroke="#ffffff" stroke-width="1e-7" opacity="1" class="highcharts-point"></rect><rect x="176.5" y="83.5" width="2" height="132" fill="#A0BEC8" stroke="#ffffff" stroke-width="1e-7" opacity="1" class="highcharts-point"></rect><rect x="182.5" y="75.5" width="2" height="140" fill="#A0BEC8" stroke="#ffffff" stroke-width="1e-7" opacity="1" class="highcharts-point"></rect><rect x="188.5" y="67.5" width="2" height="148" fill="#A0BEC8" stroke="#ffffff" stroke-width="1e-7" opacity="1" class="highcharts-point"></rect><rect x="193.5" y="64.5" width="2" height="151" fill="#A0BEC8" stroke="#ffffff" stroke-width="1e-7" opacity="1" class="highcharts-point"></rect><rect x="199.5" y="67.5" width="2" height="148" fill="#A0BEC8" stroke="#ffffff" stroke-width="1e-7" opacity="1" class="highcharts-point"></rect><rect x="204.5" y="74.5" width="2" height="141" fill="#A0BEC8" stroke="#ffffff" stroke-width="1e-7" opacity="1" class="highcharts-point"></rect><rect x="210.5" y="79.5" width="2" height="136" fill="#A0BEC8" stroke="#ffffff" stroke-width="1e-7" opacity="1" class="highcharts-point"></rect><rect x="215.5" y="71.5" width="2" height="144" fill="#A0BEC8" stroke="#ffffff" stroke-width="1e-7" opacity="1" class="highcharts-point"></rect><rect x="221.5" y="73.5" width="2" height="142" fill="#A0BEC8" stroke="#ffffff" stroke-width="1e-7" opacity="1" class="highcharts-point"></rect><rect x="226.5" y="75.5" width="2" height="140" fill="#A0BEC8" stroke="#ffffff" stroke-width="1e-7" opacity="1" class="highcharts-point"></rect><rect x="232.5" y="60.5" width="2" height="155" fill="#A0BEC8" stroke="#ffffff" stroke-width="1e-7" opacity="1" class="highcharts-point"></rect><rect x="237.5" y="60.5" width="2" height="155" fill="#A0BEC8" stroke="#ffffff" stroke-width="1e-7" opacity="1" class="highcharts-point"></rect><rect x="243.5" y="58.5" width="2" height="157" fill="#A0BEC8" stroke="#ffffff" stroke-width="1e-7" opacity="1" class="highcharts-point"></rect><rect x="248.5" y="46.5" width="2" height="169" fill="#A0BEC8" stroke="#ffffff" stroke-width="1e-7" opacity="1" class="highcharts-point"></rect><rect x="254.5" y="45.5" width="2" height="170" fill="#A0BEC8" stroke="#ffffff" stroke-width="1e-7" opacity="1" class="highcharts-point"></rect><rect x="259.5" y="46.5" width="2" height="169" fill="#A0BEC8" stroke="#ffffff" stroke-width="1e-7" opacity="1" class="highcharts-point"></rect><rect x="265.5" y="44.5" width="2" height="171" fill="#A0BEC8" stroke="#ffffff" stroke-width="1e-7" opacity="1" class="highcharts-point"></rect><rect x="270.5" y="38.5" width="2" height="177" fill="#A0BEC8" stroke="#ffffff" stroke-width="1e-7" opacity="1" class="highcharts-point"></rect><rect x="276.5" y="36.5" width="2" height="179" fill="#A0BEC8" stroke="#ffffff" stroke-width="1e-7" opacity="1" class="highcharts-point"></rect><rect x="281.5" y="25.5" width="2" height="190" fill="#A0BEC8" stroke="#ffffff" stroke-width="1e-7" opacity="1" class="highcharts-point"></rect><rect x="287.5" y="23.5" width="2" height="192" fill="#A0BEC8" stroke="#ffffff" stroke-width="1e-7" opacity="1" class="highcharts-point"></rect><rect x="292.5" y="21.5" width="2" height="194" fill="#A0BEC8" stroke="#ffffff" stroke-width="1e-7" opacity="1" class="highcharts-point"></rect><rect x="298.5" y="34.5" width="2" height="181" fill="#A0BEC8" stroke="#ffffff" stroke-width="1e-7" opacity="1" class="highcharts-point"></rect><rect x="303.5" y="24.5" width="2" height="191" fill="#A0BEC8" stroke="#ffffff" stroke-width="1e-7" opacity="1" class="highcharts-point"></rect><rect x="309.5" y="18.5" width="2" height="197" fill="#A0BEC8" stroke="#ffffff" stroke-width="1e-7" opacity="1" class="highcharts-point"></rect><rect x="314.5" y="21.5" width="2" height="194" fill="#A0BEC8" stroke="#ffffff" stroke-width="1e-7" opacity="1" class="highcharts-point"></rect><rect x="320.5" y="14.5" width="2" height="201" fill="#A0BEC8" stroke="#ffffff" stroke-width="1e-7" opacity="1" class="highcharts-point"></rect><rect x="325.5" y="14.5" width="2" height="201" fill="#A0BEC8" stroke="#ffffff" stroke-width="1e-7" opacity="1" class="highcharts-point"></rect><rect x="331.5" y="13.5" width="2" height="202" fill="#A0BEC8" stroke="#ffffff" stroke-width="1e-7" opacity="1" class="highcharts-point"></rect><rect x="336.5" y="13.5" width="2" height="202" fill="#A0BEC8" stroke="#ffffff" stroke-width="1e-7" opacity="1" class="highcharts-point"></rect><rect x="342.5" y="7.5" width="2" height="208" fill="#A0BEC8" stroke="#ffffff" stroke-width="1e-7" opacity="1" class="highcharts-point"></rect><rect x="347.5" y="11.5" width="2" height="204" fill="#A0BEC8" stroke="#ffffff" stroke-width="1e-7" opacity="1" class="highcharts-point"></rect><rect x="353.5" y="12.5" width="2" height="203" fill="#A0BEC8" stroke="#ffffff" stroke-width="1e-7" opacity="1" class="highcharts-point"></rect><rect x="358.5" y="26.5" width="2" height="189" fill="#A0BEC8" stroke="#ffffff" stroke-width="1e-7" opacity="1" class="highcharts-point"></rect><rect x="364.5" y="20.5" width="2" height="195" fill="#A0BEC8" stroke="#ffffff" stroke-width="1e-7" opacity="1" class="highcharts-point"></rect><rect x="369.5" y="18.5" width="2" height="197" fill="#A0BEC8" stroke="#ffffff" stroke-width="1e-7" opacity="1" class="highcharts-point"></rect><rect x="375.5" y="31.5" width="2" height="184" fill="#A0BEC8" stroke="#ffffff" stroke-width="1e-7" opacity="1" class="highcharts-point"></rect></g><g class="highcharts-markers highcharts-series-0 highcharts-column-series" data-z-index="0.1" opacity="1" transform="translate(58,141) scale(1 1)" clip-path="none"></g><g class="highcharts-series highcharts-series-1 highcharts-column-series" data-z-index="0.1" opacity="1" transform="translate(58,141) scale(1 1)" clip-path="url(#highcharts-jpvcx8b-286-)"><rect x="2.5" y="202.5" width="2" height="13" fill="#008AC3" stroke="#ffffff" stroke-width="1e-7" opacity="1" class="highcharts-point"></rect><rect x="7.5" y="200.5" width="2" height="15" fill="#008AC3" stroke="#ffffff" stroke-width="1e-7" opacity="1" class="highcharts-point"></rect><rect x="13.5" y="200.5" width="2" height="15" fill="#008AC3" stroke="#ffffff" stroke-width="1e-7" opacity="1" class="highcharts-point"></rect><rect x="18.5" y="201.5" width="2" height="14" fill="#008AC3" stroke="#ffffff" stroke-width="1e-7" opacity="1" class="highcharts-point"></rect><rect x="24.5" y="201.5" width="2" height="14" fill="#008AC3" stroke="#ffffff" stroke-width="1e-7" opacity="1" class="highcharts-point"></rect><rect x="29.5" y="195.5" width="2" height="20" fill="#008AC3" stroke="#ffffff" stroke-width="1e-7" opacity="1" class="highcharts-point"></rect><rect x="35.5" y="195.5" width="2" height="20" fill="#008AC3" stroke="#ffffff" stroke-width="1e-7" opacity="1" class="highcharts-point"></rect><rect x="40.5" y="195.5" width="2" height="20" fill="#008AC3" stroke="#ffffff" stroke-width="1e-7" opacity="1" class="highcharts-point"></rect><rect x="46.5" y="191.5" width="2" height="24" fill="#008AC3" stroke="#ffffff" stroke-width="1e-7" opacity="1" class="highcharts-point"></rect><rect x="51.5" y="193.5" width="2" height="22" fill="#008AC3" stroke="#ffffff" stroke-width="1e-7" opacity="1" class="highcharts-point"></rect><rect x="57.5" y="190.5" width="2" height="25" fill="#008AC3" stroke="#ffffff" stroke-width="1e-7" opacity="1" class="highcharts-point"></rect><rect x="62.5" y="191.5" width="2" height="24" fill="#008AC3" stroke="#ffffff" stroke-width="1e-7" opacity="1" class="highcharts-point"></rect><rect x="68.5" y="192.5" width="2" height="23" fill="#008AC3" stroke="#ffffff" stroke-width="1e-7" opacity="1" class="highcharts-point"></rect><rect x="74.5" y="193.5" width="2" height="22" fill="#008AC3" stroke="#ffffff" stroke-width="1e-7" opacity="1" class="highcharts-point"></rect><rect x="79.5" y="192.5" width="2" height="23" fill="#008AC3" stroke="#ffffff" stroke-width="1e-7" opacity="1" class="highcharts-point"></rect><rect x="85.5" y="189.5" width="2" height="26" fill="#008AC3" stroke="#ffffff" stroke-width="1e-7" opacity="1" class="highcharts-point"></rect><rect x="90.5" y="191.5" width="2" height="24" fill="#008AC3" stroke="#ffffff" stroke-width="1e-7" opacity="1" class="highcharts-point"></rect><rect x="96.5" y="192.5" width="2" height="23" fill="#008AC3" stroke="#ffffff" stroke-width="1e-7" opacity="1" class="highcharts-point"></rect><rect x="101.5" y="191.5" width="2" height="24" fill="#008AC3" stroke="#ffffff" stroke-width="1e-7" opacity="1" class="highcharts-point"></rect><rect x="107.5" y="188.5" width="2" height="27" fill="#008AC3" stroke="#ffffff" stroke-width="1e-7" opacity="1" class="highcharts-point"></rect><rect x="112.5" y="192.5" width="2" height="23" fill="#008AC3" stroke="#ffffff" stroke-width="1e-7" opacity="1" class="highcharts-point"></rect><rect x="118.5" y="191.5" width="2" height="24" fill="#008AC3" stroke="#ffffff" stroke-width="1e-7" opacity="1" class="highcharts-point"></rect><rect x="123.5" y="189.5" width="2" height="26" fill="#008AC3" stroke="#ffffff" stroke-width="1e-7" opacity="1" class="highcharts-point"></rect><rect x="129.5" y="190.5" width="2" height="25" fill="#008AC3" stroke="#ffffff" stroke-width="1e-7" opacity="1" class="highcharts-point"></rect><rect x="134.5" y="190.5" width="2" height="25" fill="#008AC3" stroke="#ffffff" stroke-width="1e-7" opacity="1" class="highcharts-point"></rect><rect x="140.5" y="189.5" width="2" height="26" fill="#008AC3" stroke="#ffffff" stroke-width="1e-7" opacity="1" class="highcharts-point"></rect><rect x="145.5" y="191.5" width="2" height="24" fill="#008AC3" stroke="#ffffff" stroke-width="1e-7" opacity="1" class="highcharts-point"></rect><rect x="151.5" y="194.5" width="2" height="21" fill="#008AC3" stroke="#ffffff" stroke-width="1e-7" opacity="1" class="highcharts-point"></rect><rect x="156.5" y="192.5" width="2" height="23" fill="#008AC3" stroke="#ffffff" stroke-width="1e-7" opacity="1" class="highcharts-point"></rect><rect x="162.5" y="190.5" width="2" height="25" fill="#008AC3" stroke="#ffffff" stroke-width="1e-7" opacity="1" class="highcharts-point"></rect><rect x="167.5" y="192.5" width="2" height="23" fill="#008AC3" stroke="#ffffff" stroke-width="1e-7" opacity="1" class="highcharts-point"></rect><rect x="173.5" y="189.5" width="2" height="26" fill="#008AC3" stroke="#ffffff" stroke-width="1e-7" opacity="1" class="highcharts-point"></rect><rect x="178.5" y="191.5" width="2" height="24" fill="#008AC3" stroke="#ffffff" stroke-width="1e-7" opacity="1" class="highcharts-point"></rect><rect x="184.5" y="191.5" width="2" height="24" fill="#008AC3" stroke="#ffffff" stroke-width="1e-7" opacity="1" class="highcharts-point"></rect><rect x="189.5" y="190.5" width="2" height="25" fill="#008AC3" stroke="#ffffff" stroke-width="1e-7" opacity="1" class="highcharts-point"></rect><rect x="195.5" y="189.5" width="2" height="26" fill="#008AC3" stroke="#ffffff" stroke-width="1e-7" opacity="1" class="highcharts-point"></rect><rect x="200.5" y="191.5" width="2" height="24" fill="#008AC3" stroke="#ffffff" stroke-width="1e-7" opacity="1" class="highcharts-point"></rect><rect x="206.5" y="191.5" width="2" height="24" fill="#008AC3" stroke="#ffffff" stroke-width="1e-7" opacity="1" class="highcharts-point"></rect><rect x="211.5" y="191.5" width="2" height="24" fill="#008AC3" stroke="#ffffff" stroke-width="1e-7" opacity="1" class="highcharts-point"></rect><rect x="217.5" y="191.5" width="2" height="24" fill="#008AC3" stroke="#ffffff" stroke-width="1e-7" opacity="1" class="highcharts-point"></rect><rect x="222.5" y="192.5" width="2" height="23" fill="#008AC3" stroke="#ffffff" stroke-width="1e-7" opacity="1" class="highcharts-point"></rect><rect x="228.5" y="194.5" width="2" height="21" fill="#008AC3" stroke="#ffffff" stroke-width="1e-7" opacity="1" class="highcharts-point"></rect><rect x="233.5" y="193.5" width="2" height="22" fill="#008AC3" stroke="#ffffff" stroke-width="1e-7" opacity="1" class="highcharts-point"></rect><rect x="239.5" y="192.5" width="2" height="23" fill="#008AC3" stroke="#ffffff" stroke-width="1e-7" opacity="1" class="highcharts-point"></rect><rect x="244.5" y="194.5" width="2" height="21" fill="#008AC3" stroke="#ffffff" stroke-width="1e-7" opacity="1" class="highcharts-point"></rect><rect x="250.5" y="191.5" width="2" height="24" fill="#008AC3" stroke="#ffffff" stroke-width="1e-7" opacity="1" class="highcharts-point"></rect><rect x="255.5" y="190.5" width="2" height="25" fill="#008AC3" stroke="#ffffff" stroke-width="1e-7" opacity="1" class="highcharts-point"></rect><rect x="261.5" y="191.5" width="2" height="24" fill="#008AC3" stroke="#ffffff" stroke-width="1e-7" opacity="1" class="highcharts-point"></rect><rect x="266.5" y="194.5" width="2" height="21" fill="#008AC3" stroke="#ffffff" stroke-width="1e-7" opacity="1" class="highcharts-point"></rect><rect x="272.5" y="194.5" width="2" height="21" fill="#008AC3" stroke="#ffffff" stroke-width="1e-7" opacity="1" class="highcharts-point"></rect><rect x="277.5" y="194.5" width="2" height="21" fill="#008AC3" stroke="#ffffff" stroke-width="1e-7" opacity="1" class="highcharts-point"></rect><rect x="283.5" y="196.5" width="2" height="19" fill="#008AC3" stroke="#ffffff" stroke-width="1e-7" opacity="1" class="highcharts-point"></rect><rect x="288.5" y="195.5" width="2" height="20" fill="#008AC3" stroke="#ffffff" stroke-width="1e-7" opacity="1" class="highcharts-point"></rect><rect x="294.5" y="194.5" width="2" height="21" fill="#008AC3" stroke="#ffffff" stroke-width="1e-7" opacity="1" class="highcharts-point"></rect><rect x="299.5" y="197.5" width="2" height="18" fill="#008AC3" stroke="#ffffff" stroke-width="1e-7" opacity="1" class="highcharts-point"></rect><rect x="305.5" y="196.5" width="2" height="19" fill="#008AC3" stroke="#ffffff" stroke-width="1e-7" opacity="1" class="highcharts-point"></rect><rect x="310.5" y="199.5" width="2" height="16" fill="#008AC3" stroke="#ffffff" stroke-width="1e-7" opacity="1" class="highcharts-point"></rect><rect x="316.5" y="194.5" width="2" height="21" fill="#008AC3" stroke="#ffffff" stroke-width="1e-7" opacity="1" class="highcharts-point"></rect><rect x="321.5" y="195.5" width="2" height="20" fill="#008AC3" stroke="#ffffff" stroke-width="1e-7" opacity="1" class="highcharts-point"></rect><rect x="327.5" y="198.5" width="2" height="17" fill="#008AC3" stroke="#ffffff" stroke-width="1e-7" opacity="1" class="highcharts-point"></rect><rect x="332.5" y="197.5" width="2" height="18" fill="#008AC3" stroke="#ffffff" stroke-width="1e-7" opacity="1" class="highcharts-point"></rect><rect x="338.5" y="198.5" width="2" height="17" fill="#008AC3" stroke="#ffffff" stroke-width="1e-7" opacity="1" class="highcharts-point"></rect><rect x="343.5" y="198.5" width="2" height="17" fill="#008AC3" stroke="#ffffff" stroke-width="1e-7" opacity="1" class="highcharts-point"></rect><rect x="349.5" y="202.5" width="2" height="13" fill="#008AC3" stroke="#ffffff" stroke-width="1e-7" opacity="1" class="highcharts-point"></rect><rect x="354.5" y="198.5" width="2" height="17" fill="#008AC3" stroke="#ffffff" stroke-width="1e-7" opacity="1" class="highcharts-point"></rect><rect x="360.5" y="200.5" width="2" height="15" fill="#008AC3" stroke="#ffffff" stroke-width="1e-7" opacity="1" class="highcharts-point"></rect><rect x="365.5" y="199.5" width="2" height="16" fill="#008AC3" stroke="#ffffff" stroke-width="1e-7" opacity="1" class="highcharts-point"></rect><rect x="371.5" y="202.5" width="2" height="13" fill="#008AC3" stroke="#ffffff" stroke-width="1e-7" opacity="1" class="highcharts-point"></rect><rect x="376.5" y="201.5" width="2" height="14" fill="#008AC3" stroke="#ffffff" stroke-width="1e-7" opacity="1" class="highcharts-point"></rect></g><g class="highcharts-markers highcharts-series-1 highcharts-column-series" data-z-index="0.1" opacity="1" transform="translate(58,141) scale(1 1)" clip-path="none"></g><g class="highcharts-series highcharts-series-2 highcharts-line-series" data-z-index="1" opacity="1" transform="translate(58,141) scale(1 1)" clip-path="url(#highcharts-jpvcx8b-425-)"><path fill="none" d="M 2.7536231884058 52.988621531999996 L 8.2608695652174 53.51640473600003 L 13.768115942029 53.432009109000006 L 19.275362318841 52.72939044200001 L 24.782608695652 64.93741272700001 L 30.289855072464 37.995499824999996 L 35.797101449275 57.94581878299999 L 41.304347826087 67.48542851000002 L 46.811594202899 60.55740550799999 L 52.31884057971 79.254054005 L 57.826086956522 66.51141555799998 L 63.333333333333 70.954413563 L 68.840579710145 85.50533225699999 L 74.347826086957 97.17608644100001 L 79.855072463768 103.55773342600001 L 85.36231884058 102.733752032 L 90.869565217391 114.47529758900001 L 96.376811594203 125.718413763 L 101.88405797101 126.594071267 L 107.39130434783 112.28510432800002 L 112.89855072464 106.591567208 L 118.40579710145 110.69552457500001 L 123.91304347826 106.040550115 L 129.42028985507 113.89945616600001 L 134.92753623188 120.682296505 L 140.4347826087 119.621203307 L 145.94202898551 121.37358738100001 L 151.44927536232 131.005603119 L 156.95652173913 130.34375258 L 162.46376811594 126.00605104 L 167.97101449275 134.786306051 L 173.47826086957 130.825057815 L 178.98550724638 138.143356987 L 184.49275362319 140.371621201 L 190 141.45138241900003 L 195.50724637681 140.060468643 L 201.01449275362 145.533570692 L 206.52173913043 140.437134668 L 212.02898550725 139.97212763700003 L 217.53623188406 144.684887174 L 223.04347826087 145.148344098 L 228.55072463768 152.138683087 L 234.05797101449 152.735588103 L 239.5652173913 150.373452548 L 245.07246376812 156.401314582 L 250.57971014493 152.650636185 L 256.08695652174 152.283345579 L 261.59420289855 154.93986029500002 L 267.10144927536 163.222314798 L 272.60869565217 164.612578328 L 278.11594202899 164.85978537100002 L 283.6231884058 171.314090574 L 289.13043478261 169.25250717400002 L 294.63768115942 169.227960108 L 300.14492753623 171.115607433 L 305.65217391304 172.9382854861 L 311.15942028986 179.4842584245 L 316.66666666667 169.23536806200002 L 322.17391304348 173.1143666634 L 327.68115942029 178.350798312 L 333.1884057971 176.2582086827 L 338.69565217391 179.0349602739 L 344.20289855072 180.7414187225 L 349.71014492754 186.5490536249 L 355.21739130435 178.1850766904 L 360.72463768116 181.6265830879 L 366.23188405797 180.8496957884 L 371.73913043478 186.2526817063 L 377.24637681159 181.7582348936" class="highcharts-graph" data-z-index="1" stroke="#FF8028" stroke-width="2" stroke-linejoin="round" stroke-linecap="round"></path></g><g class="highcharts-markers highcharts-series-2 highcharts-line-series" data-z-index="1" opacity="1" transform="translate(58,141) scale(1 1)" clip-path="none"></g></g><text x="10" text-anchor="start" class="highcharts-title" data-z-index="4" style="color:#000000;font-size:14px;font-weight:bold;fill:#000000;" y="21"><tspan>Aussenhandel der Schweiz und Schiffsgüterverkehr auf</tspan><tspan dy="17" x="10">dem Rhein</tspan></text><text x="10" text-anchor="start" class="highcharts-subtitle" data-z-index="4" style="color:#000000;font-size:12px;font-weight:normal;fill:#000000;" y="57"></text><text x="10" text-anchor="start" class="highcharts-caption" data-z-index="4" style="color:#666666;fill:#666666;" y="390"></text><g class="highcharts-legend" data-z-index="7" transform="translate(50,58)"><rect fill="none" class="highcharts-legend-box" rx="0" ry="0" x="0" y="0" width="368" height="71" visibility="visible"></rect><g data-z-index="1"><g><g class="highcharts-legend-item highcharts-column-series highcharts-color-undefined highcharts-series-0" data-z-index="1" transform="translate(8,3)"><text x="21" style="color:#333333;cursor:pointer;font-size:12px;font-weight:normal;white-space:nowrap;fill:#333333;" text-anchor="start" data-z-index="2" y="15"><tspan>Gesamtimporte und -exporte Schweiz  (in Tausend Tonnen)</tspan></text><rect x="2" y="4" width="12" height="12" fill="#A0BEC8" class="highcharts-point" data-z-index="3"></rect></g><g class="highcharts-legend-item highcharts-column-series highcharts-color-undefined highcharts-series-1" data-z-index="1" transform="translate(8,23)"><text x="21" y="15" style="color:#333333;cursor:pointer;font-size:12px;font-weight:normal;white-space:nowrap;fill:#333333;" text-anchor="start" data-z-index="2"><tspan>Importe und Exporte über den Rhein  (in Tausend Tonnen)</tspan></text><rect x="2" y="4" width="12" height="12" fill="#008AC3" class="highcharts-point" data-z-index="3"></rect></g><g class="highcharts-legend-item highcharts-line-series highcharts-color-undefined highcharts-series-2" data-z-index="1" transform="translate(8,43)"><path fill="none" d="M 0 11 L 16 11" class="highcharts-graph" stroke="#FF8028" stroke-width="2"></path><text x="21" y="15" style="color:#333333;cursor:pointer;font-size:12px;font-weight:normal;white-space:nowrap;fill:#333333;" text-anchor="start" data-z-index="2"><tspan>Anteil der Importe und Exporte über den Rhein (rechte Skala)</tspan></text></g></g></g></g><g class="highcharts-axis-labels highcharts-xaxis-labels" data-z-index="7"><text x="71.7681159420292" style="color:#000000;cursor:default;font-size:11px;fill:#000000;" text-anchor="middle" transform="translate(0,0)" y="375" opacity="1">1957</text><text x="104.8115942028942" style="color:#000000;cursor:default;font-size:11px;fill:#000000;" text-anchor="middle" transform="translate(0,0)" y="375" opacity="1">1963</text><text x="137.8550724637642" style="color:#000000;cursor:default;font-size:11px;fill:#000000;" text-anchor="middle" transform="translate(0,0)" y="375" opacity="1">1969</text><text x="170.89855072463422" style="color:#000000;cursor:default;font-size:11px;fill:#000000;" text-anchor="middle" transform="translate(0,0)" y="375" opacity="1">1975</text><text x="203.94202898550418" style="color:#000000;cursor:default;font-size:11px;fill:#000000;" text-anchor="middle" transform="translate(0,0)" y="375" opacity="1">1981</text><text x="236.9855072463742" style="color:#000000;cursor:default;font-size:11px;fill:#000000;" text-anchor="middle" transform="translate(0,0)" y="375" opacity="1">1987</text><text x="270.0289855072442" style="color:#000000;cursor:default;font-size:11px;fill:#000000;" text-anchor="middle" transform="translate(0,0)" y="375" opacity="1">1993</text><text x="303.0724637681142" style="color:#000000;cursor:default;font-size:11px;fill:#000000;" text-anchor="middle" transform="translate(0,0)" y="375" opacity="1">1999</text><text x="336.1159420289842" style="color:#000000;cursor:default;font-size:11px;fill:#000000;" text-anchor="middle" transform="translate(0,0)" y="375" opacity="1">2005</text><text x="369.1594202898542" style="color:#000000;cursor:default;font-size:11px;fill:#000000;" text-anchor="middle" transform="translate(0,0)" y="375" opacity="1">2011</text><text x="402.20289855072417" style="color:#000000;cursor:default;font-size:11px;fill:#000000;" text-anchor="middle" transform="translate(0,0)" y="375" opacity="1">2017</text><text x="435.2463768115942" style="color:#000000;cursor:default;font-size:11px;fill:#000000;" text-anchor="middle" transform="translate(0,0)" y="375" opacity="1">2023</text></g><g class="highcharts-axis-labels highcharts-yaxis-labels" data-z-index="7"><text x="43" style="color:black;cursor:default;font-size:11px;fill:black;" text-anchor="end" transform="translate(0,0)" y="360" opacity="1">0</text><text x="43" style="color:black;cursor:default;font-size:11px;fill:black;" text-anchor="end" transform="translate(0,0)" y="317" opacity="1"><tspan>15 000</tspan></text><text x="43" style="color:black;cursor:default;font-size:11px;fill:black;" text-anchor="end" transform="translate(0,0)" y="274" opacity="1"><tspan>30 000</tspan></text><text x="43" style="color:black;cursor:default;font-size:11px;fill:black;" text-anchor="end" transform="translate(0,0)" y="231" opacity="1"><tspan>45 000</tspan></text><text x="43" style="color:black;cursor:default;font-size:11px;fill:black;" text-anchor="end" transform="translate(0,0)" y="188" opacity="1"><tspan>60 000</tspan></text><text x="43" style="color:black;cursor:default;font-size:11px;fill:black;" text-anchor="end" transform="translate(0,0)" y="145" opacity="1"><tspan>75 000</tspan></text></g><g class="highcharts-axis-labels highcharts-yaxis-labels" data-z-index="7"><text x="453" style="color:black;cursor:default;font-size:11px;fill:black;" text-anchor="start" transform="translate(0,0)" y="360" opacity="1">0%</text><text x="453" style="color:black;cursor:default;font-size:11px;fill:black;" text-anchor="start" transform="translate(0,0)" y="317" opacity="1">10%</text><text x="453" style="color:black;cursor:default;font-size:11px;fill:black;" text-anchor="start" transform="translate(0,0)" y="274" opacity="1">20%</text><text x="453" style="color:black;cursor:default;font-size:11px;fill:black;" text-anchor="start" transform="translate(0,0)" y="231" opacity="1">30%</text><text x="453" style="color:black;cursor:default;font-size:11px;fill:black;" text-anchor="start" transform="translate(0,0)" y="188" opacity="1">40%</text><text x="453" style="color:black;cursor:default;font-size:11px;fill:black;" text-anchor="start" transform="translate(0,0)" y="145" opacity="1">50%</text></g><text x="10" class="highcharts-credits" text-anchor="start" data-z-index="8" style="cursor:default;color:#000000;font-size:10px;fill:#000000;" y="393"><tspan>Quelle: Schweizerische Rheinhäfen;</tspan><tspan x="10" dy="13">Bundesamt für Zoll und Grenzsicherheit (BAZG).</tspan><tspan x="10" dy="13">Zuletzt geändert: 18.3.2024</tspan></text><g class="highcharts-control-points" data-z-index="99" clip-path="url(#highcharts-jpvcx8b-426-)"></g></svg>