<svg version="1.1" class="highcharts-root" style="font-family: Inter, &quot;Helvetica Neue&quot;, Helvetica, Arial, sans-serif; font-size: 1rem;" xmlns="http://www.w3.org/2000/svg" width="600" height="400" viewBox="0 0 600 400" role="img" aria-label="Wasserseitiger Containerumschlag"><desc>Created with Highcharts 12.5.0</desc><defs><filter id="highcharts-drop-shadow-0"><feDropShadow dx="1" dy="1" flood-color="#000000" flood-opacity="0.75" stdDeviation="2.5"></feDropShadow></filter><clipPath id="highcharts-ckgpbi7-56-"><rect x="0" y="0" width="509" height="230" fill="none"></rect></clipPath></defs><rect fill="#ffffff" class="highcharts-background" filter="none" x="0" y="0" width="600" height="400" rx="0" ry="0"></rect><rect fill="none" class="highcharts-plot-background" x="71" y="100" width="509" height="230" filter="none"></rect><g class="highcharts-pane-group" data-z-index="0"></g><g class="highcharts-grid highcharts-xaxis-grid" data-z-index="1"><path fill="none" stroke="#e6e6e6" stroke-width="0" stroke-dasharray="none" data-z-index="1" class="highcharts-grid-line" d="M 87.5 100 L 87.5 330" opacity="1"></path><path fill="none" stroke="#e6e6e6" stroke-width="0" stroke-dasharray="none" data-z-index="1" class="highcharts-grid-line" d="M 131.5 100 L 131.5 330" opacity="1"></path><path fill="none" stroke="#e6e6e6" stroke-width="0" stroke-dasharray="none" data-z-index="1" class="highcharts-grid-line" d="M 176.5 100 L 176.5 330" opacity="1"></path><path fill="none" stroke="#e6e6e6" stroke-width="0" stroke-dasharray="none" data-z-index="1" class="highcharts-grid-line" d="M 220.5 100 L 220.5 330" opacity="1"></path><path fill="none" stroke="#e6e6e6" stroke-width="0" stroke-dasharray="none" data-z-index="1" class="highcharts-grid-line" d="M 264.5 100 L 264.5 330" opacity="1"></path><path fill="none" stroke="#e6e6e6" stroke-width="0" stroke-dasharray="none" data-z-index="1" class="highcharts-grid-line" d="M 308.5 100 L 308.5 330" opacity="1"></path><path fill="none" stroke="#e6e6e6" stroke-width="0" stroke-dasharray="none" data-z-index="1" class="highcharts-grid-line" d="M 353.5 100 L 353.5 330" opacity="1"></path><path fill="none" stroke="#e6e6e6" stroke-width="0" stroke-dasharray="none" data-z-index="1" class="highcharts-grid-line" d="M 397.5 100 L 397.5 330" opacity="1"></path><path fill="none" stroke="#e6e6e6" stroke-width="0" stroke-dasharray="none" data-z-index="1" class="highcharts-grid-line" d="M 441.5 100 L 441.5 330" opacity="1"></path><path fill="none" stroke="#e6e6e6" stroke-width="0" stroke-dasharray="none" data-z-index="1" class="highcharts-grid-line" d="M 485.5 100 L 485.5 330" opacity="1"></path><path fill="none" stroke="#e6e6e6" stroke-width="0" stroke-dasharray="none" data-z-index="1" class="highcharts-grid-line" d="M 530.5 100 L 530.5 330" opacity="1"></path><path fill="none" stroke="#e6e6e6" stroke-width="0" stroke-dasharray="none" data-z-index="1" class="highcharts-grid-line" d="M 574.5 100 L 574.5 330" opacity="1"></path></g><g class="highcharts-grid highcharts-yaxis-grid" data-z-index="1"><path fill="none" stroke="#B9CFD7" stroke-width="0.5" stroke-dasharray="none" data-z-index="1" class="highcharts-grid-line" d="M 71 330.25 L 580 330.25" opacity="1"></path><path fill="none" stroke="#B9CFD7" stroke-width="0.5" stroke-dasharray="none" data-z-index="1" class="highcharts-grid-line" d="M 71 297.25 L 580 297.25" opacity="1"></path><path fill="none" stroke="#B9CFD7" stroke-width="0.5" stroke-dasharray="none" data-z-index="1" class="highcharts-grid-line" d="M 71 264.25 L 580 264.25" opacity="1"></path><path fill="none" stroke="#B9CFD7" stroke-width="0.5" stroke-dasharray="none" data-z-index="1" class="highcharts-grid-line" d="M 71 231.25 L 580 231.25" opacity="1"></path><path fill="none" stroke="#B9CFD7" stroke-width="0.5" stroke-dasharray="none" data-z-index="1" class="highcharts-grid-line" d="M 71 198.25 L 580 198.25" opacity="1"></path><path fill="none" stroke="#B9CFD7" stroke-width="0.5" stroke-dasharray="none" data-z-index="1" class="highcharts-grid-line" d="M 71 165.25 L 580 165.25" opacity="1"></path><path fill="none" stroke="#B9CFD7" stroke-width="0.5" stroke-dasharray="none" data-z-index="1" class="highcharts-grid-line" d="M 71 133.25 L 580 133.25" opacity="1"></path><path fill="none" stroke="#B9CFD7" stroke-width="0.5" stroke-dasharray="none" data-z-index="1" class="highcharts-grid-line" d="M 71 100.25 L 580 100.25" opacity="1"></path></g><rect fill="none" class="highcharts-plot-border" data-z-index="1" stroke="#cccccc" stroke-width="0" x="71" y="100" width="509" height="230"></rect><g class="highcharts-axis highcharts-xaxis" data-z-index="2"><path fill="none" class="highcharts-axis-line" stroke="#B9CFD7" stroke-width="0.5" data-z-index="7" d="M 71 330.25 L 580 330.25"></path></g><g class="highcharts-axis highcharts-yaxis" data-z-index="2"><path fill="none" class="highcharts-axis-line" stroke="#B9CFD7" stroke-width="0" data-z-index="7" d="M 71 100 L 71 330"></path></g><g class="highcharts-series-group" data-z-index="3" filter="none"><g class="highcharts-series highcharts-series-0 highcharts-column-series highcharts-tracker" data-z-index="0.1" opacity="1" transform="translate(71,100) scale(1 1)" clip-path="url(#highcharts-ckgpbi7-56-)"><path fill="#68AB2B" d="M 3.5000000499999997 230.00000005 L 3.5000000499999997 230.00000005 A 1.4999999999999998 1.4999999999999998 0 0 1 3.5000000499999997 230.00000005 L 3.5000000499999997 230.00000005 A 0 0 0 0 1 3.5000000499999997 230.00000005 L 3.5000000499999997 230.00000005 A 0 0 0 0 1 3.5000000499999997 230.00000005 L 3.5000000499999997 230.00000005 A 1.4999999999999998 1.4999999999999998 0 0 1 3.5000000499999997 230.00000005 Z" stroke="#ffffff" stroke-width="1e-7" opacity="1" filter="none" class="highcharts-point"></path><path fill="#68AB2B" d="M 14.50000005 230.00000005 L 14.50000005 230.00000005 A 1.5 1.5 0 0 1 14.50000005 230.00000005 L 14.50000005 230.00000005 A 0 0 0 0 1 14.50000005 230.00000005 L 14.50000005 230.00000005 A 0 0 0 0 1 14.50000005 230.00000005 L 14.50000005 230.00000005 A 1.5 1.5 0 0 1 14.50000005 230.00000005 Z" stroke="#ffffff" stroke-width="1e-7" opacity="1" filter="none" class="highcharts-point"></path><path fill="#68AB2B" d="M 25.50000005 229.00000005 L 25.50000005 229.00000005 A 1.5 1.5 0 0 1 26.914213612373096 230.00000005 L 26.914213612373096 230.00000005 A 0 0 0 0 1 26.914213612373096 230.00000005 L 26.914213612373096 230.00000005 A 0 0 0 0 1 24.085786487626905 230.00000005 L 24.085786487626905 230.00000005 A 1.5 1.5 0 0 1 25.50000005 229.00000005 Z" stroke="#ffffff" stroke-width="1e-7" opacity="1" filter="none" class="highcharts-point"></path><path fill="#68AB2B" d="M 36.50000005 227.00000005 L 36.50000005 227.00000005 A 1.5 1.5 0 0 1 38.00000005 228.50000005 L 38.00000005 230.00000005 A 0 0 0 0 1 38.00000005 230.00000005 L 35.00000005 230.00000005 A 0 0 0 0 1 35.00000005 230.00000005 L 35.00000005 228.50000005 A 1.5 1.5 0 0 1 36.50000005 227.00000005 Z" stroke="#ffffff" stroke-width="1e-7" opacity="1" filter="none" class="highcharts-point"></path><path fill="#68AB2B" d="M 47.50000005 225.00000005 L 47.50000005 225.00000005 A 1.5 1.5 0 0 1 49.00000005 226.50000005 L 49.00000005 230.00000005 A 0 0 0 0 1 49.00000005 230.00000005 L 46.00000005 230.00000005 A 0 0 0 0 1 46.00000005 230.00000005 L 46.00000005 226.50000005 A 1.5 1.5 0 0 1 47.50000005 225.00000005 Z" stroke="#ffffff" stroke-width="1e-7" opacity="1" filter="none" class="highcharts-point"></path><path fill="#68AB2B" d="M 58.50000005 221.00000005 L 58.50000005 221.00000005 A 1.5 1.5 0 0 1 60.00000005 222.50000005 L 60.00000005 230.00000005 A 0 0 0 0 1 60.00000005 230.00000005 L 57.00000005 230.00000005 A 0 0 0 0 1 57.00000005 230.00000005 L 57.00000005 222.50000005 A 1.5 1.5 0 0 1 58.50000005 221.00000005 Z" stroke="#ffffff" stroke-width="1e-7" opacity="1" filter="none" class="highcharts-point"></path><path fill="#68AB2B" d="M 69.50000005 213.00000005 L 69.50000005 213.00000005 A 1.5 1.5 0 0 1 71.00000005 214.50000005 L 71.00000005 230.00000005 A 0 0 0 0 1 71.00000005 230.00000005 L 68.00000005 230.00000005 A 0 0 0 0 1 68.00000005 230.00000005 L 68.00000005 214.50000005 A 1.5 1.5 0 0 1 69.50000005 213.00000005 Z" stroke="#ffffff" stroke-width="1e-7" opacity="1" filter="none" class="highcharts-point"></path><path fill="#68AB2B" d="M 80.50000005 216.00000005 L 80.50000005 216.00000005 A 1.5 1.5 0 0 1 82.00000005 217.50000005 L 82.00000005 230.00000005 A 0 0 0 0 1 82.00000005 230.00000005 L 79.00000005 230.00000005 A 0 0 0 0 1 79.00000005 230.00000005 L 79.00000005 217.50000005 A 1.5 1.5 0 0 1 80.50000005 216.00000005 Z" stroke="#ffffff" stroke-width="1e-7" opacity="1" filter="none" class="highcharts-point"></path><path fill="#68AB2B" d="M 92.50000005 214.00000005 L 92.50000005 214.00000005 A 1.5 1.5 0 0 1 94.00000005 215.50000005 L 94.00000005 230.00000005 A 0 0 0 0 1 94.00000005 230.00000005 L 91.00000005 230.00000005 A 0 0 0 0 1 91.00000005 230.00000005 L 91.00000005 215.50000005 A 1.5 1.5 0 0 1 92.50000005 214.00000005 Z" stroke="#ffffff" stroke-width="1e-7" opacity="1" filter="none" class="highcharts-point"></path><path fill="#68AB2B" d="M 103.50000005 212.00000005 L 103.50000005 212.00000005 A 1.5 1.5 0 0 1 105.00000005 213.50000005 L 105.00000005 230.00000005 A 0 0 0 0 1 105.00000005 230.00000005 L 102.00000005 230.00000005 A 0 0 0 0 1 102.00000005 230.00000005 L 102.00000005 213.50000005 A 1.5 1.5 0 0 1 103.50000005 212.00000005 Z" stroke="#ffffff" stroke-width="1e-7" opacity="1" filter="none" class="highcharts-point"></path><path fill="#68AB2B" d="M 114.50000005 210.00000005 L 114.50000005 210.00000005 A 1.5 1.5 0 0 1 116.00000005 211.50000005 L 116.00000005 230.00000005 A 0 0 0 0 1 116.00000005 230.00000005 L 113.00000005 230.00000005 A 0 0 0 0 1 113.00000005 230.00000005 L 113.00000005 211.50000005 A 1.5 1.5 0 0 1 114.50000005 210.00000005 Z" stroke="#ffffff" stroke-width="1e-7" opacity="1" filter="none" class="highcharts-point"></path><path fill="#68AB2B" d="M 125.50000005 212.00000005 L 125.50000005 212.00000005 A 1.5 1.5 0 0 1 127.00000005 213.50000005 L 127.00000005 230.00000005 A 0 0 0 0 1 127.00000005 230.00000005 L 124.00000005 230.00000005 A 0 0 0 0 1 124.00000005 230.00000005 L 124.00000005 213.50000005 A 1.5 1.5 0 0 1 125.50000005 212.00000005 Z" stroke="#ffffff" stroke-width="1e-7" opacity="1" filter="none" class="highcharts-point"></path><path fill="#68AB2B" d="M 136.50000005 207.00000005 L 136.50000005 207.00000005 A 1.5 1.5 0 0 1 138.00000005 208.50000005 L 138.00000005 230.00000005 A 0 0 0 0 1 138.00000005 230.00000005 L 135.00000005 230.00000005 A 0 0 0 0 1 135.00000005 230.00000005 L 135.00000005 208.50000005 A 1.5 1.5 0 0 1 136.50000005 207.00000005 Z" stroke="#ffffff" stroke-width="1e-7" opacity="1" filter="none" class="highcharts-point"></path><path fill="#68AB2B" d="M 147.50000005 200.00000005 L 147.50000005 200.00000005 A 1.5 1.5 0 0 1 149.00000005 201.50000005 L 149.00000005 230.00000005 A 0 0 0 0 1 149.00000005 230.00000005 L 146.00000005 230.00000005 A 0 0 0 0 1 146.00000005 230.00000005 L 146.00000005 201.50000005 A 1.5 1.5 0 0 1 147.50000005 200.00000005 Z" stroke="#ffffff" stroke-width="1e-7" opacity="1" filter="none" class="highcharts-point"></path><path fill="#68AB2B" d="M 158.50000005 198.00000005 L 158.50000005 198.00000005 A 1.5 1.5 0 0 1 160.00000005 199.50000005 L 160.00000005 230.00000005 A 0 0 0 0 1 160.00000005 230.00000005 L 157.00000005 230.00000005 A 0 0 0 0 1 157.00000005 230.00000005 L 157.00000005 199.50000005 A 1.5 1.5 0 0 1 158.50000005 198.00000005 Z" stroke="#ffffff" stroke-width="1e-7" opacity="1" filter="none" class="highcharts-point"></path><path fill="#68AB2B" d="M 169.50000005 192.00000005 L 169.50000005 192.00000005 A 1.5 1.5 0 0 1 171.00000005 193.50000005 L 171.00000005 230.00000005 A 0 0 0 0 1 171.00000005 230.00000005 L 168.00000005 230.00000005 A 0 0 0 0 1 168.00000005 230.00000005 L 168.00000005 193.50000005 A 1.5 1.5 0 0 1 169.50000005 192.00000005 Z" stroke="#ffffff" stroke-width="1e-7" opacity="1" filter="none" class="highcharts-point"></path><path fill="#68AB2B" d="M 180.50000005 188.00000005 L 180.50000005 188.00000005 A 1.5 1.5 0 0 1 182.00000005 189.50000005 L 182.00000005 230.00000005 A 0 0 0 0 1 182.00000005 230.00000005 L 179.00000005 230.00000005 A 0 0 0 0 1 179.00000005 230.00000005 L 179.00000005 189.50000005 A 1.5 1.5 0 0 1 180.50000005 188.00000005 Z" stroke="#ffffff" stroke-width="1e-7" opacity="1" filter="none" class="highcharts-point"></path><path fill="#68AB2B" d="M 191.50000005 178.00000005 L 191.50000005 178.00000005 A 1.5 1.5 0 0 1 193.00000005 179.50000005 L 193.00000005 230.00000005 A 0 0 0 0 1 193.00000005 230.00000005 L 190.00000005 230.00000005 A 0 0 0 0 1 190.00000005 230.00000005 L 190.00000005 179.50000005 A 1.5 1.5 0 0 1 191.50000005 178.00000005 Z" stroke="#ffffff" stroke-width="1e-7" opacity="1" filter="none" class="highcharts-point"></path><path fill="#68AB2B" d="M 202.50000005 175.00000005 L 202.50000005 175.00000005 A 1.5 1.5 0 0 1 204.00000005 176.50000005 L 204.00000005 230.00000005 A 0 0 0 0 1 204.00000005 230.00000005 L 201.00000005 230.00000005 A 0 0 0 0 1 201.00000005 230.00000005 L 201.00000005 176.50000005 A 1.5 1.5 0 0 1 202.50000005 175.00000005 Z" stroke="#ffffff" stroke-width="1e-7" opacity="1" filter="none" class="highcharts-point"></path><path fill="#68AB2B" d="M 213.50000005 176.00000005 L 213.50000005 176.00000005 A 1.5 1.5 0 0 1 215.00000005 177.50000005 L 215.00000005 230.00000005 A 0 0 0 0 1 215.00000005 230.00000005 L 212.00000005 230.00000005 A 0 0 0 0 1 212.00000005 230.00000005 L 212.00000005 177.50000005 A 1.5 1.5 0 0 1 213.50000005 176.00000005 Z" stroke="#ffffff" stroke-width="1e-7" opacity="1" filter="none" class="highcharts-point"></path><path fill="#68AB2B" d="M 224.50000005 168.00000005 L 224.50000005 168.00000005 A 1.5 1.5 0 0 1 226.00000005 169.50000005 L 226.00000005 230.00000005 A 0 0 0 0 1 226.00000005 230.00000005 L 223.00000005 230.00000005 A 0 0 0 0 1 223.00000005 230.00000005 L 223.00000005 169.50000005 A 1.5 1.5 0 0 1 224.50000005 168.00000005 Z" stroke="#ffffff" stroke-width="1e-7" opacity="1" filter="none" class="highcharts-point"></path><path fill="#68AB2B" d="M 235.50000005 171.00000005 L 235.50000005 171.00000005 A 1.5 1.5 0 0 1 237.00000005 172.50000005 L 237.00000005 230.00000005 A 0 0 0 0 1 237.00000005 230.00000005 L 234.00000005 230.00000005 A 0 0 0 0 1 234.00000005 230.00000005 L 234.00000005 172.50000005 A 1.5 1.5 0 0 1 235.50000005 171.00000005 Z" stroke="#ffffff" stroke-width="1e-7" opacity="1" filter="none" class="highcharts-point"></path><path fill="#68AB2B" d="M 246.50000005 170.00000005 L 246.50000005 170.00000005 A 1.5 1.5 0 0 1 248.00000005 171.50000005 L 248.00000005 230.00000005 A 0 0 0 0 1 248.00000005 230.00000005 L 245.00000005 230.00000005 A 0 0 0 0 1 245.00000005 230.00000005 L 245.00000005 171.50000005 A 1.5 1.5 0 0 1 246.50000005 170.00000005 Z" stroke="#ffffff" stroke-width="1e-7" opacity="1" filter="none" class="highcharts-point"></path><path fill="#68AB2B" d="M 257.50000005 171.00000005 L 257.50000005 171.00000005 A 1.5 1.5 0 0 1 259.00000005 172.50000005 L 259.00000005 230.00000005 A 0 0 0 0 1 259.00000005 230.00000005 L 256.00000005 230.00000005 A 0 0 0 0 1 256.00000005 230.00000005 L 256.00000005 172.50000005 A 1.5 1.5 0 0 1 257.50000005 171.00000005 Z" stroke="#ffffff" stroke-width="1e-7" opacity="1" filter="none" class="highcharts-point"></path><path fill="#68AB2B" d="M 269.50000005 168.00000005 L 269.50000005 168.00000005 A 1.5 1.5 0 0 1 271.00000005 169.50000005 L 271.00000005 230.00000005 A 0 0 0 0 1 271.00000005 230.00000005 L 268.00000005 230.00000005 A 0 0 0 0 1 268.00000005 230.00000005 L 268.00000005 169.50000005 A 1.5 1.5 0 0 1 269.50000005 168.00000005 Z" stroke="#ffffff" stroke-width="1e-7" opacity="1" filter="none" class="highcharts-point"></path><path fill="#68AB2B" d="M 280.50000005 165.00000005 L 280.50000005 165.00000005 A 1.5 1.5 0 0 1 282.00000005 166.50000005 L 282.00000005 230.00000005 A 0 0 0 0 1 282.00000005 230.00000005 L 279.00000005 230.00000005 A 0 0 0 0 1 279.00000005 230.00000005 L 279.00000005 166.50000005 A 1.5 1.5 0 0 1 280.50000005 165.00000005 Z" stroke="#ffffff" stroke-width="1e-7" opacity="1" filter="none" class="highcharts-point"></path><path fill="#68AB2B" d="M 291.50000005 160.00000005 L 291.50000005 160.00000005 A 1.5 1.5 0 0 1 293.00000005 161.50000005 L 293.00000005 230.00000005 A 0 0 0 0 1 293.00000005 230.00000005 L 290.00000005 230.00000005 A 0 0 0 0 1 290.00000005 230.00000005 L 290.00000005 161.50000005 A 1.5 1.5 0 0 1 291.50000005 160.00000005 Z" stroke="#ffffff" stroke-width="1e-7" opacity="1" filter="none" class="highcharts-point"></path><path fill="#68AB2B" d="M 302.50000005 151.00000005 L 302.50000005 151.00000005 A 1.5 1.5 0 0 1 304.00000005 152.50000005 L 304.00000005 230.00000005 A 0 0 0 0 1 304.00000005 230.00000005 L 301.00000005 230.00000005 A 0 0 0 0 1 301.00000005 230.00000005 L 301.00000005 152.50000005 A 1.5 1.5 0 0 1 302.50000005 151.00000005 Z" stroke="#ffffff" stroke-width="1e-7" opacity="1" filter="none" class="highcharts-point"></path><path fill="#68AB2B" d="M 313.50000005 156.00000005 L 313.50000005 156.00000005 A 1.5 1.5 0 0 1 315.00000005 157.50000005 L 315.00000005 230.00000005 A 0 0 0 0 1 315.00000005 230.00000005 L 312.00000005 230.00000005 A 0 0 0 0 1 312.00000005 230.00000005 L 312.00000005 157.50000005 A 1.5 1.5 0 0 1 313.50000005 156.00000005 Z" stroke="#ffffff" stroke-width="1e-7" opacity="1" filter="none" class="highcharts-point"></path><path fill="#68AB2B" d="M 324.50000005 172.00000005 L 324.50000005 172.00000005 A 1.5 1.5 0 0 1 326.00000005 173.50000005 L 326.00000005 230.00000005 A 0 0 0 0 1 326.00000005 230.00000005 L 323.00000005 230.00000005 A 0 0 0 0 1 323.00000005 230.00000005 L 323.00000005 173.50000005 A 1.5 1.5 0 0 1 324.50000005 172.00000005 Z" stroke="#ffffff" stroke-width="1e-7" opacity="1" filter="none" class="highcharts-point"></path><path fill="#68AB2B" d="M 335.50000005 156.00000005 L 335.50000005 156.00000005 A 1.5 1.5 0 0 1 337.00000005 157.50000005 L 337.00000005 230.00000005 A 0 0 0 0 1 337.00000005 230.00000005 L 334.00000005 230.00000005 A 0 0 0 0 1 334.00000005 230.00000005 L 334.00000005 157.50000005 A 1.5 1.5 0 0 1 335.50000005 156.00000005 Z" stroke="#ffffff" stroke-width="1e-7" opacity="1" filter="none" class="highcharts-point"></path><path fill="#68AB2B" d="M 346.50000005 154.00000005 L 346.50000005 154.00000005 A 1.5 1.5 0 0 1 348.00000005 155.50000005 L 348.00000005 230.00000005 A 0 0 0 0 1 348.00000005 230.00000005 L 345.00000005 230.00000005 A 0 0 0 0 1 345.00000005 230.00000005 L 345.00000005 155.50000005 A 1.5 1.5 0 0 1 346.50000005 154.00000005 Z" stroke="#ffffff" stroke-width="1e-7" opacity="1" filter="none" class="highcharts-point"></path><path fill="#68AB2B" d="M 357.50000005 147.00000005 L 357.50000005 147.00000005 A 1.5 1.5 0 0 1 359.00000005 148.50000005 L 359.00000005 230.00000005 A 0 0 0 0 1 359.00000005 230.00000005 L 356.00000005 230.00000005 A 0 0 0 0 1 356.00000005 230.00000005 L 356.00000005 148.50000005 A 1.5 1.5 0 0 1 357.50000005 147.00000005 Z" stroke="#ffffff" stroke-width="1e-7" opacity="1" filter="none" class="highcharts-point"></path><path fill="#68AB2B" d="M 368.50000005 136.00000005 L 368.50000005 136.00000005 A 1.5 1.5 0 0 1 370.00000005 137.50000005 L 370.00000005 230.00000005 A 0 0 0 0 1 370.00000005 230.00000005 L 367.00000005 230.00000005 A 0 0 0 0 1 367.00000005 230.00000005 L 367.00000005 137.50000005 A 1.5 1.5 0 0 1 368.50000005 136.00000005 Z" stroke="#ffffff" stroke-width="1e-7" opacity="1" filter="none" class="highcharts-point"></path><path fill="#68AB2B" d="M 379.50000005 136.00000005 L 379.50000005 136.00000005 A 1.5 1.5 0 0 1 381.00000005 137.50000005 L 381.00000005 230.00000005 A 0 0 0 0 1 381.00000005 230.00000005 L 378.00000005 230.00000005 A 0 0 0 0 1 378.00000005 230.00000005 L 378.00000005 137.50000005 A 1.5 1.5 0 0 1 379.50000005 136.00000005 Z" stroke="#ffffff" stroke-width="1e-7" opacity="1" filter="none" class="highcharts-point"></path><path fill="#68AB2B" d="M 390.50000005 138.00000005 L 390.50000005 138.00000005 A 1.5 1.5 0 0 1 392.00000005 139.50000005 L 392.00000005 230.00000005 A 0 0 0 0 1 392.00000005 230.00000005 L 389.00000005 230.00000005 A 0 0 0 0 1 389.00000005 230.00000005 L 389.00000005 139.50000005 A 1.5 1.5 0 0 1 390.50000005 138.00000005 Z" stroke="#ffffff" stroke-width="1e-7" opacity="1" filter="none" class="highcharts-point"></path><path fill="#68AB2B" d="M 401.50000005 136.00000005 L 401.50000005 136.00000005 A 1.5 1.5 0 0 1 403.00000005 137.50000005 L 403.00000005 230.00000005 A 0 0 0 0 1 403.00000005 230.00000005 L 400.00000005 230.00000005 A 0 0 0 0 1 400.00000005 230.00000005 L 400.00000005 137.50000005 A 1.5 1.5 0 0 1 401.50000005 136.00000005 Z" stroke="#ffffff" stroke-width="1e-7" opacity="1" filter="none" class="highcharts-point"></path><path fill="#68AB2B" d="M 412.50000005 128.00000005 L 412.50000005 128.00000005 A 1.5 1.5 0 0 1 414.00000005 129.50000005 L 414.00000005 230.00000005 A 0 0 0 0 1 414.00000005 230.00000005 L 411.00000005 230.00000005 A 0 0 0 0 1 411.00000005 230.00000005 L 411.00000005 129.50000005 A 1.5 1.5 0 0 1 412.50000005 128.00000005 Z" stroke="#ffffff" stroke-width="1e-7" opacity="1" filter="none" class="highcharts-point"></path><path fill="#68AB2B" d="M 423.50000005 129.00000005 L 423.50000005 129.00000005 A 1.5 1.5 0 0 1 425.00000005 130.50000005 L 425.00000005 230.00000005 A 0 0 0 0 1 425.00000005 230.00000005 L 422.00000005 230.00000005 A 0 0 0 0 1 422.00000005 230.00000005 L 422.00000005 130.50000005 A 1.5 1.5 0 0 1 423.50000005 129.00000005 Z" stroke="#ffffff" stroke-width="1e-7" opacity="1" filter="none" class="highcharts-point"></path><path fill="#68AB2B" d="M 435.50000005 124.00000005 L 435.50000005 124.00000005 A 1.5 1.5 0 0 1 437.00000005 125.50000005 L 437.00000005 230.00000005 A 0 0 0 0 1 437.00000005 230.00000005 L 434.00000005 230.00000005 A 0 0 0 0 1 434.00000005 230.00000005 L 434.00000005 125.50000005 A 1.5 1.5 0 0 1 435.50000005 124.00000005 Z" stroke="#ffffff" stroke-width="1e-7" opacity="1" filter="none" class="highcharts-point"></path><path fill="#68AB2B" d="M 446.50000005 128.00000005 L 446.50000005 128.00000005 A 1.5 1.5 0 0 1 448.00000005 129.50000005 L 448.00000005 230.00000005 A 0 0 0 0 1 448.00000005 230.00000005 L 445.00000005 230.00000005 A 0 0 0 0 1 445.00000005 230.00000005 L 445.00000005 129.50000005 A 1.5 1.5 0 0 1 446.50000005 128.00000005 Z" stroke="#ffffff" stroke-width="1e-7" opacity="1" filter="none" class="highcharts-point"></path><path fill="#68AB2B" d="M 457.50000005 117.00000005 L 457.50000005 117.00000005 A 1.5 1.5 0 0 1 459.00000005 118.50000005 L 459.00000005 230.00000005 A 0 0 0 0 1 459.00000005 230.00000005 L 456.00000005 230.00000005 A 0 0 0 0 1 456.00000005 230.00000005 L 456.00000005 118.50000005 A 1.5 1.5 0 0 1 457.50000005 117.00000005 Z" stroke="#ffffff" stroke-width="1e-7" opacity="1" filter="none" class="highcharts-point"></path><path fill="#68AB2B" d="M 468.50000005 120.00000005 L 468.50000005 120.00000005 A 1.5 1.5 0 0 1 470.00000005 121.50000005 L 470.00000005 230.00000005 A 0 0 0 0 1 470.00000005 230.00000005 L 467.00000005 230.00000005 A 0 0 0 0 1 467.00000005 230.00000005 L 467.00000005 121.50000005 A 1.5 1.5 0 0 1 468.50000005 120.00000005 Z" stroke="#ffffff" stroke-width="1e-7" opacity="1" filter="none" class="highcharts-point"></path><path fill="#68AB2B" d="M 479.50000005 136.00000005 L 479.50000005 136.00000005 A 1.5 1.5 0 0 1 481.00000005 137.50000005 L 481.00000005 230.00000005 A 0 0 0 0 1 481.00000005 230.00000005 L 478.00000005 230.00000005 A 0 0 0 0 1 478.00000005 230.00000005 L 478.00000005 137.50000005 A 1.5 1.5 0 0 1 479.50000005 136.00000005 Z" stroke="#ffffff" stroke-width="1e-7" opacity="1" filter="none" class="highcharts-point"></path><path fill="#68AB2B" d="M 490.50000005 145.00000005 L 490.50000005 145.00000005 A 1.5 1.5 0 0 1 492.00000005 146.50000005 L 492.00000005 230.00000005 A 0 0 0 0 1 492.00000005 230.00000005 L 489.00000005 230.00000005 A 0 0 0 0 1 489.00000005 230.00000005 L 489.00000005 146.50000005 A 1.5 1.5 0 0 1 490.50000005 145.00000005 Z" stroke="#ffffff" stroke-width="1e-7" opacity="1" filter="none" class="highcharts-point"></path><path fill="#68AB2B" d="M 501.50000005 133.00000005 L 501.50000005 133.00000005 A 1.5 1.5 0 0 1 503.00000005 134.50000005 L 503.00000005 230.00000005 A 0 0 0 0 1 503.00000005 230.00000005 L 500.00000005 230.00000005 A 0 0 0 0 1 500.00000005 230.00000005 L 500.00000005 134.50000005 A 1.5 1.5 0 0 1 501.50000005 133.00000005 Z" stroke="#ffffff" stroke-width="1e-7" opacity="1" filter="none" class="highcharts-point"></path></g><g class="highcharts-markers highcharts-series-0 highcharts-column-series" data-z-index="0.1" opacity="1" transform="translate(71,100) scale(1 1)" clip-path="none"></g><g class="highcharts-series highcharts-series-1 highcharts-column-series highcharts-tracker" data-z-index="0.1" opacity="1" transform="translate(71,100) scale(1 1)" clip-path="url(#highcharts-ckgpbi7-56-)"><path fill="#FABD24" d="M 7.500000050000001 229.00000005 L 7.500000050000001 229.00000005 A 1.5000000000000004 1.5000000000000004 0 0 1 8.914213612373096 230.00000005 L 8.914213612373096 230.00000005 A 0 0 0 0 1 8.914213612373096 230.00000005 L 8.914213612373096 230.00000005 A 0 0 0 0 1 6.085786487626905 230.00000005 L 6.085786487626905 230.00000005 A 1.5000000000000004 1.5000000000000004 0 0 1 7.500000050000001 229.00000005 Z" stroke="#ffffff" stroke-width="1e-7" opacity="1" filter="none" class="highcharts-point"></path><path fill="#FABD24" d="M 18.50000005 229.00000005 L 18.50000005 229.00000005 A 1.5 1.5 0 0 1 19.914213612373096 230.00000005 L 19.914213612373096 230.00000005 A 0 0 0 0 1 19.914213612373096 230.00000005 L 19.914213612373096 230.00000005 A 0 0 0 0 1 17.085786487626905 230.00000005 L 17.085786487626905 230.00000005 A 1.5 1.5 0 0 1 18.50000005 229.00000005 Z" stroke="#ffffff" stroke-width="1e-7" opacity="1" filter="none" class="highcharts-point"></path><path fill="#FABD24" d="M 30.500000049999997 229.00000005 L 30.500000049999997 229.00000005 A 1.4999999999999982 1.4999999999999982 0 0 1 31.91421361237309 230.00000005 L 31.91421361237309 230.00000005 A 0 0 0 0 1 31.91421361237309 230.00000005 L 31.91421361237309 230.00000005 A 0 0 0 0 1 29.085786487626905 230.00000005 L 29.085786487626905 230.00000005 A 1.4999999999999982 1.4999999999999982 0 0 1 30.500000049999997 229.00000005 Z" stroke="#ffffff" stroke-width="1e-7" opacity="1" filter="none" class="highcharts-point"></path><path fill="#FABD24" d="M 41.50000005 228.00000005 L 41.50000005 228.00000005 A 1.5 1.5 0 0 1 43.00000005 229.50000005 L 43.00000005 230.00000005 A 0 0 0 0 1 43.00000005 230.00000005 L 40.00000005 230.00000005 A 0 0 0 0 1 40.00000005 230.00000005 L 40.00000005 229.50000005 A 1.5 1.5 0 0 1 41.50000005 228.00000005 Z" stroke="#ffffff" stroke-width="1e-7" opacity="1" filter="none" class="highcharts-point"></path><path fill="#FABD24" d="M 52.50000005 228.00000005 L 52.50000005 228.00000005 A 1.5 1.5 0 0 1 54.00000005 229.50000005 L 54.00000005 230.00000005 A 0 0 0 0 1 54.00000005 230.00000005 L 51.00000005 230.00000005 A 0 0 0 0 1 51.00000005 230.00000005 L 51.00000005 229.50000005 A 1.5 1.5 0 0 1 52.50000005 228.00000005 Z" stroke="#ffffff" stroke-width="1e-7" opacity="1" filter="none" class="highcharts-point"></path><path fill="#FABD24" d="M 63.50000005 226.00000005 L 63.50000005 226.00000005 A 1.5 1.5 0 0 1 65.00000005 227.50000005 L 65.00000005 230.00000005 A 0 0 0 0 1 65.00000005 230.00000005 L 62.00000005 230.00000005 A 0 0 0 0 1 62.00000005 230.00000005 L 62.00000005 227.50000005 A 1.5 1.5 0 0 1 63.50000005 226.00000005 Z" stroke="#ffffff" stroke-width="1e-7" opacity="1" filter="none" class="highcharts-point"></path><path fill="#FABD24" d="M 74.50000005 221.00000005 L 74.50000005 221.00000005 A 1.5 1.5 0 0 1 76.00000005 222.50000005 L 76.00000005 230.00000005 A 0 0 0 0 1 76.00000005 230.00000005 L 73.00000005 230.00000005 A 0 0 0 0 1 73.00000005 230.00000005 L 73.00000005 222.50000005 A 1.5 1.5 0 0 1 74.50000005 221.00000005 Z" stroke="#ffffff" stroke-width="1e-7" opacity="1" filter="none" class="highcharts-point"></path><path fill="#FABD24" d="M 85.50000005 221.00000005 L 85.50000005 221.00000005 A 1.5 1.5 0 0 1 87.00000005 222.50000005 L 87.00000005 230.00000005 A 0 0 0 0 1 87.00000005 230.00000005 L 84.00000005 230.00000005 A 0 0 0 0 1 84.00000005 230.00000005 L 84.00000005 222.50000005 A 1.5 1.5 0 0 1 85.50000005 221.00000005 Z" stroke="#ffffff" stroke-width="1e-7" opacity="1" filter="none" class="highcharts-point"></path><path fill="#FABD24" d="M 96.50000005 217.00000005 L 96.50000005 217.00000005 A 1.5 1.5 0 0 1 98.00000005 218.50000005 L 98.00000005 230.00000005 A 0 0 0 0 1 98.00000005 230.00000005 L 95.00000005 230.00000005 A 0 0 0 0 1 95.00000005 230.00000005 L 95.00000005 218.50000005 A 1.5 1.5 0 0 1 96.50000005 217.00000005 Z" stroke="#ffffff" stroke-width="1e-7" opacity="1" filter="none" class="highcharts-point"></path><path fill="#FABD24" d="M 107.50000005 216.00000005 L 107.50000005 216.00000005 A 1.5 1.5 0 0 1 109.00000005 217.50000005 L 109.00000005 230.00000005 A 0 0 0 0 1 109.00000005 230.00000005 L 106.00000005 230.00000005 A 0 0 0 0 1 106.00000005 230.00000005 L 106.00000005 217.50000005 A 1.5 1.5 0 0 1 107.50000005 216.00000005 Z" stroke="#ffffff" stroke-width="1e-7" opacity="1" filter="none" class="highcharts-point"></path><path fill="#FABD24" d="M 118.50000005 214.00000005 L 118.50000005 214.00000005 A 1.5 1.5 0 0 1 120.00000005 215.50000005 L 120.00000005 230.00000005 A 0 0 0 0 1 120.00000005 230.00000005 L 117.00000005 230.00000005 A 0 0 0 0 1 117.00000005 230.00000005 L 117.00000005 215.50000005 A 1.5 1.5 0 0 1 118.50000005 214.00000005 Z" stroke="#ffffff" stroke-width="1e-7" opacity="1" filter="none" class="highcharts-point"></path><path fill="#FABD24" d="M 129.50000005 208.00000005 L 129.50000005 208.00000005 A 1.5 1.5 0 0 1 131.00000005 209.50000005 L 131.00000005 230.00000005 A 0 0 0 0 1 131.00000005 230.00000005 L 128.00000005 230.00000005 A 0 0 0 0 1 128.00000005 230.00000005 L 128.00000005 209.50000005 A 1.5 1.5 0 0 1 129.50000005 208.00000005 Z" stroke="#ffffff" stroke-width="1e-7" opacity="1" filter="none" class="highcharts-point"></path><path fill="#FABD24" d="M 140.50000005 207.00000005 L 140.50000005 207.00000005 A 1.5 1.5 0 0 1 142.00000005 208.50000005 L 142.00000005 230.00000005 A 0 0 0 0 1 142.00000005 230.00000005 L 139.00000005 230.00000005 A 0 0 0 0 1 139.00000005 230.00000005 L 139.00000005 208.50000005 A 1.5 1.5 0 0 1 140.50000005 207.00000005 Z" stroke="#ffffff" stroke-width="1e-7" opacity="1" filter="none" class="highcharts-point"></path><path fill="#FABD24" d="M 151.50000005 201.00000005 L 151.50000005 201.00000005 A 1.5 1.5 0 0 1 153.00000005 202.50000005 L 153.00000005 230.00000005 A 0 0 0 0 1 153.00000005 230.00000005 L 150.00000005 230.00000005 A 0 0 0 0 1 150.00000005 230.00000005 L 150.00000005 202.50000005 A 1.5 1.5 0 0 1 151.50000005 201.00000005 Z" stroke="#ffffff" stroke-width="1e-7" opacity="1" filter="none" class="highcharts-point"></path><path fill="#FABD24" d="M 162.50000005 200.00000005 L 162.50000005 200.00000005 A 1.5 1.5 0 0 1 164.00000005 201.50000005 L 164.00000005 230.00000005 A 0 0 0 0 1 164.00000005 230.00000005 L 161.00000005 230.00000005 A 0 0 0 0 1 161.00000005 230.00000005 L 161.00000005 201.50000005 A 1.5 1.5 0 0 1 162.50000005 200.00000005 Z" stroke="#ffffff" stroke-width="1e-7" opacity="1" filter="none" class="highcharts-point"></path><path fill="#FABD24" d="M 173.50000005 194.00000005 L 173.50000005 194.00000005 A 1.5 1.5 0 0 1 175.00000005 195.50000005 L 175.00000005 230.00000005 A 0 0 0 0 1 175.00000005 230.00000005 L 172.00000005 230.00000005 A 0 0 0 0 1 172.00000005 230.00000005 L 172.00000005 195.50000005 A 1.5 1.5 0 0 1 173.50000005 194.00000005 Z" stroke="#ffffff" stroke-width="1e-7" opacity="1" filter="none" class="highcharts-point"></path><path fill="#FABD24" d="M 184.50000005 185.00000005 L 184.50000005 185.00000005 A 1.5 1.5 0 0 1 186.00000005 186.50000005 L 186.00000005 230.00000005 A 0 0 0 0 1 186.00000005 230.00000005 L 183.00000005 230.00000005 A 0 0 0 0 1 183.00000005 230.00000005 L 183.00000005 186.50000005 A 1.5 1.5 0 0 1 184.50000005 185.00000005 Z" stroke="#ffffff" stroke-width="1e-7" opacity="1" filter="none" class="highcharts-point"></path><path fill="#FABD24" d="M 196.50000005 177.00000005 L 196.50000005 177.00000005 A 1.5 1.5 0 0 1 198.00000005 178.50000005 L 198.00000005 230.00000005 A 0 0 0 0 1 198.00000005 230.00000005 L 195.00000005 230.00000005 A 0 0 0 0 1 195.00000005 230.00000005 L 195.00000005 178.50000005 A 1.5 1.5 0 0 1 196.50000005 177.00000005 Z" stroke="#ffffff" stroke-width="1e-7" opacity="1" filter="none" class="highcharts-point"></path><path fill="#FABD24" d="M 207.50000005 172.00000005 L 207.50000005 172.00000005 A 1.5 1.5 0 0 1 209.00000005 173.50000005 L 209.00000005 230.00000005 A 0 0 0 0 1 209.00000005 230.00000005 L 206.00000005 230.00000005 A 0 0 0 0 1 206.00000005 230.00000005 L 206.00000005 173.50000005 A 1.5 1.5 0 0 1 207.50000005 172.00000005 Z" stroke="#ffffff" stroke-width="1e-7" opacity="1" filter="none" class="highcharts-point"></path><path fill="#FABD24" d="M 218.50000005 175.00000005 L 218.50000005 175.00000005 A 1.5 1.5 0 0 1 220.00000005 176.50000005 L 220.00000005 230.00000005 A 0 0 0 0 1 220.00000005 230.00000005 L 217.00000005 230.00000005 A 0 0 0 0 1 217.00000005 230.00000005 L 217.00000005 176.50000005 A 1.5 1.5 0 0 1 218.50000005 175.00000005 Z" stroke="#ffffff" stroke-width="1e-7" opacity="1" filter="none" class="highcharts-point"></path><path fill="#FABD24" d="M 229.50000005 170.00000005 L 229.50000005 170.00000005 A 1.5 1.5 0 0 1 231.00000005 171.50000005 L 231.00000005 230.00000005 A 0 0 0 0 1 231.00000005 230.00000005 L 228.00000005 230.00000005 A 0 0 0 0 1 228.00000005 230.00000005 L 228.00000005 171.50000005 A 1.5 1.5 0 0 1 229.50000005 170.00000005 Z" stroke="#ffffff" stroke-width="1e-7" opacity="1" filter="none" class="highcharts-point"></path><path fill="#FABD24" d="M 240.50000005 176.00000005 L 240.50000005 176.00000005 A 1.5 1.5 0 0 1 242.00000005 177.50000005 L 242.00000005 230.00000005 A 0 0 0 0 1 242.00000005 230.00000005 L 239.00000005 230.00000005 A 0 0 0 0 1 239.00000005 230.00000005 L 239.00000005 177.50000005 A 1.5 1.5 0 0 1 240.50000005 176.00000005 Z" stroke="#ffffff" stroke-width="1e-7" opacity="1" filter="none" class="highcharts-point"></path><path fill="#FABD24" d="M 251.50000005 171.00000005 L 251.50000005 171.00000005 A 1.5 1.5 0 0 1 253.00000005 172.50000005 L 253.00000005 230.00000005 A 0 0 0 0 1 253.00000005 230.00000005 L 250.00000005 230.00000005 A 0 0 0 0 1 250.00000005 230.00000005 L 250.00000005 172.50000005 A 1.5 1.5 0 0 1 251.50000005 171.00000005 Z" stroke="#ffffff" stroke-width="1e-7" opacity="1" filter="none" class="highcharts-point"></path><path fill="#FABD24" d="M 262.50000005 161.00000005 L 262.50000005 161.00000005 A 1.5 1.5 0 0 1 264.00000005 162.50000005 L 264.00000005 230.00000005 A 0 0 0 0 1 264.00000005 230.00000005 L 261.00000005 230.00000005 A 0 0 0 0 1 261.00000005 230.00000005 L 261.00000005 162.50000005 A 1.5 1.5 0 0 1 262.50000005 161.00000005 Z" stroke="#ffffff" stroke-width="1e-7" opacity="1" filter="none" class="highcharts-point"></path><path fill="#FABD24" d="M 273.50000005 152.00000005 L 273.50000005 152.00000005 A 1.5 1.5 0 0 1 275.00000005 153.50000005 L 275.00000005 230.00000005 A 0 0 0 0 1 275.00000005 230.00000005 L 272.00000005 230.00000005 A 0 0 0 0 1 272.00000005 230.00000005 L 272.00000005 153.50000005 A 1.5 1.5 0 0 1 273.50000005 152.00000005 Z" stroke="#ffffff" stroke-width="1e-7" opacity="1" filter="none" class="highcharts-point"></path><path fill="#FABD24" d="M 284.50000005 156.00000005 L 284.50000005 156.00000005 A 1.5 1.5 0 0 1 286.00000005 157.50000005 L 286.00000005 230.00000005 A 0 0 0 0 1 286.00000005 230.00000005 L 283.00000005 230.00000005 A 0 0 0 0 1 283.00000005 230.00000005 L 283.00000005 157.50000005 A 1.5 1.5 0 0 1 284.50000005 156.00000005 Z" stroke="#ffffff" stroke-width="1e-7" opacity="1" filter="none" class="highcharts-point"></path><path fill="#FABD24" d="M 295.50000005 155.00000005 L 295.50000005 155.00000005 A 1.5 1.5 0 0 1 297.00000005 156.50000005 L 297.00000005 230.00000005 A 0 0 0 0 1 297.00000005 230.00000005 L 294.00000005 230.00000005 A 0 0 0 0 1 294.00000005 230.00000005 L 294.00000005 156.50000005 A 1.5 1.5 0 0 1 295.50000005 155.00000005 Z" stroke="#ffffff" stroke-width="1e-7" opacity="1" filter="none" class="highcharts-point"></path><path fill="#FABD24" d="M 306.50000005 137.00000005 L 306.50000005 137.00000005 A 1.5 1.5 0 0 1 308.00000005 138.50000005 L 308.00000005 230.00000005 A 0 0 0 0 1 308.00000005 230.00000005 L 305.00000005 230.00000005 A 0 0 0 0 1 305.00000005 230.00000005 L 305.00000005 138.50000005 A 1.5 1.5 0 0 1 306.50000005 137.00000005 Z" stroke="#ffffff" stroke-width="1e-7" opacity="1" filter="none" class="highcharts-point"></path><path fill="#FABD24" d="M 317.50000005 153.00000005 L 317.50000005 153.00000005 A 1.5 1.5 0 0 1 319.00000005 154.50000005 L 319.00000005 230.00000005 A 0 0 0 0 1 319.00000005 230.00000005 L 316.00000005 230.00000005 A 0 0 0 0 1 316.00000005 230.00000005 L 316.00000005 154.50000005 A 1.5 1.5 0 0 1 317.50000005 153.00000005 Z" stroke="#ffffff" stroke-width="1e-7" opacity="1" filter="none" class="highcharts-point"></path><path fill="#FABD24" d="M 328.50000005 159.00000005 L 328.50000005 159.00000005 A 1.5 1.5 0 0 1 330.00000005 160.50000005 L 330.00000005 230.00000005 A 0 0 0 0 1 330.00000005 230.00000005 L 327.00000005 230.00000005 A 0 0 0 0 1 327.00000005 230.00000005 L 327.00000005 160.50000005 A 1.5 1.5 0 0 1 328.50000005 159.00000005 Z" stroke="#ffffff" stroke-width="1e-7" opacity="1" filter="none" class="highcharts-point"></path><path fill="#FABD24" d="M 339.50000005 142.00000005 L 339.50000005 142.00000005 A 1.5 1.5 0 0 1 341.00000005 143.50000005 L 341.00000005 230.00000005 A 0 0 0 0 1 341.00000005 230.00000005 L 338.00000005 230.00000005 A 0 0 0 0 1 338.00000005 230.00000005 L 338.00000005 143.50000005 A 1.5 1.5 0 0 1 339.50000005 142.00000005 Z" stroke="#ffffff" stroke-width="1e-7" opacity="1" filter="none" class="highcharts-point"></path><path fill="#FABD24" d="M 350.50000005 153.00000005 L 350.50000005 153.00000005 A 1.5 1.5 0 0 1 352.00000005 154.50000005 L 352.00000005 230.00000005 A 0 0 0 0 1 352.00000005 230.00000005 L 349.00000005 230.00000005 A 0 0 0 0 1 349.00000005 230.00000005 L 349.00000005 154.50000005 A 1.5 1.5 0 0 1 350.50000005 153.00000005 Z" stroke="#ffffff" stroke-width="1e-7" opacity="1" filter="none" class="highcharts-point"></path><path fill="#FABD24" d="M 362.50000005 145.00000005 L 362.50000005 145.00000005 A 1.5 1.5 0 0 1 364.00000005 146.50000005 L 364.00000005 230.00000005 A 0 0 0 0 1 364.00000005 230.00000005 L 361.00000005 230.00000005 A 0 0 0 0 1 361.00000005 230.00000005 L 361.00000005 146.50000005 A 1.5 1.5 0 0 1 362.50000005 145.00000005 Z" stroke="#ffffff" stroke-width="1e-7" opacity="1" filter="none" class="highcharts-point"></path><path fill="#FABD24" d="M 373.50000005 151.00000005 L 373.50000005 151.00000005 A 1.5 1.5 0 0 1 375.00000005 152.50000005 L 375.00000005 230.00000005 A 0 0 0 0 1 375.00000005 230.00000005 L 372.00000005 230.00000005 A 0 0 0 0 1 372.00000005 230.00000005 L 372.00000005 152.50000005 A 1.5 1.5 0 0 1 373.50000005 151.00000005 Z" stroke="#ffffff" stroke-width="1e-7" opacity="1" filter="none" class="highcharts-point"></path><path fill="#FABD24" d="M 384.50000005 152.00000005 L 384.50000005 152.00000005 A 1.5 1.5 0 0 1 386.00000005 153.50000005 L 386.00000005 230.00000005 A 0 0 0 0 1 386.00000005 230.00000005 L 383.00000005 230.00000005 A 0 0 0 0 1 383.00000005 230.00000005 L 383.00000005 153.50000005 A 1.5 1.5 0 0 1 384.50000005 152.00000005 Z" stroke="#ffffff" stroke-width="1e-7" opacity="1" filter="none" class="highcharts-point"></path><path fill="#FABD24" d="M 395.50000005 153.00000005 L 395.50000005 153.00000005 A 1.5 1.5 0 0 1 397.00000005 154.50000005 L 397.00000005 230.00000005 A 0 0 0 0 1 397.00000005 230.00000005 L 394.00000005 230.00000005 A 0 0 0 0 1 394.00000005 230.00000005 L 394.00000005 154.50000005 A 1.5 1.5 0 0 1 395.50000005 153.00000005 Z" stroke="#ffffff" stroke-width="1e-7" opacity="1" filter="none" class="highcharts-point"></path><path fill="#FABD24" d="M 406.50000005 136.00000005 L 406.50000005 136.00000005 A 1.5 1.5 0 0 1 408.00000005 137.50000005 L 408.00000005 230.00000005 A 0 0 0 0 1 408.00000005 230.00000005 L 405.00000005 230.00000005 A 0 0 0 0 1 405.00000005 230.00000005 L 405.00000005 137.50000005 A 1.5 1.5 0 0 1 406.50000005 136.00000005 Z" stroke="#ffffff" stroke-width="1e-7" opacity="1" filter="none" class="highcharts-point"></path><path fill="#FABD24" d="M 417.50000005 136.00000005 L 417.50000005 136.00000005 A 1.5 1.5 0 0 1 419.00000005 137.50000005 L 419.00000005 230.00000005 A 0 0 0 0 1 419.00000005 230.00000005 L 416.00000005 230.00000005 A 0 0 0 0 1 416.00000005 230.00000005 L 416.00000005 137.50000005 A 1.5 1.5 0 0 1 417.50000005 136.00000005 Z" stroke="#ffffff" stroke-width="1e-7" opacity="1" filter="none" class="highcharts-point"></path><path fill="#FABD24" d="M 428.50000005 136.00000005 L 428.50000005 136.00000005 A 1.5 1.5 0 0 1 430.00000005 137.50000005 L 430.00000005 230.00000005 A 0 0 0 0 1 430.00000005 230.00000005 L 427.00000005 230.00000005 A 0 0 0 0 1 427.00000005 230.00000005 L 427.00000005 137.50000005 A 1.5 1.5 0 0 1 428.50000005 136.00000005 Z" stroke="#ffffff" stroke-width="1e-7" opacity="1" filter="none" class="highcharts-point"></path><path fill="#FABD24" d="M 439.50000005 137.00000005 L 439.50000005 137.00000005 A 1.5 1.5 0 0 1 441.00000005 138.50000005 L 441.00000005 230.00000005 A 0 0 0 0 1 441.00000005 230.00000005 L 438.00000005 230.00000005 A 0 0 0 0 1 438.00000005 230.00000005 L 438.00000005 138.50000005 A 1.5 1.5 0 0 1 439.50000005 137.00000005 Z" stroke="#ffffff" stroke-width="1e-7" opacity="1" filter="none" class="highcharts-point"></path><path fill="#FABD24" d="M 450.50000005 145.00000005 L 450.50000005 145.00000005 A 1.5 1.5 0 0 1 452.00000005 146.50000005 L 452.00000005 230.00000005 A 0 0 0 0 1 452.00000005 230.00000005 L 449.00000005 230.00000005 A 0 0 0 0 1 449.00000005 230.00000005 L 449.00000005 146.50000005 A 1.5 1.5 0 0 1 450.50000005 145.00000005 Z" stroke="#ffffff" stroke-width="1e-7" opacity="1" filter="none" class="highcharts-point"></path><path fill="#FABD24" d="M 461.50000005 136.00000005 L 461.50000005 136.00000005 A 1.5 1.5 0 0 1 463.00000005 137.50000005 L 463.00000005 230.00000005 A 0 0 0 0 1 463.00000005 230.00000005 L 460.00000005 230.00000005 A 0 0 0 0 1 460.00000005 230.00000005 L 460.00000005 137.50000005 A 1.5 1.5 0 0 1 461.50000005 136.00000005 Z" stroke="#ffffff" stroke-width="1e-7" opacity="1" filter="none" class="highcharts-point"></path><path fill="#FABD24" d="M 472.50000005 134.00000005 L 472.50000005 134.00000005 A 1.5 1.5 0 0 1 474.00000005 135.50000005 L 474.00000005 230.00000005 A 0 0 0 0 1 474.00000005 230.00000005 L 471.00000005 230.00000005 A 0 0 0 0 1 471.00000005 230.00000005 L 471.00000005 135.50000005 A 1.5 1.5 0 0 1 472.50000005 134.00000005 Z" stroke="#ffffff" stroke-width="1e-7" opacity="1" filter="none" class="highcharts-point"></path><path fill="#FABD24" d="M 483.50000005 145.00000005 L 483.50000005 145.00000005 A 1.5 1.5 0 0 1 485.00000005 146.50000005 L 485.00000005 230.00000005 A 0 0 0 0 1 485.00000005 230.00000005 L 482.00000005 230.00000005 A 0 0 0 0 1 482.00000005 230.00000005 L 482.00000005 146.50000005 A 1.5 1.5 0 0 1 483.50000005 145.00000005 Z" stroke="#ffffff" stroke-width="1e-7" opacity="1" filter="none" class="highcharts-point"></path><path fill="#FABD24" d="M 494.50000005 151.00000005 L 494.50000005 151.00000005 A 1.5 1.5 0 0 1 496.00000005 152.50000005 L 496.00000005 230.00000005 A 0 0 0 0 1 496.00000005 230.00000005 L 493.00000005 230.00000005 A 0 0 0 0 1 493.00000005 230.00000005 L 493.00000005 152.50000005 A 1.5 1.5 0 0 1 494.50000005 151.00000005 Z" stroke="#ffffff" stroke-width="1e-7" opacity="1" filter="none" class="highcharts-point"></path><path fill="#FABD24" d="M 505.50000005 142.00000005 L 505.50000005 142.00000005 A 1.5 1.5 0 0 1 507.00000005 143.50000005 L 507.00000005 230.00000005 A 0 0 0 0 1 507.00000005 230.00000005 L 504.00000005 230.00000005 A 0 0 0 0 1 504.00000005 230.00000005 L 504.00000005 143.50000005 A 1.5 1.5 0 0 1 505.50000005 142.00000005 Z" stroke="#ffffff" stroke-width="1e-7" opacity="1" filter="none" class="highcharts-point"></path></g><g class="highcharts-markers highcharts-series-1 highcharts-column-series" data-z-index="0.1" opacity="1" transform="translate(71,100) scale(1 1)" clip-path="none"></g><g class="highcharts-series highcharts-series-2 highcharts-line-series" data-z-index="0.1" opacity="1" transform="translate(71,100) scale(1 1)" clip-path="url(#highcharts-ckgpbi7-56-)"><path fill="none" d="M 5.5326086956522 228.64957142857 L 16.597826086957 228.88121428571 L 27.663043478261 228.4705 L 38.728260869565 225.00242857143 L 49.79347826087 222.84042857143 L 60.858695652174 217.24485714286 L 71.923913043478 204.83635714286 L 82.989130434783 206.07014285714 L 94.054347826087 201.52271428571 L 105.11956521739 198.66085714286 L 116.1847826087 193.53842857143 L 127.25 189.88471428571 L 138.3152173913 184.21521428571 L 149.38043478261 171.62764285714 L 160.44565217391 167.762 L 171.51086956522 156.03528571429 L 182.57608695652 142.81685714286 L 193.64130434783 124.821 L 204.70652173913 117.20142857143 L 215.77173913043 120.28671428571 L 226.83695652174 108.11971428571 L 237.90217391304 117.10614285714 L 248.96739130435 111.00621428571 L 260.03260869565 101.8785 L 271.09782608696 89.939857142857 L 282.16304347826 90.4705 L 293.22826086957 85.379285714286 L 304.29347826087 58.541571428571 L 315.35869565217 78.094857142857 L 326.42391304348 101.38892857143 L 337.48913043478 67.278285714286 L 348.55434782609 76.604785714286 L 359.61956521739 62.034285714286 L 370.6847826087 57.590357142857 L 381.75 58.351 L 392.8152173913 60.923714285714 L 403.88043478261 41.896142857143 L 414.94565217391 34.1205 L 426.01086956522 34.2815 L 437.07608695652 30.613 L 448.14130434783 42.591071428571 L 459.20652173913 22.931 L 470.27173913043 23.870714285714 L 481.33695652174 51.391857142857 L 492.40217391304 65.661714285714 L 503.46739130435 44.981428571429" class="highcharts-graph" data-z-index="1" stroke="#3c3c3c" stroke-width="2" stroke-linejoin="round" stroke-linecap="round" filter="none"></path><path fill="none" d="M 5.5326086956522 228.64957142857 L 16.597826086957 228.88121428571 L 27.663043478261 228.4705 L 38.728260869565 225.00242857143 L 49.79347826087 222.84042857143 L 60.858695652174 217.24485714286 L 71.923913043478 204.83635714286 L 82.989130434783 206.07014285714 L 94.054347826087 201.52271428571 L 105.11956521739 198.66085714286 L 116.1847826087 193.53842857143 L 127.25 189.88471428571 L 138.3152173913 184.21521428571 L 149.38043478261 171.62764285714 L 160.44565217391 167.762 L 171.51086956522 156.03528571429 L 182.57608695652 142.81685714286 L 193.64130434783 124.821 L 204.70652173913 117.20142857143 L 215.77173913043 120.28671428571 L 226.83695652174 108.11971428571 L 237.90217391304 117.10614285714 L 248.96739130435 111.00621428571 L 260.03260869565 101.8785 L 271.09782608696 89.939857142857 L 282.16304347826 90.4705 L 293.22826086957 85.379285714286 L 304.29347826087 58.541571428571 L 315.35869565217 78.094857142857 L 326.42391304348 101.38892857143 L 337.48913043478 67.278285714286 L 348.55434782609 76.604785714286 L 359.61956521739 62.034285714286 L 370.6847826087 57.590357142857 L 381.75 58.351 L 392.8152173913 60.923714285714 L 403.88043478261 41.896142857143 L 414.94565217391 34.1205 L 426.01086956522 34.2815 L 437.07608695652 30.613 L 448.14130434783 42.591071428571 L 459.20652173913 22.931 L 470.27173913043 23.870714285714 L 481.33695652174 51.391857142857 L 492.40217391304 65.661714285714 L 503.46739130435 44.981428571429" data-z-index="2" class="highcharts-tracker-line" stroke-linecap="round" stroke-linejoin="round" stroke="rgba(192,192,192,0.0001)" stroke-width="22"></path></g><g class="highcharts-markers highcharts-series-2 highcharts-line-series highcharts-tracker" data-z-index="0.1" opacity="1" transform="translate(71,100) scale(1 1)" clip-path="none"></g></g><text x="10" text-anchor="start" class="highcharts-caption" data-z-index="4" style="font-size: 0.8em; fill: rgb(102, 102, 102);" text-align="left" y="372" transform-origin="10 15" transform="translate(0,0) scale(1 1)"></text><g class="highcharts-axis-labels highcharts-xaxis-labels" data-z-index="7"><text x="87.597826086957" text-anchor="middle" transform="translate(0,0)" style="cursor: default; font-size: 0.8em; fill: rgb(0, 0, 0);" y="357" opacity="1">1981</text><text x="131.85869565217" text-anchor="middle" transform="translate(0,0)" style="cursor: default; font-size: 0.8em; fill: rgb(0, 0, 0);" y="357" opacity="1">1985</text><text x="176.11956521739" text-anchor="middle" transform="translate(0,0)" style="cursor: default; font-size: 0.8em; fill: rgb(0, 0, 0);" y="357" opacity="1">1989</text><text x="220.38043478261" text-anchor="middle" transform="translate(0,0)" style="cursor: default; font-size: 0.8em; fill: rgb(0, 0, 0);" y="357" opacity="1">1993</text><text x="264.64130434783" text-anchor="middle" transform="translate(0,0)" style="cursor: default; font-size: 0.8em; fill: rgb(0, 0, 0);" y="357" opacity="1">1997</text><text x="308.90217391304" text-anchor="middle" transform="translate(0,0)" style="cursor: default; font-size: 0.8em; fill: rgb(0, 0, 0);" y="357" opacity="1">2001</text><text x="353.16304347826" text-anchor="middle" transform="translate(0,0)" style="cursor: default; font-size: 0.8em; fill: rgb(0, 0, 0);" y="357" opacity="1">2005</text><text x="397.42391304348" text-anchor="middle" transform="translate(0,0)" style="cursor: default; font-size: 0.8em; fill: rgb(0, 0, 0);" y="357" opacity="1">2009</text><text x="441.6847826087" text-anchor="middle" transform="translate(0,0)" style="cursor: default; font-size: 0.8em; fill: rgb(0, 0, 0);" y="357" opacity="1">2013</text><text x="485.94565217391" text-anchor="middle" transform="translate(0,0)" style="cursor: default; font-size: 0.8em; fill: rgb(0, 0, 0);" y="357" opacity="1">2017</text><text x="530.20652173913" text-anchor="middle" transform="translate(0,0)" style="cursor: default; font-size: 0.8em; fill: rgb(0, 0, 0);" y="357" opacity="1">2021</text><text x="574.46739130435" text-anchor="middle" transform="translate(0,0)" style="cursor: default; font-size: 0.8em; fill: rgb(0, 0, 0);" y="357" opacity="1">2025</text></g><g class="highcharts-axis-labels highcharts-yaxis-labels" data-z-index="7"><text x="56" text-anchor="end" transform="translate(0,0)" style="cursor: default; font-size: 0.8em; fill: rgb(0, 0, 0);" y="335" opacity="1">0</text><text x="56" text-anchor="end" transform="translate(0,0)" style="cursor: default; font-size: 0.8em; fill: rgb(0, 0, 0);" y="302" opacity="1">20,000</text><text x="56" text-anchor="end" transform="translate(0,0)" style="cursor: default; font-size: 0.8em; fill: rgb(0, 0, 0);" y="269" opacity="1">40,000</text><text x="56" text-anchor="end" transform="translate(0,0)" style="cursor: default; font-size: 0.8em; fill: rgb(0, 0, 0);" y="236" opacity="1">60,000</text><text x="56" text-anchor="end" transform="translate(0,0)" style="cursor: default; font-size: 0.8em; fill: rgb(0, 0, 0);" y="203" opacity="1">80,000</text><text x="56" text-anchor="end" transform="translate(0,0)" style="cursor: default; font-size: 0.8em; fill: rgb(0, 0, 0);" y="170" opacity="1">100,000</text><text x="56" text-anchor="end" transform="translate(0,0)" style="cursor: default; font-size: 0.8em; fill: rgb(0, 0, 0);" y="137" opacity="1">120,000</text><text x="56" text-anchor="end" transform="translate(0,0)" style="cursor: default; font-size: 0.8em; fill: rgb(0, 0, 0);" y="105" opacity="1">140,000</text></g><g class="highcharts-legend highcharts-no-tooltip" data-z-index="7" text-align="left" transform="translate(63,55)"><rect fill="none" class="highcharts-legend-box" rx="0" ry="0" stroke="#999999" stroke-width="0" filter="none" x="0" y="0" width="242" height="33"></rect><g data-z-index="1"><g><g class="highcharts-legend-item highcharts-column-series highcharts-color-undefined highcharts-series-0" data-z-index="1" transform="translate(8,3)"><text x="21" text-anchor="start" data-z-index="2" style="cursor: pointer; font-size: 0.8em; text-decoration: none; font-weight: normal; fill: rgb(51, 51, 51);" y="17">Zufuhr</text><rect x="2" y="6" rx="0" ry="0" width="12" height="12" fill="#68AB2B" class="highcharts-point" data-z-index="3"></rect></g><g class="highcharts-legend-item highcharts-column-series highcharts-color-undefined highcharts-series-1" data-z-index="1" transform="translate(87.73121643066406,3)"><text x="21" y="17" text-anchor="start" data-z-index="2" style="cursor: pointer; font-size: 0.8em; text-decoration: none; font-weight: normal; fill: rgb(51, 51, 51);">Abfuhr</text><rect x="2" y="6" rx="0" ry="0" width="12" height="12" fill="#FABD24" class="highcharts-point" data-z-index="3"></rect></g><g class="highcharts-legend-item highcharts-line-series highcharts-color-undefined highcharts-series-2" data-z-index="1" transform="translate(168.18118286132812,3)"><path fill="none" class="highcharts-graph" stroke-width="2" stroke-linecap="round" d="M 1 13 L 15 13" stroke="#3c3c3c"></path><text x="21" y="17" text-anchor="start" data-z-index="2" style="cursor: pointer; font-size: 0.8em; text-decoration: none; font-weight: normal; fill: rgb(51, 51, 51);">Gesamt</text></g></g></g></g></svg>