<?xml version="1.0" standalone="no"?><!DOCTYPE svg PUBLIC "-//W3C//DTD SVG 1.1//EN" "http://www.w3.org/Graphics/SVG/1.1/DTD/svg11.dtd"><svg xmlns:xlink="http://www.w3.org/1999/xlink" version="1.1" class="highcharts-root" style="font-family:&quot;Lucida Grande&quot;, &quot;Lucida Sans Unicode&quot;, Arial, Helvetica, sans-serif;font-size:12px;" xmlns="http://www.w3.org/2000/svg" viewBox="0 0 485 415"><desc>Created with Highcharts 8.2.0</desc><defs><clipPath id="highcharts-bgn9n24-86-"><rect x="0" y="0" width="436" height="112" fill="none"></rect></clipPath><clipPath id="highcharts-bgn9n24-100-"><rect x="0" y="0" width="436" height="112" fill="none"></rect></clipPath><clipPath id="highcharts-bgn9n24-166-"><rect x="39" y="215" width="436" height="112" fill="none"></rect></clipPath></defs><rect fill="#fbfbfb" class="highcharts-background" x="0" y="0" width="485" height="415" rx="0" ry="0"></rect><rect fill="none" class="highcharts-plot-background" x="39" y="215" width="436" height="112"></rect><g class="highcharts-label" transform="translate(10,449)"><text x="0" data-z-index="1" style="cursor:pointer;" y="0"><tspan>&gt; Indikator-Details</tspan></text></g><g class="highcharts-label" transform="translate(10,449)"><text x="0" data-z-index="1" style="cursor:pointer;" y="0"><tspan>&gt; Indikator-Details</tspan></text></g><g class="highcharts-pane-group" data-z-index="0"></g><g class="highcharts-plot-lines-0" data-z-index="0"><path fill="none" class="highcharts-plot-line "></path><path fill="none" class="highcharts-plot-line "></path><path fill="none" class="highcharts-plot-line "></path><path fill="none" class="highcharts-plot-line "></path><path fill="none" class="highcharts-plot-line "></path><path fill="none" class="highcharts-plot-line "></path><path fill="none" class="highcharts-plot-line "></path><path fill="none" class="highcharts-plot-line "></path><path fill="none" class="highcharts-plot-line "></path><path fill="none" class="highcharts-plot-line "></path><path fill="none" class="highcharts-plot-line "></path></g><g class="highcharts-plot-lines-0" data-z-index="0"><path fill="none" class="highcharts-plot-line "></path><path fill="none" class="highcharts-plot-line "></path><path fill="none" class="highcharts-plot-line "></path><path fill="none" class="highcharts-plot-line "></path><path fill="none" class="highcharts-plot-line "></path><path fill="none" class="highcharts-plot-line "></path><path fill="none" class="highcharts-plot-line "></path><path fill="none" class="highcharts-plot-line "></path><path fill="none" class="highcharts-plot-line "></path><path fill="none" class="highcharts-plot-line "></path><path fill="none" class="highcharts-plot-line "></path></g><g class="highcharts-grid highcharts-xaxis-grid" data-z-index="1"><path fill="none" data-z-index="1" class="highcharts-grid-line" d="M 72.5 215 L 72.5 327" opacity="1"></path><path fill="none" data-z-index="1" class="highcharts-grid-line" d="M 105.5 215 L 105.5 327" opacity="1"></path><path fill="none" data-z-index="1" class="highcharts-grid-line" d="M 139.5 215 L 139.5 327" opacity="1"></path><path fill="none" data-z-index="1" class="highcharts-grid-line" d="M 172.5 215 L 172.5 327" opacity="1"></path><path fill="none" data-z-index="1" class="highcharts-grid-line" d="M 206.5 215 L 206.5 327" opacity="1"></path><path fill="none" data-z-index="1" class="highcharts-grid-line" d="M 239.5 215 L 239.5 327" opacity="1"></path><path fill="none" data-z-index="1" class="highcharts-grid-line" d="M 273.5 215 L 273.5 327" opacity="1"></path><path fill="none" data-z-index="1" class="highcharts-grid-line" d="M 306.5 215 L 306.5 327" opacity="1"></path><path fill="none" data-z-index="1" class="highcharts-grid-line" d="M 340.5 215 L 340.5 327" opacity="1"></path><path fill="none" data-z-index="1" class="highcharts-grid-line" d="M 373.5 215 L 373.5 327" opacity="1"></path><path fill="none" data-z-index="1" class="highcharts-grid-line" d="M 407.5 215 L 407.5 327" opacity="1"></path><path fill="none" data-z-index="1" class="highcharts-grid-line" d="M 440.5 215 L 440.5 327" opacity="1"></path><path fill="none" data-z-index="1" class="highcharts-grid-line" d="M 474.5 215 L 474.5 327" opacity="1"></path><path fill="none" data-z-index="1" class="highcharts-grid-line" d="M 38.5 215 L 38.5 327" opacity="1"></path></g><g class="highcharts-grid highcharts-yaxis-grid" data-z-index="1"><path fill="none" stroke="#e6e6e6" stroke-width="1" data-z-index="1" class="highcharts-grid-line" d="M 39 327.5 L 475 327.5" opacity="1"></path><path fill="none" stroke="#e6e6e6" stroke-width="1" data-z-index="1" class="highcharts-grid-line" d="M 39 271.5 L 475 271.5" opacity="1"></path><path fill="none" stroke="#e6e6e6" stroke-width="1" data-z-index="1" class="highcharts-grid-line" d="M 39 214.5 L 475 214.5" opacity="1"></path></g><g class="highcharts-grid highcharts-yaxis-grid" data-z-index="1"></g><rect fill="none" class="highcharts-plot-border" data-z-index="1" x="39" y="215" width="436" height="112"></rect><g class="highcharts-axis highcharts-xaxis" data-z-index="2"><path fill="none" class="highcharts-axis-line" stroke="#ccd6eb" stroke-width="1" data-z-index="7" d="M 39 327.5 L 475 327.5"></path></g><g class="highcharts-axis highcharts-yaxis" data-z-index="2"><path fill="none" class="highcharts-axis-line" data-z-index="7" d="M 39 215 L 39 327"></path></g><g class="highcharts-axis highcharts-yaxis" data-z-index="2"><path fill="none" class="highcharts-axis-line" data-z-index="7" d="M 475 215 L 475 327"></path></g><g class="highcharts-series-group" data-z-index="3"><g class="highcharts-series highcharts-series-0 highcharts-line-series" data-z-index="0.1" opacity="1" transform="translate(39,215) scale(1 1)" clip-path="url(#highcharts-bgn9n24-100-)"><path fill="none" d="M 16.769230769231 107.52 L 50.307692307692 107.52 L 83.846153846154 103.03999999999999 L 117.38461538462 103.03999999999999 L 150.92307692308 112 L 184.46153846154 87.36 L 218 109.76 L 251.53846153846 98.56 L 285.07692307692 105.28 L 318.61538461538 98.56 L 352.15384615385 105.28 L 385.69230769231 109.76 L 419.23076923077 100.8" class="highcharts-graph" data-z-index="1" stroke="#73B97C" stroke-width="2" stroke-linejoin="round" stroke-linecap="round"></path></g><g class="highcharts-markers highcharts-series-0 highcharts-line-series" data-z-index="0.1" opacity="1" transform="translate(39,215) scale(1 1)" clip-path="none"></g><g class="highcharts-series highcharts-series-1 highcharts-line-series" data-z-index="0.1" opacity="1" transform="translate(39,215) scale(1 1)" clip-path="url(#highcharts-bgn9n24-100-)"><path fill="none" d="M 16.769230769231 62.72 L 50.307692307692 80.64 L 83.846153846154 73.91999999999999 L 117.38461538462 60.48 L 150.92307692308 85.12 L 184.46153846154 22.39999999999999 L 218 60.48 L 251.53846153846 22.39999999999999 L 285.07692307692 13.439999999999998 L 318.61538461538 35.83999999999999 L 352.15384615385 49.279999999999994 L 385.69230769231 98.56 L 419.23076923077 69.44" class="highcharts-graph" data-z-index="1" stroke="#68AB2B" stroke-width="2" stroke-linejoin="round" stroke-linecap="round"></path></g><g class="highcharts-markers highcharts-series-1 highcharts-line-series" data-z-index="0.1" opacity="1" transform="translate(39,215) scale(1 1)" clip-path="none"></g><g class="highcharts-series highcharts-series-2 highcharts-line-series" data-z-index="0.1" opacity="1" transform="translate(39,215) scale(1 1)" clip-path="url(#highcharts-bgn9n24-100-)"><path fill="none" d="M 16.769230769231 76.16 L 50.307692307692 80.64 L 83.846153846154 76.16 L 117.38461538462 71.67999999999999 L 150.92307692308 87.36 L 184.46153846154 35.83999999999999 L 218 69.44 L 251.53846153846 33.599999999999994 L 285.07692307692 26.879999999999995 L 318.61538461538 42.55999999999999 L 352.15384615385 58.239999999999995 L 385.69230769231 98.56 L 419.23076923077 82.88" class="highcharts-graph" data-z-index="1" stroke="#007A2F" stroke-width="2" stroke-linejoin="round" stroke-linecap="round"></path></g><g class="highcharts-markers highcharts-series-2 highcharts-line-series" data-z-index="0.1" opacity="1" transform="translate(39,215) scale(1 1)" clip-path="none"></g><g class="highcharts-series highcharts-series-3 highcharts-line-series" data-z-index="0.1" opacity="1" transform="translate(39,215) scale(1 1)" clip-path="url(#highcharts-bgn9n24-100-)"><path fill="none" d="M 16.769230769231 100.8 L 50.307692307692 98.56 L 83.846153846154 98.56 L 117.38461538462 98.56 L 150.92307692308 109.76 L 184.46153846154 64.96 L 218 109.76 L 251.53846153846 87.36 L 285.07692307692 91.84 L 318.61538461538 89.6 L 352.15384615385 94.08 L 385.69230769231 100.8 L 419.23076923077 87.36" class="highcharts-graph" data-z-index="1" stroke="#0A3B19" stroke-width="2" stroke-linejoin="round" stroke-linecap="round"></path></g><g class="highcharts-markers highcharts-series-3 highcharts-line-series" data-z-index="0.1" opacity="1" transform="translate(39,215) scale(1 1)" clip-path="none"></g><g class="highcharts-series highcharts-series-4 highcharts-line-series" data-z-index="0.1" opacity="1" transform="translate(39,215) scale(1 1)" clip-path="url(#highcharts-bgn9n24-100-)"><path fill="none" d="M 16.769230769231 112 L 50.307692307692 107.52 L 83.846153846154 105.28 L 117.38461538462 103.03999999999999 L 150.92307692308 112 L 184.46153846154 109.76 L 218 112 L 251.53846153846 109.76 L 285.07692307692 112 L 318.61538461538 105.28 L 352.15384615385 109.76 L 385.69230769231 112 L 419.23076923077 107.52" class="highcharts-graph" data-z-index="1" stroke="#FFDA80" stroke-width="2" stroke-linejoin="round" stroke-linecap="round"></path></g><g class="highcharts-markers highcharts-series-4 highcharts-line-series" data-z-index="0.1" opacity="1" transform="translate(39,215) scale(1 1)" clip-path="none"></g><g class="highcharts-series highcharts-series-5 highcharts-line-series" data-z-index="0.1" opacity="1" transform="translate(39,215) scale(1 1)" clip-path="url(#highcharts-bgn9n24-100-)"><path fill="none" d="M 16.769230769231 96.32 L 50.307692307692 105.28 L 83.846153846154 103.03999999999999 L 117.38461538462 96.32 L 150.92307692308 109.76 L 184.46153846154 62.72 L 218 103.03999999999999 L 251.53846153846 91.84 L 285.07692307692 98.56 L 318.61538461538 89.6 L 352.15384615385 96.32 L 385.69230769231 112 L 419.23076923077 103.03999999999999" class="highcharts-graph" data-z-index="1" stroke="#FABD24" stroke-width="2" stroke-linejoin="round" stroke-linecap="round"></path></g><g class="highcharts-markers highcharts-series-5 highcharts-line-series" data-z-index="0.1" opacity="1" transform="translate(39,215) scale(1 1)" clip-path="none"></g></g><text x="10" text-anchor="start" class="highcharts-title" data-z-index="4" style="color:#000000;font-size:1.1666em;font-weight:bold;fill:#000000;" y="21"><tspan>Tropennächte</tspan></text><text x="10" text-anchor="start" class="highcharts-subtitle" data-z-index="4" style="color:#000000;font-size:1em;fill:#000000;" y="41"><tspan>Anzahl Tropennächte, Basel-Stadt und Basel-Landschaft</tspan></text><text x="10" text-anchor="start" class="highcharts-caption" data-z-index="4" style="color:#666666;fill:#666666;" y="377"></text><g class="highcharts-axis-labels highcharts-xaxis-labels" data-z-index="7"><text x="58.59765789397741" style="color:#000000;cursor:default;font-size:0.91666em;fill:#000000;" text-anchor="end" transform="translate(0,0) rotate(-45 58.59765789397741 343)" y="343" opacity="1">2010</text><text x="92.13611943243541" style="color:#000000;cursor:default;font-size:0.91666em;fill:#000000;" text-anchor="end" transform="translate(0,0) rotate(-45 92.13611943243541 343)" y="343" opacity="1">2011</text><text x="125.67458097089542" style="color:#000000;cursor:default;font-size:0.91666em;fill:#000000;" text-anchor="end" transform="translate(0,0) rotate(-45 125.67458097089542 343)" y="343" opacity="1">2012</text><text x="159.2130425093654" style="color:#000000;cursor:default;font-size:0.91666em;fill:#000000;" text-anchor="end" transform="translate(0,0) rotate(-45 159.2130425093654 343)" y="343" opacity="1">2013</text><text x="192.75150404782542" style="color:#000000;cursor:default;font-size:0.91666em;fill:#000000;" text-anchor="end" transform="translate(0,0) rotate(-45 192.75150404782542 343)" y="343" opacity="1">2014</text><text x="226.2899655862854" style="color:#000000;cursor:default;font-size:0.91666em;fill:#000000;" text-anchor="end" transform="translate(0,0) rotate(-45 226.2899655862854 343)" y="343" opacity="1">2015</text><text x="259.8284271247454" style="color:#000000;cursor:default;font-size:0.91666em;fill:#000000;" text-anchor="end" transform="translate(0,0) rotate(-45 259.8284271247454 343)" y="343" opacity="1">2016</text><text x="293.36688866320543" style="color:#000000;cursor:default;font-size:0.91666em;fill:#000000;" text-anchor="end" transform="translate(0,0) rotate(-45 293.36688866320543 343)" y="343" opacity="1">2017</text><text x="326.90535020166544" style="color:#000000;cursor:default;font-size:0.91666em;fill:#000000;" text-anchor="end" transform="translate(0,0) rotate(-45 326.90535020166544 343)" y="343" opacity="1">2018</text><text x="360.44381174013546" style="color:#000000;cursor:default;font-size:0.91666em;fill:#000000;" text-anchor="end" transform="translate(0,0) rotate(-45 360.44381174013546 343)" y="343" opacity="1">2019</text><text x="393.9822732785954" style="color:#000000;cursor:default;font-size:0.91666em;fill:#000000;" text-anchor="end" transform="translate(0,0) rotate(-45 393.9822732785954 343)" y="343" opacity="1">2020</text><text x="427.5207348170554" style="color:#000000;cursor:default;font-size:0.91666em;fill:#000000;" text-anchor="end" transform="translate(0,0) rotate(-45 427.5207348170554 343)" y="343" opacity="1">2021</text><text x="461.05919635551544" style="color:#000000;cursor:default;font-size:0.91666em;fill:#000000;" text-anchor="end" transform="translate(0,0) rotate(-45 461.05919635551544 343)" y="343" opacity="1">2022</text></g><g class="highcharts-axis-labels highcharts-yaxis-labels" data-z-index="7"><text x="24" style="color:#000000;cursor:default;font-size:0.91666em;fill:#000000;" text-anchor="end" transform="translate(0,0)" y="331" opacity="1">0</text><text x="24" style="color:#000000;cursor:default;font-size:0.91666em;fill:#000000;" text-anchor="end" transform="translate(0,0)" y="275" opacity="1">25</text><text x="24" style="color:#000000;cursor:default;font-size:0.91666em;fill:#000000;" text-anchor="end" transform="translate(0,0)" y="219" opacity="1">50</text></g><g class="highcharts-axis-labels highcharts-yaxis-labels" data-z-index="7"></g><g class="highcharts-legend" data-z-index="7" transform="translate(27,58)"><rect fill="none" class="highcharts-legend-box" rx="0" ry="0" x="0" y="0" width="409" height="145" visibility="visible"></rect><g data-z-index="1"><g><g class="highcharts-legend-item highcharts-line-series highcharts-color-undefined highcharts-series-0" data-z-index="1" transform="translate(12,7)"><path fill="none" d="M 0 11 L 16 11" class="highcharts-graph" stroke="#73B97C" stroke-width="2"></path><text x="21" style="color:#333333;cursor:pointer;font-size:1em;font-weight:normal;fill:#333333;" text-anchor="start" data-z-index="2" y="15"><tspan>Basel-Binningen (vorstädtisch, keine Bebauung)</tspan></text></g><g class="highcharts-legend-item highcharts-line-series highcharts-color-undefined highcharts-series-1" data-z-index="1" transform="translate(12,28)"><path fill="none" d="M 0 11 L 16 11" class="highcharts-graph" stroke="#68AB2B" stroke-width="2"></path><text x="21" y="15" style="color:#333333;cursor:pointer;font-size:1em;font-weight:normal;fill:#333333;" text-anchor="start" data-z-index="2"><tspan>Feldbergstrasse, Basel (Stadtzentrum, geschlossene Bebauung)</tspan></text></g><g class="highcharts-legend-item highcharts-line-series highcharts-color-undefined highcharts-series-2" data-z-index="1" transform="translate(12,49)"><path fill="none" d="M 0 11 L 16 11" class="highcharts-graph" stroke="#007A2F" stroke-width="2"></path><text x="21" y="15" style="color:#333333;cursor:pointer;font-size:1em;font-weight:normal;fill:#333333;" text-anchor="start" data-z-index="2"><tspan>St. Johann, Basel (Stadtzentrum, offene Bebauung)</tspan></text></g><g class="highcharts-legend-item highcharts-line-series highcharts-color-undefined highcharts-series-3" data-z-index="1" transform="translate(12,70)"><path fill="none" d="M 0 11 L 16 11" class="highcharts-graph" stroke="#0A3B19" stroke-width="2"></path><text x="21" y="15" style="color:#333333;cursor:pointer;font-size:1em;font-weight:normal;fill:#333333;" text-anchor="start" data-z-index="2"><tspan>Klingelbergstrasse, Basel (Stadtzentrum, 38m über Grund)</tspan></text></g><g class="highcharts-legend-item highcharts-line-series highcharts-color-undefined highcharts-series-4" data-z-index="1" transform="translate(12,91)"><path fill="none" d="M 0 11 L 16 11" class="highcharts-graph" stroke="#FFDA80" stroke-width="2"></path><text x="21" y="15" style="color:#333333;cursor:pointer;font-size:1em;font-weight:normal;fill:#333333;" text-anchor="start" data-z-index="2"><tspan>Sissach (vorstädtisch, offene Bebauung)</tspan></text></g><g class="highcharts-legend-item highcharts-line-series highcharts-color-undefined highcharts-series-5" data-z-index="1" transform="translate(12,112)"><path fill="none" d="M 0 11 L 16 11" class="highcharts-graph" stroke="#FABD24" stroke-width="2"></path><text x="21" y="15" style="color:#333333;cursor:pointer;font-size:1em;font-weight:normal;fill:#333333;" text-anchor="start" data-z-index="2"><tspan>Dornach (vorstädtisch, offene Bebauung)</tspan></text></g></g></g></g><text x="10" class="highcharts-credits" text-anchor="start" data-z-index="8" style="cursor:default;color:#000000;font-size:0.8333em;fill:#000000;" y="400"><tspan>Quelle: Lufthygieneamt beider Basel, Universität Basel, MeteoSchweiz</tspan></text><g class="highcharts-control-points" data-z-index="99" clip-path="url(#highcharts-bgn9n24-166-)"></g></svg>