<?xml version="1.0" standalone="no"?><!DOCTYPE svg PUBLIC "-//W3C//DTD SVG 1.1//EN" "http://www.w3.org/Graphics/SVG/1.1/DTD/svg11.dtd"><svg xmlns:xlink="http://www.w3.org/1999/xlink" version="1.1" class="highcharts-root" style="font-family:Arial;font-size:12px;" xmlns="http://www.w3.org/2000/svg" viewBox="0 0 485 415"><desc>Created with Highcharts 8.2.2</desc><defs><clipPath id="highcharts-tefz105-33-"><rect x="0" y="0" width="381" height="215" fill="none"></rect></clipPath><clipPath id="highcharts-tefz105-46-"><rect x="0" y="0" width="381" height="215" fill="none"></rect></clipPath><clipPath id="highcharts-tefz105-59-"><rect x="0" y="0" width="381" height="215" fill="none"></rect></clipPath><clipPath id="highcharts-tefz105-60-"><rect x="52" y="136" width="381" height="215" fill="none"></rect></clipPath></defs><rect fill="#fbfbfb" class="highcharts-background" x="0" y="0" width="485" height="428" rx="0" ry="0"></rect><rect fill="none" class="highcharts-plot-background" x="52" y="136" width="381" height="215"></rect><g class="highcharts-pane-group" data-z-index="0"></g><g class="highcharts-grid highcharts-xaxis-grid" data-z-index="1"><path fill="none" data-z-index="1" class="highcharts-grid-line" d="M 55.5 136 L 55.5 351" opacity="1"></path><path fill="none" data-z-index="1" class="highcharts-grid-line" d="M 89.5 136 L 89.5 351" opacity="1"></path><path fill="none" data-z-index="1" class="highcharts-grid-line" d="M 123.5 136 L 123.5 351" opacity="1"></path><path fill="none" data-z-index="1" class="highcharts-grid-line" d="M 157.5 136 L 157.5 351" opacity="1"></path><path fill="none" data-z-index="1" class="highcharts-grid-line" d="M 191.5 136 L 191.5 351" opacity="1"></path><path fill="none" data-z-index="1" class="highcharts-grid-line" d="M 225.5 136 L 225.5 351" opacity="1"></path><path fill="none" data-z-index="1" class="highcharts-grid-line" d="M 258.5 136 L 258.5 351" opacity="1"></path><path fill="none" data-z-index="1" class="highcharts-grid-line" d="M 292.5 136 L 292.5 351" opacity="1"></path><path fill="none" data-z-index="1" class="highcharts-grid-line" d="M 326.5 136 L 326.5 351" opacity="1"></path><path fill="none" data-z-index="1" class="highcharts-grid-line" d="M 360.5 136 L 360.5 351" opacity="1"></path><path fill="none" data-z-index="1" class="highcharts-grid-line" d="M 394.5 136 L 394.5 351" opacity="1"></path><path fill="none" data-z-index="1" class="highcharts-grid-line" d="M 428.5 136 L 428.5 351" opacity="1"></path></g><g class="highcharts-grid highcharts-yaxis-grid" data-z-index="1"><path fill="none" stroke="#e6e6e6" stroke-width="1" data-z-index="1" class="highcharts-grid-line" d="M 52 351.5 L 433 351.5" opacity="1"></path><path fill="none" stroke="#e6e6e6" stroke-width="1" data-z-index="1" class="highcharts-grid-line" d="M 52 315.5 L 433 315.5" opacity="1"></path><path fill="none" stroke="#e6e6e6" stroke-width="1" data-z-index="1" class="highcharts-grid-line" d="M 52 279.5 L 433 279.5" opacity="1"></path><path fill="none" stroke="#e6e6e6" stroke-width="1" data-z-index="1" class="highcharts-grid-line" d="M 52 244.5 L 433 244.5" opacity="1"></path><path fill="none" stroke="#e6e6e6" stroke-width="1" data-z-index="1" class="highcharts-grid-line" d="M 52 208.5 L 433 208.5" opacity="1"></path><path fill="none" stroke="#e6e6e6" stroke-width="1" data-z-index="1" class="highcharts-grid-line" d="M 52 172.5 L 433 172.5" opacity="1"></path><path fill="none" stroke="#e6e6e6" stroke-width="1" data-z-index="1" class="highcharts-grid-line" d="M 52 135.5 L 433 135.5" opacity="1"></path></g><g class="highcharts-grid highcharts-yaxis-grid" data-z-index="1"><path fill="none" data-z-index="1" class="highcharts-grid-line" d="M 52 351.5 L 433 351.5" opacity="1"></path><path fill="none" data-z-index="1" class="highcharts-grid-line" d="M 52 320.5 L 433 320.5" opacity="1"></path><path fill="none" data-z-index="1" class="highcharts-grid-line" d="M 52 290.5 L 433 290.5" opacity="1"></path><path fill="none" data-z-index="1" class="highcharts-grid-line" d="M 52 259.5 L 433 259.5" opacity="1"></path><path fill="none" data-z-index="1" class="highcharts-grid-line" d="M 52 228.5 L 433 228.5" opacity="1"></path><path fill="none" data-z-index="1" class="highcharts-grid-line" d="M 52 197.5 L 433 197.5" opacity="1"></path><path fill="none" data-z-index="1" class="highcharts-grid-line" d="M 52 167.5 L 433 167.5" opacity="1"></path><path fill="none" data-z-index="1" class="highcharts-grid-line" d="M 52 136.5 L 433 136.5" opacity="1"></path></g><rect fill="none" class="highcharts-plot-border" data-z-index="1" x="52" y="136" width="381" height="215"></rect><g class="highcharts-axis highcharts-xaxis" data-z-index="2"><path fill="none" class="highcharts-axis-line" stroke="#B9CFD7" stroke-width="0.5" data-z-index="7" d="M 52 351.25 L 433 351.25"></path></g><g class="highcharts-axis highcharts-yaxis" data-z-index="2"><path fill="none" class="highcharts-axis-line" data-z-index="7" d="M 52 136 L 52 351"></path></g><g class="highcharts-axis highcharts-yaxis" data-z-index="2"><path fill="none" class="highcharts-axis-line" data-z-index="7" d="M 433 136 L 433 351"></path></g><g class="highcharts-series-group" data-z-index="3"><g class="highcharts-series highcharts-series-0 highcharts-line-series" data-z-index="0.1" opacity="1" transform="translate(52,136) scale(1 1)" clip-path="url(#highcharts-tefz105-46-)"><path fill="none" d="M 3.7352941176437 93.45333333333333 L 37.692513368981 81.62833333333333 L 71.649732620319 73.53 L 105.60695187166 62.42166666666665 L 139.56417112299 55.326666666666654 L 173.52139037433 53.89333333333332 L 207.47860962567 51.528333333333336 L 241.43582887701 50.16666666666666 L 275.39304812834 53.67833333333331 L 309.35026737968 58.91 L 343.30748663102 58.04999999999998 L 377.26470588236 64.57166666666666" class="highcharts-graph" data-z-index="1" stroke="#B00000" stroke-width="2" stroke-linejoin="round" stroke-linecap="round"></path></g><g class="highcharts-markers highcharts-series-0 highcharts-line-series" data-z-index="0.1" opacity="1" transform="translate(52,136) scale(1 1)" clip-path="none"></g><g class="highcharts-series highcharts-series-1 highcharts-line-series" data-z-index="0.1" opacity="1" transform="translate(52,136) scale(1 1)" clip-path="url(#highcharts-tefz105-59-)"><path fill="none" d="M 3.7352941176437 68.55428571428573 L 37.692513368981 67.87857142857143 L 71.649732620319 66.77285714285713 L 105.60695187166 69.10714285714286 L 139.56417112299 67.23357142857142 L 173.52139037433 62.196428571428555 L 207.47860962567 57.927142857142854 L 241.43582887701 57.25142857142856 L 275.39304812834 55.254999999999995 L 309.35026737968 55.34714285714284 L 343.30748663102 48.06785714285715 L 377.26470588236 38.60785714285714" class="highcharts-graph" data-z-index="1" stroke="#FF8028" stroke-width="2" stroke-linejoin="round" stroke-linecap="round"></path></g><g class="highcharts-markers highcharts-series-1 highcharts-line-series" data-z-index="0.1" opacity="1" transform="translate(52,136) scale(1 1)" clip-path="none"></g></g><text x="10" text-anchor="start" class="highcharts-title" data-z-index="4" style="color:#000000;font-size:14px;font-weight:bold;fill:#000000;" y="21"><tspan>Mietverhältnisse mit Familienmietzinsbeiträgen und</tspan><tspan dy="17" x="10">jährlicher Durchschnittsbeitrag in Franken</tspan></text><text x="10" text-anchor="start" class="highcharts-subtitle" data-z-index="4" style="color:#000000;font-size:12px;font-weight:normal;fill:#000000;" y="57"><tspan>Basel-Stadt</tspan></text><text x="10" text-anchor="start" class="highcharts-caption" data-z-index="4" style="color:#666666;fill:#666666;" y="385"></text><g class="highcharts-legend" data-z-index="7" transform="translate(44,73)"><rect fill="none" class="highcharts-legend-box" rx="0" ry="0" x="0" y="0" width="291" height="51" visibility="visible"></rect><g data-z-index="1"><g><g class="highcharts-legend-item highcharts-line-series highcharts-color-undefined highcharts-series-0" data-z-index="1" transform="translate(8,3)"><path fill="none" d="M 0 11 L 16 11" class="highcharts-graph" stroke="#B00000" stroke-width="2"></path><text x="21" style="color:#333333;cursor:pointer;font-size:12px;font-weight:normal;fill:#333333;" text-anchor="start" data-z-index="2" y="15"><tspan>Anzahl Mietverhältnisse</tspan></text></g><g class="highcharts-legend-item highcharts-line-series highcharts-color-undefined highcharts-series-1" data-z-index="1" transform="translate(8,23)"><path fill="none" d="M 0 11 L 16 11" class="highcharts-graph" stroke="#FF8028" stroke-width="2"></path><text x="21" y="15" style="color:#333333;cursor:pointer;font-size:12px;font-weight:normal;fill:#333333;" text-anchor="start" data-z-index="2"><tspan>Durchschnittsbeitrag in Franken (rechte Skala)</tspan></text></g></g></g></g><g class="highcharts-axis-labels highcharts-xaxis-labels" data-z-index="7"><text x="55.735294117644" style="color:#000000;cursor:default;font-size:11px;fill:#000000;" text-anchor="middle" transform="translate(0,0)" y="370" opacity="1">2013</text><text x="89.692513368981" style="color:#000000;cursor:default;font-size:11px;fill:#000000;" text-anchor="middle" transform="translate(0,0)" y="370" opacity="1">2014</text><text x="123.64973262032" style="color:#000000;cursor:default;font-size:11px;fill:#000000;" text-anchor="middle" transform="translate(0,0)" y="370" opacity="1">2015</text><text x="157.60695187166" style="color:#000000;cursor:default;font-size:11px;fill:#000000;" text-anchor="middle" transform="translate(0,0)" y="370" opacity="1">2016</text><text x="191.56417112299" style="color:#000000;cursor:default;font-size:11px;fill:#000000;" text-anchor="middle" transform="translate(0,0)" y="370" opacity="1">2017</text><text x="225.52139037433" style="color:#000000;cursor:default;font-size:11px;fill:#000000;" text-anchor="middle" transform="translate(0,0)" y="370" opacity="1">2018</text><text x="259.47860962567" style="color:#000000;cursor:default;font-size:11px;fill:#000000;" text-anchor="middle" transform="translate(0,0)" y="370" opacity="1">2019</text><text x="293.43582887701" style="color:#000000;cursor:default;font-size:11px;fill:#000000;" text-anchor="middle" transform="translate(0,0)" y="370" opacity="1">2020</text><text x="327.39304812834" style="color:#000000;cursor:default;font-size:11px;fill:#000000;" text-anchor="middle" transform="translate(0,0)" y="370" opacity="1">2021</text><text x="361.35026737968" style="color:#000000;cursor:default;font-size:11px;fill:#000000;" text-anchor="middle" transform="translate(0,0)" y="370" opacity="1">2022</text><text x="395.30748663102" style="color:#000000;cursor:default;font-size:11px;fill:#000000;" text-anchor="middle" transform="translate(0,0)" y="370" opacity="1">2023</text><text x="429.26470588236" style="color:#000000;cursor:default;font-size:11px;fill:#000000;" text-anchor="middle" transform="translate(0,0)" y="370" opacity="1">2024</text></g><g class="highcharts-axis-labels highcharts-yaxis-labels" data-z-index="7"><text x="37" style="color:#000000;cursor:default;font-size:11px;fill:#000000;" text-anchor="end" transform="translate(0,0)" y="355" opacity="1">0</text><text x="37" style="color:#000000;cursor:default;font-size:11px;fill:#000000;" text-anchor="end" transform="translate(0,0)" y="319" opacity="1">500</text><text x="37" style="color:#000000;cursor:default;font-size:11px;fill:#000000;" text-anchor="end" transform="translate(0,0)" y="283" opacity="1"><tspan>1 000</tspan></text><text x="37" style="color:#000000;cursor:default;font-size:11px;fill:#000000;" text-anchor="end" transform="translate(0,0)" y="248" opacity="1"><tspan>1 500</tspan></text><text x="37" style="color:#000000;cursor:default;font-size:11px;fill:#000000;" text-anchor="end" transform="translate(0,0)" y="212" opacity="1"><tspan>2 000</tspan></text><text x="37" style="color:#000000;cursor:default;font-size:11px;fill:#000000;" text-anchor="end" transform="translate(0,0)" y="176" opacity="1"><tspan>2 500</tspan></text><text x="37" style="color:#000000;cursor:default;font-size:11px;fill:#000000;" text-anchor="end" transform="translate(0,0)" y="140" opacity="1"><tspan>3 000</tspan></text></g><g class="highcharts-axis-labels highcharts-yaxis-labels" data-z-index="7"><text x="448" style="color:#000000;cursor:default;font-size:11px;fill:#000000;" text-anchor="start" transform="translate(0,0)" y="355" opacity="1">0</text><text x="448" style="color:#000000;cursor:default;font-size:11px;fill:#000000;" text-anchor="start" transform="translate(0,0)" y="324" opacity="1"><tspan>1 000</tspan></text><text x="448" style="color:#000000;cursor:default;font-size:11px;fill:#000000;" text-anchor="start" transform="translate(0,0)" y="294" opacity="1"><tspan>2 000</tspan></text><text x="448" style="color:#000000;cursor:default;font-size:11px;fill:#000000;" text-anchor="start" transform="translate(0,0)" y="263" opacity="1"><tspan>3 000</tspan></text><text x="448" style="color:#000000;cursor:default;font-size:11px;fill:#000000;" text-anchor="start" transform="translate(0,0)" y="232" opacity="1"><tspan>4 000</tspan></text><text x="448" style="color:#000000;cursor:default;font-size:11px;fill:#000000;" text-anchor="start" transform="translate(0,0)" y="201" opacity="1"><tspan>5 000</tspan></text><text x="448" style="color:#000000;cursor:default;font-size:11px;fill:#000000;" text-anchor="start" transform="translate(0,0)" y="171" opacity="1"><tspan>6 000</tspan></text><text x="448" style="color:#000000;cursor:default;font-size:11px;fill:#000000;" text-anchor="start" transform="translate(0,0)" y="140" opacity="1"><tspan>7 000</tspan></text></g><text x="10" class="highcharts-credits" text-anchor="start" data-z-index="8" style="cursor:default;color:#000000;font-size:10px;fill:#000000;" y="403"><tspan>Quelle: Amt für Sozialbeiträge Basel-Stadt, Abteilung Familienmietzinsbeiträge.</tspan><tspan x="10" dy="13">Zuletzt geändert: 15.4.2025</tspan></text><g class="highcharts-control-points" data-z-index="99" clip-path="url(#highcharts-tefz105-60-)"></g></svg>