<?xml version="1.0" standalone="no"?><!DOCTYPE svg PUBLIC "-//W3C//DTD SVG 1.1//EN" "http://www.w3.org/Graphics/SVG/1.1/DTD/svg11.dtd"><svg xmlns:xlink="http://www.w3.org/1999/xlink" version="1.1" class="highcharts-root" style="font-family:Arial;font-size:12px;" xmlns="http://www.w3.org/2000/svg" viewBox="0 0 485 415"><desc>Created with Highcharts 8.2.0</desc><defs><clipPath id="highcharts-0599r1w-26-"><rect x="0" y="0" width="455" height="317" fill="none"></rect></clipPath><clipPath id="highcharts-0599r1w-46"><circle cx="227.5" cy="158.5" r="134.725"></circle></clipPath><clipPath id="highcharts-0599r1w-47-"><rect x="20" y="56" width="455" height="317" fill="none"></rect></clipPath></defs><rect fill="#fbfbfb" class="highcharts-background" x="0" y="0" width="485" height="428" rx="0" ry="0"></rect><rect fill="none" class="highcharts-plot-background" x="20" y="56" width="455" height="317"></rect><path fill="#923F8D" d="M 243 65 A 142 142 0 0 1 317.87406056505586 327.65601955352395 L 243 207 A 0 0 0 0 0 243 207 Z" fill-opacity="0.5"></path><path fill="#68AB2B" d="M 317.7533671285845 327.7308332736052 A 142 142 0 0 1 106.45968709718821 245.99670437873237 L 243 207 A 0 0 0 0 0 243 207 Z" fill-opacity="0.5"></path><path fill="#689199" d="M 106.42075866945967 245.86014459023573 A 142 142 0 0 1 242.85800002366668 65.00007099999408 L 243 207 A 0 0 0 0 0 243 207 Z" fill-opacity="0.5"></path><path fill="#923F8D" d="M 243 65 A 142 142 0 0 1 317.87406056505586 327.65601955352395 L 243 207 A 0 0 0 0 0 243 207 Z" fill-opacity="0.5"></path><path fill="#68AB2B" d="M 317.7533671285845 327.7308332736052 A 142 142 0 0 1 106.45968709718821 245.99670437873237 L 243 207 A 0 0 0 0 0 243 207 Z" fill-opacity="0.5"></path><path fill="#689199" d="M 106.42075866945967 245.86014459023573 A 142 142 0 0 1 242.85800002366668 65.00007099999408 L 243 207 A 0 0 0 0 0 243 207 Z" fill-opacity="0.5"></path><g class="highcharts-pane-group" data-z-index="0"></g><g class="highcharts-grid highcharts-xaxis-grid" data-z-index="1"><path fill="none" stroke="white" stroke-width="1" data-z-index="1" class="highcharts-grid-line" d="M 247.5 214.5 L 270.8947507361772 81.82177547543029" opacity="1"></path><path fill="none" stroke="white" stroke-width="1" data-z-index="1" class="highcharts-grid-line" d="M 247.5 214.5 L 314.86249999999995 97.8247274751415" opacity="1"></path><path fill="none" stroke="white" stroke-width="1" data-z-index="1" class="highcharts-grid-line" d="M 247.5 214.5 L 350.7053375992043 127.900439284981" opacity="1"></path><path fill="none" stroke="white" stroke-width="1" data-z-index="1" class="highcharts-grid-line" d="M 247.5 214.5 L 374.1000883353815 168.42133619044927" opacity="1"></path><path fill="none" stroke="white" stroke-width="1" data-z-index="1" class="highcharts-grid-line" d="M 247.5 214.5 L 382.225 214.5" opacity="1"></path><path fill="none" stroke="white" stroke-width="1" data-z-index="1" class="highcharts-grid-line" d="M 247.5 214.5 L 374.1000883353815 260.57866380955073" opacity="1"></path><path fill="none" stroke="white" stroke-width="1" data-z-index="1" class="highcharts-grid-line" d="M 247.5 214.5 L 350.7053375992043 301.099560715019" opacity="1"></path><path fill="none" stroke="white" stroke-width="1" data-z-index="1" class="highcharts-grid-line" d="M 247.5 214.5 L 314.86250000000007 331.1752725248585" opacity="1"></path><path fill="none" stroke="white" stroke-width="1" data-z-index="1" class="highcharts-grid-line" d="M 247.5 214.5 L 270.89475073617723 347.1782245245697" opacity="1"></path><path fill="none" stroke="white" stroke-width="1" data-z-index="1" class="highcharts-grid-line" d="M 247.5 214.5 L 224.10524926382286 347.1782245245697" opacity="1"></path><path fill="none" stroke="white" stroke-width="1" data-z-index="1" class="highcharts-grid-line" d="M 247.5 214.5 L 180.13750000000005 331.1752725248585" opacity="1"></path><path fill="none" stroke="white" stroke-width="1" data-z-index="1" class="highcharts-grid-line" d="M 247.5 214.5 L 144.2946624007957 301.09956071501904" opacity="1"></path><path fill="none" stroke="white" stroke-width="1" data-z-index="1" class="highcharts-grid-line" d="M 247.5 214.5 L 120.89991166461853 260.5786638095508" opacity="1"></path><path fill="none" stroke="white" stroke-width="1" data-z-index="1" class="highcharts-grid-line" d="M 247.5 214.5 L 112.775 214.50000000000003" opacity="1"></path><path fill="none" stroke="white" stroke-width="1" data-z-index="1" class="highcharts-grid-line" d="M 247.5 214.5 L 120.89991166461847 168.42133619044935" opacity="1"></path><path fill="none" stroke="white" stroke-width="1" data-z-index="1" class="highcharts-grid-line" d="M 247.5 214.5 L 144.2946624007957 127.900439284981" opacity="1"></path><path fill="none" stroke="white" stroke-width="1" data-z-index="1" class="highcharts-grid-line" d="M 247.5 214.5 L 180.13749999999993 97.82472747514154" opacity="1"></path><path fill="none" stroke="white" stroke-width="1" data-z-index="1" class="highcharts-grid-line" d="M 247.5 214.5 L 224.10524926382269 81.82177547543029" opacity="1"></path><path fill="none" stroke="white" stroke-width="1" data-z-index="1" class="highcharts-grid-line" d="M 247.5 214.5 L 270.8947507361771 81.82177547543026" opacity="1"></path></g><g class="highcharts-grid highcharts-yaxis-grid" data-z-index="1"><path fill="none" stroke="white" stroke-width="1" data-z-index="1" class="highcharts-grid-line" d="M 247.5 214.5 L 247.5 214.5 L 247.5 214.5 L 247.5 214.5 L 247.5 214.5 L 247.5 214.5 L 247.5 214.5 L 247.5 214.5 L 247.5 214.5 L 247.5 214.5 L 247.5 214.5 L 247.5 214.5 L 247.5 214.5 L 247.5 214.5 L 247.5 214.5 L 247.5 214.5 L 247.5 214.5 L 247.5 214.5 L 247.5 214.5 L 247.5 214.5" opacity="1"></path><path fill="none" stroke="white" stroke-width="1" data-z-index="1" class="highcharts-grid-line" d="M 255.2612917134237 170.4835274089105 L 269.84774881516586 175.79256361734554 L 281.7387375921531 185.77028791444866 L 289.5000293055768 199.21323949446185 L 292.1954976303318 214.5 L 289.5000293055768 229.78676050553815 L 281.7387375921531 243.2297120855513 L 269.8477488151659 253.20743638265446 L 255.26129171342373 258.5164725910895 L 239.7387082865763 258.5164725910895 L 225.15225118483414 253.20743638265446 L 213.2612624078469 243.22971208555134 L 205.4999706944232 229.78676050553818 L 202.80450236966826 214.5 L 205.49997069442318 199.21323949446187 L 213.2612624078469 185.77028791444866 L 225.1522511848341 175.79256361734554 L 239.73870828657624 170.48352740891053 L 255.2612917134237 170.4835274089105 L 255.2612917134237 170.4835274089105" opacity="1"></path><path fill="none" stroke="white" stroke-width="1" data-z-index="1" class="highcharts-grid-line" d="M 263.0225834268474 126.46705481782104 L 292.1954976303317 137.08512723469104 L 315.9774751843062 157.04057582889735 L 331.5000586111536 183.9264789889237 L 336.8909952606635 214.5 L 331.5000586111536 245.0735210110763 L 315.9774751843062 271.9594241711026 L 292.1954976303318 291.9148727653089 L 263.02258342684746 302.532945182179 L 231.9774165731526 302.532945182179 L 202.80450236966828 291.9148727653089 L 179.02252481569383 271.9594241711027 L 163.49994138884642 245.07352101107637 L 158.1090047393365 214.5 L 163.49994138884637 183.92647898892375 L 179.02252481569383 157.04057582889735 L 202.8045023696682 137.08512723469107 L 231.9774165731525 126.46705481782105 L 263.0225834268474 126.46705481782104 L 263.0225834268474 126.46705481782104" opacity="1"></path><path fill="none" stroke="white" stroke-width="1" data-z-index="1" class="highcharts-grid-line" d="M 270.78387514027116 82.45058222673157 L 314.54324644549763 98.37769085203658 L 350.21621277645926 128.31086374334603 L 373.50008791673037 168.63971848338554 L 381.58649289099526 214.5 L 373.50008791673037 260.36028151661446 L 350.21621277645926 300.6891362566539 L 314.54324644549763 330.6223091479634 L 270.78387514027116 346.54941777326843 L 224.2161248597289 346.54941777326843 L 180.45675355450243 330.6223091479634 L 144.78378722354077 300.689136256654 L 121.49991208326963 260.3602815166145 L 113.41350710900477 214.50000000000003 L 121.49991208326959 168.63971848338562 L 144.78378722354074 128.31086374334603 L 180.4567535545023 98.37769085203664 L 224.21612485972875 82.4505822267316 L 270.7838751402711 82.45058222673157 L 270.78387514027116 82.45058222673157" opacity="1"></path></g><rect fill="none" class="highcharts-plot-border" data-z-index="1" x="20" y="56" width="455" height="317"></rect><g class="highcharts-axis highcharts-xaxis" data-z-index="2"><path fill="none" class="highcharts-axis-line" data-z-index="7" d="M 247.5 79.775 A 134.725 134.725 0 1 1 247.36527502245409 79.77506736249438 M 247.5 214.5 A 0 0 0 1 0 247.5 214.5"></path></g><g class="highcharts-axis highcharts-yaxis" data-z-index="2"><path fill="none" class="highcharts-axis-line" data-z-index="7" d="M 247.5 214.5 L 247.5 79.775"></path></g><g class="highcharts-series-group" data-z-index="3"><g class="highcharts-series highcharts-series-0 highcharts-area-series" data-z-index="0.1" opacity="1" transform="translate(20,56) scale(1 1)" clip-path="url(#highcharts-0599r1w-46)"><path fill="rgb(128,128,128)" fill-opacity="0.75" d="M 229.71751191812103 145.92386497397445 L 249.84774881516591 119.79256361734556 L 315.54246809410756 84.62359749429618 L 341.5000795437072 117.00736434210722 L 348.81635071090045 158.50000000000043 L 275.50003349208714 175.97058343490255 L 256.84748936470334 183.1254675019003 L 230.69253554502367 164.02963376895067 L 228.6087559590603 164.78806751301283 L 218.62995232751706 208.8045401041025 L 224.30746445497624 164.02963376895062 L 149.24002836079018 224.16791333839973 L 107.49991626978161 202.17645858725473 L 118.95379146919433 158.49999999999886 L 113.49992045629335 117.00736434210572 L 124.78378722353892 72.31086374334822 L 163.6492890995275 47.9073246209864 L 220.84746424563855 120.771594921923 L 229.71751191812103 145.92386497397445 L 227.4522467511416 158.77082213207837 L 227.54775324885838 158.77082213207837 L 227.6375 158.73815698604074 L 227.71066222185772 158.6767665926638 L 227.75841547071613 158.59405553941457 L 227.775 158.5 L 227.75841547071613 158.40594446058543 L 227.71066222185772 158.3232334073362 L 227.63750000000002 158.26184301395926 L 227.5477532488584 158.22917786792163 L 227.45224675114162 158.22917786792163 L 227.3625 158.26184301395926 L 227.28933777814228 158.3232334073362 L 227.24158452928387 158.40594446058543 L 227.225 158.5 L 227.24158452928387 158.59405553941457 L 227.28933777814228 158.6767665926638 L 227.36249999999998 158.73815698604074 L 227.4522467511416 158.77082213207837" class="highcharts-area" data-z-index="0"></path><path fill="none" d="M 229.71751191812103 145.92386497397445 L 249.84774881516591 119.79256361734556 L 315.54246809410756 84.62359749429618 L 341.5000795437072 117.00736434210722 L 348.81635071090045 158.50000000000043 L 275.50003349208714 175.97058343490255 L 256.84748936470334 183.1254675019003 L 230.69253554502367 164.02963376895067 L 228.6087559590603 164.78806751301283 L 218.62995232751706 208.8045401041025 L 224.30746445497624 164.02963376895062 L 149.24002836079018 224.16791333839973 L 107.49991626978161 202.17645858725473 L 118.95379146919433 158.49999999999886 L 113.49992045629335 117.00736434210572 L 124.78378722353892 72.31086374334822 L 163.6492890995275 47.9073246209864 L 220.84746424563855 120.771594921923 L 229.71751191812103 145.92386497397445" class="highcharts-graph" data-z-index="1" stroke="white" stroke-width="0.5" stroke-linejoin="round" stroke-linecap="round"></path></g><g class="highcharts-markers highcharts-series-0 highcharts-area-series" data-z-index="0.1" opacity="1" transform="translate(20,56) scale(1 1)" clip-path="none"></g></g><text x="10" text-anchor="start" class="highcharts-title" data-z-index="4" style="color:#000000;font-size:14px;font-weight:bold;font-family:Arial;fill:#000000;" y="21"><tspan>Quartierradar Altstadt Grossbasel</tspan></text><text x="10" text-anchor="start" class="highcharts-subtitle" data-z-index="4" style="color:#000000;font-size:12px;font-weight:normal;font-family:Arial;fill:#000000;" y="40"><tspan>Stand 2016</tspan></text><text x="10" text-anchor="start" class="highcharts-caption" data-z-index="4" style="color:#666666;fill:#666666;" y="385"></text><g class="highcharts-axis-labels highcharts-xaxis-labels" data-z-index="7"><text x="273.49947340118115" style="color:#000000;cursor:default;font-size:10px;fill:#000000;" transform="translate(0,0)" text-anchor="start" y="70.54965918024715" opacity="1"><tspan>Anteil Sozialhilfeempfänger</tspan></text><text x="322.36249999999995" style="color:#000000;cursor:default;font-size:10px;fill:#000000;" transform="translate(0,0)" text-anchor="start" y="88.3343464183749" opacity="1"><tspan>Anteil Ausländer</tspan></text><text x="362.196004245989" style="color:#000000;cursor:default;font-size:10px;fill:#000000;" transform="translate(0,0)" text-anchor="start" y="115.25862513968292" opacity="1"><tspan>Anteil Personen ohne</tspan><tspan dy="13" x="362.196004245989">Religionszugehörigkeit</tspan></text><text x="388.19547764717015" style="color:#000000;cursor:default;font-size:10px;fill:#000000;" transform="translate(0,0)" text-anchor="start" y="153.79103404056426" opacity="1"><tspan>Anteil Personen in</tspan><tspan dy="13" x="388.19547764717015">Einpersonen-</tspan><tspan dy="13" x="388.19547764717015">haushalten</tspan></text><text x="397.225" style="color:#000000;cursor:default;font-size:10px;fill:#000000;" transform="translate(0,0)" text-anchor="start" y="218" opacity="1"><tspan>Gymnasialquote</tspan></text><text x="388.19547764717015" style="color:#000000;cursor:default;font-size:10px;fill:#000000;" transform="translate(0,0)" text-anchor="start" y="269.2089659594358" opacity="1"><tspan>Altersquotient</tspan></text><text x="362.196004245989" style="color:#000000;cursor:default;font-size:10px;fill:#000000;" transform="translate(0,0)" text-anchor="start" y="314.241374860317" opacity="1"><tspan>Anteil Sesshafte</tspan></text><text x="322.36250000000007" style="color:#000000;cursor:default;font-size:10px;fill:#000000;" transform="translate(0,0)" text-anchor="start" y="347.66565358162507" opacity="1"><tspan>Jugendquotient</tspan></text><text x="273.4994734011812" style="color:#000000;cursor:default;font-size:10px;fill:#000000;" transform="translate(0,0)" text-anchor="start" y="365.45034081975285" opacity="1"><tspan>Baujahr Wohngebäude</tspan></text><text x="221.5005265988189" style="color:#000000;cursor:default;font-size:10px;fill:#000000;" transform="translate(0,0)" text-anchor="end" y="358.95034081975285" opacity="1"><tspan>Anteil</tspan><tspan dy="13" x="221.5005265988189">Einfamilienhäuser</tspan></text><text x="172.63750000000005" style="color:#000000;cursor:default;font-size:10px;fill:#000000;" transform="translate(0,0)" text-anchor="end" y="347.66565358162507" opacity="0"><tspan>Anteil Grünfläche</tspan></text><text x="132.80399575401105" style="color:#000000;cursor:default;font-size:10px;fill:#000000;" transform="translate(0,0)" text-anchor="end" y="314.24137486031714" opacity="1"><tspan>Fläche pro Wohnung</tspan></text><text x="106.8045223528299" style="color:#000000;cursor:default;font-size:10px;fill:#000000;" transform="translate(0,0)" text-anchor="end" y="269.20896595943583" opacity="1"><tspan>Wohnfläche pro Kopf</tspan></text><text x="97.775" style="color:#000000;cursor:default;font-size:10px;fill:#000000;" transform="translate(0,0)" text-anchor="end" y="218.00000000000003" opacity="1"><tspan>Vermögenssteuer</tspan></text><text x="106.80452235282985" style="color:#000000;cursor:default;font-size:10px;fill:#000000;" transform="translate(0,0)" text-anchor="end" y="166.79103404056434" opacity="1"><tspan>Einkommenssteuer</tspan></text><text x="132.80399575401103" style="color:#000000;cursor:default;font-size:10px;fill:#000000;" transform="translate(0,0)" text-anchor="end" y="121.75862513968292" opacity="1"><tspan>Erwerbstätigenquote</tspan></text><text x="172.63749999999993" style="color:#000000;cursor:default;font-size:10px;fill:#000000;" transform="translate(0,0)" text-anchor="end" y="88.33434641837496" opacity="1"><tspan>Arbeitsplätze pro Kopf</tspan></text><text x="221.50052659881874" style="color:#000000;cursor:default;font-size:10px;fill:#000000;" transform="translate(0,0)" text-anchor="end" y="70.54965918024718" opacity="1"><tspan>Arbeitslosenquote</tspan></text><text x="0" style="color:#000000;cursor:default;font-size:10px;fill:#000000;" transform="translate(0,0)" text-anchor="middle" y="-9999">18</text></g><g class="highcharts-axis-labels highcharts-yaxis-labels" data-z-index="7"><text x="0" style="color:white;cursor:default;font-size:10px;fill:white;" text-anchor="end" transform="translate(0,0)" y="-9999" opacity="0"><tspan>0</tspan></text><text x="247.5" style="color:white;cursor:default;font-size:10px;fill:white;" text-anchor="end" transform="translate(0,0)" y="180.80450236966826" opacity="1"><tspan>7</tspan></text><text x="247.5" style="color:white;cursor:default;font-size:10px;fill:white;" text-anchor="end" transform="translate(0,0)" y="136.1090047393365" opacity="1"><tspan>14</tspan></text><text x="247.5" style="color:white;cursor:default;font-size:10px;fill:white;" text-anchor="end" transform="translate(0,0)" y="91.41350710900477" opacity="1"><tspan>21</tspan></text></g><text x="10" class="highcharts-credits" text-anchor="start" data-z-index="8" style="cursor:default;color:#000000;font-size:10px;fill:#000000;" y="403"><tspan>Quelle: Statistisches Amt Basel-Stadt.</tspan><tspan x="10" dy="13">Zuletzt geändert: 26.9.2017</tspan></text><g class="highcharts-control-points" data-z-index="99" clip-path="url(#highcharts-0599r1w-47-)"></g></svg>