<?xml version="1.0" standalone="no"?><!DOCTYPE svg PUBLIC "-//W3C//DTD SVG 1.1//EN" "http://www.w3.org/Graphics/SVG/1.1/DTD/svg11.dtd"><svg xmlns:xlink="http://www.w3.org/1999/xlink" version="1.1" class="highcharts-root" style="font-family:Arial;font-size:12px;" xmlns="http://www.w3.org/2000/svg" viewBox="0 0 485 415"><desc>Created with Highcharts 5.0.2</desc><defs><clipPath id="highcharts-1"><rect x="0" y="0" width="419" height="230" fill="none"></rect></clipPath></defs><rect fill="#fbfbfb" class="highcharts-background" x="0" y="0" width="485" height="415" rx="0" ry="0"></rect><rect fill="none" class="highcharts-plot-background" x="56" y="120" width="419" height="230"></rect><g class="highcharts-grid highcharts-xaxis-grid "><path fill="none" class="highcharts-grid-line" d="M 59.5 120 L 59.5 350" opacity="1"></path><path fill="none" class="highcharts-grid-line" d="M 141.5 120 L 141.5 350" opacity="1"></path><path fill="none" class="highcharts-grid-line" d="M 223.5 120 L 223.5 350" opacity="1"></path><path fill="none" class="highcharts-grid-line" d="M 306.5 120 L 306.5 350" opacity="1"></path><path fill="none" class="highcharts-grid-line" d="M 388.5 120 L 388.5 350" opacity="1"></path><path fill="none" class="highcharts-grid-line" d="M 470.5 120 L 470.5 350" opacity="1"></path></g><g class="highcharts-grid highcharts-yaxis-grid "><path fill="none" stroke="#e6e6e6" stroke-width="1" class="highcharts-grid-line" d="M 56 350.5 L 475 350.5" opacity="1"></path><path fill="none" stroke="#e6e6e6" stroke-width="1" class="highcharts-grid-line" d="M 56 273.5 L 475 273.5" opacity="1"></path><path fill="none" stroke="#e6e6e6" stroke-width="1" class="highcharts-grid-line" d="M 56 197.5 L 475 197.5" opacity="1"></path><path fill="none" stroke="#e6e6e6" stroke-width="1" class="highcharts-grid-line" d="M 56 120.5 L 475 120.5" opacity="1"></path></g><rect fill="none" class="highcharts-plot-border" x="56" y="120" width="419" height="230"></rect><g class="highcharts-axis highcharts-xaxis "><path fill="none" class="highcharts-axis-line" stroke="#ccd6eb" stroke-width="1" d="M 56 350.5 L 475 350.5"></path></g><g class="highcharts-axis highcharts-yaxis "><path fill="none" class="highcharts-axis-line" d="M 56 120 L 56 350"></path></g><g class="highcharts-series-group"><g class="highcharts-series highcharts-series-0 highcharts-line-series highcharts-color-undefined " transform="translate(56,120) scale(1 1)" width="230" height="419" clip-path="url(#highcharts-1)"><path fill="none" d="M 4.1078431372512 179.39999999999998 L 86.264705882351 185.53333333333333 L 168.42156862745 185.53333333333333 L 250.57843137255 185.53333333333333 L 332.73529411765 188.6 L 414.89215686275 187.06666666666666" class="highcharts-graph" stroke="#B00000" stroke-width="2" stroke-linejoin="round" stroke-linecap="round"></path><path fill="none" d="M -5.8921568627488 179.39999999999998 L 4.1078431372512 179.39999999999998 L 86.264705882351 185.53333333333333 L 168.42156862745 185.53333333333333 L 250.57843137255 185.53333333333333 L 332.73529411765 188.6 L 414.89215686275 187.06666666666666 L 424.89215686275 187.06666666666666" stroke-linejoin="round" visibility="visible" stroke="rgba(192,192,192,0.0001)" stroke-width="22" class="highcharts-tracker"></path></g><g class="highcharts-markers highcharts-series-0 highcharts-line-series highcharts-color-undefined highcharts-tracker" transform="translate(56,120) scale(1 1)" width="230" height="419" clip-path="none"></g><g class="highcharts-series highcharts-series-1 highcharts-line-series highcharts-color-undefined " transform="translate(56,120) scale(1 1)" width="230" height="419" clip-path="url(#highcharts-1)"><path fill="none" d="M 4.1078431372512 147.2 L 86.264705882351 159.46666666666664 L 168.42156862745 159.46666666666664 L 250.57843137255 159.46666666666664 L 332.73529411765 164.06666666666666 L 414.89215686275 159.46666666666664" class="highcharts-graph" stroke="#71A3B5" stroke-width="2" stroke-linejoin="round" stroke-linecap="round"></path><path fill="none" d="M -5.8921568627488 147.2 L 4.1078431372512 147.2 L 86.264705882351 159.46666666666664 L 168.42156862745 159.46666666666664 L 250.57843137255 159.46666666666664 L 332.73529411765 164.06666666666666 L 414.89215686275 159.46666666666664 L 424.89215686275 159.46666666666664" stroke-linejoin="round" visibility="visible" stroke="rgba(192,192,192,0.0001)" stroke-width="22" class="highcharts-tracker"></path></g><g class="highcharts-markers highcharts-series-1 highcharts-line-series highcharts-color-undefined highcharts-tracker" transform="translate(56,120) scale(1 1)" width="230" height="419" clip-path="none"><path fill="#71A3B5" d="M 414 155 C 419.328 155 419.328 163 414 163 C 408.672 163 408.672 155 414 155 Z" class="highcharts-point"></path><path fill="#71A3B5" d="M 332 160 C 337.328 160 337.328 168 332 168 C 326.672 168 326.672 160 332 160 Z" class="highcharts-point"></path><path fill="#71A3B5" d="M 250 155 C 255.328 155 255.328 163 250 163 C 244.672 163 244.672 155 250 155 Z" class="highcharts-point"></path><path fill="#71A3B5" d="M 168 155 C 173.328 155 173.328 163 168 163 C 162.672 163 162.672 155 168 155 Z" class="highcharts-point"></path><path fill="#71A3B5" d="M 86 155 C 91.328 155 91.328 163 86 163 C 80.672 163 80.672 155 86 155 Z" class="highcharts-point"></path><path fill="#71A3B5" d="M 4 143 C 9.328 143 9.328 151 4 151 C -1.328 151 -1.328 143 4 143 Z" class="highcharts-point"></path></g><g class="highcharts-series highcharts-series-2 highcharts-line-series highcharts-color-undefined " transform="translate(56,120) scale(1 1)" width="230" height="419" clip-path="url(#highcharts-1)"><path fill="none" d="M 4.1078431372512 182.46666666666667 L 86.264705882351 187.06666666666666 L 168.42156862745 185.53333333333333 L 250.57843137255 182.46666666666667 L 332.73529411765 185.53333333333333 L 414.89215686275 179.39999999999998" class="highcharts-graph" stroke="#672773" stroke-width="2" stroke-linejoin="round" stroke-linecap="round"></path><path fill="none" d="M -5.8921568627488 182.46666666666667 L 4.1078431372512 182.46666666666667 L 86.264705882351 187.06666666666666 L 168.42156862745 185.53333333333333 L 250.57843137255 182.46666666666667 L 332.73529411765 185.53333333333333 L 414.89215686275 179.39999999999998 L 424.89215686275 179.39999999999998" stroke-linejoin="round" visibility="visible" stroke="rgba(192,192,192,0.0001)" stroke-width="22" class="highcharts-tracker"></path></g><g class="highcharts-markers highcharts-series-2 highcharts-line-series highcharts-color-undefined highcharts-tracker" transform="translate(56,120) scale(1 1)" width="230" height="419" clip-path="none"></g><g class="highcharts-series highcharts-series-3 highcharts-line-series highcharts-color-undefined " transform="translate(56,120) scale(1 1)" width="230" height="419" clip-path="url(#highcharts-1)"><path fill="none" d="M 4.1078431372512 145.66666666666666 L 86.264705882351 154.86666666666667 L 168.42156862745 162.53333333333333 L 250.57843137255 159.46666666666664 L 332.73529411765 159.46666666666664 L 414.89215686275 159.46666666666664" class="highcharts-graph" stroke="#007A2F" stroke-width="2" stroke-linejoin="round" stroke-linecap="round"></path><path fill="none" d="M -5.8921568627488 145.66666666666666 L 4.1078431372512 145.66666666666666 L 86.264705882351 154.86666666666667 L 168.42156862745 162.53333333333333 L 250.57843137255 159.46666666666664 L 332.73529411765 159.46666666666664 L 414.89215686275 159.46666666666664 L 424.89215686275 159.46666666666664" stroke-linejoin="round" visibility="visible" stroke="rgba(192,192,192,0.0001)" stroke-width="22" class="highcharts-tracker"></path></g><g class="highcharts-markers highcharts-series-3 highcharts-line-series highcharts-color-undefined highcharts-tracker" transform="translate(56,120) scale(1 1)" width="230" height="419" clip-path="none"></g><g class="highcharts-series highcharts-series-4 highcharts-line-series highcharts-color-undefined " transform="translate(56,120) scale(1 1)" width="230" height="419" clip-path="url(#highcharts-1)"><path fill="none" d="M 4.1078431372512 174.8 L 86.264705882351 180.93333333333334 L 168.42156862745 167.13333333333333 L 250.57843137255 159.46666666666664 L 332.73529411765 154.86666666666667 L 414.89215686275 128.79999999999998" class="highcharts-graph" stroke="#73BA7C" stroke-width="2" stroke-linejoin="round" stroke-linecap="round"></path><path fill="none" d="M -5.8921568627488 174.8 L 4.1078431372512 174.8 L 86.264705882351 180.93333333333334 L 168.42156862745 167.13333333333333 L 250.57843137255 159.46666666666664 L 332.73529411765 154.86666666666667 L 414.89215686275 128.79999999999998 L 424.89215686275 128.79999999999998" stroke-linejoin="round" visibility="visible" stroke="rgba(192,192,192,0.0001)" stroke-width="22" class="highcharts-tracker"></path></g><g class="highcharts-markers highcharts-series-4 highcharts-line-series highcharts-color-undefined highcharts-tracker" transform="translate(56,120) scale(1 1)" width="230" height="419" clip-path="none"></g><g class="highcharts-series highcharts-series-5 highcharts-line-series highcharts-color-undefined " transform="translate(56,120) scale(1 1)" width="230" height="419" clip-path="url(#highcharts-1)"><path fill="none" d="M 4.1078431372512 50.599999999999966 L 86.264705882351 85.86666666666665 L 168.42156862745 99.66666666666666 L 250.57843137255 90.46666666666667 L 332.73529411765 105.79999999999998 L 414.89215686275 107.33333333333331" class="highcharts-graph" stroke="#FABD24" stroke-width="2" stroke-linejoin="round" stroke-linecap="round"></path><path fill="none" d="M -5.8921568627488 50.599999999999966 L 4.1078431372512 50.599999999999966 L 86.264705882351 85.86666666666665 L 168.42156862745 99.66666666666666 L 250.57843137255 90.46666666666667 L 332.73529411765 105.79999999999998 L 414.89215686275 107.33333333333331 L 424.89215686275 107.33333333333331" stroke-linejoin="round" visibility="visible" stroke="rgba(192,192,192,0.0001)" stroke-width="22" class="highcharts-tracker"></path></g><g class="highcharts-markers highcharts-series-5 highcharts-line-series highcharts-color-undefined highcharts-tracker" transform="translate(56,120) scale(1 1)" width="230" height="419" clip-path="none"></g><g class="highcharts-series highcharts-series-6 highcharts-line-series highcharts-color-undefined " transform="translate(56,120) scale(1 1)" width="230" height="419" clip-path="url(#highcharts-1)"><path fill="none" d="M 4.1078431372512 93.53333333333333 L 86.264705882351 118.06666666666666 L 168.42156862745 122.66666666666664 L 250.57843137255 124.19999999999997 L 332.73529411765 125.73333333333332 L 414.89215686275 118.06666666666666" class="highcharts-graph" stroke="#A0BEC8" stroke-width="2" stroke-linejoin="round" stroke-linecap="round"></path><path fill="none" d="M -5.8921568627488 93.53333333333333 L 4.1078431372512 93.53333333333333 L 86.264705882351 118.06666666666666 L 168.42156862745 122.66666666666664 L 250.57843137255 124.19999999999997 L 332.73529411765 125.73333333333332 L 414.89215686275 118.06666666666666 L 424.89215686275 118.06666666666666" stroke-linejoin="round" visibility="visible" stroke="rgba(192,192,192,0.0001)" stroke-width="22" class="highcharts-tracker"></path></g><g class="highcharts-markers highcharts-series-6 highcharts-line-series highcharts-color-undefined highcharts-tracker" transform="translate(56,120) scale(1 1)" width="230" height="419" clip-path="none"></g><g class="highcharts-series highcharts-series-7 highcharts-line-series highcharts-color-undefined " transform="translate(56,120) scale(1 1)" width="230" height="419" clip-path="url(#highcharts-1)"><path fill="none" d="M 4.1078431372512 179.39999999999998 L 86.264705882351 173.26666666666665 L 168.42156862745 161 L 250.57843137255 141.06666666666666 L 332.73529411765 125.73333333333332 L 414.89215686275 101.19999999999999" class="highcharts-graph" stroke="#E7CFE2" stroke-width="2" stroke-linejoin="round" stroke-linecap="round"></path><path fill="none" d="M -5.8921568627488 179.39999999999998 L 4.1078431372512 179.39999999999998 L 86.264705882351 173.26666666666665 L 168.42156862745 161 L 250.57843137255 141.06666666666666 L 332.73529411765 125.73333333333332 L 414.89215686275 101.19999999999999 L 424.89215686275 101.19999999999999" stroke-linejoin="round" visibility="visible" stroke="rgba(192,192,192,0.0001)" stroke-width="22" class="highcharts-tracker"></path></g><g class="highcharts-markers highcharts-series-7 highcharts-line-series highcharts-color-undefined highcharts-tracker" transform="translate(56,120) scale(1 1)" width="230" height="419" clip-path="none"></g><g class="highcharts-series highcharts-series-8 highcharts-line-series highcharts-color-undefined " transform="translate(56,120) scale(1 1)" width="230" height="419" clip-path="url(#highcharts-1)"><path fill="none" d="M 4.1078431372512 138 L 86.264705882351 139.53333333333333 L 168.42156862745 130.33333333333331 L 250.57843137255 128.79999999999998 L 332.73529411765 151.8 L 414.89215686275 142.6" class="highcharts-graph" stroke="#FF8028" stroke-width="2" stroke-linejoin="round" stroke-linecap="round"></path><path fill="none" d="M -5.8921568627488 138 L 4.1078431372512 138 L 86.264705882351 139.53333333333333 L 168.42156862745 130.33333333333331 L 250.57843137255 128.79999999999998 L 332.73529411765 151.8 L 414.89215686275 142.6 L 424.89215686275 142.6" stroke-linejoin="round" visibility="visible" stroke="rgba(192,192,192,0.0001)" stroke-width="22" class="highcharts-tracker"></path></g><g class="highcharts-markers highcharts-series-8 highcharts-line-series highcharts-color-undefined highcharts-tracker" transform="translate(56,120) scale(1 1)" width="230" height="419" clip-path="none"></g></g><text x="10" text-anchor="start" class="highcharts-title" style="color:#000000;font-size:14px;font-weight:bold;fill:#000000;width:421px;" y="21"><tspan>I.03.0.0002 Arbeitslosenquote nach Staatsangehörigkeit seit</tspan><tspan dy="17" x="10">2010</tspan><title>I.03.0.0002 Arbeitslosenquote nach Staatsangehörigkeit seit 2010</title></text><g class="highcharts-legend" transform="translate(30,45)"><rect fill="none" class="highcharts-legend-box" rx="0" ry="0" x="0" y="0" width="431" height="65" visibility="visible"></rect><g><g><g class="highcharts-legend-item highcharts-line-series highcharts-color-undefined highcharts-series-0" transform="translate(8,3)"><path fill="none" d="M 0 11 L 16 11" class="highcharts-graph" stroke="#B00000" stroke-width="2"></path><text x="21" style="color:#333333;font-size:12px;font-weight:normal;cursor:pointer;fill:#333333;" text-anchor="start" y="15">Schweiz</text></g><g class="highcharts-legend-item highcharts-line-series highcharts-color-undefined highcharts-series-1" transform="translate(93.65625,3)"><path fill="none" d="M 0 11 L 16 11" class="highcharts-graph" stroke="#71A3B5" stroke-width="2"></path><path fill="#71A3B5" d="M 8 7 C 13.328 7 13.328 15 8 15 C 2.6719999999999997 15 2.6719999999999997 7 8 7 Z" class="highcharts-point"></path><text x="21" y="15" style="color:#333333;font-size:12px;font-weight:normal;cursor:pointer;fill:#333333;" text-anchor="start">Ausland</text></g><g class="highcharts-legend-item highcharts-line-series highcharts-color-undefined highcharts-series-2" transform="translate(178,3)"><path fill="none" d="M 0 11 L 16 11" class="highcharts-graph" stroke="#672773" stroke-width="2"></path><text x="21" y="15" style="color:#333333;font-size:12px;font-weight:normal;cursor:pointer;fill:#333333;" text-anchor="start">Deutschland</text></g><g class="highcharts-legend-item highcharts-line-series highcharts-color-undefined highcharts-series-3" transform="translate(285.671875,3)"><path fill="none" d="M 0 11 L 16 11" class="highcharts-graph" stroke="#007A2F" stroke-width="2"></path><text x="21" y="15" style="color:#333333;font-size:12px;font-weight:normal;cursor:pointer;fill:#333333;" text-anchor="start">Italien</text></g><g class="highcharts-legend-item highcharts-line-series highcharts-color-undefined highcharts-series-4" transform="translate(358.65625,3)"><path fill="none" d="M 0 11 L 16 11" class="highcharts-graph" stroke="#73BA7C" stroke-width="2"></path><text x="21" y="15" style="color:#333333;font-size:12px;font-weight:normal;cursor:pointer;fill:#333333;" text-anchor="start">Spanien</text></g><g class="highcharts-legend-item highcharts-line-series highcharts-color-undefined highcharts-series-5" transform="translate(8,21)"><path fill="none" d="M 0 11 L 16 11" class="highcharts-graph" stroke="#FABD24" stroke-width="2"></path><text x="21" y="15" style="color:#333333;font-size:12px;font-weight:normal;cursor:pointer;fill:#333333;" text-anchor="start">Türkei</text></g><g class="highcharts-legend-item highcharts-line-series highcharts-color-undefined highcharts-series-6" transform="translate(82.3125,21)"><path fill="none" d="M 0 11 L 16 11" class="highcharts-graph" stroke="#A0BEC8" stroke-width="2"></path><text x="21" y="15" style="color:#333333;font-size:12px;font-weight:normal;cursor:pointer;fill:#333333;" text-anchor="start"><tspan>Ehem. Jugoslawien ohne SLO</tspan></text></g><g class="highcharts-legend-item highcharts-line-series highcharts-color-undefined highcharts-series-7" transform="translate(284.640625,21)"><path fill="none" d="M 0 11 L 16 11" class="highcharts-graph" stroke="#E7CFE2" stroke-width="2"></path><text x="21" y="15" style="color:#333333;font-size:12px;font-weight:normal;cursor:pointer;fill:#333333;" text-anchor="start">EU-Oststaaten</text></g><g class="highcharts-legend-item highcharts-line-series highcharts-color-undefined highcharts-series-8" transform="translate(8,39)"><path fill="none" d="M 0 11 L 16 11" class="highcharts-graph" stroke="#FF8028" stroke-width="2"></path><text x="21" y="15" style="color:#333333;font-size:12px;font-weight:normal;cursor:pointer;fill:#333333;" text-anchor="start"><tspan>Mittel- und Südamerika</tspan></text></g></g></g></g><g class="highcharts-axis-labels highcharts-xaxis-labels "><text x="60.10784313725124" style="color:#000000;cursor:default;font-size:11px;fill:#000000;width:74px;text-overflow:clip;" text-anchor="middle" transform="translate(0,0)" y="369" opacity="1"><tspan>2010</tspan></text><text x="142.26470588235074" style="color:#000000;cursor:default;font-size:11px;fill:#000000;width:74px;text-overflow:clip;" text-anchor="middle" transform="translate(0,0)" y="369" opacity="1"><tspan>2011</tspan></text><text x="224.42156862745026" style="color:#000000;cursor:default;font-size:11px;fill:#000000;width:74px;text-overflow:clip;" text-anchor="middle" transform="translate(0,0)" y="369" opacity="1"><tspan>2012</tspan></text><text x="306.57843137254974" style="color:#000000;cursor:default;font-size:11px;fill:#000000;width:74px;text-overflow:clip;" text-anchor="middle" transform="translate(0,0)" y="369" opacity="1"><tspan>2013</tspan></text><text x="388.73529411764923" style="color:#000000;cursor:default;font-size:11px;fill:#000000;width:74px;text-overflow:clip;" text-anchor="middle" transform="translate(0,0)" y="369" opacity="1"><tspan>2014</tspan></text><text x="462.78125" style="color:#000000;cursor:default;font-size:11px;fill:#000000;width:74px;text-overflow:clip;" text-anchor="middle" transform="translate(0,0)" y="369" opacity="1"><tspan>2015</tspan></text></g><g class="highcharts-axis-labels highcharts-yaxis-labels "><text x="41" style="color:#000000;cursor:default;font-size:11px;fill:#000000;width:150px;text-overflow:clip;" text-anchor="end" transform="translate(0,0)" y="355" opacity="1"><tspan>0.0%</tspan></text><text x="41" style="color:#000000;cursor:default;font-size:11px;fill:#000000;width:150px;text-overflow:clip;" text-anchor="end" transform="translate(0,0)" y="278" opacity="1"><tspan>5.0%</tspan></text><text x="41" style="color:#000000;cursor:default;font-size:11px;fill:#000000;width:150px;text-overflow:clip;" text-anchor="end" transform="translate(0,0)" y="202" opacity="1"><tspan>10.0%</tspan></text><text x="41" style="color:#000000;cursor:default;font-size:11px;fill:#000000;width:150px;text-overflow:clip;" text-anchor="end" transform="translate(0,0)" y="125" opacity="1"><tspan>15.0%</tspan></text></g><text x="10" class="highcharts-credits" text-anchor="start" style="cursor:default;color:#000000;font-size:10px;fill:#000000;" y="390"><tspan>Quelle: Bundesamt für Statistik BFS, Strukturerhebung (SE);</tspan><tspan x="10" dy="13">Staatssekretariat für Wirtschaft SECO, Arbeitslosenstatistik</tspan></text></svg>