<?xml version="1.0" standalone="no"?><!DOCTYPE svg PUBLIC "-//W3C//DTD SVG 1.1//EN" "http://www.w3.org/Graphics/SVG/1.1/DTD/svg11.dtd"><svg xmlns:xlink="http://www.w3.org/1999/xlink" version="1.1" style="font-family:Arial;font-size:12px;" xmlns="http://www.w3.org/2000/svg" viewBox="0 0 485 415"><desc>Created with Highcharts 4.2.6</desc><defs><clipPath id="highcharts-1"><rect x="0" y="0" width="307" height="354"></rect></clipPath></defs><rect x="0" y="0" width="485" height="415" fill="#fbfbfb" class=" highcharts-background"></rect><g class="highcharts-grid"></g><g class="highcharts-grid"><path fill="none" d="M 120.5 41 L 120.5 348" stroke="#D8D8D8" stroke-width="1" opacity="1"></path><path fill="none" d="M 179.5 41 L 179.5 348" stroke="#D8D8D8" stroke-width="1" opacity="1"></path><path fill="none" d="M 238.5 41 L 238.5 348" stroke="#D8D8D8" stroke-width="1" opacity="1"></path><path fill="none" d="M 297.5 41 L 297.5 348" stroke="#D8D8D8" stroke-width="1" opacity="1"></path><path fill="none" d="M 356.5 41 L 356.5 348" stroke="#D8D8D8" stroke-width="1" opacity="1"></path><path fill="none" d="M 415.5 41 L 415.5 348" stroke="#D8D8D8" stroke-width="1" opacity="1"></path><path fill="none" d="M 475.5 41 L 475.5 348" stroke="#D8D8D8" stroke-width="1" opacity="1"></path></g><g class="highcharts-axis"><path fill="none" d="M 121 56.5 L 111 56.5" stroke="#FFFFFF" stroke-width="1" opacity="1"></path><path fill="none" d="M 121 70.5 L 111 70.5" stroke="#FFFFFF" stroke-width="1" opacity="1"></path><path fill="none" d="M 121 85.5 L 111 85.5" stroke="#FFFFFF" stroke-width="1" opacity="1"></path><path fill="none" d="M 121 99.5 L 111 99.5" stroke="#FFFFFF" stroke-width="1" opacity="1"></path><path fill="none" d="M 121 114.5 L 111 114.5" stroke="#FFFFFF" stroke-width="1" opacity="1"></path><path fill="none" d="M 121 129.5 L 111 129.5" stroke="#FFFFFF" stroke-width="1" opacity="1"></path><path fill="none" d="M 121 143.5 L 111 143.5" stroke="#FFFFFF" stroke-width="1" opacity="1"></path><path fill="none" d="M 121 158.5 L 111 158.5" stroke="#FFFFFF" stroke-width="1" opacity="1"></path><path fill="none" d="M 121 173.5 L 111 173.5" stroke="#FFFFFF" stroke-width="1" opacity="1"></path><path fill="none" d="M 121 187.5 L 111 187.5" stroke="#FFFFFF" stroke-width="1" opacity="1"></path><path fill="none" d="M 121 202.5 L 111 202.5" stroke="#FFFFFF" stroke-width="1" opacity="1"></path><path fill="none" d="M 121 216.5 L 111 216.5" stroke="#FFFFFF" stroke-width="1" opacity="1"></path><path fill="none" d="M 121 231.5 L 111 231.5" stroke="#FFFFFF" stroke-width="1" opacity="1"></path><path fill="none" d="M 121 246.5 L 111 246.5" stroke="#FFFFFF" stroke-width="1" opacity="1"></path><path fill="none" d="M 121 260.5 L 111 260.5" stroke="#FFFFFF" stroke-width="1" opacity="1"></path><path fill="none" d="M 121 275.5 L 111 275.5" stroke="#FFFFFF" stroke-width="1" opacity="1"></path><path fill="none" d="M 121 290.5 L 111 290.5" stroke="#FFFFFF" stroke-width="1" opacity="1"></path><path fill="none" d="M 121 304.5 L 111 304.5" stroke="#FFFFFF" stroke-width="1" opacity="1"></path><path fill="none" d="M 121 319.5 L 111 319.5" stroke="#FFFFFF" stroke-width="1" opacity="1"></path><path fill="none" d="M 121 333.5 L 111 333.5" stroke="#FFFFFF" stroke-width="1" opacity="1"></path><path fill="none" d="M 121 348.5 L 111 348.5" stroke="#FFFFFF" stroke-width="1" opacity="1"></path><path fill="none" d="M 121 40.5 L 111 40.5" stroke="#FFFFFF" stroke-width="1" opacity="1"></path><path fill="none" d="M 120.5 41 L 120.5 348" stroke="#C0D0E0" stroke-width="1"></path></g><g class="highcharts-axis"></g><g class="highcharts-series-group"><g class="highcharts-series highcharts-series-0 highcharts-tracker" transform="translate(475,348) rotate(90) scale(-1,1) scale(1 1)" style="" width="354" height="307" clip-path="url(#highcharts-1)"></g><g class="highcharts-markers highcharts-series-0 highcharts-tracker" transform="translate(475,348) rotate(90) scale(-1,1) scale(1 1)" style="" width="354" height="307" clip-path="none"><path fill="#68AB2B" d="M 7 24.37664000000001 C 12.328 24.37664000000001 12.328 32.37664000000001 7 32.37664000000001 C 1.672 32.37664000000001 1.672 24.37664000000001 7 24.37664000000001 Z"></path><path fill="#68AB2B" d="M 21 40.97569999999996 C 26.328 40.97569999999996 26.328 48.97569999999996 21 48.97569999999996 C 15.672 48.97569999999996 15.672 40.97569999999996 21 40.97569999999996 Z"></path><path fill="#68AB2B" d="M 36 52.53793000000002 C 41.328 52.53793000000002 41.328 60.53793000000002 36 60.53793000000002 C 30.672 60.53793000000002 30.672 52.53793000000002 36 52.53793000000002 Z"></path><path fill="#68AB2B" d="M 51 57.714 C 56.328 57.714 56.328 65.714 51 65.714 C 45.672 65.714 45.672 57.714 51 57.714 Z"></path><path fill="#68AB2B" d="M 65 59.218500000000006 C 70.328 59.218500000000006 70.328 67.2185 65 67.2185 C 59.672 67.2185 59.672 59.218500000000006 65 59.218500000000006 Z"></path><path fill="#68AB2B" d="M 80 68.55171000000001 C 85.328 68.55171000000001 85.328 76.55171000000001 80 76.55171000000001 C 74.672 76.55171000000001 74.672 68.55171000000001 80 68.55171000000001 Z"></path><path fill="#68AB2B" d="M 95 73.15902 C 100.328 73.15902 100.328 81.15902 95 81.15902 C 89.672 81.15902 89.672 73.15902 95 73.15902 Z"></path><path fill="#68AB2B" d="M 109 73.31477999999998 C 114.328 73.31477999999998 114.328 81.31477999999998 109 81.31477999999998 C 103.672 81.31477999999998 103.672 73.31477999999998 109 73.31477999999998 Z"></path><path fill="#68AB2B" d="M 124 80.88094000000001 C 129.328 80.88094000000001 129.328 88.88094000000001 124 88.88094000000001 C 118.672 88.88094000000001 118.672 80.88094000000001 124 80.88094000000001 Z"></path><path fill="#68AB2B" d="M 138 91.23248999999998 C 143.328 91.23248999999998 143.328 99.23248999999998 138 99.23248999999998 C 132.672 99.23248999999998 132.672 91.23248999999998 138 91.23248999999998 Z"></path><path fill="#68AB2B" d="M 153 104.00185999999997 C 158.328 104.00185999999997 158.328 112.00185999999997 153 112.00185999999997 C 147.672 112.00185999999997 147.672 104.00185999999997 153 104.00185999999997 Z"></path><path fill="#68AB2B" d="M 168 118.89463999999998 C 173.328 118.89463999999998 173.328 126.89463999999998 168 126.89463999999998 C 162.672 126.89463999999998 162.672 118.89463999999998 168 118.89463999999998 Z"></path><path fill="#68AB2B" d="M 182 120.98972999999998 C 187.328 120.98972999999998 187.328 128.98972999999998 182 128.98972999999998 C 176.672 128.98972999999998 176.672 120.98972999999998 182 120.98972999999998 Z"></path><path fill="#68AB2B" d="M 197 121.9119 C 202.328 121.9119 202.328 129.9119 197 129.9119 C 191.672 129.9119 191.672 121.9119 197 121.9119 Z"></path><path fill="#68AB2B" d="M 211 131.16369 C 216.328 131.16369 216.328 139.16369 211 139.16369 C 205.672 139.16369 205.672 131.16369 211 131.16369 Z"></path><path fill="#68AB2B" d="M 226 131.18375 C 231.328 131.18375 231.328 139.18375 226 139.18375 C 220.672 139.18375 220.672 131.18375 226 131.18375 Z"></path><path fill="#68AB2B" d="M 241 134.24113 C 246.328 134.24113 246.328 142.24113 241 142.24113 C 235.672 142.24113 235.672 134.24113 241 134.24113 Z"></path><path fill="#68AB2B" d="M 255 146.66948 C 260.328 146.66948 260.328 154.66948 255 154.66948 C 249.672 154.66948 249.672 146.66948 255 146.66948 Z"></path><path fill="#68AB2B" d="M 270 149.02357999999998 C 275.328 149.02357999999998 275.328 157.02357999999998 270 157.02357999999998 C 264.672 157.02357999999998 264.672 149.02357999999998 270 149.02357999999998 Z"></path><path fill="#68AB2B" d="M 285 158.44528999999997 C 290.328 158.44528999999997 290.328 166.44528999999997 285 166.44528999999997 C 279.672 166.44528999999997 279.672 158.44528999999997 285 158.44528999999997 Z"></path><path fill="#68AB2B" d="M 299 162.08323 C 304.328 162.08323 304.328 170.08323 299 170.08323 C 293.672 170.08323 293.672 162.08323 299 162.08323 Z"></path></g></g><text x="10" text-anchor="start" class="highcharts-title" style="color:#000000;font-size:14px;font-weight:bold;font-family:Arial;fill:#000000;width:421px;" y="21"><tspan>I.09.1.0012 Wohnfläche pro Kopf</tspan></text><g class="highcharts-axis-labels highcharts-xaxis-labels"><text x="106" style="color:#000000;cursor:default;font-size:11px;fill:#000000;width:150px;text-overflow:ellipsis;" text-anchor="end" transform="translate(0,0)" y="52" opacity="1"><tspan>Klybeck</tspan></text><text x="106" style="color:#000000;cursor:default;font-size:11px;fill:#000000;width:150px;text-overflow:ellipsis;" text-anchor="end" transform="translate(0,0)" y="67" opacity="1"><tspan>Kleinhüningen</tspan></text><text x="106" style="color:#000000;cursor:default;font-size:11px;fill:#000000;width:150px;text-overflow:ellipsis;" text-anchor="end" transform="translate(0,0)" y="82" opacity="1"><tspan>Rosental</tspan></text><text x="106" style="color:#000000;cursor:default;font-size:11px;fill:#000000;width:150px;text-overflow:ellipsis;" text-anchor="end" transform="translate(0,0)" y="96" opacity="1"><tspan>Matthäus</tspan></text><text x="106" style="color:#000000;cursor:default;font-size:11px;fill:#000000;width:150px;text-overflow:ellipsis;" text-anchor="end" transform="translate(0,0)" y="111" opacity="1"><tspan>St. Johann</tspan></text><text x="106" style="color:#000000;cursor:default;font-size:11px;fill:#000000;width:150px;text-overflow:ellipsis;" text-anchor="end" transform="translate(0,0)" y="125" opacity="1"><tspan>Clara</tspan></text><text x="106" style="color:#000000;cursor:default;font-size:11px;fill:#000000;width:150px;text-overflow:ellipsis;" text-anchor="end" transform="translate(0,0)" y="140" opacity="1"><tspan>Iselin</tspan></text><text x="106" style="color:#000000;cursor:default;font-size:11px;fill:#000000;width:150px;text-overflow:ellipsis;" text-anchor="end" transform="translate(0,0)" y="155" opacity="1"><tspan>Gundeldingen</tspan></text><text x="106" style="color:#000000;cursor:default;font-size:11px;fill:#000000;width:150px;text-overflow:ellipsis;" text-anchor="end" transform="translate(0,0)" y="169" opacity="1"><tspan>Breite</tspan></text><text x="106" style="color:#000000;cursor:default;font-size:11px;fill:#000000;width:150px;text-overflow:ellipsis;" text-anchor="end" transform="translate(0,0)" y="184" opacity="1"><tspan>Hirzbrunnen</tspan></text><text x="106" style="color:#000000;cursor:default;font-size:11px;fill:#000000;width:150px;text-overflow:ellipsis;" text-anchor="end" transform="translate(0,0)" y="199" opacity="1"><tspan>Gotthelf</tspan></text><text x="106" style="color:#000000;cursor:default;font-size:11px;fill:#000000;width:150px;text-overflow:ellipsis;" text-anchor="end" transform="translate(0,0)" y="213" opacity="1"><tspan>Altstadt Kleinbasel</tspan></text><text x="106" style="color:#000000;cursor:default;font-size:11px;fill:#000000;width:150px;text-overflow:ellipsis;" text-anchor="end" transform="translate(0,0)" y="228" opacity="1"><tspan>Wettstein</tspan></text><text x="106" style="color:#000000;cursor:default;font-size:11px;fill:#000000;width:150px;text-overflow:ellipsis;" text-anchor="end" transform="translate(0,0)" y="242" opacity="1"><tspan>Am Ring</tspan></text><text x="106" style="color:#000000;cursor:default;font-size:11px;fill:#000000;width:150px;text-overflow:ellipsis;" text-anchor="end" transform="translate(0,0)" y="257" opacity="1"><tspan>Bachletten</tspan></text><text x="106" style="color:#000000;cursor:default;font-size:11px;fill:#000000;width:150px;text-overflow:ellipsis;" text-anchor="end" transform="translate(0,0)" y="272" opacity="1"><tspan>Riehen</tspan></text><text x="106" style="color:#000000;cursor:default;font-size:11px;fill:#000000;width:150px;text-overflow:ellipsis;" text-anchor="end" transform="translate(0,0)" y="286" opacity="1"><tspan>St. Alban</tspan></text><text x="106" style="color:#000000;cursor:default;font-size:11px;fill:#000000;width:150px;text-overflow:ellipsis;" text-anchor="end" transform="translate(0,0)" y="301" opacity="1"><tspan>Bruderholz</tspan></text><text x="106" style="color:#000000;cursor:default;font-size:11px;fill:#000000;width:150px;text-overflow:ellipsis;" text-anchor="end" transform="translate(0,0)" y="315" opacity="1"><tspan>Vorstädte</tspan></text><text x="106" style="color:#000000;cursor:default;font-size:11px;fill:#000000;width:150px;text-overflow:ellipsis;" text-anchor="end" transform="translate(0,0)" y="330" opacity="1"><tspan>Bettingen</tspan></text><text x="106" style="color:#000000;cursor:default;font-size:11px;fill:#000000;width:150px;text-overflow:ellipsis;" text-anchor="end" transform="translate(0,0)" y="345" opacity="1"><tspan>Altstadt Grossbasel</tspan></text></g><g class="highcharts-axis-labels highcharts-yaxis-labels"><text x="121" style="color:#000000;cursor:default;font-size:11px;fill:#000000;width:59;text-overflow:ellipsis;" text-anchor="middle" transform="translate(0,0)" y="367" opacity="1"><tspan>0</tspan></text><text x="180" style="color:#000000;cursor:default;font-size:11px;fill:#000000;width:59;text-overflow:ellipsis;" text-anchor="middle" transform="translate(0,0)" y="367" opacity="1"><tspan>10</tspan></text><text x="239" style="color:#000000;cursor:default;font-size:11px;fill:#000000;width:59;text-overflow:ellipsis;" text-anchor="middle" transform="translate(0,0)" y="367" opacity="1"><tspan>20</tspan></text><text x="298" style="color:#000000;cursor:default;font-size:11px;fill:#000000;width:59;text-overflow:ellipsis;" text-anchor="middle" transform="translate(0,0)" y="367" opacity="1"><tspan>30</tspan></text><text x="357" style="color:#000000;cursor:default;font-size:11px;fill:#000000;width:59;text-overflow:ellipsis;" text-anchor="middle" transform="translate(0,0)" y="367" opacity="1"><tspan>40</tspan></text><text x="416" style="color:#000000;cursor:default;font-size:11px;fill:#000000;width:59;text-overflow:ellipsis;" text-anchor="middle" transform="translate(0,0)" y="367" opacity="1"><tspan>50</tspan></text><text x="469" style="color:#000000;cursor:default;font-size:11px;fill:#000000;width:29.5;text-overflow:ellipsis;" text-anchor="middle" transform="translate(0,0)" y="367" opacity="1"><tspan>60</tspan></text></g><g class="highcharts-tooltip" style="cursor:default;padding:0;pointer-events:none;white-space:nowrap;" transform="translate(0,-9000000000)"><path fill="none" d="M 3.5 0.5 L 13.5 0.5 C 16.5 0.5 16.5 0.5 16.5 3.5 L 16.5 13.5 C 16.5 16.5 16.5 16.5 13.5 16.5 L 3.5 16.5 C 0.5 16.5 0.5 16.5 0.5 13.5 L 0.5 3.5 C 0.5 0.5 0.5 0.5 3.5 0.5" isShadow="true" stroke="black" stroke-width="5" transform="translate(1, 1)" opacity="0.049999999999999996"></path><path fill="none" d="M 3.5 0.5 L 13.5 0.5 C 16.5 0.5 16.5 0.5 16.5 3.5 L 16.5 13.5 C 16.5 16.5 16.5 16.5 13.5 16.5 L 3.5 16.5 C 0.5 16.5 0.5 16.5 0.5 13.5 L 0.5 3.5 C 0.5 0.5 0.5 0.5 3.5 0.5" isShadow="true" stroke="black" stroke-width="3" transform="translate(1, 1)" opacity="0.09999999999999999"></path><path fill="none" d="M 3.5 0.5 L 13.5 0.5 C 16.5 0.5 16.5 0.5 16.5 3.5 L 16.5 13.5 C 16.5 16.5 16.5 16.5 13.5 16.5 L 3.5 16.5 C 0.5 16.5 0.5 16.5 0.5 13.5 L 0.5 3.5 C 0.5 0.5 0.5 0.5 3.5 0.5" isShadow="true" stroke="black" stroke-width="1" transform="translate(1, 1)" opacity="0.15"></path><path fill="rgba(249, 249, 249, .85)" d="M 3.5 0.5 L 13.5 0.5 C 16.5 0.5 16.5 0.5 16.5 3.5 L 16.5 13.5 C 16.5 16.5 16.5 16.5 13.5 16.5 L 3.5 16.5 C 0.5 16.5 0.5 16.5 0.5 13.5 L 0.5 3.5 C 0.5 0.5 0.5 0.5 3.5 0.5"></path><text x="8" style="font-size:12px;color:#333333;fill:#333333;" y="20"></text></g><text x="10" text-anchor="start" style="cursor:default;color:#000000;font-size:10px;fill:#000000;" y="390"><tspan>Quelle: Statistisches Amt Basel-Stadt, kantonale Bevölkerungsstatistik;</tspan><tspan x="10" dy="13">Kantonale Baustatistik</tspan></text></svg>