<?xml version="1.0" standalone="no"?><!DOCTYPE svg PUBLIC "-//W3C//DTD SVG 1.1//EN" "http://www.w3.org/Graphics/SVG/1.1/DTD/svg11.dtd"><svg xmlns:xlink="http://www.w3.org/1999/xlink" version="1.1" style="font-family:Arial;font-size:12px;" xmlns="http://www.w3.org/2000/svg" viewBox="0 0 485 415"><desc>Created with Highcharts 4.2.7</desc><defs><clipPath id="highcharts-1"><rect x="0" y="0" width="348" height="275"></rect></clipPath></defs><rect x="0" y="0" width="485" height="415" fill="#fbfbfb" class=" highcharts-background"></rect><g class="highcharts-grid"></g><g class="highcharts-grid"><path fill="none" d="M 81 350.5 L 429 350.5" stroke="#D8D8D8" stroke-width="1" opacity="1"></path><path fill="none" d="M 81 281.5 L 429 281.5" stroke="#D8D8D8" stroke-width="1" opacity="1"></path><path fill="none" d="M 81 213.5 L 429 213.5" stroke="#D8D8D8" stroke-width="1" opacity="1"></path><path fill="none" d="M 81 144.5 L 429 144.5" stroke="#D8D8D8" stroke-width="1" opacity="1"></path><path fill="none" d="M 81 74.5 L 429 74.5" stroke="#D8D8D8" stroke-width="1" opacity="1"></path></g><g class="highcharts-grid"><path fill="none" d="M 81 350.5 L 429 350.5" stroke="#D8D8D8" stroke-width="1" opacity="1"></path><path fill="none" d="M 81 281.5 L 429 281.5" stroke="#D8D8D8" stroke-width="1" opacity="1"></path><path fill="none" d="M 81 213.5 L 429 213.5" stroke="#D8D8D8" stroke-width="1" opacity="1"></path><path fill="none" d="M 81 144.5 L 429 144.5" stroke="#D8D8D8" stroke-width="1" opacity="1"></path><path fill="none" d="M 81 74.5 L 429 74.5" stroke="#D8D8D8" stroke-width="1" opacity="1"></path></g><g class="highcharts-axis"><path fill="none" d="M 81 350.5 L 429 350.5" stroke="#C0D0E0" stroke-width="1"></path></g><g class="highcharts-axis"></g><g class="highcharts-axis"></g><g class="highcharts-series-group"><g class="highcharts-series highcharts-series-0" transform="translate(81,75) scale(1 1)" clip-path="url(#highcharts-1)"><path fill="none" d="M 3.4117647058824 179.80489999999998 L 17.058823529412 185.37021249999998 L 30.705882352941 187.74304999999998 L 44.352941176471 192.79809999999998 L 58 194.0019125 L 71.647058823529 190.1912375 L 85.294117647059 191.3951875 L 98.941176470588 189.16301249999998 L 112.58823529412 190.56743749999998 L 126.23529411765 186.6737125 L 139.88235294118 184.42242499999998 L 153.52941176471 185.983875 L 167.17647058824 188.886775 L 180.82352941176 184.10755 L 194.47058823529 164.56701249999998 L 208.11764705882 167.00914999999998 L 221.76470588235 153.0681625 L 235.41176470588 145.1736 L 249.05882352941 136.2744625 L 262.70588235294 133.32797499999998 L 276.35294117647 127.7263625 L 290 126.59583749999999 L 303.64705882353 126.2377875 L 317.29411764706 122.943975 L 330.94117647059 115.096025 L 344.58823529412 109.75305" stroke="#73b97c" stroke-width="2" stroke-linejoin="round" stroke-linecap="round"></path><path fill="none" d="M -6.588235294117601 179.80489999999998 L 3.4117647058824 179.80489999999998 L 17.058823529412 185.37021249999998 L 30.705882352941 187.74304999999998 L 44.352941176471 192.79809999999998 L 58 194.0019125 L 71.647058823529 190.1912375 L 85.294117647059 191.3951875 L 98.941176470588 189.16301249999998 L 112.58823529412 190.56743749999998 L 126.23529411765 186.6737125 L 139.88235294118 184.42242499999998 L 153.52941176471 185.983875 L 167.17647058824 188.886775 L 180.82352941176 184.10755 L 194.47058823529 164.56701249999998 L 208.11764705882 167.00914999999998 L 221.76470588235 153.0681625 L 235.41176470588 145.1736 L 249.05882352941 136.2744625 L 262.70588235294 133.32797499999998 L 276.35294117647 127.7263625 L 290 126.59583749999999 L 303.64705882353 126.2377875 L 317.29411764706 122.943975 L 330.94117647059 115.096025 L 344.58823529412 109.75305 L 354.58823529412 109.75305" stroke-linejoin="round" visibility="visible" stroke="rgba(192,192,192,0.0001)" stroke-width="22" class=" highcharts-tracker" style=""></path></g><g class="highcharts-markers highcharts-series-0 highcharts-tracker" transform="translate(81,75) scale(1 1)" style="" clip-path="none"><path fill="#73b97c" d="M 344 105.75305 C 349.328 105.75305 349.328 113.75305 344 113.75305 C 338.672 113.75305 338.672 105.75305 344 105.75305 Z"></path><path fill="#73b97c" d="M 330 111.096025 C 335.328 111.096025 335.328 119.096025 330 119.096025 C 324.672 119.096025 324.672 111.096025 330 111.096025 Z"></path><path fill="#73b97c" d="M 317 118.943975 C 322.328 118.943975 322.328 126.943975 317 126.943975 C 311.672 126.943975 311.672 118.943975 317 118.943975 Z"></path><path fill="#73b97c" d="M 303 122.2377875 C 308.328 122.2377875 308.328 130.2377875 303 130.2377875 C 297.672 130.2377875 297.672 122.2377875 303 122.2377875 Z"></path><path fill="#73b97c" d="M 290 122.59583749999999 C 295.328 122.59583749999999 295.328 130.5958375 290 130.5958375 C 284.672 130.5958375 284.672 122.59583749999999 290 122.59583749999999 Z"></path><path fill="#73b97c" d="M 276 123.7263625 C 281.328 123.7263625 281.328 131.7263625 276 131.7263625 C 270.672 131.7263625 270.672 123.7263625 276 123.7263625 Z"></path><path fill="#73b97c" d="M 262 129.32797499999998 C 267.328 129.32797499999998 267.328 137.32797499999998 262 137.32797499999998 C 256.672 137.32797499999998 256.672 129.32797499999998 262 129.32797499999998 Z"></path><path fill="#73b97c" d="M 249 132.2744625 C 254.328 132.2744625 254.328 140.2744625 249 140.2744625 C 243.672 140.2744625 243.672 132.2744625 249 132.2744625 Z"></path><path fill="#73b97c" d="M 235 141.1736 C 240.328 141.1736 240.328 149.1736 235 149.1736 C 229.672 149.1736 229.672 141.1736 235 141.1736 Z"></path><path fill="#73b97c" d="M 221 149.0681625 C 226.328 149.0681625 226.328 157.0681625 221 157.0681625 C 215.672 157.0681625 215.672 149.0681625 221 149.0681625 Z"></path><path fill="#73b97c" d="M 208 163.00914999999998 C 213.328 163.00914999999998 213.328 171.00914999999998 208 171.00914999999998 C 202.672 171.00914999999998 202.672 163.00914999999998 208 163.00914999999998 Z"></path><path fill="#73b97c" d="M 194 160.56701249999998 C 199.328 160.56701249999998 199.328 168.56701249999998 194 168.56701249999998 C 188.672 168.56701249999998 188.672 160.56701249999998 194 160.56701249999998 Z"></path><path fill="#73b97c" d="M 180 180.10755 C 185.328 180.10755 185.328 188.10755 180 188.10755 C 174.672 188.10755 174.672 180.10755 180 180.10755 Z"></path><path fill="#73b97c" d="M 167 184.886775 C 172.328 184.886775 172.328 192.886775 167 192.886775 C 161.672 192.886775 161.672 184.886775 167 184.886775 Z"></path><path fill="#73b97c" d="M 153 181.983875 C 158.328 181.983875 158.328 189.983875 153 189.983875 C 147.672 189.983875 147.672 181.983875 153 181.983875 Z"></path><path fill="#73b97c" d="M 139 180.42242499999998 C 144.328 180.42242499999998 144.328 188.42242499999998 139 188.42242499999998 C 133.672 188.42242499999998 133.672 180.42242499999998 139 180.42242499999998 Z"></path><path fill="#73b97c" d="M 126 182.6737125 C 131.328 182.6737125 131.328 190.6737125 126 190.6737125 C 120.672 190.6737125 120.672 182.6737125 126 182.6737125 Z"></path><path fill="#73b97c" d="M 112 186.56743749999998 C 117.328 186.56743749999998 117.328 194.56743749999998 112 194.56743749999998 C 106.672 194.56743749999998 106.672 186.56743749999998 112 186.56743749999998 Z"></path><path fill="#73b97c" d="M 98 185.16301249999998 C 103.328 185.16301249999998 103.328 193.16301249999998 98 193.16301249999998 C 92.672 193.16301249999998 92.672 185.16301249999998 98 185.16301249999998 Z"></path><path fill="#73b97c" d="M 85 187.3951875 C 90.328 187.3951875 90.328 195.3951875 85 195.3951875 C 79.672 195.3951875 79.672 187.3951875 85 187.3951875 Z"></path><path fill="#73b97c" d="M 71 186.1912375 C 76.328 186.1912375 76.328 194.1912375 71 194.1912375 C 65.672 194.1912375 65.672 186.1912375 71 186.1912375 Z"></path><path fill="#73b97c" d="M 58 190.0019125 C 63.328 190.0019125 63.328 198.0019125 58 198.0019125 C 52.672 198.0019125 52.672 190.0019125 58 190.0019125 Z"></path><path fill="#73b97c" d="M 44 188.79809999999998 C 49.328 188.79809999999998 49.328 196.79809999999998 44 196.79809999999998 C 38.672 196.79809999999998 38.672 188.79809999999998 44 188.79809999999998 Z"></path><path fill="#73b97c" d="M 30 183.74304999999998 C 35.328 183.74304999999998 35.328 191.74304999999998 30 191.74304999999998 C 24.672 191.74304999999998 24.672 183.74304999999998 30 183.74304999999998 Z"></path><path fill="#73b97c" d="M 17 181.37021249999998 C 22.328 181.37021249999998 22.328 189.37021249999998 17 189.37021249999998 C 11.672 189.37021249999998 11.672 181.37021249999998 17 181.37021249999998 Z"></path><path fill="#73b97c" d="M 3 175.80489999999998 C 8.328 175.80489999999998 8.328 183.80489999999998 3 183.80489999999998 C -2.3280000000000003 183.80489999999998 -2.3280000000000003 175.80489999999998 3 175.80489999999998 Z"></path></g><g class="highcharts-series highcharts-series-1" transform="translate(81,75) scale(1 1)" clip-path="url(#highcharts-1)"><path fill="none" d="M 3.4117647058824 143.1375 L 17.058823529412 143.54999999999998 L 30.705882352941 143.48125 L 44.352941176471 144.615625 L 58 149.04999999999998 L 71.647058823529 147.91562499999998 L 85.294117647059 145.44062499999998 L 98.941176470588 144.44375 L 112.58823529412 142.75937499999998 L 126.23529411765 142.38125 L 139.88235294118 139.35625 L 153.52941176471 145.13125 L 167.17647058824 135.334375 L 180.82352941176 123.0625 L 194.47058823529 115.56875 L 208.11764705882 121.03437499999998 L 221.76470588235 113.47187499999998 L 235.41176470588 102.71249999999998 L 249.05882352941 91.40312499999999 L 262.70588235294 77.99687499999999 L 276.35294117647 60.94687499999998 L 290 54.51874999999998 L 303.64705882353 52.318749999999994 L 317.29411764706 54.62187499999999 L 330.94117647059 42.41874999999999 L 344.58823529412 24.474999999999966" stroke="#cd9c00" stroke-width="2" stroke-linejoin="round" stroke-linecap="round"></path><path fill="none" d="M -6.588235294117601 143.1375 L 3.4117647058824 143.1375 L 17.058823529412 143.54999999999998 L 30.705882352941 143.48125 L 44.352941176471 144.615625 L 58 149.04999999999998 L 71.647058823529 147.91562499999998 L 85.294117647059 145.44062499999998 L 98.941176470588 144.44375 L 112.58823529412 142.75937499999998 L 126.23529411765 142.38125 L 139.88235294118 139.35625 L 153.52941176471 145.13125 L 167.17647058824 135.334375 L 180.82352941176 123.0625 L 194.47058823529 115.56875 L 208.11764705882 121.03437499999998 L 221.76470588235 113.47187499999998 L 235.41176470588 102.71249999999998 L 249.05882352941 91.40312499999999 L 262.70588235294 77.99687499999999 L 276.35294117647 60.94687499999998 L 290 54.51874999999998 L 303.64705882353 52.318749999999994 L 317.29411764706 54.62187499999999 L 330.94117647059 42.41874999999999 L 344.58823529412 24.474999999999966 L 354.58823529412 24.474999999999966" stroke-linejoin="round" visibility="visible" stroke="rgba(192,192,192,0.0001)" stroke-width="22" class=" highcharts-tracker" style=""></path></g><g class="highcharts-markers highcharts-series-1 highcharts-tracker" transform="translate(81,75) scale(1 1)" style="" clip-path="none"><path fill="#cd9c00" d="M 344 20.474999999999966 L 348 24.474999999999966 344 28.474999999999966 340 24.474999999999966 Z"></path><path fill="#cd9c00" d="M 330 38.41874999999999 L 334 42.41874999999999 330 46.41874999999999 326 42.41874999999999 Z"></path><path fill="#cd9c00" d="M 317 50.62187499999999 L 321 54.62187499999999 317 58.62187499999999 313 54.62187499999999 Z"></path><path fill="#cd9c00" d="M 303 48.318749999999994 L 307 52.318749999999994 303 56.318749999999994 299 52.318749999999994 Z"></path><path fill="#cd9c00" d="M 290 50.51874999999998 L 294 54.51874999999998 290 58.51874999999998 286 54.51874999999998 Z"></path><path fill="#cd9c00" d="M 276 56.94687499999998 L 280 60.94687499999998 276 64.94687499999998 272 60.94687499999998 Z"></path><path fill="#cd9c00" d="M 262 73.99687499999999 L 266 77.99687499999999 262 81.99687499999999 258 77.99687499999999 Z"></path><path fill="#cd9c00" d="M 249 87.40312499999999 L 253 91.40312499999999 249 95.40312499999999 245 91.40312499999999 Z"></path><path fill="#cd9c00" d="M 235 98.71249999999998 L 239 102.71249999999998 235 106.71249999999998 231 102.71249999999998 Z"></path><path fill="#cd9c00" d="M 221 109.47187499999998 L 225 113.47187499999998 221 117.47187499999998 217 113.47187499999998 Z"></path><path fill="#cd9c00" d="M 208 117.03437499999998 L 212 121.03437499999998 208 125.03437499999998 204 121.03437499999998 Z"></path><path fill="#cd9c00" d="M 194 111.56875 L 198 115.56875 194 119.56875 190 115.56875 Z"></path><path fill="#cd9c00" d="M 180 119.0625 L 184 123.0625 180 127.0625 176 123.0625 Z"></path><path fill="#cd9c00" d="M 167 131.334375 L 171 135.334375 167 139.334375 163 135.334375 Z"></path><path fill="#cd9c00" d="M 153 141.13125 L 157 145.13125 153 149.13125 149 145.13125 Z"></path><path fill="#cd9c00" d="M 139 135.35625 L 143 139.35625 139 143.35625 135 139.35625 Z"></path><path fill="#cd9c00" d="M 126 138.38125 L 130 142.38125 126 146.38125 122 142.38125 Z"></path><path fill="#cd9c00" d="M 112 138.75937499999998 L 116 142.75937499999998 112 146.75937499999998 108 142.75937499999998 Z"></path><path fill="#cd9c00" d="M 98 140.44375 L 102 144.44375 98 148.44375 94 144.44375 Z"></path><path fill="#cd9c00" d="M 85 141.44062499999998 L 89 145.44062499999998 85 149.44062499999998 81 145.44062499999998 Z"></path><path fill="#cd9c00" d="M 71 143.91562499999998 L 75 147.91562499999998 71 151.91562499999998 67 147.91562499999998 Z"></path><path fill="#cd9c00" d="M 58 145.04999999999998 L 62 149.04999999999998 58 153.04999999999998 54 149.04999999999998 Z"></path><path fill="#cd9c00" d="M 44 140.615625 L 48 144.615625 44 148.615625 40 144.615625 Z"></path><path fill="#cd9c00" d="M 30 139.48125 L 34 143.48125 30 147.48125 26 143.48125 Z"></path><path fill="#cd9c00" d="M 17 139.54999999999998 L 21 143.54999999999998 17 147.54999999999998 13 143.54999999999998 Z"></path><path fill="#cd9c00" d="M 3 139.1375 L 7 143.1375 3 147.1375 -1 143.1375 Z"></path></g></g><text x="10" text-anchor="start" class="highcharts-title" style="color:#000000;font-size:14px;font-weight:bold;fill:#000000;width:421px;" y="21"><tspan>I.10.1.0005 Logiernächte und Bettenzahl</tspan></text><g class="highcharts-legend" transform="translate(10,35)"><g><g><g class="highcharts-legend-item" transform="translate(8,3)"><path fill="none" d="M 0 11 L 16 11" stroke="#73b97c" stroke-width="2"></path><path fill="#73b97c" d="M 8 7 C 13.328 7 13.328 15 8 15 C 2.6719999999999997 15 2.6719999999999997 7 8 7 Z"></path><text x="21" style="color:#333333;font-size:12px;font-weight:normal;cursor:pointer;fill:#333333;" text-anchor="start" y="15"><tspan>Logiernächte (linke Achse)</tspan></text></g><g class="highcharts-legend-item" transform="translate(212.765625,3)"><path fill="none" d="M 0 11 L 16 11" stroke="#cd9c00" stroke-width="2"></path><path fill="#cd9c00" d="M 8 7 L 12 11 8 15 4 11 Z"></path><text x="21" y="15" style="color:#333333;font-size:12px;font-weight:normal;cursor:pointer;fill:#333333;" text-anchor="start"><tspan>Bettenzahl (rechte Achse)</tspan></text></g></g></g></g><g class="highcharts-axis-labels highcharts-xaxis-labels"><text x="84.41176470588235" style="color:#000000;cursor:default;font-size:11px;fill:#000000;width:69.6;text-overflow:ellipsis;" text-anchor="middle" transform="translate(0,0)" y="369" opacity="1"><tspan>1990</tspan></text><text x="152.6470588235294" style="color:#000000;cursor:default;font-size:11px;fill:#000000;width:69.6;text-overflow:ellipsis;" text-anchor="middle" transform="translate(0,0)" y="369" opacity="1"><tspan>1995</tspan></text><text x="220.88235294117646" style="color:#000000;cursor:default;font-size:11px;fill:#000000;width:69.6;text-overflow:ellipsis;" text-anchor="middle" transform="translate(0,0)" y="369" opacity="1"><tspan>2000</tspan></text><text x="289.11764705882354" style="color:#000000;cursor:default;font-size:11px;fill:#000000;width:69.6;text-overflow:ellipsis;" text-anchor="middle" transform="translate(0,0)" y="369" opacity="1"><tspan>2005</tspan></text><text x="357.35294117647055" style="color:#000000;cursor:default;font-size:11px;fill:#000000;width:69.6;text-overflow:ellipsis;" text-anchor="middle" transform="translate(0,0)" y="369" opacity="1"><tspan>2010</tspan></text><text x="425.5882352941176" style="color:#000000;cursor:default;font-size:11px;fill:#000000;width:69.6;text-overflow:ellipsis;" text-anchor="middle" transform="translate(0,0)" y="369" opacity="1"><tspan>2015</tspan></text></g><g class="highcharts-axis-labels highcharts-yaxis-labels"><text x="66" style="color:#000000;cursor:default;font-size:11px;fill:#000000;width:150px;text-overflow:clip;" text-anchor="end" transform="translate(0,0)" y="354" opacity="1"><tspan>0</tspan></text><text x="66" style="color:#000000;cursor:default;font-size:11px;fill:#000000;width:150px;text-overflow:clip;" text-anchor="end" transform="translate(0,0)" y="285" opacity="1"><tspan>500 000</tspan></text><text x="66" style="color:#000000;cursor:default;font-size:11px;fill:#000000;width:150px;text-overflow:clip;" text-anchor="end" transform="translate(0,0)" y="217" opacity="1"><tspan>1 000 000</tspan></text><text x="66" style="color:#000000;cursor:default;font-size:11px;fill:#000000;width:150px;text-overflow:clip;" text-anchor="end" transform="translate(0,0)" y="148" opacity="1"><tspan>1 500 000</tspan></text><text x="66" style="color:#000000;cursor:default;font-size:11px;fill:#000000;width:150px;text-overflow:clip;" text-anchor="end" transform="translate(0,0)" y="79" opacity="1"><tspan>2 000 000</tspan></text></g><g class="highcharts-axis-labels highcharts-yaxis-labels"><text x="444" style="color:#000000;cursor:default;font-size:11px;fill:#000000;width:150px;text-overflow:clip;" text-anchor="start" transform="translate(0,0)" y="354" opacity="1"><tspan>0</tspan></text><text x="444" style="color:#000000;cursor:default;font-size:11px;fill:#000000;width:150px;text-overflow:clip;" text-anchor="start" transform="translate(0,0)" y="285" opacity="1"><tspan>2 000</tspan></text><text x="444" style="color:#000000;cursor:default;font-size:11px;fill:#000000;width:150px;text-overflow:clip;" text-anchor="start" transform="translate(0,0)" y="217" opacity="1"><tspan>4 000</tspan></text><text x="444" style="color:#000000;cursor:default;font-size:11px;fill:#000000;width:150px;text-overflow:clip;" text-anchor="start" transform="translate(0,0)" y="148" opacity="1"><tspan>6 000</tspan></text><text x="444" style="color:#000000;cursor:default;font-size:11px;fill:#000000;width:150px;text-overflow:clip;" text-anchor="start" transform="translate(0,0)" y="79" opacity="1"><tspan>8 000</tspan></text></g><g class="highcharts-tooltip" display="none" style="cursor:default;padding:0;pointer-events:none;white-space:nowrap;" transform="translate(0,0)"><path fill="none" d="M 3.5 0.5 L 13.5 0.5 C 16.5 0.5 16.5 0.5 16.5 3.5 L 16.5 13.5 C 16.5 16.5 16.5 16.5 13.5 16.5 L 3.5 16.5 C 0.5 16.5 0.5 16.5 0.5 13.5 L 0.5 3.5 C 0.5 0.5 0.5 0.5 3.5 0.5" isShadow="true" stroke="black" stroke-width="5" transform="translate(1, 1)" opacity="0.049999999999999996"></path><path fill="none" d="M 3.5 0.5 L 13.5 0.5 C 16.5 0.5 16.5 0.5 16.5 3.5 L 16.5 13.5 C 16.5 16.5 16.5 16.5 13.5 16.5 L 3.5 16.5 C 0.5 16.5 0.5 16.5 0.5 13.5 L 0.5 3.5 C 0.5 0.5 0.5 0.5 3.5 0.5" isShadow="true" stroke="black" stroke-width="3" transform="translate(1, 1)" opacity="0.09999999999999999"></path><path fill="none" d="M 3.5 0.5 L 13.5 0.5 C 16.5 0.5 16.5 0.5 16.5 3.5 L 16.5 13.5 C 16.5 16.5 16.5 16.5 13.5 16.5 L 3.5 16.5 C 0.5 16.5 0.5 16.5 0.5 13.5 L 0.5 3.5 C 0.5 0.5 0.5 0.5 3.5 0.5" isShadow="true" stroke="black" stroke-width="1" transform="translate(1, 1)" opacity="0.15"></path><path fill="rgba(249, 249, 249, .85)" d="M 3.5 0.5 L 13.5 0.5 C 16.5 0.5 16.5 0.5 16.5 3.5 L 16.5 13.5 C 16.5 16.5 16.5 16.5 13.5 16.5 L 3.5 16.5 C 0.5 16.5 0.5 16.5 0.5 13.5 L 0.5 3.5 C 0.5 0.5 0.5 0.5 3.5 0.5"></path><text x="8" style="font-size:12px;color:#333333;fill:#333333;" y="20"></text></g><text x="10" text-anchor="start" style="cursor:default;color:#000000;font-size:10px;fill:#000000;" y="400"><tspan>Quelle: Statistisches Amt Basel-Stadt, Tourismusstatistik</tspan></text></svg>