<?xml version="1.0" standalone="no"?><!DOCTYPE svg PUBLIC "-//W3C//DTD SVG 1.1//EN" "http://www.w3.org/Graphics/SVG/1.1/DTD/svg11.dtd"><svg xmlns:xlink="http://www.w3.org/1999/xlink" version="1.1" style="font-family:Arial;font-size:12px;" xmlns="http://www.w3.org/2000/svg" viewBox="0 0 485 415"><desc>Created with Highcharts 4.2.6</desc><defs><clipPath id="highcharts-1"><rect x="0" y="0" width="428" height="243"></rect></clipPath></defs><rect x="0" y="0" width="485" height="415" fill="#fbfbfb" class=" highcharts-background"></rect><g class="highcharts-grid"></g><g class="highcharts-grid"><path fill="none" d="M 47 363.5 L 475 363.5" stroke="#D8D8D8" stroke-width="1" opacity="1"></path><path fill="none" d="M 47 314.5 L 475 314.5" stroke="#D8D8D8" stroke-width="1" opacity="1"></path><path fill="none" d="M 47 266.5 L 475 266.5" stroke="#D8D8D8" stroke-width="1" opacity="1"></path><path fill="none" d="M 47 217.5 L 475 217.5" stroke="#D8D8D8" stroke-width="1" opacity="1"></path><path fill="none" d="M 47 169.5 L 475 169.5" stroke="#D8D8D8" stroke-width="1" opacity="1"></path><path fill="none" d="M 47 120.5 L 475 120.5" stroke="#D8D8D8" stroke-width="1" opacity="1"></path></g><g class="highcharts-axis"><path fill="none" d="M 47 363.5 L 475 363.5" stroke="#C0D0E0" stroke-width="1"></path></g><g class="highcharts-axis"></g><g class="highcharts-series-group"><g class="highcharts-series highcharts-series-0" transform="translate(47,120) scale(1 1)" clip-path="url(#highcharts-1)"><path fill="none" d="M 4.1960784313688 138.99599999999998 L 109.09803921568 149.688 L 214 139.96800000000002 L 318.90196078432 133.164 L 423.80392156863 138.99599999999998" stroke="#B00000" stroke-width="2" stroke-linejoin="round" stroke-linecap="round"></path><path fill="none" d="M -5.8039215686312 138.99599999999998 L 4.1960784313688 138.99599999999998 L 109.09803921568 149.688 L 214 139.96800000000002 L 318.90196078432 133.164 L 423.80392156863 138.99599999999998 L 433.80392156863 138.99599999999998" stroke-linejoin="round" visibility="visible" stroke="rgba(192,192,192,0.0001)" stroke-width="22" class=" highcharts-tracker" style=""></path></g><g class="highcharts-markers highcharts-series-0 highcharts-tracker" transform="translate(47,120) scale(1 1)" style="" clip-path="none"></g><g class="highcharts-series highcharts-series-1" transform="translate(47,120) scale(1 1)" clip-path="url(#highcharts-1)"><path fill="none" d="M 4.1960784313688 120.52799999999999 L 109.09803921568 131.22 L 214 105.94800000000001 L 318.90196078432 107.892 L 423.80392156863 117.612" stroke="#71A3B5" stroke-width="2" stroke-linejoin="round" stroke-linecap="round"></path><path fill="none" d="M -5.8039215686312 120.52799999999999 L 4.1960784313688 120.52799999999999 L 109.09803921568 131.22 L 214 105.94800000000001 L 318.90196078432 107.892 L 423.80392156863 117.612 L 433.80392156863 117.612" stroke-linejoin="round" visibility="visible" stroke="rgba(192,192,192,0.0001)" stroke-width="22" class=" highcharts-tracker" style=""></path></g><g class="highcharts-markers highcharts-series-1 highcharts-tracker" transform="translate(47,120) scale(1 1)" style="" clip-path="none"><path fill="#71A3B5" d="M 423 113.612 C 428.328 113.612 428.328 121.612 423 121.612 C 417.672 121.612 417.672 113.612 423 113.612 Z"></path><path fill="#71A3B5" d="M 318 103.892 C 323.328 103.892 323.328 111.892 318 111.892 C 312.672 111.892 312.672 103.892 318 103.892 Z"></path><path fill="#71A3B5" d="M 214 101.94800000000001 C 219.328 101.94800000000001 219.328 109.94800000000001 214 109.94800000000001 C 208.672 109.94800000000001 208.672 101.94800000000001 214 101.94800000000001 Z"></path><path fill="#71A3B5" d="M 109 127.22 C 114.328 127.22 114.328 135.22 109 135.22 C 103.672 135.22 103.672 127.22 109 127.22 Z"></path><path fill="#71A3B5" d="M 4 116.52799999999999 C 9.328 116.52799999999999 9.328 124.52799999999999 4 124.52799999999999 C -1.328 124.52799999999999 -1.328 116.52799999999999 4 116.52799999999999 Z"></path></g><g class="highcharts-series highcharts-series-2" transform="translate(47,120) scale(1 1)" clip-path="url(#highcharts-1)"><path fill="none" d="M 4.1960784313688 167.184 L 109.09803921568 119.556 L 214 151.632 L 318.90196078432 126.35999999999999 L 423.80392156863 107.892" stroke="#672773" stroke-width="2" stroke-linejoin="round" stroke-linecap="round"></path><path fill="none" d="M -5.8039215686312 167.184 L 4.1960784313688 167.184 L 109.09803921568 119.556 L 214 151.632 L 318.90196078432 126.35999999999999 L 423.80392156863 107.892 L 433.80392156863 107.892" stroke-linejoin="round" visibility="visible" stroke="rgba(192,192,192,0.0001)" stroke-width="22" class=" highcharts-tracker" style=""></path></g><g class="highcharts-markers highcharts-series-2 highcharts-tracker" transform="translate(47,120) scale(1 1)" style="" clip-path="none"></g><g class="highcharts-series highcharts-series-3" transform="translate(47,120) scale(1 1)" clip-path="url(#highcharts-1)"><path fill="none" d="M 4.1960784313688 146.772 L 109.09803921568 143.856 L 214 97.19999999999999 L 318.90196078432 154.548 L 423.80392156863 142.884" stroke="#007A2F" stroke-width="2" stroke-linejoin="round" stroke-linecap="round"></path><path fill="none" d="M -5.8039215686312 146.772 L 4.1960784313688 146.772 L 109.09803921568 143.856 L 214 97.19999999999999 L 318.90196078432 154.548 L 423.80392156863 142.884 L 433.80392156863 142.884" stroke-linejoin="round" visibility="visible" stroke="rgba(192,192,192,0.0001)" stroke-width="22" class=" highcharts-tracker" style=""></path></g><g class="highcharts-markers highcharts-series-3 highcharts-tracker" transform="translate(47,120) scale(1 1)" style="" clip-path="none"></g><g class="highcharts-series highcharts-series-4" transform="translate(47,120) scale(1 1)" clip-path="url(#highcharts-1)"><path fill="none" d="M 4.1960784313688 173.988 L 109.09803921568 174.95999999999998 L 214 119.556 L 318.90196078432 193.428 L 423.80392156863 152.60399999999998" stroke="#73BA7C" stroke-width="2" stroke-linejoin="round" stroke-linecap="round"></path><path fill="none" d="M -5.8039215686312 173.988 L 4.1960784313688 173.988 L 109.09803921568 174.95999999999998 L 214 119.556 L 318.90196078432 193.428 L 423.80392156863 152.60399999999998 L 433.80392156863 152.60399999999998" stroke-linejoin="round" visibility="visible" stroke="rgba(192,192,192,0.0001)" stroke-width="22" class=" highcharts-tracker" style=""></path></g><g class="highcharts-markers highcharts-series-4 highcharts-tracker" transform="translate(47,120) scale(1 1)" style="" clip-path="none"></g><g class="highcharts-series highcharts-series-5" transform="translate(47,120) scale(1 1)" clip-path="url(#highcharts-1)"><path fill="none" d="M 4.1960784313688 145.8 L 109.09803921568 141.91199999999998 L 214 67.06799999999998 L 318.90196078432 50.54399999999998 L 423.80392156863 91.368" stroke="#FABD24" stroke-width="2" stroke-linejoin="round" stroke-linecap="round"></path><path fill="none" d="M -5.8039215686312 145.8 L 4.1960784313688 145.8 L 109.09803921568 141.91199999999998 L 214 67.06799999999998 L 318.90196078432 50.54399999999998 L 423.80392156863 91.368 L 433.80392156863 91.368" stroke-linejoin="round" visibility="visible" stroke="rgba(192,192,192,0.0001)" stroke-width="22" class=" highcharts-tracker" style=""></path></g><g class="highcharts-markers highcharts-series-5 highcharts-tracker" transform="translate(47,120) scale(1 1)" style="" clip-path="none"></g><g class="highcharts-series highcharts-series-6" transform="translate(47,120) scale(1 1)" clip-path="url(#highcharts-1)"><path fill="none" d="M 4.1960784313688 76.78799999999998 L 109.09803921568 140.94 L 214 133.164 L 318.90196078432 106.91999999999999 L 423.80392156863 134.136" stroke="#D3E2E5" stroke-width="2" stroke-linejoin="round" stroke-linecap="round"></path><path fill="none" d="M -5.8039215686312 76.78799999999998 L 4.1960784313688 76.78799999999998 L 109.09803921568 140.94 L 214 133.164 L 318.90196078432 106.91999999999999 L 423.80392156863 134.136 L 433.80392156863 134.136" stroke-linejoin="round" visibility="visible" stroke="rgba(192,192,192,0.0001)" stroke-width="22" class=" highcharts-tracker" style=""></path></g><g class="highcharts-markers highcharts-series-6 highcharts-tracker" transform="translate(47,120) scale(1 1)" style="" clip-path="none"></g></g><text x="10" text-anchor="start" class="highcharts-title" style="color:#000000;font-size:14px;font-weight:bold;fill:#000000;width:421px;" y="21"><tspan>I.15.3.0001 Lehrabbruchquote nach Staatsangehörigkeit seit</tspan><tspan dy="17" x="10">2011</tspan><title>I.15.3.0001 Lehrabbruchquote nach Staatsangehörigkeit seit 2011</title></text><g class="highcharts-legend" transform="translate(30,45)"><g><g><g class="highcharts-legend-item" transform="translate(8,3)"><path fill="none" d="M 0 11 L 16 11" stroke="#B00000" stroke-width="2"></path><text x="21" style="color:#333333;font-size:12px;font-weight:normal;cursor:pointer;fill:#333333;" text-anchor="start" y="15">Schweiz</text></g><g class="highcharts-legend-item" transform="translate(94,3)"><path fill="none" d="M 0 11 L 16 11" stroke="#71A3B5" stroke-width="2"></path><path fill="#71A3B5" d="M 8 7 C 13.328 7 13.328 15 8 15 C 2.6719999999999997 15 2.6719999999999997 7 8 7 Z"></path><text x="21" y="15" style="color:#333333;font-size:12px;font-weight:normal;cursor:pointer;fill:#333333;" text-anchor="start">Ausland</text></g><g class="highcharts-legend-item" transform="translate(180,3)"><path fill="none" d="M 0 11 L 16 11" stroke="#672773" stroke-width="2"></path><text x="21" y="15" style="color:#333333;font-size:12px;font-weight:normal;cursor:pointer;fill:#333333;" text-anchor="start">Deutschland</text></g><g class="highcharts-legend-item" transform="translate(291,3)"><path fill="none" d="M 0 11 L 16 11" stroke="#007A2F" stroke-width="2"></path><text x="21" y="15" style="color:#333333;font-size:12px;font-weight:normal;cursor:pointer;fill:#333333;" text-anchor="start">Italien</text></g><g class="highcharts-legend-item" transform="translate(8,23)"><path fill="none" d="M 0 11 L 16 11" stroke="#73BA7C" stroke-width="2"></path><text x="21" y="15" style="color:#333333;font-size:12px;font-weight:normal;cursor:pointer;fill:#333333;" text-anchor="start">Spanien</text></g><g class="highcharts-legend-item" transform="translate(95,23)"><path fill="none" d="M 0 11 L 16 11" stroke="#FABD24" stroke-width="2"></path><text x="21" y="15" style="color:#333333;font-size:12px;font-weight:normal;cursor:pointer;fill:#333333;" text-anchor="start">Türkei</text></g><g class="highcharts-legend-item" transform="translate(170,23)"><path fill="none" d="M 0 11 L 16 11" stroke="#D3E2E5" stroke-width="2"></path><text x="21" y="15" style="color:#333333;font-size:12px;font-weight:normal;cursor:pointer;fill:#333333;" text-anchor="start"><tspan>Ehem. Jugoslawien ohne SLO</tspan></text></g></g></g></g><g class="highcharts-axis-labels highcharts-xaxis-labels"><text x="51.196078431368804" style="color:#000000;cursor:default;font-size:11px;fill:#000000;width:106px;text-overflow:clip;" text-anchor="middle" transform="translate(0,0)" y="382" opacity="1"><tspan>2011</tspan></text><text x="156.0980392156844" style="color:#000000;cursor:default;font-size:11px;fill:#000000;width:106px;text-overflow:clip;" text-anchor="middle" transform="translate(0,0)" y="382" opacity="1"><tspan>2012</tspan></text><text x="261" style="color:#000000;cursor:default;font-size:11px;fill:#000000;width:106px;text-overflow:clip;" text-anchor="middle" transform="translate(0,0)" y="382" opacity="1"><tspan>2013</tspan></text><text x="365.9019607843156" style="color:#000000;cursor:default;font-size:11px;fill:#000000;width:106px;text-overflow:clip;" text-anchor="middle" transform="translate(0,0)" y="382" opacity="1"><tspan>2014</tspan></text><text x="463" style="color:#000000;cursor:default;font-size:11px;fill:#000000;width:106px;text-overflow:clip;" text-anchor="middle" transform="translate(0,0)" y="382" opacity="1"><tspan>2015</tspan></text></g><g class="highcharts-axis-labels highcharts-yaxis-labels"><text x="32" style="color:#000000;cursor:default;font-size:11px;fill:#000000;width:150px;text-overflow:clip;" text-anchor="end" transform="translate(0,0)" y="367" opacity="1"><tspan>0%</tspan></text><text x="32" style="color:#000000;cursor:default;font-size:11px;fill:#000000;width:150px;text-overflow:clip;" text-anchor="end" transform="translate(0,0)" y="318" opacity="1"><tspan>5%</tspan></text><text x="32" style="color:#000000;cursor:default;font-size:11px;fill:#000000;width:150px;text-overflow:clip;" text-anchor="end" transform="translate(0,0)" y="270" opacity="1"><tspan>10%</tspan></text><text x="32" style="color:#000000;cursor:default;font-size:11px;fill:#000000;width:150px;text-overflow:clip;" text-anchor="end" transform="translate(0,0)" y="221" opacity="1"><tspan>15%</tspan></text><text x="32" style="color:#000000;cursor:default;font-size:11px;fill:#000000;width:150px;text-overflow:clip;" text-anchor="end" transform="translate(0,0)" y="173" opacity="1"><tspan>20%</tspan></text><text x="32" style="color:#000000;cursor:default;font-size:11px;fill:#000000;width:150px;text-overflow:clip;" text-anchor="end" transform="translate(0,0)" y="124" opacity="1"><tspan>25%</tspan></text></g><g class="highcharts-tooltip" style="cursor:default;padding:0;pointer-events:none;white-space:nowrap;" transform="translate(0,-9000000000)"><path fill="none" d="M 3.5 0.5 L 13.5 0.5 C 16.5 0.5 16.5 0.5 16.5 3.5 L 16.5 13.5 C 16.5 16.5 16.5 16.5 13.5 16.5 L 3.5 16.5 C 0.5 16.5 0.5 16.5 0.5 13.5 L 0.5 3.5 C 0.5 0.5 0.5 0.5 3.5 0.5" isShadow="true" stroke="black" stroke-width="5" transform="translate(1, 1)" opacity="0.049999999999999996"></path><path fill="none" d="M 3.5 0.5 L 13.5 0.5 C 16.5 0.5 16.5 0.5 16.5 3.5 L 16.5 13.5 C 16.5 16.5 16.5 16.5 13.5 16.5 L 3.5 16.5 C 0.5 16.5 0.5 16.5 0.5 13.5 L 0.5 3.5 C 0.5 0.5 0.5 0.5 3.5 0.5" isShadow="true" stroke="black" stroke-width="3" transform="translate(1, 1)" opacity="0.09999999999999999"></path><path fill="none" d="M 3.5 0.5 L 13.5 0.5 C 16.5 0.5 16.5 0.5 16.5 3.5 L 16.5 13.5 C 16.5 16.5 16.5 16.5 13.5 16.5 L 3.5 16.5 C 0.5 16.5 0.5 16.5 0.5 13.5 L 0.5 3.5 C 0.5 0.5 0.5 0.5 3.5 0.5" isShadow="true" stroke="black" stroke-width="1" transform="translate(1, 1)" opacity="0.15"></path><path fill="rgba(249, 249, 249, .85)" d="M 3.5 0.5 L 13.5 0.5 C 16.5 0.5 16.5 0.5 16.5 3.5 L 16.5 13.5 C 16.5 16.5 16.5 16.5 13.5 16.5 L 3.5 16.5 C 0.5 16.5 0.5 16.5 0.5 13.5 L 0.5 3.5 C 0.5 0.5 0.5 0.5 3.5 0.5"></path><text x="8" style="font-size:12px;color:#333333;fill:#333333;" y="20"></text></g><text x="10" text-anchor="start" style="cursor:default;color:#000000;font-size:10px;fill:#000000;" y="410"><tspan>Quelle: Erziehungsdepartement Basel-Stadt, Fachstelle Lehraufsicht</tspan></text></svg>