<?xml version="1.0" standalone="no"?><!DOCTYPE svg PUBLIC "-//W3C//DTD SVG 1.1//EN" "http://www.w3.org/Graphics/SVG/1.1/DTD/svg11.dtd"><svg xmlns:xlink="http://www.w3.org/1999/xlink" version="1.1" class="highcharts-root" style="font-family:Arial;font-size:12px;" xmlns="http://www.w3.org/2000/svg" viewBox="0 0 485 415"><desc>Created with Highcharts 5.0.6</desc><defs><clipPath id="highcharts-jhpp9gn-1"><rect x="0" y="0" width="419" height="288" fill="none"></rect></clipPath></defs><rect fill="#fbfbfb" class="highcharts-background" x="0" y="0" width="485" height="415" rx="0" ry="0"></rect><rect fill="none" class="highcharts-plot-background" x="56" y="60" width="419" height="288"></rect><g class="highcharts-grid highcharts-xaxis-grid "><path fill="none" class="highcharts-grid-line" d="M 59.5 60 L 59.5 348" opacity="1"></path><path fill="none" class="highcharts-grid-line" d="M 100.5 60 L 100.5 348" opacity="1"></path><path fill="none" class="highcharts-grid-line" d="M 141.5 60 L 141.5 348" opacity="1"></path><path fill="none" class="highcharts-grid-line" d="M 182.5 60 L 182.5 348" opacity="1"></path><path fill="none" class="highcharts-grid-line" d="M 223.5 60 L 223.5 348" opacity="1"></path><path fill="none" class="highcharts-grid-line" d="M 265.5 60 L 265.5 348" opacity="1"></path><path fill="none" class="highcharts-grid-line" d="M 306.5 60 L 306.5 348" opacity="1"></path><path fill="none" class="highcharts-grid-line" d="M 347.5 60 L 347.5 348" opacity="1"></path><path fill="none" class="highcharts-grid-line" d="M 388.5 60 L 388.5 348" opacity="1"></path><path fill="none" class="highcharts-grid-line" d="M 429.5 60 L 429.5 348" opacity="1"></path><path fill="none" class="highcharts-grid-line" d="M 470.5 60 L 470.5 348" opacity="1"></path></g><g class="highcharts-grid highcharts-yaxis-grid "><path fill="none" stroke="#e6e6e6" stroke-width="1" class="highcharts-grid-line" d="M 56 348.5 L 475 348.5" opacity="1"></path><path fill="none" stroke="#e6e6e6" stroke-width="1" class="highcharts-grid-line" d="M 56 300.5 L 475 300.5" opacity="1"></path><path fill="none" stroke="#e6e6e6" stroke-width="1" class="highcharts-grid-line" d="M 56 252.5 L 475 252.5" opacity="1"></path><path fill="none" stroke="#e6e6e6" stroke-width="1" class="highcharts-grid-line" d="M 56 204.5 L 475 204.5" opacity="1"></path><path fill="none" stroke="#e6e6e6" stroke-width="1" class="highcharts-grid-line" d="M 56 156.5 L 475 156.5" opacity="1"></path><path fill="none" stroke="#e6e6e6" stroke-width="1" class="highcharts-grid-line" d="M 56 108.5 L 475 108.5" opacity="1"></path><path fill="none" stroke="#e6e6e6" stroke-width="1" class="highcharts-grid-line" d="M 56 59.5 L 475 59.5" opacity="1"></path></g><rect fill="none" class="highcharts-plot-border" x="56" y="60" width="419" height="288"></rect><g class="highcharts-axis highcharts-xaxis "><path fill="none" class="highcharts-axis-line" stroke="#ccd6eb" stroke-width="1" d="M 56 348.5 L 475 348.5"></path></g><g class="highcharts-axis highcharts-yaxis "><path fill="none" class="highcharts-axis-line" d="M 56 60 L 56 348"></path></g><g class="highcharts-series-group"><g class="highcharts-series highcharts-series-0 highcharts-line-series highcharts-color-undefined " transform="translate(56,60) scale(1 1)" width="288" height="419" clip-path="url(#highcharts-jhpp9gn-1)"><path fill="none" d="M 4.1078431372512 152.64 L 45.186274509801 148.416 L 86.264705882351 145.728 L 127.3431372549 140.16 L 168.42156862745 137.856 L 209.5 136.704 L 250.57843137255 134.4 L 291.6568627451 132.672 L 332.73529411765 131.52 L 373.8137254902 129.792 L 414.89215686275 127.87199999999999" class="highcharts-graph" stroke="#008AC3" stroke-width="2" stroke-linejoin="round" stroke-linecap="round"></path><path fill="none" d="M -5.8921568627488 152.64 L 4.1078431372512 152.64 L 45.186274509801 148.416 L 86.264705882351 145.728 L 127.3431372549 140.16 L 168.42156862745 137.856 L 209.5 136.704 L 250.57843137255 134.4 L 291.6568627451 132.672 L 332.73529411765 131.52 L 373.8137254902 129.792 L 414.89215686275 127.87199999999999 L 424.89215686275 127.87199999999999" stroke-linejoin="round" visibility="visible" stroke="rgba(192,192,192,0.0001)" stroke-width="22" class="highcharts-tracker"></path></g><g class="highcharts-markers highcharts-series-0 highcharts-line-series highcharts-color-undefined highcharts-tracker" transform="translate(56,60) scale(1 1)" width="288" height="419" clip-path="none"><path fill="#008AC3" d="M 414 124 C 419.328 124 419.328 132 414 132 C 408.672 132 408.672 124 414 124 Z" class="highcharts-point"></path><path fill="#008AC3" d="M 373 126 C 378.328 126 378.328 134 373 134 C 367.672 134 367.672 126 373 126 Z" class="highcharts-point"></path><path fill="#008AC3" d="M 332 128 C 337.328 128 337.328 136 332 136 C 326.672 136 326.672 128 332 128 Z" class="highcharts-point"></path><path fill="#008AC3" d="M 291 129 C 296.328 129 296.328 137 291 137 C 285.672 137 285.672 129 291 129 Z" class="highcharts-point"></path><path fill="#008AC3" d="M 250 130 C 255.328 130 255.328 138 250 138 C 244.672 138 244.672 130 250 130 Z" class="highcharts-point"></path><path fill="#008AC3" d="M 209 133 C 214.328 133 214.328 141 209 141 C 203.672 141 203.672 133 209 133 Z" class="highcharts-point"></path><path fill="#008AC3" d="M 168 134 C 173.328 134 173.328 142 168 142 C 162.672 142 162.672 134 168 134 Z" class="highcharts-point"></path><path fill="#008AC3" d="M 127 136 C 132.328 136 132.328 144 127 144 C 121.672 144 121.672 136 127 136 Z" class="highcharts-point"></path><path fill="#008AC3" d="M 86 142 C 91.328 142 91.328 150 86 150 C 80.672 150 80.672 142 86 142 Z" class="highcharts-point"></path><path fill="#008AC3" d="M 45 144 C 50.328 144 50.328 152 45 152 C 39.672 152 39.672 144 45 144 Z" class="highcharts-point"></path><path fill="#008AC3" d="M 4 149 C 9.328 149 9.328 157 4 157 C -1.328 157 -1.328 149 4 149 Z" class="highcharts-point"></path></g><g class="highcharts-series highcharts-series-1 highcharts-line-series highcharts-color-undefined " transform="translate(56,60) scale(1 1)" width="288" height="419" clip-path="url(#highcharts-jhpp9gn-1)"><path fill="none" d="M 4.1078431372512 78.72 L 45.186274509801 76.03199999999998 L 86.264705882351 74.304 L 127.3431372549 71.232 L 168.42156862745 65.47200000000001 L 209.5 62.01599999999999 L 250.57843137255 57.599999999999994 L 291.6568627451 55.103999999999985 L 332.73529411765 53.567999999999984 L 373.8137254902 52.416 L 414.89215686275 48.768" class="highcharts-graph" stroke="#990300" stroke-width="2" stroke-linejoin="round" stroke-linecap="round"></path><path fill="none" d="M -5.8921568627488 78.72 L 4.1078431372512 78.72 L 45.186274509801 76.03199999999998 L 86.264705882351 74.304 L 127.3431372549 71.232 L 168.42156862745 65.47200000000001 L 209.5 62.01599999999999 L 250.57843137255 57.599999999999994 L 291.6568627451 55.103999999999985 L 332.73529411765 53.567999999999984 L 373.8137254902 52.416 L 414.89215686275 48.768 L 424.89215686275 48.768" stroke-linejoin="round" visibility="visible" stroke="rgba(192,192,192,0.0001)" stroke-width="22" class="highcharts-tracker"></path></g><g class="highcharts-markers highcharts-series-1 highcharts-line-series highcharts-color-undefined highcharts-tracker" transform="translate(56,60) scale(1 1)" width="288" height="419" clip-path="none"><path fill="#990300" d="M 414 45 C 419.328 45 419.328 53 414 53 C 408.672 53 408.672 45 414 45 Z" class="highcharts-point"></path><path fill="#990300" d="M 373 48 C 378.328 48 378.328 56 373 56 C 367.672 56 367.672 48 373 48 Z" class="highcharts-point"></path><path fill="#990300" d="M 332 50 C 337.328 50 337.328 58 332 58 C 326.672 58 326.672 50 332 50 Z" class="highcharts-point"></path><path fill="#990300" d="M 291 51 C 296.328 51 296.328 59 291 59 C 285.672 59 285.672 51 291 51 Z" class="highcharts-point"></path><path fill="#990300" d="M 250 54 C 255.328 54 255.328 62 250 62 C 244.672 62 244.672 54 250 54 Z" class="highcharts-point"></path><path fill="#990300" d="M 209 58 C 214.328 58 214.328 66 209 66 C 203.672 66 203.672 58 209 58 Z" class="highcharts-point"></path><path fill="#990300" d="M 168 61 C 173.328 61 173.328 69 168 69 C 162.672 69 162.672 61 168 61 Z" class="highcharts-point"></path><path fill="#990300" d="M 127 67 C 132.328 67 132.328 75 127 75 C 121.672 75 121.672 67 127 67 Z" class="highcharts-point"></path><path fill="#990300" d="M 86 70 C 91.328 70 91.328 78 86 78 C 80.672 78 80.672 70 86 70 Z" class="highcharts-point"></path><path fill="#990300" d="M 45 72 C 50.328 72 50.328 80 45 80 C 39.672 80 39.672 72 45 72 Z" class="highcharts-point"></path><path fill="#990300" d="M 4 75 C 9.328 75 9.328 83 4 83 C -1.328 83 -1.328 75 4 75 Z" class="highcharts-point"></path></g></g><text x="10" text-anchor="start" class="highcharts-title" style="color:#000000;font-size:14px;font-weight:bold;fill:#000000;width:421px;" y="21"><tspan>0.1.b-3 Mietpreisentwicklung der 3-Zimmer-</tspan><tspan dy="17" x="10">Wohnungen</tspan><title>0.1.b-3 Mietpreisentwicklung der 3-Zimmer-Wohnungen</title></text><g class="highcharts-data-labels highcharts-series-0 highcharts-line-series highcharts-color-undefined " transform="translate(56,60) scale(1 1)" opacity="1"><g class="highcharts-label highcharts-data-label highcharts-data-label-color-undefined " style="" transform="translate(-1,143)"><text x="5" style="font-size:11px;font-weight:bold;color:#000000;text-outline:1px contrast;fill:#000000;" y="16"></text></g><g class="highcharts-label highcharts-data-label highcharts-data-label-color-undefined " style="" transform="translate(40,138)"><text x="5" style="font-size:11px;font-weight:bold;color:#000000;text-outline:1px contrast;fill:#000000;" y="16"></text></g><g class="highcharts-label highcharts-data-label highcharts-data-label-color-undefined " style="" transform="translate(81,136)"><text x="5" style="font-size:11px;font-weight:bold;color:#000000;text-outline:1px contrast;fill:#000000;" y="16"></text></g><g class="highcharts-label highcharts-data-label highcharts-data-label-color-undefined " style="" transform="translate(122,130)"><text x="5" style="font-size:11px;font-weight:bold;color:#000000;text-outline:1px contrast;fill:#000000;" y="16"></text></g><g class="highcharts-label highcharts-data-label highcharts-data-label-color-undefined " style="" transform="translate(163,128)"><text x="5" style="font-size:11px;font-weight:bold;color:#000000;text-outline:1px contrast;fill:#000000;" y="16"></text></g><g class="highcharts-label highcharts-data-label highcharts-data-label-color-undefined " style="" transform="translate(205,127)"><text x="5" style="font-size:11px;font-weight:bold;color:#000000;text-outline:1px contrast;fill:#000000;" y="16"></text></g><g class="highcharts-label highcharts-data-label highcharts-data-label-color-undefined " style="" transform="translate(246,124)"><text x="5" style="font-size:11px;font-weight:bold;color:#000000;text-outline:1px contrast;fill:#000000;" y="16"></text></g><g class="highcharts-label highcharts-data-label highcharts-data-label-color-undefined " style="" transform="translate(287,123)"><text x="5" style="font-size:11px;font-weight:bold;color:#000000;text-outline:1px contrast;fill:#000000;" y="16"></text></g><g class="highcharts-label highcharts-data-label highcharts-data-label-color-undefined " style="" transform="translate(328,122)"><text x="5" style="font-size:11px;font-weight:bold;color:#000000;text-outline:1px contrast;fill:#000000;" y="16"></text></g><g class="highcharts-label highcharts-data-label highcharts-data-label-color-undefined " style="" transform="translate(369,120)"><text x="5" style="font-size:11px;font-weight:bold;color:#000000;text-outline:1px contrast;fill:#000000;" y="16"></text></g><g class="highcharts-label highcharts-data-label highcharts-data-label-color-undefined " style="" transform="translate(239,104)"><text x="5" style="font-size:11px;font-weight:bold;color:#000000;text-outline:1px contrast;fill:#000000;" y="16"><tspan x="5" y="16" class="highcharts-text-outline" fill="#FFFFFF" stroke="#FFFFFF" stroke-width="2px" stroke-linejoin="round" style="">Genossenschaftswohnungen</tspan><tspan x="5" y="16">Genossenschaftswohnungen</tspan></text></g></g><g class="highcharts-data-labels highcharts-series-1 highcharts-line-series highcharts-color-undefined " transform="translate(56,60) scale(1 1)" opacity="1"><g class="highcharts-label highcharts-data-label highcharts-data-label-color-undefined " style="" transform="translate(-1,69)"><text x="5" style="font-size:11px;font-weight:bold;color:#000000;text-outline:1px contrast;fill:#000000;" y="16"></text></g><g class="highcharts-label highcharts-data-label highcharts-data-label-color-undefined " style="" transform="translate(40,66)"><text x="5" style="font-size:11px;font-weight:bold;color:#000000;text-outline:1px contrast;fill:#000000;" y="16"></text></g><g class="highcharts-label highcharts-data-label highcharts-data-label-color-undefined " style="" transform="translate(81,64)"><text x="5" style="font-size:11px;font-weight:bold;color:#000000;text-outline:1px contrast;fill:#000000;" y="16"></text></g><g class="highcharts-label highcharts-data-label highcharts-data-label-color-undefined " style="" transform="translate(122,61)"><text x="5" style="font-size:11px;font-weight:bold;color:#000000;text-outline:1px contrast;fill:#000000;" y="16"></text></g><g class="highcharts-label highcharts-data-label highcharts-data-label-color-undefined " style="" transform="translate(163,55)"><text x="5" style="font-size:11px;font-weight:bold;color:#000000;text-outline:1px contrast;fill:#000000;" y="16"></text></g><g class="highcharts-label highcharts-data-label highcharts-data-label-color-undefined " style="" transform="translate(205,52)"><text x="5" style="font-size:11px;font-weight:bold;color:#000000;text-outline:1px contrast;fill:#000000;" y="16"></text></g><g class="highcharts-label highcharts-data-label highcharts-data-label-color-undefined " style="" transform="translate(246,48)"><text x="5" style="font-size:11px;font-weight:bold;color:#000000;text-outline:1px contrast;fill:#000000;" y="16"></text></g><g class="highcharts-label highcharts-data-label highcharts-data-label-color-undefined " style="" transform="translate(287,45)"><text x="5" style="font-size:11px;font-weight:bold;color:#000000;text-outline:1px contrast;fill:#000000;" y="16"></text></g><g class="highcharts-label highcharts-data-label highcharts-data-label-color-undefined " style="" transform="translate(328,44)"><text x="5" style="font-size:11px;font-weight:bold;color:#000000;text-outline:1px contrast;fill:#000000;" y="16"></text></g><g class="highcharts-label highcharts-data-label highcharts-data-label-color-undefined " style="" transform="translate(369,42)"><text x="5" style="font-size:11px;font-weight:bold;color:#000000;text-outline:1px contrast;fill:#000000;" y="16"></text></g><g class="highcharts-label highcharts-data-label highcharts-data-label-color-undefined " style="" transform="translate(203,25)"><text x="5" style="font-size:11px;font-weight:bold;color:#000000;text-outline:1px contrast;fill:#000000;" y="16"><tspan x="5" y="16" class="highcharts-text-outline" fill="#FFFFFF" stroke="#FFFFFF" stroke-width="2px" stroke-linejoin="round" style="">Ohne Genossenschaftswohnungen</tspan><tspan x="5" y="16">Ohne Genossenschaftswohnungen</tspan></text></g></g><g class="highcharts-axis-labels highcharts-xaxis-labels "><text x="60.10784313725124" style="color:#000000;cursor:default;font-size:11px;fill:#000000;" text-anchor="middle" transform="translate(0,0)" y="367" opacity="1">2005</text><text x="101.186274509801" style="color:#000000;cursor:default;font-size:11px;fill:#000000;" text-anchor="middle" transform="translate(0,0)" y="367" opacity="1">2006</text><text x="142.26470588235074" style="color:#000000;cursor:default;font-size:11px;fill:#000000;" text-anchor="middle" transform="translate(0,0)" y="367" opacity="1">2007</text><text x="183.3431372549005" style="color:#000000;cursor:default;font-size:11px;fill:#000000;" text-anchor="middle" transform="translate(0,0)" y="367" opacity="1">2008</text><text x="224.42156862745026" style="color:#000000;cursor:default;font-size:11px;fill:#000000;" text-anchor="middle" transform="translate(0,0)" y="367" opacity="1">2009</text><text x="265.5" style="color:#000000;cursor:default;font-size:11px;fill:#000000;" text-anchor="middle" transform="translate(0,0)" y="367" opacity="1">2010</text><text x="306.57843137254974" style="color:#000000;cursor:default;font-size:11px;fill:#000000;" text-anchor="middle" transform="translate(0,0)" y="367" opacity="1">2011</text><text x="347.6568627450995" style="color:#000000;cursor:default;font-size:11px;fill:#000000;" text-anchor="middle" transform="translate(0,0)" y="367" opacity="1">2012</text><text x="388.73529411764923" style="color:#000000;cursor:default;font-size:11px;fill:#000000;" text-anchor="middle" transform="translate(0,0)" y="367" opacity="1">2013</text><text x="429.813725490199" style="color:#000000;cursor:default;font-size:11px;fill:#000000;" text-anchor="middle" transform="translate(0,0)" y="367" opacity="1">2014</text><text x="462.4710784313744" style="color:#000000;cursor:default;font-size:11px;fill:#000000;width:25.057843137251222;text-overflow:ellipsis;" text-anchor="middle" transform="translate(0,0)" y="367" opacity="1"><tspan>20…</tspan><title>2015</title></text></g><g class="highcharts-axis-labels highcharts-yaxis-labels "><text x="41" style="color:#000000;cursor:default;font-size:11px;fill:#000000;width:150px;text-overflow:clip;" text-anchor="end" transform="translate(0,0)" y="352" opacity="1"><tspan>0</tspan></text><text x="41" style="color:#000000;cursor:default;font-size:11px;fill:#000000;width:150px;text-overflow:clip;" text-anchor="end" transform="translate(0,0)" y="304" opacity="1"><tspan>250</tspan></text><text x="41" style="color:#000000;cursor:default;font-size:11px;fill:#000000;width:150px;text-overflow:clip;" text-anchor="end" transform="translate(0,0)" y="256" opacity="1"><tspan>500</tspan></text><text x="41" style="color:#000000;cursor:default;font-size:11px;fill:#000000;width:150px;text-overflow:clip;" text-anchor="end" transform="translate(0,0)" y="208" opacity="1"><tspan>750</tspan></text><text x="41" style="color:#000000;cursor:default;font-size:11px;fill:#000000;width:150px;text-overflow:clip;" text-anchor="end" transform="translate(0,0)" y="160" opacity="1"><tspan>1 000</tspan></text><text x="41" style="color:#000000;cursor:default;font-size:11px;fill:#000000;width:150px;text-overflow:clip;" text-anchor="end" transform="translate(0,0)" y="112" opacity="1"><tspan>1 250</tspan></text><text x="41" style="color:#000000;cursor:default;font-size:11px;fill:#000000;width:150px;text-overflow:clip;" text-anchor="end" transform="translate(0,0)" y="64" opacity="1"><tspan>1 500</tspan></text></g><text x="10" class="highcharts-credits" text-anchor="start" style="cursor:default;color:#000000;font-size:10px;fill:#000000;" y="400"><tspan>Quelle: Statistisches Amt Basel-Stadt, Mietpreiserhebung</tspan></text></svg>