<svg class="highcharts-root" xmlns="http://www.w3.org/2000/svg" viewBox="0 0 485 415" font-family="Arial" font-size="12">
    <defs>
        <clipPath id="a">
            <path fill="none" d="M0 0h264v274H0z"/>
        </clipPath>
    </defs>
    <rect fill="#fbfbfb" class="highcharts-background" width="485" height="415" rx="0" ry="0"/>
    <path fill="none" class="highcharts-plot-background" d="M56 75h264v274H56z"/>
    <g class="highcharts-grid highcharts-xaxis-grid">
        <path fill="none" class="highcharts-grid-line" d="M108.5 75v274m53-274v274m52-274v274m53-274v274m53-274v274M55.5 75v274"/>
    </g>
    <g class="highcharts-grid highcharts-yaxis-grid">
        <path fill="none" stroke="#e6e6e6" class="highcharts-grid-line" d="M56 349.5h264m-264-27h264m-264-28h264m-264-27h264m-264-28h264m-264-27h264m-264-27h264m-264-28h264m-264-27h264m-264-28h264m-264-28h264"/>
    </g>
    <path fill="none" class="highcharts-plot-border" d="M56 75h264v274H56z"/>
    <g class="highcharts-axis highcharts-xaxis">
        <path fill="none" class="highcharts-tick" stroke="#FFF" d="M108.5 349v10m53-10v10m52-10v10m53-10v10m54-10v10m-265-10v10"/>
        <path fill="none" class="highcharts-axis-line" stroke="#ccd6eb" d="M56 349.5h264"/>
    </g>
    <g class="highcharts-axis highcharts-yaxis">
        <path fill="none" class="highcharts-axis-line" d="M56 75v274"/>
    </g>
    <g class="highcharts-series-group">
        <g class="highcharts-series highcharts-series-0 highcharts-column-series highcharts-color-undefined highcharts-tracker" transform="translate(56 75)" clip-path="url(#a)">
            <path fill="#dc440e" class="highcharts-point" stroke="#fff" d="M13.5-.5h26v20h-26zm53 0h26v10h-26zm52 0h26v10h-26zm53 0h26v10h-26zm53 0h26v19h-26z"/>
        </g>
        <g class="highcharts-series highcharts-series-1 highcharts-column-series highcharts-color-undefined highcharts-tracker" transform="translate(56 75)" clip-path="url(#a)">
            <path fill="#ffbb58" class="highcharts-point" stroke="#fff" d="M13.5 19.5h26v84h-26zm53-10h26v85h-26zm52 0h26v72h-26zm53 0h26v70h-26zm53 9h26v108h-26z"/>
        </g>
        <g class="highcharts-series highcharts-series-2 highcharts-column-series highcharts-color-undefined highcharts-tracker" transform="translate(56 75)" clip-path="url(#a)">
            <path fill="#999" class="highcharts-point" stroke="#fff" d="M13.5 103.5h26v38h-26zm53-9h26v30h-26zm52-13h26v30h-26zm53-2h26v31h-26zm53 47h26v19h-26z"/>
        </g>
        <g class="highcharts-series highcharts-series-3 highcharts-column-series highcharts-color-undefined highcharts-tracker" transform="translate(56 75)" clip-path="url(#a)">
            <path fill="#68ab2b" class="highcharts-point" stroke="#fff" d="M13.5 141.5h26v107h-26zm53-17h26v124h-26zm52-13h26v137h-26zm53-1h26v116h-26zm53 35h26v102h-26z"/>
        </g>
        <g class="highcharts-series highcharts-series-4 highcharts-column-series highcharts-color-undefined highcharts-tracker" transform="translate(56 75)" clip-path="url(#a)">
            <path fill="#007a2f" class="highcharts-point" stroke="#fff" d="M13.5 248.5h26v26h-26zm53 0h26v26h-26zm52 0h26v26h-26zm53-22h26v48h-26zm53 21h26v27h-26z"/>
        </g>
    </g>
    <text x="10" class="highcharts-title" style="width:421px" y="21" color="#000" font-size="14" font-weight="700">
        <tspan>1.4.c Zufriedenheit mit dem Wohnungsangebot – nur</tspan><tspan dy="17" x="10">Familien</tspan><title>1.4.c Zufriedenheit mit dem Wohnungsangebot – nur Familien</title>
    </text>
    <text x="10" class="highcharts-subtitle" style="width:421px" y="59" color="#000">
        <tspan>«Wie zufrieden sind sie mit dem Wohnungsangebot?»</tspan>
    </text>
    <g class="highcharts-legend" transform="translate(332 135)">
        <rect fill="none" class="highcharts-legend-box" rx="0" ry="0" width="143" height="126"/>
        <g class="highcharts-legend-item highcharts-column-series highcharts-color-undefined highcharts-series-0">
            <text x="21" y="15" color="#333" font-weight="400" cursor="pointer" fill="#333" transform="translate(8 3)">
                <tspan>Sehr unzufrieden</tspan>
            </text>
            <path fill="#dc440e" class="highcharts-point" d="M10 7h12v12H10z"/>
        </g>
        <g class="highcharts-legend-item highcharts-column-series highcharts-color-undefined highcharts-series-1">
            <text x="21" y="15" color="#333" font-weight="400" cursor="pointer" fill="#333" transform="translate(8 23)">
                <tspan>Eher unzufrieden</tspan>
            </text>
            <path fill="#ffbb58" class="highcharts-point" d="M10 27h12v12H10z"/>
        </g>
        <g class="highcharts-legend-item highcharts-column-series highcharts-color-undefined highcharts-series-2">
            <text x="21" y="15" color="#333" font-weight="400" cursor="pointer" fill="#333" transform="translate(8 43)">
                <tspan>Weiss nicht /</tspan><tspan x="21" dy="15">keine Angabe</tspan>
            </text>
            <path fill="#999" class="highcharts-point" d="M10 47h12v12H10z"/>
        </g>
        <g class="highcharts-legend-item highcharts-column-series highcharts-color-undefined highcharts-series-3">
            <text x="21" y="15" color="#333" font-weight="400" cursor="pointer" fill="#333" transform="translate(8 78)">
                <tspan>Eher zufrieden</tspan>
            </text>
            <path fill="#68ab2b" class="highcharts-point" d="M10 82h12v12H10z"/>
        </g>
        <g class="highcharts-legend-item highcharts-column-series highcharts-color-undefined highcharts-series-4">
            <text x="21" y="15" color="#333" font-weight="400" cursor="pointer" fill="#333" transform="translate(8 98)">
                <tspan>Sehr zufrieden</tspan>
            </text>
            <path fill="#007a2f" class="highcharts-point" d="M10 102h12v12H10z"/>
        </g>
    </g>
    <g class="highcharts-axis-labels highcharts-xaxis-labels" text-anchor="middle" color="#000" cursor="default" font-size="11">
        <text x="82.4" y="368">
            <tspan>2003</tspan><tspan x="82.4" dy="14">(N=347)</tspan>
        </text>
        <text x="135.2" y="368">
            <tspan>2005</tspan><tspan x="135.2" dy="14">(N=366)</tspan>
        </text>
        <text x="188" y="368">
            <tspan>2007</tspan><tspan x="188" dy="14">(N=280)</tspan>
        </text>
        <text x="240.8" y="368">
            <tspan>2011</tspan><tspan x="240.8" dy="14">(N=331)</tspan>
        </text>
        <text x="293.6" y="368">
            <tspan>2015</tspan><tspan x="293.6" dy="14">(N=237)</tspan>
        </text>
    </g>
    <g class="highcharts-axis-labels highcharts-yaxis-labels" text-anchor="end" color="#000" cursor="default" font-size="11">
        <text x="41" style="width:150px" y="353">
            <tspan>0%</tspan>
        </text>
        <text x="41" style="width:150px" y="326">
            <tspan>10%</tspan>
        </text>
        <text x="41" style="width:150px" y="298">
            <tspan>20%</tspan>
        </text>
        <text x="41" style="width:150px" y="271">
            <tspan>30%</tspan>
        </text>
        <text x="41" style="width:150px" y="243">
            <tspan>40%</tspan>
        </text>
        <text x="41" style="width:150px" y="216">
            <tspan>50%</tspan>
        </text>
        <text x="41" style="width:150px" y="189">
            <tspan>60%</tspan>
        </text>
        <text x="41" style="width:150px" y="161">
            <tspan>70%</tspan>
        </text>
        <text x="41" style="width:150px" y="134">
            <tspan>80%</tspan>
        </text>
        <text x="41" style="width:150px" y="106">
            <tspan>90%</tspan>
        </text>
        <text x="41" style="width:150px" y="79">
            <tspan>100%</tspan>
        </text>
    </g>
    <text x="10" class="highcharts-credits" y="400" cursor="default" color="#000" font-size="10">
        <tspan>Quelle: Statistisches Amt Basel-Stadt, kantonale Bevölkerungsbefragung: F6_9</tspan>
    </text>
</svg>
