<?xml version="1.0" standalone="no"?><!DOCTYPE svg PUBLIC "-//W3C//DTD SVG 1.1//EN" "http://www.w3.org/Graphics/SVG/1.1/DTD/svg11.dtd"><svg xmlns:xlink="http://www.w3.org/1999/xlink" version="1.1" class="highcharts-root" style="font-family:Arial;font-size:12px;" xmlns="http://www.w3.org/2000/svg" viewBox="0 0 485 415"><desc>Created with Highcharts 5.0.6</desc><defs><clipPath id="highcharts-3v7wkbk-1"><rect x="0" y="0" width="387" height="289" fill="none"></rect></clipPath></defs><rect fill="#fbfbfb" class="highcharts-background" x="0" y="0" width="485" height="415" rx="0" ry="0"></rect><rect fill="none" class="highcharts-plot-background" x="88" y="43" width="387" height="289"></rect><g class="highcharts-grid highcharts-xaxis-grid "><path fill="none" class="highcharts-grid-line" d="M 122.5 43 L 122.5 332" opacity="1"></path><path fill="none" class="highcharts-grid-line" d="M 157.5 43 L 157.5 332" opacity="1"></path><path fill="none" class="highcharts-grid-line" d="M 193.5 43 L 193.5 332" opacity="1"></path><path fill="none" class="highcharts-grid-line" d="M 228.5 43 L 228.5 332" opacity="1"></path><path fill="none" class="highcharts-grid-line" d="M 263.5 43 L 263.5 332" opacity="1"></path><path fill="none" class="highcharts-grid-line" d="M 298.5 43 L 298.5 332" opacity="1"></path><path fill="none" class="highcharts-grid-line" d="M 333.5 43 L 333.5 332" opacity="1"></path><path fill="none" class="highcharts-grid-line" d="M 368.5 43 L 368.5 332" opacity="1"></path><path fill="none" class="highcharts-grid-line" d="M 404.5 43 L 404.5 332" opacity="1"></path><path fill="none" class="highcharts-grid-line" d="M 439.5 43 L 439.5 332" opacity="1"></path><path fill="none" class="highcharts-grid-line" d="M 474.5 43 L 474.5 332" opacity="1"></path><path fill="none" class="highcharts-grid-line" d="M 87.5 43 L 87.5 332" opacity="1"></path></g><g class="highcharts-grid highcharts-yaxis-grid "><path fill="none" stroke="#e6e6e6" stroke-width="1" class="highcharts-grid-line" d="M 88 332.5 L 475 332.5" opacity="1"></path><path fill="none" stroke="#e6e6e6" stroke-width="1" class="highcharts-grid-line" d="M 88 274.5 L 475 274.5" opacity="1"></path><path fill="none" stroke="#e6e6e6" stroke-width="1" class="highcharts-grid-line" d="M 88 216.5 L 475 216.5" opacity="1"></path><path fill="none" stroke="#e6e6e6" stroke-width="1" class="highcharts-grid-line" d="M 88 159.5 L 475 159.5" opacity="1"></path><path fill="none" stroke="#e6e6e6" stroke-width="1" class="highcharts-grid-line" d="M 88 101.5 L 475 101.5" opacity="1"></path><path fill="none" stroke="#e6e6e6" stroke-width="1" class="highcharts-grid-line" d="M 88 42.5 L 475 42.5" opacity="1"></path></g><rect fill="none" class="highcharts-plot-border" x="88" y="43" width="387" height="289"></rect><g class="highcharts-axis highcharts-xaxis "><path fill="none" class="highcharts-axis-line" stroke="#ccd6eb" stroke-width="1" d="M 88 332.5 L 475 332.5"></path></g><g class="highcharts-axis highcharts-yaxis "><path fill="none" class="highcharts-axis-line" d="M 88 43 L 88 332"></path></g><g class="highcharts-series-group"><g class="highcharts-series highcharts-series-0 highcharts-line-series highcharts-color-undefined " transform="translate(88,43) scale(1 1)" width="289" height="387" clip-path="url(#highcharts-3v7wkbk-1)"><path fill="none" d="M 17.590909090909 263.00820699999997 L 52.772727272727 267.2648591 L 87.954545454545 272.5572005 L 123.13636363636 272.1006672 L 158.31818181818 233.0213069 L 193.5 198.9896206 L 228.68181818182 166.0582729 L 263.86363636364 139.2695913 L 299.04545454545 55.30824199999998 L 334.22727272727 31.381382900000006 L 369.40909090909 13.709437499999979" class="highcharts-graph" stroke="#923f8d" stroke-width="2" stroke-linejoin="round" stroke-linecap="round"></path><path fill="none" d="M 7.590909090909001 263.00820699999997 L 17.590909090909 263.00820699999997 L 52.772727272727 267.2648591 L 87.954545454545 272.5572005 L 123.13636363636 272.1006672 L 158.31818181818 233.0213069 L 193.5 198.9896206 L 228.68181818182 166.0582729 L 263.86363636364 139.2695913 L 299.04545454545 55.30824199999998 L 334.22727272727 31.381382900000006 L 369.40909090909 13.709437499999979 L 379.40909090909 13.709437499999979" stroke-linejoin="round" visibility="visible" stroke="rgba(192,192,192,0.0001)" stroke-width="22" class="highcharts-tracker"></path></g><g class="highcharts-markers highcharts-series-0 highcharts-line-series highcharts-color-undefined highcharts-tracker" transform="translate(88,43) scale(1 1)" width="289" height="387" clip-path="none"><path fill="#923f8d" d="M 369 10 C 374.328 10 374.328 18 369 18 C 363.672 18 363.672 10 369 10 Z" class="highcharts-point"></path><path fill="#923f8d" d="M 334 27 C 339.328 27 339.328 35 334 35 C 328.672 35 328.672 27 334 27 Z" class="highcharts-point"></path><path fill="#923f8d" d="M 299 51 C 304.328 51 304.328 59 299 59 C 293.672 59 293.672 51 299 51 Z" class="highcharts-point"></path><path fill="#923f8d" d="M 263 135 C 268.328 135 268.328 143 263 143 C 257.672 143 257.672 135 263 135 Z" class="highcharts-point"></path><path fill="#923f8d" d="M 228 162 C 233.328 162 233.328 170 228 170 C 222.672 170 222.672 162 228 162 Z" class="highcharts-point"></path><path fill="#923f8d" d="M 193 195 C 198.328 195 198.328 203 193 203 C 187.672 203 187.672 195 193 195 Z" class="highcharts-point"></path><path fill="#923f8d" d="M 158 229 C 163.328 229 163.328 237 158 237 C 152.672 237 152.672 229 158 229 Z" class="highcharts-point"></path><path fill="#923f8d" d="M 123 268 C 128.328 268 128.328 276 123 276 C 117.672 276 117.672 268 123 268 Z" class="highcharts-point"></path><path fill="#923f8d" d="M 87 269 C 92.328 269 92.328 277 87 277 C 81.672 277 81.672 269 87 269 Z" class="highcharts-point"></path><path fill="#923f8d" d="M 52 263 C 57.328 263 57.328 271 52 271 C 46.672 271 46.672 263 52 263 Z" class="highcharts-point"></path><path fill="#923f8d" d="M 17 259 C 22.328 259 22.328 267 17 267 C 11.672 267 11.672 259 17 259 Z" class="highcharts-point"></path></g></g><text x="10" text-anchor="start" class="highcharts-title" style="color:#000000;font-size:14px;font-weight:bold;fill:#000000;width:421px;" y="21"><tspan>4.1.b Ausbezahlte Familienmietzinsbeiträge</tspan></text><g class="highcharts-data-labels highcharts-series-0 highcharts-line-series highcharts-color-undefined " transform="translate(88,43) scale(1 1)" opacity="1"><g class="highcharts-label highcharts-data-label highcharts-data-label-color-undefined " style="" transform="translate(-5,239)"><text x="5" style="font-size:11px;font-weight:bold;color:#000000;text-outline:1px contrast;fill:#000000;" y="16"><tspan x="5" y="16" class="highcharts-text-outline" fill="#FFFFFF" stroke="#FFFFFF" stroke-width="2px" stroke-linejoin="round" style="">899 370</tspan><tspan x="5" y="16">899 370</tspan></text></g><g class="highcharts-label highcharts-data-label highcharts-data-label-color-undefined " style="" transform="translate(327,14)"><text x="5" style="font-size:11px;font-weight:bold;color:#000000;text-outline:1px contrast;fill:#000000;" y="16"><tspan x="5" y="16" class="highcharts-text-outline" fill="#FFFFFF" stroke="#FFFFFF" stroke-width="2px" stroke-linejoin="round">9 525 625</tspan><tspan x="5" y="16">9 525 625</tspan></text></g></g><g class="highcharts-axis-labels highcharts-xaxis-labels "><text x="108.18363395525977" style="color:#000000;cursor:default;font-size:11px;fill:#000000;width:415px;text-overflow:ellipsis;" text-anchor="end" transform="translate(0,0) rotate(-45 108.18363395525977 348)" y="348" opacity="1"><tspan>2005</tspan></text><text x="143.36545213707797" style="color:#000000;cursor:default;font-size:11px;fill:#000000;width:415px;text-overflow:ellipsis;" text-anchor="end" transform="translate(0,0) rotate(-45 143.36545213707797 348)" y="348" opacity="1"><tspan>2006</tspan></text><text x="178.54727031889615" style="color:#000000;cursor:default;font-size:11px;fill:#000000;width:415px;text-overflow:ellipsis;" text-anchor="end" transform="translate(0,0) rotate(-45 178.54727031889615 348)" y="348" opacity="1"><tspan>2007</tspan></text><text x="213.7290885007143" style="color:#000000;cursor:default;font-size:11px;fill:#000000;width:415px;text-overflow:ellipsis;" text-anchor="end" transform="translate(0,0) rotate(-45 213.7290885007143 348)" y="348" opacity="1"><tspan>2008</tspan></text><text x="248.91090668253244" style="color:#000000;cursor:default;font-size:11px;fill:#000000;width:415px;text-overflow:ellipsis;" text-anchor="end" transform="translate(0,0) rotate(-45 248.91090668253244 348)" y="348" opacity="1"><tspan>2009</tspan></text><text x="284.0927248643507" style="color:#000000;cursor:default;font-size:11px;fill:#000000;width:415px;text-overflow:ellipsis;" text-anchor="end" transform="translate(0,0) rotate(-45 284.0927248643507 348)" y="348" opacity="1"><tspan>2010</tspan></text><text x="319.27454304616884" style="color:#000000;cursor:default;font-size:11px;fill:#000000;width:415px;text-overflow:ellipsis;" text-anchor="end" transform="translate(0,0) rotate(-45 319.27454304616884 348)" y="348" opacity="1"><tspan>2011</tspan></text><text x="354.45636122798703" style="color:#000000;cursor:default;font-size:11px;fill:#000000;width:415px;text-overflow:ellipsis;" text-anchor="end" transform="translate(0,0) rotate(-45 354.45636122798703 348)" y="348" opacity="1"><tspan>2012</tspan></text><text x="389.63817940980516" style="color:#000000;cursor:default;font-size:11px;fill:#000000;width:415px;text-overflow:ellipsis;" text-anchor="end" transform="translate(0,0) rotate(-45 389.63817940980516 348)" y="348" opacity="1"><tspan>2013</tspan></text><text x="424.81999759162335" style="color:#000000;cursor:default;font-size:11px;fill:#000000;width:415px;text-overflow:ellipsis;" text-anchor="end" transform="translate(0,0) rotate(-45 424.81999759162335 348)" y="348" opacity="1"><tspan>2014</tspan></text><text x="460.00181577344154" style="color:#000000;cursor:default;font-size:11px;fill:#000000;width:415px;text-overflow:ellipsis;" text-anchor="end" transform="translate(0,0) rotate(-45 460.00181577344154 348)" y="348" opacity="1"><tspan>2015</tspan></text></g><g class="highcharts-axis-labels highcharts-yaxis-labels "><text x="73" style="color:#000000;cursor:default;font-size:11px;fill:#000000;width:150px;text-overflow:clip;" text-anchor="end" transform="translate(0,0)" y="336" opacity="1"><tspan>0</tspan></text><text x="73" style="color:#000000;cursor:default;font-size:11px;fill:#000000;width:150px;text-overflow:clip;" text-anchor="end" transform="translate(0,0)" y="278" opacity="1"><tspan>2 000 000</tspan></text><text x="73" style="color:#000000;cursor:default;font-size:11px;fill:#000000;width:150px;text-overflow:clip;" text-anchor="end" transform="translate(0,0)" y="220" opacity="1"><tspan>4 000 000</tspan></text><text x="73" style="color:#000000;cursor:default;font-size:11px;fill:#000000;width:150px;text-overflow:clip;" text-anchor="end" transform="translate(0,0)" y="163" opacity="1"><tspan>6 000 000</tspan></text><text x="73" style="color:#000000;cursor:default;font-size:11px;fill:#000000;width:150px;text-overflow:clip;" text-anchor="end" transform="translate(0,0)" y="105" opacity="1"><tspan>8 000 000</tspan></text><text x="73" style="color:#000000;cursor:default;font-size:11px;fill:#000000;width:150px;text-overflow:clip;" text-anchor="end" transform="translate(0,0)" y="47" opacity="1"><tspan>10 000 000</tspan></text></g><text x="10" class="highcharts-credits" text-anchor="start" style="cursor:default;color:#000000;font-size:10px;fill:#000000;" y="400"><tspan>Quelle: Statistisches Amt Basel-Stadt, Amt für Sozialbeiträge Basel-Stadt</tspan></text></svg>