<?xml version="1.0" standalone="no"?>
<!DOCTYPE svg PUBLIC "-//W3C//DTD SVG 1.1//EN" "http://www.w3.org/Graphics/SVG/1.1/DTD/svg11.dtd">
<svg xmlns:xlink="http://www.w3.org/1999/xlink" version="1.1" class="highcharts-root" style="font-family:Arial;font-size:9pt;" xmlns="http://www.w3.org/2000/svg" viewBox="0 0 485 415">
  <desc>
    Created with Highstock 6.0.4
  </desc>
  <defs>
    <clipPath>
      <rect x="0" y="0" width="438" height="291" fill="none"/>
    </clipPath>
    <clipPath id="a">
      <rect x="0" y="0" width="438" height="291" fill="none"/>
    </clipPath>
  </defs>
  <rect fill="#fbfbfb" class="highcharts-background" x="0" y="0" width="485" height="415" rx="0" ry="0"/>
  <rect fill="none" class="highcharts-plot-background" x="37" y="53" width="438" height="291"/>
  <g class="highcharts-label" style="cursor:pointer;" transform="translate(10,451)">
    <text x="0" y="0">
      <tspan>&gt; Indikator-Details</tspan>
    </text>
  </g>
  <g class="highcharts-pane-group"/>
  <g class="highcharts-grid highcharts-xaxis-grid ">
    <path fill="none" class="highcharts-grid-line" d="M 44.5 53 L 44.5 344" opacity="1"/>
    <path fill="none" class="highcharts-grid-line" d="M 78.5 53 L 78.5 344" opacity="1"/>
    <path fill="none" class="highcharts-grid-line" d="M 112.5 53 L 112.5 344" opacity="1"/>
    <path fill="none" class="highcharts-grid-line" d="M 146.5 53 L 146.5 344" opacity="1"/>
    <path fill="none" class="highcharts-grid-line" d="M 179.5 53 L 179.5 344" opacity="1"/>
    <path fill="none" class="highcharts-grid-line" d="M 213.5 53 L 213.5 344" opacity="1"/>
    <path fill="none" class="highcharts-grid-line" d="M 247.5 53 L 247.5 344" opacity="1"/>
    <path fill="none" class="highcharts-grid-line" d="M 280.5 53 L 280.5 344" opacity="1"/>
    <path fill="none" class="highcharts-grid-line" d="M 314.5 53 L 314.5 344" opacity="1"/>
    <path fill="none" class="highcharts-grid-line" d="M 348.5 53 L 348.5 344" opacity="1"/>
    <path fill="none" class="highcharts-grid-line" d="M 381.5 53 L 381.5 344" opacity="1"/>
    <path fill="none" class="highcharts-grid-line" d="M 415.5 53 L 415.5 344" opacity="1"/>
    <path fill="none" class="highcharts-grid-line" d="M 449.5 53 L 449.5 344" opacity="1"/>
  </g>
  <g class="highcharts-grid highcharts-yaxis-grid ">
    <path fill="none" stroke="#e6e6e6" stroke-width="1" class="highcharts-grid-line" d="M 37 344.5 L 475 344.5" opacity="1"/>
    <path fill="none" stroke="#e6e6e6" stroke-width="1" class="highcharts-grid-line" d="M 37 286.5 L 475 286.5" opacity="1"/>
    <path fill="none" stroke="#e6e6e6" stroke-width="1" class="highcharts-grid-line" d="M 37 228.5 L 475 228.5" opacity="1"/>
    <path fill="none" stroke="#e6e6e6" stroke-width="1" class="highcharts-grid-line" d="M 37 169.5 L 475 169.5" opacity="1"/>
    <path fill="none" stroke="#e6e6e6" stroke-width="1" class="highcharts-grid-line" d="M 37 111.5 L 475 111.5" opacity="1"/>
    <path fill="none" stroke="#e6e6e6" stroke-width="1" class="highcharts-grid-line" d="M 37 52.5 L 475 52.5" opacity="1"/>
  </g>
  <g class="highcharts-grid highcharts-yaxis-grid "/>
  <rect fill="none" class="highcharts-plot-border" x="37" y="53" width="438" height="291"/>
  <g class="highcharts-axis highcharts-xaxis ">
    <path fill="none" class="highcharts-axis-line" stroke="#ccd6eb" stroke-width="1" d="M 37 344.5 L 475 344.5"/>
  </g>
  <g class="highcharts-axis highcharts-yaxis ">
    <path fill="none" class="highcharts-axis-line" d="M 37 53 L 37 344"/>
  </g>
  <g class="highcharts-axis highcharts-yaxis ">
    <path fill="none" class="highcharts-axis-line" d="M 475 53 L 475 344"/>
  </g>
  <g class="highcharts-series-group">
    <g class="highcharts-series highcharts-series-0 highcharts-line-series " transform="translate(37,53) scale(1 1)" clip-path="url(#a)">
      <path fill="none" d="M -25.269230769231 34.91999999999996 L -8.4230769230769 36.084 L 8.4230769230769 60.52799999999999 L 25.269230769231 54.70799999999997 L 42.115384615385 59.364000000000004 L 58.961538461538 61.69200000000001 L 75.807692307692 60.52799999999999 L 92.653846153846 81.47999999999999 L 109.5 93.12 L 126.34615384615 117.564 L 143.19230769231 96.612 L 160.03846153846 104.75999999999999 L 176.88461538462 119.892 L 193.73076923077 111.744 L 210.57692307692 118.72799999999998 L 227.42307692308 129.20399999999998 L 244.26923076923 140.844 L 261.11538461538 114.072 L 277.96153846154 121.05599999999998 L 294.80769230769 129.20399999999998 L 311.65384615385 107.088 L 328.5 119.892 L 345.34615384615 115.23599999999999 L 362.19230769231 124.54799999999997 L 379.03846153846 116.39999999999998 L 395.88461538462 124.54799999999997 L 412.73076923077 114.072 L 429.57692307692 107.088" class="highcharts-graph" stroke="#FF8028" stroke-width="2" stroke-linejoin="round" stroke-linecap="round"/>
    </g>
    <g class="highcharts-markers highcharts-series-0 highcharts-line-series " transform="translate(37,53) scale(1 1)" clip-path="none"/>
  </g>
  <text x="10" text-anchor="start" class="highcharts-title" style="color:#000000;font-size:1.1em;font-weight:bold;fill:#000000;" y="20">
    <tspan>Wasserverbrauch Gewerbe und Industrie</tspan>
  </text>
  <text x="10" text-anchor="start" class="highcharts-subtitle" style="color:#000000;font-size:0.9em;fill:#000000;" y="38">
    <tspan>Millionen Kubikmeter</tspan>
  </text>
  <g class="highcharts-legend">
    <rect fill="none" class="highcharts-legend-box" rx="0" ry="0" x="0" y="0" width="12" height="12" visibility="hidden"/>
    <g>
      <g/>
    </g>
  </g>
  <g class="highcharts-axis-labels highcharts-xaxis-labels ">
    <text x="45.42307692307692" style="color:#000000;cursor:default;font-size:0.9em;fill:#000000;" text-anchor="middle" transform="translate(0,0)" y="363" opacity="1">
      1991
    </text>
    <text x="79.11538461538461" style="color:#000000;cursor:default;font-size:0.9em;fill:#000000;" text-anchor="middle" transform="translate(0,0)" y="363" opacity="1">
      1993
    </text>
    <text x="112.8076923076923" style="color:#000000;cursor:default;font-size:0.9em;fill:#000000;" text-anchor="middle" transform="translate(0,0)" y="363" opacity="1">
      1995
    </text>
    <text x="146.5" style="color:#000000;cursor:default;font-size:0.9em;fill:#000000;" text-anchor="middle" transform="translate(0,0)" y="363" opacity="1">
      1997
    </text>
    <text x="180.1923076923077" style="color:#000000;cursor:default;font-size:0.9em;fill:#000000;" text-anchor="middle" transform="translate(0,0)" y="363" opacity="1">
      1999
    </text>
    <text x="213.8846153846154" style="color:#000000;cursor:default;font-size:0.9em;fill:#000000;" text-anchor="middle" transform="translate(0,0)" y="363" opacity="1">
      2001
    </text>
    <text x="247.5769230769231" style="color:#000000;cursor:default;font-size:0.9em;fill:#000000;" text-anchor="middle" transform="translate(0,0)" y="363" opacity="1">
      2003
    </text>
    <text x="281.26923076923083" style="color:#000000;cursor:default;font-size:0.9em;fill:#000000;" text-anchor="middle" transform="translate(0,0)" y="363" opacity="1">
      2005
    </text>
    <text x="314.96153846153845" style="color:#000000;cursor:default;font-size:0.9em;fill:#000000;" text-anchor="middle" transform="translate(0,0)" y="363" opacity="1">
      2007
    </text>
    <text x="348.65384615384613" style="color:#000000;cursor:default;font-size:0.9em;fill:#000000;" text-anchor="middle" transform="translate(0,0)" y="363" opacity="1">
      2009
    </text>
    <text x="382.3461538461538" style="color:#000000;cursor:default;font-size:0.9em;fill:#000000;" text-anchor="middle" transform="translate(0,0)" y="363" opacity="1">
      2011
    </text>
    <text x="416.03846153846155" style="color:#000000;cursor:default;font-size:0.9em;fill:#000000;" text-anchor="middle" transform="translate(0,0)" y="363" opacity="1">
      2013
    </text>
    <text x="449.7307692307692" style="color:#000000;cursor:default;font-size:0.9em;fill:#000000;" text-anchor="middle" transform="translate(0,0)" y="363" opacity="1">
      2015
    </text>
  </g>
  <g class="highcharts-axis-labels highcharts-yaxis-labels ">
    <text x="22" style="color:#000000;cursor:default;font-size:0.9em;fill:#000000;" text-anchor="end" transform="translate(0,0)" y="349" opacity="1">
      <tspan>0</tspan>
    </text>
    <text x="22" style="color:#000000;cursor:default;font-size:0.9em;fill:#000000;" text-anchor="end" transform="translate(0,0)" y="290" opacity="1">
      <tspan>5</tspan>
    </text>
    <text x="22" style="color:#000000;cursor:default;font-size:0.9em;fill:#000000;" text-anchor="end" transform="translate(0,0)" y="232" opacity="1">
      <tspan>10</tspan>
    </text>
    <text x="22" style="color:#000000;cursor:default;font-size:0.9em;fill:#000000;" text-anchor="end" transform="translate(0,0)" y="174" opacity="1">
      <tspan>15</tspan>
    </text>
    <text x="22" style="color:#000000;cursor:default;font-size:0.9em;fill:#000000;" text-anchor="end" transform="translate(0,0)" y="116" opacity="1">
      <tspan>20</tspan>
    </text>
    <text x="22" style="color:#000000;cursor:default;font-size:0.9em;fill:#000000;" text-anchor="end" transform="translate(0,0)" y="58" opacity="1">
      <tspan>25</tspan>
    </text>
  </g>
  <g class="highcharts-axis-labels highcharts-yaxis-labels "/>
  <text x="10" class="highcharts-credits" text-anchor="start" style="cursor:default;color:#000000;font-size:0.8em;fill:#000000;" y="400">
    <tspan>Quelle: Amt f端r Umwelt und Energie Basel-Stadt; Industrielle Werke Basel-Stadt (IWB); Amt f端r</tspan><tspan dy="12.600000000000001" x="10">Umweltschutz und Energie Basel-Landschaft</tspan><title>Quelle: Amt f端r Umwelt und Energie Basel-Stadt; Industrielle Werke Basel-Stadt (IWB); Amt f端r Umweltschutz und Energie Basel-Landschaft</title>
  </text>
</svg>
