<svg class="highcharts-root" xmlns="http://www.w3.org/2000/svg" viewBox="0 0 485 415" font-family="Arial" font-size="12">
    <defs>
        <clipPath id="a">
            <path fill="none" d="M0 0h438v235H0z"/>
        </clipPath>
    </defs>
    <rect fill="#fbfbfb" class="highcharts-background" width="485" height="415" rx="0" ry="0"/>
    <path fill="none" class="highcharts-plot-background" d="M37 109h438v235H37z"/>
    <text transform="translate(10 451)" class="highcharts-label" cursor="pointer">
        <tspan>&gt; Indikator-Details</tspan>
    </text>
    <g class="highcharts-grid highcharts-xaxis-grid">
        <path fill="none" class="highcharts-grid-line" d="M146.5 109v235m0-235v235m109-235v235m0-235v235m110-235v235m0-235v235m109-235v235m0-235v235m-438-235v235m0-235v235"/>
    </g>
    <g class="highcharts-grid highcharts-yaxis-grid">
        <path fill="none" stroke="#e6e6e6" class="highcharts-grid-line" d="M37 344.5h438m-438-59h438m-438-58h438m-438-59h438m-438-60h438"/>
    </g>
    <path fill="none" class="highcharts-plot-border" d="M37 109h438v235H37z"/>
    <g class="highcharts-axis highcharts-xaxis">
        <path fill="none" class="highcharts-axis-line" stroke="#ccd6eb" d="M37 344.5h438"/>
    </g>
    <g class="highcharts-axis highcharts-yaxis">
        <path fill="none" class="highcharts-axis-line" d="M37 109v235"/>
    </g>
    <g class="highcharts-axis highcharts-yaxis">
        <path fill="none" class="highcharts-axis-line" d="M475 109v235"/>
    </g>
    <g class="highcharts-series-group">
        <g class="highcharts-series highcharts-series-0 highcharts-column-series highcharts-color-undefined highcharts-tracker" transform="translate(37 109)" clip-path="url(#a)">
            <path fill="#B375AB" class="highcharts-point" d="M24 218h14v18H24zm109-5h14v23h-14zm110-36h14v59h-14zm109 36h14v23h-14z"/>
        </g>
        <g class="highcharts-series highcharts-series-1 highcharts-column-series highcharts-color-undefined highcharts-tracker" transform="translate(37 109)" clip-path="url(#a)">
            <path fill="#923F8D" class="highcharts-point" d="M40 130h14v106H40zm109-47h14v153h-14zm110-41h14v194h-14zm109 141h14v53h-14z"/>
        </g>
        <g class="highcharts-series highcharts-series-2 highcharts-column-series highcharts-color-undefined highcharts-tracker" transform="translate(37 109)" clip-path="url(#a)">
            <path fill="#FF8028" class="highcharts-point" d="M56 154h14v82H56zm110 29h14v53h-14zm109-47h14v100h-14zm110 24h14v76h-14z"/>
        </g>
        <g class="highcharts-series highcharts-series-3 highcharts-column-series highcharts-color-undefined highcharts-tracker" transform="translate(37 109)" clip-path="url(#a)">
            <path fill="#DC440E" class="highcharts-point" d="M73 183h14v53H73zM182 48h14v188h-14zm110 18h14v170h-14zm109 111h14v59h-14z"/>
        </g>
    </g>
    <text x="10" class="highcharts-title" y="20" color="#000" font-size="1.1em" font-weight="700">
        <tspan>Beanstandungen bei Inspektionen</tspan>
    </text>
    <text x="10" class="highcharts-subtitle" y="38" color="#000" font-size=".9em">
        <tspan>Anzahl Fälle</tspan>
    </text>
    <g class="highcharts-legend" transform="translate(10 40)">
        <rect fill="none" class="highcharts-legend-box" rx="0" ry="0" width="370" height="57"/>
        <g class="highcharts-legend-item highcharts-column-series highcharts-color-undefined highcharts-series-0">
            <text x="21" y="15" color="#333" font-size="1em" font-weight="400" cursor="pointer" fill="#333" transform="translate(12 7)">
                <tspan>BL: Anzahl Inspektionen</tspan>
            </text>
            <path fill="#B375AB" class="highcharts-point" d="M14 11h12v12H14z"/>
        </g>
        <g class="highcharts-legend-item highcharts-column-series highcharts-color-undefined highcharts-series-1">
            <text x="21" y="15" color="#333" font-size="1em" font-weight="400" cursor="pointer" fill="#333" transform="translate(182.344 7)">
                <tspan>BL: Anzahl Beanstandungen</tspan>
            </text>
            <path fill="#923F8D" class="highcharts-point" d="M184.344 11h12v12h-12z"/>
        </g>
        <g class="highcharts-legend-item highcharts-column-series highcharts-color-undefined highcharts-series-2">
            <text x="21" y="15" color="#333" font-size="1em" font-weight="400" cursor="pointer" fill="#333" transform="translate(12 26)">
                <tspan>BS: Anzahl Inspektionen</tspan>
            </text>
            <path fill="#FF8028" class="highcharts-point" d="M14 30h12v12H14z"/>
        </g>
        <g class="highcharts-legend-item highcharts-column-series highcharts-color-undefined highcharts-series-3">
            <text x="21" y="15" color="#333" font-size="1em" font-weight="400" cursor="pointer" fill="#333" transform="translate(183.672 26)">
                <tspan>BS: Anzahl Beanstandungen</tspan>
            </text>
            <path fill="#DC440E" class="highcharts-point" d="M185.672 30h12v12h-12z"/>
        </g>
    </g>
    <g class="highcharts-axis-labels highcharts-xaxis-labels" text-anchor="middle" color="#000" cursor="default" font-size=".9em">
        <text x="91.75" y="363">
            <tspan>2013</tspan>
        </text>
        <text x="201.25" y="363">
            <tspan>2014</tspan>
        </text>
        <text x="310.75" y="363">
            <tspan>2015</tspan>
        </text>
        <text x="420.25" y="363">
            <tspan>2016</tspan>
        </text>
    </g>
    <g class="highcharts-axis-labels highcharts-yaxis-labels" text-anchor="end" color="#000" cursor="default" font-size=".9em">
        <text x="22" y="349">
            <tspan>0</tspan>
        </text>
        <text x="22" y="290">
            <tspan>10</tspan>
        </text>
        <text x="22" y="231">
            <tspan>20</tspan>
        </text>
        <text x="22" y="172">
            <tspan>30</tspan>
        </text>
        <text x="22" y="114">
            <tspan>40</tspan>
        </text>
    </g>
    <text x="10" class="highcharts-credits" y="400" cursor="default" color="#000" font-size=".8em">
        <tspan>Quelle: Kantonales Laboratorium Basel-Stadt; Sicherheitsinspektorat Basel-Landschaft</tspan>
    </text>
</svg>
