<?xml version="1.0" standalone="no"?>
<!DOCTYPE svg PUBLIC "-//W3C//DTD SVG 1.1//EN" "http://www.w3.org/Graphics/SVG/1.1/DTD/svg11.dtd">
<svg xmlns:xlink="http://www.w3.org/1999/xlink" version="1.1" class="highcharts-root" style="font-family:Arial;font-size:9pt;" xmlns="http://www.w3.org/2000/svg" viewBox="0 0 485 415">
  <desc>
    Created with Highstock 6.0.4
  </desc>
  <defs>
    <clipPath>
      <rect x="0" y="0" width="444" height="192" fill="none"/>
    </clipPath>
    <clipPath id="a">
      <rect x="0" y="0" width="444" height="192" fill="none"/>
    </clipPath>
  </defs>
  <rect fill="#fbfbfb" class="highcharts-background" x="0" y="0" width="485" height="415" rx="0" ry="0"/>
  <rect fill="none" class="highcharts-plot-background" x="31" y="152" width="444" height="192"/>
  <g class="highcharts-label" style="cursor:pointer;" transform="translate(10,451)">
    <text x="0" y="0">
      <tspan>&gt; Indikator-Details</tspan>
    </text>
  </g>
  <g class="highcharts-pane-group"/>
  <g class="highcharts-grid highcharts-xaxis-grid ">
    <path fill="none" class="highcharts-grid-line" d="M 39.5 152 L 39.5 344" opacity="1"/>
    <path fill="none" class="highcharts-grid-line" d="M 73.5 152 L 73.5 344" opacity="1"/>
    <path fill="none" class="highcharts-grid-line" d="M 107.5 152 L 107.5 344" opacity="1"/>
    <path fill="none" class="highcharts-grid-line" d="M 141.5 152 L 141.5 344" opacity="1"/>
    <path fill="none" class="highcharts-grid-line" d="M 175.5 152 L 175.5 344" opacity="1"/>
    <path fill="none" class="highcharts-grid-line" d="M 209.5 152 L 209.5 344" opacity="1"/>
    <path fill="none" class="highcharts-grid-line" d="M 243.5 152 L 243.5 344" opacity="1"/>
    <path fill="none" class="highcharts-grid-line" d="M 278.5 152 L 278.5 344" opacity="1"/>
    <path fill="none" class="highcharts-grid-line" d="M 312.5 152 L 312.5 344" opacity="1"/>
    <path fill="none" class="highcharts-grid-line" d="M 346.5 152 L 346.5 344" opacity="1"/>
    <path fill="none" class="highcharts-grid-line" d="M 380.5 152 L 380.5 344" opacity="1"/>
    <path fill="none" class="highcharts-grid-line" d="M 414.5 152 L 414.5 344" opacity="1"/>
    <path fill="none" class="highcharts-grid-line" d="M 448.5 152 L 448.5 344" opacity="1"/>
  </g>
  <g class="highcharts-grid highcharts-yaxis-grid ">
    <path fill="none" stroke="#e6e6e6" stroke-width="1" class="highcharts-grid-line" d="M 31 344.5 L 475 344.5" opacity="1"/>
    <path fill="none" stroke="#e6e6e6" stroke-width="1" class="highcharts-grid-line" d="M 31 296.5 L 475 296.5" opacity="1"/>
    <path fill="none" stroke="#e6e6e6" stroke-width="1" class="highcharts-grid-line" d="M 31 248.5 L 475 248.5" opacity="1"/>
    <path fill="none" stroke="#e6e6e6" stroke-width="1" class="highcharts-grid-line" d="M 31 200.5 L 475 200.5" opacity="1"/>
    <path fill="none" stroke="#e6e6e6" stroke-width="1" class="highcharts-grid-line" d="M 31 151.5 L 475 151.5" opacity="1"/>
  </g>
  <g class="highcharts-grid highcharts-yaxis-grid "/>
  <rect fill="none" class="highcharts-plot-border" x="31" y="152" width="444" height="192"/>
  <g class="highcharts-axis highcharts-xaxis ">
    <path fill="none" class="highcharts-axis-line" stroke="#ccd6eb" stroke-width="1" d="M 31 344.5 L 475 344.5"/>
  </g>
  <g class="highcharts-axis highcharts-yaxis ">
    <path fill="none" class="highcharts-axis-line" d="M 31 152 L 31 344"/>
  </g>
  <g class="highcharts-axis highcharts-yaxis ">
    <path fill="none" class="highcharts-axis-line" d="M 475 152 L 475 344"/>
  </g>
  <g class="highcharts-series-group">
    <g class="highcharts-series highcharts-series-0 highcharts-line-series " transform="translate(31,152) scale(1 1)" clip-path="url(#a)">
      <path fill="none" d="M 8.5384615384615 127.19999999999999 L 25.615384615385 127.19999999999999 L 42.692307692308 141.6 L 59.769230769231 141.6 L 76.846153846154 141.6 L 93.923076923077 127.19999999999999 L 111 141.6 L 128.07692307692 141.6 L 145.15384615385 141.6 L 162.23076923077 141.6 L 179.30769230769 141.6 L 196.38461538462 141.6 L 213.46153846154 141.6 L 230.53846153846 141.6 L 247.61538461538 141.6 L 264.69230769231 141.6 L 281.76923076923 144 L 298.84615384615 158.4 L 315.92307692308 158.4 L 333 156 L 350.07692307692 158.4 L 367.15384615385 158.4 L 384.23076923077 156 L 401.30769230769 158.4 L 418.38461538462 156 L 435.46153846154 158.4" class="highcharts-graph" stroke="#73B97C" stroke-width="2" stroke-linejoin="round" stroke-linecap="round"/>
    </g>
    <g class="highcharts-markers highcharts-series-0 highcharts-line-series " transform="translate(31,152) scale(1 1)" clip-path="none"/>
    <g class="highcharts-series highcharts-series-1 highcharts-line-series " transform="translate(31,152) scale(1 1)" clip-path="url(#a)">
      <path fill="none" d="M 8.5384615384615 62.39999999999998 L 25.615384615385 62.39999999999998 L 42.692307692308 76.80000000000001 L 59.769230769231 84 L 76.846153846154 76.80000000000001 L 93.923076923077 64.80000000000001 L 111 76.80000000000001 L 128.07692307692 98.4 L 145.15384615385 98.4 L 162.23076923077 98.4 L 179.30769230769 110.4 L 196.38461538462 100.80000000000001 L 213.46153846154 93.60000000000001 L 230.53846153846 100.80000000000001 L 247.61538461538 100.80000000000001 L 264.69230769231 100.80000000000001 L 281.76923076923 122.4 L 298.84615384615 117.6 L 315.92307692308 117.6 L 333 115.19999999999999 L 350.07692307692 122.4 L 367.15384615385 127.19999999999999 L 384.23076923077 127.19999999999999 L 401.30769230769 134.4 L 418.38461538462 120 L 435.46153846154 139.2" class="highcharts-graph" stroke="#68AB2B" stroke-width="2" stroke-linejoin="round" stroke-linecap="round"/>
    </g>
    <g class="highcharts-markers highcharts-series-1 highcharts-line-series " transform="translate(31,152) scale(1 1)" clip-path="none"/>
    <g class="highcharts-series highcharts-series-2 highcharts-line-series " transform="translate(31,152) scale(1 1)" clip-path="url(#a)">
      <path fill="none" d="M 8.5384615384615 50.39999999999998 L 25.615384615385 64.80000000000001 L 42.692307692308 64.80000000000001 L 59.769230769231 62.39999999999998 L 76.846153846154 86.39999999999999 L 93.923076923077 64.80000000000001 L 111 69.60000000000001 L 128.07692307692 91.19999999999999 L 145.15384615385 93.60000000000001 L 162.23076923077 93.60000000000001 L 179.30769230769 91.19999999999999 L 196.38461538462 91.19999999999999 L 213.46153846154 91.19999999999999 L 230.53846153846 105.6 L 247.61538461538 91.19999999999999 L 264.69230769231 76.80000000000001 L 281.76923076923 100.80000000000001 L 298.84615384615 100.80000000000001 L 315.92307692308 100.80000000000001 L 333 98.4 L 350.07692307692 100.80000000000001 L 367.15384615385 115.19999999999999 L 384.23076923077 115.19999999999999 L 401.30769230769 115.19999999999999 L 418.38461538462 112.80000000000001 L 435.46153846154 115.19999999999999" class="highcharts-graph" stroke="#007A2F" stroke-width="2" stroke-linejoin="round" stroke-linecap="round"/>
    </g>
    <g class="highcharts-markers highcharts-series-2 highcharts-line-series " transform="translate(31,152) scale(1 1)" clip-path="none"/>
    <g class="highcharts-series highcharts-series-3 highcharts-line-series " transform="translate(31,152) scale(1 1)" clip-path="url(#a)">
      <path fill="none" d="M 8.5384615384615 57.60000000000002 L 25.615384615385 57.60000000000002 L 42.692307692308 57.60000000000002 L 59.769230769231 69.60000000000001 L 76.846153846154 69.60000000000001 L 93.923076923077 79.19999999999999 L 111 64.80000000000001 L 128.07692307692 72 L 145.15384615385 64.80000000000001 L 162.23076923077 74.39999999999999 L 179.30769230769 79.19999999999999 L 196.38461538462 79.19999999999999 L 213.46153846154 57.60000000000002 L 230.53846153846 69.60000000000001 L 247.61538461538 69.60000000000001 L 264.69230769231 62.39999999999998 L 281.76923076923 79.19999999999999 L 298.84615384615 84 L 315.92307692308 79.19999999999999 L 333 79.19999999999999 L 350.07692307692 79.19999999999999 L 367.15384615385 86.39999999999999 L 384.23076923077 84 L 401.30769230769 96 L 418.38461538462 91.19999999999999 L 435.46153846154 100.80000000000001" class="highcharts-graph" stroke="#0A3B19" stroke-width="2" stroke-linejoin="round" stroke-linecap="round"/>
    </g>
    <g class="highcharts-markers highcharts-series-3 highcharts-line-series " transform="translate(31,152) scale(1 1)" clip-path="none"/>
  </g>
  <text x="10" text-anchor="start" class="highcharts-title" style="color:#000000;font-size:1.1em;font-weight:bold;fill:#000000;" y="20">
    <tspan>Langzeitbelastungsindex</tspan>
  </text>
  <text x="10" text-anchor="start" class="highcharts-subtitle" style="color:#000000;font-size:0.9em;fill:#000000;" y="38">
    <tspan>Indexwert</tspan>
  </text>
  <g class="highcharts-legend" transform="translate(10,83)">
    <rect fill="none" class="highcharts-legend-box" rx="0" ry="0" x="0" y="0" width="372" height="57" visibility="visible"/>
    <g>
      <g>
        <g class="highcharts-legend-item highcharts-line-series highcharts-color-undefined highcharts-series-0" transform="translate(12,7)">
          <path fill="none" d="M 0 11 L 16 11" class="highcharts-graph" stroke="#73B97C" stroke-width="2"/>
          <text x="21" style="color:#333333;font-size:1em;font-weight:normal;cursor:pointer;fill:#333333;" text-anchor="start" y="15">
            <tspan>Höhenlagen im Jura</tspan>
          </text>
        </g>
        <g class="highcharts-legend-item highcharts-line-series highcharts-color-undefined highcharts-series-1" transform="translate(160.3125,7)">
          <path fill="none" d="M 0 11 L 16 11" class="highcharts-graph" stroke="#68AB2B" stroke-width="2"/>
          <text x="21" y="15" style="color:#333333;font-size:1em;font-weight:normal;cursor:pointer;fill:#333333;" text-anchor="start">
            <tspan>Agglomeration</tspan>
          </text>
        </g>
        <g class="highcharts-legend-item highcharts-line-series highcharts-color-undefined highcharts-series-2" transform="translate(278.625,7)">
          <path fill="none" d="M 0 11 L 16 11" class="highcharts-graph" stroke="#007A2F" stroke-width="2"/>
          <text x="21" y="15" style="color:#333333;font-size:1em;font-weight:normal;cursor:pointer;fill:#333333;" text-anchor="start">
            <tspan>Stadt Basel</tspan>
          </text>
        </g>
        <g class="highcharts-legend-item highcharts-line-series highcharts-color-undefined highcharts-series-3" transform="translate(12,26)">
          <path fill="none" d="M 0 11 L 16 11" class="highcharts-graph" stroke="#0A3B19" stroke-width="2"/>
          <text x="21" y="15" style="color:#333333;font-size:1em;font-weight:normal;cursor:pointer;fill:#333333;" text-anchor="start">
            <tspan>Stark verkehrsexponiert</tspan>
          </text>
        </g>
      </g>
    </g>
  </g>
  <g class="highcharts-axis-labels highcharts-xaxis-labels ">
    <text x="39.53846153846154" style="color:#000000;cursor:default;font-size:0.9em;fill:#000000;" text-anchor="middle" transform="translate(0,0)" y="363" opacity="1">
      1991
    </text>
    <text x="73.6923076923077" style="color:#000000;cursor:default;font-size:0.9em;fill:#000000;" text-anchor="middle" transform="translate(0,0)" y="363" opacity="1">
      1993
    </text>
    <text x="107.84615384615384" style="color:#000000;cursor:default;font-size:0.9em;fill:#000000;" text-anchor="middle" transform="translate(0,0)" y="363" opacity="1">
      1995
    </text>
    <text x="142" style="color:#000000;cursor:default;font-size:0.9em;fill:#000000;" text-anchor="middle" transform="translate(0,0)" y="363" opacity="1">
      1997
    </text>
    <text x="176.15384615384616" style="color:#000000;cursor:default;font-size:0.9em;fill:#000000;" text-anchor="middle" transform="translate(0,0)" y="363" opacity="1">
      1999
    </text>
    <text x="210.30769230769232" style="color:#000000;cursor:default;font-size:0.9em;fill:#000000;" text-anchor="middle" transform="translate(0,0)" y="363" opacity="1">
      2001
    </text>
    <text x="244.46153846153845" style="color:#000000;cursor:default;font-size:0.9em;fill:#000000;" text-anchor="middle" transform="translate(0,0)" y="363" opacity="1">
      2003
    </text>
    <text x="278.61538461538464" style="color:#000000;cursor:default;font-size:0.9em;fill:#000000;" text-anchor="middle" transform="translate(0,0)" y="363" opacity="1">
      2005
    </text>
    <text x="312.7692307692308" style="color:#000000;cursor:default;font-size:0.9em;fill:#000000;" text-anchor="middle" transform="translate(0,0)" y="363" opacity="1">
      2007
    </text>
    <text x="346.9230769230769" style="color:#000000;cursor:default;font-size:0.9em;fill:#000000;" text-anchor="middle" transform="translate(0,0)" y="363" opacity="1">
      2009
    </text>
    <text x="381.0769230769231" style="color:#000000;cursor:default;font-size:0.9em;fill:#000000;" text-anchor="middle" transform="translate(0,0)" y="363" opacity="1">
      2011
    </text>
    <text x="415.2307692307692" style="color:#000000;cursor:default;font-size:0.9em;fill:#000000;" text-anchor="middle" transform="translate(0,0)" y="363" opacity="1">
      2013
    </text>
    <text x="449.38461538461536" style="color:#000000;cursor:default;font-size:0.9em;fill:#000000;" text-anchor="middle" transform="translate(0,0)" y="363" opacity="1">
      2015
    </text>
  </g>
  <g class="highcharts-axis-labels highcharts-yaxis-labels ">
    <text x="16" style="color:#000000;cursor:default;font-size:0.9em;fill:#000000;" text-anchor="end" transform="translate(0,0)" y="349" opacity="1">
      <tspan>0</tspan>
    </text>
    <text x="16" style="color:#000000;cursor:default;font-size:0.9em;fill:#000000;" text-anchor="end" transform="translate(0,0)" y="301" opacity="1">
      <tspan>2</tspan>
    </text>
    <text x="16" style="color:#000000;cursor:default;font-size:0.9em;fill:#000000;" text-anchor="end" transform="translate(0,0)" y="253" opacity="1">
      <tspan>4</tspan>
    </text>
    <text x="16" style="color:#000000;cursor:default;font-size:0.9em;fill:#000000;" text-anchor="end" transform="translate(0,0)" y="205" opacity="1">
      <tspan>6</tspan>
    </text>
    <text x="16" style="color:#000000;cursor:default;font-size:0.9em;fill:#000000;" text-anchor="end" transform="translate(0,0)" y="157" opacity="1">
      <tspan>8</tspan>
    </text>
  </g>
  <g class="highcharts-axis-labels highcharts-yaxis-labels "/>
  <text x="10" class="highcharts-credits" text-anchor="start" style="cursor:default;color:#000000;font-size:0.8em;fill:#000000;" y="400">
    <tspan>Quelle: Lufthygieneamt beider Basel</tspan>
  </text>
</svg>
