<?xml version="1.0" standalone="no"?>
<!DOCTYPE svg PUBLIC "-//W3C//DTD SVG 1.1//EN" "http://www.w3.org/Graphics/SVG/1.1/DTD/svg11.dtd">
<svg xmlns:xlink="http://www.w3.org/1999/xlink" version="1.1" class="highcharts-root" style="font-family:arial;font-size:12px;" xmlns="http://www.w3.org/2000/svg" viewBox="0 0 485 415">
  <desc>
    Created with Highstock 5.0.14
  </desc>
  <defs>
    <clipPath>
      <rect x="0" y="0" width="399" height="250" fill="none"/>
    </clipPath>
    <clipPath id="a">
      <rect x="0" y="0" width="399" height="250" fill="none"/>
    </clipPath>
    <clipPath id="b">
      <rect x="0" y="0" width="399" height="250" fill="none"/>
    </clipPath>
  </defs>
  <rect fill="#fbfbfb" class="highcharts-background" x="0" y="0" width="485" height="415" rx="0" ry="0"/>
  <rect fill="none" class="highcharts-plot-background" x="49" y="100" width="399" height="250"/>
  <g class="highcharts-pane-group"/>
  <g class="highcharts-grid highcharts-xaxis-grid ">
    <path fill="none" class="highcharts-grid-line" d="M 88.5 100 L 88.5 350" opacity="1"/>
    <path fill="none" class="highcharts-grid-line" d="M 128.5 100 L 128.5 350" opacity="1"/>
    <path fill="none" class="highcharts-grid-line" d="M 168.5 100 L 168.5 350" opacity="1"/>
    <path fill="none" class="highcharts-grid-line" d="M 208.5 100 L 208.5 350" opacity="1"/>
    <path fill="none" class="highcharts-grid-line" d="M 247.5 100 L 247.5 350" opacity="1"/>
    <path fill="none" class="highcharts-grid-line" d="M 287.5 100 L 287.5 350" opacity="1"/>
    <path fill="none" class="highcharts-grid-line" d="M 327.5 100 L 327.5 350" opacity="1"/>
    <path fill="none" class="highcharts-grid-line" d="M 367.5 100 L 367.5 350" opacity="1"/>
    <path fill="none" class="highcharts-grid-line" d="M 407.5 100 L 407.5 350" opacity="1"/>
    <path fill="none" class="highcharts-grid-line" d="M 447.5 100 L 447.5 350" opacity="1"/>
    <path fill="none" class="highcharts-grid-line" d="M 48.5 100 L 48.5 350" opacity="1"/>
  </g>
  <g class="highcharts-grid highcharts-yaxis-grid ">
    <path fill="none" stroke="#e6e6e6" stroke-width="1" class="highcharts-grid-line" d="M 49 350.5 L 448 350.5" opacity="1"/>
    <path fill="none" stroke="#e6e6e6" stroke-width="1" class="highcharts-grid-line" d="M 49 288.5 L 448 288.5" opacity="1"/>
    <path fill="none" stroke="#e6e6e6" stroke-width="1" class="highcharts-grid-line" d="M 49 225.5 L 448 225.5" opacity="1"/>
    <path fill="none" stroke="#e6e6e6" stroke-width="1" class="highcharts-grid-line" d="M 49 163.5 L 448 163.5" opacity="1"/>
    <path fill="none" stroke="#e6e6e6" stroke-width="1" class="highcharts-grid-line" d="M 49 99.5 L 448 99.5" opacity="1"/>
  </g>
  <g class="highcharts-grid highcharts-yaxis-grid ">
    <path fill="none" stroke="#e6e6e6" stroke-width="1" class="highcharts-grid-line" d="M 49 350.5 L 448 350.5" opacity="1"/>
    <path fill="none" stroke="#e6e6e6" stroke-width="1" class="highcharts-grid-line" d="M 49 288.5 L 448 288.5" opacity="1"/>
    <path fill="none" stroke="#e6e6e6" stroke-width="1" class="highcharts-grid-line" d="M 49 225.5 L 448 225.5" opacity="1"/>
    <path fill="none" stroke="#e6e6e6" stroke-width="1" class="highcharts-grid-line" d="M 49 163.5 L 448 163.5" opacity="1"/>
    <path fill="none" stroke="#e6e6e6" stroke-width="1" class="highcharts-grid-line" d="M 49 99.5 L 448 99.5" opacity="1"/>
  </g>
  <rect fill="none" class="highcharts-plot-border" x="49" y="100" width="399" height="250"/>
  <g class="highcharts-axis highcharts-xaxis ">
    <path fill="none" class="highcharts-tick" stroke="#FFFFFF" stroke-width="1" d="M 88.5 350 L 88.5 360" opacity="1"/>
    <path fill="none" class="highcharts-tick" stroke="#FFFFFF" stroke-width="1" d="M 128.5 350 L 128.5 360" opacity="1"/>
    <path fill="none" class="highcharts-tick" stroke="#FFFFFF" stroke-width="1" d="M 168.5 350 L 168.5 360" opacity="1"/>
    <path fill="none" class="highcharts-tick" stroke="#FFFFFF" stroke-width="1" d="M 208.5 350 L 208.5 360" opacity="1"/>
    <path fill="none" class="highcharts-tick" stroke="#FFFFFF" stroke-width="1" d="M 247.5 350 L 247.5 360" opacity="1"/>
    <path fill="none" class="highcharts-tick" stroke="#FFFFFF" stroke-width="1" d="M 287.5 350 L 287.5 360" opacity="1"/>
    <path fill="none" class="highcharts-tick" stroke="#FFFFFF" stroke-width="1" d="M 327.5 350 L 327.5 360" opacity="1"/>
    <path fill="none" class="highcharts-tick" stroke="#FFFFFF" stroke-width="1" d="M 367.5 350 L 367.5 360" opacity="1"/>
    <path fill="none" class="highcharts-tick" stroke="#FFFFFF" stroke-width="1" d="M 407.5 350 L 407.5 360" opacity="1"/>
    <path fill="none" class="highcharts-tick" stroke="#FFFFFF" stroke-width="1" d="M 448.5 350 L 448.5 360" opacity="1"/>
    <path fill="none" class="highcharts-tick" stroke="#FFFFFF" stroke-width="1" d="M 48.5 350 L 48.5 360" opacity="1"/>
    <path fill="none" class="highcharts-axis-line" stroke="#ccd6eb" stroke-width="1" d="M 49 350.5 L 448 350.5"/>
  </g>
  <g class="highcharts-axis highcharts-yaxis ">
    <path fill="none" class="highcharts-axis-line" d="M 49 100 L 49 350"/>
  </g>
  <g class="highcharts-axis highcharts-yaxis ">
    <path fill="none" class="highcharts-axis-line" d="M 448 100 L 448 350"/>
  </g>
  <g class="highcharts-series-group">
    <g class="highcharts-series highcharts-series-0 highcharts-column-series highcharts-color-undefined " transform="translate(49,100) scale(1 1)" clip-path="url(#a)">
      <rect x="9.5" y="132.5" width="20" height="26" fill="#FABD24" stroke="#ffffff" stroke-width="1" class="highcharts-point"/>
      <rect x="49.5" y="39.5" width="20" height="21" fill="#FABD24" stroke="#ffffff" stroke-width="1" class="highcharts-point"/>
      <rect x="89.5" y="63.5" width="20" height="21" fill="#FABD24" stroke="#ffffff" stroke-width="1" class="highcharts-point"/>
      <rect x="129.5" y="127.5" width="20" height="17" fill="#FABD24" stroke="#ffffff" stroke-width="1" class="highcharts-point"/>
      <rect x="169.5" y="160.5" width="20" height="16" fill="#FABD24" stroke="#ffffff" stroke-width="1" class="highcharts-point"/>
      <rect x="209.5" y="163.5" width="20" height="29" fill="#FABD24" stroke="#ffffff" stroke-width="1" class="highcharts-point"/>
      <rect x="249.5" y="160.5" width="20" height="22" fill="#FABD24" stroke="#ffffff" stroke-width="1" class="highcharts-point"/>
      <rect x="289.5" y="141.5" width="20" height="18" fill="#FABD24" stroke="#ffffff" stroke-width="1" class="highcharts-point"/>
      <rect x="329.5" y="148.5" width="20" height="24" fill="#FABD24" stroke="#ffffff" stroke-width="1" class="highcharts-point"/>
      <rect x="368.5" y="129.5" width="20" height="21" fill="#FABD24" stroke="#ffffff" stroke-width="1" class="highcharts-point"/>
    </g>
    <g class="highcharts-markers highcharts-series-0 highcharts-column-series highcharts-color-undefined " transform="translate(49,100) scale(1 1)" clip-path="none"/>
    <g class="highcharts-series highcharts-series-1 highcharts-column-series highcharts-color-undefined " transform="translate(49,100) scale(1 1)" clip-path="url(#a)">
      <rect x="9.5" y="158.5" width="20" height="92" fill="#008AC3" stroke="#ffffff" stroke-width="1" class="highcharts-point"/>
      <rect x="49.5" y="60.5" width="20" height="190" fill="#008AC3" stroke="#ffffff" stroke-width="1" class="highcharts-point"/>
      <rect x="89.5" y="84.5" width="20" height="166" fill="#008AC3" stroke="#ffffff" stroke-width="1" class="highcharts-point"/>
      <rect x="129.5" y="144.5" width="20" height="106" fill="#008AC3" stroke="#ffffff" stroke-width="1" class="highcharts-point"/>
      <rect x="169.5" y="176.5" width="20" height="74" fill="#008AC3" stroke="#ffffff" stroke-width="1" class="highcharts-point"/>
      <rect x="209.5" y="192.5" width="20" height="58" fill="#008AC3" stroke="#ffffff" stroke-width="1" class="highcharts-point"/>
      <rect x="249.5" y="182.5" width="20" height="68" fill="#008AC3" stroke="#ffffff" stroke-width="1" class="highcharts-point"/>
      <rect x="289.5" y="159.5" width="20" height="91" fill="#008AC3" stroke="#ffffff" stroke-width="1" class="highcharts-point"/>
      <rect x="329.5" y="172.5" width="20" height="78" fill="#008AC3" stroke="#ffffff" stroke-width="1" class="highcharts-point"/>
      <rect x="368.5" y="150.5" width="20" height="100" fill="#008AC3" stroke="#ffffff" stroke-width="1" class="highcharts-point"/>
    </g>
    <g class="highcharts-markers highcharts-series-1 highcharts-column-series highcharts-color-undefined " transform="translate(49,100) scale(1 1)" clip-path="none"/>
    <g class="highcharts-series highcharts-series-2 highcharts-line-series highcharts-color-undefined " transform="translate(49,100) scale(1 1)" clip-path="url(#b)">
      <path fill="none" d="M 19.95 128.51804875 L 59.85 34.50479775000002 L 99.75 62.851813625000005 L 139.65 130.52677662500002 L 179.55 162.78648681250002 L 219.45 168.5778921875 L 259.35 167.2096998125 L 299.25 153.2227025 L 339.15 160.8557845 L 379.05 145.09534824999997" class="highcharts-graph" stroke="#9F7C5A" stroke-width="2" stroke-linejoin="round" stroke-linecap="round"/>
    </g>
    <g class="highcharts-markers highcharts-series-2 highcharts-line-series highcharts-color-undefined " transform="translate(49,100) scale(1 1)" clip-path="none">
      <path fill="#9F7C5A" d="M 23 129 A 4 4 0 1 1 22.99999800000017 128.99600000066667 Z" class="highcharts-point"/>
      <path fill="#9F7C5A" d="M 63 35 A 4 4 0 1 1 62.99999800000017 34.99600000066666 Z" class="highcharts-point"/>
      <path fill="#9F7C5A" d="M 103 63 A 4 4 0 1 1 102.99999800000016 62.99600000066666 Z" class="highcharts-point"/>
      <path fill="#9F7C5A" d="M 143 131 A 4 4 0 1 1 142.99999800000018 130.99600000066667 Z" class="highcharts-point"/>
      <path fill="#9F7C5A" d="M 183 163 A 4 4 0 1 1 182.99999800000018 162.99600000066667 Z" class="highcharts-point"/>
      <path fill="#9F7C5A" d="M 223 169 A 4 4 0 1 1 222.99999800000018 168.99600000066667 Z" class="highcharts-point"/>
      <path fill="#9F7C5A" d="M 263 167 A 4 4 0 1 1 262.9999980000002 166.99600000066667 Z" class="highcharts-point"/>
      <path fill="#9F7C5A" d="M 303 153 A 4 4 0 1 1 302.9999980000002 152.99600000066667 Z" class="highcharts-point"/>
      <path fill="#9F7C5A" d="M 343 161 A 4 4 0 1 1 342.9999980000002 160.99600000066667 Z" class="highcharts-point"/>
      <path fill="#9F7C5A" d="M 383 145 A 4 4 0 1 1 382.9999980000002 144.99600000066667 Z" class="highcharts-point"/>
    </g>
  </g>
  <text x="10" text-anchor="start" class="highcharts-title" style="color:#000000;font-size:14px;font-weight:bold;fill:#000000;" y="21">
    <tspan>Anzahl eingebürgerte Ausländer und Einbürgerungsziffer</tspan>
  </text>
  <g class="highcharts-legend" transform="translate(53,45)">
    <rect fill="none" class="highcharts-legend-box" rx="0" ry="0" x="0" y="0" width="343" height="49" visibility="visible"/>
    <g>
      <g>
        <g class="highcharts-legend-item highcharts-column-series highcharts-color-undefined highcharts-series-1" transform="translate(8,3)">
          <text x="21" style="color:#333333;font-size:12px;font-weight:normal;cursor:pointer;fill:#333333;" text-anchor="start" y="15">
            <tspan>Ordentlich Eingebürgerte</tspan>
          </text>
          <rect x="2" y="4" width="12" height="12" fill="#008AC3" class="highcharts-point"/>
        </g>
        <g class="highcharts-legend-item highcharts-column-series highcharts-color-undefined highcharts-series-0" transform="translate(182.296875,3)">
          <text x="21" y="15" style="color:#333333;font-size:12px;font-weight:normal;cursor:pointer;fill:#333333;" text-anchor="start">
            <tspan>Erleichtert Eingebürgerte</tspan>
          </text>
          <rect x="2" y="4" width="12" height="12" fill="#FABD24" class="highcharts-point"/>
        </g>
        <g class="highcharts-legend-item highcharts-line-series highcharts-color-undefined highcharts-series-2" transform="translate(8,22)">
          <path fill="none" d="M 0 11 L 16 11" class="highcharts-graph" stroke="#9F7C5A" stroke-width="2"/>
          <path fill="#9F7C5A" d="M 12 11 A 4 4 0 1 1 11.999998000000167 10.996000000666664 Z" class="highcharts-point"/>
          <text x="21" y="15" style="color:#333333;font-size:12px;font-weight:normal;cursor:pointer;fill:#333333;" text-anchor="start">
            <tspan>Einbürgerungsziffer</tspan>
          </text>
        </g>
      </g>
    </g>
  </g>
  <g class="highcharts-axis-labels highcharts-xaxis-labels ">
    <text x="68.95" style="color:#000000;cursor:default;font-size:11px;fill:#000000;" text-anchor="middle" transform="translate(0,0)" y="369" opacity="1">
      2006
    </text>
    <text x="108.85000000000001" style="color:#000000;cursor:default;font-size:11px;fill:#000000;" text-anchor="middle" transform="translate(0,0)" y="369" opacity="1">
      2007
    </text>
    <text x="148.75" style="color:#000000;cursor:default;font-size:11px;fill:#000000;" text-anchor="middle" transform="translate(0,0)" y="369" opacity="1">
      2008
    </text>
    <text x="188.65" style="color:#000000;cursor:default;font-size:11px;fill:#000000;" text-anchor="middle" transform="translate(0,0)" y="369" opacity="1">
      2009
    </text>
    <text x="228.54999999999998" style="color:#000000;cursor:default;font-size:11px;fill:#000000;" text-anchor="middle" transform="translate(0,0)" y="369" opacity="1">
      2010
    </text>
    <text x="268.45" style="color:#000000;cursor:default;font-size:11px;fill:#000000;" text-anchor="middle" transform="translate(0,0)" y="369" opacity="1">
      2011
    </text>
    <text x="308.34999999999997" style="color:#000000;cursor:default;font-size:11px;fill:#000000;" text-anchor="middle" transform="translate(0,0)" y="369" opacity="1">
      2012
    </text>
    <text x="348.25" style="color:#000000;cursor:default;font-size:11px;fill:#000000;" text-anchor="middle" transform="translate(0,0)" y="369" opacity="1">
      2013
    </text>
    <text x="388.15" style="color:#000000;cursor:default;font-size:11px;fill:#000000;" text-anchor="middle" transform="translate(0,0)" y="369" opacity="1">
      2014
    </text>
    <text x="428.05" style="color:#000000;cursor:default;font-size:11px;fill:#000000;" text-anchor="middle" transform="translate(0,0)" y="369" opacity="1">
      2015
    </text>
  </g>
  <g class="highcharts-axis-labels highcharts-yaxis-labels ">
    <text x="34" style="color:#000000;cursor:default;font-size:11px;fill:#000000;" text-anchor="end" transform="translate(0,0)" y="355" opacity="1">
      <tspan>0</tspan>
    </text>
    <text x="34" style="color:#000000;cursor:default;font-size:11px;fill:#000000;" text-anchor="end" transform="translate(0,0)" y="292" opacity="1">
      <tspan>600</tspan>
    </text>
    <text x="34" style="color:#000000;cursor:default;font-size:11px;fill:#000000;" text-anchor="end" transform="translate(0,0)" y="230" opacity="1">
      <tspan>1200</tspan>
    </text>
    <text x="34" style="color:#000000;cursor:default;font-size:11px;fill:#000000;" text-anchor="end" transform="translate(0,0)" y="167" opacity="1">
      <tspan>1800</tspan>
    </text>
    <text x="34" style="color:#000000;cursor:default;font-size:11px;fill:#000000;" text-anchor="end" transform="translate(0,0)" y="105" opacity="1">
      <tspan>2400</tspan>
    </text>
  </g>
  <g class="highcharts-axis-labels highcharts-yaxis-labels ">
    <text x="463" style="color:#000000;cursor:default;font-size:11px;fill:#000000;" text-anchor="start" transform="translate(0,0)" y="355" opacity="1">
      <tspan>0</tspan>
    </text>
    <text x="463" style="color:#000000;cursor:default;font-size:11px;fill:#000000;" text-anchor="start" transform="translate(0,0)" y="292" opacity="1">
      <tspan>10</tspan>
    </text>
    <text x="463" style="color:#000000;cursor:default;font-size:11px;fill:#000000;" text-anchor="start" transform="translate(0,0)" y="230" opacity="1">
      <tspan>20</tspan>
    </text>
    <text x="463" style="color:#000000;cursor:default;font-size:11px;fill:#000000;" text-anchor="start" transform="translate(0,0)" y="167" opacity="1">
      <tspan>30</tspan>
    </text>
    <text x="463" style="color:#000000;cursor:default;font-size:11px;fill:#000000;" text-anchor="start" transform="translate(0,0)" y="105" opacity="1">
      <tspan>40</tspan>
    </text>
  </g>
  <text x="10" class="highcharts-credits" text-anchor="start" style="cursor:default;color:#000000;font-size:10px;fill:#000000;" y="400">
    <tspan>Quelle: Statistisches Amt Basel-Stadt, kantonale Bevölkerungsstatistik</tspan>
  </text>
</svg>
