<?xml version="1.0" standalone="no"?><!DOCTYPE svg PUBLIC "-//W3C//DTD SVG 1.1//EN" "http://www.w3.org/Graphics/SVG/1.1/DTD/svg11.dtd"><svg xmlns:xlink="http://www.w3.org/1999/xlink" version="1.1" class="highcharts-root" style="font-family:Arial;font-size:12px;" xmlns="http://www.w3.org/2000/svg" viewBox="0 0 485 415"><desc>Created with Highcharts 5.0.6</desc><defs><clipPath id="highcharts-hqcbgdc-1"><rect x="0" y="0" width="309" height="355" fill="none"></rect></clipPath></defs><rect fill="#fbfbfb" class="highcharts-background" x="0" y="0" width="485" height="415" rx="0" ry="0"></rect><rect fill="none" class="highcharts-plot-background" x="120" y="41" width="355" height="309"></rect><g class="highcharts-grid highcharts-xaxis-grid "><path fill="none" class="highcharts-grid-line" d="M 120 56.5 L 475 56.5" opacity="1"></path><path fill="none" class="highcharts-grid-line" d="M 120 70.5 L 475 70.5" opacity="1"></path><path fill="none" class="highcharts-grid-line" d="M 120 85.5 L 475 85.5" opacity="1"></path><path fill="none" class="highcharts-grid-line" d="M 120 100.5 L 475 100.5" opacity="1"></path><path fill="none" class="highcharts-grid-line" d="M 120 115.5 L 475 115.5" opacity="1"></path><path fill="none" class="highcharts-grid-line" d="M 120 129.5 L 475 129.5" opacity="1"></path><path fill="none" class="highcharts-grid-line" d="M 120 144.5 L 475 144.5" opacity="1"></path><path fill="none" class="highcharts-grid-line" d="M 120 159.5 L 475 159.5" opacity="1"></path><path fill="none" class="highcharts-grid-line" d="M 120 173.5 L 475 173.5" opacity="1"></path><path fill="none" class="highcharts-grid-line" d="M 120 188.5 L 475 188.5" opacity="1"></path><path fill="none" class="highcharts-grid-line" d="M 120 203.5 L 475 203.5" opacity="1"></path><path fill="none" class="highcharts-grid-line" d="M 120 218.5 L 475 218.5" opacity="1"></path><path fill="none" class="highcharts-grid-line" d="M 120 232.5 L 475 232.5" opacity="1"></path><path fill="none" class="highcharts-grid-line" d="M 120 247.5 L 475 247.5" opacity="1"></path><path fill="none" class="highcharts-grid-line" d="M 120 262.5 L 475 262.5" opacity="1"></path><path fill="none" class="highcharts-grid-line" d="M 120 276.5 L 475 276.5" opacity="1"></path><path fill="none" class="highcharts-grid-line" d="M 120 291.5 L 475 291.5" opacity="1"></path><path fill="none" class="highcharts-grid-line" d="M 120 306.5 L 475 306.5" opacity="1"></path><path fill="none" class="highcharts-grid-line" d="M 120 321.5 L 475 321.5" opacity="1"></path><path fill="none" class="highcharts-grid-line" d="M 120 335.5 L 475 335.5" opacity="1"></path><path fill="none" class="highcharts-grid-line" d="M 120 350.5 L 475 350.5" opacity="1"></path><path fill="none" class="highcharts-grid-line" d="M 120 41.5 L 475 41.5" opacity="1"></path></g><g class="highcharts-grid highcharts-yaxis-grid "><path fill="none" stroke="#e6e6e6" stroke-width="1" class="highcharts-grid-line" d="M 119.5 41 L 119.5 350" opacity="1"></path><path fill="none" stroke="#e6e6e6" stroke-width="1" class="highcharts-grid-line" d="M 178.5 41 L 178.5 350" opacity="1"></path><path fill="none" stroke="#e6e6e6" stroke-width="1" class="highcharts-grid-line" d="M 237.5 41 L 237.5 350" opacity="1"></path><path fill="none" stroke="#e6e6e6" stroke-width="1" class="highcharts-grid-line" d="M 297.5 41 L 297.5 350" opacity="1"></path><path fill="none" stroke="#e6e6e6" stroke-width="1" class="highcharts-grid-line" d="M 356.5 41 L 356.5 350" opacity="1"></path><path fill="none" stroke="#e6e6e6" stroke-width="1" class="highcharts-grid-line" d="M 415.5 41 L 415.5 350" opacity="1"></path><path fill="none" stroke="#e6e6e6" stroke-width="1" class="highcharts-grid-line" d="M 475.5 41 L 475.5 350" opacity="1"></path></g><rect fill="none" class="highcharts-plot-border" x="120" y="41" width="355" height="309"></rect><g class="highcharts-axis highcharts-xaxis "><path fill="none" class="highcharts-tick" stroke="#FFFFFF" stroke-width="1" d="M 120 56.5 L 110 56.5" opacity="1"></path><path fill="none" class="highcharts-tick" stroke="#FFFFFF" stroke-width="1" d="M 120 70.5 L 110 70.5" opacity="1"></path><path fill="none" class="highcharts-tick" stroke="#FFFFFF" stroke-width="1" d="M 120 85.5 L 110 85.5" opacity="1"></path><path fill="none" class="highcharts-tick" stroke="#FFFFFF" stroke-width="1" d="M 120 100.5 L 110 100.5" opacity="1"></path><path fill="none" class="highcharts-tick" stroke="#FFFFFF" stroke-width="1" d="M 120 115.5 L 110 115.5" opacity="1"></path><path fill="none" class="highcharts-tick" stroke="#FFFFFF" stroke-width="1" d="M 120 129.5 L 110 129.5" opacity="1"></path><path fill="none" class="highcharts-tick" stroke="#FFFFFF" stroke-width="1" d="M 120 144.5 L 110 144.5" opacity="1"></path><path fill="none" class="highcharts-tick" stroke="#FFFFFF" stroke-width="1" d="M 120 159.5 L 110 159.5" opacity="1"></path><path fill="none" class="highcharts-tick" stroke="#FFFFFF" stroke-width="1" d="M 120 173.5 L 110 173.5" opacity="1"></path><path fill="none" class="highcharts-tick" stroke="#FFFFFF" stroke-width="1" d="M 120 188.5 L 110 188.5" opacity="1"></path><path fill="none" class="highcharts-tick" stroke="#FFFFFF" stroke-width="1" d="M 120 203.5 L 110 203.5" opacity="1"></path><path fill="none" class="highcharts-tick" stroke="#FFFFFF" stroke-width="1" d="M 120 218.5 L 110 218.5" opacity="1"></path><path fill="none" class="highcharts-tick" stroke="#FFFFFF" stroke-width="1" d="M 120 232.5 L 110 232.5" opacity="1"></path><path fill="none" class="highcharts-tick" stroke="#FFFFFF" stroke-width="1" d="M 120 247.5 L 110 247.5" opacity="1"></path><path fill="none" class="highcharts-tick" stroke="#FFFFFF" stroke-width="1" d="M 120 262.5 L 110 262.5" opacity="1"></path><path fill="none" class="highcharts-tick" stroke="#FFFFFF" stroke-width="1" d="M 120 276.5 L 110 276.5" opacity="1"></path><path fill="none" class="highcharts-tick" stroke="#FFFFFF" stroke-width="1" d="M 120 291.5 L 110 291.5" opacity="1"></path><path fill="none" class="highcharts-tick" stroke="#FFFFFF" stroke-width="1" d="M 120 306.5 L 110 306.5" opacity="1"></path><path fill="none" class="highcharts-tick" stroke="#FFFFFF" stroke-width="1" d="M 120 321.5 L 110 321.5" opacity="1"></path><path fill="none" class="highcharts-tick" stroke="#FFFFFF" stroke-width="1" d="M 120 335.5 L 110 335.5" opacity="1"></path><path fill="none" class="highcharts-tick" stroke="#FFFFFF" stroke-width="1" d="M 120 350.5 L 110 350.5" opacity="1"></path><path fill="none" class="highcharts-tick" stroke="#FFFFFF" stroke-width="1" d="M 120 40.5 L 110 40.5" opacity="1"></path><path fill="none" class="highcharts-axis-line" stroke="#ccd6eb" stroke-width="1" d="M 119.5 41 L 119.5 350"></path></g><g class="highcharts-axis highcharts-yaxis "><path fill="none" class="highcharts-axis-line" d="M 120 350 L 475 350"></path></g><g class="highcharts-series-group"><g class="highcharts-series highcharts-series-0 highcharts-scatter-series highcharts-color-undefined highcharts-tracker" transform="translate(475,350) rotate(90) scale(-1,1) scale(1 1)" width="355" height="309" clip-path="url(#highcharts-hqcbgdc-1)"></g><g class="highcharts-markers highcharts-series-0 highcharts-scatter-series highcharts-color-undefined highcharts-tracker" transform="translate(475,350) rotate(90) scale(-1,1) scale(1 1)" width="355" height="309" clip-path="none"><path fill="#68AB2B" d="M 7 64 C 12.328 64 12.328 72 7 72 C 1.672 72 1.672 64 7 64 Z" class="highcharts-point"></path><path fill="#68AB2B" d="M 22 92 C 27.328 92 27.328 100 22 100 C 16.672 100 16.672 92 22 92 Z" class="highcharts-point"></path><path fill="#68AB2B" d="M 36 108 C 41.328 108 41.328 116 36 116 C 30.672 116 30.672 108 36 108 Z" class="highcharts-point"></path><path fill="#68AB2B" d="M 51 129 C 56.328 129 56.328 137 51 137 C 45.672 137 45.672 129 51 129 Z" class="highcharts-point"></path><path fill="#68AB2B" d="M 66 130 C 71.328 130 71.328 138 66 138 C 60.672 138 60.672 130 66 130 Z" class="highcharts-point"></path><path fill="#68AB2B" d="M 80 137 C 85.328 137 85.328 145 80 145 C 74.672 145 74.672 137 80 137 Z" class="highcharts-point"></path><path fill="#68AB2B" d="M 95 154 C 100.328 154 100.328 162 95 162 C 89.672 162 89.672 154 95 154 Z" class="highcharts-point"></path><path fill="#68AB2B" d="M 110 156 C 115.328 156 115.328 164 110 164 C 104.672 164 104.672 156 110 156 Z" class="highcharts-point"></path><path fill="#68AB2B" d="M 125 157 C 130.328 157 130.328 165 125 165 C 119.672 165 119.672 157 125 157 Z" class="highcharts-point"></path><path fill="#68AB2B" d="M 139 159 C 144.328 159 144.328 167 139 167 C 133.672 167 133.672 159 139 159 Z" class="highcharts-point"></path><path fill="#68AB2B" d="M 154 173 C 159.328 173 159.328 181 154 181 C 148.672 181 148.672 173 154 173 Z" class="highcharts-point"></path><path fill="#68AB2B" d="M 169 180 C 174.328 180 174.328 188 169 188 C 163.672 188 163.672 180 169 180 Z" class="highcharts-point"></path><path fill="#68AB2B" d="M 183 181 C 188.328 181 188.328 189 183 189 C 177.672 189 177.672 181 183 181 Z" class="highcharts-point"></path><path fill="#68AB2B" d="M 198 184 C 203.328 184 203.328 192 198 192 C 192.672 192 192.672 184 198 184 Z" class="highcharts-point"></path><path fill="#68AB2B" d="M 213 184 C 218.328 184 218.328 192 213 192 C 207.672 192 207.672 184 213 184 Z" class="highcharts-point"></path><path fill="#68AB2B" d="M 228 186 C 233.328 186 233.328 194 228 194 C 222.672 194 222.672 186 228 186 Z" class="highcharts-point"></path><path fill="#68AB2B" d="M 242 186 C 247.328 186 247.328 194 242 194 C 236.672 194 236.672 186 242 186 Z" class="highcharts-point"></path><path fill="#68AB2B" d="M 257 189 C 262.328 189 262.328 197 257 197 C 251.672 197 251.672 189 257 189 Z" class="highcharts-point"></path><path fill="#68AB2B" d="M 272 192 C 277.328 192 277.328 200 272 200 C 266.672 200 266.672 192 272 192 Z" class="highcharts-point"></path><path fill="#68AB2B" d="M 286 192 C 291.328 192 291.328 200 286 200 C 280.672 200 280.672 192 286 192 Z" class="highcharts-point"></path><path fill="#68AB2B" d="M 301 196 C 306.328 196 306.328 204 301 204 C 295.672 204 295.672 196 301 196 Z" class="highcharts-point"></path></g></g><text x="10" text-anchor="start" class="highcharts-title" style="color:#000000;font-size:14px;font-weight:bold;font-family:Arial;fill:#000000;width:421px;" y="21"><tspan>RU-4 Fl채che pro Wohnung</tspan></text><g class="highcharts-axis-labels highcharts-xaxis-labels "><text x="105" style="color:#000000;cursor:default;font-size:11px;fill:#000000;width:150px;text-overflow:ellipsis;" text-anchor="end" transform="translate(0,0)" y="53" opacity="1"><tspan>Klybeck</tspan></text><text x="105" style="color:#000000;cursor:default;font-size:11px;fill:#000000;width:150px;text-overflow:ellipsis;" text-anchor="end" transform="translate(0,0)" y="68" opacity="1"><tspan>Clara</tspan></text><text x="105" style="color:#000000;cursor:default;font-size:11px;fill:#000000;width:150px;text-overflow:ellipsis;" text-anchor="end" transform="translate(0,0)" y="83" opacity="1"><tspan>Matth채us</tspan></text><text x="105" style="color:#000000;cursor:default;font-size:11px;fill:#000000;width:150px;text-overflow:ellipsis;" text-anchor="end" transform="translate(0,0)" y="97" opacity="1"><tspan>Iselin</tspan></text><text x="105" style="color:#000000;cursor:default;font-size:11px;fill:#000000;width:150px;text-overflow:ellipsis;" text-anchor="end" transform="translate(0,0)" y="112" opacity="1"><tspan>Rosental</tspan></text><text x="105" style="color:#000000;cursor:default;font-size:11px;fill:#000000;width:150px;text-overflow:ellipsis;" text-anchor="end" transform="translate(0,0)" y="127" opacity="1"><tspan>Breite</tspan></text><text x="105" style="color:#000000;cursor:default;font-size:11px;fill:#000000;width:150px;text-overflow:ellipsis;" text-anchor="end" transform="translate(0,0)" y="142" opacity="1"><tspan>Kleinh체ningen</tspan></text><text x="105" style="color:#000000;cursor:default;font-size:11px;fill:#000000;width:150px;text-overflow:ellipsis;" text-anchor="end" transform="translate(0,0)" y="156" opacity="1"><tspan>Gundeldingen</tspan></text><text x="105" style="color:#000000;cursor:default;font-size:11px;fill:#000000;width:150px;text-overflow:ellipsis;" text-anchor="end" transform="translate(0,0)" y="171" opacity="1"><tspan>St. Johann</tspan></text><text x="105" style="color:#000000;cursor:default;font-size:11px;fill:#000000;width:150px;text-overflow:ellipsis;" text-anchor="end" transform="translate(0,0)" y="186" opacity="1"><tspan>Altstadt Kleinbasel</tspan></text><text x="105" style="color:#000000;cursor:default;font-size:11px;fill:#000000;width:150px;text-overflow:ellipsis;" text-anchor="end" transform="translate(0,0)" y="200" opacity="1"><tspan>Gotthelf</tspan></text><text x="105" style="color:#000000;cursor:default;font-size:11px;fill:#000000;width:150px;text-overflow:ellipsis;" text-anchor="end" transform="translate(0,0)" y="215" opacity="1"><tspan>Hirzbrunnen</tspan></text><text x="105" style="color:#000000;cursor:default;font-size:11px;fill:#000000;width:150px;text-overflow:ellipsis;" text-anchor="end" transform="translate(0,0)" y="230" opacity="1"><tspan>Vorst채dte</tspan></text><text x="105" style="color:#000000;cursor:default;font-size:11px;fill:#000000;width:150px;text-overflow:ellipsis;" text-anchor="end" transform="translate(0,0)" y="245" opacity="1"><tspan>Am Ring</tspan></text><text x="105" style="color:#000000;cursor:default;font-size:11px;fill:#000000;width:150px;text-overflow:ellipsis;" text-anchor="end" transform="translate(0,0)" y="259" opacity="1"><tspan>Wettstein</tspan></text><text x="105" style="color:#000000;cursor:default;font-size:11px;fill:#000000;width:150px;text-overflow:ellipsis;" text-anchor="end" transform="translate(0,0)" y="274" opacity="1"><tspan>Altstadt Grossbasel</tspan></text><text x="105" style="color:#000000;cursor:default;font-size:11px;fill:#000000;width:150px;text-overflow:ellipsis;" text-anchor="end" transform="translate(0,0)" y="289" opacity="1"><tspan>Bachletten</tspan></text><text x="105" style="color:#000000;cursor:default;font-size:11px;fill:#000000;width:150px;text-overflow:ellipsis;" text-anchor="end" transform="translate(0,0)" y="303" opacity="1"><tspan>St. Alban</tspan></text><text x="105" style="color:#000000;cursor:default;font-size:11px;fill:#000000;width:150px;text-overflow:ellipsis;" text-anchor="end" transform="translate(0,0)" y="318" opacity="1"><tspan>Riehen</tspan></text><text x="105" style="color:#000000;cursor:default;font-size:11px;fill:#000000;width:150px;text-overflow:ellipsis;" text-anchor="end" transform="translate(0,0)" y="333" opacity="1"><tspan>Bruderholz</tspan></text><text x="105" style="color:#000000;cursor:default;font-size:11px;fill:#000000;width:150px;text-overflow:ellipsis;" text-anchor="end" transform="translate(0,0)" y="348" opacity="1"><tspan>Bettingen</tspan></text></g><g class="highcharts-axis-labels highcharts-yaxis-labels "><text x="120" style="color:#000000;cursor:default;font-size:11px;fill:#000000;" text-anchor="middle" transform="translate(0,0)" y="369" opacity="1">0</text><text x="356.66666666666663" style="color:#000000;cursor:default;font-size:11px;fill:#000000;" text-anchor="middle" transform="translate(0,0)" y="369" opacity="1">100</text><text x="179.16666666666666" style="color:#000000;cursor:default;font-size:11px;fill:#000000;" text-anchor="middle" transform="translate(0,0)" y="369" opacity="1">25</text><text x="238.33333333333331" style="color:#000000;cursor:default;font-size:11px;fill:#000000;" text-anchor="middle" transform="translate(0,0)" y="369" opacity="1">50</text><text x="297.5" style="color:#000000;cursor:default;font-size:11px;fill:#000000;" text-anchor="middle" transform="translate(0,0)" y="369" opacity="1">75</text><text x="415.8333333333333" style="color:#000000;cursor:default;font-size:11px;fill:#000000;" text-anchor="middle" transform="translate(0,0)" y="369" opacity="1">125</text><text x="465.8359375" style="color:#000000;cursor:default;font-size:11px;fill:#000000;" text-anchor="middle" transform="translate(0,0)" y="369" opacity="1">150</text></g><text x="10" class="highcharts-credits" text-anchor="start" style="cursor:default;color:#000000;font-size:10px;fill:#000000;" y="400"><tspan>Quelle: Kantonale Baustatistik</tspan></text></svg>