<?xml version="1.0" standalone="no"?><!DOCTYPE svg PUBLIC "-//W3C//DTD SVG 1.1//EN" "http://www.w3.org/Graphics/SVG/1.1/DTD/svg11.dtd"><svg xmlns:xlink="http://www.w3.org/1999/xlink" version="1.1" class="highcharts-root" style="font-family:Arial;font-size:12px;" xmlns="http://www.w3.org/2000/svg" viewBox="0 0 485 415"><desc>Created with Highcharts 5.0.6</desc><defs><clipPath id="highcharts-qsrpegr-1"><rect x="0" y="0" width="307" height="354" fill="none"></rect></clipPath></defs><rect fill="#fbfbfb" class="highcharts-background" x="0" y="0" width="485" height="415" rx="0" ry="0"></rect><rect fill="none" class="highcharts-plot-background" x="121" y="41" width="354" height="307"></rect><g class="highcharts-grid highcharts-xaxis-grid "><path fill="none" class="highcharts-grid-line" d="M 121 56.5 L 475 56.5" opacity="1"></path><path fill="none" class="highcharts-grid-line" d="M 121 70.5 L 475 70.5" opacity="1"></path><path fill="none" class="highcharts-grid-line" d="M 121 85.5 L 475 85.5" opacity="1"></path><path fill="none" class="highcharts-grid-line" d="M 121 99.5 L 475 99.5" opacity="1"></path><path fill="none" class="highcharts-grid-line" d="M 121 114.5 L 475 114.5" opacity="1"></path><path fill="none" class="highcharts-grid-line" d="M 121 129.5 L 475 129.5" opacity="1"></path><path fill="none" class="highcharts-grid-line" d="M 121 143.5 L 475 143.5" opacity="1"></path><path fill="none" class="highcharts-grid-line" d="M 121 158.5 L 475 158.5" opacity="1"></path><path fill="none" class="highcharts-grid-line" d="M 121 173.5 L 475 173.5" opacity="1"></path><path fill="none" class="highcharts-grid-line" d="M 121 187.5 L 475 187.5" opacity="1"></path><path fill="none" class="highcharts-grid-line" d="M 121 202.5 L 475 202.5" opacity="1"></path><path fill="none" class="highcharts-grid-line" d="M 121 216.5 L 475 216.5" opacity="1"></path><path fill="none" class="highcharts-grid-line" d="M 121 231.5 L 475 231.5" opacity="1"></path><path fill="none" class="highcharts-grid-line" d="M 121 246.5 L 475 246.5" opacity="1"></path><path fill="none" class="highcharts-grid-line" d="M 121 260.5 L 475 260.5" opacity="1"></path><path fill="none" class="highcharts-grid-line" d="M 121 275.5 L 475 275.5" opacity="1"></path><path fill="none" class="highcharts-grid-line" d="M 121 290.5 L 475 290.5" opacity="1"></path><path fill="none" class="highcharts-grid-line" d="M 121 304.5 L 475 304.5" opacity="1"></path><path fill="none" class="highcharts-grid-line" d="M 121 319.5 L 475 319.5" opacity="1"></path><path fill="none" class="highcharts-grid-line" d="M 121 333.5 L 475 333.5" opacity="1"></path><path fill="none" class="highcharts-grid-line" d="M 121 348.5 L 475 348.5" opacity="1"></path><path fill="none" class="highcharts-grid-line" d="M 121 41.5 L 475 41.5" opacity="1"></path></g><g class="highcharts-grid highcharts-yaxis-grid "><path fill="none" stroke="#e6e6e6" stroke-width="1" class="highcharts-grid-line" d="M 120.5 41 L 120.5 348" opacity="1"></path><path fill="none" stroke="#e6e6e6" stroke-width="1" class="highcharts-grid-line" d="M 179.5 41 L 179.5 348" opacity="1"></path><path fill="none" stroke="#e6e6e6" stroke-width="1" class="highcharts-grid-line" d="M 238.5 41 L 238.5 348" opacity="1"></path><path fill="none" stroke="#e6e6e6" stroke-width="1" class="highcharts-grid-line" d="M 297.5 41 L 297.5 348" opacity="1"></path><path fill="none" stroke="#e6e6e6" stroke-width="1" class="highcharts-grid-line" d="M 356.5 41 L 356.5 348" opacity="1"></path><path fill="none" stroke="#e6e6e6" stroke-width="1" class="highcharts-grid-line" d="M 415.5 41 L 415.5 348" opacity="1"></path><path fill="none" stroke="#e6e6e6" stroke-width="1" class="highcharts-grid-line" d="M 475.5 41 L 475.5 348" opacity="1"></path></g><rect fill="none" class="highcharts-plot-border" x="121" y="41" width="354" height="307"></rect><g class="highcharts-axis highcharts-xaxis "><path fill="none" class="highcharts-tick" stroke="#FFFFFF" stroke-width="1" d="M 121 56.5 L 111 56.5" opacity="1"></path><path fill="none" class="highcharts-tick" stroke="#FFFFFF" stroke-width="1" d="M 121 70.5 L 111 70.5" opacity="1"></path><path fill="none" class="highcharts-tick" stroke="#FFFFFF" stroke-width="1" d="M 121 85.5 L 111 85.5" opacity="1"></path><path fill="none" class="highcharts-tick" stroke="#FFFFFF" stroke-width="1" d="M 121 99.5 L 111 99.5" opacity="1"></path><path fill="none" class="highcharts-tick" stroke="#FFFFFF" stroke-width="1" d="M 121 114.5 L 111 114.5" opacity="1"></path><path fill="none" class="highcharts-tick" stroke="#FFFFFF" stroke-width="1" d="M 121 129.5 L 111 129.5" opacity="1"></path><path fill="none" class="highcharts-tick" stroke="#FFFFFF" stroke-width="1" d="M 121 143.5 L 111 143.5" opacity="1"></path><path fill="none" class="highcharts-tick" stroke="#FFFFFF" stroke-width="1" d="M 121 158.5 L 111 158.5" opacity="1"></path><path fill="none" class="highcharts-tick" stroke="#FFFFFF" stroke-width="1" d="M 121 173.5 L 111 173.5" opacity="1"></path><path fill="none" class="highcharts-tick" stroke="#FFFFFF" stroke-width="1" d="M 121 187.5 L 111 187.5" opacity="1"></path><path fill="none" class="highcharts-tick" stroke="#FFFFFF" stroke-width="1" d="M 121 202.5 L 111 202.5" opacity="1"></path><path fill="none" class="highcharts-tick" stroke="#FFFFFF" stroke-width="1" d="M 121 216.5 L 111 216.5" opacity="1"></path><path fill="none" class="highcharts-tick" stroke="#FFFFFF" stroke-width="1" d="M 121 231.5 L 111 231.5" opacity="1"></path><path fill="none" class="highcharts-tick" stroke="#FFFFFF" stroke-width="1" d="M 121 246.5 L 111 246.5" opacity="1"></path><path fill="none" class="highcharts-tick" stroke="#FFFFFF" stroke-width="1" d="M 121 260.5 L 111 260.5" opacity="1"></path><path fill="none" class="highcharts-tick" stroke="#FFFFFF" stroke-width="1" d="M 121 275.5 L 111 275.5" opacity="1"></path><path fill="none" class="highcharts-tick" stroke="#FFFFFF" stroke-width="1" d="M 121 290.5 L 111 290.5" opacity="1"></path><path fill="none" class="highcharts-tick" stroke="#FFFFFF" stroke-width="1" d="M 121 304.5 L 111 304.5" opacity="1"></path><path fill="none" class="highcharts-tick" stroke="#FFFFFF" stroke-width="1" d="M 121 319.5 L 111 319.5" opacity="1"></path><path fill="none" class="highcharts-tick" stroke="#FFFFFF" stroke-width="1" d="M 121 333.5 L 111 333.5" opacity="1"></path><path fill="none" class="highcharts-tick" stroke="#FFFFFF" stroke-width="1" d="M 121 348.5 L 111 348.5" opacity="1"></path><path fill="none" class="highcharts-tick" stroke="#FFFFFF" stroke-width="1" d="M 121 40.5 L 111 40.5" opacity="1"></path><path fill="none" class="highcharts-axis-line" stroke="#ccd6eb" stroke-width="1" d="M 120.5 41 L 120.5 348"></path></g><g class="highcharts-axis highcharts-yaxis "><path fill="none" class="highcharts-axis-line" d="M 121 348 L 475 348"></path></g><g class="highcharts-series-group"><g class="highcharts-series highcharts-series-0 highcharts-scatter-series highcharts-color-undefined highcharts-tracker" transform="translate(475,348) rotate(90) scale(-1,1) scale(1 1)" width="354" height="307" clip-path="url(#highcharts-qsrpegr-1)"></g><g class="highcharts-markers highcharts-series-0 highcharts-scatter-series highcharts-color-undefined highcharts-tracker" transform="translate(475,348) rotate(90) scale(-1,1) scale(1 1)" width="354" height="307" clip-path="none"><path fill="#68AB2B" d="M 7 64 C 12.328 64 12.328 72 7 72 C 1.672 72 1.672 64 7 64 Z" class="highcharts-point"></path><path fill="#68AB2B" d="M 21 92 C 26.328 92 26.328 100 21 100 C 15.672 100 15.672 92 21 92 Z" class="highcharts-point"></path><path fill="#68AB2B" d="M 36 107 C 41.328 107 41.328 115 36 115 C 30.672 115 30.672 107 36 107 Z" class="highcharts-point"></path><path fill="#68AB2B" d="M 51 129 C 56.328 129 56.328 137 51 137 C 45.672 137 45.672 129 51 129 Z" class="highcharts-point"></path><path fill="#68AB2B" d="M 65 130 C 70.328 130 70.328 138 65 138 C 59.672 138 59.672 130 65 130 Z" class="highcharts-point"></path><path fill="#68AB2B" d="M 80 137 C 85.328 137 85.328 145 80 145 C 74.672 145 74.672 137 80 137 Z" class="highcharts-point"></path><path fill="#68AB2B" d="M 95 154 C 100.328 154 100.328 162 95 162 C 89.672 162 89.672 154 95 154 Z" class="highcharts-point"></path><path fill="#68AB2B" d="M 109 156 C 114.328 156 114.328 164 109 164 C 103.672 164 103.672 156 109 156 Z" class="highcharts-point"></path><path fill="#68AB2B" d="M 124 156 C 129.328 156 129.328 164 124 164 C 118.672 164 118.672 156 124 156 Z" class="highcharts-point"></path><path fill="#68AB2B" d="M 138 158 C 143.328 158 143.328 166 138 166 C 132.672 166 132.672 158 138 158 Z" class="highcharts-point"></path><path fill="#68AB2B" d="M 153 173 C 158.328 173 158.328 181 153 181 C 147.672 181 147.672 173 153 173 Z" class="highcharts-point"></path><path fill="#68AB2B" d="M 168 179 C 173.328 179 173.328 187 168 187 C 162.672 187 162.672 179 168 179 Z" class="highcharts-point"></path><path fill="#68AB2B" d="M 182 181 C 187.328 181 187.328 189 182 189 C 176.672 189 176.672 181 182 181 Z" class="highcharts-point"></path><path fill="#68AB2B" d="M 197 184 C 202.328 184 202.328 192 197 192 C 191.672 192 191.672 184 197 184 Z" class="highcharts-point"></path><path fill="#68AB2B" d="M 211 184 C 216.328 184 216.328 192 211 192 C 205.672 192 205.672 184 211 184 Z" class="highcharts-point"></path><path fill="#68AB2B" d="M 226 185 C 231.328 185 231.328 193 226 193 C 220.672 193 220.672 185 226 185 Z" class="highcharts-point"></path><path fill="#68AB2B" d="M 241 186 C 246.328 186 246.328 194 241 194 C 235.672 194 235.672 186 241 186 Z" class="highcharts-point"></path><path fill="#68AB2B" d="M 255 188 C 260.328 188 260.328 196 255 196 C 249.672 196 249.672 188 255 188 Z" class="highcharts-point"></path><path fill="#68AB2B" d="M 270 191 C 275.328 191 275.328 199 270 199 C 264.672 199 264.672 191 270 191 Z" class="highcharts-point"></path><path fill="#68AB2B" d="M 285 191 C 290.328 191 290.328 199 285 199 C 279.672 199 279.672 191 285 191 Z" class="highcharts-point"></path><path fill="#68AB2B" d="M 299 195 C 304.328 195 304.328 203 299 203 C 293.672 203 293.672 195 299 195 Z" class="highcharts-point"></path></g></g><text x="10" text-anchor="start" class="highcharts-title" style="color:#000000;font-size:14px;font-weight:bold;font-family:Arial;fill:#000000;width:421px;" y="21"><tspan>RU-4 Fl채che pro Wohnung</tspan></text><g class="highcharts-axis-labels highcharts-xaxis-labels "><text x="106" style="color:#000000;cursor:default;font-size:11px;fill:#000000;width:150px;text-overflow:ellipsis;" text-anchor="end" transform="translate(0,0)" y="52" opacity="1"><tspan>Klybeck</tspan></text><text x="106" style="color:#000000;cursor:default;font-size:11px;fill:#000000;width:150px;text-overflow:ellipsis;" text-anchor="end" transform="translate(0,0)" y="67" opacity="1"><tspan>Clara</tspan></text><text x="106" style="color:#000000;cursor:default;font-size:11px;fill:#000000;width:150px;text-overflow:ellipsis;" text-anchor="end" transform="translate(0,0)" y="82" opacity="1"><tspan>Matth채us</tspan></text><text x="106" style="color:#000000;cursor:default;font-size:11px;fill:#000000;width:150px;text-overflow:ellipsis;" text-anchor="end" transform="translate(0,0)" y="96" opacity="1"><tspan>Iselin</tspan></text><text x="106" style="color:#000000;cursor:default;font-size:11px;fill:#000000;width:150px;text-overflow:ellipsis;" text-anchor="end" transform="translate(0,0)" y="111" opacity="1"><tspan>Rosental</tspan></text><text x="106" style="color:#000000;cursor:default;font-size:11px;fill:#000000;width:150px;text-overflow:ellipsis;" text-anchor="end" transform="translate(0,0)" y="125" opacity="1"><tspan>Breite</tspan></text><text x="106" style="color:#000000;cursor:default;font-size:11px;fill:#000000;width:150px;text-overflow:ellipsis;" text-anchor="end" transform="translate(0,0)" y="140" opacity="1"><tspan>Kleinh체ningen</tspan></text><text x="106" style="color:#000000;cursor:default;font-size:11px;fill:#000000;width:150px;text-overflow:ellipsis;" text-anchor="end" transform="translate(0,0)" y="155" opacity="1"><tspan>Gundeldingen</tspan></text><text x="106" style="color:#000000;cursor:default;font-size:11px;fill:#000000;width:150px;text-overflow:ellipsis;" text-anchor="end" transform="translate(0,0)" y="169" opacity="1"><tspan>St. Johann</tspan></text><text x="106" style="color:#000000;cursor:default;font-size:11px;fill:#000000;width:150px;text-overflow:ellipsis;" text-anchor="end" transform="translate(0,0)" y="184" opacity="1"><tspan>Altstadt Kleinbasel</tspan></text><text x="106" style="color:#000000;cursor:default;font-size:11px;fill:#000000;width:150px;text-overflow:ellipsis;" text-anchor="end" transform="translate(0,0)" y="199" opacity="1"><tspan>Gotthelf</tspan></text><text x="106" style="color:#000000;cursor:default;font-size:11px;fill:#000000;width:150px;text-overflow:ellipsis;" text-anchor="end" transform="translate(0,0)" y="213" opacity="1"><tspan>Hirzbrunnen</tspan></text><text x="106" style="color:#000000;cursor:default;font-size:11px;fill:#000000;width:150px;text-overflow:ellipsis;" text-anchor="end" transform="translate(0,0)" y="228" opacity="1"><tspan>Vorst채dte</tspan></text><text x="106" style="color:#000000;cursor:default;font-size:11px;fill:#000000;width:150px;text-overflow:ellipsis;" text-anchor="end" transform="translate(0,0)" y="242" opacity="1"><tspan>Am Ring</tspan></text><text x="106" style="color:#000000;cursor:default;font-size:11px;fill:#000000;width:150px;text-overflow:ellipsis;" text-anchor="end" transform="translate(0,0)" y="257" opacity="1"><tspan>Wettstein</tspan></text><text x="106" style="color:#000000;cursor:default;font-size:11px;fill:#000000;width:150px;text-overflow:ellipsis;" text-anchor="end" transform="translate(0,0)" y="272" opacity="1"><tspan>Altstadt Grossbasel</tspan></text><text x="106" style="color:#000000;cursor:default;font-size:11px;fill:#000000;width:150px;text-overflow:ellipsis;" text-anchor="end" transform="translate(0,0)" y="286" opacity="1"><tspan>Bachletten</tspan></text><text x="106" style="color:#000000;cursor:default;font-size:11px;fill:#000000;width:150px;text-overflow:ellipsis;" text-anchor="end" transform="translate(0,0)" y="301" opacity="1"><tspan>St. Alban</tspan></text><text x="106" style="color:#000000;cursor:default;font-size:11px;fill:#000000;width:150px;text-overflow:ellipsis;" text-anchor="end" transform="translate(0,0)" y="315" opacity="1"><tspan>Riehen</tspan></text><text x="106" style="color:#000000;cursor:default;font-size:11px;fill:#000000;width:150px;text-overflow:ellipsis;" text-anchor="end" transform="translate(0,0)" y="330" opacity="1"><tspan>Bruderholz</tspan></text><text x="106" style="color:#000000;cursor:default;font-size:11px;fill:#000000;width:150px;text-overflow:ellipsis;" text-anchor="end" transform="translate(0,0)" y="345" opacity="1"><tspan>Bettingen</tspan></text></g><g class="highcharts-axis-labels highcharts-yaxis-labels "><text x="121" style="color:#000000;cursor:default;font-size:11px;fill:#000000;" text-anchor="middle" transform="translate(0,0)" y="367" opacity="1">0</text><text x="357" style="color:#000000;cursor:default;font-size:11px;fill:#000000;" text-anchor="middle" transform="translate(0,0)" y="367" opacity="1">100</text><text x="180" style="color:#000000;cursor:default;font-size:11px;fill:#000000;" text-anchor="middle" transform="translate(0,0)" y="367" opacity="1">25</text><text x="239" style="color:#000000;cursor:default;font-size:11px;fill:#000000;" text-anchor="middle" transform="translate(0,0)" y="367" opacity="1">50</text><text x="298" style="color:#000000;cursor:default;font-size:11px;fill:#000000;" text-anchor="middle" transform="translate(0,0)" y="367" opacity="1">75</text><text x="416" style="color:#000000;cursor:default;font-size:11px;fill:#000000;" text-anchor="middle" transform="translate(0,0)" y="367" opacity="1">125</text><text x="466" style="color:#000000;cursor:default;font-size:11px;fill:#000000;" text-anchor="middle" transform="translate(0,0)" y="367" opacity="1">150</text></g><text x="10" class="highcharts-credits" text-anchor="start" style="cursor:default;color:#000000;font-size:10px;fill:#000000;" y="400"><tspan>Quelle: Kantonale Baustatistik</tspan></text></svg>