<?xml version="1.0" standalone="no"?><!DOCTYPE svg PUBLIC "-//W3C//DTD SVG 1.1//EN" "http://www.w3.org/Graphics/SVG/1.1/DTD/svg11.dtd"><svg xmlns:xlink="http://www.w3.org/1999/xlink" version="1.1" class="highcharts-root" style="font-family:Arial;font-size:12px;" xmlns="http://www.w3.org/2000/svg" viewBox="0 0 485 415"><desc>Created with Highcharts 5.0.6</desc><defs><clipPath id="highcharts-avmpj5l-1"><rect x="0" y="0" width="204" height="259" fill="none"></rect></clipPath></defs><rect fill="#fbfbfb" class="highcharts-background" x="0" y="0" width="485" height="415" rx="0" ry="0"></rect><rect fill="none" class="highcharts-plot-background" x="56" y="90" width="204" height="259"></rect><g class="highcharts-grid highcharts-xaxis-grid "><path fill="none" class="highcharts-grid-line" d="M 106.5 90 L 106.5 349" opacity="1"></path><path fill="none" class="highcharts-grid-line" d="M 157.5 90 L 157.5 349" opacity="1"></path><path fill="none" class="highcharts-grid-line" d="M 208.5 90 L 208.5 349" opacity="1"></path><path fill="none" class="highcharts-grid-line" d="M 259.5 90 L 259.5 349" opacity="1"></path><path fill="none" class="highcharts-grid-line" d="M 55.5 90 L 55.5 349" opacity="1"></path></g><g class="highcharts-grid highcharts-yaxis-grid "><path fill="none" stroke="#e6e6e6" stroke-width="1" class="highcharts-grid-line" d="M 56 349.5 L 260 349.5" opacity="1"></path><path fill="none" stroke="#e6e6e6" stroke-width="1" class="highcharts-grid-line" d="M 56 323.5 L 260 323.5" opacity="1"></path><path fill="none" stroke="#e6e6e6" stroke-width="1" class="highcharts-grid-line" d="M 56 297.5 L 260 297.5" opacity="1"></path><path fill="none" stroke="#e6e6e6" stroke-width="1" class="highcharts-grid-line" d="M 56 271.5 L 260 271.5" opacity="1"></path><path fill="none" stroke="#e6e6e6" stroke-width="1" class="highcharts-grid-line" d="M 56 245.5 L 260 245.5" opacity="1"></path><path fill="none" stroke="#e6e6e6" stroke-width="1" class="highcharts-grid-line" d="M 56 220.5 L 260 220.5" opacity="1"></path><path fill="none" stroke="#e6e6e6" stroke-width="1" class="highcharts-grid-line" d="M 56 194.5 L 260 194.5" opacity="1"></path><path fill="none" stroke="#e6e6e6" stroke-width="1" class="highcharts-grid-line" d="M 56 168.5 L 260 168.5" opacity="1"></path><path fill="none" stroke="#e6e6e6" stroke-width="1" class="highcharts-grid-line" d="M 56 142.5 L 260 142.5" opacity="1"></path><path fill="none" stroke="#e6e6e6" stroke-width="1" class="highcharts-grid-line" d="M 56 116.5 L 260 116.5" opacity="1"></path><path fill="none" stroke="#e6e6e6" stroke-width="1" class="highcharts-grid-line" d="M 56 89.5 L 260 89.5" opacity="1"></path></g><rect fill="none" class="highcharts-plot-border" x="56" y="90" width="204" height="259"></rect><g class="highcharts-axis highcharts-xaxis "><path fill="none" class="highcharts-tick" stroke="#FFFFFF" stroke-width="1" d="M 106.5 349 L 106.5 359" opacity="1"></path><path fill="none" class="highcharts-tick" stroke="#FFFFFF" stroke-width="1" d="M 157.5 349 L 157.5 359" opacity="1"></path><path fill="none" class="highcharts-tick" stroke="#FFFFFF" stroke-width="1" d="M 208.5 349 L 208.5 359" opacity="1"></path><path fill="none" class="highcharts-tick" stroke="#FFFFFF" stroke-width="1" d="M 260.5 349 L 260.5 359" opacity="1"></path><path fill="none" class="highcharts-tick" stroke="#FFFFFF" stroke-width="1" d="M 55.5 349 L 55.5 359" opacity="1"></path><path fill="none" class="highcharts-axis-line" stroke="#ccd6eb" stroke-width="1" d="M 56 349.5 L 260 349.5"></path></g><g class="highcharts-axis highcharts-yaxis "><path fill="none" class="highcharts-axis-line" d="M 56 90 L 56 349"></path></g><g class="highcharts-series-group"><g class="highcharts-series highcharts-series-0 highcharts-column-series highcharts-color-undefined highcharts-tracker" transform="translate(56,90) scale(1 1)" width="259" height="204" clip-path="url(#highcharts-avmpj5l-1)"><rect x="12.5" y="187.5" width="25" height="72" fill="#256370" class="highcharts-point" stroke="#ffffff" stroke-width="1"></rect><rect x="63.5" y="205.5" width="25" height="54" fill="#256370" class="highcharts-point" stroke="#ffffff" stroke-width="1"></rect><rect x="114.5" y="170.5" width="25" height="89" fill="#256370" class="highcharts-point" stroke="#ffffff" stroke-width="1"></rect><rect x="165.5" y="174.5" width="25" height="85" fill="#256370" class="highcharts-point" stroke="#ffffff" stroke-width="1"></rect></g><g class="highcharts-markers highcharts-series-0 highcharts-column-series highcharts-color-undefined " transform="translate(56,90) scale(1 1)" width="259" height="204" clip-path="none"></g><g class="highcharts-series highcharts-series-1 highcharts-column-series highcharts-color-undefined highcharts-tracker" transform="translate(56,90) scale(1 1)" width="259" height="204" clip-path="url(#highcharts-avmpj5l-1)"><rect x="12.5" y="86.5" width="25" height="101" fill="#71A3B5" class="highcharts-point" stroke="#ffffff" stroke-width="1"></rect><rect x="63.5" y="97.5" width="25" height="108" fill="#71A3B5" class="highcharts-point" stroke="#ffffff" stroke-width="1"></rect><rect x="114.5" y="76.5" width="25" height="94" fill="#71A3B5" class="highcharts-point" stroke="#ffffff" stroke-width="1"></rect><rect x="165.5" y="59.5" width="25" height="115" fill="#71A3B5" class="highcharts-point" stroke="#ffffff" stroke-width="1"></rect></g><g class="highcharts-markers highcharts-series-1 highcharts-column-series highcharts-color-undefined " transform="translate(56,90) scale(1 1)" width="259" height="204" clip-path="none"></g><g class="highcharts-series highcharts-series-2 highcharts-column-series highcharts-color-undefined highcharts-tracker" transform="translate(56,90) scale(1 1)" width="259" height="204" clip-path="url(#highcharts-avmpj5l-1)"><rect x="12.5" y="72.5" width="25" height="14" fill="#C8C8C8" class="highcharts-point" stroke="#ffffff" stroke-width="1"></rect><rect x="63.5" y="84.5" width="25" height="13" fill="#C8C8C8" class="highcharts-point" stroke="#ffffff" stroke-width="1"></rect><rect x="114.5" y="61.5" width="25" height="15" fill="#C8C8C8" class="highcharts-point" stroke="#ffffff" stroke-width="1"></rect><rect x="165.5" y="50.5" width="25" height="9" fill="#C8C8C8" class="highcharts-point" stroke="#ffffff" stroke-width="1"></rect></g><g class="highcharts-markers highcharts-series-2 highcharts-column-series highcharts-color-undefined " transform="translate(56,90) scale(1 1)" width="259" height="204" clip-path="none"></g><g class="highcharts-series highcharts-series-3 highcharts-column-series highcharts-color-undefined highcharts-tracker" transform="translate(56,90) scale(1 1)" width="259" height="204" clip-path="url(#highcharts-avmpj5l-1)"><rect x="12.5" y="24.5" width="25" height="48" fill="#FFBB58" class="highcharts-point" stroke="#ffffff" stroke-width="1"></rect><rect x="63.5" y="25.5" width="25" height="59" fill="#FFBB58" class="highcharts-point" stroke="#ffffff" stroke-width="1"></rect><rect x="114.5" y="20.5" width="25" height="41" fill="#FFBB58" class="highcharts-point" stroke="#ffffff" stroke-width="1"></rect><rect x="165.5" y="14.5" width="25" height="36" fill="#FFBB58" class="highcharts-point" stroke="#ffffff" stroke-width="1"></rect></g><g class="highcharts-markers highcharts-series-3 highcharts-column-series highcharts-color-undefined " transform="translate(56,90) scale(1 1)" width="259" height="204" clip-path="none"></g><g class="highcharts-series highcharts-series-4 highcharts-column-series highcharts-color-undefined highcharts-tracker" transform="translate(56,90) scale(1 1)" width="259" height="204" clip-path="url(#highcharts-avmpj5l-1)"><rect x="12.5" y="-0.5" width="25" height="25" fill="#FF8028" class="highcharts-point" stroke="#ffffff" stroke-width="1"></rect><rect x="63.5" y="-0.5" width="25" height="26" fill="#FF8028" class="highcharts-point" stroke="#ffffff" stroke-width="1"></rect><rect x="114.5" y="-0.5" width="25" height="21" fill="#FF8028" class="highcharts-point" stroke="#ffffff" stroke-width="1"></rect><rect x="165.5" y="-0.5" width="25" height="15" fill="#FF8028" class="highcharts-point" stroke="#ffffff" stroke-width="1"></rect></g><g class="highcharts-markers highcharts-series-4 highcharts-column-series highcharts-color-undefined " transform="translate(56,90) scale(1 1)" width="259" height="204" clip-path="none"></g></g><text x="10" text-anchor="start" class="highcharts-title" style="color:#000000;font-size:14px;font-weight:bold;fill:#000000;width:421px;" y="21"><tspan>1.3.03 Ohne die Menschen aus dem Ausland würden</tspan><tspan dy="17" x="10">wir nicht so gut leben.</tspan><title>1.3.03 Ohne die Menschen aus dem Ausland würden wir nicht so gut leben.</title></text><text x="10" text-anchor="start" class="highcharts-subtitle" style="color:#000000;font-size:12px;fill:#000000;width:421px;" y="59"><tspan>«Ohne die Menschen aus dem Ausland würden wir nicht so gut</tspan><tspan dy="15" x="10">leben.»</tspan><title>«Ohne die Menschen aus dem Ausland würden wir nicht so gut leben.»</title></text><g class="highcharts-legend" transform="translate(272,142)"><rect fill="none" class="highcharts-legend-box" rx="0" ry="0" x="0" y="0" width="203" height="111" visibility="visible"></rect><g><g><g class="highcharts-legend-item highcharts-column-series highcharts-color-undefined highcharts-series-4" transform="translate(8,3)"><text x="21" style="color:#333333;font-size:12px;font-weight:normal;cursor:pointer;fill:#333333;" text-anchor="start" y="15"><tspan>Stimme überhaupt nicht zu</tspan></text><rect x="2" y="4" width="12" height="12" fill="#FF8028" class="highcharts-point"></rect></g><g class="highcharts-legend-item highcharts-column-series highcharts-color-undefined highcharts-series-3" transform="translate(8,23)"><text x="21" y="15" style="color:#333333;font-size:12px;font-weight:normal;cursor:pointer;fill:#333333;" text-anchor="start"><tspan>Stimme eher nicht zu</tspan></text><rect x="2" y="4" width="12" height="12" fill="#FFBB58" class="highcharts-point"></rect></g><g class="highcharts-legend-item highcharts-column-series highcharts-color-undefined highcharts-series-2" transform="translate(8,43)"><text x="21" y="15" style="color:#333333;font-size:12px;font-weight:normal;cursor:pointer;fill:#333333;" text-anchor="start"><tspan>Weiss nicht/keine Angabe</tspan></text><rect x="2" y="4" width="12" height="12" fill="#C8C8C8" class="highcharts-point"></rect></g><g class="highcharts-legend-item highcharts-column-series highcharts-color-undefined highcharts-series-1" transform="translate(8,63)"><text x="21" y="15" style="color:#333333;font-size:12px;font-weight:normal;cursor:pointer;fill:#333333;" text-anchor="start"><tspan>Stimme eher zu</tspan></text><rect x="2" y="4" width="12" height="12" fill="#71A3B5" class="highcharts-point"></rect></g><g class="highcharts-legend-item highcharts-column-series highcharts-color-undefined highcharts-series-0" transform="translate(8,83)"><text x="21" y="15" style="color:#333333;font-size:12px;font-weight:normal;cursor:pointer;fill:#333333;" text-anchor="start"><tspan>Stimme sehr zu</tspan></text><rect x="2" y="4" width="12" height="12" fill="#256370" class="highcharts-point"></rect></g></g></g></g><g class="highcharts-axis-labels highcharts-xaxis-labels "><text x="81.5" style="color:#000000;cursor:default;font-size:11px;fill:#000000;width:51;text-overflow:ellipsis;" text-anchor="middle" transform="translate(0,0)" y="368" opacity="1"><tspan>2005</tspan><tspan x="81.5" dy="14">(N=1510)</tspan></text><text x="132.5" style="color:#000000;cursor:default;font-size:11px;fill:#000000;width:51;text-overflow:ellipsis;" text-anchor="middle" transform="translate(0,0)" y="368" opacity="1"><tspan>2007</tspan><tspan x="132.5" dy="14">(N=1509)</tspan></text><text x="183.5" style="color:#000000;cursor:default;font-size:11px;fill:#000000;width:51;text-overflow:ellipsis;" text-anchor="middle" transform="translate(0,0)" y="368" opacity="1"><tspan>2011</tspan><tspan x="183.5" dy="14">(N=1516)</tspan></text><text x="234.5" style="color:#000000;cursor:default;font-size:11px;fill:#000000;width:51;text-overflow:ellipsis;" text-anchor="middle" transform="translate(0,0)" y="368" opacity="1"><tspan>2015</tspan><tspan x="234.5" dy="14">(N=1506)</tspan></text></g><g class="highcharts-axis-labels highcharts-yaxis-labels "><text x="41" style="color:#000000;cursor:default;font-size:11px;fill:#000000;width:150px;text-overflow:clip;" text-anchor="end" transform="translate(0,0)" y="353" opacity="1"><tspan>0%</tspan></text><text x="41" style="color:#000000;cursor:default;font-size:11px;fill:#000000;width:150px;text-overflow:clip;" text-anchor="end" transform="translate(0,0)" y="327" opacity="1"><tspan>10%</tspan></text><text x="41" style="color:#000000;cursor:default;font-size:11px;fill:#000000;width:150px;text-overflow:clip;" text-anchor="end" transform="translate(0,0)" y="301" opacity="1"><tspan>20%</tspan></text><text x="41" style="color:#000000;cursor:default;font-size:11px;fill:#000000;width:150px;text-overflow:clip;" text-anchor="end" transform="translate(0,0)" y="275" opacity="1"><tspan>30%</tspan></text><text x="41" style="color:#000000;cursor:default;font-size:11px;fill:#000000;width:150px;text-overflow:clip;" text-anchor="end" transform="translate(0,0)" y="249" opacity="1"><tspan>40%</tspan></text><text x="41" style="color:#000000;cursor:default;font-size:11px;fill:#000000;width:150px;text-overflow:clip;" text-anchor="end" transform="translate(0,0)" y="224" opacity="1"><tspan>50%</tspan></text><text x="41" style="color:#000000;cursor:default;font-size:11px;fill:#000000;width:150px;text-overflow:clip;" text-anchor="end" transform="translate(0,0)" y="198" opacity="1"><tspan>60%</tspan></text><text x="41" style="color:#000000;cursor:default;font-size:11px;fill:#000000;width:150px;text-overflow:clip;" text-anchor="end" transform="translate(0,0)" y="172" opacity="1"><tspan>70%</tspan></text><text x="41" style="color:#000000;cursor:default;font-size:11px;fill:#000000;width:150px;text-overflow:clip;" text-anchor="end" transform="translate(0,0)" y="146" opacity="1"><tspan>80%</tspan></text><text x="41" style="color:#000000;cursor:default;font-size:11px;fill:#000000;width:150px;text-overflow:clip;" text-anchor="end" transform="translate(0,0)" y="120" opacity="1"><tspan>90%</tspan></text><text x="41" style="color:#000000;cursor:default;font-size:11px;fill:#000000;width:150px;text-overflow:clip;" text-anchor="end" transform="translate(0,0)" y="94" opacity="1"><tspan>100%</tspan></text></g><text x="10" class="highcharts-credits" text-anchor="start" style="cursor:default;color:#000000;font-size:10px;fill:#000000;" y="400"><tspan>Quelle: Statistisches Amt Basel-Stadt, kantonale Bevölkerungsbefragung: F18c</tspan></text></svg>