<?xml version="1.0" standalone="no"?>
<!DOCTYPE svg PUBLIC "-//W3C//DTD SVG 1.1//EN" "http://www.w3.org/Graphics/SVG/1.1/DTD/svg11.dtd">
<svg xmlns:xlink="http://www.w3.org/1999/xlink" version="1.1" class="highcharts-root" style="font-family:arial;font-size:12px;" xmlns="http://www.w3.org/2000/svg" viewBox="0 0 485 415">
  <desc>
    Created with Highstock 5.0.14
  </desc>
  <defs>
    <clipPath>
      <rect x="0" y="0" width="432" height="299" fill="none"/>
    </clipPath>
    <clipPath id="a">
      <rect x="0" y="0" width="432" height="299" fill="none"/>
    </clipPath>
  </defs>
  <rect fill="#fbfbfb" class="highcharts-background" x="0" y="0" width="485" height="415" rx="0" ry="0"/>
  <rect fill="none" class="highcharts-plot-background" x="43" y="41" width="432" height="299"/>
  <g class="highcharts-pane-group"/>
  <g class="highcharts-grid highcharts-xaxis-grid ">
    <path fill="none" class="highcharts-grid-line" d="M 56.5 41 L 56.5 340" opacity="1"/>
    <path fill="none" class="highcharts-grid-line" d="M 110.5 41 L 110.5 340" opacity="1"/>
    <path fill="none" class="highcharts-grid-line" d="M 164.5 41 L 164.5 340" opacity="1"/>
    <path fill="none" class="highcharts-grid-line" d="M 218.5 41 L 218.5 340" opacity="1"/>
    <path fill="none" class="highcharts-grid-line" d="M 272.5 41 L 272.5 340" opacity="1"/>
    <path fill="none" class="highcharts-grid-line" d="M 326.5 41 L 326.5 340" opacity="1"/>
    <path fill="none" class="highcharts-grid-line" d="M 380.5 41 L 380.5 340" opacity="1"/>
    <path fill="none" class="highcharts-grid-line" d="M 434.5 41 L 434.5 340" opacity="1"/>
  </g>
  <g class="highcharts-grid highcharts-yaxis-grid ">
    <path fill="none" stroke="#B9CFD7" stroke-width="0.5" class="highcharts-grid-line" d="M 43 340.25 L 475 340.25" opacity="1"/>
    <path fill="none" stroke="#B9CFD7" stroke-width="0.5" class="highcharts-grid-line" d="M 43 280.25 L 475 280.25" opacity="1"/>
    <path fill="none" stroke="#B9CFD7" stroke-width="0.5" class="highcharts-grid-line" d="M 43 220.25 L 475 220.25" opacity="1"/>
    <path fill="none" stroke="#B9CFD7" stroke-width="0.5" class="highcharts-grid-line" d="M 43 161.25 L 475 161.25" opacity="1"/>
    <path fill="none" stroke="#B9CFD7" stroke-width="0.5" class="highcharts-grid-line" d="M 43 101.25 L 475 101.25" opacity="1"/>
    <path fill="none" stroke="#B9CFD7" stroke-width="0.5" class="highcharts-grid-line" d="M 43 40.75 L 475 40.75" opacity="1"/>
  </g>
  <rect fill="none" class="highcharts-plot-border" x="43" y="41" width="432" height="299"/>
  <g class="highcharts-axis highcharts-xaxis ">
    <path fill="none" class="highcharts-axis-line" stroke="#B9CFD7" stroke-width="0.5" d="M 43 340.25 L 475 340.25"/>
  </g>
  <g class="highcharts-axis highcharts-yaxis ">
    <path fill="none" class="highcharts-axis-line" d="M 43 41 L 43 340"/>
  </g>
  <g class="highcharts-series-group">
    <g class="highcharts-series highcharts-series-0 highcharts-line-series highcharts-color-undefined " transform="translate(43,41) scale(1 1)" clip-path="url(#a)">
      <path fill="none" d="M 13.5 91.494 L 40.5 108.83600000000001 L 67.5 65.78 L 94.5 69.368 L 121.5 55.614000000000004 L 148.5 90.298 L 175.5 116.012 L 202.5 138.73600000000002 L 229.5 113.62 L 256.5 75.34800000000001 L 283.5 54.418000000000006 L 310.5 21.52800000000002 L 337.5 22.72399999999999 L 364.5 53.22200000000001 L 391.5 89.70000000000002 L 418.5 98.67000000000002" class="highcharts-graph" stroke="#B375AB" stroke-width="2" stroke-linejoin="round" stroke-linecap="round"/>
    </g>
    <g class="highcharts-markers highcharts-series-0 highcharts-line-series highcharts-color-undefined " transform="translate(43,41) scale(1 1)" clip-path="none">
      <path fill="#B375AB" d="M 17 91 A 4 4 0 1 1 16.99999800000017 90.99600000066667 Z" class="highcharts-point"/>
      <path fill="#B375AB" d="M 44 109 A 4 4 0 1 1 43.99999800000017 108.99600000066667 Z" class="highcharts-point"/>
      <path fill="#B375AB" d="M 71 66 A 4 4 0 1 1 70.99999800000016 65.99600000066667 Z" class="highcharts-point"/>
      <path fill="#B375AB" d="M 98 69 A 4 4 0 1 1 97.99999800000016 68.99600000066667 Z" class="highcharts-point"/>
      <path fill="#B375AB" d="M 125 56 A 4 4 0 1 1 124.99999800000016 55.99600000066666 Z" class="highcharts-point"/>
      <path fill="#B375AB" d="M 152 90 A 4 4 0 1 1 151.99999800000018 89.99600000066667 Z" class="highcharts-point"/>
      <path fill="#B375AB" d="M 179 116 A 4 4 0 1 1 178.99999800000018 115.99600000066667 Z" class="highcharts-point"/>
      <path fill="#B375AB" d="M 206 139 A 4 4 0 1 1 205.99999800000018 138.99600000066667 Z" class="highcharts-point"/>
      <path fill="#B375AB" d="M 233 114 A 4 4 0 1 1 232.99999800000018 113.99600000066667 Z" class="highcharts-point"/>
      <path fill="#B375AB" d="M 260 75 A 4 4 0 1 1 259.9999980000002 74.99600000066667 Z" class="highcharts-point"/>
      <path fill="#B375AB" d="M 287 54 A 4 4 0 1 1 286.9999980000002 53.99600000066666 Z" class="highcharts-point"/>
      <path fill="#B375AB" d="M 314 22 A 4 4 0 1 1 313.9999980000002 21.996000000666665 Z" class="highcharts-point"/>
      <path fill="#B375AB" d="M 341 23 A 4 4 0 1 1 340.9999980000002 22.996000000666665 Z" class="highcharts-point"/>
      <path fill="#B375AB" d="M 368 53 A 4 4 0 1 1 367.9999980000002 52.99600000066666 Z" class="highcharts-point"/>
      <path fill="#B375AB" d="M 395 90 A 4 4 0 1 1 394.9999980000002 89.99600000066667 Z" class="highcharts-point"/>
      <path fill="#B375AB" d="M 422 99 A 4 4 0 1 1 421.9999980000002 98.99600000066667 Z" class="highcharts-point"/>
    </g>
  </g>
  <text x="10" text-anchor="start" class="highcharts-title" style="color:#000000;font-size:14px;font-weight:bold;fill:#000000;" y="21">
    <tspan>Anzahl Gewaltstraftaten pro 100 000 Einwohner</tspan>
  </text>
  <g class="highcharts-data-labels highcharts-series-0 highcharts-line-series highcharts-color-undefined " visibility="visible" transform="translate(43,41) scale(1 1)">
    <g class="highcharts-label highcharts-data-label highcharts-data-label-color-undefined " transform="translate(-1,68)">
      <text x="5" style="font-size:11px;font-weight:bold;color:#000000;fill:#000000;" y="16">
        <tspan x="5" y="16" class="highcharts-text-outline" fill="#FFFFFF" stroke="#FFFFFF" stroke-width="2px" stroke-linejoin="round">347</tspan><tspan x="5" y="16">347</tspan>
      </text>
    </g>
    <g class="highcharts-label highcharts-data-label highcharts-data-label-color-undefined " transform="translate(36,99)">
      <text x="5" style="font-size:11px;font-weight:bold;color:#000000;fill:#000000;" y="16"/>
    </g>
    <g class="highcharts-label highcharts-data-label highcharts-data-label-color-undefined " transform="translate(63,56)">
      <text x="5" style="font-size:11px;font-weight:bold;color:#000000;fill:#000000;" y="16"/>
    </g>
    <g class="highcharts-label highcharts-data-label highcharts-data-label-color-undefined " transform="translate(90,59)">
      <text x="5" style="font-size:11px;font-weight:bold;color:#000000;fill:#000000;" y="16"/>
    </g>
    <g class="highcharts-label highcharts-data-label highcharts-data-label-color-undefined " transform="translate(117,46)">
      <text x="5" style="font-size:11px;font-weight:bold;color:#000000;fill:#000000;" y="16"/>
    </g>
    <g class="highcharts-label highcharts-data-label highcharts-data-label-color-undefined " transform="translate(144,80)">
      <text x="5" style="font-size:11px;font-weight:bold;color:#000000;fill:#000000;" y="16"/>
    </g>
    <g class="highcharts-label highcharts-data-label highcharts-data-label-color-undefined " transform="translate(171,106)">
      <text x="5" style="font-size:11px;font-weight:bold;color:#000000;fill:#000000;" y="16"/>
    </g>
    <g class="highcharts-label highcharts-data-label highcharts-data-label-color-undefined " transform="translate(198,129)">
      <text x="5" style="font-size:11px;font-weight:bold;color:#000000;fill:#000000;" y="16"/>
    </g>
    <g class="highcharts-label highcharts-data-label highcharts-data-label-color-undefined " transform="translate(225,104)">
      <text x="5" style="font-size:11px;font-weight:bold;color:#000000;fill:#000000;" y="16"/>
    </g>
    <g class="highcharts-label highcharts-data-label highcharts-data-label-color-undefined " transform="translate(252,65)">
      <text x="5" style="font-size:11px;font-weight:bold;color:#000000;fill:#000000;" y="16"/>
    </g>
    <g class="highcharts-label highcharts-data-label highcharts-data-label-color-undefined " transform="translate(279,44)">
      <text x="5" style="font-size:11px;font-weight:bold;color:#000000;fill:#000000;" y="16"/>
    </g>
    <g class="highcharts-label highcharts-data-label highcharts-data-label-color-undefined " transform="translate(306,12)">
      <text x="5" style="font-size:11px;font-weight:bold;color:#000000;fill:#000000;" y="16"/>
    </g>
    <g class="highcharts-label highcharts-data-label highcharts-data-label-color-undefined " transform="translate(333,13)">
      <text x="5" style="font-size:11px;font-weight:bold;color:#000000;fill:#000000;" y="16"/>
    </g>
    <g class="highcharts-label highcharts-data-label highcharts-data-label-color-undefined " transform="translate(360,43)">
      <text x="5" style="font-size:11px;font-weight:bold;color:#000000;fill:#000000;" y="16"/>
    </g>
    <g class="highcharts-label highcharts-data-label highcharts-data-label-color-undefined " transform="translate(387,80)">
      <text x="5" style="font-size:11px;font-weight:bold;color:#000000;fill:#000000;" y="16"/>
    </g>
    <g class="highcharts-label highcharts-data-label highcharts-data-label-color-undefined " transform="translate(404,76)">
      <text x="5" style="font-size:11px;font-weight:bold;color:#000000;fill:#000000;" y="16">
        <tspan x="5" y="16" class="highcharts-text-outline" fill="#FFFFFF" stroke="#FFFFFF" stroke-width="2px" stroke-linejoin="round">335</tspan><tspan x="5" y="16">335</tspan>
      </text>
    </g>
  </g>
  <g class="highcharts-axis-labels highcharts-xaxis-labels ">
    <text x="56.5" style="color:#000000;cursor:default;font-size:11px;fill:#000000;" text-anchor="middle" transform="translate(0,0)" y="359" opacity="1">
      2000
    </text>
    <text x="110.5" style="color:#000000;cursor:default;font-size:11px;fill:#000000;" text-anchor="middle" transform="translate(0,0)" y="359" opacity="1">
      2002
    </text>
    <text x="164.5" style="color:#000000;cursor:default;font-size:11px;fill:#000000;" text-anchor="middle" transform="translate(0,0)" y="359" opacity="1">
      2004
    </text>
    <text x="218.5" style="color:#000000;cursor:default;font-size:11px;fill:#000000;" text-anchor="middle" transform="translate(0,0)" y="359" opacity="1">
      2006
    </text>
    <text x="272.5" style="color:#000000;cursor:default;font-size:11px;fill:#000000;" text-anchor="middle" transform="translate(0,0)" y="359" opacity="1">
      2008
    </text>
    <text x="326.5" style="color:#000000;cursor:default;font-size:11px;fill:#000000;" text-anchor="middle" transform="translate(0,0)" y="359" opacity="1">
      2010
    </text>
    <text x="380.5" style="color:#000000;cursor:default;font-size:11px;fill:#000000;" text-anchor="middle" transform="translate(0,0)" y="359" opacity="1">
      2012
    </text>
    <text x="434.5" style="color:#000000;cursor:default;font-size:11px;fill:#000000;" text-anchor="middle" transform="translate(0,0)" y="359" opacity="1">
      2014
    </text>
  </g>
  <g class="highcharts-axis-labels highcharts-yaxis-labels ">
    <text x="28" style="color:#000000;cursor:default;font-size:11px;fill:#000000;" text-anchor="end" transform="translate(0,0)" y="345" opacity="1">
      <tspan>0</tspan>
    </text>
    <text x="28" style="color:#000000;cursor:default;font-size:11px;fill:#000000;" text-anchor="end" transform="translate(0,0)" y="285" opacity="1">
      <tspan>100</tspan>
    </text>
    <text x="28" style="color:#000000;cursor:default;font-size:11px;fill:#000000;" text-anchor="end" transform="translate(0,0)" y="225" opacity="1">
      <tspan>200</tspan>
    </text>
    <text x="28" style="color:#000000;cursor:default;font-size:11px;fill:#000000;" text-anchor="end" transform="translate(0,0)" y="165" opacity="1">
      <tspan>300</tspan>
    </text>
    <text x="28" style="color:#000000;cursor:default;font-size:11px;fill:#000000;" text-anchor="end" transform="translate(0,0)" y="105" opacity="1">
      <tspan>400</tspan>
    </text>
    <text x="28" style="color:#000000;cursor:default;font-size:11px;fill:#000000;" text-anchor="end" transform="translate(0,0)" y="46" opacity="1">
      <tspan>500</tspan>
    </text>
  </g>
  <text x="10" class="highcharts-credits" text-anchor="start" style="cursor:default;color:#000000;font-size:10px;fill:#000000;" y="400">
    <tspan>Quelle: Bundesamt für Statistik (BFS), Polizeiliche Kriminalstatistik (PKS)</tspan>
  </text>
</svg>
