<?xml version="1.0" standalone="no"?>
<!DOCTYPE svg PUBLIC "-//W3C//DTD SVG 1.1//EN" "http://www.w3.org/Graphics/SVG/1.1/DTD/svg11.dtd">
<svg xmlns:xlink="http://www.w3.org/1999/xlink" version="1.1" class="highcharts-root" style="font-family:Arial;font-size:12px;" xmlns="http://www.w3.org/2000/svg" viewBox="0 0 320 208">
  <desc>
    Created with Highstock 6.0.3
  </desc>
  <defs>
    <clipPath>
      <rect x="0" y="0" width="263" height="119" fill="none"/>
    </clipPath>
    <clipPath id="a">
      <rect x="0" y="0" width="263" height="119" fill="none"/>
    </clipPath>
  </defs>
  <rect fill="#fbfbfb" class="highcharts-background" x="0" y="0" width="320" height="208" rx="0" ry="0"/>
  <rect fill="none" class="highcharts-plot-background" x="54" y="60" width="263" height="119"/>
  <g class="highcharts-pane-group"/>
  <g class="highcharts-grid highcharts-xaxis-grid ">
    <path fill="none" class="highcharts-grid-line" d="M 97.5 60 L 97.5 179" opacity="1"/>
    <path fill="none" class="highcharts-grid-line" d="M 141.5 60 L 141.5 179" opacity="1"/>
    <path fill="none" class="highcharts-grid-line" d="M 185.5 60 L 185.5 179" opacity="1"/>
    <path fill="none" class="highcharts-grid-line" d="M 228.5 60 L 228.5 179" opacity="1"/>
    <path fill="none" class="highcharts-grid-line" d="M 272.5 60 L 272.5 179" opacity="1"/>
    <path fill="none" class="highcharts-grid-line" d="M 316.5 60 L 316.5 179" opacity="1"/>
    <path fill="none" class="highcharts-grid-line" d="M 53.5 60 L 53.5 179" opacity="1"/>
  </g>
  <g class="highcharts-grid highcharts-yaxis-grid ">
    <path fill="none" stroke="#B9CFD7" stroke-width="0.5" class="highcharts-grid-line" d="M 54 179.25 L 317 179.25" opacity="1"/>
    <path fill="none" stroke="#B9CFD7" stroke-width="0.5" class="highcharts-grid-line" d="M 54 120.25 L 317 120.25" opacity="1"/>
    <path fill="none" stroke="#B9CFD7" stroke-width="0.5" class="highcharts-grid-line" d="M 54 60.25 L 317 60.25" opacity="1"/>
  </g>
  <rect fill="none" class="highcharts-plot-border" x="54" y="60" width="263" height="119"/>
  <g class="highcharts-axis highcharts-xaxis ">
    <path fill="none" class="highcharts-tick" stroke="#FFFFFF" stroke-width="1" d="M 97.5 179 L 97.5 189" opacity="1"/>
    <path fill="none" class="highcharts-tick" stroke="#FFFFFF" stroke-width="1" d="M 141.5 179 L 141.5 189" opacity="1"/>
    <path fill="none" class="highcharts-tick" stroke="#FFFFFF" stroke-width="1" d="M 185.5 179 L 185.5 189" opacity="1"/>
    <path fill="none" class="highcharts-tick" stroke="#FFFFFF" stroke-width="1" d="M 228.5 179 L 228.5 189" opacity="1"/>
    <path fill="none" class="highcharts-tick" stroke="#FFFFFF" stroke-width="1" d="M 272.5 179 L 272.5 189" opacity="1"/>
    <path fill="none" class="highcharts-tick" stroke="#FFFFFF" stroke-width="1" d="M 317.5 179 L 317.5 189" opacity="1"/>
    <path fill="none" class="highcharts-tick" stroke="#FFFFFF" stroke-width="1" d="M 53.5 179 L 53.5 189" opacity="1"/>
    <path fill="none" class="highcharts-axis-line" stroke="#B9CFD7" stroke-width="0.5" d="M 54 179.25 L 317 179.25"/>
  </g>
  <g class="highcharts-axis highcharts-yaxis ">
    <path fill="none" class="highcharts-axis-line" d="M 54 60 L 54 179"/>
  </g>
  <g class="highcharts-series-group">
    <g class="highcharts-series highcharts-series-0 highcharts-column-series " transform="translate(54,60) scale(1 1)" clip-path="url(#a)">
      <rect x="14" y="29" width="15" height="31" fill="#2f656b" class="highcharts-point"/>
      <rect x="58" y="26" width="15" height="31" fill="#2f656b" class="highcharts-point"/>
      <rect x="102" y="25" width="15" height="33" fill="#2f656b" class="highcharts-point"/>
      <rect x="146" y="24" width="15" height="34" fill="#2f656b" class="highcharts-point"/>
      <rect x="190" y="21" width="15" height="35" fill="#2f656b" class="highcharts-point"/>
      <rect x="234" y="20" width="15" height="36" fill="#2f656b" class="highcharts-point"/>
    </g>
    <g class="highcharts-markers highcharts-series-0 highcharts-column-series " transform="translate(54,60) scale(1 1)" clip-path="none"/>
    <g class="highcharts-series highcharts-series-1 highcharts-column-series " transform="translate(54,60) scale(1 1)" clip-path="url(#a)">
      <rect x="14" y="60" width="15" height="60" fill="#b00000" class="highcharts-point"/>
      <rect x="58" y="57" width="15" height="63" fill="#b00000" class="highcharts-point"/>
      <rect x="102" y="58" width="15" height="62" fill="#b00000" class="highcharts-point"/>
      <rect x="146" y="58" width="15" height="62" fill="#b00000" class="highcharts-point"/>
      <rect x="190" y="56" width="15" height="64" fill="#b00000" class="highcharts-point"/>
      <rect x="234" y="56" width="15" height="64" fill="#b00000" class="highcharts-point"/>
    </g>
    <g class="highcharts-markers highcharts-series-1 highcharts-column-series " transform="translate(54,60) scale(1 1)" clip-path="none"/>
  </g>
  <text x="3" text-anchor="start" class="highcharts-title" style="color:#000000;font-size:10px;font-weight:bold;fill:#000000;" y="14">
    <tspan>Anzahl Zupendler nach Herkunft</tspan>
  </text>
  <text x="3" text-anchor="start" class="highcharts-subtitle" style="color:#000000;font-size:10px;font-weight:normal;font-family:Arial;fill:#000000;" y="32"/>
  <g class="highcharts-legend" transform="translate(43,7)">
    <rect fill="none" class="highcharts-legend-box" rx="0" ry="0" x="0" y="0" width="208" height="41" visibility="visible"/>
    <g>
      <g>
        <g class="highcharts-legend-item highcharts-column-series highcharts-color-undefined highcharts-series-0" transform="translate(8,3)">
          <text x="21" style="color:#333333;font-size:10px;font-weight:normal;cursor:pointer;fill:#333333;" text-anchor="start" y="13">
            <tspan>Aus dem Ausland</tspan>
          </text>
          <rect x="3" y="4" width="10" height="10" fill="#2f656b" class="highcharts-point"/>
        </g>
        <g class="highcharts-legend-item highcharts-column-series highcharts-color-undefined highcharts-series-1" transform="translate(8,18)">
          <text x="21" y="13" style="color:#333333;font-size:10px;font-weight:normal;cursor:pointer;fill:#333333;" text-anchor="start">
            <tspan>Aus der Schweiz</tspan>
          </text>
          <rect x="3" y="4" width="10" height="10" fill="#b00000" class="highcharts-point"/>
        </g>
      </g>
    </g>
  </g>
  <g class="highcharts-axis-labels highcharts-xaxis-labels ">
    <text x="75.91666666666667" style="color:#000000;cursor:default;font-size:10;fill:#000000;" text-anchor="middle" transform="translate(0,0)" y="199" opacity="1">
      2010
    </text>
    <text x="119.75000000000001" style="color:#000000;cursor:default;font-size:10;fill:#000000;" text-anchor="middle" transform="translate(0,0)" y="199" opacity="1">
      2011
    </text>
    <text x="163.58333333333334" style="color:#000000;cursor:default;font-size:10;fill:#000000;" text-anchor="middle" transform="translate(0,0)" y="199" opacity="1">
      2012
    </text>
    <text x="207.41666666666669" style="color:#000000;cursor:default;font-size:10;fill:#000000;" text-anchor="middle" transform="translate(0,0)" y="199" opacity="1">
      2013
    </text>
    <text x="251.24999999999997" style="color:#000000;cursor:default;font-size:10;fill:#000000;" text-anchor="middle" transform="translate(0,0)" y="199" opacity="1">
      2014
    </text>
    <text x="295.0833333333333" style="color:#000000;cursor:default;font-size:10;fill:#000000;" text-anchor="middle" transform="translate(0,0)" y="199" opacity="1">
      2015
    </text>
  </g>
  <g class="highcharts-axis-labels highcharts-yaxis-labels ">
    <text x="39" style="color:#000000;cursor:default;font-size:10;fill:#000000;" text-anchor="end" transform="translate(0,0)" y="185" opacity="1">
      <tspan>0</tspan>
    </text>
    <text x="39" style="color:#000000;cursor:default;font-size:10;fill:#000000;" text-anchor="end" transform="translate(0,0)" y="125" opacity="1">
      <tspan>60 000</tspan>
    </text>
    <text x="39" style="color:#000000;cursor:default;font-size:10;fill:#000000;" text-anchor="end" transform="translate(0,0)" y="65" opacity="1">
      <tspan>120 000</tspan>
    </text>
  </g>
  <text x="10" class="highcharts-credits" text-anchor="start" style="cursor:default;color:#000000;font-size:10;fill:#000000;" y="193">
    <tspan>Quelle: Bundesamt für Statistik (BFS), Strukturerhebung (SE)</tspan>
  </text>
</svg>
