<?xml version="1.0" standalone="no"?>
<!DOCTYPE svg PUBLIC "-//W3C//DTD SVG 1.1//EN" "http://www.w3.org/Graphics/SVG/1.1/DTD/svg11.dtd">
<svg xmlns:xlink="http://www.w3.org/1999/xlink" version="1.1" class="highcharts-root" style="font-family:Arial;font-size:12px;" xmlns="http://www.w3.org/2000/svg" viewBox="0 0 485 415">
  <desc>
    Created with Highstock 6.0.4
  </desc>
  <defs>
    <clipPath>
      <rect x="0" y="0" width="413" height="205" fill="none"/>
    </clipPath>
    <clipPath id="a">
      <rect x="0" y="0" width="413" height="205" fill="none"/>
    </clipPath>
  </defs>
  <rect fill="#fbfbfb" class="highcharts-background" x="0" y="0" width="485" height="415" rx="0" ry="0"/>
  <rect fill="none" class="highcharts-plot-background" x="62" y="174" width="413" height="205"/>
  <g class="highcharts-pane-group"/>
  <g class="highcharts-grid highcharts-xaxis-grid ">
    <path fill="none" class="highcharts-grid-line" d="M 85.5 174 L 85.5 379" opacity="1"/>
    <path fill="none" class="highcharts-grid-line" d="M 126.5 174 L 126.5 379" opacity="1"/>
    <path fill="none" class="highcharts-grid-line" d="M 166.5 174 L 166.5 379" opacity="1"/>
    <path fill="none" class="highcharts-grid-line" d="M 207.5 174 L 207.5 379" opacity="1"/>
    <path fill="none" class="highcharts-grid-line" d="M 247.5 174 L 247.5 379" opacity="1"/>
    <path fill="none" class="highcharts-grid-line" d="M 288.5 174 L 288.5 379" opacity="1"/>
    <path fill="none" class="highcharts-grid-line" d="M 328.5 174 L 328.5 379" opacity="1"/>
    <path fill="none" class="highcharts-grid-line" d="M 369.5 174 L 369.5 379" opacity="1"/>
    <path fill="none" class="highcharts-grid-line" d="M 409.5 174 L 409.5 379" opacity="1"/>
    <path fill="none" class="highcharts-grid-line" d="M 450.5 174 L 450.5 379" opacity="1"/>
  </g>
  <g class="highcharts-grid highcharts-yaxis-grid ">
    <path fill="none" stroke="#B9CFD7" stroke-width="0.5" class="highcharts-grid-line" d="M 62 379.25 L 475 379.25" opacity="1"/>
    <path fill="none" stroke="#B9CFD7" stroke-width="0.5" class="highcharts-grid-line" d="M 62 328.25 L 475 328.25" opacity="1"/>
    <path fill="none" stroke="#B9CFD7" stroke-width="0.5" class="highcharts-grid-line" d="M 62 277.25 L 475 277.25" opacity="1"/>
    <path fill="none" stroke="#B9CFD7" stroke-width="0.5" class="highcharts-grid-line" d="M 62 225.25 L 475 225.25" opacity="1"/>
    <path fill="none" stroke="#B9CFD7" stroke-width="0.5" class="highcharts-grid-line" d="M 62 173.75 L 475 173.75" opacity="1"/>
  </g>
  <rect fill="none" class="highcharts-plot-border" x="62" y="174" width="413" height="205"/>
  <g class="highcharts-axis highcharts-xaxis ">
    <path fill="none" class="highcharts-axis-line" stroke="#B9CFD7" stroke-width="0.5" d="M 62 379.25 L 475 379.25"/>
  </g>
  <g class="highcharts-axis highcharts-yaxis ">
    <path fill="none" class="highcharts-axis-line" d="M 62 174 L 62 379"/>
  </g>
  <g class="highcharts-series-group">
    <g class="highcharts-series highcharts-series-1 highcharts-column-series " transform="translate(62,174) scale(1 1)" clip-path="url(#a)">
      <rect x="16" y="39" width="15" height="36" fill="#246370" class="highcharts-point"/>
      <rect x="57" y="32" width="15" height="40" fill="#246370" class="highcharts-point"/>
      <rect x="98" y="35" width="15" height="39" fill="#246370" class="highcharts-point"/>
      <rect x="138" y="35" width="15" height="38" fill="#246370" class="highcharts-point"/>
      <rect x="179" y="31" width="15" height="41" fill="#246370" class="highcharts-point"/>
      <rect x="219" y="32" width="15" height="41" fill="#246370" class="highcharts-point"/>
      <rect x="260" y="26" width="15" height="46" fill="#246370" class="highcharts-point"/>
      <rect x="300" y="34" width="15" height="41" fill="#246370" class="highcharts-point"/>
      <rect x="341" y="31" width="15" height="41" fill="#246370" class="highcharts-point"/>
      <rect x="382" y="28" width="15" height="42" fill="#246370" class="highcharts-point"/>
    </g>
    <g class="highcharts-markers highcharts-series-1 highcharts-column-series " transform="translate(62,174) scale(1 1)" clip-path="none"/>
    <g class="highcharts-series highcharts-series-2 highcharts-column-series " transform="translate(62,174) scale(1 1)" clip-path="url(#a)">
      <rect x="16" y="75" width="15" height="15" fill="#689199" class="highcharts-point"/>
      <rect x="57" y="72" width="15" height="16" fill="#689199" class="highcharts-point"/>
      <rect x="98" y="74" width="15" height="15" fill="#689199" class="highcharts-point"/>
      <rect x="138" y="73" width="15" height="16" fill="#689199" class="highcharts-point"/>
      <rect x="179" y="72" width="15" height="16" fill="#689199" class="highcharts-point"/>
      <rect x="219" y="73" width="15" height="15" fill="#689199" class="highcharts-point"/>
      <rect x="260" y="72" width="15" height="16" fill="#689199" class="highcharts-point"/>
      <rect x="300" y="75" width="15" height="15" fill="#689199" class="highcharts-point"/>
      <rect x="341" y="72" width="15" height="16" fill="#689199" class="highcharts-point"/>
      <rect x="382" y="70" width="15" height="18" fill="#689199" class="highcharts-point"/>
    </g>
    <g class="highcharts-markers highcharts-series-2 highcharts-column-series " transform="translate(62,174) scale(1 1)" clip-path="none"/>
    <g class="highcharts-series highcharts-series-3 highcharts-column-series " transform="translate(62,174) scale(1 1)" clip-path="url(#a)">
      <rect x="16" y="90" width="15" height="14" fill="#A8C3CA" class="highcharts-point"/>
      <rect x="57" y="88" width="15" height="16" fill="#A8C3CA" class="highcharts-point"/>
      <rect x="98" y="89" width="15" height="15" fill="#A8C3CA" class="highcharts-point"/>
      <rect x="138" y="89" width="15" height="15" fill="#A8C3CA" class="highcharts-point"/>
      <rect x="179" y="88" width="15" height="16" fill="#A8C3CA" class="highcharts-point"/>
      <rect x="219" y="88" width="15" height="16" fill="#A8C3CA" class="highcharts-point"/>
      <rect x="260" y="88" width="15" height="16" fill="#A8C3CA" class="highcharts-point"/>
      <rect x="300" y="90" width="15" height="14" fill="#A8C3CA" class="highcharts-point"/>
      <rect x="341" y="88" width="15" height="16" fill="#A8C3CA" class="highcharts-point"/>
      <rect x="382" y="88" width="15" height="16" fill="#A8C3CA" class="highcharts-point"/>
    </g>
    <g class="highcharts-markers highcharts-series-3 highcharts-column-series " transform="translate(62,174) scale(1 1)" clip-path="none"/>
    <g class="highcharts-series highcharts-series-4 highcharts-column-series " transform="translate(62,174) scale(1 1)" clip-path="url(#a)">
      <rect x="16" y="161" width="15" height="5" fill="#007A2F" class="highcharts-point highcharts-negative"/>
      <rect x="57" y="160" width="15" height="6" fill="#007A2F" class="highcharts-point highcharts-negative"/>
      <rect x="98" y="159" width="15" height="5" fill="#007A2F" class="highcharts-point highcharts-negative"/>
      <rect x="138" y="158" width="15" height="14" fill="#007A2F" class="highcharts-point highcharts-negative"/>
      <rect x="179" y="161" width="15" height="7" fill="#007A2F" class="highcharts-point highcharts-negative"/>
      <rect x="219" y="159" width="15" height="8" fill="#007A2F" class="highcharts-point highcharts-negative"/>
      <rect x="260" y="164" width="15" height="8" fill="#007A2F" class="highcharts-point highcharts-negative"/>
      <rect x="300" y="162" width="15" height="7" fill="#007A2F" class="highcharts-point highcharts-negative"/>
      <rect x="341" y="166" width="15" height="7" fill="#007A2F" class="highcharts-point highcharts-negative"/>
      <rect x="382" y="168" width="15" height="7" fill="#007A2F" class="highcharts-point highcharts-negative"/>
    </g>
    <g class="highcharts-markers highcharts-series-4 highcharts-column-series " transform="translate(62,174) scale(1 1)" clip-path="none"/>
    <g class="highcharts-series highcharts-series-5 highcharts-column-series " transform="translate(62,174) scale(1 1)" clip-path="url(#a)">
      <rect x="16" y="141" width="15" height="20" fill="#68AB2B" class="highcharts-point highcharts-negative"/>
      <rect x="57" y="140" width="15" height="20" fill="#68AB2B" class="highcharts-point highcharts-negative"/>
      <rect x="98" y="139" width="15" height="20" fill="#68AB2B" class="highcharts-point highcharts-negative"/>
      <rect x="138" y="138" width="15" height="20" fill="#68AB2B" class="highcharts-point highcharts-negative"/>
      <rect x="179" y="139" width="15" height="22" fill="#68AB2B" class="highcharts-point highcharts-negative"/>
      <rect x="219" y="137" width="15" height="22" fill="#68AB2B" class="highcharts-point highcharts-negative"/>
      <rect x="260" y="140" width="15" height="24" fill="#68AB2B" class="highcharts-point highcharts-negative"/>
      <rect x="300" y="139" width="15" height="23" fill="#68AB2B" class="highcharts-point highcharts-negative"/>
      <rect x="341" y="141" width="15" height="25" fill="#68AB2B" class="highcharts-point highcharts-negative"/>
      <rect x="382" y="142" width="15" height="26" fill="#68AB2B" class="highcharts-point highcharts-negative"/>
    </g>
    <g class="highcharts-markers highcharts-series-5 highcharts-column-series " transform="translate(62,174) scale(1 1)" clip-path="none"/>
    <g class="highcharts-series highcharts-series-6 highcharts-column-series " transform="translate(62,174) scale(1 1)" clip-path="url(#a)">
      <rect x="16" y="125" width="15" height="16" fill="#73B97C" class="highcharts-point highcharts-negative"/>
      <rect x="57" y="124" width="15" height="16" fill="#73B97C" class="highcharts-point highcharts-negative"/>
      <rect x="98" y="124" width="15" height="15" fill="#73B97C" class="highcharts-point highcharts-negative"/>
      <rect x="138" y="123" width="15" height="15" fill="#73B97C" class="highcharts-point highcharts-negative"/>
      <rect x="179" y="124" width="15" height="15" fill="#73B97C" class="highcharts-point highcharts-negative"/>
      <rect x="219" y="123" width="15" height="14" fill="#73B97C" class="highcharts-point highcharts-negative"/>
      <rect x="260" y="125" width="15" height="15" fill="#73B97C" class="highcharts-point highcharts-negative"/>
      <rect x="300" y="124" width="15" height="15" fill="#73B97C" class="highcharts-point highcharts-negative"/>
      <rect x="341" y="125" width="15" height="16" fill="#73B97C" class="highcharts-point highcharts-negative"/>
      <rect x="382" y="126" width="15" height="16" fill="#73B97C" class="highcharts-point highcharts-negative"/>
    </g>
    <g class="highcharts-markers highcharts-series-6 highcharts-column-series " transform="translate(62,174) scale(1 1)" clip-path="none"/>
    <g class="highcharts-series highcharts-series-7 highcharts-column-series " transform="translate(62,174) scale(1 1)" clip-path="url(#a)">
      <rect x="16" y="104" width="15" height="21" fill="#D7E8D2" class="highcharts-point highcharts-negative"/>
      <rect x="57" y="104" width="15" height="20" fill="#D7E8D2" class="highcharts-point highcharts-negative"/>
      <rect x="98" y="104" width="15" height="20" fill="#D7E8D2" class="highcharts-point highcharts-negative"/>
      <rect x="138" y="104" width="15" height="19" fill="#D7E8D2" class="highcharts-point highcharts-negative"/>
      <rect x="179" y="104" width="15" height="20" fill="#D7E8D2" class="highcharts-point highcharts-negative"/>
      <rect x="219" y="104" width="15" height="19" fill="#D7E8D2" class="highcharts-point highcharts-negative"/>
      <rect x="260" y="104" width="15" height="21" fill="#D7E8D2" class="highcharts-point highcharts-negative"/>
      <rect x="300" y="104" width="15" height="20" fill="#D7E8D2" class="highcharts-point highcharts-negative"/>
      <rect x="341" y="104" width="15" height="21" fill="#D7E8D2" class="highcharts-point highcharts-negative"/>
      <rect x="382" y="104" width="15" height="22" fill="#D7E8D2" class="highcharts-point highcharts-negative"/>
    </g>
    <g class="highcharts-markers highcharts-series-7 highcharts-column-series " transform="translate(62,174) scale(1 1)" clip-path="none"/>
    <g class="highcharts-series highcharts-series-8 highcharts-line-series " transform="translate(62,174) scale(1 1)" clip-path="url(#a)">
      <path fill="none" d="M 23.936149312374 99.635125 L 64.505893909624 92.07575 L 105.07563850687 93.96175 L 145.64538310412 101.152125 L 186.21512770137 93.9515 L 226.78487229863 93.59275 L 267.35461689588 92.767625 L 307.92436149313 98.435875 L 348.49410609038 98.851 L 389.06385068763 97.87724999999999" class="highcharts-graph" stroke="#000000" stroke-width="2" stroke-linejoin="round" stroke-linecap="round"/>
    </g>
    <g class="highcharts-markers highcharts-series-8 highcharts-line-series " transform="translate(62,174) scale(1 1)" clip-path="none"/>
    <path fill="none" stroke="white" stroke-width="2" d="M 62 277 L 475 277"/>
    <g class="highcharts-series highcharts-series-0 highcharts-column-series " transform="translate(62,174) scale(1 1)" clip-path="url(#a)">
      <rect x="16" y="38" width="15" height="1" fill="#083038" class="highcharts-point"/>
      <rect x="57" y="31" width="15" height="1" fill="#083038" class="highcharts-point"/>
      <rect x="98" y="34" width="15" height="1" fill="#083038" class="highcharts-point"/>
      <rect x="138" y="34" width="15" height="1" fill="#083038" class="highcharts-point"/>
      <rect x="179" y="30" width="15" height="1" fill="#083038" class="highcharts-point"/>
      <rect x="219" y="31" width="15" height="1" fill="#083038" class="highcharts-point"/>
      <rect x="260" y="25" width="15" height="1" fill="#083038" class="highcharts-point"/>
      <rect x="300" y="34" width="15" height="0" fill="#083038" class="highcharts-point"/>
      <rect x="341" y="30" width="15" height="1" fill="#083038" class="highcharts-point"/>
      <rect x="382" y="27" width="15" height="1" fill="#083038" class="highcharts-point"/>
    </g>
    <g class="highcharts-markers highcharts-series-0 highcharts-column-series " transform="translate(62,174) scale(1 1)" clip-path="none"/>
  </g>
  <text x="10" text-anchor="start" class="highcharts-title" style="color:#000000;font-size:14px;font-weight:bold;fill:#000000;" y="21">
    <tspan>Zu- und Weggezogene nach Zuzugsort und Wegzugsort</tspan>
  </text>
  <text x="10" text-anchor="start" class="highcharts-subtitle" style="color:#000000;font-size:12px;font-weight:normal;font-family:Arial;fill:#000000;" y="40"/>
  <g class="highcharts-plot-lines-4"/>
  <g class="highcharts-legend" transform="translate(54,56)">
    <rect fill="none" class="highcharts-legend-box" rx="0" ry="0" x="0" y="0" width="396" height="106" visibility="visible"/>
    <g>
      <g>
        <g class="highcharts-legend-item highcharts-column-series highcharts-color-undefined highcharts-series-0" transform="translate(8,3)">
          <text x="21" style="color:#333333;font-size:12px;font-weight:normal;cursor:pointer;fill:#333333;" text-anchor="start" y="15">
            <tspan>Zuzugsort: unbekannt</tspan>
          </text>
          <rect x="2" y="4" width="12" height="12" fill="#083038" class="highcharts-point"/>
        </g>
        <g class="highcharts-legend-item highcharts-column-series highcharts-color-undefined highcharts-series-4" transform="translate(208,3)">
          <text x="21" y="15" style="color:#333333;font-size:12px;font-weight:normal;cursor:pointer;fill:#333333;" text-anchor="start">
            <tspan>Wegzugsort: unbekannt</tspan>
          </text>
          <rect x="2" y="4" width="12" height="12" fill="#007A2F" class="highcharts-point"/>
        </g>
        <g class="highcharts-legend-item highcharts-column-series highcharts-color-undefined highcharts-series-1" transform="translate(8,22)">
          <text x="21" y="15" style="color:#333333;font-size:12px;font-weight:normal;cursor:pointer;fill:#333333;" text-anchor="start">
            <tspan>Zuzugsort: Ausland</tspan>
          </text>
          <rect x="2" y="4" width="12" height="12" fill="#246370" class="highcharts-point"/>
        </g>
        <g class="highcharts-legend-item highcharts-column-series highcharts-color-undefined highcharts-series-5" transform="translate(208,22)">
          <text x="21" y="15" style="color:#333333;font-size:12px;font-weight:normal;cursor:pointer;fill:#333333;" text-anchor="start">
            <tspan>Wegzugsort: Ausland</tspan>
          </text>
          <rect x="2" y="4" width="12" height="12" fill="#68AB2B" class="highcharts-point"/>
        </g>
        <g class="highcharts-legend-item highcharts-column-series highcharts-color-undefined highcharts-series-2" transform="translate(8,41)">
          <text x="21" y="15" style="color:#333333;font-size:12px;font-weight:normal;cursor:pointer;fill:#333333;" text-anchor="start">
            <tspan>Zuzugsort: übrige Schweiz</tspan>
          </text>
          <rect x="2" y="4" width="12" height="12" fill="#689199" class="highcharts-point"/>
        </g>
        <g class="highcharts-legend-item highcharts-column-series highcharts-color-undefined highcharts-series-6" transform="translate(208,41)">
          <text x="21" y="15" style="color:#333333;font-size:12px;font-weight:normal;cursor:pointer;fill:#333333;" text-anchor="start">
            <tspan>Wegzugsort: übrige Schweiz</tspan>
          </text>
          <rect x="2" y="4" width="12" height="12" fill="#73B97C" class="highcharts-point"/>
        </g>
        <g class="highcharts-legend-item highcharts-column-series highcharts-color-undefined highcharts-series-3" transform="translate(8,60)">
          <text x="21" y="15" style="color:#333333;font-size:12px;font-weight:normal;cursor:pointer;fill:#333333;" text-anchor="start">
            <tspan>Zuzugsort: Schweizer Aggl…</tspan><title>Zuzugsort: Schweizer Agglo BS</title>
          </text>
          <rect x="2" y="4" width="12" height="12" fill="#A8C3CA" class="highcharts-point"/>
        </g>
        <g class="highcharts-legend-item highcharts-column-series highcharts-color-undefined highcharts-series-7" transform="translate(208,60)">
          <text x="21" y="15" style="color:#333333;font-size:12px;font-weight:normal;cursor:pointer;fill:#333333;" text-anchor="start">
            <tspan>Wegzugsort: Schweizer Ag…</tspan><title>Wegzugsort: Schweizer Agglo BS</title>
          </text>
          <rect x="2" y="4" width="12" height="12" fill="#D7E8D2" class="highcharts-point"/>
        </g>
        <g class="highcharts-legend-item highcharts-line-series highcharts-color-undefined highcharts-series-8" transform="translate(8,79)">
          <path fill="none" d="M 0 11 L 16 11" class="highcharts-graph" stroke="#000000" stroke-width="2"/>
          <text x="21" y="15" style="color:#333333;font-size:12px;font-weight:normal;cursor:pointer;fill:#333333;" text-anchor="start">
            <tspan>Saldo</tspan>
          </text>
        </g>
      </g>
    </g>
  </g>
  <g class="highcharts-axis-labels highcharts-xaxis-labels ">
    <text x="85.93614931237428" style="color:#000000;cursor:default;font-size:11px;fill:#000000;" text-anchor="middle" transform="translate(0,0)" y="398" opacity="1">
      2007
    </text>
    <text x="126.50589390962443" style="color:#000000;cursor:default;font-size:11px;fill:#000000;" text-anchor="middle" transform="translate(0,0)" y="398" opacity="1">
      2008
    </text>
    <text x="167.0756385068746" style="color:#000000;cursor:default;font-size:11px;fill:#000000;" text-anchor="middle" transform="translate(0,0)" y="398" opacity="1">
      2009
    </text>
    <text x="207.64538310412476" style="color:#000000;cursor:default;font-size:11px;fill:#000000;" text-anchor="middle" transform="translate(0,0)" y="398" opacity="1">
      2010
    </text>
    <text x="248.21512770137494" style="color:#000000;cursor:default;font-size:11px;fill:#000000;" text-anchor="middle" transform="translate(0,0)" y="398" opacity="1">
      2011
    </text>
    <text x="288.7848722986251" style="color:#000000;cursor:default;font-size:11px;fill:#000000;" text-anchor="middle" transform="translate(0,0)" y="398" opacity="1">
      2012
    </text>
    <text x="329.35461689587527" style="color:#000000;cursor:default;font-size:11px;fill:#000000;" text-anchor="middle" transform="translate(0,0)" y="398" opacity="1">
      2013
    </text>
    <text x="369.92436149312545" style="color:#000000;cursor:default;font-size:11px;fill:#000000;" text-anchor="middle" transform="translate(0,0)" y="398" opacity="1">
      2014
    </text>
    <text x="410.49410609037557" style="color:#000000;cursor:default;font-size:11px;fill:#000000;" text-anchor="middle" transform="translate(0,0)" y="398" opacity="1">
      2015
    </text>
    <text x="451.06385068762575" style="color:#000000;cursor:default;font-size:11px;fill:#000000;" text-anchor="middle" transform="translate(0,0)" y="398" opacity="1">
      2016
    </text>
  </g>
  <g class="highcharts-axis-labels highcharts-yaxis-labels ">
    <text x="47" style="color:#000000;cursor:default;font-size:11px;fill:#000000;" text-anchor="end" transform="translate(0,0)" y="384" opacity="1">
      <tspan>-20 000</tspan>
    </text>
    <text x="47" style="color:#000000;cursor:default;font-size:11px;fill:#000000;" text-anchor="end" transform="translate(0,0)" y="332" opacity="1">
      <tspan>-10 000</tspan>
    </text>
    <text x="47" style="color:#000000;cursor:default;font-size:11px;fill:#000000;" text-anchor="end" transform="translate(0,0)" y="281" opacity="1">
      <tspan>0</tspan>
    </text>
    <text x="47" style="color:#000000;cursor:default;font-size:11px;fill:#000000;" text-anchor="end" transform="translate(0,0)" y="230" opacity="1">
      <tspan>10 000</tspan>
    </text>
    <text x="47" style="color:#000000;cursor:default;font-size:11px;fill:#000000;" text-anchor="end" transform="translate(0,0)" y="179" opacity="1">
      <tspan>20 000</tspan>
    </text>
  </g>
  <text x="10" class="highcharts-credits" text-anchor="start" style="cursor:default;color:#000000;font-size:10px;fill:#000000;" y="400">
    <tspan>Quelle: Statistisches Amt Basel-Stadt, Bevölkerungsstatistik</tspan>
  </text>
</svg>
