<?xml version="1.0" standalone="no"?>
<!DOCTYPE svg PUBLIC "-//W3C//DTD SVG 1.1//EN" "http://www.w3.org/Graphics/SVG/1.1/DTD/svg11.dtd">
<svg xmlns:xlink="http://www.w3.org/1999/xlink" version="1.1" class="highcharts-root" style="font-family:Arial;font-size:12px;" xmlns="http://www.w3.org/2000/svg" viewBox="0 0 485 415">
  <desc>
    Created with Highstock 6.0.4
  </desc>
  <defs>
    <linearGradient x1="0" y1="0" x2="1" y2="0" id="b">
      <stop offset="0" stop-color="#FFDA80" stop-opacity="1"/>
      <stop offset="1" stop-color="#45381D" stop-opacity="1"/>
    </linearGradient>
    <clipPath id="a">
      <rect x="0" y="0" width="465" height="298" fill="none"/>
    </clipPath>
  </defs>
  <rect fill="#fbfbfb" class="highcharts-background" x="0" y="0" width="485" height="415" rx="0" ry="0"/>
  <rect fill="none" class="highcharts-plot-background" x="10" y="72" width="465" height="298"/>
  <g class="highcharts-pane-group"/>
  <rect fill="none" class="highcharts-plot-border" x="10" y="72" width="465" height="298"/>
  <g class="highcharts-series-group">
    <g class="highcharts-series highcharts-series-0 highcharts-map-series highcharts-color-0 " transform="translate(10,72) scale(1 1)">
      <g transform="translate(0,0) scale(1 1)">
        <path fill="rgb(115,96,54)" d="M 161.99437894620564 165.16967508469546 L 161.14716761409954 164.67060810606793 160.72018699572175 165.1303880183578 159.71556526603342 164.44383097002003 157.09139238718646 162.45332996432163 155.7779133703649 160.48271824074197 153.30669464136224 159.3993913122778 148.72275575951613 155.5704915210033 143.98740275460597 149.371031772864 140.1182329011865 143.24739376910614 137.68702210212012 145.32334987822992 135.38874510467872 149.80174777536587 133.5717100949666 161.16645736772793 133.83321975003122 162.03434437862452 141.17390488053474 166.17524704367352 143.2379995067456 170.46055179492078 152.6176473369392 172.39800379278145 159.67178918544033 169.21637398350703 161.99437894620564 165.16967508469546 Z" stroke="#fbfbfb" stroke-width="1" vector-effect="non-scaling-stroke" class="highcharts-point highcharts-color-0"/>
        <path fill="rgb(89,74,40)" d="M 127.94153599365016 125.93618202003864 L 130.74100979400504 129.6927005523144 128.20379927884613 131.37748985749786 130.1348618038795 133.72780010042933 128.55967653279674 135.07234178523197 130.28195074530612 137.07775156089386 126.01771487118143 142.17114441055043 123.79892946916476 149.18111698013402 125.39134993365535 151.80584688993108 126.35724162795606 161.97470929877815 127.36287911999202 163.27819452475646 135.4483146514672 166.2336042289483 139.0230444898018 175.04062422653467 137.37488816222987 178.3318908364426 139.8648821114206 179.47380431588033 140.71156917910938 181.09256906837487 140.87015917165724 181.48904404975983 141.38659240980076 182.8080278431921 143.93920212463365 189.43997024342406 143.93920319282296 189.43997298630464 144.06165170567442 189.30490936041656 145.14455266927374 188.4768992133481 147.1100855811075 188.5770337210458 151.35059848942166 190.97033364791386 160.8690453296274 181.4884214857366 161.2512341050797 181.35191613264368 161.66982649244474 181.2427380633925 162.45294649698945 181.05662418783683 179.96806434598577 176.13115979103068 180.07698028302067 176.1207400353226 181.39337552078467 176.15429295936602 182.30271218883763 172.54954898194603 183.36277488285828 172.79762436079238 183.428996034698 172.4262157728627 182.7891968209384 166.64918209579554 171.39804464098935 167.31008295319518 166.02380988508423 166.55635452371268 161.99437894620564 165.16967508469546 159.67178918544033 169.21637398350703 152.6176473369392 172.39800379278145 143.2379995067456 170.46055179492078 141.17390488053474 166.17524704367352 133.83321975003122 162.03434437862452 133.5717100949666 161.16645736772793 135.38874510467872 149.80174777536587 137.68702210212012 145.32334987822992 140.1182329011865 143.24739376910614 134.02664056120935 132.62753287730638 134.28398886730037 132.2040582773615 133.72944815780008 130.49187615527836 133.29837172349892 130.63044579959936 131.98771062802152 123.47263065845013 127.94153599365016 125.93618202003864 Z" stroke="#fbfbfb" stroke-width="1" vector-effect="non-scaling-stroke" class="highcharts-point highcharts-color-0"/>
        <path fill="rgb(109,91,50)" d="M 127.94153599365016 125.93618202003864 L 130.74100979400504 129.6927005523144 128.20379927884613 131.37748985749786 130.1348618038795 133.72780010042933 128.55967653279674 135.07234178523197 130.28195074530612 137.07775156089386 126.01771487118143 142.17114441055043 123.79892946916476 149.18111698013402 125.39134993365535 151.80584688993108 126.35724162795606 161.97470929877815 127.36287911999202 163.27819452475646 135.4483146514672 166.2336042289483 139.0230444898018 175.04062422653467 137.37488816222987 178.3318908364426 139.8648821114206 179.47380431588033 140.71156917910938 181.09256906837487 140.87015917165724 181.48904404975983 141.38659240980076 182.8080278431921 143.93920212463365 189.43997024342406 143.93920319282296 189.43997298630464 143.44285583596422 189.98743612588885 141.70183916978425 190.6573150117841 141.67533104913176 190.64781271884831 136.87837697273784 189.81763998096878 131.75313505845895 187.67844447398272 130.28378567085065 186.79745085213443 130.5695097896562 186.33187126449243 122.52785033877409 181.26210308107866 118.29778995270078 176.6123034791769 115.5655858330813 172.39577566892012 113.42507966499093 167.08422327991192 111.98718614367289 160.24889630131077 108.6553873393961 142.7569116206498 109.32867394414126 142.81867652477445 114.1393571955025 138.16589516887998 119.34762949017939 131.94376098379527 127.94153599365016 125.93618202003864 Z" stroke="#fbfbfb" stroke-width="1" vector-effect="non-scaling-stroke" class="highcharts-point highcharts-color-0"/>
        <path fill="rgb(168,142,82)" d="M 216.92670848027035 158.30692252266954 L 216.4067364571688 168.11043815114772 217.04764973285907 170.6504010546005 218.8400770805135 173.1264036965924 226.38748623228244 179.32917286399092 228.29610368605387 182.3419895241678 229.4532208341889 185.80039819027726 229.7311792860125 188.55779976946778 228.6141028343465 213.76915233763646 214.01668041651735 206.38213533741194 214.09086383452026 203.91737161431737 219.7495775811845 203.92071380010935 219.84732013237996 204.8040993784599 221.72441618679565 204.7285397663024 220.4497327383967 195.1471156604583 221.8266805187793 191.50767193053142 221.89322933590083 189.19917177654037 223.5313263395488 186.69620228250605 222.94788555290143 185.20158990228407 218.41794590819046 184.02940015153703 213.66781519943257 181.47534764131 209.5064334547591 176.2749393132057 208.22647459544058 173.18849626599123 207.10028904914796 172.0163720483021 197.22075507713757 172.05248076148865 196.24503342461165 170.96587718028277 189.9301044339616 172.63356235816656 183.428996034698 172.4262157728627 182.7891968209384 166.64918209579554 189.04226260788838 166.04925974587167 196.6902977652777 163.9849685204948 201.1401560170506 162.03857126065603 204.1809225250848 161.36358079648213 210.83252758463254 158.21760096901195 215.74757222572302 157.3982739516977 216.92670848027035 158.30692252266954 Z" stroke="#fbfbfb" stroke-width="1" vector-effect="non-scaling-stroke" class="highcharts-point highcharts-color-0"/>
        <path fill="rgb(174,148,85)" d="M 141.72860942266828 190.66694837083568 L 153.1909960331603 197.14731555826614 155.34909782644257 194.04733993524277 158.16701918171896 197.2732373230101 156.70962957661425 200.09332126909757 160.109418925225 202.32383708790374 166.638018440956 204.51031469390816 170.5144624634728 206.48089365095507 170.5430031049306 206.51250037270148 170.55148863941633 206.52371950225077 170.60473424642012 206.53862827221425 170.74825163637124 206.56225293845708 170.53569517322097 210.23554449116878 178.05200889051423 215.5058110556691 183.5150081690887 233.0518932730406 183.50363818408323 234.27287238306113 184.14569828823693 235.35236562782583 186.9882600721038 257.4096778027781 187.15232207473724 256.23752081856384 188.11582181254335 256.1030469901738 188.0545156398086 255.39568319694504 195.85386662066372 240.64543769538736 198.41204771333923 238.3984730798222 199.06534673638262 239.91726715726756 201.2695838002351 239.06654980672096 200.399141000203 237.19702282012875 204.53113116979904 233.35672027732366 205.3119902839649 227.99487126877926 206.58143108797708 225.7238232555966 208.31559954993975 224.5116911079712 215.0129466817104 222.05787140501727 217.97215730309182 219.51525441284596 221.17036697521047 221.15593997216217 228.18630305277185 223.23887535162663 228.6141028343465 213.76915233763646 214.01668041651735 206.38213533741194 214.09086383452026 203.91737161431737 219.7495775811845 203.92071380010935 219.84732013237996 204.8040993784599 221.72441618679565 204.7285397663024 220.4497327383967 195.1471156604583 221.8266805187793 191.50767193053142 221.89322933590083 189.19917177654037 223.5313263395488 186.69620228250605 222.94788555290143 185.20158990228407 218.41794590819046 184.02940015153703 213.66781519943257 181.47534764131 209.5064334547591 176.2749393132057 208.22647459544058 173.18849626599123 207.10028904914796 172.0163720483021 197.22075507713757 172.05248076148865 196.24503342461165 170.96587718028277 189.9301044339616 172.63356235816656 183.428996034698 172.4262157728627 183.36277488285828 172.79762436079238 182.30271218883763 172.54954898194603 181.39337552078467 176.15429295936602 180.07698028302067 176.1207400353226 179.96806434598577 176.13115979103068 162.45294649698945 181.05662418783683 161.66982649244474 181.2427380633925 161.2512341050797 181.35191613264368 160.8690453296274 181.4884214857366 151.35059848942166 190.97033364791386 147.1100855811075 188.5770337210458 145.14455266927374 188.4768992133481 144.06165170567442 189.30490936041656 143.93920212463365 189.43997024342406 143.44285583596422 189.98743612588885 141.70183916978425 190.6573150117841 141.72860942266828 190.66694837083568 Z" stroke="#fbfbfb" stroke-width="1" vector-effect="non-scaling-stroke" class="highcharts-point highcharts-color-0"/>
        <path fill="rgb(149,125,71)" d="M 141.67533104913176 190.64781271884831 L 141.72860942266828 190.66694837083568 153.1909960331603 197.14731555826614 155.34909782644257 194.04733993524277 158.16701918171896 197.2732373230101 156.70962957661425 200.09332126909757 160.109418925225 202.32383708790374 166.638018440956 204.51031469390816 170.5144624634728 206.48089365095507 170.5430031049306 206.51250037270148 170.55148863941633 206.52371950225077 170.60473424642012 206.53862827221425 170.74825163637124 206.56225293845708 170.53569517322097 210.23554449116878 178.05200889051423 215.5058110556691 183.5150081690887 233.0518932730406 183.50363818408323 234.27287238306113 141.72421870799587 215.66787430012477 127.42798620991631 208.68850566712467 126.17551846708044 209.186130918555 123.96046844918784 208.65724640000045 119.542557561605 208.9316333003333 120.52348909198497 201.7422639933184 121.14887103369617 200.31868944446578 129.79979129481228 192.56694822789558 130.94793041445166 190.889007126937 129.73399610782212 189.7067908188216 131.75313505845895 187.67844447398272 136.87837697273784 189.81763998096878 141.67533104913176 190.64781271884831 Z" stroke="#fbfbfb" stroke-width="1" vector-effect="non-scaling-stroke" class="highcharts-point highcharts-color-0"/>
        <path fill="rgb(192,163,94)" d="M 141.72421870799587 215.66787430012477 L 183.50363818408323 234.27287238306113 184.14569828823693 235.35236562782583 186.9882600721038 257.4096778027781 186.90768718126589 259.73246416270945 184.62422065418974 259.68246244192227 184.84516534836803 261.52846306184705 177.6325973399523 275.9111664256996 160.43538033966558 298 149.2433175801158 296.21009567496355 146.92593769720452 284.68155344567447 147.70715724315443 276.6577517522158 148.5000744393916 274.54172218009023 148.3934193927508 271.1286296213617 147.29705138638516 266.5817496819843 144.8373664750212 265.30913052480577 144.78058208305941 262.4604086337875 138.36587901653385 261.6714889538907 137.89839897028943 254.21333582271384 135.39837846372268 254.5725224959237 133.38077953988133 255.71227338455034 130.73242496382622 251.83602596120718 130.501748611021 250.05408390232634 138.44012796758705 232.05792066475917 138.56126581934177 230.8207221236861 137.4783976222447 229.14038906622528 137.35129626251978 227.77212441560445 141.72421870799587 215.66787430012477 Z" stroke="#fbfbfb" stroke-width="1" vector-effect="non-scaling-stroke" class="highcharts-point highcharts-color-0"/>
        <path fill="rgb(195,166,96)" d="M 129.73399610782212 189.7067908188216 L 130.94793041445166 190.889007126937 129.79979129481228 192.56694822789558 121.14887103369617 200.31868944446578 120.52348909198497 201.7422639933184 119.542557561605 208.9316333003333 113.17572639158064 208.2460264812929 85.98737262700499 201.9618652598596 71.5060420157098 205.97861555264367 64.2957021311554 206.92697715480276 71.33254325319841 177.70555866544166 77.47993698930722 179.99328484107446 77.66477297029131 179.5071278742326 109.19066133077797 174.0968171716813 115.5655858330813 172.39577566892012 118.29778995270078 176.6123034791769 122.52785033877409 181.26210308107866 130.5695097896562 186.33187126449243 130.28378567085065 186.79745085213443 131.75313505845895 187.67844447398272 129.73399610782212 189.7067908188216 Z" stroke="#fbfbfb" stroke-width="1" vector-effect="non-scaling-stroke" class="highcharts-point highcharts-color-0"/>
        <path fill="rgb(178,151,87)" d="M 88.99363598169073 160.13103510229774 L 85.65849499162195 160.3772755556072 81.92383173310999 168.30454705938408 77.66477297029131 179.5071278742326 109.19066133077797 174.0968171716813 115.5655858330813 172.39577566892012 113.42507966499093 167.08422327991192 111.98718614367289 160.24889630131077 107.1146396885963 158.81031468291158 92.03443525625768 159.90671545580997 88.99363598169073 160.13103510229774 Z" stroke="#fbfbfb" stroke-width="1" vector-effect="non-scaling-stroke" class="highcharts-point highcharts-color-0"/>
        <path fill="rgb(166,140,80)" d="M 88.99363598169073 160.13103510229774 L 85.65849499162195 160.3772755556072 74.04374402876847 147.90427094091635 71.20023201560423 142.710252085647 69.24187497326955 140.3034851160279 61.16463107364109 133.97102603322858 67.6642649791747 131.54282975468766 72.65935824667048 115.6553563871137 65.5693698172067 108.38767507963978 66.94861125451618 104.2475915777724 70.61420267328097 111.52199002336307 79.48862341770324 120.74645557985868 87.69909601769052 127.89578419041214 108.6553873393961 142.7569116206498 111.98718614367289 160.24889630131077 107.1146396885963 158.81031468291158 92.03443525625768 159.90671545580997 88.99363598169073 160.13103510229774 Z" stroke="#fbfbfb" stroke-width="1" vector-effect="non-scaling-stroke" class="highcharts-point highcharts-color-0"/>
        <path fill="rgb(156,132,75)" d="M 127.94153599365016 125.93618202003864 L 119.34762949017939 131.94376098379527 114.1393571955025 138.16589516887998 109.32867394414126 142.81867652477445 108.6553873393961 142.7569116206498 87.69909601769052 127.89578419041214 79.48862341770324 120.74645557985868 70.61420267328097 111.52199002336307 66.94861125451618 104.2475915777724 87.6653792610062 90.74519373868702 90.2520344659945 85.46090310047032 102.88874065151188 87.4693601631828 111.86627765761692 90.99638193764186 114.69786265481036 89.84781685314525 120.74957813096702 89.05512902259925 131.36632632323548 92.13122005791773 132.8476353727625 103.68210684812385 131.8231243609555 116.29007678912741 131.98771062802152 123.47263065845013 127.94153599365016 125.93618202003864 Z" stroke="#fbfbfb" stroke-width="1" vector-effect="non-scaling-stroke" class="highcharts-point highcharts-color-0"/>
        <path fill="rgb(139,117,66)" d="M 164.90935475561162 159.87811027739667 L 168.35167505676907 153.72367173788928 168.47454953447004 152.16221564179673 165.20739908872002 149.92386862293552 159.86147461247916 142.8585533886026 156.84063015309647 136.94858590993329 153.17061525312647 138.66961499440384 151.85926606058325 134.8140104833108 144.1669960912185 138.65644285039423 151.85146762705332 150.2560556775854 159.71540143340016 157.00592755276884 164.90935475561162 159.87811027739667 Z" stroke="#fbfbfb" stroke-width="1" vector-effect="non-scaling-stroke" class="highcharts-point highcharts-color-0"/>
        <path fill="rgb(131,110,62)" d="M 165.20739908872002 149.92386862293552 L 159.86147461247916 142.8585533886026 156.84063015309647 136.94858590993329 153.17061525312647 138.66961499440384 151.85926606058325 134.8140104833108 151.92535614632246 134.0997001862741 167.33771486678586 127.22482400911134 170.1783761920579 134.4621635122257 171.29981059187878 137.124411095889 173.3237334555201 141.89125273361452 165.20739908872002 149.92386862293552 Z" stroke="#fbfbfb" stroke-width="1" vector-effect="non-scaling-stroke" class="highcharts-point highcharts-color-0"/>
        <path fill="rgb(145,122,70)" d="M 165.20739908872002 149.92386862293552 L 173.3237334555201 141.89125273361452 191.65906301805498 128.63407958549857 192.3633795242408 128.2939302646931 193.99223636717684 130.25330306937545 200.03408911857554 140.78682416151034 206.77150971334794 154.1135278807405 184.61809331357108 160.51165108442183 174.78806956444038 161.49467967256263 170.14908291657875 161.20748106001187 164.90935475561162 159.87811027739667 168.35167505676907 153.72367173788928 168.47454953447004 152.16221564179673 165.20739908872002 149.92386862293552 Z" stroke="#fbfbfb" stroke-width="1" vector-effect="non-scaling-stroke" class="highcharts-point highcharts-color-0"/>
        <path fill="rgb(203,173,100)" d="M 175.06524161959987 96.8981250179393 L 175.16560549298876 97.45718750821248 176.29510045854062 97.76073661792395 180.25447656187242 103.75288254728451 182.04949246518748 109.11673031399908 184.46087951517015 113.99392961595673 184.13875178443664 114.16896840526358 191.65906301805498 128.63407958549857 192.3633795242408 128.2939302646931 193.99223636717684 130.25330306937545 200.03408911857554 140.78682416151034 206.77150971334794 154.1135278807405 223.9400560021711 148.38682358974228 243.6010864962626 140.19509344342558 254.13075975807888 141.07146580761795 254.13077390469041 141.07146698491795 257.1572214402592 129.2742392310575 250.23168821176094 120.54019028996036 242.61006287545635 126.08828424016855 236.29945906641322 117.13211100991222 235.8087475522733 116.43569123683172 236.37750893465596 116.03492384036498 234.49795539068015 113.36736807926461 231.99727955356505 116.92053754257685 230.75211874634402 117.03541698759716 228.87151667348778 114.47559756855077 227.08429920370264 110.53768354065834 225.71662435056464 105.90597106187879 224.1797103834872 100.70005795717138 230.54323213425232 93.57605787228185 239.4849225593947 86.32187637409173 233.3774056871064 78.79448757054207 220.060105961229 88.10178690827729 214.07002432310415 85.16518519080628 205.42840975576544 83.44848128795023 196.0756304780236 83.37898348336114 184.9124677956209 84.52125739459818 180.36686575081507 85.3868179820504 179.60288139825778 90.63637610123513 175.34919634594166 94.21710221408027 174.67096199555874 95.66718488359304 175.06524161959987 96.8981250179393 Z" stroke="#fbfbfb" stroke-width="1" vector-effect="non-scaling-stroke" class="highcharts-point highcharts-color-0"/>
        <path fill="rgb(79,65,34)" d="M 175.06524161959987 96.8981250179393 L 175.16560549298876 97.45718750821248 176.29510045854062 97.76073661792395 180.25447656187242 103.75288254728451 182.04949246518748 109.11673031399908 184.46087951517015 113.99392961595673 184.13875178443664 114.16896840526358 191.65906301805498 128.63407958549857 173.3237334555201 141.89125273361452 171.29981059187878 137.124411095889 170.1783761920579 134.4621635122257 167.33771486678586 127.22482400911134 166.88022861139996 118.99773877974707 167.15366528245062 111.65708641577629 167.9326567045392 106.21695817330561 168.98777165293734 100.22917019209234 168.28302918188672 98.86015191134015 168.58116963758243 96.55707145303627 168.58117181459338 96.55705823436155 169.3996796687184 96.58317315668961 174.82643916801342 96.15262098682865 175.06524161959987 96.8981250179393 Z" stroke="#fbfbfb" stroke-width="1" vector-effect="non-scaling-stroke" class="highcharts-point highcharts-color-0"/>
        <path fill="rgb(140,118,67)" d="M 167.9326567045392 106.21695817330561 L 167.15366528245062 111.65708641577629 166.88022861139996 118.99773877974707 167.33771486678586 127.22482400911134 151.92535614632246 134.0997001862741 151.85926606058325 134.8140104833108 144.1669960912185 138.65644285039423 141.3008751741591 132.33260136429885 139.08100847674456 123.43648917874606 138.7451515710285 115.94940320388173 139.44864891403267 110.62418717295648 160.86291798900874 110.8879249518977 160.84781261989446 109.310347724328 166.57812122890095 106.13153583641301 167.9326567045392 106.21695817330561 Z" stroke="#fbfbfb" stroke-width="1" vector-effect="non-scaling-stroke" class="highcharts-point highcharts-color-0"/>
        <path fill="rgb(176,149,86)" d="M 167.9326567045392 106.21695817330561 L 166.57812122890095 106.13153583641301 160.84781261989446 109.310347724328 160.86291798900874 110.8879249518977 139.44864891403267 110.62418717295648 139.74439959022948 103.82595190335677 138.28635465456114 91.04694068939433 138.14791607634828 79.82145607190924 139.4761727970328 70.34275502941584 140.80826320142444 66.92133977272482 151.78075746095817 70.48863160934407 155.3277012840611 72.66580352156345 158.19709885386226 76.99131280191301 160.02832176993928 81.04289391331207 164.65708526125889 94.42287600607114 166.0557572492895 95.87902048314469 167.87485655022974 96.53454763004942 168.58117181459338 96.55705823436155 168.58116963758243 96.55707145303627 168.28302918188672 98.86015191134015 168.98777165293734 100.22917019209234 167.9326567045392 106.21695817330561 Z" stroke="#fbfbfb" stroke-width="1" vector-effect="non-scaling-stroke" class="highcharts-point highcharts-color-0"/>
        <path fill="rgb(178,151,87)" d="M 167.87485655022974 96.53454763004942 L 166.0557572492895 95.87902048314469 164.65708526125889 94.42287600607114 160.02832176993928 81.04289391331207 158.19709885386226 76.99131280191301 155.3277012840611 72.66580352156345 151.78075746095817 70.48863160934407 140.80826320142444 66.92133977272482 141.1112225136378 61.68462613227553 144.91898789475476 50.69555200988229 149.14193794437926 41.903014817394606 155.9475784491692 44.13641409061809 169.01346061040823 48.97822554300303 184.6952257190492 58.81493366372534 184.12895459274415 66.5400684600524 182.84509651666832 71.92007012476927 184.42375503964357 72.50973655161832 184.59767976701977 75.30383664148587 186.00752514088984 77.19931471776522 184.9124677956209 84.52125739459818 180.36686575081507 85.3868179820504 179.60288139825778 90.63637610123513 175.34919634594166 94.21710221408027 174.67096199555874 95.66718488359304 174.82643916801342 96.15262098682865 169.3996796687184 96.58317315668961 168.58116963758243 96.55707145303627 167.87485655022974 96.53454763004942 Z" stroke="#fbfbfb" stroke-width="1" vector-effect="non-scaling-stroke" class="highcharts-point highcharts-color-0"/>
        <path fill="rgb(208,177,103)" d="M 235.8087475522733 116.43569123683172 L 236.37750893465596 116.03492384036498 234.49795539068015 113.36736807926461 231.99727955356505 116.92053754257685 230.75211874634402 117.03541698759716 228.87151667348778 114.47559756855077 227.08429920370264 110.53768354065834 225.71662435056464 105.90597106187879 224.1797103834872 100.70005795717138 230.54323213425232 93.57605787228185 239.4849225593947 86.32187637409173 233.3774056871064 78.79448757054207 241.9281259074669 71.67287944216241 256.87919745538534 55.2667774791011 262.60980096314086 46.09362430449698 270.4617094539339 38.813032985229746 279.34972830722296 35.232831136817175 275.92657642457044 29.53479755729016 275.7331556134076 24.85567191337647 282.1795111454046 19.197121999345523 285.2843362144828 14.761255054756216 298.57244096444873 19.239095920926843 308.45285963270624 20.38192686312921 324.79827798704844 26.505401034253797 332.03024377966784 30.262050632637685 338.71674519088083 32.86502356826158 358.04214814495504 32.675305374690005 358.8376211303201 28.801843106165897 361.98874530260167 24.169934028227946 365.1355442932611 20.36318440946626 369.19901965409053 16.69523380071673 371.50850280390415 13.651583838272847 373.7078248886516 13.13115308378134 377.2873386399754 8.894473859181911 381.7454540566606 7.883036691801459 389.54657442999473 8.442361314298571 392.82080244566083 7.575817731023817 398.5381027432986 4.847774960370341 402.68293739164534 0 403.8353689263589 0.5162038724523662 401.98717294910557 5.198901067849222 399.3796782327011 8.16381306497687 394.9053761514885 12.204155257478607 381.5161211314848 15.646934290025978 378.88359278815784 17.8938989055835 374.79695149245265 24.321217085168602 368.9087082214466 31.677826747975658 363.49400680422286 34.918206940849295 349.64120372126484 49.86816442682943 350.46967259971564 57.26451988735647 357.5474718809923 60.906716005577245 372.14856414988003 66.5095300565268 373.41112398315744 72.66105237509174 372.06550100296454 72.1841028024519 366.79389101084234 75.78671695558597 366.3873567055486 78.64782459395737 364.49007647026514 83.15744899170004 363.81708476426905 87.22282481112428 363.4982664527948 91.03403067760864 364.2663138547427 96.15366951570142 363.58205046330886 96.92387950846042 363.22349100565424 96.89124712986016 362.6639651324591 96.84032486362221 359.7230709998987 98.92781479039235 357.45903502357424 98.25423328689816 352.2341500995051 97.97771656227938 349.6420228844617 99.27966176146984 345.90899795231303 99.73914677501828 337.5994393735161 96.53756215056724 337.63725194612374 95.56223369637335 336.3987099774212 94.48201958800242 333.7141156220867 94.35514759396106 332.9379093548095 92.54718891233516 327.9653922246761 94.1487512379546 325.59686379252196 97.97253945095048 324.61570289644317 98.69022470031194 326.79097435008305 102.63963977931036 324.41399215385053 104.07995802365578 325.4589822452744 105.67021589732765 322.3960655647274 108.56563008987384 321.3940651572325 107.79709119001846 317.523388043535 115.612530535818 317.2616162562541 117.0830267518897 314.4684663956687 121.33723606864604 312.23375646135617 128.38210498989488 305.39859331538827 138.44896519898225 302.12511892985356 141.66899737834717 302.8172135213195 142.88109675944747 292.0675316480108 149.63549041540384 281.63221183846895 144.73256938944257 274.75058575666435 144.8235948025289 267.51026449954963 137.69405717451116 262.05021420841985 135.19020298423732 258.30126474397525 142.130907114923 254.13077390469041 141.07146698491795 257.1572214402592 129.2742392310575 250.23168821176094 120.54019028996036 242.61006287545635 126.08828424016855 236.29945906641322 117.13211100991222 235.8087475522733 116.43569123683172 Z" stroke="#fbfbfb" stroke-width="1" vector-effect="non-scaling-stroke" class="highcharts-point highcharts-color-0"/>
        <path fill="rgb(191,163,94)" d="M 363.58205046330886 96.92387950846042 L 364.2663138547427 96.15366951570142 363.4982664527948 91.03403067760864 363.81708476426905 87.22282481112428 364.49007647026514 83.15744899170004 366.3873567055486 78.64782459395737 366.79389101084234 75.78671695558597 372.06550100296454 72.1841028024519 373.41112398315744 72.66105237509174 374.7903654204516 85.54960209010467 379.6150399790117 88.4456716131992 379.1959888602644 98.47344135511491 380.7633756978172 98.8692282394264 383.72579743887485 101.44058147611153 392.14001230615 103.82709873181257 393.97687106493066 107.56294158530545 392.10868750596035 111.6179304155544 387.7155481130837 118.56233716383137 384.83638611812285 128.6773641681766 379.465493548025 118.70736181404521 378.64377457420846 118.45541998496664 379.3435692996214 110.75256642726056 378.8071157132433 108.13609368236052 372.7068074769716 111.14635455339425 367.9811533641709 114.55843134978275 366.3587187606178 116.52547152187161 364.49961152972605 120.74065590451418 358.26849931613816 129.44308514668018 363.5392573785459 131.21041333434658 363.64230810717845 135.53926480049577 359.4499619941298 136.5136430253999 356.58561046954947 136.6129911364335 351.63914272868624 135.64677177685095 351.401782004297 129.39986609706003 347.3033447587367 128.04726384652645 334.6123116708177 130.83271357315732 331.3462752869983 129.6076058806883 317.85482146806123 133.0029717481092 312.94803399186776 137.92856721102348 311.475571784151 141.03237651774631 307.4810044304049 140.72116004062832 302.8172135213195 142.88109675944747 302.12511892985356 141.66899737834717 305.39859331538827 138.44896519898225 312.23375646135617 128.38210498989488 314.4684663956687 121.33723606864604 317.2616162562541 117.0830267518897 317.523388043535 115.612530535818 321.3940651572325 107.79709119001846 322.3960655647274 108.56563008987384 325.4589822452744 105.67021589732765 324.41399215385053 104.07995802365578 326.79097435008305 102.63963977931036 324.61570289644317 98.69022470031194 325.59686379252196 97.97253945095048 327.9653922246761 94.1487512379546 332.9379093548095 92.54718891233516 333.7141156220867 94.35514759396106 336.3987099774212 94.48201958800242 337.63725194612374 95.56223369637335 337.5994393735161 96.53756215056724 345.90899795231303 99.73914677501828 349.6420228844617 99.27966176146984 352.2341500995051 97.97771656227938 357.45903502357424 98.25423328689816 359.7230709998987 98.92781479039235 362.6639651324591 96.84032486362221 363.22349100565424 96.89124712986016 363.58205046330886 96.92387950846042 Z" stroke="#fbfbfb" stroke-width="1" vector-effect="non-scaling-stroke" class="highcharts-point highcharts-color-0"/>
      </g>
    </g>
    <g class="highcharts-markers highcharts-series-0 highcharts-map-series highcharts-color-0 " transform="translate(10,72) scale(1 1)" clip-path="none"/>
    <g class="highcharts-series highcharts-series-1 highcharts-map-series highcharts-color-1 " visibility="hidden" transform="translate(10,72) scale(1 1)"/>
    <g class="highcharts-markers highcharts-series-1 highcharts-map-series highcharts-color-1 " visibility="hidden" transform="translate(10,72) scale(1 1)" clip-path="none"/>
    <g class="highcharts-series highcharts-series-2 highcharts-pie-series " visibility="hidden" transform="translate(10,72) scale(1 1)"/>
    <g class="highcharts-markers highcharts-series-2 highcharts-pie-series " visibility="hidden" transform="translate(10,72) scale(1 1)"/>
    <g class="highcharts-series highcharts-series-3 highcharts-pie-series " visibility="hidden" transform="translate(10,72) scale(1 1)"/>
    <g class="highcharts-markers highcharts-series-3 highcharts-pie-series " visibility="hidden" transform="translate(10,72) scale(1 1)"/>
    <g class="highcharts-series highcharts-series-4 highcharts-map-series " transform="translate(10,72) scale(1 1)">
      <g transform="translate(0,0) scale(1 1)">
        <path fill="#008AC3" d="M 164.90935475561162 159.87811027739667 L 170.14908291657875 161.20748106001187 174.78806956444038 161.49467967256263 184.61809331357108 160.51165108442183 206.77150971334794 154.1135278807405 223.9400560021711 148.38682358974228 243.6010864962626 140.19509344342558 254.13075975807888 141.07146580761795 253.381075758081 143.9937169633984 247.48772090880396 143.281241591891 240.47529084966786 143.98929348220088 228.76708975070832 148.79673284735316 216.46873072698463 154.49535622437824 216.92670848027035 158.30692252266954 215.74757222572302 157.3982739516977 210.83252758463254 158.21760096901195 204.1809225250848 161.36358079648213 201.1401560170506 162.03857126065603 196.6902977652777 163.9849685204948 189.04226260788838 166.04925974587167 182.7891968209384 166.64918209579554 171.39804464098935 167.31008295319518 166.02380988508423 166.55635452371268 161.99437894620564 165.16967508469546 161.14716761409954 164.67060810606793 160.72018699572175 165.1303880183578 159.71556526603342 164.44383097002003 157.09139238718646 162.45332996432163 155.7779133703649 160.48271824074197 153.30669464136224 159.3993913122778 148.72275575951613 155.5704915210033 143.98740275460597 149.371031772864 140.1182329011865 143.24739376910614 134.02664056120935 132.62753287730638 134.28398886730037 132.2040582773615 133.72944815780008 130.49187615527836 133.29837172349892 130.63044579959936 131.98771062802152 123.47263065845013 131.8231243609555 116.29007678912741 132.8476353727625 103.68210684812385 131.36632632323548 92.13122005791773 135.0596053370794 93.20966256304017 134.39106987880598 82.06032735520306 135.21980088947305 73.77023209366766 137.62843555116177 61.985390087160326 140.6802771454524 53.012735293627514 145.77085207374955 40.79671855322837 155.9475784491692 44.13641409061809 149.14193794437926 41.903014817394606 144.91898789475476 50.69555200988229 141.1112225136378 61.68462613227553 140.80826320142444 66.92133977272482 139.4761727970328 70.34275502941584 138.14791607634828 79.82145607190924 138.28635465456114 91.04694068939433 139.74439959022948 103.82595190335677 139.44864891403267 110.62418717295648 138.7451515710285 115.94940320388173 139.08100847674456 123.43648917874606 141.3008751741591 132.33260136429885 144.1669960912185 138.65644285039423 151.85146762705332 150.2560556775854 159.71540143340016 157.00592755276884 164.90935475561162 159.87811027739667 Z" stroke="#fbfbfb" stroke-width="1" vector-effect="non-scaling-stroke" class="highcharts-point"/>
      </g>
    </g>
    <g class="highcharts-markers highcharts-series-4 highcharts-map-series " transform="translate(10,72) scale(1 1)" clip-path="none"/>
    <g class="highcharts-series highcharts-series-5 highcharts-mapline-series " transform="translate(10,72) scale(1 1)">
      <g transform="translate(0,0) scale(1 1)">
        <path fill="none" d="M 83.02586834871197 245.06796866332616 L 83.02586834871197 251.6212741407131 83.02586834871197 248.3446214020196 115.7923957356467 248.3446214020196 115.7923957356467 245.06796866332616 115.7923957356467 251.6212741407131" stroke="black" stroke-width="1" vector-effect="non-scaling-stroke" class="highcharts-point"/>
      </g>
    </g>
    <g class="highcharts-markers highcharts-series-5 highcharts-mapline-series " transform="translate(10,72) scale(1 1)" clip-path="none"/>
    <g class="highcharts-series highcharts-series-6 highcharts-mappie-series " transform="translate(10,72) scale(1 1)">
      <path fill="red" d="M 141.94414547794767 150.58757351885814 A 7.5 7.5 0 0 1 142.69290371865122 165.55025694853822 L 141.94567302697538 158.08757336329774 A 0 0 0 0 0 141.94567302697538 158.08757336329774 Z" transform="translate(0,0)" stroke="red" stroke-width="1" stroke-linejoin="round" class="highcharts-point highcharts-color-0"/>
      <path fill="blue" d="M 142.68544066269445 165.55100044776387 A 7.5 7.5 0 1 1 141.93525567743984 150.58758059804597 L 141.94567302697538 158.08757336329774 A 0 0 0 1 0 141.94567302697538 158.08757336329774 Z" transform="translate(0,0)" stroke="blue" stroke-width="1" stroke-linejoin="round" class="highcharts-point highcharts-color-1"/>
    </g>
    <g class="highcharts-markers highcharts-series-6 highcharts-mappie-series " transform="translate(10,72) scale(1 1)"/>
    <g class="highcharts-series highcharts-series-7 highcharts-mappie-series " transform="translate(10,72) scale(1 1)">
      <path fill="red" d="M 150.3245944518919 173.09941903676477 A 7.5 7.5 0 0 1 156.091324774155 185.3965468744394 L 150.3261220009196 180.59941888120437 A 0 0 0 0 0 150.3261220009196 180.59941888120437 Z" transform="translate(0,0)" stroke="red" stroke-width="1" stroke-linejoin="round" class="highcharts-point highcharts-color-0"/>
      <path fill="blue" d="M 156.08652476436012 185.40230967768798 A 7.5 7.5 0 1 1 150.31570465138407 173.0994261159526 L 150.3261220009196 180.59941888120437 A 0 0 0 1 0 150.3261220009196 180.59941888120437 Z" transform="translate(0,0)" stroke="blue" stroke-width="1" stroke-linejoin="round" class="highcharts-point highcharts-color-1"/>
    </g>
    <g class="highcharts-markers highcharts-series-7 highcharts-mappie-series " transform="translate(10,72) scale(1 1)"/>
    <g class="highcharts-series highcharts-series-8 highcharts-mappie-series " transform="translate(10,72) scale(1 1)">
      <path fill="red" d="M 126.2957858353395 165.2004538725979 A 7.5 7.5 0 0 1 131.16782003314222 178.4038005401089 L 126.29731338436721 172.7004537170375 A 0 0 0 0 0 126.29731338436721 172.7004537170375 Z" transform="translate(0,0)" stroke="red" stroke-width="1" stroke-linejoin="round" class="highcharts-point highcharts-color-0"/>
      <path fill="blue" d="M 131.16211425201658 178.40866819427276 A 7.5 7.5 0 1 1 126.28689603483167 165.20046095178574 L 126.29731338436721 172.7004537170375 A 0 0 0 1 0 126.29731338436721 172.7004537170375 Z" transform="translate(0,0)" stroke="blue" stroke-width="1" stroke-linejoin="round" class="highcharts-point highcharts-color-1"/>
    </g>
    <g class="highcharts-markers highcharts-series-8 highcharts-mappie-series " transform="translate(10,72) scale(1 1)"/>
    <g class="highcharts-series highcharts-series-9 highcharts-mappie-series " transform="translate(10,72) scale(1 1)">
      <path fill="red" d="M 210.71777710201306 158.71051986451494 A 7.5 7.5 0 1 1 208.1955122500854 173.27313055175762 L 210.71930465104077 166.21051970895454 A 0 0 0 1 0 210.71930465104077 166.21051970895454 Z" transform="translate(0,0)" stroke="red" stroke-width="1" stroke-linejoin="round" class="highcharts-point highcharts-color-0"/>
      <path fill="blue" d="M 208.1884509023158 173.27060322847217 A 7.5 7.5 0 0 1 210.70888730150523 158.71052694370277 L 210.71930465104077 166.21051970895454 A 0 0 0 0 0 210.71930465104077 166.21051970895454 Z" transform="translate(0,0)" stroke="blue" stroke-width="1" stroke-linejoin="round" class="highcharts-point highcharts-color-1"/>
    </g>
    <g class="highcharts-markers highcharts-series-9 highcharts-mappie-series " transform="translate(10,72) scale(1 1)"/>
    <g class="highcharts-series highcharts-series-10 highcharts-mappie-series " transform="translate(10,72) scale(1 1)">
      <path fill="red" d="M 192.70246182379842 191.6402022782053 A 7.5 7.5 0 0 1 194.12629560755988 206.5041036004376 L 192.70398937282613 199.1402021226449 A 0 0 0 0 0 192.70398937282613 199.1402021226449 Z" transform="translate(0,0)" stroke="red" stroke-width="1" stroke-linejoin="round" class="highcharts-point highcharts-color-0"/>
      <path fill="blue" d="M 194.11893099615637 206.50552222448485 A 7.5 7.5 0 1 1 192.69357202329059 191.64020935739313 L 192.70398937282613 199.1402021226449 A 0 0 0 1 0 192.70398937282613 199.1402021226449 Z" transform="translate(0,0)" stroke="blue" stroke-width="1" stroke-linejoin="round" class="highcharts-point highcharts-color-1"/>
    </g>
    <g class="highcharts-markers highcharts-series-10 highcharts-mappie-series " transform="translate(10,72) scale(1 1)"/>
    <g class="highcharts-series highcharts-series-11 highcharts-mappie-series " transform="translate(10,72) scale(1 1)">
      <path fill="red" d="M 150.31771316151512 201.76061314095057 A 7.5 7.5 0 1 1 148.23069450089892 216.46394379343877 L 150.31924071054283 209.26061298539017 A 0 0 0 1 0 150.31924071054283 209.26061298539017 Z" transform="translate(0,0)" stroke="red" stroke-width="1" stroke-linejoin="round" class="highcharts-point highcharts-color-0"/>
      <path fill="blue" d="M 148.22349221556445 216.4618516459121 A 7.5 7.5 0 0 1 150.30882336100728 201.7606202201384 L 150.31924071054283 209.26061298539017 A 0 0 0 0 0 150.31924071054283 209.26061298539017 Z" transform="translate(0,0)" stroke="blue" stroke-width="1" stroke-linejoin="round" class="highcharts-point highcharts-color-1"/>
    </g>
    <g class="highcharts-markers highcharts-series-11 highcharts-mappie-series " transform="translate(10,72) scale(1 1)"/>
    <g class="highcharts-series highcharts-series-12 highcharts-mappie-series " transform="translate(10,72) scale(1 1)">
      <path fill="red" d="M 161.83049504040721 245.52611277546126 A 7.5 7.5 0 1 1 160.53948033714266 260.41389540812895 L 161.83202258943493 253.02611261990086 A 0 0 0 1 0 161.83202258943493 253.02611261990086 Z" transform="translate(0,0)" stroke="red" stroke-width="1" stroke-linejoin="round" class="highcharts-point highcharts-color-0"/>
      <path fill="blue" d="M 160.5320932018568 260.412599172201 A 7.5 7.5 0 0 1 161.82160523989938 245.5261198546491 L 161.83202258943493 253.02611261990086 A 0 0 0 0 0 161.83202258943493 253.02611261990086 Z" transform="translate(0,0)" stroke="blue" stroke-width="1" stroke-linejoin="round" class="highcharts-point highcharts-color-1"/>
    </g>
    <g class="highcharts-markers highcharts-series-12 highcharts-mappie-series " transform="translate(10,72) scale(1 1)"/>
    <g class="highcharts-series highcharts-series-13 highcharts-mappie-series " transform="translate(10,72) scale(1 1)">
      <path fill="red" d="M 99.46453936336641 183.16365922223014 A 7.5 7.5 0 1 1 97.93781768112031 198.0063053394457 L 99.46606691239413 190.66365906666974 A 0 0 0 1 0 99.46606691239413 190.66365906666974 Z" transform="translate(0,0)" stroke="red" stroke-width="1" stroke-linejoin="round" class="highcharts-point highcharts-color-0"/>
      <path fill="blue" d="M 97.93047580019585 198.00477341914632 A 7.5 7.5 0 0 1 99.45564956285858 183.16366630141798 L 99.46606691239413 190.66365906666974 A 0 0 0 0 0 99.46606691239413 190.66365906666974 Z" transform="translate(0,0)" stroke="blue" stroke-width="1" stroke-linejoin="round" class="highcharts-point highcharts-color-1"/>
    </g>
    <g class="highcharts-markers highcharts-series-13 highcharts-mappie-series " transform="translate(10,72) scale(1 1)"/>
    <g class="highcharts-series highcharts-series-14 highcharts-mappie-series " transform="translate(10,72) scale(1 1)">
      <path fill="red" d="M 97.17004525325476 160.28667597612085 A 7.5 7.5 0 0 1 97.95610741604794 175.24552998455937 L 97.17157280228247 167.78667582056045 A 0 0 0 0 0 97.17157280228247 167.78667582056045 Z" transform="translate(0,0)" stroke="red" stroke-width="1" stroke-linejoin="round" class="highcharts-point highcharts-color-0"/>
      <path fill="blue" d="M 97.94864817085981 175.2463107896156 A 7.5 7.5 0 1 1 97.16115545274693 160.28668305530869 L 97.17157280228247 167.78667582056045 A 0 0 0 1 0 97.17157280228247 167.78667582056045 Z" transform="translate(0,0)" stroke="blue" stroke-width="1" stroke-linejoin="round" class="highcharts-point highcharts-color-1"/>
    </g>
    <g class="highcharts-markers highcharts-series-14 highcharts-mappie-series " transform="translate(10,72) scale(1 1)"/>
    <g class="highcharts-series highcharts-series-15 highcharts-mappie-series " transform="translate(10,72) scale(1 1)">
      <path fill="red" d="M 86.57439913747587 136.16373634840778 A 7.5 7.5 0 1 1 86.42440944588648 151.16220553837357 L 86.57592668650358 143.66373619284738 A 0 0 0 1 0 86.57592668650358 143.66373619284738 Z" transform="translate(0,0)" stroke="red" stroke-width="1" stroke-linejoin="round" class="highcharts-point highcharts-color-0"/>
      <path fill="blue" d="M 86.41691105354933 151.16205027192385 A 7.5 7.5 0 0 1 86.56550933696803 136.16374342759562 L 86.57592668650358 143.66373619284738 A 0 0 0 0 0 86.57592668650358 143.66373619284738 Z" transform="translate(0,0)" stroke="blue" stroke-width="1" stroke-linejoin="round" class="highcharts-point highcharts-color-1"/>
    </g>
    <g class="highcharts-markers highcharts-series-15 highcharts-mappie-series " transform="translate(10,72) scale(1 1)"/>
    <g class="highcharts-series highcharts-series-16 highcharts-mappie-series " transform="translate(10,72) scale(1 1)">
      <path fill="red" d="M 102.56534363297087 106.63974453484946 A 7.5 7.5 0 0 1 106.22686729765523 120.68607376554652 L 102.56687118199858 114.13974437928906 A 0 0 0 0 0 102.56687118199858 114.13974437928906 Z" transform="translate(0,0)" stroke="red" stroke-width="1" stroke-linejoin="round" class="highcharts-point highcharts-color-0"/>
      <path fill="blue" d="M 106.22031913936213 120.68973048788777 A 7.5 7.5 0 1 1 102.55645383246303 106.6397516140373 L 102.56687118199858 114.13974437928906 A 0 0 0 1 0 102.56687118199858 114.13974437928906 Z" transform="translate(0,0)" stroke="blue" stroke-width="1" stroke-linejoin="round" class="highcharts-point highcharts-color-1"/>
    </g>
    <g class="highcharts-markers highcharts-series-16 highcharts-mappie-series " transform="translate(10,72) scale(1 1)"/>
    <g class="highcharts-series highcharts-series-17 highcharts-mappie-series " transform="translate(10,72) scale(1 1)">
      <path fill="red" d="M 154.60426335462984 139.9985639521818 A 7.5 7.5 0 0 1 156.7058068702757 154.6985591396719 L 154.60579090365755 147.4985637966214 A 0 0 0 0 0 154.60579090365755 147.4985637966214 Z" transform="translate(0,0)" stroke="red" stroke-width="1" stroke-linejoin="round" class="highcharts-point highcharts-color-0"/>
      <path fill="blue" d="M 156.69860582612472 154.70065555529115 A 7.5 7.5 0 1 1 154.595373554122 139.99857103136964 L 154.60579090365755 147.4985637966214 A 0 0 0 1 0 154.60579090365755 147.4985637966214 Z" transform="translate(0,0)" stroke="blue" stroke-width="1" stroke-linejoin="round" class="highcharts-point highcharts-color-1"/>
    </g>
    <g class="highcharts-markers highcharts-series-17 highcharts-mappie-series " transform="translate(10,72) scale(1 1)"/>
    <g class="highcharts-series highcharts-series-18 highcharts-mappie-series " transform="translate(10,72) scale(1 1)">
      <path fill="red" d="M 164.99099040964106 129.84004397101327 A 7.5 7.5 0 0 1 170.82902638029742 142.0501573431991 L 164.99251795866877 137.34004381545287 A 0 0 0 0 0 164.99251795866877 137.34004381545287 Z" transform="translate(0,0)" stroke="red" stroke-width="1" stroke-linejoin="round" class="highcharts-point highcharts-color-0"/>
      <path fill="blue" d="M 170.82431334930072 142.0559914955914 A 7.5 7.5 0 1 1 164.98210060913323 129.8400510502011 L 164.99251795866877 137.34004381545287 A 0 0 0 1 0 164.99251795866877 137.34004381545287 Z" transform="translate(0,0)" stroke="blue" stroke-width="1" stroke-linejoin="round" class="highcharts-point highcharts-color-1"/>
    </g>
    <g class="highcharts-markers highcharts-series-18 highcharts-mappie-series " transform="translate(10,72) scale(1 1)"/>
    <g class="highcharts-series highcharts-series-19 highcharts-mappie-series " transform="translate(10,72) scale(1 1)">
      <path fill="red" d="M 185.31979783648003 140.82425980823334 A 7.5 7.5 0 0 1 191.04312110051643 153.17307948802548 L 185.32132538550775 148.32425965267294 A 0 0 0 0 0 185.32132538550775 148.32425965267294 Z" transform="translate(0,0)" stroke="red" stroke-width="1" stroke-linejoin="round" class="highcharts-point highcharts-color-0"/>
      <path fill="blue" d="M 191.0382694205916 153.17879885837712 A 7.5 7.5 0 1 1 185.3109080359722 140.82426688742117 L 185.32132538550775 148.32425965267294 A 0 0 0 1 0 185.32132538550775 148.32425965267294 Z" transform="translate(0,0)" stroke="blue" stroke-width="1" stroke-linejoin="round" class="highcharts-point highcharts-color-1"/>
    </g>
    <g class="highcharts-markers highcharts-series-19 highcharts-mappie-series " transform="translate(10,72) scale(1 1)"/>
    <g class="highcharts-series highcharts-series-20 highcharts-mappie-series " transform="translate(10,72) scale(1 1)">
      <path fill="red" d="M 211.02720778995092 110.09772399101595 A 7.5 7.5 0 1 1 209.1571964153542 124.86046037599995 L 211.02873533897863 117.59772383545555 A 0 0 0 1 0 211.02873533897863 117.59772383545555 Z" transform="translate(0,0)" stroke="red" stroke-width="1" stroke-linejoin="round" class="highcharts-point highcharts-color-0"/>
      <path fill="blue" d="M 209.1499346157935 124.85858520602028 A 7.5 7.5 0 0 1 211.0183179894431 110.09773107020379 L 211.02873533897863 117.59772383545555 A 0 0 0 0 0 211.02873533897863 117.59772383545555 Z" transform="translate(0,0)" stroke="blue" stroke-width="1" stroke-linejoin="round" class="highcharts-point highcharts-color-1"/>
    </g>
    <g class="highcharts-markers highcharts-series-20 highcharts-mappie-series " transform="translate(10,72) scale(1 1)"/>
    <g class="highcharts-series highcharts-series-21 highcharts-mappie-series " transform="translate(10,72) scale(1 1)">
      <path fill="red" d="M 177.21013635906817 114.77113579900427 A 7.5 7.5 0 0 1 184.2308900856804 124.91319239300705 L 177.2116639080959 122.27113564344387 A 0 0 0 0 0 177.2116639080959 122.27113564344387 Z" transform="translate(0,0)" stroke="red" stroke-width="1" stroke-linejoin="round" class="highcharts-point highcharts-color-0"/>
      <path fill="blue" d="M 184.2282445197584 124.9202102969865 A 7.5 7.5 0 1 1 177.20124655856034 114.77114287819211 L 177.2116639080959 122.27113564344387 A 0 0 0 1 0 177.2116639080959 122.27113564344387 Z" transform="translate(0,0)" stroke="blue" stroke-width="1" stroke-linejoin="round" class="highcharts-point highcharts-color-1"/>
    </g>
    <g class="highcharts-markers highcharts-series-21 highcharts-mappie-series " transform="translate(10,72) scale(1 1)"/>
    <g class="highcharts-series highcharts-series-22 highcharts-mappie-series " transform="translate(10,72) scale(1 1)">
      <path fill="red" d="M 152.9731610131708 114.8587528312145 A 7.5 7.5 0 0 1 159.18159538298073 126.56877734519314 L 152.9746885621985 122.3587526756541 A 0 0 0 0 0 152.9746885621985 122.3587526756541 Z" transform="translate(0,0)" stroke="red" stroke-width="1" stroke-linejoin="round" class="highcharts-point highcharts-color-0"/>
      <path fill="blue" d="M 159.1773822555597 126.57498214596728 A 7.5 7.5 0 1 1 152.96427121266296 114.85875991040234 L 152.9746885621985 122.3587526756541 A 0 0 0 1 0 152.9746885621985 122.3587526756541 Z" transform="translate(0,0)" stroke="blue" stroke-width="1" stroke-linejoin="round" class="highcharts-point highcharts-color-1"/>
    </g>
    <g class="highcharts-markers highcharts-series-22 highcharts-mappie-series " transform="translate(10,72) scale(1 1)"/>
    <g class="highcharts-series highcharts-series-23 highcharts-mappie-series " transform="translate(10,72) scale(1 1)">
      <path fill="red" d="M 150.44379905412137 85.90889282857681 A 7.5 7.5 0 0 1 157.02719581732688 97.00458421254794 L 150.44532660314908 93.40889267301641 A 0 0 0 0 0 150.44532660314908 93.40889267301641 Z" transform="translate(0,0)" stroke="red" stroke-width="1" stroke-linejoin="round" class="highcharts-point highcharts-color-0"/>
      <path fill="blue" d="M 157.0235968354523 97.01116428281951 A 7.5 7.5 0 1 1 150.43490925361354 85.90889990776466 L 150.44532660314908 93.40889267301641 A 0 0 0 1 0 150.44532660314908 93.40889267301641 Z" transform="translate(0,0)" stroke="blue" stroke-width="1" stroke-linejoin="round" class="highcharts-point highcharts-color-1"/>
    </g>
    <g class="highcharts-markers highcharts-series-23 highcharts-mappie-series " transform="translate(10,72) scale(1 1)"/>
    <g class="highcharts-series highcharts-series-24 highcharts-mappie-series " transform="translate(10,72) scale(1 1)">
      <path fill="red" d="M 165.40379948500853 57.89444346385308 A 7.5 7.5 0 0 1 172.11234859470636 68.7509089769248 L 165.40532703403625 65.39444330829268 A 0 0 0 0 0 165.40532703403625 65.39444330829268 Z" transform="translate(0,0)" stroke="red" stroke-width="1" stroke-linejoin="round" class="highcharts-point highcharts-color-0"/>
      <path fill="blue" d="M 172.10898877608665 68.75761431913494 A 7.5 7.5 0 1 1 165.3949096845007 57.894450543040925 L 165.40532703403625 65.39444330829268 A 0 0 0 1 0 165.40532703403625 65.39444330829268 Z" transform="translate(0,0)" stroke="blue" stroke-width="1" stroke-linejoin="round" class="highcharts-point highcharts-color-1"/>
    </g>
    <g class="highcharts-markers highcharts-series-24 highcharts-mappie-series " transform="translate(10,72) scale(1 1)"/>
    <g class="highcharts-series highcharts-series-25 highcharts-mappie-series " transform="translate(10,72) scale(1 1)">
      <path fill="red" d="M 299.464456171925 69.0327000213392 A 7.5 7.5 0 1 1 299.2020107033643 84.0280529759388 L 299.46598372095275 76.5326998657788 A 0 0 0 1 0 299.46598372095275 76.5326998657788 Z" transform="translate(0,0)" stroke="red" stroke-width="1" stroke-linejoin="round" class="highcharts-point highcharts-color-0"/>
      <path fill="blue" d="M 299.19451548348985 84.02778525528896 A 7.5 7.5 0 0 1 299.4555663714172 69.03270710052703 L 299.46598372095275 76.5326998657788 A 0 0 0 0 0 299.46598372095275 76.5326998657788 Z" transform="translate(0,0)" stroke="blue" stroke-width="1" stroke-linejoin="round" class="highcharts-point highcharts-color-1"/>
    </g>
    <g class="highcharts-markers highcharts-series-25 highcharts-mappie-series " transform="translate(10,72) scale(1 1)"/>
    <g class="highcharts-series highcharts-series-26 highcharts-mappie-series " transform="translate(10,72) scale(1 1)">
      <path fill="red" d="M 345.9114540881702 106.54955473724641 A 7.5 7.5 0 0 1 349.9462976272613 120.37271535176764 L 345.91298163719796 114.04955458168601 A 0 0 0 0 0 345.91298163719796 114.04955458168601 Z" transform="translate(0,0)" stroke="red" stroke-width="1" stroke-linejoin="round" class="highcharts-point highcharts-color-0"/>
      <path fill="blue" d="M 349.93997245088724 120.37674550550535 A 7.5 7.5 0 1 1 345.9025642876624 106.54956181643425 L 345.91298163719796 114.04955458168601 A 0 0 0 1 0 345.91298163719796 114.04955458168601 Z" transform="translate(0,0)" stroke="blue" stroke-width="1" stroke-linejoin="round" class="highcharts-point highcharts-color-1"/>
    </g>
    <g class="highcharts-markers highcharts-series-26 highcharts-mappie-series " transform="translate(10,72) scale(1 1)"/>
    <g class="highcharts-series highcharts-series-27 highcharts-mappie-series highcharts-tracker" transform="translate(10,72) scale(1 1)">
      <path fill="red" d="M 141.9984724509723 150.5000001555604 A 7.5 7.5 0 0 1 142.74723069167584 165.46268358524048 L 142 158 A 0 0 0 0 0 142 158 Z" transform="translate(0,0)" stroke="red" stroke-width="1" stroke-linejoin="round" class="highcharts-point highcharts-color-0"/>
      <path fill="blue" d="M 142.73976763571906 165.46342708446613 A 7.5 7.5 0 1 1 141.98958265046446 150.50000723474824 L 142 158 A 0 0 0 1 0 142 158 Z" transform="translate(0,0)" stroke="blue" stroke-width="1" stroke-linejoin="round" class="highcharts-point highcharts-color-1"/>
    </g>
    <g class="highcharts-markers highcharts-series-27 highcharts-mappie-series " transform="translate(10,72) scale(1 1)"/>
    <g class="highcharts-series highcharts-series-28 highcharts-mappie-series highcharts-tracker" transform="translate(10,72) scale(1 1)">
      <path fill="red" d="M 149.9984724509723 173.5000001555604 A 7.5 7.5 0 0 1 155.7652027732354 185.79712799323502 L 150 181 A 0 0 0 0 0 150 181 Z" transform="translate(0,0)" stroke="red" stroke-width="1" stroke-linejoin="round" class="highcharts-point highcharts-color-0"/>
      <path fill="blue" d="M 155.7604027634405 185.8028907964836 A 7.5 7.5 0 1 1 149.98958265046446 173.50000723474824 L 150 181 A 0 0 0 1 0 150 181 Z" transform="translate(0,0)" stroke="blue" stroke-width="1" stroke-linejoin="round" class="highcharts-point highcharts-color-1"/>
    </g>
    <g class="highcharts-markers highcharts-series-28 highcharts-mappie-series " transform="translate(10,72) scale(1 1)"/>
    <g class="highcharts-series highcharts-series-29 highcharts-mappie-series highcharts-tracker" transform="translate(10,72) scale(1 1)">
      <path fill="red" d="M 125.99847245097229 165.5000001555604 A 7.5 7.5 0 0 1 130.870506648775 178.7033468230714 L 126 173 A 0 0 0 0 0 126 173 Z" transform="translate(0,0)" stroke="red" stroke-width="1" stroke-linejoin="round" class="highcharts-point highcharts-color-0"/>
      <path fill="blue" d="M 130.86480086764936 178.70821447723526 A 7.5 7.5 0 1 1 125.98958265046446 165.50000723474824 L 126 173 A 0 0 0 1 0 126 173 Z" transform="translate(0,0)" stroke="blue" stroke-width="1" stroke-linejoin="round" class="highcharts-point highcharts-color-1"/>
    </g>
    <g class="highcharts-markers highcharts-series-29 highcharts-mappie-series " transform="translate(10,72) scale(1 1)"/>
    <g class="highcharts-series highcharts-series-30 highcharts-mappie-series highcharts-tracker" transform="translate(10,72) scale(1 1)">
      <path fill="red" d="M 210.9984724509723 158.5000001555604 A 7.5 7.5 0 1 1 208.4762075990446 173.0626108428031 L 211 166 A 0 0 0 1 0 211 166 Z" transform="translate(0,0)" stroke="red" stroke-width="1" stroke-linejoin="round" class="highcharts-point highcharts-color-0"/>
      <path fill="blue" d="M 208.46914625127502 173.06008351951763 A 7.5 7.5 0 0 1 210.98958265046446 158.50000723474824 L 211 166 A 0 0 0 0 0 211 166 Z" transform="translate(0,0)" stroke="blue" stroke-width="1" stroke-linejoin="round" class="highcharts-point highcharts-color-1"/>
    </g>
    <g class="highcharts-markers highcharts-series-30 highcharts-mappie-series " transform="translate(10,72) scale(1 1)"/>
    <g class="highcharts-series highcharts-series-31 highcharts-mappie-series highcharts-tracker" transform="translate(10,72) scale(1 1)">
      <path fill="red" d="M 192.9984724509723 191.5000001555604 A 7.5 7.5 0 0 1 194.42230623473375 206.3639014777927 L 193 199 A 0 0 0 0 0 193 199 Z" transform="translate(0,0)" stroke="red" stroke-width="1" stroke-linejoin="round" class="highcharts-point highcharts-color-0"/>
      <path fill="blue" d="M 194.41494162333024 206.36532010183996 A 7.5 7.5 0 1 1 192.98958265046446 191.50000723474824 L 193 199 A 0 0 0 1 0 193 199 Z" transform="translate(0,0)" stroke="blue" stroke-width="1" stroke-linejoin="round" class="highcharts-point highcharts-color-1"/>
    </g>
    <g class="highcharts-markers highcharts-series-31 highcharts-mappie-series " transform="translate(10,72) scale(1 1)"/>
    <g class="highcharts-series highcharts-series-32 highcharts-mappie-series highcharts-tracker" transform="translate(10,72) scale(1 1)">
      <path fill="red" d="M 149.9984724509723 201.5000001555604 A 7.5 7.5 0 1 1 147.9114537903561 216.2033308080486 L 150 209 A 0 0 0 1 0 150 209 Z" transform="translate(0,0)" stroke="red" stroke-width="1" stroke-linejoin="round" class="highcharts-point highcharts-color-0"/>
      <path fill="blue" d="M 147.90425150502162 216.20123866052194 A 7.5 7.5 0 0 1 149.98958265046446 201.50000723474824 L 150 209 A 0 0 0 0 0 150 209 Z" transform="translate(0,0)" stroke="blue" stroke-width="1" stroke-linejoin="round" class="highcharts-point highcharts-color-1"/>
    </g>
    <g class="highcharts-markers highcharts-series-32 highcharts-mappie-series " transform="translate(10,72) scale(1 1)"/>
    <g class="highcharts-series highcharts-series-33 highcharts-mappie-series highcharts-tracker" transform="translate(10,72) scale(1 1)">
      <path fill="red" d="M 161.9984724509723 245.5000001555604 A 7.5 7.5 0 1 1 160.70745774770774 260.3877827882281 L 162 253 A 0 0 0 1 0 162 253 Z" transform="translate(0,0)" stroke="red" stroke-width="1" stroke-linejoin="round" class="highcharts-point highcharts-color-0"/>
      <path fill="blue" d="M 160.70007061242188 260.38648655230014 A 7.5 7.5 0 0 1 161.98958265046446 245.50000723474824 L 162 253 A 0 0 0 0 0 162 253 Z" transform="translate(0,0)" stroke="blue" stroke-width="1" stroke-linejoin="round" class="highcharts-point highcharts-color-1"/>
    </g>
    <g class="highcharts-markers highcharts-series-33 highcharts-mappie-series " transform="translate(10,72) scale(1 1)"/>
    <g class="highcharts-series highcharts-series-34 highcharts-mappie-series highcharts-tracker" transform="translate(10,72) scale(1 1)">
      <path fill="red" d="M 98.99847245097229 183.5000001555604 A 7.5 7.5 0 1 1 97.47175076872618 198.34264627277597 L 99 191 A 0 0 0 1 0 99 191 Z" transform="translate(0,0)" stroke="red" stroke-width="1" stroke-linejoin="round" class="highcharts-point highcharts-color-0"/>
      <path fill="blue" d="M 97.46440888780172 198.34111435247658 A 7.5 7.5 0 0 1 98.98958265046446 183.50000723474824 L 99 191 A 0 0 0 0 0 99 191 Z" transform="translate(0,0)" stroke="blue" stroke-width="1" stroke-linejoin="round" class="highcharts-point highcharts-color-1"/>
    </g>
    <g class="highcharts-markers highcharts-series-34 highcharts-mappie-series " transform="translate(10,72) scale(1 1)"/>
    <g class="highcharts-series highcharts-series-35 highcharts-mappie-series highcharts-tracker" transform="translate(10,72) scale(1 1)">
      <path fill="red" d="M 96.99847245097229 160.5000001555604 A 7.5 7.5 0 0 1 97.78453461376547 175.45885416399892 L 97 168 A 0 0 0 0 0 97 168 Z" transform="translate(0,0)" stroke="red" stroke-width="1" stroke-linejoin="round" class="highcharts-point highcharts-color-0"/>
      <path fill="blue" d="M 97.77707536857734 175.45963496905514 A 7.5 7.5 0 1 1 96.98958265046446 160.50000723474824 L 97 168 A 0 0 0 1 0 97 168 Z" transform="translate(0,0)" stroke="blue" stroke-width="1" stroke-linejoin="round" class="highcharts-point highcharts-color-1"/>
    </g>
    <g class="highcharts-markers highcharts-series-35 highcharts-mappie-series " transform="translate(10,72) scale(1 1)"/>
    <g class="highcharts-series highcharts-series-36 highcharts-mappie-series highcharts-tracker" transform="translate(10,72) scale(1 1)">
      <path fill="red" d="M 86.99847245097229 136.5000001555604 A 7.5 7.5 0 1 1 86.8484827593829 151.4984693455262 L 87 144 A 0 0 0 1 0 87 144 Z" transform="translate(0,0)" stroke="red" stroke-width="1" stroke-linejoin="round" class="highcharts-point highcharts-color-0"/>
      <path fill="blue" d="M 86.84098436704575 151.49831407907647 A 7.5 7.5 0 0 1 86.98958265046446 136.50000723474824 L 87 144 A 0 0 0 0 0 87 144 Z" transform="translate(0,0)" stroke="blue" stroke-width="1" stroke-linejoin="round" class="highcharts-point highcharts-color-1"/>
    </g>
    <g class="highcharts-markers highcharts-series-36 highcharts-mappie-series " transform="translate(10,72) scale(1 1)"/>
    <g class="highcharts-series highcharts-series-37 highcharts-mappie-series highcharts-tracker" transform="translate(10,72) scale(1 1)">
      <path fill="red" d="M 102.99847245097229 106.5000001555604 A 7.5 7.5 0 0 1 106.65999611565665 120.54632938625747 L 103 114 A 0 0 0 0 0 103 114 Z" transform="translate(0,0)" stroke="red" stroke-width="1" stroke-linejoin="round" class="highcharts-point highcharts-color-0"/>
      <path fill="blue" d="M 106.65344795736355 120.54998610859872 A 7.5 7.5 0 1 1 102.98958265046446 106.50000723474824 L 103 114 A 0 0 0 1 0 103 114 Z" transform="translate(0,0)" stroke="blue" stroke-width="1" stroke-linejoin="round" class="highcharts-point highcharts-color-1"/>
    </g>
    <g class="highcharts-markers highcharts-series-37 highcharts-mappie-series " transform="translate(10,72) scale(1 1)"/>
    <g class="highcharts-series highcharts-series-38 highcharts-mappie-series highcharts-tracker" transform="translate(10,72) scale(1 1)">
      <path fill="red" d="M 154.9984724509723 139.5000001555604 A 7.5 7.5 0 0 1 157.10001596661814 154.1999953430505 L 155 147 A 0 0 0 0 0 155 147 Z" transform="translate(0,0)" stroke="red" stroke-width="1" stroke-linejoin="round" class="highcharts-point highcharts-color-0"/>
      <path fill="blue" d="M 157.0928149224672 154.20209175866975 A 7.5 7.5 0 1 1 154.98958265046446 139.50000723474824 L 155 147 A 0 0 0 1 0 155 147 Z" transform="translate(0,0)" stroke="blue" stroke-width="1" stroke-linejoin="round" class="highcharts-point highcharts-color-1"/>
    </g>
    <g class="highcharts-markers highcharts-series-38 highcharts-mappie-series " transform="translate(10,72) scale(1 1)"/>
    <g class="highcharts-series highcharts-series-39 highcharts-mappie-series highcharts-tracker" transform="translate(10,72) scale(1 1)">
      <path fill="red" d="M 164.9984724509723 129.5000001555604 A 7.5 7.5 0 0 1 170.83650842162865 141.71011352774622 L 165 137 A 0 0 0 0 0 165 137 Z" transform="translate(0,0)" stroke="red" stroke-width="1" stroke-linejoin="round" class="highcharts-point highcharts-color-0"/>
      <path fill="blue" d="M 170.83179539063195 141.71594768013853 A 7.5 7.5 0 1 1 164.98958265046446 129.50000723474824 L 165 137 A 0 0 0 1 0 165 137 Z" transform="translate(0,0)" stroke="blue" stroke-width="1" stroke-linejoin="round" class="highcharts-point highcharts-color-1"/>
    </g>
    <g class="highcharts-markers highcharts-series-39 highcharts-mappie-series " transform="translate(10,72) scale(1 1)"/>
    <g class="highcharts-series highcharts-series-40 highcharts-mappie-series highcharts-tracker" transform="translate(10,72) scale(1 1)">
      <path fill="red" d="M 184.9984724509723 140.5000001555604 A 7.5 7.5 0 0 1 190.72179571500868 152.84881983535254 L 185 148 A 0 0 0 0 0 185 148 Z" transform="translate(0,0)" stroke="red" stroke-width="1" stroke-linejoin="round" class="highcharts-point highcharts-color-0"/>
      <path fill="blue" d="M 190.71694403508386 152.85453920570419 A 7.5 7.5 0 1 1 184.98958265046446 140.50000723474824 L 185 148 A 0 0 0 1 0 185 148 Z" transform="translate(0,0)" stroke="blue" stroke-width="1" stroke-linejoin="round" class="highcharts-point highcharts-color-1"/>
    </g>
    <g class="highcharts-markers highcharts-series-40 highcharts-mappie-series " transform="translate(10,72) scale(1 1)"/>
    <g class="highcharts-series highcharts-series-41 highcharts-mappie-series highcharts-tracker" transform="translate(10,72) scale(1 1)">
      <path fill="red" d="M 210.9984724509723 110.5000001555604 A 7.5 7.5 0 1 1 209.12846107637557 125.2627365405444 L 211 118 A 0 0 0 1 0 211 118 Z" transform="translate(0,0)" stroke="red" stroke-width="1" stroke-linejoin="round" class="highcharts-point highcharts-color-0"/>
      <path fill="blue" d="M 209.12119927681488 125.26086137056473 A 7.5 7.5 0 0 1 210.98958265046446 110.50000723474824 L 211 118 A 0 0 0 0 0 211 118 Z" transform="translate(0,0)" stroke="blue" stroke-width="1" stroke-linejoin="round" class="highcharts-point highcharts-color-1"/>
    </g>
    <g class="highcharts-markers highcharts-series-41 highcharts-mappie-series " transform="translate(10,72) scale(1 1)"/>
    <g class="highcharts-series highcharts-series-42 highcharts-mappie-series highcharts-tracker" transform="translate(10,72) scale(1 1)">
      <path fill="red" d="M 176.9984724509723 114.5000001555604 A 7.5 7.5 0 0 1 184.0192261775845 124.64205674956318 L 177 122 A 0 0 0 0 0 177 122 Z" transform="translate(0,0)" stroke="red" stroke-width="1" stroke-linejoin="round" class="highcharts-point highcharts-color-0"/>
      <path fill="blue" d="M 184.0165806116625 124.64907465354263 A 7.5 7.5 0 1 1 176.98958265046446 114.50000723474824 L 177 122 A 0 0 0 1 0 177 122 Z" transform="translate(0,0)" stroke="blue" stroke-width="1" stroke-linejoin="round" class="highcharts-point highcharts-color-1"/>
    </g>
    <g class="highcharts-markers highcharts-series-42 highcharts-mappie-series " transform="translate(10,72) scale(1 1)"/>
    <g class="highcharts-series highcharts-series-43 highcharts-mappie-series highcharts-tracker" transform="translate(10,72) scale(1 1)">
      <path fill="red" d="M 152.9984724509723 114.5000001555604 A 7.5 7.5 0 0 1 159.20690682078222 126.21002466953904 L 153 122 A 0 0 0 0 0 153 122 Z" transform="translate(0,0)" stroke="red" stroke-width="1" stroke-linejoin="round" class="highcharts-point highcharts-color-0"/>
      <path fill="blue" d="M 159.2026936933612 126.21622947031318 A 7.5 7.5 0 1 1 152.98958265046446 114.50000723474824 L 153 122 A 0 0 0 1 0 153 122 Z" transform="translate(0,0)" stroke="blue" stroke-width="1" stroke-linejoin="round" class="highcharts-point highcharts-color-1"/>
    </g>
    <g class="highcharts-markers highcharts-series-43 highcharts-mappie-series " transform="translate(10,72) scale(1 1)"/>
    <g class="highcharts-series highcharts-series-44 highcharts-mappie-series highcharts-tracker" transform="translate(10,72) scale(1 1)">
      <path fill="red" d="M 149.9984724509723 85.5000001555604 A 7.5 7.5 0 0 1 156.5818692141778 96.59569153953153 L 150 93 A 0 0 0 0 0 150 93 Z" transform="translate(0,0)" stroke="red" stroke-width="1" stroke-linejoin="round" class="highcharts-point highcharts-color-0"/>
      <path fill="blue" d="M 156.57827023230323 96.6022716098031 A 7.5 7.5 0 1 1 149.98958265046446 85.50000723474824 L 150 93 A 0 0 0 1 0 150 93 Z" transform="translate(0,0)" stroke="blue" stroke-width="1" stroke-linejoin="round" class="highcharts-point highcharts-color-1"/>
    </g>
    <g class="highcharts-markers highcharts-series-44 highcharts-mappie-series " transform="translate(10,72) scale(1 1)"/>
    <g class="highcharts-series highcharts-series-45 highcharts-mappie-series highcharts-tracker" transform="translate(10,72) scale(1 1)">
      <path fill="red" d="M 164.9984724509723 57.5000001555604 A 7.5 7.5 0 0 1 171.7070215606701 68.35646566863213 L 165 65 A 0 0 0 0 0 165 65 Z" transform="translate(0,0)" stroke="red" stroke-width="1" stroke-linejoin="round" class="highcharts-point highcharts-color-0"/>
      <path fill="blue" d="M 171.7036617420504 68.36317101084227 A 7.5 7.5 0 1 1 164.98958265046446 57.500007234748246 L 165 65 A 0 0 0 1 0 165 65 Z" transform="translate(0,0)" stroke="blue" stroke-width="1" stroke-linejoin="round" class="highcharts-point highcharts-color-1"/>
    </g>
    <g class="highcharts-markers highcharts-series-45 highcharts-mappie-series " transform="translate(10,72) scale(1 1)"/>
    <g class="highcharts-series highcharts-series-46 highcharts-mappie-series highcharts-tracker" transform="translate(10,72) scale(1 1)">
      <path fill="red" d="M 298.99847245097226 69.5000001555604 A 7.5 7.5 0 1 1 298.73602698241154 84.49535311016001 L 299 77 A 0 0 0 1 0 299 77 Z" transform="translate(0,0)" stroke="red" stroke-width="1" stroke-linejoin="round" class="highcharts-point highcharts-color-0"/>
      <path fill="blue" d="M 298.7285317625371 84.49508538951017 A 7.5 7.5 0 0 1 298.98958265046446 69.50000723474824 L 299 77 A 0 0 0 0 0 299 77 Z" transform="translate(0,0)" stroke="blue" stroke-width="1" stroke-linejoin="round" class="highcharts-point highcharts-color-1"/>
    </g>
    <g class="highcharts-markers highcharts-series-46 highcharts-mappie-series " transform="translate(10,72) scale(1 1)"/>
    <g class="highcharts-series highcharts-series-47 highcharts-mappie-series highcharts-tracker" transform="translate(10,72) scale(1 1)">
      <path fill="red" d="M 345.99847245097226 106.5000001555604 A 7.5 7.5 0 0 1 350.03331599006333 120.32316077008163 L 346 114 A 0 0 0 0 0 346 114 Z" transform="translate(0,0)" stroke="red" stroke-width="1" stroke-linejoin="round" class="highcharts-point highcharts-color-0"/>
      <path fill="blue" d="M 350.0269908136893 120.32719092381934 A 7.5 7.5 0 1 1 345.98958265046446 106.50000723474824 L 346 114 A 0 0 0 1 0 346 114 Z" transform="translate(0,0)" stroke="blue" stroke-width="1" stroke-linejoin="round" class="highcharts-point highcharts-color-1"/>
    </g>
    <g class="highcharts-markers highcharts-series-47 highcharts-mappie-series " transform="translate(10,72) scale(1 1)"/>
  </g>
  <text x="10" text-anchor="start" class="highcharts-title" style="color:#000000;font-size:14px;font-weight:bold;font-family:Arial;fill:#000000;" y="21">
    <tspan>Zugezogene nach Zuzugsland und Anzahl Zugezogene pro 100</tspan><tspan dy="17" x="10">Einwohner</tspan><title>Zugezogene nach Zuzugsland und Anzahl Zugezogene pro 100 Einwohner</title>
  </text>
  <text x="10" text-anchor="start" class="highcharts-subtitle" style="color:#000000;font-size:12px;font-weight:normal;font-family:Arial;fill:#000000;" y="57">
    <tspan>Stand: 2016</tspan>
  </text>
  <g class="highcharts-data-labels highcharts-series-5 highcharts-mapline-series " visibility="visible" transform="translate(10,72) scale(1 1)" clip-path="url(#a)">
    <g class="highcharts-label highcharts-data-label highcharts-data-label-color-undefined " transform="translate(86,231)">
      <text x="0" style="font-size:12px;font-weight:normal;color:black;fill:black;" y="12">
        <tspan x="0" y="12" class="highcharts-text-outline" fill="#FFFFFF" stroke="#FFFFFF" stroke-width="2px" stroke-linejoin="round" style="">1 km</tspan><tspan x="0" y="12">1 km</tspan>
      </text>
    </g>
  </g>
  <g class="highcharts-label" transform="translate(255,305)">
    <text x="3" style="font-size:12px;font-weight:bold;" y="15">
      <tspan>Anzahl Zugezogene pro 100 Einwohner</tspan>
    </text>
  </g>
  <rect x="258" y="265" width="10" height="10" fill="red" class="undefined pieLegend"/>
  <g class="undefined pieLegend" transform="translate(270,260)">
    <text x="3" y="15">
      Schweiz
    </text>
  </g>
  <rect x="258" y="285" width="10" height="10" fill="blue" class="undefined pieLegend"/>
  <g class="undefined pieLegend" transform="translate(270,280)">
    <text x="3" y="15">
      Ausland
    </text>
  </g>
  <g class="undefined pieLegend" transform="translate(255,240)">
    <text x="3" style="font-weight:bold;" y="15">
      <tspan>Anteil Zugezogene nach Zuzugsland</tspan>
    </text>
  </g>
  <g class="highcharts-legend" transform="translate(251,323)">
    <rect fill="none" class="highcharts-legend-box" rx="0" ry="0" x="0" y="0" width="214" height="47" visibility="visible"/>
    <g>
      <g>
        <g class="highcharts-legend-item highcharts-undefined-series highcharts-color-undefined" transform="translate(8,3)">
          <rect x="0" y="4" width="200" height="12" fill="url(#b)"/>
          <g class="highcharts-grid highcharts-coloraxis-grid ">
            <path fill="none" stroke="#fbfbfb" stroke-width="1" class="highcharts-grid-line" d="M -0.5 4 L -0.5 16" opacity="1"/>
            <path fill="none" stroke="#fbfbfb" stroke-width="1" class="highcharts-grid-line" d="M 66.5 4 L 66.5 16" opacity="1"/>
            <path fill="none" stroke="#fbfbfb" stroke-width="1" class="highcharts-grid-line" d="M 132.5 4 L 132.5 16" opacity="1"/>
            <path fill="none" stroke="#fbfbfb" stroke-width="1" class="highcharts-grid-line" d="M 200.5 4 L 200.5 16" opacity="1"/>
          </g>
          <text x="21" style="color:#333333;font-size:12px;font-weight:bold;cursor:pointer;fill:#333333;" text-anchor="start" y="15"/>
          <g class="highcharts-axis highcharts-coloraxis ">
            <path fill="none" class="highcharts-axis-line" d="M 0 16 L 200 16"/>
          </g>
          <g class="highcharts-axis-labels highcharts-coloraxis-labels ">
            <text x="3.0546875" style="color:black;cursor:default;font-size:11px;fill:black;" text-anchor="middle" transform="translate(0,0)" y="35" opacity="1">
              0
            </text>
            <text x="66.66666666666667" style="color:black;cursor:default;font-size:11px;fill:black;" text-anchor="middle" transform="translate(0,0)" y="35" opacity="1">
              5
            </text>
            <text x="133.33333333333334" style="color:black;cursor:default;font-size:11px;fill:black;" text-anchor="middle" transform="translate(0,0)" y="35" opacity="1">
              10
            </text>
            <text x="193.890625" style="color:black;cursor:default;font-size:11px;fill:black;" text-anchor="middle" transform="translate(0,0)" y="35" opacity="1">
              15
            </text>
          </g>
        </g>
      </g>
    </g>
  </g>
  <text x="10" class="highcharts-credits" text-anchor="start" style="cursor:default;color:#000000;font-size:10px;fill:#000000;" y="400">
    <tspan>Quelle: Statistisches Amt Basel-Stadt, Bevlkerungsstatistik</tspan>
  </text>
</svg>
