<?xml version="1.0" standalone="no"?>
<!DOCTYPE svg PUBLIC "-//W3C//DTD SVG 1.1//EN" "http://www.w3.org/Graphics/SVG/1.1/DTD/svg11.dtd">
<svg xmlns:xlink="http://www.w3.org/1999/xlink" version="1.1" class="highcharts-root" style="font-family:arial;font-size:12px;" xmlns="http://www.w3.org/2000/svg" viewBox="0 0 485 415">
  <desc>
    Created with Highstock 5.0.14
  </desc>
  <defs>
    <clipPath>
      <rect x="0" y="0" width="297" height="303" fill="none"/>
    </clipPath>
    <clipPath id="a">
      <rect x="0" y="0" width="297" height="303" fill="none"/>
    </clipPath>
  </defs>
  <rect fill="#fbfbfb" class="highcharts-background" x="0" y="0" width="485" height="415" rx="0" ry="0"/>
  <rect fill="none" class="highcharts-plot-background" x="172" y="67" width="303" height="297"/>
  <g class="highcharts-pane-group"/>
  <g class="highcharts-grid highcharts-xaxis-grid ">
    <path fill="none" class="highcharts-grid-line" d="M 172 94.5 L 475 94.5" opacity="1"/>
    <path fill="none" class="highcharts-grid-line" d="M 172 121.5 L 475 121.5" opacity="1"/>
    <path fill="none" class="highcharts-grid-line" d="M 172 148.5 L 475 148.5" opacity="1"/>
    <path fill="none" class="highcharts-grid-line" d="M 172 175.5 L 475 175.5" opacity="1"/>
    <path fill="none" class="highcharts-grid-line" d="M 172 202.5 L 475 202.5" opacity="1"/>
    <path fill="none" class="highcharts-grid-line" d="M 172 229.5 L 475 229.5" opacity="1"/>
    <path fill="none" class="highcharts-grid-line" d="M 172 256.5 L 475 256.5" opacity="1"/>
    <path fill="none" class="highcharts-grid-line" d="M 172 283.5 L 475 283.5" opacity="1"/>
    <path fill="none" class="highcharts-grid-line" d="M 172 310.5 L 475 310.5" opacity="1"/>
    <path fill="none" class="highcharts-grid-line" d="M 172 337.5 L 475 337.5" opacity="1"/>
    <path fill="none" class="highcharts-grid-line" d="M 172 364.5 L 475 364.5" opacity="1"/>
    <path fill="none" class="highcharts-grid-line" d="M 172 67.5 L 475 67.5" opacity="1"/>
  </g>
  <g class="highcharts-grid highcharts-yaxis-grid ">
    <path fill="none" stroke="#B9CFD7" stroke-width="0.5" class="highcharts-grid-line" d="M 171.75 67 L 171.75 364" opacity="1"/>
    <path fill="none" stroke="#B9CFD7" stroke-width="0.5" class="highcharts-grid-line" d="M 247.75 67 L 247.75 364" opacity="1"/>
    <path fill="none" stroke="#B9CFD7" stroke-width="0.5" class="highcharts-grid-line" d="M 323.75 67 L 323.75 364" opacity="1"/>
    <path fill="none" stroke="#B9CFD7" stroke-width="0.5" class="highcharts-grid-line" d="M 398.75 67 L 398.75 364" opacity="1"/>
    <path fill="none" stroke="#B9CFD7" stroke-width="0.5" class="highcharts-grid-line" d="M 475.25 67 L 475.25 364" opacity="1"/>
  </g>
  <rect fill="none" class="highcharts-plot-border" x="172" y="67" width="303" height="297"/>
  <g class="highcharts-axis highcharts-xaxis ">
    <path fill="none" class="highcharts-axis-line" stroke="#B9CFD7" stroke-width="0.5" d="M 171.75 67 L 171.75 364"/>
  </g>
  <g class="highcharts-axis highcharts-yaxis ">
    <path fill="none" class="highcharts-axis-line" d="M 172 364 L 475 364"/>
  </g>
  <g class="highcharts-series-group">
    <g class="highcharts-series highcharts-series-0 highcharts-column-series highcharts-color-undefined " transform="translate(475,364) rotate(90) scale(-1,1) scale(1 1)" clip-path="url(#a)">
      <rect x="284" y="212" width="8" height="92" fill="#E6E600" class="highcharts-point"/>
      <rect x="257" y="263" width="8" height="41" fill="#E6E600" class="highcharts-point"/>
      <rect x="230" y="201" width="8" height="103" fill="#E6E600" class="highcharts-point"/>
      <rect x="203" y="41" width="8" height="263" fill="#E6E600" class="highcharts-point"/>
      <rect x="176" y="207" width="8" height="97" fill="#E6E600" class="highcharts-point"/>
      <rect x="149" y="234" width="8" height="70" fill="#E6E600" class="highcharts-point"/>
      <rect x="122" y="98" width="8" height="206" fill="#E6E600" class="highcharts-point"/>
      <rect x="95" y="206" width="8" height="98" fill="#E6E600" class="highcharts-point"/>
      <rect x="68" y="204" width="8" height="100" fill="#E6E600" class="highcharts-point"/>
      <rect x="41" y="167" width="8" height="137" fill="#E6E600" class="highcharts-point"/>
      <rect x="14" y="181" width="8" height="123" fill="#E6E600" class="highcharts-point"/>
    </g>
    <g class="highcharts-markers highcharts-series-0 highcharts-column-series highcharts-color-undefined " transform="translate(475,364) rotate(90) scale(-1,1) scale(1 1)" clip-path="none"/>
    <g class="highcharts-series highcharts-series-1 highcharts-column-series highcharts-color-undefined " transform="translate(475,364) rotate(90) scale(-1,1) scale(1 1)" clip-path="url(#a)">
      <rect x="275" y="200" width="9" height="104" fill="#68AB2B" class="highcharts-point"/>
      <rect x="248" y="240" width="9" height="64" fill="#68AB2B" class="highcharts-point"/>
      <rect x="221" y="224" width="9" height="80" fill="#68AB2B" class="highcharts-point"/>
      <rect x="194" y="189" width="9" height="115" fill="#68AB2B" class="highcharts-point"/>
      <rect x="167" y="215" width="9" height="89" fill="#68AB2B" class="highcharts-point"/>
      <rect x="140" y="243" width="9" height="61" fill="#68AB2B" class="highcharts-point"/>
      <rect x="113" y="179" width="9" height="125" fill="#68AB2B" class="highcharts-point"/>
      <rect x="86" y="240" width="9" height="64" fill="#68AB2B" class="highcharts-point"/>
      <rect x="59" y="152" width="9" height="152" fill="#68AB2B" class="highcharts-point"/>
      <rect x="32" y="145" width="9" height="159" fill="#68AB2B" class="highcharts-point"/>
      <rect x="5" y="195" width="8" height="109" fill="#68AB2B" class="highcharts-point"/>
    </g>
    <g class="highcharts-markers highcharts-series-1 highcharts-column-series highcharts-color-undefined " transform="translate(475,364) rotate(90) scale(-1,1) scale(1 1)" clip-path="none"/>
  </g>
  <text x="10" text-anchor="start" class="highcharts-title" style="color:#000000;font-size:14px;font-weight:bold;fill:#000000;" y="21">
    <tspan>Jugendquotient nach Staatsangehörigkeit</tspan>
  </text>
  <text x="10" text-anchor="start" class="highcharts-subtitle" style="color:#000000;font-size:12px;font-weight:normal;font-family:arial;fill:#000000;" y="40">
    <tspan>Ländergruppen</tspan>
  </text>
  <g class="highcharts-legend" transform="translate(164,30)">
    <rect fill="none" class="highcharts-legend-box" rx="0" ry="0" x="0" y="0" width="131" height="25" visibility="visible"/>
    <g>
      <g>
        <g class="highcharts-legend-item highcharts-column-series highcharts-color-undefined highcharts-series-0" transform="translate(8,3)">
          <text x="21" style="color:#333333;font-size:12px;font-weight:normal;cursor:pointer;fill:#333333;" text-anchor="start" y="15">
            <tspan>1997</tspan>
          </text>
          <rect x="2" y="4" width="12" height="12" fill="#E6E600" class="highcharts-point"/>
        </g>
        <g class="highcharts-legend-item highcharts-column-series highcharts-color-undefined highcharts-series-1" transform="translate(75.6875,3)">
          <text x="21" y="15" style="color:#333333;font-size:12px;font-weight:normal;cursor:pointer;fill:#333333;" text-anchor="start">
            <tspan>2016</tspan>
          </text>
          <rect x="2" y="4" width="12" height="12" fill="#68AB2B" class="highcharts-point"/>
        </g>
      </g>
    </g>
  </g>
  <g class="highcharts-axis-labels highcharts-xaxis-labels ">
    <text x="157" style="color:#000000;cursor:default;font-size:11px;fill:#000000;" text-anchor="end" transform="translate(0,0)" y="85" opacity="1">
      <tspan>Schweiz</tspan>
    </text>
    <text x="157" style="color:#000000;cursor:default;font-size:11px;fill:#000000;" text-anchor="end" transform="translate(0,0)" y="112" opacity="1">
      <tspan>Deutschland</tspan>
    </text>
    <text x="157" style="color:#000000;cursor:default;font-size:11px;fill:#000000;" text-anchor="end" transform="translate(0,0)" y="139" opacity="1">
      <tspan>Italien</tspan>
    </text>
    <text x="157" style="color:#000000;cursor:default;font-size:11px;fill:#000000;" text-anchor="end" transform="translate(0,0)" y="166" opacity="1">
      <tspan>Türkei</tspan>
    </text>
    <text x="157" style="color:#000000;cursor:default;font-size:11px;fill:#000000;" text-anchor="end" transform="translate(0,0)" y="193" opacity="1">
      <tspan>EU-17 + EFTA</tspan>
    </text>
    <text x="157" style="color:#000000;cursor:default;font-size:11px;fill:#000000;" text-anchor="end" transform="translate(0,0)" y="220" opacity="1">
      <tspan>EU-Ost</tspan>
    </text>
    <text x="157" style="color:#000000;cursor:default;font-size:11px;fill:#000000;" text-anchor="end" transform="translate(0,0)" y="247" opacity="1">
      <tspan>Balkan</tspan>
    </text>
    <text x="157" style="color:#000000;cursor:default;font-size:11px;fill:#000000;" text-anchor="end" transform="translate(0,0)" y="274" opacity="1">
      <tspan>Nord-, Mittel- und Südamerika</tspan>
    </text>
    <text x="157" style="color:#000000;cursor:default;font-size:11px;fill:#000000;" text-anchor="end" transform="translate(0,0)" y="301" opacity="1">
      <tspan>Arabische Länder</tspan>
    </text>
    <text x="157" style="color:#000000;cursor:default;font-size:11px;fill:#000000;" text-anchor="end" transform="translate(0,0)" y="328" opacity="1">
      <tspan>Afrikanische Länder</tspan>
    </text>
    <text x="157" style="color:#000000;cursor:default;font-size:11px;fill:#000000;" text-anchor="end" transform="translate(0,0)" y="355" opacity="1">
      <tspan>Übrige Länder</tspan>
    </text>
  </g>
  <g class="highcharts-axis-labels highcharts-yaxis-labels ">
    <text x="172" style="color:#000000;cursor:default;font-size:11px;fill:#000000;" text-anchor="middle" transform="translate(0,0)" y="383" opacity="1">
      <tspan>0</tspan>
    </text>
    <text x="247.75" style="color:#000000;cursor:default;font-size:11px;fill:#000000;" text-anchor="middle" transform="translate(0,0)" y="383" opacity="1">
      <tspan>20</tspan>
    </text>
    <text x="323.5" style="color:#000000;cursor:default;font-size:11px;fill:#000000;" text-anchor="middle" transform="translate(0,0)" y="383" opacity="1">
      <tspan>40</tspan>
    </text>
    <text x="399.25" style="color:#000000;cursor:default;font-size:11px;fill:#000000;" text-anchor="middle" transform="translate(0,0)" y="383" opacity="1">
      <tspan>60</tspan>
    </text>
    <text x="468.890625" style="color:#000000;cursor:default;font-size:11px;fill:#000000;" text-anchor="middle" transform="translate(0,0)" y="383" opacity="1">
      <tspan>80</tspan>
    </text>
  </g>
  <text x="10" class="highcharts-credits" text-anchor="start" style="cursor:default;color:#000000;font-size:10px;fill:#000000;" y="400">
    <tspan>Quelle: Statistisches Amt Basel-Stadt, Bevölkerungsstatistik</tspan>
  </text>
</svg>
