<?xml version="1.0" standalone="no"?>
<!DOCTYPE svg PUBLIC "-//W3C//DTD SVG 1.1//EN" "http://www.w3.org/Graphics/SVG/1.1/DTD/svg11.dtd">
<svg xmlns:xlink="http://www.w3.org/1999/xlink" version="1.1" class="highcharts-root" style="font-family:Arial;font-size:12px;" xmlns="http://www.w3.org/2000/svg" viewBox="0 0 485 415">
  <desc>
    Created with Highstock 6.0.4
  </desc>
  <defs>
    <clipPath>
      <rect x="0" y="0" width="232" height="359" fill="none"/>
    </clipPath>
    <clipPath id="a">
      <rect x="0" y="0" width="232" height="359" fill="none"/>
    </clipPath>
  </defs>
  <rect fill="#fbfbfb" class="highcharts-background" x="0" y="0" width="485" height="415" rx="0" ry="0"/>
  <rect fill="none" class="highcharts-plot-background" x="116" y="147" width="359" height="232"/>
  <g class="highcharts-pane-group"/>
  <g class="highcharts-grid highcharts-xaxis-grid ">
    <path fill="none" class="highcharts-grid-line" d="M 116 176.5 L 475 176.5" opacity="1"/>
    <path fill="none" class="highcharts-grid-line" d="M 116 205.5 L 475 205.5" opacity="1"/>
    <path fill="none" class="highcharts-grid-line" d="M 116 234.5 L 475 234.5" opacity="1"/>
    <path fill="none" class="highcharts-grid-line" d="M 116 263.5 L 475 263.5" opacity="1"/>
    <path fill="none" class="highcharts-grid-line" d="M 116 292.5 L 475 292.5" opacity="1"/>
    <path fill="none" class="highcharts-grid-line" d="M 116 321.5 L 475 321.5" opacity="1"/>
    <path fill="none" class="highcharts-grid-line" d="M 116 350.5 L 475 350.5" opacity="1"/>
    <path fill="none" class="highcharts-grid-line" d="M 116 379.5 L 475 379.5" opacity="1"/>
    <path fill="none" class="highcharts-grid-line" d="M 116 147.5 L 475 147.5" opacity="1"/>
  </g>
  <g class="highcharts-grid highcharts-yaxis-grid ">
    <path fill="none" stroke="#B9CFD7" stroke-width="0.5" class="highcharts-grid-line" d="M 115.75 147 L 115.75 379" opacity="1"/>
    <path fill="none" stroke="#B9CFD7" stroke-width="0.5" class="highcharts-grid-line" d="M 187.75 147 L 187.75 379" opacity="1"/>
    <path fill="none" stroke="#B9CFD7" stroke-width="0.5" class="highcharts-grid-line" d="M 259.75 147 L 259.75 379" opacity="1"/>
    <path fill="none" stroke="#B9CFD7" stroke-width="0.5" class="highcharts-grid-line" d="M 330.75 147 L 330.75 379" opacity="1"/>
    <path fill="none" stroke="#B9CFD7" stroke-width="0.5" class="highcharts-grid-line" d="M 402.75 147 L 402.75 379" opacity="1"/>
    <path fill="none" stroke="#B9CFD7" stroke-width="0.5" class="highcharts-grid-line" d="M 475.25 147 L 475.25 379" opacity="1"/>
  </g>
  <rect fill="none" class="highcharts-plot-border" x="116" y="147" width="359" height="232"/>
  <g class="highcharts-axis highcharts-xaxis ">
    <path fill="none" class="highcharts-axis-line" stroke="#B9CFD7" stroke-width="0.5" d="M 115.75 147 L 115.75 379"/>
  </g>
  <g class="highcharts-axis highcharts-yaxis ">
    <path fill="none" class="highcharts-axis-line" d="M 116 379 L 475 379"/>
  </g>
  <g class="highcharts-series-group">
    <g class="highcharts-series highcharts-series-0 highcharts-column-series " transform="translate(475,379) rotate(90) scale(-1,1) scale(1 1)" clip-path="url(#a)">
      <rect x="218" y="0" width="8" height="360" fill="#CD9C00" class="highcharts-point"/>
      <rect x="189" y="0" width="8" height="360" fill="#CD9C00" class="highcharts-point"/>
      <rect x="160" y="12" width="8" height="348" fill="#CD9C00" class="highcharts-point"/>
      <rect x="131" y="306" width="8" height="54" fill="#CD9C00" class="highcharts-point"/>
      <rect x="102" y="0" width="8" height="360" fill="#CD9C00" class="highcharts-point"/>
      <rect x="73" y="51" width="8" height="309" fill="#CD9C00" class="highcharts-point"/>
      <rect x="44" y="274" width="8" height="86" fill="#CD9C00" class="highcharts-point"/>
      <rect x="15" y="242" width="8" height="118" fill="#CD9C00" class="highcharts-point"/>
    </g>
    <g class="highcharts-markers highcharts-series-0 highcharts-column-series " transform="translate(475,379) rotate(90) scale(-1,1) scale(1 1)" clip-path="none"/>
    <g class="highcharts-series highcharts-series-1 highcharts-column-series " transform="translate(475,379) rotate(90) scale(-1,1) scale(1 1)" clip-path="url(#a)">
      <rect x="209" y="161" width="9" height="199" fill="#83522E" class="highcharts-point"/>
      <rect x="180" y="243" width="9" height="117" fill="#83522E" class="highcharts-point"/>
      <rect x="151" y="207" width="9" height="153" fill="#83522E" class="highcharts-point"/>
      <rect x="122" y="116" width="9" height="244" fill="#83522E" class="highcharts-point"/>
      <rect x="93" y="163" width="9" height="197" fill="#83522E" class="highcharts-point"/>
      <rect x="64" y="238" width="9" height="122" fill="#83522E" class="highcharts-point"/>
      <rect x="35" y="100" width="9" height="260" fill="#83522E" class="highcharts-point"/>
      <rect x="6" y="127" width="9" height="233" fill="#83522E" class="highcharts-point"/>
    </g>
    <g class="highcharts-markers highcharts-series-1 highcharts-column-series " transform="translate(475,379) rotate(90) scale(-1,1) scale(1 1)" clip-path="none"/>
  </g>
  <text x="10" text-anchor="start" class="highcharts-title" style="color:#000000;font-size:14px;font-weight:bold;fill:#000000;" y="21">
    <tspan>Kantonales Wettbewerbsprofil</tspan>
  </text>
  <text x="10" text-anchor="start" class="highcharts-subtitle" style="color:#000000;font-size:12px;font-weight:normal;font-family:Arial;fill:#000000;" y="40">
    <tspan>Basel-Stadt im Vergleich zum Median-Kanton, Stand: 2016</tspan>
  </text>
  <g class="highcharts-legend" transform="translate(108,110)">
    <rect fill="none" class="highcharts-legend-box" rx="0" ry="0" x="0" y="0" width="215" height="25" visibility="visible"/>
    <g>
      <g>
        <g class="highcharts-legend-item highcharts-column-series highcharts-color-undefined highcharts-series-0" transform="translate(8,3)">
          <text x="21" style="color:#333333;font-size:12px;font-weight:normal;cursor:pointer;fill:#333333;" text-anchor="start" y="15">
            <tspan>Basel-Stadt</tspan>
          </text>
          <rect x="2" y="4" width="12" height="12" fill="#CD9C00" class="highcharts-point"/>
        </g>
        <g class="highcharts-legend-item highcharts-column-series highcharts-color-undefined highcharts-series-1" transform="translate(110.984375,3)">
          <text x="21" y="15" style="color:#333333;font-size:12px;font-weight:normal;cursor:pointer;fill:#333333;" text-anchor="start">
            <tspan>Mediankanton</tspan>
          </text>
          <rect x="2" y="4" width="12" height="12" fill="#83522E" class="highcharts-point"/>
        </g>
      </g>
    </g>
  </g>
  <g class="highcharts-axis-labels highcharts-xaxis-labels ">
    <text x="101" style="color:#000000;cursor:default;font-size:11px;fill:#000000;" text-anchor="end" transform="translate(0,0)" y="166" opacity="1">
      <tspan>Wirtschaftsstruktur</tspan>
    </text>
    <text x="101" style="color:#000000;cursor:default;font-size:11px;fill:#000000;" text-anchor="end" transform="translate(0,0)" y="195" opacity="1">
      <tspan>Innovation</tspan>
    </text>
    <text x="101" style="color:#000000;cursor:default;font-size:11px;fill:#000000;" text-anchor="end" transform="translate(0,0)" y="224" opacity="1">
      <tspan>Humankapital</tspan>
    </text>
    <text x="101" style="color:#000000;cursor:default;font-size:11px;fill:#000000;" text-anchor="end" transform="translate(0,0)" y="253" opacity="1">
      <tspan>Arbeitsmarkt</tspan>
    </text>
    <text x="101" style="color:#000000;cursor:default;font-size:11px;fill:#000000;" text-anchor="end" transform="translate(0,0)" y="282" opacity="1">
      <tspan>Erreichbarkeit</tspan>
    </text>
    <text x="101" style="color:#000000;cursor:default;font-size:11px;fill:#000000;" text-anchor="end" transform="translate(0,0)" y="311" opacity="1">
      <tspan>Einzugsgebiet</tspan>
    </text>
    <text x="101" style="color:#000000;cursor:default;font-size:11px;fill:#000000;" text-anchor="end" transform="translate(0,0)" y="340" opacity="1">
      <tspan>Kostenumfeld</tspan>
    </text>
    <text x="101" style="color:#000000;cursor:default;font-size:11px;fill:#000000;" text-anchor="end" transform="translate(0,0)" y="369" opacity="1">
      <tspan>Staatsfinanzen</tspan>
    </text>
  </g>
  <g class="highcharts-axis-labels highcharts-yaxis-labels ">
    <text x="116" style="color:#000000;cursor:default;font-size:11px;fill:#000000;" text-anchor="middle" transform="translate(0,0)" y="398" opacity="1">
      <tspan>0</tspan>
    </text>
    <text x="187.8" style="color:#000000;cursor:default;font-size:11px;fill:#000000;" text-anchor="middle" transform="translate(0,0)" y="398" opacity="1">
      <tspan>20</tspan>
    </text>
    <text x="259.6" style="color:#000000;cursor:default;font-size:11px;fill:#000000;" text-anchor="middle" transform="translate(0,0)" y="398" opacity="1">
      <tspan>40</tspan>
    </text>
    <text x="331.4" style="color:#000000;cursor:default;font-size:11px;fill:#000000;" text-anchor="middle" transform="translate(0,0)" y="398" opacity="1">
      <tspan>60</tspan>
    </text>
    <text x="403.2" style="color:#000000;cursor:default;font-size:11px;fill:#000000;" text-anchor="middle" transform="translate(0,0)" y="398" opacity="1">
      <tspan>80</tspan>
    </text>
    <text x="465.828125" style="color:#000000;cursor:default;font-size:11px;fill:#000000;" text-anchor="middle" transform="translate(0,0)" y="398" opacity="1">
      <tspan>100</tspan>
    </text>
  </g>
  <text x="10" class="highcharts-credits" text-anchor="start" style="cursor:default;color:#000000;font-size:10px;fill:#000000;" y="400">
    <tspan>Quelle: UBS Switzerland AG</tspan>
  </text>
</svg>
