<?xml version="1.0" standalone="no"?>
<!DOCTYPE svg PUBLIC "-//W3C//DTD SVG 1.1//EN" "http://www.w3.org/Graphics/SVG/1.1/DTD/svg11.dtd">
<svg xmlns:xlink="http://www.w3.org/1999/xlink" version="1.1" class="highcharts-root" style="font-family:Arial;font-size:12px;" xmlns="http://www.w3.org/2000/svg" viewBox="0 0 485 415">
  <desc>
    Created with Highstock 6.0.4
  </desc>
  <defs>
    <clipPath>
      <rect x="0" y="0" width="389" height="294" fill="none"/>
    </clipPath>
    <clipPath id="a">
      <rect x="0" y="0" width="389" height="294" fill="none"/>
    </clipPath>
  </defs>
  <rect fill="#fbfbfb" class="highcharts-background" x="0" y="0" width="485" height="415" rx="0" ry="0"/>
  <rect fill="none" class="highcharts-plot-background" x="86" y="55" width="389" height="294"/>
  <g class="highcharts-pane-group"/>
  <g class="highcharts-grid highcharts-xaxis-grid ">
    <path fill="none" class="highcharts-grid-line" d="M 89.5 55 L 89.5 349" opacity="1"/>
    <path fill="none" class="highcharts-grid-line" d="M 131.5 55 L 131.5 349" opacity="1"/>
    <path fill="none" class="highcharts-grid-line" d="M 174.5 55 L 174.5 349" opacity="1"/>
    <path fill="none" class="highcharts-grid-line" d="M 216.5 55 L 216.5 349" opacity="1"/>
    <path fill="none" class="highcharts-grid-line" d="M 258.5 55 L 258.5 349" opacity="1"/>
    <path fill="none" class="highcharts-grid-line" d="M 301.5 55 L 301.5 349" opacity="1"/>
    <path fill="none" class="highcharts-grid-line" d="M 343.5 55 L 343.5 349" opacity="1"/>
    <path fill="none" class="highcharts-grid-line" d="M 385.5 55 L 385.5 349" opacity="1"/>
    <path fill="none" class="highcharts-grid-line" d="M 428.5 55 L 428.5 349" opacity="1"/>
    <path fill="none" class="highcharts-grid-line" d="M 470.5 55 L 470.5 349" opacity="1"/>
  </g>
  <g class="highcharts-grid highcharts-yaxis-grid ">
    <path fill="none" stroke="#B9CFD7" stroke-width="0.5" class="highcharts-grid-line" d="M 86 349.25 L 475 349.25" opacity="1"/>
    <path fill="none" stroke="#B9CFD7" stroke-width="0.5" class="highcharts-grid-line" d="M 86 290.25 L 475 290.25" opacity="1"/>
    <path fill="none" stroke="#B9CFD7" stroke-width="0.5" class="highcharts-grid-line" d="M 86 231.25 L 475 231.25" opacity="1"/>
    <path fill="none" stroke="#B9CFD7" stroke-width="0.5" class="highcharts-grid-line" d="M 86 173.25 L 475 173.25" opacity="1"/>
    <path fill="none" stroke="#B9CFD7" stroke-width="0.5" class="highcharts-grid-line" d="M 86 114.25 L 475 114.25" opacity="1"/>
    <path fill="none" stroke="#B9CFD7" stroke-width="0.5" class="highcharts-grid-line" d="M 86 54.75 L 475 54.75" opacity="1"/>
  </g>
  <rect fill="none" class="highcharts-plot-border" x="86" y="55" width="389" height="294"/>
  <g class="highcharts-axis highcharts-xaxis ">
    <path fill="none" class="highcharts-axis-line" stroke="#B9CFD7" stroke-width="0.5" d="M 86 349.25 L 475 349.25"/>
  </g>
  <g class="highcharts-axis highcharts-yaxis ">
    <path fill="none" class="highcharts-axis-line" d="M 86 55 L 86 349"/>
  </g>
  <g class="highcharts-series-group">
    <g class="highcharts-series highcharts-series-0 highcharts-line-series " transform="translate(86,55) scale(1 1)" clip-path="url(#a)">
      <path fill="none" d="M 3.8137254901927 176.32247255279998 L 46.188453159039 147.91182932819999 L 88.563180827885 139.300570416 L 130.93790849673 120.527697864 L 173.31263616558 117.81640637340001 L 215.68736383442 109.504641792 L 258.06209150327 98.41233737747999 L 300.43681917212 79.21789380959999 L 342.81154684096 70.0353477978 L 385.18627450981 56.60587147319998" class="highcharts-graph" stroke="#8b2223" stroke-width="2" stroke-linejoin="round" stroke-linecap="round"/>
    </g>
    <g class="highcharts-markers highcharts-series-0 highcharts-line-series " transform="translate(86,55) scale(1 1)" clip-path="none">
      <path fill="#8b2223" d="M 7 176 A 4 4 0 1 1 6.999998000000167 175.99600000066667 Z" class="highcharts-point"/>
      <path fill="#8b2223" d="M 50 148 A 4 4 0 1 1 49.99999800000017 147.99600000066667 Z" class="highcharts-point"/>
      <path fill="#8b2223" d="M 92 139 A 4 4 0 1 1 91.99999800000016 138.99600000066667 Z" class="highcharts-point"/>
      <path fill="#8b2223" d="M 134 121 A 4 4 0 1 1 133.99999800000018 120.99600000066667 Z" class="highcharts-point"/>
      <path fill="#8b2223" d="M 177 118 A 4 4 0 1 1 176.99999800000018 117.99600000066667 Z" class="highcharts-point"/>
      <path fill="#8b2223" d="M 219 110 A 4 4 0 1 1 218.99999800000018 109.99600000066667 Z" class="highcharts-point"/>
      <path fill="#8b2223" d="M 262 98 A 4 4 0 1 1 261.9999980000002 97.99600000066667 Z" class="highcharts-point"/>
      <path fill="#8b2223" d="M 304 79 A 4 4 0 1 1 303.9999980000002 78.99600000066667 Z" class="highcharts-point"/>
      <path fill="#8b2223" d="M 346 70 A 4 4 0 1 1 345.9999980000002 69.99600000066667 Z" class="highcharts-point"/>
      <path fill="#8b2223" d="M 389 57 A 4 4 0 1 1 388.9999980000002 56.99600000066666 Z" class="highcharts-point"/>
    </g>
  </g>
  <text x="10" text-anchor="start" class="highcharts-title" style="color:#000000;font-size:14px;font-weight:bold;fill:#000000;" y="21">
    <tspan>Steuereinnahmen aus Quellensteuer</tspan>
  </text>
  <text x="10" text-anchor="start" class="highcharts-subtitle" style="color:#000000;font-size:12px;font-weight:normal;font-family:Arial;fill:#000000;" y="40">
    <tspan>in Franken</tspan>
  </text>
  <g class="highcharts-data-labels highcharts-series-0 highcharts-line-series " visibility="visible" transform="translate(86,55) scale(1 1)">
    <g class="highcharts-label highcharts-data-label highcharts-data-label-color-undefined " transform="translate(-5,193)">
      <text x="5" style="font-size:11px;font-weight:bold;color:#000000;fill:#000000;" y="16">
        <tspan x="5" y="16" class="highcharts-text-outline" fill="#FFFFFF" stroke="#FFFFFF" stroke-width="2px" stroke-linejoin="round">200 131 849</tspan><tspan x="5" y="16">200 131 849</tspan>
      </text>
    </g>
    <g class="highcharts-label highcharts-data-label highcharts-data-label-color-undefined " transform="translate(41,178)">
      <text x="5" style="font-size:11px;font-weight:bold;color:#000000;fill:#000000;" y="16"/>
    </g>
    <g class="highcharts-label highcharts-data-label highcharts-data-label-color-undefined " transform="translate(84,169)">
      <text x="5" style="font-size:11px;font-weight:bold;color:#000000;fill:#000000;" y="16"/>
    </g>
    <g class="highcharts-label highcharts-data-label highcharts-data-label-color-undefined " transform="translate(126,151)">
      <text x="5" style="font-size:11px;font-weight:bold;color:#000000;fill:#000000;" y="16"/>
    </g>
    <g class="highcharts-label highcharts-data-label highcharts-data-label-color-undefined " transform="translate(168,148)">
      <text x="5" style="font-size:11px;font-weight:bold;color:#000000;fill:#000000;" y="16"/>
    </g>
    <g class="highcharts-label highcharts-data-label highcharts-data-label-color-undefined " transform="translate(211,140)">
      <text x="5" style="font-size:11px;font-weight:bold;color:#000000;fill:#000000;" y="16"/>
    </g>
    <g class="highcharts-label highcharts-data-label highcharts-data-label-color-undefined " transform="translate(253,128)">
      <text x="5" style="font-size:11px;font-weight:bold;color:#000000;fill:#000000;" y="16"/>
    </g>
    <g class="highcharts-label highcharts-data-label highcharts-data-label-color-undefined " transform="translate(295,109)">
      <text x="5" style="font-size:11px;font-weight:bold;color:#000000;fill:#000000;" y="16"/>
    </g>
    <g class="highcharts-label highcharts-data-label highcharts-data-label-color-undefined " transform="translate(338,100)">
      <text x="5" style="font-size:11px;font-weight:bold;color:#000000;fill:#000000;" y="16"/>
    </g>
    <g class="highcharts-label highcharts-data-label highcharts-data-label-color-undefined " transform="translate(323,74)">
      <text x="5" style="font-size:11px;font-weight:bold;color:#000000;fill:#000000;" y="16">
        <tspan x="5" y="16" class="highcharts-text-outline" fill="#FFFFFF" stroke="#FFFFFF" stroke-width="2px" stroke-linejoin="round">403 731 511</tspan><tspan x="5" y="16">403 731 511</tspan>
      </text>
    </g>
  </g>
  <g class="highcharts-axis-labels highcharts-xaxis-labels ">
    <text x="89.81372549019268" style="color:#000000;cursor:default;font-size:11px;fill:#000000;" text-anchor="middle" transform="translate(0,0)" y="368" opacity="1">
      2006
    </text>
    <text x="132.18845315903874" style="color:#000000;cursor:default;font-size:11px;fill:#000000;" text-anchor="middle" transform="translate(0,0)" y="368" opacity="1">
      2007
    </text>
    <text x="174.56318082788482" style="color:#000000;cursor:default;font-size:11px;fill:#000000;" text-anchor="middle" transform="translate(0,0)" y="368" opacity="1">
      2008
    </text>
    <text x="216.9379084967309" style="color:#000000;cursor:default;font-size:11px;fill:#000000;" text-anchor="middle" transform="translate(0,0)" y="368" opacity="1">
      2009
    </text>
    <text x="259.3126361655769" style="color:#000000;cursor:default;font-size:11px;fill:#000000;" text-anchor="middle" transform="translate(0,0)" y="368" opacity="1">
      2010
    </text>
    <text x="301.687363834423" style="color:#000000;cursor:default;font-size:11px;fill:#000000;" text-anchor="middle" transform="translate(0,0)" y="368" opacity="1">
      2011
    </text>
    <text x="344.0620915032691" style="color:#000000;cursor:default;font-size:11px;fill:#000000;" text-anchor="middle" transform="translate(0,0)" y="368" opacity="1">
      2012
    </text>
    <text x="386.4368191721152" style="color:#000000;cursor:default;font-size:11px;fill:#000000;" text-anchor="middle" transform="translate(0,0)" y="368" opacity="1">
      2013
    </text>
    <text x="428.8115468409612" style="color:#000000;cursor:default;font-size:11px;fill:#000000;" text-anchor="middle" transform="translate(0,0)" y="368" opacity="1">
      2014
    </text>
    <text x="462.78125" style="color:#000000;cursor:default;font-size:11px;fill:#000000;" text-anchor="middle" transform="translate(0,0)" y="368" opacity="1">
      2015
    </text>
  </g>
  <g class="highcharts-axis-labels highcharts-yaxis-labels ">
    <text x="71" style="color:#000000;cursor:default;font-size:11px;fill:#000000;" text-anchor="end" transform="translate(0,0)" y="354" opacity="1">
      <tspan>0</tspan>
    </text>
    <text x="71" style="color:#000000;cursor:default;font-size:11px;fill:#000000;" text-anchor="end" transform="translate(0,0)" y="295" opacity="1">
      <tspan>100 000 000</tspan>
    </text>
    <text x="71" style="color:#000000;cursor:default;font-size:11px;fill:#000000;" text-anchor="end" transform="translate(0,0)" y="236" opacity="1">
      <tspan>200 000 000</tspan>
    </text>
    <text x="71" style="color:#000000;cursor:default;font-size:11px;fill:#000000;" text-anchor="end" transform="translate(0,0)" y="177" opacity="1">
      <tspan>300 000 000</tspan>
    </text>
    <text x="71" style="color:#000000;cursor:default;font-size:11px;fill:#000000;" text-anchor="end" transform="translate(0,0)" y="118" opacity="1">
      <tspan>400 000 000</tspan>
    </text>
    <text x="71" style="color:#000000;cursor:default;font-size:11px;fill:#000000;" text-anchor="end" transform="translate(0,0)" y="60" opacity="1">
      <tspan>500 000 000</tspan>
    </text>
  </g>
  <text x="10" class="highcharts-credits" text-anchor="start" style="cursor:default;color:#000000;font-size:10px;fill:#000000;" y="400">
    <tspan>Quelle: Steuerstatistik Basel-Stadt</tspan>
  </text>
</svg>
