<?xml version="1.0" standalone="no"?>
<!DOCTYPE svg PUBLIC "-//W3C//DTD SVG 1.1//EN" "http://www.w3.org/Graphics/SVG/1.1/DTD/svg11.dtd">
<svg xmlns:xlink="http://www.w3.org/1999/xlink" version="1.1" class="highcharts-root" style="font-family:Arial;font-size:12px;" xmlns="http://www.w3.org/2000/svg" viewBox="0 0 485 415">
  <desc>
    Created with Highstock 6.0.4
  </desc>
  <defs>
    <clipPath>
      <rect x="0" y="0" width="380" height="201" fill="none"/>
    </clipPath>
    <clipPath id="a">
      <rect x="0" y="0" width="380" height="201" fill="none"/>
    </clipPath>
    <clipPath id="b">
      <rect x="0" y="0" width="380" height="201" fill="none"/>
    </clipPath>
  </defs>
  <rect fill="#fbfbfb" class="highcharts-background" x="0" y="0" width="485" height="415" rx="0" ry="0"/>
  <rect fill="none" class="highcharts-plot-background" x="58" y="178" width="380" height="201"/>
  <g class="highcharts-pane-group"/>
  <g class="highcharts-grid highcharts-xaxis-grid ">
    <path fill="none" class="highcharts-grid-line" d="M 68.5 178 L 68.5 379" opacity="1"/>
    <path fill="none" class="highcharts-grid-line" d="M 113.5 178 L 113.5 379" opacity="1"/>
    <path fill="none" class="highcharts-grid-line" d="M 158.5 178 L 158.5 379" opacity="1"/>
    <path fill="none" class="highcharts-grid-line" d="M 202.5 178 L 202.5 379" opacity="1"/>
    <path fill="none" class="highcharts-grid-line" d="M 247.5 178 L 247.5 379" opacity="1"/>
    <path fill="none" class="highcharts-grid-line" d="M 292.5 178 L 292.5 379" opacity="1"/>
    <path fill="none" class="highcharts-grid-line" d="M 336.5 178 L 336.5 379" opacity="1"/>
    <path fill="none" class="highcharts-grid-line" d="M 381.5 178 L 381.5 379" opacity="1"/>
    <path fill="none" class="highcharts-grid-line" d="M 426.5 178 L 426.5 379" opacity="1"/>
  </g>
  <g class="highcharts-grid highcharts-yaxis-grid ">
    <path fill="none" stroke="#e6e6e6" stroke-width="1" class="highcharts-grid-line" d="M 58 379.5 L 438 379.5" opacity="1"/>
    <path fill="none" stroke="#e6e6e6" stroke-width="1" class="highcharts-grid-line" d="M 58 312.5 L 438 312.5" opacity="1"/>
    <path fill="none" stroke="#e6e6e6" stroke-width="1" class="highcharts-grid-line" d="M 58 245.5 L 438 245.5" opacity="1"/>
    <path fill="none" stroke="#e6e6e6" stroke-width="1" class="highcharts-grid-line" d="M 58 177.5 L 438 177.5" opacity="1"/>
  </g>
  <g class="highcharts-grid highcharts-yaxis-grid ">
    <path fill="none" stroke="#e6e6e6" stroke-width="1" class="highcharts-grid-line" d="M 58 379.5 L 438 379.5" opacity="1"/>
    <path fill="none" stroke="#e6e6e6" stroke-width="1" class="highcharts-grid-line" d="M 58 312.5 L 438 312.5" opacity="1"/>
    <path fill="none" stroke="#e6e6e6" stroke-width="1" class="highcharts-grid-line" d="M 58 245.5 L 438 245.5" opacity="1"/>
    <path fill="none" stroke="#e6e6e6" stroke-width="1" class="highcharts-grid-line" d="M 58 177.5 L 438 177.5" opacity="1"/>
  </g>
  <rect fill="none" class="highcharts-plot-border" x="58" y="178" width="380" height="201"/>
  <g class="highcharts-axis highcharts-xaxis ">
    <path fill="none" class="highcharts-axis-line" stroke="#B9CFD7" stroke-width="0.5" d="M 58 379.25 L 438 379.25"/>
  </g>
  <g class="highcharts-axis highcharts-yaxis ">
    <path fill="none" class="highcharts-axis-line" d="M 58 178 L 58 379"/>
  </g>
  <g class="highcharts-axis highcharts-yaxis ">
    <path fill="none" class="highcharts-axis-line" d="M 438 178 L 438 379"/>
  </g>
  <g class="highcharts-series-group">
    <g class="highcharts-series highcharts-series-0 highcharts-column-series " transform="translate(58,178) scale(1 1)" clip-path="url(#a)">
      <rect x="6" y="20" width="10" height="74" fill="#71A3B5" class="highcharts-point"/>
      <rect x="29" y="23" width="10" height="73" fill="#71A3B5" class="highcharts-point"/>
      <rect x="51" y="24" width="10" height="71" fill="#71A3B5" class="highcharts-point"/>
      <rect x="73" y="30" width="10" height="69" fill="#71A3B5" class="highcharts-point"/>
      <rect x="96" y="28" width="10" height="71" fill="#71A3B5" class="highcharts-point"/>
      <rect x="118" y="28" width="10" height="73" fill="#71A3B5" class="highcharts-point"/>
      <rect x="140" y="29" width="10" height="73" fill="#71A3B5" class="highcharts-point"/>
      <rect x="163" y="30" width="10" height="73" fill="#71A3B5" class="highcharts-point"/>
      <rect x="185" y="27" width="10" height="79" fill="#71A3B5" class="highcharts-point"/>
      <rect x="207" y="23" width="10" height="75" fill="#71A3B5" class="highcharts-point"/>
      <rect x="230" y="29" width="10" height="74" fill="#71A3B5" class="highcharts-point"/>
      <rect x="252" y="38" width="10" height="72" fill="#71A3B5" class="highcharts-point"/>
      <rect x="274" y="32" width="10" height="76" fill="#71A3B5" class="highcharts-point"/>
      <rect x="297" y="39" width="10" height="72" fill="#71A3B5" class="highcharts-point"/>
      <rect x="319" y="39" width="10" height="71" fill="#71A3B5" class="highcharts-point"/>
      <rect x="341" y="44" width="10" height="70" fill="#71A3B5" class="highcharts-point"/>
      <rect x="364" y="49" width="10" height="69" fill="#71A3B5" class="highcharts-point"/>
    </g>
    <g class="highcharts-markers highcharts-series-0 highcharts-column-series " transform="translate(58,178) scale(1 1)" clip-path="none"/>
    <g class="highcharts-series highcharts-series-1 highcharts-column-series " transform="translate(58,178) scale(1 1)" clip-path="url(#a)">
      <rect x="6" y="94" width="10" height="108" fill="#990300" class="highcharts-point"/>
      <rect x="29" y="96" width="10" height="106" fill="#990300" class="highcharts-point"/>
      <rect x="51" y="95" width="10" height="107" fill="#990300" class="highcharts-point"/>
      <rect x="73" y="99" width="10" height="103" fill="#990300" class="highcharts-point"/>
      <rect x="96" y="99" width="10" height="103" fill="#990300" class="highcharts-point"/>
      <rect x="118" y="101" width="10" height="101" fill="#990300" class="highcharts-point"/>
      <rect x="140" y="102" width="10" height="100" fill="#990300" class="highcharts-point"/>
      <rect x="163" y="103" width="10" height="99" fill="#990300" class="highcharts-point"/>
      <rect x="185" y="106" width="10" height="96" fill="#990300" class="highcharts-point"/>
      <rect x="207" y="98" width="10" height="104" fill="#990300" class="highcharts-point"/>
      <rect x="230" y="103" width="10" height="99" fill="#990300" class="highcharts-point"/>
      <rect x="252" y="110" width="10" height="92" fill="#990300" class="highcharts-point"/>
      <rect x="274" y="108" width="10" height="94" fill="#990300" class="highcharts-point"/>
      <rect x="297" y="111" width="10" height="91" fill="#990300" class="highcharts-point"/>
      <rect x="319" y="110" width="10" height="92" fill="#990300" class="highcharts-point"/>
      <rect x="341" y="114" width="10" height="88" fill="#990300" class="highcharts-point"/>
      <rect x="364" y="118" width="10" height="84" fill="#990300" class="highcharts-point"/>
    </g>
    <g class="highcharts-markers highcharts-series-1 highcharts-column-series " transform="translate(58,178) scale(1 1)" clip-path="none"/>
    <g class="highcharts-series highcharts-series-2 highcharts-line-series " transform="translate(58,178) scale(1 1)" clip-path="url(#b)">
      <path fill="none" d="M 11.176470588235 64.98999999999998 L 33.529411764706 64.98999999999998 L 55.882352941176 68.67499999999998 L 78.235294117647 65.66 L 100.58823529412 64.32 L 122.94117647059 59.629999999999995 L 145.29411764706 58.96000000000001 L 167.64705882353 58.28999999999999 L 190 49.579999999999984 L 212.35294117647 60.29999999999998 L 234.70588235294 57.285 L 257.05882352941 53.935 L 279.41176470588 51.254999999999995 L 301.76470588235 53.599999999999994 L 324.11764705882 55.275000000000006 L 346.47058823529 53.599999999999994 L 368.82352941176 50.70407918353993" class="highcharts-graph" stroke="#000000" stroke-width="2" stroke-linejoin="round" stroke-linecap="round"/>
    </g>
    <g class="highcharts-markers highcharts-series-2 highcharts-line-series " transform="translate(58,178) scale(1 1)" clip-path="none"/>
  </g>
  <text x="10" text-anchor="start" class="highcharts-title" style="color:#000000;font-size:14px;font-weight:bold;fill:#000000;" y="21">
    <tspan>Siedlungsabf채lle und Wertstoffsammlungen in kg pro Kopf;</tspan><tspan dy="17" x="10">Recyclingquote</tspan><title>Siedlungsabf채lle und Wertstoffsammlungen in kg pro Kopf; Recyclingquote</title>
  </text>
  <text x="10" text-anchor="start" class="highcharts-subtitle" style="color:#000000;font-size:12px;font-weight:normal;font-family:Arial;fill:#000000;" y="57"/>
  <g class="highcharts-legend" transform="translate(50,93)">
    <rect fill="none" class="highcharts-legend-box" rx="0" ry="0" x="0" y="0" width="496" height="73" visibility="visible"/>
    <g>
      <g>
        <g class="highcharts-legend-item highcharts-column-series highcharts-color-undefined highcharts-series-1" transform="translate(8,8)">
          <text x="21" style="color:#333333;font-size:12px;font-weight:normal;cursor:pointer;fill:#333333;" text-anchor="start" y="15">
            <tspan>Siedlungsabf채lle (linke skala; Hauskehricht und Sperrgut)</tspan>
          </text>
          <rect x="2" y="4" width="12" height="12" fill="#990300" class="highcharts-point"/>
        </g>
        <g class="highcharts-legend-item highcharts-column-series highcharts-color-undefined highcharts-series-0" transform="translate(8,27)">
          <text x="21" y="15" style="color:#333333;font-size:12px;font-weight:normal;cursor:pointer;fill:#333333;" text-anchor="start">
            <tspan>Wertstoffsammlungen (linke Skala)</tspan>
          </text>
          <rect x="2" y="4" width="12" height="12" fill="#71A3B5" class="highcharts-point"/>
        </g>
        <g class="highcharts-legend-item highcharts-line-series highcharts-color-undefined highcharts-series-2" transform="translate(8,46)">
          <path fill="none" d="M 0 11 L 16 11" class="highcharts-graph" stroke="#000000" stroke-width="2"/>
          <text x="21" y="15" style="color:#333333;font-size:12px;font-weight:normal;cursor:pointer;fill:#333333;" text-anchor="start">
            <tspan>Recyclingquote (rechte Skala)</tspan>
          </text>
        </g>
      </g>
    </g>
  </g>
  <g class="highcharts-axis-labels highcharts-xaxis-labels ">
    <text x="69.17647058823529" style="color:#000000;cursor:default;font-size:11px;fill:#000000;" text-anchor="middle" transform="translate(0,0)" y="398" opacity="1">
      2000
    </text>
    <text x="113.88235294117646" style="color:#000000;cursor:default;font-size:11px;fill:#000000;" text-anchor="middle" transform="translate(0,0)" y="398" opacity="1">
      2002
    </text>
    <text x="158.58823529411762" style="color:#000000;cursor:default;font-size:11px;fill:#000000;" text-anchor="middle" transform="translate(0,0)" y="398" opacity="1">
      2004
    </text>
    <text x="203.29411764705884" style="color:#000000;cursor:default;font-size:11px;fill:#000000;" text-anchor="middle" transform="translate(0,0)" y="398" opacity="1">
      2006
    </text>
    <text x="248" style="color:#000000;cursor:default;font-size:11px;fill:#000000;" text-anchor="middle" transform="translate(0,0)" y="398" opacity="1">
      2008
    </text>
    <text x="292.70588235294116" style="color:#000000;cursor:default;font-size:11px;fill:#000000;" text-anchor="middle" transform="translate(0,0)" y="398" opacity="1">
      2010
    </text>
    <text x="337.4117647058824" style="color:#000000;cursor:default;font-size:11px;fill:#000000;" text-anchor="middle" transform="translate(0,0)" y="398" opacity="1">
      2012
    </text>
    <text x="382.11764705882354" style="color:#000000;cursor:default;font-size:11px;fill:#000000;" text-anchor="middle" transform="translate(0,0)" y="398" opacity="1">
      2014
    </text>
    <text x="426.8235294117647" style="color:#000000;cursor:default;font-size:11px;fill:#000000;" text-anchor="middle" transform="translate(0,0)" y="398" opacity="1">
      2016
    </text>
  </g>
  <g class="highcharts-axis-labels highcharts-yaxis-labels ">
    <text x="43" style="color:#000000;cursor:default;font-size:11px;fill:#000000;" text-anchor="end" transform="translate(0,0)" y="384" opacity="1">
      <tspan>0 kg</tspan>
    </text>
    <text x="43" style="color:#000000;cursor:default;font-size:11px;fill:#000000;" text-anchor="end" transform="translate(0,0)" y="317" opacity="1">
      <tspan>120 kg</tspan>
    </text>
    <text x="43" style="color:#000000;cursor:default;font-size:11px;fill:#000000;" text-anchor="end" transform="translate(0,0)" y="250" opacity="1">
      <tspan>240 kg</tspan>
    </text>
    <text x="43" style="color:#000000;cursor:default;font-size:11px;fill:#000000;" text-anchor="end" transform="translate(0,0)" y="183" opacity="1">
      <tspan>360 kg</tspan>
    </text>
  </g>
  <g class="highcharts-axis-labels highcharts-yaxis-labels ">
    <text x="453" style="color:#000000;cursor:default;font-size:11px;fill:#000000;" text-anchor="start" transform="translate(0,0)" y="384" opacity="1">
      <tspan>0%</tspan>
    </text>
    <text x="453" style="color:#000000;cursor:default;font-size:11px;fill:#000000;" text-anchor="start" transform="translate(0,0)" y="317" opacity="1">
      <tspan>20%</tspan>
    </text>
    <text x="453" style="color:#000000;cursor:default;font-size:11px;fill:#000000;" text-anchor="start" transform="translate(0,0)" y="250" opacity="1">
      <tspan>40%</tspan>
    </text>
    <text x="453" style="color:#000000;cursor:default;font-size:11px;fill:#000000;" text-anchor="start" transform="translate(0,0)" y="183" opacity="1">
      <tspan>60%</tspan>
    </text>
  </g>
  <text x="10" class="highcharts-credits" text-anchor="start" style="cursor:default;color:#000000;font-size:10px;fill:#000000;" y="400">
    <tspan>Quelle: Amt f체r Umwelt und Energie Basel-Stadt</tspan>
  </text>
</svg>
