<svg version="1.1" style="font-family:Arial;font-size:12px;" xmlns="http://www.w3.org/2000/svg" viewBox="0 0 485 415"><desc>Created with Highcharts 4.2.6</desc><defs><clippath id="highcharts-1"><rect x="0" y="0" width="321" height="335"></rect></clippath></defs><rect x="0" y="0" width="485" height="415" fill="#fbfbfb" class=" highcharts-background"></rect><g class="highcharts-grid"></g><g class="highcharts-grid"><path fill="none" d="M 139.5 42 L 139.5 363" stroke="#D8D8D8" stroke-width="1" opacity="1"></path><path fill="none" d="M 195.5 42 L 195.5 363" stroke="#D8D8D8" stroke-width="1" opacity="1"></path><path fill="none" d="M 251.5 42 L 251.5 363" stroke="#D8D8D8" stroke-width="1" opacity="1"></path><path fill="none" d="M 307.5 42 L 307.5 363" stroke="#D8D8D8" stroke-width="1" opacity="1"></path><path fill="none" d="M 362.5 42 L 362.5 363" stroke="#D8D8D8" stroke-width="1" opacity="1"></path><path fill="none" d="M 418.5 42 L 418.5 363" stroke="#D8D8D8" stroke-width="1" opacity="1"></path><path fill="none" d="M 475.5 42 L 475.5 363" stroke="#D8D8D8" stroke-width="1" opacity="1"></path></g><g class="highcharts-axis"><path fill="none" d="M 140 57.5 L 130 57.5" stroke="#FFFFFF" stroke-width="1" opacity="1"></path><path fill="none" d="M 140 73.5 L 130 73.5" stroke="#FFFFFF" stroke-width="1" opacity="1"></path><path fill="none" d="M 140 88.5 L 130 88.5" stroke="#FFFFFF" stroke-width="1" opacity="1"></path><path fill="none" d="M 140 103.5 L 130 103.5" stroke="#FFFFFF" stroke-width="1" opacity="1"></path><path fill="none" d="M 140 118.5 L 130 118.5" stroke="#FFFFFF" stroke-width="1" opacity="1"></path><path fill="none" d="M 140 134.5 L 130 134.5" stroke="#FFFFFF" stroke-width="1" opacity="1"></path><path fill="none" d="M 140 149.5 L 130 149.5" stroke="#FFFFFF" stroke-width="1" opacity="1"></path><path fill="none" d="M 140 164.5 L 130 164.5" stroke="#FFFFFF" stroke-width="1" opacity="1"></path><path fill="none" d="M 140 180.5 L 130 180.5" stroke="#FFFFFF" stroke-width="1" opacity="1"></path><path fill="none" d="M 140 195.5 L 130 195.5" stroke="#FFFFFF" stroke-width="1" opacity="1"></path><path fill="none" d="M 140 210.5 L 130 210.5" stroke="#FFFFFF" stroke-width="1" opacity="1"></path><path fill="none" d="M 140 225.5 L 130 225.5" stroke="#FFFFFF" stroke-width="1" opacity="1"></path><path fill="none" d="M 140 241.5 L 130 241.5" stroke="#FFFFFF" stroke-width="1" opacity="1"></path><path fill="none" d="M 140 256.5 L 130 256.5" stroke="#FFFFFF" stroke-width="1" opacity="1"></path><path fill="none" d="M 140 271.5 L 130 271.5" stroke="#FFFFFF" stroke-width="1" opacity="1"></path><path fill="none" d="M 140 287.5 L 130 287.5" stroke="#FFFFFF" stroke-width="1" opacity="1"></path><path fill="none" d="M 140 302.5 L 130 302.5" stroke="#FFFFFF" stroke-width="1" opacity="1"></path><path fill="none" d="M 140 317.5 L 130 317.5" stroke="#FFFFFF" stroke-width="1" opacity="1"></path><path fill="none" d="M 140 332.5 L 130 332.5" stroke="#FFFFFF" stroke-width="1" opacity="1"></path><path fill="none" d="M 140 348.5 L 130 348.5" stroke="#FFFFFF" stroke-width="1" opacity="1"></path><path fill="none" d="M 140 363.5 L 130 363.5" stroke="#FFFFFF" stroke-width="1" opacity="1"></path><path fill="none" d="M 140 41.5 L 130 41.5" stroke="#FFFFFF" stroke-width="1" opacity="1"></path><path fill="none" d="M 139.5 42 L 139.5 363" stroke="#C0D0E0" stroke-width="1"></path></g><g class="highcharts-axis"></g><g class="highcharts-series-group"><g class="highcharts-series highcharts-series-0 highcharts-tracker" transform="translate(475,363) rotate(90) scale(-1,1) scale(1 1)" style="" width="335" height="321" clip-path="url(#highcharts-1)"></g><g class="highcharts-markers highcharts-series-0 highcharts-tracker" transform="translate(475,363) rotate(90) scale(-1,1) scale(1 1)" style="" width="335" height="321" clip-path="none"><path fill="#923F8D" d="M 7 24.292024395833323 C 12.328 24.292024395833323 12.328 32.29202439583332 7 32.29202439583332 C 1.672 32.29202439583332 1.672 24.292024395833323 7 24.292024395833323 Z"></path><path fill="#923F8D" d="M 22 41.902806393333265 C 27.328 41.902806393333265 27.328 49.902806393333265 22 49.902806393333265 C 16.672 49.902806393333265 16.672 41.902806393333265 22 41.902806393333265 Z"></path><path fill="#923F8D" d="M 38 45.44626515249996 C 43.328 45.44626515249996 43.328 53.44626515249996 38 53.44626515249996 C 32.672 53.44626515249996 32.672 45.44626515249996 38 45.44626515249996 Z"></path><path fill="#923F8D" d="M 53 71.99652516499998 C 58.328 71.99652516499998 58.328 79.99652516499998 53 79.99652516499998 C 47.672 79.99652516499998 47.672 71.99652516499998 53 71.99652516499998 Z"></path><path fill="#923F8D" d="M 68 72.04885060166663 C 73.328 72.04885060166663 73.328 80.04885060166663 68 80.04885060166663 C 62.672 80.04885060166663 62.672 72.04885060166663 68 72.04885060166663 Z"></path><path fill="#923F8D" d="M 84 88.49158251583333 C 89.328 88.49158251583333 89.328 96.49158251583333 84 96.49158251583333 C 78.672 96.49158251583333 78.672 88.49158251583333 84 88.49158251583333 Z"></path><path fill="#923F8D" d="M 99 110.03499467083333 C 104.328 110.03499467083333 104.328 118.03499467083333 99 118.03499467083333 C 93.672 118.03499467083333 93.672 110.03499467083333 99 110.03499467083333 Z"></path><path fill="#923F8D" d="M 114 125.30420382999998 C 119.328 125.30420382999998 119.328 133.30420382999998 114 133.30420382999998 C 108.672 133.30420382999998 108.672 125.30420382999998 114 125.30420382999998 Z"></path><path fill="#923F8D" d="M 129 125.89864591999998 C 134.328 125.89864591999998 134.328 133.89864591999998 129 133.89864591999998 C 123.672 133.89864591999998 123.672 125.89864591999998 129 125.89864591999998 Z"></path><path fill="#923F8D" d="M 145 130.8254619983333 C 150.328 130.8254619983333 150.328 138.8254619983333 145 138.8254619983333 C 139.672 138.8254619983333 139.672 130.8254619983333 145 130.8254619983333 Z"></path><path fill="#923F8D" d="M 160 141.39121716666665 C 165.328 141.39121716666665 165.328 149.39121716666665 160 149.39121716666665 C 154.672 149.39121716666665 154.672 141.39121716666665 160 141.39121716666665 Z"></path><path fill="#923F8D" d="M 175 149.83193942083332 C 180.328 149.83193942083332 180.328 157.83193942083332 175 157.83193942083332 C 169.672 157.83193942083332 169.672 149.83193942083332 175 149.83193942083332 Z"></path><path fill="#923F8D" d="M 191 157.7011947225 C 196.328 157.7011947225 196.328 165.7011947225 191 165.7011947225 C 185.672 165.7011947225 185.672 157.7011947225 191 157.7011947225 Z"></path><path fill="#923F8D" d="M 206 158.43148444916665 C 211.328 158.43148444916665 211.328 166.43148444916665 206 166.43148444916665 C 200.672 166.43148444916665 200.672 158.43148444916665 206 158.43148444916665 Z"></path><path fill="#923F8D" d="M 221 176.74623594916667 C 226.328 176.74623594916667 226.328 184.74623594916667 221 184.74623594916667 C 215.672 184.74623594916667 215.672 176.74623594916667 221 176.74623594916667 Z"></path><path fill="#923F8D" d="M 236 189.9473684475 C 241.328 189.9473684475 241.328 197.9473684475 236 197.9473684475 C 230.672 197.9473684475 230.672 189.9473684475 236 189.9473684475 Z"></path><path fill="#923F8D" d="M 252 190.48920264 C 257.328 190.48920264 257.328 198.48920264 252 198.48920264 C 246.672 198.48920264 246.672 190.48920264 252 190.48920264 Z"></path><path fill="#923F8D" d="M 267 193.93824968916667 C 272.328 193.93824968916667 272.328 201.93824968916667 267 201.93824968916667 C 261.672 201.93824968916667 261.672 193.93824968916667 267 193.93824968916667 Z"></path><path fill="#923F8D" d="M 282 201.9643316675 C 287.328 201.9643316675 287.328 209.9643316675 282 209.9643316675 C 276.672 209.9643316675 276.672 201.9643316675 282 201.9643316675 Z"></path><path fill="#923F8D" d="M 298 208.03520658083335 C 303.328 208.03520658083335 303.328 216.03520658083335 298 216.03520658083335 C 292.672 216.03520658083335 292.672 208.03520658083335 298 208.03520658083335 Z"></path><path fill="#923F8D" d="M 313 211.601233955 C 318.328 211.601233955 318.328 219.601233955 313 219.601233955 C 307.672 219.601233955 307.672 211.601233955 313 211.601233955 Z"></path></g></g><text x="10" text-anchor="start" class="highcharts-title" style="color:#000000;font-size:14px;font-weight:bold;font-family:Arial;fill:#000000;width:421px;" y="21"><tspan>GS-2 Anteil Ausländer</tspan></text><g class="highcharts-axis-labels highcharts-xaxis-labels"><text x="125" style="color:#000000;cursor:default;font-size:11px;fill:#000000;width:150px;text-overflow:ellipsis;" text-anchor="end" transform="translate(0,0)" y="54" opacity="1"><tspan>Bachletten</tspan></text><text x="125" style="color:#000000;cursor:default;font-size:11px;fill:#000000;width:150px;text-overflow:ellipsis;" text-anchor="end" transform="translate(0,0)" y="69" opacity="1"><tspan>Hirzbrunnen</tspan></text><text x="125" style="color:#000000;cursor:default;font-size:11px;fill:#000000;width:150px;text-overflow:ellipsis;" text-anchor="end" transform="translate(0,0)" y="84" opacity="1"><tspan>Bruderholz</tspan></text><text x="125" style="color:#000000;cursor:default;font-size:11px;fill:#000000;width:150px;text-overflow:ellipsis;" text-anchor="end" transform="translate(0,0)" y="100" opacity="1"><tspan>Riehen</tspan></text><text x="125" style="color:#000000;cursor:default;font-size:11px;fill:#000000;width:150px;text-overflow:ellipsis;" text-anchor="end" transform="translate(0,0)" y="115" opacity="1"><tspan>Bettingen</tspan></text><text x="125" style="color:#000000;cursor:default;font-size:11px;fill:#000000;width:150px;text-overflow:ellipsis;" text-anchor="end" transform="translate(0,0)" y="130" opacity="1"><tspan>Altstadt Grossbasel</tspan></text><text x="125" style="color:#000000;cursor:default;font-size:11px;fill:#000000;width:150px;text-overflow:ellipsis;" text-anchor="end" transform="translate(0,0)" y="145" opacity="1"><tspan>Gotthelf</tspan></text><text x="125" style="color:#000000;cursor:default;font-size:11px;fill:#000000;width:150px;text-overflow:ellipsis;" text-anchor="end" transform="translate(0,0)" y="161" opacity="1"><tspan>Wettstein</tspan></text><text x="125" style="color:#000000;cursor:default;font-size:11px;fill:#000000;width:150px;text-overflow:ellipsis;" text-anchor="end" transform="translate(0,0)" y="176" opacity="1"><tspan>St. Alban</tspan></text><text x="125" style="color:#000000;cursor:default;font-size:11px;fill:#000000;width:150px;text-overflow:ellipsis;" text-anchor="end" transform="translate(0,0)" y="191" opacity="1"><tspan>Breite</tspan></text><text x="125" style="color:#000000;cursor:default;font-size:11px;fill:#000000;width:150px;text-overflow:ellipsis;" text-anchor="end" transform="translate(0,0)" y="206" opacity="1"><tspan>Am Ring</tspan></text><text x="125" style="color:#000000;cursor:default;font-size:11px;fill:#000000;width:150px;text-overflow:ellipsis;" text-anchor="end" transform="translate(0,0)" y="222" opacity="1"><tspan>Altstadt Kleinbasel</tspan></text><text x="125" style="color:#000000;cursor:default;font-size:11px;fill:#000000;width:150px;text-overflow:ellipsis;" text-anchor="end" transform="translate(0,0)" y="237" opacity="1"><tspan>Iselin</tspan></text><text x="125" style="color:#000000;cursor:default;font-size:11px;fill:#000000;width:150px;text-overflow:ellipsis;" text-anchor="end" transform="translate(0,0)" y="252" opacity="1"><tspan>Vorstädte</tspan></text><text x="125" style="color:#000000;cursor:default;font-size:11px;fill:#000000;width:150px;text-overflow:ellipsis;" text-anchor="end" transform="translate(0,0)" y="268" opacity="1"><tspan>Gundeldingen</tspan></text><text x="125" style="color:#000000;cursor:default;font-size:11px;fill:#000000;width:150px;text-overflow:ellipsis;" text-anchor="end" transform="translate(0,0)" y="283" opacity="1"><tspan>St. Johann</tspan></text><text x="125" style="color:#000000;cursor:default;font-size:11px;fill:#000000;width:150px;text-overflow:ellipsis;" text-anchor="end" transform="translate(0,0)" y="298" opacity="1"><tspan>Kleinhüningen</tspan></text><text x="125" style="color:#000000;cursor:default;font-size:11px;fill:#000000;width:150px;text-overflow:ellipsis;" text-anchor="end" transform="translate(0,0)" y="314" opacity="1"><tspan>Clara</tspan></text><text x="125" style="color:#000000;cursor:default;font-size:11px;fill:#000000;width:150px;text-overflow:ellipsis;" text-anchor="end" transform="translate(0,0)" y="329" opacity="1"><tspan>Matthäus</tspan></text><text x="125" style="color:#000000;cursor:default;font-size:11px;fill:#000000;width:150px;text-overflow:ellipsis;" text-anchor="end" transform="translate(0,0)" y="344" opacity="1"><tspan>Klybeck</tspan></text><text x="125" style="color:#000000;cursor:default;font-size:11px;fill:#000000;width:150px;text-overflow:ellipsis;" text-anchor="end" transform="translate(0,0)" y="359" opacity="1"><tspan>Rosental</tspan></text></g><g class="highcharts-axis-labels highcharts-yaxis-labels"><text x="140" style="color:#000000;cursor:default;font-size:11px;fill:#000000;width:55.833333333333336;text-overflow:ellipsis;" text-anchor="middle" transform="translate(0,0)" y="382" opacity="1"><tspan>0%</tspan></text><text x="195.83333333333334" style="color:#000000;cursor:default;font-size:11px;fill:#000000;width:55.833333333333336;text-overflow:ellipsis;" text-anchor="middle" transform="translate(0,0)" y="382" opacity="1"><tspan>10%</tspan></text><text x="251.66666666666669" style="color:#000000;cursor:default;font-size:11px;fill:#000000;width:55.833333333333336;text-overflow:ellipsis;" text-anchor="middle" transform="translate(0,0)" y="382" opacity="1"><tspan>20%</tspan></text><text x="307.5" style="color:#000000;cursor:default;font-size:11px;fill:#000000;width:55.833333333333336;text-overflow:ellipsis;" text-anchor="middle" transform="translate(0,0)" y="382" opacity="1"><tspan>30%</tspan></text><text x="363.33333333333337" style="color:#000000;cursor:default;font-size:11px;fill:#000000;width:55.833333333333336;text-overflow:ellipsis;" text-anchor="middle" transform="translate(0,0)" y="382" opacity="1"><tspan>40%</tspan></text><text x="419.1666666666667" style="color:#000000;cursor:default;font-size:11px;fill:#000000;width:55.833333333333336;text-overflow:ellipsis;" text-anchor="middle" transform="translate(0,0)" y="382" opacity="1"><tspan>50%</tspan></text><text x="465.925" style="color:#000000;cursor:default;font-size:11px;fill:#000000;width:27.916666666666668;text-overflow:ellipsis;" text-anchor="middle" transform="translate(0,0)" y="382" opacity="1"><tspan>60%</tspan></text></g><g class="highcharts-tooltip" style="cursor:default;padding:0;pointer-events:none;white-space:nowrap;" transform="translate(0,-9000000000)"><path fill="none" d="M 3.5 0.5 L 13.5 0.5 C 16.5 0.5 16.5 0.5 16.5 3.5 L 16.5 28.5 C 16.5 31.5 16.5 31.5 13.5 31.5 L 3.5 31.5 C 0.5 31.5 0.5 31.5 0.5 28.5 L 0.5 3.5 C 0.5 0.5 0.5 0.5 3.5 0.5" isshadow="true" stroke="black" stroke-opacity="0.049999999999999996" stroke-width="5" transform="translate(1, 1)"></path><path fill="none" d="M 3.5 0.5 L 13.5 0.5 C 16.5 0.5 16.5 0.5 16.5 3.5 L 16.5 28.5 C 16.5 31.5 16.5 31.5 13.5 31.5 L 3.5 31.5 C 0.5 31.5 0.5 31.5 0.5 28.5 L 0.5 3.5 C 0.5 0.5 0.5 0.5 3.5 0.5" isshadow="true" stroke="black" stroke-opacity="0.09999999999999999" stroke-width="3" transform="translate(1, 1)"></path><path fill="none" d="M 3.5 0.5 L 13.5 0.5 C 16.5 0.5 16.5 0.5 16.5 3.5 L 16.5 28.5 C 16.5 31.5 16.5 31.5 13.5 31.5 L 3.5 31.5 C 0.5 31.5 0.5 31.5 0.5 28.5 L 0.5 3.5 C 0.5 0.5 0.5 0.5 3.5 0.5" isshadow="true" stroke="black" stroke-opacity="0.15" stroke-width="1" transform="translate(1, 1)"></path><path fill="rgba(249, 249, 249, .85)" d="M 3.5 0.5 L 13.5 0.5 C 16.5 0.5 16.5 0.5 16.5 3.5 L 16.5 28.5 C 16.5 31.5 16.5 31.5 13.5 31.5 L 3.5 31.5 C 0.5 31.5 0.5 31.5 0.5 28.5 L 0.5 3.5 C 0.5 0.5 0.5 0.5 3.5 0.5"></path><text x="8" style="font-size:12px;color:#333333;fill:#333333;" y="20"></text></g><text x="10" text-anchor="start" style="cursor:default;color:#000000;font-size:10px;fill:#000000;" y="410"><tspan>Quelle: Statistisches Amt Basel-Stadt, kantonale Bevölkerungsstatistik</tspan></text></svg>