<?xml version="1.0" standalone="no"?><!DOCTYPE svg PUBLIC "-//W3C//DTD SVG 1.1//EN" "http://www.w3.org/Graphics/SVG/1.1/DTD/svg11.dtd"><svg xmlns:xlink="http://www.w3.org/1999/xlink" version="1.1" style="font-family:Arial;font-size:12px;" xmlns="http://www.w3.org/2000/svg" width="485" height="415"><desc>Created with Highcharts 4.2.6</desc><defs><clipPath id="highcharts-1"><rect x="0" y="0" width="324" height="355"></rect></clipPath></defs><rect x="0" y="0" width="485" height="415" fill="#fbfbfb" class=" highcharts-background"></rect><g class="highcharts-grid"></g><g class="highcharts-grid"><path fill="none" d="M 119.5 41 L 119.5 365" stroke="#D8D8D8" stroke-width="1" opacity="1"></path><path fill="none" d="M 190.5 41 L 190.5 365" stroke="#D8D8D8" stroke-width="1" opacity="1"></path><path fill="none" d="M 261.5 41 L 261.5 365" stroke="#D8D8D8" stroke-width="1" opacity="1"></path><path fill="none" d="M 332.5 41 L 332.5 365" stroke="#D8D8D8" stroke-width="1" opacity="1"></path><path fill="none" d="M 403.5 41 L 403.5 365" stroke="#D8D8D8" stroke-width="1" opacity="1"></path><path fill="none" d="M 475.5 41 L 475.5 365" stroke="#D8D8D8" stroke-width="1" opacity="1"></path></g><g class="highcharts-axis"><path fill="none" d="M 120 56.5 L 110 56.5" stroke="#FFFFFF" stroke-width="1" opacity="1"></path><path fill="none" d="M 120 72.5 L 110 72.5" stroke="#FFFFFF" stroke-width="1" opacity="1"></path><path fill="none" d="M 120 87.5 L 110 87.5" stroke="#FFFFFF" stroke-width="1" opacity="1"></path><path fill="none" d="M 120 103.5 L 110 103.5" stroke="#FFFFFF" stroke-width="1" opacity="1"></path><path fill="none" d="M 120 118.5 L 110 118.5" stroke="#FFFFFF" stroke-width="1" opacity="1"></path><path fill="none" d="M 120 134.5 L 110 134.5" stroke="#FFFFFF" stroke-width="1" opacity="1"></path><path fill="none" d="M 120 149.5 L 110 149.5" stroke="#FFFFFF" stroke-width="1" opacity="1"></path><path fill="none" d="M 120 164.5 L 110 164.5" stroke="#FFFFFF" stroke-width="1" opacity="1"></path><path fill="none" d="M 120 180.5 L 110 180.5" stroke="#FFFFFF" stroke-width="1" opacity="1"></path><path fill="none" d="M 120 195.5 L 110 195.5" stroke="#FFFFFF" stroke-width="1" opacity="1"></path><path fill="none" d="M 120 211.5 L 110 211.5" stroke="#FFFFFF" stroke-width="1" opacity="1"></path><path fill="none" d="M 120 226.5 L 110 226.5" stroke="#FFFFFF" stroke-width="1" opacity="1"></path><path fill="none" d="M 120 242.5 L 110 242.5" stroke="#FFFFFF" stroke-width="1" opacity="1"></path><path fill="none" d="M 120 257.5 L 110 257.5" stroke="#FFFFFF" stroke-width="1" opacity="1"></path><path fill="none" d="M 120 272.5 L 110 272.5" stroke="#FFFFFF" stroke-width="1" opacity="1"></path><path fill="none" d="M 120 288.5 L 110 288.5" stroke="#FFFFFF" stroke-width="1" opacity="1"></path><path fill="none" d="M 120 303.5 L 110 303.5" stroke="#FFFFFF" stroke-width="1" opacity="1"></path><path fill="none" d="M 120 319.5 L 110 319.5" stroke="#FFFFFF" stroke-width="1" opacity="1"></path><path fill="none" d="M 120 334.5 L 110 334.5" stroke="#FFFFFF" stroke-width="1" opacity="1"></path><path fill="none" d="M 120 350.5 L 110 350.5" stroke="#FFFFFF" stroke-width="1" opacity="1"></path><path fill="none" d="M 120 365.5 L 110 365.5" stroke="#FFFFFF" stroke-width="1" opacity="1"></path><path fill="none" d="M 120 40.5 L 110 40.5" stroke="#FFFFFF" stroke-width="1" opacity="1"></path><path fill="none" d="M 119.5 41 L 119.5 365" stroke="#C0D0E0" stroke-width="1"></path></g><g class="highcharts-axis"></g><g class="highcharts-series-group"><g class="highcharts-series highcharts-series-0 highcharts-tracker" transform="translate(475,365) rotate(90) scale(-1,1) scale(1 1)" style="" width="355" height="324" clip-path="url(#highcharts-1)"></g><g class="highcharts-markers highcharts-series-0 highcharts-tracker" transform="translate(475,365) rotate(90) scale(-1,1) scale(1 1)" style="" width="355" height="324" clip-path="none"><path fill="#68AB2B" d="M 7 30.57793613499996 C 12.328 30.57793613499996 12.328 38.57793613499996 7 38.57793613499996 C 1.672 38.57793613499996 1.672 30.57793613499996 7 30.57793613499996 Z"></path><path fill="#68AB2B" d="M 23 68.19375864200003 C 28.328 68.19375864200003 28.328 76.19375864200003 23 76.19375864200003 C 17.672 76.19375864200003 17.672 68.19375864200003 23 68.19375864200003 Z"></path><path fill="#68AB2B" d="M 38 97.23576393000002 C 43.328 97.23576393000002 43.328 105.23576393000002 38 105.23576393000002 C 32.672 105.23576393000002 32.672 97.23576393000002 38 97.23576393000002 Z"></path><path fill="#68AB2B" d="M 54 142.22622774950003 C 59.328 142.22622774950003 59.328 150.22622774950003 54 150.22622774950003 C 48.672 150.22622774950003 48.672 142.22622774950003 54 142.22622774950003 Z"></path><path fill="#68AB2B" d="M 69 203.346103647 C 74.328 203.346103647 74.328 211.346103647 69 211.346103647 C 63.672 211.346103647 63.672 203.346103647 69 203.346103647 Z"></path><path fill="#68AB2B" d="M 84 220.250826992 C 89.328 220.250826992 89.328 228.250826992 84 228.250826992 C 78.672 228.250826992 78.672 220.250826992 84 220.250826992 Z"></path><path fill="#68AB2B" d="M 100 223.267719587 C 105.328 223.267719587 105.328 231.267719587 100 231.267719587 C 94.672 231.267719587 94.672 223.267719587 100 223.267719587 Z"></path><path fill="#68AB2B" d="M 115 234.91088657950002 C 120.328 234.91088657950002 120.328 242.91088657950002 115 242.91088657950002 C 109.672 242.91088657950002 109.672 234.91088657950002 115 234.91088657950002 Z"></path><path fill="#68AB2B" d="M 131 236.196229932 C 136.328 236.196229932 136.328 244.196229932 131 244.196229932 C 125.672 244.196229932 125.672 236.196229932 131 236.196229932 Z"></path><path fill="#68AB2B" d="M 146 254.62128199250003 C 151.328 254.62128199250003 151.328 262.62128199250003 146 262.62128199250003 C 140.672 262.62128199250003 140.672 254.62128199250003 146 254.62128199250003 Z"></path><path fill="#68AB2B" d="M 162 256.808717549 C 167.328 256.808717549 167.328 264.808717549 162 264.808717549 C 156.672 264.808717549 156.672 256.808717549 162 256.808717549 Z"></path><path fill="#68AB2B" d="M 177 265.9045525765 C 182.328 265.9045525765 182.328 273.9045525765 177 273.9045525765 C 171.672 273.9045525765 171.672 265.9045525765 177 265.9045525765 Z"></path><path fill="#68AB2B" d="M 192 281.4157208655 C 197.328 281.4157208655 197.328 289.4157208655 192 289.4157208655 C 186.672 289.4157208655 186.672 281.4157208655 192 281.4157208655 Z"></path><path fill="#68AB2B" d="M 208 288.048187037 C 213.328 288.048187037 213.328 296.048187037 208 296.048187037 C 202.672 296.048187037 202.672 288.048187037 208 288.048187037 Z"></path><path fill="#68AB2B" d="M 223 292.319199705 C 228.328 292.319199705 228.328 300.319199705 223 300.319199705 C 217.672 300.319199705 217.672 292.319199705 223 292.319199705 Z"></path><path fill="#68AB2B" d="M 239 294.34523334 C 244.328 294.34523334 244.328 302.34523334 239 302.34523334 C 233.672 302.34523334 233.672 294.34523334 239 294.34523334 Z"></path><path fill="#68AB2B" d="M 254 295.8311013535 C 259.328 295.8311013535 259.328 303.8311013535 254 303.8311013535 C 248.672 303.8311013535 248.672 295.8311013535 254 295.8311013535 Z"></path><path fill="#68AB2B" d="M 270 308.874487888 C 275.328 308.874487888 275.328 316.874487888 270 316.874487888 C 264.672 316.874487888 264.672 308.874487888 270 308.874487888 Z"></path><path fill="#68AB2B" d="M 285 315.4830453775 C 290.328 315.4830453775 290.328 323.4830453775 285 323.4830453775 C 279.672 323.4830453775 279.672 315.4830453775 285 315.4830453775 Z"></path><path fill="#68AB2B" d="M 300 322.2574441345 C 305.328 322.2574441345 305.328 330.2574441345 300 330.2574441345 C 294.672 330.2574441345 294.672 322.2574441345 300 322.2574441345 Z"></path><path fill="#68AB2B" d="M 316 327.2654434765 C 321.328 327.2654434765 321.328 335.2654434765 316 335.2654434765 C 310.672 335.2654434765 310.672 327.2654434765 316 327.2654434765 Z"></path></g></g><text x="10" text-anchor="start" class="highcharts-title" style="color:#000000;font-size:14px;font-weight:bold;font-family:Arial;fill:#000000;width:421px;" y="21"><tspan>RU-3 Anteil Grünflächen</tspan></text><g class="highcharts-axis-labels highcharts-xaxis-labels"><text x="105" style="color:#000000;cursor:default;font-size:11px;fill:#000000;width:150px;text-overflow:clip;" text-anchor="end" transform="translate(0,0)" y="54" opacity="1"><tspan>Altstadt Grossbasel</tspan></text><text x="105" style="color:#000000;cursor:default;font-size:11px;fill:#000000;width:150px;text-overflow:clip;" text-anchor="end" transform="translate(0,0)" y="69" opacity="1"><tspan>Altstadt Kleinbasel</tspan></text><text x="105" style="color:#000000;cursor:default;font-size:11px;fill:#000000;width:150px;text-overflow:clip;" text-anchor="end" transform="translate(0,0)" y="84" opacity="1"><tspan>Rosental</tspan></text><text x="105" style="color:#000000;cursor:default;font-size:11px;fill:#000000;width:150px;text-overflow:clip;" text-anchor="end" transform="translate(0,0)" y="100" opacity="1"><tspan>Klybeck</tspan></text><text x="105" style="color:#000000;cursor:default;font-size:11px;fill:#000000;width:150px;text-overflow:clip;" text-anchor="end" transform="translate(0,0)" y="115" opacity="1"><tspan>Kleinhüningen</tspan></text><text x="105" style="color:#000000;cursor:default;font-size:11px;fill:#000000;width:150px;text-overflow:clip;" text-anchor="end" transform="translate(0,0)" y="131" opacity="1"><tspan>Clara</tspan></text><text x="105" style="color:#000000;cursor:default;font-size:11px;fill:#000000;width:150px;text-overflow:clip;" text-anchor="end" transform="translate(0,0)" y="146" opacity="1"><tspan>Matthäus</tspan></text><text x="105" style="color:#000000;cursor:default;font-size:11px;fill:#000000;width:150px;text-overflow:clip;" text-anchor="end" transform="translate(0,0)" y="162" opacity="1"><tspan>Gundeldingen</tspan></text><text x="105" style="color:#000000;cursor:default;font-size:11px;fill:#000000;width:150px;text-overflow:clip;" text-anchor="end" transform="translate(0,0)" y="177" opacity="1"><tspan>Vorstädte</tspan></text><text x="105" style="color:#000000;cursor:default;font-size:11px;fill:#000000;width:150px;text-overflow:clip;" text-anchor="end" transform="translate(0,0)" y="192" opacity="1"><tspan>Am Ring</tspan></text><text x="105" style="color:#000000;cursor:default;font-size:11px;fill:#000000;width:150px;text-overflow:clip;" text-anchor="end" transform="translate(0,0)" y="208" opacity="1"><tspan>Wettstein</tspan></text><text x="105" style="color:#000000;cursor:default;font-size:11px;fill:#000000;width:150px;text-overflow:clip;" text-anchor="end" transform="translate(0,0)" y="223" opacity="1"><tspan>St. Johann</tspan></text><text x="105" style="color:#000000;cursor:default;font-size:11px;fill:#000000;width:150px;text-overflow:clip;" text-anchor="end" transform="translate(0,0)" y="239" opacity="1"><tspan>Gotthelf</tspan></text><text x="105" style="color:#000000;cursor:default;font-size:11px;fill:#000000;width:150px;text-overflow:clip;" text-anchor="end" transform="translate(0,0)" y="254" opacity="1"><tspan>St. Alban</tspan></text><text x="105" style="color:#000000;cursor:default;font-size:11px;fill:#000000;width:150px;text-overflow:clip;" text-anchor="end" transform="translate(0,0)" y="270" opacity="1"><tspan>Breite</tspan></text><text x="105" style="color:#000000;cursor:default;font-size:11px;fill:#000000;width:150px;text-overflow:clip;" text-anchor="end" transform="translate(0,0)" y="285" opacity="1"><tspan>Iselin</tspan></text><text x="105" style="color:#000000;cursor:default;font-size:11px;fill:#000000;width:150px;text-overflow:clip;" text-anchor="end" transform="translate(0,0)" y="300" opacity="1"><tspan>Bachletten</tspan></text><text x="105" style="color:#000000;cursor:default;font-size:11px;fill:#000000;width:150px;text-overflow:clip;" text-anchor="end" transform="translate(0,0)" y="316" opacity="1"><tspan>Hirzbrunnen</tspan></text><text x="105" style="color:#000000;cursor:default;font-size:11px;fill:#000000;width:150px;text-overflow:clip;" text-anchor="end" transform="translate(0,0)" y="331" opacity="1"><tspan>Bruderholz</tspan></text><text x="105" style="color:#000000;cursor:default;font-size:11px;fill:#000000;width:150px;text-overflow:clip;" text-anchor="end" transform="translate(0,0)" y="347" opacity="1"><tspan>Riehen</tspan></text><text x="105" style="color:#000000;cursor:default;font-size:11px;fill:#000000;width:150px;text-overflow:clip;" text-anchor="end" transform="translate(0,0)" y="362" opacity="1"><tspan>Bettingen</tspan></text></g><g class="highcharts-axis-labels highcharts-yaxis-labels"><text x="120" style="color:#000000;cursor:default;font-size:11px;fill:#000000;" text-anchor="middle" transform="translate(0,0)" y="384" opacity="1">0%</text><text x="191" style="color:#000000;cursor:default;font-size:11px;fill:#000000;" text-anchor="middle" transform="translate(0,0)" y="384" opacity="1">20%</text><text x="262" style="color:#000000;cursor:default;font-size:11px;fill:#000000;" text-anchor="middle" transform="translate(0,0)" y="384" opacity="1">40%</text><text x="333" style="color:#000000;cursor:default;font-size:11px;fill:#000000;" text-anchor="middle" transform="translate(0,0)" y="384" opacity="1">60%</text><text x="404" style="color:#000000;cursor:default;font-size:11px;fill:#000000;" text-anchor="middle" transform="translate(0,0)" y="384" opacity="1">80%</text><text x="460.953125" style="color:#000000;cursor:default;font-size:11px;fill:#000000;" text-anchor="middle" transform="translate(0,0)" y="384" opacity="1">100%</text></g><g class="highcharts-tooltip" style="cursor:default;padding:0;pointer-events:none;white-space:nowrap;" transform="translate(0,-9000000000)"><path fill="none" d="M 3.5 0.5 L 13.5 0.5 C 16.5 0.5 16.5 0.5 16.5 3.5 L 16.5 13.5 C 16.5 16.5 16.5 16.5 13.5 16.5 L 3.5 16.5 C 0.5 16.5 0.5 16.5 0.5 13.5 L 0.5 3.5 C 0.5 0.5 0.5 0.5 3.5 0.5" isShadow="true" stroke="black" stroke-width="5" transform="translate(1, 1)" opacity="0.049999999999999996"></path><path fill="none" d="M 3.5 0.5 L 13.5 0.5 C 16.5 0.5 16.5 0.5 16.5 3.5 L 16.5 13.5 C 16.5 16.5 16.5 16.5 13.5 16.5 L 3.5 16.5 C 0.5 16.5 0.5 16.5 0.5 13.5 L 0.5 3.5 C 0.5 0.5 0.5 0.5 3.5 0.5" isShadow="true" stroke="black" stroke-width="3" transform="translate(1, 1)" opacity="0.09999999999999999"></path><path fill="none" d="M 3.5 0.5 L 13.5 0.5 C 16.5 0.5 16.5 0.5 16.5 3.5 L 16.5 13.5 C 16.5 16.5 16.5 16.5 13.5 16.5 L 3.5 16.5 C 0.5 16.5 0.5 16.5 0.5 13.5 L 0.5 3.5 C 0.5 0.5 0.5 0.5 3.5 0.5" isShadow="true" stroke="black" stroke-width="1" transform="translate(1, 1)" opacity="0.15"></path><path fill="rgba(249, 249, 249, .85)" d="M 3.5 0.5 L 13.5 0.5 C 16.5 0.5 16.5 0.5 16.5 3.5 L 16.5 13.5 C 16.5 16.5 16.5 16.5 13.5 16.5 L 3.5 16.5 C 0.5 16.5 0.5 16.5 0.5 13.5 L 0.5 3.5 C 0.5 0.5 0.5 0.5 3.5 0.5"></path><text x="8" style="font-size:12px;color:#333333;fill:#333333;" y="20"></text></g><text x="10" text-anchor="start" style="cursor:default;color:#000000;font-size:10px;fill:#000000;" y="410"><tspan>Quelle: Grundbuch- und Vermessungsamt  Basel-Stadt</tspan></text></svg>