<svg version="1.1" style="font-family:Arial;font-size:12px;" xmlns="http://www.w3.org/2000/svg" viewBox="0 0 485 415"><desc>Created with Highcharts 4.2.6</desc><defs><clippath id="highcharts-1"><rect x="0" y="0" width="321" height="335"></rect></clippath></defs><rect x="0" y="0" width="485" height="415" fill="#fbfbfb" class=" highcharts-background"></rect><g class="highcharts-grid"></g><g class="highcharts-grid"><path fill="none" d="M 139.5 42 L 139.5 363" stroke="#D8D8D8" stroke-width="1" opacity="1"></path><path fill="none" d="M 223.5 42 L 223.5 363" stroke="#D8D8D8" stroke-width="1" opacity="1"></path><path fill="none" d="M 307.5 42 L 307.5 363" stroke="#D8D8D8" stroke-width="1" opacity="1"></path><path fill="none" d="M 390.5 42 L 390.5 363" stroke="#D8D8D8" stroke-width="1" opacity="1"></path><path fill="none" d="M 475.5 42 L 475.5 363" stroke="#D8D8D8" stroke-width="1" opacity="1"></path></g><g class="highcharts-axis"><path fill="none" d="M 140 57.5 L 130 57.5" stroke="#FFFFFF" stroke-width="1" opacity="1"></path><path fill="none" d="M 140 73.5 L 130 73.5" stroke="#FFFFFF" stroke-width="1" opacity="1"></path><path fill="none" d="M 140 88.5 L 130 88.5" stroke="#FFFFFF" stroke-width="1" opacity="1"></path><path fill="none" d="M 140 103.5 L 130 103.5" stroke="#FFFFFF" stroke-width="1" opacity="1"></path><path fill="none" d="M 140 118.5 L 130 118.5" stroke="#FFFFFF" stroke-width="1" opacity="1"></path><path fill="none" d="M 140 134.5 L 130 134.5" stroke="#FFFFFF" stroke-width="1" opacity="1"></path><path fill="none" d="M 140 149.5 L 130 149.5" stroke="#FFFFFF" stroke-width="1" opacity="1"></path><path fill="none" d="M 140 164.5 L 130 164.5" stroke="#FFFFFF" stroke-width="1" opacity="1"></path><path fill="none" d="M 140 180.5 L 130 180.5" stroke="#FFFFFF" stroke-width="1" opacity="1"></path><path fill="none" d="M 140 195.5 L 130 195.5" stroke="#FFFFFF" stroke-width="1" opacity="1"></path><path fill="none" d="M 140 210.5 L 130 210.5" stroke="#FFFFFF" stroke-width="1" opacity="1"></path><path fill="none" d="M 140 225.5 L 130 225.5" stroke="#FFFFFF" stroke-width="1" opacity="1"></path><path fill="none" d="M 140 241.5 L 130 241.5" stroke="#FFFFFF" stroke-width="1" opacity="1"></path><path fill="none" d="M 140 256.5 L 130 256.5" stroke="#FFFFFF" stroke-width="1" opacity="1"></path><path fill="none" d="M 140 271.5 L 130 271.5" stroke="#FFFFFF" stroke-width="1" opacity="1"></path><path fill="none" d="M 140 287.5 L 130 287.5" stroke="#FFFFFF" stroke-width="1" opacity="1"></path><path fill="none" d="M 140 302.5 L 130 302.5" stroke="#FFFFFF" stroke-width="1" opacity="1"></path><path fill="none" d="M 140 317.5 L 130 317.5" stroke="#FFFFFF" stroke-width="1" opacity="1"></path><path fill="none" d="M 140 332.5 L 130 332.5" stroke="#FFFFFF" stroke-width="1" opacity="1"></path><path fill="none" d="M 140 348.5 L 130 348.5" stroke="#FFFFFF" stroke-width="1" opacity="1"></path><path fill="none" d="M 140 363.5 L 130 363.5" stroke="#FFFFFF" stroke-width="1" opacity="1"></path><path fill="none" d="M 140 41.5 L 130 41.5" stroke="#FFFFFF" stroke-width="1" opacity="1"></path><path fill="none" d="M 139.5 42 L 139.5 363" stroke="#C0D0E0" stroke-width="1"></path></g><g class="highcharts-axis"></g><g class="highcharts-series-group"><g class="highcharts-series highcharts-series-0 highcharts-tracker" transform="translate(475,363) rotate(90) scale(-1,1) scale(1 1)" style="" width="335" height="321" clip-path="url(#highcharts-1)"></g><g class="highcharts-markers highcharts-series-0 highcharts-tracker" transform="translate(475,363) rotate(90) scale(-1,1) scale(1 1)" style="" width="335" height="321" clip-path="none"><path fill="#689199" d="M 7 42.47053418749999 C 12.328 42.47053418749999 12.328 50.47053418749999 7 50.47053418749999 C 1.672 50.47053418749999 1.672 42.47053418749999 7 42.47053418749999 Z"></path><path fill="#689199" d="M 22 52.133962193749994 C 27.328 52.133962193749994 27.328 60.133962193749994 22 60.133962193749994 C 16.672 60.133962193749994 16.672 52.133962193749994 22 52.133962193749994 Z"></path><path fill="#689199" d="M 38 70.08280408125 C 43.328 70.08280408125 43.328 78.08280408125 38 78.08280408125 C 32.672 78.08280408125 32.672 70.08280408125 38 70.08280408125 Z"></path><path fill="#689199" d="M 53 118.89109054375001 C 58.328 118.89109054375001 58.328 126.89109054375001 53 126.89109054375001 C 47.672 126.89109054375001 47.672 118.89109054375001 53 118.89109054375001 Z"></path><path fill="#689199" d="M 68 120.71857751875001 C 73.328 120.71857751875001 73.328 128.71857751875 68 128.71857751875 C 62.672 128.71857751875 62.672 120.71857751875001 68 120.71857751875001 Z"></path><path fill="#689199" d="M 84 127.71086208749998 C 89.328 127.71086208749998 89.328 135.71086208749998 84 135.71086208749998 C 78.672 135.71086208749998 78.672 127.71086208749998 84 127.71086208749998 Z"></path><path fill="#689199" d="M 99 137.42120935625 C 104.328 137.42120935625 104.328 145.42120935625 99 145.42120935625 C 93.672 145.42120935625 93.672 137.42120935625 99 137.42120935625 Z"></path><path fill="#689199" d="M 114 138.65039386875 C 119.328 138.65039386875 119.328 146.65039386875 114 146.65039386875 C 108.672 146.65039386875 108.672 138.65039386875 114 138.65039386875 Z"></path><path fill="#689199" d="M 129 162.841120325 C 134.328 162.841120325 134.328 170.841120325 129 170.841120325 C 123.672 170.841120325 123.672 162.841120325 129 162.841120325 Z"></path><path fill="#689199" d="M 145 166.82138136875 C 150.328 166.82138136875 150.328 174.82138136875 145 174.82138136875 C 139.672 174.82138136875 139.672 166.82138136875 145 166.82138136875 Z"></path><path fill="#689199" d="M 160 173.842460025 C 165.328 173.842460025 165.328 181.842460025 160 181.842460025 C 154.672 181.842460025 154.672 173.842460025 160 173.842460025 Z"></path><path fill="#689199" d="M 175 176.071312175 C 180.328 176.071312175 180.328 184.071312175 175 184.071312175 C 169.672 184.071312175 169.672 176.071312175 175 176.071312175 Z"></path><path fill="#689199" d="M 191 207.18613771875 C 196.328 207.18613771875 196.328 215.18613771875 191 215.18613771875 C 185.672 215.18613771875 185.672 207.18613771875 191 207.18613771875 Z"></path><path fill="#689199" d="M 206 216.3702686625 C 211.328 216.3702686625 211.328 224.3702686625 206 224.3702686625 C 200.672 224.3702686625 200.672 216.3702686625 206 216.3702686625 Z"></path><path fill="#689199" d="M 221 216.50417235 C 226.328 216.50417235 226.328 224.50417235 221 224.50417235 C 215.672 224.50417235 215.672 216.50417235 221 216.50417235 Z"></path><path fill="#689199" d="M 236 229.3240319125 C 241.328 229.3240319125 241.328 237.3240319125 236 237.3240319125 C 230.672 237.3240319125 230.672 229.3240319125 236 229.3240319125 Z"></path><path fill="#689199" d="M 252 239.7956327625 C 257.328 239.7956327625 257.328 247.7956327625 252 247.7956327625 C 246.672 247.7956327625 246.672 239.7956327625 252 239.7956327625 Z"></path><path fill="#689199" d="M 267 243.8072611125 C 272.328 243.8072611125 272.328 251.8072611125 267 251.8072611125 C 261.672 251.8072611125 261.672 243.8072611125 267 243.8072611125 Z"></path><path fill="#689199" d="M 282 249.8228469 C 287.328 249.8228469 287.328 257.8228469 282 257.8228469 C 276.672 257.8228469 276.672 249.8228469 282 249.8228469 Z"></path><path fill="#689199" d="M 298 249.8228469 C 303.328 249.8228469 303.328 257.8228469 298 257.8228469 C 292.672 257.8228469 292.672 249.8228469 298 249.8228469 Z"></path><path fill="#689199" d="M 313 267.10815345 C 318.328 267.10815345 318.328 275.10815345 313 275.10815345 C 307.672 275.10815345 307.672 267.10815345 313 267.10815345 Z"></path></g></g><text x="10" text-anchor="start" class="highcharts-title" style="color:#000000;font-size:14px;font-weight:bold;font-family:Arial;fill:#000000;width:421px;" y="21"><tspan>WA-5 Arbeitslosenquote</tspan></text><g class="highcharts-axis-labels highcharts-xaxis-labels"><text x="125" style="color:#000000;cursor:default;font-size:11px;fill:#000000;width:150px;text-overflow:ellipsis;" text-anchor="end" transform="translate(0,0)" y="54" opacity="1"><tspan>Altstadt Grossbasel</tspan></text><text x="125" style="color:#000000;cursor:default;font-size:11px;fill:#000000;width:150px;text-overflow:ellipsis;" text-anchor="end" transform="translate(0,0)" y="69" opacity="1"><tspan>Riehen</tspan></text><text x="125" style="color:#000000;cursor:default;font-size:11px;fill:#000000;width:150px;text-overflow:ellipsis;" text-anchor="end" transform="translate(0,0)" y="84" opacity="1"><tspan>Bettingen</tspan></text><text x="125" style="color:#000000;cursor:default;font-size:11px;fill:#000000;width:150px;text-overflow:ellipsis;" text-anchor="end" transform="translate(0,0)" y="100" opacity="1"><tspan>Bachletten</tspan></text><text x="125" style="color:#000000;cursor:default;font-size:11px;fill:#000000;width:150px;text-overflow:ellipsis;" text-anchor="end" transform="translate(0,0)" y="115" opacity="1"><tspan>Bruderholz</tspan></text><text x="125" style="color:#000000;cursor:default;font-size:11px;fill:#000000;width:150px;text-overflow:ellipsis;" text-anchor="end" transform="translate(0,0)" y="130" opacity="1"><tspan>Vorstädte</tspan></text><text x="125" style="color:#000000;cursor:default;font-size:11px;fill:#000000;width:150px;text-overflow:ellipsis;" text-anchor="end" transform="translate(0,0)" y="145" opacity="1"><tspan>Gotthelf</tspan></text><text x="125" style="color:#000000;cursor:default;font-size:11px;fill:#000000;width:150px;text-overflow:ellipsis;" text-anchor="end" transform="translate(0,0)" y="161" opacity="1"><tspan>Am Ring</tspan></text><text x="125" style="color:#000000;cursor:default;font-size:11px;fill:#000000;width:150px;text-overflow:ellipsis;" text-anchor="end" transform="translate(0,0)" y="176" opacity="1"><tspan>St. Alban</tspan></text><text x="125" style="color:#000000;cursor:default;font-size:11px;fill:#000000;width:150px;text-overflow:ellipsis;" text-anchor="end" transform="translate(0,0)" y="191" opacity="1"><tspan>Hirzbrunnen</tspan></text><text x="125" style="color:#000000;cursor:default;font-size:11px;fill:#000000;width:150px;text-overflow:ellipsis;" text-anchor="end" transform="translate(0,0)" y="206" opacity="1"><tspan>Altstadt Kleinbasel</tspan></text><text x="125" style="color:#000000;cursor:default;font-size:11px;fill:#000000;width:150px;text-overflow:ellipsis;" text-anchor="end" transform="translate(0,0)" y="222" opacity="1"><tspan>Gundeldingen</tspan></text><text x="125" style="color:#000000;cursor:default;font-size:11px;fill:#000000;width:150px;text-overflow:ellipsis;" text-anchor="end" transform="translate(0,0)" y="237" opacity="1"><tspan>Wettstein</tspan></text><text x="125" style="color:#000000;cursor:default;font-size:11px;fill:#000000;width:150px;text-overflow:ellipsis;" text-anchor="end" transform="translate(0,0)" y="252" opacity="1"><tspan>Iselin</tspan></text><text x="125" style="color:#000000;cursor:default;font-size:11px;fill:#000000;width:150px;text-overflow:ellipsis;" text-anchor="end" transform="translate(0,0)" y="268" opacity="1"><tspan>Breite</tspan></text><text x="125" style="color:#000000;cursor:default;font-size:11px;fill:#000000;width:150px;text-overflow:ellipsis;" text-anchor="end" transform="translate(0,0)" y="283" opacity="1"><tspan>St. Johann</tspan></text><text x="125" style="color:#000000;cursor:default;font-size:11px;fill:#000000;width:150px;text-overflow:ellipsis;" text-anchor="end" transform="translate(0,0)" y="298" opacity="1"><tspan>Clara</tspan></text><text x="125" style="color:#000000;cursor:default;font-size:11px;fill:#000000;width:150px;text-overflow:ellipsis;" text-anchor="end" transform="translate(0,0)" y="314" opacity="1"><tspan>Matthäus</tspan></text><text x="125" style="color:#000000;cursor:default;font-size:11px;fill:#000000;width:150px;text-overflow:ellipsis;" text-anchor="end" transform="translate(0,0)" y="329" opacity="1"><tspan>Kleinhüningen</tspan></text><text x="125" style="color:#000000;cursor:default;font-size:11px;fill:#000000;width:150px;text-overflow:ellipsis;" text-anchor="end" transform="translate(0,0)" y="344" opacity="1"><tspan>Rosental</tspan></text><text x="125" style="color:#000000;cursor:default;font-size:11px;fill:#000000;width:150px;text-overflow:ellipsis;" text-anchor="end" transform="translate(0,0)" y="359" opacity="1"><tspan>Klybeck</tspan></text></g><g class="highcharts-axis-labels highcharts-yaxis-labels"><text x="140" style="color:#000000;cursor:default;font-size:11px;fill:#000000;width:74px;text-overflow:clip;" text-anchor="middle" transform="translate(0,0)" y="382" opacity="1"><tspan>0%</tspan></text><text x="223.75" style="color:#000000;cursor:default;font-size:11px;fill:#000000;width:74px;text-overflow:clip;" text-anchor="middle" transform="translate(0,0)" y="382" opacity="1"><tspan>2%</tspan></text><text x="307.5" style="color:#000000;cursor:default;font-size:11px;fill:#000000;width:74px;text-overflow:clip;" text-anchor="middle" transform="translate(0,0)" y="382" opacity="1"><tspan>4%</tspan></text><text x="391.25" style="color:#000000;cursor:default;font-size:11px;fill:#000000;width:74px;text-overflow:clip;" text-anchor="middle" transform="translate(0,0)" y="382" opacity="1"><tspan>6%</tspan></text><text x="468.95" style="color:#000000;cursor:default;font-size:11px;fill:#000000;width:74px;text-overflow:clip;" text-anchor="middle" transform="translate(0,0)" y="382" opacity="1"><tspan>8%</tspan></text></g><g class="highcharts-tooltip" style="cursor:default;padding:0;pointer-events:none;white-space:nowrap;" transform="translate(0,-9000000000)"><path fill="none" d="M 3.5 0.5 L 13.5 0.5 C 16.5 0.5 16.5 0.5 16.5 3.5 L 16.5 28.5 C 16.5 31.5 16.5 31.5 13.5 31.5 L 3.5 31.5 C 0.5 31.5 0.5 31.5 0.5 28.5 L 0.5 3.5 C 0.5 0.5 0.5 0.5 3.5 0.5" isshadow="true" stroke="black" stroke-opacity="0.049999999999999996" stroke-width="5" transform="translate(1, 1)"></path><path fill="none" d="M 3.5 0.5 L 13.5 0.5 C 16.5 0.5 16.5 0.5 16.5 3.5 L 16.5 28.5 C 16.5 31.5 16.5 31.5 13.5 31.5 L 3.5 31.5 C 0.5 31.5 0.5 31.5 0.5 28.5 L 0.5 3.5 C 0.5 0.5 0.5 0.5 3.5 0.5" isshadow="true" stroke="black" stroke-opacity="0.09999999999999999" stroke-width="3" transform="translate(1, 1)"></path><path fill="none" d="M 3.5 0.5 L 13.5 0.5 C 16.5 0.5 16.5 0.5 16.5 3.5 L 16.5 28.5 C 16.5 31.5 16.5 31.5 13.5 31.5 L 3.5 31.5 C 0.5 31.5 0.5 31.5 0.5 28.5 L 0.5 3.5 C 0.5 0.5 0.5 0.5 3.5 0.5" isshadow="true" stroke="black" stroke-opacity="0.15" stroke-width="1" transform="translate(1, 1)"></path><path fill="rgba(249, 249, 249, .85)" d="M 3.5 0.5 L 13.5 0.5 C 16.5 0.5 16.5 0.5 16.5 3.5 L 16.5 28.5 C 16.5 31.5 16.5 31.5 13.5 31.5 L 3.5 31.5 C 0.5 31.5 0.5 31.5 0.5 28.5 L 0.5 3.5 C 0.5 0.5 0.5 0.5 3.5 0.5"></path><text x="8" style="font-size:12px;color:#333333;fill:#333333;" y="20"></text></g><text x="10" text-anchor="start" style="cursor:default;color:#000000;font-size:10px;fill:#000000;" y="410"><tspan>Quelle: Bundesamt für Statistik BFS, Strukturerhebung (SE);</tspan><tspan x="10" dy="13">Staatssekretariat für Wirtschaft SECO</tspan></text></svg>