<?xml version="1.0" standalone="no"?><!DOCTYPE svg PUBLIC "-//W3C//DTD SVG 1.1//EN" "http://www.w3.org/Graphics/SVG/1.1/DTD/svg11.dtd"><svg xmlns:xlink="http://www.w3.org/1999/xlink" version="1.1" class="highcharts-root" style="font-family:Arial;font-size:12px;" xmlns="http://www.w3.org/2000/svg" viewBox="0 0 485 415"><desc>Created with Highcharts 5.0.6</desc><defs><clipPath id="highcharts-vae31h2-1"><rect x="0" y="0" width="405" height="260" fill="none"></rect></clipPath></defs><rect fill="#fbfbfb" class="highcharts-background" x="0" y="0" width="485" height="415" rx="0" ry="0"></rect><rect fill="none" class="highcharts-plot-background" x="37" y="90" width="405" height="260"></rect><g class="highcharts-grid highcharts-xaxis-grid "><path fill="none" class="highcharts-grid-line" d="M 71.5 90 L 71.5 350" opacity="1"></path><path fill="none" class="highcharts-grid-line" d="M 132.5 90 L 132.5 350" opacity="1"></path><path fill="none" class="highcharts-grid-line" d="M 193.5 90 L 193.5 350" opacity="1"></path><path fill="none" class="highcharts-grid-line" d="M 254.5 90 L 254.5 350" opacity="1"></path><path fill="none" class="highcharts-grid-line" d="M 315.5 90 L 315.5 350" opacity="1"></path><path fill="none" class="highcharts-grid-line" d="M 376.5 90 L 376.5 350" opacity="1"></path><path fill="none" class="highcharts-grid-line" d="M 437.5 90 L 437.5 350" opacity="1"></path></g><g class="highcharts-grid highcharts-yaxis-grid "><path fill="none" stroke="#e6e6e6" stroke-width="1" class="highcharts-grid-line" d="M 37 350.5 L 442 350.5" opacity="1"></path><path fill="none" stroke="#e6e6e6" stroke-width="1" class="highcharts-grid-line" d="M 37 285.5 L 442 285.5" opacity="1"></path><path fill="none" stroke="#e6e6e6" stroke-width="1" class="highcharts-grid-line" d="M 37 220.5 L 442 220.5" opacity="1"></path><path fill="none" stroke="#e6e6e6" stroke-width="1" class="highcharts-grid-line" d="M 37 155.5 L 442 155.5" opacity="1"></path><path fill="none" stroke="#e6e6e6" stroke-width="1" class="highcharts-grid-line" d="M 37 89.5 L 442 89.5" opacity="1"></path></g><g class="highcharts-grid highcharts-yaxis-grid "><path fill="none" stroke="#e6e6e6" stroke-width="1" class="highcharts-grid-line" d="M 37 350.5 L 442 350.5" opacity="1"></path><path fill="none" stroke="#e6e6e6" stroke-width="1" class="highcharts-grid-line" d="M 37 285.5 L 442 285.5" opacity="1"></path><path fill="none" stroke="#e6e6e6" stroke-width="1" class="highcharts-grid-line" d="M 37 220.5 L 442 220.5" opacity="1"></path><path fill="none" stroke="#e6e6e6" stroke-width="1" class="highcharts-grid-line" d="M 37 155.5 L 442 155.5" opacity="1"></path><path fill="none" stroke="#e6e6e6" stroke-width="1" class="highcharts-grid-line" d="M 37 89.5 L 442 89.5" opacity="1"></path></g><rect fill="none" class="highcharts-plot-border" x="37" y="90" width="405" height="260"></rect><g class="highcharts-axis highcharts-xaxis "><path fill="none" class="highcharts-axis-line" stroke="#ccd6eb" stroke-width="1" d="M 37 350.5 L 442 350.5"></path></g><g class="highcharts-axis highcharts-yaxis "><path fill="none" class="highcharts-axis-line" d="M 37 90 L 37 350"></path></g><g class="highcharts-axis highcharts-yaxis "><path fill="none" class="highcharts-axis-line" d="M 442 90 L 442 350"></path></g><g class="highcharts-series-group"><g class="highcharts-series highcharts-series-0 highcharts-line-series highcharts-color-undefined " transform="translate(37,90) scale(1 1)" width="260" height="405" clip-path="url(#highcharts-vae31h2-1)"><path fill="none" d="M 3.9705882352974 26 L 34.513574660636 13 L 65.056561085975 26 L 95.599547511314 39 L 126.14253393665 78 L 156.68552036199 78 L 187.22850678733 78 L 217.77149321267 78 L 248.31447963801 78 L 278.85746606335 78 L 309.40045248869 91 L 339.94343891402 91 L 370.48642533936 117 L 401.0294117647 104" class="highcharts-graph" stroke="#cd9c00" stroke-width="2" stroke-linejoin="round" stroke-linecap="round"></path><path fill="none" d="M -6.0294117647025995 26 L 3.9705882352974 26 L 34.513574660636 13 L 65.056561085975 26 L 95.599547511314 39 L 126.14253393665 78 L 156.68552036199 78 L 187.22850678733 78 L 217.77149321267 78 L 248.31447963801 78 L 278.85746606335 78 L 309.40045248869 91 L 339.94343891402 91 L 370.48642533936 117 L 401.0294117647 104 L 411.0294117647 104" stroke-linejoin="round" visibility="visible" stroke="rgba(192,192,192,0.0001)" stroke-width="22" class="highcharts-tracker"></path></g><g class="highcharts-markers highcharts-series-0 highcharts-line-series highcharts-color-undefined highcharts-tracker" transform="translate(37,90) scale(1 1)" width="260" height="405" clip-path="none"><path fill="#cd9c00" d="M 401 100 C 406.328 100 406.328 108 401 108 C 395.672 108 395.672 100 401 100 Z" class="highcharts-point"></path><path fill="#cd9c00" d="M 370 113 C 375.328 113 375.328 121 370 121 C 364.672 121 364.672 113 370 113 Z" class="highcharts-point"></path><path fill="#cd9c00" d="M 339 87 C 344.328 87 344.328 95 339 95 C 333.672 95 333.672 87 339 87 Z" class="highcharts-point"></path><path fill="#cd9c00" d="M 309 87 C 314.328 87 314.328 95 309 95 C 303.672 95 303.672 87 309 87 Z" class="highcharts-point"></path><path fill="#cd9c00" d="M 278 74 C 283.328 74 283.328 82 278 82 C 272.672 82 272.672 74 278 74 Z" class="highcharts-point"></path><path fill="#cd9c00" d="M 248 74 C 253.328 74 253.328 82 248 82 C 242.672 82 242.672 74 248 74 Z" class="highcharts-point"></path><path fill="#cd9c00" d="M 217 74 C 222.328 74 222.328 82 217 82 C 211.672 82 211.672 74 217 74 Z" class="highcharts-point"></path><path fill="#cd9c00" d="M 187 74 C 192.328 74 192.328 82 187 82 C 181.672 82 181.672 74 187 74 Z" class="highcharts-point"></path><path fill="#cd9c00" d="M 156 74 C 161.328 74 161.328 82 156 82 C 150.672 82 150.672 74 156 74 Z" class="highcharts-point"></path><path fill="#cd9c00" d="M 126 74 C 131.328 74 131.328 82 126 82 C 120.672 82 120.672 74 126 74 Z" class="highcharts-point"></path><path fill="#cd9c00" d="M 95 35 C 100.328 35 100.328 43 95 43 C 89.672 43 89.672 35 95 35 Z" class="highcharts-point"></path><path fill="#cd9c00" d="M 65 22 C 70.328 22 70.328 30 65 30 C 59.672 30 59.672 22 65 22 Z" class="highcharts-point"></path><path fill="#cd9c00" d="M 34 9 C 39.328 9 39.328 17 34 17 C 28.672 17 28.672 9 34 9 Z" class="highcharts-point"></path><path fill="#cd9c00" d="M 3 22 C 8.328 22 8.328 30 3 30 C -2.3280000000000003 30 -2.3280000000000003 22 3 22 Z" class="highcharts-point"></path></g><g class="highcharts-series highcharts-series-1 highcharts-line-series highcharts-color-undefined " transform="translate(37,90) scale(1 1)" width="260" height="405" clip-path="url(#highcharts-vae31h2-1)"><path fill="none" d="M 3.9705882352974 53.73333333333332 L 34.513574660636 41.16666666666666 L 65.056561085975 56.333333333333314 L 95.599547511314 58.5 L 126.14253393665 59.366666666666646 L 156.68552036199 60.66666666666666 L 187.22850678733 80.6 L 217.77149321267 59.366666666666646 L 248.31447963801 59.366666666666646 L 278.85746606335 55.46666666666667 L 309.40045248869 78.86666666666667 L 339.94343891402 78.43333333333334 L 370.48642533936 76.26666666666665 L 401.0294117647 78.43333333333334" class="highcharts-graph" stroke="#73b97c" stroke-width="2" stroke-linejoin="round" stroke-linecap="round"></path><path fill="none" d="M -6.0294117647025995 53.73333333333332 L 3.9705882352974 53.73333333333332 L 34.513574660636 41.16666666666666 L 65.056561085975 56.333333333333314 L 95.599547511314 58.5 L 126.14253393665 59.366666666666646 L 156.68552036199 60.66666666666666 L 187.22850678733 80.6 L 217.77149321267 59.366666666666646 L 248.31447963801 59.366666666666646 L 278.85746606335 55.46666666666667 L 309.40045248869 78.86666666666667 L 339.94343891402 78.43333333333334 L 370.48642533936 76.26666666666665 L 401.0294117647 78.43333333333334 L 411.0294117647 78.43333333333334" stroke-linejoin="round" visibility="visible" stroke="rgba(192,192,192,0.0001)" stroke-width="22" class="highcharts-tracker"></path></g><g class="highcharts-markers highcharts-series-1 highcharts-line-series highcharts-color-undefined highcharts-tracker" transform="translate(37,90) scale(1 1)" width="260" height="405" clip-path="none"><path fill="#73b97c" d="M 401 74 L 405 78 401 82 397 78 Z" class="highcharts-point"></path><path fill="#73b97c" d="M 370 72 L 374 76 370 80 366 76 Z" class="highcharts-point"></path><path fill="#73b97c" d="M 339 74 L 343 78 339 82 335 78 Z" class="highcharts-point"></path><path fill="#73b97c" d="M 309 75 L 313 79 309 83 305 79 Z" class="highcharts-point"></path><path fill="#73b97c" d="M 278 51 L 282 55 278 59 274 55 Z" class="highcharts-point"></path><path fill="#73b97c" d="M 248 55 L 252 59 248 63 244 59 Z" class="highcharts-point"></path><path fill="#73b97c" d="M 217 55 L 221 59 217 63 213 59 Z" class="highcharts-point"></path><path fill="#73b97c" d="M 187 77 L 191 81 187 85 183 81 Z" class="highcharts-point"></path><path fill="#73b97c" d="M 156 57 L 160 61 156 65 152 61 Z" class="highcharts-point"></path><path fill="#73b97c" d="M 126 55 L 130 59 126 63 122 59 Z" class="highcharts-point"></path><path fill="#73b97c" d="M 95 55 L 99 59 95 63 91 59 Z" class="highcharts-point"></path><path fill="#73b97c" d="M 65 52 L 69 56 65 60 61 56 Z" class="highcharts-point"></path><path fill="#73b97c" d="M 34 37 L 38 41 34 45 30 41 Z" class="highcharts-point"></path><path fill="#73b97c" d="M 3 50 L 7 54 3 58 -1 54 Z" class="highcharts-point"></path></g></g><text x="10" text-anchor="start" class="highcharts-title" style="color:#000000;font-size:14px;font-weight:bold;fill:#000000;width:421px;" y="21"><tspan>Landwirtschaftliche Nutzfl채che und Anzahl</tspan><tspan dy="17" x="10">Landwirtschaftsbetriebe</tspan><title> Landwirtschaftliche Nutzfl채che und Anzahl Landwirtschaftsbetriebe</title></text><g class="highcharts-legend" transform="translate(28,38)"><rect fill="none" class="highcharts-legend-box" rx="0" ry="0" x="0" y="0" width="331" height="37" visibility="visible"></rect><g><g><g class="highcharts-legend-item highcharts-line-series highcharts-color-undefined highcharts-series-0" transform="translate(8,3)"><path fill="none" d="M 0 11 L 16 11" class="highcharts-graph" stroke="#cd9c00" stroke-width="2"></path><path fill="#cd9c00" d="M 8 7 C 13.328 7 13.328 15 8 15 C 2.6719999999999997 15 2.6719999999999997 7 8 7 Z" class="highcharts-point"></path><text x="21" style="color:#333333;font-size:12px;font-weight:normal;cursor:pointer;fill:#333333;" text-anchor="start" y="15"><tspan>Anzahl Betriebe (linke Achse)</tspan></text></g><g class="highcharts-legend-item highcharts-line-series highcharts-color-undefined highcharts-series-1" transform="translate(8,16)"><path fill="none" d="M 0 11 L 16 11" class="highcharts-graph" stroke="#73b97c" stroke-width="2"></path><path fill="#73b97c" d="M 8 7 L 12 11 8 15 4 11 Z" class="highcharts-point"></path><text x="21" y="15" style="color:#333333;font-size:12px;font-weight:normal;cursor:pointer;fill:#333333;" text-anchor="start"><tspan>Landwirtschaftliche Nutzfl채che in Hektar (rechte Achse)</tspan></text></g></g></g></g><g class="highcharts-axis-labels highcharts-xaxis-labels "><text x="71.51357466063625" style="color:#000000;cursor:default;font-size:11px;fill:#000000;" text-anchor="middle" transform="translate(0,0)" y="369" opacity="1">2002</text><text x="132.59954751131397" style="color:#000000;cursor:default;font-size:11px;fill:#000000;" text-anchor="middle" transform="translate(0,0)" y="369" opacity="1">2004</text><text x="193.6855203619917" style="color:#000000;cursor:default;font-size:11px;fill:#000000;" text-anchor="middle" transform="translate(0,0)" y="369" opacity="1">2006</text><text x="254.77149321266944" style="color:#000000;cursor:default;font-size:11px;fill:#000000;" text-anchor="middle" transform="translate(0,0)" y="369" opacity="1">2008</text><text x="315.85746606334715" style="color:#000000;cursor:default;font-size:11px;fill:#000000;" text-anchor="middle" transform="translate(0,0)" y="369" opacity="1">2010</text><text x="376.9434389140249" style="color:#000000;cursor:default;font-size:11px;fill:#000000;" text-anchor="middle" transform="translate(0,0)" y="369" opacity="1">2012</text><text x="438.0294117647026" style="color:#000000;cursor:default;font-size:11px;fill:#000000;" text-anchor="middle" transform="translate(0,0)" y="369" opacity="1">2014</text></g><g class="highcharts-axis-labels highcharts-yaxis-labels "><text x="22" style="color:#000000;cursor:default;font-size:11px;fill:#000000;width:150px;text-overflow:clip;" text-anchor="end" transform="translate(0,0)" y="355" opacity="1"><tspan>0</tspan></text><text x="22" style="color:#000000;cursor:default;font-size:11px;fill:#000000;width:150px;text-overflow:clip;" text-anchor="end" transform="translate(0,0)" y="290" opacity="1"><tspan>5</tspan></text><text x="22" style="color:#000000;cursor:default;font-size:11px;fill:#000000;width:150px;text-overflow:clip;" text-anchor="end" transform="translate(0,0)" y="225" opacity="1"><tspan>10</tspan></text><text x="22" style="color:#000000;cursor:default;font-size:11px;fill:#000000;width:150px;text-overflow:clip;" text-anchor="end" transform="translate(0,0)" y="160" opacity="1"><tspan>15</tspan></text><text x="22" style="color:#000000;cursor:default;font-size:11px;fill:#000000;width:150px;text-overflow:clip;" text-anchor="end" transform="translate(0,0)" y="95" opacity="1"><tspan>20</tspan></text></g><g class="highcharts-axis-labels highcharts-yaxis-labels "><text x="457" style="color:#000000;cursor:default;font-size:11px;fill:#000000;width:150px;text-overflow:clip;" text-anchor="start" transform="translate(0,0)" y="355" opacity="1"><tspan>0</tspan></text><text x="457" style="color:#000000;cursor:default;font-size:11px;fill:#000000;width:150px;text-overflow:clip;" text-anchor="start" transform="translate(0,0)" y="290" opacity="1"><tspan>150</tspan></text><text x="457" style="color:#000000;cursor:default;font-size:11px;fill:#000000;width:150px;text-overflow:clip;" text-anchor="start" transform="translate(0,0)" y="225" opacity="1"><tspan>300</tspan></text><text x="457" style="color:#000000;cursor:default;font-size:11px;fill:#000000;width:150px;text-overflow:clip;" text-anchor="start" transform="translate(0,0)" y="160" opacity="1"><tspan>450</tspan></text><text x="457" style="color:#000000;cursor:default;font-size:11px;fill:#000000;width:150px;text-overflow:clip;" text-anchor="start" transform="translate(0,0)" y="95" opacity="1"><tspan>600</tspan></text></g><text x="10" class="highcharts-credits" text-anchor="start" style="cursor:default;color:#000000;font-size:10px;fill:#000000;" y="400"><tspan>Quelle: Bundesamt f체r Statistik BFS, Landwirtschaftliche Strukturerhebung</tspan></text></svg>