<?xml version="1.0" standalone="no"?><!DOCTYPE svg PUBLIC "-//W3C//DTD SVG 1.1//EN" "http://www.w3.org/Graphics/SVG/1.1/DTD/svg11.dtd"><svg xmlns:xlink="http://www.w3.org/1999/xlink" version="1.1" style="font-family:Arial;font-size:12px;" xmlns="http://www.w3.org/2000/svg" viewBox="0 0 485 415"><desc>Created with Highcharts 4.2.6</desc><defs><clipPath id="highcharts-1"><rect x="0" y="0" width="204" height="275"></rect></clipPath></defs><rect x="0" y="0" width="485" height="415" fill="#fbfbfb" class=" highcharts-background"></rect><g class="highcharts-grid"></g><g class="highcharts-grid"><path fill="none" d="M 53 350.5 L 257 350.5" stroke="#D8D8D8" stroke-width="1" opacity="1"></path><path fill="none" d="M 53 281.5 L 257 281.5" stroke="#D8D8D8" stroke-width="1" opacity="1"></path><path fill="none" d="M 53 213.5 L 257 213.5" stroke="#D8D8D8" stroke-width="1" opacity="1"></path><path fill="none" d="M 53 144.5 L 257 144.5" stroke="#D8D8D8" stroke-width="1" opacity="1"></path><path fill="none" d="M 53 74.5 L 257 74.5" stroke="#D8D8D8" stroke-width="1" opacity="1"></path></g><g class="highcharts-axis"><path fill="none" d="M 87.5 350 L 87.5 360" stroke="#FFFFFF" stroke-width="1" opacity="1"></path><path fill="none" d="M 154.5 350 L 154.5 360" stroke="#FFFFFF" stroke-width="1" opacity="1"></path><path fill="none" d="M 221.5 350 L 221.5 360" stroke="#FFFFFF" stroke-width="1" opacity="1"></path><path fill="none" d="M 53 350.5 L 257 350.5" stroke="#C0D0E0" stroke-width="1"></path></g><g class="highcharts-axis"></g><g class="highcharts-series-group"><g class="highcharts-series highcharts-series-0 highcharts-tracker" transform="translate(53,75) scale(1 1)" style="" clip-path="url(#highcharts-1)"><rect x="18.5" y="-0.5" width="33" height="3" stroke="#FFFFFF" stroke-width="1" fill="#662673" rx="0" ry="0"></rect><rect x="85.5" y="-0.5" width="33" height="3" stroke="#FFFFFF" stroke-width="1" fill="#662673" rx="0" ry="0"></rect><rect x="152.5" y="-0.5" width="33" height="3" stroke="#FFFFFF" stroke-width="1" fill="#662673" rx="0" ry="0"></rect></g><g class="highcharts-markers highcharts-series-0" transform="translate(53,75) scale(1 1)" clip-path="none"></g><g class="highcharts-series highcharts-series-1 highcharts-tracker" transform="translate(53,75) scale(1 1)" style="" clip-path="url(#highcharts-1)"><rect x="18.5" y="2.5" width="33" height="41" stroke="#FFFFFF" stroke-width="1" fill="#73B97C" rx="0" ry="0"></rect><rect x="85.5" y="2.5" width="33" height="42" stroke="#FFFFFF" stroke-width="1" fill="#73B97C" rx="0" ry="0"></rect><rect x="152.5" y="2.5" width="33" height="41" stroke="#FFFFFF" stroke-width="1" fill="#73B97C" rx="0" ry="0"></rect></g><g class="highcharts-markers highcharts-series-1" transform="translate(53,75) scale(1 1)" clip-path="none"></g><g class="highcharts-series highcharts-series-2 highcharts-tracker" transform="translate(53,75) scale(1 1)" style="" clip-path="url(#highcharts-1)"><rect x="18.5" y="43.5" width="33" height="28" stroke="#FFFFFF" stroke-width="1" fill="#008AC3" rx="0" ry="0"></rect><rect x="85.5" y="44.5" width="33" height="27" stroke="#FFFFFF" stroke-width="1" fill="#008AC3" rx="0" ry="0"></rect><rect x="152.5" y="43.5" width="33" height="28" stroke="#FFFFFF" stroke-width="1" fill="#008AC3" rx="0" ry="0"></rect></g><g class="highcharts-markers highcharts-series-2" transform="translate(53,75) scale(1 1)" clip-path="none"></g><g class="highcharts-series highcharts-series-3 highcharts-tracker" transform="translate(53,75) scale(1 1)" style="" clip-path="url(#highcharts-1)"><rect x="18.5" y="71.5" width="33" height="204" stroke="#FFFFFF" stroke-width="1" fill="#CD9C00" rx="0" ry="0"></rect><rect x="85.5" y="71.5" width="33" height="204" stroke="#FFFFFF" stroke-width="1" fill="#CD9C00" rx="0" ry="0"></rect><rect x="152.5" y="71.5" width="33" height="204" stroke="#FFFFFF" stroke-width="1" fill="#CD9C00" rx="0" ry="0"></rect></g><g class="highcharts-markers highcharts-series-3" transform="translate(53,75) scale(1 1)" clip-path="none"></g></g><text x="10" text-anchor="start" class="highcharts-title" style="color:#000000;font-size:14px;font-weight:bold;fill:#000000;width:421px;" y="21"><tspan>0.1.c Wohnungsbelegung nach Belegungsart</tspan></text><g class="highcharts-legend" transform="translate(269,152)"><g><g><g class="highcharts-legend-item" transform="translate(8,3)"><text x="21" style="color:#333333;font-size:12px;font-weight:normal;cursor:pointer;fill:#333333;" text-anchor="start" y="15"><tspan>sonstige Wohnungen</tspan></text><rect x="0" y="4" width="16" height="12" fill="#662673"></rect></g><g class="highcharts-legend-item" transform="translate(8,23)"><text x="21" y="15" style="color:#333333;font-size:12px;font-weight:normal;cursor:pointer;fill:#333333;" text-anchor="start"><tspan>selbstgenutzte Eigentumswhg.</tspan></text><rect x="0" y="4" width="16" height="12" fill="#73B97C"></rect></g><g class="highcharts-legend-item" transform="translate(8,43)"><text x="21" y="15" style="color:#333333;font-size:12px;font-weight:normal;cursor:pointer;fill:#333333;" text-anchor="start">Genossenschaftswhg.</text><rect x="0" y="4" width="16" height="12" fill="#008AC3"></rect></g><g class="highcharts-legend-item" transform="translate(8,63)"><text x="21" y="15" style="color:#333333;font-size:12px;font-weight:normal;cursor:pointer;fill:#333333;" text-anchor="start">Mietwohnungen</text><rect x="0" y="4" width="16" height="12" fill="#CD9C00"></rect></g></g></g></g><g class="highcharts-axis-labels highcharts-xaxis-labels"><text x="87.89473684210446" style="color:#000000;cursor:default;font-size:11px;fill:#000000;width:92px;text-overflow:clip;" text-anchor="middle" transform="translate(0,0)" y="369" opacity="1"><tspan>2013</tspan></text><text x="155" style="color:#000000;cursor:default;font-size:11px;fill:#000000;width:92px;text-overflow:clip;" text-anchor="middle" transform="translate(0,0)" y="369" opacity="1"><tspan>2014</tspan></text><text x="222.10526315789554" style="color:#000000;cursor:default;font-size:11px;fill:#000000;width:92px;text-overflow:clip;" text-anchor="middle" transform="translate(0,0)" y="369" opacity="1"><tspan>2015</tspan></text></g><g class="highcharts-axis-labels highcharts-yaxis-labels"><text x="38" style="color:#000000;cursor:default;font-size:11px;fill:#000000;width:150px;text-overflow:clip;" text-anchor="end" transform="translate(0,0)" y="354" opacity="1"><tspan>0%</tspan></text><text x="38" style="color:#000000;cursor:default;font-size:11px;fill:#000000;width:150px;text-overflow:clip;" text-anchor="end" transform="translate(0,0)" y="285" opacity="1"><tspan>25%</tspan></text><text x="38" style="color:#000000;cursor:default;font-size:11px;fill:#000000;width:150px;text-overflow:clip;" text-anchor="end" transform="translate(0,0)" y="217" opacity="1"><tspan>50%</tspan></text><text x="38" style="color:#000000;cursor:default;font-size:11px;fill:#000000;width:150px;text-overflow:clip;" text-anchor="end" transform="translate(0,0)" y="148" opacity="1"><tspan>75%</tspan></text><text x="38" style="color:#000000;cursor:default;font-size:11px;fill:#000000;width:150px;text-overflow:clip;" text-anchor="end" transform="translate(0,0)" y="79" opacity="1"><tspan>100%</tspan></text></g><g class="highcharts-tooltip" style="cursor:default;padding:0;pointer-events:none;white-space:nowrap;" transform="translate(0,-9000000000)"><path fill="none" d="M 3.5 0.5 L 13.5 0.5 C 16.5 0.5 16.5 0.5 16.5 3.5 L 16.5 13.5 C 16.5 16.5 16.5 16.5 13.5 16.5 L 3.5 16.5 C 0.5 16.5 0.5 16.5 0.5 13.5 L 0.5 3.5 C 0.5 0.5 0.5 0.5 3.5 0.5" isShadow="true" stroke="black" stroke-width="5" transform="translate(1, 1)" opacity="0.049999999999999996"></path><path fill="none" d="M 3.5 0.5 L 13.5 0.5 C 16.5 0.5 16.5 0.5 16.5 3.5 L 16.5 13.5 C 16.5 16.5 16.5 16.5 13.5 16.5 L 3.5 16.5 C 0.5 16.5 0.5 16.5 0.5 13.5 L 0.5 3.5 C 0.5 0.5 0.5 0.5 3.5 0.5" isShadow="true" stroke="black" stroke-width="3" transform="translate(1, 1)" opacity="0.09999999999999999"></path><path fill="none" d="M 3.5 0.5 L 13.5 0.5 C 16.5 0.5 16.5 0.5 16.5 3.5 L 16.5 13.5 C 16.5 16.5 16.5 16.5 13.5 16.5 L 3.5 16.5 C 0.5 16.5 0.5 16.5 0.5 13.5 L 0.5 3.5 C 0.5 0.5 0.5 0.5 3.5 0.5" isShadow="true" stroke="black" stroke-width="1" transform="translate(1, 1)" opacity="0.15"></path><path fill="rgba(249, 249, 249, .85)" d="M 3.5 0.5 L 13.5 0.5 C 16.5 0.5 16.5 0.5 16.5 3.5 L 16.5 13.5 C 16.5 16.5 16.5 16.5 13.5 16.5 L 3.5 16.5 C 0.5 16.5 0.5 16.5 0.5 13.5 L 0.5 3.5 C 0.5 0.5 0.5 0.5 3.5 0.5"></path><text x="8" style="font-size:12px;color:#333333;fill:#333333;" y="20"></text></g><text x="10" text-anchor="start" style="cursor:default;color:#000000;font-size:10px;fill:#000000;" y="400"><tspan>Quelle: Statistisches Amt Basel-Stadt, kantonale Gebäude- und Wohnungsstatistik</tspan></text></svg>