<svg xmlns:xlink="http://www.w3.org/1999/xlink" version="1.1" style="font-family:arial;font-size:12px;" xmlns="http://www.w3.org/2000/svg" viewBox="0 0 485 415"><desc>Created with Highcharts 4.2.6</desc><defs><clipPath id="highcharts-5"><rect x="0" y="0" width="324" height="354"></rect></clipPath></defs><rect x="0" y="0" width="485" height="415" fill="#fbfbfb" class=" highcharts-background"></rect><g class="highcharts-grid"></g><g class="highcharts-grid"><path fill="none" d="M 120.5 41 L 120.5 365" stroke="#D8D8D8" stroke-width="1" opacity="1"></path><path fill="none" d="M 191.5 41 L 191.5 365" stroke="#D8D8D8" stroke-width="1" opacity="1"></path><path fill="none" d="M 262.5 41 L 262.5 365" stroke="#D8D8D8" stroke-width="1" opacity="1"></path><path fill="none" d="M 332.5 41 L 332.5 365" stroke="#D8D8D8" stroke-width="1" opacity="1"></path><path fill="none" d="M 403.5 41 L 403.5 365" stroke="#D8D8D8" stroke-width="1" opacity="1"></path><path fill="none" d="M 475.5 41 L 475.5 365" stroke="#D8D8D8" stroke-width="1" opacity="1"></path></g><g class="highcharts-axis"><path fill="none" d="M 121 56.5 L 111 56.5" stroke="#FFFFFF" stroke-width="1" opacity="1"></path><path fill="none" d="M 121 72.5 L 111 72.5" stroke="#FFFFFF" stroke-width="1" opacity="1"></path><path fill="none" d="M 121 87.5 L 111 87.5" stroke="#FFFFFF" stroke-width="1" opacity="1"></path><path fill="none" d="M 121 103.5 L 111 103.5" stroke="#FFFFFF" stroke-width="1" opacity="1"></path><path fill="none" d="M 121 118.5 L 111 118.5" stroke="#FFFFFF" stroke-width="1" opacity="1"></path><path fill="none" d="M 121 134.5 L 111 134.5" stroke="#FFFFFF" stroke-width="1" opacity="1"></path><path fill="none" d="M 121 149.5 L 111 149.5" stroke="#FFFFFF" stroke-width="1" opacity="1"></path><path fill="none" d="M 121 164.5 L 111 164.5" stroke="#FFFFFF" stroke-width="1" opacity="1"></path><path fill="none" d="M 121 180.5 L 111 180.5" stroke="#FFFFFF" stroke-width="1" opacity="1"></path><path fill="none" d="M 121 195.5 L 111 195.5" stroke="#FFFFFF" stroke-width="1" opacity="1"></path><path fill="none" d="M 121 211.5 L 111 211.5" stroke="#FFFFFF" stroke-width="1" opacity="1"></path><path fill="none" d="M 121 226.5 L 111 226.5" stroke="#FFFFFF" stroke-width="1" opacity="1"></path><path fill="none" d="M 121 242.5 L 111 242.5" stroke="#FFFFFF" stroke-width="1" opacity="1"></path><path fill="none" d="M 121 257.5 L 111 257.5" stroke="#FFFFFF" stroke-width="1" opacity="1"></path><path fill="none" d="M 121 272.5 L 111 272.5" stroke="#FFFFFF" stroke-width="1" opacity="1"></path><path fill="none" d="M 121 288.5 L 111 288.5" stroke="#FFFFFF" stroke-width="1" opacity="1"></path><path fill="none" d="M 121 303.5 L 111 303.5" stroke="#FFFFFF" stroke-width="1" opacity="1"></path><path fill="none" d="M 121 319.5 L 111 319.5" stroke="#FFFFFF" stroke-width="1" opacity="1"></path><path fill="none" d="M 121 334.5 L 111 334.5" stroke="#FFFFFF" stroke-width="1" opacity="1"></path><path fill="none" d="M 121 350.5 L 111 350.5" stroke="#FFFFFF" stroke-width="1" opacity="1"></path><path fill="none" d="M 121 365.5 L 111 365.5" stroke="#FFFFFF" stroke-width="1" opacity="1"></path><path fill="none" d="M 121 40.5 L 111 40.5" stroke="#FFFFFF" stroke-width="1" opacity="1"></path><path fill="none" d="M 120.5 41 L 120.5 365" stroke="#C0D0E0" stroke-width="1"></path></g><g class="highcharts-axis"></g><g class="highcharts-series-group"><g class="highcharts-series highcharts-series-0" transform="translate(475,365) rotate(90) scale(-1,1) scale(1 1)" width="354" height="324" clip-path="url(#highcharts-5)"></g><g class="highcharts-markers highcharts-series-0" transform="translate(475,365) rotate(90) scale(-1,1) scale(1 1)" width="354" height="324" clip-path="none"><path fill="#68AB2B" d="M 7 68.84887461559998 C 12.328 68.84887461559998 12.328 76.84887461559998 7 76.84887461559998 C 1.672 76.84887461559998 1.672 68.84887461559998 7 68.84887461559998 Z"></path><path fill="#68AB2B" d="M 23 89.866217501 C 28.328 89.866217501 28.328 97.866217501 23 97.866217501 C 17.672 97.866217501 17.672 89.866217501 23 89.866217501 Z"></path><path fill="#68AB2B" d="M 38 103.0962025424 C 43.328 103.0962025424 43.328 111.0962025424 38 111.0962025424 C 32.672 111.0962025424 32.672 103.0962025424 38 103.0962025424 Z"></path><path fill="#68AB2B" d="M 54 115.69598049979999 C 59.328 115.69598049979999 59.328 123.69598049979999 54 123.69598049979999 C 48.672 123.69598049979999 48.672 115.69598049979999 54 115.69598049979999 Z"></path><path fill="#68AB2B" d="M 69 150.45988023619998 C 74.328 150.45988023619998 74.328 158.45988023619998 69 158.45988023619998 C 63.672 158.45988023619998 63.672 150.45988023619998 69 150.45988023619998 Z"></path><path fill="#68AB2B" d="M 84 219.9005075984 C 89.328 219.9005075984 89.328 227.9005075984 84 227.9005075984 C 78.672 227.9005075984 78.672 219.9005075984 84 219.9005075984 Z"></path><path fill="#68AB2B" d="M 100 228.6200505626 C 105.328 228.6200505626 105.328 236.6200505626 100 236.6200505626 C 94.672 236.6200505626 94.672 228.6200505626 100 228.6200505626 Z"></path><path fill="#68AB2B" d="M 115 230.6571834938 C 120.328 230.6571834938 120.328 238.6571834938 115 238.6571834938 C 109.672 238.6571834938 109.672 230.6571834938 115 230.6571834938 Z"></path><path fill="#68AB2B" d="M 131 261.6166008032 C 136.328 261.6166008032 136.328 269.6166008032 131 269.6166008032 C 125.672 269.6166008032 125.672 261.6166008032 131 261.6166008032 Z"></path><path fill="#68AB2B" d="M 146 279.6228668768 C 151.328 279.6228668768 151.328 287.6228668768 146 287.6228668768 C 140.672 287.6228668768 140.672 279.6228668768 146 279.6228668768 Z"></path><path fill="#68AB2B" d="M 162 290.8778468012 C 167.328 290.8778468012 167.328 298.8778468012 162 298.8778468012 C 156.672 298.8778468012 156.672 290.8778468012 162 290.8778468012 Z"></path><path fill="#68AB2B" d="M 177 294.554216876 C 182.328 294.554216876 182.328 302.554216876 177 302.554216876 C 171.672 302.554216876 171.672 294.554216876 177 294.554216876 Z"></path><path fill="#68AB2B" d="M 192 301.2647503682 C 197.328 301.2647503682 197.328 309.2647503682 192 309.2647503682 C 186.672 309.2647503682 186.672 301.2647503682 192 301.2647503682 Z"></path><path fill="#68AB2B" d="M 208 312.2064057068 C 213.328 312.2064057068 213.328 320.2064057068 208 320.2064057068 C 202.672 320.2064057068 202.672 312.2064057068 208 312.2064057068 Z"></path><path fill="#68AB2B" d="M 223 314.1700404854 C 228.328 314.1700404854 228.328 322.1700404854 223 322.1700404854 C 217.672 322.1700404854 217.672 314.1700404854 223 314.1700404854 Z"></path><path fill="#68AB2B" d="M 239 321.9151291364 C 244.328 321.9151291364 244.328 329.9151291364 239 329.9151291364 C 233.672 329.9151291364 233.672 321.9151291364 239 321.9151291364 Z"></path><path fill="#68AB2B" d="M 254 323.9586206864 C 259.328 323.9586206864 259.328 331.9586206864 254 331.9586206864 C 248.672 331.9586206864 248.672 323.9586206864 254 323.9586206864 Z"></path><path fill="#68AB2B" d="M 270 324.8252853272 C 275.328 324.8252853272 275.328 332.8252853272 270 332.8252853272 C 264.672 332.8252853272 264.672 324.8252853272 270 324.8252853272 Z"></path><path fill="#68AB2B" d="M 285 325.0536912602 C 290.328 325.0536912602 290.328 333.0536912602 285 333.0536912602 C 279.672 333.0536912602 279.672 325.0536912602 285 325.0536912602 Z"></path><path fill="#68AB2B" d="M 300 339.5663157932 C 305.328 339.5663157932 305.328 347.5663157932 300 347.5663157932 C 294.672 347.5663157932 294.672 339.5663157932 300 339.5663157932 Z"></path><path fill="#68AB2B" d="M 316 343.1923077032 C 321.328 343.1923077032 321.328 351.1923077032 316 351.1923077032 C 310.672 351.1923077032 310.672 343.1923077032 316 343.1923077032 Z"></path></g></g><text x="10" text-anchor="start" class="highcharts-title" style="color:#000000;font-size:14px;font-weight:bold;font-family:arial;fill:#000000;width:421px;" y="21"><tspan>RU-2 Anteil Einfamilienh채user</tspan></text><g class="highcharts-axis-labels highcharts-xaxis-labels"><text x="106" style="color:#000000;cursor:default;font-size:11px;fill:#000000;width:150px;text-overflow:clip;" text-anchor="end" transform="translate(0,0)" y="54" opacity="1"><tspan>Clara</tspan></text><text x="106" style="color:#000000;cursor:default;font-size:11px;fill:#000000;width:150px;text-overflow:clip;" text-anchor="end" transform="translate(0,0)" y="69" opacity="1"><tspan>Gundeldingen</tspan></text><text x="106" style="color:#000000;cursor:default;font-size:11px;fill:#000000;width:150px;text-overflow:clip;" text-anchor="end" transform="translate(0,0)" y="85" opacity="1"><tspan>Rosental</tspan></text><text x="106" style="color:#000000;cursor:default;font-size:11px;fill:#000000;width:150px;text-overflow:clip;" text-anchor="end" transform="translate(0,0)" y="100" opacity="1"><tspan>Matth채us</tspan></text><text x="106" style="color:#000000;cursor:default;font-size:11px;fill:#000000;width:150px;text-overflow:clip;" text-anchor="end" transform="translate(0,0)" y="115" opacity="1"><tspan>Klybeck</tspan></text><text x="106" style="color:#000000;cursor:default;font-size:11px;fill:#000000;width:150px;text-overflow:clip;" text-anchor="end" transform="translate(0,0)" y="131" opacity="1"><tspan>Vorst채dte</tspan></text><text x="106" style="color:#000000;cursor:default;font-size:11px;fill:#000000;width:150px;text-overflow:clip;" text-anchor="end" transform="translate(0,0)" y="146" opacity="1"><tspan>Altstadt Grossbasel</tspan></text><text x="106" style="color:#000000;cursor:default;font-size:11px;fill:#000000;width:150px;text-overflow:clip;" text-anchor="end" transform="translate(0,0)" y="162" opacity="1"><tspan>Altstadt Kleinbasel</tspan></text><text x="106" style="color:#000000;cursor:default;font-size:11px;fill:#000000;width:150px;text-overflow:clip;" text-anchor="end" transform="translate(0,0)" y="177" opacity="1"><tspan>Breite</tspan></text><text x="106" style="color:#000000;cursor:default;font-size:11px;fill:#000000;width:150px;text-overflow:clip;" text-anchor="end" transform="translate(0,0)" y="193" opacity="1"><tspan>Kleinh체ningen</tspan></text><text x="106" style="color:#000000;cursor:default;font-size:11px;fill:#000000;width:150px;text-overflow:clip;" text-anchor="end" transform="translate(0,0)" y="208" opacity="1"><tspan>Iselin</tspan></text><text x="106" style="color:#000000;cursor:default;font-size:11px;fill:#000000;width:150px;text-overflow:clip;" text-anchor="end" transform="translate(0,0)" y="223" opacity="1"><tspan>Am Ring</tspan></text><text x="106" style="color:#000000;cursor:default;font-size:11px;fill:#000000;width:150px;text-overflow:clip;" text-anchor="end" transform="translate(0,0)" y="239" opacity="1"><tspan>St. Johann</tspan></text><text x="106" style="color:#000000;cursor:default;font-size:11px;fill:#000000;width:150px;text-overflow:clip;" text-anchor="end" transform="translate(0,0)" y="254" opacity="1"><tspan>Wettstein</tspan></text><text x="106" style="color:#000000;cursor:default;font-size:11px;fill:#000000;width:150px;text-overflow:clip;" text-anchor="end" transform="translate(0,0)" y="270" opacity="1"><tspan>St. Alban</tspan></text><text x="106" style="color:#000000;cursor:default;font-size:11px;fill:#000000;width:150px;text-overflow:clip;" text-anchor="end" transform="translate(0,0)" y="285" opacity="1"><tspan>Gotthelf</tspan></text><text x="106" style="color:#000000;cursor:default;font-size:11px;fill:#000000;width:150px;text-overflow:clip;" text-anchor="end" transform="translate(0,0)" y="301" opacity="1"><tspan>Bachletten</tspan></text><text x="106" style="color:#000000;cursor:default;font-size:11px;fill:#000000;width:150px;text-overflow:clip;" text-anchor="end" transform="translate(0,0)" y="316" opacity="1"><tspan>Riehen</tspan></text><text x="106" style="color:#000000;cursor:default;font-size:11px;fill:#000000;width:150px;text-overflow:clip;" text-anchor="end" transform="translate(0,0)" y="331" opacity="1"><tspan>Hirzbrunnen</tspan></text><text x="106" style="color:#000000;cursor:default;font-size:11px;fill:#000000;width:150px;text-overflow:clip;" text-anchor="end" transform="translate(0,0)" y="347" opacity="1"><tspan>Bruderholz</tspan></text><text x="106" style="color:#000000;cursor:default;font-size:11px;fill:#000000;width:150px;text-overflow:clip;" text-anchor="end" transform="translate(0,0)" y="362" opacity="1"><tspan>Bettingen</tspan></text></g><g class="highcharts-axis-labels highcharts-yaxis-labels"><text x="121" style="color:#000000;cursor:default;font-size:11px;fill:#000000;width:61px;text-overflow:clip;" text-anchor="middle" transform="translate(0,0)" y="384" opacity="1"><tspan>0%</tspan></text><text x="191.8" style="color:#000000;cursor:default;font-size:11px;fill:#000000;width:61px;text-overflow:clip;" text-anchor="middle" transform="translate(0,0)" y="384" opacity="1"><tspan>20%</tspan></text><text x="262.6" style="color:#000000;cursor:default;font-size:11px;fill:#000000;width:61px;text-overflow:clip;" text-anchor="middle" transform="translate(0,0)" y="384" opacity="1"><tspan>40%</tspan></text><text x="333.4" style="color:#000000;cursor:default;font-size:11px;fill:#000000;width:61px;text-overflow:clip;" text-anchor="middle" transform="translate(0,0)" y="384" opacity="1"><tspan>60%</tspan></text><text x="404.2" style="color:#000000;cursor:default;font-size:11px;fill:#000000;width:61px;text-overflow:clip;" text-anchor="middle" transform="translate(0,0)" y="384" opacity="1"><tspan>80%</tspan></text><text x="461" style="color:#000000;cursor:default;font-size:11px;fill:#000000;width:61px;text-overflow:clip;" text-anchor="middle" transform="translate(0,0)" y="384" opacity="1"><tspan>100%</tspan></text></g><g class="highcharts-tooltip" style="cursor:default;padding:0;pointer-events:none;white-space:nowrap;" transform="translate(0,-9000000000)"><path fill="none" d="M 3.5 0.5 L 13.5 0.5 C 16.5 0.5 16.5 0.5 16.5 3.5 L 16.5 13.5 C 16.5 16.5 16.5 16.5 13.5 16.5 L 3.5 16.5 C 0.5 16.5 0.5 16.5 0.5 13.5 L 0.5 3.5 C 0.5 0.5 0.5 0.5 3.5 0.5"  stroke="black" stroke-opacity="0.049999999999999996" stroke-width="5" transform="translate(1, 1)"></path><path fill="none" d="M 3.5 0.5 L 13.5 0.5 C 16.5 0.5 16.5 0.5 16.5 3.5 L 16.5 13.5 C 16.5 16.5 16.5 16.5 13.5 16.5 L 3.5 16.5 C 0.5 16.5 0.5 16.5 0.5 13.5 L 0.5 3.5 C 0.5 0.5 0.5 0.5 3.5 0.5"  stroke="black" stroke-opacity="0.09999999999999999" stroke-width="3" transform="translate(1, 1)"></path><path fill="none" d="M 3.5 0.5 L 13.5 0.5 C 16.5 0.5 16.5 0.5 16.5 3.5 L 16.5 13.5 C 16.5 16.5 16.5 16.5 13.5 16.5 L 3.5 16.5 C 0.5 16.5 0.5 16.5 0.5 13.5 L 0.5 3.5 C 0.5 0.5 0.5 0.5 3.5 0.5"  stroke="black" stroke-opacity="0.15" stroke-width="1" transform="translate(1, 1)"></path><path fill="rgb(249, 249, 249)" fill-opacity=" .85" d="M 3.5 0.5 L 13.5 0.5 C 16.5 0.5 16.5 0.5 16.5 3.5 L 16.5 13.5 C 16.5 16.5 16.5 16.5 13.5 16.5 L 3.5 16.5 C 0.5 16.5 0.5 16.5 0.5 13.5 L 0.5 3.5 C 0.5 0.5 0.5 0.5 3.5 0.5"></path><text x="8" style="font-size:12px;color:#333333;fill:#333333;" y="20"></text></g><text x="10" text-anchor="start" style="cursor:default;color:#000000;font-size:10px;fill:#000000;" y="410"><tspan>Quelle: Kantonale Baustatistik</tspan></text></svg>