<?xml version="1.0" standalone="no"?><!DOCTYPE svg PUBLIC "-//W3C//DTD SVG 1.1//EN" "http://www.w3.org/Graphics/SVG/1.1/DTD/svg11.dtd"><svg xmlns:xlink="http://www.w3.org/1999/xlink" version="1.1" style="font-family:Arial;font-size:12px;" xmlns="http://www.w3.org/2000/svg" viewBox="0 0 485 415"><desc>Created with Highcharts 4.2.6</desc><defs><clipPath id="highcharts-1"><rect x="0" y="0" width="320" height="341"></rect></clipPath></defs><rect x="0" y="0" width="485" height="415" fill="#fbfbfb" class=" highcharts-background"></rect><g class="highcharts-grid"></g><g class="highcharts-grid"><path fill="none" d="M 133.5 43 L 133.5 363" stroke="#D8D8D8" stroke-width="1" opacity="1"></path><path fill="none" d="M 201.5 43 L 201.5 363" stroke="#D8D8D8" stroke-width="1" opacity="1"></path><path fill="none" d="M 269.5 43 L 269.5 363" stroke="#D8D8D8" stroke-width="1" opacity="1"></path><path fill="none" d="M 338.5 43 L 338.5 363" stroke="#D8D8D8" stroke-width="1" opacity="1"></path><path fill="none" d="M 406.5 43 L 406.5 363" stroke="#D8D8D8" stroke-width="1" opacity="1"></path><path fill="none" d="M 475.5 43 L 475.5 363" stroke="#D8D8D8" stroke-width="1" opacity="1"></path></g><g class="highcharts-axis"><path fill="none" d="M 134 58.5 L 124 58.5" stroke="#FFFFFF" stroke-width="1" opacity="1"></path><path fill="none" d="M 134 73.5 L 124 73.5" stroke="#FFFFFF" stroke-width="1" opacity="1"></path><path fill="none" d="M 134 89.5 L 124 89.5" stroke="#FFFFFF" stroke-width="1" opacity="1"></path><path fill="none" d="M 134 104.5 L 124 104.5" stroke="#FFFFFF" stroke-width="1" opacity="1"></path><path fill="none" d="M 134 119.5 L 124 119.5" stroke="#FFFFFF" stroke-width="1" opacity="1"></path><path fill="none" d="M 134 134.5 L 124 134.5" stroke="#FFFFFF" stroke-width="1" opacity="1"></path><path fill="none" d="M 134 150.5 L 124 150.5" stroke="#FFFFFF" stroke-width="1" opacity="1"></path><path fill="none" d="M 134 165.5 L 124 165.5" stroke="#FFFFFF" stroke-width="1" opacity="1"></path><path fill="none" d="M 134 180.5 L 124 180.5" stroke="#FFFFFF" stroke-width="1" opacity="1"></path><path fill="none" d="M 134 195.5 L 124 195.5" stroke="#FFFFFF" stroke-width="1" opacity="1"></path><path fill="none" d="M 134 211.5 L 124 211.5" stroke="#FFFFFF" stroke-width="1" opacity="1"></path><path fill="none" d="M 134 226.5 L 124 226.5" stroke="#FFFFFF" stroke-width="1" opacity="1"></path><path fill="none" d="M 134 241.5 L 124 241.5" stroke="#FFFFFF" stroke-width="1" opacity="1"></path><path fill="none" d="M 134 256.5 L 124 256.5" stroke="#FFFFFF" stroke-width="1" opacity="1"></path><path fill="none" d="M 134 272.5 L 124 272.5" stroke="#FFFFFF" stroke-width="1" opacity="1"></path><path fill="none" d="M 134 287.5 L 124 287.5" stroke="#FFFFFF" stroke-width="1" opacity="1"></path><path fill="none" d="M 134 302.5 L 124 302.5" stroke="#FFFFFF" stroke-width="1" opacity="1"></path><path fill="none" d="M 134 317.5 L 124 317.5" stroke="#FFFFFF" stroke-width="1" opacity="1"></path><path fill="none" d="M 134 333.5 L 124 333.5" stroke="#FFFFFF" stroke-width="1" opacity="1"></path><path fill="none" d="M 134 348.5 L 124 348.5" stroke="#FFFFFF" stroke-width="1" opacity="1"></path><path fill="none" d="M 134 363.5 L 124 363.5" stroke="#FFFFFF" stroke-width="1" opacity="1"></path><path fill="none" d="M 134 42.5 L 124 42.5" stroke="#FFFFFF" stroke-width="1" opacity="1"></path><path fill="none" d="M 133.5 43 L 133.5 363" stroke="#C0D0E0" stroke-width="1"></path></g><g class="highcharts-axis"></g><g class="highcharts-series-group"><g class="highcharts-series highcharts-series-0 highcharts-tracker" transform="translate(475,363) rotate(90) scale(-1,1) scale(1 1)" style="" width="341" height="320" clip-path="url(#highcharts-1)"></g><g class="highcharts-markers highcharts-series-0 highcharts-tracker" transform="translate(475,363) rotate(90) scale(-1,1) scale(1 1)" style="" width="341" height="320" clip-path="none"><path fill="#68AB2B" d="M 7 48.67940199335578 C 12.328 48.67940199335578 12.328 56.67940199335578 7 56.67940199335578 C 1.672 56.67940199335578 1.672 48.67940199335578 7 48.67940199335578 Z"></path><path fill="#68AB2B" d="M 22 86.86688389477206 C 27.328 86.86688389477206 27.328 94.86688389477206 22 94.86688389477206 C 16.672 94.86688389477206 16.672 86.86688389477206 22 86.86688389477206 Z"></path><path fill="#68AB2B" d="M 38 113.10237175951451 C 43.328 113.10237175951451 43.328 121.10237175951451 38 121.10237175951451 C 32.672 121.10237175951451 32.672 113.10237175951451 38 113.10237175951451 Z"></path><path fill="#68AB2B" d="M 53 133.88165734714485 C 58.328 133.88165734714485 58.328 141.88165734714485 53 141.88165734714485 C 47.672 141.88165734714485 47.672 133.88165734714485 53 133.88165734714485 Z"></path><path fill="#68AB2B" d="M 68 140.14104842292346 C 73.328 140.14104842292346 73.328 148.14104842292346 68 148.14104842292346 C 62.672 148.14104842292346 62.672 140.14104842292346 68 140.14104842292346 Z"></path><path fill="#68AB2B" d="M 83 151.425189882752 C 88.328 151.425189882752 88.328 159.425189882752 83 159.425189882752 C 77.672 159.425189882752 77.672 151.425189882752 83 151.425189882752 Z"></path><path fill="#68AB2B" d="M 99 153.16523508137462 C 104.328 153.16523508137462 104.328 161.16523508137462 99 161.16523508137462 C 93.672 161.16523508137462 93.672 153.16523508137462 99 153.16523508137462 Z"></path><path fill="#68AB2B" d="M 114 158.03379310344846 C 119.328 158.03379310344846 119.328 166.03379310344846 114 166.03379310344846 C 108.672 166.03379310344846 108.672 158.03379310344846 114 158.03379310344846 Z"></path><path fill="#68AB2B" d="M 129 161.48261102193712 C 134.328 161.48261102193712 134.328 169.48261102193712 129 169.48261102193712 C 123.672 169.48261102193712 123.672 161.48261102193712 129 161.48261102193712 Z"></path><path fill="#68AB2B" d="M 144 169.75850086870182 C 149.328 169.75850086870182 149.328 177.75850086870182 144 177.75850086870182 C 138.672 177.75850086870182 138.672 169.75850086870182 144 169.75850086870182 Z"></path><path fill="#68AB2B" d="M 160 174.7968369829687 C 165.328 174.7968369829687 165.328 182.7968369829687 160 182.7968369829687 C 154.672 182.7968369829687 154.672 174.7968369829687 160 174.7968369829687 Z"></path><path fill="#68AB2B" d="M 175 182.7280593325094 C 180.328 182.7280593325094 180.328 190.7280593325094 175 190.7280593325094 C 169.672 190.7280593325094 169.672 182.7280593325094 175 182.7280593325094 Z"></path><path fill="#68AB2B" d="M 190 185.96506358719472 C 195.328 185.96506358719472 195.328 193.96506358719472 190 193.96506358719472 C 184.672 193.96506358719472 184.672 185.96506358719472 190 185.96506358719472 Z"></path><path fill="#68AB2B" d="M 205 186.78312347303157 C 210.328 186.78312347303157 210.328 194.78312347303157 205 194.78312347303157 C 199.672 194.78312347303157 199.672 186.78312347303157 205 186.78312347303157 Z"></path><path fill="#68AB2B" d="M 220 187.9974686595947 C 225.328 187.9974686595947 225.328 195.9974686595947 220 195.9974686595947 C 214.672 195.9974686595947 214.672 187.9974686595947 220 187.9974686595947 Z"></path><path fill="#68AB2B" d="M 236 197.5728171067549 C 241.328 197.5728171067549 241.328 205.5728171067549 236 205.5728171067549 C 230.672 205.5728171067549 230.672 197.5728171067549 236 197.5728171067549 Z"></path><path fill="#68AB2B" d="M 251 198.1149797570852 C 256.328 198.1149797570852 256.328 206.1149797570852 251 206.1149797570852 C 245.672 206.1149797570852 245.672 198.1149797570852 251 198.1149797570852 Z"></path><path fill="#68AB2B" d="M 266 200.89005847953243 C 271.328 200.89005847953243 271.328 208.89005847953243 266 208.89005847953243 C 260.672 208.89005847953243 260.672 200.89005847953243 266 200.89005847953243 Z"></path><path fill="#68AB2B" d="M 281 201.7571580063626 C 286.328 201.7571580063626 286.328 209.7571580063626 281 209.7571580063626 C 275.672 209.7571580063626 275.672 201.7571580063626 281 201.7571580063626 Z"></path><path fill="#68AB2B" d="M 297 221.23880781597808 C 302.328 221.23880781597808 302.328 229.23880781597808 297 229.23880781597808 C 291.672 229.23880781597808 291.672 221.23880781597808 297 221.23880781597808 Z"></path><path fill="#68AB2B" d="M 312 224.68706365503073 C 317.328 224.68706365503073 317.328 232.68706365503073 312 232.68706365503073 C 306.672 232.68706365503073 306.672 224.68706365503073 312 224.68706365503073 Z"></path></g></g><text x="10" text-anchor="start" class="highcharts-title" style="color:#000000;font-size:14px;font-weight:bold;font-family:Arial;fill:#000000;width:421px;" y="21"><tspan>Motorisierungsgrad: private PW nach Wohnviertel</tspan></text><g class="highcharts-axis-labels highcharts-xaxis-labels"><text x="119" style="color:#000000;cursor:default;font-size:11px;fill:#000000;width:150px;text-overflow:ellipsis;" text-anchor="end" transform="translate(0,0)" y="55" opacity="1"><tspan>Altstadt Kleinbasel</tspan></text><text x="119" style="color:#000000;cursor:default;font-size:11px;fill:#000000;width:150px;text-overflow:ellipsis;" text-anchor="end" transform="translate(0,0)" y="70" opacity="1"><tspan>Matthäus</tspan></text><text x="119" style="color:#000000;cursor:default;font-size:11px;fill:#000000;width:150px;text-overflow:ellipsis;" text-anchor="end" transform="translate(0,0)" y="85" opacity="1"><tspan>Gundeldingen</tspan></text><text x="119" style="color:#000000;cursor:default;font-size:11px;fill:#000000;width:150px;text-overflow:ellipsis;" text-anchor="end" transform="translate(0,0)" y="100" opacity="1"><tspan>St. Johann</tspan></text><text x="119" style="color:#000000;cursor:default;font-size:11px;fill:#000000;width:150px;text-overflow:ellipsis;" text-anchor="end" transform="translate(0,0)" y="116" opacity="1"><tspan>Altstadt Grossbasel</tspan></text><text x="119" style="color:#000000;cursor:default;font-size:11px;fill:#000000;width:150px;text-overflow:ellipsis;" text-anchor="end" transform="translate(0,0)" y="131" opacity="1"><tspan>Rosental</tspan></text><text x="119" style="color:#000000;cursor:default;font-size:11px;fill:#000000;width:150px;text-overflow:ellipsis;" text-anchor="end" transform="translate(0,0)" y="146" opacity="1"><tspan>Iselin</tspan></text><text x="119" style="color:#000000;cursor:default;font-size:11px;fill:#000000;width:150px;text-overflow:ellipsis;" text-anchor="end" transform="translate(0,0)" y="161" opacity="1"><tspan>Am Ring</tspan></text><text x="119" style="color:#000000;cursor:default;font-size:11px;fill:#000000;width:150px;text-overflow:ellipsis;" text-anchor="end" transform="translate(0,0)" y="177" opacity="1"><tspan>Gotthelf</tspan></text><text x="119" style="color:#000000;cursor:default;font-size:11px;fill:#000000;width:150px;text-overflow:ellipsis;" text-anchor="end" transform="translate(0,0)" y="192" opacity="1"><tspan>Klybeck</tspan></text><text x="119" style="color:#000000;cursor:default;font-size:11px;fill:#000000;width:150px;text-overflow:ellipsis;" text-anchor="end" transform="translate(0,0)" y="207" opacity="1"><tspan>Vorstädte</tspan></text><text x="119" style="color:#000000;cursor:default;font-size:11px;fill:#000000;width:150px;text-overflow:ellipsis;" text-anchor="end" transform="translate(0,0)" y="222" opacity="1"><tspan>Clara</tspan></text><text x="119" style="color:#000000;cursor:default;font-size:11px;fill:#000000;width:150px;text-overflow:ellipsis;" text-anchor="end" transform="translate(0,0)" y="237" opacity="1"><tspan>Wettstein</tspan></text><text x="119" style="color:#000000;cursor:default;font-size:11px;fill:#000000;width:150px;text-overflow:ellipsis;" text-anchor="end" transform="translate(0,0)" y="253" opacity="1"><tspan>Kleinhüningen</tspan></text><text x="119" style="color:#000000;cursor:default;font-size:11px;fill:#000000;width:150px;text-overflow:ellipsis;" text-anchor="end" transform="translate(0,0)" y="268" opacity="1"><tspan>Breite</tspan></text><text x="119" style="color:#000000;cursor:default;font-size:11px;fill:#000000;width:150px;text-overflow:ellipsis;" text-anchor="end" transform="translate(0,0)" y="283" opacity="1"><tspan>Bachletten</tspan></text><text x="119" style="color:#000000;cursor:default;font-size:11px;fill:#000000;width:150px;text-overflow:ellipsis;" text-anchor="end" transform="translate(0,0)" y="298" opacity="1"><tspan>Hirzbrunnen</tspan></text><text x="119" style="color:#000000;cursor:default;font-size:11px;fill:#000000;width:150px;text-overflow:ellipsis;" text-anchor="end" transform="translate(0,0)" y="314" opacity="1"><tspan>St. Alban</tspan></text><text x="119" style="color:#000000;cursor:default;font-size:11px;fill:#000000;width:150px;text-overflow:ellipsis;" text-anchor="end" transform="translate(0,0)" y="329" opacity="1"><tspan>Bruderholz</tspan></text><text x="119" style="color:#000000;cursor:default;font-size:11px;fill:#000000;width:150px;text-overflow:ellipsis;" text-anchor="end" transform="translate(0,0)" y="344" opacity="1"><tspan>Riehen</tspan></text><text x="119" style="color:#000000;cursor:default;font-size:11px;fill:#000000;width:150px;text-overflow:ellipsis;" text-anchor="end" transform="translate(0,0)" y="359" opacity="1"><tspan>Bettingen</tspan></text></g><g class="highcharts-axis-labels highcharts-yaxis-labels"><text x="134" style="color:#000000;cursor:default;font-size:11px;fill:#000000;" text-anchor="middle" transform="translate(0,0)" y="382" opacity="1">0</text><text x="202.2" style="color:#000000;cursor:default;font-size:11px;fill:#000000;" text-anchor="middle" transform="translate(0,0)" y="382" opacity="1">100</text><text x="270.4" style="color:#000000;cursor:default;font-size:11px;fill:#000000;" text-anchor="middle" transform="translate(0,0)" y="382" opacity="1">200</text><text x="338.6" style="color:#000000;cursor:default;font-size:11px;fill:#000000;" text-anchor="middle" transform="translate(0,0)" y="382" opacity="1">300</text><text x="406.8" style="color:#000000;cursor:default;font-size:11px;fill:#000000;" text-anchor="middle" transform="translate(0,0)" y="382" opacity="1">400</text><text x="464.5234375" style="color:#000000;cursor:default;font-size:11px;fill:#000000;" text-anchor="middle" transform="translate(0,0)" y="382" opacity="1">500</text></g><g class="highcharts-tooltip" style="cursor:default;padding:0;pointer-events:none;white-space:nowrap;" transform="translate(0,-9000000000)"><path fill="none" d="M 3.5 0.5 L 13.5 0.5 C 16.5 0.5 16.5 0.5 16.5 3.5 L 16.5 13.5 C 16.5 16.5 16.5 16.5 13.5 16.5 L 3.5 16.5 C 0.5 16.5 0.5 16.5 0.5 13.5 L 0.5 3.5 C 0.5 0.5 0.5 0.5 3.5 0.5" isShadow="true" stroke="black" stroke-width="5" transform="translate(1, 1)" opacity="0.049999999999999996"></path><path fill="none" d="M 3.5 0.5 L 13.5 0.5 C 16.5 0.5 16.5 0.5 16.5 3.5 L 16.5 13.5 C 16.5 16.5 16.5 16.5 13.5 16.5 L 3.5 16.5 C 0.5 16.5 0.5 16.5 0.5 13.5 L 0.5 3.5 C 0.5 0.5 0.5 0.5 3.5 0.5" isShadow="true" stroke="black" stroke-width="3" transform="translate(1, 1)" opacity="0.09999999999999999"></path><path fill="none" d="M 3.5 0.5 L 13.5 0.5 C 16.5 0.5 16.5 0.5 16.5 3.5 L 16.5 13.5 C 16.5 16.5 16.5 16.5 13.5 16.5 L 3.5 16.5 C 0.5 16.5 0.5 16.5 0.5 13.5 L 0.5 3.5 C 0.5 0.5 0.5 0.5 3.5 0.5" isShadow="true" stroke="black" stroke-width="1" transform="translate(1, 1)" opacity="0.15"></path><path fill="rgba(249, 249, 249, .85)" d="M 3.5 0.5 L 13.5 0.5 C 16.5 0.5 16.5 0.5 16.5 3.5 L 16.5 13.5 C 16.5 16.5 16.5 16.5 13.5 16.5 L 3.5 16.5 C 0.5 16.5 0.5 16.5 0.5 13.5 L 0.5 3.5 C 0.5 0.5 0.5 0.5 3.5 0.5"></path><text x="8" style="font-size:12px;color:#333333;fill:#333333;" y="20"></text></g><text x="10" text-anchor="start" style="cursor:default;color:#000000;font-size:10px;fill:#000000;" y="410"><tspan>Quelle: Statistisches Amt Basel-Stadt; Motorfahrzeugkontrolle Basel-Stadt</tspan></text></svg>