<svg xmlns:xlink="http://www.w3.org/1999/xlink" version="1.1" style="font-family:arial;font-size:12px;" xmlns="http://www.w3.org/2000/svg" viewBox="0 0 485 415"><desc>Created with Highcharts 4.2.6</desc><defs><clipPath id="highcharts-5"><rect x="0" y="0" width="324" height="354"></rect></clipPath></defs><rect x="0" y="0" width="485" height="415" fill="#fbfbfb" class=" highcharts-background"></rect><g class="highcharts-grid"></g><g class="highcharts-grid"><path fill="none" d="M 120.5 41 L 120.5 365" stroke="#D8D8D8" stroke-width="1" opacity="1"></path><path fill="none" d="M 191.5 41 L 191.5 365" stroke="#D8D8D8" stroke-width="1" opacity="1"></path><path fill="none" d="M 262.5 41 L 262.5 365" stroke="#D8D8D8" stroke-width="1" opacity="1"></path><path fill="none" d="M 332.5 41 L 332.5 365" stroke="#D8D8D8" stroke-width="1" opacity="1"></path><path fill="none" d="M 403.5 41 L 403.5 365" stroke="#D8D8D8" stroke-width="1" opacity="1"></path><path fill="none" d="M 475.5 41 L 475.5 365" stroke="#D8D8D8" stroke-width="1" opacity="1"></path></g><g class="highcharts-axis"><path fill="none" d="M 121 56.5 L 111 56.5" stroke="#FFFFFF" stroke-width="1" opacity="1"></path><path fill="none" d="M 121 72.5 L 111 72.5" stroke="#FFFFFF" stroke-width="1" opacity="1"></path><path fill="none" d="M 121 87.5 L 111 87.5" stroke="#FFFFFF" stroke-width="1" opacity="1"></path><path fill="none" d="M 121 103.5 L 111 103.5" stroke="#FFFFFF" stroke-width="1" opacity="1"></path><path fill="none" d="M 121 118.5 L 111 118.5" stroke="#FFFFFF" stroke-width="1" opacity="1"></path><path fill="none" d="M 121 134.5 L 111 134.5" stroke="#FFFFFF" stroke-width="1" opacity="1"></path><path fill="none" d="M 121 149.5 L 111 149.5" stroke="#FFFFFF" stroke-width="1" opacity="1"></path><path fill="none" d="M 121 164.5 L 111 164.5" stroke="#FFFFFF" stroke-width="1" opacity="1"></path><path fill="none" d="M 121 180.5 L 111 180.5" stroke="#FFFFFF" stroke-width="1" opacity="1"></path><path fill="none" d="M 121 195.5 L 111 195.5" stroke="#FFFFFF" stroke-width="1" opacity="1"></path><path fill="none" d="M 121 211.5 L 111 211.5" stroke="#FFFFFF" stroke-width="1" opacity="1"></path><path fill="none" d="M 121 226.5 L 111 226.5" stroke="#FFFFFF" stroke-width="1" opacity="1"></path><path fill="none" d="M 121 242.5 L 111 242.5" stroke="#FFFFFF" stroke-width="1" opacity="1"></path><path fill="none" d="M 121 257.5 L 111 257.5" stroke="#FFFFFF" stroke-width="1" opacity="1"></path><path fill="none" d="M 121 272.5 L 111 272.5" stroke="#FFFFFF" stroke-width="1" opacity="1"></path><path fill="none" d="M 121 288.5 L 111 288.5" stroke="#FFFFFF" stroke-width="1" opacity="1"></path><path fill="none" d="M 121 303.5 L 111 303.5" stroke="#FFFFFF" stroke-width="1" opacity="1"></path><path fill="none" d="M 121 319.5 L 111 319.5" stroke="#FFFFFF" stroke-width="1" opacity="1"></path><path fill="none" d="M 121 334.5 L 111 334.5" stroke="#FFFFFF" stroke-width="1" opacity="1"></path><path fill="none" d="M 121 350.5 L 111 350.5" stroke="#FFFFFF" stroke-width="1" opacity="1"></path><path fill="none" d="M 121 365.5 L 111 365.5" stroke="#FFFFFF" stroke-width="1" opacity="1"></path><path fill="none" d="M 121 40.5 L 111 40.5" stroke="#FFFFFF" stroke-width="1" opacity="1"></path><path fill="none" d="M 120.5 41 L 120.5 365" stroke="#C0D0E0" stroke-width="1"></path></g><g class="highcharts-axis"></g><g class="highcharts-series-group"><g class="highcharts-series highcharts-series-0" transform="translate(475,365) rotate(90) scale(-1,1) scale(1 1)" width="354" height="324" clip-path="url(#highcharts-5)"></g><g class="highcharts-markers highcharts-series-0" transform="translate(475,365) rotate(90) scale(-1,1) scale(1 1)" width="354" height="324" clip-path="none"><path fill="#923F8D" d="M 7 44.42720000000003 C 12.328 44.42720000000003 12.328 52.42720000000003 7 52.42720000000003 C 1.672 52.42720000000003 1.672 44.42720000000003 7 44.42720000000003 Z"></path><path fill="#923F8D" d="M 23 69.06560000000002 C 28.328 69.06560000000002 28.328 77.06560000000002 23 77.06560000000002 C 17.672 77.06560000000002 17.672 69.06560000000002 23 69.06560000000002 Z"></path><path fill="#923F8D" d="M 38 69.91519999999997 C 43.328 69.91519999999997 43.328 77.91519999999997 38 77.91519999999997 C 32.672 77.91519999999997 32.672 69.91519999999997 38 69.91519999999997 Z"></path><path fill="#923F8D" d="M 54 116.9264 C 59.328 116.9264 59.328 124.9264 54 124.9264 C 48.672 124.9264 48.672 116.9264 54 116.9264 Z"></path><path fill="#923F8D" d="M 69 147.51200000000003 C 74.328 147.51200000000003 74.328 155.51200000000003 69 155.51200000000003 C 63.672 155.51200000000003 63.672 147.51200000000003 69 147.51200000000003 Z"></path><path fill="#923F8D" d="M 84 157.42399999999998 C 89.328 157.42399999999998 89.328 165.42399999999998 84 165.42399999999998 C 78.672 165.42399999999998 78.672 157.42399999999998 84 157.42399999999998 Z"></path><path fill="#923F8D" d="M 100 178.3808 C 105.328 178.3808 105.328 186.3808 100 186.3808 C 94.672 186.3808 94.672 178.3808 100 178.3808 Z"></path><path fill="#923F8D" d="M 115 195.37279999999998 C 120.328 195.37279999999998 120.328 203.37279999999998 115 203.37279999999998 C 109.672 203.37279999999998 109.672 195.37279999999998 115 195.37279999999998 Z"></path><path fill="#923F8D" d="M 131 198.2048 C 136.328 198.2048 136.328 206.2048 131 206.2048 C 125.672 206.2048 125.672 198.2048 131 198.2048 Z"></path><path fill="#923F8D" d="M 146 229.9232 C 151.328 229.9232 151.328 237.9232 146 237.9232 C 140.672 237.9232 140.672 229.9232 146 229.9232 Z"></path><path fill="#923F8D" d="M 162 239.83520000000001 C 167.328 239.83520000000001 167.328 247.83520000000001 162 247.83520000000001 C 156.672 247.83520000000001 156.672 239.83520000000001 162 239.83520000000001 Z"></path><path fill="#923F8D" d="M 177 250.0304 C 182.328 250.0304 182.328 258.0304 177 258.0304 C 171.672 258.0304 171.672 250.0304 177 250.0304 Z"></path><path fill="#923F8D" d="M 192 264.1904 C 197.328 264.1904 197.328 272.1904 192 272.1904 C 186.672 272.1904 186.672 264.1904 192 264.1904 Z"></path><path fill="#923F8D" d="M 208 268.72159999999997 C 213.328 268.72159999999997 213.328 276.72159999999997 208 276.72159999999997 C 202.672 276.72159999999997 202.672 268.72159999999997 208 268.72159999999997 Z"></path><path fill="#923F8D" d="M 223 279.2 C 228.328 279.2 228.328 287.2 223 287.2 C 217.672 287.2 217.672 279.2 223 279.2 Z"></path><path fill="#923F8D" d="M 239 281.7488 C 244.328 281.7488 244.328 289.7488 239 289.7488 C 233.672 289.7488 233.672 281.7488 239 281.7488 Z"></path><path fill="#923F8D" d="M 254 284.86400000000003 C 259.328 284.86400000000003 259.328 292.86400000000003 254 292.86400000000003 C 248.672 292.86400000000003 248.672 284.86400000000003 254 284.86400000000003 Z"></path><path fill="#923F8D" d="M 270 297.3248 C 275.328 297.3248 275.328 305.3248 270 305.3248 C 264.672 305.3248 264.672 297.3248 270 297.3248 Z"></path><path fill="#923F8D" d="M 285 309.7856 C 290.328 309.7856 290.328 317.7856 285 317.7856 C 279.672 317.7856 279.672 309.7856 285 309.7856 Z"></path><path fill="#923F8D" d="M 300 314.8832 C 305.328 314.8832 305.328 322.8832 300 322.8832 C 294.672 322.8832 294.672 314.8832 300 314.8832 Z"></path><path fill="#923F8D" d="M 316 330.176 C 321.328 330.176 321.328 338.176 316 338.176 C 310.672 338.176 310.672 330.176 316 330.176 Z"></path></g></g><text x="10" text-anchor="start" class="highcharts-title" style="color:#000000;font-size:14px;font-weight:bold;font-family:arial;fill:#000000;width:421px;" y="21"><tspan>GS-1 Sozialhilfequote</tspan></text><g class="highcharts-axis-labels highcharts-xaxis-labels"><text x="106" style="color:#000000;cursor:default;font-size:11px;fill:#000000;width:150px;text-overflow:clip;" text-anchor="end" transform="translate(0,0)" y="54" opacity="1"><tspan>Bettingen</tspan></text><text x="106" style="color:#000000;cursor:default;font-size:11px;fill:#000000;width:150px;text-overflow:clip;" text-anchor="end" transform="translate(0,0)" y="69" opacity="1"><tspan>Bruderholz</tspan></text><text x="106" style="color:#000000;cursor:default;font-size:11px;fill:#000000;width:150px;text-overflow:clip;" text-anchor="end" transform="translate(0,0)" y="85" opacity="1"><tspan>Altstadt Grossbasel</tspan></text><text x="106" style="color:#000000;cursor:default;font-size:11px;fill:#000000;width:150px;text-overflow:clip;" text-anchor="end" transform="translate(0,0)" y="100" opacity="1"><tspan>Bachletten</tspan></text><text x="106" style="color:#000000;cursor:default;font-size:11px;fill:#000000;width:150px;text-overflow:clip;" text-anchor="end" transform="translate(0,0)" y="115" opacity="1"><tspan>St. Alban</tspan></text><text x="106" style="color:#000000;cursor:default;font-size:11px;fill:#000000;width:150px;text-overflow:clip;" text-anchor="end" transform="translate(0,0)" y="131" opacity="1"><tspan>Vorstädte</tspan></text><text x="106" style="color:#000000;cursor:default;font-size:11px;fill:#000000;width:150px;text-overflow:clip;" text-anchor="end" transform="translate(0,0)" y="146" opacity="1"><tspan>Riehen</tspan></text><text x="106" style="color:#000000;cursor:default;font-size:11px;fill:#000000;width:150px;text-overflow:clip;" text-anchor="end" transform="translate(0,0)" y="162" opacity="1"><tspan>Am Ring</tspan></text><text x="106" style="color:#000000;cursor:default;font-size:11px;fill:#000000;width:150px;text-overflow:clip;" text-anchor="end" transform="translate(0,0)" y="177" opacity="1"><tspan>Gotthelf</tspan></text><text x="106" style="color:#000000;cursor:default;font-size:11px;fill:#000000;width:150px;text-overflow:clip;" text-anchor="end" transform="translate(0,0)" y="193" opacity="1"><tspan>Hirzbrunnen</tspan></text><text x="106" style="color:#000000;cursor:default;font-size:11px;fill:#000000;width:150px;text-overflow:clip;" text-anchor="end" transform="translate(0,0)" y="208" opacity="1"><tspan>Wettstein</tspan></text><text x="106" style="color:#000000;cursor:default;font-size:11px;fill:#000000;width:150px;text-overflow:clip;" text-anchor="end" transform="translate(0,0)" y="223" opacity="1"><tspan>Breite</tspan></text><text x="106" style="color:#000000;cursor:default;font-size:11px;fill:#000000;width:150px;text-overflow:clip;" text-anchor="end" transform="translate(0,0)" y="239" opacity="1"><tspan>Gundeldingen</tspan></text><text x="106" style="color:#000000;cursor:default;font-size:11px;fill:#000000;width:150px;text-overflow:clip;" text-anchor="end" transform="translate(0,0)" y="254" opacity="1"><tspan>Altstadt Kleinbasel</tspan></text><text x="106" style="color:#000000;cursor:default;font-size:11px;fill:#000000;width:150px;text-overflow:clip;" text-anchor="end" transform="translate(0,0)" y="270" opacity="1"><tspan>Clara</tspan></text><text x="106" style="color:#000000;cursor:default;font-size:11px;fill:#000000;width:150px;text-overflow:clip;" text-anchor="end" transform="translate(0,0)" y="285" opacity="1"><tspan>St. Johann</tspan></text><text x="106" style="color:#000000;cursor:default;font-size:11px;fill:#000000;width:150px;text-overflow:clip;" text-anchor="end" transform="translate(0,0)" y="301" opacity="1"><tspan>Iselin</tspan></text><text x="106" style="color:#000000;cursor:default;font-size:11px;fill:#000000;width:150px;text-overflow:clip;" text-anchor="end" transform="translate(0,0)" y="316" opacity="1"><tspan>Rosental</tspan></text><text x="106" style="color:#000000;cursor:default;font-size:11px;fill:#000000;width:150px;text-overflow:clip;" text-anchor="end" transform="translate(0,0)" y="331" opacity="1"><tspan>Matthäus</tspan></text><text x="106" style="color:#000000;cursor:default;font-size:11px;fill:#000000;width:150px;text-overflow:clip;" text-anchor="end" transform="translate(0,0)" y="347" opacity="1"><tspan>Klybeck</tspan></text><text x="106" style="color:#000000;cursor:default;font-size:11px;fill:#000000;width:150px;text-overflow:clip;" text-anchor="end" transform="translate(0,0)" y="362" opacity="1"><tspan>Kleinhüningen</tspan></text></g><g class="highcharts-axis-labels highcharts-yaxis-labels"><text x="121" style="color:#000000;cursor:default;font-size:11px;fill:#000000;width:70.8;text-overflow:ellipsis;" text-anchor="middle" transform="translate(0,0)" y="384" opacity="1"><tspan>0%</tspan></text><text x="404.2" style="color:#000000;cursor:default;font-size:11px;fill:#000000;width:70.8;text-overflow:ellipsis;" text-anchor="middle" transform="translate(0,0)" y="384" opacity="1"><tspan>10%</tspan></text><text x="191.8" style="color:#000000;cursor:default;font-size:11px;fill:#000000;" text-anchor="middle" transform="translate(0,0)" y="384" opacity="1">3%</text><text x="262.6" style="color:#000000;cursor:default;font-size:11px;fill:#000000;" text-anchor="middle" transform="translate(0,0)" y="384" opacity="1">5%</text><text x="333.4" style="color:#000000;cursor:default;font-size:11px;fill:#000000;" text-anchor="middle" transform="translate(0,0)" y="384" opacity="1">8%</text><text x="464" style="color:#000000;cursor:default;font-size:11px;fill:#000000;" text-anchor="middle" transform="translate(0,0)" y="384" opacity="1">13%</text></g><g class="highcharts-tooltip" style="cursor:default;padding:0;pointer-events:none;white-space:nowrap;" transform="translate(0,-9000000000)"><path fill="none" d="M 3.5 0.5 L 13.5 0.5 C 16.5 0.5 16.5 0.5 16.5 3.5 L 16.5 13.5 C 16.5 16.5 16.5 16.5 13.5 16.5 L 3.5 16.5 C 0.5 16.5 0.5 16.5 0.5 13.5 L 0.5 3.5 C 0.5 0.5 0.5 0.5 3.5 0.5"  stroke="black" stroke-opacity="0.049999999999999996" stroke-width="5" transform="translate(1, 1)"></path><path fill="none" d="M 3.5 0.5 L 13.5 0.5 C 16.5 0.5 16.5 0.5 16.5 3.5 L 16.5 13.5 C 16.5 16.5 16.5 16.5 13.5 16.5 L 3.5 16.5 C 0.5 16.5 0.5 16.5 0.5 13.5 L 0.5 3.5 C 0.5 0.5 0.5 0.5 3.5 0.5"  stroke="black" stroke-opacity="0.09999999999999999" stroke-width="3" transform="translate(1, 1)"></path><path fill="none" d="M 3.5 0.5 L 13.5 0.5 C 16.5 0.5 16.5 0.5 16.5 3.5 L 16.5 13.5 C 16.5 16.5 16.5 16.5 13.5 16.5 L 3.5 16.5 C 0.5 16.5 0.5 16.5 0.5 13.5 L 0.5 3.5 C 0.5 0.5 0.5 0.5 3.5 0.5"  stroke="black" stroke-opacity="0.15" stroke-width="1" transform="translate(1, 1)"></path><path fill="rgb(249, 249, 249)" fill-opacity=" .85" d="M 3.5 0.5 L 13.5 0.5 C 16.5 0.5 16.5 0.5 16.5 3.5 L 16.5 13.5 C 16.5 16.5 16.5 16.5 13.5 16.5 L 3.5 16.5 C 0.5 16.5 0.5 16.5 0.5 13.5 L 0.5 3.5 C 0.5 0.5 0.5 0.5 3.5 0.5"></path><text x="8" style="font-size:12px;color:#333333;fill:#333333;" y="20"></text></g><text x="10" text-anchor="start" style="cursor:default;color:#000000;font-size:10px;fill:#000000;" y="410"><tspan>Quelle: Statistisches Amt Basel-Stadt, kantonale Sozialhilfestatistik</tspan></text></svg>