<?xml version="1.0" standalone="no"?><!DOCTYPE svg PUBLIC "-//W3C//DTD SVG 1.1//EN" "http://www.w3.org/Graphics/SVG/1.1/DTD/svg11.dtd"><svg xmlns:xlink="http://www.w3.org/1999/xlink" version="1.1" style="font-family:Arial;font-size:12px;" xmlns="http://www.w3.org/2000/svg" viewBox="0 0 485 415"><desc>Created with Highcharts 4.2.7</desc><defs><clipPath id="highcharts-1"><rect x="0" y="0" width="259" height="265"></rect></clipPath></defs><rect x="0" y="0" width="485" height="415" fill="#fbfbfb" class=" highcharts-background"></rect><g class="highcharts-grid"></g><g class="highcharts-grid"><path fill="none" d="M 81 340.5 L 340 340.5" stroke="#D8D8D8" stroke-width="1" opacity="1"></path><path fill="none" d="M 81 274.5 L 340 274.5" stroke="#D8D8D8" stroke-width="1" opacity="1"></path><path fill="none" d="M 81 208.5 L 340 208.5" stroke="#D8D8D8" stroke-width="1" opacity="1"></path><path fill="none" d="M 81 141.5 L 340 141.5" stroke="#D8D8D8" stroke-width="1" opacity="1"></path><path fill="none" d="M 81 74.5 L 340 74.5" stroke="#D8D8D8" stroke-width="1" opacity="1"></path></g><g class="highcharts-axis"><path fill="none" d="M 112.5 340 L 112.5 350" stroke="#FFFFFF" stroke-width="1" opacity="1"></path><path fill="none" d="M 145.5 340 L 145.5 350" stroke="#FFFFFF" stroke-width="1" opacity="1"></path><path fill="none" d="M 177.5 340 L 177.5 350" stroke="#FFFFFF" stroke-width="1" opacity="1"></path><path fill="none" d="M 210.5 340 L 210.5 350" stroke="#FFFFFF" stroke-width="1" opacity="1"></path><path fill="none" d="M 242.5 340 L 242.5 350" stroke="#FFFFFF" stroke-width="1" opacity="1"></path><path fill="none" d="M 274.5 340 L 274.5 350" stroke="#FFFFFF" stroke-width="1" opacity="1"></path><path fill="none" d="M 307.5 340 L 307.5 350" stroke="#FFFFFF" stroke-width="1" opacity="1"></path><path fill="none" d="M 340.5 340 L 340.5 350" stroke="#FFFFFF" stroke-width="1" opacity="1"></path><path fill="none" d="M 80.5 340 L 80.5 350" stroke="#FFFFFF" stroke-width="1" opacity="1"></path><path fill="none" d="M 81 340.5 L 340 340.5" stroke="#C0D0E0" stroke-width="1"></path></g><g class="highcharts-axis"></g><g class="highcharts-series-group"><g class="highcharts-series highcharts-series-0 highcharts-tracker" transform="translate(81,75) scale(1 1)" style="" clip-path="url(#highcharts-1)"><rect x="3.5" y="147.5" width="25" height="118" stroke="#FFFFFF" stroke-width="1" fill="#246370" rx="0" ry="0"></rect><rect x="35.5" y="151.5" width="25" height="114" stroke="#FFFFFF" stroke-width="1" fill="#246370" rx="0" ry="0"></rect><rect x="67.5" y="154.5" width="25" height="111" stroke="#FFFFFF" stroke-width="1" fill="#246370" rx="0" ry="0"></rect><rect x="100.5" y="154.5" width="25" height="111" stroke="#FFFFFF" stroke-width="1" fill="#246370" rx="0" ry="0"></rect><rect x="132.5" y="155.5" width="25" height="110" stroke="#FFFFFF" stroke-width="1" fill="#246370" rx="0" ry="0"></rect><rect x="165.5" y="150.5" width="25" height="115" stroke="#FFFFFF" stroke-width="1" fill="#246370" rx="0" ry="0"></rect><rect x="197.5" y="148.5" width="25" height="117" stroke="#FFFFFF" stroke-width="1" fill="#246370" rx="0" ry="0"></rect><rect x="229.5" y="150.5" width="25" height="115" stroke="#FFFFFF" stroke-width="1" fill="#246370" rx="0" ry="0"></rect></g><g class="highcharts-markers highcharts-series-0" transform="translate(81,75) scale(1 1)" clip-path="none"></g><g class="highcharts-series highcharts-series-1 highcharts-tracker" transform="translate(81,75) scale(1 1)" style="" clip-path="url(#highcharts-1)"><rect x="3.5" y="110.5" width="25" height="37" stroke="#FFFFFF" stroke-width="1" fill="#D3E2E4" rx="0" ry="0"></rect><rect x="35.5" y="114.5" width="25" height="37" stroke="#FFFFFF" stroke-width="1" fill="#D3E2E4" rx="0" ry="0"></rect><rect x="67.5" y="119.5" width="25" height="35" stroke="#FFFFFF" stroke-width="1" fill="#D3E2E4" rx="0" ry="0"></rect><rect x="100.5" y="118.5" width="25" height="36" stroke="#FFFFFF" stroke-width="1" fill="#D3E2E4" rx="0" ry="0"></rect><rect x="132.5" y="126.5" width="25" height="29" stroke="#FFFFFF" stroke-width="1" fill="#D3E2E4" rx="0" ry="0"></rect><rect x="165.5" y="123.5" width="25" height="27" stroke="#FFFFFF" stroke-width="1" fill="#D3E2E4" rx="0" ry="0"></rect><rect x="197.5" y="124.5" width="25" height="24" stroke="#FFFFFF" stroke-width="1" fill="#D3E2E4" rx="0" ry="0"></rect><rect x="229.5" y="127.5" width="25" height="23" stroke="#FFFFFF" stroke-width="1" fill="#D3E2E4" rx="0" ry="0"></rect></g><g class="highcharts-markers highcharts-series-1" transform="translate(81,75) scale(1 1)" clip-path="none"></g><g class="highcharts-series highcharts-series-2 highcharts-tracker" transform="translate(81,75) scale(1 1)" style="" clip-path="url(#highcharts-1)"><rect x="3.5" y="78.5" width="25" height="32" stroke="#FFFFFF" stroke-width="1" fill="#68AB2B" rx="0" ry="0"></rect><rect x="35.5" y="78.5" width="25" height="36" stroke="#FFFFFF" stroke-width="1" fill="#68AB2B" rx="0" ry="0"></rect><rect x="67.5" y="83.5" width="25" height="36" stroke="#FFFFFF" stroke-width="1" fill="#68AB2B" rx="0" ry="0"></rect><rect x="100.5" y="77.5" width="25" height="41" stroke="#FFFFFF" stroke-width="1" fill="#68AB2B" rx="0" ry="0"></rect><rect x="132.5" y="90.5" width="25" height="36" stroke="#FFFFFF" stroke-width="1" fill="#68AB2B" rx="0" ry="0"></rect><rect x="165.5" y="87.5" width="25" height="36" stroke="#FFFFFF" stroke-width="1" fill="#68AB2B" rx="0" ry="0"></rect><rect x="197.5" y="88.5" width="25" height="36" stroke="#FFFFFF" stroke-width="1" fill="#68AB2B" rx="0" ry="0"></rect><rect x="229.5" y="93.5" width="25" height="34" stroke="#FFFFFF" stroke-width="1" fill="#68AB2B" rx="0" ry="0"></rect></g><g class="highcharts-markers highcharts-series-2" transform="translate(81,75) scale(1 1)" clip-path="none"></g><g class="highcharts-series highcharts-series-3 highcharts-tracker" transform="translate(81,75) scale(1 1)" style="" clip-path="url(#highcharts-1)"><rect x="3.5" y="57.5" width="25" height="21" stroke="#FFFFFF" stroke-width="1" fill="#662673" rx="0" ry="0"></rect><rect x="35.5" y="59.5" width="25" height="19" stroke="#FFFFFF" stroke-width="1" fill="#662673" rx="0" ry="0"></rect><rect x="67.5" y="64.5" width="25" height="19" stroke="#FFFFFF" stroke-width="1" fill="#662673" rx="0" ry="0"></rect><rect x="100.5" y="58.5" width="25" height="19" stroke="#FFFFFF" stroke-width="1" fill="#662673" rx="0" ry="0"></rect><rect x="132.5" y="67.5" width="25" height="23" stroke="#FFFFFF" stroke-width="1" fill="#662673" rx="0" ry="0"></rect><rect x="165.5" y="62.5" width="25" height="25" stroke="#FFFFFF" stroke-width="1" fill="#662673" rx="0" ry="0"></rect><rect x="197.5" y="63.5" width="25" height="25" stroke="#FFFFFF" stroke-width="1" fill="#662673" rx="0" ry="0"></rect><rect x="229.5" y="67.5" width="25" height="26" stroke="#FFFFFF" stroke-width="1" fill="#662673" rx="0" ry="0"></rect></g><g class="highcharts-markers highcharts-series-3" transform="translate(81,75) scale(1 1)" clip-path="none"></g></g><text x="10" text-anchor="start" class="highcharts-title" style="color:#000000;font-size:14px;font-weight:bold;fill:#000000;width:421px;" y="21"><tspan>Pflegetage in baselstädtischen Spitälern nach</tspan><tspan dy="17" x="10">Hauptbereich</tspan><title> Pflegetage in baselstädtischen Spitälern nach Hauptbereich</title></text><g class="highcharts-legend" transform="translate(352,152)"><g><g><g class="highcharts-legend-item" transform="translate(8,3)"><text x="21" style="color:#333333;font-size:12px;font-weight:normal;cursor:pointer;fill:#333333;" text-anchor="start" y="15">Rehabilitation</text><rect x="0" y="4" width="16" height="12" fill="#662673"></rect></g><g class="highcharts-legend-item" transform="translate(8,23)"><text x="21" y="15" style="color:#333333;font-size:12px;font-weight:normal;cursor:pointer;fill:#333333;" text-anchor="start">Psychiatrie</text><rect x="0" y="4" width="16" height="12" fill="#68AB2B"></rect></g><g class="highcharts-legend-item" transform="translate(8,43)"><text x="21" y="15" style="color:#333333;font-size:12px;font-weight:normal;cursor:pointer;fill:#333333;" text-anchor="start">Geriatrie</text><rect x="0" y="4" width="16" height="12" fill="#D3E2E4"></rect></g><g class="highcharts-legend-item" transform="translate(8,63)"><text x="21" y="15" style="color:#333333;font-size:12px;font-weight:normal;cursor:pointer;fill:#333333;" text-anchor="start">Akutsomatik</text><rect x="0" y="4" width="16" height="12" fill="#246370"></rect></g></g></g></g><g class="highcharts-axis-labels highcharts-xaxis-labels"><text x="99.78022486435067" style="color:#000000;cursor:default;font-size:11px;fill:#000000;width:415px;text-overflow:ellipsis;" text-anchor="end" transform="translate(0,0) rotate(-45 99.78022486435067 356)" y="356" opacity="1"><tspan>2008</tspan></text><text x="132.15522486435069" style="color:#000000;cursor:default;font-size:11px;fill:#000000;width:415px;text-overflow:ellipsis;" text-anchor="end" transform="translate(0,0) rotate(-45 132.15522486435069 356)" y="356" opacity="1"><tspan>2009</tspan></text><text x="164.53022486435069" style="color:#000000;cursor:default;font-size:11px;fill:#000000;width:415px;text-overflow:ellipsis;" text-anchor="end" transform="translate(0,0) rotate(-45 164.53022486435069 356)" y="356" opacity="1"><tspan>2010</tspan></text><text x="196.90522486435069" style="color:#000000;cursor:default;font-size:11px;fill:#000000;width:415px;text-overflow:ellipsis;" text-anchor="end" transform="translate(0,0) rotate(-45 196.90522486435069 356)" y="356" opacity="1"><tspan>2011</tspan></text><text x="229.28022486435069" style="color:#000000;cursor:default;font-size:11px;fill:#000000;width:415px;text-overflow:ellipsis;" text-anchor="end" transform="translate(0,0) rotate(-45 229.28022486435069 356)" y="356" opacity="1"><tspan>2012</tspan></text><text x="261.65522486435066" style="color:#000000;cursor:default;font-size:11px;fill:#000000;width:415px;text-overflow:ellipsis;" text-anchor="end" transform="translate(0,0) rotate(-45 261.65522486435066 356)" y="356" opacity="1"><tspan>2013</tspan></text><text x="294.03022486435066" style="color:#000000;cursor:default;font-size:11px;fill:#000000;width:415px;text-overflow:ellipsis;" text-anchor="end" transform="translate(0,0) rotate(-45 294.03022486435066 356)" y="356" opacity="1"><tspan>2014</tspan></text><text x="326.40522486435066" style="color:#000000;cursor:default;font-size:11px;fill:#000000;width:415px;text-overflow:ellipsis;" text-anchor="end" transform="translate(0,0) rotate(-45 326.40522486435066 356)" y="356" opacity="1"><tspan>2015</tspan></text></g><g class="highcharts-axis-labels highcharts-yaxis-labels"><text x="66" style="color:#000000;cursor:default;font-size:11px;fill:#000000;width:150px;text-overflow:clip;" text-anchor="end" transform="translate(0,0)" y="344" opacity="1"><tspan>0</tspan></text><text x="66" style="color:#000000;cursor:default;font-size:11px;fill:#000000;width:150px;text-overflow:clip;" text-anchor="end" transform="translate(0,0)" y="278" opacity="1"><tspan>250 000</tspan></text><text x="66" style="color:#000000;cursor:default;font-size:11px;fill:#000000;width:150px;text-overflow:clip;" text-anchor="end" transform="translate(0,0)" y="212" opacity="1"><tspan>500 000</tspan></text><text x="66" style="color:#000000;cursor:default;font-size:11px;fill:#000000;width:150px;text-overflow:clip;" text-anchor="end" transform="translate(0,0)" y="145" opacity="1"><tspan>750 000</tspan></text><text x="66" style="color:#000000;cursor:default;font-size:11px;fill:#000000;width:150px;text-overflow:clip;" text-anchor="end" transform="translate(0,0)" y="79" opacity="1"><tspan>1 000 000</tspan></text></g><g class="highcharts-tooltip" display="none" style="cursor:default;padding:0;pointer-events:none;white-space:nowrap;" transform="translate(0,0)"><path fill="none" d="M 3.5 0.5 L 13.5 0.5 C 16.5 0.5 16.5 0.5 16.5 3.5 L 16.5 13.5 C 16.5 16.5 16.5 16.5 13.5 16.5 L 3.5 16.5 C 0.5 16.5 0.5 16.5 0.5 13.5 L 0.5 3.5 C 0.5 0.5 0.5 0.5 3.5 0.5" isShadow="true" stroke="black" stroke-width="5" transform="translate(1, 1)" opacity="0.049999999999999996"></path><path fill="none" d="M 3.5 0.5 L 13.5 0.5 C 16.5 0.5 16.5 0.5 16.5 3.5 L 16.5 13.5 C 16.5 16.5 16.5 16.5 13.5 16.5 L 3.5 16.5 C 0.5 16.5 0.5 16.5 0.5 13.5 L 0.5 3.5 C 0.5 0.5 0.5 0.5 3.5 0.5" isShadow="true" stroke="black" stroke-width="3" transform="translate(1, 1)" opacity="0.09999999999999999"></path><path fill="none" d="M 3.5 0.5 L 13.5 0.5 C 16.5 0.5 16.5 0.5 16.5 3.5 L 16.5 13.5 C 16.5 16.5 16.5 16.5 13.5 16.5 L 3.5 16.5 C 0.5 16.5 0.5 16.5 0.5 13.5 L 0.5 3.5 C 0.5 0.5 0.5 0.5 3.5 0.5" isShadow="true" stroke="black" stroke-width="1" transform="translate(1, 1)" opacity="0.15"></path><path fill="rgba(249, 249, 249, .85)" d="M 3.5 0.5 L 13.5 0.5 C 16.5 0.5 16.5 0.5 16.5 3.5 L 16.5 13.5 C 16.5 16.5 16.5 16.5 13.5 16.5 L 3.5 16.5 C 0.5 16.5 0.5 16.5 0.5 13.5 L 0.5 3.5 C 0.5 0.5 0.5 0.5 3.5 0.5"></path><text x="8" style="font-size:12px;color:#333333;fill:#333333;" y="20"></text></g><text x="10" text-anchor="start" style="cursor:default;color:#000000;font-size:10px;fill:#000000;" y="390"><tspan>Quelle: Statistisches Amt Basel-Stadt, kantonale Gesundheitsstatistik;</tspan><tspan x="10" dy="13">Bundesamt für Statistik BFS, medizinische Statistik der Krankenhäuser</tspan></text></svg>