<?xml version="1.0" standalone="no"?><!DOCTYPE svg PUBLIC "-//W3C//DTD SVG 1.1//EN" "http://www.w3.org/Graphics/SVG/1.1/DTD/svg11.dtd"><svg xmlns:xlink="http://www.w3.org/1999/xlink" version="1.1" style="font-family:Arial;font-size:12px;" xmlns="http://www.w3.org/2000/svg" width="485" height="415"><desc>Created with Highcharts 4.2.6</desc><defs><clipPath id="highcharts-1"><rect x="0" y="0" width="324" height="355"></rect></clipPath></defs><rect x="0" y="0" width="485" height="415" fill="#fbfbfb" class=" highcharts-background"></rect><g class="highcharts-grid"></g><g class="highcharts-grid"><path fill="none" d="M 119.5 41 L 119.5 365" stroke="#D8D8D8" stroke-width="1" opacity="1"></path><path fill="none" d="M 190.5 41 L 190.5 365" stroke="#D8D8D8" stroke-width="1" opacity="1"></path><path fill="none" d="M 261.5 41 L 261.5 365" stroke="#D8D8D8" stroke-width="1" opacity="1"></path><path fill="none" d="M 332.5 41 L 332.5 365" stroke="#D8D8D8" stroke-width="1" opacity="1"></path><path fill="none" d="M 403.5 41 L 403.5 365" stroke="#D8D8D8" stroke-width="1" opacity="1"></path><path fill="none" d="M 475.5 41 L 475.5 365" stroke="#D8D8D8" stroke-width="1" opacity="1"></path></g><g class="highcharts-axis"><path fill="none" d="M 120 56.5 L 110 56.5" stroke="#FFFFFF" stroke-width="1" opacity="1"></path><path fill="none" d="M 120 72.5 L 110 72.5" stroke="#FFFFFF" stroke-width="1" opacity="1"></path><path fill="none" d="M 120 87.5 L 110 87.5" stroke="#FFFFFF" stroke-width="1" opacity="1"></path><path fill="none" d="M 120 103.5 L 110 103.5" stroke="#FFFFFF" stroke-width="1" opacity="1"></path><path fill="none" d="M 120 118.5 L 110 118.5" stroke="#FFFFFF" stroke-width="1" opacity="1"></path><path fill="none" d="M 120 134.5 L 110 134.5" stroke="#FFFFFF" stroke-width="1" opacity="1"></path><path fill="none" d="M 120 149.5 L 110 149.5" stroke="#FFFFFF" stroke-width="1" opacity="1"></path><path fill="none" d="M 120 164.5 L 110 164.5" stroke="#FFFFFF" stroke-width="1" opacity="1"></path><path fill="none" d="M 120 180.5 L 110 180.5" stroke="#FFFFFF" stroke-width="1" opacity="1"></path><path fill="none" d="M 120 195.5 L 110 195.5" stroke="#FFFFFF" stroke-width="1" opacity="1"></path><path fill="none" d="M 120 211.5 L 110 211.5" stroke="#FFFFFF" stroke-width="1" opacity="1"></path><path fill="none" d="M 120 226.5 L 110 226.5" stroke="#FFFFFF" stroke-width="1" opacity="1"></path><path fill="none" d="M 120 242.5 L 110 242.5" stroke="#FFFFFF" stroke-width="1" opacity="1"></path><path fill="none" d="M 120 257.5 L 110 257.5" stroke="#FFFFFF" stroke-width="1" opacity="1"></path><path fill="none" d="M 120 272.5 L 110 272.5" stroke="#FFFFFF" stroke-width="1" opacity="1"></path><path fill="none" d="M 120 288.5 L 110 288.5" stroke="#FFFFFF" stroke-width="1" opacity="1"></path><path fill="none" d="M 120 303.5 L 110 303.5" stroke="#FFFFFF" stroke-width="1" opacity="1"></path><path fill="none" d="M 120 319.5 L 110 319.5" stroke="#FFFFFF" stroke-width="1" opacity="1"></path><path fill="none" d="M 120 334.5 L 110 334.5" stroke="#FFFFFF" stroke-width="1" opacity="1"></path><path fill="none" d="M 120 350.5 L 110 350.5" stroke="#FFFFFF" stroke-width="1" opacity="1"></path><path fill="none" d="M 120 365.5 L 110 365.5" stroke="#FFFFFF" stroke-width="1" opacity="1"></path><path fill="none" d="M 120 40.5 L 110 40.5" stroke="#FFFFFF" stroke-width="1" opacity="1"></path><path fill="none" d="M 119.5 41 L 119.5 365" stroke="#C0D0E0" stroke-width="1"></path></g><g class="highcharts-axis"></g><g class="highcharts-series-group"><g class="highcharts-series highcharts-series-0 highcharts-tracker" transform="translate(475,365) rotate(90) scale(-1,1) scale(1 1)" style="" width="355" height="324" clip-path="url(#highcharts-1)"></g><g class="highcharts-markers highcharts-series-0 highcharts-tracker" transform="translate(475,365) rotate(90) scale(-1,1) scale(1 1)" style="" width="355" height="324" clip-path="none"><path fill="#689199" d="M 7 76.73554308920001 C 12.328 76.73554308920001 12.328 84.73554308920001 7 84.73554308920001 C 1.672 84.73554308920001 1.672 76.73554308920001 7 76.73554308920001 Z"></path><path fill="#689199" d="M 23 239.82944124187998 C 28.328 239.82944124187998 28.328 247.82944124187998 23 247.82944124187998 C 17.672 247.82944124187998 17.672 239.82944124187998 23 239.82944124187998 Z"></path><path fill="#689199" d="M 38 277.32777457052 C 43.328 277.32777457052 43.328 285.32777457052 38 285.32777457052 C 32.672 285.32777457052 32.672 277.32777457052 38 277.32777457052 Z"></path><path fill="#689199" d="M 54 291.27200862221997 C 59.328 291.27200862221997 59.328 299.27200862221997 54 299.27200862221997 C 48.672 299.27200862221997 48.672 291.27200862221997 54 291.27200862221997 Z"></path><path fill="#689199" d="M 69 301.53616168816 C 74.328 301.53616168816 74.328 309.53616168816 69 309.53616168816 C 63.672 309.53616168816 63.672 301.53616168816 69 301.53616168816 Z"></path><path fill="#689199" d="M 84 304.19519109172 C 89.328 304.19519109172 89.328 312.19519109172 84 312.19519109172 C 78.672 312.19519109172 78.672 304.19519109172 84 304.19519109172 Z"></path><path fill="#689199" d="M 100 305.38940489626 C 105.328 305.38940489626 105.328 313.38940489626 100 313.38940489626 C 94.672 313.38940489626 94.672 305.38940489626 100 305.38940489626 Z"></path><path fill="#689199" d="M 115 310.60424952942 C 120.328 310.60424952942 120.328 318.60424952942 115 318.60424952942 C 109.672 318.60424952942 109.672 310.60424952942 115 310.60424952942 Z"></path><path fill="#689199" d="M 131 325.9775549444 C 136.328 325.9775549444 136.328 333.9775549444 131 333.9775549444 C 125.672 333.9775549444 125.672 325.9775549444 131 325.9775549444 Z"></path><path fill="#689199" d="M 146 333.54089689882 C 151.328 333.54089689882 151.328 341.54089689882 146 341.54089689882 C 140.672 341.54089689882 140.672 333.54089689882 146 333.54089689882 Z"></path><path fill="#689199" d="M 162 335.04921376616 C 167.328 335.04921376616 167.328 343.04921376616 162 343.04921376616 C 156.672 343.04921376616 156.672 335.04921376616 162 335.04921376616 Z"></path><path fill="#689199" d="M 177 341.324161359204 C 182.328 341.324161359204 182.328 349.324161359204 177 349.324161359204 C 171.672 349.324161359204 171.672 341.324161359204 177 341.324161359204 Z"></path><path fill="#689199" d="M 192 344.098236928536 C 197.328 344.098236928536 197.328 352.098236928536 192 352.098236928536 C 186.672 352.098236928536 186.672 344.098236928536 192 344.098236928536 Z"></path><path fill="#689199" d="M 208 344.153454525266 C 213.328 344.153454525266 213.328 352.153454525266 208 352.153454525266 C 202.672 352.153454525266 202.672 344.153454525266 208 344.153454525266 Z"></path><path fill="#689199" d="M 223 344.365571522974 C 228.328 344.365571522974 228.328 352.365571522974 223 352.365571522974 C 217.672 352.365571522974 217.672 344.365571522974 223 344.365571522974 Z"></path><path fill="#689199" d="M 239 344.796116014294 C 244.328 344.796116014294 244.328 352.796116014294 239 352.796116014294 C 233.672 352.796116014294 233.672 344.796116014294 239 344.796116014294 Z"></path><path fill="#689199" d="M 254 344.949382171748 C 259.328 344.949382171748 259.328 352.949382171748 254 352.949382171748 C 248.672 352.949382171748 248.672 344.949382171748 254 344.949382171748 Z"></path><path fill="#689199" d="M 270 344.963811905454 C 275.328 344.963811905454 275.328 352.963811905454 270 352.963811905454 C 264.672 352.963811905454 264.672 344.963811905454 270 344.963811905454 Z"></path><path fill="#689199" d="M 285 347.584871916518 C 290.328 347.584871916518 290.328 355.584871916518 285 355.584871916518 C 279.672 355.584871916518 279.672 347.584871916518 285 347.584871916518 Z"></path><path fill="#689199" d="M 300 348.050005364948 C 305.328 348.050005364948 305.328 356.050005364948 300 356.050005364948 C 294.672 356.050005364948 294.672 348.050005364948 300 348.050005364948 Z"></path><path fill="#689199" d="M 316 348.69679218714 C 321.328 348.69679218714 321.328 356.69679218714 316 356.69679218714 C 310.672 356.69679218714 310.672 348.69679218714 316 348.69679218714 Z"></path></g></g><text x="10" text-anchor="start" class="highcharts-title" style="color:#000000;font-size:14px;font-weight:bold;font-family:Arial;fill:#000000;width:421px;" y="21"><tspan>WA-1 Vermögenssteuer pro Veranlagung</tspan></text><g class="highcharts-axis-labels highcharts-xaxis-labels"><text x="105" style="color:#000000;cursor:default;font-size:11px;fill:#000000;width:150px;text-overflow:clip;" text-anchor="end" transform="translate(0,0)" y="54" opacity="1"><tspan>Klybeck</tspan></text><text x="105" style="color:#000000;cursor:default;font-size:11px;fill:#000000;width:150px;text-overflow:clip;" text-anchor="end" transform="translate(0,0)" y="69" opacity="1"><tspan>Kleinhüningen</tspan></text><text x="105" style="color:#000000;cursor:default;font-size:11px;fill:#000000;width:150px;text-overflow:clip;" text-anchor="end" transform="translate(0,0)" y="84" opacity="1"><tspan>Rosental</tspan></text><text x="105" style="color:#000000;cursor:default;font-size:11px;fill:#000000;width:150px;text-overflow:clip;" text-anchor="end" transform="translate(0,0)" y="100" opacity="1"><tspan>Iselin</tspan></text><text x="105" style="color:#000000;cursor:default;font-size:11px;fill:#000000;width:150px;text-overflow:clip;" text-anchor="end" transform="translate(0,0)" y="115" opacity="1"><tspan>Matthäus</tspan></text><text x="105" style="color:#000000;cursor:default;font-size:11px;fill:#000000;width:150px;text-overflow:clip;" text-anchor="end" transform="translate(0,0)" y="131" opacity="1"><tspan>Clara</tspan></text><text x="105" style="color:#000000;cursor:default;font-size:11px;fill:#000000;width:150px;text-overflow:clip;" text-anchor="end" transform="translate(0,0)" y="146" opacity="1"><tspan>Gundeldingen</tspan></text><text x="105" style="color:#000000;cursor:default;font-size:11px;fill:#000000;width:150px;text-overflow:clip;" text-anchor="end" transform="translate(0,0)" y="162" opacity="1"><tspan>Breite</tspan></text><text x="105" style="color:#000000;cursor:default;font-size:11px;fill:#000000;width:150px;text-overflow:clip;" text-anchor="end" transform="translate(0,0)" y="177" opacity="1"><tspan>St. Johann</tspan></text><text x="105" style="color:#000000;cursor:default;font-size:11px;fill:#000000;width:150px;text-overflow:clip;" text-anchor="end" transform="translate(0,0)" y="192" opacity="1"><tspan>Hirzbrunnen</tspan></text><text x="105" style="color:#000000;cursor:default;font-size:11px;fill:#000000;width:150px;text-overflow:clip;" text-anchor="end" transform="translate(0,0)" y="208" opacity="1"><tspan>Altstadt Kleinbasel</tspan></text><text x="105" style="color:#000000;cursor:default;font-size:11px;fill:#000000;width:150px;text-overflow:clip;" text-anchor="end" transform="translate(0,0)" y="223" opacity="1"><tspan>Wettstein</tspan></text><text x="105" style="color:#000000;cursor:default;font-size:11px;fill:#000000;width:150px;text-overflow:clip;" text-anchor="end" transform="translate(0,0)" y="239" opacity="1"><tspan>Bachletten</tspan></text><text x="105" style="color:#000000;cursor:default;font-size:11px;fill:#000000;width:150px;text-overflow:clip;" text-anchor="end" transform="translate(0,0)" y="254" opacity="1"><tspan>Bettingen</tspan></text><text x="105" style="color:#000000;cursor:default;font-size:11px;fill:#000000;width:150px;text-overflow:clip;" text-anchor="end" transform="translate(0,0)" y="270" opacity="1"><tspan>Am Ring</tspan></text><text x="105" style="color:#000000;cursor:default;font-size:11px;fill:#000000;width:150px;text-overflow:clip;" text-anchor="end" transform="translate(0,0)" y="285" opacity="1"><tspan>Riehen</tspan></text><text x="105" style="color:#000000;cursor:default;font-size:11px;fill:#000000;width:150px;text-overflow:clip;" text-anchor="end" transform="translate(0,0)" y="300" opacity="1"><tspan>Gotthelf</tspan></text><text x="105" style="color:#000000;cursor:default;font-size:11px;fill:#000000;width:150px;text-overflow:clip;" text-anchor="end" transform="translate(0,0)" y="316" opacity="1"><tspan>St. Alban</tspan></text><text x="105" style="color:#000000;cursor:default;font-size:11px;fill:#000000;width:150px;text-overflow:clip;" text-anchor="end" transform="translate(0,0)" y="331" opacity="1"><tspan>Altstadt Grossbasel</tspan></text><text x="105" style="color:#000000;cursor:default;font-size:11px;fill:#000000;width:150px;text-overflow:clip;" text-anchor="end" transform="translate(0,0)" y="347" opacity="1"><tspan>Vorstädte</tspan></text><text x="105" style="color:#000000;cursor:default;font-size:11px;fill:#000000;width:150px;text-overflow:clip;" text-anchor="end" transform="translate(0,0)" y="362" opacity="1"><tspan>Bruderholz</tspan></text></g><g class="highcharts-axis-labels highcharts-yaxis-labels"><text x="120" style="color:#000000;cursor:default;font-size:11px;fill:#000000;width:61px;text-overflow:clip;" text-anchor="middle" transform="translate(0,0)" y="384" opacity="1"><tspan>0</tspan></text><text x="191" style="color:#000000;cursor:default;font-size:11px;fill:#000000;width:61px;text-overflow:clip;" text-anchor="middle" transform="translate(0,0)" y="384" opacity="1"><tspan>5 000</tspan></text><text x="262" style="color:#000000;cursor:default;font-size:11px;fill:#000000;width:61px;text-overflow:clip;" text-anchor="middle" transform="translate(0,0)" y="384" opacity="1"><tspan>10 000</tspan></text><text x="333" style="color:#000000;cursor:default;font-size:11px;fill:#000000;width:61px;text-overflow:clip;" text-anchor="middle" transform="translate(0,0)" y="384" opacity="1"><tspan>15 000</tspan></text><text x="404" style="color:#000000;cursor:default;font-size:11px;fill:#000000;width:61px;text-overflow:clip;" text-anchor="middle" transform="translate(0,0)" y="384" opacity="1"><tspan>20 000</tspan></text><text x="458.203125" style="color:#000000;cursor:default;font-size:11px;fill:#000000;width:61px;text-overflow:clip;" text-anchor="middle" transform="translate(0,0)" y="384" opacity="1"><tspan>25 000</tspan></text></g><g class="highcharts-tooltip" style="cursor:default;padding:0;pointer-events:none;white-space:nowrap;" transform="translate(0,-9000000000)"><path fill="none" d="M 3.5 0.5 L 13.5 0.5 C 16.5 0.5 16.5 0.5 16.5 3.5 L 16.5 13.5 C 16.5 16.5 16.5 16.5 13.5 16.5 L 3.5 16.5 C 0.5 16.5 0.5 16.5 0.5 13.5 L 0.5 3.5 C 0.5 0.5 0.5 0.5 3.5 0.5" isShadow="true" stroke="black" stroke-width="5" transform="translate(1, 1)" opacity="0.049999999999999996"></path><path fill="none" d="M 3.5 0.5 L 13.5 0.5 C 16.5 0.5 16.5 0.5 16.5 3.5 L 16.5 13.5 C 16.5 16.5 16.5 16.5 13.5 16.5 L 3.5 16.5 C 0.5 16.5 0.5 16.5 0.5 13.5 L 0.5 3.5 C 0.5 0.5 0.5 0.5 3.5 0.5" isShadow="true" stroke="black" stroke-width="3" transform="translate(1, 1)" opacity="0.09999999999999999"></path><path fill="none" d="M 3.5 0.5 L 13.5 0.5 C 16.5 0.5 16.5 0.5 16.5 3.5 L 16.5 13.5 C 16.5 16.5 16.5 16.5 13.5 16.5 L 3.5 16.5 C 0.5 16.5 0.5 16.5 0.5 13.5 L 0.5 3.5 C 0.5 0.5 0.5 0.5 3.5 0.5" isShadow="true" stroke="black" stroke-width="1" transform="translate(1, 1)" opacity="0.15"></path><path fill="rgba(249, 249, 249, .85)" d="M 3.5 0.5 L 13.5 0.5 C 16.5 0.5 16.5 0.5 16.5 3.5 L 16.5 13.5 C 16.5 16.5 16.5 16.5 13.5 16.5 L 3.5 16.5 C 0.5 16.5 0.5 16.5 0.5 13.5 L 0.5 3.5 C 0.5 0.5 0.5 0.5 3.5 0.5"></path><text x="8" style="font-size:12px;color:#333333;fill:#333333;" y="20"></text></g><text x="10" text-anchor="start" style="cursor:default;color:#000000;font-size:10px;fill:#000000;" y="410"><tspan>Quelle: kantonale Leerstandserhebung</tspan></text></svg>