<svg xmlns:xlink="http://www.w3.org/1999/xlink" version="1.1" style="font-family:arial;font-size:12px;" xmlns="http://www.w3.org/2000/svg" viewBox="0 0 485 415"><desc>Created with Highcharts 4.2.6</desc><defs><clipPath id="highcharts-3"><rect x="0" y="0" width="253" height="313"></rect></clipPath></defs><rect x="0" y="0" width="485" height="415" fill="#fbfbfb" class=" highcharts-background"></rect><g class="highcharts-grid"></g><g class="highcharts-grid"><path fill="none" d="M 161.5 112 L 161.5 365" stroke="#D8D8D8" stroke-width="1" opacity="1"></path><path fill="none" d="M 224.5 112 L 224.5 365" stroke="#D8D8D8" stroke-width="1" opacity="1"></path><path fill="none" d="M 286.5 112 L 286.5 365" stroke="#D8D8D8" stroke-width="1" opacity="1"></path><path fill="none" d="M 349.5 112 L 349.5 365" stroke="#D8D8D8" stroke-width="1" opacity="1"></path><path fill="none" d="M 411.5 112 L 411.5 365" stroke="#D8D8D8" stroke-width="1" opacity="1"></path><path fill="none" d="M 475.5 112 L 475.5 365" stroke="#D8D8D8" stroke-width="1" opacity="1"></path></g><g class="highcharts-axis"><path fill="none" d="M 162 148.5 L 152 148.5" stroke="#FFFFFF" stroke-width="1" opacity="1"></path><path fill="none" d="M 162 184.5 L 152 184.5" stroke="#FFFFFF" stroke-width="1" opacity="1"></path><path fill="none" d="M 162 220.5 L 152 220.5" stroke="#FFFFFF" stroke-width="1" opacity="1"></path><path fill="none" d="M 162 257.5 L 152 257.5" stroke="#FFFFFF" stroke-width="1" opacity="1"></path><path fill="none" d="M 162 293.5 L 152 293.5" stroke="#FFFFFF" stroke-width="1" opacity="1"></path><path fill="none" d="M 162 329.5 L 152 329.5" stroke="#FFFFFF" stroke-width="1" opacity="1"></path><path fill="none" d="M 162 365.5 L 152 365.5" stroke="#FFFFFF" stroke-width="1" opacity="1"></path><path fill="none" d="M 162 112.5 L 152 112.5" stroke="#FFFFFF" stroke-width="1" opacity="1"></path><path fill="none" d="M 161.5 112 L 161.5 365" stroke="#C0D0E0" stroke-width="1"></path></g><g class="highcharts-axis"></g><g class="highcharts-series-group"><g class="highcharts-series highcharts-series-0" transform="translate(475,365) rotate(90) scale(-1,1) scale(1 1)" width="313" height="253" clip-path="url(#highcharts-3)"><rect x="235.5" y="130.5" width="9" height="183" stroke="#FFFFFF" stroke-width="1" fill="#256370" rx="0" ry="0"></rect><rect x="199.5" y="184.5" width="9" height="129" stroke="#FFFFFF" stroke-width="1" fill="#256370" rx="0" ry="0"></rect><rect x="163.5" y="261.5" width="9" height="52" stroke="#FFFFFF" stroke-width="1" fill="#256370" rx="0" ry="0"></rect><rect x="127.5" y="174.5" width="9" height="139" stroke="#FFFFFF" stroke-width="1" fill="#256370" rx="0" ry="0"></rect><rect x="90.5" y="104.5" width="9" height="209" stroke="#FFFFFF" stroke-width="1" fill="#256370" rx="0" ry="0"></rect><rect x="54.5" y="169.5" width="9" height="144" stroke="#FFFFFF" stroke-width="1" fill="#256370" rx="0" ry="0"></rect><rect x="18.5" y="21.5" width="9" height="292" stroke="#FFFFFF" stroke-width="1" fill="#256370" rx="0" ry="0"></rect></g><g class="highcharts-markers highcharts-series-0" transform="translate(475,365) rotate(90) scale(-1,1) scale(1 1)" width="313" height="253" clip-path="none"></g><g class="highcharts-series highcharts-series-1" transform="translate(475,365) rotate(90) scale(-1,1) scale(1 1)" width="313" height="253" clip-path="url(#highcharts-3)"><rect x="224.5" y="146.5" width="9" height="167" stroke="#FFFFFF" stroke-width="1" fill="#A8C4CB" rx="0" ry="0"></rect><rect x="188.5" y="194.5" width="9" height="119" stroke="#FFFFFF" stroke-width="1" fill="#A8C4CB" rx="0" ry="0"></rect><rect x="152.5" y="254.5" width="9" height="59" stroke="#FFFFFF" stroke-width="1" fill="#A8C4CB" rx="0" ry="0"></rect><rect x="116.5" y="194.5" width="9" height="119" stroke="#FFFFFF" stroke-width="1" fill="#A8C4CB" rx="0" ry="0"></rect><rect x="80.5" y="118.5" width="9" height="195" stroke="#FFFFFF" stroke-width="1" fill="#A8C4CB" rx="0" ry="0"></rect><rect x="43.5" y="165.5" width="9" height="148" stroke="#FFFFFF" stroke-width="1" fill="#A8C4CB" rx="0" ry="0"></rect><rect x="7.5" y="19.5" width="9" height="294" stroke="#FFFFFF" stroke-width="1" fill="#A8C4CB" rx="0" ry="0"></rect></g><g class="highcharts-markers highcharts-series-1" transform="translate(475,365) rotate(90) scale(-1,1) scale(1 1)" width="313" height="253" clip-path="none"></g></g><text x="10" text-anchor="start" class="highcharts-title" style="color:#000000;font-size:14px;font-weight:bold;fill:#000000;width:421px;" y="21"><tspan>1.1.03 Unterstützung von Freunden oder Nachbarn</tspan></text><text x="10" text-anchor="start" class="highcharts-subtitle" style="color:#000000;font-size:12px;font-weight:normal;font-family:arial;fill:#000000;width:421px;" y="40"><tspan>Jeder Mensch braucht in seinem Leben einmal Unterstützung oder Hilfe.</tspan><tspan dy="15" x="10">Wenn Sie zurück denken, haben Sie sich in nachfolgenden Situationen auch</tspan><tspan dy="15" x="10">an Freunde/Nachbarn gewendet?</tspan><title>Jeder Mensch braucht in seinem Leben einmal Unterstützung oder Hilfe. Wenn Sie zurück denken, haben Sie sich in nachfolgenden Situationen auch an Freunde/Nachbarn gewendet?</title></text><g class="highcharts-legend" transform="translate(153,75)"><g><g><g class="highcharts-legend-item" transform="translate(8,3)"><text x="21" style="color:#333333;font-size:12px;font-weight:normal;cursor:pointer;fill:#333333;" text-anchor="start" y="15"><tspan>2013 (N=2231)</tspan></text><rect x="0" y="4" width="16" height="12" fill="#256370"></rect></g><g class="highcharts-legend-item" transform="translate(132,3)"><text x="21" y="15" style="color:#333333;font-size:12px;font-weight:normal;cursor:pointer;fill:#333333;" text-anchor="start"><tspan>2009 (N=3119)</tspan></text><rect x="0" y="4" width="16" height="12" fill="#A8C4CB"></rect></g></g></g></g><g class="highcharts-axis-labels highcharts-xaxis-labels"><text x="147" style="color:#000000;cursor:default;font-size:11px;fill:#000000;width:150px;text-overflow:clip;" text-anchor="end" transform="translate(0,0)" y="135" opacity="1"><tspan>Berufliche Probleme</tspan></text><text x="147" style="color:#000000;cursor:default;font-size:11px;fill:#000000;width:150px;text-overflow:clip;" text-anchor="end" transform="translate(0,0)" y="171" opacity="1"><tspan>Gesundheitliche Probleme</tspan></text><text x="147" style="color:#000000;cursor:default;font-size:11px;fill:#000000;width:150px;text-overflow:clip;" text-anchor="end" transform="translate(0,0)" y="207" opacity="1"><tspan>Finanzielle Probleme</tspan></text><text x="147" style="color:#000000;cursor:default;font-size:11px;fill:#000000;width:150px;text-overflow:clip;" text-anchor="end" transform="translate(0,0)" y="243" opacity="1"><tspan>Wohnungsprobleme</tspan></text><text x="147" style="color:#000000;cursor:default;font-size:11px;fill:#000000;width:150px;text-overflow:clip;" text-anchor="end" transform="translate(0,0)" y="280" opacity="1"><tspan>Partnerschaftliche Probleme</tspan></text><text x="147" style="color:#000000;cursor:default;font-size:11px;fill:#000000;width:150px;text-overflow:clip;" text-anchor="end" transform="translate(0,0)" y="309" opacity="1"><tspan>Schulische Probleme der</tspan><tspan dy="14" x="147">Kinder</tspan><title>Schulische Probleme der Kinder</title></text><text x="147" style="color:#000000;cursor:default;font-size:11px;fill:#000000;width:150px;text-overflow:clip;" text-anchor="end" transform="translate(0,0)" y="345" opacity="1"><tspan>Erziehungsfragen oder -</tspan><tspan dy="14" x="147">probleme</tspan><title>Erziehungsfragen oder -probleme</title></text></g><g class="highcharts-axis-labels highcharts-yaxis-labels"><text x="162" style="color:#000000;cursor:default;font-size:11px;fill:#000000;width:62.6;text-overflow:ellipsis;" text-anchor="middle" transform="translate(0,0)" y="384" opacity="1"><tspan>0%</tspan></text><text x="224.6" style="color:#000000;cursor:default;font-size:11px;fill:#000000;width:62.6;text-overflow:ellipsis;" text-anchor="middle" transform="translate(0,0)" y="384" opacity="1"><tspan>10%</tspan></text><text x="287.2" style="color:#000000;cursor:default;font-size:11px;fill:#000000;width:62.6;text-overflow:ellipsis;" text-anchor="middle" transform="translate(0,0)" y="384" opacity="1"><tspan>20%</tspan></text><text x="349.79999999999995" style="color:#000000;cursor:default;font-size:11px;fill:#000000;width:62.6;text-overflow:ellipsis;" text-anchor="middle" transform="translate(0,0)" y="384" opacity="1"><tspan>30%</tspan></text><text x="412.4" style="color:#000000;cursor:default;font-size:11px;fill:#000000;width:62.6;text-overflow:ellipsis;" text-anchor="middle" transform="translate(0,0)" y="384" opacity="1"><tspan>40%</tspan></text><text x="464" style="color:#000000;cursor:default;font-size:11px;fill:#000000;width:31.3;text-overflow:ellipsis;" text-anchor="middle" transform="translate(0,0)" y="384" opacity="1"><tspan>50%</tspan></text></g><g class="highcharts-tooltip" style="cursor:default;padding:0;pointer-events:none;white-space:nowrap;" transform="translate(0,-9000000000)"><path fill="none" d="M 3.5 0.5 L 13.5 0.5 C 16.5 0.5 16.5 0.5 16.5 3.5 L 16.5 13.5 C 16.5 16.5 16.5 16.5 13.5 16.5 L 3.5 16.5 C 0.5 16.5 0.5 16.5 0.5 13.5 L 0.5 3.5 C 0.5 0.5 0.5 0.5 3.5 0.5"  stroke="black" stroke-opacity="0.049999999999999996" stroke-width="5" transform="translate(1, 1)"></path><path fill="none" d="M 3.5 0.5 L 13.5 0.5 C 16.5 0.5 16.5 0.5 16.5 3.5 L 16.5 13.5 C 16.5 16.5 16.5 16.5 13.5 16.5 L 3.5 16.5 C 0.5 16.5 0.5 16.5 0.5 13.5 L 0.5 3.5 C 0.5 0.5 0.5 0.5 3.5 0.5"  stroke="black" stroke-opacity="0.09999999999999999" stroke-width="3" transform="translate(1, 1)"></path><path fill="none" d="M 3.5 0.5 L 13.5 0.5 C 16.5 0.5 16.5 0.5 16.5 3.5 L 16.5 13.5 C 16.5 16.5 16.5 16.5 13.5 16.5 L 3.5 16.5 C 0.5 16.5 0.5 16.5 0.5 13.5 L 0.5 3.5 C 0.5 0.5 0.5 0.5 3.5 0.5"  stroke="black" stroke-opacity="0.15" stroke-width="1" transform="translate(1, 1)"></path><path fill="rgb(249, 249, 249)" fill-opacity=" .85" d="M 3.5 0.5 L 13.5 0.5 C 16.5 0.5 16.5 0.5 16.5 3.5 L 16.5 13.5 C 16.5 16.5 16.5 16.5 13.5 16.5 L 3.5 16.5 C 0.5 16.5 0.5 16.5 0.5 13.5 L 0.5 3.5 C 0.5 0.5 0.5 0.5 3.5 0.5"></path><text x="8" style="font-size:12px;color:#333333;fill:#333333;" y="20"></text></g><text x="10" text-anchor="start" style="cursor:default;color:#000000;font-size:10px;fill:#000000;" y="410"><tspan>Quelle: Statistisches Amt Basel-Stadt, kantonale Familienbefragung: F72a-g</tspan></text></svg>