<?xml version="1.0" standalone="no"?><!DOCTYPE svg PUBLIC "-//W3C//DTD SVG 1.1//EN" "http://www.w3.org/Graphics/SVG/1.1/DTD/svg11.dtd"><svg xmlns:xlink="http://www.w3.org/1999/xlink" version="1.1" style="font-family:Arial;font-size:12px;" xmlns="http://www.w3.org/2000/svg" width="485" height="415"><desc>Created with Highcharts 4.2.6</desc><defs><clipPath id="highcharts-1"><rect x="0" y="0" width="281" height="293"></rect></clipPath></defs><rect x="0" y="0" width="485" height="415" fill="#fbfbfb" class=" highcharts-background"></rect><g class="highcharts-grid"></g><g class="highcharts-grid"><path fill="none" d="M 53 349.5 L 334 349.5" stroke="#D8D8D8" stroke-width="1" opacity="1"></path><path fill="none" d="M 53 320.5 L 334 320.5" stroke="#D8D8D8" stroke-width="1" opacity="1"></path><path fill="none" d="M 53 290.5 L 334 290.5" stroke="#D8D8D8" stroke-width="1" opacity="1"></path><path fill="none" d="M 53 261.5 L 334 261.5" stroke="#D8D8D8" stroke-width="1" opacity="1"></path><path fill="none" d="M 53 232.5 L 334 232.5" stroke="#D8D8D8" stroke-width="1" opacity="1"></path><path fill="none" d="M 53 203.5 L 334 203.5" stroke="#D8D8D8" stroke-width="1" opacity="1"></path><path fill="none" d="M 53 173.5 L 334 173.5" stroke="#D8D8D8" stroke-width="1" opacity="1"></path><path fill="none" d="M 53 144.5 L 334 144.5" stroke="#D8D8D8" stroke-width="1" opacity="1"></path><path fill="none" d="M 53 115.5 L 334 115.5" stroke="#D8D8D8" stroke-width="1" opacity="1"></path><path fill="none" d="M 53 85.5 L 334 85.5" stroke="#D8D8D8" stroke-width="1" opacity="1"></path><path fill="none" d="M 53 55.5 L 334 55.5" stroke="#D8D8D8" stroke-width="1" opacity="1"></path></g><g class="highcharts-axis"><path fill="none" d="M 108.5 349 L 108.5 359" stroke="#FFFFFF" stroke-width="1" opacity="1"></path><path fill="none" d="M 164.5 349 L 164.5 359" stroke="#FFFFFF" stroke-width="1" opacity="1"></path><path fill="none" d="M 221.5 349 L 221.5 359" stroke="#FFFFFF" stroke-width="1" opacity="1"></path><path fill="none" d="M 277.5 349 L 277.5 359" stroke="#FFFFFF" stroke-width="1" opacity="1"></path><path fill="none" d="M 334.5 349 L 334.5 359" stroke="#FFFFFF" stroke-width="1" opacity="1"></path><path fill="none" d="M 52.5 349 L 52.5 359" stroke="#FFFFFF" stroke-width="1" opacity="1"></path><path fill="none" d="M 53 349.5 L 334 349.5" stroke="#C0D0E0" stroke-width="1"></path></g><g class="highcharts-axis"></g><g class="highcharts-series-group"><g class="highcharts-series highcharts-series-0 highcharts-tracker" transform="translate(53,56) scale(1 1)" style="" clip-path="url(#highcharts-1)"><rect x="14.5" y="232.5" width="27" height="61" stroke="#FFFFFF" stroke-width="1" fill="#007A2F" rx="0" ry="0"></rect><rect x="70.5" y="239.5" width="27" height="54" stroke="#FFFFFF" stroke-width="1" fill="#007A2F" rx="0" ry="0"></rect><rect x="126.5" y="235.5" width="27" height="58" stroke="#FFFFFF" stroke-width="1" fill="#007A2F" rx="0" ry="0"></rect><rect x="182.5" y="201.5" width="27" height="92" stroke="#FFFFFF" stroke-width="1" fill="#007A2F" rx="0" ry="0"></rect><rect x="238.5" y="201.5" width="27" height="92" stroke="#FFFFFF" stroke-width="1" fill="#007A2F" rx="0" ry="0"></rect></g><g class="highcharts-markers highcharts-series-0" transform="translate(53,56) scale(1 1)" clip-path="none"></g><g class="highcharts-series highcharts-series-1 highcharts-tracker" transform="translate(53,56) scale(1 1)" style="" clip-path="url(#highcharts-1)"><rect x="14.5" y="50.5" width="27" height="182" stroke="#FFFFFF" stroke-width="1" fill="#73BA7C" rx="0" ry="0"></rect><rect x="70.5" y="47.5" width="27" height="192" stroke="#FFFFFF" stroke-width="1" fill="#73BA7C" rx="0" ry="0"></rect><rect x="126.5" y="43.5" width="27" height="192" stroke="#FFFFFF" stroke-width="1" fill="#73BA7C" rx="0" ry="0"></rect><rect x="182.5" y="38.5" width="27" height="163" stroke="#FFFFFF" stroke-width="1" fill="#73BA7C" rx="0" ry="0"></rect><rect x="238.5" y="30.5" width="27" height="171" stroke="#FFFFFF" stroke-width="1" fill="#73BA7C" rx="0" ry="0"></rect></g><g class="highcharts-markers highcharts-series-1" transform="translate(53,56) scale(1 1)" clip-path="none"></g><g class="highcharts-series highcharts-series-2 highcharts-tracker" transform="translate(53,56) scale(1 1)" style="" clip-path="url(#highcharts-1)"><rect x="14.5" y="48.5" width="27" height="2" stroke="#FFFFFF" stroke-width="1" fill="#C8C8C8" rx="0" ry="0"></rect><rect x="70.5" y="45.5" width="27" height="2" stroke="#FFFFFF" stroke-width="1" fill="#C8C8C8" rx="0" ry="0"></rect><rect x="126.5" y="42.5" width="27" height="1" stroke="#FFFFFF" stroke-width="1" fill="#C8C8C8" rx="0" ry="0"></rect><rect x="182.5" y="37.5" width="27" height="1" stroke="#FFFFFF" stroke-width="1" fill="#C8C8C8" rx="0" ry="0"></rect><rect x="238.5" y="29.5" width="27" height="1" stroke="#FFFFFF" stroke-width="1" fill="#C8C8C8" rx="0" ry="0"></rect></g><g class="highcharts-markers highcharts-series-2" transform="translate(53,56) scale(1 1)" clip-path="none"></g><g class="highcharts-series highcharts-series-3 highcharts-tracker" transform="translate(53,56) scale(1 1)" style="" clip-path="url(#highcharts-1)"><rect x="14.5" y="6.5" width="27" height="42" stroke="#FFFFFF" stroke-width="1" fill="#FFBB58" rx="0" ry="0"></rect><rect x="70.5" y="8.5" width="27" height="37" stroke="#FFFFFF" stroke-width="1" fill="#FFBB58" rx="0" ry="0"></rect><rect x="126.5" y="5.5" width="27" height="37" stroke="#FFFFFF" stroke-width="1" fill="#FFBB58" rx="0" ry="0"></rect><rect x="182.5" y="8.5" width="27" height="29" stroke="#FFFFFF" stroke-width="1" fill="#FFBB58" rx="0" ry="0"></rect><rect x="238.5" y="3.5" width="27" height="26" stroke="#FFFFFF" stroke-width="1" fill="#FFBB58" rx="0" ry="0"></rect></g><g class="highcharts-markers highcharts-series-3" transform="translate(53,56) scale(1 1)" clip-path="none"></g><g class="highcharts-series highcharts-series-4 highcharts-tracker" transform="translate(53,56) scale(1 1)" style="" clip-path="url(#highcharts-1)"><rect x="14.5" y="-0.5" width="27" height="7" stroke="#FFFFFF" stroke-width="1" fill="#FF8028" rx="0" ry="0"></rect><rect x="70.5" y="-0.5" width="27" height="9" stroke="#FFFFFF" stroke-width="1" fill="#FF8028" rx="0" ry="0"></rect><rect x="126.5" y="-0.5" width="27" height="6" stroke="#FFFFFF" stroke-width="1" fill="#FF8028" rx="0" ry="0"></rect><rect x="182.5" y="-0.5" width="27" height="9" stroke="#FFFFFF" stroke-width="1" fill="#FF8028" rx="0" ry="0"></rect><rect x="238.5" y="-0.5" width="27" height="4" stroke="#FFFFFF" stroke-width="1" fill="#FF8028" rx="0" ry="0"></rect></g><g class="highcharts-markers highcharts-series-4" transform="translate(53,56) scale(1 1)" clip-path="none"></g></g><text x="10" text-anchor="start" class="highcharts-title" style="color:#000000;font-size:14px;font-weight:bold;fill:#000000;width:421px;" y="21"><tspan>2.3.02 Beurteilung der eigenen wirtschaftlichen Situation</tspan></text><text x="10" text-anchor="start" class="highcharts-subtitle" style="color:#000000;font-size:12px;fill:#000000;width:421px;" y="40"><tspan>«Wie geht es Ihnen wirtschaftlich gesehen im Moment?»</tspan></text><g class="highcharts-legend" transform="translate(346,135)"><g><g><g class="highcharts-legend-item" transform="translate(8,3)"><text x="21" style="color:#333333;font-size:12px;font-weight:normal;cursor:pointer;fill:#333333;" text-anchor="start" y="15"><tspan>Gar nicht gut</tspan></text><rect x="0" y="4" width="16" height="12" fill="#FF8028"></rect></g><g class="highcharts-legend-item" transform="translate(8,23)"><text x="21" y="15" style="color:#333333;font-size:12px;font-weight:normal;cursor:pointer;fill:#333333;" text-anchor="start"><tspan>Eher nicht so gut</tspan></text><rect x="0" y="4" width="16" height="12" fill="#FFBB58"></rect></g><g class="highcharts-legend-item" transform="translate(8,43)"><text x="21" y="15" style="color:#333333;font-size:12px;font-weight:normal;cursor:pointer;fill:#333333;" text-anchor="start"><tspan>Weiss nicht /</tspan><tspan x="21" dy="15">keine Angabe</tspan></text><rect x="0" y="4" width="16" height="12" fill="#C8C8C8"></rect></g><g class="highcharts-legend-item" transform="translate(8,78)"><text x="21" y="15" style="color:#333333;font-size:12px;font-weight:normal;cursor:pointer;fill:#333333;" text-anchor="start"><tspan>Eher gut</tspan></text><rect x="0" y="4" width="16" height="12" fill="#73BA7C"></rect></g><g class="highcharts-legend-item" transform="translate(8,98)"><text x="21" y="15" style="color:#333333;font-size:12px;font-weight:normal;cursor:pointer;fill:#333333;" text-anchor="start"><tspan>Sehr gut</tspan></text><rect x="0" y="4" width="16" height="12" fill="#007A2F"></rect></g></g></g></g><g class="highcharts-axis-labels highcharts-xaxis-labels"><text x="81.1" style="color:#000000;cursor:default;font-size:11px;fill:#000000;" text-anchor="middle" transform="translate(0,0)" y="368" opacity="1"><tspan>2003</tspan><tspan x="81.1" dy="14">(N=1497)</tspan></text><text x="137.3" style="color:#000000;cursor:default;font-size:11px;fill:#000000;" text-anchor="middle" transform="translate(0,0)" y="368" opacity="1"><tspan>2005</tspan><tspan x="137.3" dy="14">(N=782)</tspan></text><text x="193.5" style="color:#000000;cursor:default;font-size:11px;fill:#000000;" text-anchor="middle" transform="translate(0,0)" y="368" opacity="1"><tspan>2007</tspan><tspan x="193.5" dy="14">(N=762)</tspan></text><text x="249.70000000000002" style="color:#000000;cursor:default;font-size:11px;fill:#000000;" text-anchor="middle" transform="translate(0,0)" y="368" opacity="1"><tspan>2011</tspan><tspan x="249.70000000000002" dy="14">(N=1009)</tspan></text><text x="305.9" style="color:#000000;cursor:default;font-size:11px;fill:#000000;" text-anchor="middle" transform="translate(0,0)" y="368" opacity="1"><tspan>2015</tspan><tspan x="305.9" dy="14">(N=1001)</tspan></text></g><g class="highcharts-axis-labels highcharts-yaxis-labels"><text x="38" style="color:#000000;cursor:default;font-size:11px;fill:#000000;width:150px;text-overflow:clip;" text-anchor="end" transform="translate(0,0)" y="353" opacity="1"><tspan>0%</tspan></text><text x="38" style="color:#000000;cursor:default;font-size:11px;fill:#000000;width:150px;text-overflow:clip;" text-anchor="end" transform="translate(0,0)" y="324" opacity="1"><tspan>10%</tspan></text><text x="38" style="color:#000000;cursor:default;font-size:11px;fill:#000000;width:150px;text-overflow:clip;" text-anchor="end" transform="translate(0,0)" y="294" opacity="1"><tspan>20%</tspan></text><text x="38" style="color:#000000;cursor:default;font-size:11px;fill:#000000;width:150px;text-overflow:clip;" text-anchor="end" transform="translate(0,0)" y="265" opacity="1"><tspan>30%</tspan></text><text x="38" style="color:#000000;cursor:default;font-size:11px;fill:#000000;width:150px;text-overflow:clip;" text-anchor="end" transform="translate(0,0)" y="236" opacity="1"><tspan>40%</tspan></text><text x="38" style="color:#000000;cursor:default;font-size:11px;fill:#000000;width:150px;text-overflow:clip;" text-anchor="end" transform="translate(0,0)" y="207" opacity="1"><tspan>50%</tspan></text><text x="38" style="color:#000000;cursor:default;font-size:11px;fill:#000000;width:150px;text-overflow:clip;" text-anchor="end" transform="translate(0,0)" y="177" opacity="1"><tspan>60%</tspan></text><text x="38" style="color:#000000;cursor:default;font-size:11px;fill:#000000;width:150px;text-overflow:clip;" text-anchor="end" transform="translate(0,0)" y="148" opacity="1"><tspan>70%</tspan></text><text x="38" style="color:#000000;cursor:default;font-size:11px;fill:#000000;width:150px;text-overflow:clip;" text-anchor="end" transform="translate(0,0)" y="119" opacity="1"><tspan>80%</tspan></text><text x="38" style="color:#000000;cursor:default;font-size:11px;fill:#000000;width:150px;text-overflow:clip;" text-anchor="end" transform="translate(0,0)" y="89" opacity="1"><tspan>90%</tspan></text><text x="38" style="color:#000000;cursor:default;font-size:11px;fill:#000000;width:150px;text-overflow:clip;" text-anchor="end" transform="translate(0,0)" y="60" opacity="1"><tspan>100%</tspan></text></g><g class="highcharts-tooltip" style="cursor:default;padding:0;pointer-events:none;white-space:nowrap;" transform="translate(0,-9000000000)"><path fill="none" d="M 3.5 0.5 L 13.5 0.5 C 16.5 0.5 16.5 0.5 16.5 3.5 L 16.5 13.5 C 16.5 16.5 16.5 16.5 13.5 16.5 L 3.5 16.5 C 0.5 16.5 0.5 16.5 0.5 13.5 L 0.5 3.5 C 0.5 0.5 0.5 0.5 3.5 0.5" isShadow="true" stroke="black" stroke-width="5" transform="translate(1, 1)" opacity="0.049999999999999996"></path><path fill="none" d="M 3.5 0.5 L 13.5 0.5 C 16.5 0.5 16.5 0.5 16.5 3.5 L 16.5 13.5 C 16.5 16.5 16.5 16.5 13.5 16.5 L 3.5 16.5 C 0.5 16.5 0.5 16.5 0.5 13.5 L 0.5 3.5 C 0.5 0.5 0.5 0.5 3.5 0.5" isShadow="true" stroke="black" stroke-width="3" transform="translate(1, 1)" opacity="0.09999999999999999"></path><path fill="none" d="M 3.5 0.5 L 13.5 0.5 C 16.5 0.5 16.5 0.5 16.5 3.5 L 16.5 13.5 C 16.5 16.5 16.5 16.5 13.5 16.5 L 3.5 16.5 C 0.5 16.5 0.5 16.5 0.5 13.5 L 0.5 3.5 C 0.5 0.5 0.5 0.5 3.5 0.5" isShadow="true" stroke="black" stroke-width="1" transform="translate(1, 1)" opacity="0.15"></path><path fill="rgba(249, 249, 249, .85)" d="M 3.5 0.5 L 13.5 0.5 C 16.5 0.5 16.5 0.5 16.5 3.5 L 16.5 13.5 C 16.5 16.5 16.5 16.5 13.5 16.5 L 3.5 16.5 C 0.5 16.5 0.5 16.5 0.5 13.5 L 0.5 3.5 C 0.5 0.5 0.5 0.5 3.5 0.5"></path><text x="8" style="font-size:12px;color:#333333;fill:#333333;" y="20"></text></g><text x="10" text-anchor="start" style="cursor:default;color:#000000;font-size:10px;fill:#000000;" y="410"><tspan>Quelle: Statistisches Amt Basel-Stadt, kantonale Bevölkerungsbefragung: F14b</tspan></text></svg>