<svg version="1.1" style="font-family:Arial;font-size:12px;" xmlns="http://www.w3.org/2000/svg" viewBox="0 0 485 415"><desc>Created with Highcharts 4.2.6</desc><defs><clippath id="highcharts-1"><rect x="0" y="0" width="315" height="335"></rect></clippath></defs><rect x="0" y="0" width="485" height="415" fill="#fbfbfb" class=" highcharts-background"></rect><g class="highcharts-grid"></g><g class="highcharts-grid"><path fill="none" d="M 139.5 35 L 139.5 350" stroke="#D8D8D8" stroke-width="1" opacity="1"></path><path fill="none" d="M 206.5 35 L 206.5 350" stroke="#D8D8D8" stroke-width="1" opacity="1"></path><path fill="none" d="M 273.5 35 L 273.5 350" stroke="#D8D8D8" stroke-width="1" opacity="1"></path><path fill="none" d="M 340.5 35 L 340.5 350" stroke="#D8D8D8" stroke-width="1" opacity="1"></path><path fill="none" d="M 407.5 35 L 407.5 350" stroke="#D8D8D8" stroke-width="1" opacity="1"></path><path fill="none" d="M 475.5 35 L 475.5 350" stroke="#D8D8D8" stroke-width="1" opacity="1"></path></g><g class="highcharts-axis"><path fill="none" d="M 140 50.5 L 130 50.5" stroke="#FFFFFF" stroke-width="1" opacity="1"></path><path fill="none" d="M 140 65.5 L 130 65.5" stroke="#FFFFFF" stroke-width="1" opacity="1"></path><path fill="none" d="M 140 80.5 L 130 80.5" stroke="#FFFFFF" stroke-width="1" opacity="1"></path><path fill="none" d="M 140 95.5 L 130 95.5" stroke="#FFFFFF" stroke-width="1" opacity="1"></path><path fill="none" d="M 140 110.5 L 130 110.5" stroke="#FFFFFF" stroke-width="1" opacity="1"></path><path fill="none" d="M 140 125.5 L 130 125.5" stroke="#FFFFFF" stroke-width="1" opacity="1"></path><path fill="none" d="M 140 140.5 L 130 140.5" stroke="#FFFFFF" stroke-width="1" opacity="1"></path><path fill="none" d="M 140 155.5 L 130 155.5" stroke="#FFFFFF" stroke-width="1" opacity="1"></path><path fill="none" d="M 140 170.5 L 130 170.5" stroke="#FFFFFF" stroke-width="1" opacity="1"></path><path fill="none" d="M 140 185.5 L 130 185.5" stroke="#FFFFFF" stroke-width="1" opacity="1"></path><path fill="none" d="M 140 200.5 L 130 200.5" stroke="#FFFFFF" stroke-width="1" opacity="1"></path><path fill="none" d="M 140 215.5 L 130 215.5" stroke="#FFFFFF" stroke-width="1" opacity="1"></path><path fill="none" d="M 140 230.5 L 130 230.5" stroke="#FFFFFF" stroke-width="1" opacity="1"></path><path fill="none" d="M 140 245.5 L 130 245.5" stroke="#FFFFFF" stroke-width="1" opacity="1"></path><path fill="none" d="M 140 260.5 L 130 260.5" stroke="#FFFFFF" stroke-width="1" opacity="1"></path><path fill="none" d="M 140 275.5 L 130 275.5" stroke="#FFFFFF" stroke-width="1" opacity="1"></path><path fill="none" d="M 140 290.5 L 130 290.5" stroke="#FFFFFF" stroke-width="1" opacity="1"></path><path fill="none" d="M 140 305.5 L 130 305.5" stroke="#FFFFFF" stroke-width="1" opacity="1"></path><path fill="none" d="M 140 320.5 L 130 320.5" stroke="#FFFFFF" stroke-width="1" opacity="1"></path><path fill="none" d="M 140 335.5 L 130 335.5" stroke="#FFFFFF" stroke-width="1" opacity="1"></path><path fill="none" d="M 140 350.5 L 130 350.5" stroke="#FFFFFF" stroke-width="1" opacity="1"></path><path fill="none" d="M 140 34.5 L 130 34.5" stroke="#FFFFFF" stroke-width="1" opacity="1"></path><path fill="none" d="M 139.5 35 L 139.5 350" stroke="#C0D0E0" stroke-width="1"></path></g><g class="highcharts-axis"></g><g class="highcharts-series-group"><g class="highcharts-series highcharts-series-0 highcharts-tracker" transform="translate(475,350) rotate(90) scale(-1,1) scale(1 1)" style="" width="335" height="315" clip-path="url(#highcharts-1)"></g><g class="highcharts-markers highcharts-series-0 highcharts-tracker" transform="translate(475,350) rotate(90) scale(-1,1) scale(1 1)" style="" width="335" height="315" clip-path="none"><path fill="#923F8D" d="M 7 74.99798794899999 C 12.328 74.99798794899999 12.328 82.99798794899999 7 82.99798794899999 C 1.672 82.99798794899999 1.672 74.99798794899999 7 74.99798794899999 Z"></path><path fill="#923F8D" d="M 22 90.24377932399997 C 27.328 90.24377932399997 27.328 98.24377932399997 22 98.24377932399997 C 16.672 98.24377932399997 16.672 90.24377932399997 22 90.24377932399997 Z"></path><path fill="#923F8D" d="M 37 102.78748756600001 C 42.328 102.78748756600001 42.328 110.78748756600001 37 110.78748756600001 C 31.672 110.78748756600001 31.672 102.78748756600001 37 102.78748756600001 Z"></path><path fill="#923F8D" d="M 52 120.53890487500001 C 57.328 120.53890487500001 57.328 128.53890487500001 52 128.53890487500001 C 46.672 128.53890487500001 46.672 120.53890487500001 52 120.53890487500001 Z"></path><path fill="#923F8D" d="M 67 121.30253027299997 C 72.328 121.30253027299997 72.328 129.30253027299997 67 129.30253027299997 C 61.672 129.30253027299997 61.672 121.30253027299997 67 121.30253027299997 Z"></path><path fill="#923F8D" d="M 82 133.219491236 C 87.328 133.219491236 87.328 141.219491236 82 141.219491236 C 76.672 141.219491236 76.672 133.219491236 82 133.219491236 Z"></path><path fill="#923F8D" d="M 97 143.952442805 C 102.328 143.952442805 102.328 151.952442805 97 151.952442805 C 91.672 151.952442805 91.672 143.952442805 97 143.952442805 Z"></path><path fill="#923F8D" d="M 112 144.43495931799998 C 117.328 144.43495931799998 117.328 152.43495931799998 112 152.43495931799998 C 106.672 152.43495931799998 106.672 144.43495931799998 112 144.43495931799998 Z"></path><path fill="#923F8D" d="M 127 156.35312929600002 C 132.328 156.35312929600002 132.328 164.35312929600002 127 164.35312929600002 C 121.672 164.35312929600002 121.672 156.35312929600002 127 156.35312929600002 Z"></path><path fill="#923F8D" d="M 142 160.788881046 C 147.328 160.788881046 147.328 168.788881046 142 168.788881046 C 136.672 168.788881046 136.672 160.788881046 142 160.788881046 Z"></path><path fill="#923F8D" d="M 157 162.003127808 C 162.328 162.003127808 162.328 170.003127808 157 170.003127808 C 151.672 170.003127808 151.672 162.003127808 157 162.003127808 Z"></path><path fill="#923F8D" d="M 172 162.06409754 C 177.328 162.06409754 177.328 170.06409754 172 170.06409754 C 166.672 170.06409754 166.672 162.06409754 172 162.06409754 Z"></path><path fill="#923F8D" d="M 187 179.18838031 C 192.328 179.18838031 192.328 187.18838031 187 187.18838031 C 181.672 187.18838031 181.672 179.18838031 187 179.18838031 Z"></path><path fill="#923F8D" d="M 202 180.488151634 C 207.328 180.488151634 207.328 188.488151634 202 188.488151634 C 196.672 188.488151634 196.672 180.488151634 202 180.488151634 Z"></path><path fill="#923F8D" d="M 217 183.548966301 C 222.328 183.548966301 222.328 191.548966301 217 191.548966301 C 211.672 191.548966301 211.672 183.548966301 217 183.548966301 Z"></path><path fill="#923F8D" d="M 232 191.18248715 C 237.328 191.18248715 237.328 199.18248715 232 199.18248715 C 226.672 199.18248715 226.672 191.18248715 232 191.18248715 Z"></path><path fill="#923F8D" d="M 247 194.354931053 C 252.328 194.354931053 252.328 202.354931053 247 202.354931053 C 241.672 202.354931053 241.672 194.354931053 247 194.354931053 Z"></path><path fill="#923F8D" d="M 262 209.341445158 C 267.328 209.341445158 267.328 217.341445158 262 217.341445158 C 256.672 217.341445158 256.672 209.341445158 262 209.341445158 Z"></path><path fill="#923F8D" d="M 277 223.933832701 C 282.328 223.933832701 282.328 231.933832701 277 231.933832701 C 271.672 231.933832701 271.672 223.933832701 277 223.933832701 Z"></path><path fill="#923F8D" d="M 292 236.287958145 C 297.328 236.287958145 297.328 244.287958145 292 244.287958145 C 286.672 244.287958145 286.672 236.287958145 292 236.287958145 Z"></path><path fill="#923F8D" d="M 307 250.277108441 C 312.328 250.277108441 312.328 258.277108441 307 258.277108441 C 301.672 258.277108441 301.672 250.277108441 307 250.277108441 Z"></path></g></g><text x="10" text-anchor="start" class="highcharts-title" style="color:#000000;font-size:14px;font-weight:bold;font-family:Arial;fill:#000000;width:421px;" y="21"><tspan>I.01.1.0041 Jugendquotient</tspan></text><g class="highcharts-axis-labels highcharts-xaxis-labels"><text x="125" style="color:#000000;cursor:default;font-size:11px;fill:#000000;width:150px;text-overflow:ellipsis;" text-anchor="end" transform="translate(0,0)" y="47" opacity="1"><tspan>Altstadt Grossbasel</tspan></text><text x="125" style="color:#000000;cursor:default;font-size:11px;fill:#000000;width:150px;text-overflow:ellipsis;" text-anchor="end" transform="translate(0,0)" y="62" opacity="1"><tspan>Altstadt Kleinbasel</tspan></text><text x="125" style="color:#000000;cursor:default;font-size:11px;fill:#000000;width:150px;text-overflow:ellipsis;" text-anchor="end" transform="translate(0,0)" y="77" opacity="1"><tspan>Vorstädte</tspan></text><text x="125" style="color:#000000;cursor:default;font-size:11px;fill:#000000;width:150px;text-overflow:ellipsis;" text-anchor="end" transform="translate(0,0)" y="92" opacity="1"><tspan>Clara</tspan></text><text x="125" style="color:#000000;cursor:default;font-size:11px;fill:#000000;width:150px;text-overflow:ellipsis;" text-anchor="end" transform="translate(0,0)" y="107" opacity="1"><tspan>Gundeldingen</tspan></text><text x="125" style="color:#000000;cursor:default;font-size:11px;fill:#000000;width:150px;text-overflow:ellipsis;" text-anchor="end" transform="translate(0,0)" y="122" opacity="1"><tspan>Am Ring</tspan></text><text x="125" style="color:#000000;cursor:default;font-size:11px;fill:#000000;width:150px;text-overflow:ellipsis;" text-anchor="end" transform="translate(0,0)" y="137" opacity="1"><tspan>Wettstein</tspan></text><text x="125" style="color:#000000;cursor:default;font-size:11px;fill:#000000;width:150px;text-overflow:ellipsis;" text-anchor="end" transform="translate(0,0)" y="152" opacity="1"><tspan>Matthäus</tspan></text><text x="125" style="color:#000000;cursor:default;font-size:11px;fill:#000000;width:150px;text-overflow:ellipsis;" text-anchor="end" transform="translate(0,0)" y="167" opacity="1"><tspan>Breite</tspan></text><text x="125" style="color:#000000;cursor:default;font-size:11px;fill:#000000;width:150px;text-overflow:ellipsis;" text-anchor="end" transform="translate(0,0)" y="182" opacity="1"><tspan>St. Johann</tspan></text><text x="125" style="color:#000000;cursor:default;font-size:11px;fill:#000000;width:150px;text-overflow:ellipsis;" text-anchor="end" transform="translate(0,0)" y="197" opacity="1"><tspan>Rosental</tspan></text><text x="125" style="color:#000000;cursor:default;font-size:11px;fill:#000000;width:150px;text-overflow:ellipsis;" text-anchor="end" transform="translate(0,0)" y="212" opacity="1"><tspan>Gotthelf</tspan></text><text x="125" style="color:#000000;cursor:default;font-size:11px;fill:#000000;width:150px;text-overflow:ellipsis;" text-anchor="end" transform="translate(0,0)" y="227" opacity="1"><tspan>Iselin</tspan></text><text x="125" style="color:#000000;cursor:default;font-size:11px;fill:#000000;width:150px;text-overflow:ellipsis;" text-anchor="end" transform="translate(0,0)" y="242" opacity="1"><tspan>Klybeck</tspan></text><text x="125" style="color:#000000;cursor:default;font-size:11px;fill:#000000;width:150px;text-overflow:ellipsis;" text-anchor="end" transform="translate(0,0)" y="257" opacity="1"><tspan>St. Alban</tspan></text><text x="125" style="color:#000000;cursor:default;font-size:11px;fill:#000000;width:150px;text-overflow:ellipsis;" text-anchor="end" transform="translate(0,0)" y="272" opacity="1"><tspan>Bachletten</tspan></text><text x="125" style="color:#000000;cursor:default;font-size:11px;fill:#000000;width:150px;text-overflow:ellipsis;" text-anchor="end" transform="translate(0,0)" y="287" opacity="1"><tspan>Kleinhüningen</tspan></text><text x="125" style="color:#000000;cursor:default;font-size:11px;fill:#000000;width:150px;text-overflow:ellipsis;" text-anchor="end" transform="translate(0,0)" y="302" opacity="1"><tspan>Bettingen</tspan></text><text x="125" style="color:#000000;cursor:default;font-size:11px;fill:#000000;width:150px;text-overflow:ellipsis;" text-anchor="end" transform="translate(0,0)" y="317" opacity="1"><tspan>Hirzbrunnen</tspan></text><text x="125" style="color:#000000;cursor:default;font-size:11px;fill:#000000;width:150px;text-overflow:ellipsis;" text-anchor="end" transform="translate(0,0)" y="332" opacity="1"><tspan>Riehen</tspan></text><text x="125" style="color:#000000;cursor:default;font-size:11px;fill:#000000;width:150px;text-overflow:ellipsis;" text-anchor="end" transform="translate(0,0)" y="347" opacity="1"><tspan>Bruderholz</tspan></text></g><g class="highcharts-axis-labels highcharts-yaxis-labels"><text x="140" style="color:#000000;cursor:default;font-size:11px;fill:#000000;width:57px;text-overflow:clip;" text-anchor="middle" transform="translate(0,0)" y="369" opacity="1"><tspan>0%</tspan></text><text x="207" style="color:#000000;cursor:default;font-size:11px;fill:#000000;width:57px;text-overflow:clip;" text-anchor="middle" transform="translate(0,0)" y="369" opacity="1"><tspan>10%</tspan></text><text x="274" style="color:#000000;cursor:default;font-size:11px;fill:#000000;width:57px;text-overflow:clip;" text-anchor="middle" transform="translate(0,0)" y="369" opacity="1"><tspan>20%</tspan></text><text x="341" style="color:#000000;cursor:default;font-size:11px;fill:#000000;width:57px;text-overflow:clip;" text-anchor="middle" transform="translate(0,0)" y="369" opacity="1"><tspan>30%</tspan></text><text x="408" style="color:#000000;cursor:default;font-size:11px;fill:#000000;width:57px;text-overflow:clip;" text-anchor="middle" transform="translate(0,0)" y="369" opacity="1"><tspan>40%</tspan></text><text x="465.925" style="color:#000000;cursor:default;font-size:11px;fill:#000000;width:57px;text-overflow:clip;" text-anchor="middle" transform="translate(0,0)" y="369" opacity="1"><tspan>50%</tspan></text></g><g class="highcharts-tooltip" style="cursor:default;padding:0;pointer-events:none;white-space:nowrap;" transform="translate(0,-9000000000)"><path fill="none" d="M 3.5 0.5 L 13.5 0.5 C 16.5 0.5 16.5 0.5 16.5 3.5 L 16.5 28.5 C 16.5 31.5 16.5 31.5 13.5 31.5 L 3.5 31.5 C 0.5 31.5 0.5 31.5 0.5 28.5 L 0.5 3.5 C 0.5 0.5 0.5 0.5 3.5 0.5" isshadow="true" stroke="black" stroke-opacity="0.049999999999999996" stroke-width="5" transform="translate(1, 1)"></path><path fill="none" d="M 3.5 0.5 L 13.5 0.5 C 16.5 0.5 16.5 0.5 16.5 3.5 L 16.5 28.5 C 16.5 31.5 16.5 31.5 13.5 31.5 L 3.5 31.5 C 0.5 31.5 0.5 31.5 0.5 28.5 L 0.5 3.5 C 0.5 0.5 0.5 0.5 3.5 0.5" isshadow="true" stroke="black" stroke-opacity="0.09999999999999999" stroke-width="3" transform="translate(1, 1)"></path><path fill="none" d="M 3.5 0.5 L 13.5 0.5 C 16.5 0.5 16.5 0.5 16.5 3.5 L 16.5 28.5 C 16.5 31.5 16.5 31.5 13.5 31.5 L 3.5 31.5 C 0.5 31.5 0.5 31.5 0.5 28.5 L 0.5 3.5 C 0.5 0.5 0.5 0.5 3.5 0.5" isshadow="true" stroke="black" stroke-opacity="0.15" stroke-width="1" transform="translate(1, 1)"></path><path fill="rgba(249, 249, 249, .85)" d="M 3.5 0.5 L 13.5 0.5 C 16.5 0.5 16.5 0.5 16.5 3.5 L 16.5 28.5 C 16.5 31.5 16.5 31.5 13.5 31.5 L 3.5 31.5 C 0.5 31.5 0.5 31.5 0.5 28.5 L 0.5 3.5 C 0.5 0.5 0.5 0.5 3.5 0.5"></path><text x="8" style="font-size:12px;color:#333333;fill:#333333;" y="20"></text></g><text x="10" text-anchor="start" style="cursor:default;color:#000000;font-size:10px;fill:#000000;" y="398"><tspan>Quelle: Statistisches Amt Basel-Stadt, kantonale Bevölkerungsstatistik</tspan></text></svg>