<svg version="1.1" style="font-family:Arial;font-size:12px;" xmlns="http://www.w3.org/2000/svg" viewBox="0 0 485 415"><desc>Created with Highcharts 4.2.6</desc><defs><clippath id="highcharts-1"><rect x="0" y="0" width="315" height="335"></rect></clippath></defs><rect x="0" y="0" width="485" height="415" fill="#fbfbfb" class=" highcharts-background"></rect><g class="highcharts-grid"></g><g class="highcharts-grid"><path fill="none" d="M 139.5 35 L 139.5 350" stroke="#D8D8D8" stroke-width="1" opacity="1"></path><path fill="none" d="M 206.5 35 L 206.5 350" stroke="#D8D8D8" stroke-width="1" opacity="1"></path><path fill="none" d="M 273.5 35 L 273.5 350" stroke="#D8D8D8" stroke-width="1" opacity="1"></path><path fill="none" d="M 340.5 35 L 340.5 350" stroke="#D8D8D8" stroke-width="1" opacity="1"></path><path fill="none" d="M 407.5 35 L 407.5 350" stroke="#D8D8D8" stroke-width="1" opacity="1"></path><path fill="none" d="M 475.5 35 L 475.5 350" stroke="#D8D8D8" stroke-width="1" opacity="1"></path></g><g class="highcharts-axis"><path fill="none" d="M 140 50.5 L 130 50.5" stroke="#FFFFFF" stroke-width="1" opacity="1"></path><path fill="none" d="M 140 65.5 L 130 65.5" stroke="#FFFFFF" stroke-width="1" opacity="1"></path><path fill="none" d="M 140 80.5 L 130 80.5" stroke="#FFFFFF" stroke-width="1" opacity="1"></path><path fill="none" d="M 140 95.5 L 130 95.5" stroke="#FFFFFF" stroke-width="1" opacity="1"></path><path fill="none" d="M 140 110.5 L 130 110.5" stroke="#FFFFFF" stroke-width="1" opacity="1"></path><path fill="none" d="M 140 125.5 L 130 125.5" stroke="#FFFFFF" stroke-width="1" opacity="1"></path><path fill="none" d="M 140 140.5 L 130 140.5" stroke="#FFFFFF" stroke-width="1" opacity="1"></path><path fill="none" d="M 140 155.5 L 130 155.5" stroke="#FFFFFF" stroke-width="1" opacity="1"></path><path fill="none" d="M 140 170.5 L 130 170.5" stroke="#FFFFFF" stroke-width="1" opacity="1"></path><path fill="none" d="M 140 185.5 L 130 185.5" stroke="#FFFFFF" stroke-width="1" opacity="1"></path><path fill="none" d="M 140 200.5 L 130 200.5" stroke="#FFFFFF" stroke-width="1" opacity="1"></path><path fill="none" d="M 140 215.5 L 130 215.5" stroke="#FFFFFF" stroke-width="1" opacity="1"></path><path fill="none" d="M 140 230.5 L 130 230.5" stroke="#FFFFFF" stroke-width="1" opacity="1"></path><path fill="none" d="M 140 245.5 L 130 245.5" stroke="#FFFFFF" stroke-width="1" opacity="1"></path><path fill="none" d="M 140 260.5 L 130 260.5" stroke="#FFFFFF" stroke-width="1" opacity="1"></path><path fill="none" d="M 140 275.5 L 130 275.5" stroke="#FFFFFF" stroke-width="1" opacity="1"></path><path fill="none" d="M 140 290.5 L 130 290.5" stroke="#FFFFFF" stroke-width="1" opacity="1"></path><path fill="none" d="M 140 305.5 L 130 305.5" stroke="#FFFFFF" stroke-width="1" opacity="1"></path><path fill="none" d="M 140 320.5 L 130 320.5" stroke="#FFFFFF" stroke-width="1" opacity="1"></path><path fill="none" d="M 140 335.5 L 130 335.5" stroke="#FFFFFF" stroke-width="1" opacity="1"></path><path fill="none" d="M 140 350.5 L 130 350.5" stroke="#FFFFFF" stroke-width="1" opacity="1"></path><path fill="none" d="M 140 34.5 L 130 34.5" stroke="#FFFFFF" stroke-width="1" opacity="1"></path><path fill="none" d="M 139.5 35 L 139.5 350" stroke="#C0D0E0" stroke-width="1"></path></g><g class="highcharts-axis"></g><g class="highcharts-series-group"><g class="highcharts-series highcharts-series-0 highcharts-tracker" transform="translate(475,350) rotate(90) scale(-1,1) scale(1 1)" style="" width="335" height="315" clip-path="url(#highcharts-1)"></g><g class="highcharts-markers highcharts-series-0 highcharts-tracker" transform="translate(475,350) rotate(90) scale(-1,1) scale(1 1)" style="" width="335" height="315" clip-path="none"><path fill="#923F8D" d="M 7 40.64205283199999 C 12.328 40.64205283199999 12.328 48.64205283199999 7 48.64205283199999 C 1.672 48.64205283199999 1.672 40.64205283199999 7 40.64205283199999 Z"></path><path fill="#923F8D" d="M 22 46.66574739499998 C 27.328 46.66574739499998 27.328 54.66574739499998 22 54.66574739499998 C 16.672 54.66574739499998 16.672 46.66574739499998 22 46.66574739499998 Z"></path><path fill="#923F8D" d="M 37 49.77885114000003 C 42.328 49.77885114000003 42.328 57.77885114000003 37 57.77885114000003 C 31.672 57.77885114000003 31.672 49.77885114000003 37 49.77885114000003 Z"></path><path fill="#923F8D" d="M 52 52.329409150000004 C 57.328 52.329409150000004 57.328 60.329409150000004 52 60.329409150000004 C 46.672 60.329409150000004 46.672 52.329409150000004 52 52.329409150000004 Z"></path><path fill="#923F8D" d="M 67 54.986710957000014 C 72.328 54.986710957000014 72.328 62.986710957000014 67 62.986710957000014 C 61.672 62.986710957000014 61.672 54.986710957000014 67 54.986710957000014 Z"></path><path fill="#923F8D" d="M 82 88.189227741 C 87.328 88.189227741 87.328 96.189227741 82 96.189227741 C 76.672 96.189227741 76.672 88.189227741 82 88.189227741 Z"></path><path fill="#923F8D" d="M 97 93.153028936 C 102.328 93.153028936 102.328 101.153028936 97 101.153028936 C 91.672 101.153028936 91.672 93.153028936 97 93.153028936 Z"></path><path fill="#923F8D" d="M 112 94.28168393500002 C 117.328 94.28168393500002 117.328 102.28168393500002 112 102.28168393500002 C 106.672 102.28168393500002 106.672 94.28168393500002 112 94.28168393500002 Z"></path><path fill="#923F8D" d="M 127 96.816298491 C 132.328 96.816298491 132.328 104.816298491 127 104.816298491 C 121.672 104.816298491 121.672 96.816298491 127 96.816298491 Z"></path><path fill="#923F8D" d="M 142 97.65517239299999 C 147.328 97.65517239299999 147.328 105.65517239299999 142 105.65517239299999 C 136.672 105.65517239299999 136.672 97.65517239299999 142 97.65517239299999 Z"></path><path fill="#923F8D" d="M 157 102.23746741399998 C 162.328 102.23746741399998 162.328 110.23746741399998 157 110.23746741399998 C 151.672 110.23746741399998 151.672 102.23746741399998 157 102.23746741399998 Z"></path><path fill="#923F8D" d="M 172 111.554655852 C 177.328 111.554655852 177.328 119.554655852 172 119.554655852 C 166.672 119.554655852 166.672 111.554655852 172 111.554655852 Z"></path><path fill="#923F8D" d="M 187 111.93358245899998 C 192.328 111.93358245899998 192.328 119.93358245899998 187 119.93358245899998 C 181.672 119.93358245899998 181.672 111.93358245899998 187 111.93358245899998 Z"></path><path fill="#923F8D" d="M 202 120.80392156599999 C 207.328 120.80392156599999 207.328 128.80392156599999 202 128.80392156599999 C 196.672 128.80392156599999 196.672 120.80392156599999 202 120.80392156599999 Z"></path><path fill="#923F8D" d="M 217 125.191387555 C 222.328 125.191387555 222.328 133.191387555 217 133.191387555 C 211.672 133.191387555 211.672 125.191387555 217 125.191387555 Z"></path><path fill="#923F8D" d="M 232 125.819582771 C 237.328 125.819582771 237.328 133.819582771 232 133.819582771 C 226.672 133.819582771 226.672 125.819582771 232 125.819582771 Z"></path><path fill="#923F8D" d="M 247 127.54878047800003 C 252.328 127.54878047800003 252.328 135.54878047800003 247 135.54878047800003 C 241.672 135.54878047800003 241.672 127.54878047800003 247 127.54878047800003 Z"></path><path fill="#923F8D" d="M 262 138.227924816 C 267.328 138.227924816 267.328 146.227924816 262 146.227924816 C 256.672 146.227924816 256.672 138.227924816 262 138.227924816 Z"></path><path fill="#923F8D" d="M 277 145.97566907400002 C 282.328 145.97566907400002 282.328 153.97566907400002 277 153.97566907400002 C 271.672 153.97566907400002 271.672 145.97566907400002 277 145.97566907400002 Z"></path><path fill="#923F8D" d="M 292 146.371663261 C 297.328 146.371663261 297.328 154.371663261 292 154.371663261 C 286.672 154.371663261 286.672 146.371663261 292 146.371663261 Z"></path><path fill="#923F8D" d="M 307 190.66142882 C 312.328 190.66142882 312.328 198.66142882 307 198.66142882 C 301.672 198.66142882 301.672 190.66142882 307 190.66142882 Z"></path></g></g><text x="10" text-anchor="start" class="highcharts-title" style="color:#000000;font-size:14px;font-weight:bold;font-family:Arial;fill:#000000;width:421px;" y="21"><tspan>I.01.1.0040 Sesshaftigkeit</tspan></text><g class="highcharts-axis-labels highcharts-xaxis-labels"><text x="125" style="color:#000000;cursor:default;font-size:11px;fill:#000000;width:150px;text-overflow:ellipsis;" text-anchor="end" transform="translate(0,0)" y="47" opacity="1"><tspan>Rosental</tspan></text><text x="125" style="color:#000000;cursor:default;font-size:11px;fill:#000000;width:150px;text-overflow:ellipsis;" text-anchor="end" transform="translate(0,0)" y="62" opacity="1"><tspan>Altstadt Kleinbasel</tspan></text><text x="125" style="color:#000000;cursor:default;font-size:11px;fill:#000000;width:150px;text-overflow:ellipsis;" text-anchor="end" transform="translate(0,0)" y="77" opacity="1"><tspan>Vorstädte</tspan></text><text x="125" style="color:#000000;cursor:default;font-size:11px;fill:#000000;width:150px;text-overflow:ellipsis;" text-anchor="end" transform="translate(0,0)" y="92" opacity="1"><tspan>Matthäus</tspan></text><text x="125" style="color:#000000;cursor:default;font-size:11px;fill:#000000;width:150px;text-overflow:ellipsis;" text-anchor="end" transform="translate(0,0)" y="107" opacity="1"><tspan>Gundeldingen</tspan></text><text x="125" style="color:#000000;cursor:default;font-size:11px;fill:#000000;width:150px;text-overflow:ellipsis;" text-anchor="end" transform="translate(0,0)" y="122" opacity="1"><tspan>Am Ring</tspan></text><text x="125" style="color:#000000;cursor:default;font-size:11px;fill:#000000;width:150px;text-overflow:ellipsis;" text-anchor="end" transform="translate(0,0)" y="137" opacity="1"><tspan>St. Johann</tspan></text><text x="125" style="color:#000000;cursor:default;font-size:11px;fill:#000000;width:150px;text-overflow:ellipsis;" text-anchor="end" transform="translate(0,0)" y="152" opacity="1"><tspan>Clara</tspan></text><text x="125" style="color:#000000;cursor:default;font-size:11px;fill:#000000;width:150px;text-overflow:ellipsis;" text-anchor="end" transform="translate(0,0)" y="167" opacity="1"><tspan>Iselin</tspan></text><text x="125" style="color:#000000;cursor:default;font-size:11px;fill:#000000;width:150px;text-overflow:ellipsis;" text-anchor="end" transform="translate(0,0)" y="182" opacity="1"><tspan>Altstadt Grossbasel</tspan></text><text x="125" style="color:#000000;cursor:default;font-size:11px;fill:#000000;width:150px;text-overflow:ellipsis;" text-anchor="end" transform="translate(0,0)" y="197" opacity="1"><tspan>Klybeck</tspan></text><text x="125" style="color:#000000;cursor:default;font-size:11px;fill:#000000;width:150px;text-overflow:ellipsis;" text-anchor="end" transform="translate(0,0)" y="212" opacity="1"><tspan>Kleinhüningen</tspan></text><text x="125" style="color:#000000;cursor:default;font-size:11px;fill:#000000;width:150px;text-overflow:ellipsis;" text-anchor="end" transform="translate(0,0)" y="227" opacity="1"><tspan>St. Alban</tspan></text><text x="125" style="color:#000000;cursor:default;font-size:11px;fill:#000000;width:150px;text-overflow:ellipsis;" text-anchor="end" transform="translate(0,0)" y="242" opacity="1"><tspan>Gotthelf</tspan></text><text x="125" style="color:#000000;cursor:default;font-size:11px;fill:#000000;width:150px;text-overflow:ellipsis;" text-anchor="end" transform="translate(0,0)" y="257" opacity="1"><tspan>Breite</tspan></text><text x="125" style="color:#000000;cursor:default;font-size:11px;fill:#000000;width:150px;text-overflow:ellipsis;" text-anchor="end" transform="translate(0,0)" y="272" opacity="1"><tspan>Wettstein</tspan></text><text x="125" style="color:#000000;cursor:default;font-size:11px;fill:#000000;width:150px;text-overflow:ellipsis;" text-anchor="end" transform="translate(0,0)" y="287" opacity="1"><tspan>Bettingen</tspan></text><text x="125" style="color:#000000;cursor:default;font-size:11px;fill:#000000;width:150px;text-overflow:ellipsis;" text-anchor="end" transform="translate(0,0)" y="302" opacity="1"><tspan>Hirzbrunnen</tspan></text><text x="125" style="color:#000000;cursor:default;font-size:11px;fill:#000000;width:150px;text-overflow:ellipsis;" text-anchor="end" transform="translate(0,0)" y="317" opacity="1"><tspan>Bachletten</tspan></text><text x="125" style="color:#000000;cursor:default;font-size:11px;fill:#000000;width:150px;text-overflow:ellipsis;" text-anchor="end" transform="translate(0,0)" y="332" opacity="1"><tspan>Bruderholz</tspan></text><text x="125" style="color:#000000;cursor:default;font-size:11px;fill:#000000;width:150px;text-overflow:ellipsis;" text-anchor="end" transform="translate(0,0)" y="347" opacity="1"><tspan>Riehen</tspan></text></g><g class="highcharts-axis-labels highcharts-yaxis-labels"><text x="140" style="color:#000000;cursor:default;font-size:11px;fill:#000000;" text-anchor="middle" transform="translate(0,0)" y="369" opacity="1">0%</text><text x="207" style="color:#000000;cursor:default;font-size:11px;fill:#000000;" text-anchor="middle" transform="translate(0,0)" y="369" opacity="1">10%</text><text x="274" style="color:#000000;cursor:default;font-size:11px;fill:#000000;" text-anchor="middle" transform="translate(0,0)" y="369" opacity="1">20%</text><text x="341" style="color:#000000;cursor:default;font-size:11px;fill:#000000;" text-anchor="middle" transform="translate(0,0)" y="369" opacity="1">30%</text><text x="408" style="color:#000000;cursor:default;font-size:11px;fill:#000000;" text-anchor="middle" transform="translate(0,0)" y="369" opacity="1">40%</text><text x="465.925" style="color:#000000;cursor:default;font-size:11px;fill:#000000;" text-anchor="middle" transform="translate(0,0)" y="369" opacity="1">50%</text></g><g class="highcharts-tooltip" style="cursor:default;padding:0;pointer-events:none;white-space:nowrap;" transform="translate(0,-9000000000)"><path fill="none" d="M 3.5 0.5 L 13.5 0.5 C 16.5 0.5 16.5 0.5 16.5 3.5 L 16.5 28.5 C 16.5 31.5 16.5 31.5 13.5 31.5 L 3.5 31.5 C 0.5 31.5 0.5 31.5 0.5 28.5 L 0.5 3.5 C 0.5 0.5 0.5 0.5 3.5 0.5" isshadow="true" stroke="black" stroke-opacity="0.049999999999999996" stroke-width="5" transform="translate(1, 1)"></path><path fill="none" d="M 3.5 0.5 L 13.5 0.5 C 16.5 0.5 16.5 0.5 16.5 3.5 L 16.5 28.5 C 16.5 31.5 16.5 31.5 13.5 31.5 L 3.5 31.5 C 0.5 31.5 0.5 31.5 0.5 28.5 L 0.5 3.5 C 0.5 0.5 0.5 0.5 3.5 0.5" isshadow="true" stroke="black" stroke-opacity="0.09999999999999999" stroke-width="3" transform="translate(1, 1)"></path><path fill="none" d="M 3.5 0.5 L 13.5 0.5 C 16.5 0.5 16.5 0.5 16.5 3.5 L 16.5 28.5 C 16.5 31.5 16.5 31.5 13.5 31.5 L 3.5 31.5 C 0.5 31.5 0.5 31.5 0.5 28.5 L 0.5 3.5 C 0.5 0.5 0.5 0.5 3.5 0.5" isshadow="true" stroke="black" stroke-opacity="0.15" stroke-width="1" transform="translate(1, 1)"></path><path fill="rgba(249, 249, 249, .85)" d="M 3.5 0.5 L 13.5 0.5 C 16.5 0.5 16.5 0.5 16.5 3.5 L 16.5 28.5 C 16.5 31.5 16.5 31.5 13.5 31.5 L 3.5 31.5 C 0.5 31.5 0.5 31.5 0.5 28.5 L 0.5 3.5 C 0.5 0.5 0.5 0.5 3.5 0.5"></path><text x="8" style="font-size:12px;color:#333333;fill:#333333;" y="20"></text></g><text x="10" text-anchor="start" style="cursor:default;color:#000000;font-size:10px;fill:#000000;" y="398"><tspan>Quelle: Statistisches Amt Basel-Stadt, kantonale Bevölkerungsstatistik</tspan></text></svg>