<svg xmlns:xlink="http://www.w3.org/1999/xlink" version="1.1" style="font-family:arial;font-size:12px;" xmlns="http://www.w3.org/2000/svg" viewBox="0 0 485 415"><desc>Created with Highcharts 4.2.6</desc><defs><clipPath id="highcharts-5"><rect x="0" y="0" width="438" height="230"></rect></clipPath></defs><rect x="0" y="0" width="485" height="415" fill="#fbfbfb" class=" highcharts-background"></rect><g class="highcharts-grid"></g><g class="highcharts-grid"><path fill="none" d="M 37 350.5 L 475 350.5" stroke="#D8D8D8" stroke-width="1" opacity="1"></path><path fill="none" d="M 37 293.5 L 475 293.5" stroke="#D8D8D8" stroke-width="1" opacity="1"></path><path fill="none" d="M 37 235.5 L 475 235.5" stroke="#D8D8D8" stroke-width="1" opacity="1"></path><path fill="none" d="M 37 178.5 L 475 178.5" stroke="#D8D8D8" stroke-width="1" opacity="1"></path><path fill="none" d="M 37 119.5 L 475 119.5" stroke="#D8D8D8" stroke-width="1" opacity="1"></path></g><g class="highcharts-axis"><path fill="none" d="M 37 350.5 L 475 350.5" stroke="#C0D0E0" stroke-width="1"></path></g><g class="highcharts-axis"></g><g class="highcharts-series-group"><g class="highcharts-series highcharts-series-0" transform="translate(37,120) scale(1 1)" clip-path="url(#highcharts-5)"><path fill="none" d="M 4.294117647055 89.125 L 52.006535947709 97.17499999999998 L 99.718954248364 102.35000000000001 L 147.43137254902 105.22500000000001 L 195.14379084967 109.825 L 242.85620915033 110.97500000000001 L 290.56862745098 114.425 L 338.28104575164 117.3 L 385.99346405229 122.47500000000001 L 433.70588235295 122.47500000000001" stroke="#69929B" stroke-width="2" stroke-linejoin="round" stroke-linecap="round"></path></g><g class="highcharts-markers highcharts-series-0" transform="translate(37,120) scale(1 1)" clip-path="none"><path fill="#69929B" d="M 433 118.47500000000001 C 438.328 118.47500000000001 438.328 126.47500000000001 433 126.47500000000001 C 427.672 126.47500000000001 427.672 118.47500000000001 433 118.47500000000001 Z"></path><path fill="#69929B" d="M 385 118.47500000000001 C 390.328 118.47500000000001 390.328 126.47500000000001 385 126.47500000000001 C 379.672 126.47500000000001 379.672 118.47500000000001 385 118.47500000000001 Z"></path><path fill="#69929B" d="M 338 113.3 C 343.328 113.3 343.328 121.3 338 121.3 C 332.672 121.3 332.672 113.3 338 113.3 Z"></path><path fill="#69929B" d="M 290 110.425 C 295.328 110.425 295.328 118.425 290 118.425 C 284.672 118.425 284.672 110.425 290 110.425 Z"></path><path fill="#69929B" d="M 242 106.97500000000001 C 247.328 106.97500000000001 247.328 114.97500000000001 242 114.97500000000001 C 236.672 114.97500000000001 236.672 106.97500000000001 242 106.97500000000001 Z"></path><path fill="#69929B" d="M 195 105.825 C 200.328 105.825 200.328 113.825 195 113.825 C 189.672 113.825 189.672 105.825 195 105.825 Z"></path><path fill="#69929B" d="M 147 101.22500000000001 C 152.328 101.22500000000001 152.328 109.22500000000001 147 109.22500000000001 C 141.672 109.22500000000001 141.672 101.22500000000001 147 101.22500000000001 Z"></path><path fill="#69929B" d="M 99 98.35000000000001 C 104.328 98.35000000000001 104.328 106.35000000000001 99 106.35000000000001 C 93.672 106.35000000000001 93.672 98.35000000000001 99 98.35000000000001 Z"></path><path fill="#69929B" d="M 52 93.17499999999998 C 57.328 93.17499999999998 57.328 101.17499999999998 52 101.17499999999998 C 46.672 101.17499999999998 46.672 93.17499999999998 52 93.17499999999998 Z"></path><path fill="#69929B" d="M 4 85.125 C 9.328 85.125 9.328 93.125 4 93.125 C -1.328 93.125 -1.328 85.125 4 85.125 Z"></path></g><g class="highcharts-series highcharts-series-1" transform="translate(37,120) scale(1 1)" clip-path="url(#highcharts-5)"><path fill="none" d="M 4.294117647055 177.675 L 52.006535947709 177.675 L 99.718954248364 178.825 L 147.43137254902 182.275 L 195.14379084967 183.425 L 242.85620915033 181.7 L 290.56862745098 185.15 L 338.28104575164 184 L 385.99346405229 185.15 L 433.70588235295 185.725" stroke="#672773" stroke-width="2" stroke-linejoin="round" stroke-linecap="round"></path></g><g class="highcharts-markers highcharts-series-1" transform="translate(37,120) scale(1 1)" clip-path="none"></g><g class="highcharts-series highcharts-series-2" transform="translate(37,120) scale(1 1)" clip-path="url(#highcharts-5)"><path fill="none" d="M 4.294117647055 109.25 L 52.006535947709 114.425 L 99.718954248364 121.325 L 147.43137254902 129.375 L 195.14379084967 133.39999999999998 L 242.85620915033 138.575 L 290.56862745098 143.75 L 338.28104575164 144.325 L 385.99346405229 146.05 L 433.70588235295 145.47500000000002" stroke="#007A2F" stroke-width="2" stroke-linejoin="round" stroke-linecap="round"></path></g><g class="highcharts-markers highcharts-series-2" transform="translate(37,120) scale(1 1)" clip-path="none"></g><g class="highcharts-series highcharts-series-3" transform="translate(37,120) scale(1 1)" clip-path="url(#highcharts-5)"><path fill="none" d="M 4.294117647055 104.075 L 52.006535947709 110.97500000000001 L 99.718954248364 114.425 L 147.43137254902 115.575 L 195.14379084967 115.575 L 242.85620915033 115.575 L 290.56862745098 117.3 L 338.28104575164 120.175 L 385.99346405229 125.35000000000001 L 433.70588235295 128.8" stroke="#73BA7C" stroke-width="2" stroke-linejoin="round" stroke-linecap="round"></path></g><g class="highcharts-markers highcharts-series-3" transform="translate(37,120) scale(1 1)" clip-path="none"></g><g class="highcharts-series highcharts-series-4" transform="translate(37,120) scale(1 1)" clip-path="url(#highcharts-5)"><path fill="none" d="M 4.294117647055 37.375 L 52.006535947709 35.650000000000006 L 99.718954248364 37.375 L 147.43137254902 40.25 L 195.14379084967 40.82500000000002 L 242.85620915033 42.54999999999998 L 290.56862745098 45.42499999999998 L 338.28104575164 46 L 385.99346405229 49.45000000000002 L 433.70588235295 52.900000000000006" stroke="#FABD24" stroke-width="2" stroke-linejoin="round" stroke-linecap="round"></path></g><g class="highcharts-markers highcharts-series-4" transform="translate(37,120) scale(1 1)" clip-path="none"></g><g class="highcharts-series highcharts-series-5" transform="translate(37,120) scale(1 1)" clip-path="url(#highcharts-5)"><path fill="none" d="M 4.294117647055 13.224999999999994 L 52.006535947709 14.375 L 99.718954248364 20.700000000000017 L 147.43137254902 17.825000000000017 L 195.14379084967 18.974999999999994 L 242.85620915033 22.424999999999983 L 290.56862745098 28.174999999999983 L 338.28104575164 33.349999999999994 L 385.99346405229 40.25 L 433.70588235295 41.974999999999994" stroke="#D3E2E5" stroke-width="2" stroke-linejoin="round" stroke-linecap="round"></path></g><g class="highcharts-markers highcharts-series-5" transform="translate(37,120) scale(1 1)" clip-path="none"></g><g class="highcharts-series highcharts-series-6" transform="translate(37,120) scale(1 1)" clip-path="url(#highcharts-5)"><path fill="none" d="M 4.294117647055 80.5 L 52.006535947709 73.6 L 99.718954248364 83.95000000000002 L 147.43137254902 82.225 L 195.14379084967 95.45000000000002 L 242.85620915033 75.32500000000002 L 290.56862745098 69 L 338.28104575164 70.725 L 385.99346405229 69 L 433.70588235295 61.525000000000006" stroke="#9F7C5A" stroke-width="2" stroke-linejoin="round" stroke-linecap="round"></path></g><g class="highcharts-markers highcharts-series-6" transform="translate(37,120) scale(1 1)" clip-path="none"></g><g class="highcharts-series highcharts-series-7" transform="translate(37,120) scale(1 1)" clip-path="url(#highcharts-5)"><path fill="none" d="M 4.294117647055 147.2 L 52.006535947709 150.075 L 99.718954248364 146.625 L 147.43137254902 139.72500000000002 L 195.14379084967 148.925 L 242.85620915033 154.675 L 290.56862745098 151.8 L 338.28104575164 150.64999999999998 L 385.99346405229 142.60000000000002 L 433.70588235295 146.05" stroke="#E7CFE2" stroke-width="2" stroke-linejoin="round" stroke-linecap="round"></path></g><g class="highcharts-markers highcharts-series-7" transform="translate(37,120) scale(1 1)" clip-path="none"></g><g class="highcharts-series highcharts-series-8" transform="translate(37,120) scale(1 1)" clip-path="url(#highcharts-5)"><path fill="none" d="M 4.294117647055 145.47500000000002 L 52.006535947709 143.175 L 99.718954248364 152.95 L 147.43137254902 157.55 L 195.14379084967 148.925 L 242.85620915033 150.64999999999998 L 290.56862745098 152.375 L 338.28104575164 151.22500000000002 L 385.99346405229 159.27499999999998 L 433.70588235295 155.825" stroke="#FF8028" stroke-width="2" stroke-linejoin="round" stroke-linecap="round"></path></g><g class="highcharts-markers highcharts-series-8" transform="translate(37,120) scale(1 1)" clip-path="none"></g></g><text x="10" text-anchor="start" class="highcharts-title" style="color:#000000;font-size:14;font-weight:bold;fill:#000000;width:421px;" y="19"><tspan>I.01.1.0021 Segregationsindex nach Staatsangehörigkeit seit</tspan><tspan dy="15" x="10">2006</tspan><title>I.01.1.0021 Segregationsindex nach Staatsangehörigkeit seit 2006</title></text><g class="highcharts-legend" transform="translate(30,45)"><g><g><g class="highcharts-legend-item" transform="translate(8,3)"><path fill="none" d="M 0 11 L 16 11" stroke="#69929B" stroke-width="2"></path><path fill="#69929B" d="M 8 7 C 13.328 7 13.328 15 8 15 C 2.6719999999999997 15 2.6719999999999997 7 8 7 Z"></path><text x="21" style="color:#333333;font-size:12px;font-weight:normal;cursor:pointer;fill:#333333;" text-anchor="start" y="15">Ausland</text></g><g class="highcharts-legend-item" transform="translate(94,3)"><path fill="none" d="M 0 11 L 16 11" stroke="#672773" stroke-width="2"></path><text x="21" y="15" style="color:#333333;font-size:12px;font-weight:normal;cursor:pointer;fill:#333333;" text-anchor="start">Deutschland</text></g><g class="highcharts-legend-item" transform="translate(204,3)"><path fill="none" d="M 0 11 L 16 11" stroke="#007A2F" stroke-width="2"></path><text x="21" y="15" style="color:#333333;font-size:12px;font-weight:normal;cursor:pointer;fill:#333333;" text-anchor="start">Italien</text></g><g class="highcharts-legend-item" transform="translate(278,3)"><path fill="none" d="M 0 11 L 16 11" stroke="#73BA7C" stroke-width="2"></path><text x="21" y="15" style="color:#333333;font-size:12px;font-weight:normal;cursor:pointer;fill:#333333;" text-anchor="start">Spanien</text></g><g class="highcharts-legend-item" transform="translate(365,3)"><path fill="none" d="M 0 11 L 16 11" stroke="#FABD24" stroke-width="2"></path><text x="21" y="15" style="color:#333333;font-size:12px;font-weight:normal;cursor:pointer;fill:#333333;" text-anchor="start">Türkei</text></g><g class="highcharts-legend-item" transform="translate(8,22)"><path fill="none" d="M 0 11 L 16 11" stroke="#D3E2E5" stroke-width="2"></path><text x="21" y="15" style="color:#333333;font-size:12px;font-weight:normal;cursor:pointer;fill:#333333;" text-anchor="start"><tspan>Ehem. Jugoslawien ohne SLO</tspan></text></g><g class="highcharts-legend-item" transform="translate(214,22)"><path fill="none" d="M 0 11 L 16 11" stroke="#9F7C5A" stroke-width="2"></path><text x="21" y="15" style="color:#333333;font-size:12px;font-weight:normal;cursor:pointer;fill:#333333;" text-anchor="start"><tspan>Maghreb und Ägypten</tspan></text></g><g class="highcharts-legend-item" transform="translate(8,41)"><path fill="none" d="M 0 11 L 16 11" stroke="#E7CFE2" stroke-width="2"></path><text x="21" y="15" style="color:#333333;font-size:12px;font-weight:normal;cursor:pointer;fill:#333333;" text-anchor="start">EU-Oststaaten</text></g><g class="highcharts-legend-item" transform="translate(128,41)"><path fill="none" d="M 0 11 L 16 11" stroke="#FF8028" stroke-width="2"></path><text x="21" y="15" style="color:#333333;font-size:12px;font-weight:normal;cursor:pointer;fill:#333333;" text-anchor="start"><tspan>Mittel- und Südamerika</tspan></text></g></g></g></g><g class="highcharts-axis-labels highcharts-xaxis-labels"><text x="41.294117647054996" style="color:#000000;cursor:default;font-size:11px;fill:#000000;" text-anchor="middle" transform="translate(0,0)" y="369" opacity="1">2006</text><text x="89.00653594770944" style="color:#000000;cursor:default;font-size:11px;fill:#000000;" text-anchor="middle" transform="translate(0,0)" y="369" opacity="1">2007</text><text x="136.7189542483639" style="color:#000000;cursor:default;font-size:11px;fill:#000000;" text-anchor="middle" transform="translate(0,0)" y="369" opacity="1">2008</text><text x="184.43137254901833" style="color:#000000;cursor:default;font-size:11px;fill:#000000;" text-anchor="middle" transform="translate(0,0)" y="369" opacity="1">2009</text><text x="232.1437908496728" style="color:#000000;cursor:default;font-size:11px;fill:#000000;" text-anchor="middle" transform="translate(0,0)" y="369" opacity="1">2010</text><text x="279.85620915032723" style="color:#000000;cursor:default;font-size:11px;fill:#000000;" text-anchor="middle" transform="translate(0,0)" y="369" opacity="1">2011</text><text x="327.5686274509817" style="color:#000000;cursor:default;font-size:11px;fill:#000000;" text-anchor="middle" transform="translate(0,0)" y="369" opacity="1">2012</text><text x="375.28104575163616" style="color:#000000;cursor:default;font-size:11px;fill:#000000;" text-anchor="middle" transform="translate(0,0)" y="369" opacity="1">2013</text><text x="422.99346405229056" style="color:#000000;cursor:default;font-size:11px;fill:#000000;" text-anchor="middle" transform="translate(0,0)" y="369" opacity="1">2014</text><text x="463" style="color:#000000;cursor:default;font-size:11px;fill:#000000;" text-anchor="middle" transform="translate(0,0)" y="369" opacity="1">2015</text></g><g class="highcharts-axis-labels highcharts-yaxis-labels"><text x="22" style="color:#000000;cursor:default;font-size:11px;fill:#000000;width:150px;text-overflow:clip;" text-anchor="end" transform="translate(0,0)" y="355" opacity="1"><tspan>0</tspan></text><text x="22" style="color:#000000;cursor:default;font-size:11px;fill:#000000;width:150px;text-overflow:clip;" text-anchor="end" transform="translate(0,0)" y="298" opacity="1"><tspan>10</tspan></text><text x="22" style="color:#000000;cursor:default;font-size:11px;fill:#000000;width:150px;text-overflow:clip;" text-anchor="end" transform="translate(0,0)" y="240" opacity="1"><tspan>20</tspan></text><text x="22" style="color:#000000;cursor:default;font-size:11px;fill:#000000;width:150px;text-overflow:clip;" text-anchor="end" transform="translate(0,0)" y="183" opacity="1"><tspan>30</tspan></text><text x="22" style="color:#000000;cursor:default;font-size:11px;fill:#000000;width:150px;text-overflow:clip;" text-anchor="end" transform="translate(0,0)" y="125" opacity="1"><tspan>40</tspan></text></g><g class="highcharts-tooltip" style="cursor:default;padding:0;pointer-events:none;white-space:nowrap;" transform="translate(0,-9000000000)"><path fill="none" d="M 3.5 0.5 L 13.5 0.5 C 16.5 0.5 16.5 0.5 16.5 3.5 L 16.5 13.5 C 16.5 16.5 16.5 16.5 13.5 16.5 L 3.5 16.5 C 0.5 16.5 0.5 16.5 0.5 13.5 L 0.5 3.5 C 0.5 0.5 0.5 0.5 3.5 0.5"  stroke="black" stroke-opacity="0.049999999999999996" stroke-width="5" transform="translate(1, 1)"></path><path fill="none" d="M 3.5 0.5 L 13.5 0.5 C 16.5 0.5 16.5 0.5 16.5 3.5 L 16.5 13.5 C 16.5 16.5 16.5 16.5 13.5 16.5 L 3.5 16.5 C 0.5 16.5 0.5 16.5 0.5 13.5 L 0.5 3.5 C 0.5 0.5 0.5 0.5 3.5 0.5"  stroke="black" stroke-opacity="0.09999999999999999" stroke-width="3" transform="translate(1, 1)"></path><path fill="none" d="M 3.5 0.5 L 13.5 0.5 C 16.5 0.5 16.5 0.5 16.5 3.5 L 16.5 13.5 C 16.5 16.5 16.5 16.5 13.5 16.5 L 3.5 16.5 C 0.5 16.5 0.5 16.5 0.5 13.5 L 0.5 3.5 C 0.5 0.5 0.5 0.5 3.5 0.5"  stroke="black" stroke-opacity="0.15" stroke-width="1" transform="translate(1, 1)"></path><path fill="rgb(249, 249, 249)" fill-opacity=" .85" d="M 3.5 0.5 L 13.5 0.5 C 16.5 0.5 16.5 0.5 16.5 3.5 L 16.5 13.5 C 16.5 16.5 16.5 16.5 13.5 16.5 L 3.5 16.5 C 0.5 16.5 0.5 16.5 0.5 13.5 L 0.5 3.5 C 0.5 0.5 0.5 0.5 3.5 0.5"></path><text x="8" style="font-size:12px;color:#333333;fill:#333333;" y="20"></text></g><text x="10" text-anchor="start" style="cursor:default;color:#000000;font-size:10;fill:#000000;" y="398"><tspan>Quelle: Statistisches Amt Basel-Stadt, kantonale Bevölkerungsstatistik</tspan></text></svg>