<svg xmlns:xlink="http://www.w3.org/1999/xlink" version="1.1" style="font-family:arial;font-size:12px;" xmlns="http://www.w3.org/2000/svg" viewBox="0 0 485 415"><desc>Created with Highcharts 4.2.6</desc><defs><clipPath id="highcharts-5"><rect x="0" y="0" width="417" height="275"></rect></clipPath></defs><rect x="0" y="0" width="485" height="415" fill="#fbfbfb" class=" highcharts-background"></rect><g class="highcharts-grid"></g><g class="highcharts-grid"><path fill="none" d="M 58 350.5 L 475 350.5" stroke="#D8D8D8" stroke-width="1" opacity="1"></path><path fill="none" d="M 58 258.5 L 475 258.5" stroke="#D8D8D8" stroke-width="1" opacity="1"></path><path fill="none" d="M 58 167.5 L 475 167.5" stroke="#D8D8D8" stroke-width="1" opacity="1"></path><path fill="none" d="M 58 74.5 L 475 74.5" stroke="#D8D8D8" stroke-width="1" opacity="1"></path></g><g class="highcharts-axis"><path fill="none" d="M 58 350.5 L 475 350.5" stroke="#C0D0E0" stroke-width="1"></path></g><g class="highcharts-axis"></g><g class="highcharts-series-group"><g class="highcharts-series highcharts-series-0" transform="translate(58,75) scale(1 1)" clip-path="url(#highcharts-5)"><path fill="none" d="M 4.0882352941176 150.535 L 20.441176470588 144.1 L 36.794117647059 140.73583333333335 L 53.147058823529 136.015 L 69.5 130.52416666666667 L 85.852941176471 126.6925 L 102.20588235294 122.87916666666666 L 118.55882352941 119.10249999999999 L 134.91176470588 115.61916666666667 L 151.26470588235 110.23833333333334 L 167.61764705882 105.6275 L 183.97058823529 100.42083333333332 L 200.32352941176 96.25 L 216.67647058824 91.42833333333334 L 233.02941176471 85.35999999999999 L 249.38235294118 80.9325 L 265.73529411765 75.94583333333333 L 282.08823529412 62.360833333333346 L 298.44117647059 55.449166666666656 L 314.79411764706 49.45416666666665 L 331.14705882353 44.540833333333325 L 347.5 38.59166666666667 L 363.85294117647 33.238333333333344 L 380.20588235294 22.64166666666665 L 396.55882352941 17.44416666666666 L 412.91176470588 13.22750000000002" stroke="#008AC3" stroke-width="2" stroke-linejoin="round" stroke-linecap="round"></path></g><g class="highcharts-markers highcharts-series-0" transform="translate(58,75) scale(1 1)" clip-path="none"><path fill="#008AC3" d="M 412 9.22750000000002 C 417.328 9.22750000000002 417.328 17.22750000000002 412 17.22750000000002 C 406.672 17.22750000000002 406.672 9.22750000000002 412 9.22750000000002 Z"></path><path fill="#008AC3" d="M 396 13.44416666666666 C 401.328 13.44416666666666 401.328 21.44416666666666 396 21.44416666666666 C 390.672 21.44416666666666 390.672 13.44416666666666 396 13.44416666666666 Z"></path><path fill="#008AC3" d="M 380 18.64166666666665 C 385.328 18.64166666666665 385.328 26.64166666666665 380 26.64166666666665 C 374.672 26.64166666666665 374.672 18.64166666666665 380 18.64166666666665 Z"></path><path fill="#008AC3" d="M 363 29.238333333333344 C 368.328 29.238333333333344 368.328 37.238333333333344 363 37.238333333333344 C 357.672 37.238333333333344 357.672 29.238333333333344 363 29.238333333333344 Z"></path><path fill="#008AC3" d="M 347 34.59166666666667 C 352.328 34.59166666666667 352.328 42.59166666666667 347 42.59166666666667 C 341.672 42.59166666666667 341.672 34.59166666666667 347 34.59166666666667 Z"></path><path fill="#008AC3" d="M 331 40.540833333333325 C 336.328 40.540833333333325 336.328 48.540833333333325 331 48.540833333333325 C 325.672 48.540833333333325 325.672 40.540833333333325 331 40.540833333333325 Z"></path><path fill="#008AC3" d="M 314 45.45416666666665 C 319.328 45.45416666666665 319.328 53.45416666666665 314 53.45416666666665 C 308.672 53.45416666666665 308.672 45.45416666666665 314 45.45416666666665 Z"></path><path fill="#008AC3" d="M 298 51.449166666666656 C 303.328 51.449166666666656 303.328 59.449166666666656 298 59.449166666666656 C 292.672 59.449166666666656 292.672 51.449166666666656 298 51.449166666666656 Z"></path><path fill="#008AC3" d="M 282 58.360833333333346 C 287.328 58.360833333333346 287.328 66.36083333333335 282 66.36083333333335 C 276.672 66.36083333333335 276.672 58.360833333333346 282 58.360833333333346 Z"></path><path fill="#008AC3" d="M 265 71.94583333333333 C 270.328 71.94583333333333 270.328 79.94583333333333 265 79.94583333333333 C 259.672 79.94583333333333 259.672 71.94583333333333 265 71.94583333333333 Z"></path><path fill="#008AC3" d="M 249 76.9325 C 254.328 76.9325 254.328 84.9325 249 84.9325 C 243.672 84.9325 243.672 76.9325 249 76.9325 Z"></path><path fill="#008AC3" d="M 233 81.35999999999999 C 238.328 81.35999999999999 238.328 89.35999999999999 233 89.35999999999999 C 227.672 89.35999999999999 227.672 81.35999999999999 233 81.35999999999999 Z"></path><path fill="#008AC3" d="M 216 87.42833333333334 C 221.328 87.42833333333334 221.328 95.42833333333334 216 95.42833333333334 C 210.672 95.42833333333334 210.672 87.42833333333334 216 87.42833333333334 Z"></path><path fill="#008AC3" d="M 200 92.25 C 205.328 92.25 205.328 100.25 200 100.25 C 194.672 100.25 194.672 92.25 200 92.25 Z"></path><path fill="#008AC3" d="M 183 96.42083333333332 C 188.328 96.42083333333332 188.328 104.42083333333332 183 104.42083333333332 C 177.672 104.42083333333332 177.672 96.42083333333332 183 96.42083333333332 Z"></path><path fill="#008AC3" d="M 167 101.6275 C 172.328 101.6275 172.328 109.6275 167 109.6275 C 161.672 109.6275 161.672 101.6275 167 101.6275 Z"></path><path fill="#008AC3" d="M 151 106.23833333333334 C 156.328 106.23833333333334 156.328 114.23833333333334 151 114.23833333333334 C 145.672 114.23833333333334 145.672 106.23833333333334 151 106.23833333333334 Z"></path><path fill="#008AC3" d="M 134 111.61916666666667 C 139.328 111.61916666666667 139.328 119.61916666666667 134 119.61916666666667 C 128.672 119.61916666666667 128.672 111.61916666666667 134 111.61916666666667 Z"></path><path fill="#008AC3" d="M 118 115.10249999999999 C 123.328 115.10249999999999 123.328 123.10249999999999 118 123.10249999999999 C 112.672 123.10249999999999 112.672 115.10249999999999 118 115.10249999999999 Z"></path><path fill="#008AC3" d="M 102 118.87916666666666 C 107.328 118.87916666666666 107.328 126.87916666666666 102 126.87916666666666 C 96.672 126.87916666666666 96.672 118.87916666666666 102 118.87916666666666 Z"></path><path fill="#008AC3" d="M 85 122.6925 C 90.328 122.6925 90.328 130.6925 85 130.6925 C 79.672 130.6925 79.672 122.6925 85 122.6925 Z"></path><path fill="#008AC3" d="M 69 126.52416666666667 C 74.328 126.52416666666667 74.328 134.52416666666667 69 134.52416666666667 C 63.672 134.52416666666667 63.672 126.52416666666667 69 126.52416666666667 Z"></path><path fill="#008AC3" d="M 53 132.015 C 58.328 132.015 58.328 140.015 53 140.015 C 47.672 140.015 47.672 132.015 53 132.015 Z"></path><path fill="#008AC3" d="M 36 136.73583333333335 C 41.328 136.73583333333335 41.328 144.73583333333335 36 144.73583333333335 C 30.672 144.73583333333335 30.672 136.73583333333335 36 136.73583333333335 Z"></path><path fill="#008AC3" d="M 20 140.1 C 25.328 140.1 25.328 148.1 20 148.1 C 14.672 148.1 14.672 140.1 20 140.1 Z"></path><path fill="#008AC3" d="M 4 146.535 C 9.328 146.535 9.328 154.535 4 154.535 C -1.328 154.535 -1.328 146.535 4 146.535 Z"></path></g></g><text x="10" text-anchor="start" class="highcharts-title" style="color:#000000;font-size:14px;font-weight:bold;fill:#000000;width:421px;" y="21"><tspan>I.12.1.0001 Grundpfandbelastung in Mio. Franken seit 1990</tspan></text><g class="highcharts-data-labels highcharts-series-0" transform="translate(58,75) scale(1 1)" opacity="1"><g style="" transform="translate(-5,129)"><text x="5" style="font-size:11px;font-weight:bold;color:#000000;text-shadow:0 0 6px #ffffff, 0 0 3px #ffffff;fill:#000000;text-rendering:geometricprecision;" y="16"><tspan>13 578</tspan></text></g><g style="" transform="translate(15,134)" opacity="0" visibility="hidden"><text x="5" style="font-size:11px;font-weight:bold;color:#000000;text-shadow:0 0 6px #ffffff, 0 0 3px #ffffff;fill:#000000;text-rendering:geometricprecision;" y="16"></text></g><g style="" transform="translate(32,131)"><text x="5" style="font-size:11px;font-weight:bold;color:#000000;text-shadow:0 0 6px #ffffff, 0 0 3px #ffffff;fill:#000000;text-rendering:geometricprecision;" y="16"></text></g><g style="" transform="translate(48,126)"><text x="5" style="font-size:11px;font-weight:bold;color:#000000;text-shadow:0 0 6px #ffffff, 0 0 3px #ffffff;fill:#000000;text-rendering:geometricprecision;" y="16"></text></g><g style="" transform="translate(65,121)"><text x="5" style="font-size:11px;font-weight:bold;color:#000000;text-shadow:0 0 6px #ffffff, 0 0 3px #ffffff;fill:#000000;text-rendering:geometricprecision;" y="16"></text></g><g style="" transform="translate(81,117)"><text x="5" style="font-size:11px;font-weight:bold;color:#000000;text-shadow:0 0 6px #ffffff, 0 0 3px #ffffff;fill:#000000;text-rendering:geometricprecision;" y="16"></text></g><g style="" transform="translate(97,113)"><text x="5" style="font-size:11px;font-weight:bold;color:#000000;text-shadow:0 0 6px #ffffff, 0 0 3px #ffffff;fill:#000000;text-rendering:geometricprecision;" y="16"></text></g><g style="" transform="translate(114,109)"><text x="5" style="font-size:11px;font-weight:bold;color:#000000;text-shadow:0 0 6px #ffffff, 0 0 3px #ffffff;fill:#000000;text-rendering:geometricprecision;" y="16"></text></g><g style="" transform="translate(130,106)"><text x="5" style="font-size:11px;font-weight:bold;color:#000000;text-shadow:0 0 6px #ffffff, 0 0 3px #ffffff;fill:#000000;text-rendering:geometricprecision;" y="16"></text></g><g style="" transform="translate(146,100)"><text x="5" style="font-size:11px;font-weight:bold;color:#000000;text-shadow:0 0 6px #ffffff, 0 0 3px #ffffff;fill:#000000;text-rendering:geometricprecision;" y="16"></text></g><g style="" transform="translate(163,96)"><text x="5" style="font-size:11px;font-weight:bold;color:#000000;text-shadow:0 0 6px #ffffff, 0 0 3px #ffffff;fill:#000000;text-rendering:geometricprecision;" y="16"></text></g><g style="" transform="translate(179,90)"><text x="5" style="font-size:11px;font-weight:bold;color:#000000;text-shadow:0 0 6px #ffffff, 0 0 3px #ffffff;fill:#000000;text-rendering:geometricprecision;" y="16"></text></g><g style="" transform="translate(195,86)"><text x="5" style="font-size:11px;font-weight:bold;color:#000000;text-shadow:0 0 6px #ffffff, 0 0 3px #ffffff;fill:#000000;text-rendering:geometricprecision;" y="16"></text></g><g style="" transform="translate(212,81)"><text x="5" style="font-size:11px;font-weight:bold;color:#000000;text-shadow:0 0 6px #ffffff, 0 0 3px #ffffff;fill:#000000;text-rendering:geometricprecision;" y="16"></text></g><g style="" transform="translate(228,75)"><text x="5" style="font-size:11px;font-weight:bold;color:#000000;text-shadow:0 0 6px #ffffff, 0 0 3px #ffffff;fill:#000000;text-rendering:geometricprecision;" y="16"></text></g><g style="" transform="translate(244,71)"><text x="5" style="font-size:11px;font-weight:bold;color:#000000;text-shadow:0 0 6px #ffffff, 0 0 3px #ffffff;fill:#000000;text-rendering:geometricprecision;" y="16"></text></g><g style="" transform="translate(261,66)"><text x="5" style="font-size:11px;font-weight:bold;color:#000000;text-shadow:0 0 6px #ffffff, 0 0 3px #ffffff;fill:#000000;text-rendering:geometricprecision;" y="16"></text></g><g style="" transform="translate(277,52)"><text x="5" style="font-size:11px;font-weight:bold;color:#000000;text-shadow:0 0 6px #ffffff, 0 0 3px #ffffff;fill:#000000;text-rendering:geometricprecision;" y="16"></text></g><g style="" transform="translate(293,45)"><text x="5" style="font-size:11px;font-weight:bold;color:#000000;text-shadow:0 0 6px #ffffff, 0 0 3px #ffffff;fill:#000000;text-rendering:geometricprecision;" y="16"></text></g><g style="" transform="translate(310,39)"><text x="5" style="font-size:11px;font-weight:bold;color:#000000;text-shadow:0 0 6px #ffffff, 0 0 3px #ffffff;fill:#000000;text-rendering:geometricprecision;" y="16"></text></g><g style="" transform="translate(326,35)"><text x="5" style="font-size:11px;font-weight:bold;color:#000000;text-shadow:0 0 6px #ffffff, 0 0 3px #ffffff;fill:#000000;text-rendering:geometricprecision;" y="16"></text></g><g style="" transform="translate(343,29)"><text x="5" style="font-size:11px;font-weight:bold;color:#000000;text-shadow:0 0 6px #ffffff, 0 0 3px #ffffff;fill:#000000;text-rendering:geometricprecision;" y="16"></text></g><g style="" transform="translate(359,23)"><text x="5" style="font-size:11px;font-weight:bold;color:#000000;text-shadow:0 0 6px #ffffff, 0 0 3px #ffffff;fill:#000000;text-rendering:geometricprecision;" y="16"></text></g><g style="" transform="translate(375,13)"><text x="5" style="font-size:11px;font-weight:bold;color:#000000;text-shadow:0 0 6px #ffffff, 0 0 3px #ffffff;fill:#000000;text-rendering:geometricprecision;" y="16"></text></g><g style="" transform="translate(392,7)"><text x="5" style="font-size:11px;font-weight:bold;color:#000000;text-shadow:0 0 6px #ffffff, 0 0 3px #ffffff;fill:#000000;text-rendering:geometricprecision;" y="16"></text></g><g style="" transform="translate(379,13)"><text x="5" style="font-size:11px;font-weight:bold;color:#000000;text-shadow:0 0 6px #ffffff, 0 0 3px #ffffff;fill:#000000;text-rendering:geometricprecision;" y="16"><tspan>28 557</tspan></text></g></g><g class="highcharts-axis-labels highcharts-xaxis-labels"><text x="62.088235294117645" style="color:#000000;cursor:default;font-size:11px;fill:#000000;width:73px;text-overflow:clip;" text-anchor="middle" transform="translate(0,0)" y="369" opacity="1"><tspan>1990</tspan></text><text x="143.85294117647058" style="color:#000000;cursor:default;font-size:11px;fill:#000000;width:73px;text-overflow:clip;" text-anchor="middle" transform="translate(0,0)" y="369" opacity="1"><tspan>1995</tspan></text><text x="225.6176470588235" style="color:#000000;cursor:default;font-size:11px;fill:#000000;width:73px;text-overflow:clip;" text-anchor="middle" transform="translate(0,0)" y="369" opacity="1"><tspan>2000</tspan></text><text x="307.38235294117646" style="color:#000000;cursor:default;font-size:11px;fill:#000000;width:73px;text-overflow:clip;" text-anchor="middle" transform="translate(0,0)" y="369" opacity="1"><tspan>2005</tspan></text><text x="389.1470588235294" style="color:#000000;cursor:default;font-size:11px;fill:#000000;width:73px;text-overflow:clip;" text-anchor="middle" transform="translate(0,0)" y="369" opacity="1"><tspan>2010</tspan></text><text x="463" style="color:#000000;cursor:default;font-size:11px;fill:#000000;width:73px;text-overflow:clip;" text-anchor="middle" transform="translate(0,0)" y="369" opacity="1"><tspan>2015</tspan></text></g><g class="highcharts-axis-labels highcharts-yaxis-labels"><text x="43" style="color:#000000;cursor:default;font-size:11px;fill:#000000;width:150px;text-overflow:clip;" text-anchor="end" transform="translate(0,0)" y="355" opacity="1"><tspan>0</tspan></text><text x="43" style="color:#000000;cursor:default;font-size:11px;fill:#000000;width:150px;text-overflow:clip;" text-anchor="end" transform="translate(0,0)" y="263" opacity="1"><tspan>10 000</tspan></text><text x="43" style="color:#000000;cursor:default;font-size:11px;fill:#000000;width:150px;text-overflow:clip;" text-anchor="end" transform="translate(0,0)" y="172" opacity="1"><tspan>20 000</tspan></text><text x="43" style="color:#000000;cursor:default;font-size:11px;fill:#000000;width:150px;text-overflow:clip;" text-anchor="end" transform="translate(0,0)" y="80" opacity="1"><tspan>30 000</tspan></text></g><g class="highcharts-tooltip" style="cursor:default;padding:0;pointer-events:none;white-space:nowrap;" transform="translate(0,-9000000000)"><path fill="none" d="M 3.5 0.5 L 13.5 0.5 C 16.5 0.5 16.5 0.5 16.5 3.5 L 16.5 13.5 C 16.5 16.5 16.5 16.5 13.5 16.5 L 3.5 16.5 C 0.5 16.5 0.5 16.5 0.5 13.5 L 0.5 3.5 C 0.5 0.5 0.5 0.5 3.5 0.5"  stroke="black" stroke-opacity="0.049999999999999996" stroke-width="5" transform="translate(1, 1)"></path><path fill="none" d="M 3.5 0.5 L 13.5 0.5 C 16.5 0.5 16.5 0.5 16.5 3.5 L 16.5 13.5 C 16.5 16.5 16.5 16.5 13.5 16.5 L 3.5 16.5 C 0.5 16.5 0.5 16.5 0.5 13.5 L 0.5 3.5 C 0.5 0.5 0.5 0.5 3.5 0.5"  stroke="black" stroke-opacity="0.09999999999999999" stroke-width="3" transform="translate(1, 1)"></path><path fill="none" d="M 3.5 0.5 L 13.5 0.5 C 16.5 0.5 16.5 0.5 16.5 3.5 L 16.5 13.5 C 16.5 16.5 16.5 16.5 13.5 16.5 L 3.5 16.5 C 0.5 16.5 0.5 16.5 0.5 13.5 L 0.5 3.5 C 0.5 0.5 0.5 0.5 3.5 0.5"  stroke="black" stroke-opacity="0.15" stroke-width="1" transform="translate(1, 1)"></path><path fill="rgb(249, 249, 249)" fill-opacity=" .85" d="M 3.5 0.5 L 13.5 0.5 C 16.5 0.5 16.5 0.5 16.5 3.5 L 16.5 13.5 C 16.5 16.5 16.5 16.5 13.5 16.5 L 3.5 16.5 C 0.5 16.5 0.5 16.5 0.5 13.5 L 0.5 3.5 C 0.5 0.5 0.5 0.5 3.5 0.5"></path><text x="8" style="font-size:12px;color:#333333;fill:#333333;" y="20"></text></g><text x="10" text-anchor="start" style="cursor:default;color:#000000;font-size:10px;fill:#000000;" y="398"><tspan>Quelle: Grundbuch- und Vermessungsamt  Basel-Stadt</tspan></text></svg>