<svg xmlns:xlink="http://www.w3.org/1999/xlink" version="1.1" style="font-family:arial;font-size:12px;" xmlns="http://www.w3.org/2000/svg" viewBox="0 0 485 415"><desc>Created with Highcharts 4.2.6</desc><defs><clipPath id="highcharts-5"><rect x="0" y="0" width="428" height="230"></rect></clipPath></defs><rect x="0" y="0" width="485" height="415" fill="#fbfbfb" class=" highcharts-background"></rect><g class="highcharts-grid"></g><g class="highcharts-grid"><path fill="none" d="M 47 350.5 L 475 350.5" stroke="#D8D8D8" stroke-width="1" opacity="1"></path><path fill="none" d="M 47 304.5 L 475 304.5" stroke="#D8D8D8" stroke-width="1" opacity="1"></path><path fill="none" d="M 47 258.5 L 475 258.5" stroke="#D8D8D8" stroke-width="1" opacity="1"></path><path fill="none" d="M 47 212.5 L 475 212.5" stroke="#D8D8D8" stroke-width="1" opacity="1"></path><path fill="none" d="M 47 166.5 L 475 166.5" stroke="#D8D8D8" stroke-width="1" opacity="1"></path><path fill="none" d="M 47 120.5 L 475 120.5" stroke="#D8D8D8" stroke-width="1" opacity="1"></path></g><g class="highcharts-axis"><path fill="none" d="M 47 350.5 L 475 350.5" stroke="#C0D0E0" stroke-width="1"></path></g><g class="highcharts-axis"></g><g class="highcharts-series-group"><g class="highcharts-series highcharts-series-0" transform="translate(47,120) scale(1 1)" clip-path="url(#highcharts-5)"><path fill="none" d="M 4.1960784313688 131.56 L 109.09803921568 141.68 L 214 132.48000000000002 L 318.90196078432 126.04 L 423.80392156863 131.56" stroke="#B00000" stroke-width="2" stroke-linejoin="round" stroke-linecap="round"></path></g><g class="highcharts-markers highcharts-series-0" transform="translate(47,120) scale(1 1)" clip-path="none"></g><g class="highcharts-series highcharts-series-1" transform="translate(47,120) scale(1 1)" clip-path="url(#highcharts-5)"><path fill="none" d="M 4.1960784313688 114.08000000000001 L 109.09803921568 124.2 L 214 100.28 L 318.90196078432 102.12 L 423.80392156863 111.32000000000001" stroke="#71A3B5" stroke-width="2" stroke-linejoin="round" stroke-linecap="round"></path></g><g class="highcharts-markers highcharts-series-1" transform="translate(47,120) scale(1 1)" clip-path="none"><path fill="#71A3B5" d="M 423 107.32000000000001 C 428.328 107.32000000000001 428.328 115.32000000000001 423 115.32000000000001 C 417.672 115.32000000000001 417.672 107.32000000000001 423 107.32000000000001 Z"></path><path fill="#71A3B5" d="M 318 98.12 C 323.328 98.12 323.328 106.12 318 106.12 C 312.672 106.12 312.672 98.12 318 98.12 Z"></path><path fill="#71A3B5" d="M 214 96.28 C 219.328 96.28 219.328 104.28 214 104.28 C 208.672 104.28 208.672 96.28 214 96.28 Z"></path><path fill="#71A3B5" d="M 109 120.2 C 114.328 120.2 114.328 128.2 109 128.2 C 103.672 128.2 103.672 120.2 109 120.2 Z"></path><path fill="#71A3B5" d="M 4 110.08000000000001 C 9.328 110.08000000000001 9.328 118.08000000000001 4 118.08000000000001 C -1.328 118.08000000000001 -1.328 110.08000000000001 4 110.08000000000001 Z"></path></g><g class="highcharts-series highcharts-series-2" transform="translate(47,120) scale(1 1)" clip-path="url(#highcharts-5)"><path fill="none" d="M 4.1960784313688 158.24 L 109.09803921568 113.16000000000001 L 214 143.52 L 318.90196078432 119.60000000000001 L 423.80392156863 102.12" stroke="#672773" stroke-width="2" stroke-linejoin="round" stroke-linecap="round"></path></g><g class="highcharts-markers highcharts-series-2" transform="translate(47,120) scale(1 1)" clip-path="none"></g><g class="highcharts-series highcharts-series-3" transform="translate(47,120) scale(1 1)" clip-path="url(#highcharts-5)"><path fill="none" d="M 4.1960784313688 138.92000000000002 L 109.09803921568 136.16000000000003 L 214 92 L 318.90196078432 146.28000000000003 L 423.80392156863 135.24" stroke="#007A2F" stroke-width="2" stroke-linejoin="round" stroke-linecap="round"></path></g><g class="highcharts-markers highcharts-series-3" transform="translate(47,120) scale(1 1)" clip-path="none"></g><g class="highcharts-series highcharts-series-4" transform="translate(47,120) scale(1 1)" clip-path="url(#highcharts-5)"><path fill="none" d="M 4.1960784313688 164.68 L 109.09803921568 165.60000000000002 L 214 113.16000000000001 L 318.90196078432 183.08 L 423.80392156863 144.44" stroke="#73BA7C" stroke-width="2" stroke-linejoin="round" stroke-linecap="round"></path></g><g class="highcharts-markers highcharts-series-4" transform="translate(47,120) scale(1 1)" clip-path="none"></g><g class="highcharts-series highcharts-series-5" transform="translate(47,120) scale(1 1)" clip-path="url(#highcharts-5)"><path fill="none" d="M 4.1960784313688 138 L 109.09803921568 134.32 L 214 63.47999999999999 L 318.90196078432 47.84 L 423.80392156863 86.48000000000002" stroke="#FABD24" stroke-width="2" stroke-linejoin="round" stroke-linecap="round"></path></g><g class="highcharts-markers highcharts-series-5" transform="translate(47,120) scale(1 1)" clip-path="none"></g><g class="highcharts-series highcharts-series-6" transform="translate(47,120) scale(1 1)" clip-path="url(#highcharts-5)"><path fill="none" d="M 4.1960784313688 72.68 L 109.09803921568 133.4 L 214 126.04 L 318.90196078432 101.20000000000002 L 423.80392156863 126.96000000000001" stroke="#D3E2E5" stroke-width="2" stroke-linejoin="round" stroke-linecap="round"></path></g><g class="highcharts-markers highcharts-series-6" transform="translate(47,120) scale(1 1)" clip-path="none"></g></g><text x="10" text-anchor="start" class="highcharts-title" style="color:#000000;font-size:14;font-weight:bold;fill:#000000;width:421px;" y="19"><tspan>I.15.3.0001 Lehrabbruchquote nach Staatsangehörigkeit seit</tspan><tspan dy="15" x="10">2011</tspan><title>I.15.3.0001 Lehrabbruchquote nach Staatsangehörigkeit seit 2011</title></text><g class="highcharts-legend" transform="translate(30,45)"><g><g><g class="highcharts-legend-item" transform="translate(8,3)"><path fill="none" d="M 0 11 L 16 11" stroke="#B00000" stroke-width="2"></path><text x="21" style="color:#333333;font-size:12px;font-weight:normal;cursor:pointer;fill:#333333;" text-anchor="start" y="15">Schweiz</text></g><g class="highcharts-legend-item" transform="translate(95,3)"><path fill="none" d="M 0 11 L 16 11" stroke="#71A3B5" stroke-width="2"></path><path fill="#71A3B5" d="M 8 7 C 13.328 7 13.328 15 8 15 C 2.6719999999999997 15 2.6719999999999997 7 8 7 Z"></path><text x="21" y="15" style="color:#333333;font-size:12px;font-weight:normal;cursor:pointer;fill:#333333;" text-anchor="start">Ausland</text></g><g class="highcharts-legend-item" transform="translate(181,3)"><path fill="none" d="M 0 11 L 16 11" stroke="#672773" stroke-width="2"></path><text x="21" y="15" style="color:#333333;font-size:12px;font-weight:normal;cursor:pointer;fill:#333333;" text-anchor="start">Deutschland</text></g><g class="highcharts-legend-item" transform="translate(291,3)"><path fill="none" d="M 0 11 L 16 11" stroke="#007A2F" stroke-width="2"></path><text x="21" y="15" style="color:#333333;font-size:12px;font-weight:normal;cursor:pointer;fill:#333333;" text-anchor="start">Italien</text></g><g class="highcharts-legend-item" transform="translate(8,22)"><path fill="none" d="M 0 11 L 16 11" stroke="#73BA7C" stroke-width="2"></path><text x="21" y="15" style="color:#333333;font-size:12px;font-weight:normal;cursor:pointer;fill:#333333;" text-anchor="start">Spanien</text></g><g class="highcharts-legend-item" transform="translate(95,22)"><path fill="none" d="M 0 11 L 16 11" stroke="#FABD24" stroke-width="2"></path><text x="21" y="15" style="color:#333333;font-size:12px;font-weight:normal;cursor:pointer;fill:#333333;" text-anchor="start">Türkei</text></g><g class="highcharts-legend-item" transform="translate(170,22)"><path fill="none" d="M 0 11 L 16 11" stroke="#D3E2E5" stroke-width="2"></path><text x="21" y="15" style="color:#333333;font-size:12px;font-weight:normal;cursor:pointer;fill:#333333;" text-anchor="start"><tspan>Ehem. Jugoslavien ohne SLO</tspan></text></g></g></g></g><g class="highcharts-axis-labels highcharts-xaxis-labels"><text x="51.196078431368804" style="color:#000000;cursor:default;font-size:11px;fill:#000000;width:106px;text-overflow:clip;" text-anchor="middle" transform="translate(0,0)" y="369" opacity="1"><tspan>2011</tspan></text><text x="156.0980392156844" style="color:#000000;cursor:default;font-size:11px;fill:#000000;width:106px;text-overflow:clip;" text-anchor="middle" transform="translate(0,0)" y="369" opacity="1"><tspan>2012</tspan></text><text x="261" style="color:#000000;cursor:default;font-size:11px;fill:#000000;width:106px;text-overflow:clip;" text-anchor="middle" transform="translate(0,0)" y="369" opacity="1"><tspan>2013</tspan></text><text x="365.9019607843156" style="color:#000000;cursor:default;font-size:11px;fill:#000000;width:106px;text-overflow:clip;" text-anchor="middle" transform="translate(0,0)" y="369" opacity="1"><tspan>2014</tspan></text><text x="463.4140625" style="color:#000000;cursor:default;font-size:11px;fill:#000000;width:106px;text-overflow:clip;" text-anchor="middle" transform="translate(0,0)" y="369" opacity="1"><tspan>2015</tspan></text></g><g class="highcharts-axis-labels highcharts-yaxis-labels"><text x="32" style="color:#000000;cursor:default;font-size:11px;fill:#000000;width:150px;text-overflow:clip;" text-anchor="end" transform="translate(0,0)" y="355" opacity="1"><tspan>0%</tspan></text><text x="32" style="color:#000000;cursor:default;font-size:11px;fill:#000000;width:150px;text-overflow:clip;" text-anchor="end" transform="translate(0,0)" y="309" opacity="1"><tspan>5%</tspan></text><text x="32" style="color:#000000;cursor:default;font-size:11px;fill:#000000;width:150px;text-overflow:clip;" text-anchor="end" transform="translate(0,0)" y="263" opacity="1"><tspan>10%</tspan></text><text x="32" style="color:#000000;cursor:default;font-size:11px;fill:#000000;width:150px;text-overflow:clip;" text-anchor="end" transform="translate(0,0)" y="217" opacity="1"><tspan>15%</tspan></text><text x="32" style="color:#000000;cursor:default;font-size:11px;fill:#000000;width:150px;text-overflow:clip;" text-anchor="end" transform="translate(0,0)" y="171" opacity="1"><tspan>20%</tspan></text><text x="32" style="color:#000000;cursor:default;font-size:11px;fill:#000000;width:150px;text-overflow:clip;" text-anchor="end" transform="translate(0,0)" y="125" opacity="1"><tspan>25%</tspan></text></g><g class="highcharts-tooltip" style="cursor:default;padding:0;pointer-events:none;white-space:nowrap;" transform="translate(0,-9000000000)"><path fill="none" d="M 3.5 0.5 L 13.5 0.5 C 16.5 0.5 16.5 0.5 16.5 3.5 L 16.5 13.5 C 16.5 16.5 16.5 16.5 13.5 16.5 L 3.5 16.5 C 0.5 16.5 0.5 16.5 0.5 13.5 L 0.5 3.5 C 0.5 0.5 0.5 0.5 3.5 0.5"  stroke="black" stroke-opacity="0.049999999999999996" stroke-width="5" transform="translate(1, 1)"></path><path fill="none" d="M 3.5 0.5 L 13.5 0.5 C 16.5 0.5 16.5 0.5 16.5 3.5 L 16.5 13.5 C 16.5 16.5 16.5 16.5 13.5 16.5 L 3.5 16.5 C 0.5 16.5 0.5 16.5 0.5 13.5 L 0.5 3.5 C 0.5 0.5 0.5 0.5 3.5 0.5"  stroke="black" stroke-opacity="0.09999999999999999" stroke-width="3" transform="translate(1, 1)"></path><path fill="none" d="M 3.5 0.5 L 13.5 0.5 C 16.5 0.5 16.5 0.5 16.5 3.5 L 16.5 13.5 C 16.5 16.5 16.5 16.5 13.5 16.5 L 3.5 16.5 C 0.5 16.5 0.5 16.5 0.5 13.5 L 0.5 3.5 C 0.5 0.5 0.5 0.5 3.5 0.5"  stroke="black" stroke-opacity="0.15" stroke-width="1" transform="translate(1, 1)"></path><path fill="rgb(249, 249, 249)" fill-opacity=" .85" d="M 3.5 0.5 L 13.5 0.5 C 16.5 0.5 16.5 0.5 16.5 3.5 L 16.5 13.5 C 16.5 16.5 16.5 16.5 13.5 16.5 L 3.5 16.5 C 0.5 16.5 0.5 16.5 0.5 13.5 L 0.5 3.5 C 0.5 0.5 0.5 0.5 3.5 0.5"></path><text x="8" style="font-size:12px;color:#333333;fill:#333333;" y="20"></text></g><text x="10" text-anchor="start" style="cursor:default;color:#000000;font-size:10;fill:#000000;" y="398"><tspan>Quelle: Erziehungsdepartement, Fachstelle Lehraufsicht</tspan></text></svg>