<svg xmlns:xlink="http://www.w3.org/1999/xlink" version="1.1" style="font-family:arial;font-size:12px;" xmlns="http://www.w3.org/2000/svg" viewBox="0 0 485 415"><desc>Created with Highcharts 4.2.6</desc><defs><clipPath id="highcharts-5"><rect x="0" y="0" width="315" height="354"></rect></clipPath></defs><rect x="0" y="0" width="485" height="415" fill="#fbfbfb" class=" highcharts-background"></rect><g class="highcharts-grid"></g><g class="highcharts-grid"><path fill="none" d="M 120.5 35 L 120.5 350" stroke="#D8D8D8" stroke-width="1" opacity="1"></path><path fill="none" d="M 191.5 35 L 191.5 350" stroke="#D8D8D8" stroke-width="1" opacity="1"></path><path fill="none" d="M 262.5 35 L 262.5 350" stroke="#D8D8D8" stroke-width="1" opacity="1"></path><path fill="none" d="M 332.5 35 L 332.5 350" stroke="#D8D8D8" stroke-width="1" opacity="1"></path><path fill="none" d="M 403.5 35 L 403.5 350" stroke="#D8D8D8" stroke-width="1" opacity="1"></path><path fill="none" d="M 475.5 35 L 475.5 350" stroke="#D8D8D8" stroke-width="1" opacity="1"></path></g><g class="highcharts-axis"><path fill="none" d="M 121 50.5 L 111 50.5" stroke="#FFFFFF" stroke-width="1" opacity="1"></path><path fill="none" d="M 121 65.5 L 111 65.5" stroke="#FFFFFF" stroke-width="1" opacity="1"></path><path fill="none" d="M 121 80.5 L 111 80.5" stroke="#FFFFFF" stroke-width="1" opacity="1"></path><path fill="none" d="M 121 95.5 L 111 95.5" stroke="#FFFFFF" stroke-width="1" opacity="1"></path><path fill="none" d="M 121 110.5 L 111 110.5" stroke="#FFFFFF" stroke-width="1" opacity="1"></path><path fill="none" d="M 121 125.5 L 111 125.5" stroke="#FFFFFF" stroke-width="1" opacity="1"></path><path fill="none" d="M 121 140.5 L 111 140.5" stroke="#FFFFFF" stroke-width="1" opacity="1"></path><path fill="none" d="M 121 155.5 L 111 155.5" stroke="#FFFFFF" stroke-width="1" opacity="1"></path><path fill="none" d="M 121 170.5 L 111 170.5" stroke="#FFFFFF" stroke-width="1" opacity="1"></path><path fill="none" d="M 121 185.5 L 111 185.5" stroke="#FFFFFF" stroke-width="1" opacity="1"></path><path fill="none" d="M 121 200.5 L 111 200.5" stroke="#FFFFFF" stroke-width="1" opacity="1"></path><path fill="none" d="M 121 215.5 L 111 215.5" stroke="#FFFFFF" stroke-width="1" opacity="1"></path><path fill="none" d="M 121 230.5 L 111 230.5" stroke="#FFFFFF" stroke-width="1" opacity="1"></path><path fill="none" d="M 121 245.5 L 111 245.5" stroke="#FFFFFF" stroke-width="1" opacity="1"></path><path fill="none" d="M 121 260.5 L 111 260.5" stroke="#FFFFFF" stroke-width="1" opacity="1"></path><path fill="none" d="M 121 275.5 L 111 275.5" stroke="#FFFFFF" stroke-width="1" opacity="1"></path><path fill="none" d="M 121 290.5 L 111 290.5" stroke="#FFFFFF" stroke-width="1" opacity="1"></path><path fill="none" d="M 121 305.5 L 111 305.5" stroke="#FFFFFF" stroke-width="1" opacity="1"></path><path fill="none" d="M 121 320.5 L 111 320.5" stroke="#FFFFFF" stroke-width="1" opacity="1"></path><path fill="none" d="M 121 335.5 L 111 335.5" stroke="#FFFFFF" stroke-width="1" opacity="1"></path><path fill="none" d="M 121 350.5 L 111 350.5" stroke="#FFFFFF" stroke-width="1" opacity="1"></path><path fill="none" d="M 121 34.5 L 111 34.5" stroke="#FFFFFF" stroke-width="1" opacity="1"></path><path fill="none" d="M 120.5 35 L 120.5 350" stroke="#C0D0E0" stroke-width="1"></path></g><g class="highcharts-axis"></g><g class="highcharts-series-group"><g class="highcharts-series highcharts-series-0" transform="translate(475,350) rotate(90) scale(-1,1) scale(1 1)" width="354" height="315" clip-path="url(#highcharts-5)"></g><g class="highcharts-markers highcharts-series-0" transform="translate(475,350) rotate(90) scale(-1,1) scale(1 1)" width="354" height="315" clip-path="none"><path fill="#689199" d="M 7 75.79266418063997 C 12.328 75.79266418063997 12.328 83.79266418063997 7 83.79266418063997 C 1.672 83.79266418063997 1.672 75.79266418063997 7 75.79266418063997 Z"></path><path fill="#689199" d="M 22 104.41754471239997 C 27.328 104.41754471239997 27.328 112.41754471239997 22 112.41754471239997 C 16.672 112.41754471239997 16.672 104.41754471239997 22 104.41754471239997 Z"></path><path fill="#689199" d="M 37 121.62879597175998 C 42.328 121.62879597175998 42.328 129.62879597175998 37 129.62879597175998 C 31.672 129.62879597175998 31.672 121.62879597175998 37 121.62879597175998 Z"></path><path fill="#689199" d="M 52 128.62410052304 C 57.328 128.62410052304 57.328 136.62410052304 52 136.62410052304 C 46.672 136.62410052304 46.672 128.62410052304 52 128.62410052304 Z"></path><path fill="#689199" d="M 67 156.14902295167997 C 72.328 156.14902295167997 72.328 164.14902295167997 67 164.14902295167997 C 61.672 164.14902295167997 61.672 156.14902295167997 67 156.14902295167997 Z"></path><path fill="#689199" d="M 82 164.75291575135998 C 87.328 164.75291575135998 87.328 172.75291575135998 82 172.75291575135998 C 76.672 172.75291575135998 76.672 164.75291575135998 82 164.75291575135998 Z"></path><path fill="#689199" d="M 97 186.87059214272 C 102.328 186.87059214272 102.328 194.87059214272 97 194.87059214272 C 91.672 194.87059214272 91.672 186.87059214272 97 186.87059214272 Z"></path><path fill="#689199" d="M 112 190.18888755007998 C 117.328 190.18888755007998 117.328 198.18888755007998 112 198.18888755007998 C 106.672 198.18888755007998 106.672 190.18888755007998 112 190.18888755007998 Z"></path><path fill="#689199" d="M 127 209.784733730216 C 132.328 209.784733730216 132.328 217.784733730216 127 217.784733730216 C 121.672 217.784733730216 121.672 209.784733730216 127 209.784733730216 Z"></path><path fill="#689199" d="M 142 228.340888819016 C 147.328 228.340888819016 147.328 236.340888819016 142 236.340888819016 C 136.672 236.340888819016 136.672 228.340888819016 142 228.340888819016 Z"></path><path fill="#689199" d="M 157 234.857150856536 C 162.328 234.857150856536 162.328 242.857150856536 157 242.857150856536 C 151.672 242.857150856536 151.672 234.857150856536 157 234.857150856536 Z"></path><path fill="#689199" d="M 172 248.035061411864 C 177.328 248.035061411864 177.328 256.03506141186404 172 256.03506141186404 C 166.672 256.03506141186404 166.672 248.035061411864 172 248.035061411864 Z"></path><path fill="#689199" d="M 187 248.743907634704 C 192.328 248.743907634704 192.328 256.743907634704 187 256.743907634704 C 181.672 256.743907634704 181.672 248.743907634704 187 248.743907634704 Z"></path><path fill="#689199" d="M 202 250.659557483912 C 207.328 250.659557483912 207.328 258.659557483912 202 258.659557483912 C 196.672 258.659557483912 196.672 250.659557483912 202 250.659557483912 Z"></path><path fill="#689199" d="M 217 259.462331766992 C 222.328 259.462331766992 222.328 267.462331766992 217 267.462331766992 C 211.672 267.462331766992 211.672 259.462331766992 217 259.462331766992 Z"></path><path fill="#689199" d="M 232 259.963948969784 C 237.328 259.963948969784 237.328 267.963948969784 232 267.963948969784 C 226.672 267.963948969784 226.672 259.963948969784 232 259.963948969784 Z"></path><path fill="#689199" d="M 247 260.25257243528 C 252.328 260.25257243528 252.328 268.25257243528 247 268.25257243528 C 241.672 268.25257243528 241.672 260.25257243528 247 260.25257243528 Z"></path><path fill="#689199" d="M 262 260.981108857448 C 267.328 260.981108857448 267.328 268.981108857448 262 268.981108857448 C 256.672 268.981108857448 256.672 260.981108857448 262 260.981108857448 Z"></path><path fill="#689199" d="M 277 268.109313657656 C 282.328 268.109313657656 282.328 276.109313657656 277 276.109313657656 C 271.672 276.109313657656 271.672 268.109313657656 277 268.109313657656 Z"></path><path fill="#689199" d="M 292 276.898969083056 C 297.328 276.898969083056 297.328 284.898969083056 292 284.898969083056 C 286.672 284.898969083056 286.672 276.898969083056 292 276.898969083056 Z"></path><path fill="#689199" d="M 307 286.478127320384 C 312.328 286.478127320384 312.328 294.478127320384 307 294.478127320384 C 301.672 294.478127320384 301.672 286.478127320384 307 286.478127320384 Z"></path></g></g><text x="10" text-anchor="start" class="highcharts-title" style="color:#000000;font-size:14;font-weight:bold;font-family:arial;fill:#000000;width:421px;" y="19"><tspan>I.18.2.0003 Einkommenssteuer pro Veranlagung</tspan></text><g class="highcharts-axis-labels highcharts-xaxis-labels"><text x="106" style="color:#000000;cursor:default;font-size:11px;fill:#000000;width:150px;text-overflow:clip;" text-anchor="end" transform="translate(0,0)" y="48" opacity="1"><tspan>Klybeck</tspan></text><text x="106" style="color:#000000;cursor:default;font-size:11px;fill:#000000;width:150px;text-overflow:clip;" text-anchor="end" transform="translate(0,0)" y="63" opacity="1"><tspan>Kleinhüningen</tspan></text><text x="106" style="color:#000000;cursor:default;font-size:11px;fill:#000000;width:150px;text-overflow:clip;" text-anchor="end" transform="translate(0,0)" y="78" opacity="1"><tspan>Rosental</tspan></text><text x="106" style="color:#000000;cursor:default;font-size:11px;fill:#000000;width:150px;text-overflow:clip;" text-anchor="end" transform="translate(0,0)" y="93" opacity="1"><tspan>Matthäus</tspan></text><text x="106" style="color:#000000;cursor:default;font-size:11px;fill:#000000;width:150px;text-overflow:clip;" text-anchor="end" transform="translate(0,0)" y="108" opacity="1"><tspan>St. Johann</tspan></text><text x="106" style="color:#000000;cursor:default;font-size:11px;fill:#000000;width:150px;text-overflow:clip;" text-anchor="end" transform="translate(0,0)" y="123" opacity="1"><tspan>Iselin</tspan></text><text x="106" style="color:#000000;cursor:default;font-size:11px;fill:#000000;width:150px;text-overflow:clip;" text-anchor="end" transform="translate(0,0)" y="138" opacity="1"><tspan>Clara</tspan></text><text x="106" style="color:#000000;cursor:default;font-size:11px;fill:#000000;width:150px;text-overflow:clip;" text-anchor="end" transform="translate(0,0)" y="153" opacity="1"><tspan>Gundeldingen</tspan></text><text x="106" style="color:#000000;cursor:default;font-size:11px;fill:#000000;width:150px;text-overflow:clip;" text-anchor="end" transform="translate(0,0)" y="168" opacity="1"><tspan>Hirzbrunnen</tspan></text><text x="106" style="color:#000000;cursor:default;font-size:11px;fill:#000000;width:150px;text-overflow:clip;" text-anchor="end" transform="translate(0,0)" y="183" opacity="1"><tspan>Breite</tspan></text><text x="106" style="color:#000000;cursor:default;font-size:11px;fill:#000000;width:150px;text-overflow:clip;" text-anchor="end" transform="translate(0,0)" y="198" opacity="1"><tspan>Altstadt Kleinbasel</tspan></text><text x="106" style="color:#000000;cursor:default;font-size:11px;fill:#000000;width:150px;text-overflow:clip;" text-anchor="end" transform="translate(0,0)" y="213" opacity="1"><tspan>Gotthelf</tspan></text><text x="106" style="color:#000000;cursor:default;font-size:11px;fill:#000000;width:150px;text-overflow:clip;" text-anchor="end" transform="translate(0,0)" y="228" opacity="1"><tspan>Wettstein</tspan></text><text x="106" style="color:#000000;cursor:default;font-size:11px;fill:#000000;width:150px;text-overflow:clip;" text-anchor="end" transform="translate(0,0)" y="243" opacity="1"><tspan>Bachletten</tspan></text><text x="106" style="color:#000000;cursor:default;font-size:11px;fill:#000000;width:150px;text-overflow:clip;" text-anchor="end" transform="translate(0,0)" y="258" opacity="1"><tspan>Am Ring</tspan></text><text x="106" style="color:#000000;cursor:default;font-size:11px;fill:#000000;width:150px;text-overflow:clip;" text-anchor="end" transform="translate(0,0)" y="273" opacity="1"><tspan>Riehen</tspan></text><text x="106" style="color:#000000;cursor:default;font-size:11px;fill:#000000;width:150px;text-overflow:clip;" text-anchor="end" transform="translate(0,0)" y="288" opacity="1"><tspan>Bettingen</tspan></text><text x="106" style="color:#000000;cursor:default;font-size:11px;fill:#000000;width:150px;text-overflow:clip;" text-anchor="end" transform="translate(0,0)" y="303" opacity="1"><tspan>St. Alban</tspan></text><text x="106" style="color:#000000;cursor:default;font-size:11px;fill:#000000;width:150px;text-overflow:clip;" text-anchor="end" transform="translate(0,0)" y="318" opacity="1"><tspan>Vorstädte</tspan></text><text x="106" style="color:#000000;cursor:default;font-size:11px;fill:#000000;width:150px;text-overflow:clip;" text-anchor="end" transform="translate(0,0)" y="333" opacity="1"><tspan>Altstadt Grossbasel</tspan></text><text x="106" style="color:#000000;cursor:default;font-size:11px;fill:#000000;width:150px;text-overflow:clip;" text-anchor="end" transform="translate(0,0)" y="348" opacity="1"><tspan>Bruderholz</tspan></text></g><g class="highcharts-axis-labels highcharts-yaxis-labels"><text x="121" style="color:#000000;cursor:default;font-size:11px;fill:#000000;width:61px;text-overflow:clip;" text-anchor="middle" transform="translate(0,0)" y="369" opacity="1"><tspan>0</tspan></text><text x="191.8" style="color:#000000;cursor:default;font-size:11px;fill:#000000;width:61px;text-overflow:clip;" text-anchor="middle" transform="translate(0,0)" y="369" opacity="1"><tspan>5 000</tspan></text><text x="262.6" style="color:#000000;cursor:default;font-size:11px;fill:#000000;width:61px;text-overflow:clip;" text-anchor="middle" transform="translate(0,0)" y="369" opacity="1"><tspan>10 000</tspan></text><text x="333.4" style="color:#000000;cursor:default;font-size:11px;fill:#000000;width:61px;text-overflow:clip;" text-anchor="middle" transform="translate(0,0)" y="369" opacity="1"><tspan>15 000</tspan></text><text x="404.2" style="color:#000000;cursor:default;font-size:11px;fill:#000000;width:61px;text-overflow:clip;" text-anchor="middle" transform="translate(0,0)" y="369" opacity="1"><tspan>20 000</tspan></text><text x="458.5" style="color:#000000;cursor:default;font-size:11px;fill:#000000;width:61px;text-overflow:clip;" text-anchor="middle" transform="translate(0,0)" y="369" opacity="1"><tspan>25 000</tspan></text></g><g class="highcharts-tooltip" style="cursor:default;padding:0;pointer-events:none;white-space:nowrap;" transform="translate(0,-9000000000)"><path fill="none" d="M 3.5 0.5 L 13.5 0.5 C 16.5 0.5 16.5 0.5 16.5 3.5 L 16.5 13.5 C 16.5 16.5 16.5 16.5 13.5 16.5 L 3.5 16.5 C 0.5 16.5 0.5 16.5 0.5 13.5 L 0.5 3.5 C 0.5 0.5 0.5 0.5 3.5 0.5"  stroke="black" stroke-opacity="0.049999999999999996" stroke-width="5" transform="translate(1, 1)"></path><path fill="none" d="M 3.5 0.5 L 13.5 0.5 C 16.5 0.5 16.5 0.5 16.5 3.5 L 16.5 13.5 C 16.5 16.5 16.5 16.5 13.5 16.5 L 3.5 16.5 C 0.5 16.5 0.5 16.5 0.5 13.5 L 0.5 3.5 C 0.5 0.5 0.5 0.5 3.5 0.5"  stroke="black" stroke-opacity="0.09999999999999999" stroke-width="3" transform="translate(1, 1)"></path><path fill="none" d="M 3.5 0.5 L 13.5 0.5 C 16.5 0.5 16.5 0.5 16.5 3.5 L 16.5 13.5 C 16.5 16.5 16.5 16.5 13.5 16.5 L 3.5 16.5 C 0.5 16.5 0.5 16.5 0.5 13.5 L 0.5 3.5 C 0.5 0.5 0.5 0.5 3.5 0.5"  stroke="black" stroke-opacity="0.15" stroke-width="1" transform="translate(1, 1)"></path><path fill="rgb(249, 249, 249)" fill-opacity=" .85" d="M 3.5 0.5 L 13.5 0.5 C 16.5 0.5 16.5 0.5 16.5 3.5 L 16.5 13.5 C 16.5 16.5 16.5 16.5 13.5 16.5 L 3.5 16.5 C 0.5 16.5 0.5 16.5 0.5 13.5 L 0.5 3.5 C 0.5 0.5 0.5 0.5 3.5 0.5"></path><text x="8" style="font-size:12px;color:#333333;fill:#333333;" y="20"></text></g><text x="10" text-anchor="start" style="cursor:default;color:#000000;font-size:10;fill:#000000;" y="398"><tspan>Quelle: Statistisches Amt Basel-Stadt, kantonale Steuerstatistik</tspan></text></svg>