<svg version="1.1" style="font-family:Arial;font-size:12px;" xmlns="http://www.w3.org/2000/svg" viewBox="0 0 485 415"><desc>Created with Highcharts 4.2.6</desc><defs><clippath id="highcharts-1"><rect x="0" y="0" width="432" height="281"></rect></clippath></defs><rect x="0" y="0" width="485" height="415" fill="#fbfbfb" class=" highcharts-background"></rect><g class="highcharts-grid"></g><g class="highcharts-grid"><path fill="none" d="M 43 340.5 L 475 340.5" stroke="#D8D8D8" stroke-width="1" opacity="1"></path><path fill="none" d="M 43 312.5 L 475 312.5" stroke="#D8D8D8" stroke-width="1" opacity="1"></path><path fill="none" d="M 43 284.5 L 475 284.5" stroke="#D8D8D8" stroke-width="1" opacity="1"></path><path fill="none" d="M 43 256.5 L 475 256.5" stroke="#D8D8D8" stroke-width="1" opacity="1"></path><path fill="none" d="M 43 228.5 L 475 228.5" stroke="#D8D8D8" stroke-width="1" opacity="1"></path><path fill="none" d="M 43 200.5 L 475 200.5" stroke="#D8D8D8" stroke-width="1" opacity="1"></path><path fill="none" d="M 43 171.5 L 475 171.5" stroke="#D8D8D8" stroke-width="1" opacity="1"></path><path fill="none" d="M 43 143.5 L 475 143.5" stroke="#D8D8D8" stroke-width="1" opacity="1"></path><path fill="none" d="M 43 115.5 L 475 115.5" stroke="#D8D8D8" stroke-width="1" opacity="1"></path><path fill="none" d="M 43 87.5 L 475 87.5" stroke="#D8D8D8" stroke-width="1" opacity="1"></path><path fill="none" d="M 43 58.5 L 475 58.5" stroke="#D8D8D8" stroke-width="1" opacity="1"></path></g><g class="highcharts-axis"><path fill="none" d="M 43 340.5 L 475 340.5" stroke="#C0D0E0" stroke-width="1"></path></g><g class="highcharts-axis"></g><g class="highcharts-series-group"><g class="highcharts-series highcharts-series-0" transform="translate(43,59) scale(1 1)" clip-path="url(#highcharts-1)"><path fill="none" d="M 13.5 85.98599999999999 L 40.5 102.28399999999999 L 67.5 61.819999999999965 L 94.5 65.19199999999998 L 121.5 52.26599999999999 L 148.5 84.862 L 175.5 109.02799999999999 L 202.5 130.384 L 229.5 106.77999999999997 L 256.5 70.81199999999998 L 283.5 51.14199999999997 L 310.5 20.23199999999997 L 337.5 21.355999999999995 L 364.5 50.01799999999997 L 391.5 84.29999999999998 L 418.5 92.72999999999999" stroke="#B375AB" stroke-width="2" stroke-linejoin="round" stroke-linecap="round"></path><path fill="none" d="M 3.5 85.98599999999999 L 13.5 85.98599999999999 L 40.5 102.28399999999999 L 67.5 61.819999999999965 L 94.5 65.19199999999998 L 121.5 52.26599999999999 L 148.5 84.862 L 175.5 109.02799999999999 L 202.5 130.384 L 229.5 106.77999999999997 L 256.5 70.81199999999998 L 283.5 51.14199999999997 L 310.5 20.23199999999997 L 337.5 21.355999999999995 L 364.5 50.01799999999997 L 391.5 84.29999999999998 L 418.5 92.72999999999999 L 428.5 92.72999999999999" stroke-linejoin="round" visibility="visible" stroke="rgba(192,192,192,0.0001)" stroke-width="22" class=" highcharts-tracker" style=""></path></g><g class="highcharts-markers highcharts-series-0 highcharts-tracker" transform="translate(43,59) scale(1 1)" style="" clip-path="none"><path fill="#B375AB" d="M 418 88.72999999999999 C 423.328 88.72999999999999 423.328 96.72999999999999 418 96.72999999999999 C 412.672 96.72999999999999 412.672 88.72999999999999 418 88.72999999999999 Z"></path><path fill="#B375AB" d="M 391 80.29999999999998 C 396.328 80.29999999999998 396.328 88.29999999999998 391 88.29999999999998 C 385.672 88.29999999999998 385.672 80.29999999999998 391 80.29999999999998 Z"></path><path fill="#B375AB" d="M 364 46.01799999999997 C 369.328 46.01799999999997 369.328 54.01799999999997 364 54.01799999999997 C 358.672 54.01799999999997 358.672 46.01799999999997 364 46.01799999999997 Z"></path><path fill="#B375AB" d="M 337 17.355999999999995 C 342.328 17.355999999999995 342.328 25.355999999999995 337 25.355999999999995 C 331.672 25.355999999999995 331.672 17.355999999999995 337 17.355999999999995 Z"></path><path fill="#B375AB" d="M 310 16.23199999999997 C 315.328 16.23199999999997 315.328 24.23199999999997 310 24.23199999999997 C 304.672 24.23199999999997 304.672 16.23199999999997 310 16.23199999999997 Z"></path><path fill="#B375AB" d="M 283 47.14199999999997 C 288.328 47.14199999999997 288.328 55.14199999999997 283 55.14199999999997 C 277.672 55.14199999999997 277.672 47.14199999999997 283 47.14199999999997 Z"></path><path fill="#B375AB" d="M 256 66.81199999999998 C 261.328 66.81199999999998 261.328 74.81199999999998 256 74.81199999999998 C 250.672 74.81199999999998 250.672 66.81199999999998 256 66.81199999999998 Z"></path><path fill="#B375AB" d="M 229 102.77999999999997 C 234.328 102.77999999999997 234.328 110.77999999999997 229 110.77999999999997 C 223.672 110.77999999999997 223.672 102.77999999999997 229 102.77999999999997 Z"></path><path fill="#B375AB" d="M 202 126.38399999999999 C 207.328 126.38399999999999 207.328 134.384 202 134.384 C 196.672 134.384 196.672 126.38399999999999 202 126.38399999999999 Z"></path><path fill="#B375AB" d="M 175 105.02799999999999 C 180.328 105.02799999999999 180.328 113.02799999999999 175 113.02799999999999 C 169.672 113.02799999999999 169.672 105.02799999999999 175 105.02799999999999 Z"></path><path fill="#B375AB" d="M 148 80.862 C 153.328 80.862 153.328 88.862 148 88.862 C 142.672 88.862 142.672 80.862 148 80.862 Z"></path><path fill="#B375AB" d="M 121 48.26599999999999 C 126.328 48.26599999999999 126.328 56.26599999999999 121 56.26599999999999 C 115.672 56.26599999999999 115.672 48.26599999999999 121 48.26599999999999 Z"></path><path fill="#B375AB" d="M 94 61.19199999999998 C 99.328 61.19199999999998 99.328 69.19199999999998 94 69.19199999999998 C 88.672 69.19199999999998 88.672 61.19199999999998 94 61.19199999999998 Z"></path><path fill="#B375AB" d="M 67 57.819999999999965 C 72.328 57.819999999999965 72.328 65.81999999999996 67 65.81999999999996 C 61.672 65.81999999999996 61.672 57.819999999999965 67 57.819999999999965 Z"></path><path fill="#B375AB" d="M 40 98.28399999999999 C 45.328 98.28399999999999 45.328 106.28399999999999 40 106.28399999999999 C 34.672 106.28399999999999 34.672 98.28399999999999 40 98.28399999999999 Z"></path><path fill="#B375AB" d="M 13 81.98599999999999 C 18.328 81.98599999999999 18.328 89.98599999999999 13 89.98599999999999 C 7.672 89.98599999999999 7.672 81.98599999999999 13 81.98599999999999 Z"></path></g></g><text x="10" text-anchor="start" class="highcharts-title" style="color:#000000;font-size:14px;font-weight:bold;fill:#000000;width:421px;" y="21"><tspan>I.19.3.0003 Anzahl Gewaltstraftaten pro 100000</tspan><tspan dy="17" x="10">Einwohner</tspan><title>I.19.3.0003 Anzahl Gewaltstraftaten pro 100000 Einwohner</title></text><g class="highcharts-data-labels highcharts-series-0" visibility="visible" transform="translate(43,59) scale(1 1)"><g style="" transform="translate(-1,62)"><text x="5" style="font-size:11px;font-weight:bold;color:#000000;text-shadow:0 0 6px #FFFFFF, 0 0 3px #FFFFFF;fill:#000000;text-rendering:geometricPrecision;" y="16"><tspan>347</tspan></text></g><g style="" transform="translate(36,78)"><text x="5" style="font-size:11px;font-weight:bold;color:#000000;text-shadow:0 0 6px #FFFFFF, 0 0 3px #FFFFFF;fill:#000000;text-rendering:geometricPrecision;" y="16"></text></g><g style="" transform="translate(63,38)"><text x="5" style="font-size:11px;font-weight:bold;color:#000000;text-shadow:0 0 6px #FFFFFF, 0 0 3px #FFFFFF;fill:#000000;text-rendering:geometricPrecision;" y="16"></text></g><g style="" transform="translate(90,41)"><text x="5" style="font-size:11px;font-weight:bold;color:#000000;text-shadow:0 0 6px #FFFFFF, 0 0 3px #FFFFFF;fill:#000000;text-rendering:geometricPrecision;" y="16"></text></g><g style="" transform="translate(117,28)"><text x="5" style="font-size:11px;font-weight:bold;color:#000000;text-shadow:0 0 6px #FFFFFF, 0 0 3px #FFFFFF;fill:#000000;text-rendering:geometricPrecision;" y="16"></text></g><g style="" transform="translate(144,61)"><text x="5" style="font-size:11px;font-weight:bold;color:#000000;text-shadow:0 0 6px #FFFFFF, 0 0 3px #FFFFFF;fill:#000000;text-rendering:geometricPrecision;" y="16"></text></g><g style="" transform="translate(171,85)"><text x="5" style="font-size:11px;font-weight:bold;color:#000000;text-shadow:0 0 6px #FFFFFF, 0 0 3px #FFFFFF;fill:#000000;text-rendering:geometricPrecision;" y="16"></text></g><g style="" transform="translate(198,106)"><text x="5" style="font-size:11px;font-weight:bold;color:#000000;text-shadow:0 0 6px #FFFFFF, 0 0 3px #FFFFFF;fill:#000000;text-rendering:geometricPrecision;" y="16"></text></g><g style="" transform="translate(225,83)"><text x="5" style="font-size:11px;font-weight:bold;color:#000000;text-shadow:0 0 6px #FFFFFF, 0 0 3px #FFFFFF;fill:#000000;text-rendering:geometricPrecision;" y="16"></text></g><g style="" transform="translate(252,47)"><text x="5" style="font-size:11px;font-weight:bold;color:#000000;text-shadow:0 0 6px #FFFFFF, 0 0 3px #FFFFFF;fill:#000000;text-rendering:geometricPrecision;" y="16"></text></g><g style="" transform="translate(279,27)"><text x="5" style="font-size:11px;font-weight:bold;color:#000000;text-shadow:0 0 6px #FFFFFF, 0 0 3px #FFFFFF;fill:#000000;text-rendering:geometricPrecision;" y="16"></text></g><g style="" transform="translate(306,-4)"><text x="5" style="font-size:11px;font-weight:bold;color:#000000;text-shadow:0 0 6px #FFFFFF, 0 0 3px #FFFFFF;fill:#000000;text-rendering:geometricPrecision;" y="16"></text></g><g style="" transform="translate(333,-3)"><text x="5" style="font-size:11px;font-weight:bold;color:#000000;text-shadow:0 0 6px #FFFFFF, 0 0 3px #FFFFFF;fill:#000000;text-rendering:geometricPrecision;" y="16"></text></g><g style="" transform="translate(360,26)"><text x="5" style="font-size:11px;font-weight:bold;color:#000000;text-shadow:0 0 6px #FFFFFF, 0 0 3px #FFFFFF;fill:#000000;text-rendering:geometricPrecision;" y="16"></text></g><g style="" transform="translate(387,60)"><text x="5" style="font-size:11px;font-weight:bold;color:#000000;text-shadow:0 0 6px #FFFFFF, 0 0 3px #FFFFFF;fill:#000000;text-rendering:geometricPrecision;" y="16"></text></g><g style="" transform="translate(404,69)"><text x="5" style="font-size:11px;font-weight:bold;color:#000000;text-shadow:0 0 6px #FFFFFF, 0 0 3px #FFFFFF;fill:#000000;text-rendering:geometricPrecision;" y="16"><tspan>335</tspan></text></g></g><g class="highcharts-axis-labels highcharts-xaxis-labels"><text x="59.09272486435067" style="color:#000000;cursor:default;font-size:11px;fill:#000000;width:415px;text-overflow:ellipsis;" text-anchor="end" transform="translate(0,0) rotate(-45 59.09272486435067 356)" y="356" opacity="1"><tspan>2000</tspan></text><text x="86.09272486435067" style="color:#000000;cursor:default;font-size:11px;fill:#000000;width:415px;text-overflow:ellipsis;" text-anchor="end" transform="translate(0,0) rotate(-45 86.09272486435067 356)" y="356" opacity="1"><tspan>2001</tspan></text><text x="113.09272486435067" style="color:#000000;cursor:default;font-size:11px;fill:#000000;width:415px;text-overflow:ellipsis;" text-anchor="end" transform="translate(0,0) rotate(-45 113.09272486435067 356)" y="356" opacity="1"><tspan>2002</tspan></text><text x="140.09272486435069" style="color:#000000;cursor:default;font-size:11px;fill:#000000;width:415px;text-overflow:ellipsis;" text-anchor="end" transform="translate(0,0) rotate(-45 140.09272486435069 356)" y="356" opacity="1"><tspan>2003</tspan></text><text x="167.09272486435069" style="color:#000000;cursor:default;font-size:11px;fill:#000000;width:415px;text-overflow:ellipsis;" text-anchor="end" transform="translate(0,0) rotate(-45 167.09272486435069 356)" y="356" opacity="1"><tspan>2004</tspan></text><text x="194.09272486435069" style="color:#000000;cursor:default;font-size:11px;fill:#000000;width:415px;text-overflow:ellipsis;" text-anchor="end" transform="translate(0,0) rotate(-45 194.09272486435069 356)" y="356" opacity="1"><tspan>2005</tspan></text><text x="221.09272486435069" style="color:#000000;cursor:default;font-size:11px;fill:#000000;width:415px;text-overflow:ellipsis;" text-anchor="end" transform="translate(0,0) rotate(-45 221.09272486435069 356)" y="356" opacity="1"><tspan>2006</tspan></text><text x="248.09272486435066" style="color:#000000;cursor:default;font-size:11px;fill:#000000;width:415px;text-overflow:ellipsis;" text-anchor="end" transform="translate(0,0) rotate(-45 248.09272486435066 356)" y="356" opacity="1"><tspan>2007</tspan></text><text x="275.09272486435066" style="color:#000000;cursor:default;font-size:11px;fill:#000000;width:415px;text-overflow:ellipsis;" text-anchor="end" transform="translate(0,0) rotate(-45 275.09272486435066 356)" y="356" opacity="1"><tspan>2008</tspan></text><text x="302.09272486435066" style="color:#000000;cursor:default;font-size:11px;fill:#000000;width:415px;text-overflow:ellipsis;" text-anchor="end" transform="translate(0,0) rotate(-45 302.09272486435066 356)" y="356" opacity="1"><tspan>2009</tspan></text><text x="329.09272486435066" style="color:#000000;cursor:default;font-size:11px;fill:#000000;width:415px;text-overflow:ellipsis;" text-anchor="end" transform="translate(0,0) rotate(-45 329.09272486435066 356)" y="356" opacity="1"><tspan>2010</tspan></text><text x="356.09272486435066" style="color:#000000;cursor:default;font-size:11px;fill:#000000;width:415px;text-overflow:ellipsis;" text-anchor="end" transform="translate(0,0) rotate(-45 356.09272486435066 356)" y="356" opacity="1"><tspan>2011</tspan></text><text x="383.09272486435066" style="color:#000000;cursor:default;font-size:11px;fill:#000000;width:415px;text-overflow:ellipsis;" text-anchor="end" transform="translate(0,0) rotate(-45 383.09272486435066 356)" y="356" opacity="1"><tspan>2012</tspan></text><text x="410.09272486435066" style="color:#000000;cursor:default;font-size:11px;fill:#000000;width:415px;text-overflow:ellipsis;" text-anchor="end" transform="translate(0,0) rotate(-45 410.09272486435066 356)" y="356" opacity="1"><tspan>2013</tspan></text><text x="437.09272486435066" style="color:#000000;cursor:default;font-size:11px;fill:#000000;width:415px;text-overflow:ellipsis;" text-anchor="end" transform="translate(0,0) rotate(-45 437.09272486435066 356)" y="356" opacity="1"><tspan>2014</tspan></text><text x="464.09272486435066" style="color:#000000;cursor:default;font-size:11px;fill:#000000;width:415px;text-overflow:ellipsis;" text-anchor="end" transform="translate(0,0) rotate(-45 464.09272486435066 356)" y="356" opacity="1"><tspan>2015</tspan></text></g><g class="highcharts-axis-labels highcharts-yaxis-labels"><text x="28" style="color:#000000;cursor:default;font-size:11px;fill:#000000;width:150px;text-overflow:clip;" text-anchor="end" transform="translate(0,0)" y="344" opacity="1"><tspan>0</tspan></text><text x="28" style="color:#000000;cursor:default;font-size:11px;fill:#000000;width:150px;text-overflow:clip;" text-anchor="end" transform="translate(0,0)" y="316" opacity="1"><tspan>50</tspan></text><text x="28" style="color:#000000;cursor:default;font-size:11px;fill:#000000;width:150px;text-overflow:clip;" text-anchor="end" transform="translate(0,0)" y="288" opacity="1"><tspan>100</tspan></text><text x="28" style="color:#000000;cursor:default;font-size:11px;fill:#000000;width:150px;text-overflow:clip;" text-anchor="end" transform="translate(0,0)" y="260" opacity="1"><tspan>150</tspan></text><text x="28" style="color:#000000;cursor:default;font-size:11px;fill:#000000;width:150px;text-overflow:clip;" text-anchor="end" transform="translate(0,0)" y="232" opacity="1"><tspan>200</tspan></text><text x="28" style="color:#000000;cursor:default;font-size:11px;fill:#000000;width:150px;text-overflow:clip;" text-anchor="end" transform="translate(0,0)" y="204" opacity="1"><tspan>250</tspan></text><text x="28" style="color:#000000;cursor:default;font-size:11px;fill:#000000;width:150px;text-overflow:clip;" text-anchor="end" transform="translate(0,0)" y="175" opacity="1"><tspan>300</tspan></text><text x="28" style="color:#000000;cursor:default;font-size:11px;fill:#000000;width:150px;text-overflow:clip;" text-anchor="end" transform="translate(0,0)" y="147" opacity="1"><tspan>350</tspan></text><text x="28" style="color:#000000;cursor:default;font-size:11px;fill:#000000;width:150px;text-overflow:clip;" text-anchor="end" transform="translate(0,0)" y="119" opacity="1"><tspan>400</tspan></text><text x="28" style="color:#000000;cursor:default;font-size:11px;fill:#000000;width:150px;text-overflow:clip;" text-anchor="end" transform="translate(0,0)" y="91" opacity="1"><tspan>450</tspan></text><text x="28" style="color:#000000;cursor:default;font-size:11px;fill:#000000;width:150px;text-overflow:clip;" text-anchor="end" transform="translate(0,0)" y="63" opacity="1"><tspan>500</tspan></text></g><g class="highcharts-tooltip" style="cursor:default;padding:0;pointer-events:none;white-space:nowrap;" transform="translate(0,-9000000000)"><path fill="none" d="M 3.5 0.5 L 13.5 0.5 C 16.5 0.5 16.5 0.5 16.5 3.5 L 16.5 28.5 C 16.5 31.5 16.5 31.5 13.5 31.5 L 3.5 31.5 C 0.5 31.5 0.5 31.5 0.5 28.5 L 0.5 3.5 C 0.5 0.5 0.5 0.5 3.5 0.5" isshadow="true" stroke="black" stroke-opacity="0.049999999999999996" stroke-width="5" transform="translate(1, 1)"></path><path fill="none" d="M 3.5 0.5 L 13.5 0.5 C 16.5 0.5 16.5 0.5 16.5 3.5 L 16.5 28.5 C 16.5 31.5 16.5 31.5 13.5 31.5 L 3.5 31.5 C 0.5 31.5 0.5 31.5 0.5 28.5 L 0.5 3.5 C 0.5 0.5 0.5 0.5 3.5 0.5" isshadow="true" stroke="black" stroke-opacity="0.09999999999999999" stroke-width="3" transform="translate(1, 1)"></path><path fill="none" d="M 3.5 0.5 L 13.5 0.5 C 16.5 0.5 16.5 0.5 16.5 3.5 L 16.5 28.5 C 16.5 31.5 16.5 31.5 13.5 31.5 L 3.5 31.5 C 0.5 31.5 0.5 31.5 0.5 28.5 L 0.5 3.5 C 0.5 0.5 0.5 0.5 3.5 0.5" isshadow="true" stroke="black" stroke-opacity="0.15" stroke-width="1" transform="translate(1, 1)"></path><path fill="rgba(249, 249, 249, .85)" d="M 3.5 0.5 L 13.5 0.5 C 16.5 0.5 16.5 0.5 16.5 3.5 L 16.5 28.5 C 16.5 31.5 16.5 31.5 13.5 31.5 L 3.5 31.5 C 0.5 31.5 0.5 31.5 0.5 28.5 L 0.5 3.5 C 0.5 0.5 0.5 0.5 3.5 0.5"></path><text x="8" style="font-size:12px;color:#333333;fill:#333333;" y="20"></text></g><text x="10" text-anchor="start" style="cursor:default;color:#000000;font-size:10px;fill:#000000;" y="410"><tspan>Quelle: Bundesamt für Statistik BFS, Polizeiliche Kriminalstatistik (PKS)</tspan></text></svg>